<?xml version="1.0" encoding="UTF-8" standalone="no"?>
<!-- Created with Inkscape (http://www.inkscape.org/) -->

<svg
   width="4mm"
   height="10mm"
   viewBox="0 0 4.0000001 9.9999994"
   version="1.1"
   id="svg1681"
   inkscape:version="1.2.1 (9c6d41e410, 2022-07-14)"
   sodipodi:docname="upper_l_9.svg"
   inkscape:export-filename="..\..\..\..\Downloads\lower a diff canvas resize 3.0.png"
   inkscape:export-xdpi="96"
   inkscape:export-ydpi="96"
   xmlns:inkscape="http://www.inkscape.org/namespaces/inkscape"
   xmlns:sodipodi="http://sodipodi.sourceforge.net/DTD/sodipodi-0.dtd"
   xmlns="http://www.w3.org/2000/svg"
   xmlns:svg="http://www.w3.org/2000/svg"
   xmlns:rdf="http://www.w3.org/1999/02/22-rdf-syntax-ns#"
   xmlns:cc="http://creativecommons.org/ns#"
   xmlns:dc="http://purl.org/dc/elements/1.1/">
  <defs
     id="defs1675">
    <inkscape:path-effect
       effect="powerstroke"
       id="path-effect821"
       is_visible="true"
       lpeversion="1"
       offset_points="1.2535169,0.075265339 | 2.2076936,0.085819789"
       not_jump="true"
       sort_points="true"
       interpolator_type="CentripetalCatmullRom"
       interpolator_beta="0.75"
       start_linecap_type="round"
       linejoin_type="spiro"
       miter_limit="4"
       scale_width="1"
       end_linecap_type="round" />
    <inkscape:path-effect
       effect="simplify"
       id="path-effect819"
       is_visible="true"
       lpeversion="1"
       steps="1"
       threshold="0.0047745358"
       smooth_angles="0"
       helper_size="0"
       simplify_individual_paths="false"
       simplify_just_coalesce="false"
       step="1" />
    <inkscape:path-effect
       effect="powerstroke"
       id="path-effect746"
       is_visible="true"
       lpeversion="1"
       offset_points="0.63716419,0.075265339"
       not_jump="true"
       sort_points="true"
       interpolator_type="CentripetalCatmullRom"
       interpolator_beta="0.75"
       start_linecap_type="round"
       linejoin_type="spiro"
       miter_limit="4"
       scale_width="1"
       end_linecap_type="round" />
    <inkscape:path-effect
       effect="simplify"
       id="path-effect744"
       is_visible="true"
       lpeversion="1"
       steps="1"
       threshold="0.0047745358"
       smooth_angles="0"
       helper_size="0"
       simplify_individual_paths="false"
       simplify_just_coalesce="false"
       step="1" />
    <inkscape:path-effect
       effect="powerstroke"
       id="path-effect673"
       is_visible="true"
       lpeversion="1"
       offset_points="0.6140487,0.081148147"
       not_jump="true"
       sort_points="true"
       interpolator_type="CentripetalCatmullRom"
       interpolator_beta="0.75"
       start_linecap_type="round"
       linejoin_type="spiro"
       miter_limit="4"
       scale_width="1"
       end_linecap_type="round" />
    <inkscape:path-effect
       effect="simplify"
       id="path-effect671"
       is_visible="true"
       lpeversion="1"
       steps="1"
       threshold="0.0047745358"
       smooth_angles="0"
       helper_size="0"
       simplify_individual_paths="false"
       simplify_just_coalesce="false"
       step="1" />
    <inkscape:path-effect
       effect="powerstroke"
       id="path-effect602"
       is_visible="true"
       lpeversion="1"
       offset_points="0.75299051,0.084262575"
       not_jump="true"
       sort_points="true"
       interpolator_type="CentripetalCatmullRom"
       interpolator_beta="0.75"
       start_linecap_type="round"
       linejoin_type="spiro"
       miter_limit="4"
       scale_width="1"
       end_linecap_type="round" />
    <inkscape:path-effect
       effect="simplify"
       id="path-effect600"
       is_visible="true"
       lpeversion="1"
       steps="1"
       threshold="0.0047745358"
       smooth_angles="0"
       helper_size="0"
       simplify_individual_paths="false"
       simplify_just_coalesce="false"
       step="1" />
    <inkscape:path-effect
       effect="powerstroke"
       id="path-effect533"
       is_visible="true"
       lpeversion="1"
       offset_points="0.6287494,0.082532337"
       not_jump="true"
       sort_points="true"
       interpolator_type="CentripetalCatmullRom"
       interpolator_beta="0.75"
       start_linecap_type="round"
       linejoin_type="spiro"
       miter_limit="4"
       scale_width="1"
       end_linecap_type="round" />
    <inkscape:path-effect
       effect="simplify"
       id="path-effect531"
       is_visible="true"
       lpeversion="1"
       steps="1"
       threshold="0.0047745358"
       smooth_angles="0"
       helper_size="0"
       simplify_individual_paths="false"
       simplify_just_coalesce="false"
       step="1" />
    <inkscape:path-effect
       effect="powerstroke"
       id="path-effect526"
       is_visible="true"
       lpeversion="1"
       offset_points="0.5,0"
       not_jump="true"
       sort_points="true"
       interpolator_type="CentripetalCatmullRom"
       interpolator_beta="0.75"
       start_linecap_type="round"
       linejoin_type="spiro"
       miter_limit="4"
       scale_width="1"
       end_linecap_type="round" />
    <inkscape:path-effect
       effect="simplify"
       id="path-effect524"
       is_visible="true"
       lpeversion="1"
       steps="1"
       threshold="0.0047745358"
       smooth_angles="0"
       helper_size="0"
       simplify_individual_paths="false"
       simplify_just_coalesce="false"
       step="1" />
    <inkscape:path-effect
       effect="powerstroke"
       id="path-effect519"
       is_visible="true"
       lpeversion="1"
       offset_points="0.9979333,0.07163184 | 3.5157893,0.082705361"
       not_jump="true"
       sort_points="true"
       interpolator_type="CentripetalCatmullRom"
       interpolator_beta="0.75"
       start_linecap_type="round"
       linejoin_type="spiro"
       miter_limit="4"
       scale_width="1"
       end_linecap_type="round" />
    <inkscape:path-effect
       effect="simplify"
       id="path-effect517"
       is_visible="true"
       lpeversion="1"
       steps="1"
       threshold="0.0047745358"
       smooth_angles="0"
       helper_size="0"
       simplify_individual_paths="false"
       simplify_just_coalesce="false"
       step="1" />
    <inkscape:path-effect
       effect="powerstroke"
       id="path-effect456"
       is_visible="true"
       lpeversion="1"
       offset_points="0.57429021,0.072843006"
       not_jump="true"
       sort_points="true"
       interpolator_type="CentripetalCatmullRom"
       interpolator_beta="0.75"
       start_linecap_type="round"
       linejoin_type="spiro"
       miter_limit="4"
       scale_width="1"
       end_linecap_type="round" />
    <inkscape:path-effect
       effect="simplify"
       id="path-effect454"
       is_visible="true"
       lpeversion="1"
       steps="1"
       threshold="0.0047745358"
       smooth_angles="0"
       helper_size="0"
       simplify_individual_paths="false"
       simplify_just_coalesce="false"
       step="1" />
    <inkscape:path-effect
       effect="powerstroke"
       id="path-effect395"
       is_visible="true"
       lpeversion="1"
       offset_points="1.2980746,0.077514648"
       not_jump="true"
       sort_points="true"
       interpolator_type="CentripetalCatmullRom"
       interpolator_beta="0.75"
       start_linecap_type="round"
       linejoin_type="spiro"
       miter_limit="4"
       scale_width="1"
       end_linecap_type="round" />
    <inkscape:path-effect
       effect="simplify"
       id="path-effect393"
       is_visible="true"
       lpeversion="1"
       steps="1"
       threshold="0.0047745358"
       smooth_angles="0"
       helper_size="0"
       simplify_individual_paths="false"
       simplify_just_coalesce="false"
       step="1" />
    <inkscape:path-effect
       effect="powerstroke"
       id="path-effect336"
       is_visible="true"
       lpeversion="1"
       offset_points="1.0463965,0.078206743 | 5.7376494,0.091529573"
       not_jump="true"
       sort_points="true"
       interpolator_type="CentripetalCatmullRom"
       interpolator_beta="0.75"
       start_linecap_type="round"
       linejoin_type="spiro"
       miter_limit="4"
       scale_width="1"
       end_linecap_type="round" />
    <inkscape:path-effect
       effect="simplify"
       id="path-effect334"
       is_visible="true"
       lpeversion="1"
       steps="1"
       threshold="0.0047745358"
       smooth_angles="0"
       helper_size="0"
       simplify_individual_paths="false"
       simplify_just_coalesce="false"
       step="1" />
    <inkscape:path-effect
       effect="powerstroke"
       id="path-effect279"
       is_visible="true"
       lpeversion="1"
       offset_points="1.3641499,0.056924819"
       not_jump="true"
       sort_points="true"
       interpolator_type="CentripetalCatmullRom"
       interpolator_beta="0.75"
       start_linecap_type="round"
       linejoin_type="spiro"
       miter_limit="4"
       scale_width="1"
       end_linecap_type="round" />
    <inkscape:path-effect
       effect="simplify"
       id="path-effect277"
       is_visible="true"
       lpeversion="1"
       steps="1"
       threshold="0.0047745358"
       smooth_angles="0"
       helper_size="0"
       simplify_individual_paths="false"
       simplify_just_coalesce="false"
       step="1" />
    <inkscape:path-effect
       effect="powerstroke"
       id="path-effect272"
       is_visible="true"
       lpeversion="1"
       offset_points="0.68021526,0.078033719 | 3.5742134,0.069209507 | 3.8358607,0.078206743"
       not_jump="true"
       sort_points="true"
       interpolator_type="CentripetalCatmullRom"
       interpolator_beta="0.75"
       start_linecap_type="round"
       linejoin_type="spiro"
       miter_limit="4"
       scale_width="1"
       end_linecap_type="round" />
    <inkscape:path-effect
       effect="simplify"
       id="path-effect270"
       is_visible="true"
       lpeversion="1"
       steps="1"
       threshold="0.0047745358"
       smooth_angles="0"
       helper_size="0"
       simplify_individual_paths="false"
       simplify_just_coalesce="false"
       step="1" />
    <inkscape:path-effect
       effect="powerstroke"
       id="path-effect658"
       is_visible="true"
       lpeversion="1"
       offset_points="1.8087758,0.11306363 | 3.894175,0.13038791 | 4.7414675,0.11434016"
       not_jump="true"
       sort_points="true"
       interpolator_type="CentripetalCatmullRom"
       interpolator_beta="0.75"
       start_linecap_type="round"
       linejoin_type="spiro"
       miter_limit="4"
       scale_width="1"
       end_linecap_type="round" />
    <inkscape:path-effect
       effect="simplify"
       id="path-effect656"
       is_visible="true"
       lpeversion="1"
       steps="1"
       threshold="0.0035951417"
       smooth_angles="0"
       helper_size="0"
       simplify_individual_paths="false"
       simplify_just_coalesce="false"
       step="1" />
    <inkscape:path-effect
       effect="powerstroke"
       id="path-effect651"
       is_visible="true"
       lpeversion="1"
       offset_points="1.70749,0.088529767 | 3.1558436,0.1086435 | 3.9161456,0.098072777"
       not_jump="true"
       sort_points="true"
       interpolator_type="CentripetalCatmullRom"
       interpolator_beta="0.75"
       start_linecap_type="round"
       linejoin_type="spiro"
       miter_limit="4"
       scale_width="1"
       end_linecap_type="round" />
    <inkscape:path-effect
       effect="simplify"
       id="path-effect649"
       is_visible="true"
       lpeversion="1"
       steps="1"
       threshold="0.0035951417"
       smooth_angles="0"
       helper_size="0"
       simplify_individual_paths="false"
       simplify_just_coalesce="false"
       step="1" />
    <inkscape:path-effect
       effect="powerstroke"
       id="path-effect177"
       is_visible="true"
       lpeversion="1"
       offset_points="1,0.14346089"
       not_jump="true"
       sort_points="true"
       interpolator_type="CentripetalCatmullRom"
       interpolator_beta="0.75"
       start_linecap_type="round"
       linejoin_type="spiro"
       miter_limit="4"
       scale_width="1"
       end_linecap_type="round" />
    <inkscape:path-effect
       effect="simplify"
       id="path-effect175"
       is_visible="true"
       lpeversion="1"
       steps="1"
       threshold="0.0035951417"
       smooth_angles="0"
       helper_size="0"
       simplify_individual_paths="false"
       simplify_just_coalesce="false"
       step="1" />
    <inkscape:path-effect
       effect="powerstroke"
       id="path-effect170"
       is_visible="true"
       lpeversion="1"
       offset_points="0.53707365,0.17285861"
       not_jump="true"
       sort_points="true"
       interpolator_type="CentripetalCatmullRom"
       interpolator_beta="0.75"
       start_linecap_type="round"
       linejoin_type="spiro"
       miter_limit="4"
       scale_width="1"
       end_linecap_type="round" />
    <inkscape:path-effect
       effect="simplify"
       id="path-effect168"
       is_visible="true"
       lpeversion="1"
       steps="1"
       threshold="0.0035951417"
       smooth_angles="0"
       helper_size="0"
       simplify_individual_paths="false"
       simplify_just_coalesce="false"
       step="1" />
    <inkscape:path-effect
       effect="powerstroke"
       id="path-effect163"
       is_visible="true"
       lpeversion="1"
       offset_points="1,0.088529767"
       not_jump="true"
       sort_points="true"
       interpolator_type="CentripetalCatmullRom"
       interpolator_beta="0.75"
       start_linecap_type="round"
       linejoin_type="spiro"
       miter_limit="4"
       scale_width="1"
       end_linecap_type="round" />
    <inkscape:path-effect
       effect="simplify"
       id="path-effect161"
       is_visible="true"
       lpeversion="1"
       steps="1"
       threshold="0.0035951417"
       smooth_angles="0"
       helper_size="0"
       simplify_individual_paths="false"
       simplify_just_coalesce="false"
       step="1" />
    <inkscape:path-effect
       effect="powerstroke"
       id="path-effect156"
       is_visible="true"
       lpeversion="1"
       offset_points="1.5,0.082950777"
       not_jump="true"
       sort_points="true"
       interpolator_type="CentripetalCatmullRom"
       interpolator_beta="0.75"
       start_linecap_type="round"
       linejoin_type="spiro"
       miter_limit="4"
       scale_width="1"
       end_linecap_type="round" />
    <inkscape:path-effect
       effect="simplify"
       id="path-effect154"
       is_visible="true"
       lpeversion="1"
       steps="1"
       threshold="0.0035951417"
       smooth_angles="0"
       helper_size="0"
       simplify_individual_paths="false"
       simplify_just_coalesce="false"
       step="1" />
    <inkscape:path-effect
       effect="powerstroke"
       id="path-effect149"
       is_visible="true"
       lpeversion="1"
       offset_points="1.303249,0.12652779"
       not_jump="true"
       sort_points="true"
       interpolator_type="CentripetalCatmullRom"
       interpolator_beta="0.75"
       start_linecap_type="round"
       linejoin_type="spiro"
       miter_limit="4"
       scale_width="1"
       end_linecap_type="round" />
    <inkscape:path-effect
       effect="simplify"
       id="path-effect147"
       is_visible="true"
       lpeversion="1"
       steps="1"
       threshold="0.0035951417"
       smooth_angles="0"
       helper_size="0"
       simplify_individual_paths="false"
       simplify_just_coalesce="false"
       step="1" />
    <inkscape:path-effect
       effect="powerstroke"
       id="path-effect502"
       is_visible="true"
       lpeversion="1"
       offset_points="3.0091841,0.21607495 | 7.3602657,0.17554228 | 9.4159651,0.20236537"
       not_jump="true"
       sort_points="true"
       interpolator_type="CentripetalCatmullRom"
       interpolator_beta="0.75"
       start_linecap_type="round"
       linejoin_type="spiro"
       miter_limit="4"
       scale_width="1"
       end_linecap_type="round" />
    <inkscape:path-effect
       effect="simplify"
       id="path-effect500"
       is_visible="true"
       lpeversion="1"
       steps="1"
       threshold="0.0035951417"
       smooth_angles="0"
       helper_size="0"
       simplify_individual_paths="false"
       simplify_just_coalesce="false"
       step="1" />
    <inkscape:path-effect
       effect="powerstroke"
       id="path-effect241"
       is_visible="true"
       lpeversion="1"
       offset_points="2.6879454,0.34086734"
       not_jump="true"
       sort_points="true"
       interpolator_type="CentripetalCatmullRom"
       interpolator_beta="0.75"
       start_linecap_type="round"
       linejoin_type="spiro"
       miter_limit="4"
       scale_width="1"
       end_linecap_type="round" />
    <inkscape:path-effect
       effect="simplify"
       id="path-effect239"
       is_visible="true"
       lpeversion="1"
       steps="1"
       threshold="0.0028332064"
       smooth_angles="0"
       helper_size="0"
       simplify_individual_paths="false"
       simplify_just_coalesce="false"
       step="1" />
    <inkscape:path-effect
       effect="powerstroke"
       id="path-effect234"
       is_visible="true"
       lpeversion="1"
       offset_points="2.13563,0.075169555"
       not_jump="true"
       sort_points="true"
       interpolator_type="CentripetalCatmullRom"
       interpolator_beta="0.75"
       start_linecap_type="round"
       linejoin_type="spiro"
       miter_limit="4"
       scale_width="1"
       end_linecap_type="round" />
    <inkscape:path-effect
       effect="simplify"
       id="path-effect232"
       is_visible="true"
       lpeversion="1"
       steps="1"
       threshold="0.0028332064"
       smooth_angles="0"
       helper_size="0"
       simplify_individual_paths="false"
       simplify_just_coalesce="false"
       step="1" />
    <inkscape:path-effect
       effect="powerstroke"
       id="path-effect227"
       is_visible="true"
       lpeversion="1"
       offset_points="2.1868266,0.075169555"
       not_jump="true"
       sort_points="true"
       interpolator_type="CentripetalCatmullRom"
       interpolator_beta="0.75"
       start_linecap_type="round"
       linejoin_type="spiro"
       miter_limit="4"
       scale_width="1"
       end_linecap_type="round" />
    <inkscape:path-effect
       effect="simplify"
       id="path-effect225"
       is_visible="true"
       lpeversion="1"
       steps="1"
       threshold="0.0028332064"
       smooth_angles="0"
       helper_size="0"
       simplify_individual_paths="false"
       simplify_just_coalesce="false"
       step="1" />
    <inkscape:path-effect
       effect="powerstroke"
       id="path-effect166"
       is_visible="true"
       lpeversion="1"
       offset_points="1.9637935,0.075169555"
       not_jump="true"
       sort_points="true"
       interpolator_type="CentripetalCatmullRom"
       interpolator_beta="0.75"
       start_linecap_type="round"
       linejoin_type="spiro"
       miter_limit="4"
       scale_width="1"
       end_linecap_type="round" />
    <inkscape:path-effect
       effect="simplify"
       id="path-effect164"
       is_visible="true"
       lpeversion="1"
       steps="1"
       threshold="0.0028332064"
       smooth_angles="0"
       helper_size="0"
       simplify_individual_paths="false"
       simplify_just_coalesce="false"
       step="1" />
    <inkscape:path-effect
       effect="powerstroke"
       id="path-effect159"
       is_visible="true"
       lpeversion="1"
       offset_points="2.2611036,0.075169555"
       not_jump="true"
       sort_points="true"
       interpolator_type="CentripetalCatmullRom"
       interpolator_beta="0.75"
       start_linecap_type="round"
       linejoin_type="spiro"
       miter_limit="4"
       scale_width="1"
       end_linecap_type="round" />
    <inkscape:path-effect
       effect="simplify"
       id="path-effect157"
       is_visible="true"
       lpeversion="1"
       steps="1"
       threshold="0.0028332064"
       smooth_angles="0"
       helper_size="0"
       simplify_individual_paths="false"
       simplify_just_coalesce="false"
       step="1" />
    <inkscape:path-effect
       effect="powerstroke"
       id="path-effect152"
       is_visible="true"
       lpeversion="1"
       offset_points="2.826981,0.075169555"
       not_jump="true"
       sort_points="true"
       interpolator_type="CentripetalCatmullRom"
       interpolator_beta="0.75"
       start_linecap_type="round"
       linejoin_type="spiro"
       miter_limit="4"
       scale_width="1"
       end_linecap_type="round" />
    <inkscape:path-effect
       effect="simplify"
       id="path-effect150"
       is_visible="true"
       lpeversion="1"
       steps="1"
       threshold="0.0028332064"
       smooth_angles="0"
       helper_size="0"
       simplify_individual_paths="false"
       simplify_just_coalesce="false"
       step="1" />
    <inkscape:path-effect
       effect="powerstroke"
       id="path-effect145"
       is_visible="true"
       lpeversion="1"
       offset_points="3.8374447,0.075169555"
       not_jump="true"
       sort_points="true"
       interpolator_type="CentripetalCatmullRom"
       interpolator_beta="0.75"
       start_linecap_type="round"
       linejoin_type="spiro"
       miter_limit="4"
       scale_width="1"
       end_linecap_type="round" />
    <inkscape:path-effect
       effect="simplify"
       id="path-effect143"
       is_visible="true"
       lpeversion="1"
       steps="1"
       threshold="0.0028332064"
       smooth_angles="0"
       helper_size="0"
       simplify_individual_paths="false"
       simplify_just_coalesce="false"
       step="1" />
    <inkscape:path-effect
       effect="powerstroke"
       id="path-effect138"
       is_visible="true"
       lpeversion="1"
       offset_points="2.6880907,0.075169555"
       not_jump="true"
       sort_points="true"
       interpolator_type="CentripetalCatmullRom"
       interpolator_beta="0.75"
       start_linecap_type="round"
       linejoin_type="spiro"
       miter_limit="4"
       scale_width="1"
       end_linecap_type="round" />
    <inkscape:path-effect
       effect="simplify"
       id="path-effect136"
       is_visible="true"
       lpeversion="1"
       steps="1"
       threshold="0.0028332064"
       smooth_angles="0"
       helper_size="0"
       simplify_individual_paths="false"
       simplify_just_coalesce="false"
       step="1" />
    <inkscape:path-effect
       effect="powerstroke"
       id="path-effect131"
       is_visible="true"
       lpeversion="1"
       offset_points="1.9940581,0.075169555"
       not_jump="true"
       sort_points="true"
       interpolator_type="CentripetalCatmullRom"
       interpolator_beta="0.75"
       start_linecap_type="round"
       linejoin_type="spiro"
       miter_limit="4"
       scale_width="1"
       end_linecap_type="round" />
    <inkscape:path-effect
       effect="simplify"
       id="path-effect129"
       is_visible="true"
       lpeversion="1"
       steps="1"
       threshold="0.0028332064"
       smooth_angles="0"
       helper_size="0"
       simplify_individual_paths="false"
       simplify_just_coalesce="false"
       step="1" />
  </defs>
  <sodipodi:namedview
     id="base"
     pagecolor="#ffffff"
     bordercolor="#666666"
     borderopacity="1.0"
     inkscape:pageopacity="0.0"
     inkscape:pageshadow="2"
     inkscape:zoom="22.4"
     inkscape:cx="5.6026785"
     inkscape:cy="16.964286"
     inkscape:document-units="mm"
     inkscape:current-layer="layer1"
     showgrid="false"
     fit-margin-top="0"
     fit-margin-left="0"
     fit-margin-right="0"
     fit-margin-bottom="0"
     inkscape:window-width="1920"
     inkscape:window-height="1057"
     inkscape:window-x="1072"
     inkscape:window-y="321"
     inkscape:window-maximized="1"
     showguides="true"
     inkscape:guide-bbox="true"
     inkscape:snap-bbox="true"
     inkscape:bbox-nodes="true"
     inkscape:snap-nodes="false"
     inkscape:snap-others="false"
     inkscape:snap-page="true"
     inkscape:snap-grids="false"
     inkscape:snap-to-guides="false"
     inkscape:snap-global="false"
     inkscape:pagecheckerboard="0"
     inkscape:showpageshadow="2"
     inkscape:deskcolor="#d1d1d1">
    <sodipodi:guide
       position="-6.1806075,9.4988693"
       orientation="0,1"
       id="guide816"
       inkscape:locked="false" />
    <sodipodi:guide
       position="-4.4101636,10.646923"
       orientation="0,1"
       id="guide818"
       inkscape:locked="false" />
    <sodipodi:guide
       position="2.7595724,11.09577"
       orientation="1,0"
       id="guide820"
       inkscape:locked="false" />
    <sodipodi:guide
       position="3.6572659,10.942217"
       orientation="1,0"
       id="guide822"
       inkscape:locked="false" />
    <sodipodi:guide
       position="-0.051625511,9.74923"
       orientation="1,0"
       id="guide1853"
       inkscape:locked="false" />
    <sodipodi:guide
       position="-2.3720169,3.0175835"
       orientation="0,1"
       id="guide1855"
       inkscape:locked="false" />
  </sodipodi:namedview>
  <metadata
     id="metadata1678">
    <rdf:RDF>
      <cc:Work
         rdf:about="">
        <dc:format>image/svg+xml</dc:format>
        <dc:type
           rdf:resource="http://purl.org/dc/dcmitype/StillImage" />
      </cc:Work>
    </rdf:RDF>
  </metadata>
  <g
     inkscape:label="Layer 1"
     inkscape:groupmode="layer"
     id="layer1"
     transform="translate(17.028496,-147.22856)">
    <path
       d="m -16.224311,148.44459 c 0.0094,0.11968 0.01414,0.27066 0.0014,0.51648 -0.0094,0.18263 -0.02324,0.3436 -0.03268,0.52623 l 0.0026,-0.0157 c 4.66e-4,-0.001 0.0017,-0.005 0.0039,-0.009 0.0012,-0.002 0.0031,-0.006 0.006,-0.01 0.0027,-0.004 0.0079,-0.0101 0.01605,-0.0161 0.0043,-0.003 0.0098,-0.006 0.0167,-0.009 0.007,-0.003 0.01514,-0.005 0.02416,-0.005 0.0091,-3.7e-4 0.0179,9.4e-4 0.02601,0.004 0.008,0.003 0.01462,0.006 0.01985,0.01 0.01003,0.007 0.01602,0.015 0.01908,0.0196 0.0033,0.005 0.0053,0.009 0.0065,0.012 0.0022,0.005 0.0033,0.01 0.0037,0.0113 4.82e-4,0.002 7.56e-4,0.004 8.7e-4,0.004 2e-4,-0.005 1.97e-4,-0.009 2.57e-4,-0.0142 1.5e-4,-0.0119 5.45e-4,-0.0251 0.0011,-0.0385 5.91e-4,-0.0152 0.0013,-0.0305 0.0021,-0.0445 8.19e-4,-0.0149 0.0017,-0.028 0.0024,-0.0391 4.61e-4,-0.007 6.45e-4,-0.009 0.001,-0.0147 1.42e-4,-0.002 3e-4,-0.004 4.07e-4,-0.006 9.7e-5,-0.002 2.25e-4,-0.004 1.65e-4,-0.007 -2.7e-5,-0.001 -1.13e-4,-0.004 -5.22e-4,-0.007 -1.97e-4,-0.002 -6.06e-4,-0.004 -0.0015,-0.008 -4.34e-4,-0.002 -0.0011,-0.005 -0.0022,-0.008 -0.001,-0.003 -0.003,-0.008 -0.0064,-0.014 -0.0018,-0.003 -0.0044,-0.007 -0.008,-0.0114 -0.0036,-0.004 -0.0089,-0.01 -0.01621,-0.0148 -0.0075,-0.005 -0.01751,-0.0102 -0.02985,-0.0128 -0.01259,-0.003 -0.02523,-0.002 -0.03693,8.5e-4 -0.01131,0.003 -0.02023,0.008 -0.02669,0.0123 -0.0064,0.004 -0.01108,0.009 -0.01429,0.0128 -0.0061,0.007 -0.0098,0.0134 -0.0115,0.0168 -0.002,0.004 -0.0033,0.007 -0.004,0.009 -8.3e-4,0.002 -0.0014,0.004 -0.0019,0.005 -8.19e-4,0.003 -0.0014,0.005 -0.0017,0.006 -6.2e-4,0.003 -0.0011,0.005 -0.0013,0.006 -0.0011,0.006 -0.0015,0.008 -0.0019,0.011 -6.99e-4,0.005 -0.0014,0.0109 -0.0023,0.019 -7.89e-4,0.008 -0.0017,0.0172 -0.0027,0.0293 -0.01546,0.2443 -0.02756,0.51071 -0.03524,0.80807 -0.02675,1.03574 0.0028,1.55383 0.01946,3.07452 0.0017,0.12727 0.0076,0.26182 0.0097,0.4 0.0019,0.12711 3.67e-4,0.25813 -0.01314,0.38849 -4.53e-4,0.004 -5.83e-4,0.009 -3.79e-4,0.0132 7.03e-4,0.0151 0.0028,0.0303 0.007,0.0452 0.0041,0.0149 0.01024,0.0295 0.01877,0.0431 0.0085,0.0137 0.019,0.0256 0.03103,0.0356 0.01194,0.01 0.02472,0.0175 0.03755,0.0231 0.02508,0.011 0.05074,0.0149 0.07293,0.016 0.02235,0.001 0.04475,-4.8e-4 0.06522,-0.003 0.04177,-0.005 0.08147,-0.0134 0.114674,-0.0186 0.01701,-0.003 0.03118,-0.004 0.0431,-0.005 0.01229,-5.7e-4 0.01901,2.4e-4 0.02203,8.8e-4 0.0041,8.7e-4 0.0082,0.002 0.0124,0.002 0.0042,3.6e-4 0.0084,2e-4 0.01256,-6e-5 0.285961,-0.0183 0.565923,-0.0437 0.83515,-0.0582 0.293373,-0.0158 0.562099,-0.0185 0.825123,0.004 0.191379,0.009 0.303059,0.006 0.405681,-0.005 a 0.08581979,0.08581979 90 0 0 -0.0171,-0.17078 c -0.09113,0.009 -0.195094,0.0116 -0.377079,0.002 -0.270666,-0.0234 -0.548127,-0.0207 -0.845905,-0.005 -0.269925,0.0142 -0.546989,0.0389 -0.826045,0.0567 -0.01896,-0.003 -0.03759,-0.003 -0.05438,-0.003 -0.02111,8.8e-4 -0.04244,0.004 -0.06221,0.007 -0.04001,0.006 -0.07827,0.014 -0.108164,0.0174 -0.01536,0.002 -0.0272,0.002 -0.03616,0.002 -0.0085,-4.5e-4 -0.01237,-0.002 -0.01101,-0.001 7.29e-4,3.1e-4 0.0025,0.001 0.0047,0.003 0.0022,0.002 0.0041,0.004 0.0055,0.006 0.0013,0.002 0.0017,0.004 0.0017,0.003 -3.5e-5,-1.4e-4 -1.48e-4,-5.9e-4 -2.79e-4,-0.001 0.01387,-0.13773 0.01525,-0.27386 0.01325,-0.40123 -0.0021,-0.13254 -0.0082,-0.267 -0.01027,-0.39954 -0.01781,-1.54291 -0.04778,-2.01807 -0.02366,-3.06807 0.0068,-0.29541 0.01773,-0.55982 0.03181,-0.80159 5.42e-4,-0.0113 9.67e-4,-0.0206 0.0013,-0.0277 3.11e-4,-0.007 5.08e-4,-0.013 5.45e-4,-0.016 -5.73e-4,-0.002 -7.68e-4,-6e-4 -0.0014,0.002 -2.55e-4,0.001 -7.71e-4,0.003 -0.0015,0.006 -3.97e-4,0.001 -9.86e-4,0.003 -0.0018,0.005 -7.63e-4,0.002 -0.002,0.005 -0.004,0.009 -0.0017,0.003 -0.0053,0.01 -0.01143,0.0166 -0.0032,0.004 -0.0079,0.008 -0.01425,0.0127 -0.0065,0.005 -0.01536,0.009 -0.02666,0.0123 -0.01169,0.003 -0.02431,0.003 -0.03689,8.5e-4 -0.01233,-0.003 -0.02231,-0.008 -0.02982,-0.0128 -0.0073,-0.005 -0.01262,-0.0105 -0.01617,-0.0148 -0.0036,-0.004 -0.0062,-0.008 -0.0079,-0.0114 -0.0034,-0.006 -0.0054,-0.011 -0.0064,-0.0139 -0.0011,-0.003 -0.0018,-0.006 -0.0022,-0.008 -8.18e-4,-0.003 -0.0012,-0.006 -0.0014,-0.007 -3.53e-4,-0.003 -3.58e-4,-0.005 -3.45e-4,-0.005 3.5e-5,-0.002 2.59e-4,-0.001 3.97e-4,-8.5e-4 8.07e-4,0.006 0.0011,0.0107 0.0013,0.0157 4.84e-4,0.0102 8.33e-4,0.0236 0.0011,0.0383 2.74e-4,0.0147 4.5e-4,0.0291 6.73e-4,0.0454 1.82e-4,0.0134 4.01e-4,0.0285 7.42e-4,0.0408 1.97e-4,0.007 4.16e-4,0.0129 7.27e-4,0.0182 1.49e-4,0.003 3.35e-4,0.005 5.74e-4,0.008 2.18e-4,0.002 5.58e-4,0.006 0.0011,0.009 2.75e-4,0.002 7.06e-4,0.004 0.0014,0.007 5.62e-4,0.002 0.0018,0.007 0.0042,0.0131 0.0012,0.003 0.0034,0.008 0.0068,0.0126 0.0032,0.005 0.0093,0.0128 0.0194,0.02 0.0053,0.004 0.012,0.007 0.02001,0.01 0.0082,0.003 0.01703,0.004 0.02618,0.004 0.0091,-3.7e-4 0.01728,-0.002 0.02434,-0.005 0.0069,-0.003 0.01255,-0.006 0.01688,-0.009 0.0083,-0.006 0.01357,-0.0126 0.01642,-0.0165 0.003,-0.004 0.0051,-0.008 0.0064,-0.0105 0.0025,-0.005 0.004,-0.009 0.0047,-0.0116 8.45e-4,-0.003 0.0015,-0.005 0.0019,-0.007 4.49e-4,-0.002 8.26e-4,-0.004 0.0011,-0.005 7.53e-4,-0.004 0.0013,-0.008 0.0014,-0.0114 0.008,-0.1679 0.02349,-0.35346 0.03282,-0.52563 0.0136,-0.25092 0.0098,-0.40942 -2.24e-4,-0.53618 a 0.07526534,0.07526534 90 0 0 -0.150066,0.0118 z"
       id="path-1"
       inkscape:path-effect="#path-effect819;#path-effect821"
       inkscape:original-d="m -16.149278,148.43868 c 0.01644,0.33959 0.01605,0.21834 -0.01257,0.73925 -0.05353,0.97426 0.0097,-0.6159 -0.04608,0.60819 -0.04901,1.07635 -0.0075,2.16069 0.0035,3.23765 0.0028,0.27182 0.01399,0.54351 0.01606,0.81527 4.53e-4,0.0596 -0.03576,0.23958 0,0.29075 0.0013,0.002 0.505294,-0.0346 0.527171,-0.036 0.360258,-0.0234 0.720211,-0.0592 1.081574,-0.0561 0.257556,0.002 0.527877,0.039 0.782029,0.0134"
       style="fill:#000000;fill-rule:nonzero;stroke:none" />
  </g>
</svg>
