<?xml version="1.0" encoding="UTF-8" standalone="no"?>
<!-- Created with Inkscape (http://www.inkscape.org/) -->

<svg
   width="4mm"
   height="10mm"
   viewBox="0 0 4.0000001 9.9999994"
   version="1.1"
   id="svg1681"
   inkscape:version="1.2.1 (9c6d41e410, 2022-07-14)"
   sodipodi:docname="upper_m_4.svg"
   inkscape:export-filename="..\..\..\..\Downloads\lower a diff canvas resize 3.0.png"
   inkscape:export-xdpi="96"
   inkscape:export-ydpi="96"
   xmlns:inkscape="http://www.inkscape.org/namespaces/inkscape"
   xmlns:sodipodi="http://sodipodi.sourceforge.net/DTD/sodipodi-0.dtd"
   xmlns="http://www.w3.org/2000/svg"
   xmlns:svg="http://www.w3.org/2000/svg"
   xmlns:rdf="http://www.w3.org/1999/02/22-rdf-syntax-ns#"
   xmlns:cc="http://creativecommons.org/ns#"
   xmlns:dc="http://purl.org/dc/elements/1.1/">
  <defs
     id="defs1675">
    <inkscape:path-effect
       effect="powerstroke"
       id="path-effect403"
       is_visible="true"
       lpeversion="1"
       offset_points="1.457577,0.12111664 | 5.233177,0.15053068 | 7.7732484,0.13288225"
       not_jump="true"
       sort_points="true"
       interpolator_type="CentripetalCatmullRom"
       interpolator_beta="0.75"
       start_linecap_type="round"
       linejoin_type="spiro"
       miter_limit="4"
       scale_width="1"
       end_linecap_type="round" />
    <inkscape:path-effect
       effect="simplify"
       id="path-effect401"
       is_visible="true"
       lpeversion="1"
       steps="1"
       threshold="0.0047745358"
       smooth_angles="0"
       helper_size="0"
       simplify_individual_paths="false"
       simplify_just_coalesce="false"
       step="1" />
    <inkscape:path-effect
       effect="powerstroke"
       id="path-effect354"
       is_visible="true"
       lpeversion="1"
       offset_points="2.2765321,0.10865893 | 4.9415083,0.12838364"
       not_jump="true"
       sort_points="true"
       interpolator_type="CentripetalCatmullRom"
       interpolator_beta="0.75"
       start_linecap_type="round"
       linejoin_type="spiro"
       miter_limit="4"
       scale_width="1"
       end_linecap_type="round" />
    <inkscape:path-effect
       effect="simplify"
       id="path-effect352"
       is_visible="true"
       lpeversion="1"
       steps="1"
       threshold="0.0047745358"
       smooth_angles="0"
       helper_size="0"
       simplify_individual_paths="false"
       simplify_just_coalesce="false"
       step="1" />
    <inkscape:path-effect
       effect="powerstroke"
       id="path-effect307"
       is_visible="true"
       lpeversion="1"
       offset_points="1.7693549,0.11973245 | 5.9608865,0.10000774"
       not_jump="true"
       sort_points="true"
       interpolator_type="CentripetalCatmullRom"
       interpolator_beta="0.75"
       start_linecap_type="round"
       linejoin_type="spiro"
       miter_limit="4"
       scale_width="1"
       end_linecap_type="round" />
    <inkscape:path-effect
       effect="simplify"
       id="path-effect305"
       is_visible="true"
       lpeversion="1"
       steps="1"
       threshold="0.0047745358"
       smooth_angles="0"
       helper_size="0"
       simplify_individual_paths="false"
       simplify_just_coalesce="false"
       step="1" />
    <inkscape:path-effect
       effect="powerstroke"
       id="path-effect262"
       is_visible="true"
       lpeversion="1"
       offset_points="1.5334011,0.16748701 | 5.5892239,0.23392813"
       not_jump="true"
       sort_points="true"
       interpolator_type="CentripetalCatmullRom"
       interpolator_beta="0.75"
       start_linecap_type="round"
       linejoin_type="spiro"
       miter_limit="4"
       scale_width="1"
       end_linecap_type="round" />
    <inkscape:path-effect
       effect="simplify"
       id="path-effect260"
       is_visible="true"
       lpeversion="1"
       steps="1"
       threshold="0.0047745358"
       smooth_angles="0"
       helper_size="0"
       simplify_individual_paths="false"
       simplify_just_coalesce="false"
       step="1" />
    <inkscape:path-effect
       effect="powerstroke"
       id="path-effect106"
       is_visible="true"
       lpeversion="1"
       offset_points="1.6883851,0.13608109 | 3.7857891,0.1878262"
       not_jump="true"
       sort_points="true"
       interpolator_type="CentripetalCatmullRom"
       interpolator_beta="0.75"
       start_linecap_type="round"
       linejoin_type="spiro"
       miter_limit="4"
       scale_width="1"
       end_linecap_type="round" />
    <inkscape:path-effect
       effect="simplify"
       id="path-effect104"
       is_visible="true"
       lpeversion="1"
       steps="1"
       threshold="0.0035951417"
       smooth_angles="0"
       helper_size="0"
       simplify_individual_paths="false"
       simplify_just_coalesce="false"
       step="1" />
    <inkscape:path-effect
       effect="powerstroke"
       id="path-effect99"
       is_visible="true"
       lpeversion="1"
       offset_points="1.7542629,0.074582291 | 8.0398341,0.10350495"
       not_jump="true"
       sort_points="true"
       interpolator_type="CentripetalCatmullRom"
       interpolator_beta="0.75"
       start_linecap_type="round"
       linejoin_type="spiro"
       miter_limit="4"
       scale_width="1"
       end_linecap_type="round" />
    <inkscape:path-effect
       effect="simplify"
       id="path-effect97"
       is_visible="true"
       lpeversion="1"
       steps="1"
       threshold="0.0035951417"
       smooth_angles="0"
       helper_size="0"
       simplify_individual_paths="false"
       simplify_just_coalesce="false"
       step="1" />
    <inkscape:path-effect
       effect="powerstroke"
       id="path-effect502"
       is_visible="true"
       lpeversion="1"
       offset_points="3.0091841,0.21607495 | 7.3602657,0.17554228 | 9.4159651,0.20236537"
       not_jump="true"
       sort_points="true"
       interpolator_type="CentripetalCatmullRom"
       interpolator_beta="0.75"
       start_linecap_type="round"
       linejoin_type="spiro"
       miter_limit="4"
       scale_width="1"
       end_linecap_type="round" />
    <inkscape:path-effect
       effect="simplify"
       id="path-effect500"
       is_visible="true"
       lpeversion="1"
       steps="1"
       threshold="0.0035951417"
       smooth_angles="0"
       helper_size="0"
       simplify_individual_paths="false"
       simplify_just_coalesce="false"
       step="1" />
    <inkscape:path-effect
       effect="powerstroke"
       id="path-effect241"
       is_visible="true"
       lpeversion="1"
       offset_points="2.6879454,0.34086734"
       not_jump="true"
       sort_points="true"
       interpolator_type="CentripetalCatmullRom"
       interpolator_beta="0.75"
       start_linecap_type="round"
       linejoin_type="spiro"
       miter_limit="4"
       scale_width="1"
       end_linecap_type="round" />
    <inkscape:path-effect
       effect="simplify"
       id="path-effect239"
       is_visible="true"
       lpeversion="1"
       steps="1"
       threshold="0.0028332064"
       smooth_angles="0"
       helper_size="0"
       simplify_individual_paths="false"
       simplify_just_coalesce="false"
       step="1" />
    <inkscape:path-effect
       effect="powerstroke"
       id="path-effect234"
       is_visible="true"
       lpeversion="1"
       offset_points="2.13563,0.075169555"
       not_jump="true"
       sort_points="true"
       interpolator_type="CentripetalCatmullRom"
       interpolator_beta="0.75"
       start_linecap_type="round"
       linejoin_type="spiro"
       miter_limit="4"
       scale_width="1"
       end_linecap_type="round" />
    <inkscape:path-effect
       effect="simplify"
       id="path-effect232"
       is_visible="true"
       lpeversion="1"
       steps="1"
       threshold="0.0028332064"
       smooth_angles="0"
       helper_size="0"
       simplify_individual_paths="false"
       simplify_just_coalesce="false"
       step="1" />
    <inkscape:path-effect
       effect="powerstroke"
       id="path-effect227"
       is_visible="true"
       lpeversion="1"
       offset_points="2.1868266,0.075169555"
       not_jump="true"
       sort_points="true"
       interpolator_type="CentripetalCatmullRom"
       interpolator_beta="0.75"
       start_linecap_type="round"
       linejoin_type="spiro"
       miter_limit="4"
       scale_width="1"
       end_linecap_type="round" />
    <inkscape:path-effect
       effect="simplify"
       id="path-effect225"
       is_visible="true"
       lpeversion="1"
       steps="1"
       threshold="0.0028332064"
       smooth_angles="0"
       helper_size="0"
       simplify_individual_paths="false"
       simplify_just_coalesce="false"
       step="1" />
    <inkscape:path-effect
       effect="powerstroke"
       id="path-effect166"
       is_visible="true"
       lpeversion="1"
       offset_points="1.9637935,0.075169555"
       not_jump="true"
       sort_points="true"
       interpolator_type="CentripetalCatmullRom"
       interpolator_beta="0.75"
       start_linecap_type="round"
       linejoin_type="spiro"
       miter_limit="4"
       scale_width="1"
       end_linecap_type="round" />
    <inkscape:path-effect
       effect="simplify"
       id="path-effect164"
       is_visible="true"
       lpeversion="1"
       steps="1"
       threshold="0.0028332064"
       smooth_angles="0"
       helper_size="0"
       simplify_individual_paths="false"
       simplify_just_coalesce="false"
       step="1" />
    <inkscape:path-effect
       effect="powerstroke"
       id="path-effect159"
       is_visible="true"
       lpeversion="1"
       offset_points="2.2611036,0.075169555"
       not_jump="true"
       sort_points="true"
       interpolator_type="CentripetalCatmullRom"
       interpolator_beta="0.75"
       start_linecap_type="round"
       linejoin_type="spiro"
       miter_limit="4"
       scale_width="1"
       end_linecap_type="round" />
    <inkscape:path-effect
       effect="simplify"
       id="path-effect157"
       is_visible="true"
       lpeversion="1"
       steps="1"
       threshold="0.0028332064"
       smooth_angles="0"
       helper_size="0"
       simplify_individual_paths="false"
       simplify_just_coalesce="false"
       step="1" />
    <inkscape:path-effect
       effect="powerstroke"
       id="path-effect152"
       is_visible="true"
       lpeversion="1"
       offset_points="2.826981,0.075169555"
       not_jump="true"
       sort_points="true"
       interpolator_type="CentripetalCatmullRom"
       interpolator_beta="0.75"
       start_linecap_type="round"
       linejoin_type="spiro"
       miter_limit="4"
       scale_width="1"
       end_linecap_type="round" />
    <inkscape:path-effect
       effect="simplify"
       id="path-effect150"
       is_visible="true"
       lpeversion="1"
       steps="1"
       threshold="0.0028332064"
       smooth_angles="0"
       helper_size="0"
       simplify_individual_paths="false"
       simplify_just_coalesce="false"
       step="1" />
    <inkscape:path-effect
       effect="powerstroke"
       id="path-effect145"
       is_visible="true"
       lpeversion="1"
       offset_points="3.8374447,0.075169555"
       not_jump="true"
       sort_points="true"
       interpolator_type="CentripetalCatmullRom"
       interpolator_beta="0.75"
       start_linecap_type="round"
       linejoin_type="spiro"
       miter_limit="4"
       scale_width="1"
       end_linecap_type="round" />
    <inkscape:path-effect
       effect="simplify"
       id="path-effect143"
       is_visible="true"
       lpeversion="1"
       steps="1"
       threshold="0.0028332064"
       smooth_angles="0"
       helper_size="0"
       simplify_individual_paths="false"
       simplify_just_coalesce="false"
       step="1" />
    <inkscape:path-effect
       effect="powerstroke"
       id="path-effect138"
       is_visible="true"
       lpeversion="1"
       offset_points="2.6880907,0.075169555"
       not_jump="true"
       sort_points="true"
       interpolator_type="CentripetalCatmullRom"
       interpolator_beta="0.75"
       start_linecap_type="round"
       linejoin_type="spiro"
       miter_limit="4"
       scale_width="1"
       end_linecap_type="round" />
    <inkscape:path-effect
       effect="simplify"
       id="path-effect136"
       is_visible="true"
       lpeversion="1"
       steps="1"
       threshold="0.0028332064"
       smooth_angles="0"
       helper_size="0"
       simplify_individual_paths="false"
       simplify_just_coalesce="false"
       step="1" />
    <inkscape:path-effect
       effect="powerstroke"
       id="path-effect131"
       is_visible="true"
       lpeversion="1"
       offset_points="1.9940581,0.075169555"
       not_jump="true"
       sort_points="true"
       interpolator_type="CentripetalCatmullRom"
       interpolator_beta="0.75"
       start_linecap_type="round"
       linejoin_type="spiro"
       miter_limit="4"
       scale_width="1"
       end_linecap_type="round" />
    <inkscape:path-effect
       effect="simplify"
       id="path-effect129"
       is_visible="true"
       lpeversion="1"
       steps="1"
       threshold="0.0028332064"
       smooth_angles="0"
       helper_size="0"
       simplify_individual_paths="false"
       simplify_just_coalesce="false"
       step="1" />
  </defs>
  <sodipodi:namedview
     id="base"
     pagecolor="#ffffff"
     bordercolor="#666666"
     borderopacity="1.0"
     inkscape:pageopacity="0.0"
     inkscape:pageshadow="2"
     inkscape:zoom="11.2"
     inkscape:cx="-1.3839286"
     inkscape:cy="14.910714"
     inkscape:document-units="mm"
     inkscape:current-layer="layer1"
     showgrid="false"
     fit-margin-top="0"
     fit-margin-left="0"
     fit-margin-right="0"
     fit-margin-bottom="0"
     inkscape:window-width="1920"
     inkscape:window-height="1057"
     inkscape:window-x="1072"
     inkscape:window-y="321"
     inkscape:window-maximized="1"
     showguides="true"
     inkscape:guide-bbox="true"
     inkscape:snap-bbox="true"
     inkscape:bbox-nodes="true"
     inkscape:snap-nodes="false"
     inkscape:snap-others="false"
     inkscape:snap-page="true"
     inkscape:snap-grids="false"
     inkscape:snap-to-guides="false"
     inkscape:snap-global="false"
     inkscape:pagecheckerboard="0"
     inkscape:showpageshadow="2"
     inkscape:deskcolor="#d1d1d1">
    <sodipodi:guide
       position="-6.1806075,9.4988692"
       orientation="0,1"
       id="guide816"
       inkscape:locked="false" />
    <sodipodi:guide
       position="-4.4101636,10.646923"
       orientation="0,1"
       id="guide818"
       inkscape:locked="false" />
    <sodipodi:guide
       position="2.7595724,11.09577"
       orientation="1,0"
       id="guide820"
       inkscape:locked="false" />
    <sodipodi:guide
       position="3.6572659,10.942217"
       orientation="1,0"
       id="guide822"
       inkscape:locked="false" />
    <sodipodi:guide
       position="-0.051625511,9.7492299"
       orientation="1,0"
       id="guide1853"
       inkscape:locked="false" />
    <sodipodi:guide
       position="-2.3720169,3.0175835"
       orientation="0,1"
       id="guide1855"
       inkscape:locked="false" />
  </sodipodi:namedview>
  <metadata
     id="metadata1678">
    <rdf:RDF>
      <cc:Work
         rdf:about="">
        <dc:format>image/svg+xml</dc:format>
        <dc:type
           rdf:resource="http://purl.org/dc/dcmitype/StillImage" />
      </cc:Work>
    </rdf:RDF>
  </metadata>
  <g
     inkscape:label="Layer 1"
     inkscape:groupmode="layer"
     id="layer1"
     transform="translate(17.028496,-147.22856)">
    <path
       d="m -16.884973,154.13561 c 0.109288,-0.74225 0.35748,-2.28567 0.896495,-3.9853 0.07577,-0.25764 0.155389,-0.51524 0.239248,-0.77628 0.08961,-0.27894 0.18896,-0.5765 0.303989,-0.91161 0.0033,-0.01 0.0059,-0.0195 0.0064,-0.0296 4.72e-4,-0.0101 -5.87e-4,-0.0203 -0.0014,-0.0304 -7.31e-4,-0.009 0.002,-0.0122 9.2e-4,-0.006 -4.61e-4,0.002 -0.0022,0.008 -0.0077,0.0161 -0.005,0.007 -0.01634,0.0203 -0.03719,0.0296 -0.01066,0.005 -0.02386,0.008 -0.03905,0.009 -0.01527,7e-4 -0.03058,-0.002 -0.04489,-0.007 -0.01404,-0.005 -0.02525,-0.0128 -0.03373,-0.0203 -0.0083,-0.007 -0.01392,-0.0146 -0.01757,-0.0202 -0.0074,-0.0113 -0.0084,-0.0169 -0.0089,-0.0171 -4.61e-4,-1.6e-4 -6.4e-5,0.005 -6.23e-4,0.0139 -1.16e-4,0.002 -1.57e-4,0.004 -5.6e-5,0.006 10e-5,0.002 2.6e-4,0.004 3.73e-4,0.006 0.01829,0.30737 0.0473,0.62 0.106605,0.93074 0.107275,0.62205 0.292443,1.23882 0.454549,1.76525 0.01288,0.0417 0.02554,0.087 0.03968,0.13325 0.01721,0.0562 0.03675,0.11419 0.06208,0.17053 0.02507,0.0558 0.05614,0.11065 0.09662,0.16048 0.0426,0.0524 0.09473,0.0981 0.158628,0.13267 0.01405,0.008 0.02856,0.0148 0.04425,0.0179 0.01569,0.003 0.03186,0.001 0.04766,-8.9e-4 0.04107,-0.006 0.07934,-0.0201 0.113306,-0.0422 0.03408,-0.0222 0.06,-0.0501 0.07946,-0.0792 0.01926,-0.0288 0.03231,-0.0591 0.04148,-0.0873 0.0092,-0.0282 0.01521,-0.0566 0.01942,-0.0832 0.0081,-0.0515 0.01078,-0.10541 0.01312,-0.14814 0.0012,-0.0221 0.0023,-0.0413 0.0039,-0.059 0.0015,-0.0175 0.0033,-0.0303 0.0051,-0.04 6.46e-4,-0.003 0.0014,-0.007 0.002,-0.01 6.06e-4,-0.003 9.9e-4,-0.007 0.0013,-0.0101 0.03805,-0.47578 0.09165,-1.02198 0.176125,-1.58675 0.02192,-0.14654 0.04687,-0.30094 0.07538,-0.46106 0.02882,-0.13684 0.06265,-0.32303 0.101019,-0.47666 0.037,-0.14813 0.08465,-0.29683 0.158029,-0.43413 l -0.0937,0.0673 c -0.01038,0.002 -0.02409,0.002 -0.03951,-0.002 -0.01552,-0.004 -0.0289,-0.0109 -0.0395,-0.0192 -0.01011,-0.008 -0.01627,-0.016 -0.01992,-0.0216 -0.0035,-0.005 -0.0051,-0.009 -0.0056,-0.0106 -0.0011,-0.003 5.51e-4,0.001 0.0018,0.01 0.0013,0.009 0.0025,0.0197 0.0034,0.0339 0.0018,0.0274 0.0025,0.062 0.0046,0.0979 0.001,0.0174 0.0025,0.0364 0.0051,0.055 0.0018,0.0129 0.0044,0.0281 0.0088,0.0439 0.09926,0.91479 0.202682,1.76748 0.263641,2.64844 0.05654,0.67527 0.0849,1.32334 0.135282,1.90127 0.04183,0.41402 0.101425,0.69591 0.164334,0.9158 a 0.13288225,0.13288225 90 0 0 0.255514,-0.0731 c -0.05828,-0.20371 -0.115641,-0.46949 -0.156702,-0.86766 -0.05015,-0.56892 -0.07904,-1.21547 -0.136615,-1.89642 -0.06207,-0.88982 -0.167433,-1.75374 -0.266846,-2.66894 -0.0011,-0.0104 -0.0035,-0.0205 -0.007,-0.0304 0.0013,0.004 -2.92e-4,-7.4e-4 -0.0014,-0.009 -0.0012,-0.009 -0.0022,-0.0199 -0.0031,-0.0343 -0.0017,-0.0281 -0.0023,-0.0635 -0.0047,-0.1 -0.0012,-0.0181 -0.003,-0.0376 -0.0059,-0.0568 -0.0029,-0.0187 -0.0076,-0.0412 -0.01615,-0.0635 -0.0044,-0.0115 -0.01051,-0.0246 -0.01907,-0.0378 -0.0088,-0.0135 -0.02062,-0.028 -0.03712,-0.0411 -0.01703,-0.0135 -0.03752,-0.0241 -0.0609,-0.0298 -0.02333,-0.006 -0.04572,-0.006 -0.06562,-0.002 -0.01,0.002 -0.01999,0.003 -0.02963,0.006 -0.0096,0.003 -0.01888,0.007 -0.0271,0.0134 -0.0082,0.006 -0.01534,0.0133 -0.02134,0.0214 -0.006,0.008 -0.01086,0.0171 -0.01564,0.026 -0.08786,0.16394 -0.142092,0.33567 -0.181986,0.49363 -0.03991,0.15802 -0.07836,0.3624 -0.105823,0.48977 -0.0302,0.16687 -0.05598,0.32358 -0.07871,0.47216 -0.08673,0.56689 -0.144896,1.11734 -0.18727,1.5925 -0.005,0.0216 -0.0084,0.0434 -0.01094,0.0633 -0.003,0.0233 -0.0053,0.0474 -0.0073,0.0692 -0.0044,0.0471 -0.0079,0.0857 -0.01477,0.11979 -0.0033,0.0165 -0.007,0.0295 -0.01078,0.0393 -0.0038,0.01 -0.0071,0.0147 -0.0086,0.0161 -1.79e-4,1.7e-4 -0.0014,-2.1e-4 0.0028,-0.004 0.0032,-0.003 0.0057,-0.003 0.0033,-0.003 l 0.09192,0.017 c -0.02602,-0.0151 -0.04832,-0.0351 -0.06846,-0.061 -0.01972,-0.0253 -0.03781,-0.0568 -0.05503,-0.096 -0.01762,-0.0402 -0.03277,-0.0847 -0.04877,-0.13666 -0.01292,-0.042 -0.02584,-0.0874 -0.04091,-0.13444 -0.163801,-0.52581 -0.348456,-1.12572 -0.458477,-1.7291 -0.06202,-0.29523 -0.09668,-0.5929 -0.121319,-0.89389 -5.08e-4,-0.0205 -0.0026,-0.0406 -0.0067,-0.0598 -0.0047,-0.0217 -0.01277,-0.0461 -0.02734,-0.0692 -0.0075,-0.0119 -0.01729,-0.0243 -0.02997,-0.0356 -0.01289,-0.0115 -0.02871,-0.0219 -0.04748,-0.0291 -0.01907,-0.007 -0.03926,-0.0106 -0.05942,-0.01 -0.02011,8.6e-4 -0.03827,0.006 -0.05378,0.0126 -0.03067,0.0135 -0.05164,0.0346 -0.06501,0.0527 -0.01406,0.019 -0.02341,0.0396 -0.0295,0.0589 -0.0094,0.03 -0.01256,0.062 -0.01041,0.094 -0.108936,0.32761 -0.202641,0.61579 -0.289661,0.8908 -0.08329,0.26323 -0.162711,0.52212 -0.238231,0.77973 -0.543447,1.71551 -0.796383,3.27312 -0.906375,4.02015 a 0.12111664,0.12111664 90 0 0 0.23965,0.0353 z"
       id="path-1"
       inkscape:path-effect="#path-effect401;#path-effect403"
       inkscape:original-d="m -17.004798,154.11797 c 0.184943,-1.2436 0.439102,-2.48328 0.80577,-3.68725 0.307357,-1.00922 0.16391,-0.57336 0.548817,-1.75262 0.0259,-0.0794 0.05567,-0.15742 0.08239,-0.23651 0.01485,-0.044 0.0041,-0.15102 0.04608,-0.13134 0.03757,0.0176 0.0425,0.34769 0.05586,0.45505 0.09163,0.73642 0.272544,1.45223 0.501336,2.15698 0.05719,0.17617 0.125566,0.56441 0.32538,0.65287 0.158312,0.0701 0.155967,-0.45942 0.198301,-0.8387 0.07867,-0.70486 0.153137,-1.41008 0.319794,-2.10085 0.05788,-0.23992 0.165962,-0.53881 0.205282,-0.50955 0.0137,0.0102 0.117103,1.01132 0.124287,1.07413 0.07375,0.6448 0.07919,0.67534 0.138252,1.34825 0.03527,0.40192 0.07574,0.9706 0.103339,1.35479 0.04728,0.65806 0.05465,1.34494 0.237402,1.98369"
       style="fill:#000000;fill-rule:nonzero;stroke:none" />
  </g>
</svg>
