<?xml version="1.0" encoding="UTF-8" standalone="no"?>
<!-- Created with Inkscape (http://www.inkscape.org/) -->

<svg
   width="4mm"
   height="10mm"
   viewBox="0 0 4.0000001 9.9999994"
   version="1.1"
   id="svg1681"
   inkscape:version="1.2.1 (9c6d41e410, 2022-07-14)"
   sodipodi:docname="upper_m_3.svg"
   inkscape:export-filename="..\..\..\..\Downloads\lower a diff canvas resize 3.0.png"
   inkscape:export-xdpi="96"
   inkscape:export-ydpi="96"
   xmlns:inkscape="http://www.inkscape.org/namespaces/inkscape"
   xmlns:sodipodi="http://sodipodi.sourceforge.net/DTD/sodipodi-0.dtd"
   xmlns="http://www.w3.org/2000/svg"
   xmlns:svg="http://www.w3.org/2000/svg"
   xmlns:rdf="http://www.w3.org/1999/02/22-rdf-syntax-ns#"
   xmlns:cc="http://creativecommons.org/ns#"
   xmlns:dc="http://purl.org/dc/elements/1.1/">
  <defs
     id="defs1675">
    <inkscape:path-effect
       effect="powerstroke"
       id="path-effect354"
       is_visible="true"
       lpeversion="1"
       offset_points="2.2765321,0.10865893 | 4.9415083,0.12838364"
       not_jump="true"
       sort_points="true"
       interpolator_type="CentripetalCatmullRom"
       interpolator_beta="0.75"
       start_linecap_type="round"
       linejoin_type="spiro"
       miter_limit="4"
       scale_width="1"
       end_linecap_type="round" />
    <inkscape:path-effect
       effect="simplify"
       id="path-effect352"
       is_visible="true"
       lpeversion="1"
       steps="1"
       threshold="0.0047745358"
       smooth_angles="0"
       helper_size="0"
       simplify_individual_paths="false"
       simplify_just_coalesce="false"
       step="1" />
    <inkscape:path-effect
       effect="powerstroke"
       id="path-effect307"
       is_visible="true"
       lpeversion="1"
       offset_points="1.7693549,0.11973245 | 5.9608865,0.10000774"
       not_jump="true"
       sort_points="true"
       interpolator_type="CentripetalCatmullRom"
       interpolator_beta="0.75"
       start_linecap_type="round"
       linejoin_type="spiro"
       miter_limit="4"
       scale_width="1"
       end_linecap_type="round" />
    <inkscape:path-effect
       effect="simplify"
       id="path-effect305"
       is_visible="true"
       lpeversion="1"
       steps="1"
       threshold="0.0047745358"
       smooth_angles="0"
       helper_size="0"
       simplify_individual_paths="false"
       simplify_just_coalesce="false"
       step="1" />
    <inkscape:path-effect
       effect="powerstroke"
       id="path-effect262"
       is_visible="true"
       lpeversion="1"
       offset_points="1.5334011,0.16748701 | 5.5892239,0.23392813"
       not_jump="true"
       sort_points="true"
       interpolator_type="CentripetalCatmullRom"
       interpolator_beta="0.75"
       start_linecap_type="round"
       linejoin_type="spiro"
       miter_limit="4"
       scale_width="1"
       end_linecap_type="round" />
    <inkscape:path-effect
       effect="simplify"
       id="path-effect260"
       is_visible="true"
       lpeversion="1"
       steps="1"
       threshold="0.0047745358"
       smooth_angles="0"
       helper_size="0"
       simplify_individual_paths="false"
       simplify_just_coalesce="false"
       step="1" />
    <inkscape:path-effect
       effect="powerstroke"
       id="path-effect106"
       is_visible="true"
       lpeversion="1"
       offset_points="1.6883851,0.13608109 | 3.7857891,0.1878262"
       not_jump="true"
       sort_points="true"
       interpolator_type="CentripetalCatmullRom"
       interpolator_beta="0.75"
       start_linecap_type="round"
       linejoin_type="spiro"
       miter_limit="4"
       scale_width="1"
       end_linecap_type="round" />
    <inkscape:path-effect
       effect="simplify"
       id="path-effect104"
       is_visible="true"
       lpeversion="1"
       steps="1"
       threshold="0.0035951417"
       smooth_angles="0"
       helper_size="0"
       simplify_individual_paths="false"
       simplify_just_coalesce="false"
       step="1" />
    <inkscape:path-effect
       effect="powerstroke"
       id="path-effect99"
       is_visible="true"
       lpeversion="1"
       offset_points="1.7542629,0.074582291 | 8.0398341,0.10350495"
       not_jump="true"
       sort_points="true"
       interpolator_type="CentripetalCatmullRom"
       interpolator_beta="0.75"
       start_linecap_type="round"
       linejoin_type="spiro"
       miter_limit="4"
       scale_width="1"
       end_linecap_type="round" />
    <inkscape:path-effect
       effect="simplify"
       id="path-effect97"
       is_visible="true"
       lpeversion="1"
       steps="1"
       threshold="0.0035951417"
       smooth_angles="0"
       helper_size="0"
       simplify_individual_paths="false"
       simplify_just_coalesce="false"
       step="1" />
    <inkscape:path-effect
       effect="powerstroke"
       id="path-effect502"
       is_visible="true"
       lpeversion="1"
       offset_points="3.0091841,0.21607495 | 7.3602657,0.17554228 | 9.4159651,0.20236537"
       not_jump="true"
       sort_points="true"
       interpolator_type="CentripetalCatmullRom"
       interpolator_beta="0.75"
       start_linecap_type="round"
       linejoin_type="spiro"
       miter_limit="4"
       scale_width="1"
       end_linecap_type="round" />
    <inkscape:path-effect
       effect="simplify"
       id="path-effect500"
       is_visible="true"
       lpeversion="1"
       steps="1"
       threshold="0.0035951417"
       smooth_angles="0"
       helper_size="0"
       simplify_individual_paths="false"
       simplify_just_coalesce="false"
       step="1" />
    <inkscape:path-effect
       effect="powerstroke"
       id="path-effect241"
       is_visible="true"
       lpeversion="1"
       offset_points="2.6879454,0.34086734"
       not_jump="true"
       sort_points="true"
       interpolator_type="CentripetalCatmullRom"
       interpolator_beta="0.75"
       start_linecap_type="round"
       linejoin_type="spiro"
       miter_limit="4"
       scale_width="1"
       end_linecap_type="round" />
    <inkscape:path-effect
       effect="simplify"
       id="path-effect239"
       is_visible="true"
       lpeversion="1"
       steps="1"
       threshold="0.0028332064"
       smooth_angles="0"
       helper_size="0"
       simplify_individual_paths="false"
       simplify_just_coalesce="false"
       step="1" />
    <inkscape:path-effect
       effect="powerstroke"
       id="path-effect234"
       is_visible="true"
       lpeversion="1"
       offset_points="2.13563,0.075169555"
       not_jump="true"
       sort_points="true"
       interpolator_type="CentripetalCatmullRom"
       interpolator_beta="0.75"
       start_linecap_type="round"
       linejoin_type="spiro"
       miter_limit="4"
       scale_width="1"
       end_linecap_type="round" />
    <inkscape:path-effect
       effect="simplify"
       id="path-effect232"
       is_visible="true"
       lpeversion="1"
       steps="1"
       threshold="0.0028332064"
       smooth_angles="0"
       helper_size="0"
       simplify_individual_paths="false"
       simplify_just_coalesce="false"
       step="1" />
    <inkscape:path-effect
       effect="powerstroke"
       id="path-effect227"
       is_visible="true"
       lpeversion="1"
       offset_points="2.1868266,0.075169555"
       not_jump="true"
       sort_points="true"
       interpolator_type="CentripetalCatmullRom"
       interpolator_beta="0.75"
       start_linecap_type="round"
       linejoin_type="spiro"
       miter_limit="4"
       scale_width="1"
       end_linecap_type="round" />
    <inkscape:path-effect
       effect="simplify"
       id="path-effect225"
       is_visible="true"
       lpeversion="1"
       steps="1"
       threshold="0.0028332064"
       smooth_angles="0"
       helper_size="0"
       simplify_individual_paths="false"
       simplify_just_coalesce="false"
       step="1" />
    <inkscape:path-effect
       effect="powerstroke"
       id="path-effect166"
       is_visible="true"
       lpeversion="1"
       offset_points="1.9637935,0.075169555"
       not_jump="true"
       sort_points="true"
       interpolator_type="CentripetalCatmullRom"
       interpolator_beta="0.75"
       start_linecap_type="round"
       linejoin_type="spiro"
       miter_limit="4"
       scale_width="1"
       end_linecap_type="round" />
    <inkscape:path-effect
       effect="simplify"
       id="path-effect164"
       is_visible="true"
       lpeversion="1"
       steps="1"
       threshold="0.0028332064"
       smooth_angles="0"
       helper_size="0"
       simplify_individual_paths="false"
       simplify_just_coalesce="false"
       step="1" />
    <inkscape:path-effect
       effect="powerstroke"
       id="path-effect159"
       is_visible="true"
       lpeversion="1"
       offset_points="2.2611036,0.075169555"
       not_jump="true"
       sort_points="true"
       interpolator_type="CentripetalCatmullRom"
       interpolator_beta="0.75"
       start_linecap_type="round"
       linejoin_type="spiro"
       miter_limit="4"
       scale_width="1"
       end_linecap_type="round" />
    <inkscape:path-effect
       effect="simplify"
       id="path-effect157"
       is_visible="true"
       lpeversion="1"
       steps="1"
       threshold="0.0028332064"
       smooth_angles="0"
       helper_size="0"
       simplify_individual_paths="false"
       simplify_just_coalesce="false"
       step="1" />
    <inkscape:path-effect
       effect="powerstroke"
       id="path-effect152"
       is_visible="true"
       lpeversion="1"
       offset_points="2.826981,0.075169555"
       not_jump="true"
       sort_points="true"
       interpolator_type="CentripetalCatmullRom"
       interpolator_beta="0.75"
       start_linecap_type="round"
       linejoin_type="spiro"
       miter_limit="4"
       scale_width="1"
       end_linecap_type="round" />
    <inkscape:path-effect
       effect="simplify"
       id="path-effect150"
       is_visible="true"
       lpeversion="1"
       steps="1"
       threshold="0.0028332064"
       smooth_angles="0"
       helper_size="0"
       simplify_individual_paths="false"
       simplify_just_coalesce="false"
       step="1" />
    <inkscape:path-effect
       effect="powerstroke"
       id="path-effect145"
       is_visible="true"
       lpeversion="1"
       offset_points="3.8374447,0.075169555"
       not_jump="true"
       sort_points="true"
       interpolator_type="CentripetalCatmullRom"
       interpolator_beta="0.75"
       start_linecap_type="round"
       linejoin_type="spiro"
       miter_limit="4"
       scale_width="1"
       end_linecap_type="round" />
    <inkscape:path-effect
       effect="simplify"
       id="path-effect143"
       is_visible="true"
       lpeversion="1"
       steps="1"
       threshold="0.0028332064"
       smooth_angles="0"
       helper_size="0"
       simplify_individual_paths="false"
       simplify_just_coalesce="false"
       step="1" />
    <inkscape:path-effect
       effect="powerstroke"
       id="path-effect138"
       is_visible="true"
       lpeversion="1"
       offset_points="2.6880907,0.075169555"
       not_jump="true"
       sort_points="true"
       interpolator_type="CentripetalCatmullRom"
       interpolator_beta="0.75"
       start_linecap_type="round"
       linejoin_type="spiro"
       miter_limit="4"
       scale_width="1"
       end_linecap_type="round" />
    <inkscape:path-effect
       effect="simplify"
       id="path-effect136"
       is_visible="true"
       lpeversion="1"
       steps="1"
       threshold="0.0028332064"
       smooth_angles="0"
       helper_size="0"
       simplify_individual_paths="false"
       simplify_just_coalesce="false"
       step="1" />
    <inkscape:path-effect
       effect="powerstroke"
       id="path-effect131"
       is_visible="true"
       lpeversion="1"
       offset_points="1.9940581,0.075169555"
       not_jump="true"
       sort_points="true"
       interpolator_type="CentripetalCatmullRom"
       interpolator_beta="0.75"
       start_linecap_type="round"
       linejoin_type="spiro"
       miter_limit="4"
       scale_width="1"
       end_linecap_type="round" />
    <inkscape:path-effect
       effect="simplify"
       id="path-effect129"
       is_visible="true"
       lpeversion="1"
       steps="1"
       threshold="0.0028332064"
       smooth_angles="0"
       helper_size="0"
       simplify_individual_paths="false"
       simplify_just_coalesce="false"
       step="1" />
  </defs>
  <sodipodi:namedview
     id="base"
     pagecolor="#ffffff"
     bordercolor="#666666"
     borderopacity="1.0"
     inkscape:pageopacity="0.0"
     inkscape:pageshadow="2"
     inkscape:zoom="11.2"
     inkscape:cx="-1.3839286"
     inkscape:cy="14.910714"
     inkscape:document-units="mm"
     inkscape:current-layer="layer1"
     showgrid="false"
     fit-margin-top="0"
     fit-margin-left="0"
     fit-margin-right="0"
     fit-margin-bottom="0"
     inkscape:window-width="1920"
     inkscape:window-height="1057"
     inkscape:window-x="1072"
     inkscape:window-y="321"
     inkscape:window-maximized="1"
     showguides="true"
     inkscape:guide-bbox="true"
     inkscape:snap-bbox="true"
     inkscape:bbox-nodes="true"
     inkscape:snap-nodes="false"
     inkscape:snap-others="false"
     inkscape:snap-page="true"
     inkscape:snap-grids="false"
     inkscape:snap-to-guides="false"
     inkscape:snap-global="false"
     inkscape:pagecheckerboard="0"
     inkscape:showpageshadow="2"
     inkscape:deskcolor="#d1d1d1">
    <sodipodi:guide
       position="-6.1806075,9.4988692"
       orientation="0,1"
       id="guide816"
       inkscape:locked="false" />
    <sodipodi:guide
       position="-4.4101636,10.646923"
       orientation="0,1"
       id="guide818"
       inkscape:locked="false" />
    <sodipodi:guide
       position="2.7595724,11.09577"
       orientation="1,0"
       id="guide820"
       inkscape:locked="false" />
    <sodipodi:guide
       position="3.6572659,10.942217"
       orientation="1,0"
       id="guide822"
       inkscape:locked="false" />
    <sodipodi:guide
       position="-0.051625511,9.7492299"
       orientation="1,0"
       id="guide1853"
       inkscape:locked="false" />
    <sodipodi:guide
       position="-2.3720169,3.0175835"
       orientation="0,1"
       id="guide1855"
       inkscape:locked="false" />
  </sodipodi:namedview>
  <metadata
     id="metadata1678">
    <rdf:RDF>
      <cc:Work
         rdf:about="">
        <dc:format>image/svg+xml</dc:format>
        <dc:type
           rdf:resource="http://purl.org/dc/dcmitype/StillImage" />
      </cc:Work>
    </rdf:RDF>
  </metadata>
  <g
     inkscape:label="Layer 1"
     inkscape:groupmode="layer"
     id="layer1"
     transform="translate(17.028496,-147.22856)">
    <path
       d="m -16.755523,153.99938 c 0.09255,-0.49854 0.266018,-1.37441 0.553488,-2.43726 0.09989,-0.32225 0.207673,-0.64708 0.326136,-0.96556 0.01582,-0.039 0.03225,-0.0781 0.04903,-0.11569 0.04695,-0.10531 0.09716,-0.1997 0.156487,-0.28412 l -0.185584,0.004 c 0.0064,0.01 0.01227,0.0234 0.0173,0.042 0.005,0.0186 0.0087,0.0405 0.01174,0.0674 0.004,0.0353 0.0089,0.11802 0.0195,0.17643 0.03516,0.28517 0.07365,0.64771 0.131702,0.9751 0.04806,0.27101 0.116766,0.56628 0.230977,0.85729 0.01434,0.0365 0.02957,0.0734 0.04577,0.11066 0.0014,0.003 0.0029,0.006 0.0044,0.009 0.0106,0.0203 0.02832,0.0554 0.04619,0.0867 0.01722,0.0302 0.03988,0.0665 0.06833,0.10046 0.02659,0.0317 0.06244,0.0663 0.109519,0.0913 0.02294,0.0122 0.0486,0.0221 0.07692,0.0281 0.02772,0.006 0.05684,0.008 0.08703,0.005 0.0083,-7.3e-4 0.01657,-0.002 0.02461,-0.005 0.02886,-0.008 0.05589,-0.0204 0.0807,-0.0362 0.0243,-0.0156 0.0453,-0.0341 0.06326,-0.0545 0.03475,-0.0396 0.05631,-0.0843 0.07084,-0.12711 0.01391,-0.041 0.022,-0.0827 0.0277,-0.11975 0.0056,-0.0366 0.0093,-0.0705 0.01308,-0.0973 0.07089,-0.40058 0.09031,-0.82051 0.136179,-1.23453 0.02357,-0.19827 0.05518,-0.39788 0.108459,-0.58814 0.05301,-0.18932 0.126764,-0.36676 0.23344,-0.52473 0.0025,-0.004 0.0048,-0.007 0.0069,-0.0114 0.0032,-0.006 0.0049,-0.007 0.0041,-0.007 -0.0011,9.7e-4 -0.0039,0.003 -0.0086,0.005 -0.0045,0.002 -0.0086,0.002 -0.01148,0.002 -0.0026,-1.5e-4 -0.0034,-6.4e-4 -0.0024,-2.9e-4 0.0027,9.8e-4 0.0095,0.005 0.01679,0.0134 0.0071,0.008 0.01163,0.0178 0.01345,0.0259 0.0018,0.008 0.0042,0.0157 0.0074,0.0231 0.05437,0.12788 0.08952,0.26398 0.119782,0.40375 0.03158,0.14584 0.05785,0.29493 0.09411,0.44085 0.17204,0.82586 0.289666,1.6141 0.432182,2.31112 0.07279,0.34228 0.140327,0.5909 0.201017,0.78736 a 0.12838364,0.12838364 90 0 0 0.245328,-0.0758 c -0.05822,-0.18847 -0.123529,-0.43011 -0.193852,-0.76407 -0.140184,-0.68801 -0.256886,-1.47487 -0.431623,-2.31626 -0.03424,-0.13927 -0.05981,-0.28533 -0.09261,-0.4381 -0.03039,-0.14159 -0.06833,-0.29311 -0.129671,-0.44077 -0.01244,-0.0473 -0.03564,-0.0899 -0.06499,-0.12506 -0.03143,-0.0376 -0.07294,-0.0701 -0.121776,-0.0893 -0.02462,-0.01 -0.05172,-0.0162 -0.08069,-0.0176 -0.02907,-0.001 -0.05936,0.002 -0.08919,0.0131 -0.02984,0.0106 -0.05706,0.0273 -0.08075,0.0491 -0.02164,0.0199 -0.03952,0.0432 -0.05404,0.0688 -0.12455,0.18549 -0.207781,0.38892 -0.265868,0.59588 -0.0587,0.20915 -0.09234,0.42403 -0.11677,0.62905 -0.04743,0.42691 -0.06695,0.84005 -0.134498,1.22344 -0.0054,0.0379 -0.0088,0.0699 -0.01313,0.0988 -0.0046,0.0304 -0.0098,0.0552 -0.01662,0.0755 -0.0069,0.0208 -0.01401,0.0322 -0.0194,0.0385 -0.0026,0.003 -0.0051,0.005 -0.0075,0.007 -0.0025,0.002 -0.0062,0.004 -0.01174,0.005 l 0.02461,-0.005 c -0.0046,4.6e-4 -0.0077,1.8e-4 -0.01005,-2.5e-4 -0.0025,-4.6e-4 -0.0053,-0.001 -0.0088,-0.003 -0.008,-0.004 -0.01904,-0.0125 -0.03277,-0.0285 -0.01449,-0.0168 -0.02866,-0.0382 -0.04285,-0.0622 -0.01437,-0.0244 -0.02786,-0.0501 -0.04115,-0.0745 -0.01418,-0.0324 -0.02759,-0.0647 -0.04029,-0.0967 -0.106745,-0.26899 -0.173259,-0.54599 -0.221353,-0.80788 -0.05855,-0.31881 -0.09872,-0.67268 -0.137219,-0.96405 -4.8e-4,-0.004 -9.72e-4,-0.007 -0.0019,-0.0108 -0.01073,-0.042 -0.01615,-0.10228 -0.02683,-0.16553 -0.0056,-0.033 -0.01302,-0.0684 -0.0248,-0.10318 -0.01205,-0.0356 -0.02919,-0.0724 -0.05494,-0.10641 -0.01184,-0.0156 -0.02408,-0.0313 -0.03981,-0.043 -0.01574,-0.0117 -0.03501,-0.019 -0.05461,-0.0188 -0.0196,1.6e-4 -0.0388,0.008 -0.05405,0.0202 -0.01525,0.0123 -0.02644,0.0288 -0.03711,0.0453 -0.06604,0.10179 -0.119303,0.21097 -0.167552,0.32386 -0.01735,0.0406 -0.03414,0.0819 -0.05121,0.12514 -0.120221,0.32702 -0.228651,0.65353 -0.33129,0.98298 -0.291259,1.07375 -0.46749,1.95588 -0.560634,2.45763 a 0.10865893,0.10865893 90 0 0 0.213668,0.0397 z"
       id="path-1"
       inkscape:path-effect="#path-effect352;#path-effect354"
       inkscape:original-d="m -16.862357,153.97955 c 0.07309,-0.39552 0.154415,-0.79449 0.244385,-1.18585 0.09094,-0.39559 0.184278,-0.79081 0.290468,-1.18258 0.05589,-0.2062 0.127481,-0.40785 0.195507,-0.61036 0.09937,-0.29584 0.193159,-0.59476 0.361688,-0.86105 0.03117,-0.0493 0.06394,0.15858 0.09636,0.42507 0.06605,0.543 0.131903,1.11226 0.318398,1.63055 0.02618,0.0728 0.167523,0.4865 0.354706,0.41962 0.137692,-0.0492 0.130725,-0.26587 0.156406,-0.40981 0.122517,-0.68671 0.06214,-1.47577 0.37286,-2.11775 0.116713,-0.24114 0.251966,-0.44248 0.396601,-0.0594 0.07057,0.1869 0.101321,0.38658 0.145234,0.58148 0.09801,0.435 0.157408,0.7875 0.237401,1.22073 0.128694,0.69697 0.230339,1.41052 0.439892,2.08886"
       style="fill:#000000;fill-rule:nonzero;stroke:none" />
  </g>
</svg>
