<?xml version="1.0" encoding="UTF-8" standalone="no"?>
<!-- Created with Inkscape (http://www.inkscape.org/) -->

<svg
   width="3mm"
   height="10mm"
   viewBox="0 0 3.0000001 9.9999994"
   version="1.1"
   id="svg1681"
   inkscape:version="1.2.1 (9c6d41e410, 2022-07-14)"
   sodipodi:docname="lower_q_4.svg"
   inkscape:export-filename="..\..\..\..\Downloads\lower a diff canvas resize 3.0.png"
   inkscape:export-xdpi="96"
   inkscape:export-ydpi="96"
   xmlns:inkscape="http://www.inkscape.org/namespaces/inkscape"
   xmlns:sodipodi="http://sodipodi.sourceforge.net/DTD/sodipodi-0.dtd"
   xmlns="http://www.w3.org/2000/svg"
   xmlns:svg="http://www.w3.org/2000/svg"
   xmlns:rdf="http://www.w3.org/1999/02/22-rdf-syntax-ns#"
   xmlns:cc="http://creativecommons.org/ns#"
   xmlns:dc="http://purl.org/dc/elements/1.1/">
  <defs
     id="defs1675">
    <inkscape:path-effect
       effect="powerstroke"
       id="path-effect749"
       is_visible="true"
       lpeversion="1"
       offset_points="2.2903325,0.11231389"
       not_jump="true"
       sort_points="true"
       interpolator_type="CentripetalCatmullRom"
       interpolator_beta="0.75"
       start_linecap_type="round"
       linejoin_type="spiro"
       miter_limit="4"
       scale_width="1"
       end_linecap_type="round" />
    <inkscape:path-effect
       effect="simplify"
       id="path-effect747"
       is_visible="true"
       lpeversion="1"
       steps="1"
       threshold="0.0047745358"
       smooth_angles="0"
       helper_size="0"
       simplify_individual_paths="false"
       simplify_just_coalesce="false"
       step="1" />
    <inkscape:path-effect
       effect="powerstroke"
       id="path-effect691"
       is_visible="true"
       lpeversion="1"
       offset_points="3.9997799,0.10644126 | 9.2025753,0.11965466"
       not_jump="true"
       sort_points="true"
       interpolator_type="CentripetalCatmullRom"
       interpolator_beta="0.75"
       start_linecap_type="round"
       linejoin_type="spiro"
       miter_limit="4"
       scale_width="1"
       end_linecap_type="round" />
    <inkscape:path-effect
       effect="simplify"
       id="path-effect689"
       is_visible="true"
       lpeversion="1"
       steps="1"
       threshold="0.0047745358"
       smooth_angles="0"
       helper_size="0"
       simplify_individual_paths="false"
       simplify_just_coalesce="false"
       step="1" />
    <inkscape:path-effect
       effect="powerstroke"
       id="path-effect684"
       is_visible="true"
       lpeversion="1"
       offset_points="2.3921152,0.10937757 | 5.8459931,0.09934518 | 7.9367732,0.11573958"
       not_jump="true"
       sort_points="true"
       interpolator_type="CentripetalCatmullRom"
       interpolator_beta="0.75"
       start_linecap_type="round"
       linejoin_type="spiro"
       miter_limit="4"
       scale_width="1"
       end_linecap_type="round" />
    <inkscape:path-effect
       effect="simplify"
       id="path-effect682"
       is_visible="true"
       lpeversion="1"
       steps="1"
       threshold="0.0047745358"
       smooth_angles="0"
       helper_size="0"
       simplify_individual_paths="false"
       simplify_just_coalesce="false"
       step="1" />
    <inkscape:path-effect
       effect="powerstroke"
       id="path-effect630"
       is_visible="true"
       lpeversion="1"
       offset_points="2.7054202,0.11353735 | 6.415041,0.12650605"
       not_jump="true"
       sort_points="true"
       interpolator_type="CentripetalCatmullRom"
       interpolator_beta="0.75"
       start_linecap_type="round"
       linejoin_type="spiro"
       miter_limit="4"
       scale_width="1"
       end_linecap_type="round" />
    <inkscape:path-effect
       effect="simplify"
       id="path-effect628"
       is_visible="true"
       lpeversion="1"
       steps="1"
       threshold="0.0047745358"
       smooth_angles="0"
       helper_size="0"
       simplify_individual_paths="false"
       simplify_just_coalesce="false"
       step="1" />
    <inkscape:path-effect
       effect="powerstroke"
       id="path-effect578"
       is_visible="true"
       lpeversion="1"
       offset_points="1.4467219,0.10693065 | 8.6757496,0.12112282"
       not_jump="true"
       sort_points="true"
       interpolator_type="CentripetalCatmullRom"
       interpolator_beta="0.75"
       start_linecap_type="round"
       linejoin_type="spiro"
       miter_limit="4"
       scale_width="1"
       end_linecap_type="round" />
    <inkscape:path-effect
       effect="simplify"
       id="path-effect576"
       is_visible="true"
       lpeversion="1"
       steps="1"
       threshold="0.0047745358"
       smooth_angles="0"
       helper_size="0"
       simplify_individual_paths="false"
       simplify_just_coalesce="false"
       step="1" />
    <inkscape:path-effect
       effect="powerstroke"
       id="path-effect503"
       is_visible="true"
       lpeversion="1"
       offset_points="2.2802387,0.096408869 | 7.6064595,0.11378204"
       not_jump="true"
       sort_points="true"
       interpolator_type="CentripetalCatmullRom"
       interpolator_beta="0.75"
       start_linecap_type="round"
       linejoin_type="spiro"
       miter_limit="4"
       scale_width="1"
       end_linecap_type="round" />
    <inkscape:path-effect
       effect="simplify"
       id="path-effect501"
       is_visible="true"
       lpeversion="1"
       steps="1"
       threshold="0.0047745358"
       smooth_angles="0"
       helper_size="0"
       simplify_individual_paths="false"
       simplify_just_coalesce="false"
       step="1" />
    <inkscape:path-effect
       effect="powerstroke"
       id="path-effect495"
       is_visible="true"
       lpeversion="1"
       offset_points="1.9560338,0.1052178"
       not_jump="true"
       sort_points="true"
       interpolator_type="CentripetalCatmullRom"
       interpolator_beta="0.75"
       start_linecap_type="round"
       linejoin_type="spiro"
       miter_limit="4"
       scale_width="1"
       end_linecap_type="round" />
    <inkscape:path-effect
       effect="simplify"
       id="path-effect493"
       is_visible="true"
       lpeversion="1"
       steps="1"
       threshold="0.0047745358"
       smooth_angles="0"
       helper_size="0"
       simplify_individual_paths="false"
       simplify_just_coalesce="false"
       step="1" />
    <inkscape:path-effect
       effect="powerstroke"
       id="path-effect488"
       is_visible="true"
       lpeversion="1"
       offset_points="1.5146307,0.12136751 | 8.9192709,0.13580437"
       not_jump="true"
       sort_points="true"
       interpolator_type="CentripetalCatmullRom"
       interpolator_beta="0.75"
       start_linecap_type="round"
       linejoin_type="spiro"
       miter_limit="4"
       scale_width="1"
       end_linecap_type="round" />
    <inkscape:path-effect
       effect="simplify"
       id="path-effect486"
       is_visible="true"
       lpeversion="1"
       steps="1"
       threshold="0.0047745358"
       smooth_angles="0"
       helper_size="0"
       simplify_individual_paths="false"
       simplify_just_coalesce="false"
       step="1" />
    <inkscape:path-effect
       effect="powerstroke"
       id="path-effect2676"
       is_visible="true"
       lpeversion="1"
       offset_points="2.9741161,0.15507441 | 5.0809583,0.12467195 | 8.2746354,0.16054247"
       not_jump="true"
       sort_points="true"
       interpolator_type="CentripetalCatmullRom"
       interpolator_beta="0.75"
       start_linecap_type="round"
       linejoin_type="spiro"
       miter_limit="4"
       scale_width="1"
       end_linecap_type="round" />
    <inkscape:path-effect
       effect="simplify"
       id="path-effect2674"
       is_visible="true"
       lpeversion="1"
       steps="1"
       threshold="0.0035951417"
       smooth_angles="0"
       helper_size="0"
       simplify_individual_paths="false"
       simplify_just_coalesce="false"
       step="1" />
    <inkscape:path-effect
       effect="powerstroke"
       id="path-effect2669"
       is_visible="true"
       lpeversion="1"
       offset_points="1.9997838,0.086474349 | 3.6799468,0.071939612 | 9.7724461,0.098219592"
       not_jump="true"
       sort_points="true"
       interpolator_type="CentripetalCatmullRom"
       interpolator_beta="0.75"
       start_linecap_type="round"
       linejoin_type="spiro"
       miter_limit="4"
       scale_width="1"
       end_linecap_type="round" />
    <inkscape:path-effect
       effect="simplify"
       id="path-effect2667"
       is_visible="true"
       lpeversion="1"
       steps="1"
       threshold="0.0035951417"
       smooth_angles="0"
       helper_size="0"
       simplify_individual_paths="false"
       simplify_just_coalesce="false"
       step="1" />
    <inkscape:path-effect
       effect="powerstroke"
       id="path-effect502"
       is_visible="true"
       lpeversion="1"
       offset_points="3.0091841,0.21607495 | 7.3602657,0.17554228 | 9.4159651,0.20236537"
       not_jump="true"
       sort_points="true"
       interpolator_type="CentripetalCatmullRom"
       interpolator_beta="0.75"
       start_linecap_type="round"
       linejoin_type="spiro"
       miter_limit="4"
       scale_width="1"
       end_linecap_type="round" />
    <inkscape:path-effect
       effect="simplify"
       id="path-effect500"
       is_visible="true"
       lpeversion="1"
       steps="1"
       threshold="0.0035951417"
       smooth_angles="0"
       helper_size="0"
       simplify_individual_paths="false"
       simplify_just_coalesce="false"
       step="1" />
    <inkscape:path-effect
       effect="powerstroke"
       id="path-effect241"
       is_visible="true"
       lpeversion="1"
       offset_points="2.6879454,0.34086734"
       not_jump="true"
       sort_points="true"
       interpolator_type="CentripetalCatmullRom"
       interpolator_beta="0.75"
       start_linecap_type="round"
       linejoin_type="spiro"
       miter_limit="4"
       scale_width="1"
       end_linecap_type="round" />
    <inkscape:path-effect
       effect="simplify"
       id="path-effect239"
       is_visible="true"
       lpeversion="1"
       steps="1"
       threshold="0.0028332064"
       smooth_angles="0"
       helper_size="0"
       simplify_individual_paths="false"
       simplify_just_coalesce="false"
       step="1" />
    <inkscape:path-effect
       effect="powerstroke"
       id="path-effect234"
       is_visible="true"
       lpeversion="1"
       offset_points="2.13563,0.075169555"
       not_jump="true"
       sort_points="true"
       interpolator_type="CentripetalCatmullRom"
       interpolator_beta="0.75"
       start_linecap_type="round"
       linejoin_type="spiro"
       miter_limit="4"
       scale_width="1"
       end_linecap_type="round" />
    <inkscape:path-effect
       effect="simplify"
       id="path-effect232"
       is_visible="true"
       lpeversion="1"
       steps="1"
       threshold="0.0028332064"
       smooth_angles="0"
       helper_size="0"
       simplify_individual_paths="false"
       simplify_just_coalesce="false"
       step="1" />
    <inkscape:path-effect
       effect="powerstroke"
       id="path-effect227"
       is_visible="true"
       lpeversion="1"
       offset_points="2.1868266,0.075169555"
       not_jump="true"
       sort_points="true"
       interpolator_type="CentripetalCatmullRom"
       interpolator_beta="0.75"
       start_linecap_type="round"
       linejoin_type="spiro"
       miter_limit="4"
       scale_width="1"
       end_linecap_type="round" />
    <inkscape:path-effect
       effect="simplify"
       id="path-effect225"
       is_visible="true"
       lpeversion="1"
       steps="1"
       threshold="0.0028332064"
       smooth_angles="0"
       helper_size="0"
       simplify_individual_paths="false"
       simplify_just_coalesce="false"
       step="1" />
    <inkscape:path-effect
       effect="powerstroke"
       id="path-effect166"
       is_visible="true"
       lpeversion="1"
       offset_points="1.9637935,0.075169555"
       not_jump="true"
       sort_points="true"
       interpolator_type="CentripetalCatmullRom"
       interpolator_beta="0.75"
       start_linecap_type="round"
       linejoin_type="spiro"
       miter_limit="4"
       scale_width="1"
       end_linecap_type="round" />
    <inkscape:path-effect
       effect="simplify"
       id="path-effect164"
       is_visible="true"
       lpeversion="1"
       steps="1"
       threshold="0.0028332064"
       smooth_angles="0"
       helper_size="0"
       simplify_individual_paths="false"
       simplify_just_coalesce="false"
       step="1" />
    <inkscape:path-effect
       effect="powerstroke"
       id="path-effect159"
       is_visible="true"
       lpeversion="1"
       offset_points="2.2611036,0.075169555"
       not_jump="true"
       sort_points="true"
       interpolator_type="CentripetalCatmullRom"
       interpolator_beta="0.75"
       start_linecap_type="round"
       linejoin_type="spiro"
       miter_limit="4"
       scale_width="1"
       end_linecap_type="round" />
    <inkscape:path-effect
       effect="simplify"
       id="path-effect157"
       is_visible="true"
       lpeversion="1"
       steps="1"
       threshold="0.0028332064"
       smooth_angles="0"
       helper_size="0"
       simplify_individual_paths="false"
       simplify_just_coalesce="false"
       step="1" />
    <inkscape:path-effect
       effect="powerstroke"
       id="path-effect152"
       is_visible="true"
       lpeversion="1"
       offset_points="2.826981,0.075169555"
       not_jump="true"
       sort_points="true"
       interpolator_type="CentripetalCatmullRom"
       interpolator_beta="0.75"
       start_linecap_type="round"
       linejoin_type="spiro"
       miter_limit="4"
       scale_width="1"
       end_linecap_type="round" />
    <inkscape:path-effect
       effect="simplify"
       id="path-effect150"
       is_visible="true"
       lpeversion="1"
       steps="1"
       threshold="0.0028332064"
       smooth_angles="0"
       helper_size="0"
       simplify_individual_paths="false"
       simplify_just_coalesce="false"
       step="1" />
    <inkscape:path-effect
       effect="powerstroke"
       id="path-effect145"
       is_visible="true"
       lpeversion="1"
       offset_points="3.8374447,0.075169555"
       not_jump="true"
       sort_points="true"
       interpolator_type="CentripetalCatmullRom"
       interpolator_beta="0.75"
       start_linecap_type="round"
       linejoin_type="spiro"
       miter_limit="4"
       scale_width="1"
       end_linecap_type="round" />
    <inkscape:path-effect
       effect="simplify"
       id="path-effect143"
       is_visible="true"
       lpeversion="1"
       steps="1"
       threshold="0.0028332064"
       smooth_angles="0"
       helper_size="0"
       simplify_individual_paths="false"
       simplify_just_coalesce="false"
       step="1" />
    <inkscape:path-effect
       effect="powerstroke"
       id="path-effect138"
       is_visible="true"
       lpeversion="1"
       offset_points="2.6880907,0.075169555"
       not_jump="true"
       sort_points="true"
       interpolator_type="CentripetalCatmullRom"
       interpolator_beta="0.75"
       start_linecap_type="round"
       linejoin_type="spiro"
       miter_limit="4"
       scale_width="1"
       end_linecap_type="round" />
    <inkscape:path-effect
       effect="simplify"
       id="path-effect136"
       is_visible="true"
       lpeversion="1"
       steps="1"
       threshold="0.0028332064"
       smooth_angles="0"
       helper_size="0"
       simplify_individual_paths="false"
       simplify_just_coalesce="false"
       step="1" />
    <inkscape:path-effect
       effect="powerstroke"
       id="path-effect131"
       is_visible="true"
       lpeversion="1"
       offset_points="1.9940581,0.075169555"
       not_jump="true"
       sort_points="true"
       interpolator_type="CentripetalCatmullRom"
       interpolator_beta="0.75"
       start_linecap_type="round"
       linejoin_type="spiro"
       miter_limit="4"
       scale_width="1"
       end_linecap_type="round" />
    <inkscape:path-effect
       effect="simplify"
       id="path-effect129"
       is_visible="true"
       lpeversion="1"
       steps="1"
       threshold="0.0028332064"
       smooth_angles="0"
       helper_size="0"
       simplify_individual_paths="false"
       simplify_just_coalesce="false"
       step="1" />
  </defs>
  <sodipodi:namedview
     id="base"
     pagecolor="#ffffff"
     bordercolor="#666666"
     borderopacity="1.0"
     inkscape:pageopacity="0.0"
     inkscape:pageshadow="2"
     inkscape:zoom="15.839192"
     inkscape:cx="0.1894036"
     inkscape:cy="18.687822"
     inkscape:document-units="mm"
     inkscape:current-layer="layer1"
     showgrid="false"
     fit-margin-top="0"
     fit-margin-left="0"
     fit-margin-right="0"
     fit-margin-bottom="0"
     inkscape:window-width="1920"
     inkscape:window-height="1057"
     inkscape:window-x="1072"
     inkscape:window-y="321"
     inkscape:window-maximized="1"
     showguides="true"
     inkscape:guide-bbox="true"
     inkscape:snap-bbox="true"
     inkscape:bbox-nodes="true"
     inkscape:snap-nodes="false"
     inkscape:snap-others="false"
     inkscape:snap-page="true"
     inkscape:snap-grids="false"
     inkscape:snap-to-guides="false"
     inkscape:snap-global="false"
     inkscape:pagecheckerboard="0"
     inkscape:showpageshadow="2"
     inkscape:deskcolor="#d1d1d1">
    <sodipodi:guide
       position="-6.1806076,9.4988693"
       orientation="0,1"
       id="guide816"
       inkscape:locked="false" />
    <sodipodi:guide
       position="-4.4101636,10.646923"
       orientation="0,1"
       id="guide818"
       inkscape:locked="false" />
    <sodipodi:guide
       position="2.7595724,11.09577"
       orientation="1,0"
       id="guide820"
       inkscape:locked="false" />
    <sodipodi:guide
       position="3.6572659,10.942217"
       orientation="1,0"
       id="guide822"
       inkscape:locked="false" />
    <sodipodi:guide
       position="-0.051625511,9.74923"
       orientation="1,0"
       id="guide1853"
       inkscape:locked="false" />
    <sodipodi:guide
       position="-2.3720169,3.0175835"
       orientation="0,1"
       id="guide1855"
       inkscape:locked="false" />
    <sodipodi:guide
       position="2.0379301,7.126852"
       orientation="0,-1"
       id="guide573"
       inkscape:locked="false" />
  </sodipodi:namedview>
  <metadata
     id="metadata1678">
    <rdf:RDF>
      <cc:Work
         rdf:about="">
        <dc:format>image/svg+xml</dc:format>
        <dc:type
           rdf:resource="http://purl.org/dc/dcmitype/StillImage" />
      </cc:Work>
    </rdf:RDF>
  </metadata>
  <g
     inkscape:label="Layer 1"
     inkscape:groupmode="layer"
     id="layer1"
     transform="translate(17.028496,-147.22856)">
    <path
       d="m -15.465846,151.1591 c -0.04519,0.01 -0.09316,0.0172 -0.163867,0.0262 -0.04632,0.006 -0.118171,0.0143 -0.179679,0.0244 -0.05651,0.009 -0.121948,0.0225 -0.187745,0.0445 -0.05964,0.0199 -0.123394,0.0481 -0.185452,0.0908 -0.0045,0.003 -0.0088,0.007 -0.01281,0.0102 -0.225623,0.20927 -0.420239,0.48559 -0.54588,0.81199 -0.112647,0.29265 -0.169867,0.62551 -0.137759,0.96935 0.01082,0.0856 0.02019,0.17278 0.03264,0.26336 0.0082,0.0599 0.01859,0.12657 0.03264,0.19427 0.01519,0.0732 0.03563,0.15236 0.06515,0.23184 0.0272,0.0732 0.06294,0.14904 0.111564,0.22297 0.03664,0.0562 0.0855,0.10191 0.143119,0.1352 0.05408,0.0312 0.11479,0.0508 0.17791,0.0585 0.06003,0.007 0.122796,0.004 0.184143,-0.0111 0.05881,-0.0143 0.117328,-0.0393 0.170201,-0.0764 0.05102,-0.031 0.10207,-0.0716 0.149109,-0.11617 0.04556,-0.0431 0.08697,-0.0896 0.126063,-0.13734 0.0752,-0.0919 0.141746,-0.1886 0.211485,-0.27444 0.05107,-0.0654 0.09092,-0.13332 0.123785,-0.20384 0.03223,-0.0692 0.05761,-0.14047 0.07905,-0.21223 0.04193,-0.14032 0.06908,-0.2827 0.102559,-0.41502 0.03654,-0.17597 0.07511,-0.35799 0.101944,-0.54026 0.02657,-0.1805 0.04268,-0.36739 0.03368,-0.55777 5.91e-4,-0.0229 -0.0028,-0.0524 -0.0084,-0.078 -0.0028,-0.0128 -0.0065,-0.026 -0.0112,-0.0386 -0.0024,-0.006 -0.0052,-0.0131 -0.0087,-0.02 -0.0034,-0.007 -0.0079,-0.0148 -0.01408,-0.0231 -0.0058,-0.008 -0.01549,-0.0193 -0.03008,-0.0295 -0.0076,-0.005 -0.01741,-0.0109 -0.02947,-0.0151 -0.01227,-0.004 -0.02658,-0.007 -0.04228,-0.007 -0.01582,4.7e-4 -0.0308,0.004 -0.04426,0.0101 -0.01321,0.006 -0.02375,0.0135 -0.03185,0.0208 -0.008,0.007 -0.01407,0.0148 -0.01855,0.0212 -0.0045,0.006 -0.0079,0.0127 -0.01055,0.0181 -0.0051,0.0105 -0.0084,0.0206 -0.01059,0.0289 -0.0023,0.008 -0.0039,0.0169 -0.0052,0.025 -0.0021,0.0135 -0.0034,0.0283 -0.0041,0.0442 -0.156196,0.84677 -0.193843,1.71275 -0.246183,2.54944 -0.02558,0.32227 -0.06124,0.64875 -0.08133,0.97559 -0.02046,0.33301 -0.02468,0.66461 0.01261,0.9963 0.0085,0.0575 0.01768,0.11515 0.03024,0.17336 0.01273,0.059 0.02916,0.11953 0.05195,0.17805 0.02322,0.0596 0.05326,0.11774 0.09346,0.17058 0.04117,0.0541 0.09223,0.10159 0.155324,0.13842 0.09267,0.0449 0.180472,0.0637 0.261458,0.0729 0.08449,0.01 0.169293,0.009 0.240681,0.008 0.0056,-9e-5 0.0112,-6.1e-4 0.01673,-0.002 0.07844,-0.0132 0.14574,-0.0433 0.202859,-0.0828 0.05898,-0.0408 0.106771,-0.0912 0.145665,-0.14303 0.04074,-0.0543 0.07355,-0.11248 0.100212,-0.1677 0.02819,-0.0584 0.05109,-0.11677 0.06968,-0.16825 0.06613,-0.18839 0.104905,-0.37642 0.132219,-0.53539 0.03531,-0.20552 0.05693,-0.38341 0.07913,-0.52868 a 0.11231389,0.11231389 90 0 0 -0.222052,-0.0339 c -0.02272,0.14874 -0.0445,0.32693 -0.07846,0.52456 -0.02646,0.15402 -0.06272,0.32792 -0.12245,0.49809 -0.01678,0.0465 -0.03674,0.097 -0.06034,0.14592 -0.02242,0.0464 -0.04803,0.0912 -0.07757,0.13051 -0.02819,0.0376 -0.05926,0.0693 -0.09373,0.0931 -0.0307,0.0212 -0.06505,0.0369 -0.104694,0.0446 -0.06778,0.001 -0.136858,7.3e-4 -0.202708,-0.007 -0.06546,-0.007 -0.126708,-0.0217 -0.181423,-0.0479 -0.02735,-0.0164 -0.05675,-0.0433 -0.08174,-0.0762 -0.02479,-0.0326 -0.04551,-0.0714 -0.06294,-0.11613 -0.01718,-0.0441 -0.03058,-0.0924 -0.04168,-0.14387 -0.01098,-0.0509 -0.01928,-0.1027 -0.02712,-0.15515 -0.03474,-0.30967 -0.03115,-0.62701 -0.0111,-0.95336 0.01965,-0.31977 0.05511,-0.64484 0.08118,-0.97348 0.05307,-0.84804 0.09014,-1.69982 0.244463,-2.53235 0.001,-0.006 0.0016,-0.0111 0.0018,-0.0168 4.47e-4,-0.0136 0.0013,-0.0219 0.002,-0.0262 3.2e-4,-0.002 4.51e-4,-0.002 1.39e-4,-0.001 -2.44e-4,9.1e-4 -0.0014,0.005 -0.0042,0.0109 -0.0015,0.003 -0.0037,0.007 -0.007,0.012 -0.0033,0.005 -0.0081,0.0108 -0.01487,0.0169 -0.0068,0.006 -0.01611,0.013 -0.02802,0.0183 -0.01216,0.005 -0.02583,0.009 -0.04032,0.009 -0.01437,4.2e-4 -0.02733,-0.002 -0.03825,-0.006 -0.0107,-0.004 -0.01916,-0.009 -0.02538,-0.0129 -0.01186,-0.008 -0.01882,-0.017 -0.02186,-0.0211 -0.0034,-0.005 -0.0053,-0.008 -0.006,-0.01 -8.27e-4,-0.002 2.39e-4,0.002 0.0012,0.006 0.0021,0.009 0.0035,0.0216 0.0033,0.0334 0.0082,0.17827 -0.0061,0.34978 -0.03143,0.52155 -0.02568,0.17443 -0.06269,0.34935 -0.09858,0.52266 -0.03464,0.13649 -0.06135,0.2753 -0.09892,0.40103 -0.01927,0.0645 -0.04102,0.12501 -0.06742,0.18164 -0.02681,0.0575 -0.05815,0.11046 -0.09589,0.1588 -0.07625,0.0938 -0.142228,0.18976 -0.209623,0.27212 -0.03517,0.043 -0.07006,0.0818 -0.106675,0.1165 -0.03762,0.0356 -0.07638,0.0662 -0.117763,0.0915 -0.03398,0.0236 -0.06634,0.0377 -0.100101,0.0459 -0.03521,0.009 -0.07087,0.0104 -0.104146,0.006 -0.03475,-0.004 -0.06622,-0.0148 -0.09253,-0.03 -0.02765,-0.016 -0.05035,-0.0374 -0.06759,-0.0638 -0.03785,-0.0576 -0.06643,-0.11761 -0.0889,-0.1781 -0.02446,-0.0659 -0.04213,-0.13349 -0.05578,-0.19926 -0.01262,-0.0608 -0.02217,-0.12193 -0.03005,-0.17924 -0.01185,-0.0862 -0.02117,-0.17268 -0.03193,-0.25736 -0.02816,-0.30224 0.02293,-0.60109 0.124148,-0.86404 0.112292,-0.29173 0.284303,-0.53636 0.482736,-0.72216 0.03902,-0.0258 0.0805,-0.0443 0.122848,-0.0584 0.04984,-0.0166 0.102229,-0.0275 0.153071,-0.0359 0.05626,-0.009 0.121326,-0.0168 0.171733,-0.0233 0.07304,-0.009 0.128337,-0.0177 0.182758,-0.0294 a 0.11231389,0.11231389 90 0 0 -0.04735,-0.21958 z"
       id="path-1"
       inkscape:path-effect="#path-effect747;#path-effect749"
       inkscape:original-d="m -15.442171,151.26889 c -0.195517,0.0385 -0.401754,0.041 -0.586552,0.1156 -0.104223,0.0421 -0.180697,0.1369 -0.25279,0.22312 -0.374734,0.44818 -0.550857,1.01741 -0.476943,1.60036 0.02392,0.1887 0.07542,0.72709 0.314012,0.87398 0.252598,0.15551 0.523097,-0.0575 0.671474,-0.25356 0.122266,-0.16155 0.265236,-0.31452 0.343636,-0.50134 0.07697,-0.18341 0.377929,-1.40283 0.26069,-1.74025 -0.0092,-0.0266 -0.0178,0.0536 -0.02271,0.0813 -0.03643,0.20536 -0.0678,0.41291 -0.0948,0.61965 -0.07981,0.61108 -0.106195,1.2255 -0.145157,1.84005 -0.03547,0.55945 -0.240208,1.99278 0.05234,2.46547 0.117029,0.18909 0.264941,0.19954 0.514467,0.21541 0.574844,0.0366 0.651312,-1.17224 0.714921,-1.53485"
       style="fill:#000000;fill-rule:nonzero;stroke:none" />
  </g>
</svg>
