<?xml version="1.0" encoding="UTF-8" standalone="no"?>
<!-- Created with Inkscape (http://www.inkscape.org/) -->

<svg
   width="3mm"
   height="10mm"
   viewBox="0 0 3.0000001 9.9999994"
   version="1.1"
   id="svg1681"
   inkscape:version="1.2.1 (9c6d41e410, 2022-07-14)"
   sodipodi:docname="lower_q_3.svg"
   inkscape:export-filename="..\..\..\..\Downloads\lower a diff canvas resize 3.0.png"
   inkscape:export-xdpi="96"
   inkscape:export-ydpi="96"
   xmlns:inkscape="http://www.inkscape.org/namespaces/inkscape"
   xmlns:sodipodi="http://sodipodi.sourceforge.net/DTD/sodipodi-0.dtd"
   xmlns="http://www.w3.org/2000/svg"
   xmlns:svg="http://www.w3.org/2000/svg"
   xmlns:rdf="http://www.w3.org/1999/02/22-rdf-syntax-ns#"
   xmlns:cc="http://creativecommons.org/ns#"
   xmlns:dc="http://purl.org/dc/elements/1.1/">
  <defs
     id="defs1675">
    <inkscape:path-effect
       effect="powerstroke"
       id="path-effect691"
       is_visible="true"
       lpeversion="1"
       offset_points="3.9997799,0.10644126 | 9.2025753,0.11965466"
       not_jump="true"
       sort_points="true"
       interpolator_type="CentripetalCatmullRom"
       interpolator_beta="0.75"
       start_linecap_type="round"
       linejoin_type="spiro"
       miter_limit="4"
       scale_width="1"
       end_linecap_type="round" />
    <inkscape:path-effect
       effect="simplify"
       id="path-effect689"
       is_visible="true"
       lpeversion="1"
       steps="1"
       threshold="0.0047745358"
       smooth_angles="0"
       helper_size="0"
       simplify_individual_paths="false"
       simplify_just_coalesce="false"
       step="1" />
    <inkscape:path-effect
       effect="powerstroke"
       id="path-effect684"
       is_visible="true"
       lpeversion="1"
       offset_points="2.3921152,0.10937757 | 5.8459931,0.09934518 | 7.9367732,0.11573958"
       not_jump="true"
       sort_points="true"
       interpolator_type="CentripetalCatmullRom"
       interpolator_beta="0.75"
       start_linecap_type="round"
       linejoin_type="spiro"
       miter_limit="4"
       scale_width="1"
       end_linecap_type="round" />
    <inkscape:path-effect
       effect="simplify"
       id="path-effect682"
       is_visible="true"
       lpeversion="1"
       steps="1"
       threshold="0.0047745358"
       smooth_angles="0"
       helper_size="0"
       simplify_individual_paths="false"
       simplify_just_coalesce="false"
       step="1" />
    <inkscape:path-effect
       effect="powerstroke"
       id="path-effect630"
       is_visible="true"
       lpeversion="1"
       offset_points="2.7054202,0.11353735 | 6.415041,0.12650605"
       not_jump="true"
       sort_points="true"
       interpolator_type="CentripetalCatmullRom"
       interpolator_beta="0.75"
       start_linecap_type="round"
       linejoin_type="spiro"
       miter_limit="4"
       scale_width="1"
       end_linecap_type="round" />
    <inkscape:path-effect
       effect="simplify"
       id="path-effect628"
       is_visible="true"
       lpeversion="1"
       steps="1"
       threshold="0.0047745358"
       smooth_angles="0"
       helper_size="0"
       simplify_individual_paths="false"
       simplify_just_coalesce="false"
       step="1" />
    <inkscape:path-effect
       effect="powerstroke"
       id="path-effect578"
       is_visible="true"
       lpeversion="1"
       offset_points="1.4467219,0.10693065 | 8.6757496,0.12112282"
       not_jump="true"
       sort_points="true"
       interpolator_type="CentripetalCatmullRom"
       interpolator_beta="0.75"
       start_linecap_type="round"
       linejoin_type="spiro"
       miter_limit="4"
       scale_width="1"
       end_linecap_type="round" />
    <inkscape:path-effect
       effect="simplify"
       id="path-effect576"
       is_visible="true"
       lpeversion="1"
       steps="1"
       threshold="0.0047745358"
       smooth_angles="0"
       helper_size="0"
       simplify_individual_paths="false"
       simplify_just_coalesce="false"
       step="1" />
    <inkscape:path-effect
       effect="powerstroke"
       id="path-effect503"
       is_visible="true"
       lpeversion="1"
       offset_points="2.2802387,0.096408869 | 7.6064595,0.11378204"
       not_jump="true"
       sort_points="true"
       interpolator_type="CentripetalCatmullRom"
       interpolator_beta="0.75"
       start_linecap_type="round"
       linejoin_type="spiro"
       miter_limit="4"
       scale_width="1"
       end_linecap_type="round" />
    <inkscape:path-effect
       effect="simplify"
       id="path-effect501"
       is_visible="true"
       lpeversion="1"
       steps="1"
       threshold="0.0047745358"
       smooth_angles="0"
       helper_size="0"
       simplify_individual_paths="false"
       simplify_just_coalesce="false"
       step="1" />
    <inkscape:path-effect
       effect="powerstroke"
       id="path-effect495"
       is_visible="true"
       lpeversion="1"
       offset_points="1.9560338,0.1052178"
       not_jump="true"
       sort_points="true"
       interpolator_type="CentripetalCatmullRom"
       interpolator_beta="0.75"
       start_linecap_type="round"
       linejoin_type="spiro"
       miter_limit="4"
       scale_width="1"
       end_linecap_type="round" />
    <inkscape:path-effect
       effect="simplify"
       id="path-effect493"
       is_visible="true"
       lpeversion="1"
       steps="1"
       threshold="0.0047745358"
       smooth_angles="0"
       helper_size="0"
       simplify_individual_paths="false"
       simplify_just_coalesce="false"
       step="1" />
    <inkscape:path-effect
       effect="powerstroke"
       id="path-effect488"
       is_visible="true"
       lpeversion="1"
       offset_points="1.5146307,0.12136751 | 8.9192709,0.13580437"
       not_jump="true"
       sort_points="true"
       interpolator_type="CentripetalCatmullRom"
       interpolator_beta="0.75"
       start_linecap_type="round"
       linejoin_type="spiro"
       miter_limit="4"
       scale_width="1"
       end_linecap_type="round" />
    <inkscape:path-effect
       effect="simplify"
       id="path-effect486"
       is_visible="true"
       lpeversion="1"
       steps="1"
       threshold="0.0047745358"
       smooth_angles="0"
       helper_size="0"
       simplify_individual_paths="false"
       simplify_just_coalesce="false"
       step="1" />
    <inkscape:path-effect
       effect="powerstroke"
       id="path-effect2676"
       is_visible="true"
       lpeversion="1"
       offset_points="2.9741161,0.15507441 | 5.0809583,0.12467195 | 8.2746354,0.16054247"
       not_jump="true"
       sort_points="true"
       interpolator_type="CentripetalCatmullRom"
       interpolator_beta="0.75"
       start_linecap_type="round"
       linejoin_type="spiro"
       miter_limit="4"
       scale_width="1"
       end_linecap_type="round" />
    <inkscape:path-effect
       effect="simplify"
       id="path-effect2674"
       is_visible="true"
       lpeversion="1"
       steps="1"
       threshold="0.0035951417"
       smooth_angles="0"
       helper_size="0"
       simplify_individual_paths="false"
       simplify_just_coalesce="false"
       step="1" />
    <inkscape:path-effect
       effect="powerstroke"
       id="path-effect2669"
       is_visible="true"
       lpeversion="1"
       offset_points="1.9997838,0.086474349 | 3.6799468,0.071939612 | 9.7724461,0.098219592"
       not_jump="true"
       sort_points="true"
       interpolator_type="CentripetalCatmullRom"
       interpolator_beta="0.75"
       start_linecap_type="round"
       linejoin_type="spiro"
       miter_limit="4"
       scale_width="1"
       end_linecap_type="round" />
    <inkscape:path-effect
       effect="simplify"
       id="path-effect2667"
       is_visible="true"
       lpeversion="1"
       steps="1"
       threshold="0.0035951417"
       smooth_angles="0"
       helper_size="0"
       simplify_individual_paths="false"
       simplify_just_coalesce="false"
       step="1" />
    <inkscape:path-effect
       effect="powerstroke"
       id="path-effect502"
       is_visible="true"
       lpeversion="1"
       offset_points="3.0091841,0.21607495 | 7.3602657,0.17554228 | 9.4159651,0.20236537"
       not_jump="true"
       sort_points="true"
       interpolator_type="CentripetalCatmullRom"
       interpolator_beta="0.75"
       start_linecap_type="round"
       linejoin_type="spiro"
       miter_limit="4"
       scale_width="1"
       end_linecap_type="round" />
    <inkscape:path-effect
       effect="simplify"
       id="path-effect500"
       is_visible="true"
       lpeversion="1"
       steps="1"
       threshold="0.0035951417"
       smooth_angles="0"
       helper_size="0"
       simplify_individual_paths="false"
       simplify_just_coalesce="false"
       step="1" />
    <inkscape:path-effect
       effect="powerstroke"
       id="path-effect241"
       is_visible="true"
       lpeversion="1"
       offset_points="2.6879454,0.34086734"
       not_jump="true"
       sort_points="true"
       interpolator_type="CentripetalCatmullRom"
       interpolator_beta="0.75"
       start_linecap_type="round"
       linejoin_type="spiro"
       miter_limit="4"
       scale_width="1"
       end_linecap_type="round" />
    <inkscape:path-effect
       effect="simplify"
       id="path-effect239"
       is_visible="true"
       lpeversion="1"
       steps="1"
       threshold="0.0028332064"
       smooth_angles="0"
       helper_size="0"
       simplify_individual_paths="false"
       simplify_just_coalesce="false"
       step="1" />
    <inkscape:path-effect
       effect="powerstroke"
       id="path-effect234"
       is_visible="true"
       lpeversion="1"
       offset_points="2.13563,0.075169555"
       not_jump="true"
       sort_points="true"
       interpolator_type="CentripetalCatmullRom"
       interpolator_beta="0.75"
       start_linecap_type="round"
       linejoin_type="spiro"
       miter_limit="4"
       scale_width="1"
       end_linecap_type="round" />
    <inkscape:path-effect
       effect="simplify"
       id="path-effect232"
       is_visible="true"
       lpeversion="1"
       steps="1"
       threshold="0.0028332064"
       smooth_angles="0"
       helper_size="0"
       simplify_individual_paths="false"
       simplify_just_coalesce="false"
       step="1" />
    <inkscape:path-effect
       effect="powerstroke"
       id="path-effect227"
       is_visible="true"
       lpeversion="1"
       offset_points="2.1868266,0.075169555"
       not_jump="true"
       sort_points="true"
       interpolator_type="CentripetalCatmullRom"
       interpolator_beta="0.75"
       start_linecap_type="round"
       linejoin_type="spiro"
       miter_limit="4"
       scale_width="1"
       end_linecap_type="round" />
    <inkscape:path-effect
       effect="simplify"
       id="path-effect225"
       is_visible="true"
       lpeversion="1"
       steps="1"
       threshold="0.0028332064"
       smooth_angles="0"
       helper_size="0"
       simplify_individual_paths="false"
       simplify_just_coalesce="false"
       step="1" />
    <inkscape:path-effect
       effect="powerstroke"
       id="path-effect166"
       is_visible="true"
       lpeversion="1"
       offset_points="1.9637935,0.075169555"
       not_jump="true"
       sort_points="true"
       interpolator_type="CentripetalCatmullRom"
       interpolator_beta="0.75"
       start_linecap_type="round"
       linejoin_type="spiro"
       miter_limit="4"
       scale_width="1"
       end_linecap_type="round" />
    <inkscape:path-effect
       effect="simplify"
       id="path-effect164"
       is_visible="true"
       lpeversion="1"
       steps="1"
       threshold="0.0028332064"
       smooth_angles="0"
       helper_size="0"
       simplify_individual_paths="false"
       simplify_just_coalesce="false"
       step="1" />
    <inkscape:path-effect
       effect="powerstroke"
       id="path-effect159"
       is_visible="true"
       lpeversion="1"
       offset_points="2.2611036,0.075169555"
       not_jump="true"
       sort_points="true"
       interpolator_type="CentripetalCatmullRom"
       interpolator_beta="0.75"
       start_linecap_type="round"
       linejoin_type="spiro"
       miter_limit="4"
       scale_width="1"
       end_linecap_type="round" />
    <inkscape:path-effect
       effect="simplify"
       id="path-effect157"
       is_visible="true"
       lpeversion="1"
       steps="1"
       threshold="0.0028332064"
       smooth_angles="0"
       helper_size="0"
       simplify_individual_paths="false"
       simplify_just_coalesce="false"
       step="1" />
    <inkscape:path-effect
       effect="powerstroke"
       id="path-effect152"
       is_visible="true"
       lpeversion="1"
       offset_points="2.826981,0.075169555"
       not_jump="true"
       sort_points="true"
       interpolator_type="CentripetalCatmullRom"
       interpolator_beta="0.75"
       start_linecap_type="round"
       linejoin_type="spiro"
       miter_limit="4"
       scale_width="1"
       end_linecap_type="round" />
    <inkscape:path-effect
       effect="simplify"
       id="path-effect150"
       is_visible="true"
       lpeversion="1"
       steps="1"
       threshold="0.0028332064"
       smooth_angles="0"
       helper_size="0"
       simplify_individual_paths="false"
       simplify_just_coalesce="false"
       step="1" />
    <inkscape:path-effect
       effect="powerstroke"
       id="path-effect145"
       is_visible="true"
       lpeversion="1"
       offset_points="3.8374447,0.075169555"
       not_jump="true"
       sort_points="true"
       interpolator_type="CentripetalCatmullRom"
       interpolator_beta="0.75"
       start_linecap_type="round"
       linejoin_type="spiro"
       miter_limit="4"
       scale_width="1"
       end_linecap_type="round" />
    <inkscape:path-effect
       effect="simplify"
       id="path-effect143"
       is_visible="true"
       lpeversion="1"
       steps="1"
       threshold="0.0028332064"
       smooth_angles="0"
       helper_size="0"
       simplify_individual_paths="false"
       simplify_just_coalesce="false"
       step="1" />
    <inkscape:path-effect
       effect="powerstroke"
       id="path-effect138"
       is_visible="true"
       lpeversion="1"
       offset_points="2.6880907,0.075169555"
       not_jump="true"
       sort_points="true"
       interpolator_type="CentripetalCatmullRom"
       interpolator_beta="0.75"
       start_linecap_type="round"
       linejoin_type="spiro"
       miter_limit="4"
       scale_width="1"
       end_linecap_type="round" />
    <inkscape:path-effect
       effect="simplify"
       id="path-effect136"
       is_visible="true"
       lpeversion="1"
       steps="1"
       threshold="0.0028332064"
       smooth_angles="0"
       helper_size="0"
       simplify_individual_paths="false"
       simplify_just_coalesce="false"
       step="1" />
    <inkscape:path-effect
       effect="powerstroke"
       id="path-effect131"
       is_visible="true"
       lpeversion="1"
       offset_points="1.9940581,0.075169555"
       not_jump="true"
       sort_points="true"
       interpolator_type="CentripetalCatmullRom"
       interpolator_beta="0.75"
       start_linecap_type="round"
       linejoin_type="spiro"
       miter_limit="4"
       scale_width="1"
       end_linecap_type="round" />
    <inkscape:path-effect
       effect="simplify"
       id="path-effect129"
       is_visible="true"
       lpeversion="1"
       steps="1"
       threshold="0.0028332064"
       smooth_angles="0"
       helper_size="0"
       simplify_individual_paths="false"
       simplify_just_coalesce="false"
       step="1" />
  </defs>
  <sodipodi:namedview
     id="base"
     pagecolor="#ffffff"
     bordercolor="#666666"
     borderopacity="1.0"
     inkscape:pageopacity="0.0"
     inkscape:pageshadow="2"
     inkscape:zoom="15.839192"
     inkscape:cx="0.1894036"
     inkscape:cy="18.687822"
     inkscape:document-units="mm"
     inkscape:current-layer="layer1"
     showgrid="false"
     fit-margin-top="0"
     fit-margin-left="0"
     fit-margin-right="0"
     fit-margin-bottom="0"
     inkscape:window-width="1920"
     inkscape:window-height="1057"
     inkscape:window-x="1072"
     inkscape:window-y="321"
     inkscape:window-maximized="1"
     showguides="true"
     inkscape:guide-bbox="true"
     inkscape:snap-bbox="true"
     inkscape:bbox-nodes="true"
     inkscape:snap-nodes="false"
     inkscape:snap-others="false"
     inkscape:snap-page="true"
     inkscape:snap-grids="false"
     inkscape:snap-to-guides="false"
     inkscape:snap-global="false"
     inkscape:pagecheckerboard="0"
     inkscape:showpageshadow="2"
     inkscape:deskcolor="#d1d1d1">
    <sodipodi:guide
       position="-6.1806076,9.4988693"
       orientation="0,1"
       id="guide816"
       inkscape:locked="false" />
    <sodipodi:guide
       position="-4.4101636,10.646923"
       orientation="0,1"
       id="guide818"
       inkscape:locked="false" />
    <sodipodi:guide
       position="2.7595724,11.09577"
       orientation="1,0"
       id="guide820"
       inkscape:locked="false" />
    <sodipodi:guide
       position="3.6572659,10.942217"
       orientation="1,0"
       id="guide822"
       inkscape:locked="false" />
    <sodipodi:guide
       position="-0.051625511,9.74923"
       orientation="1,0"
       id="guide1853"
       inkscape:locked="false" />
    <sodipodi:guide
       position="-2.3720169,3.0175835"
       orientation="0,1"
       id="guide1855"
       inkscape:locked="false" />
    <sodipodi:guide
       position="2.0379301,7.126852"
       orientation="0,-1"
       id="guide573"
       inkscape:locked="false" />
  </sodipodi:namedview>
  <metadata
     id="metadata1678">
    <rdf:RDF>
      <cc:Work
         rdf:about="">
        <dc:format>image/svg+xml</dc:format>
        <dc:type
           rdf:resource="http://purl.org/dc/dcmitype/StillImage" />
      </cc:Work>
    </rdf:RDF>
  </metadata>
  <g
     inkscape:label="Layer 1"
     inkscape:groupmode="layer"
     id="layer1"
     transform="translate(17.028496,-147.22856)">
    <path
       d="m -15.287638,150.97178 c -0.06007,-0.0621 -0.155786,-0.13356 -0.289352,-0.16871 -0.0972,-0.0256 -0.215636,-0.0314 -0.336788,0.008 -0.09431,0.031 -0.18165,0.0756 -0.263372,0.13225 -0.07759,0.0538 -0.148782,0.1174 -0.214771,0.18823 -0.12585,0.13509 -0.22932,0.2925 -0.321229,0.44933 -0.124122,0.22597 -0.229064,0.46828 -0.30173,0.72284 -0.07193,0.25199 -0.111595,0.51379 -0.106632,0.77885 0.003,0.0635 0.0089,0.12705 0.01984,0.19081 0.01105,0.0646 0.02724,0.12978 0.05064,0.1923 0.02394,0.0639 0.05555,0.12541 0.09698,0.18069 0.0429,0.0572 0.09557,0.10682 0.159216,0.1456 0.0033,0.002 0.0068,0.004 0.01032,0.006 0.06797,0.0319 0.140251,0.0504 0.21347,0.0566 0.07206,0.006 0.144962,1.3e-4 0.215506,-0.0168 0.137863,-0.033 0.269559,-0.10861 0.366523,-0.22173 0.145365,-0.16216 0.253356,-0.35036 0.339799,-0.54748 0.08507,-0.19399 0.149326,-0.39674 0.209304,-0.5928 0.09843,-0.35648 0.187742,-0.72418 0.228018,-1.10038 8.35e-4,-0.008 7.81e-4,-0.0157 2.7e-5,-0.0235 -0.0011,-0.0118 -0.0025,-0.023 -0.0043,-0.0333 -8.99e-4,-0.005 -0.002,-0.0108 -0.0034,-0.0165 -0.0014,-0.005 -0.0034,-0.0125 -0.0064,-0.0202 -0.0027,-0.007 -0.0081,-0.0191 -0.01808,-0.0319 -0.0052,-0.007 -0.01305,-0.0153 -0.02405,-0.0233 -0.01129,-0.008 -0.02641,-0.0161 -0.04515,-0.02 -0.01914,-0.004 -0.03801,-0.003 -0.05505,0.002 -0.01641,0.005 -0.02896,0.0118 -0.03817,0.0185 -0.009,0.007 -0.01562,0.0133 -0.0202,0.0186 -0.0047,0.005 -0.0082,0.0104 -0.01086,0.0145 -0.0051,0.008 -0.0086,0.0151 -0.01087,0.0202 -0.0024,0.005 -0.0043,0.0104 -0.0058,0.0147 -0.003,0.009 -0.0055,0.0173 -0.0075,0.0252 -0.0041,0.0159 -0.0079,0.0341 -0.01143,0.0523 -0.0069,0.0361 -0.01408,0.0798 -0.0201,0.11468 -0.0031,0.0181 -0.006,0.0339 -0.0085,0.0466 -0.0013,0.006 -0.0024,0.0114 -0.0033,0.0152 -9.08e-4,0.004 -0.0017,0.006 -0.0013,0.005 l -0.0031,0.0118 c -0.132235,0.63386 -0.301722,1.23851 -0.390207,1.87945 -0.02836,0.19065 -0.05302,0.3825 -0.07359,0.57413 -0.0769,0.71646 -0.102851,1.48812 -0.03607,2.28413 6.85e-4,0.008 0.0022,0.0162 0.0045,0.0241 0.02675,0.0907 0.06938,0.1914 0.133703,0.27933 0.0319,0.0436 0.06981,0.085 0.114619,0.12028 0.04484,0.0353 0.09637,0.0644 0.154823,0.0832 0.0084,0.003 0.01698,0.004 0.02571,0.005 0.06407,0.006 0.124222,-0.003 0.179326,-0.0207 0.05498,-0.0178 0.104676,-0.0445 0.148755,-0.0739 0.08787,-0.0587 0.164383,-0.1364 0.220907,-0.1939 0.05054,-0.0539 0.08816,-0.10956 0.11874,-0.165 0.03135,-0.0568 0.05619,-0.11505 0.07735,-0.1695 0.02225,-0.0573 0.04126,-0.1121 0.06014,-0.16295 0.02017,-0.0543 0.03931,-0.10201 0.06112,-0.1463 0.197312,-0.48647 0.362826,-1.04356 0.433683,-1.27725 a 0.11965466,0.11965466 90 0 0 -0.229014,-0.0694 c -0.07192,0.23719 -0.234262,0.78199 -0.423517,1.24851 -0.02363,0.0471 -0.04614,0.1036 -0.06743,0.16071 -0.02012,0.054 -0.0389,0.10786 -0.05904,0.15949 -0.01939,0.0497 -0.03985,0.0969 -0.06393,0.14039 -0.02325,0.042 -0.04972,0.0804 -0.08173,0.11451 -0.05686,0.0576 -0.116954,0.11744 -0.181141,0.16026 -0.03085,0.0206 -0.06052,0.0358 -0.08918,0.045 -0.02359,0.008 -0.04658,0.0113 -0.06961,0.0108 -0.02367,-0.009 -0.04585,-0.0221 -0.06678,-0.0386 -0.02489,-0.0196 -0.04806,-0.0442 -0.0693,-0.0732 -0.04129,-0.0563 -0.07249,-0.1252 -0.09395,-0.19389 -0.06423,-0.77361 -0.03929,-1.52533 0.03526,-2.22582 0.02004,-0.18832 0.0441,-0.37698 0.07197,-0.56584 0.08617,-0.63177 0.247794,-1.20721 0.382617,-1.86154 0.0015,-0.006 0.0028,-0.0109 0.0039,-0.0157 0.0016,-0.007 0.0032,-0.0153 0.0047,-0.0233 0.003,-0.0159 0.006,-0.0342 0.0089,-0.0527 0.0061,-0.0383 0.012,-0.0773 0.01794,-0.11061 0.003,-0.0166 0.0055,-0.0292 0.0076,-0.0382 9.8e-4,-0.004 0.0018,-0.007 0.0017,-0.007 -0.0021,0.005 -0.0042,0.009 -0.0078,0.0148 -0.0019,0.003 -0.0048,0.007 -0.0087,0.0115 -0.0039,0.004 -0.0098,0.0105 -0.01807,0.0166 -0.0085,0.006 -0.02036,0.0131 -0.03607,0.0174 -0.01635,0.005 -0.03453,0.006 -0.05298,0.002 -0.01806,-0.004 -0.0325,-0.0113 -0.04312,-0.019 -0.01033,-0.007 -0.01748,-0.0154 -0.02206,-0.0213 -0.0087,-0.0111 -0.01278,-0.021 -0.0142,-0.0246 -0.0018,-0.004 -0.0025,-0.007 -0.0027,-0.008 3.8e-4,0.002 7.04e-4,0.003 0.0011,0.006 -0.03696,0.35334 -0.11942,0.70307 -0.212973,1.04952 -0.05809,0.19323 -0.118211,0.38527 -0.196761,0.56667 -0.07939,0.18334 -0.175369,0.35026 -0.301954,0.49268 -0.06632,0.0784 -0.156785,0.13198 -0.25355,0.1557 -0.04909,0.012 -0.09909,0.0162 -0.147627,0.0124 -0.04732,-0.004 -0.09304,-0.0151 -0.135706,-0.0342 -0.03677,-0.0231 -0.06819,-0.0525 -0.09503,-0.0881 -0.02738,-0.0363 -0.05006,-0.0791 -0.06833,-0.12762 -0.01789,-0.0475 -0.0311,-0.0993 -0.04047,-0.15363 -0.0092,-0.0535 -0.01451,-0.1083 -0.01713,-0.16209 -0.0045,-0.23826 0.03153,-0.4791 0.09851,-0.71377 0.0677,-0.23718 0.16609,-0.46485 0.282378,-0.6765 0.08743,-0.14895 0.181823,-0.29097 0.292245,-0.40933 0.05745,-0.0616 0.117364,-0.11467 0.180554,-0.15838 0.06635,-0.0459 0.135485,-0.0809 0.208179,-0.10469 0.0759,-0.0242 0.152474,-0.0209 0.217133,-0.004 0.08864,0.0235 0.151662,0.0709 0.190542,0.11115 a 0.10644126,0.10644126 90 0 0 0.153046,-0.14798 z"
       id="path-1"
       inkscape:path-effect="#path-effect689;#path-effect691"
       inkscape:original-d="m -15.364161,151.04577 c -0.04839,-0.0356 -0.0907,-0.0814 -0.145157,-0.10674 -0.931525,-0.43338 -1.960256,2.09289 -1.296536,2.71518 0.105749,0.0991 0.284828,0.10554 0.413746,0.0821 0.627743,-0.11421 0.940867,-1.57353 1.040784,-2.1649 0.0017,-0.0103 0.04781,-0.26342 0.01284,-0.27707 -0.0021,-8.2e-4 -0.03211,0.17743 -0.07011,0.363 -0.06073,0.29663 -0.135278,0.58942 -0.201442,0.88477 -0.269743,1.2041 -0.378567,2.50345 -0.283401,3.72441 0.0095,0.12245 0.206296,0.49873 0.43152,0.42273 0.154095,-0.052 0.28595,-0.16864 0.38906,-0.29441 0.09669,-0.11793 0.13221,-0.27496 0.192554,-0.41502 0.197086,-0.45743 0.345484,-0.93369 0.489781,-1.40961"
       style="fill:#000000;fill-rule:nonzero;stroke:none" />
  </g>
</svg>
