<?xml version="1.0" encoding="UTF-8" standalone="no"?>
<!-- Created with Inkscape (http://www.inkscape.org/) -->

<svg
   width="2mm"
   height="10mm"
   viewBox="0 0 2.0000001 9.9999994"
   version="1.1"
   id="svg1681"
   inkscape:version="1.2.1 (9c6d41e410, 2022-07-14)"
   sodipodi:docname="hyphen_15.svg"
   inkscape:export-filename="..\..\..\..\Downloads\lower a diff canvas resize 3.0.png"
   inkscape:export-xdpi="96"
   inkscape:export-ydpi="96"
   xmlns:inkscape="http://www.inkscape.org/namespaces/inkscape"
   xmlns:sodipodi="http://sodipodi.sourceforge.net/DTD/sodipodi-0.dtd"
   xmlns="http://www.w3.org/2000/svg"
   xmlns:svg="http://www.w3.org/2000/svg"
   xmlns:rdf="http://www.w3.org/1999/02/22-rdf-syntax-ns#"
   xmlns:cc="http://creativecommons.org/ns#"
   xmlns:dc="http://purl.org/dc/elements/1.1/">
  <defs
     id="defs1675">
    <inkscape:path-effect
       effect="powerstroke"
       id="path-effect167"
       is_visible="true"
       lpeversion="1"
       offset_points="2.2448837,0.12986164"
       not_jump="true"
       sort_points="true"
       interpolator_type="CentripetalCatmullRom"
       interpolator_beta="0.75"
       start_linecap_type="round"
       linejoin_type="spiro"
       miter_limit="4"
       scale_width="1"
       end_linecap_type="round" />
    <inkscape:path-effect
       effect="simplify"
       id="path-effect165"
       is_visible="true"
       lpeversion="1"
       steps="1"
       threshold="0.0035951417"
       smooth_angles="0"
       helper_size="0"
       simplify_individual_paths="false"
       simplify_just_coalesce="false"
       step="1" />
    <inkscape:path-effect
       effect="powerstroke"
       id="path-effect223"
       is_visible="true"
       lpeversion="1"
       offset_points="2.2877883,0.11947899 | 15.930387,0.15607155"
       not_jump="true"
       sort_points="true"
       interpolator_type="CentripetalCatmullRom"
       interpolator_beta="0.75"
       start_linecap_type="round"
       linejoin_type="spiro"
       miter_limit="4"
       scale_width="1"
       end_linecap_type="round" />
    <inkscape:path-effect
       effect="simplify"
       id="path-effect221"
       is_visible="true"
       lpeversion="1"
       steps="1"
       threshold="0.0035951417"
       smooth_angles="0"
       helper_size="0"
       simplify_individual_paths="false"
       simplify_just_coalesce="false"
       step="1" />
    <inkscape:path-effect
       effect="powerstroke"
       id="path-effect162"
       is_visible="true"
       lpeversion="1"
       offset_points="3.284651,0.12596773"
       not_jump="true"
       sort_points="true"
       interpolator_type="CentripetalCatmullRom"
       interpolator_beta="0.75"
       start_linecap_type="round"
       linejoin_type="spiro"
       miter_limit="4"
       scale_width="1"
       end_linecap_type="round" />
    <inkscape:path-effect
       effect="simplify"
       id="path-effect160"
       is_visible="true"
       lpeversion="1"
       steps="1"
       threshold="0.0035951417"
       smooth_angles="0"
       helper_size="0"
       simplify_individual_paths="false"
       simplify_just_coalesce="false"
       step="1" />
    <inkscape:path-effect
       effect="powerstroke"
       id="path-effect163"
       is_visible="true"
       lpeversion="1"
       offset_points="2.3868036,0.21301815"
       not_jump="true"
       sort_points="true"
       interpolator_type="CentripetalCatmullRom"
       interpolator_beta="0.75"
       start_linecap_type="round"
       linejoin_type="spiro"
       miter_limit="4"
       scale_width="1"
       end_linecap_type="round" />
    <inkscape:path-effect
       effect="simplify"
       id="path-effect161"
       is_visible="true"
       lpeversion="1"
       steps="1"
       threshold="0.0035951417"
       smooth_angles="0"
       helper_size="0"
       simplify_individual_paths="false"
       simplify_just_coalesce="false"
       step="1" />
    <inkscape:path-effect
       effect="powerstroke"
       id="path-effect228"
       is_visible="true"
       lpeversion="1"
       offset_points="0.31995504,0.11823712"
       not_jump="true"
       sort_points="true"
       interpolator_type="CentripetalCatmullRom"
       interpolator_beta="0.75"
       start_linecap_type="round"
       linejoin_type="spiro"
       miter_limit="4"
       scale_width="1"
       end_linecap_type="round" />
    <inkscape:path-effect
       effect="simplify"
       id="path-effect226"
       is_visible="true"
       lpeversion="1"
       steps="1"
       threshold="0.0035951417"
       smooth_angles="0"
       helper_size="0"
       simplify_individual_paths="false"
       simplify_just_coalesce="false"
       step="1" />
    <inkscape:path-effect
       effect="powerstroke"
       id="path-effect220"
       is_visible="true"
       lpeversion="1"
       offset_points="1,0.12338681"
       not_jump="true"
       sort_points="true"
       interpolator_type="CentripetalCatmullRom"
       interpolator_beta="0.75"
       start_linecap_type="round"
       linejoin_type="spiro"
       miter_limit="4"
       scale_width="1"
       end_linecap_type="round" />
    <inkscape:path-effect
       effect="simplify"
       id="path-effect218"
       is_visible="true"
       lpeversion="1"
       steps="1"
       threshold="0.0035951417"
       smooth_angles="0"
       helper_size="0"
       simplify_individual_paths="false"
       simplify_just_coalesce="false"
       step="1" />
    <inkscape:path-effect
       effect="powerstroke"
       id="path-effect213"
       is_visible="true"
       lpeversion="1"
       offset_points="0.66831593,0.092694602"
       not_jump="true"
       sort_points="true"
       interpolator_type="CentripetalCatmullRom"
       interpolator_beta="0.75"
       start_linecap_type="round"
       linejoin_type="spiro"
       miter_limit="4"
       scale_width="1"
       end_linecap_type="round" />
    <inkscape:path-effect
       effect="simplify"
       id="path-effect211"
       is_visible="true"
       lpeversion="1"
       steps="1"
       threshold="0.0035951417"
       smooth_angles="0"
       helper_size="0"
       simplify_individual_paths="false"
       simplify_just_coalesce="false"
       step="1" />
    <inkscape:path-effect
       effect="powerstroke"
       id="path-effect206"
       is_visible="true"
       lpeversion="1"
       offset_points="0.49761397,0.091664664"
       not_jump="true"
       sort_points="true"
       interpolator_type="CentripetalCatmullRom"
       interpolator_beta="0.75"
       start_linecap_type="round"
       linejoin_type="spiro"
       miter_limit="4"
       scale_width="1"
       end_linecap_type="round" />
    <inkscape:path-effect
       effect="simplify"
       id="path-effect204"
       is_visible="true"
       lpeversion="1"
       steps="1"
       threshold="0.0035951417"
       smooth_angles="0"
       helper_size="0"
       simplify_individual_paths="false"
       simplify_just_coalesce="false"
       step="1" />
    <inkscape:path-effect
       effect="powerstroke"
       id="path-effect1482"
       is_visible="true"
       lpeversion="1"
       offset_points="3.7088798,0.16303938 | 6.5700881,0.14748794 | 7.7997513,0.166551 | 18.340411,0.14548129 | 22.036374,0.17909248"
       not_jump="true"
       sort_points="true"
       interpolator_type="CentripetalCatmullRom"
       interpolator_beta="0.75"
       start_linecap_type="round"
       linejoin_type="spiro"
       miter_limit="4"
       scale_width="1"
       end_linecap_type="round" />
    <inkscape:path-effect
       effect="simplify"
       id="path-effect1480"
       is_visible="true"
       lpeversion="1"
       steps="1"
       threshold="0.0035951417"
       smooth_angles="0"
       helper_size="0"
       simplify_individual_paths="false"
       simplify_just_coalesce="false"
       step="1" />
    <inkscape:path-effect
       effect="powerstroke"
       id="path-effect502"
       is_visible="true"
       lpeversion="1"
       offset_points="3.0091841,0.21607495 | 7.3602657,0.17554228 | 9.4159651,0.20236537"
       not_jump="true"
       sort_points="true"
       interpolator_type="CentripetalCatmullRom"
       interpolator_beta="0.75"
       start_linecap_type="round"
       linejoin_type="spiro"
       miter_limit="4"
       scale_width="1"
       end_linecap_type="round" />
    <inkscape:path-effect
       effect="simplify"
       id="path-effect500"
       is_visible="true"
       lpeversion="1"
       steps="1"
       threshold="0.0035951417"
       smooth_angles="0"
       helper_size="0"
       simplify_individual_paths="false"
       simplify_just_coalesce="false"
       step="1" />
    <inkscape:path-effect
       effect="powerstroke"
       id="path-effect241"
       is_visible="true"
       lpeversion="1"
       offset_points="2.6879454,0.34086734"
       not_jump="true"
       sort_points="true"
       interpolator_type="CentripetalCatmullRom"
       interpolator_beta="0.75"
       start_linecap_type="round"
       linejoin_type="spiro"
       miter_limit="4"
       scale_width="1"
       end_linecap_type="round" />
    <inkscape:path-effect
       effect="simplify"
       id="path-effect239"
       is_visible="true"
       lpeversion="1"
       steps="1"
       threshold="0.0028332064"
       smooth_angles="0"
       helper_size="0"
       simplify_individual_paths="false"
       simplify_just_coalesce="false"
       step="1" />
    <inkscape:path-effect
       effect="powerstroke"
       id="path-effect234"
       is_visible="true"
       lpeversion="1"
       offset_points="2.13563,0.075169555"
       not_jump="true"
       sort_points="true"
       interpolator_type="CentripetalCatmullRom"
       interpolator_beta="0.75"
       start_linecap_type="round"
       linejoin_type="spiro"
       miter_limit="4"
       scale_width="1"
       end_linecap_type="round" />
    <inkscape:path-effect
       effect="simplify"
       id="path-effect232"
       is_visible="true"
       lpeversion="1"
       steps="1"
       threshold="0.0028332064"
       smooth_angles="0"
       helper_size="0"
       simplify_individual_paths="false"
       simplify_just_coalesce="false"
       step="1" />
    <inkscape:path-effect
       effect="powerstroke"
       id="path-effect227"
       is_visible="true"
       lpeversion="1"
       offset_points="2.1868266,0.075169555"
       not_jump="true"
       sort_points="true"
       interpolator_type="CentripetalCatmullRom"
       interpolator_beta="0.75"
       start_linecap_type="round"
       linejoin_type="spiro"
       miter_limit="4"
       scale_width="1"
       end_linecap_type="round" />
    <inkscape:path-effect
       effect="simplify"
       id="path-effect225"
       is_visible="true"
       lpeversion="1"
       steps="1"
       threshold="0.0028332064"
       smooth_angles="0"
       helper_size="0"
       simplify_individual_paths="false"
       simplify_just_coalesce="false"
       step="1" />
    <inkscape:path-effect
       effect="powerstroke"
       id="path-effect166"
       is_visible="true"
       lpeversion="1"
       offset_points="1.9637935,0.075169555"
       not_jump="true"
       sort_points="true"
       interpolator_type="CentripetalCatmullRom"
       interpolator_beta="0.75"
       start_linecap_type="round"
       linejoin_type="spiro"
       miter_limit="4"
       scale_width="1"
       end_linecap_type="round" />
    <inkscape:path-effect
       effect="simplify"
       id="path-effect164"
       is_visible="true"
       lpeversion="1"
       steps="1"
       threshold="0.0028332064"
       smooth_angles="0"
       helper_size="0"
       simplify_individual_paths="false"
       simplify_just_coalesce="false"
       step="1" />
    <inkscape:path-effect
       effect="powerstroke"
       id="path-effect159"
       is_visible="true"
       lpeversion="1"
       offset_points="2.2611036,0.075169555"
       not_jump="true"
       sort_points="true"
       interpolator_type="CentripetalCatmullRom"
       interpolator_beta="0.75"
       start_linecap_type="round"
       linejoin_type="spiro"
       miter_limit="4"
       scale_width="1"
       end_linecap_type="round" />
    <inkscape:path-effect
       effect="simplify"
       id="path-effect157"
       is_visible="true"
       lpeversion="1"
       steps="1"
       threshold="0.0028332064"
       smooth_angles="0"
       helper_size="0"
       simplify_individual_paths="false"
       simplify_just_coalesce="false"
       step="1" />
    <inkscape:path-effect
       effect="powerstroke"
       id="path-effect152"
       is_visible="true"
       lpeversion="1"
       offset_points="2.826981,0.075169555"
       not_jump="true"
       sort_points="true"
       interpolator_type="CentripetalCatmullRom"
       interpolator_beta="0.75"
       start_linecap_type="round"
       linejoin_type="spiro"
       miter_limit="4"
       scale_width="1"
       end_linecap_type="round" />
    <inkscape:path-effect
       effect="simplify"
       id="path-effect150"
       is_visible="true"
       lpeversion="1"
       steps="1"
       threshold="0.0028332064"
       smooth_angles="0"
       helper_size="0"
       simplify_individual_paths="false"
       simplify_just_coalesce="false"
       step="1" />
    <inkscape:path-effect
       effect="powerstroke"
       id="path-effect145"
       is_visible="true"
       lpeversion="1"
       offset_points="3.8374447,0.075169555"
       not_jump="true"
       sort_points="true"
       interpolator_type="CentripetalCatmullRom"
       interpolator_beta="0.75"
       start_linecap_type="round"
       linejoin_type="spiro"
       miter_limit="4"
       scale_width="1"
       end_linecap_type="round" />
    <inkscape:path-effect
       effect="simplify"
       id="path-effect143"
       is_visible="true"
       lpeversion="1"
       steps="1"
       threshold="0.0028332064"
       smooth_angles="0"
       helper_size="0"
       simplify_individual_paths="false"
       simplify_just_coalesce="false"
       step="1" />
    <inkscape:path-effect
       effect="powerstroke"
       id="path-effect138"
       is_visible="true"
       lpeversion="1"
       offset_points="2.6880907,0.075169555"
       not_jump="true"
       sort_points="true"
       interpolator_type="CentripetalCatmullRom"
       interpolator_beta="0.75"
       start_linecap_type="round"
       linejoin_type="spiro"
       miter_limit="4"
       scale_width="1"
       end_linecap_type="round" />
    <inkscape:path-effect
       effect="simplify"
       id="path-effect136"
       is_visible="true"
       lpeversion="1"
       steps="1"
       threshold="0.0028332064"
       smooth_angles="0"
       helper_size="0"
       simplify_individual_paths="false"
       simplify_just_coalesce="false"
       step="1" />
    <inkscape:path-effect
       effect="powerstroke"
       id="path-effect131"
       is_visible="true"
       lpeversion="1"
       offset_points="1.9940581,0.075169555"
       not_jump="true"
       sort_points="true"
       interpolator_type="CentripetalCatmullRom"
       interpolator_beta="0.75"
       start_linecap_type="round"
       linejoin_type="spiro"
       miter_limit="4"
       scale_width="1"
       end_linecap_type="round" />
    <inkscape:path-effect
       effect="simplify"
       id="path-effect129"
       is_visible="true"
       lpeversion="1"
       steps="1"
       threshold="0.0028332064"
       smooth_angles="0"
       helper_size="0"
       simplify_individual_paths="false"
       simplify_just_coalesce="false"
       step="1" />
  </defs>
  <sodipodi:namedview
     id="base"
     pagecolor="#ffffff"
     bordercolor="#666666"
     borderopacity="1.0"
     inkscape:pageopacity="0.0"
     inkscape:pageshadow="2"
     inkscape:zoom="7.919596"
     inkscape:cx="-5.1770318"
     inkscape:cy="20.834396"
     inkscape:document-units="mm"
     inkscape:current-layer="layer1"
     showgrid="false"
     fit-margin-top="0"
     fit-margin-left="0"
     fit-margin-right="0"
     fit-margin-bottom="0"
     inkscape:window-width="1920"
     inkscape:window-height="974"
     inkscape:window-x="-11"
     inkscape:window-y="2889"
     inkscape:window-maximized="1"
     showguides="true"
     inkscape:guide-bbox="true"
     inkscape:snap-bbox="true"
     inkscape:bbox-nodes="true"
     inkscape:snap-nodes="false"
     inkscape:snap-others="false"
     inkscape:snap-page="true"
     inkscape:snap-grids="false"
     inkscape:snap-to-guides="false"
     inkscape:snap-global="false"
     inkscape:pagecheckerboard="0"
     inkscape:showpageshadow="2"
     inkscape:deskcolor="#d1d1d1">
    <sodipodi:guide
       position="-6.1806076,9.4988693"
       orientation="0,1"
       id="guide816"
       inkscape:locked="false" />
    <sodipodi:guide
       position="-4.4101637,10.646923"
       orientation="0,1"
       id="guide818"
       inkscape:locked="false" />
    <sodipodi:guide
       position="2.7595724,11.09577"
       orientation="1,0"
       id="guide820"
       inkscape:locked="false" />
    <sodipodi:guide
       position="3.6572659,10.942217"
       orientation="1,0"
       id="guide822"
       inkscape:locked="false" />
    <sodipodi:guide
       position="-0.051625512,9.74923"
       orientation="1,0"
       id="guide1853"
       inkscape:locked="false" />
    <sodipodi:guide
       position="-2.3720169,3.0175835"
       orientation="0,1"
       id="guide1855"
       inkscape:locked="false" />
  </sodipodi:namedview>
  <metadata
     id="metadata1678">
    <rdf:RDF>
      <cc:Work
         rdf:about="">
        <dc:format>image/svg+xml</dc:format>
        <dc:type
           rdf:resource="http://purl.org/dc/dcmitype/StillImage" />
      </cc:Work>
    </rdf:RDF>
  </metadata>
  <g
     inkscape:label="Layer 1"
     inkscape:groupmode="layer"
     id="layer1"
     transform="translate(17.028496,-147.22856)">
    <path
       d="m -16.74614,151.04351 c 0.207925,-0.021 0.73287,-0.0755 1.220114,0.006 0.0721,0.0122 0.157333,0.0295 0.249827,0.0548 l 0.03705,-0.2551 c -0.04542,-9.9e-4 -0.0921,-0.005 -0.14138,-0.0117 -0.04766,-0.006 -0.09673,-0.015 -0.153173,-0.0259 -0.08184,-0.0159 -0.211046,-0.0439 -0.322174,-0.0584 -0.233405,-0.0417 -0.514661,-0.0559 -0.812268,-0.006 -0.0068,1.3e-4 -0.0147,4.3e-4 -0.02304,0.001 -0.01312,0.001 -0.03007,0.003 -0.04831,0.008 -0.01755,0.005 -0.03983,0.0126 -0.062,0.0274 -0.02242,0.015 -0.04421,0.0367 -0.05956,0.0665 -0.0081,0.0157 -0.01606,0.0318 -0.02012,0.049 -0.0041,0.0172 -0.004,0.0356 0.0012,0.0524 0.0053,0.0169 0.01573,0.032 0.02889,0.0438 0.01317,0.0118 0.02885,0.0205 0.04447,0.0288 0.02916,0.0155 0.05819,0.0219 0.08326,0.024 0.02375,0.002 0.04537,3.8e-4 0.06141,-0.001 0.01636,-0.002 0.0294,-0.004 0.03865,-0.005 0.0091,-0.001 0.01441,-0.001 0.01419,-0.001 l 0.01864,-4.9e-4 c 0.08796,-0.009 0.17194,-0.023 0.251231,-0.0312 0.07757,-0.008 0.148777,-0.0104 0.216817,7.4e-4 0.0037,6.1e-4 0.0075,0.001 0.01128,0.001 0.153928,0.0116 0.301141,0.0313 0.431051,0.0879 l -0.07549,-0.14432 c 0.0011,-0.006 0.0031,-0.0118 0.0065,-0.0183 0.0033,-0.006 0.0075,-0.0121 0.01212,-0.0171 0.0092,-0.01 0.01857,-0.0143 0.02403,-0.0162 0.0053,-0.002 0.0086,-0.002 0.0096,-0.002 -0.03004,-0.006 -0.05193,-0.0137 -0.09054,-0.0261 -0.03386,-0.0109 -0.08062,-0.0252 -0.133075,-0.0287 -0.0049,-3.2e-4 -0.0098,-3.7e-4 -0.01477,-1.3e-4 -0.0023,1.1e-4 -0.0084,-1.3e-4 -0.02519,-0.004 -0.01117,-0.002 -0.04246,-0.0106 -0.06789,-0.0145 -0.208784,-0.0442 -0.442585,-0.0939 -0.682767,-0.0903 -0.01142,1.7e-4 -0.02294,7.4e-4 -0.03393,0.004 -0.01098,0.003 -0.02108,0.009 -0.03087,0.0146 -0.02757,0.0165 -0.04887,0.0396 -0.06304,0.0656 -0.01404,0.0257 -0.02214,0.0561 -0.0208,0.0881 6.77e-4,0.0163 0.0038,0.0333 0.01019,0.0502 0.0064,0.0171 0.01598,0.0335 0.02886,0.0483 0.02367,0.0271 0.05385,0.0432 0.08435,0.0507 0.04631,0.0145 0.09147,0.0192 0.123969,0.0225 0.03913,0.004 0.06214,0.006 0.08384,0.0119 0.0043,0.001 0.0087,0.002 0.01313,0.003 0.184597,0.029 0.365891,0.0481 0.540061,0.0739 0.178488,0.0265 0.346587,0.0594 0.507126,0.11369 0.0039,0.001 0.0078,0.002 0.01185,0.003 0.01312,0.003 0.02345,0.007 0.03086,0.0118 0.0074,0.004 0.01075,0.008 0.01273,0.0109 0.0045,0.007 0.0096,0.0126 0.01527,0.0182 -0.0096,-0.01 -0.01598,-0.0216 -0.01883,-0.0332 -0.0028,-0.0115 -0.0028,-0.024 8.95e-4,-0.0366 0.0038,-0.0131 0.01206,-0.0278 0.02668,-0.0397 0.0074,-0.006 0.01562,-0.0106 0.02423,-0.0137 0.0087,-0.003 0.01675,-0.004 0.02349,-0.005 l -0.01751,0.002 c -0.0085,0.001 -0.0205,0.001 -0.03925,-0.001 -0.02169,-0.003 -0.04104,-0.008 -0.07131,-0.0139 -0.08103,-0.0189 -0.166957,-0.0517 -0.258114,-0.082 -0.100454,-0.0334 -0.202547,-0.0621 -0.313313,-0.0681 -0.04512,-0.001 -0.08895,-0.004 -0.126463,-0.004 a 0.12986164,0.12986164 90 0 0 0.0022,0.25972 c 0.02567,-2.2e-4 0.06162,0.002 0.113246,0.004 0.07246,0.004 0.148179,0.0237 0.242316,0.055 0.07616,0.0253 0.184619,0.066 0.285504,0.0895 0.02166,0.004 0.05844,0.0127 0.08881,0.017 0.03026,0.004 0.06883,0.008 0.111087,0.002 0.01593,-0.001 0.03194,-0.005 0.04761,-0.0103 0.0188,-0.007 0.03611,-0.0166 0.05137,-0.0291 0.03015,-0.0245 0.0493,-0.0566 0.05879,-0.0892 0.0092,-0.0318 0.0098,-0.0656 0.0019,-0.0977 -0.0069,-0.028 -0.02055,-0.0557 -0.04132,-0.0795 -0.02492,-0.0333 -0.05552,-0.0588 -0.0877,-0.0779 -0.03151,-0.0187 -0.06486,-0.0314 -0.09725,-0.0395 -0.180082,-0.0604 -0.363748,-0.0956 -0.546876,-0.12277 -0.179329,-0.0266 -0.357985,-0.0455 -0.531834,-0.0726 -0.04362,-0.0108 -0.087,-0.0144 -0.116925,-0.0174 -0.03516,-0.004 -0.05695,-0.007 -0.0753,-0.0128 -0.0063,-0.002 -0.01276,-0.004 -0.01932,-0.005 0.01619,0.003 0.03781,0.0117 0.05552,0.032 0.0084,0.01 0.01451,0.0202 0.01858,0.031 0.004,0.0107 0.0059,0.0211 0.0063,0.0305 7.7e-4,0.0185 -0.0039,0.0346 -0.01082,0.0473 -0.0071,0.013 -0.0177,0.0244 -0.03133,0.0326 -0.0098,0.006 -0.01989,0.0115 -0.03087,0.0146 -0.01098,0.003 -0.02251,0.004 -0.03393,0.004 0.206313,-0.003 0.411669,0.0395 0.632281,0.086 0.02128,0.003 0.02947,0.006 0.05777,0.0126 0.02085,0.005 0.05064,0.0105 0.08457,0.0101 0.01674,0.002 0.03623,0.007 0.06569,0.0164 0.02751,0.009 0.06938,0.0236 0.112971,0.0318 0.02013,0.005 0.04116,0.007 0.06208,0.007 0.02296,-4.4e-4 0.04819,-0.004 0.07338,-0.0132 0.0255,-0.009 0.05283,-0.0246 0.07624,-0.0492 0.01178,-0.0124 0.02209,-0.0266 0.03036,-0.0426 0.0083,-0.0161 0.01411,-0.033 0.01756,-0.0504 0.003,-0.0149 0.0058,-0.03 0.0055,-0.0452 -2.42e-4,-0.0152 -0.0036,-0.0305 -0.01068,-0.044 -0.0071,-0.0135 -0.01766,-0.025 -0.03003,-0.0339 -0.01237,-0.009 -0.02636,-0.0152 -0.04032,-0.0213 -0.170309,-0.0742 -0.352284,-0.0964 -0.509923,-0.10843 -0.09915,-0.0155 -0.19466,-0.0107 -0.279974,-0.002 -0.08767,0.009 -0.168342,0.0227 -0.242164,0.0303 -0.01831,-7e-5 -0.03474,0.002 -0.04667,0.003 -0.01553,0.002 -0.02737,0.004 -0.03536,0.005 -0.0082,9e-4 -0.01208,6.7e-4 -0.01083,7.7e-4 0.0014,1.2e-4 0.0081,9.5e-4 0.01662,0.005 0.01563,0.008 0.03131,0.0169 0.04447,0.0288 0.01317,0.0118 0.0236,0.0269 0.02889,0.0438 0.0053,0.0169 0.0053,0.0352 0.0012,0.0524 -0.0041,0.0172 -0.01203,0.0333 -0.02012,0.049 -0.0074,0.0145 -0.01793,0.0246 -0.02719,0.0307 -0.0086,0.006 -0.0153,0.008 -0.01666,0.008 -0.0016,4.1e-4 -9.96e-4,1.1e-4 0.0027,-1.8e-4 0.0036,-2.8e-4 0.0082,-3.9e-4 0.01458,-3.9e-4 0.0075,10e-6 0.01492,-6.3e-4 0.02227,-0.002 0.266904,-0.0463 0.52117,-0.0341 0.738954,0.005 0.106499,0.014 0.220419,0.039 0.312331,0.0568 0.05884,0.0114 0.113347,0.021 0.167973,0.0284 0.05667,0.008 0.113223,0.0127 0.170326,0.0139 0.03885,8.5e-4 0.0791,5.2e-4 0.114407,-0.0157 0.01765,-0.008 0.03367,-0.02 0.04583,-0.0352 0.01216,-0.0152 0.02032,-0.0335 0.02311,-0.0528 0.0028,-0.0192 1.9e-4,-0.0392 -0.0072,-0.0572 -0.0073,-0.018 -0.01932,-0.0339 -0.03394,-0.0467 -0.02923,-0.0256 -0.06773,-0.0374 -0.105212,-0.0476 -0.102394,-0.028 -0.196246,-0.047 -0.275099,-0.0603 -0.52683,-0.0887 -1.085527,-0.0294 -1.28942,-0.009 a 0.12986164,0.12986164 90 0 0 0.02612,0.2584 z"
       id="path-1"
       inkscape:path-effect="#path-effect165;#path-effect167"
       inkscape:original-d="m -16.759202,150.91431 c 0.504419,-0.0511 1.023515,-0.0697 1.51723,0.0652 -0.208784,-0.004 -0.411799,-0.0679 -0.618375,-0.0949 -0.263009,-0.0481 -0.532798,-0.0526 -0.796219,-0.007 -0.07895,-0.005 -0.139174,0.0548 -0.02873,0.0394 0.195067,-0.007 0.387809,-0.0671 0.583943,-0.0351 0.160845,0.0121 0.324142,0.0334 0.473212,0.0984 -0.03501,0.1226 -0.230596,-0.0181 -0.326392,-0.003 -0.250913,-0.0515 -0.503244,-0.11357 -0.761074,-0.10971 -0.09624,0.0918 0.144708,0.0774 0.205348,0.0991 0.365552,0.0581 0.74193,0.0773 1.09371,0.19989 0.09999,0.0196 0.200259,0.16903 0.03219,0.16657 -0.240453,-0.0205 -0.453687,-0.16541 -0.698192,-0.16768 -0.02988,-0.002 -0.05984,-0.003 -0.0898,-0.003"
       style="fill:#000000;fill-rule:nonzero;stroke:none;stroke-width:1.04553" />
  </g>
</svg>
