<?xml version="1.0" encoding="UTF-8" standalone="no"?>
<!-- Created with Inkscape (http://www.inkscape.org/) -->

<svg
   width="2mm"
   height="10mm"
   viewBox="0 0 2.0000001 9.9999994"
   version="1.1"
   id="svg1681"
   inkscape:version="1.2.1 (9c6d41e410, 2022-07-14)"
   sodipodi:docname="hyphen_10.svg"
   inkscape:export-filename="..\..\..\..\Downloads\lower a diff canvas resize 3.0.png"
   inkscape:export-xdpi="96"
   inkscape:export-ydpi="96"
   xmlns:inkscape="http://www.inkscape.org/namespaces/inkscape"
   xmlns:sodipodi="http://sodipodi.sourceforge.net/DTD/sodipodi-0.dtd"
   xmlns="http://www.w3.org/2000/svg"
   xmlns:svg="http://www.w3.org/2000/svg"
   xmlns:rdf="http://www.w3.org/1999/02/22-rdf-syntax-ns#"
   xmlns:cc="http://creativecommons.org/ns#"
   xmlns:dc="http://purl.org/dc/elements/1.1/">
  <defs
     id="defs1675">
    <inkscape:path-effect
       effect="powerstroke"
       id="path-effect176"
       is_visible="true"
       lpeversion="1"
       offset_points="2.6145171,0.095212604 | 12.781132,0.15523794"
       not_jump="true"
       sort_points="true"
       interpolator_type="CentripetalCatmullRom"
       interpolator_beta="0.75"
       start_linecap_type="round"
       linejoin_type="spiro"
       miter_limit="4"
       scale_width="1"
       end_linecap_type="round" />
    <inkscape:path-effect
       effect="simplify"
       id="path-effect174"
       is_visible="true"
       lpeversion="1"
       steps="1"
       threshold="0.0035951417"
       smooth_angles="0"
       helper_size="0"
       simplify_individual_paths="false"
       simplify_just_coalesce="false"
       step="1" />
    <inkscape:path-effect
       effect="powerstroke"
       id="path-effect169"
       is_visible="true"
       lpeversion="1"
       offset_points="4.3922867,0.081923071 | 5.3360898,0.1171588"
       not_jump="true"
       sort_points="true"
       interpolator_type="CentripetalCatmullRom"
       interpolator_beta="0.75"
       start_linecap_type="round"
       linejoin_type="spiro"
       miter_limit="4"
       scale_width="1"
       end_linecap_type="round" />
    <inkscape:path-effect
       effect="simplify"
       id="path-effect167"
       is_visible="true"
       lpeversion="1"
       steps="1"
       threshold="0.0035951417"
       smooth_angles="0"
       helper_size="0"
       simplify_individual_paths="false"
       simplify_just_coalesce="false"
       step="1" />
    <inkscape:path-effect
       effect="powerstroke"
       id="path-effect223"
       is_visible="true"
       lpeversion="1"
       offset_points="2.2877883,0.11947899 | 15.930387,0.15607155"
       not_jump="true"
       sort_points="true"
       interpolator_type="CentripetalCatmullRom"
       interpolator_beta="0.75"
       start_linecap_type="round"
       linejoin_type="spiro"
       miter_limit="4"
       scale_width="1"
       end_linecap_type="round" />
    <inkscape:path-effect
       effect="simplify"
       id="path-effect221"
       is_visible="true"
       lpeversion="1"
       steps="1"
       threshold="0.0035951417"
       smooth_angles="0"
       helper_size="0"
       simplify_individual_paths="false"
       simplify_just_coalesce="false"
       step="1" />
    <inkscape:path-effect
       effect="powerstroke"
       id="path-effect162"
       is_visible="true"
       lpeversion="1"
       offset_points="3.284651,0.12596773"
       not_jump="true"
       sort_points="true"
       interpolator_type="CentripetalCatmullRom"
       interpolator_beta="0.75"
       start_linecap_type="round"
       linejoin_type="spiro"
       miter_limit="4"
       scale_width="1"
       end_linecap_type="round" />
    <inkscape:path-effect
       effect="simplify"
       id="path-effect160"
       is_visible="true"
       lpeversion="1"
       steps="1"
       threshold="0.0035951417"
       smooth_angles="0"
       helper_size="0"
       simplify_individual_paths="false"
       simplify_just_coalesce="false"
       step="1" />
    <inkscape:path-effect
       effect="powerstroke"
       id="path-effect163"
       is_visible="true"
       lpeversion="1"
       offset_points="2.3868036,0.21301815"
       not_jump="true"
       sort_points="true"
       interpolator_type="CentripetalCatmullRom"
       interpolator_beta="0.75"
       start_linecap_type="round"
       linejoin_type="spiro"
       miter_limit="4"
       scale_width="1"
       end_linecap_type="round" />
    <inkscape:path-effect
       effect="simplify"
       id="path-effect161"
       is_visible="true"
       lpeversion="1"
       steps="1"
       threshold="0.0035951417"
       smooth_angles="0"
       helper_size="0"
       simplify_individual_paths="false"
       simplify_just_coalesce="false"
       step="1" />
    <inkscape:path-effect
       effect="powerstroke"
       id="path-effect228"
       is_visible="true"
       lpeversion="1"
       offset_points="0.31995504,0.11823712"
       not_jump="true"
       sort_points="true"
       interpolator_type="CentripetalCatmullRom"
       interpolator_beta="0.75"
       start_linecap_type="round"
       linejoin_type="spiro"
       miter_limit="4"
       scale_width="1"
       end_linecap_type="round" />
    <inkscape:path-effect
       effect="simplify"
       id="path-effect226"
       is_visible="true"
       lpeversion="1"
       steps="1"
       threshold="0.0035951417"
       smooth_angles="0"
       helper_size="0"
       simplify_individual_paths="false"
       simplify_just_coalesce="false"
       step="1" />
    <inkscape:path-effect
       effect="powerstroke"
       id="path-effect220"
       is_visible="true"
       lpeversion="1"
       offset_points="1,0.12338681"
       not_jump="true"
       sort_points="true"
       interpolator_type="CentripetalCatmullRom"
       interpolator_beta="0.75"
       start_linecap_type="round"
       linejoin_type="spiro"
       miter_limit="4"
       scale_width="1"
       end_linecap_type="round" />
    <inkscape:path-effect
       effect="simplify"
       id="path-effect218"
       is_visible="true"
       lpeversion="1"
       steps="1"
       threshold="0.0035951417"
       smooth_angles="0"
       helper_size="0"
       simplify_individual_paths="false"
       simplify_just_coalesce="false"
       step="1" />
    <inkscape:path-effect
       effect="powerstroke"
       id="path-effect213"
       is_visible="true"
       lpeversion="1"
       offset_points="0.66831593,0.092694602"
       not_jump="true"
       sort_points="true"
       interpolator_type="CentripetalCatmullRom"
       interpolator_beta="0.75"
       start_linecap_type="round"
       linejoin_type="spiro"
       miter_limit="4"
       scale_width="1"
       end_linecap_type="round" />
    <inkscape:path-effect
       effect="simplify"
       id="path-effect211"
       is_visible="true"
       lpeversion="1"
       steps="1"
       threshold="0.0035951417"
       smooth_angles="0"
       helper_size="0"
       simplify_individual_paths="false"
       simplify_just_coalesce="false"
       step="1" />
    <inkscape:path-effect
       effect="powerstroke"
       id="path-effect206"
       is_visible="true"
       lpeversion="1"
       offset_points="0.49761397,0.091664664"
       not_jump="true"
       sort_points="true"
       interpolator_type="CentripetalCatmullRom"
       interpolator_beta="0.75"
       start_linecap_type="round"
       linejoin_type="spiro"
       miter_limit="4"
       scale_width="1"
       end_linecap_type="round" />
    <inkscape:path-effect
       effect="simplify"
       id="path-effect204"
       is_visible="true"
       lpeversion="1"
       steps="1"
       threshold="0.0035951417"
       smooth_angles="0"
       helper_size="0"
       simplify_individual_paths="false"
       simplify_just_coalesce="false"
       step="1" />
    <inkscape:path-effect
       effect="powerstroke"
       id="path-effect1482"
       is_visible="true"
       lpeversion="1"
       offset_points="3.7088798,0.16303938 | 6.5700881,0.14748794 | 7.7997513,0.166551 | 18.340411,0.14548129 | 22.036374,0.17909248"
       not_jump="true"
       sort_points="true"
       interpolator_type="CentripetalCatmullRom"
       interpolator_beta="0.75"
       start_linecap_type="round"
       linejoin_type="spiro"
       miter_limit="4"
       scale_width="1"
       end_linecap_type="round" />
    <inkscape:path-effect
       effect="simplify"
       id="path-effect1480"
       is_visible="true"
       lpeversion="1"
       steps="1"
       threshold="0.0035951417"
       smooth_angles="0"
       helper_size="0"
       simplify_individual_paths="false"
       simplify_just_coalesce="false"
       step="1" />
    <inkscape:path-effect
       effect="powerstroke"
       id="path-effect502"
       is_visible="true"
       lpeversion="1"
       offset_points="3.0091841,0.21607495 | 7.3602657,0.17554228 | 9.4159651,0.20236537"
       not_jump="true"
       sort_points="true"
       interpolator_type="CentripetalCatmullRom"
       interpolator_beta="0.75"
       start_linecap_type="round"
       linejoin_type="spiro"
       miter_limit="4"
       scale_width="1"
       end_linecap_type="round" />
    <inkscape:path-effect
       effect="simplify"
       id="path-effect500"
       is_visible="true"
       lpeversion="1"
       steps="1"
       threshold="0.0035951417"
       smooth_angles="0"
       helper_size="0"
       simplify_individual_paths="false"
       simplify_just_coalesce="false"
       step="1" />
    <inkscape:path-effect
       effect="powerstroke"
       id="path-effect241"
       is_visible="true"
       lpeversion="1"
       offset_points="2.6879454,0.34086734"
       not_jump="true"
       sort_points="true"
       interpolator_type="CentripetalCatmullRom"
       interpolator_beta="0.75"
       start_linecap_type="round"
       linejoin_type="spiro"
       miter_limit="4"
       scale_width="1"
       end_linecap_type="round" />
    <inkscape:path-effect
       effect="simplify"
       id="path-effect239"
       is_visible="true"
       lpeversion="1"
       steps="1"
       threshold="0.0028332064"
       smooth_angles="0"
       helper_size="0"
       simplify_individual_paths="false"
       simplify_just_coalesce="false"
       step="1" />
    <inkscape:path-effect
       effect="powerstroke"
       id="path-effect234"
       is_visible="true"
       lpeversion="1"
       offset_points="2.13563,0.075169555"
       not_jump="true"
       sort_points="true"
       interpolator_type="CentripetalCatmullRom"
       interpolator_beta="0.75"
       start_linecap_type="round"
       linejoin_type="spiro"
       miter_limit="4"
       scale_width="1"
       end_linecap_type="round" />
    <inkscape:path-effect
       effect="simplify"
       id="path-effect232"
       is_visible="true"
       lpeversion="1"
       steps="1"
       threshold="0.0028332064"
       smooth_angles="0"
       helper_size="0"
       simplify_individual_paths="false"
       simplify_just_coalesce="false"
       step="1" />
    <inkscape:path-effect
       effect="powerstroke"
       id="path-effect227"
       is_visible="true"
       lpeversion="1"
       offset_points="2.1868266,0.075169555"
       not_jump="true"
       sort_points="true"
       interpolator_type="CentripetalCatmullRom"
       interpolator_beta="0.75"
       start_linecap_type="round"
       linejoin_type="spiro"
       miter_limit="4"
       scale_width="1"
       end_linecap_type="round" />
    <inkscape:path-effect
       effect="simplify"
       id="path-effect225"
       is_visible="true"
       lpeversion="1"
       steps="1"
       threshold="0.0028332064"
       smooth_angles="0"
       helper_size="0"
       simplify_individual_paths="false"
       simplify_just_coalesce="false"
       step="1" />
    <inkscape:path-effect
       effect="powerstroke"
       id="path-effect166"
       is_visible="true"
       lpeversion="1"
       offset_points="1.9637935,0.075169555"
       not_jump="true"
       sort_points="true"
       interpolator_type="CentripetalCatmullRom"
       interpolator_beta="0.75"
       start_linecap_type="round"
       linejoin_type="spiro"
       miter_limit="4"
       scale_width="1"
       end_linecap_type="round" />
    <inkscape:path-effect
       effect="simplify"
       id="path-effect164"
       is_visible="true"
       lpeversion="1"
       steps="1"
       threshold="0.0028332064"
       smooth_angles="0"
       helper_size="0"
       simplify_individual_paths="false"
       simplify_just_coalesce="false"
       step="1" />
    <inkscape:path-effect
       effect="powerstroke"
       id="path-effect159"
       is_visible="true"
       lpeversion="1"
       offset_points="2.2611036,0.075169555"
       not_jump="true"
       sort_points="true"
       interpolator_type="CentripetalCatmullRom"
       interpolator_beta="0.75"
       start_linecap_type="round"
       linejoin_type="spiro"
       miter_limit="4"
       scale_width="1"
       end_linecap_type="round" />
    <inkscape:path-effect
       effect="simplify"
       id="path-effect157"
       is_visible="true"
       lpeversion="1"
       steps="1"
       threshold="0.0028332064"
       smooth_angles="0"
       helper_size="0"
       simplify_individual_paths="false"
       simplify_just_coalesce="false"
       step="1" />
    <inkscape:path-effect
       effect="powerstroke"
       id="path-effect152"
       is_visible="true"
       lpeversion="1"
       offset_points="2.826981,0.075169555"
       not_jump="true"
       sort_points="true"
       interpolator_type="CentripetalCatmullRom"
       interpolator_beta="0.75"
       start_linecap_type="round"
       linejoin_type="spiro"
       miter_limit="4"
       scale_width="1"
       end_linecap_type="round" />
    <inkscape:path-effect
       effect="simplify"
       id="path-effect150"
       is_visible="true"
       lpeversion="1"
       steps="1"
       threshold="0.0028332064"
       smooth_angles="0"
       helper_size="0"
       simplify_individual_paths="false"
       simplify_just_coalesce="false"
       step="1" />
    <inkscape:path-effect
       effect="powerstroke"
       id="path-effect145"
       is_visible="true"
       lpeversion="1"
       offset_points="3.8374447,0.075169555"
       not_jump="true"
       sort_points="true"
       interpolator_type="CentripetalCatmullRom"
       interpolator_beta="0.75"
       start_linecap_type="round"
       linejoin_type="spiro"
       miter_limit="4"
       scale_width="1"
       end_linecap_type="round" />
    <inkscape:path-effect
       effect="simplify"
       id="path-effect143"
       is_visible="true"
       lpeversion="1"
       steps="1"
       threshold="0.0028332064"
       smooth_angles="0"
       helper_size="0"
       simplify_individual_paths="false"
       simplify_just_coalesce="false"
       step="1" />
    <inkscape:path-effect
       effect="powerstroke"
       id="path-effect138"
       is_visible="true"
       lpeversion="1"
       offset_points="2.6880907,0.075169555"
       not_jump="true"
       sort_points="true"
       interpolator_type="CentripetalCatmullRom"
       interpolator_beta="0.75"
       start_linecap_type="round"
       linejoin_type="spiro"
       miter_limit="4"
       scale_width="1"
       end_linecap_type="round" />
    <inkscape:path-effect
       effect="simplify"
       id="path-effect136"
       is_visible="true"
       lpeversion="1"
       steps="1"
       threshold="0.0028332064"
       smooth_angles="0"
       helper_size="0"
       simplify_individual_paths="false"
       simplify_just_coalesce="false"
       step="1" />
    <inkscape:path-effect
       effect="powerstroke"
       id="path-effect131"
       is_visible="true"
       lpeversion="1"
       offset_points="1.9940581,0.075169555"
       not_jump="true"
       sort_points="true"
       interpolator_type="CentripetalCatmullRom"
       interpolator_beta="0.75"
       start_linecap_type="round"
       linejoin_type="spiro"
       miter_limit="4"
       scale_width="1"
       end_linecap_type="round" />
    <inkscape:path-effect
       effect="simplify"
       id="path-effect129"
       is_visible="true"
       lpeversion="1"
       steps="1"
       threshold="0.0028332064"
       smooth_angles="0"
       helper_size="0"
       simplify_individual_paths="false"
       simplify_just_coalesce="false"
       step="1" />
  </defs>
  <sodipodi:namedview
     id="base"
     pagecolor="#ffffff"
     bordercolor="#666666"
     borderopacity="1.0"
     inkscape:pageopacity="0.0"
     inkscape:pageshadow="2"
     inkscape:zoom="7.919596"
     inkscape:cx="-5.1770318"
     inkscape:cy="20.834396"
     inkscape:document-units="mm"
     inkscape:current-layer="layer1"
     showgrid="false"
     fit-margin-top="0"
     fit-margin-left="0"
     fit-margin-right="0"
     fit-margin-bottom="0"
     inkscape:window-width="1920"
     inkscape:window-height="974"
     inkscape:window-x="-11"
     inkscape:window-y="2869"
     inkscape:window-maximized="1"
     showguides="true"
     inkscape:guide-bbox="true"
     inkscape:snap-bbox="true"
     inkscape:bbox-nodes="true"
     inkscape:snap-nodes="false"
     inkscape:snap-others="false"
     inkscape:snap-page="true"
     inkscape:snap-grids="false"
     inkscape:snap-to-guides="false"
     inkscape:snap-global="false"
     inkscape:pagecheckerboard="0"
     inkscape:showpageshadow="2"
     inkscape:deskcolor="#d1d1d1">
    <sodipodi:guide
       position="-6.1806076,9.4988693"
       orientation="0,1"
       id="guide816"
       inkscape:locked="false" />
    <sodipodi:guide
       position="-4.4101637,10.646923"
       orientation="0,1"
       id="guide818"
       inkscape:locked="false" />
    <sodipodi:guide
       position="2.7595724,11.09577"
       orientation="1,0"
       id="guide820"
       inkscape:locked="false" />
    <sodipodi:guide
       position="3.6572659,10.942217"
       orientation="1,0"
       id="guide822"
       inkscape:locked="false" />
    <sodipodi:guide
       position="-0.051625512,9.74923"
       orientation="1,0"
       id="guide1853"
       inkscape:locked="false" />
    <sodipodi:guide
       position="-2.3720169,3.0175835"
       orientation="0,1"
       id="guide1855"
       inkscape:locked="false" />
  </sodipodi:namedview>
  <metadata
     id="metadata1678">
    <rdf:RDF>
      <cc:Work
         rdf:about="">
        <dc:format>image/svg+xml</dc:format>
        <dc:type
           rdf:resource="http://purl.org/dc/dcmitype/StillImage" />
      </cc:Work>
    </rdf:RDF>
  </metadata>
  <g
     inkscape:label="Layer 1"
     inkscape:groupmode="layer"
     id="layer1"
     transform="translate(17.028496,-147.22856)">
    <path
       d="m -16.804377,150.88073 c 0.271238,0.12897 0.545136,0.20844 1.072718,0.31951 0.09312,0.0194 0.211313,0.044 0.323888,0.0699 0.02529,0.0117 0.05701,0.0228 0.09164,0.0268 0.0091,0.001 0.01858,0.002 0.0284,0.002 0.01118,-5e-5 0.02333,-9.5e-4 0.03607,-0.003 0.0218,-0.004 0.04591,-0.012 0.06929,-0.0273 0.0085,-0.006 0.01688,-0.0117 0.0231,-0.0198 0.0062,-0.008 0.01013,-0.0176 0.01373,-0.0272 0.0063,-0.0166 0.0098,-0.0349 0.0092,-0.0542 -5.73e-4,-0.0186 -0.0049,-0.0358 -0.01149,-0.0512 -0.0063,-0.0146 -0.01439,-0.0269 -0.02255,-0.037 -0.0079,-0.01 -0.01632,-0.0181 -0.02422,-0.0251 -0.01488,-0.0131 -0.03065,-0.0237 -0.04254,-0.0314 -0.006,-0.004 -0.01136,-0.007 -0.01572,-0.0102 -0.0043,-0.003 -0.0075,-0.005 -0.0091,-0.006 -0.09199,-0.0518 -0.182078,-0.0799 -0.27442,-0.0989 -0.08702,-0.018 -0.174097,-0.0276 -0.257721,-0.0386 -0.134305,-0.0154 -0.265897,-0.0195 -0.396224,-0.0279 -0.123175,-0.008 -0.242634,-0.0195 -0.35787,-0.0474 -0.04352,-0.0185 -0.0849,-0.0426 -0.121497,-0.0719 l 0.01534,0.0133 c 9.67e-4,8.2e-4 0.0031,0.003 0.0059,0.006 0.0024,0.003 0.0076,0.01 0.01251,0.0196 0.0025,0.005 0.0057,0.0126 0.0081,0.022 0.0024,0.009 0.0044,0.0222 0.0033,0.0376 -0.0012,0.0158 -0.0057,0.0333 -0.01525,0.0502 -0.0096,0.0169 -0.0221,0.0295 -0.03476,0.0386 -0.01224,0.009 -0.02404,0.0137 -0.03304,0.0166 -0.009,0.003 -0.01688,0.004 -0.02259,0.005 -0.01094,0.001 -0.01965,7.6e-4 -0.02378,4.3e-4 -0.0046,-3.8e-4 -0.0084,-9.5e-4 -0.01026,-0.001 -0.0022,-3.5e-4 -0.0036,-5.8e-4 -0.0045,-7e-4 -0.0027,0.002 -0.0049,9.2e-4 -0.0083,-0.001 l 0.01778,0.01 c 0.110212,0.0508 0.222883,0.1086 0.341605,0.16057 0.120245,0.0526 0.247342,0.0994 0.384131,0.12475 0.121224,0.023 0.247355,0.0286 0.370767,0.004 0.01301,-0.002 0.02869,-0.005 0.04522,-0.0124 0.0095,-0.004 0.01969,-0.01 0.02988,-0.0173 0.01031,-0.008 0.02052,-0.0172 0.02964,-0.0289 0.0092,-0.0119 0.01678,-0.0253 0.02218,-0.0399 0.0054,-0.0146 0.0083,-0.0294 0.0091,-0.0435 0.0017,-0.0283 -0.0045,-0.0516 -0.01208,-0.0696 -0.0075,-0.0178 -0.01722,-0.032 -0.02636,-0.0428 -0.0094,-0.0111 -0.0198,-0.0205 -0.03028,-0.0281 -0.01368,-0.01 -0.02984,-0.0188 -0.04806,-0.0248 -0.04877,-0.0187 -0.09759,-0.0313 -0.135776,-0.0408 -0.04819,-0.012 -0.07878,-0.019 -0.112783,-0.0296 -0.265395,-0.0675 -0.483847,-0.11317 -0.649347,-0.15334 -0.06185,-0.015 -0.1199,-0.0297 -0.175939,-0.0446 l -0.02933,0.30598 c 0.03687,-0.002 0.07347,6.7e-4 0.109643,0.007 0.04137,0.007 0.08326,0.0178 0.123148,0.0293 0.15492,0.045 0.185101,0.0607 0.29438,0.0824 a 0.15523794,0.15523794 90 0 0 0.06041,-0.30454 c -0.09001,-0.0179 -0.09493,-0.0266 -0.267343,-0.0772 -0.04454,-0.0131 -0.100302,-0.0281 -0.16004,-0.0378 -0.05284,-0.009 -0.114273,-0.0142 -0.181181,-0.01 -0.04448,0.003 -0.09035,0.008 -0.129311,0.0293 -0.01948,0.0109 -0.03683,0.0257 -0.04965,0.044 -0.01283,0.0182 -0.021,0.0398 -0.02314,0.0619 -0.0021,0.0222 0.0017,0.0449 0.01085,0.0652 0.0091,0.0203 0.02331,0.0383 0.04039,0.0526 0.03415,0.0287 0.07841,0.0416 0.121531,0.053 0.05893,0.0154 0.119593,0.0304 0.183428,0.0454 0.170923,0.0402 0.391925,0.0841 0.643808,0.1448 0.03996,0.0105 0.08266,0.0184 0.124842,0.0268 0.03756,0.008 0.07174,0.0149 0.103058,0.0251 0.01031,0.003 0.02084,0.006 0.03157,0.008 -0.02116,-0.003 -0.03813,-0.0115 -0.05097,-0.0211 -0.0065,-0.005 -0.01335,-0.0111 -0.01983,-0.0189 -0.0062,-0.007 -0.01363,-0.0182 -0.01954,-0.0323 -0.006,-0.0144 -0.01142,-0.0342 -0.0099,-0.059 7.5e-4,-0.0124 0.0033,-0.0255 0.0081,-0.0385 0.0048,-0.013 0.01153,-0.0249 0.01964,-0.0353 0.008,-0.0103 0.01682,-0.0185 0.02543,-0.0248 0.0085,-0.006 0.01671,-0.0106 0.02386,-0.0137 0.0044,-0.002 0.0085,-0.003 0.01237,-0.005 -0.07992,0.0192 -0.169824,0.0205 -0.266682,0.006 -0.108453,-0.0181 -0.215597,-0.0544 -0.32775,-0.10117 -0.109849,-0.0458 -0.222147,-0.10085 -0.339961,-0.1526 l 0.01778,0.01 c -0.0043,-0.003 -0.008,-0.005 -0.01039,-0.006 -0.0026,-0.001 -0.0051,-0.002 -0.0073,-0.003 -0.0043,-0.002 -0.0089,-0.004 -0.0132,-0.005 -0.0044,-0.002 -0.0092,-0.003 -0.01418,-0.005 -0.0049,-0.002 -0.01077,-0.003 -0.01717,-0.005 -0.0032,-8.1e-4 -0.0071,-0.002 -0.01138,-0.002 -0.0041,-7.8e-4 -0.0097,-0.002 -0.01621,-0.002 -0.0059,-5.3e-4 -0.01619,-0.001 -0.02847,3.3e-4 -0.0064,7.5e-4 -0.01482,0.002 -0.02437,0.005 -0.0095,0.003 -0.02178,0.008 -0.03439,0.0172 -0.01303,0.009 -0.02587,0.0223 -0.03564,0.0395 -0.0098,0.0173 -0.01442,0.0351 -0.01563,0.0514 -0.0012,0.0158 9.08e-4,0.0292 0.0034,0.0392 0.0025,0.01 0.0059,0.0181 0.0088,0.024 0.0056,0.0114 0.01189,0.0198 0.01588,0.0247 0.0043,0.005 0.0086,0.01 0.01204,0.0131 0.0024,0.002 0.0048,0.005 0.0073,0.007 0.0025,0.002 0.0052,0.004 0.008,0.006 0.05955,0.0405 0.123871,0.0712 0.188636,0.0926 0.0041,0.001 0.0082,0.003 0.01238,0.004 0.138682,0.0322 0.277576,0.0429 0.406895,0.0491 0.139699,0.007 0.258401,0.008 0.384463,0.0208 0.08829,0.009 0.164383,0.016 0.241918,0.0302 0.0795,0.0145 0.148308,0.0352 0.209307,0.0676 -0.0012,-5.9e-4 0.0053,0.003 0.0105,0.006 0.0054,0.003 0.0097,0.005 0.01514,0.008 0.01081,0.006 0.0148,0.009 0.01905,0.0114 1.91e-4,-0.001 -0.002,-0.004 -0.004,-0.009 -0.0022,-0.005 -0.004,-0.0124 -0.0041,-0.0204 -1.44e-4,-0.008 0.0015,-0.0152 0.0035,-0.02 0.0039,-0.01 0.0071,-0.0196 0.01264,-0.0284 0.0028,-0.004 0.0063,-0.008 0.01046,-0.0114 0.0042,-0.003 0.0089,-0.005 0.01373,-0.007 0.0014,-5.8e-4 0.0036,-9.2e-4 0.0024,-2.5e-4 -0.0045,8.3e-4 -0.0063,8.6e-4 -0.0085,7.3e-4 -0.01071,-6.4e-4 -0.02476,-0.005 -0.03824,-0.0114 -0.0067,-0.003 -0.0137,-0.006 -0.02096,-0.007 -0.111399,-0.025 -0.248684,-0.0539 -0.337341,-0.073 -0.522762,-0.11105 -0.778314,-0.18802 -1.029855,-0.30763 a 0.0952126,0.0952126 90 0 0 -0.08177,0.17198 z"
       id="path-1"
       inkscape:path-effect="#path-effect174;#path-effect176"
       inkscape:original-d="m -16.763491,150.79474 c 0.437127,0.20769 0.919769,0.27951 1.387165,0.38622 0.06933,0.0409 0.220792,0.0269 0.101429,-0.0643 -0.150693,-0.10272 -0.342884,-0.11985 -0.51993,-0.1408 -0.25658,-0.0288 -0.518628,-0.0137 -0.771305,-0.0709 -0.04983,-0.006 -0.224103,-0.10727 -0.171871,-0.0972 0.325439,0.14328 0.66219,0.35057 1.032947,0.28543 0.131964,-0.0245 -0.111435,-0.069 -0.166207,-0.0827 -0.29389,-0.0755 -0.592544,-0.13153 -0.885977,-0.20914 0.194283,-0.0139 0.38052,0.0843 0.567868,0.1215"
       style="fill:#000000;fill-rule:nonzero;stroke:none;stroke-width:1.17486" />
  </g>
</svg>
