<?xml version="1.0" encoding="UTF-8" standalone="no"?>
<!-- Created with Inkscape (http://www.inkscape.org/) -->

<svg
   width="3mm"
   height="10mm"
   viewBox="0 0 3.0000001 9.9999994"
   version="1.1"
   id="svg1681"
   inkscape:version="1.2.1 (9c6d41e410, 2022-07-14)"
   sodipodi:docname="lower_r_4.svg"
   inkscape:export-filename="..\..\..\..\Downloads\lower a diff canvas resize 3.0.png"
   inkscape:export-xdpi="96"
   inkscape:export-ydpi="96"
   xmlns:inkscape="http://www.inkscape.org/namespaces/inkscape"
   xmlns:sodipodi="http://sodipodi.sourceforge.net/DTD/sodipodi-0.dtd"
   xmlns="http://www.w3.org/2000/svg"
   xmlns:svg="http://www.w3.org/2000/svg"
   xmlns:rdf="http://www.w3.org/1999/02/22-rdf-syntax-ns#"
   xmlns:cc="http://creativecommons.org/ns#"
   xmlns:dc="http://purl.org/dc/elements/1.1/">
  <defs
     id="defs1675">
    <inkscape:path-effect
       effect="powerstroke"
       id="path-effect434"
       is_visible="true"
       lpeversion="1"
       offset_points="1.0614118,0.056405749 | 4.3149201,0.041179657 | 6.1221189,0.054329463"
       not_jump="true"
       sort_points="true"
       interpolator_type="CentripetalCatmullRom"
       interpolator_beta="0.75"
       start_linecap_type="round"
       linejoin_type="spiro"
       miter_limit="4"
       scale_width="1"
       end_linecap_type="round" />
    <inkscape:path-effect
       effect="simplify"
       id="path-effect432"
       is_visible="true"
       lpeversion="1"
       steps="1"
       threshold="0.0047745358"
       smooth_angles="0"
       helper_size="0"
       simplify_individual_paths="false"
       simplify_just_coalesce="false"
       step="1" />
    <inkscape:path-effect
       effect="powerstroke"
       id="path-effect386"
       is_visible="true"
       lpeversion="1"
       offset_points="0.93476583,0.057616915 | 3.6664677,0.035123825 | 7.5765642,0.062461581"
       not_jump="true"
       sort_points="true"
       interpolator_type="CentripetalCatmullRom"
       interpolator_beta="0.75"
       start_linecap_type="round"
       linejoin_type="spiro"
       miter_limit="4"
       scale_width="1"
       end_linecap_type="round" />
    <inkscape:path-effect
       effect="simplify"
       id="path-effect384"
       is_visible="true"
       lpeversion="1"
       steps="1"
       threshold="0.0047745358"
       smooth_angles="0"
       helper_size="0"
       simplify_individual_paths="false"
       simplify_just_coalesce="false"
       step="1" />
    <inkscape:path-effect
       effect="powerstroke"
       id="path-effect340"
       is_visible="true"
       lpeversion="1"
       offset_points="0.93455209,0.069728579 | 4.0531518,0.046543394 | 7.9390704,0.08218629"
       not_jump="true"
       sort_points="true"
       interpolator_type="CentripetalCatmullRom"
       interpolator_beta="0.75"
       start_linecap_type="round"
       linejoin_type="spiro"
       miter_limit="4"
       scale_width="1"
       end_linecap_type="round" />
    <inkscape:path-effect
       effect="simplify"
       id="path-effect338"
       is_visible="true"
       lpeversion="1"
       steps="1"
       threshold="0.0047745358"
       smooth_angles="0"
       helper_size="0"
       simplify_individual_paths="false"
       simplify_just_coalesce="false"
       step="1" />
    <inkscape:path-effect
       effect="powerstroke"
       id="path-effect296"
       is_visible="true"
       lpeversion="1"
       offset_points="1.0288974,0.052772249 | 4.3532667,0.032355445 | 6.8518685,0.051388059"
       not_jump="true"
       sort_points="true"
       interpolator_type="CentripetalCatmullRom"
       interpolator_beta="0.75"
       start_linecap_type="round"
       linejoin_type="spiro"
       miter_limit="4"
       scale_width="1"
       end_linecap_type="round" />
    <inkscape:path-effect
       effect="simplify"
       id="path-effect294"
       is_visible="true"
       lpeversion="1"
       steps="1"
       threshold="0.0047745358"
       smooth_angles="0"
       helper_size="0"
       simplify_individual_paths="false"
       simplify_just_coalesce="false"
       step="1" />
    <inkscape:path-effect
       effect="powerstroke"
       id="path-effect1525"
       is_visible="true"
       lpeversion="1"
       offset_points="3.3752053,0.12532726"
       not_jump="true"
       sort_points="true"
       interpolator_type="CentripetalCatmullRom"
       interpolator_beta="0.75"
       start_linecap_type="round"
       linejoin_type="spiro"
       miter_limit="4"
       scale_width="1"
       end_linecap_type="round" />
    <inkscape:path-effect
       effect="simplify"
       id="path-effect1523"
       is_visible="true"
       lpeversion="1"
       steps="1"
       threshold="0.0035951417"
       smooth_angles="0"
       helper_size="0"
       simplify_individual_paths="false"
       simplify_just_coalesce="false"
       step="1" />
    <inkscape:path-effect
       effect="powerstroke"
       id="path-effect502"
       is_visible="true"
       lpeversion="1"
       offset_points="3.0091841,0.21607495 | 7.3602657,0.17554228 | 9.4159651,0.20236537"
       not_jump="true"
       sort_points="true"
       interpolator_type="CentripetalCatmullRom"
       interpolator_beta="0.75"
       start_linecap_type="round"
       linejoin_type="spiro"
       miter_limit="4"
       scale_width="1"
       end_linecap_type="round" />
    <inkscape:path-effect
       effect="simplify"
       id="path-effect500"
       is_visible="true"
       lpeversion="1"
       steps="1"
       threshold="0.0035951417"
       smooth_angles="0"
       helper_size="0"
       simplify_individual_paths="false"
       simplify_just_coalesce="false"
       step="1" />
    <inkscape:path-effect
       effect="powerstroke"
       id="path-effect241"
       is_visible="true"
       lpeversion="1"
       offset_points="2.6879454,0.34086734"
       not_jump="true"
       sort_points="true"
       interpolator_type="CentripetalCatmullRom"
       interpolator_beta="0.75"
       start_linecap_type="round"
       linejoin_type="spiro"
       miter_limit="4"
       scale_width="1"
       end_linecap_type="round" />
    <inkscape:path-effect
       effect="simplify"
       id="path-effect239"
       is_visible="true"
       lpeversion="1"
       steps="1"
       threshold="0.0028332064"
       smooth_angles="0"
       helper_size="0"
       simplify_individual_paths="false"
       simplify_just_coalesce="false"
       step="1" />
    <inkscape:path-effect
       effect="powerstroke"
       id="path-effect234"
       is_visible="true"
       lpeversion="1"
       offset_points="2.13563,0.075169555"
       not_jump="true"
       sort_points="true"
       interpolator_type="CentripetalCatmullRom"
       interpolator_beta="0.75"
       start_linecap_type="round"
       linejoin_type="spiro"
       miter_limit="4"
       scale_width="1"
       end_linecap_type="round" />
    <inkscape:path-effect
       effect="simplify"
       id="path-effect232"
       is_visible="true"
       lpeversion="1"
       steps="1"
       threshold="0.0028332064"
       smooth_angles="0"
       helper_size="0"
       simplify_individual_paths="false"
       simplify_just_coalesce="false"
       step="1" />
    <inkscape:path-effect
       effect="powerstroke"
       id="path-effect227"
       is_visible="true"
       lpeversion="1"
       offset_points="2.1868266,0.075169555"
       not_jump="true"
       sort_points="true"
       interpolator_type="CentripetalCatmullRom"
       interpolator_beta="0.75"
       start_linecap_type="round"
       linejoin_type="spiro"
       miter_limit="4"
       scale_width="1"
       end_linecap_type="round" />
    <inkscape:path-effect
       effect="simplify"
       id="path-effect225"
       is_visible="true"
       lpeversion="1"
       steps="1"
       threshold="0.0028332064"
       smooth_angles="0"
       helper_size="0"
       simplify_individual_paths="false"
       simplify_just_coalesce="false"
       step="1" />
    <inkscape:path-effect
       effect="powerstroke"
       id="path-effect166"
       is_visible="true"
       lpeversion="1"
       offset_points="1.9637935,0.075169555"
       not_jump="true"
       sort_points="true"
       interpolator_type="CentripetalCatmullRom"
       interpolator_beta="0.75"
       start_linecap_type="round"
       linejoin_type="spiro"
       miter_limit="4"
       scale_width="1"
       end_linecap_type="round" />
    <inkscape:path-effect
       effect="simplify"
       id="path-effect164"
       is_visible="true"
       lpeversion="1"
       steps="1"
       threshold="0.0028332064"
       smooth_angles="0"
       helper_size="0"
       simplify_individual_paths="false"
       simplify_just_coalesce="false"
       step="1" />
    <inkscape:path-effect
       effect="powerstroke"
       id="path-effect159"
       is_visible="true"
       lpeversion="1"
       offset_points="2.2611036,0.075169555"
       not_jump="true"
       sort_points="true"
       interpolator_type="CentripetalCatmullRom"
       interpolator_beta="0.75"
       start_linecap_type="round"
       linejoin_type="spiro"
       miter_limit="4"
       scale_width="1"
       end_linecap_type="round" />
    <inkscape:path-effect
       effect="simplify"
       id="path-effect157"
       is_visible="true"
       lpeversion="1"
       steps="1"
       threshold="0.0028332064"
       smooth_angles="0"
       helper_size="0"
       simplify_individual_paths="false"
       simplify_just_coalesce="false"
       step="1" />
    <inkscape:path-effect
       effect="powerstroke"
       id="path-effect152"
       is_visible="true"
       lpeversion="1"
       offset_points="2.826981,0.075169555"
       not_jump="true"
       sort_points="true"
       interpolator_type="CentripetalCatmullRom"
       interpolator_beta="0.75"
       start_linecap_type="round"
       linejoin_type="spiro"
       miter_limit="4"
       scale_width="1"
       end_linecap_type="round" />
    <inkscape:path-effect
       effect="simplify"
       id="path-effect150"
       is_visible="true"
       lpeversion="1"
       steps="1"
       threshold="0.0028332064"
       smooth_angles="0"
       helper_size="0"
       simplify_individual_paths="false"
       simplify_just_coalesce="false"
       step="1" />
    <inkscape:path-effect
       effect="powerstroke"
       id="path-effect145"
       is_visible="true"
       lpeversion="1"
       offset_points="3.8374447,0.075169555"
       not_jump="true"
       sort_points="true"
       interpolator_type="CentripetalCatmullRom"
       interpolator_beta="0.75"
       start_linecap_type="round"
       linejoin_type="spiro"
       miter_limit="4"
       scale_width="1"
       end_linecap_type="round" />
    <inkscape:path-effect
       effect="simplify"
       id="path-effect143"
       is_visible="true"
       lpeversion="1"
       steps="1"
       threshold="0.0028332064"
       smooth_angles="0"
       helper_size="0"
       simplify_individual_paths="false"
       simplify_just_coalesce="false"
       step="1" />
    <inkscape:path-effect
       effect="powerstroke"
       id="path-effect138"
       is_visible="true"
       lpeversion="1"
       offset_points="2.6880907,0.075169555"
       not_jump="true"
       sort_points="true"
       interpolator_type="CentripetalCatmullRom"
       interpolator_beta="0.75"
       start_linecap_type="round"
       linejoin_type="spiro"
       miter_limit="4"
       scale_width="1"
       end_linecap_type="round" />
    <inkscape:path-effect
       effect="simplify"
       id="path-effect136"
       is_visible="true"
       lpeversion="1"
       steps="1"
       threshold="0.0028332064"
       smooth_angles="0"
       helper_size="0"
       simplify_individual_paths="false"
       simplify_just_coalesce="false"
       step="1" />
    <inkscape:path-effect
       effect="powerstroke"
       id="path-effect131"
       is_visible="true"
       lpeversion="1"
       offset_points="1.9940581,0.075169555"
       not_jump="true"
       sort_points="true"
       interpolator_type="CentripetalCatmullRom"
       interpolator_beta="0.75"
       start_linecap_type="round"
       linejoin_type="spiro"
       miter_limit="4"
       scale_width="1"
       end_linecap_type="round" />
    <inkscape:path-effect
       effect="simplify"
       id="path-effect129"
       is_visible="true"
       lpeversion="1"
       steps="1"
       threshold="0.0028332064"
       smooth_angles="0"
       helper_size="0"
       simplify_individual_paths="false"
       simplify_just_coalesce="false"
       step="1" />
  </defs>
  <sodipodi:namedview
     id="base"
     pagecolor="#ffffff"
     bordercolor="#666666"
     borderopacity="1.0"
     inkscape:pageopacity="0.0"
     inkscape:pageshadow="2"
     inkscape:zoom="22.4"
     inkscape:cx="1.0714286"
     inkscape:cy="14.776786"
     inkscape:document-units="mm"
     inkscape:current-layer="layer1"
     showgrid="false"
     fit-margin-top="0"
     fit-margin-left="0"
     fit-margin-right="0"
     fit-margin-bottom="0"
     inkscape:window-width="1920"
     inkscape:window-height="1057"
     inkscape:window-x="1072"
     inkscape:window-y="321"
     inkscape:window-maximized="1"
     showguides="true"
     inkscape:guide-bbox="true"
     inkscape:snap-bbox="true"
     inkscape:bbox-nodes="true"
     inkscape:snap-nodes="false"
     inkscape:snap-others="false"
     inkscape:snap-page="true"
     inkscape:snap-grids="false"
     inkscape:snap-to-guides="false"
     inkscape:snap-global="false"
     inkscape:pagecheckerboard="0"
     inkscape:showpageshadow="2"
     inkscape:deskcolor="#d1d1d1">
    <sodipodi:guide
       position="-6.1806076,9.4988693"
       orientation="0,1"
       id="guide816"
       inkscape:locked="false" />
    <sodipodi:guide
       position="-4.4101636,10.646923"
       orientation="0,1"
       id="guide818"
       inkscape:locked="false" />
    <sodipodi:guide
       position="2.7595724,11.09577"
       orientation="1,0"
       id="guide820"
       inkscape:locked="false" />
    <sodipodi:guide
       position="3.6572659,10.942217"
       orientation="1,0"
       id="guide822"
       inkscape:locked="false" />
    <sodipodi:guide
       position="-0.051625511,9.74923"
       orientation="1,0"
       id="guide1853"
       inkscape:locked="false" />
    <sodipodi:guide
       position="-2.3720169,3.0175835"
       orientation="0,1"
       id="guide1855"
       inkscape:locked="false" />
    <sodipodi:guide
       position="2.5390605,7.7282084"
       orientation="0,-1"
       id="guide70"
       inkscape:locked="false" />
  </sodipodi:namedview>
  <metadata
     id="metadata1678">
    <rdf:RDF>
      <cc:Work
         rdf:about="">
        <dc:format>image/svg+xml</dc:format>
        <dc:type
           rdf:resource="http://purl.org/dc/dcmitype/StillImage" />
      </cc:Work>
    </rdf:RDF>
  </metadata>
  <g
     inkscape:label="Layer 1"
     inkscape:groupmode="layer"
     id="layer1"
     transform="translate(17.028496,-147.22856)">
    <path
       d="m -16.35423,149.66603 c -0.0133,0.31852 -0.04874,1.15143 0.0043,1.98633 -3.77e-4,-0.007 0.0081,0.15345 0.0077,0.14688 0.03016,0.5667 0.07853,1.42949 0.197077,2.25248 2.31e-4,0.002 6.99e-4,0.005 0.0012,0.007 2.31e-4,0.001 4.96e-4,0.003 8.02e-4,0.004 8.03e-4,0.004 0.0012,0.005 0.0018,0.007 3.13e-4,0.001 8.44e-4,0.003 0.0016,0.005 6.45e-4,0.002 0.0022,0.005 0.005,0.009 0.0014,0.002 0.0039,0.005 0.0075,0.009 0.0036,0.003 0.0097,0.008 0.01873,0.0112 0.0046,0.002 0.0098,0.003 0.0155,0.003 0.0057,7e-5 0.01116,-8.1e-4 0.01625,-0.002 0.005,-0.002 0.0093,-0.004 0.01273,-0.006 0.0034,-0.002 0.0061,-0.005 0.0082,-0.007 0.004,-0.004 0.0065,-0.008 0.0079,-0.0108 0.0015,-0.003 0.0025,-0.005 0.0031,-0.007 0.0012,-0.003 0.0018,-0.006 0.0021,-0.007 5.93e-4,-0.003 7.86e-4,-0.005 8.61e-4,-0.006 -1.79e-4,-0.0113 -3.86e-4,-0.0143 -5.9e-4,-0.0172 -2.1e-4,-0.003 -4.67e-4,-0.006 -7.41e-4,-0.01 -5.46e-4,-0.007 -0.0012,-0.0159 -0.002,-0.0251 -0.0015,-0.0183 -0.0034,-0.0394 -0.0055,-0.0579 -0.001,-0.009 -0.0021,-0.0179 -0.0032,-0.0254 -5.59e-4,-0.004 -0.0011,-0.007 -0.0018,-0.0106 -5.95e-4,-0.003 -0.0013,-0.007 -0.0022,-0.01 -0.01774,-0.11924 -0.04546,-0.24931 -0.06682,-0.36417 -0.02403,-0.12921 -0.04155,-0.24598 -0.04577,-0.36318 -0.0106,-0.16526 -0.01742,-0.32393 -0.02209,-0.47017 -0.01111,-0.3481 -0.01268,-0.73825 -0.01569,-1.02334 0.0013,-0.40743 0.02376,-0.85985 0.09843,-1.31417 0.0054,-0.0265 0.01167,-0.0558 0.01867,-0.0855 0.01913,-0.0812 0.04585,-0.17465 0.0864,-0.26216 0.02426,-0.0524 0.05371,-0.10317 0.09015,-0.14913 0.03472,-0.0438 0.07585,-0.0833 0.125252,-0.11581 0.101174,-0.0512 0.21493,-0.0913 0.334149,-0.12478 0.119622,-0.0336 0.24562,-0.0607 0.361607,-0.087 0.04173,-0.009 0.07154,-0.0147 0.09219,-0.0181 a 0.05432946,0.05432946 90 0 0 -0.01787,-0.10718 c -0.02393,0.004 -0.05114,0.008 -0.09736,0.0172 -0.115543,0.0258 -0.245306,0.0535 -0.368574,0.0879 -0.123528,0.0345 -0.244883,0.0769 -0.360098,0.13578 -0.06577,0.0429 -0.115397,0.091 -0.156444,0.14298 -0.04293,0.0544 -0.07654,0.11325 -0.103381,0.1718 -0.04469,0.0975 -0.07279,0.19928 -0.0919,0.28401 -0.007,0.0312 -0.01322,0.0618 -0.01871,0.0911 -0.07287,0.46547 -0.08676,0.9226 -0.08245,1.33387 0.0072,0.31538 0.01053,0.64533 0.02331,1.02512 0.0049,0.14669 0.01169,0.30645 0.02191,0.47147 0.0038,0.12206 0.02102,0.24334 0.0438,0.37438 0.02062,0.1186 0.04565,0.24414 0.06195,0.36555 0.0011,0.009 0.0013,0.0114 0.0015,0.0146 4.71e-4,0.006 9.54e-4,0.0139 0.0014,0.0226 9.42e-4,0.0175 0.0017,0.0377 0.0022,0.0554 2.17e-4,0.009 3.38e-4,0.017 3.38e-4,0.0237 0,0.003 -3.2e-5,0.006 -9.6e-5,0.009 -6.5e-5,0.002 -1.65e-4,0.005 -2.96e-4,0.006 -2.08e-4,-0.002 -6.5e-5,-0.004 4.86e-4,-0.007 2.65e-4,-0.001 8.43e-4,-0.004 0.002,-0.007 5.98e-4,-0.002 0.0016,-0.004 0.003,-0.007 0.0014,-0.003 0.0039,-0.007 0.0079,-0.0107 0.0021,-0.002 0.0048,-0.005 0.0082,-0.007 0.0035,-0.002 0.0077,-0.005 0.01271,-0.006 0.0051,-0.002 0.01056,-0.003 0.01623,-0.002 0.0056,7e-5 0.01086,0.001 0.01547,0.003 0.009,0.003 0.01514,0.008 0.01869,0.0112 0.0036,0.003 0.006,0.007 0.0075,0.009 0.0027,0.004 0.0043,0.008 0.0049,0.009 7.42e-4,0.002 0.0012,0.003 0.0015,0.004 0.0014,0.003 0.0013,4.1e-4 0.0011,-0.003 -0.113605,-0.8192 -0.158034,-1.68047 -0.187035,-2.24616 -3.34e-4,-0.007 -0.0071,-0.14089 -0.0075,-0.14741 -0.051,-0.82875 -0.01774,-1.65684 -0.0045,-1.97521 a 0.05640575,0.05640575 90 0 0 -0.112714,-0.005 z"
       id="path-1"
       inkscape:path-effect="#path-effect432;#path-effect434"
       inkscape:original-d="m -16.297873,149.66838 c -0.0216,0.55704 -0.036,1.1167 -0.01047,1.67415 0.01247,0.27231 0.02689,0.54449 0.04259,0.81663 0.02886,0.50012 0.06143,0.99361 0.122192,1.49158 0.01134,0.0929 0.02243,0.18588 0.03421,0.27875 0.0049,0.0384 0.0106,0.0766 0.01536,0.11499 0.0011,0.008 0.0021,0.0342 0.0021,0.0256 0,-0.23344 -0.08195,-0.48165 -0.104736,-0.71282 -0.03403,-0.34527 -0.03861,-0.69378 -0.04608,-1.04034 -0.01039,-0.48194 -0.02417,-0.96307 0.01955,-1.44362 0.03155,-0.3468 0.06141,-0.90537 0.372162,-1.14198 0.143319,-0.10913 0.6562,-0.22691 0.840681,-0.2575"
       style="fill:#000000;fill-rule:nonzero;stroke:none" />
  </g>
</svg>
