<?xml version="1.0" encoding="UTF-8" standalone="no"?>
<!-- Created with Inkscape (http://www.inkscape.org/) -->

<svg
   width="4mm"
   height="10mm"
   viewBox="0 0 4.0000001 9.9999994"
   version="1.1"
   id="svg1681"
   inkscape:version="1.2.1 (9c6d41e410, 2022-07-14)"
   sodipodi:docname="upper_b_2.svg"
   inkscape:export-filename="..\..\..\..\Downloads\lower a diff canvas resize 3.0.png"
   inkscape:export-xdpi="96"
   inkscape:export-ydpi="96"
   xmlns:inkscape="http://www.inkscape.org/namespaces/inkscape"
   xmlns:sodipodi="http://sodipodi.sourceforge.net/DTD/sodipodi-0.dtd"
   xmlns="http://www.w3.org/2000/svg"
   xmlns:svg="http://www.w3.org/2000/svg"
   xmlns:rdf="http://www.w3.org/1999/02/22-rdf-syntax-ns#"
   xmlns:cc="http://creativecommons.org/ns#"
   xmlns:dc="http://purl.org/dc/elements/1.1/">
  <defs
     id="defs1675">
    <inkscape:path-effect
       effect="powerstroke"
       id="path-effect356"
       is_visible="true"
       lpeversion="1"
       offset_points="1.3794869,0.074746268 | 4.5607201,0.089799335"
       not_jump="true"
       sort_points="true"
       interpolator_type="CentripetalCatmullRom"
       interpolator_beta="0.75"
       start_linecap_type="round"
       linejoin_type="spiro"
       miter_limit="4"
       scale_width="1"
       end_linecap_type="round" />
    <inkscape:path-effect
       effect="simplify"
       id="path-effect354"
       is_visible="true"
       lpeversion="1"
       steps="1"
       threshold="0.0047745358"
       smooth_angles="0"
       helper_size="0"
       simplify_individual_paths="false"
       simplify_just_coalesce="false"
       step="1" />
    <inkscape:path-effect
       effect="powerstroke"
       id="path-effect349"
       is_visible="true"
       lpeversion="1"
       offset_points="0.30672402,0.054156439 | 1.844915,0.064191818"
       not_jump="true"
       sort_points="true"
       interpolator_type="CentripetalCatmullRom"
       interpolator_beta="0.75"
       start_linecap_type="round"
       linejoin_type="spiro"
       miter_limit="4"
       scale_width="1"
       end_linecap_type="round" />
    <inkscape:path-effect
       effect="simplify"
       id="path-effect347"
       is_visible="true"
       lpeversion="1"
       steps="1"
       threshold="0.0047745358"
       smooth_angles="0"
       helper_size="0"
       simplify_individual_paths="false"
       simplify_just_coalesce="false"
       step="1" />
    <inkscape:path-effect
       effect="powerstroke"
       id="path-effect295"
       is_visible="true"
       lpeversion="1"
       offset_points="1.6170208,0.061423437 | 5.2175379,0.078379767"
       not_jump="true"
       sort_points="true"
       interpolator_type="CentripetalCatmullRom"
       interpolator_beta="0.75"
       start_linecap_type="round"
       linejoin_type="spiro"
       miter_limit="4"
       scale_width="1"
       end_linecap_type="round" />
    <inkscape:path-effect
       effect="simplify"
       id="path-effect293"
       is_visible="true"
       lpeversion="1"
       steps="1"
       threshold="0.0047745358"
       smooth_angles="0"
       helper_size="0"
       simplify_individual_paths="false"
       simplify_just_coalesce="false"
       step="1" />
    <inkscape:path-effect
       effect="powerstroke"
       id="path-effect288"
       is_visible="true"
       lpeversion="1"
       offset_points="0.66550702,0.053810392 | 2.1060275,0.062115532"
       not_jump="true"
       sort_points="true"
       interpolator_type="CentripetalCatmullRom"
       interpolator_beta="0.75"
       start_linecap_type="round"
       linejoin_type="spiro"
       miter_limit="4"
       scale_width="1"
       end_linecap_type="round" />
    <inkscape:path-effect
       effect="simplify"
       id="path-effect286"
       is_visible="true"
       lpeversion="1"
       steps="1"
       threshold="0.0047745358"
       smooth_angles="0"
       helper_size="0"
       simplify_individual_paths="false"
       simplify_just_coalesce="false"
       step="1" />
    <inkscape:path-effect
       effect="powerstroke"
       id="path-effect281"
       is_visible="true"
       lpeversion="1"
       offset_points="1.1610672,0.059866224 | 9.7940662,0.078033719"
       not_jump="true"
       sort_points="true"
       interpolator_type="CentripetalCatmullRom"
       interpolator_beta="0.75"
       start_linecap_type="round"
       linejoin_type="spiro"
       miter_limit="4"
       scale_width="1"
       end_linecap_type="round" />
    <inkscape:path-effect
       effect="simplify"
       id="path-effect279"
       is_visible="true"
       lpeversion="1"
       steps="1"
       threshold="0.0047745358"
       smooth_angles="0"
       helper_size="0"
       simplify_individual_paths="false"
       simplify_just_coalesce="false"
       step="1" />
    <inkscape:path-effect
       effect="powerstroke"
       id="path-effect274"
       is_visible="true"
       lpeversion="1"
       offset_points="0.41502429,0.056059701"
       not_jump="true"
       sort_points="true"
       interpolator_type="CentripetalCatmullRom"
       interpolator_beta="0.75"
       start_linecap_type="round"
       linejoin_type="spiro"
       miter_limit="4"
       scale_width="1"
       end_linecap_type="round" />
    <inkscape:path-effect
       effect="simplify"
       id="path-effect272"
       is_visible="true"
       lpeversion="1"
       steps="1"
       threshold="0.0047745358"
       smooth_angles="0"
       helper_size="0"
       simplify_individual_paths="false"
       simplify_just_coalesce="false"
       step="1" />
    <inkscape:path-effect
       effect="powerstroke"
       id="path-effect267"
       is_visible="true"
       lpeversion="1"
       offset_points="2.2075548,0.066268103 | 10.448475,0.081667218"
       not_jump="true"
       sort_points="true"
       interpolator_type="CentripetalCatmullRom"
       interpolator_beta="0.75"
       start_linecap_type="round"
       linejoin_type="spiro"
       miter_limit="4"
       scale_width="1"
       end_linecap_type="round" />
    <inkscape:path-effect
       effect="simplify"
       id="path-effect265"
       is_visible="true"
       lpeversion="1"
       steps="1"
       threshold="0.0047745358"
       smooth_angles="0"
       helper_size="0"
       simplify_individual_paths="false"
       simplify_just_coalesce="false"
       step="1" />
    <inkscape:path-effect
       effect="powerstroke"
       id="path-effect260"
       is_visible="true"
       lpeversion="1"
       offset_points="0.84407987,0.058482033"
       not_jump="true"
       sort_points="true"
       interpolator_type="CentripetalCatmullRom"
       interpolator_beta="0.75"
       start_linecap_type="round"
       linejoin_type="spiro"
       miter_limit="4"
       scale_width="1"
       end_linecap_type="round" />
    <inkscape:path-effect
       effect="simplify"
       id="path-effect258"
       is_visible="true"
       lpeversion="1"
       steps="1"
       threshold="0.0047745358"
       smooth_angles="0"
       helper_size="0"
       simplify_individual_paths="false"
       simplify_just_coalesce="false"
       step="1" />
    <inkscape:path-effect
       effect="powerstroke"
       id="path-effect1578"
       is_visible="true"
       lpeversion="1"
       offset_points="6.130227,0.16824281 | 12.54847,0.19349253 | 14.607739,0.1685086"
       not_jump="true"
       sort_points="true"
       interpolator_type="CentripetalCatmullRom"
       interpolator_beta="0.75"
       start_linecap_type="round"
       linejoin_type="spiro"
       miter_limit="4"
       scale_width="1"
       end_linecap_type="round" />
    <inkscape:path-effect
       effect="simplify"
       id="path-effect1576"
       is_visible="true"
       lpeversion="1"
       steps="1"
       threshold="0.0035951417"
       smooth_angles="0"
       helper_size="0"
       simplify_individual_paths="false"
       simplify_just_coalesce="false"
       step="1" />
    <inkscape:path-effect
       effect="powerstroke"
       id="path-effect502"
       is_visible="true"
       lpeversion="1"
       offset_points="3.0091841,0.21607495 | 7.3602657,0.17554228 | 9.4159651,0.20236537"
       not_jump="true"
       sort_points="true"
       interpolator_type="CentripetalCatmullRom"
       interpolator_beta="0.75"
       start_linecap_type="round"
       linejoin_type="spiro"
       miter_limit="4"
       scale_width="1"
       end_linecap_type="round" />
    <inkscape:path-effect
       effect="simplify"
       id="path-effect500"
       is_visible="true"
       lpeversion="1"
       steps="1"
       threshold="0.0035951417"
       smooth_angles="0"
       helper_size="0"
       simplify_individual_paths="false"
       simplify_just_coalesce="false"
       step="1" />
    <inkscape:path-effect
       effect="powerstroke"
       id="path-effect241"
       is_visible="true"
       lpeversion="1"
       offset_points="2.6879454,0.34086734"
       not_jump="true"
       sort_points="true"
       interpolator_type="CentripetalCatmullRom"
       interpolator_beta="0.75"
       start_linecap_type="round"
       linejoin_type="spiro"
       miter_limit="4"
       scale_width="1"
       end_linecap_type="round" />
    <inkscape:path-effect
       effect="simplify"
       id="path-effect239"
       is_visible="true"
       lpeversion="1"
       steps="1"
       threshold="0.0028332064"
       smooth_angles="0"
       helper_size="0"
       simplify_individual_paths="false"
       simplify_just_coalesce="false"
       step="1" />
    <inkscape:path-effect
       effect="powerstroke"
       id="path-effect234"
       is_visible="true"
       lpeversion="1"
       offset_points="2.13563,0.075169555"
       not_jump="true"
       sort_points="true"
       interpolator_type="CentripetalCatmullRom"
       interpolator_beta="0.75"
       start_linecap_type="round"
       linejoin_type="spiro"
       miter_limit="4"
       scale_width="1"
       end_linecap_type="round" />
    <inkscape:path-effect
       effect="simplify"
       id="path-effect232"
       is_visible="true"
       lpeversion="1"
       steps="1"
       threshold="0.0028332064"
       smooth_angles="0"
       helper_size="0"
       simplify_individual_paths="false"
       simplify_just_coalesce="false"
       step="1" />
    <inkscape:path-effect
       effect="powerstroke"
       id="path-effect227"
       is_visible="true"
       lpeversion="1"
       offset_points="2.1868266,0.075169555"
       not_jump="true"
       sort_points="true"
       interpolator_type="CentripetalCatmullRom"
       interpolator_beta="0.75"
       start_linecap_type="round"
       linejoin_type="spiro"
       miter_limit="4"
       scale_width="1"
       end_linecap_type="round" />
    <inkscape:path-effect
       effect="simplify"
       id="path-effect225"
       is_visible="true"
       lpeversion="1"
       steps="1"
       threshold="0.0028332064"
       smooth_angles="0"
       helper_size="0"
       simplify_individual_paths="false"
       simplify_just_coalesce="false"
       step="1" />
    <inkscape:path-effect
       effect="powerstroke"
       id="path-effect166"
       is_visible="true"
       lpeversion="1"
       offset_points="1.9637935,0.075169555"
       not_jump="true"
       sort_points="true"
       interpolator_type="CentripetalCatmullRom"
       interpolator_beta="0.75"
       start_linecap_type="round"
       linejoin_type="spiro"
       miter_limit="4"
       scale_width="1"
       end_linecap_type="round" />
    <inkscape:path-effect
       effect="simplify"
       id="path-effect164"
       is_visible="true"
       lpeversion="1"
       steps="1"
       threshold="0.0028332064"
       smooth_angles="0"
       helper_size="0"
       simplify_individual_paths="false"
       simplify_just_coalesce="false"
       step="1" />
    <inkscape:path-effect
       effect="powerstroke"
       id="path-effect159"
       is_visible="true"
       lpeversion="1"
       offset_points="2.2611036,0.075169555"
       not_jump="true"
       sort_points="true"
       interpolator_type="CentripetalCatmullRom"
       interpolator_beta="0.75"
       start_linecap_type="round"
       linejoin_type="spiro"
       miter_limit="4"
       scale_width="1"
       end_linecap_type="round" />
    <inkscape:path-effect
       effect="simplify"
       id="path-effect157"
       is_visible="true"
       lpeversion="1"
       steps="1"
       threshold="0.0028332064"
       smooth_angles="0"
       helper_size="0"
       simplify_individual_paths="false"
       simplify_just_coalesce="false"
       step="1" />
    <inkscape:path-effect
       effect="powerstroke"
       id="path-effect152"
       is_visible="true"
       lpeversion="1"
       offset_points="2.826981,0.075169555"
       not_jump="true"
       sort_points="true"
       interpolator_type="CentripetalCatmullRom"
       interpolator_beta="0.75"
       start_linecap_type="round"
       linejoin_type="spiro"
       miter_limit="4"
       scale_width="1"
       end_linecap_type="round" />
    <inkscape:path-effect
       effect="simplify"
       id="path-effect150"
       is_visible="true"
       lpeversion="1"
       steps="1"
       threshold="0.0028332064"
       smooth_angles="0"
       helper_size="0"
       simplify_individual_paths="false"
       simplify_just_coalesce="false"
       step="1" />
    <inkscape:path-effect
       effect="powerstroke"
       id="path-effect145"
       is_visible="true"
       lpeversion="1"
       offset_points="3.8374447,0.075169555"
       not_jump="true"
       sort_points="true"
       interpolator_type="CentripetalCatmullRom"
       interpolator_beta="0.75"
       start_linecap_type="round"
       linejoin_type="spiro"
       miter_limit="4"
       scale_width="1"
       end_linecap_type="round" />
    <inkscape:path-effect
       effect="simplify"
       id="path-effect143"
       is_visible="true"
       lpeversion="1"
       steps="1"
       threshold="0.0028332064"
       smooth_angles="0"
       helper_size="0"
       simplify_individual_paths="false"
       simplify_just_coalesce="false"
       step="1" />
    <inkscape:path-effect
       effect="powerstroke"
       id="path-effect138"
       is_visible="true"
       lpeversion="1"
       offset_points="2.6880907,0.075169555"
       not_jump="true"
       sort_points="true"
       interpolator_type="CentripetalCatmullRom"
       interpolator_beta="0.75"
       start_linecap_type="round"
       linejoin_type="spiro"
       miter_limit="4"
       scale_width="1"
       end_linecap_type="round" />
    <inkscape:path-effect
       effect="simplify"
       id="path-effect136"
       is_visible="true"
       lpeversion="1"
       steps="1"
       threshold="0.0028332064"
       smooth_angles="0"
       helper_size="0"
       simplify_individual_paths="false"
       simplify_just_coalesce="false"
       step="1" />
    <inkscape:path-effect
       effect="powerstroke"
       id="path-effect131"
       is_visible="true"
       lpeversion="1"
       offset_points="1.9940581,0.075169555"
       not_jump="true"
       sort_points="true"
       interpolator_type="CentripetalCatmullRom"
       interpolator_beta="0.75"
       start_linecap_type="round"
       linejoin_type="spiro"
       miter_limit="4"
       scale_width="1"
       end_linecap_type="round" />
    <inkscape:path-effect
       effect="simplify"
       id="path-effect129"
       is_visible="true"
       lpeversion="1"
       steps="1"
       threshold="0.0028332064"
       smooth_angles="0"
       helper_size="0"
       simplify_individual_paths="false"
       simplify_just_coalesce="false"
       step="1" />
  </defs>
  <sodipodi:namedview
     id="base"
     pagecolor="#ffffff"
     bordercolor="#666666"
     borderopacity="1.0"
     inkscape:pageopacity="0.0"
     inkscape:pageshadow="2"
     inkscape:zoom="22.4"
     inkscape:cx="3.4598214"
     inkscape:cy="17.008928"
     inkscape:document-units="mm"
     inkscape:current-layer="layer1"
     showgrid="false"
     fit-margin-top="0"
     fit-margin-left="0"
     fit-margin-right="0"
     fit-margin-bottom="0"
     inkscape:window-width="1920"
     inkscape:window-height="1057"
     inkscape:window-x="1072"
     inkscape:window-y="321"
     inkscape:window-maximized="1"
     showguides="true"
     inkscape:guide-bbox="true"
     inkscape:snap-bbox="true"
     inkscape:bbox-nodes="true"
     inkscape:snap-nodes="false"
     inkscape:snap-others="false"
     inkscape:snap-page="true"
     inkscape:snap-grids="false"
     inkscape:snap-to-guides="false"
     inkscape:snap-global="false"
     inkscape:pagecheckerboard="0"
     inkscape:showpageshadow="2"
     inkscape:deskcolor="#d1d1d1">
    <sodipodi:guide
       position="-6.1806075,9.4988692"
       orientation="0,1"
       id="guide816"
       inkscape:locked="false" />
    <sodipodi:guide
       position="-4.4101636,10.646923"
       orientation="0,1"
       id="guide818"
       inkscape:locked="false" />
    <sodipodi:guide
       position="2.7595724,11.09577"
       orientation="1,0"
       id="guide820"
       inkscape:locked="false" />
    <sodipodi:guide
       position="3.6572659,10.942217"
       orientation="1,0"
       id="guide822"
       inkscape:locked="false" />
    <sodipodi:guide
       position="-0.051625511,9.7492299"
       orientation="1,0"
       id="guide1853"
       inkscape:locked="false" />
    <sodipodi:guide
       position="-2.3720169,3.0175835"
       orientation="0,1"
       id="guide1855"
       inkscape:locked="false" />
  </sodipodi:namedview>
  <metadata
     id="metadata1678">
    <rdf:RDF>
      <cc:Work
         rdf:about="">
        <dc:format>image/svg+xml</dc:format>
        <dc:type
           rdf:resource="http://purl.org/dc/dcmitype/StillImage" />
      </cc:Work>
    </rdf:RDF>
  </metadata>
  <g
     inkscape:label="Layer 1"
     inkscape:groupmode="layer"
     id="layer1"
     transform="translate(17.028496,-147.22856)">
    <path
       d="m -16.037804,148.95004 c 0.0067,0.0932 0.02047,0.22819 0.0581,0.45046 0.01482,0.0875 0.02859,0.16241 0.05008,0.27954 0.03601,0.19629 0.08584,0.46294 0.100484,0.7178 0.07922,0.93687 0.09048,1.83753 0.07935,2.62897 -0.0022,0.15624 -0.0054,0.31686 -0.0097,0.48287 -0.01414,0.30958 -0.03944,0.67271 -0.04339,0.81156 a 0.06419182,0.06419182 90 0 0 0.128332,0.004 c 0.0039,-0.13619 0.03106,-0.49537 0.04412,-0.81078 0.0041,-0.16765 0.0071,-0.32889 0.009,-0.48564 0.0095,-0.79311 -0.0062,-1.7001 -0.09035,-2.63943 -0.01777,-0.26165 -0.07208,-0.53544 -0.109426,-0.72939 -0.02207,-0.11463 -0.03714,-0.19342 -0.05176,-0.27748 -0.03789,-0.21789 -0.05041,-0.35098 -0.05682,-0.43994 a 0.05415644,0.05415644 90 0 0 -0.108032,0.008 z"
       id="path-1"
       inkscape:path-effect="#path-effect347;#path-effect349"
       inkscape:original-d="m -15.983788,148.94614 c 0.0086,0.15408 0.03321,0.30705 0.06005,0.45887 0.05125,0.28988 0.114505,0.57694 0.142441,0.87058 0.09621,1.01134 0.10892,2.03268 0.09217,3.04801 -0.0055,0.33411 -0.04008,0.66585 -0.04958,0.99947"
       style="fill:#000000;fill-rule:nonzero;stroke:none" />
    <path
       d="m -15.923877,148.88737 c 0.01613,-0.0258 0.04119,-0.0555 0.08195,-0.0787 0.02972,-0.0169 0.06725,-0.0302 0.114961,-0.0374 0.04155,-0.006 0.08779,-0.008 0.138267,-0.004 0.04689,0.003 0.0943,0.01 0.140662,0.0179 0.162594,0.031 0.328965,0.069 0.487846,0.12294 0.04967,0.0169 0.09919,0.0355 0.147996,0.0562 0.09765,0.0415 0.193131,0.0916 0.281841,0.1533 0.08483,0.059 0.164292,0.12922 0.23403,0.21384 0.0573,0.0692 0.100284,0.14743 0.129317,0.23295 0.02797,0.0824 0.04289,0.17133 0.04464,0.26389 0.0033,0.17592 -0.04132,0.36313 -0.129664,0.52822 -0.07818,0.14626 -0.183898,0.28468 -0.313606,0.4049 -0.122593,0.11362 -0.266674,0.21099 -0.426612,0.28118 -0.0094,0.004 -0.01134,0.005 -0.01762,0.008 -0.0052,0.002 -0.01128,0.004 -0.01763,0.006 -0.0063,0.002 -0.01229,0.003 -0.01743,0.004 -0.005,9e-4 -0.009,0.001 -0.009,0.001 -9e-6,-5e-5 9.17e-4,-2.4e-4 0.004,-8e-5 0.0024,1.3e-4 0.01034,6.6e-4 0.02067,0.005 0.0054,0.002 0.01334,0.006 0.02174,0.0124 0.0086,0.007 0.01805,0.017 0.0247,0.0314 0.0067,0.0145 0.0088,0.0293 0.0079,0.0427 -8.99e-4,0.0126 -0.0044,0.0225 -0.0074,0.0291 -0.003,0.007 -0.0062,0.0113 -0.0084,0.0143 -0.0022,0.003 -0.0042,0.005 -0.0053,0.006 -0.0022,0.002 -0.0032,0.003 -0.002,0.002 0.0025,-0.002 0.0083,-0.006 0.02058,-0.0124 0.08979,-0.0498 0.193837,-0.087 0.308612,-0.10687 0.105281,-0.0183 0.217653,-0.0216 0.33044,-0.007 0.0709,0.01 0.139653,0.0317 0.20469,0.0644 0.06361,0.032 0.123588,0.0742 0.178929,0.12506 0.108163,0.0993 0.196348,0.22956 0.255766,0.37036 0.136255,0.31796 0.191013,0.6764 0.157067,1.02845 -0.0228,0.11383 -0.05863,0.23364 -0.108805,0.34489 -0.05082,0.11268 -0.115682,0.21511 -0.196619,0.303 -0.323514,0.36209 -0.716061,0.63542 -1.122803,0.81615 -0.08767,0.0326 -0.161464,0.0641 -0.242011,0.0824 -0.04028,0.009 -0.07698,0.0135 -0.11108,0.0125 -0.03567,-0.001 -0.06837,-0.008 -0.0992,-0.0209 -0.05757,-0.0265 -0.111472,-0.0774 -0.143994,-0.1089 a 0.08979933,0.08979933 90 0 0 -0.125024,0.12894 c 0.02998,0.0291 0.104156,0.10209 0.195622,0.14475 0.05584,0.0239 0.110998,0.035 0.16722,0.0368 0.05288,0.002 0.105156,-0.005 0.156309,-0.0166 0.09616,-0.0216 0.187564,-0.06 0.270685,-0.0908 0.434045,-0.19226 0.848373,-0.48012 1.189521,-0.86145 0.09518,-0.10308 0.170422,-0.22252 0.228261,-0.35043 0.05703,-0.12611 0.0968,-0.25971 0.123219,-0.39372 0.03833,-0.39084 -0.02077,-0.78034 -0.169304,-1.12689 -0.06831,-0.16185 -0.170963,-0.31469 -0.300688,-0.43371 -0.06668,-0.0612 -0.140537,-0.11346 -0.22072,-0.15371 -0.08217,-0.0412 -0.170311,-0.0695 -0.2633,-0.0822 -0.132076,-0.0164 -0.262725,-0.0124 -0.385626,0.009 -0.13409,0.0236 -0.257455,0.0678 -0.365522,0.12834 -0.01565,0.009 -0.02922,0.0173 -0.04037,0.0257 -0.0057,0.004 -0.01212,0.01 -0.01822,0.0158 -0.0032,0.003 -0.0067,0.007 -0.01029,0.0119 -0.0035,0.005 -0.0077,0.0111 -0.01142,0.0191 -0.0037,0.008 -0.0076,0.0194 -0.0085,0.0332 -0.001,0.0146 0.0013,0.0306 0.0084,0.046 0.0071,0.0154 0.0173,0.0265 0.02688,0.034 0.0094,0.007 0.01857,0.0118 0.02541,0.0144 0.01326,0.005 0.02513,0.006 0.03175,0.007 0.008,4.8e-4 0.01472,2.3e-4 0.02025,-1.9e-4 0.0114,-8.6e-4 0.02287,-0.003 0.03301,-0.005 0.01058,-0.002 0.02145,-0.005 0.03194,-0.008 0.01064,-0.003 0.02143,-0.007 0.03175,-0.0113 0.01027,-0.004 0.02114,-0.009 0.0314,-0.0151 0.171563,-0.0764 0.330904,-0.18634 0.46549,-0.31343 0.142581,-0.13464 0.258123,-0.28914 0.343259,-0.45261 0.09951,-0.19049 0.148813,-0.40571 0.142903,-0.60961 -0.0031,-0.10775 -0.02159,-0.21281 -0.05612,-0.31134 -0.03592,-0.10247 -0.08893,-0.19712 -0.159269,-0.28053 -0.08035,-0.096 -0.171133,-0.17478 -0.266266,-0.24005 -0.09933,-0.0682 -0.204608,-0.12239 -0.309897,-0.16652 -0.05268,-0.0221 -0.105747,-0.0418 -0.158518,-0.0595 -0.168353,-0.0565 -0.342275,-0.0957 -0.508727,-0.12727 -0.05078,-0.009 -0.104055,-0.0166 -0.158265,-0.02 -0.05829,-0.004 -0.115419,-0.003 -0.169792,0.006 -0.06292,0.009 -0.118298,0.0276 -0.166151,0.0546 -0.06693,0.0377 -0.108803,0.0867 -0.135389,0.12931 a 0.07474627,0.07474627 90 0 0 0.126804,0.0792 z"
       id="path-1-9"
       inkscape:path-effect="#path-effect354;#path-effect356"
       inkscape:original-d="m -15.987279,148.84778 c 0.151477,-0.24823 0.550657,-0.13906 0.771555,-0.0894 0.570373,0.12828 1.19477,0.4452 1.173742,1.11991 -0.01469,0.47142 -0.317737,0.87541 -0.69824,1.12754 -0.09696,0.0642 -0.167912,0.10205 -0.271616,0.13679 -0.01907,0.006 -0.07527,0.0189 -0.06005,0.006 0.12189,-0.10527 0.344584,-0.15275 0.496449,-0.16812 0.872925,-0.0884 1.166513,0.91137 1.133243,1.61038 -0.0071,0.15009 -0.06058,0.28407 -0.111718,0.42644 -0.183274,0.51025 -1.201921,1.24366 -1.740015,1.29702 -0.139156,0.0138 -0.242224,-0.0655 -0.335155,-0.15586"
       style="fill:#000000;fill-rule:nonzero;stroke:none" />
  </g>
</svg>
