<?xml version="1.0" encoding="UTF-8" standalone="no"?>
<!-- Created with Inkscape (http://www.inkscape.org/) -->

<svg
   width="4mm"
   height="10mm"
   viewBox="0 0 4.0000001 9.9999994"
   version="1.1"
   id="svg1681"
   inkscape:version="1.2.1 (9c6d41e410, 2022-07-14)"
   sodipodi:docname="upper_b_1.svg"
   inkscape:export-filename="..\..\..\..\Downloads\lower a diff canvas resize 3.0.png"
   inkscape:export-xdpi="96"
   inkscape:export-ydpi="96"
   xmlns:inkscape="http://www.inkscape.org/namespaces/inkscape"
   xmlns:sodipodi="http://sodipodi.sourceforge.net/DTD/sodipodi-0.dtd"
   xmlns="http://www.w3.org/2000/svg"
   xmlns:svg="http://www.w3.org/2000/svg"
   xmlns:rdf="http://www.w3.org/1999/02/22-rdf-syntax-ns#"
   xmlns:cc="http://creativecommons.org/ns#"
   xmlns:dc="http://purl.org/dc/elements/1.1/">
  <defs
     id="defs1675">
    <inkscape:path-effect
       effect="powerstroke"
       id="path-effect295"
       is_visible="true"
       lpeversion="1"
       offset_points="1.6170208,0.061423437 | 5.2175379,0.078379767"
       not_jump="true"
       sort_points="true"
       interpolator_type="CentripetalCatmullRom"
       interpolator_beta="0.75"
       start_linecap_type="round"
       linejoin_type="spiro"
       miter_limit="4"
       scale_width="1"
       end_linecap_type="round" />
    <inkscape:path-effect
       effect="simplify"
       id="path-effect293"
       is_visible="true"
       lpeversion="1"
       steps="1"
       threshold="0.0047745358"
       smooth_angles="0"
       helper_size="0"
       simplify_individual_paths="false"
       simplify_just_coalesce="false"
       step="1" />
    <inkscape:path-effect
       effect="powerstroke"
       id="path-effect288"
       is_visible="true"
       lpeversion="1"
       offset_points="0.66550702,0.053810392 | 2.1060275,0.062115532"
       not_jump="true"
       sort_points="true"
       interpolator_type="CentripetalCatmullRom"
       interpolator_beta="0.75"
       start_linecap_type="round"
       linejoin_type="spiro"
       miter_limit="4"
       scale_width="1"
       end_linecap_type="round" />
    <inkscape:path-effect
       effect="simplify"
       id="path-effect286"
       is_visible="true"
       lpeversion="1"
       steps="1"
       threshold="0.0047745358"
       smooth_angles="0"
       helper_size="0"
       simplify_individual_paths="false"
       simplify_just_coalesce="false"
       step="1" />
    <inkscape:path-effect
       effect="powerstroke"
       id="path-effect281"
       is_visible="true"
       lpeversion="1"
       offset_points="1.1610672,0.059866224 | 9.7940662,0.078033719"
       not_jump="true"
       sort_points="true"
       interpolator_type="CentripetalCatmullRom"
       interpolator_beta="0.75"
       start_linecap_type="round"
       linejoin_type="spiro"
       miter_limit="4"
       scale_width="1"
       end_linecap_type="round" />
    <inkscape:path-effect
       effect="simplify"
       id="path-effect279"
       is_visible="true"
       lpeversion="1"
       steps="1"
       threshold="0.0047745358"
       smooth_angles="0"
       helper_size="0"
       simplify_individual_paths="false"
       simplify_just_coalesce="false"
       step="1" />
    <inkscape:path-effect
       effect="powerstroke"
       id="path-effect274"
       is_visible="true"
       lpeversion="1"
       offset_points="0.41502429,0.056059701"
       not_jump="true"
       sort_points="true"
       interpolator_type="CentripetalCatmullRom"
       interpolator_beta="0.75"
       start_linecap_type="round"
       linejoin_type="spiro"
       miter_limit="4"
       scale_width="1"
       end_linecap_type="round" />
    <inkscape:path-effect
       effect="simplify"
       id="path-effect272"
       is_visible="true"
       lpeversion="1"
       steps="1"
       threshold="0.0047745358"
       smooth_angles="0"
       helper_size="0"
       simplify_individual_paths="false"
       simplify_just_coalesce="false"
       step="1" />
    <inkscape:path-effect
       effect="powerstroke"
       id="path-effect267"
       is_visible="true"
       lpeversion="1"
       offset_points="2.2075548,0.066268103 | 10.448475,0.081667218"
       not_jump="true"
       sort_points="true"
       interpolator_type="CentripetalCatmullRom"
       interpolator_beta="0.75"
       start_linecap_type="round"
       linejoin_type="spiro"
       miter_limit="4"
       scale_width="1"
       end_linecap_type="round" />
    <inkscape:path-effect
       effect="simplify"
       id="path-effect265"
       is_visible="true"
       lpeversion="1"
       steps="1"
       threshold="0.0047745358"
       smooth_angles="0"
       helper_size="0"
       simplify_individual_paths="false"
       simplify_just_coalesce="false"
       step="1" />
    <inkscape:path-effect
       effect="powerstroke"
       id="path-effect260"
       is_visible="true"
       lpeversion="1"
       offset_points="0.84407987,0.058482033"
       not_jump="true"
       sort_points="true"
       interpolator_type="CentripetalCatmullRom"
       interpolator_beta="0.75"
       start_linecap_type="round"
       linejoin_type="spiro"
       miter_limit="4"
       scale_width="1"
       end_linecap_type="round" />
    <inkscape:path-effect
       effect="simplify"
       id="path-effect258"
       is_visible="true"
       lpeversion="1"
       steps="1"
       threshold="0.0047745358"
       smooth_angles="0"
       helper_size="0"
       simplify_individual_paths="false"
       simplify_just_coalesce="false"
       step="1" />
    <inkscape:path-effect
       effect="powerstroke"
       id="path-effect1578"
       is_visible="true"
       lpeversion="1"
       offset_points="6.130227,0.16824281 | 12.54847,0.19349253 | 14.607739,0.1685086"
       not_jump="true"
       sort_points="true"
       interpolator_type="CentripetalCatmullRom"
       interpolator_beta="0.75"
       start_linecap_type="round"
       linejoin_type="spiro"
       miter_limit="4"
       scale_width="1"
       end_linecap_type="round" />
    <inkscape:path-effect
       effect="simplify"
       id="path-effect1576"
       is_visible="true"
       lpeversion="1"
       steps="1"
       threshold="0.0035951417"
       smooth_angles="0"
       helper_size="0"
       simplify_individual_paths="false"
       simplify_just_coalesce="false"
       step="1" />
    <inkscape:path-effect
       effect="powerstroke"
       id="path-effect502"
       is_visible="true"
       lpeversion="1"
       offset_points="3.0091841,0.21607495 | 7.3602657,0.17554228 | 9.4159651,0.20236537"
       not_jump="true"
       sort_points="true"
       interpolator_type="CentripetalCatmullRom"
       interpolator_beta="0.75"
       start_linecap_type="round"
       linejoin_type="spiro"
       miter_limit="4"
       scale_width="1"
       end_linecap_type="round" />
    <inkscape:path-effect
       effect="simplify"
       id="path-effect500"
       is_visible="true"
       lpeversion="1"
       steps="1"
       threshold="0.0035951417"
       smooth_angles="0"
       helper_size="0"
       simplify_individual_paths="false"
       simplify_just_coalesce="false"
       step="1" />
    <inkscape:path-effect
       effect="powerstroke"
       id="path-effect241"
       is_visible="true"
       lpeversion="1"
       offset_points="2.6879454,0.34086734"
       not_jump="true"
       sort_points="true"
       interpolator_type="CentripetalCatmullRom"
       interpolator_beta="0.75"
       start_linecap_type="round"
       linejoin_type="spiro"
       miter_limit="4"
       scale_width="1"
       end_linecap_type="round" />
    <inkscape:path-effect
       effect="simplify"
       id="path-effect239"
       is_visible="true"
       lpeversion="1"
       steps="1"
       threshold="0.0028332064"
       smooth_angles="0"
       helper_size="0"
       simplify_individual_paths="false"
       simplify_just_coalesce="false"
       step="1" />
    <inkscape:path-effect
       effect="powerstroke"
       id="path-effect234"
       is_visible="true"
       lpeversion="1"
       offset_points="2.13563,0.075169555"
       not_jump="true"
       sort_points="true"
       interpolator_type="CentripetalCatmullRom"
       interpolator_beta="0.75"
       start_linecap_type="round"
       linejoin_type="spiro"
       miter_limit="4"
       scale_width="1"
       end_linecap_type="round" />
    <inkscape:path-effect
       effect="simplify"
       id="path-effect232"
       is_visible="true"
       lpeversion="1"
       steps="1"
       threshold="0.0028332064"
       smooth_angles="0"
       helper_size="0"
       simplify_individual_paths="false"
       simplify_just_coalesce="false"
       step="1" />
    <inkscape:path-effect
       effect="powerstroke"
       id="path-effect227"
       is_visible="true"
       lpeversion="1"
       offset_points="2.1868266,0.075169555"
       not_jump="true"
       sort_points="true"
       interpolator_type="CentripetalCatmullRom"
       interpolator_beta="0.75"
       start_linecap_type="round"
       linejoin_type="spiro"
       miter_limit="4"
       scale_width="1"
       end_linecap_type="round" />
    <inkscape:path-effect
       effect="simplify"
       id="path-effect225"
       is_visible="true"
       lpeversion="1"
       steps="1"
       threshold="0.0028332064"
       smooth_angles="0"
       helper_size="0"
       simplify_individual_paths="false"
       simplify_just_coalesce="false"
       step="1" />
    <inkscape:path-effect
       effect="powerstroke"
       id="path-effect166"
       is_visible="true"
       lpeversion="1"
       offset_points="1.9637935,0.075169555"
       not_jump="true"
       sort_points="true"
       interpolator_type="CentripetalCatmullRom"
       interpolator_beta="0.75"
       start_linecap_type="round"
       linejoin_type="spiro"
       miter_limit="4"
       scale_width="1"
       end_linecap_type="round" />
    <inkscape:path-effect
       effect="simplify"
       id="path-effect164"
       is_visible="true"
       lpeversion="1"
       steps="1"
       threshold="0.0028332064"
       smooth_angles="0"
       helper_size="0"
       simplify_individual_paths="false"
       simplify_just_coalesce="false"
       step="1" />
    <inkscape:path-effect
       effect="powerstroke"
       id="path-effect159"
       is_visible="true"
       lpeversion="1"
       offset_points="2.2611036,0.075169555"
       not_jump="true"
       sort_points="true"
       interpolator_type="CentripetalCatmullRom"
       interpolator_beta="0.75"
       start_linecap_type="round"
       linejoin_type="spiro"
       miter_limit="4"
       scale_width="1"
       end_linecap_type="round" />
    <inkscape:path-effect
       effect="simplify"
       id="path-effect157"
       is_visible="true"
       lpeversion="1"
       steps="1"
       threshold="0.0028332064"
       smooth_angles="0"
       helper_size="0"
       simplify_individual_paths="false"
       simplify_just_coalesce="false"
       step="1" />
    <inkscape:path-effect
       effect="powerstroke"
       id="path-effect152"
       is_visible="true"
       lpeversion="1"
       offset_points="2.826981,0.075169555"
       not_jump="true"
       sort_points="true"
       interpolator_type="CentripetalCatmullRom"
       interpolator_beta="0.75"
       start_linecap_type="round"
       linejoin_type="spiro"
       miter_limit="4"
       scale_width="1"
       end_linecap_type="round" />
    <inkscape:path-effect
       effect="simplify"
       id="path-effect150"
       is_visible="true"
       lpeversion="1"
       steps="1"
       threshold="0.0028332064"
       smooth_angles="0"
       helper_size="0"
       simplify_individual_paths="false"
       simplify_just_coalesce="false"
       step="1" />
    <inkscape:path-effect
       effect="powerstroke"
       id="path-effect145"
       is_visible="true"
       lpeversion="1"
       offset_points="3.8374447,0.075169555"
       not_jump="true"
       sort_points="true"
       interpolator_type="CentripetalCatmullRom"
       interpolator_beta="0.75"
       start_linecap_type="round"
       linejoin_type="spiro"
       miter_limit="4"
       scale_width="1"
       end_linecap_type="round" />
    <inkscape:path-effect
       effect="simplify"
       id="path-effect143"
       is_visible="true"
       lpeversion="1"
       steps="1"
       threshold="0.0028332064"
       smooth_angles="0"
       helper_size="0"
       simplify_individual_paths="false"
       simplify_just_coalesce="false"
       step="1" />
    <inkscape:path-effect
       effect="powerstroke"
       id="path-effect138"
       is_visible="true"
       lpeversion="1"
       offset_points="2.6880907,0.075169555"
       not_jump="true"
       sort_points="true"
       interpolator_type="CentripetalCatmullRom"
       interpolator_beta="0.75"
       start_linecap_type="round"
       linejoin_type="spiro"
       miter_limit="4"
       scale_width="1"
       end_linecap_type="round" />
    <inkscape:path-effect
       effect="simplify"
       id="path-effect136"
       is_visible="true"
       lpeversion="1"
       steps="1"
       threshold="0.0028332064"
       smooth_angles="0"
       helper_size="0"
       simplify_individual_paths="false"
       simplify_just_coalesce="false"
       step="1" />
    <inkscape:path-effect
       effect="powerstroke"
       id="path-effect131"
       is_visible="true"
       lpeversion="1"
       offset_points="1.9940581,0.075169555"
       not_jump="true"
       sort_points="true"
       interpolator_type="CentripetalCatmullRom"
       interpolator_beta="0.75"
       start_linecap_type="round"
       linejoin_type="spiro"
       miter_limit="4"
       scale_width="1"
       end_linecap_type="round" />
    <inkscape:path-effect
       effect="simplify"
       id="path-effect129"
       is_visible="true"
       lpeversion="1"
       steps="1"
       threshold="0.0028332064"
       smooth_angles="0"
       helper_size="0"
       simplify_individual_paths="false"
       simplify_just_coalesce="false"
       step="1" />
  </defs>
  <sodipodi:namedview
     id="base"
     pagecolor="#ffffff"
     bordercolor="#666666"
     borderopacity="1.0"
     inkscape:pageopacity="0.0"
     inkscape:pageshadow="2"
     inkscape:zoom="22.4"
     inkscape:cx="3.4598214"
     inkscape:cy="17.008928"
     inkscape:document-units="mm"
     inkscape:current-layer="layer1"
     showgrid="false"
     fit-margin-top="0"
     fit-margin-left="0"
     fit-margin-right="0"
     fit-margin-bottom="0"
     inkscape:window-width="1920"
     inkscape:window-height="1057"
     inkscape:window-x="1072"
     inkscape:window-y="321"
     inkscape:window-maximized="1"
     showguides="true"
     inkscape:guide-bbox="true"
     inkscape:snap-bbox="true"
     inkscape:bbox-nodes="true"
     inkscape:snap-nodes="false"
     inkscape:snap-others="false"
     inkscape:snap-page="true"
     inkscape:snap-grids="false"
     inkscape:snap-to-guides="false"
     inkscape:snap-global="false"
     inkscape:pagecheckerboard="0"
     inkscape:showpageshadow="2"
     inkscape:deskcolor="#d1d1d1">
    <sodipodi:guide
       position="-6.1806075,9.4988692"
       orientation="0,1"
       id="guide816"
       inkscape:locked="false" />
    <sodipodi:guide
       position="-4.4101636,10.646923"
       orientation="0,1"
       id="guide818"
       inkscape:locked="false" />
    <sodipodi:guide
       position="2.7595724,11.09577"
       orientation="1,0"
       id="guide820"
       inkscape:locked="false" />
    <sodipodi:guide
       position="3.6572659,10.942217"
       orientation="1,0"
       id="guide822"
       inkscape:locked="false" />
    <sodipodi:guide
       position="-0.051625511,9.7492299"
       orientation="1,0"
       id="guide1853"
       inkscape:locked="false" />
    <sodipodi:guide
       position="-2.3720169,3.0175835"
       orientation="0,1"
       id="guide1855"
       inkscape:locked="false" />
  </sodipodi:namedview>
  <metadata
     id="metadata1678">
    <rdf:RDF>
      <cc:Work
         rdf:about="">
        <dc:format>image/svg+xml</dc:format>
        <dc:type
           rdf:resource="http://purl.org/dc/dcmitype/StillImage" />
      </cc:Work>
    </rdf:RDF>
  </metadata>
  <g
     inkscape:label="Layer 1"
     inkscape:groupmode="layer"
     id="layer1"
     transform="translate(17.028496,-147.22856)">
    <path
       d="m -16.165093,148.17999 c 0.01204,0.11686 0.02126,0.25848 0.02211,0.50185 1.94e-4,0.0559 -1.3e-5,0.11215 -2.76e-4,0.16788 -4.91e-4,0.10396 -0.0014,0.2249 7.95e-4,0.34134 -4.09e-4,0.0145 -8e-4,0.0395 -0.0013,0.069 -4.1e-4,0.0261 -8.96e-4,0.057 -0.0014,0.0791 -2.6e-4,0.0106 -5.47e-4,0.0198 -8.55e-4,0.0255 4.31e-4,-0.003 9.18e-4,-0.006 0.0019,-0.009 4.97e-4,-0.002 0.0014,-0.004 0.0029,-0.007 0.0012,-0.003 0.0042,-0.009 0.0098,-0.015 0.003,-0.003 0.0075,-0.008 0.01394,-0.0115 0.0066,-0.004 0.01534,-0.007 0.02579,-0.008 0.01059,-9.3e-4 0.0204,9.9e-4 0.02867,0.004 0.0079,0.003 0.01374,0.008 0.01763,0.0113 0.0039,0.004 0.0067,0.007 0.0085,0.01 0.0019,0.003 0.0032,0.005 0.0042,0.007 0.0018,0.004 0.003,0.006 0.0036,0.008 0.0012,0.003 0.0018,0.006 0.0021,0.007 0.0014,0.003 0.0014,-0.001 0.0014,-0.006 -4.3e-5,-0.0101 -1.65e-4,-0.0259 -3.77e-4,-0.0485 -2.23e-4,-0.0146 -4.14e-4,-0.0299 -5.96e-4,-0.0462 -6.73e-4,-0.0608 -0.0012,-0.13644 -0.0018,-0.19724 -4.37e-4,-0.04 -0.001,-0.0819 -0.0019,-0.11845 -4.2e-4,-0.0174 -9.18e-4,-0.034 -0.0015,-0.049 -5.82e-4,-0.0145 -0.0013,-0.0279 -0.0021,-0.0393 -7.78e-4,-0.0104 -0.0016,-0.0208 -0.0037,-0.0309 -0.0021,-0.0102 -0.0056,-0.0201 -0.01109,-0.029 -0.0055,-0.009 -0.01296,-0.0165 -0.02195,-0.0217 -0.009,-0.005 -0.01946,-0.008 -0.02984,-0.008 -0.01039,4e-4 -0.02061,0.004 -0.02919,0.01 -0.0086,0.006 -0.01546,0.0141 -0.02026,0.0233 -0.0048,0.009 -0.0075,0.0194 -0.0089,0.0297 -0.0014,0.0103 -0.0014,0.0207 -0.0014,0.0311 -8.11e-4,0.67709 -8.3e-5,1.42059 0.03599,2.15397 0.02956,0.59685 0.02277,1.20589 0.01559,1.73903 -0.0037,0.71227 0.0269,1.12606 0.08327,1.49486 a 0.06211553,0.06211553 90 0 0 0.122804,-0.0188 c -0.05504,-0.36009 -0.08503,-0.76781 -0.0807,-1.47485 0.0076,-0.53231 0.01492,-1.14507 -0.01461,-1.74647 -0.03563,-0.72976 -0.0363,-1.4703 -0.03575,-2.14764 l -0.126406,0.005 c 7.32e-4,0.009 0.0014,0.0211 0.002,0.0349 6.14e-4,0.0141 0.0011,0.03 0.0016,0.047 9.94e-4,0.0357 0.0017,0.077 0.0024,0.11687 0.0013,0.081 0.002,0.13791 0.0034,0.1977 3.92e-4,0.0166 8.22e-4,0.0322 0.0013,0.0466 5.18e-4,0.0223 9.9e-4,0.0381 0.0014,0.0488 2.21e-4,0.005 4.3e-4,0.01 6.38e-4,0.0127 1.05e-4,0.002 2.09e-4,0.003 3.28e-4,0.004 3.39e-4,0.004 7.65e-4,0.008 0.0016,0.0113 2.54e-4,0.001 8.85e-4,0.004 0.0021,0.007 6.09e-4,0.002 0.0017,0.005 0.0036,0.008 9.51e-4,0.002 0.0023,0.004 0.0042,0.007 0.0018,0.003 0.0046,0.006 0.0085,0.01 0.0039,0.004 0.0097,0.008 0.01764,0.0113 0.0083,0.003 0.01809,0.005 0.02868,0.004 0.01045,-9.2e-4 0.01917,-0.004 0.0258,-0.008 0.0064,-0.004 0.01097,-0.008 0.01394,-0.0115 0.0056,-0.006 0.0086,-0.0123 0.0099,-0.015 0.0015,-0.003 0.0024,-0.006 0.0029,-0.008 9.93e-4,-0.003 0.0015,-0.006 0.0017,-0.007 4.18e-4,-0.002 7.54e-4,-0.005 8.4e-4,-0.007 8.6e-5,-0.002 -9e-6,-0.005 -8.3e-5,-0.007 -4.8e-5,-0.002 -9e-5,-0.003 -1.38e-4,-0.004 -2.19e-4,-0.007 -4.51e-4,-0.0153 -7.53e-4,-0.0267 -0.0018,-0.0667 -3.38e-4,-0.0129 -0.0021,-0.0796 -8.24e-4,-0.0295 -0.0016,-0.0548 -0.0023,-0.0702 -0.0037,-0.11636 -0.0041,-0.23399 -0.0042,-0.33915 -5.3e-5,-0.0558 -2.8e-5,-0.11211 -3.2e-4,-0.16855 -0.0013,-0.24657 -0.0095,-0.39079 -0.02208,-0.51242 a 0.05381039,0.05381039 90 0 0 -0.107054,0.011 z"
       id="path-1"
       inkscape:path-effect="#path-effect286;#path-effect288"
       inkscape:original-d="m -16.111566,148.17447 c 0.01797,0.19739 0.0177,0.15392 0.01955,0.3763 0.02017,2.42179 -0.01759,-1.44147 -0.0014,1.36896 0.004,0.6858 0.05676,1.36931 0.05446,2.05562 -0.0025,0.75321 -0.03954,1.51623 0.07471,2.2638"
       style="fill:#000000;fill-rule:nonzero;stroke:none" />
    <path
       d="m -16.124134,148.06903 c -0.01244,-0.001 -0.02566,-0.003 -0.03727,-0.003 -0.0047,-2e-5 -0.01003,1.3e-4 -0.01537,7.1e-4 -0.0025,2.7e-4 -0.0056,7e-4 -0.009,0.001 -0.003,6.4e-4 -0.0078,0.002 -0.01326,0.004 -0.0027,0.001 -0.0064,0.003 -0.01039,0.006 -0.0038,0.003 -0.0091,0.007 -0.01409,0.0128 -0.0051,0.006 -0.01021,0.0151 -0.01257,0.0264 -0.0024,0.0114 -0.0013,0.0225 0.0019,0.0321 0.003,0.009 0.0075,0.0157 0.01122,0.0202 0.0037,0.004 0.0074,0.008 0.01026,0.01 0.0054,0.004 0.01049,0.007 0.01363,0.008 0.0033,0.001 0.0064,0.003 0.009,0.003 0.0026,7.7e-4 0.005,0.001 0.0073,0.002 0.0044,9.6e-4 0.009,0.002 0.0136,0.002 0.0086,8.6e-4 0.01876,0.001 0.0297,1.1e-4 0.01039,-9e-4 0.02238,-0.003 0.03491,-0.007 0.01207,-0.004 0.02532,-0.01 0.03817,-0.0186 0.0094,-0.007 0.01846,-0.0146 0.02654,-0.0246 0.02904,-0.0198 0.06024,-0.0342 0.09341,-0.0439 0.03556,-0.0104 0.07322,-0.0154 0.112388,-0.0159 0.01838,-2.5e-4 0.03696,4.9e-4 0.05566,0.002 0.05975,0.005 0.121959,0.0189 0.185253,0.0384 0.251424,0.0726 0.514382,0.16749 0.764402,0.29614 0.234286,0.12056 0.4613,0.27286 0.658261,0.46879 0.09889,0.0986 0.184321,0.21868 0.239878,0.35211 0.05303,0.12735 0.07866,0.26654 0.06173,0.4087 -0.01112,0.11497 -0.0391,0.2247 -0.08143,0.3305 -0.04164,0.10408 -0.09708,0.20414 -0.163518,0.29986 -0.130256,0.18765 -0.300883,0.3558 -0.485424,0.50113 -0.03842,0.0276 -0.0793,0.0577 -0.120459,0.0871 -0.05052,0.0361 -0.104648,0.0736 -0.160392,0.10734 -0.08805,0.0533 -0.183909,0.0997 -0.288624,0.12182 -0.0074,-2e-5 -0.01348,-2e-4 -0.0184,-5e-4 -0.0063,-3.9e-4 -0.01031,-0.001 -0.01104,-0.001 0.0032,9.2e-4 0.0065,0.002 0.01068,0.004 0.0041,0.002 0.01079,0.007 0.01748,0.014 0.007,0.008 0.01383,0.0189 0.017,0.0331 0.0032,0.0141 0.0018,0.0269 -0.0012,0.0369 -0.0028,0.009 -0.0069,0.0162 -0.0096,0.0201 -0.0028,0.004 -0.0054,0.007 -0.0067,0.008 -0.003,0.003 -0.0014,0.001 0.0015,-1.7e-4 0.0029,-0.002 0.0068,-0.004 0.01171,-0.006 0.0098,-0.005 0.02206,-0.01 0.03603,-0.0151 0.01368,-0.005 0.02833,-0.0104 0.04278,-0.0152 0.01428,-0.005 0.02804,-0.009 0.04001,-0.0124 0.0059,-0.002 0.01131,-0.003 0.01599,-0.004 0.0047,-0.001 0.0084,-0.002 0.01112,-0.003 0.120548,-0.0416 0.241306,-0.0554 0.360587,-0.0418 0.116883,0.0133 0.230837,0.0527 0.330458,0.11864 0.126526,0.0815 0.237853,0.18697 0.327115,0.30848 0.08998,0.1225 0.156417,0.25977 0.193468,0.40293 0.021,0.12809 0.02371,0.26397 0.0066,0.39456 -0.0178,0.13575 -0.05677,0.26405 -0.115704,0.38041 -0.107748,0.21838 -0.25004,0.41017 -0.410854,0.56991 -0.176363,0.17519 -0.372607,0.30976 -0.572336,0.40481 -0.441363,0.18895 -0.87277,0.16147 -1.140243,0.11411 a 0.07837977,0.07837977 90 0 0 -0.02733,0.15436 c 0.271343,0.048 0.749855,0.0813 1.232416,-0.12478 0.218521,-0.10369 0.429637,-0.24833 0.619019,-0.43612 0.172647,-0.17119 0.325704,-0.37699 0.441466,-0.61113 0.06729,-0.13237 0.111519,-0.27807 0.131737,-0.43072 0.01944,-0.14676 0.01646,-0.2985 -0.0083,-0.44851 -0.04373,-0.17088 -0.119245,-0.32664 -0.220561,-0.46476 -0.100487,-0.13698 -0.226028,-0.25614 -0.368563,-0.34806 -0.121227,-0.0803 -0.259649,-0.12788 -0.400172,-0.14385 -0.143341,-0.0163 -0.288482,2.8e-4 -0.422477,0.0473 0.004,-0.001 -0.002,-1e-5 -0.0081,0.002 -0.0062,0.002 -0.01291,0.003 -0.01993,0.006 -0.01413,0.004 -0.02992,0.009 -0.04609,0.0144 -0.01635,0.005 -0.03331,0.0115 -0.04962,0.0178 -0.01639,0.006 -0.03269,0.0131 -0.04735,0.0202 -0.0074,0.004 -0.01481,0.007 -0.02182,0.0113 -0.0069,0.004 -0.0144,0.009 -0.02154,0.014 -0.0036,0.003 -0.0077,0.006 -0.01169,0.01 -0.004,0.004 -0.0087,0.009 -0.01315,0.0152 -0.0044,0.006 -0.0097,0.0153 -0.01313,0.027 -0.0036,0.0122 -0.0051,0.0271 -0.0015,0.0432 0.0036,0.0162 0.01145,0.0292 0.02011,0.0388 0.0083,0.009 0.01727,0.0153 0.02427,0.0191 0.0071,0.004 0.01395,0.007 0.01961,0.008 0.0058,0.002 0.01142,0.003 0.01661,0.004 0.01029,0.002 0.02119,0.003 0.03204,0.004 0.01115,6.2e-4 0.0235,7.9e-4 0.03692,5.9e-4 0.0049,-7e-5 0.0098,-5.8e-4 0.01464,-0.002 0.132911,-0.0269 0.248962,-0.0848 0.346746,-0.14464 0.06079,-0.0372 0.118529,-0.0777 0.169935,-0.11506 0.04216,-0.0306 0.08297,-0.0611 0.122812,-0.0904 0.195084,-0.15487 0.376616,-0.33468 0.516542,-0.53879 0.07153,-0.10433 0.132031,-0.21478 0.177641,-0.331 0.04641,-0.11826 0.07719,-0.24195 0.08871,-0.37057 0.01834,-0.17 -0.01503,-0.33395 -0.07767,-0.47919 -0.06551,-0.15191 -0.163863,-0.28566 -0.27499,-0.39359 -0.210283,-0.20627 -0.450441,-0.36439 -0.694499,-0.48796 -0.260399,-0.13185 -0.532181,-0.22781 -0.788445,-0.30045 -0.06859,-0.0199 -0.139779,-0.0351 -0.210656,-0.0405 -0.02228,-0.002 -0.04485,-0.002 -0.06754,-0.002 -0.04833,9.8e-4 -0.09706,0.007 -0.144709,0.0215 -0.04849,0.0144 -0.09472,0.0364 -0.137579,0.0674 -0.0017,0.001 -0.0034,0.003 -0.0048,0.004 -0.0014,0.002 -0.0026,0.003 -0.0038,0.005 -0.0012,0.002 -0.0024,0.003 -0.0038,0.005 -0.0014,0.002 -0.0031,0.003 -0.0049,0.004 -0.0011,7.2e-4 -0.0028,0.002 -0.0053,0.002 -0.0027,8.1e-4 -0.0057,0.001 -0.0087,0.002 -0.0032,2.3e-4 -0.0057,8e-5 -0.0069,-9e-5 0.0033,8.4e-4 0.005,0.001 0.0073,0.002 0.002,8.9e-4 0.0062,0.003 0.01097,0.007 0.0025,0.002 0.006,0.005 0.0095,0.009 0.0035,0.004 0.0079,0.0107 0.01079,0.0194 0.0031,0.009 0.0041,0.0202 0.0018,0.0314 -0.0023,0.0111 -0.0073,0.0197 -0.01222,0.0257 -0.0048,0.006 -0.0098,0.01 -0.01333,0.0121 -0.0037,0.002 -0.0069,0.004 -0.0092,0.005 -0.0045,0.002 -0.0081,0.003 -0.0096,0.003 -0.0043,6.9e-4 -0.0037,6.2e-4 -0.0017,6.5e-4 0.0053,9e-5 0.01348,6.9e-4 0.02419,0.002 a 0.06142344,0.06142344 90 0 0 0.01397,-0.12206 z"
       id="path-1-7"
       inkscape:path-effect="#path-effect293;#path-effect295"
       inkscape:original-d="m -16.131117,148.13006 c -0.01699,-10e-4 -0.04979,-0.0205 -0.05097,-0.004 -0.0046,0.066 0.09281,-0.0461 0.244384,-0.0905 0.158514,-0.0464 0.417473,0.0458 0.562083,0.0913 0.560928,0.17651 1.472852,0.63963 1.571739,1.29566 0.08597,0.57037 -0.324235,1.0915 -0.747117,1.42155 -0.116348,0.0908 -0.547926,0.40898 -0.69824,0.32099 -0.0038,-0.002 0.03941,-0.0285 0.171767,-0.0706 0.129633,-0.0412 0.267205,-0.0739 0.404281,-0.0629 0.433435,0.0345 0.791667,0.42462 0.929358,0.81336 0.03747,0.10579 0.03665,0.22339 0.0405,0.33271 0.02389,0.67978 -0.680572,1.44538 -1.30152,1.64662 -0.314346,0.10187 -0.715092,0.12655 -1.041076,0.0629"
       style="fill:#000000;fill-rule:nonzero;stroke:none" />
  </g>
</svg>
