<?xml version="1.0" encoding="UTF-8" standalone="no"?>
<!-- Created with Inkscape (http://www.inkscape.org/) -->

<svg
   width="3mm"
   height="10mm"
   viewBox="0 0 3.0000001 9.9999994"
   version="1.1"
   id="svg1681"
   inkscape:version="1.2.1 (9c6d41e410, 2022-07-14)"
   sodipodi:docname="lower_q_1.svg"
   inkscape:export-filename="..\..\..\..\Downloads\lower a diff canvas resize 3.0.png"
   inkscape:export-xdpi="96"
   inkscape:export-ydpi="96"
   xmlns:inkscape="http://www.inkscape.org/namespaces/inkscape"
   xmlns:sodipodi="http://sodipodi.sourceforge.net/DTD/sodipodi-0.dtd"
   xmlns="http://www.w3.org/2000/svg"
   xmlns:svg="http://www.w3.org/2000/svg"
   xmlns:rdf="http://www.w3.org/1999/02/22-rdf-syntax-ns#"
   xmlns:cc="http://creativecommons.org/ns#"
   xmlns:dc="http://purl.org/dc/elements/1.1/">
  <defs
     id="defs1675">
    <inkscape:path-effect
       effect="powerstroke"
       id="path-effect578"
       is_visible="true"
       lpeversion="1"
       offset_points="1.4467219,0.10693065 | 8.6757496,0.12112282"
       not_jump="true"
       sort_points="true"
       interpolator_type="CentripetalCatmullRom"
       interpolator_beta="0.75"
       start_linecap_type="round"
       linejoin_type="spiro"
       miter_limit="4"
       scale_width="1"
       end_linecap_type="round" />
    <inkscape:path-effect
       effect="simplify"
       id="path-effect576"
       is_visible="true"
       lpeversion="1"
       steps="1"
       threshold="0.0047745358"
       smooth_angles="0"
       helper_size="0"
       simplify_individual_paths="false"
       simplify_just_coalesce="false"
       step="1" />
    <inkscape:path-effect
       effect="powerstroke"
       id="path-effect503"
       is_visible="true"
       lpeversion="1"
       offset_points="2.2802387,0.096408869 | 7.6064595,0.11378204"
       not_jump="true"
       sort_points="true"
       interpolator_type="CentripetalCatmullRom"
       interpolator_beta="0.75"
       start_linecap_type="round"
       linejoin_type="spiro"
       miter_limit="4"
       scale_width="1"
       end_linecap_type="round" />
    <inkscape:path-effect
       effect="simplify"
       id="path-effect501"
       is_visible="true"
       lpeversion="1"
       steps="1"
       threshold="0.0047745358"
       smooth_angles="0"
       helper_size="0"
       simplify_individual_paths="false"
       simplify_just_coalesce="false"
       step="1" />
    <inkscape:path-effect
       effect="powerstroke"
       id="path-effect495"
       is_visible="true"
       lpeversion="1"
       offset_points="1.9560338,0.1052178"
       not_jump="true"
       sort_points="true"
       interpolator_type="CentripetalCatmullRom"
       interpolator_beta="0.75"
       start_linecap_type="round"
       linejoin_type="spiro"
       miter_limit="4"
       scale_width="1"
       end_linecap_type="round" />
    <inkscape:path-effect
       effect="simplify"
       id="path-effect493"
       is_visible="true"
       lpeversion="1"
       steps="1"
       threshold="0.0047745358"
       smooth_angles="0"
       helper_size="0"
       simplify_individual_paths="false"
       simplify_just_coalesce="false"
       step="1" />
    <inkscape:path-effect
       effect="powerstroke"
       id="path-effect488"
       is_visible="true"
       lpeversion="1"
       offset_points="1.5146307,0.12136751 | 8.9192709,0.13580437"
       not_jump="true"
       sort_points="true"
       interpolator_type="CentripetalCatmullRom"
       interpolator_beta="0.75"
       start_linecap_type="round"
       linejoin_type="spiro"
       miter_limit="4"
       scale_width="1"
       end_linecap_type="round" />
    <inkscape:path-effect
       effect="simplify"
       id="path-effect486"
       is_visible="true"
       lpeversion="1"
       steps="1"
       threshold="0.0047745358"
       smooth_angles="0"
       helper_size="0"
       simplify_individual_paths="false"
       simplify_just_coalesce="false"
       step="1" />
    <inkscape:path-effect
       effect="powerstroke"
       id="path-effect2676"
       is_visible="true"
       lpeversion="1"
       offset_points="2.9741161,0.15507441 | 5.0809583,0.12467195 | 8.2746354,0.16054247"
       not_jump="true"
       sort_points="true"
       interpolator_type="CentripetalCatmullRom"
       interpolator_beta="0.75"
       start_linecap_type="round"
       linejoin_type="spiro"
       miter_limit="4"
       scale_width="1"
       end_linecap_type="round" />
    <inkscape:path-effect
       effect="simplify"
       id="path-effect2674"
       is_visible="true"
       lpeversion="1"
       steps="1"
       threshold="0.0035951417"
       smooth_angles="0"
       helper_size="0"
       simplify_individual_paths="false"
       simplify_just_coalesce="false"
       step="1" />
    <inkscape:path-effect
       effect="powerstroke"
       id="path-effect2669"
       is_visible="true"
       lpeversion="1"
       offset_points="1.9997838,0.086474349 | 3.6799468,0.071939612 | 9.7724461,0.098219592"
       not_jump="true"
       sort_points="true"
       interpolator_type="CentripetalCatmullRom"
       interpolator_beta="0.75"
       start_linecap_type="round"
       linejoin_type="spiro"
       miter_limit="4"
       scale_width="1"
       end_linecap_type="round" />
    <inkscape:path-effect
       effect="simplify"
       id="path-effect2667"
       is_visible="true"
       lpeversion="1"
       steps="1"
       threshold="0.0035951417"
       smooth_angles="0"
       helper_size="0"
       simplify_individual_paths="false"
       simplify_just_coalesce="false"
       step="1" />
    <inkscape:path-effect
       effect="powerstroke"
       id="path-effect502"
       is_visible="true"
       lpeversion="1"
       offset_points="3.0091841,0.21607495 | 7.3602657,0.17554228 | 9.4159651,0.20236537"
       not_jump="true"
       sort_points="true"
       interpolator_type="CentripetalCatmullRom"
       interpolator_beta="0.75"
       start_linecap_type="round"
       linejoin_type="spiro"
       miter_limit="4"
       scale_width="1"
       end_linecap_type="round" />
    <inkscape:path-effect
       effect="simplify"
       id="path-effect500"
       is_visible="true"
       lpeversion="1"
       steps="1"
       threshold="0.0035951417"
       smooth_angles="0"
       helper_size="0"
       simplify_individual_paths="false"
       simplify_just_coalesce="false"
       step="1" />
    <inkscape:path-effect
       effect="powerstroke"
       id="path-effect241"
       is_visible="true"
       lpeversion="1"
       offset_points="2.6879454,0.34086734"
       not_jump="true"
       sort_points="true"
       interpolator_type="CentripetalCatmullRom"
       interpolator_beta="0.75"
       start_linecap_type="round"
       linejoin_type="spiro"
       miter_limit="4"
       scale_width="1"
       end_linecap_type="round" />
    <inkscape:path-effect
       effect="simplify"
       id="path-effect239"
       is_visible="true"
       lpeversion="1"
       steps="1"
       threshold="0.0028332064"
       smooth_angles="0"
       helper_size="0"
       simplify_individual_paths="false"
       simplify_just_coalesce="false"
       step="1" />
    <inkscape:path-effect
       effect="powerstroke"
       id="path-effect234"
       is_visible="true"
       lpeversion="1"
       offset_points="2.13563,0.075169555"
       not_jump="true"
       sort_points="true"
       interpolator_type="CentripetalCatmullRom"
       interpolator_beta="0.75"
       start_linecap_type="round"
       linejoin_type="spiro"
       miter_limit="4"
       scale_width="1"
       end_linecap_type="round" />
    <inkscape:path-effect
       effect="simplify"
       id="path-effect232"
       is_visible="true"
       lpeversion="1"
       steps="1"
       threshold="0.0028332064"
       smooth_angles="0"
       helper_size="0"
       simplify_individual_paths="false"
       simplify_just_coalesce="false"
       step="1" />
    <inkscape:path-effect
       effect="powerstroke"
       id="path-effect227"
       is_visible="true"
       lpeversion="1"
       offset_points="2.1868266,0.075169555"
       not_jump="true"
       sort_points="true"
       interpolator_type="CentripetalCatmullRom"
       interpolator_beta="0.75"
       start_linecap_type="round"
       linejoin_type="spiro"
       miter_limit="4"
       scale_width="1"
       end_linecap_type="round" />
    <inkscape:path-effect
       effect="simplify"
       id="path-effect225"
       is_visible="true"
       lpeversion="1"
       steps="1"
       threshold="0.0028332064"
       smooth_angles="0"
       helper_size="0"
       simplify_individual_paths="false"
       simplify_just_coalesce="false"
       step="1" />
    <inkscape:path-effect
       effect="powerstroke"
       id="path-effect166"
       is_visible="true"
       lpeversion="1"
       offset_points="1.9637935,0.075169555"
       not_jump="true"
       sort_points="true"
       interpolator_type="CentripetalCatmullRom"
       interpolator_beta="0.75"
       start_linecap_type="round"
       linejoin_type="spiro"
       miter_limit="4"
       scale_width="1"
       end_linecap_type="round" />
    <inkscape:path-effect
       effect="simplify"
       id="path-effect164"
       is_visible="true"
       lpeversion="1"
       steps="1"
       threshold="0.0028332064"
       smooth_angles="0"
       helper_size="0"
       simplify_individual_paths="false"
       simplify_just_coalesce="false"
       step="1" />
    <inkscape:path-effect
       effect="powerstroke"
       id="path-effect159"
       is_visible="true"
       lpeversion="1"
       offset_points="2.2611036,0.075169555"
       not_jump="true"
       sort_points="true"
       interpolator_type="CentripetalCatmullRom"
       interpolator_beta="0.75"
       start_linecap_type="round"
       linejoin_type="spiro"
       miter_limit="4"
       scale_width="1"
       end_linecap_type="round" />
    <inkscape:path-effect
       effect="simplify"
       id="path-effect157"
       is_visible="true"
       lpeversion="1"
       steps="1"
       threshold="0.0028332064"
       smooth_angles="0"
       helper_size="0"
       simplify_individual_paths="false"
       simplify_just_coalesce="false"
       step="1" />
    <inkscape:path-effect
       effect="powerstroke"
       id="path-effect152"
       is_visible="true"
       lpeversion="1"
       offset_points="2.826981,0.075169555"
       not_jump="true"
       sort_points="true"
       interpolator_type="CentripetalCatmullRom"
       interpolator_beta="0.75"
       start_linecap_type="round"
       linejoin_type="spiro"
       miter_limit="4"
       scale_width="1"
       end_linecap_type="round" />
    <inkscape:path-effect
       effect="simplify"
       id="path-effect150"
       is_visible="true"
       lpeversion="1"
       steps="1"
       threshold="0.0028332064"
       smooth_angles="0"
       helper_size="0"
       simplify_individual_paths="false"
       simplify_just_coalesce="false"
       step="1" />
    <inkscape:path-effect
       effect="powerstroke"
       id="path-effect145"
       is_visible="true"
       lpeversion="1"
       offset_points="3.8374447,0.075169555"
       not_jump="true"
       sort_points="true"
       interpolator_type="CentripetalCatmullRom"
       interpolator_beta="0.75"
       start_linecap_type="round"
       linejoin_type="spiro"
       miter_limit="4"
       scale_width="1"
       end_linecap_type="round" />
    <inkscape:path-effect
       effect="simplify"
       id="path-effect143"
       is_visible="true"
       lpeversion="1"
       steps="1"
       threshold="0.0028332064"
       smooth_angles="0"
       helper_size="0"
       simplify_individual_paths="false"
       simplify_just_coalesce="false"
       step="1" />
    <inkscape:path-effect
       effect="powerstroke"
       id="path-effect138"
       is_visible="true"
       lpeversion="1"
       offset_points="2.6880907,0.075169555"
       not_jump="true"
       sort_points="true"
       interpolator_type="CentripetalCatmullRom"
       interpolator_beta="0.75"
       start_linecap_type="round"
       linejoin_type="spiro"
       miter_limit="4"
       scale_width="1"
       end_linecap_type="round" />
    <inkscape:path-effect
       effect="simplify"
       id="path-effect136"
       is_visible="true"
       lpeversion="1"
       steps="1"
       threshold="0.0028332064"
       smooth_angles="0"
       helper_size="0"
       simplify_individual_paths="false"
       simplify_just_coalesce="false"
       step="1" />
    <inkscape:path-effect
       effect="powerstroke"
       id="path-effect131"
       is_visible="true"
       lpeversion="1"
       offset_points="1.9940581,0.075169555"
       not_jump="true"
       sort_points="true"
       interpolator_type="CentripetalCatmullRom"
       interpolator_beta="0.75"
       start_linecap_type="round"
       linejoin_type="spiro"
       miter_limit="4"
       scale_width="1"
       end_linecap_type="round" />
    <inkscape:path-effect
       effect="simplify"
       id="path-effect129"
       is_visible="true"
       lpeversion="1"
       steps="1"
       threshold="0.0028332064"
       smooth_angles="0"
       helper_size="0"
       simplify_individual_paths="false"
       simplify_just_coalesce="false"
       step="1" />
  </defs>
  <sodipodi:namedview
     id="base"
     pagecolor="#ffffff"
     bordercolor="#666666"
     borderopacity="1.0"
     inkscape:pageopacity="0.0"
     inkscape:pageshadow="2"
     inkscape:zoom="15.839192"
     inkscape:cx="0.1894036"
     inkscape:cy="18.687822"
     inkscape:document-units="mm"
     inkscape:current-layer="layer1"
     showgrid="false"
     fit-margin-top="0"
     fit-margin-left="0"
     fit-margin-right="0"
     fit-margin-bottom="0"
     inkscape:window-width="1920"
     inkscape:window-height="1057"
     inkscape:window-x="1072"
     inkscape:window-y="321"
     inkscape:window-maximized="1"
     showguides="true"
     inkscape:guide-bbox="true"
     inkscape:snap-bbox="true"
     inkscape:bbox-nodes="true"
     inkscape:snap-nodes="false"
     inkscape:snap-others="false"
     inkscape:snap-page="true"
     inkscape:snap-grids="false"
     inkscape:snap-to-guides="false"
     inkscape:snap-global="false"
     inkscape:pagecheckerboard="0"
     inkscape:showpageshadow="2"
     inkscape:deskcolor="#d1d1d1">
    <sodipodi:guide
       position="-6.1806076,9.4988693"
       orientation="0,1"
       id="guide816"
       inkscape:locked="false" />
    <sodipodi:guide
       position="-4.4101636,10.646923"
       orientation="0,1"
       id="guide818"
       inkscape:locked="false" />
    <sodipodi:guide
       position="2.7595724,11.09577"
       orientation="1,0"
       id="guide820"
       inkscape:locked="false" />
    <sodipodi:guide
       position="3.6572659,10.942217"
       orientation="1,0"
       id="guide822"
       inkscape:locked="false" />
    <sodipodi:guide
       position="-0.051625511,9.74923"
       orientation="1,0"
       id="guide1853"
       inkscape:locked="false" />
    <sodipodi:guide
       position="-2.3720169,3.0175835"
       orientation="0,1"
       id="guide1855"
       inkscape:locked="false" />
    <sodipodi:guide
       position="2.0379301,7.126852"
       orientation="0,-1"
       id="guide573"
       inkscape:locked="false" />
  </sodipodi:namedview>
  <metadata
     id="metadata1678">
    <rdf:RDF>
      <cc:Work
         rdf:about="">
        <dc:format>image/svg+xml</dc:format>
        <dc:type
           rdf:resource="http://purl.org/dc/dcmitype/StillImage" />
      </cc:Work>
    </rdf:RDF>
  </metadata>
  <g
     inkscape:label="Layer 1"
     inkscape:groupmode="layer"
     id="layer1"
     transform="translate(17.028496,-147.22856)">
    <path
       d="m -15.401149,150.5962 c -0.04981,-0.0305 -0.118613,-0.0632 -0.206649,-0.0816 -0.06399,-0.0134 -0.136807,-0.019 -0.216061,-0.0112 -0.125819,0.0123 -0.269263,0.0592 -0.396168,0.15693 -0.152946,0.11467 -0.286407,0.26375 -0.39605,0.44229 -0.01215,0.0198 -0.02412,0.0401 -0.03588,0.061 -0.09731,0.17275 -0.178151,0.37944 -0.229477,0.61433 -0.02829,0.13495 -0.04579,0.2964 -0.026,0.46052 0.0092,0.0761 0.02655,0.15428 0.05567,0.23104 0.02796,0.0737 0.06692,0.14645 0.119948,0.21432 0.0043,0.006 0.0092,0.0106 0.01456,0.0153 0.05363,0.0466 0.114402,0.0775 0.178929,0.0951 0.06217,0.017 0.126108,0.0212 0.188626,0.0171 0.06095,-0.004 0.121261,-0.0162 0.178543,-0.0328 0.05618,-0.0163 0.110038,-0.0372 0.159369,-0.0597 0.340298,-0.16382 0.642492,-0.42785 0.851172,-0.7606 0.04629,-0.081 0.07737,-0.16066 0.100014,-0.24109 0.02254,-0.08 0.03678,-0.16093 0.04692,-0.24044 0.01898,-0.14878 0.0241,-0.30819 0.04308,-0.45696 8e-4,-0.006 9.53e-4,-0.0127 7.79e-4,-0.0191 -4.12e-4,-0.0152 5.19e-4,-0.0332 0.0017,-0.0617 0.0011,-0.0258 0.0021,-0.0579 1.47e-4,-0.09 -0.001,-0.0164 -0.0029,-0.034 -0.0063,-0.0519 -0.0034,-0.0179 -0.0086,-0.0372 -0.0167,-0.0565 -0.0082,-0.0196 -0.01965,-0.0398 -0.03581,-0.0587 -0.01651,-0.0192 -0.03686,-0.0357 -0.06099,-0.048 -0.01766,-0.009 -0.03574,-0.0179 -0.05526,-0.0214 -0.01952,-0.004 -0.04023,-0.001 -0.05795,0.008 -0.01772,0.009 -0.03182,0.0242 -0.04074,0.0419 -0.0089,0.0177 -0.01278,0.0375 -0.01628,0.057 -0.05024,0.28018 -0.06414,0.60013 -0.08482,0.84158 -0.02449,0.4373 -0.07262,0.9155 -0.106167,1.31754 -0.01321,0.15832 -0.025,0.31253 -0.0345,0.46577 -0.01756,0.28307 -0.02797,0.57308 -0.02223,0.86633 0.01223,0.5772 0.102392,1.18093 0.356295,1.73051 0.01567,0.032 0.0344,0.0676 0.05725,0.10291 0.02277,0.0352 0.05159,0.0733 0.087,0.10554 0.0181,0.0165 0.03883,0.0322 0.06234,0.0453 0.02384,0.0133 0.05086,0.0239 0.08082,0.0294 0.03053,0.006 0.06223,0.005 0.09419,-0.001 0.0321,-0.007 0.06224,-0.0195 0.0902,-0.0368 0.06174,-0.0451 0.106231,-0.0903 0.143903,-0.13732 0.03878,-0.0484 0.0709,-0.0995 0.09829,-0.14924 0.05444,-0.0988 0.10351,-0.21956 0.138203,-0.29712 0.08587,-0.21361 0.140783,-0.39337 0.17339,-0.50844 a 0.12112282,0.12112282 90 0 0 -0.233068,-0.066 c -0.03113,0.10984 -0.08369,0.28078 -0.16382,0.47949 -0.03873,0.0861 -0.07967,0.18765 -0.127701,0.27461 -0.0228,0.0413 -0.04747,0.0799 -0.07524,0.11453 -0.0268,0.0334 -0.05646,0.0631 -0.0903,0.088 0.0011,-0.001 -0.0025,-3.1e-4 -0.0036,-8e-5 -8.71e-4,-2e-5 -0.0027,-3.9e-4 -0.0068,-0.003 -0.0041,-0.002 -0.0098,-0.006 -0.01685,-0.0127 -0.01443,-0.0131 -0.0302,-0.0326 -0.04638,-0.0576 -0.01576,-0.0244 -0.0298,-0.0507 -0.04195,-0.0754 -0.233892,-0.50613 -0.321188,-1.07346 -0.333465,-1.63077 -0.0057,-0.28436 0.0042,-0.5674 0.02128,-0.8464 0.0093,-0.15097 0.02077,-0.30336 0.03376,-0.46066 0.0327,-0.396 0.08104,-0.88239 0.105042,-1.32087 0.02087,-0.25401 0.03186,-0.55096 0.07828,-0.81696 l -0.170235,0.0851 c -0.0043,-0.002 -0.0081,-0.005 -0.01087,-0.009 -0.0024,-0.003 -0.003,-0.005 -0.0026,-0.004 5.18e-4,9.7e-4 0.0017,0.004 0.0029,0.01 0.0012,0.006 0.0022,0.0131 0.003,0.0223 0.0015,0.0189 0.0012,0.0405 5.15e-4,0.0662 -5.41e-4,0.02 -0.0015,0.0459 -8.96e-4,0.0697 -0.01755,0.14949 -0.02157,0.29787 -0.03971,0.4474 -0.0089,0.0725 -0.02095,0.14157 -0.03913,0.20738 -0.01817,0.0658 -0.04233,0.12779 -0.07512,0.18596 -0.181642,0.29219 -0.450026,0.52883 -0.750489,0.67505 -0.03904,0.0181 -0.0826,0.0353 -0.126709,0.0484 -0.04511,0.0135 -0.08933,0.0223 -0.13115,0.0254 -0.04284,0.003 -0.08153,2e-4 -0.115684,-0.009 -0.03156,-0.008 -0.05999,-0.0221 -0.08547,-0.0421 -0.03498,-0.0462 -0.06162,-0.0959 -0.08156,-0.1477 -0.02221,-0.0577 -0.03625,-0.11826 -0.04394,-0.17964 -0.01673,-0.13347 -0.0035,-0.26966 0.02106,-0.38932 0.04613,-0.21389 0.1191,-0.40059 0.205282,-0.55421 0.01041,-0.0186 0.02099,-0.0366 0.03169,-0.0541 0.0966,-0.15786 0.212267,-0.28628 0.342825,-0.38426 0.09174,-0.0707 0.197236,-0.10555 0.287824,-0.11434 0.05665,-0.006 0.107637,-0.001 0.151348,0.008 0.05994,0.0127 0.106011,0.0348 0.138939,0.0549 a 0.10693065,0.10693065 90 0 0 0.111668,-0.1824 z"
       id="path-1"
       inkscape:path-effect="#path-effect576;#path-effect578"
       inkscape:original-d="m -15.456983,150.6874 c -0.828743,-0.46208 -1.613247,1.14976 -1.265925,1.80112 0.03066,0.0575 0.05863,0.12494 0.114546,0.15838 0.436378,0.26103 1.282483,-0.46925 1.419969,-0.8994 0.07035,-0.22011 0.07238,-0.45663 0.09776,-0.68631 0.0032,-0.029 0.02645,-0.27369 -0.03752,-0.32293 -0.02249,-0.0173 -0.02341,0.0525 -0.02765,0.0805 -0.01376,0.0911 -0.02116,0.18303 -0.02962,0.27476 -0.03123,0.33867 -0.04964,0.679 -0.07604,1.01809 -0.07599,0.97637 -0.23064,2.09697 -0.01481,3.06046 0.03888,0.17358 0.220659,0.89319 0.43152,0.93293 0.275286,0.0519 0.555291,-0.86696 0.604326,-1.0443"
       style="fill:#000000;fill-rule:nonzero;stroke:none" />
  </g>
</svg>
