<?xml version="1.0" encoding="UTF-8" standalone="no"?>
<!-- Created with Inkscape (http://www.inkscape.org/) -->

<svg
   width="3mm"
   height="10mm"
   viewBox="0 0 3.0000001 9.9999994"
   version="1.1"
   id="svg1681"
   inkscape:version="1.2.1 (9c6d41e410, 2022-07-14)"
   sodipodi:docname="lower_q_15.svg"
   inkscape:export-filename="..\..\..\..\Downloads\lower a diff canvas resize 3.0.png"
   inkscape:export-xdpi="96"
   inkscape:export-ydpi="96"
   xmlns:inkscape="http://www.inkscape.org/namespaces/inkscape"
   xmlns:sodipodi="http://sodipodi.sourceforge.net/DTD/sodipodi-0.dtd"
   xmlns="http://www.w3.org/2000/svg"
   xmlns:svg="http://www.w3.org/2000/svg"
   xmlns:rdf="http://www.w3.org/1999/02/22-rdf-syntax-ns#"
   xmlns:cc="http://creativecommons.org/ns#"
   xmlns:dc="http://purl.org/dc/elements/1.1/">
  <defs
     id="defs1675">
    <inkscape:path-effect
       effect="powerstroke"
       id="path-effect2224"
       is_visible="true"
       lpeversion="1"
       offset_points="1.4101506,0.13678314 | 4.5176467,0.11157981 | 9.5107889,0.14975185"
       not_jump="true"
       sort_points="true"
       interpolator_type="CentripetalCatmullRom"
       interpolator_beta="0.75"
       start_linecap_type="round"
       linejoin_type="spiro"
       miter_limit="4"
       scale_width="1"
       end_linecap_type="round" />
    <inkscape:path-effect
       effect="simplify"
       id="path-effect2222"
       is_visible="true"
       lpeversion="1"
       steps="1"
       threshold="0.0047745358"
       smooth_angles="0"
       helper_size="0"
       simplify_individual_paths="false"
       simplify_just_coalesce="false"
       step="1" />
    <inkscape:path-effect
       effect="powerstroke"
       id="path-effect578"
       is_visible="true"
       lpeversion="1"
       offset_points="1.4467219,0.10693065 | 8.6757496,0.12112282"
       not_jump="true"
       sort_points="true"
       interpolator_type="CentripetalCatmullRom"
       interpolator_beta="0.75"
       start_linecap_type="round"
       linejoin_type="spiro"
       miter_limit="4"
       scale_width="1"
       end_linecap_type="round" />
    <inkscape:path-effect
       effect="simplify"
       id="path-effect576"
       is_visible="true"
       lpeversion="1"
       steps="1"
       threshold="0.0047745358"
       smooth_angles="0"
       helper_size="0"
       simplify_individual_paths="false"
       simplify_just_coalesce="false"
       step="1" />
    <inkscape:path-effect
       effect="powerstroke"
       id="path-effect503"
       is_visible="true"
       lpeversion="1"
       offset_points="2.2802387,0.096408869 | 7.6064595,0.11378204"
       not_jump="true"
       sort_points="true"
       interpolator_type="CentripetalCatmullRom"
       interpolator_beta="0.75"
       start_linecap_type="round"
       linejoin_type="spiro"
       miter_limit="4"
       scale_width="1"
       end_linecap_type="round" />
    <inkscape:path-effect
       effect="simplify"
       id="path-effect501"
       is_visible="true"
       lpeversion="1"
       steps="1"
       threshold="0.0047745358"
       smooth_angles="0"
       helper_size="0"
       simplify_individual_paths="false"
       simplify_just_coalesce="false"
       step="1" />
    <inkscape:path-effect
       effect="powerstroke"
       id="path-effect495"
       is_visible="true"
       lpeversion="1"
       offset_points="1.9560338,0.1052178"
       not_jump="true"
       sort_points="true"
       interpolator_type="CentripetalCatmullRom"
       interpolator_beta="0.75"
       start_linecap_type="round"
       linejoin_type="spiro"
       miter_limit="4"
       scale_width="1"
       end_linecap_type="round" />
    <inkscape:path-effect
       effect="simplify"
       id="path-effect493"
       is_visible="true"
       lpeversion="1"
       steps="1"
       threshold="0.0047745358"
       smooth_angles="0"
       helper_size="0"
       simplify_individual_paths="false"
       simplify_just_coalesce="false"
       step="1" />
    <inkscape:path-effect
       effect="powerstroke"
       id="path-effect488"
       is_visible="true"
       lpeversion="1"
       offset_points="1.5146307,0.12136751 | 8.9192709,0.13580437"
       not_jump="true"
       sort_points="true"
       interpolator_type="CentripetalCatmullRom"
       interpolator_beta="0.75"
       start_linecap_type="round"
       linejoin_type="spiro"
       miter_limit="4"
       scale_width="1"
       end_linecap_type="round" />
    <inkscape:path-effect
       effect="simplify"
       id="path-effect486"
       is_visible="true"
       lpeversion="1"
       steps="1"
       threshold="0.0047745358"
       smooth_angles="0"
       helper_size="0"
       simplify_individual_paths="false"
       simplify_just_coalesce="false"
       step="1" />
    <inkscape:path-effect
       effect="powerstroke"
       id="path-effect2676"
       is_visible="true"
       lpeversion="1"
       offset_points="2.9741161,0.15507441 | 5.0809583,0.12467195 | 8.2746354,0.16054247"
       not_jump="true"
       sort_points="true"
       interpolator_type="CentripetalCatmullRom"
       interpolator_beta="0.75"
       start_linecap_type="round"
       linejoin_type="spiro"
       miter_limit="4"
       scale_width="1"
       end_linecap_type="round" />
    <inkscape:path-effect
       effect="simplify"
       id="path-effect2674"
       is_visible="true"
       lpeversion="1"
       steps="1"
       threshold="0.0035951417"
       smooth_angles="0"
       helper_size="0"
       simplify_individual_paths="false"
       simplify_just_coalesce="false"
       step="1" />
    <inkscape:path-effect
       effect="powerstroke"
       id="path-effect2669"
       is_visible="true"
       lpeversion="1"
       offset_points="1.9997838,0.086474349 | 3.6799468,0.071939612 | 9.7724461,0.098219592"
       not_jump="true"
       sort_points="true"
       interpolator_type="CentripetalCatmullRom"
       interpolator_beta="0.75"
       start_linecap_type="round"
       linejoin_type="spiro"
       miter_limit="4"
       scale_width="1"
       end_linecap_type="round" />
    <inkscape:path-effect
       effect="simplify"
       id="path-effect2667"
       is_visible="true"
       lpeversion="1"
       steps="1"
       threshold="0.0035951417"
       smooth_angles="0"
       helper_size="0"
       simplify_individual_paths="false"
       simplify_just_coalesce="false"
       step="1" />
    <inkscape:path-effect
       effect="powerstroke"
       id="path-effect502"
       is_visible="true"
       lpeversion="1"
       offset_points="3.0091841,0.21607495 | 7.3602657,0.17554228 | 9.4159651,0.20236537"
       not_jump="true"
       sort_points="true"
       interpolator_type="CentripetalCatmullRom"
       interpolator_beta="0.75"
       start_linecap_type="round"
       linejoin_type="spiro"
       miter_limit="4"
       scale_width="1"
       end_linecap_type="round" />
    <inkscape:path-effect
       effect="simplify"
       id="path-effect500"
       is_visible="true"
       lpeversion="1"
       steps="1"
       threshold="0.0035951417"
       smooth_angles="0"
       helper_size="0"
       simplify_individual_paths="false"
       simplify_just_coalesce="false"
       step="1" />
    <inkscape:path-effect
       effect="powerstroke"
       id="path-effect241"
       is_visible="true"
       lpeversion="1"
       offset_points="2.6879454,0.34086734"
       not_jump="true"
       sort_points="true"
       interpolator_type="CentripetalCatmullRom"
       interpolator_beta="0.75"
       start_linecap_type="round"
       linejoin_type="spiro"
       miter_limit="4"
       scale_width="1"
       end_linecap_type="round" />
    <inkscape:path-effect
       effect="simplify"
       id="path-effect239"
       is_visible="true"
       lpeversion="1"
       steps="1"
       threshold="0.0028332064"
       smooth_angles="0"
       helper_size="0"
       simplify_individual_paths="false"
       simplify_just_coalesce="false"
       step="1" />
    <inkscape:path-effect
       effect="powerstroke"
       id="path-effect234"
       is_visible="true"
       lpeversion="1"
       offset_points="2.13563,0.075169555"
       not_jump="true"
       sort_points="true"
       interpolator_type="CentripetalCatmullRom"
       interpolator_beta="0.75"
       start_linecap_type="round"
       linejoin_type="spiro"
       miter_limit="4"
       scale_width="1"
       end_linecap_type="round" />
    <inkscape:path-effect
       effect="simplify"
       id="path-effect232"
       is_visible="true"
       lpeversion="1"
       steps="1"
       threshold="0.0028332064"
       smooth_angles="0"
       helper_size="0"
       simplify_individual_paths="false"
       simplify_just_coalesce="false"
       step="1" />
    <inkscape:path-effect
       effect="powerstroke"
       id="path-effect227"
       is_visible="true"
       lpeversion="1"
       offset_points="2.1868266,0.075169555"
       not_jump="true"
       sort_points="true"
       interpolator_type="CentripetalCatmullRom"
       interpolator_beta="0.75"
       start_linecap_type="round"
       linejoin_type="spiro"
       miter_limit="4"
       scale_width="1"
       end_linecap_type="round" />
    <inkscape:path-effect
       effect="simplify"
       id="path-effect225"
       is_visible="true"
       lpeversion="1"
       steps="1"
       threshold="0.0028332064"
       smooth_angles="0"
       helper_size="0"
       simplify_individual_paths="false"
       simplify_just_coalesce="false"
       step="1" />
    <inkscape:path-effect
       effect="powerstroke"
       id="path-effect166"
       is_visible="true"
       lpeversion="1"
       offset_points="1.9637935,0.075169555"
       not_jump="true"
       sort_points="true"
       interpolator_type="CentripetalCatmullRom"
       interpolator_beta="0.75"
       start_linecap_type="round"
       linejoin_type="spiro"
       miter_limit="4"
       scale_width="1"
       end_linecap_type="round" />
    <inkscape:path-effect
       effect="simplify"
       id="path-effect164"
       is_visible="true"
       lpeversion="1"
       steps="1"
       threshold="0.0028332064"
       smooth_angles="0"
       helper_size="0"
       simplify_individual_paths="false"
       simplify_just_coalesce="false"
       step="1" />
    <inkscape:path-effect
       effect="powerstroke"
       id="path-effect159"
       is_visible="true"
       lpeversion="1"
       offset_points="2.2611036,0.075169555"
       not_jump="true"
       sort_points="true"
       interpolator_type="CentripetalCatmullRom"
       interpolator_beta="0.75"
       start_linecap_type="round"
       linejoin_type="spiro"
       miter_limit="4"
       scale_width="1"
       end_linecap_type="round" />
    <inkscape:path-effect
       effect="simplify"
       id="path-effect157"
       is_visible="true"
       lpeversion="1"
       steps="1"
       threshold="0.0028332064"
       smooth_angles="0"
       helper_size="0"
       simplify_individual_paths="false"
       simplify_just_coalesce="false"
       step="1" />
    <inkscape:path-effect
       effect="powerstroke"
       id="path-effect152"
       is_visible="true"
       lpeversion="1"
       offset_points="2.826981,0.075169555"
       not_jump="true"
       sort_points="true"
       interpolator_type="CentripetalCatmullRom"
       interpolator_beta="0.75"
       start_linecap_type="round"
       linejoin_type="spiro"
       miter_limit="4"
       scale_width="1"
       end_linecap_type="round" />
    <inkscape:path-effect
       effect="simplify"
       id="path-effect150"
       is_visible="true"
       lpeversion="1"
       steps="1"
       threshold="0.0028332064"
       smooth_angles="0"
       helper_size="0"
       simplify_individual_paths="false"
       simplify_just_coalesce="false"
       step="1" />
    <inkscape:path-effect
       effect="powerstroke"
       id="path-effect145"
       is_visible="true"
       lpeversion="1"
       offset_points="3.8374447,0.075169555"
       not_jump="true"
       sort_points="true"
       interpolator_type="CentripetalCatmullRom"
       interpolator_beta="0.75"
       start_linecap_type="round"
       linejoin_type="spiro"
       miter_limit="4"
       scale_width="1"
       end_linecap_type="round" />
    <inkscape:path-effect
       effect="simplify"
       id="path-effect143"
       is_visible="true"
       lpeversion="1"
       steps="1"
       threshold="0.0028332064"
       smooth_angles="0"
       helper_size="0"
       simplify_individual_paths="false"
       simplify_just_coalesce="false"
       step="1" />
    <inkscape:path-effect
       effect="powerstroke"
       id="path-effect138"
       is_visible="true"
       lpeversion="1"
       offset_points="2.6880907,0.075169555"
       not_jump="true"
       sort_points="true"
       interpolator_type="CentripetalCatmullRom"
       interpolator_beta="0.75"
       start_linecap_type="round"
       linejoin_type="spiro"
       miter_limit="4"
       scale_width="1"
       end_linecap_type="round" />
    <inkscape:path-effect
       effect="simplify"
       id="path-effect136"
       is_visible="true"
       lpeversion="1"
       steps="1"
       threshold="0.0028332064"
       smooth_angles="0"
       helper_size="0"
       simplify_individual_paths="false"
       simplify_just_coalesce="false"
       step="1" />
    <inkscape:path-effect
       effect="powerstroke"
       id="path-effect131"
       is_visible="true"
       lpeversion="1"
       offset_points="1.9940581,0.075169555"
       not_jump="true"
       sort_points="true"
       interpolator_type="CentripetalCatmullRom"
       interpolator_beta="0.75"
       start_linecap_type="round"
       linejoin_type="spiro"
       miter_limit="4"
       scale_width="1"
       end_linecap_type="round" />
    <inkscape:path-effect
       effect="simplify"
       id="path-effect129"
       is_visible="true"
       lpeversion="1"
       steps="1"
       threshold="0.0028332064"
       smooth_angles="0"
       helper_size="0"
       simplify_individual_paths="false"
       simplify_just_coalesce="false"
       step="1" />
    <inkscape:path-effect
       effect="simplify"
       id="path-effect154"
       is_visible="true"
       lpeversion="1"
       steps="1"
       threshold="0.0035951417"
       smooth_angles="0"
       helper_size="0"
       simplify_individual_paths="false"
       simplify_just_coalesce="false"
       step="1" />
    <inkscape:path-effect
       effect="powerstroke"
       id="path-effect156"
       is_visible="true"
       lpeversion="1"
       offset_points="2.3598633,0.12390962 | 6.5458903,0.10255151"
       not_jump="true"
       sort_points="true"
       interpolator_type="CentripetalCatmullRom"
       interpolator_beta="0.75"
       start_linecap_type="round"
       linejoin_type="spiro"
       miter_limit="4"
       scale_width="1"
       end_linecap_type="round" />
  </defs>
  <sodipodi:namedview
     id="base"
     pagecolor="#ffffff"
     bordercolor="#666666"
     borderopacity="1.0"
     inkscape:pageopacity="0.0"
     inkscape:pageshadow="2"
     inkscape:zoom="15.839192"
     inkscape:cx="0.031567267"
     inkscape:cy="18.687822"
     inkscape:document-units="mm"
     inkscape:current-layer="layer1"
     showgrid="false"
     fit-margin-top="0"
     fit-margin-left="0"
     fit-margin-right="0"
     fit-margin-bottom="0"
     inkscape:window-width="1920"
     inkscape:window-height="1057"
     inkscape:window-x="1072"
     inkscape:window-y="321"
     inkscape:window-maximized="1"
     showguides="true"
     inkscape:guide-bbox="true"
     inkscape:snap-bbox="true"
     inkscape:bbox-nodes="true"
     inkscape:snap-nodes="false"
     inkscape:snap-others="false"
     inkscape:snap-page="true"
     inkscape:snap-grids="false"
     inkscape:snap-to-guides="false"
     inkscape:snap-global="false"
     inkscape:pagecheckerboard="0"
     inkscape:showpageshadow="2"
     inkscape:deskcolor="#d1d1d1">
    <sodipodi:guide
       position="-6.1806076,9.4988693"
       orientation="0,1"
       id="guide816"
       inkscape:locked="false" />
    <sodipodi:guide
       position="-4.4101636,10.646923"
       orientation="0,1"
       id="guide818"
       inkscape:locked="false" />
    <sodipodi:guide
       position="2.7595724,11.09577"
       orientation="1,0"
       id="guide820"
       inkscape:locked="false" />
    <sodipodi:guide
       position="3.6572659,10.942217"
       orientation="1,0"
       id="guide822"
       inkscape:locked="false" />
    <sodipodi:guide
       position="-0.051625511,9.74923"
       orientation="1,0"
       id="guide1853"
       inkscape:locked="false" />
    <sodipodi:guide
       position="-2.3720169,3.0175835"
       orientation="0,1"
       id="guide1855"
       inkscape:locked="false" />
    <sodipodi:guide
       position="2.0379301,7.126852"
       orientation="0,-1"
       id="guide573"
       inkscape:locked="false" />
  </sodipodi:namedview>
  <metadata
     id="metadata1678">
    <rdf:RDF>
      <cc:Work
         rdf:about="">
        <dc:format>image/svg+xml</dc:format>
        <dc:type
           rdf:resource="http://purl.org/dc/dcmitype/StillImage" />
      </cc:Work>
    </rdf:RDF>
  </metadata>
  <g
     inkscape:label="Layer 1"
     inkscape:groupmode="layer"
     id="layer1"
     transform="translate(17.028496,-147.22856)">
    <path
       d="m -15.11062,151.42285 c -0.0323,-0.0378 -0.0993,-0.10674 -0.202817,-0.14795 -0.03815,-0.0152 -0.08153,-0.0266 -0.128723,-0.0304 -0.04423,-0.004 -0.09097,-4.2e-4 -0.138679,0.0117 -0.188242,0.0392 -0.362991,0.12282 -0.517183,0.23201 -0.03338,0.0236 -0.06618,0.0488 -0.09837,0.0753 -0.168386,0.13878 -0.317311,0.31401 -0.442676,0.50993 -0.114561,0.18165 -0.223654,0.39301 -0.293887,0.62215 -0.06619,0.21594 -0.09966,0.45355 -0.06497,0.6989 0.02628,0.20077 0.124421,0.38762 0.268307,0.53154 0.13905,0.13909 0.323467,0.2403 0.527512,0.27021 0.07516,0.0101 0.146536,0.004 0.213752,-0.014 0.06644,-0.0178 0.12793,-0.0472 0.18363,-0.0836 0.0039,-0.003 0.0078,-0.005 0.01169,-0.008 0.102255,-0.0696 0.189232,-0.16608 0.254483,-0.26927 0.138987,-0.22074 0.233592,-0.4613 0.307337,-0.71331 0.07129,-0.24362 0.121127,-0.49049 0.17497,-0.73641 0.02413,-0.12402 0.05193,-0.24905 0.07457,-0.37893 0.02219,-0.12731 0.03955,-0.26088 0.0406,-0.39817 4.1e-5,-0.005 -8.9e-5,-0.0106 -8.37e-4,-0.0159 -7.47e-4,-0.005 -0.002,-0.0104 -0.0032,-0.0156 -0.0028,-0.0118 -0.006,-0.0233 -0.0096,-0.0342 -0.0035,-0.0105 -0.0082,-0.0228 -0.01485,-0.0352 -0.0034,-0.006 -0.0079,-0.0138 -0.0137,-0.0215 -0.0057,-0.008 -0.01402,-0.0171 -0.02541,-0.0262 -0.0115,-0.009 -0.02768,-0.0191 -0.04863,-0.025 -0.02176,-0.006 -0.04501,-0.007 -0.06771,-0.002 -0.02195,0.005 -0.03925,0.0146 -0.05179,0.0239 -0.01232,0.009 -0.02126,0.0188 -0.0274,0.0265 -0.01178,0.0147 -0.019,0.0293 -0.02309,0.0385 -0.0045,0.0101 -0.0078,0.0198 -0.01039,0.0281 -0.0026,0.009 -0.0048,0.017 -0.0067,0.0251 -0.0037,0.0161 -0.0066,0.0329 -0.0088,0.049 -0.0023,0.0162 -0.004,0.0329 -0.0051,0.0487 -0.0011,0.0157 -0.0018,0.0319 -0.0017,0.047 7e-5,0.008 3.47e-4,0.0157 0.001,0.0239 5.2e-5,6.4e-4 1.08e-4,0.001 1.68e-4,0.002 -0.01522,0.5276 -0.105769,1.05524 -0.153832,1.58396 -0.04131,0.40906 -0.07526,0.82182 -0.06645,1.2338 1.93e-4,0.009 4.06e-4,0.018 6.39e-4,0.027 0.01014,0.39054 0.05993,0.80568 0.197359,1.21614 0.04359,0.11723 0.09399,0.26008 0.162145,0.38883 0.03422,0.0647 0.07461,0.12935 0.123863,0.18975 0.04905,0.0602 0.106936,0.1161 0.176245,0.1635 0.06319,0.0426 0.130646,0.0659 0.198694,0.0735 0.06759,0.008 0.133069,-4.9e-4 0.192838,-0.0176 0.06024,-0.0172 0.116242,-0.044 0.165945,-0.0755 0.05055,-0.0321 0.09618,-0.07 0.135042,-0.11057 0.140292,-0.14298 0.249091,-0.30636 0.332793,-0.47145 0.09057,-0.17864 0.153189,-0.36206 0.19661,-0.53196 0.0069,-0.0322 0.01065,-0.0539 0.0136,-0.0696 a 0.14975185,0.14975185 90 0 0 -0.294394,-0.0551 c -0.0022,0.012 -0.0064,0.0303 -0.01228,0.0532 -0.03881,0.15007 -0.0948,0.31156 -0.173619,0.46617 -0.07279,0.14278 -0.16479,0.2791 -0.280769,0.39695 -0.02376,0.0246 -0.05053,0.0468 -0.07974,0.0652 -0.02883,0.0182 -0.05839,0.0317 -0.08679,0.0398 -0.02805,0.008 -0.05327,0.0101 -0.0752,0.008 -0.02116,-0.002 -0.04154,-0.009 -0.06164,-0.0228 -0.04125,-0.0282 -0.07819,-0.0632 -0.111514,-0.10396 -0.03373,-0.0412 -0.06364,-0.0881 -0.09116,-0.13975 -0.05698,-0.10692 -0.100012,-0.22683 -0.145798,-0.3476 -0.123914,-0.36817 -0.172025,-0.75157 -0.18284,-1.12304 -2.49e-4,-0.009 -4.78e-4,-0.0171 -6.88e-4,-0.0256 -0.0097,-0.39297 0.02091,-0.79079 0.05997,-1.19983 0.04289,-0.51851 0.130094,-1.05619 0.138663,-1.61374 9.2e-5,-0.006 1.2e-5,-0.0121 -7.1e-4,-0.018 -7.22e-4,-0.006 -0.002,-0.0119 -0.0032,-0.0178 0.0013,0.006 0.0011,0.008 8.42e-4,0.008 -2.24e-4,-8e-5 -5.84e-4,-0.002 -8.84e-4,-0.005 -6.31e-4,-0.006 -9.8e-4,-0.0145 -9.34e-4,-0.0246 4.7e-5,-0.0101 4.76e-4,-0.0208 0.0012,-0.0311 7.52e-4,-0.0106 0.0017,-0.019 0.0026,-0.0258 4.02e-4,-0.003 7.94e-4,-0.006 8.19e-4,-0.006 3.2e-5,-9.9e-4 -2.69e-4,-2.5e-4 -0.0018,0.003 -9e-4,0.002 -0.0052,0.0109 -0.01347,0.0211 -0.0044,0.006 -0.01168,0.0135 -0.02223,0.0212 -0.01077,0.008 -0.02627,0.0167 -0.04638,0.0213 -0.02085,0.005 -0.04223,0.004 -0.06207,-0.002 -0.01904,-0.005 -0.03326,-0.0143 -0.04277,-0.0219 -0.0094,-0.008 -0.01564,-0.0149 -0.01934,-0.0199 -0.0038,-0.005 -0.0062,-0.009 -0.0074,-0.0118 -0.0027,-0.005 -0.0025,-0.006 -0.0017,-0.005 1.33e-4,2.7e-4 2.83e-4,6e-4 4.48e-4,9.9e-4 6.73e-4,0.11102 -0.01074,0.22307 -0.02766,0.33735 -0.01819,0.12282 -0.04258,0.2471 -0.06398,0.37221 -0.05134,0.24803 -0.09659,0.48477 -0.162818,0.71883 -0.06787,0.23987 -0.1535,0.45978 -0.276712,0.65769 -0.05064,0.0822 -0.116736,0.1548 -0.189304,0.20416 -0.0027,0.002 -0.0054,0.004 -0.0081,0.005 -0.03875,0.0253 -0.07868,0.0435 -0.11898,0.054 -0.04036,0.0104 -0.08165,0.0132 -0.123932,0.007 -0.149576,-0.0234 -0.288798,-0.10121 -0.394104,-0.21004 -0.108944,-0.11259 -0.17757,-0.25374 -0.193541,-0.39885 -0.02541,-0.20359 0.005,-0.40342 0.06634,-0.59177 0.06524,-0.20034 0.165922,-0.38898 0.274196,-0.55491 0.115622,-0.17446 0.248764,-0.32557 0.392986,-0.44237 0.02748,-0.0223 0.05522,-0.0432 0.0832,-0.0627 0.129181,-0.0902 0.269899,-0.15588 0.42167,-0.18738 0.02272,-0.006 0.03908,-0.007 0.05477,-0.005 0.01697,0.001 0.03369,0.005 0.04965,0.0116 0.04532,0.0176 0.07818,0.0491 0.09581,0.0697 a 0.13678314,0.13678314 90 0 0 0.20806,-0.17762 z"
       id="path-1"
       inkscape:path-effect="#path-effect2222;#path-effect2224"
       inkscape:original-d="m -15.21465,151.51166 c -0.03522,-0.0301 -0.06651,-0.0654 -0.105658,-0.0902 -0.182839,-0.11552 -0.510747,0.058 -0.656661,0.1499 -0.68592,0.43182 -1.422372,1.94467 -0.431521,2.44274 0.846435,0.42547 1.117895,-1.10988 1.226427,-1.62156 0.0068,-0.032 0.177171,-0.84446 0.08788,-0.85471 -0.03191,-0.004 -0.02248,0.15659 -0.02765,0.29171 -0.01324,0.3458 -0.05978,0.69067 -0.09578,1.03467 -0.107284,1.02502 -0.257174,2.18774 0.19058,3.15833 0.496756,1.07683 1.18065,-0.0987 1.296536,-0.71829"
       style="fill:#000000;fill-rule:nonzero;stroke:none" />
  </g>
</svg>
