<?xml version="1.0" encoding="UTF-8" standalone="no"?>
<!-- Created with Inkscape (http://www.inkscape.org/) -->

<svg
   width="4mm"
   height="10mm"
   viewBox="0 0 4.0000001 9.9999994"
   version="1.1"
   id="svg1681"
   inkscape:version="1.2.1 (9c6d41e410, 2022-07-14)"
   sodipodi:docname="lower_m_6.svg"
   inkscape:export-filename="..\..\..\..\Downloads\lower a diff canvas resize 3.0.png"
   inkscape:export-xdpi="96"
   inkscape:export-ydpi="96"
   xmlns:inkscape="http://www.inkscape.org/namespaces/inkscape"
   xmlns:sodipodi="http://sodipodi.sourceforge.net/DTD/sodipodi-0.dtd"
   xmlns="http://www.w3.org/2000/svg"
   xmlns:svg="http://www.w3.org/2000/svg"
   xmlns:rdf="http://www.w3.org/1999/02/22-rdf-syntax-ns#"
   xmlns:cc="http://creativecommons.org/ns#"
   xmlns:dc="http://purl.org/dc/elements/1.1/">
  <defs
     id="defs1675">
    <inkscape:path-effect
       effect="powerstroke"
       id="path-effect565"
       is_visible="true"
       lpeversion="1"
       offset_points="2.2898405,0.099589871 | 6.6413189,0.085887088 | 9.3403103,0.097877023 | 13.278467,0.11427142"
       not_jump="true"
       sort_points="true"
       interpolator_type="CentripetalCatmullRom"
       interpolator_beta="0.75"
       start_linecap_type="round"
       linejoin_type="spiro"
       miter_limit="4"
       scale_width="1"
       end_linecap_type="round" />
    <inkscape:path-effect
       effect="simplify"
       id="path-effect563"
       is_visible="true"
       lpeversion="1"
       steps="1"
       threshold="0.0047745358"
       smooth_angles="0"
       helper_size="0"
       simplify_individual_paths="false"
       simplify_just_coalesce="false"
       step="1" />
    <inkscape:path-effect
       effect="powerstroke"
       id="path-effect510"
       is_visible="true"
       lpeversion="1"
       offset_points="1.9176024,0.17666803 | 6.6799515,0.12405913 | 8.9071225,0.13923007 | 11.94271,0.12626136 | 14.359274,0.148039"
       not_jump="true"
       sort_points="true"
       interpolator_type="CentripetalCatmullRom"
       interpolator_beta="0.75"
       start_linecap_type="round"
       linejoin_type="spiro"
       miter_limit="4"
       scale_width="1"
       end_linecap_type="round" />
    <inkscape:path-effect
       effect="simplify"
       id="path-effect508"
       is_visible="true"
       lpeversion="1"
       steps="1"
       threshold="0.0047745358"
       smooth_angles="0"
       helper_size="0"
       simplify_individual_paths="false"
       simplify_just_coalesce="false"
       step="1" />
    <inkscape:path-effect
       effect="powerstroke"
       id="path-effect457"
       is_visible="true"
       lpeversion="1"
       offset_points="1.698284,0.11157981"
       not_jump="true"
       sort_points="true"
       interpolator_type="CentripetalCatmullRom"
       interpolator_beta="0.75"
       start_linecap_type="round"
       linejoin_type="spiro"
       miter_limit="4"
       scale_width="1"
       end_linecap_type="round" />
    <inkscape:path-effect
       effect="simplify"
       id="path-effect455"
       is_visible="true"
       lpeversion="1"
       steps="1"
       threshold="0.0047745358"
       smooth_angles="0"
       helper_size="0"
       simplify_individual_paths="false"
       simplify_just_coalesce="false"
       step="1" />
    <inkscape:path-effect
       effect="powerstroke"
       id="path-effect450"
       is_visible="true"
       lpeversion="1"
       offset_points="2.3032336,0.10448372 | 5.4261225,0.1216122 | 9.9205125,0.13971945"
       not_jump="true"
       sort_points="true"
       interpolator_type="CentripetalCatmullRom"
       interpolator_beta="0.75"
       start_linecap_type="round"
       linejoin_type="spiro"
       miter_limit="4"
       scale_width="1"
       end_linecap_type="round" />
    <inkscape:path-effect
       effect="simplify"
       id="path-effect448"
       is_visible="true"
       lpeversion="1"
       steps="1"
       threshold="0.0047745358"
       smooth_angles="0"
       helper_size="0"
       simplify_individual_paths="false"
       simplify_just_coalesce="false"
       step="1" />
    <inkscape:path-effect
       effect="powerstroke"
       id="path-effect401"
       is_visible="true"
       lpeversion="1"
       offset_points="1.919598,0.085642395 | 7.1414337,0.095185405 | 11.392776,0.11084573"
       not_jump="true"
       sort_points="true"
       interpolator_type="CentripetalCatmullRom"
       interpolator_beta="0.75"
       start_linecap_type="round"
       linejoin_type="spiro"
       miter_limit="4"
       scale_width="1"
       end_linecap_type="round" />
    <inkscape:path-effect
       effect="simplify"
       id="path-effect399"
       is_visible="true"
       lpeversion="1"
       steps="1"
       threshold="0.0047745358"
       smooth_angles="0"
       helper_size="0"
       simplify_individual_paths="false"
       simplify_just_coalesce="false"
       step="1" />
    <inkscape:path-effect
       effect="powerstroke"
       id="path-effect354"
       is_visible="true"
       lpeversion="1"
       offset_points="1.8669648,0.097632331 | 3.3867434,0.08319547 | 6.5616288,0.10448372"
       not_jump="true"
       sort_points="true"
       interpolator_type="CentripetalCatmullRom"
       interpolator_beta="0.75"
       start_linecap_type="round"
       linejoin_type="spiro"
       miter_limit="4"
       scale_width="1"
       end_linecap_type="round" />
    <inkscape:path-effect
       effect="simplify"
       id="path-effect352"
       is_visible="true"
       lpeversion="1"
       steps="1"
       threshold="0.0047745358"
       smooth_angles="0"
       helper_size="0"
       simplify_individual_paths="false"
       simplify_just_coalesce="false"
       step="1" />
    <inkscape:path-effect
       effect="powerstroke"
       id="path-effect309"
       is_visible="true"
       lpeversion="1"
       offset_points="1.7013678,0.12014405 | 7.8476699,0.13580437"
       not_jump="true"
       sort_points="true"
       interpolator_type="CentripetalCatmullRom"
       interpolator_beta="0.75"
       start_linecap_type="round"
       linejoin_type="spiro"
       miter_limit="4"
       scale_width="1"
       end_linecap_type="round" />
    <inkscape:path-effect
       effect="simplify"
       id="path-effect307"
       is_visible="true"
       lpeversion="1"
       steps="1"
       threshold="0.0047745358"
       smooth_angles="0"
       helper_size="0"
       simplify_individual_paths="false"
       simplify_just_coalesce="false"
       step="1" />
    <inkscape:path-effect
       effect="powerstroke"
       id="path-effect302"
       is_visible="true"
       lpeversion="1"
       offset_points="2.2193262,0.1282189"
       not_jump="true"
       sort_points="true"
       interpolator_type="CentripetalCatmullRom"
       interpolator_beta="0.75"
       start_linecap_type="round"
       linejoin_type="spiro"
       miter_limit="4"
       scale_width="1"
       end_linecap_type="round" />
    <inkscape:path-effect
       effect="simplify"
       id="path-effect300"
       is_visible="true"
       lpeversion="1"
       steps="1"
       threshold="0.0047745358"
       smooth_angles="0"
       helper_size="0"
       simplify_individual_paths="false"
       simplify_just_coalesce="false"
       step="1" />
    <inkscape:path-effect
       effect="powerstroke"
       id="path-effect329"
       is_visible="true"
       lpeversion="1"
       offset_points="2.036852,0.12799523 | 9.038239,0.16903718 | 11.263778,0.13750213"
       not_jump="true"
       sort_points="true"
       interpolator_type="CentripetalCatmullRom"
       interpolator_beta="0.75"
       start_linecap_type="round"
       linejoin_type="spiro"
       miter_limit="4"
       scale_width="1"
       end_linecap_type="round" />
    <inkscape:path-effect
       effect="simplify"
       id="path-effect327"
       is_visible="true"
       lpeversion="1"
       steps="1"
       threshold="0.0035951417"
       smooth_angles="0"
       helper_size="0"
       simplify_individual_paths="false"
       simplify_just_coalesce="false"
       step="1" />
    <inkscape:path-effect
       effect="powerstroke"
       id="path-effect502"
       is_visible="true"
       lpeversion="1"
       offset_points="3.0091841,0.21607495 | 7.3602657,0.17554228 | 9.4159651,0.20236537"
       not_jump="true"
       sort_points="true"
       interpolator_type="CentripetalCatmullRom"
       interpolator_beta="0.75"
       start_linecap_type="round"
       linejoin_type="spiro"
       miter_limit="4"
       scale_width="1"
       end_linecap_type="round" />
    <inkscape:path-effect
       effect="simplify"
       id="path-effect500"
       is_visible="true"
       lpeversion="1"
       steps="1"
       threshold="0.0035951417"
       smooth_angles="0"
       helper_size="0"
       simplify_individual_paths="false"
       simplify_just_coalesce="false"
       step="1" />
    <inkscape:path-effect
       effect="powerstroke"
       id="path-effect241"
       is_visible="true"
       lpeversion="1"
       offset_points="2.6879454,0.34086734"
       not_jump="true"
       sort_points="true"
       interpolator_type="CentripetalCatmullRom"
       interpolator_beta="0.75"
       start_linecap_type="round"
       linejoin_type="spiro"
       miter_limit="4"
       scale_width="1"
       end_linecap_type="round" />
    <inkscape:path-effect
       effect="simplify"
       id="path-effect239"
       is_visible="true"
       lpeversion="1"
       steps="1"
       threshold="0.0028332064"
       smooth_angles="0"
       helper_size="0"
       simplify_individual_paths="false"
       simplify_just_coalesce="false"
       step="1" />
    <inkscape:path-effect
       effect="powerstroke"
       id="path-effect234"
       is_visible="true"
       lpeversion="1"
       offset_points="2.13563,0.075169555"
       not_jump="true"
       sort_points="true"
       interpolator_type="CentripetalCatmullRom"
       interpolator_beta="0.75"
       start_linecap_type="round"
       linejoin_type="spiro"
       miter_limit="4"
       scale_width="1"
       end_linecap_type="round" />
    <inkscape:path-effect
       effect="simplify"
       id="path-effect232"
       is_visible="true"
       lpeversion="1"
       steps="1"
       threshold="0.0028332064"
       smooth_angles="0"
       helper_size="0"
       simplify_individual_paths="false"
       simplify_just_coalesce="false"
       step="1" />
    <inkscape:path-effect
       effect="powerstroke"
       id="path-effect227"
       is_visible="true"
       lpeversion="1"
       offset_points="2.1868266,0.075169555"
       not_jump="true"
       sort_points="true"
       interpolator_type="CentripetalCatmullRom"
       interpolator_beta="0.75"
       start_linecap_type="round"
       linejoin_type="spiro"
       miter_limit="4"
       scale_width="1"
       end_linecap_type="round" />
    <inkscape:path-effect
       effect="simplify"
       id="path-effect225"
       is_visible="true"
       lpeversion="1"
       steps="1"
       threshold="0.0028332064"
       smooth_angles="0"
       helper_size="0"
       simplify_individual_paths="false"
       simplify_just_coalesce="false"
       step="1" />
    <inkscape:path-effect
       effect="powerstroke"
       id="path-effect166"
       is_visible="true"
       lpeversion="1"
       offset_points="1.9637935,0.075169555"
       not_jump="true"
       sort_points="true"
       interpolator_type="CentripetalCatmullRom"
       interpolator_beta="0.75"
       start_linecap_type="round"
       linejoin_type="spiro"
       miter_limit="4"
       scale_width="1"
       end_linecap_type="round" />
    <inkscape:path-effect
       effect="simplify"
       id="path-effect164"
       is_visible="true"
       lpeversion="1"
       steps="1"
       threshold="0.0028332064"
       smooth_angles="0"
       helper_size="0"
       simplify_individual_paths="false"
       simplify_just_coalesce="false"
       step="1" />
    <inkscape:path-effect
       effect="powerstroke"
       id="path-effect159"
       is_visible="true"
       lpeversion="1"
       offset_points="2.2611036,0.075169555"
       not_jump="true"
       sort_points="true"
       interpolator_type="CentripetalCatmullRom"
       interpolator_beta="0.75"
       start_linecap_type="round"
       linejoin_type="spiro"
       miter_limit="4"
       scale_width="1"
       end_linecap_type="round" />
    <inkscape:path-effect
       effect="simplify"
       id="path-effect157"
       is_visible="true"
       lpeversion="1"
       steps="1"
       threshold="0.0028332064"
       smooth_angles="0"
       helper_size="0"
       simplify_individual_paths="false"
       simplify_just_coalesce="false"
       step="1" />
    <inkscape:path-effect
       effect="powerstroke"
       id="path-effect152"
       is_visible="true"
       lpeversion="1"
       offset_points="2.826981,0.075169555"
       not_jump="true"
       sort_points="true"
       interpolator_type="CentripetalCatmullRom"
       interpolator_beta="0.75"
       start_linecap_type="round"
       linejoin_type="spiro"
       miter_limit="4"
       scale_width="1"
       end_linecap_type="round" />
    <inkscape:path-effect
       effect="simplify"
       id="path-effect150"
       is_visible="true"
       lpeversion="1"
       steps="1"
       threshold="0.0028332064"
       smooth_angles="0"
       helper_size="0"
       simplify_individual_paths="false"
       simplify_just_coalesce="false"
       step="1" />
    <inkscape:path-effect
       effect="powerstroke"
       id="path-effect145"
       is_visible="true"
       lpeversion="1"
       offset_points="3.8374447,0.075169555"
       not_jump="true"
       sort_points="true"
       interpolator_type="CentripetalCatmullRom"
       interpolator_beta="0.75"
       start_linecap_type="round"
       linejoin_type="spiro"
       miter_limit="4"
       scale_width="1"
       end_linecap_type="round" />
    <inkscape:path-effect
       effect="simplify"
       id="path-effect143"
       is_visible="true"
       lpeversion="1"
       steps="1"
       threshold="0.0028332064"
       smooth_angles="0"
       helper_size="0"
       simplify_individual_paths="false"
       simplify_just_coalesce="false"
       step="1" />
    <inkscape:path-effect
       effect="powerstroke"
       id="path-effect138"
       is_visible="true"
       lpeversion="1"
       offset_points="2.6880907,0.075169555"
       not_jump="true"
       sort_points="true"
       interpolator_type="CentripetalCatmullRom"
       interpolator_beta="0.75"
       start_linecap_type="round"
       linejoin_type="spiro"
       miter_limit="4"
       scale_width="1"
       end_linecap_type="round" />
    <inkscape:path-effect
       effect="simplify"
       id="path-effect136"
       is_visible="true"
       lpeversion="1"
       steps="1"
       threshold="0.0028332064"
       smooth_angles="0"
       helper_size="0"
       simplify_individual_paths="false"
       simplify_just_coalesce="false"
       step="1" />
    <inkscape:path-effect
       effect="powerstroke"
       id="path-effect131"
       is_visible="true"
       lpeversion="1"
       offset_points="1.9940581,0.075169555"
       not_jump="true"
       sort_points="true"
       interpolator_type="CentripetalCatmullRom"
       interpolator_beta="0.75"
       start_linecap_type="round"
       linejoin_type="spiro"
       miter_limit="4"
       scale_width="1"
       end_linecap_type="round" />
    <inkscape:path-effect
       effect="simplify"
       id="path-effect129"
       is_visible="true"
       lpeversion="1"
       steps="1"
       threshold="0.0028332064"
       smooth_angles="0"
       helper_size="0"
       simplify_individual_paths="false"
       simplify_just_coalesce="false"
       step="1" />
  </defs>
  <sodipodi:namedview
     id="base"
     pagecolor="#ffffff"
     bordercolor="#666666"
     borderopacity="1.0"
     inkscape:pageopacity="0.0"
     inkscape:pageshadow="2"
     inkscape:zoom="15.839192"
     inkscape:cx="1.894036"
     inkscape:cy="19.887378"
     inkscape:document-units="mm"
     inkscape:current-layer="layer1"
     showgrid="false"
     fit-margin-top="0"
     fit-margin-left="0"
     fit-margin-right="0"
     fit-margin-bottom="0"
     inkscape:window-width="1920"
     inkscape:window-height="1057"
     inkscape:window-x="1072"
     inkscape:window-y="321"
     inkscape:window-maximized="1"
     showguides="true"
     inkscape:guide-bbox="true"
     inkscape:snap-bbox="true"
     inkscape:bbox-nodes="true"
     inkscape:snap-nodes="false"
     inkscape:snap-others="false"
     inkscape:snap-page="true"
     inkscape:snap-grids="false"
     inkscape:snap-to-guides="false"
     inkscape:snap-global="false"
     inkscape:pagecheckerboard="0"
     inkscape:showpageshadow="2"
     inkscape:deskcolor="#d1d1d1">
    <sodipodi:guide
       position="-6.1806075,9.4988692"
       orientation="0,1"
       id="guide816"
       inkscape:locked="false" />
    <sodipodi:guide
       position="-4.4101636,10.646923"
       orientation="0,1"
       id="guide818"
       inkscape:locked="false" />
    <sodipodi:guide
       position="2.7595724,11.09577"
       orientation="1,0"
       id="guide820"
       inkscape:locked="false" />
    <sodipodi:guide
       position="3.6572659,10.942217"
       orientation="1,0"
       id="guide822"
       inkscape:locked="false" />
    <sodipodi:guide
       position="-0.051625511,9.7492299"
       orientation="1,0"
       id="guide1853"
       inkscape:locked="false" />
    <sodipodi:guide
       position="-2.3720169,3.0175835"
       orientation="0,1"
       id="guide1855"
       inkscape:locked="false" />
  </sodipodi:namedview>
  <metadata
     id="metadata1678">
    <rdf:RDF>
      <cc:Work
         rdf:about="">
        <dc:format>image/svg+xml</dc:format>
        <dc:type
           rdf:resource="http://purl.org/dc/dcmitype/StillImage" />
      </cc:Work>
    </rdf:RDF>
  </metadata>
  <g
     inkscape:label="Layer 1"
     inkscape:groupmode="layer"
     id="layer1"
     transform="translate(17.028496,-147.22856)">
    <path
       d="m -17.14302,150.49759 c -3.93e-4,0.53759 6.68e-4,1.0905 0.0059,2.12947 0.01264,0.53644 0.05907,1.12366 0.08693,1.69527 3.95e-4,0.0189 0.002,0.039 0.0044,0.0557 3.84e-4,0.003 7.94e-4,0.005 0.0012,0.008 9.05e-4,0.005 0.002,0.0112 0.0033,0.0169 9.46e-4,0.004 0.0022,0.009 0.0038,0.0137 0.0014,0.004 0.0041,0.0119 0.0086,0.0203 0.0023,0.004 0.0062,0.0109 0.01221,0.018 0.0031,0.004 0.0073,0.008 0.01282,0.0128 0.0055,0.005 0.01293,0.01 0.02252,0.0142 0.0097,0.004 0.02173,0.008 0.0355,0.009 0.01392,8.6e-4 0.0275,-0.001 0.03997,-0.006 0.01216,-0.004 0.02184,-0.0105 0.02917,-0.0165 0.0072,-0.006 0.01255,-0.0119 0.01635,-0.0168 0.0073,-0.009 0.01137,-0.0183 0.01353,-0.0236 0.0023,-0.006 0.0038,-0.0106 0.0047,-0.0143 0.0018,-0.007 0.0028,-0.0135 0.0033,-0.0182 0.0011,-0.009 0.0014,-0.0195 0.0015,-0.0294 6.5e-5,-0.0102 -1.82e-4,-0.0221 -7.46e-4,-0.0358 -0.0021,-0.14359 -0.01868,-0.28519 -0.03566,-0.43083 -0.01611,-0.13817 -0.03204,-0.27605 -0.03338,-0.41321 -0.0126,-0.32824 -0.01904,-0.65828 0.0021,-0.9845 0.02109,-0.32606 0.0695,-0.64522 0.164951,-0.95274 0.04607,-0.13626 0.100427,-0.27097 0.171577,-0.39078 0.03624,-0.061 0.07621,-0.11707 0.12077,-0.16713 0.04563,-0.0513 0.09577,-0.0959 0.151253,-0.13309 0.05715,-0.0381 0.121307,-0.0671 0.187582,-0.0862 0.06906,-0.0199 0.139421,-0.0287 0.206816,-0.0269 0.03956,0.001 0.07787,0.006 0.11435,0.0139 0.02879,0.006 0.05646,0.015 0.08278,0.0255 0.06254,0.0251 0.117745,0.0618 0.163704,0.10963 0.04366,0.05 0.08168,0.10746 0.113577,0.16737 0.03308,0.0621 0.06,0.12772 0.08278,0.1948 0.04697,0.13836 0.07734,0.2862 0.107264,0.42987 0.03071,0.18083 0.07346,0.35863 0.108004,0.54968 0.0014,0.008 0.0031,0.0153 0.0064,0.0224 0.0033,0.007 0.008,0.0133 0.01275,0.0195 0.0047,0.006 0.01011,0.0126 0.0162,0.0188 0.0051,0.005 0.01519,0.0148 0.02956,0.0224 0.0075,0.004 0.01937,0.009 0.0347,0.0112 0.01623,0.002 0.03622,7.2e-4 0.05627,-0.009 0.0096,-0.005 0.01788,-0.0104 0.02482,-0.0168 0.0069,-0.006 0.01211,-0.0129 0.0161,-0.019 0.0077,-0.0118 0.01156,-0.0229 0.01359,-0.0303 0.0038,-0.0142 0.0041,-0.0267 0.0041,-0.0332 -9e-6,-0.003 -1.32e-4,-0.007 -3.05e-4,-0.01 -2.16e-4,-0.004 -5.28e-4,-0.007 -8.75e-4,-0.0105 -0.0012,-0.0112 -0.0032,-0.023 -0.0051,-0.0334 -0.0039,-0.0213 -0.0086,-0.0437 -0.01119,-0.0606 -0.0013,-0.008 -0.0019,-0.0148 -0.0019,-0.0178 2e-6,-0.001 1.91e-4,-0.002 2.07e-4,2.9e-4 10e-6,0.001 -7.8e-5,0.006 -0.0022,0.0143 l 0.0037,-0.0307 c -0.0042,-0.14833 -0.0076,-0.30055 0.0097,-0.44592 0.0085,-0.071 0.02185,-0.13988 0.04227,-0.20584 0.0202,-0.0653 0.04729,-0.12767 0.08342,-0.18652 0.07093,-0.121 0.149264,-0.23708 0.241021,-0.3347 0.04578,-0.0487 0.09426,-0.0921 0.14592,-0.12885 0.05196,-0.0369 0.106952,-0.0669 0.165602,-0.0889 0.02927,-0.0111 0.05821,-0.0155 0.08706,-0.0148 0.02947,7e-4 0.05937,0.007 0.08842,0.0177 0.06099,0.0228 0.115104,0.0652 0.152902,0.11582 0.06836,0.084 0.121728,0.17088 0.166067,0.26082 0.03551,0.072 0.06645,0.1485 0.09386,0.22942 0.06018,0.17771 0.09978,0.36605 0.135745,0.56239 0.04795,0.27149 0.07126,0.54761 0.08965,0.82364 0.01992,0.29895 0.03239,0.56238 0.0615,0.84417 0.0151,0.18063 0.01934,0.293 0.01934,0.38446 a 0.11427142,0.11427142 90 0 0 0.228542,0 c 0,-0.0994 -0.0038,-0.21704 -0.01897,-0.40564 -0.02858,-0.27882 -0.04038,-0.53381 -0.06059,-0.83827 -0.01844,-0.2778 -0.04239,-0.56417 -0.0929,-0.84921 -0.0367,-0.19949 -0.07899,-0.40134 -0.145217,-0.59537 -0.03036,-0.0889 -0.06528,-0.17483 -0.106174,-0.25704 -0.05107,-0.10267 -0.113791,-0.20434 -0.192413,-0.29992 -0.06058,-0.0794 -0.150334,-0.14854 -0.254922,-0.18586 -0.05071,-0.0181 -0.105418,-0.0288 -0.162027,-0.0292 -0.05587,-3.9e-4 -0.113111,0.009 -0.169037,0.0315 -0.07711,0.0297 -0.148459,0.0699 -0.213771,0.11728 -0.06478,0.047 -0.123382,0.10099 -0.176713,0.15892 -0.106068,0.11523 -0.19234,0.24743 -0.264668,0.37402 -0.04459,0.0743 -0.07769,0.15344 -0.101558,0.23355 -0.02405,0.0807 -0.03876,0.16246 -0.04754,0.2431 -0.01739,0.15974 -0.01209,0.32328 -0.0065,0.4678 -3.17e-4,0.003 -4.83e-4,0.006 -5.7e-4,0.009 -2.69e-4,0.008 1.29e-4,0.0162 7e-4,0.0228 0.0011,0.0132 0.0034,0.0267 0.0056,0.0381 0.0041,0.0213 0.01112,0.0505 0.01425,0.0646 0.0023,0.0103 0.0029,0.0139 0.0038,0.0184 3.32e-4,-0.001 3.46e-4,-0.01 0.0032,-0.0202 0.0016,-0.006 0.0048,-0.0154 0.01178,-0.026 0.0036,-0.006 0.0085,-0.0116 0.01487,-0.0175 0.0065,-0.006 0.01429,-0.0115 0.02336,-0.0158 0.019,-0.009 0.03777,-0.0103 0.05262,-0.008 0.01395,0.002 0.02425,0.006 0.03002,0.01 0.01105,0.006 0.01652,0.0119 0.01681,0.0123 1.49e-4,1.6e-4 0.0015,0.002 -0.0015,-0.001 l 0.01918,0.0419 c -0.0396,-0.19807 -0.08603,-0.37339 -0.119493,-0.54873 -0.03176,-0.14372 -0.06599,-0.30234 -0.118443,-0.4522 -0.02574,-0.0735 -0.05681,-0.1479 -0.0958,-0.21985 -0.03766,-0.0695 -0.08336,-0.13798 -0.140043,-0.20206 -0.06661,-0.0688 -0.142633,-0.11855 -0.226757,-0.15212 -0.03529,-0.0141 -0.07189,-0.0253 -0.109472,-0.0336 -0.0476,-0.0105 -0.09685,-0.0165 -0.146974,-0.0178 -0.08525,-0.002 -0.173101,0.009 -0.258761,0.0332 -0.08216,0.0234 -0.162736,0.0593 -0.23595,0.10769 -0.06905,0.0459 -0.130314,0.10008 -0.185088,0.16088 -0.0534,0.0593 -0.100185,0.12432 -0.141683,0.1931 -0.08103,0.13429 -0.141149,0.28154 -0.191095,0.4252 -0.102748,0.32648 -0.154327,0.66016 -0.177501,0.99623 -0.02315,0.33578 -0.01787,0.67345 -0.0067,1.00051 -1.27e-4,0.14587 0.01564,0.29379 0.03026,0.43065 0.01576,0.14755 0.02982,0.27947 0.03066,0.41359 2.36e-4,0.0133 1.34e-4,0.0219 -1.24e-4,0.0279 -2.59e-4,0.006 -7.88e-4,0.01 -7.48e-4,0.008 1.1e-5,-3.7e-4 2e-4,-0.003 0.0014,-0.008 5.81e-4,-0.002 0.0017,-0.006 0.0036,-0.0109 0.0018,-0.004 0.0055,-0.0124 0.01231,-0.0213 0.0036,-0.005 0.0087,-0.0105 0.01571,-0.0161 0.0071,-0.006 0.01658,-0.0118 0.02851,-0.0161 0.01225,-0.004 0.02561,-0.006 0.0393,-0.006 0.01355,8.4e-4 0.0253,0.004 0.03482,0.009 0.0094,0.004 0.0166,0.009 0.02182,0.0137 0.0053,0.004 0.0092,0.009 0.01211,0.0121 0.0055,0.007 0.009,0.0125 0.01076,0.0158 0.0035,0.007 0.0053,0.0117 0.0057,0.0129 -0.0011,-0.0132 -0.0021,-0.0258 -0.0023,-0.0409 -0.02755,-0.57909 -0.07378,-1.16415 -0.08646,-1.69147 -0.0056,-1.03003 -0.0074,-1.59622 -0.007,-2.12642 a 0.09958987,0.09958987 90 0 0 -0.19918,-1.4e-4 z"
       id="path-1"
       inkscape:path-effect="#path-effect563;#path-effect565"
       inkscape:original-d="m -17.04343,150.49766 c -9.5e-4,0.40039 6.5e-5,0.80076 0.003,1.20113 0.0032,0.44019 -0.0067,0.87949 0.01679,1.31945 0.01656,0.30995 0.0349,0.62055 0.05332,0.93062 0.0064,0.10831 0.01001,0.217 0.01679,0.32523 0.0026,0.0422 0.0133,0.16827 0.0158,0.12601 0.01391,-0.23521 -0.04065,-0.48262 -0.05332,-0.71752 -0.04297,-0.7966 -0.06976,-2.10581 0.476943,-2.74832 0.285184,-0.33516 0.862691,-0.39806 1.113856,0 0.217597,0.34486 0.247609,0.8011 0.348574,1.18842 0.01057,0.0405 0.0036,0.0912 0.03259,0.12139 0.02503,0.026 -0.0067,-0.0719 -0.0099,-0.1079 -0.0077,-0.0866 -0.0071,-0.13244 -0.0079,-0.23198 -0.0015,-0.17903 0.0043,-0.35845 0.06221,-0.53025 0.121769,-0.36115 0.685074,-1.13071 1.116818,-0.67629 0.467954,0.49254 0.527272,1.66052 0.561865,2.30401 0.01622,0.30164 0.06024,0.60302 0.06024,0.90519"
       style="fill:#000000;fill-rule:nonzero;stroke:none" />
  </g>
</svg>
