<?xml version="1.0" encoding="UTF-8" standalone="no"?>
<!-- Created with Inkscape (http://www.inkscape.org/) -->

<svg
   width="4mm"
   height="10mm"
   viewBox="0 0 4.0000001 9.9999994"
   version="1.1"
   id="svg1681"
   inkscape:version="1.2.1 (9c6d41e410, 2022-07-14)"
   sodipodi:docname="lower_m_14.svg"
   inkscape:export-filename="..\..\..\..\Downloads\lower a diff canvas resize 3.0.png"
   inkscape:export-xdpi="96"
   inkscape:export-ydpi="96"
   xmlns:inkscape="http://www.inkscape.org/namespaces/inkscape"
   xmlns:sodipodi="http://sodipodi.sourceforge.net/DTD/sodipodi-0.dtd"
   xmlns="http://www.w3.org/2000/svg"
   xmlns:svg="http://www.w3.org/2000/svg"
   xmlns:rdf="http://www.w3.org/1999/02/22-rdf-syntax-ns#"
   xmlns:cc="http://creativecommons.org/ns#"
   xmlns:dc="http://purl.org/dc/elements/1.1/">
  <defs
     id="defs1675">
    <inkscape:path-effect
       effect="powerstroke"
       id="path-effect1077"
       is_visible="true"
       lpeversion="1"
       offset_points="1.7094205,0.097639692 | 7.3790741,0.10946718"
       not_jump="true"
       sort_points="true"
       interpolator_type="CentripetalCatmullRom"
       interpolator_beta="0.75"
       start_linecap_type="round"
       linejoin_type="spiro"
       miter_limit="4"
       scale_width="1"
       end_linecap_type="round" />
    <inkscape:path-effect
       effect="simplify"
       id="path-effect1075"
       is_visible="true"
       lpeversion="1"
       steps="1"
       threshold="0.0047745358"
       smooth_angles="0"
       helper_size="0"
       simplify_individual_paths="false"
       simplify_just_coalesce="false"
       step="1" />
    <inkscape:path-effect
       effect="powerstroke"
       id="path-effect1006"
       is_visible="true"
       lpeversion="1"
       offset_points="1.7474915,0.11231388 | 8.5867742,0.1020368 | 11.77786,0.11965466"
       not_jump="true"
       sort_points="true"
       interpolator_type="CentripetalCatmullRom"
       interpolator_beta="0.75"
       start_linecap_type="round"
       linejoin_type="spiro"
       miter_limit="4"
       scale_width="1"
       end_linecap_type="round" />
    <inkscape:path-effect
       effect="simplify"
       id="path-effect1004"
       is_visible="true"
       lpeversion="1"
       steps="1"
       threshold="0.0047745358"
       smooth_angles="0"
       helper_size="0"
       simplify_individual_paths="false"
       simplify_just_coalesce="false"
       step="1" />
    <inkscape:path-effect
       effect="powerstroke"
       id="path-effect937"
       is_visible="true"
       lpeversion="1"
       offset_points="2.0056585,0.10130272 | 9.9211025,0.12038874"
       not_jump="true"
       sort_points="true"
       interpolator_type="CentripetalCatmullRom"
       interpolator_beta="0.75"
       start_linecap_type="round"
       linejoin_type="spiro"
       miter_limit="4"
       scale_width="1"
       end_linecap_type="round" />
    <inkscape:path-effect
       effect="simplify"
       id="path-effect935"
       is_visible="true"
       lpeversion="1"
       steps="1"
       threshold="0.0047745358"
       smooth_angles="0"
       helper_size="0"
       simplify_individual_paths="false"
       simplify_just_coalesce="false"
       step="1" />
    <inkscape:path-effect
       effect="powerstroke"
       id="path-effect870"
       is_visible="true"
       lpeversion="1"
       offset_points="1.6396908,0.11549489 | 9.4731523,0.13286806 | 11.658012,0.14852838"
       not_jump="true"
       sort_points="true"
       interpolator_type="CentripetalCatmullRom"
       interpolator_beta="0.75"
       start_linecap_type="round"
       linejoin_type="spiro"
       miter_limit="4"
       scale_width="1"
       end_linecap_type="round" />
    <inkscape:path-effect
       effect="simplify"
       id="path-effect868"
       is_visible="true"
       lpeversion="1"
       steps="1"
       threshold="0.0047745358"
       smooth_angles="0"
       helper_size="0"
       simplify_individual_paths="false"
       simplify_just_coalesce="false"
       step="1" />
    <inkscape:path-effect
       effect="powerstroke"
       id="path-effect805"
       is_visible="true"
       lpeversion="1"
       offset_points="1.3207447,0.13115521 | 10.325754,0.14706023"
       not_jump="true"
       sort_points="true"
       interpolator_type="CentripetalCatmullRom"
       interpolator_beta="0.75"
       start_linecap_type="round"
       linejoin_type="spiro"
       miter_limit="4"
       scale_width="1"
       end_linecap_type="round" />
    <inkscape:path-effect
       effect="simplify"
       id="path-effect803"
       is_visible="true"
       lpeversion="1"
       steps="1"
       threshold="0.0047745358"
       smooth_angles="0"
       helper_size="0"
       simplify_individual_paths="false"
       simplify_just_coalesce="false"
       step="1" />
    <inkscape:path-effect
       effect="powerstroke"
       id="path-effect742"
       is_visible="true"
       lpeversion="1"
       offset_points="2.3665113,0.09371725 | 7.9063398,0.10448372"
       not_jump="true"
       sort_points="true"
       interpolator_type="CentripetalCatmullRom"
       interpolator_beta="0.75"
       start_linecap_type="round"
       linejoin_type="spiro"
       miter_limit="4"
       scale_width="1"
       end_linecap_type="round" />
    <inkscape:path-effect
       effect="simplify"
       id="path-effect740"
       is_visible="true"
       lpeversion="1"
       steps="1"
       threshold="0.0047745358"
       smooth_angles="0"
       helper_size="0"
       simplify_individual_paths="false"
       simplify_just_coalesce="false"
       step="1" />
    <inkscape:path-effect
       effect="powerstroke"
       id="path-effect681"
       is_visible="true"
       lpeversion="1"
       offset_points="2.217234,0.10252618 | 8.9442199,0.11769712"
       not_jump="true"
       sort_points="true"
       interpolator_type="CentripetalCatmullRom"
       interpolator_beta="0.75"
       start_linecap_type="round"
       linejoin_type="spiro"
       miter_limit="4"
       scale_width="1"
       end_linecap_type="round" />
    <inkscape:path-effect
       effect="simplify"
       id="path-effect679"
       is_visible="true"
       lpeversion="1"
       steps="1"
       threshold="0.0047745358"
       smooth_angles="0"
       helper_size="0"
       simplify_individual_paths="false"
       simplify_just_coalesce="false"
       step="1" />
    <inkscape:path-effect
       effect="powerstroke"
       id="path-effect622"
       is_visible="true"
       lpeversion="1"
       offset_points="1.7202203,0.1083988"
       not_jump="true"
       sort_points="true"
       interpolator_type="CentripetalCatmullRom"
       interpolator_beta="0.75"
       start_linecap_type="round"
       linejoin_type="spiro"
       miter_limit="4"
       scale_width="1"
       end_linecap_type="round" />
    <inkscape:path-effect
       effect="simplify"
       id="path-effect620"
       is_visible="true"
       lpeversion="1"
       steps="1"
       threshold="0.0047745358"
       smooth_angles="0"
       helper_size="0"
       simplify_individual_paths="false"
       simplify_just_coalesce="false"
       step="1" />
    <inkscape:path-effect
       effect="powerstroke"
       id="path-effect565"
       is_visible="true"
       lpeversion="1"
       offset_points="2.2898405,0.099589871 | 6.6413189,0.085887088 | 9.3403103,0.097877023 | 13.278467,0.11427142"
       not_jump="true"
       sort_points="true"
       interpolator_type="CentripetalCatmullRom"
       interpolator_beta="0.75"
       start_linecap_type="round"
       linejoin_type="spiro"
       miter_limit="4"
       scale_width="1"
       end_linecap_type="round" />
    <inkscape:path-effect
       effect="simplify"
       id="path-effect563"
       is_visible="true"
       lpeversion="1"
       steps="1"
       threshold="0.0047745358"
       smooth_angles="0"
       helper_size="0"
       simplify_individual_paths="false"
       simplify_just_coalesce="false"
       step="1" />
    <inkscape:path-effect
       effect="powerstroke"
       id="path-effect510"
       is_visible="true"
       lpeversion="1"
       offset_points="1.9176024,0.17666803 | 6.6799515,0.12405913 | 8.9071225,0.13923007 | 11.94271,0.12626136 | 14.359274,0.148039"
       not_jump="true"
       sort_points="true"
       interpolator_type="CentripetalCatmullRom"
       interpolator_beta="0.75"
       start_linecap_type="round"
       linejoin_type="spiro"
       miter_limit="4"
       scale_width="1"
       end_linecap_type="round" />
    <inkscape:path-effect
       effect="simplify"
       id="path-effect508"
       is_visible="true"
       lpeversion="1"
       steps="1"
       threshold="0.0047745358"
       smooth_angles="0"
       helper_size="0"
       simplify_individual_paths="false"
       simplify_just_coalesce="false"
       step="1" />
    <inkscape:path-effect
       effect="powerstroke"
       id="path-effect457"
       is_visible="true"
       lpeversion="1"
       offset_points="1.698284,0.11157981"
       not_jump="true"
       sort_points="true"
       interpolator_type="CentripetalCatmullRom"
       interpolator_beta="0.75"
       start_linecap_type="round"
       linejoin_type="spiro"
       miter_limit="4"
       scale_width="1"
       end_linecap_type="round" />
    <inkscape:path-effect
       effect="simplify"
       id="path-effect455"
       is_visible="true"
       lpeversion="1"
       steps="1"
       threshold="0.0047745358"
       smooth_angles="0"
       helper_size="0"
       simplify_individual_paths="false"
       simplify_just_coalesce="false"
       step="1" />
    <inkscape:path-effect
       effect="powerstroke"
       id="path-effect450"
       is_visible="true"
       lpeversion="1"
       offset_points="2.3032336,0.10448372 | 5.4261225,0.1216122 | 9.9205125,0.13971945"
       not_jump="true"
       sort_points="true"
       interpolator_type="CentripetalCatmullRom"
       interpolator_beta="0.75"
       start_linecap_type="round"
       linejoin_type="spiro"
       miter_limit="4"
       scale_width="1"
       end_linecap_type="round" />
    <inkscape:path-effect
       effect="simplify"
       id="path-effect448"
       is_visible="true"
       lpeversion="1"
       steps="1"
       threshold="0.0047745358"
       smooth_angles="0"
       helper_size="0"
       simplify_individual_paths="false"
       simplify_just_coalesce="false"
       step="1" />
    <inkscape:path-effect
       effect="powerstroke"
       id="path-effect401"
       is_visible="true"
       lpeversion="1"
       offset_points="1.919598,0.085642395 | 7.1414337,0.095185405 | 11.392776,0.11084573"
       not_jump="true"
       sort_points="true"
       interpolator_type="CentripetalCatmullRom"
       interpolator_beta="0.75"
       start_linecap_type="round"
       linejoin_type="spiro"
       miter_limit="4"
       scale_width="1"
       end_linecap_type="round" />
    <inkscape:path-effect
       effect="simplify"
       id="path-effect399"
       is_visible="true"
       lpeversion="1"
       steps="1"
       threshold="0.0047745358"
       smooth_angles="0"
       helper_size="0"
       simplify_individual_paths="false"
       simplify_just_coalesce="false"
       step="1" />
    <inkscape:path-effect
       effect="powerstroke"
       id="path-effect354"
       is_visible="true"
       lpeversion="1"
       offset_points="1.8669648,0.097632331 | 3.3867434,0.08319547 | 6.5616288,0.10448372"
       not_jump="true"
       sort_points="true"
       interpolator_type="CentripetalCatmullRom"
       interpolator_beta="0.75"
       start_linecap_type="round"
       linejoin_type="spiro"
       miter_limit="4"
       scale_width="1"
       end_linecap_type="round" />
    <inkscape:path-effect
       effect="simplify"
       id="path-effect352"
       is_visible="true"
       lpeversion="1"
       steps="1"
       threshold="0.0047745358"
       smooth_angles="0"
       helper_size="0"
       simplify_individual_paths="false"
       simplify_just_coalesce="false"
       step="1" />
    <inkscape:path-effect
       effect="powerstroke"
       id="path-effect309"
       is_visible="true"
       lpeversion="1"
       offset_points="1.7013678,0.12014405 | 7.8476699,0.13580437"
       not_jump="true"
       sort_points="true"
       interpolator_type="CentripetalCatmullRom"
       interpolator_beta="0.75"
       start_linecap_type="round"
       linejoin_type="spiro"
       miter_limit="4"
       scale_width="1"
       end_linecap_type="round" />
    <inkscape:path-effect
       effect="simplify"
       id="path-effect307"
       is_visible="true"
       lpeversion="1"
       steps="1"
       threshold="0.0047745358"
       smooth_angles="0"
       helper_size="0"
       simplify_individual_paths="false"
       simplify_just_coalesce="false"
       step="1" />
    <inkscape:path-effect
       effect="powerstroke"
       id="path-effect302"
       is_visible="true"
       lpeversion="1"
       offset_points="2.2193262,0.1282189"
       not_jump="true"
       sort_points="true"
       interpolator_type="CentripetalCatmullRom"
       interpolator_beta="0.75"
       start_linecap_type="round"
       linejoin_type="spiro"
       miter_limit="4"
       scale_width="1"
       end_linecap_type="round" />
    <inkscape:path-effect
       effect="simplify"
       id="path-effect300"
       is_visible="true"
       lpeversion="1"
       steps="1"
       threshold="0.0047745358"
       smooth_angles="0"
       helper_size="0"
       simplify_individual_paths="false"
       simplify_just_coalesce="false"
       step="1" />
    <inkscape:path-effect
       effect="powerstroke"
       id="path-effect329"
       is_visible="true"
       lpeversion="1"
       offset_points="2.036852,0.12799523 | 9.038239,0.16903718 | 11.263778,0.13750213"
       not_jump="true"
       sort_points="true"
       interpolator_type="CentripetalCatmullRom"
       interpolator_beta="0.75"
       start_linecap_type="round"
       linejoin_type="spiro"
       miter_limit="4"
       scale_width="1"
       end_linecap_type="round" />
    <inkscape:path-effect
       effect="simplify"
       id="path-effect327"
       is_visible="true"
       lpeversion="1"
       steps="1"
       threshold="0.0035951417"
       smooth_angles="0"
       helper_size="0"
       simplify_individual_paths="false"
       simplify_just_coalesce="false"
       step="1" />
    <inkscape:path-effect
       effect="powerstroke"
       id="path-effect502"
       is_visible="true"
       lpeversion="1"
       offset_points="3.0091841,0.21607495 | 7.3602657,0.17554228 | 9.4159651,0.20236537"
       not_jump="true"
       sort_points="true"
       interpolator_type="CentripetalCatmullRom"
       interpolator_beta="0.75"
       start_linecap_type="round"
       linejoin_type="spiro"
       miter_limit="4"
       scale_width="1"
       end_linecap_type="round" />
    <inkscape:path-effect
       effect="simplify"
       id="path-effect500"
       is_visible="true"
       lpeversion="1"
       steps="1"
       threshold="0.0035951417"
       smooth_angles="0"
       helper_size="0"
       simplify_individual_paths="false"
       simplify_just_coalesce="false"
       step="1" />
    <inkscape:path-effect
       effect="powerstroke"
       id="path-effect241"
       is_visible="true"
       lpeversion="1"
       offset_points="2.6879454,0.34086734"
       not_jump="true"
       sort_points="true"
       interpolator_type="CentripetalCatmullRom"
       interpolator_beta="0.75"
       start_linecap_type="round"
       linejoin_type="spiro"
       miter_limit="4"
       scale_width="1"
       end_linecap_type="round" />
    <inkscape:path-effect
       effect="simplify"
       id="path-effect239"
       is_visible="true"
       lpeversion="1"
       steps="1"
       threshold="0.0028332064"
       smooth_angles="0"
       helper_size="0"
       simplify_individual_paths="false"
       simplify_just_coalesce="false"
       step="1" />
    <inkscape:path-effect
       effect="powerstroke"
       id="path-effect234"
       is_visible="true"
       lpeversion="1"
       offset_points="2.13563,0.075169555"
       not_jump="true"
       sort_points="true"
       interpolator_type="CentripetalCatmullRom"
       interpolator_beta="0.75"
       start_linecap_type="round"
       linejoin_type="spiro"
       miter_limit="4"
       scale_width="1"
       end_linecap_type="round" />
    <inkscape:path-effect
       effect="simplify"
       id="path-effect232"
       is_visible="true"
       lpeversion="1"
       steps="1"
       threshold="0.0028332064"
       smooth_angles="0"
       helper_size="0"
       simplify_individual_paths="false"
       simplify_just_coalesce="false"
       step="1" />
    <inkscape:path-effect
       effect="powerstroke"
       id="path-effect227"
       is_visible="true"
       lpeversion="1"
       offset_points="2.1868266,0.075169555"
       not_jump="true"
       sort_points="true"
       interpolator_type="CentripetalCatmullRom"
       interpolator_beta="0.75"
       start_linecap_type="round"
       linejoin_type="spiro"
       miter_limit="4"
       scale_width="1"
       end_linecap_type="round" />
    <inkscape:path-effect
       effect="simplify"
       id="path-effect225"
       is_visible="true"
       lpeversion="1"
       steps="1"
       threshold="0.0028332064"
       smooth_angles="0"
       helper_size="0"
       simplify_individual_paths="false"
       simplify_just_coalesce="false"
       step="1" />
    <inkscape:path-effect
       effect="powerstroke"
       id="path-effect166"
       is_visible="true"
       lpeversion="1"
       offset_points="1.9637935,0.075169555"
       not_jump="true"
       sort_points="true"
       interpolator_type="CentripetalCatmullRom"
       interpolator_beta="0.75"
       start_linecap_type="round"
       linejoin_type="spiro"
       miter_limit="4"
       scale_width="1"
       end_linecap_type="round" />
    <inkscape:path-effect
       effect="simplify"
       id="path-effect164"
       is_visible="true"
       lpeversion="1"
       steps="1"
       threshold="0.0028332064"
       smooth_angles="0"
       helper_size="0"
       simplify_individual_paths="false"
       simplify_just_coalesce="false"
       step="1" />
    <inkscape:path-effect
       effect="powerstroke"
       id="path-effect159"
       is_visible="true"
       lpeversion="1"
       offset_points="2.2611036,0.075169555"
       not_jump="true"
       sort_points="true"
       interpolator_type="CentripetalCatmullRom"
       interpolator_beta="0.75"
       start_linecap_type="round"
       linejoin_type="spiro"
       miter_limit="4"
       scale_width="1"
       end_linecap_type="round" />
    <inkscape:path-effect
       effect="simplify"
       id="path-effect157"
       is_visible="true"
       lpeversion="1"
       steps="1"
       threshold="0.0028332064"
       smooth_angles="0"
       helper_size="0"
       simplify_individual_paths="false"
       simplify_just_coalesce="false"
       step="1" />
    <inkscape:path-effect
       effect="powerstroke"
       id="path-effect152"
       is_visible="true"
       lpeversion="1"
       offset_points="2.826981,0.075169555"
       not_jump="true"
       sort_points="true"
       interpolator_type="CentripetalCatmullRom"
       interpolator_beta="0.75"
       start_linecap_type="round"
       linejoin_type="spiro"
       miter_limit="4"
       scale_width="1"
       end_linecap_type="round" />
    <inkscape:path-effect
       effect="simplify"
       id="path-effect150"
       is_visible="true"
       lpeversion="1"
       steps="1"
       threshold="0.0028332064"
       smooth_angles="0"
       helper_size="0"
       simplify_individual_paths="false"
       simplify_just_coalesce="false"
       step="1" />
    <inkscape:path-effect
       effect="powerstroke"
       id="path-effect145"
       is_visible="true"
       lpeversion="1"
       offset_points="3.8374447,0.075169555"
       not_jump="true"
       sort_points="true"
       interpolator_type="CentripetalCatmullRom"
       interpolator_beta="0.75"
       start_linecap_type="round"
       linejoin_type="spiro"
       miter_limit="4"
       scale_width="1"
       end_linecap_type="round" />
    <inkscape:path-effect
       effect="simplify"
       id="path-effect143"
       is_visible="true"
       lpeversion="1"
       steps="1"
       threshold="0.0028332064"
       smooth_angles="0"
       helper_size="0"
       simplify_individual_paths="false"
       simplify_just_coalesce="false"
       step="1" />
    <inkscape:path-effect
       effect="powerstroke"
       id="path-effect138"
       is_visible="true"
       lpeversion="1"
       offset_points="2.6880907,0.075169555"
       not_jump="true"
       sort_points="true"
       interpolator_type="CentripetalCatmullRom"
       interpolator_beta="0.75"
       start_linecap_type="round"
       linejoin_type="spiro"
       miter_limit="4"
       scale_width="1"
       end_linecap_type="round" />
    <inkscape:path-effect
       effect="simplify"
       id="path-effect136"
       is_visible="true"
       lpeversion="1"
       steps="1"
       threshold="0.0028332064"
       smooth_angles="0"
       helper_size="0"
       simplify_individual_paths="false"
       simplify_just_coalesce="false"
       step="1" />
    <inkscape:path-effect
       effect="powerstroke"
       id="path-effect131"
       is_visible="true"
       lpeversion="1"
       offset_points="1.9940581,0.075169555"
       not_jump="true"
       sort_points="true"
       interpolator_type="CentripetalCatmullRom"
       interpolator_beta="0.75"
       start_linecap_type="round"
       linejoin_type="spiro"
       miter_limit="4"
       scale_width="1"
       end_linecap_type="round" />
    <inkscape:path-effect
       effect="simplify"
       id="path-effect129"
       is_visible="true"
       lpeversion="1"
       steps="1"
       threshold="0.0028332064"
       smooth_angles="0"
       helper_size="0"
       simplify_individual_paths="false"
       simplify_just_coalesce="false"
       step="1" />
  </defs>
  <sodipodi:namedview
     id="base"
     pagecolor="#ffffff"
     bordercolor="#666666"
     borderopacity="1.0"
     inkscape:pageopacity="0.0"
     inkscape:pageshadow="2"
     inkscape:zoom="15.839192"
     inkscape:cx="1.6730651"
     inkscape:cy="19.887378"
     inkscape:document-units="mm"
     inkscape:current-layer="layer1"
     showgrid="false"
     fit-margin-top="0"
     fit-margin-left="0"
     fit-margin-right="0"
     fit-margin-bottom="0"
     inkscape:window-width="1920"
     inkscape:window-height="1057"
     inkscape:window-x="1072"
     inkscape:window-y="321"
     inkscape:window-maximized="1"
     showguides="true"
     inkscape:guide-bbox="true"
     inkscape:snap-bbox="true"
     inkscape:bbox-nodes="true"
     inkscape:snap-nodes="false"
     inkscape:snap-others="false"
     inkscape:snap-page="true"
     inkscape:snap-grids="false"
     inkscape:snap-to-guides="false"
     inkscape:snap-global="false"
     inkscape:pagecheckerboard="0"
     inkscape:showpageshadow="2"
     inkscape:deskcolor="#d1d1d1">
    <sodipodi:guide
       position="-6.1806075,9.4988692"
       orientation="0,1"
       id="guide816"
       inkscape:locked="false" />
    <sodipodi:guide
       position="-4.4101636,10.646923"
       orientation="0,1"
       id="guide818"
       inkscape:locked="false" />
    <sodipodi:guide
       position="2.7595724,11.09577"
       orientation="1,0"
       id="guide820"
       inkscape:locked="false" />
    <sodipodi:guide
       position="3.6572659,10.942217"
       orientation="1,0"
       id="guide822"
       inkscape:locked="false" />
    <sodipodi:guide
       position="-0.051625511,9.7492299"
       orientation="1,0"
       id="guide1853"
       inkscape:locked="false" />
    <sodipodi:guide
       position="-2.3720169,3.0175835"
       orientation="0,1"
       id="guide1855"
       inkscape:locked="false" />
  </sodipodi:namedview>
  <metadata
     id="metadata1678">
    <rdf:RDF>
      <cc:Work
         rdf:about="">
        <dc:format>image/svg+xml</dc:format>
        <dc:type
           rdf:resource="http://purl.org/dc/dcmitype/StillImage" />
      </cc:Work>
    </rdf:RDF>
  </metadata>
  <g
     inkscape:label="Layer 1"
     inkscape:groupmode="layer"
     id="layer1"
     transform="translate(17.028496,-147.22856)">
    <path
       d="m -17.159369,151.24032 c 0.05792,0.2053 0.113652,0.47646 0.14295,0.87485 0.02116,0.28772 0.02395,0.5519 0.03021,0.90217 0.0074,0.28174 0.01622,0.53152 0.02602,0.83986 0.0034,0.1084 0.007,0.22495 0.01021,0.34302 l 0.195879,-0.008 c -0.008,-0.16037 -0.02277,-0.32859 -0.03204,-0.5025 -0.0084,-0.15758 -0.01208,-0.32315 0.0027,-0.48855 0.01242,-0.22897 0.02545,-0.47075 0.06517,-0.70154 0.03806,-0.22111 0.101349,-0.43821 0.21626,-0.63602 0.07374,-0.12244 0.172757,-0.23982 0.290742,-0.33003 0.05757,-0.044 0.11928,-0.0813 0.184353,-0.10956 0.06426,-0.0279 0.13185,-0.0472 0.20223,-0.0556 0.111339,-0.0141 0.225804,0.006 0.329094,0.0543 0.101983,0.0481 0.190669,0.12361 0.251423,0.21847 0.09844,0.1491 0.160294,0.31627 0.202659,0.49534 0.0425,0.17963 0.06453,0.36721 0.08491,0.55546 0.0084,0.0884 0.01547,0.17864 0.02261,0.26911 0.01078,0.13671 0.02321,0.29567 0.04264,0.45048 0.0023,0.0185 0.0047,0.0371 0.0095,0.0551 0.0048,0.018 0.01203,0.0356 0.02278,0.0508 0.01075,0.0152 0.02506,0.0281 0.04181,0.0363 0.01675,0.008 0.03585,0.0116 0.05438,0.009 0.01852,-0.002 0.03629,-0.01 0.05066,-0.0219 0.01437,-0.0119 0.02529,-0.0277 0.03221,-0.045 0.0069,-0.0173 0.0099,-0.036 0.01046,-0.0547 5.23e-4,-0.0186 -0.0014,-0.0373 -0.0034,-0.0558 -0.0015,-0.0144 -0.0029,-0.0286 -0.0039,-0.0404 -5.03e-4,-0.006 -9.11e-4,-0.0107 -0.0012,-0.0146 -2.84e-4,-0.004 -4.44e-4,-0.007 -4.22e-4,-0.007 5.7e-5,0.001 10e-5,0.003 4.2e-5,0.005 -2.9e-5,0.001 -9.9e-5,0.003 -3.15e-4,0.006 -1.11e-4,0.001 -2.9e-4,0.003 -5.86e-4,0.005 -2.81e-4,0.002 -7.8e-4,0.005 -0.0017,0.009 -7.8e-4,0.003 -0.0025,0.0104 -0.006,0.0187 -0.0018,0.004 -0.0047,0.0104 -0.0091,0.0172 -0.0043,0.007 -0.01156,0.0162 -0.02282,0.0254 -0.0058,0.005 -0.0129,0.01 -0.0214,0.0137 -0.0086,0.004 -0.01827,0.007 -0.02888,0.009 -0.02209,0.004 -0.0425,6.9e-4 -0.059,-0.006 -0.01556,-0.006 -0.02668,-0.0143 -0.03358,-0.0205 -0.007,-0.006 -0.01198,-0.0123 -0.01513,-0.0165 -0.0061,-0.008 -0.0097,-0.0154 -0.01132,-0.0188 -0.0019,-0.004 -0.0032,-0.007 -0.0039,-0.009 -0.0015,-0.004 -0.0024,-0.007 -0.0028,-0.009 -8.44e-4,-0.003 -0.0013,-0.006 -0.0014,-0.006 -2.99e-4,-0.001 -3.3e-4,-0.002 -1.73e-4,-7.1e-4 3.08e-4,0.002 8.25e-4,0.006 0.0017,0.013 8.23e-4,0.007 0.0019,0.0154 0.0032,0.0267 0.0029,0.0167 0.004,0.0258 0.0046,0.0332 2.78e-4,0.004 3.56e-4,0.006 3.56e-4,0.007 4.6e-5,-0.001 1.69e-4,-0.004 7.33e-4,-0.007 2.9e-4,-0.002 8.06e-4,-0.005 0.0017,-0.009 8.54e-4,-0.003 0.0025,-0.009 0.0055,-0.0162 0.0016,-0.004 0.0038,-0.008 0.0069,-0.0131 0.003,-0.005 0.0075,-0.0113 0.01362,-0.0178 0.0062,-0.007 0.01482,-0.014 0.02628,-0.0204 0.01174,-0.007 0.02563,-0.0115 0.04115,-0.0132 0.01548,-0.002 0.02991,-6e-5 0.04246,0.004 0.01224,0.003 0.02203,0.009 0.02931,0.0133 0.0072,0.005 0.01282,0.01 0.01683,0.0134 0.004,0.004 0.0072,0.008 0.0095,0.0106 0.0045,0.006 0.0074,0.0106 0.009,0.0136 0.0017,0.003 0.0029,0.006 0.0036,0.007 0.0015,0.003 0.0018,0.005 0.0019,0.005 -0.0017,-0.006 -0.0031,-0.0121 -0.005,-0.0212 -0.03748,-0.17058 -0.05179,-0.34574 -0.04922,-0.52435 0.0025,-0.17719 0.02166,-0.35598 0.05043,-0.53353 0.02845,-0.1478 0.06384,-0.29744 0.118321,-0.43513 0.02723,-0.0688 0.0589,-0.13378 0.09631,-0.19373 0.03758,-0.0602 0.08086,-0.11526 0.131153,-0.16414 0.05023,-0.0486 0.113959,-0.0839 0.1791,-0.0995 0.03288,-0.008 0.06545,-0.0107 0.09665,-0.008 0.03155,0.002 0.06196,0.0101 0.09062,0.0235 0.0039,0.002 0.0079,0.003 0.01204,0.005 0.06145,0.0203 0.117929,0.0493 0.169842,0.0848 0.05306,0.0363 0.101551,0.0797 0.145647,0.1279 0.09177,0.10041 0.16366,0.22113 0.217629,0.34185 0.112249,0.25415 0.181584,0.51842 0.227396,0.77525 0.04988,0.27961 0.07389,0.56347 0.08987,0.81954 0.0049,0.0893 0.0077,0.16596 0.0092,0.22043 a 0.10946718,0.10946718 90 0 0 0.218844,-0.006 c -0.0016,-0.0557 -0.0043,-0.13438 -0.0091,-0.22684 -0.01612,-0.25973 -0.04064,-0.55339 -0.09261,-0.84536 -0.04778,-0.26845 -0.121166,-0.55075 -0.242604,-0.82597 -0.06093,-0.13655 -0.144476,-0.27892 -0.256022,-0.40113 -0.05391,-0.0591 -0.114949,-0.11405 -0.183707,-0.16118 -0.0658,-0.0451 -0.13873,-0.0831 -0.219073,-0.11036 -0.05197,-0.0234 -0.10631,-0.0367 -0.161011,-0.041 -0.05587,-0.004 -0.111597,7.9e-4 -0.165197,0.0136 -0.104879,0.0252 -0.203488,0.0804 -0.281306,0.1555 -0.06469,0.0628 -0.118936,0.13214 -0.164925,0.20579 -0.04569,0.0732 -0.08313,0.15042 -0.114403,0.2294 -0.0621,0.1568 -0.100597,0.32226 -0.130543,0.47793 -0.0306,0.18833 -0.05113,0.37825 -0.05387,0.56895 -0.0028,0.19235 0.01258,0.38489 0.05415,0.57389 0.0022,0.0104 0.0046,0.0208 0.007,0.0297 0.0012,0.005 0.0026,0.009 0.004,0.0137 0.0014,0.004 0.0034,0.01 0.0059,0.0156 0.0013,0.003 0.0031,0.007 0.0053,0.0108 0.0022,0.004 0.0056,0.01 0.01061,0.0161 0.0026,0.003 0.006,0.007 0.01024,0.0114 0.0043,0.004 0.01006,0.009 0.01753,0.014 0.0075,0.005 0.01752,0.01 0.02997,0.0136 0.01276,0.004 0.0274,0.005 0.04308,0.004 0.01572,-0.002 0.02981,-0.007 0.04173,-0.0134 0.01165,-0.006 0.02045,-0.0141 0.02682,-0.0209 0.0063,-0.007 0.01092,-0.0132 0.01412,-0.0185 0.0032,-0.005 0.0056,-0.0101 0.0073,-0.014 0.0033,-0.008 0.0052,-0.0142 0.0063,-0.0186 0.0012,-0.005 0.0019,-0.009 0.0024,-0.0118 9.38e-4,-0.006 0.0013,-0.0117 0.0015,-0.0158 2.02e-4,-0.004 2.41e-4,-0.008 2e-4,-0.0122 -8.2e-5,-0.007 -5.05e-4,-0.0152 -0.0011,-0.0226 -0.0012,-0.0151 -0.0035,-0.032 -0.0067,-0.0487 -1.55e-4,-0.004 -0.0013,-0.0133 -0.0023,-0.0209 -9.57e-4,-0.008 -0.0018,-0.0137 -0.0025,-0.0185 -3.46e-4,-0.002 -8.39e-4,-0.005 -0.0015,-0.008 -2.79e-4,-0.001 -8.97e-4,-0.004 -0.0019,-0.008 -4.67e-4,-0.002 -0.0014,-0.005 -0.003,-0.01 -7.95e-4,-0.002 -0.0021,-0.006 -0.004,-0.01 -0.0017,-0.004 -0.0053,-0.0108 -0.01139,-0.019 -0.0032,-0.004 -0.0081,-0.0103 -0.01517,-0.0165 -0.0069,-0.006 -0.01804,-0.0145 -0.03361,-0.0205 -0.01651,-0.006 -0.03693,-0.01 -0.05903,-0.006 -0.01062,0.002 -0.0203,0.005 -0.02889,0.009 -0.0085,0.004 -0.01562,0.009 -0.02142,0.0137 -0.01127,0.009 -0.01853,0.0188 -0.02285,0.0254 -0.0044,0.007 -0.0073,0.0129 -0.0092,0.0173 -0.0035,0.008 -0.0053,0.0153 -0.006,0.0189 -9.01e-4,0.004 -0.0014,0.007 -0.0017,0.01 -3.07e-4,0.002 -4.96e-4,0.004 -6.15e-4,0.006 -2.32e-4,0.003 -3.16e-4,0.005 -3.52e-4,0.007 -7.2e-5,0.003 -2.8e-5,0.005 6e-6,0.007 3.9e-5,0.002 9.9e-5,0.003 1.57e-4,0.004 2.13e-4,0.004 6.03e-4,0.009 0.001,0.0142 4.28e-4,0.005 9.67e-4,0.0111 0.0016,0.0175 0.0013,0.0131 0.0029,0.0285 0.0046,0.0442 l 0.218454,-0.0258 c -0.01896,-0.14881 -0.03139,-0.30277 -0.04265,-0.4404 -0.0074,-0.0901 -0.01489,-0.18212 -0.02397,-0.27397 -0.02091,-0.18905 -0.04462,-0.389 -0.09119,-0.58325 -0.04674,-0.19497 -0.117222,-0.38764 -0.233617,-0.5626 -0.08377,-0.12934 -0.20478,-0.23015 -0.340966,-0.29349 -0.138042,-0.0642 -0.293071,-0.0906 -0.445554,-0.0703 -0.09141,0.0114 -0.178574,0.0369 -0.259714,0.0727 -0.08203,0.0362 -0.157957,0.0828 -0.227127,0.1363 -0.141114,0.10907 -0.255973,0.24777 -0.340951,0.39065 -0.131146,0.22759 -0.199483,0.47045 -0.239173,0.70603 -0.0412,0.24453 -0.05376,0.4983 -0.06507,0.72164 -0.01496,0.17595 -0.0099,0.35242 -6.72e-4,0.51341 0.01027,0.17866 0.02562,0.34603 0.03386,0.50161 8.78e-4,0.0166 0.0018,0.0332 0.0049,0.0495 0.0031,0.0163 0.0083,0.0323 0.01686,0.0465 0.0085,0.0142 0.02032,0.0266 0.03461,0.035 0.01429,0.008 0.03098,0.0128 0.04756,0.0121 0.01657,-6.6e-4 0.03287,-0.006 0.04645,-0.0159 0.01357,-0.01 0.02436,-0.0228 0.0317,-0.0377 0.0073,-0.0149 0.01129,-0.0312 0.01302,-0.0478 0.0017,-0.0165 0.0013,-0.0331 7.97e-4,-0.0497 -0.0035,-0.11824 -0.0074,-0.23553 -0.01101,-0.34382 -0.01022,-0.30473 -0.01943,-0.56192 -0.02664,-0.83776 -0.0062,-0.34755 -0.0089,-0.61761 -0.03043,-0.91213 -0.03001,-0.41087 -0.0877,-0.69516 -0.149334,-0.91363 a 0.09763969,0.09763969 90 0 0 -0.187944,0.053 z"
       id="path-1"
       inkscape:path-effect="#path-effect1075;#path-effect1077"
       inkscape:original-d="m -17.065397,151.21381 c 0.08264,0.29998 0.127746,0.61193 0.14876,0.92136 0.02193,0.32284 0.02077,0.64805 0.03008,0.97143 0.01047,0.36368 0.0241,0.72716 0.03456,1.09083 2e-4,0.007 -4.28e-4,-0.0149 -6.42e-4,-0.0223 -0.0041,-0.14355 0.002,0.0315 -0.01447,-0.21242 -0.01378,-0.20328 -0.03377,-0.4228 -0.02319,-0.62582 0.03479,-0.67115 0.04175,-1.53603 0.718957,-1.95523 0.15467,-0.0957 0.338465,-0.14125 0.522234,-0.11444 0.808471,0.118 0.783398,1.37725 0.84994,1.97847 0.04415,0.3989 -0.01413,-0.13098 0.02008,0.15329 0.0019,0.0161 0.0065,0.0645 0.0014,0.0489 -0.158147,-0.4964 -0.05734,-2.02372 0.634268,-2.13885 0.10921,-0.0183 0.217916,0.0277 0.312346,0.071 0.711111,0.32614 0.823022,1.76921 0.842098,2.43199"
       style="fill:#000000;fill-rule:nonzero;stroke:none;stroke-width:1.02843" />
  </g>
</svg>
