<?xml version="1.0" encoding="UTF-8" standalone="no"?>
<!-- Created with Inkscape (http://www.inkscape.org/) -->

<svg
   width="4mm"
   height="10mm"
   viewBox="0 0 4.0000001 9.9999994"
   version="1.1"
   id="svg1681"
   inkscape:version="1.2.1 (9c6d41e410, 2022-07-14)"
   sodipodi:docname="lower_m_3.svg"
   inkscape:export-filename="..\..\..\..\Downloads\lower a diff canvas resize 3.0.png"
   inkscape:export-xdpi="96"
   inkscape:export-ydpi="96"
   xmlns:inkscape="http://www.inkscape.org/namespaces/inkscape"
   xmlns:sodipodi="http://sodipodi.sourceforge.net/DTD/sodipodi-0.dtd"
   xmlns="http://www.w3.org/2000/svg"
   xmlns:svg="http://www.w3.org/2000/svg"
   xmlns:rdf="http://www.w3.org/1999/02/22-rdf-syntax-ns#"
   xmlns:cc="http://creativecommons.org/ns#"
   xmlns:dc="http://purl.org/dc/elements/1.1/">
  <defs
     id="defs1675">
    <inkscape:path-effect
       effect="powerstroke"
       id="path-effect401"
       is_visible="true"
       lpeversion="1"
       offset_points="1.919598,0.085642395 | 7.1414337,0.095185405 | 11.392776,0.11084573"
       not_jump="true"
       sort_points="true"
       interpolator_type="CentripetalCatmullRom"
       interpolator_beta="0.75"
       start_linecap_type="round"
       linejoin_type="spiro"
       miter_limit="4"
       scale_width="1"
       end_linecap_type="round" />
    <inkscape:path-effect
       effect="simplify"
       id="path-effect399"
       is_visible="true"
       lpeversion="1"
       steps="1"
       threshold="0.0047745358"
       smooth_angles="0"
       helper_size="0"
       simplify_individual_paths="false"
       simplify_just_coalesce="false"
       step="1" />
    <inkscape:path-effect
       effect="powerstroke"
       id="path-effect354"
       is_visible="true"
       lpeversion="1"
       offset_points="1.8669648,0.097632331 | 3.3867434,0.08319547 | 6.5616288,0.10448372"
       not_jump="true"
       sort_points="true"
       interpolator_type="CentripetalCatmullRom"
       interpolator_beta="0.75"
       start_linecap_type="round"
       linejoin_type="spiro"
       miter_limit="4"
       scale_width="1"
       end_linecap_type="round" />
    <inkscape:path-effect
       effect="simplify"
       id="path-effect352"
       is_visible="true"
       lpeversion="1"
       steps="1"
       threshold="0.0047745358"
       smooth_angles="0"
       helper_size="0"
       simplify_individual_paths="false"
       simplify_just_coalesce="false"
       step="1" />
    <inkscape:path-effect
       effect="powerstroke"
       id="path-effect309"
       is_visible="true"
       lpeversion="1"
       offset_points="1.7013678,0.12014405 | 7.8476699,0.13580437"
       not_jump="true"
       sort_points="true"
       interpolator_type="CentripetalCatmullRom"
       interpolator_beta="0.75"
       start_linecap_type="round"
       linejoin_type="spiro"
       miter_limit="4"
       scale_width="1"
       end_linecap_type="round" />
    <inkscape:path-effect
       effect="simplify"
       id="path-effect307"
       is_visible="true"
       lpeversion="1"
       steps="1"
       threshold="0.0047745358"
       smooth_angles="0"
       helper_size="0"
       simplify_individual_paths="false"
       simplify_just_coalesce="false"
       step="1" />
    <inkscape:path-effect
       effect="powerstroke"
       id="path-effect302"
       is_visible="true"
       lpeversion="1"
       offset_points="2.2193262,0.1282189"
       not_jump="true"
       sort_points="true"
       interpolator_type="CentripetalCatmullRom"
       interpolator_beta="0.75"
       start_linecap_type="round"
       linejoin_type="spiro"
       miter_limit="4"
       scale_width="1"
       end_linecap_type="round" />
    <inkscape:path-effect
       effect="simplify"
       id="path-effect300"
       is_visible="true"
       lpeversion="1"
       steps="1"
       threshold="0.0047745358"
       smooth_angles="0"
       helper_size="0"
       simplify_individual_paths="false"
       simplify_just_coalesce="false"
       step="1" />
    <inkscape:path-effect
       effect="powerstroke"
       id="path-effect329"
       is_visible="true"
       lpeversion="1"
       offset_points="2.036852,0.12799523 | 9.038239,0.16903718 | 11.263778,0.13750213"
       not_jump="true"
       sort_points="true"
       interpolator_type="CentripetalCatmullRom"
       interpolator_beta="0.75"
       start_linecap_type="round"
       linejoin_type="spiro"
       miter_limit="4"
       scale_width="1"
       end_linecap_type="round" />
    <inkscape:path-effect
       effect="simplify"
       id="path-effect327"
       is_visible="true"
       lpeversion="1"
       steps="1"
       threshold="0.0035951417"
       smooth_angles="0"
       helper_size="0"
       simplify_individual_paths="false"
       simplify_just_coalesce="false"
       step="1" />
    <inkscape:path-effect
       effect="powerstroke"
       id="path-effect502"
       is_visible="true"
       lpeversion="1"
       offset_points="3.0091841,0.21607495 | 7.3602657,0.17554228 | 9.4159651,0.20236537"
       not_jump="true"
       sort_points="true"
       interpolator_type="CentripetalCatmullRom"
       interpolator_beta="0.75"
       start_linecap_type="round"
       linejoin_type="spiro"
       miter_limit="4"
       scale_width="1"
       end_linecap_type="round" />
    <inkscape:path-effect
       effect="simplify"
       id="path-effect500"
       is_visible="true"
       lpeversion="1"
       steps="1"
       threshold="0.0035951417"
       smooth_angles="0"
       helper_size="0"
       simplify_individual_paths="false"
       simplify_just_coalesce="false"
       step="1" />
    <inkscape:path-effect
       effect="powerstroke"
       id="path-effect241"
       is_visible="true"
       lpeversion="1"
       offset_points="2.6879454,0.34086734"
       not_jump="true"
       sort_points="true"
       interpolator_type="CentripetalCatmullRom"
       interpolator_beta="0.75"
       start_linecap_type="round"
       linejoin_type="spiro"
       miter_limit="4"
       scale_width="1"
       end_linecap_type="round" />
    <inkscape:path-effect
       effect="simplify"
       id="path-effect239"
       is_visible="true"
       lpeversion="1"
       steps="1"
       threshold="0.0028332064"
       smooth_angles="0"
       helper_size="0"
       simplify_individual_paths="false"
       simplify_just_coalesce="false"
       step="1" />
    <inkscape:path-effect
       effect="powerstroke"
       id="path-effect234"
       is_visible="true"
       lpeversion="1"
       offset_points="2.13563,0.075169555"
       not_jump="true"
       sort_points="true"
       interpolator_type="CentripetalCatmullRom"
       interpolator_beta="0.75"
       start_linecap_type="round"
       linejoin_type="spiro"
       miter_limit="4"
       scale_width="1"
       end_linecap_type="round" />
    <inkscape:path-effect
       effect="simplify"
       id="path-effect232"
       is_visible="true"
       lpeversion="1"
       steps="1"
       threshold="0.0028332064"
       smooth_angles="0"
       helper_size="0"
       simplify_individual_paths="false"
       simplify_just_coalesce="false"
       step="1" />
    <inkscape:path-effect
       effect="powerstroke"
       id="path-effect227"
       is_visible="true"
       lpeversion="1"
       offset_points="2.1868266,0.075169555"
       not_jump="true"
       sort_points="true"
       interpolator_type="CentripetalCatmullRom"
       interpolator_beta="0.75"
       start_linecap_type="round"
       linejoin_type="spiro"
       miter_limit="4"
       scale_width="1"
       end_linecap_type="round" />
    <inkscape:path-effect
       effect="simplify"
       id="path-effect225"
       is_visible="true"
       lpeversion="1"
       steps="1"
       threshold="0.0028332064"
       smooth_angles="0"
       helper_size="0"
       simplify_individual_paths="false"
       simplify_just_coalesce="false"
       step="1" />
    <inkscape:path-effect
       effect="powerstroke"
       id="path-effect166"
       is_visible="true"
       lpeversion="1"
       offset_points="1.9637935,0.075169555"
       not_jump="true"
       sort_points="true"
       interpolator_type="CentripetalCatmullRom"
       interpolator_beta="0.75"
       start_linecap_type="round"
       linejoin_type="spiro"
       miter_limit="4"
       scale_width="1"
       end_linecap_type="round" />
    <inkscape:path-effect
       effect="simplify"
       id="path-effect164"
       is_visible="true"
       lpeversion="1"
       steps="1"
       threshold="0.0028332064"
       smooth_angles="0"
       helper_size="0"
       simplify_individual_paths="false"
       simplify_just_coalesce="false"
       step="1" />
    <inkscape:path-effect
       effect="powerstroke"
       id="path-effect159"
       is_visible="true"
       lpeversion="1"
       offset_points="2.2611036,0.075169555"
       not_jump="true"
       sort_points="true"
       interpolator_type="CentripetalCatmullRom"
       interpolator_beta="0.75"
       start_linecap_type="round"
       linejoin_type="spiro"
       miter_limit="4"
       scale_width="1"
       end_linecap_type="round" />
    <inkscape:path-effect
       effect="simplify"
       id="path-effect157"
       is_visible="true"
       lpeversion="1"
       steps="1"
       threshold="0.0028332064"
       smooth_angles="0"
       helper_size="0"
       simplify_individual_paths="false"
       simplify_just_coalesce="false"
       step="1" />
    <inkscape:path-effect
       effect="powerstroke"
       id="path-effect152"
       is_visible="true"
       lpeversion="1"
       offset_points="2.826981,0.075169555"
       not_jump="true"
       sort_points="true"
       interpolator_type="CentripetalCatmullRom"
       interpolator_beta="0.75"
       start_linecap_type="round"
       linejoin_type="spiro"
       miter_limit="4"
       scale_width="1"
       end_linecap_type="round" />
    <inkscape:path-effect
       effect="simplify"
       id="path-effect150"
       is_visible="true"
       lpeversion="1"
       steps="1"
       threshold="0.0028332064"
       smooth_angles="0"
       helper_size="0"
       simplify_individual_paths="false"
       simplify_just_coalesce="false"
       step="1" />
    <inkscape:path-effect
       effect="powerstroke"
       id="path-effect145"
       is_visible="true"
       lpeversion="1"
       offset_points="3.8374447,0.075169555"
       not_jump="true"
       sort_points="true"
       interpolator_type="CentripetalCatmullRom"
       interpolator_beta="0.75"
       start_linecap_type="round"
       linejoin_type="spiro"
       miter_limit="4"
       scale_width="1"
       end_linecap_type="round" />
    <inkscape:path-effect
       effect="simplify"
       id="path-effect143"
       is_visible="true"
       lpeversion="1"
       steps="1"
       threshold="0.0028332064"
       smooth_angles="0"
       helper_size="0"
       simplify_individual_paths="false"
       simplify_just_coalesce="false"
       step="1" />
    <inkscape:path-effect
       effect="powerstroke"
       id="path-effect138"
       is_visible="true"
       lpeversion="1"
       offset_points="2.6880907,0.075169555"
       not_jump="true"
       sort_points="true"
       interpolator_type="CentripetalCatmullRom"
       interpolator_beta="0.75"
       start_linecap_type="round"
       linejoin_type="spiro"
       miter_limit="4"
       scale_width="1"
       end_linecap_type="round" />
    <inkscape:path-effect
       effect="simplify"
       id="path-effect136"
       is_visible="true"
       lpeversion="1"
       steps="1"
       threshold="0.0028332064"
       smooth_angles="0"
       helper_size="0"
       simplify_individual_paths="false"
       simplify_just_coalesce="false"
       step="1" />
    <inkscape:path-effect
       effect="powerstroke"
       id="path-effect131"
       is_visible="true"
       lpeversion="1"
       offset_points="1.9940581,0.075169555"
       not_jump="true"
       sort_points="true"
       interpolator_type="CentripetalCatmullRom"
       interpolator_beta="0.75"
       start_linecap_type="round"
       linejoin_type="spiro"
       miter_limit="4"
       scale_width="1"
       end_linecap_type="round" />
    <inkscape:path-effect
       effect="simplify"
       id="path-effect129"
       is_visible="true"
       lpeversion="1"
       steps="1"
       threshold="0.0028332064"
       smooth_angles="0"
       helper_size="0"
       simplify_individual_paths="false"
       simplify_just_coalesce="false"
       step="1" />
  </defs>
  <sodipodi:namedview
     id="base"
     pagecolor="#ffffff"
     bordercolor="#666666"
     borderopacity="1.0"
     inkscape:pageopacity="0.0"
     inkscape:pageshadow="2"
     inkscape:zoom="15.839192"
     inkscape:cx="1.894036"
     inkscape:cy="19.887378"
     inkscape:document-units="mm"
     inkscape:current-layer="layer1"
     showgrid="false"
     fit-margin-top="0"
     fit-margin-left="0"
     fit-margin-right="0"
     fit-margin-bottom="0"
     inkscape:window-width="1920"
     inkscape:window-height="1057"
     inkscape:window-x="1072"
     inkscape:window-y="321"
     inkscape:window-maximized="1"
     showguides="true"
     inkscape:guide-bbox="true"
     inkscape:snap-bbox="true"
     inkscape:bbox-nodes="true"
     inkscape:snap-nodes="false"
     inkscape:snap-others="false"
     inkscape:snap-page="true"
     inkscape:snap-grids="false"
     inkscape:snap-to-guides="false"
     inkscape:snap-global="false"
     inkscape:pagecheckerboard="0"
     inkscape:showpageshadow="2"
     inkscape:deskcolor="#d1d1d1">
    <sodipodi:guide
       position="-6.1806075,9.4988692"
       orientation="0,1"
       id="guide816"
       inkscape:locked="false" />
    <sodipodi:guide
       position="-4.4101636,10.646923"
       orientation="0,1"
       id="guide818"
       inkscape:locked="false" />
    <sodipodi:guide
       position="2.7595724,11.09577"
       orientation="1,0"
       id="guide820"
       inkscape:locked="false" />
    <sodipodi:guide
       position="3.6572659,10.942217"
       orientation="1,0"
       id="guide822"
       inkscape:locked="false" />
    <sodipodi:guide
       position="-0.051625511,9.7492299"
       orientation="1,0"
       id="guide1853"
       inkscape:locked="false" />
    <sodipodi:guide
       position="-2.3720169,3.0175835"
       orientation="0,1"
       id="guide1855"
       inkscape:locked="false" />
  </sodipodi:namedview>
  <metadata
     id="metadata1678">
    <rdf:RDF>
      <cc:Work
         rdf:about="">
        <dc:format>image/svg+xml</dc:format>
        <dc:type
           rdf:resource="http://purl.org/dc/dcmitype/StillImage" />
      </cc:Work>
    </rdf:RDF>
  </metadata>
  <g
     inkscape:label="Layer 1"
     inkscape:groupmode="layer"
     id="layer1"
     transform="translate(17.028496,-147.22856)">
    <path
       d="m -17.113429,150.94424 c 0.02988,0.21282 0.04219,0.4298 0.04444,0.81208 0.0014,0.22999 -0.0011,0.54525 0.02384,0.83192 0.03246,0.4414 0.04182,0.93315 0.0666,1.42546 0.0021,0.0412 0.0043,0.083 0.0067,0.12542 4.4e-4,0.008 0.0019,0.0153 0.0044,0.0226 0.0024,0.007 0.0054,0.015 0.0092,0.0227 0.0019,0.004 0.0043,0.008 0.0073,0.0129 0.0029,0.004 0.007,0.0101 0.01265,0.0159 0.0055,0.006 0.01398,0.013 0.02592,0.0188 0.01245,0.006 0.0284,0.0102 0.04646,0.009 0.0178,-0.001 0.03245,-0.008 0.04329,-0.0154 0.01029,-0.007 0.01732,-0.0149 0.02179,-0.0208 0.0084,-0.0111 0.01296,-0.0222 0.01526,-0.0285 0.0026,-0.007 0.0044,-0.0139 0.0057,-0.0196 0.0026,-0.0113 0.0043,-0.0234 0.0056,-0.0349 0.0024,-0.0222 0.0036,-0.0476 0.0037,-0.0701 3.6e-5,-0.0109 -1.82e-4,-0.0217 -7.41e-4,-0.0315 -2.75e-4,-0.005 -6.6e-4,-0.01 -0.0012,-0.0148 -2.16e-4,-0.002 -4.97e-4,-0.004 -8.77e-4,-0.007 -0.0068,-0.13061 -0.02228,-0.25627 -0.03634,-0.38859 -0.01339,-0.12595 -0.02486,-0.25278 -0.02296,-0.37917 -0.0068,-0.268 -0.0139,-0.53856 -4.45e-4,-0.8051 0.01332,-0.26373 0.04675,-0.5238 0.120304,-0.77564 0.03668,-0.12313 0.09082,-0.24481 0.164716,-0.34564 0.03706,-0.0506 0.07858,-0.0952 0.124701,-0.13224 0.04648,-0.0373 0.09768,-0.067 0.154105,-0.0876 0.05103,-0.0202 0.100693,-0.0282 0.150194,-0.0274 0.05055,8.6e-4 0.101546,0.0111 0.1511,0.0287 0.103548,0.0369 0.19768,0.10511 0.268093,0.18304 0.02647,0.0275 0.04925,0.0538 0.07049,0.0808 0.05463,0.0695 0.100242,0.14556 0.137127,0.22578 0.05202,0.11316 0.08662,0.23449 0.104712,0.35735 0.02155,0.10073 0.0366,0.19984 0.05653,0.30062 0.02009,0.10163 0.04545,0.2061 0.08751,0.30759 0.0105,0.0253 0.02207,0.0512 0.0421,0.0699 0.01002,0.009 0.02193,0.0168 0.03496,0.0211 0.01303,0.004 0.02712,0.005 0.04062,0.003 0.0135,-0.002 0.02632,-0.008 0.03704,-0.0169 0.01073,-0.009 0.01933,-0.0196 0.02553,-0.0319 0.01239,-0.0245 0.0146,-0.0526 0.01604,-0.08 0.0073,-0.13836 -0.0012,-0.27189 -6.17e-4,-0.39769 2.92e-4,-0.0636 0.0027,-0.12461 0.0097,-0.18384 0.007,-0.0594 0.01854,-0.11628 0.0367,-0.17116 0.0438,-0.14607 0.10692,-0.28607 0.191761,-0.40404 0.04259,-0.0592 0.09028,-0.11237 0.143176,-0.15767 0.05306,-0.0454 0.111441,-0.083 0.175538,-0.11113 0.05218,-0.022 0.110163,-0.0337 0.169275,-0.0352 0.03386,-8.1e-4 0.06796,0.002 0.101618,0.008 0.02503,0.004 0.05004,0.0105 0.07471,0.0186 0.05585,0.0182 0.109361,0.0459 0.156333,0.0826 0.04534,0.0354 0.08419,0.079 0.112964,0.12982 0.05971,0.0989 0.103699,0.20375 0.148277,0.3197 0.04319,0.11233 0.08659,0.23429 0.141417,0.35048 0.220001,0.51785 0.375645,0.99033 0.412683,1.4734 0.01766,0.19397 0.01976,0.36614 0.01976,0.46128 a 0.11084573,0.11084573 90 0 0 0.221692,0 c -3e-6,-0.0976 -0.0015,-0.27761 -0.01941,-0.4797 -0.03924,-0.51739 -0.205449,-1.01628 -0.430623,-1.54642 -0.05194,-0.11042 -0.09067,-0.21972 -0.136756,-0.33938 -0.04553,-0.11822 -0.09543,-0.23849 -0.164506,-0.35225 -0.04293,-0.0757 -0.102061,-0.14094 -0.168657,-0.19268 -0.06883,-0.0535 -0.145799,-0.0927 -0.224692,-0.1181 -0.03496,-0.0113 -0.07038,-0.0199 -0.105843,-0.0259 -0.04767,-0.008 -0.09628,-0.0115 -0.144933,-0.0101 -0.08488,0.002 -0.17031,0.0199 -0.250873,0.0545 -0.08667,0.0385 -0.162962,0.0887 -0.23069,0.14745 -0.06736,0.0584 -0.126095,0.12533 -0.176985,0.19719 -0.100853,0.14241 -0.171979,0.30595 -0.218725,0.46693 -0.02194,0.0686 -0.03531,0.14008 -0.04287,0.21064 -0.0075,0.0701 -0.0093,0.13967 -0.0089,0.20758 8.66e-4,0.13503 0.01025,0.26531 0.0052,0.38784 l 0.196297,-0.035 c -0.03573,-0.0827 -0.05932,-0.17175 -0.07979,-0.2682 -0.0201,-0.0947 -0.0366,-0.19465 -0.05997,-0.29657 -0.02071,-0.13311 -0.06148,-0.27196 -0.122774,-0.40245 -0.04349,-0.0926 -0.09743,-0.1812 -0.162471,-0.26278 -0.02528,-0.0317 -0.05246,-0.0626 -0.08164,-0.0925 -0.08698,-0.0949 -0.207017,-0.18175 -0.34404,-0.22957 -0.06636,-0.0232 -0.137462,-0.0374 -0.210778,-0.0382 -0.07223,-7.6e-4 -0.146218,0.0115 -0.218817,0.0408 -0.0742,0.0274 -0.142669,0.0679 -0.203362,0.1172 -0.06001,0.0487 -0.112,0.10574 -0.156819,0.16755 -0.08875,0.12239 -0.150134,0.26468 -0.190434,0.40238 -0.07818,0.27011 -0.112345,0.54513 -0.125492,0.81759 -0.01325,0.27451 -0.0052,0.55197 0.002,0.81512 -0.0015,0.13435 0.01159,0.27018 0.02555,0.39683 0.01519,0.13776 0.03048,0.25791 0.0373,0.38408 2.95e-4,0.005 0.0011,0.0109 0.0024,0.0162 -9.25e-4,-0.004 -7.48e-4,-0.004 -6.36e-4,-0.003 1.27e-4,8e-4 3.23e-4,0.003 5.14e-4,0.005 3.92e-4,0.005 6.64e-4,0.0125 7.32e-4,0.0209 1.43e-4,0.0176 -6.26e-4,0.0368 -0.0021,0.0517 -7.84e-4,0.008 -0.0016,0.0128 -0.0021,0.0153 -2.35e-4,0.001 -1.7e-4,6.2e-4 5.82e-4,-0.001 4.14e-4,-0.001 0.003,-0.008 0.0092,-0.0164 0.0034,-0.004 0.0093,-0.0113 0.01844,-0.0175 0.0097,-0.007 0.02314,-0.0127 0.03971,-0.014 0.01682,-0.001 0.0315,0.003 0.04264,0.008 0.01062,0.005 0.01778,0.0115 0.02186,0.0157 0.0042,0.004 0.0069,0.008 0.0084,0.0104 0.0015,0.002 0.0024,0.004 0.0027,0.005 8.08e-4,0.002 2.25e-4,6.9e-4 -6.71e-4,-0.002 l 0.0044,0.0226 c -0.0024,-0.0419 -0.0047,-0.0834 -0.0068,-0.12427 -0.02516,-0.48826 -0.03463,-0.98183 -0.06756,-1.4304 -0.02428,-0.27908 -0.02174,-0.58495 -0.02301,-0.81923 -0.0021,-0.38563 -0.01437,-0.61142 -0.04575,-0.83494 a 0.0856424,0.0856424 90 0 0 -0.169622,0.0238 z"
       id="path-1"
       inkscape:path-effect="#path-effect399;#path-effect401"
       inkscape:original-d="m -17.028618,150.93233 c 0.04918,0.35584 0.04542,0.71533 0.04542,1.07475 0,0.36083 0.03832,0.71939 0.05233,1.07975 0.01036,0.26639 0.01947,0.53335 0.03259,0.7996 0.0085,0.17237 0.0069,0.30752 0.02765,0.27514 0.0433,-0.0676 -0.04267,-0.6311 -0.04444,-0.71752 -0.01171,-0.57315 -0.116652,-1.94043 0.453245,-2.35796 0.491264,-0.35992 0.976653,0.15103 1.118793,0.605 0.05443,0.17382 0.124952,0.69618 0.193542,0.81039 0.0037,0.006 0.0018,-0.0144 0.002,-0.0216 9.29e-4,-0.0502 10e-4,-0.10046 0,-0.15067 -0.0024,-0.11785 -0.01166,-0.2626 0,-0.3788 0.05299,-0.52802 0.490384,-1.22637 1.110894,-0.95529 0.288599,0.12609 0.369868,0.48287 0.481881,0.74681 0.340861,0.80321 0.511504,1.27743 0.511504,2.14718"
       style="fill:#000000;fill-rule:nonzero;stroke:none" />
  </g>
</svg>
