<?xml version="1.0" encoding="UTF-8" standalone="no"?>
<!-- Created with Inkscape (http://www.inkscape.org/) -->

<svg
   width="3mm"
   height="10mm"
   viewBox="0 0 3.0000001 9.9999994"
   version="1.1"
   id="svg1681"
   inkscape:version="1.2.1 (9c6d41e410, 2022-07-14)"
   sodipodi:docname="dot_14.svg"
   inkscape:export-filename="..\..\..\..\Downloads\lower a diff canvas resize 3.0.png"
   inkscape:export-xdpi="96"
   inkscape:export-ydpi="96"
   xmlns:inkscape="http://www.inkscape.org/namespaces/inkscape"
   xmlns:sodipodi="http://sodipodi.sourceforge.net/DTD/sodipodi-0.dtd"
   xmlns="http://www.w3.org/2000/svg"
   xmlns:svg="http://www.w3.org/2000/svg"
   xmlns:rdf="http://www.w3.org/1999/02/22-rdf-syntax-ns#"
   xmlns:cc="http://creativecommons.org/ns#"
   xmlns:dc="http://purl.org/dc/elements/1.1/">
  <defs
     id="defs1675">
    <inkscape:path-effect
       effect="powerstroke"
       id="path-effect153"
       is_visible="true"
       lpeversion="1"
       offset_points="4.1015683,0.057415341 | 11.384389,0.044746773 | 16.86699,0.058577594 | 20.868952,0.066364695"
       not_jump="true"
       sort_points="true"
       interpolator_type="CentripetalCatmullRom"
       interpolator_beta="0.75"
       start_linecap_type="round"
       linejoin_type="spiro"
       miter_limit="4"
       scale_width="1"
       end_linecap_type="round" />
    <inkscape:path-effect
       effect="simplify"
       id="path-effect151"
       is_visible="true"
       lpeversion="1"
       steps="1"
       threshold="0.0035951417"
       smooth_angles="0"
       helper_size="0"
       simplify_individual_paths="false"
       simplify_just_coalesce="false"
       step="1" />
    <inkscape:path-effect
       effect="powerstroke"
       id="path-effect1588"
       is_visible="true"
       lpeversion="1"
       offset_points="7.8414948,0.064841696"
       not_jump="true"
       sort_points="true"
       interpolator_type="CentripetalCatmullRom"
       interpolator_beta="0.75"
       start_linecap_type="round"
       linejoin_type="spiro"
       miter_limit="4"
       scale_width="1"
       end_linecap_type="round" />
    <inkscape:path-effect
       effect="simplify"
       id="path-effect1586"
       is_visible="true"
       lpeversion="1"
       steps="1"
       threshold="0.0035951417"
       smooth_angles="0"
       helper_size="0"
       simplify_individual_paths="false"
       simplify_just_coalesce="false"
       step="1" />
    <inkscape:path-effect
       effect="powerstroke"
       id="path-effect502"
       is_visible="true"
       lpeversion="1"
       offset_points="3.0091841,0.21607495 | 7.3602657,0.17554228 | 9.4159651,0.20236537"
       not_jump="true"
       sort_points="true"
       interpolator_type="CentripetalCatmullRom"
       interpolator_beta="0.75"
       start_linecap_type="round"
       linejoin_type="spiro"
       miter_limit="4"
       scale_width="1"
       end_linecap_type="round" />
    <inkscape:path-effect
       effect="simplify"
       id="path-effect500"
       is_visible="true"
       lpeversion="1"
       steps="1"
       threshold="0.0035951417"
       smooth_angles="0"
       helper_size="0"
       simplify_individual_paths="false"
       simplify_just_coalesce="false"
       step="1" />
    <inkscape:path-effect
       effect="powerstroke"
       id="path-effect241"
       is_visible="true"
       lpeversion="1"
       offset_points="2.6879454,0.34086734"
       not_jump="true"
       sort_points="true"
       interpolator_type="CentripetalCatmullRom"
       interpolator_beta="0.75"
       start_linecap_type="round"
       linejoin_type="spiro"
       miter_limit="4"
       scale_width="1"
       end_linecap_type="round" />
    <inkscape:path-effect
       effect="simplify"
       id="path-effect239"
       is_visible="true"
       lpeversion="1"
       steps="1"
       threshold="0.0028332064"
       smooth_angles="0"
       helper_size="0"
       simplify_individual_paths="false"
       simplify_just_coalesce="false"
       step="1" />
    <inkscape:path-effect
       effect="powerstroke"
       id="path-effect234"
       is_visible="true"
       lpeversion="1"
       offset_points="2.13563,0.075169555"
       not_jump="true"
       sort_points="true"
       interpolator_type="CentripetalCatmullRom"
       interpolator_beta="0.75"
       start_linecap_type="round"
       linejoin_type="spiro"
       miter_limit="4"
       scale_width="1"
       end_linecap_type="round" />
    <inkscape:path-effect
       effect="simplify"
       id="path-effect232"
       is_visible="true"
       lpeversion="1"
       steps="1"
       threshold="0.0028332064"
       smooth_angles="0"
       helper_size="0"
       simplify_individual_paths="false"
       simplify_just_coalesce="false"
       step="1" />
    <inkscape:path-effect
       effect="powerstroke"
       id="path-effect227"
       is_visible="true"
       lpeversion="1"
       offset_points="2.1868266,0.075169555"
       not_jump="true"
       sort_points="true"
       interpolator_type="CentripetalCatmullRom"
       interpolator_beta="0.75"
       start_linecap_type="round"
       linejoin_type="spiro"
       miter_limit="4"
       scale_width="1"
       end_linecap_type="round" />
    <inkscape:path-effect
       effect="simplify"
       id="path-effect225"
       is_visible="true"
       lpeversion="1"
       steps="1"
       threshold="0.0028332064"
       smooth_angles="0"
       helper_size="0"
       simplify_individual_paths="false"
       simplify_just_coalesce="false"
       step="1" />
    <inkscape:path-effect
       effect="powerstroke"
       id="path-effect166"
       is_visible="true"
       lpeversion="1"
       offset_points="1.9637935,0.075169555"
       not_jump="true"
       sort_points="true"
       interpolator_type="CentripetalCatmullRom"
       interpolator_beta="0.75"
       start_linecap_type="round"
       linejoin_type="spiro"
       miter_limit="4"
       scale_width="1"
       end_linecap_type="round" />
    <inkscape:path-effect
       effect="simplify"
       id="path-effect164"
       is_visible="true"
       lpeversion="1"
       steps="1"
       threshold="0.0028332064"
       smooth_angles="0"
       helper_size="0"
       simplify_individual_paths="false"
       simplify_just_coalesce="false"
       step="1" />
    <inkscape:path-effect
       effect="powerstroke"
       id="path-effect159"
       is_visible="true"
       lpeversion="1"
       offset_points="2.2611036,0.075169555"
       not_jump="true"
       sort_points="true"
       interpolator_type="CentripetalCatmullRom"
       interpolator_beta="0.75"
       start_linecap_type="round"
       linejoin_type="spiro"
       miter_limit="4"
       scale_width="1"
       end_linecap_type="round" />
    <inkscape:path-effect
       effect="simplify"
       id="path-effect157"
       is_visible="true"
       lpeversion="1"
       steps="1"
       threshold="0.0028332064"
       smooth_angles="0"
       helper_size="0"
       simplify_individual_paths="false"
       simplify_just_coalesce="false"
       step="1" />
    <inkscape:path-effect
       effect="powerstroke"
       id="path-effect152"
       is_visible="true"
       lpeversion="1"
       offset_points="2.826981,0.075169555"
       not_jump="true"
       sort_points="true"
       interpolator_type="CentripetalCatmullRom"
       interpolator_beta="0.75"
       start_linecap_type="round"
       linejoin_type="spiro"
       miter_limit="4"
       scale_width="1"
       end_linecap_type="round" />
    <inkscape:path-effect
       effect="simplify"
       id="path-effect150"
       is_visible="true"
       lpeversion="1"
       steps="1"
       threshold="0.0028332064"
       smooth_angles="0"
       helper_size="0"
       simplify_individual_paths="false"
       simplify_just_coalesce="false"
       step="1" />
    <inkscape:path-effect
       effect="powerstroke"
       id="path-effect145"
       is_visible="true"
       lpeversion="1"
       offset_points="3.8374447,0.075169555"
       not_jump="true"
       sort_points="true"
       interpolator_type="CentripetalCatmullRom"
       interpolator_beta="0.75"
       start_linecap_type="round"
       linejoin_type="spiro"
       miter_limit="4"
       scale_width="1"
       end_linecap_type="round" />
    <inkscape:path-effect
       effect="simplify"
       id="path-effect143"
       is_visible="true"
       lpeversion="1"
       steps="1"
       threshold="0.0028332064"
       smooth_angles="0"
       helper_size="0"
       simplify_individual_paths="false"
       simplify_just_coalesce="false"
       step="1" />
    <inkscape:path-effect
       effect="powerstroke"
       id="path-effect138"
       is_visible="true"
       lpeversion="1"
       offset_points="2.6880907,0.075169555"
       not_jump="true"
       sort_points="true"
       interpolator_type="CentripetalCatmullRom"
       interpolator_beta="0.75"
       start_linecap_type="round"
       linejoin_type="spiro"
       miter_limit="4"
       scale_width="1"
       end_linecap_type="round" />
    <inkscape:path-effect
       effect="simplify"
       id="path-effect136"
       is_visible="true"
       lpeversion="1"
       steps="1"
       threshold="0.0028332064"
       smooth_angles="0"
       helper_size="0"
       simplify_individual_paths="false"
       simplify_just_coalesce="false"
       step="1" />
    <inkscape:path-effect
       effect="powerstroke"
       id="path-effect131"
       is_visible="true"
       lpeversion="1"
       offset_points="1.9940581,0.075169555"
       not_jump="true"
       sort_points="true"
       interpolator_type="CentripetalCatmullRom"
       interpolator_beta="0.75"
       start_linecap_type="round"
       linejoin_type="spiro"
       miter_limit="4"
       scale_width="1"
       end_linecap_type="round" />
    <inkscape:path-effect
       effect="simplify"
       id="path-effect129"
       is_visible="true"
       lpeversion="1"
       steps="1"
       threshold="0.0028332064"
       smooth_angles="0"
       helper_size="0"
       simplify_individual_paths="false"
       simplify_just_coalesce="false"
       step="1" />
  </defs>
  <sodipodi:namedview
     id="base"
     pagecolor="#ffffff"
     bordercolor="#666666"
     borderopacity="1.0"
     inkscape:pageopacity="0.0"
     inkscape:pageshadow="2"
     inkscape:zoom="7.919596"
     inkscape:cx="-5.3033008"
     inkscape:cy="20.834396"
     inkscape:document-units="mm"
     inkscape:current-layer="layer1"
     showgrid="false"
     fit-margin-top="0"
     fit-margin-left="0"
     fit-margin-right="0"
     fit-margin-bottom="0"
     inkscape:window-width="1920"
     inkscape:window-height="974"
     inkscape:window-x="-11"
     inkscape:window-y="2889"
     inkscape:window-maximized="1"
     showguides="true"
     inkscape:guide-bbox="true"
     inkscape:snap-bbox="true"
     inkscape:bbox-nodes="true"
     inkscape:snap-nodes="false"
     inkscape:snap-others="false"
     inkscape:snap-page="true"
     inkscape:snap-grids="false"
     inkscape:snap-to-guides="false"
     inkscape:snap-global="false"
     inkscape:pagecheckerboard="0"
     inkscape:showpageshadow="2"
     inkscape:deskcolor="#d1d1d1">
    <sodipodi:guide
       position="-6.1806076,9.4988693"
       orientation="0,1"
       id="guide816"
       inkscape:locked="false" />
    <sodipodi:guide
       position="-4.4101636,10.646923"
       orientation="0,1"
       id="guide818"
       inkscape:locked="false" />
    <sodipodi:guide
       position="2.7595724,11.09577"
       orientation="1,0"
       id="guide820"
       inkscape:locked="false" />
    <sodipodi:guide
       position="3.6572659,10.942217"
       orientation="1,0"
       id="guide822"
       inkscape:locked="false" />
    <sodipodi:guide
       position="-0.051625511,9.74923"
       orientation="1,0"
       id="guide1853"
       inkscape:locked="false" />
    <sodipodi:guide
       position="-2.3720169,3.0175835"
       orientation="0,1"
       id="guide1855"
       inkscape:locked="false" />
  </sodipodi:namedview>
  <metadata
     id="metadata1678">
    <rdf:RDF>
      <cc:Work
         rdf:about="">
        <dc:format>image/svg+xml</dc:format>
        <dc:type
           rdf:resource="http://purl.org/dc/dcmitype/StillImage" />
      </cc:Work>
    </rdf:RDF>
  </metadata>
  <g
     inkscape:label="Layer 1"
     inkscape:groupmode="layer"
     id="layer1"
     transform="translate(17.028496,-147.22856)">
    <path
       d="m -15.124714,153.38383 c -0.03222,0.006 -0.08744,0.0179 -0.141658,0.0373 -0.042,0.015 -0.09099,0.0373 -0.137011,0.0724 -0.03828,0.0294 -0.07665,0.0715 -0.100576,0.12666 -0.0079,0.028 -0.0074,0.0475 -0.0022,0.0657 0.0051,0.0177 0.01445,0.0332 0.02634,0.0457 0.0117,0.0123 0.02612,0.0221 0.04212,0.0284 0.01593,0.006 0.03374,0.009 0.05217,0.008 0.0077,0.001 0.02287,-10e-5 0.03694,-0.002 0.01401,-0.002 0.0271,-0.006 0.03894,-0.009 0.02416,-0.007 0.04435,-0.0158 0.0612,-0.0212 0.0087,-0.003 0.01607,-0.006 0.02336,-0.008 0.06197,-0.0226 0.123179,-0.0521 0.184609,-0.0875 0.01318,-0.008 0.02656,-0.0158 0.03552,-0.0281 0.0045,-0.006 0.0078,-0.0132 0.0093,-0.0207 0.0015,-0.007 0.0012,-0.0153 -0.0011,-0.0226 -0.0022,-0.007 -0.0064,-0.0139 -0.01181,-0.0193 -0.0054,-0.005 -0.01216,-0.009 -0.01934,-0.0118 -0.01437,-0.005 -0.03004,-0.004 -0.04519,-0.003 -0.01958,0.002 -0.03804,0.006 -0.05541,0.0123 -0.01701,0.006 -0.0329,0.0134 -0.04776,0.0215 -0.02849,0.0155 -0.05511,0.0346 -0.07779,0.0501 -0.01899,0.0133 -0.04079,0.027 -0.06329,0.0438 -0.02191,0.0164 -0.04511,0.0365 -0.06437,0.063 -0.0081,0.009 -0.01777,0.0236 -0.02534,0.0393 -0.0075,0.0156 -0.01333,0.0331 -0.01585,0.0515 -0.0025,0.0184 -0.0019,0.0385 0.0045,0.0584 0.0032,0.01 0.0077,0.0197 0.01385,0.0289 0.0061,0.009 0.01355,0.0176 0.02228,0.025 0.0239,0.0211 0.05281,0.0344 0.08166,0.0416 0.02891,0.007 0.05861,0.009 0.08618,0.006 0.04096,-0.004 0.07908,-0.0169 0.113608,-0.0345 0.03278,-0.0168 0.06251,-0.0384 0.08826,-0.0628 0.01364,-0.007 0.02509,-0.0174 0.03402,-0.0288 0.01087,-0.0138 0.01826,-0.0297 0.02191,-0.0463 0.0037,-0.0169 0.0037,-0.0347 -9.89e-4,-0.052 -0.0048,-0.0178 -0.01431,-0.0345 -0.02862,-0.0481 -0.0085,-0.0109 -0.02351,-0.0219 -0.03955,-0.0291 -0.0087,-0.004 -0.01774,-0.007 -0.02679,-0.009 -0.0078,-0.002 -0.01577,-0.002 -0.02367,-0.002 -0.0171,-1.9e-4 -0.03427,0.003 -0.05031,0.01 -0.01443,0.006 -0.02809,0.0145 -0.03987,0.0258 -0.0292,0.0199 -0.05779,0.0439 -0.08194,0.0723 -0.02547,0.03 -0.04641,0.0653 -0.05737,0.10608 -0.0022,0.009 -0.0042,0.0178 -0.0055,0.0274 -0.0013,0.01 -0.0022,0.021 -9.75e-4,0.033 6.17e-4,0.006 0.0018,0.0127 0.0039,0.0195 0.0021,0.007 0.0051,0.0138 0.0094,0.0207 0.0043,0.007 0.0097,0.0133 0.01623,0.019 0.0065,0.006 0.01385,0.0103 0.02169,0.0138 0.008,0.006 0.02375,0.0125 0.03958,0.0163 0.01585,0.004 0.03163,0.005 0.04665,0.004 0.03004,-0.001 0.05868,-0.009 0.0826,-0.0193 0.05015,-0.0217 0.093,-0.0569 0.124824,-0.0992 0.03236,-0.0431 0.05407,-0.0945 0.06031,-0.14897 0.002,-0.0178 0.0021,-0.0363 -1.58e-4,-0.0548 -0.0022,-0.0186 -0.0069,-0.0379 -0.01474,-0.0563 -0.0079,-0.0186 -0.01948,-0.0371 -0.03582,-0.0527 -0.0077,-0.007 -0.01641,-0.0141 -0.02611,-0.0197 -0.01114,-0.006 -0.02325,-0.0115 -0.03622,-0.0148 -0.02468,-0.005 -0.04612,-0.004 -0.06587,-1.1e-4 -0.01984,0.004 -0.03761,0.0122 -0.05299,0.0213 -0.01561,0.009 -0.02948,0.0201 -0.04148,0.031 -0.0122,0.0111 -0.023,0.0228 -0.03228,0.0339 -0.01749,0.0238 -0.03487,0.0479 -0.04914,0.0745 -0.0073,0.0137 -0.01409,0.0284 -0.01949,0.0443 -0.0054,0.016 -0.0095,0.0331 -0.01134,0.0514 -0.0046,0.0327 -8.71e-4,0.0693 0.01158,0.103 0.0063,0.0169 0.01485,0.0334 0.02593,0.0487 0.01107,0.0152 0.02463,0.0292 0.04077,0.041 0.02479,0.0145 0.04495,0.0196 0.06502,0.0196 0.0197,1e-5 0.03831,-0.005 0.05462,-0.0129 0.01612,-0.008 0.03044,-0.0193 0.04203,-0.0329 0.0055,-0.006 0.01045,-0.0136 0.01471,-0.0212 0.0046,-0.008 0.0085,-0.0173 0.01134,-0.027 0.01181,-0.0265 0.01729,-0.0608 0.01979,-0.093 0.0022,-0.0279 0.0022,-0.054 0.0034,-0.0765 0.0037,-0.0173 0.0038,-0.0346 0.0013,-0.0511 -0.0029,-0.0187 -0.0093,-0.0368 -0.0187,-0.0531 -0.0094,-0.0163 -0.0222,-0.0314 -0.03824,-0.0434 -0.01633,-0.0123 -0.03599,-0.0213 -0.05813,-0.0249 -0.0174,-0.002 -0.02968,-7.5e-4 -0.04168,0.002 -0.01212,0.003 -0.02284,0.008 -0.03214,0.0139 -0.0184,0.0118 -0.03052,0.0272 -0.0382,0.0387 -0.0078,0.0116 -0.01434,0.0243 -0.01812,0.0315 -0.0051,0.01 -0.0071,0.013 -0.0087,0.0151 -0.01054,0.0176 -0.01496,0.026 -0.01794,0.0316 a 0.0663647,0.0663647 90 0 0 0.117132,0.0624 c 0.0024,-0.005 0.0065,-0.0118 0.01173,-0.0206 0.0042,-0.005 0.01094,-0.0173 0.0155,-0.0258 0.0051,-0.01 0.0081,-0.0151 0.01113,-0.0196 0.0029,-0.004 0.0029,-0.003 -4.57e-4,-7.4e-4 -0.0019,0.001 -0.0045,0.002 -0.0076,0.003 -0.0031,7.7e-4 -0.0055,8.1e-4 -0.0069,7e-4 -0.0022,0.005 -0.0014,0.007 -0.0011,0.009 2.17e-4,0.001 3.85e-4,0.003 2.94e-4,0.004 -9.2e-5,0.001 -4.2e-4,0.003 -8.16e-4,0.004 -3.95e-4,0.001 -8.38e-4,0.003 -0.0011,0.004 -3.01e-4,0.001 -4.36e-4,0.003 -5.26e-4,0.004 -0.002,0.0305 -0.0017,0.0577 -0.0034,0.0807 -0.0018,0.0249 -0.0054,0.0433 -0.01173,0.0588 0.004,0.007 0.0061,0.008 0.0074,0.009 0.0016,7.7e-4 -0.0027,-0.003 -0.0065,-0.008 -0.0038,-0.005 -0.0072,-0.0107 -0.0098,-0.0173 -0.0054,-0.0133 -0.0075,-0.0286 -0.006,-0.0434 7.82e-4,-0.01 0.0023,-0.0178 0.0048,-0.026 0.0025,-0.008 0.006,-0.0168 0.01055,-0.0259 0.0092,-0.0185 0.02134,-0.0368 0.03597,-0.0581 0.0037,-0.005 0.01051,-0.0124 0.01763,-0.0193 0.0071,-0.007 0.01409,-0.0126 0.02087,-0.0169 0.0067,-0.004 0.01253,-0.007 0.01754,-0.008 0.0047,-0.001 0.0091,-0.002 0.01354,-8.7e-4 4.7e-5,-3e-5 0.002,6.8e-4 0.0037,0.002 0.0015,7.5e-4 0.0029,0.002 0.0044,0.003 0.0032,0.003 0.0068,0.007 0.01011,0.0142 0.0033,0.007 0.0059,0.0154 0.0074,0.025 0.0015,0.009 0.0019,0.0192 0.0012,0.0282 -0.003,0.0331 -0.01566,0.0664 -0.03647,0.0956 -0.02046,0.0287 -0.04811,0.0524 -0.07976,0.0671 -0.0151,0.007 -0.031,0.0123 -0.04545,0.0137 -0.007,6.7e-4 -0.0133,4.7e-4 -0.01885,-4.9e-4 -0.0054,-9.4e-4 -0.01033,-0.003 -0.01481,-0.005 -0.0023,0.001 -0.0025,-0.002 -0.0021,-0.007 3.7e-4,-0.005 0.0012,-0.0106 0.0024,-0.0168 0.0056,-0.023 0.01825,-0.0466 0.03636,-0.0687 0.01795,-0.0219 0.04067,-0.0417 0.06565,-0.0589 0.0014,-9.6e-4 0.0028,-0.002 0.0041,-0.003 0.0013,-0.001 0.0025,-0.002 0.0036,-0.004 0.0032,-0.004 0.0073,-0.007 0.01202,-0.009 0.0048,-0.002 0.01004,-0.003 0.01535,-0.003 0.0024,0 0.0048,2.3e-4 0.0071,6.6e-4 0.0026,5e-4 0.0051,0.001 0.0074,0.002 0.0042,0.002 0.0078,0.005 0.01075,0.008 0.0058,0.006 0.0069,0.008 0.0075,0.0105 6.16e-4,0.002 6.93e-4,0.006 -1.65e-4,0.009 -8.66e-4,0.004 -0.0026,0.007 -0.0049,0.01 -0.0022,0.003 -0.0048,0.005 -0.0077,0.006 -0.0026,0.001 -0.0052,0.002 -0.0075,0.004 -0.0023,0.002 -0.0044,0.004 -0.0064,0.006 -0.02102,0.0202 -0.04525,0.0375 -0.07147,0.0504 -0.02581,0.0127 -0.05318,0.0208 -0.08096,0.0233 -0.0177,0.001 -0.03618,-3.6e-4 -0.05284,-0.005 -0.01654,-0.005 -0.03031,-0.0122 -0.04076,-0.0222 -0.0026,-0.002 -0.0037,-0.004 -0.0044,-0.005 -7.55e-4,-0.001 -0.0013,-0.003 -0.0017,-0.004 -7.89e-4,-0.003 -0.0011,-0.008 4.3e-5,-0.0142 0.0012,-0.006 0.0036,-0.0136 0.0075,-0.0209 0.0039,-0.007 0.0087,-0.014 0.01369,-0.0192 0.01413,-0.0179 0.02885,-0.0304 0.04669,-0.0429 0.01816,-0.0127 0.03934,-0.0251 0.06133,-0.0396 0.02577,-0.0166 0.04668,-0.0309 0.06935,-0.0425 0.01106,-0.006 0.02149,-0.0102 0.03158,-0.0134 0.01022,-0.003 0.01998,-0.005 0.02956,-0.006 l -0.03259,-0.10484 c -0.05749,0.0319 -0.113146,0.0577 -0.168196,0.0772 -0.0065,0.002 -0.01299,0.005 -0.01956,0.007 -0.01925,0.006 -0.03947,0.0139 -0.05999,0.0201 -0.0087,0.003 -0.01642,0.005 -0.02361,0.006 -0.0071,0.001 -0.01345,0.001 -0.01942,0.001 -8.35e-4,-5e-5 -0.0017,-1e-4 -0.0025,-1e-5 -8.32e-4,1e-4 -0.0017,3.3e-4 -0.0024,7.2e-4 -7.38e-4,3.9e-4 -0.0014,9.4e-4 -0.0019,0.002 -5.28e-4,6.5e-4 -9.31e-4,0.001 -0.0012,0.002 -6.18e-4,0.002 -8.79e-4,0.003 -0.0013,0.005 -3.93e-4,0.002 -9.71e-4,0.003 -0.0016,0.005 0.01449,-0.0336 0.03859,-0.0611 0.06447,-0.0812 0.03326,-0.0255 0.07042,-0.043 0.105575,-0.0556 0.04562,-0.0165 0.09362,-0.0267 0.125006,-0.0329 a 0.05741534,0.05741534 90 0 0 -0.02223,-0.11266 z"
       id="path-1"
       inkscape:path-effect="#path-effect151;#path-effect153"
       inkscape:original-d="m -15.113598,153.44016 c -0.129196,0.025 -0.279981,0.0724 -0.337148,0.20302 -0.01088,0.0908 0.103317,0.0709 0.155816,0.0459 0.07934,-0.0234 0.154943,-0.0582 0.226802,-0.0989 -0.0717,0.005 -0.141173,0.0666 -0.204524,0.10483 -0.06566,0.042 -0.154282,0.1453 -0.06202,0.2082 0.09602,0.0588 0.221327,0.0108 0.295609,-0.0626 0.103952,-0.0597 -0.01468,-0.18377 -0.09173,-0.11159 -0.07064,0.0444 -0.146369,0.12817 -0.131595,0.2162 0.05169,0.0625 0.148752,0.0285 0.202246,-0.015 0.07819,-0.0615 0.129747,-0.18277 0.07553,-0.2745 -0.07039,-0.0872 -0.170692,0.003 -0.207392,0.0748 -0.05014,0.0685 -0.05796,0.17479 0.01576,0.23016 0.101317,0.042 0.108029,-0.12741 0.104163,-0.19394 0.02714,-0.0737 -0.07089,-0.15329 -0.108241,-0.0647 -0.01253,0.0193 -0.02424,0.0391 -0.03506,0.0594"
       style="fill:#000000;fill-rule:nonzero;stroke:none;stroke-width:0.791642" />
  </g>
</svg>
