<?xml version="1.0" encoding="UTF-8" standalone="no"?>
<!-- Created with Inkscape (http://www.inkscape.org/) -->

<svg
   width="3mm"
   height="10mm"
   viewBox="0 0 3.0000001 9.9999994"
   version="1.1"
   id="svg1681"
   inkscape:version="1.2.1 (9c6d41e410, 2022-07-14)"
   sodipodi:docname="dot_20.svg"
   inkscape:export-filename="..\..\..\..\Downloads\lower a diff canvas resize 3.0.png"
   inkscape:export-xdpi="96"
   inkscape:export-ydpi="96"
   xmlns:inkscape="http://www.inkscape.org/namespaces/inkscape"
   xmlns:sodipodi="http://sodipodi.sourceforge.net/DTD/sodipodi-0.dtd"
   xmlns="http://www.w3.org/2000/svg"
   xmlns:svg="http://www.w3.org/2000/svg"
   xmlns:rdf="http://www.w3.org/1999/02/22-rdf-syntax-ns#"
   xmlns:cc="http://creativecommons.org/ns#"
   xmlns:dc="http://purl.org/dc/elements/1.1/">
  <defs
     id="defs1675">
    <inkscape:path-effect
       effect="powerstroke"
       id="path-effect156"
       is_visible="true"
       lpeversion="1"
       offset_points="3.6449246,0.068124356 | 10.467419,0.081213751"
       not_jump="true"
       sort_points="true"
       interpolator_type="CentripetalCatmullRom"
       interpolator_beta="0.75"
       start_linecap_type="round"
       linejoin_type="spiro"
       miter_limit="4"
       scale_width="1"
       end_linecap_type="round" />
    <inkscape:path-effect
       effect="simplify"
       id="path-effect154"
       is_visible="true"
       lpeversion="1"
       steps="1"
       threshold="0.0035951417"
       smooth_angles="0"
       helper_size="0"
       simplify_individual_paths="false"
       simplify_just_coalesce="false"
       step="1" />
    <inkscape:path-effect
       effect="powerstroke"
       id="path-effect153"
       is_visible="true"
       lpeversion="1"
       offset_points="8.8110212,0.080661891 | 10.214209,0.09148239 | 32.679216,0.10168809 | 38.231793,0.089760945"
       not_jump="true"
       sort_points="true"
       interpolator_type="CentripetalCatmullRom"
       interpolator_beta="0.75"
       start_linecap_type="round"
       linejoin_type="spiro"
       miter_limit="4"
       scale_width="1"
       end_linecap_type="round" />
    <inkscape:path-effect
       effect="simplify"
       id="path-effect151"
       is_visible="true"
       lpeversion="1"
       steps="1"
       threshold="0.0035951417"
       smooth_angles="0"
       helper_size="0"
       simplify_individual_paths="false"
       simplify_just_coalesce="false"
       step="1" />
    <inkscape:path-effect
       effect="powerstroke"
       id="path-effect1728"
       is_visible="true"
       lpeversion="1"
       offset_points="8.1536841,0.077481146 | 19.435006,0.087667 | 22.983426,0.079655653"
       not_jump="true"
       sort_points="true"
       interpolator_type="CentripetalCatmullRom"
       interpolator_beta="0.75"
       start_linecap_type="round"
       linejoin_type="spiro"
       miter_limit="4"
       scale_width="1"
       end_linecap_type="round" />
    <inkscape:path-effect
       effect="simplify"
       id="path-effect1726"
       is_visible="true"
       lpeversion="1"
       steps="1"
       threshold="0.0035951417"
       smooth_angles="0"
       helper_size="0"
       simplify_individual_paths="false"
       simplify_just_coalesce="false"
       step="1" />
    <inkscape:path-effect
       effect="powerstroke"
       id="path-effect502"
       is_visible="true"
       lpeversion="1"
       offset_points="3.0091841,0.21607495 | 7.3602657,0.17554228 | 9.4159651,0.20236537"
       not_jump="true"
       sort_points="true"
       interpolator_type="CentripetalCatmullRom"
       interpolator_beta="0.75"
       start_linecap_type="round"
       linejoin_type="spiro"
       miter_limit="4"
       scale_width="1"
       end_linecap_type="round" />
    <inkscape:path-effect
       effect="simplify"
       id="path-effect500"
       is_visible="true"
       lpeversion="1"
       steps="1"
       threshold="0.0035951417"
       smooth_angles="0"
       helper_size="0"
       simplify_individual_paths="false"
       simplify_just_coalesce="false"
       step="1" />
    <inkscape:path-effect
       effect="powerstroke"
       id="path-effect241"
       is_visible="true"
       lpeversion="1"
       offset_points="2.6879454,0.34086734"
       not_jump="true"
       sort_points="true"
       interpolator_type="CentripetalCatmullRom"
       interpolator_beta="0.75"
       start_linecap_type="round"
       linejoin_type="spiro"
       miter_limit="4"
       scale_width="1"
       end_linecap_type="round" />
    <inkscape:path-effect
       effect="simplify"
       id="path-effect239"
       is_visible="true"
       lpeversion="1"
       steps="1"
       threshold="0.0028332064"
       smooth_angles="0"
       helper_size="0"
       simplify_individual_paths="false"
       simplify_just_coalesce="false"
       step="1" />
    <inkscape:path-effect
       effect="powerstroke"
       id="path-effect234"
       is_visible="true"
       lpeversion="1"
       offset_points="2.13563,0.075169555"
       not_jump="true"
       sort_points="true"
       interpolator_type="CentripetalCatmullRom"
       interpolator_beta="0.75"
       start_linecap_type="round"
       linejoin_type="spiro"
       miter_limit="4"
       scale_width="1"
       end_linecap_type="round" />
    <inkscape:path-effect
       effect="simplify"
       id="path-effect232"
       is_visible="true"
       lpeversion="1"
       steps="1"
       threshold="0.0028332064"
       smooth_angles="0"
       helper_size="0"
       simplify_individual_paths="false"
       simplify_just_coalesce="false"
       step="1" />
    <inkscape:path-effect
       effect="powerstroke"
       id="path-effect227"
       is_visible="true"
       lpeversion="1"
       offset_points="2.1868266,0.075169555"
       not_jump="true"
       sort_points="true"
       interpolator_type="CentripetalCatmullRom"
       interpolator_beta="0.75"
       start_linecap_type="round"
       linejoin_type="spiro"
       miter_limit="4"
       scale_width="1"
       end_linecap_type="round" />
    <inkscape:path-effect
       effect="simplify"
       id="path-effect225"
       is_visible="true"
       lpeversion="1"
       steps="1"
       threshold="0.0028332064"
       smooth_angles="0"
       helper_size="0"
       simplify_individual_paths="false"
       simplify_just_coalesce="false"
       step="1" />
    <inkscape:path-effect
       effect="powerstroke"
       id="path-effect166"
       is_visible="true"
       lpeversion="1"
       offset_points="1.9637935,0.075169555"
       not_jump="true"
       sort_points="true"
       interpolator_type="CentripetalCatmullRom"
       interpolator_beta="0.75"
       start_linecap_type="round"
       linejoin_type="spiro"
       miter_limit="4"
       scale_width="1"
       end_linecap_type="round" />
    <inkscape:path-effect
       effect="simplify"
       id="path-effect164"
       is_visible="true"
       lpeversion="1"
       steps="1"
       threshold="0.0028332064"
       smooth_angles="0"
       helper_size="0"
       simplify_individual_paths="false"
       simplify_just_coalesce="false"
       step="1" />
    <inkscape:path-effect
       effect="powerstroke"
       id="path-effect159"
       is_visible="true"
       lpeversion="1"
       offset_points="2.2611036,0.075169555"
       not_jump="true"
       sort_points="true"
       interpolator_type="CentripetalCatmullRom"
       interpolator_beta="0.75"
       start_linecap_type="round"
       linejoin_type="spiro"
       miter_limit="4"
       scale_width="1"
       end_linecap_type="round" />
    <inkscape:path-effect
       effect="simplify"
       id="path-effect157"
       is_visible="true"
       lpeversion="1"
       steps="1"
       threshold="0.0028332064"
       smooth_angles="0"
       helper_size="0"
       simplify_individual_paths="false"
       simplify_just_coalesce="false"
       step="1" />
    <inkscape:path-effect
       effect="powerstroke"
       id="path-effect152"
       is_visible="true"
       lpeversion="1"
       offset_points="2.826981,0.075169555"
       not_jump="true"
       sort_points="true"
       interpolator_type="CentripetalCatmullRom"
       interpolator_beta="0.75"
       start_linecap_type="round"
       linejoin_type="spiro"
       miter_limit="4"
       scale_width="1"
       end_linecap_type="round" />
    <inkscape:path-effect
       effect="simplify"
       id="path-effect150"
       is_visible="true"
       lpeversion="1"
       steps="1"
       threshold="0.0028332064"
       smooth_angles="0"
       helper_size="0"
       simplify_individual_paths="false"
       simplify_just_coalesce="false"
       step="1" />
    <inkscape:path-effect
       effect="powerstroke"
       id="path-effect145"
       is_visible="true"
       lpeversion="1"
       offset_points="3.8374447,0.075169555"
       not_jump="true"
       sort_points="true"
       interpolator_type="CentripetalCatmullRom"
       interpolator_beta="0.75"
       start_linecap_type="round"
       linejoin_type="spiro"
       miter_limit="4"
       scale_width="1"
       end_linecap_type="round" />
    <inkscape:path-effect
       effect="simplify"
       id="path-effect143"
       is_visible="true"
       lpeversion="1"
       steps="1"
       threshold="0.0028332064"
       smooth_angles="0"
       helper_size="0"
       simplify_individual_paths="false"
       simplify_just_coalesce="false"
       step="1" />
    <inkscape:path-effect
       effect="powerstroke"
       id="path-effect138"
       is_visible="true"
       lpeversion="1"
       offset_points="2.6880907,0.075169555"
       not_jump="true"
       sort_points="true"
       interpolator_type="CentripetalCatmullRom"
       interpolator_beta="0.75"
       start_linecap_type="round"
       linejoin_type="spiro"
       miter_limit="4"
       scale_width="1"
       end_linecap_type="round" />
    <inkscape:path-effect
       effect="simplify"
       id="path-effect136"
       is_visible="true"
       lpeversion="1"
       steps="1"
       threshold="0.0028332064"
       smooth_angles="0"
       helper_size="0"
       simplify_individual_paths="false"
       simplify_just_coalesce="false"
       step="1" />
    <inkscape:path-effect
       effect="powerstroke"
       id="path-effect131"
       is_visible="true"
       lpeversion="1"
       offset_points="1.9940581,0.075169555"
       not_jump="true"
       sort_points="true"
       interpolator_type="CentripetalCatmullRom"
       interpolator_beta="0.75"
       start_linecap_type="round"
       linejoin_type="spiro"
       miter_limit="4"
       scale_width="1"
       end_linecap_type="round" />
    <inkscape:path-effect
       effect="simplify"
       id="path-effect129"
       is_visible="true"
       lpeversion="1"
       steps="1"
       threshold="0.0028332064"
       smooth_angles="0"
       helper_size="0"
       simplify_individual_paths="false"
       simplify_just_coalesce="false"
       step="1" />
  </defs>
  <sodipodi:namedview
     id="base"
     pagecolor="#ffffff"
     bordercolor="#666666"
     borderopacity="1.0"
     inkscape:pageopacity="0.0"
     inkscape:pageshadow="2"
     inkscape:zoom="7.919596"
     inkscape:cx="-5.3033008"
     inkscape:cy="20.834396"
     inkscape:document-units="mm"
     inkscape:current-layer="layer1"
     showgrid="false"
     fit-margin-top="0"
     fit-margin-left="0"
     fit-margin-right="0"
     fit-margin-bottom="0"
     inkscape:window-width="1920"
     inkscape:window-height="974"
     inkscape:window-x="-11"
     inkscape:window-y="2889"
     inkscape:window-maximized="1"
     showguides="true"
     inkscape:guide-bbox="true"
     inkscape:snap-bbox="true"
     inkscape:bbox-nodes="true"
     inkscape:snap-nodes="false"
     inkscape:snap-others="false"
     inkscape:snap-page="true"
     inkscape:snap-grids="false"
     inkscape:snap-to-guides="false"
     inkscape:snap-global="false"
     inkscape:pagecheckerboard="0"
     inkscape:showpageshadow="2"
     inkscape:deskcolor="#d1d1d1">
    <sodipodi:guide
       position="-6.1806076,9.4988693"
       orientation="0,1"
       id="guide816"
       inkscape:locked="false" />
    <sodipodi:guide
       position="-4.4101636,10.646923"
       orientation="0,1"
       id="guide818"
       inkscape:locked="false" />
    <sodipodi:guide
       position="2.7595724,11.09577"
       orientation="1,0"
       id="guide820"
       inkscape:locked="false" />
    <sodipodi:guide
       position="3.6572659,10.942217"
       orientation="1,0"
       id="guide822"
       inkscape:locked="false" />
    <sodipodi:guide
       position="-0.051625511,9.74923"
       orientation="1,0"
       id="guide1853"
       inkscape:locked="false" />
    <sodipodi:guide
       position="-2.3720169,3.0175835"
       orientation="0,1"
       id="guide1855"
       inkscape:locked="false" />
  </sodipodi:namedview>
  <metadata
     id="metadata1678">
    <rdf:RDF>
      <cc:Work
         rdf:about="">
        <dc:format>image/svg+xml</dc:format>
        <dc:type
           rdf:resource="http://purl.org/dc/dcmitype/StillImage" />
      </cc:Work>
    </rdf:RDF>
  </metadata>
  <g
     inkscape:label="Layer 1"
     inkscape:groupmode="layer"
     id="layer1"
     transform="translate(17.028496,-147.22856)">
    <path
       d="m -16.137938,154.02434 c -0.0308,0.0197 -0.07906,0.0532 -0.124082,0.0992 -0.03384,0.0346 -0.06969,0.0801 -0.09502,0.13746 -0.01599,0.0335 -0.0223,0.0756 -0.01511,0.11724 0.0034,0.0196 0.0098,0.0395 0.02001,0.0583 0.0099,0.0184 0.02339,0.0358 0.04087,0.0506 0.01648,0.0151 0.03791,0.0259 0.06051,0.0311 0.02192,0.005 0.04354,0.004 0.06322,6.1e-4 0.01947,-0.004 0.03775,-0.0109 0.05402,-0.0199 0.01623,-0.009 0.03127,-0.0204 0.04416,-0.0334 0.0171,-0.0162 0.03748,-0.0377 0.05451,-0.0629 0.0051,-0.007 0.0099,-0.0154 0.0143,-0.0236 0.0032,-0.006 0.0062,-0.0123 0.009,-0.0189 0.0065,-0.0154 0.01166,-0.0324 0.01429,-0.0509 9.37e-4,-0.0185 -6.15e-4,-0.03 -0.0047,-0.0413 -0.0041,-0.0112 -0.01016,-0.0211 -0.01763,-0.0293 -0.0073,-0.008 -0.01547,-0.0142 -0.02351,-0.0187 -0.0079,-0.004 -0.01593,-0.007 -0.02348,-0.009 -0.01464,-0.004 -0.02952,-0.005 -0.04316,-0.003 -0.0132,0.002 -0.02836,0.006 -0.0427,0.0143 -0.01788,0.008 -0.04657,0.0219 -0.07372,0.0386 -0.02696,0.0166 -0.05541,0.0381 -0.07991,0.0673 -0.0075,0.007 -0.0172,0.0203 -0.02488,0.0347 -0.0076,0.0142 -0.01346,0.0301 -0.01658,0.0471 -0.0031,0.0169 -0.0035,0.0353 1.07e-4,0.0541 0.0037,0.0189 0.01132,0.0375 0.02358,0.0546 0.0053,0.009 0.01608,0.0219 0.02824,0.0324 0.01208,0.0104 0.02607,0.0194 0.04154,0.0259 0.01539,0.006 0.03281,0.0108 0.05149,0.0114 0.01876,5.9e-4 0.03844,-0.003 0.05757,-0.0109 0.0417,-0.0192 0.0733,-0.0469 0.0979,-0.0771 0.02435,-0.0299 0.04257,-0.063 0.05627,-0.0945 0.0047,-0.0133 0.01493,-0.0394 0.01972,-0.0591 0.0029,-0.0119 0.0054,-0.0265 0.0054,-0.0427 -5.4e-5,-0.0165 -0.0028,-0.0347 -0.01026,-0.0531 -0.0016,-0.004 -0.0032,-0.008 -0.0054,-0.0113 -0.0022,-0.004 -0.0048,-0.007 -0.0075,-0.01 -0.0079,-0.01 -0.01752,-0.0179 -0.02874,-0.0245 -0.01123,-0.007 -0.02292,-0.0108 -0.03437,-0.013 -0.01951,-0.004 -0.03696,-0.002 -0.04982,0.001 -0.002,4.5e-4 -0.0039,9.3e-4 -0.0058,0.001 -0.01363,0.004 -0.02546,0.009 -0.03408,0.0131 -0.0076,0.004 -0.01657,0.009 -0.01957,0.0102 -0.03291,0.022 -0.06028,0.0433 -0.08527,0.0693 -0.02403,0.025 -0.04702,0.0555 -0.06357,0.0923 -0.01744,0.0334 -0.02131,0.0767 -0.0106,0.116 0.0053,0.0196 0.01441,0.0388 0.02768,0.056 0.01324,0.0172 0.03046,0.0321 0.05141,0.0429 0.02936,0.0171 0.06588,0.0249 0.100897,0.0239 0.03473,-0.001 0.06955,-0.0109 0.100088,-0.0293 0.04667,-0.0252 0.08742,-0.0671 0.113826,-0.11589 0.01337,-0.0247 0.02334,-0.0516 0.02885,-0.0798 0.0052,-0.0267 0.0064,-0.0545 0.0028,-0.0826 -5.13e-4,-0.01 -0.0023,-0.0198 -0.0054,-0.0293 -0.0041,-0.0124 -0.01014,-0.0235 -0.01746,-0.0331 -0.01465,-0.0191 -0.03307,-0.031 -0.0512,-0.0381 -0.01803,-0.007 -0.03733,-0.01 -0.05602,-0.008 -0.01902,0.001 -0.03962,0.007 -0.05846,0.0194 -0.05393,0.0298 -0.09291,0.0818 -0.117724,0.12044 -0.0077,0.0117 -0.01479,0.0256 -0.02016,0.0401 -0.0056,0.0151 -0.0098,0.0322 -0.01099,0.0503 -0.0012,0.0191 8.06e-4,0.0408 0.0097,0.0624 0.0046,0.0113 0.01093,0.0221 0.01902,0.032 0.0083,0.0102 0.01805,0.0188 0.02869,0.0259 0.02229,0.0131 0.04021,0.0182 0.05421,0.0209 0.01744,0.003 0.03307,0.004 0.04299,0.003 a 0.08121375,0.08121375 90 0 0 -0.003,-0.1624 c -0.0041,8e-5 -0.0073,-1.8e-4 -0.0093,-6.1e-4 -0.0013,-2.8e-4 -8.41e-4,-5e-4 0.0012,6.1e-4 0.0063,0.004 0.009,0.006 0.0115,0.009 0.0024,0.003 0.0043,0.006 0.0056,0.009 0.0024,0.006 0.0022,0.01 0.0022,0.01 -5e-6,4.7e-4 2.61e-4,-0.002 0.0013,-0.004 0.0011,-0.003 0.0025,-0.006 0.0039,-0.008 0.02108,-0.0325 0.04235,-0.0567 0.06562,-0.0696 -0.0026,0.002 -0.0097,0.004 -0.01476,0.004 -0.005,3.6e-4 -0.0101,-3e-4 -0.01537,-0.002 -0.0055,-0.002 -0.01271,-0.006 -0.01939,-0.015 -0.0034,-0.004 -0.0063,-0.01 -0.0082,-0.0156 -0.002,-0.006 -0.0027,-0.0119 -0.0026,-0.0172 l 9.24e-4,0.0146 c 0.0015,0.0101 0.0013,0.0208 -8.85e-4,0.0318 -0.0022,0.011 -0.0062,0.0221 -0.01207,0.0329 -0.01189,0.0219 -0.03014,0.0402 -0.05078,0.0514 -0.0089,0.005 -0.01603,0.007 -0.02343,0.008 -0.0074,2.2e-4 -0.01317,-0.001 -0.01705,-0.004 0.0096,-0.0191 0.02037,-0.0344 0.03457,-0.0494 0.01486,-0.0156 0.03273,-0.0301 0.05207,-0.0436 -0.0012,0.001 0.0036,-0.002 0.007,-0.003 0.0036,-0.002 0.0057,-0.003 0.0044,-0.002 -0.0028,5.5e-4 -0.0084,0.002 -0.01756,-1.5e-4 -0.0054,-0.001 -0.01125,-0.003 -0.01695,-0.007 -0.0057,-0.003 -0.01006,-0.007 -0.01318,-0.0112 -0.0027,-0.003 -0.0053,-0.006 -0.0076,-0.01 -0.0022,-0.004 -0.0039,-0.007 -0.0053,-0.0113 -0.0012,-0.003 -0.0013,-0.006 -0.0012,-0.007 1.14e-4,-5.7e-4 2.49e-4,0.001 -4.7e-4,0.005 -0.0014,0.007 -0.0065,0.0213 -0.01227,0.0408 -0.0064,0.0149 -0.01734,0.035 -0.02992,0.0513 -0.0125,0.0162 -0.02582,0.0275 -0.03991,0.0345 0.0046,-0.002 0.0076,-0.002 0.0097,-0.002 -0.0033,-0.004 -0.0028,-0.002 -0.0027,-9.8e-4 -4.55e-4,-4.4e-4 -1.59e-4,-0.002 6.83e-4,-0.004 8.57e-4,-0.002 0.0021,-0.004 0.0034,-0.006 0.01492,-0.0184 0.02971,-0.031 0.04813,-0.0431 0.01933,-0.0127 0.04095,-0.0239 0.06517,-0.0362 -2.49e-4,3e-4 -0.0046,9.3e-4 -0.0068,0.001 -0.0023,1.7e-4 -0.0055,3e-5 -0.0097,-0.001 -0.0022,-6.4e-4 -0.0052,-0.002 -0.0086,-0.004 -0.0035,-0.002 -0.0076,-0.005 -0.01152,-0.009 -0.0041,-0.005 -0.0075,-0.0101 -0.0097,-0.0164 -0.0023,-0.006 -0.0029,-0.0122 -0.0027,-0.017 -3e-6,-0.002 -0.0014,0.003 -0.0038,0.009 -0.001,0.003 -0.0022,0.005 -0.0036,0.008 -0.0019,0.004 -0.0041,0.008 -0.0068,0.0115 -0.0091,0.0138 -0.02159,0.0277 -0.03659,0.0422 -0.005,0.005 -0.0097,0.009 -0.01488,0.0117 -0.0052,0.003 -0.01017,0.005 -0.01421,0.006 -0.004,8e-4 -0.0063,5e-4 -0.0071,3.1e-4 -0.0069,-0.006 -0.01001,-0.009 -0.01254,-0.0141 -0.0026,-0.005 -0.0046,-0.0107 -0.0057,-0.0171 -0.0024,-0.0141 1.04e-4,-0.0277 0.0049,-0.0377 0.0179,-0.0402 0.04286,-0.0724 0.06895,-0.0989 0.03486,-0.0354 0.07359,-0.0624 0.100476,-0.0797 a 0.06812436,0.06812436 90 0 0 -0.07346,-0.11474 z"
       id="path-1"
       inkscape:path-effect="#path-effect154;#path-effect156"
       inkscape:original-d="m -16.101206,154.08171 c -0.0824,0.0527 -0.159947,0.12305 -0.197475,0.21528 -0.02271,0.057 -6.5e-4,0.13575 0.06193,0.15527 0.04951,0.0127 0.09377,-0.0257 0.124706,-0.0598 0.02149,-0.0291 0.04771,-0.0621 0.0471,-0.0994 -0.02403,-0.0418 -0.07561,0.006 -0.107707,0.0177 -0.04044,0.025 -0.08255,0.0563 -0.100534,0.10179 -0.01856,0.0564 0.04717,0.12111 0.1022,0.0916 0.05466,-0.0281 0.08965,-0.0843 0.111655,-0.14 0.0073,-0.0283 0.03338,-0.0934 -0.01514,-0.0936 -0.04638,0.008 -0.08187,0.044 -0.115013,0.0751 -0.03073,0.0344 -0.06349,0.0801 -0.0526,0.12863 0.01988,0.0612 0.09979,0.0761 0.151689,0.0478 0.07916,-0.0383 0.13305,-0.13383 0.109654,-0.22118 -0.03932,-0.0486 -0.09714,0.0155 -0.125229,0.0473 -0.0276,0.0336 -0.06798,0.0926 -0.03046,0.13207 0.01601,0.0123 0.0372,0.0155 0.05688,0.0151"
       style="fill:#000000;fill-rule:nonzero;stroke:none;stroke-width:0.67542" />
  </g>
</svg>
