<?xml version="1.0" encoding="UTF-8" standalone="no"?>
<!-- Created with Inkscape (http://www.inkscape.org/) -->

<svg
   width="3mm"
   height="10mm"
   viewBox="0 0 3.0000001 9.9999994"
   version="1.1"
   id="svg1681"
   inkscape:version="1.2.1 (9c6d41e410, 2022-07-14)"
   sodipodi:docname="dot_8.svg"
   inkscape:export-filename="..\..\..\..\Downloads\lower a diff canvas resize 3.0.png"
   inkscape:export-xdpi="96"
   inkscape:export-ydpi="96"
   xmlns:inkscape="http://www.inkscape.org/namespaces/inkscape"
   xmlns:sodipodi="http://sodipodi.sourceforge.net/DTD/sodipodi-0.dtd"
   xmlns="http://www.w3.org/2000/svg"
   xmlns:svg="http://www.w3.org/2000/svg"
   xmlns:rdf="http://www.w3.org/1999/02/22-rdf-syntax-ns#"
   xmlns:cc="http://creativecommons.org/ns#"
   xmlns:dc="http://purl.org/dc/elements/1.1/">
  <defs
     id="defs1675">
    <inkscape:path-effect
       effect="powerstroke"
       id="path-effect153"
       is_visible="true"
       lpeversion="1"
       offset_points="6.0891728,0.066722402 | 8.297066,0.074845815 | 40.900087,0.06758995 | 47.987313,0.075713364"
       not_jump="true"
       sort_points="true"
       interpolator_type="CentripetalCatmullRom"
       interpolator_beta="0.75"
       start_linecap_type="round"
       linejoin_type="spiro"
       miter_limit="4"
       scale_width="1"
       end_linecap_type="round" />
    <inkscape:path-effect
       effect="simplify"
       id="path-effect151"
       is_visible="true"
       lpeversion="1"
       steps="1"
       threshold="0.0035951417"
       smooth_angles="0"
       helper_size="0"
       simplify_individual_paths="false"
       simplify_just_coalesce="false"
       step="1" />
    <inkscape:path-effect
       effect="powerstroke"
       id="path-effect1547"
       is_visible="true"
       lpeversion="1"
       offset_points="5.6381698,0.094267736"
       not_jump="true"
       sort_points="true"
       interpolator_type="CentripetalCatmullRom"
       interpolator_beta="0.75"
       start_linecap_type="round"
       linejoin_type="spiro"
       miter_limit="4"
       scale_width="1"
       end_linecap_type="round" />
    <inkscape:path-effect
       effect="simplify"
       id="path-effect1545"
       is_visible="true"
       lpeversion="1"
       steps="1"
       threshold="0.0035951417"
       smooth_angles="0"
       helper_size="0"
       simplify_individual_paths="false"
       simplify_just_coalesce="false"
       step="1" />
    <inkscape:path-effect
       effect="powerstroke"
       id="path-effect502"
       is_visible="true"
       lpeversion="1"
       offset_points="3.0091841,0.21607495 | 7.3602657,0.17554228 | 9.4159651,0.20236537"
       not_jump="true"
       sort_points="true"
       interpolator_type="CentripetalCatmullRom"
       interpolator_beta="0.75"
       start_linecap_type="round"
       linejoin_type="spiro"
       miter_limit="4"
       scale_width="1"
       end_linecap_type="round" />
    <inkscape:path-effect
       effect="simplify"
       id="path-effect500"
       is_visible="true"
       lpeversion="1"
       steps="1"
       threshold="0.0035951417"
       smooth_angles="0"
       helper_size="0"
       simplify_individual_paths="false"
       simplify_just_coalesce="false"
       step="1" />
    <inkscape:path-effect
       effect="powerstroke"
       id="path-effect241"
       is_visible="true"
       lpeversion="1"
       offset_points="2.6879454,0.34086734"
       not_jump="true"
       sort_points="true"
       interpolator_type="CentripetalCatmullRom"
       interpolator_beta="0.75"
       start_linecap_type="round"
       linejoin_type="spiro"
       miter_limit="4"
       scale_width="1"
       end_linecap_type="round" />
    <inkscape:path-effect
       effect="simplify"
       id="path-effect239"
       is_visible="true"
       lpeversion="1"
       steps="1"
       threshold="0.0028332064"
       smooth_angles="0"
       helper_size="0"
       simplify_individual_paths="false"
       simplify_just_coalesce="false"
       step="1" />
    <inkscape:path-effect
       effect="powerstroke"
       id="path-effect234"
       is_visible="true"
       lpeversion="1"
       offset_points="2.13563,0.075169555"
       not_jump="true"
       sort_points="true"
       interpolator_type="CentripetalCatmullRom"
       interpolator_beta="0.75"
       start_linecap_type="round"
       linejoin_type="spiro"
       miter_limit="4"
       scale_width="1"
       end_linecap_type="round" />
    <inkscape:path-effect
       effect="simplify"
       id="path-effect232"
       is_visible="true"
       lpeversion="1"
       steps="1"
       threshold="0.0028332064"
       smooth_angles="0"
       helper_size="0"
       simplify_individual_paths="false"
       simplify_just_coalesce="false"
       step="1" />
    <inkscape:path-effect
       effect="powerstroke"
       id="path-effect227"
       is_visible="true"
       lpeversion="1"
       offset_points="2.1868266,0.075169555"
       not_jump="true"
       sort_points="true"
       interpolator_type="CentripetalCatmullRom"
       interpolator_beta="0.75"
       start_linecap_type="round"
       linejoin_type="spiro"
       miter_limit="4"
       scale_width="1"
       end_linecap_type="round" />
    <inkscape:path-effect
       effect="simplify"
       id="path-effect225"
       is_visible="true"
       lpeversion="1"
       steps="1"
       threshold="0.0028332064"
       smooth_angles="0"
       helper_size="0"
       simplify_individual_paths="false"
       simplify_just_coalesce="false"
       step="1" />
    <inkscape:path-effect
       effect="powerstroke"
       id="path-effect166"
       is_visible="true"
       lpeversion="1"
       offset_points="1.9637935,0.075169555"
       not_jump="true"
       sort_points="true"
       interpolator_type="CentripetalCatmullRom"
       interpolator_beta="0.75"
       start_linecap_type="round"
       linejoin_type="spiro"
       miter_limit="4"
       scale_width="1"
       end_linecap_type="round" />
    <inkscape:path-effect
       effect="simplify"
       id="path-effect164"
       is_visible="true"
       lpeversion="1"
       steps="1"
       threshold="0.0028332064"
       smooth_angles="0"
       helper_size="0"
       simplify_individual_paths="false"
       simplify_just_coalesce="false"
       step="1" />
    <inkscape:path-effect
       effect="powerstroke"
       id="path-effect159"
       is_visible="true"
       lpeversion="1"
       offset_points="2.2611036,0.075169555"
       not_jump="true"
       sort_points="true"
       interpolator_type="CentripetalCatmullRom"
       interpolator_beta="0.75"
       start_linecap_type="round"
       linejoin_type="spiro"
       miter_limit="4"
       scale_width="1"
       end_linecap_type="round" />
    <inkscape:path-effect
       effect="simplify"
       id="path-effect157"
       is_visible="true"
       lpeversion="1"
       steps="1"
       threshold="0.0028332064"
       smooth_angles="0"
       helper_size="0"
       simplify_individual_paths="false"
       simplify_just_coalesce="false"
       step="1" />
    <inkscape:path-effect
       effect="powerstroke"
       id="path-effect152"
       is_visible="true"
       lpeversion="1"
       offset_points="2.826981,0.075169555"
       not_jump="true"
       sort_points="true"
       interpolator_type="CentripetalCatmullRom"
       interpolator_beta="0.75"
       start_linecap_type="round"
       linejoin_type="spiro"
       miter_limit="4"
       scale_width="1"
       end_linecap_type="round" />
    <inkscape:path-effect
       effect="simplify"
       id="path-effect150"
       is_visible="true"
       lpeversion="1"
       steps="1"
       threshold="0.0028332064"
       smooth_angles="0"
       helper_size="0"
       simplify_individual_paths="false"
       simplify_just_coalesce="false"
       step="1" />
    <inkscape:path-effect
       effect="powerstroke"
       id="path-effect145"
       is_visible="true"
       lpeversion="1"
       offset_points="3.8374447,0.075169555"
       not_jump="true"
       sort_points="true"
       interpolator_type="CentripetalCatmullRom"
       interpolator_beta="0.75"
       start_linecap_type="round"
       linejoin_type="spiro"
       miter_limit="4"
       scale_width="1"
       end_linecap_type="round" />
    <inkscape:path-effect
       effect="simplify"
       id="path-effect143"
       is_visible="true"
       lpeversion="1"
       steps="1"
       threshold="0.0028332064"
       smooth_angles="0"
       helper_size="0"
       simplify_individual_paths="false"
       simplify_just_coalesce="false"
       step="1" />
    <inkscape:path-effect
       effect="powerstroke"
       id="path-effect138"
       is_visible="true"
       lpeversion="1"
       offset_points="2.6880907,0.075169555"
       not_jump="true"
       sort_points="true"
       interpolator_type="CentripetalCatmullRom"
       interpolator_beta="0.75"
       start_linecap_type="round"
       linejoin_type="spiro"
       miter_limit="4"
       scale_width="1"
       end_linecap_type="round" />
    <inkscape:path-effect
       effect="simplify"
       id="path-effect136"
       is_visible="true"
       lpeversion="1"
       steps="1"
       threshold="0.0028332064"
       smooth_angles="0"
       helper_size="0"
       simplify_individual_paths="false"
       simplify_just_coalesce="false"
       step="1" />
    <inkscape:path-effect
       effect="powerstroke"
       id="path-effect131"
       is_visible="true"
       lpeversion="1"
       offset_points="1.9940581,0.075169555"
       not_jump="true"
       sort_points="true"
       interpolator_type="CentripetalCatmullRom"
       interpolator_beta="0.75"
       start_linecap_type="round"
       linejoin_type="spiro"
       miter_limit="4"
       scale_width="1"
       end_linecap_type="round" />
    <inkscape:path-effect
       effect="simplify"
       id="path-effect129"
       is_visible="true"
       lpeversion="1"
       steps="1"
       threshold="0.0028332064"
       smooth_angles="0"
       helper_size="0"
       simplify_individual_paths="false"
       simplify_just_coalesce="false"
       step="1" />
  </defs>
  <sodipodi:namedview
     id="base"
     pagecolor="#ffffff"
     bordercolor="#666666"
     borderopacity="1.0"
     inkscape:pageopacity="0.0"
     inkscape:pageshadow="2"
     inkscape:zoom="7.919596"
     inkscape:cx="-5.3033008"
     inkscape:cy="20.834396"
     inkscape:document-units="mm"
     inkscape:current-layer="layer1"
     showgrid="false"
     fit-margin-top="0"
     fit-margin-left="0"
     fit-margin-right="0"
     fit-margin-bottom="0"
     inkscape:window-width="1920"
     inkscape:window-height="974"
     inkscape:window-x="-11"
     inkscape:window-y="2869"
     inkscape:window-maximized="1"
     showguides="true"
     inkscape:guide-bbox="true"
     inkscape:snap-bbox="true"
     inkscape:bbox-nodes="true"
     inkscape:snap-nodes="false"
     inkscape:snap-others="false"
     inkscape:snap-page="true"
     inkscape:snap-grids="false"
     inkscape:snap-to-guides="false"
     inkscape:snap-global="false"
     inkscape:pagecheckerboard="0"
     inkscape:showpageshadow="2"
     inkscape:deskcolor="#d1d1d1">
    <sodipodi:guide
       position="-6.1806076,9.4988693"
       orientation="0,1"
       id="guide816"
       inkscape:locked="false" />
    <sodipodi:guide
       position="-4.4101636,10.646923"
       orientation="0,1"
       id="guide818"
       inkscape:locked="false" />
    <sodipodi:guide
       position="2.7595724,11.09577"
       orientation="1,0"
       id="guide820"
       inkscape:locked="false" />
    <sodipodi:guide
       position="3.6572659,10.942217"
       orientation="1,0"
       id="guide822"
       inkscape:locked="false" />
    <sodipodi:guide
       position="-0.051625511,9.74923"
       orientation="1,0"
       id="guide1853"
       inkscape:locked="false" />
    <sodipodi:guide
       position="-2.3720169,3.0175835"
       orientation="0,1"
       id="guide1855"
       inkscape:locked="false" />
  </sodipodi:namedview>
  <metadata
     id="metadata1678">
    <rdf:RDF>
      <cc:Work
         rdf:about="">
        <dc:format>image/svg+xml</dc:format>
        <dc:type
           rdf:resource="http://purl.org/dc/dcmitype/StillImage" />
      </cc:Work>
    </rdf:RDF>
  </metadata>
  <g
     inkscape:label="Layer 1"
     inkscape:groupmode="layer"
     id="layer1"
     transform="translate(17.028496,-147.22856)">
    <path
       d="m -15.381709,153.58005 c -0.03248,-0.0132 -0.07464,-0.0212 -0.124159,-0.0139 -0.03615,0.005 -0.07451,0.0188 -0.11044,0.0415 -0.04042,0.0246 -0.07619,0.0583 -0.106529,0.0985 -0.0277,0.0367 -0.0501,0.0779 -0.06789,0.12076 -0.02076,0.0517 -0.03461,0.11131 -0.03035,0.1743 3.52e-4,0.005 0.0013,0.0103 0.0029,0.0153 0.0066,0.0208 0.01818,0.0383 0.03322,0.0519 0.01475,0.0133 0.03155,0.0217 0.04779,0.0266 0.01626,0.005 0.03277,0.007 0.04822,0.006 0.01562,-5.7e-4 0.03121,-0.003 0.0458,-0.009 0.04962,-0.0155 0.09638,-0.0406 0.135402,-0.0716 0.03761,-0.0315 0.06509,-0.0683 0.08392,-0.10608 0.02186,-0.0439 0.03211,-0.0889 0.03331,-0.13094 -7.16e-4,-0.0145 -0.002,-0.0222 -0.0039,-0.0295 -0.0037,-0.0142 -0.0097,-0.0265 -0.01644,-0.0367 -0.01189,-0.0181 -0.02683,-0.0308 -0.04012,-0.0395 -0.01575,-0.0103 -0.03212,-0.0168 -0.04687,-0.0208 -0.01648,-0.004 -0.03352,-0.006 -0.05009,-0.006 -0.02504,0.002 -0.05142,0.007 -0.07884,0.018 -0.0201,0.008 -0.04662,0.022 -0.07104,0.046 -0.0095,0.008 -0.02088,0.0217 -0.03038,0.0375 -0.0017,0.003 -0.0033,0.006 -0.0048,0.008 -0.0062,0.0117 -0.01169,0.0251 -0.01535,0.0399 -0.0041,0.0165 -0.0061,0.0355 -0.0038,0.0559 0.0018,0.0162 0.0064,0.0333 0.01488,0.05 0.0058,0.0155 0.01405,0.0299 0.02451,0.0427 0.01137,0.0139 0.02511,0.0257 0.04047,0.0351 0.02794,0.017 0.0632,0.0269 0.100353,0.0237 0.01221,-1.1e-4 0.02847,-0.003 0.04379,-0.008 0.01468,-0.005 0.02817,-0.0107 0.04048,-0.0176 0.02319,-0.013 0.04286,-0.0292 0.05899,-0.0439 0.0095,-0.009 0.018,-0.0179 0.02635,-0.0279 0.0081,-0.01 0.01666,-0.0213 0.02417,-0.0345 0.0073,-0.0129 0.01417,-0.0283 0.01832,-0.0459 0.0041,-0.0174 0.0055,-0.0368 0.0023,-0.0573 -0.0032,-0.0162 -0.0076,-0.0286 -0.01392,-0.0402 -0.0062,-0.0114 -0.01395,-0.0215 -0.02271,-0.0301 -0.01717,-0.0169 -0.03734,-0.0275 -0.05666,-0.0337 -0.01894,-0.006 -0.03843,-0.008 -0.05684,-0.008 -0.01805,4.4e-4 -0.03669,0.004 -0.05438,0.01 -0.03527,0.0115 -0.06739,0.0312 -0.09472,0.0536 -0.0264,0.0216 -0.049,0.0461 -0.06848,0.0696 -0.02224,0.0292 -0.0403,0.0619 -0.05068,0.0983 -0.0051,0.0181 -0.0085,0.0375 -0.0091,0.0578 -5.51e-4,0.0202 0.0017,0.0411 0.0077,0.0623 0.0062,0.0228 0.01737,0.0435 0.03159,0.0611 0.01399,0.0173 0.03077,0.0313 0.04874,0.042 0.01778,0.0106 0.0371,0.0184 0.05692,0.0231 0.01962,0.005 0.04028,0.007 0.061,0.005 0.04227,-0.003 0.0818,-0.0152 0.116859,-0.0327 0.03437,-0.0171 0.06512,-0.0392 0.09184,-0.0621 0.02644,-0.024 0.05134,-0.0518 0.07085,-0.0846 0.0097,-0.0163 0.01829,-0.0342 0.02476,-0.0534 0.0064,-0.0192 0.0108,-0.0398 0.01211,-0.0616 0.0011,-0.0371 -0.0071,-0.0739 -0.02469,-0.1063 -0.0089,-0.0163 -0.02051,-0.0321 -0.03533,-0.0459 -0.01483,-0.0138 -0.03278,-0.0256 -0.05377,-0.0333 -0.02176,-0.008 -0.04298,-0.0106 -0.06345,-0.01 -0.02033,6.6e-4 -0.04015,0.005 -0.05858,0.0118 -0.03619,0.0136 -0.06961,0.039 -0.09157,0.0744 -0.02133,0.027 -0.04495,0.0657 -0.06137,0.10851 -0.01635,0.0426 -0.02598,0.0902 -0.02225,0.14064 0.0013,0.0318 0.01112,0.0682 0.03141,0.0998 0.01024,0.0159 0.02341,0.031 0.03989,0.0436 0.01654,0.0127 0.03589,0.0224 0.05767,0.028 0.03559,0.0112 0.07509,0.0119 0.111392,0.006 0.03604,-0.006 0.06998,-0.0185 0.0998,-0.0341 0.02512,-0.0164 0.04031,-0.0311 0.0528,-0.0471 0.01243,-0.0159 0.02207,-0.033 0.02947,-0.0503 0.01466,-0.0342 0.02116,-0.0703 0.02268,-0.1032 0.0035,-0.0549 -0.0051,-0.10879 -0.01749,-0.15772 -0.0064,-0.0273 -0.01572,-0.0596 -0.03063,-0.0908 -0.0075,-0.0158 -0.01666,-0.0316 -0.02791,-0.0468 -0.01128,-0.0152 -0.02467,-0.0297 -0.04059,-0.0426 -0.0039,-0.003 -0.0081,-0.006 -0.01259,-0.008 -0.0183,-0.009 -0.03738,-0.0139 -0.05603,-0.0147 -0.01844,-7.9e-4 -0.03569,0.002 -0.05119,0.007 -0.01541,0.005 -0.02947,0.0118 -0.04186,0.0197 -0.01242,0.008 -0.02371,0.0171 -0.03356,0.027 -0.02746,0.0265 -0.04939,0.0574 -0.067,0.0888 -0.01757,0.0313 -0.03116,0.0638 -0.0424,0.0944 -0.01483,0.0422 -0.0248,0.0871 -0.02694,0.13307 -0.0022,0.0463 0.0036,0.0944 0.0214,0.14082 0.0078,0.0199 0.01884,0.0368 0.03201,0.0509 0.01316,0.0141 0.02831,0.0254 0.04425,0.034 0.03169,0.0171 0.06821,0.0245 0.103507,0.0216 0.01316,-1.6e-4 0.02951,-0.003 0.04465,-0.007 0.01513,-0.004 0.02898,-0.0103 0.04149,-0.0168 0.0247,-0.0128 0.04616,-0.0289 0.06309,-0.0423 0.04159,-0.0326 0.08048,-0.0721 0.111662,-0.1175 0.03155,-0.0459 0.05551,-0.0984 0.06599,-0.1562 0.0055,-0.0259 0.0075,-0.0571 0.0021,-0.0883 -0.0028,-0.0159 -0.0075,-0.032 -0.01469,-0.0476 -0.0073,-0.0158 -0.01707,-0.0309 -0.02964,-0.0447 -0.01447,-0.0174 -0.03424,-0.0336 -0.05554,-0.046 -0.02146,-0.0125 -0.04499,-0.0216 -0.06928,-0.0265 -0.02449,-0.005 -0.05027,-0.006 -0.07587,-0.002 -0.02592,0.004 -0.05156,0.0135 -0.07498,0.0289 -0.07382,0.0555 -0.119861,0.13191 -0.141582,0.20959 -0.01776,0.065 -0.01936,0.13513 0.0023,0.20062 0.0112,0.0284 0.02619,0.0493 0.04374,0.066 0.01773,0.0169 0.03837,0.03 0.06006,0.039 0.02201,0.009 0.04575,0.0143 0.06977,0.015 0.02442,6.7e-4 0.04953,-0.003 0.07341,-0.0133 0.02647,-0.0127 0.04461,-0.0279 0.05886,-0.0448 0.01427,-0.0169 0.02448,-0.0352 0.03205,-0.0524 0.0077,-0.0175 0.01317,-0.0351 0.01735,-0.051 0.0042,-0.016 0.0075,-0.0318 0.01022,-0.0446 0.01416,-0.0929 8.76e-4,-0.17996 -0.02319,-0.25426 -0.0056,-0.0159 -0.01244,-0.0301 -0.02087,-0.0435 -0.0086,-0.0136 -0.01948,-0.0272 -0.03273,-0.0389 -0.01366,-0.0121 -0.03056,-0.0229 -0.05068,-0.0292 -0.01031,-0.003 -0.02121,-0.005 -0.03256,-0.006 -0.01154,-4.8e-4 -0.02308,6.4e-4 -0.03442,0.003 -0.03145,0.0116 -0.05088,0.0229 -0.06713,0.0338 -0.014,0.009 -0.02678,0.0193 -0.0377,0.0282 -0.0029,0.002 -0.0057,0.005 -0.0085,0.007 -0.03642,0.0315 -0.06852,0.0696 -0.09212,0.11319 -0.0235,0.0434 -0.03896,0.0932 -0.03982,0.14669 0.0014,0.0379 0.0102,0.0708 0.02435,0.10029 0.01423,0.0297 0.03413,0.0566 0.05828,0.0787 0.0137,0.0135 0.03158,0.0252 0.05048,0.0335 0.01904,0.008 0.03954,0.0133 0.06036,0.0145 0.02106,0.001 0.04282,-0.001 0.06382,-0.009 0.02139,-0.007 0.04147,-0.0197 0.05856,-0.0368 0.03915,-0.0306 0.0698,-0.078 0.08775,-0.12709 0.01866,-0.0511 0.02427,-0.10564 0.01793,-0.15694 -0.0026,-0.0202 -0.009,-0.038 -0.01763,-0.0535 -0.0089,-0.0159 -0.02011,-0.0295 -0.03235,-0.0406 -0.02555,-0.0232 -0.05701,-0.0375 -0.08818,-0.0427 -0.01365,-0.003 -0.02927,-0.004 -0.04348,-0.003 -0.0149,6.2e-4 -0.02864,0.003 -0.04059,0.005 -0.02436,0.005 -0.04971,0.0144 -0.06288,0.0188 -0.03314,0.0122 -0.04926,0.02 -0.05187,0.0212 a 0.075714,0.075714 90 0 0 0.06445,0.13703 c 9.1e-5,-5e-5 1.98e-4,-9e-5 5.44e-4,-2.6e-4 0.0024,-0.001 0.018,-0.01 0.03909,-0.0191 0.01455,-0.005 0.02937,-0.0111 0.04312,-0.0145 0.0059,-0.001 0.01101,-0.002 0.0154,-0.003 0.0041,-3.2e-4 0.0075,-1.9e-4 0.01038,2.8e-4 0.0079,0.001 0.01355,0.003 0.01779,0.007 0.0085,0.0342 0.0056,0.0661 -0.0049,0.0957 -0.01003,0.0284 -0.02647,0.0531 -0.04835,0.071 -0.0075,0.007 -0.0093,0.008 -0.01155,0.009 -0.0024,9.4e-4 -0.0057,0.002 -0.0096,0.001 -0.004,-1.2e-4 -0.0084,-0.001 -0.01272,-0.003 -0.0043,-0.002 -0.008,-0.004 -0.01088,-0.007 -0.01289,-0.0115 -0.02245,-0.024 -0.02937,-0.0379 -0.0069,-0.0138 -0.01075,-0.0283 -0.01147,-0.0423 3.17e-4,-0.0244 0.0083,-0.0529 0.02297,-0.0804 0.01478,-0.0277 0.03583,-0.0533 0.06032,-0.0747 0.0015,-0.001 0.0039,-0.003 0.0063,-0.005 0.0092,-0.008 0.01841,-0.0148 0.02767,-0.0211 0.01079,-0.007 0.02125,-0.0133 0.03155,-0.0173 l -0.01348,0.003 c -0.001,-3.3e-4 -1.59e-4,-2.8e-4 0.002,0.002 0.0023,0.002 0.0052,0.005 0.0082,0.0101 0.0029,0.005 0.0054,0.01 0.0072,0.0147 0.01872,0.0579 0.02784,0.12348 0.01815,0.18713 -0.0021,0.009 -0.0048,0.0219 -0.008,0.0341 -0.0032,0.0119 -0.0066,0.0223 -0.01052,0.0312 -0.0039,0.009 -0.0078,0.0151 -0.01164,0.0196 -0.0036,0.004 -0.0071,0.007 -0.01108,0.009 -0.0014,4.2e-4 -0.0075,0.002 -0.01453,0.001 -0.007,-2.1e-4 -0.0145,-0.002 -0.02177,-0.005 -0.0072,-0.003 -0.01347,-0.007 -0.01842,-0.0119 -0.0048,-0.005 -0.0081,-0.01 -0.01007,-0.0146 -0.01044,-0.0323 -0.01044,-0.0751 0.0015,-0.118 0.01497,-0.0529 0.04604,-0.10204 0.0892,-0.13433 0.0026,-0.002 0.0097,-0.004 0.01778,-0.005 0.0081,-0.001 0.01724,-0.001 0.02685,9.8e-4 0.0095,0.002 0.01902,0.006 0.02767,0.0108 0.0086,0.005 0.01585,0.0112 0.02141,0.018 0.0044,0.005 0.0065,0.008 0.0081,0.0118 0.0017,0.004 0.003,0.008 0.0039,0.0135 0.0018,0.0108 0.0013,0.024 -0.0018,0.0381 -0.007,0.0377 -0.02226,0.0721 -0.04464,0.10451 -0.0222,0.0321 -0.05095,0.0615 -0.08336,0.0868 -0.01554,0.0121 -0.02859,0.0214 -0.04106,0.0277 -0.006,0.003 -0.01133,0.005 -0.01615,0.006 -0.0047,0.001 -0.009,0.002 -0.01313,0.002 -0.01289,8.2e-4 -0.02226,-0.001 -0.02973,-0.005 -0.0035,-0.002 -0.0062,-0.004 -0.008,-0.006 -0.0018,-0.002 -0.0029,-0.004 -0.0036,-0.006 -0.0094,-0.025 -0.01323,-0.0533 -0.01169,-0.0834 0.0015,-0.0301 0.0083,-0.0613 0.01913,-0.0917 0.0096,-0.0256 0.02031,-0.0504 0.033,-0.0727 0.01256,-0.0221 0.02668,-0.0412 0.04292,-0.0567 0.0037,-0.004 0.0069,-0.006 0.01012,-0.008 0.0019,-0.001 0.0036,-0.002 0.0052,-0.003 0.0017,0.002 0.0033,0.004 0.005,0.006 0.0048,0.007 0.0093,0.0143 0.01345,0.0231 0.0085,0.018 0.01481,0.0392 0.02028,0.063 0.01024,0.0415 0.01528,0.0795 0.01272,0.11536 -0.0011,0.0208 -0.005,0.039 -0.01144,0.0537 -0.0032,0.007 -0.0067,0.0132 -0.01058,0.018 -0.0038,0.005 -0.0079,0.009 -0.01239,0.0115 -0.01136,0.005 -0.03037,0.0119 -0.04845,0.0148 -0.01804,0.003 -0.03393,0.002 -0.0475,-0.003 -0.0054,-0.002 -0.0068,-0.002 -0.0081,-0.003 -0.0014,-0.001 -0.0033,-0.003 -0.0053,-0.006 -0.0042,-0.007 -0.0075,-0.017 -0.0079,-0.0284 -0.0018,-0.0269 0.0028,-0.0525 0.01297,-0.0787 0.01032,-0.0266 0.02601,-0.0527 0.04489,-0.077 0.0076,-0.0113 0.01365,-0.0165 0.02171,-0.0194 0.0039,-0.001 0.0075,-0.002 0.01073,-0.002 0.0032,-6e-5 0.0056,4.2e-4 0.0076,0.001 0.004,0.004 0.0061,0.006 0.0081,0.01 0.0043,0.008 0.0066,0.0185 0.0063,0.0276 -3.77e-4,0.005 -0.0019,0.0125 -0.0046,0.0203 -0.0027,0.008 -0.0065,0.0159 -0.01143,0.0241 -0.01015,0.0169 -0.02446,0.0333 -0.0412,0.0484 -0.01835,0.0156 -0.03882,0.0297 -0.0593,0.0399 -0.0207,0.0102 -0.0403,0.0158 -0.0589,0.0168 -0.0054,3.4e-4 -0.01054,-1e-4 -0.01577,-0.001 -0.0053,-0.001 -0.01006,-0.003 -0.01401,-0.006 -0.004,-0.002 -0.0067,-0.005 -0.0085,-0.007 -0.0017,-0.002 -0.0027,-0.004 -0.0032,-0.006 -0.0016,-0.006 -0.0022,-0.011 -0.002,-0.017 1.92e-4,-0.006 0.0013,-0.0128 0.0034,-0.0201 0.0044,-0.0151 0.01268,-0.0309 0.02352,-0.0451 0.014,-0.0167 0.02959,-0.0331 0.04559,-0.0461 0.01631,-0.0133 0.03177,-0.0221 0.04693,-0.027 0.0031,-0.001 0.0056,-0.002 0.0088,-0.002 0.0032,-7e-5 0.0054,4.1e-4 0.0063,6.8e-4 6.23e-4,2.1e-4 -0.0013,-2.2e-4 -0.0042,-0.003 -0.0016,-0.002 -0.0031,-0.003 -0.0044,-0.006 -0.0013,-0.002 -0.002,-0.005 -0.0024,-0.006 -7.25e-4,-0.004 -0.0012,-0.003 -0.003,5.4e-4 -0.0018,0.003 -0.0046,0.007 -0.0085,0.0119 -0.0039,0.005 -0.0085,0.01 -0.01362,0.0146 -0.0105,0.01 -0.02035,0.0171 -0.02908,0.0221 -0.0044,0.002 -0.0079,0.004 -0.0107,0.005 -0.0028,9.2e-4 -0.0051,0.001 -0.007,0.001 -0.0072,5.8e-4 -0.01036,-9e-5 -0.01292,-0.001 -0.0016,-9e-4 -0.0033,-0.002 -0.0047,-0.003 -0.0014,-0.001 -0.0026,-0.003 -0.0034,-0.004 -7.84e-4,-0.002 -0.0011,-0.004 -0.0012,-0.005 -2.3e-5,-0.002 2.88e-4,-0.004 6.14e-4,-0.006 3.04e-4,-0.002 9.33e-4,-0.004 0.0019,-0.006 0.0022,-0.004 0.004,-0.007 0.0056,-0.008 0.009,-0.01 0.01724,-0.0152 0.02568,-0.0195 0.0112,-0.006 0.0235,-0.01 0.03486,-0.0117 -0.0022,-2.1e-4 5.82e-4,-4.9e-4 0.0037,-1.6e-4 0.0025,2.6e-4 0.0046,8.2e-4 0.0063,0.001 -0.0017,0.02 -0.0072,0.0418 -0.01793,0.0638 -0.01113,0.0228 -0.02749,0.0449 -0.04879,0.0629 -0.02472,0.0199 -0.05701,0.0375 -0.09348,0.0489 -0.0039,0.001 -0.0065,0.002 -0.0093,0.002 -0.0027,9e-5 -0.0047,-2.8e-4 -0.0055,-5.6e-4 -7.06e-4,-2.3e-4 2.9e-4,-9e-5 0.002,0.001 0.0021,0.002 0.0035,0.004 0.0042,0.006 0.0016,0.005 0.0025,0.0101 0.0029,0.0153 -0.0024,-0.0383 0.0062,-0.078 0.02144,-0.11554 0.01415,-0.0338 0.03145,-0.0647 0.05139,-0.091 0.02169,-0.0285 0.04548,-0.0501 0.07082,-0.0655 0.02099,-0.0131 0.04178,-0.02 0.05993,-0.0226 0.02412,-0.003 0.04222,6.6e-4 0.05442,0.006 a 0.0667224,0.0667224 90 0 0 0.0504,-0.12356 z"
       id="path-1"
       inkscape:path-effect="#path-effect151;#path-effect153"
       inkscape:original-d="m -15.406909,153.64183 c -0.107128,-0.0419 -0.217833,0.0337 -0.275027,0.12112 -0.04586,0.0682 -0.07912,0.15102 -0.07366,0.23397 0.02594,0.0656 0.106963,0.033 0.151172,0.008 0.08081,-0.037 0.13749,-0.1176 0.146374,-0.20571 0.01128,-0.0632 -0.06547,-0.0917 -0.114834,-0.0709 -0.06363,0.0132 -0.131134,0.0818 -0.09483,0.14895 0.02474,0.0689 0.111646,0.0693 0.160953,0.0272 0.04492,-0.0304 0.109423,-0.1049 0.05117,-0.15283 -0.07003,-0.0398 -0.151229,0.0243 -0.196409,0.076 -0.05336,0.0552 -0.08665,0.15803 -0.01864,0.21554 0.07751,0.0582 0.180132,0.009 0.245313,-0.0455 0.06028,-0.0508 0.116923,-0.1414 0.0702,-0.21872 -0.03505,-0.0712 -0.133245,-0.0592 -0.171667,0.002 -0.05848,0.0743 -0.101711,0.18524 -0.05179,0.27437 0.05112,0.0618 0.147901,0.0476 0.211057,0.0136 0.07014,-0.0483 0.07254,-0.14634 0.06245,-0.22288 -0.0139,-0.0688 -0.02837,-0.1484 -0.08552,-0.19505 -0.06192,-0.0291 -0.117557,0.0377 -0.147033,0.0852 -0.05458,0.0925 -0.0903,0.20898 -0.05482,0.31441 0.02768,0.081 0.130104,0.0863 0.19133,0.0407 0.0981,-0.0651 0.184552,-0.17154 0.188583,-0.29387 0.0039,-0.11227 -0.150911,-0.18196 -0.232829,-0.10426 -0.08445,0.0749 -0.130165,0.20132 -0.09883,0.31161 0.02318,0.0811 0.153169,0.11573 0.200345,0.037 0.05218,-0.0892 0.05042,-0.20175 0.02469,-0.29932 -0.01023,-0.0488 -0.04635,-0.11424 -0.105887,-0.0963 -0.09992,0.0505 -0.187811,0.15172 -0.186899,0.26829 0.0063,0.0765 0.07345,0.16915 0.159108,0.14885 0.08968,-0.0392 0.134228,-0.14878 0.124179,-0.24233 -0.0066,-0.0695 -0.08444,-0.0964 -0.143748,-0.0759 -0.03183,0.007 -0.06187,0.0206 -0.09129,0.0346"
       style="fill:#000000;fill-rule:nonzero;stroke:none;stroke-width:0.537192" />
  </g>
</svg>
