<?xml version="1.0" encoding="UTF-8" standalone="no"?>
<!-- Created with Inkscape (http://www.inkscape.org/) -->

<svg
   width="3mm"
   height="10mm"
   viewBox="0 0 3.0000001 9.9999994"
   version="1.1"
   id="svg1681"
   inkscape:version="1.2.1 (9c6d41e410, 2022-07-14)"
   sodipodi:docname="dot_7.svg"
   inkscape:export-filename="..\..\..\..\Downloads\lower a diff canvas resize 3.0.png"
   inkscape:export-xdpi="96"
   inkscape:export-ydpi="96"
   xmlns:inkscape="http://www.inkscape.org/namespaces/inkscape"
   xmlns:sodipodi="http://sodipodi.sourceforge.net/DTD/sodipodi-0.dtd"
   xmlns="http://www.w3.org/2000/svg"
   xmlns:svg="http://www.w3.org/2000/svg"
   xmlns:rdf="http://www.w3.org/1999/02/22-rdf-syntax-ns#"
   xmlns:cc="http://creativecommons.org/ns#"
   xmlns:dc="http://purl.org/dc/elements/1.1/">
  <defs
     id="defs1675">
    <inkscape:path-effect
       effect="powerstroke"
       id="path-effect260"
       is_visible="true"
       lpeversion="1"
       offset_points="6.464606,0.0380326 | 13.321125,0.045491088 | 22.230539,0.050786048"
       not_jump="true"
       sort_points="true"
       interpolator_type="CentripetalCatmullRom"
       interpolator_beta="0.75"
       start_linecap_type="round"
       linejoin_type="spiro"
       miter_limit="4"
       scale_width="1"
       end_linecap_type="round" />
    <inkscape:path-effect
       effect="simplify"
       id="path-effect258"
       is_visible="true"
       lpeversion="1"
       steps="1"
       threshold="0.0035951417"
       smooth_angles="0"
       helper_size="0"
       simplify_individual_paths="false"
       simplify_just_coalesce="false"
       step="1" />
    <inkscape:path-effect
       effect="powerstroke"
       id="path-effect1447"
       is_visible="true"
       lpeversion="1"
       offset_points="3.2201357,0.087785548 | 12.975655,0.10054732"
       not_jump="true"
       sort_points="true"
       interpolator_type="CentripetalCatmullRom"
       interpolator_beta="0.75"
       start_linecap_type="round"
       linejoin_type="spiro"
       miter_limit="4"
       scale_width="1"
       end_linecap_type="round" />
    <inkscape:path-effect
       effect="simplify"
       id="path-effect1445"
       is_visible="true"
       lpeversion="1"
       steps="1"
       threshold="0.0035951417"
       smooth_angles="0"
       helper_size="0"
       simplify_individual_paths="false"
       simplify_just_coalesce="false"
       step="1" />
    <inkscape:path-effect
       effect="powerstroke"
       id="path-effect502"
       is_visible="true"
       lpeversion="1"
       offset_points="3.0091841,0.21607495 | 7.3602657,0.17554228 | 9.4159651,0.20236537"
       not_jump="true"
       sort_points="true"
       interpolator_type="CentripetalCatmullRom"
       interpolator_beta="0.75"
       start_linecap_type="round"
       linejoin_type="spiro"
       miter_limit="4"
       scale_width="1"
       end_linecap_type="round" />
    <inkscape:path-effect
       effect="simplify"
       id="path-effect500"
       is_visible="true"
       lpeversion="1"
       steps="1"
       threshold="0.0035951417"
       smooth_angles="0"
       helper_size="0"
       simplify_individual_paths="false"
       simplify_just_coalesce="false"
       step="1" />
    <inkscape:path-effect
       effect="powerstroke"
       id="path-effect241"
       is_visible="true"
       lpeversion="1"
       offset_points="2.6879454,0.34086734"
       not_jump="true"
       sort_points="true"
       interpolator_type="CentripetalCatmullRom"
       interpolator_beta="0.75"
       start_linecap_type="round"
       linejoin_type="spiro"
       miter_limit="4"
       scale_width="1"
       end_linecap_type="round" />
    <inkscape:path-effect
       effect="simplify"
       id="path-effect239"
       is_visible="true"
       lpeversion="1"
       steps="1"
       threshold="0.0028332064"
       smooth_angles="0"
       helper_size="0"
       simplify_individual_paths="false"
       simplify_just_coalesce="false"
       step="1" />
    <inkscape:path-effect
       effect="powerstroke"
       id="path-effect234"
       is_visible="true"
       lpeversion="1"
       offset_points="2.13563,0.075169555"
       not_jump="true"
       sort_points="true"
       interpolator_type="CentripetalCatmullRom"
       interpolator_beta="0.75"
       start_linecap_type="round"
       linejoin_type="spiro"
       miter_limit="4"
       scale_width="1"
       end_linecap_type="round" />
    <inkscape:path-effect
       effect="simplify"
       id="path-effect232"
       is_visible="true"
       lpeversion="1"
       steps="1"
       threshold="0.0028332064"
       smooth_angles="0"
       helper_size="0"
       simplify_individual_paths="false"
       simplify_just_coalesce="false"
       step="1" />
    <inkscape:path-effect
       effect="powerstroke"
       id="path-effect227"
       is_visible="true"
       lpeversion="1"
       offset_points="2.1868266,0.075169555"
       not_jump="true"
       sort_points="true"
       interpolator_type="CentripetalCatmullRom"
       interpolator_beta="0.75"
       start_linecap_type="round"
       linejoin_type="spiro"
       miter_limit="4"
       scale_width="1"
       end_linecap_type="round" />
    <inkscape:path-effect
       effect="simplify"
       id="path-effect225"
       is_visible="true"
       lpeversion="1"
       steps="1"
       threshold="0.0028332064"
       smooth_angles="0"
       helper_size="0"
       simplify_individual_paths="false"
       simplify_just_coalesce="false"
       step="1" />
    <inkscape:path-effect
       effect="powerstroke"
       id="path-effect166"
       is_visible="true"
       lpeversion="1"
       offset_points="1.9637935,0.075169555"
       not_jump="true"
       sort_points="true"
       interpolator_type="CentripetalCatmullRom"
       interpolator_beta="0.75"
       start_linecap_type="round"
       linejoin_type="spiro"
       miter_limit="4"
       scale_width="1"
       end_linecap_type="round" />
    <inkscape:path-effect
       effect="simplify"
       id="path-effect164"
       is_visible="true"
       lpeversion="1"
       steps="1"
       threshold="0.0028332064"
       smooth_angles="0"
       helper_size="0"
       simplify_individual_paths="false"
       simplify_just_coalesce="false"
       step="1" />
    <inkscape:path-effect
       effect="powerstroke"
       id="path-effect159"
       is_visible="true"
       lpeversion="1"
       offset_points="2.2611036,0.075169555"
       not_jump="true"
       sort_points="true"
       interpolator_type="CentripetalCatmullRom"
       interpolator_beta="0.75"
       start_linecap_type="round"
       linejoin_type="spiro"
       miter_limit="4"
       scale_width="1"
       end_linecap_type="round" />
    <inkscape:path-effect
       effect="simplify"
       id="path-effect157"
       is_visible="true"
       lpeversion="1"
       steps="1"
       threshold="0.0028332064"
       smooth_angles="0"
       helper_size="0"
       simplify_individual_paths="false"
       simplify_just_coalesce="false"
       step="1" />
    <inkscape:path-effect
       effect="powerstroke"
       id="path-effect152"
       is_visible="true"
       lpeversion="1"
       offset_points="2.826981,0.075169555"
       not_jump="true"
       sort_points="true"
       interpolator_type="CentripetalCatmullRom"
       interpolator_beta="0.75"
       start_linecap_type="round"
       linejoin_type="spiro"
       miter_limit="4"
       scale_width="1"
       end_linecap_type="round" />
    <inkscape:path-effect
       effect="simplify"
       id="path-effect150"
       is_visible="true"
       lpeversion="1"
       steps="1"
       threshold="0.0028332064"
       smooth_angles="0"
       helper_size="0"
       simplify_individual_paths="false"
       simplify_just_coalesce="false"
       step="1" />
    <inkscape:path-effect
       effect="powerstroke"
       id="path-effect145"
       is_visible="true"
       lpeversion="1"
       offset_points="3.8374447,0.075169555"
       not_jump="true"
       sort_points="true"
       interpolator_type="CentripetalCatmullRom"
       interpolator_beta="0.75"
       start_linecap_type="round"
       linejoin_type="spiro"
       miter_limit="4"
       scale_width="1"
       end_linecap_type="round" />
    <inkscape:path-effect
       effect="simplify"
       id="path-effect143"
       is_visible="true"
       lpeversion="1"
       steps="1"
       threshold="0.0028332064"
       smooth_angles="0"
       helper_size="0"
       simplify_individual_paths="false"
       simplify_just_coalesce="false"
       step="1" />
    <inkscape:path-effect
       effect="powerstroke"
       id="path-effect138"
       is_visible="true"
       lpeversion="1"
       offset_points="2.6880907,0.075169555"
       not_jump="true"
       sort_points="true"
       interpolator_type="CentripetalCatmullRom"
       interpolator_beta="0.75"
       start_linecap_type="round"
       linejoin_type="spiro"
       miter_limit="4"
       scale_width="1"
       end_linecap_type="round" />
    <inkscape:path-effect
       effect="simplify"
       id="path-effect136"
       is_visible="true"
       lpeversion="1"
       steps="1"
       threshold="0.0028332064"
       smooth_angles="0"
       helper_size="0"
       simplify_individual_paths="false"
       simplify_just_coalesce="false"
       step="1" />
    <inkscape:path-effect
       effect="powerstroke"
       id="path-effect131"
       is_visible="true"
       lpeversion="1"
       offset_points="1.9940581,0.075169555"
       not_jump="true"
       sort_points="true"
       interpolator_type="CentripetalCatmullRom"
       interpolator_beta="0.75"
       start_linecap_type="round"
       linejoin_type="spiro"
       miter_limit="4"
       scale_width="1"
       end_linecap_type="round" />
    <inkscape:path-effect
       effect="simplify"
       id="path-effect129"
       is_visible="true"
       lpeversion="1"
       steps="1"
       threshold="0.0028332064"
       smooth_angles="0"
       helper_size="0"
       simplify_individual_paths="false"
       simplify_just_coalesce="false"
       step="1" />
  </defs>
  <sodipodi:namedview
     id="base"
     pagecolor="#ffffff"
     bordercolor="#666666"
     borderopacity="1.0"
     inkscape:pageopacity="0.0"
     inkscape:pageshadow="2"
     inkscape:zoom="7.919596"
     inkscape:cx="-5.3033008"
     inkscape:cy="20.834396"
     inkscape:document-units="mm"
     inkscape:current-layer="layer1"
     showgrid="false"
     fit-margin-top="0"
     fit-margin-left="0"
     fit-margin-right="0"
     fit-margin-bottom="0"
     inkscape:window-width="1920"
     inkscape:window-height="974"
     inkscape:window-x="-11"
     inkscape:window-y="2869"
     inkscape:window-maximized="1"
     showguides="true"
     inkscape:guide-bbox="true"
     inkscape:snap-bbox="true"
     inkscape:bbox-nodes="true"
     inkscape:snap-nodes="false"
     inkscape:snap-others="false"
     inkscape:snap-page="true"
     inkscape:snap-grids="false"
     inkscape:snap-to-guides="false"
     inkscape:snap-global="false"
     inkscape:pagecheckerboard="0"
     inkscape:showpageshadow="2"
     inkscape:deskcolor="#d1d1d1">
    <sodipodi:guide
       position="-6.1806076,9.4988693"
       orientation="0,1"
       id="guide816"
       inkscape:locked="false" />
    <sodipodi:guide
       position="-4.4101636,10.646923"
       orientation="0,1"
       id="guide818"
       inkscape:locked="false" />
    <sodipodi:guide
       position="2.7595724,11.09577"
       orientation="1,0"
       id="guide820"
       inkscape:locked="false" />
    <sodipodi:guide
       position="3.6572659,10.942217"
       orientation="1,0"
       id="guide822"
       inkscape:locked="false" />
    <sodipodi:guide
       position="-0.051625511,9.74923"
       orientation="1,0"
       id="guide1853"
       inkscape:locked="false" />
    <sodipodi:guide
       position="-2.3720169,3.0175835"
       orientation="0,1"
       id="guide1855"
       inkscape:locked="false" />
  </sodipodi:namedview>
  <metadata
     id="metadata1678">
    <rdf:RDF>
      <cc:Work
         rdf:about="">
        <dc:format>image/svg+xml</dc:format>
        <dc:type
           rdf:resource="http://purl.org/dc/dcmitype/StillImage" />
      </cc:Work>
    </rdf:RDF>
  </metadata>
  <g
     inkscape:label="Layer 1"
     inkscape:groupmode="layer"
     id="layer1"
     transform="translate(17.028496,-147.22856)">
    <path
       d="m -15.574717,153.73701 c -0.01479,0.007 -0.0362,0.0151 -0.06332,0.0282 -0.01075,0.005 -0.02292,0.0116 -0.03491,0.0198 -0.01107,0.007 -0.02257,0.0168 -0.03321,0.0287 -0.01854,0.0238 -0.03006,0.0486 -0.03814,0.0751 -0.0074,0.0242 -0.01162,0.049 -0.01479,0.0732 -0.0057,0.0584 0.0024,0.12221 0.03242,0.17985 0.01199,0.0208 0.02766,0.0358 0.04565,0.0461 0.01769,0.0102 0.03732,0.0158 0.05697,0.0174 0.01949,0.002 0.03945,-6.8e-4 0.05824,-0.007 0.01872,-0.006 0.03672,-0.016 0.05193,-0.03 0.02817,-0.0222 0.04944,-0.0531 0.064,-0.0857 0.01463,-0.0327 0.02272,-0.0677 0.02651,-0.10067 0.004,-0.0304 0.0039,-0.0627 -0.002,-0.094 -0.0061,-0.0325 -0.0182,-0.0637 -0.03778,-0.0912 -0.01514,-0.0225 -0.0359,-0.0395 -0.05754,-0.0513 -0.0017,-9.3e-4 -0.0034,-0.002 -0.0051,-0.003 -0.02432,-0.0123 -0.05098,-0.0191 -0.07702,-0.021 -0.03823,-0.003 -0.07732,0.006 -0.111064,0.0234 -0.01698,0.009 -0.03284,0.0205 -0.04667,0.0344 -0.01386,0.0139 -0.0257,0.0302 -0.0345,0.0488 -0.01811,0.0312 -0.03118,0.0703 -0.03503,0.11042 -0.0039,0.0401 0.0014,0.0821 0.01971,0.12107 0.0043,0.0116 0.01214,0.0246 0.02177,0.0358 0.0096,0.0112 0.02089,0.0206 0.03327,0.028 0.02452,0.0147 0.05399,0.0222 0.08392,0.0195 0.02425,-0.001 0.04861,-0.008 0.07079,-0.0184 0.02196,-0.0102 0.04202,-0.024 0.05945,-0.04 0.02937,-0.0251 0.05821,-0.0565 0.08079,-0.0926 0.02236,-0.0358 0.039,-0.0769 0.04424,-0.12214 0.0023,-0.0109 0.0031,-0.0259 0.0019,-0.0408 -0.0012,-0.0148 -0.0046,-0.0301 -0.01068,-0.0447 -0.0061,-0.0146 -0.01511,-0.0289 -0.02797,-0.0411 -0.01294,-0.0122 -0.02911,-0.0215 -0.04817,-0.0262 -0.01288,-0.004 -0.02643,-0.004 -0.03814,-0.002 -0.0032,5.1e-4 -0.0063,0.001 -0.0091,0.002 -0.007,0.002 -0.01332,0.004 -0.01806,0.006 -0.0075,0.003 -0.01121,0.004 -0.01484,0.005 -0.003,6.8e-4 -0.0035,4.3e-4 -0.0033,3.9e-4 -0.02833,6.7e-4 -0.04833,-5.5e-4 -0.06889,3.7e-4 -0.01173,5.4e-4 -0.0245,0.002 -0.03762,0.005 -0.0132,0.003 -0.0269,0.007 -0.0405,0.0143 -0.01257,0.007 -0.02297,0.0147 -0.03187,0.0236 -0.0088,0.009 -0.01614,0.0185 -0.02221,0.0283 -0.01196,0.0193 -0.01975,0.04 -0.0251,0.0584 -0.01134,0.043 -0.01426,0.0857 -0.01348,0.12649 0.0011,0.0289 0.0064,0.0591 0.01791,0.0877 0.0058,0.0143 0.0132,0.0283 0.02265,0.0416 0.0094,0.0132 0.02083,0.0255 0.03448,0.0362 0.01388,0.0139 0.03536,0.0278 0.05906,0.0368 0.02342,0.009 0.04947,0.0131 0.07628,0.0106 0.0141,-5.1e-4 0.02973,-0.004 0.04408,-0.01 0.01417,-0.006 0.02685,-0.013 0.03814,-0.0214 0.02205,-0.0163 0.03976,-0.0366 0.05364,-0.0551 0.02928,-0.0389 0.04999,-0.0839 0.06151,-0.13129 0.01134,-0.0466 0.01388,-0.0959 0.0066,-0.14426 -0.007,-0.03 -0.02027,-0.0551 -0.03951,-0.0751 -0.0096,-0.01 -0.02103,-0.0191 -0.03421,-0.0261 -0.01313,-0.007 -0.02796,-0.012 -0.04413,-0.0138 -0.01369,-8.3e-4 -0.02422,1.3e-4 -0.03439,0.003 -0.0085,0.002 -0.01649,0.005 -0.02384,0.009 -0.02039,0.0117 -0.03283,0.0245 -0.04243,0.0378 -0.0092,0.0127 -0.01623,0.0264 -0.02166,0.0392 -0.0053,0.0126 -0.0094,0.025 -0.01251,0.036 -0.0079,0.0244 -0.01647,0.0542 -0.02133,0.0855 -0.0047,0.0302 -0.0063,0.0635 -3.39e-4,0.0979 3.11e-4,0.006 0.0028,0.0168 0.0069,0.0265 0.004,0.01 0.0094,0.0184 0.01585,0.026 0.01261,0.015 0.02849,0.0254 0.04512,0.0319 0.01625,0.006 0.03388,0.009 0.05129,0.009 0.01717,-6.9e-4 0.03525,-0.005 0.05198,-0.0139 0.01751,-0.008 0.03534,-0.0217 0.04993,-0.0377 0.01445,-0.0158 0.02626,-0.0345 0.03433,-0.0548 0.008,-0.0201 0.01259,-0.0424 0.01176,-0.0655 -8.35e-4,-0.0231 -0.0071,-0.0468 -0.02064,-0.0686 -0.0055,-0.009 -0.01224,-0.0167 -0.02008,-0.0232 -0.0078,-0.007 -0.01632,-0.0115 -0.02515,-0.0151 -0.01748,-0.007 -0.03516,-0.008 -0.05119,-0.007 -0.01575,0.002 -0.03078,0.006 -0.04405,0.0129 -0.01318,0.006 -0.02583,0.0152 -0.03645,0.0259 -0.0083,0.008 -0.02021,0.0197 -0.03084,0.032 -0.01085,0.0125 -0.02232,0.0279 -0.03068,0.0467 -0.0054,0.0153 -0.0069,0.0262 -0.0068,0.0367 1.27e-4,0.0104 0.0019,0.0204 0.0047,0.0297 0.0057,0.0183 0.01602,0.0348 0.02927,0.0478 0.0132,0.0129 0.03097,0.0239 0.0522,0.028 0.01074,0.002 0.0222,0.002 0.03386,1.3e-4 0.0117,-0.002 0.02285,-0.007 0.03307,-0.0132 0.01575,-0.0105 0.0338,-0.0226 0.05046,-0.0372 0.01701,-0.0149 0.0339,-0.0336 0.04624,-0.0575 0.0054,-0.008 0.01027,-0.0215 0.01289,-0.0344 0.0026,-0.0131 0.0033,-0.0272 0.0012,-0.0412 -0.0021,-0.014 -0.0071,-0.0292 -0.01691,-0.0429 -0.005,-0.007 -0.01106,-0.0134 -0.01839,-0.019 -0.0074,-0.006 -0.01565,-0.01 -0.02462,-0.0131 -0.0299,-0.006 -0.05118,-0.004 -0.0705,0.002 -0.01914,0.006 -0.03567,0.0157 -0.04955,0.0263 -0.014,0.0107 -0.02611,0.0229 -0.03636,0.0348 -0.01039,0.012 -0.01942,0.0242 -0.02699,0.0352 -0.01107,0.0189 -0.01448,0.0355 -0.01467,0.0504 -1.94e-4,0.0151 0.0029,0.0305 0.0091,0.0445 0.0064,0.0144 0.01667,0.0285 0.03226,0.0388 0.0079,0.005 0.01699,0.009 0.02696,0.0116 0.01006,0.002 0.02033,0.003 0.03047,0.001 0.01894,-0.005 0.02971,-0.0101 0.03868,-0.0157 0.009,-0.006 0.01664,-0.0118 0.0228,-0.0172 0.0064,-0.006 0.01173,-0.0106 0.01627,-0.0147 0.0048,-0.004 0.0083,-0.007 0.01138,-0.009 0.01049,-0.009 0.01756,-0.0157 0.02411,-0.0236 0.0067,-0.008 0.01324,-0.0175 0.0184,-0.0283 0.0053,-0.0112 0.0095,-0.0244 0.01013,-0.0391 3.45e-4,-0.008 -2.33e-4,-0.0153 -0.0019,-0.0231 -0.0017,-0.008 -0.0045,-0.0156 -0.0083,-0.0229 -0.0034,-0.007 -0.0072,-0.013 -0.01295,-0.0175 -0.0057,-0.005 -0.01293,-0.007 -0.02003,-0.009 -0.01603,-0.004 -0.03165,-0.005 -0.04631,-0.004 -0.01518,0.001 -0.02937,0.005 -0.04219,0.009 -0.02715,0.009 -0.0503,0.0245 -0.06795,0.0389 -0.02351,0.0191 -0.0411,0.0392 -0.05352,0.0557 a 0.05078605,0.05078605 90 0 0 0.08116,0.0611 c 0.0086,-0.0114 0.02061,-0.0251 0.03651,-0.0379 0.01146,-0.009 0.02428,-0.0172 0.03712,-0.0217 0.0059,-0.002 0.01146,-0.003 0.01665,-0.004 0.0049,-3.7e-4 0.0096,-2e-5 0.01408,0.001 l -0.03414,-0.0315 c 6.4e-5,-0.002 4.24e-4,-0.002 -3.29e-4,-9e-5 -7.49e-4,0.002 -0.0022,0.004 -0.0048,0.007 -0.0024,0.003 -0.0054,0.006 -0.0086,0.009 -0.0042,0.003 -0.01115,0.009 -0.01684,0.0139 -0.0057,0.005 -0.01058,0.01 -0.01477,0.0133 -0.0042,0.004 -0.0074,0.006 -0.01008,0.008 -0.0025,0.002 -0.004,0.002 -0.0051,0.002 0.008,-0.002 0.01024,-0.002 0.01289,-9.6e-4 0.0026,6e-4 0.0049,0.002 0.0068,0.003 0.0036,0.002 0.0043,0.004 0.0044,0.004 -1.79e-4,-0.002 1.18e-4,-0.001 -0.0014,0.002 0.0041,-0.006 0.01078,-0.0146 0.01792,-0.0228 0.0071,-0.008 0.0142,-0.0151 0.02115,-0.0204 0.0069,-0.005 0.0129,-0.008 0.018,-0.01 0.0047,-0.001 0.0092,-0.002 0.01417,-9.3e-4 -0.0087,-0.002 -0.01012,-0.003 -0.01156,-0.004 -0.0045,-0.005 -0.0043,-0.006 -0.0041,-0.005 1.82e-4,0.001 1.97e-4,0.003 -2.82e-4,0.006 -0.0083,0.017 -0.01568,0.0259 -0.02633,0.0352 -0.01088,0.01 -0.02361,0.0183 -0.03886,0.0284 0.0059,-0.002 0.0074,-0.002 0.0086,-0.002 0.002,3.9e-4 0.0018,9.7e-4 2.66e-4,-5.4e-4 -0.0015,-0.001 -0.0026,-0.003 -0.0031,-0.005 4.87e-4,-3.1e-4 0.0051,-0.007 0.01221,-0.0154 0.0074,-0.009 0.01568,-0.0165 0.02599,-0.0268 0.002,-0.002 0.0049,-0.004 0.0087,-0.006 0.0038,-0.002 0.0074,-0.003 0.01,-0.003 0.0024,-2.6e-4 0.003,2.3e-4 0.0018,-2.6e-4 -3.13e-4,0.002 0.0015,0.008 0.0017,0.0153 2.63e-4,0.007 -0.0011,0.0153 -0.0045,0.0238 -0.0034,0.009 -0.0085,0.0168 -0.01482,0.0237 -0.0063,0.007 -0.01329,0.012 -0.01992,0.0151 -0.0042,0.002 -0.0067,0.003 -0.01032,0.003 -0.0036,1.6e-4 -0.0071,-4.7e-4 -0.0099,-0.002 -0.0027,-0.001 -0.0038,-0.002 -0.0039,-0.002 -0.004,-0.0248 -0.0034,-0.0465 1.04e-4,-0.0691 0.0036,-0.0236 0.01024,-0.0475 0.01792,-0.0715 0.0029,-0.0101 0.0056,-0.0184 0.0088,-0.0261 0.0033,-0.008 0.0068,-0.0143 0.01016,-0.019 0.0035,-0.005 0.006,-0.007 0.0071,-0.007 0.0024,-6.2e-4 0.005,1.3e-4 0.0078,0.002 0.0029,0.001 0.0059,0.004 0.009,0.007 0.0064,0.007 0.0113,0.0155 0.01354,0.0244 0.0045,0.0307 0.0028,0.0669 -0.0054,0.10119 -0.0084,0.0349 -0.02333,0.0674 -0.044,0.0951 -0.01085,0.0147 -0.02176,0.0267 -0.03289,0.0351 -0.0055,0.004 -0.01066,0.007 -0.01554,0.009 -0.0048,0.002 -0.0096,0.003 -0.01442,0.003 -0.01303,0.001 -0.02398,-1.6e-4 -0.03471,-0.004 -0.0109,-0.004 -0.02112,-0.0104 -0.02966,-0.0185 -0.0097,-0.008 -0.0148,-0.0131 -0.0193,-0.0193 -0.0045,-0.006 -0.0085,-0.0134 -0.01181,-0.0214 -0.0067,-0.0162 -0.01046,-0.035 -0.0114,-0.0542 -0.0011,-0.0343 0.0012,-0.0676 0.0088,-0.0984 0.0034,-0.0124 0.008,-0.0243 0.01373,-0.0338 0.0028,-0.005 0.0057,-0.008 0.0086,-0.0115 0.0029,-0.003 0.0058,-0.005 0.0089,-0.007 0.0044,-0.002 0.01,-0.004 0.01647,-0.006 0.0066,-0.002 0.014,-0.002 0.0226,-0.003 0.01999,-0.001 0.04118,-2.4e-4 0.06117,-0.001 0.0065,0.001 0.01903,-6.9e-4 0.02894,-0.003 0.0092,-0.002 0.0182,-0.006 0.02315,-0.008 0.0043,-0.002 0.0069,-0.002 0.009,-0.003 0.0033,-7.6e-4 0.0023,-7.1e-4 0.002,-8.7e-4 0.0053,0.001 0.0078,0.003 0.01,0.005 0.0023,0.002 0.0048,0.005 0.007,0.0102 0.0022,0.005 0.0038,0.011 0.0045,0.0177 6.97e-4,0.007 4.23e-4,0.0136 -6.46e-4,0.0197 -0.0037,0.0333 -0.01453,0.0623 -0.03108,0.0894 -0.01677,0.0275 -0.03908,0.0527 -0.06398,0.0745 -0.01249,0.0119 -0.02519,0.0209 -0.03852,0.0275 -0.01341,0.007 -0.0272,0.0106 -0.0409,0.0117 -0.01296,0.001 -0.02514,-0.001 -0.03563,-0.007 -0.0052,-0.003 -0.0098,-0.007 -0.01363,-0.0109 -0.0038,-0.004 -0.0068,-0.009 -0.0089,-0.0142 -0.01274,-0.0266 -0.01699,-0.0538 -0.01461,-0.082 0.0024,-0.0282 0.01141,-0.0566 0.02541,-0.0815 0.006,-0.0128 0.01242,-0.0219 0.02031,-0.03 0.0079,-0.008 0.01728,-0.0151 0.02773,-0.0208 0.02102,-0.0114 0.0455,-0.0169 0.06897,-0.0153 0.01709,0.001 0.03387,0.005 0.04848,0.0125 0.01579,0.008 0.02675,0.0175 0.03468,0.0291 0.01298,0.018 0.02142,0.0387 0.02582,0.0619 0.0043,0.0225 0.0046,0.0467 0.0014,0.071 -0.0032,0.0279 -0.0096,0.055 -0.02045,0.0792 -0.01068,0.0239 -0.02524,0.0443 -0.04426,0.0594 -0.0086,0.008 -0.01684,0.0125 -0.02617,0.0155 -0.0094,0.003 -0.01942,0.004 -0.02905,0.003 -0.0097,-8.1e-4 -0.01848,-0.004 -0.0257,-0.008 -0.0072,-0.004 -0.01302,-0.01 -0.01723,-0.0171 -0.02129,-0.0411 -0.02788,-0.0898 -0.02338,-0.13514 0.0028,-0.0212 0.0065,-0.0413 0.01217,-0.0597 0.0061,-0.02 0.01406,-0.0359 0.02398,-0.0487 0.0039,-0.004 0.01045,-0.01 0.0176,-0.0144 0.0078,-0.005 0.01643,-0.01 0.02533,-0.0142 0.02203,-0.0106 0.04519,-0.0192 0.06378,-0.0283 a 0.0380326,0.0380326 90 0 0 -0.0334,-0.0683 z"
       id="path-1"
       inkscape:path-effect="#path-effect258;#path-effect260"
       inkscape:original-d="m -15.558016,153.77118 c -0.05142,0.025 -0.118764,0.0413 -0.139722,0.10173 -0.03371,0.079 -0.03558,0.17468 0.0044,0.25162 0.02737,0.0462 0.09013,0.0561 0.13457,0.0297 0.07355,-0.0424 0.09941,-0.13448 0.100485,-0.21433 7.5e-4,-0.0701 -0.03215,-0.14999 -0.105084,-0.17098 -0.07264,-0.0257 -0.162168,0.005 -0.19614,0.0763 -0.0397,0.069 -0.04724,0.16581 0.0064,0.22951 0.05049,0.0483 0.129908,0.0261 0.176683,-0.0161 0.06422,-0.0532 0.118419,-0.13106 0.117528,-0.21727 0.0043,-0.0547 -0.04824,-0.10323 -0.0998,-0.0713 -0.05406,0.0122 -0.116978,-0.009 -0.165063,0.0278 -0.04238,0.0393 -0.05005,0.10245 -0.05224,0.15741 -0.0026,0.0585 0.01104,0.12301 0.06148,0.15917 0.04523,0.0437 0.123904,0.0466 0.167486,-0.001 0.06759,-0.0645 0.0988,-0.16366 0.08935,-0.25568 -0.0014,-0.0533 -0.06395,-0.11444 -0.114799,-0.0747 -0.03206,0.0285 -0.03937,0.0744 -0.05261,0.11346 -0.01027,0.0454 -0.01849,0.0948 -0.0044,0.13998 0.02739,0.0521 0.100067,0.037 0.130161,-0.004 0.03351,-0.0365 0.04714,-0.10451 0.0047,-0.13921 -0.04864,-0.025 -0.09376,0.0221 -0.120238,0.0584 -0.04685,0.0428 0.01691,0.12781 0.06695,0.08 0.04603,-0.0248 0.110799,-0.0943 0.06138,-0.14339 -0.04778,-0.0189 -0.09482,0.0238 -0.121595,0.0597 -0.04218,0.04 -0.0014,0.11668 0.0505,0.0681 0.02859,-0.0255 0.08718,-0.0607 0.06588,-0.10486 -0.0583,-0.0142 -0.115672,0.0299 -0.150966,0.073 l -0.0062,0.008"
       style="fill:#000000;fill-rule:nonzero;stroke:none;stroke-width:0.387799" />
  </g>
</svg>
