<?xml version="1.0" encoding="UTF-8" standalone="no"?>
<!-- Created with Inkscape (http://www.inkscape.org/) -->

<svg
   width="3mm"
   height="10mm"
   viewBox="0 0 3.0000001 9.9999994"
   version="1.1"
   id="svg1681"
   inkscape:version="1.2.1 (9c6d41e410, 2022-07-14)"
   sodipodi:docname="dot_9.svg"
   inkscape:export-filename="..\..\..\..\Downloads\lower a diff canvas resize 3.0.png"
   inkscape:export-xdpi="96"
   inkscape:export-ydpi="96"
   xmlns:inkscape="http://www.inkscape.org/namespaces/inkscape"
   xmlns:sodipodi="http://sodipodi.sourceforge.net/DTD/sodipodi-0.dtd"
   xmlns="http://www.w3.org/2000/svg"
   xmlns:svg="http://www.w3.org/2000/svg"
   xmlns:rdf="http://www.w3.org/1999/02/22-rdf-syntax-ns#"
   xmlns:cc="http://creativecommons.org/ns#"
   xmlns:dc="http://purl.org/dc/elements/1.1/">
  <defs
     id="defs1675">
    <inkscape:path-effect
       effect="powerstroke"
       id="path-effect160"
       is_visible="true"
       lpeversion="1"
       offset_points="5.3293904,0.048014678 | 28.980475,0.06154408"
       not_jump="true"
       sort_points="true"
       interpolator_type="CentripetalCatmullRom"
       interpolator_beta="0.75"
       start_linecap_type="round"
       linejoin_type="spiro"
       miter_limit="4"
       scale_width="1"
       end_linecap_type="round" />
    <inkscape:path-effect
       effect="simplify"
       id="path-effect158"
       is_visible="true"
       lpeversion="1"
       steps="1"
       threshold="0.0035951417"
       smooth_angles="0"
       helper_size="0"
       simplify_individual_paths="false"
       simplify_just_coalesce="false"
       step="1" />
    <inkscape:path-effect
       effect="powerstroke"
       id="path-effect153"
       is_visible="true"
       lpeversion="1"
       offset_points="4.8374271,0.094989652 | 12.507211,0.12200371 | 26.557178,0.1369789 | 29.728272,0.11862695 | 32.633808,0.13477666"
       not_jump="true"
       sort_points="true"
       interpolator_type="CentripetalCatmullRom"
       interpolator_beta="0.75"
       start_linecap_type="round"
       linejoin_type="spiro"
       miter_limit="4"
       scale_width="1"
       end_linecap_type="round" />
    <inkscape:path-effect
       effect="simplify"
       id="path-effect151"
       is_visible="true"
       lpeversion="1"
       steps="1"
       threshold="0.0035951417"
       smooth_angles="0"
       helper_size="0"
       simplify_individual_paths="false"
       simplify_just_coalesce="false"
       step="1" />
    <inkscape:path-effect
       effect="powerstroke"
       id="path-effect1588"
       is_visible="true"
       lpeversion="1"
       offset_points="7.8414948,0.064841696"
       not_jump="true"
       sort_points="true"
       interpolator_type="CentripetalCatmullRom"
       interpolator_beta="0.75"
       start_linecap_type="round"
       linejoin_type="spiro"
       miter_limit="4"
       scale_width="1"
       end_linecap_type="round" />
    <inkscape:path-effect
       effect="simplify"
       id="path-effect1586"
       is_visible="true"
       lpeversion="1"
       steps="1"
       threshold="0.0035951417"
       smooth_angles="0"
       helper_size="0"
       simplify_individual_paths="false"
       simplify_just_coalesce="false"
       step="1" />
    <inkscape:path-effect
       effect="powerstroke"
       id="path-effect502"
       is_visible="true"
       lpeversion="1"
       offset_points="3.0091841,0.21607495 | 7.3602657,0.17554228 | 9.4159651,0.20236537"
       not_jump="true"
       sort_points="true"
       interpolator_type="CentripetalCatmullRom"
       interpolator_beta="0.75"
       start_linecap_type="round"
       linejoin_type="spiro"
       miter_limit="4"
       scale_width="1"
       end_linecap_type="round" />
    <inkscape:path-effect
       effect="simplify"
       id="path-effect500"
       is_visible="true"
       lpeversion="1"
       steps="1"
       threshold="0.0035951417"
       smooth_angles="0"
       helper_size="0"
       simplify_individual_paths="false"
       simplify_just_coalesce="false"
       step="1" />
    <inkscape:path-effect
       effect="powerstroke"
       id="path-effect241"
       is_visible="true"
       lpeversion="1"
       offset_points="2.6879454,0.34086734"
       not_jump="true"
       sort_points="true"
       interpolator_type="CentripetalCatmullRom"
       interpolator_beta="0.75"
       start_linecap_type="round"
       linejoin_type="spiro"
       miter_limit="4"
       scale_width="1"
       end_linecap_type="round" />
    <inkscape:path-effect
       effect="simplify"
       id="path-effect239"
       is_visible="true"
       lpeversion="1"
       steps="1"
       threshold="0.0028332064"
       smooth_angles="0"
       helper_size="0"
       simplify_individual_paths="false"
       simplify_just_coalesce="false"
       step="1" />
    <inkscape:path-effect
       effect="powerstroke"
       id="path-effect234"
       is_visible="true"
       lpeversion="1"
       offset_points="2.13563,0.075169555"
       not_jump="true"
       sort_points="true"
       interpolator_type="CentripetalCatmullRom"
       interpolator_beta="0.75"
       start_linecap_type="round"
       linejoin_type="spiro"
       miter_limit="4"
       scale_width="1"
       end_linecap_type="round" />
    <inkscape:path-effect
       effect="simplify"
       id="path-effect232"
       is_visible="true"
       lpeversion="1"
       steps="1"
       threshold="0.0028332064"
       smooth_angles="0"
       helper_size="0"
       simplify_individual_paths="false"
       simplify_just_coalesce="false"
       step="1" />
    <inkscape:path-effect
       effect="powerstroke"
       id="path-effect227"
       is_visible="true"
       lpeversion="1"
       offset_points="2.1868266,0.075169555"
       not_jump="true"
       sort_points="true"
       interpolator_type="CentripetalCatmullRom"
       interpolator_beta="0.75"
       start_linecap_type="round"
       linejoin_type="spiro"
       miter_limit="4"
       scale_width="1"
       end_linecap_type="round" />
    <inkscape:path-effect
       effect="simplify"
       id="path-effect225"
       is_visible="true"
       lpeversion="1"
       steps="1"
       threshold="0.0028332064"
       smooth_angles="0"
       helper_size="0"
       simplify_individual_paths="false"
       simplify_just_coalesce="false"
       step="1" />
    <inkscape:path-effect
       effect="powerstroke"
       id="path-effect166"
       is_visible="true"
       lpeversion="1"
       offset_points="1.9637935,0.075169555"
       not_jump="true"
       sort_points="true"
       interpolator_type="CentripetalCatmullRom"
       interpolator_beta="0.75"
       start_linecap_type="round"
       linejoin_type="spiro"
       miter_limit="4"
       scale_width="1"
       end_linecap_type="round" />
    <inkscape:path-effect
       effect="simplify"
       id="path-effect164"
       is_visible="true"
       lpeversion="1"
       steps="1"
       threshold="0.0028332064"
       smooth_angles="0"
       helper_size="0"
       simplify_individual_paths="false"
       simplify_just_coalesce="false"
       step="1" />
    <inkscape:path-effect
       effect="powerstroke"
       id="path-effect159"
       is_visible="true"
       lpeversion="1"
       offset_points="2.2611036,0.075169555"
       not_jump="true"
       sort_points="true"
       interpolator_type="CentripetalCatmullRom"
       interpolator_beta="0.75"
       start_linecap_type="round"
       linejoin_type="spiro"
       miter_limit="4"
       scale_width="1"
       end_linecap_type="round" />
    <inkscape:path-effect
       effect="simplify"
       id="path-effect157"
       is_visible="true"
       lpeversion="1"
       steps="1"
       threshold="0.0028332064"
       smooth_angles="0"
       helper_size="0"
       simplify_individual_paths="false"
       simplify_just_coalesce="false"
       step="1" />
    <inkscape:path-effect
       effect="powerstroke"
       id="path-effect152"
       is_visible="true"
       lpeversion="1"
       offset_points="2.826981,0.075169555"
       not_jump="true"
       sort_points="true"
       interpolator_type="CentripetalCatmullRom"
       interpolator_beta="0.75"
       start_linecap_type="round"
       linejoin_type="spiro"
       miter_limit="4"
       scale_width="1"
       end_linecap_type="round" />
    <inkscape:path-effect
       effect="simplify"
       id="path-effect150"
       is_visible="true"
       lpeversion="1"
       steps="1"
       threshold="0.0028332064"
       smooth_angles="0"
       helper_size="0"
       simplify_individual_paths="false"
       simplify_just_coalesce="false"
       step="1" />
    <inkscape:path-effect
       effect="powerstroke"
       id="path-effect145"
       is_visible="true"
       lpeversion="1"
       offset_points="3.8374447,0.075169555"
       not_jump="true"
       sort_points="true"
       interpolator_type="CentripetalCatmullRom"
       interpolator_beta="0.75"
       start_linecap_type="round"
       linejoin_type="spiro"
       miter_limit="4"
       scale_width="1"
       end_linecap_type="round" />
    <inkscape:path-effect
       effect="simplify"
       id="path-effect143"
       is_visible="true"
       lpeversion="1"
       steps="1"
       threshold="0.0028332064"
       smooth_angles="0"
       helper_size="0"
       simplify_individual_paths="false"
       simplify_just_coalesce="false"
       step="1" />
    <inkscape:path-effect
       effect="powerstroke"
       id="path-effect138"
       is_visible="true"
       lpeversion="1"
       offset_points="2.6880907,0.075169555"
       not_jump="true"
       sort_points="true"
       interpolator_type="CentripetalCatmullRom"
       interpolator_beta="0.75"
       start_linecap_type="round"
       linejoin_type="spiro"
       miter_limit="4"
       scale_width="1"
       end_linecap_type="round" />
    <inkscape:path-effect
       effect="simplify"
       id="path-effect136"
       is_visible="true"
       lpeversion="1"
       steps="1"
       threshold="0.0028332064"
       smooth_angles="0"
       helper_size="0"
       simplify_individual_paths="false"
       simplify_just_coalesce="false"
       step="1" />
    <inkscape:path-effect
       effect="powerstroke"
       id="path-effect131"
       is_visible="true"
       lpeversion="1"
       offset_points="1.9940581,0.075169555"
       not_jump="true"
       sort_points="true"
       interpolator_type="CentripetalCatmullRom"
       interpolator_beta="0.75"
       start_linecap_type="round"
       linejoin_type="spiro"
       miter_limit="4"
       scale_width="1"
       end_linecap_type="round" />
    <inkscape:path-effect
       effect="simplify"
       id="path-effect129"
       is_visible="true"
       lpeversion="1"
       steps="1"
       threshold="0.0028332064"
       smooth_angles="0"
       helper_size="0"
       simplify_individual_paths="false"
       simplify_just_coalesce="false"
       step="1" />
  </defs>
  <sodipodi:namedview
     id="base"
     pagecolor="#ffffff"
     bordercolor="#666666"
     borderopacity="1.0"
     inkscape:pageopacity="0.0"
     inkscape:pageshadow="2"
     inkscape:zoom="7.919596"
     inkscape:cx="-5.3033008"
     inkscape:cy="20.834396"
     inkscape:document-units="mm"
     inkscape:current-layer="layer1"
     showgrid="false"
     fit-margin-top="0"
     fit-margin-left="0"
     fit-margin-right="0"
     fit-margin-bottom="0"
     inkscape:window-width="1920"
     inkscape:window-height="974"
     inkscape:window-x="-11"
     inkscape:window-y="2869"
     inkscape:window-maximized="1"
     showguides="true"
     inkscape:guide-bbox="true"
     inkscape:snap-bbox="true"
     inkscape:bbox-nodes="true"
     inkscape:snap-nodes="false"
     inkscape:snap-others="false"
     inkscape:snap-page="true"
     inkscape:snap-grids="false"
     inkscape:snap-to-guides="false"
     inkscape:snap-global="false"
     inkscape:pagecheckerboard="0"
     inkscape:showpageshadow="2"
     inkscape:deskcolor="#d1d1d1">
    <sodipodi:guide
       position="-6.1806076,9.4988693"
       orientation="0,1"
       id="guide816"
       inkscape:locked="false" />
    <sodipodi:guide
       position="-4.4101636,10.646923"
       orientation="0,1"
       id="guide818"
       inkscape:locked="false" />
    <sodipodi:guide
       position="2.7595724,11.09577"
       orientation="1,0"
       id="guide820"
       inkscape:locked="false" />
    <sodipodi:guide
       position="3.6572659,10.942217"
       orientation="1,0"
       id="guide822"
       inkscape:locked="false" />
    <sodipodi:guide
       position="-0.051625511,9.74923"
       orientation="1,0"
       id="guide1853"
       inkscape:locked="false" />
    <sodipodi:guide
       position="-2.3720169,3.0175835"
       orientation="0,1"
       id="guide1855"
       inkscape:locked="false" />
  </sodipodi:namedview>
  <metadata
     id="metadata1678">
    <rdf:RDF>
      <cc:Work
         rdf:about="">
        <dc:format>image/svg+xml</dc:format>
        <dc:type
           rdf:resource="http://purl.org/dc/dcmitype/StillImage" />
      </cc:Work>
    </rdf:RDF>
  </metadata>
  <g
     inkscape:label="Layer 1"
     inkscape:groupmode="layer"
     id="layer1"
     transform="translate(17.028496,-147.22856)">
    <path
       d="m -15.365359,153.56647 c -0.03147,0.0121 -0.06718,0.0225 -0.09865,0.0346 -0.01643,0.006 -0.03479,0.0141 -0.05311,0.024 -0.01688,0.009 -0.0346,0.0205 -0.05164,0.0351 -0.0093,0.009 -0.01784,0.0176 -0.02604,0.0267 -0.0078,0.009 -0.01645,0.0191 -0.02415,0.0309 -0.0073,0.0113 -0.01442,0.0247 -0.01909,0.0402 -0.0045,0.015 -0.0068,0.0318 -0.0048,0.05 -4.25e-4,0.0124 0.0041,0.0294 0.01231,0.0442 0.0078,0.0143 0.01897,0.0265 0.03227,0.0357 0.01287,0.009 0.0282,0.0154 0.04496,0.0178 0.01429,0.002 0.02954,0.001 0.04463,-0.004 0.01722,-0.002 0.03365,-0.007 0.04931,-0.0126 0.017,-0.006 0.03294,-0.0145 0.04793,-0.0236 0.02896,-0.0176 0.05477,-0.0392 0.07788,-0.0595 0.0077,-0.008 0.01323,-0.0127 0.02073,-0.0187 0.0072,-0.006 0.01568,-0.0121 0.02483,-0.0198 0.0088,-0.007 0.01883,-0.0166 0.02783,-0.0279 0.0091,-0.0113 0.01726,-0.025 0.02264,-0.0415 0.0045,-0.009 0.0074,-0.0243 0.0072,-0.039 -5.1e-5,-0.005 -4.07e-4,-0.009 -0.0011,-0.0139 -0.0014,-0.01 -0.0042,-0.0196 -0.0086,-0.0291 -0.0062,-0.0133 -0.01595,-0.0267 -0.03029,-0.0369 -0.007,-0.005 -0.01486,-0.009 -0.02361,-0.0118 -0.0086,-0.003 -0.01766,-0.004 -0.02703,-0.004 -0.01723,-0.002 -0.03711,7.9e-4 -0.0558,0.006 -0.01789,0.005 -0.03429,0.0122 -0.0493,0.0202 -0.01447,0.008 -0.02812,0.0164 -0.04061,0.0244 -0.01247,0.008 -0.02343,0.0152 -0.03423,0.0213 -0.01681,0.0121 -0.04106,0.0284 -0.05866,0.0435 -0.0096,0.008 -0.01959,0.018 -0.02862,0.0294 -0.0089,0.0113 -0.01706,0.0246 -0.02293,0.0402 -0.0038,0.0138 -0.0047,0.0225 -0.0042,0.0312 4.68e-4,0.009 0.0023,0.017 0.0051,0.0247 0.0057,0.0154 0.01541,0.0279 0.02666,0.0373 0.01102,0.009 0.02405,0.0158 0.03785,0.0195 0.0136,0.004 0.02874,0.005 0.04407,0.001 0.0088,3e-4 0.02373,-0.004 0.03703,-0.009 0.01289,-0.005 0.02417,-0.0119 0.03373,-0.0181 0.0089,-0.006 0.01844,-0.0128 0.0252,-0.0175 0.0075,-0.005 0.01343,-0.009 0.01898,-0.012 0.05541,-0.0372 0.105387,-0.0816 0.142617,-0.13857 0.0017,-0.003 0.0033,-0.005 0.0045,-0.008 0.0012,-0.003 0.0019,-0.006 0.0026,-0.009 0.0032,-0.0144 0.0022,-0.0289 -0.0023,-0.0422 -0.0044,-0.013 -0.01192,-0.0242 -0.02128,-0.0329 -0.0093,-0.009 -0.02063,-0.0153 -0.03322,-0.0189 -0.01259,-0.004 -0.02646,-0.004 -0.04043,-0.001 -0.0086,-8e-5 -0.02372,0.004 -0.03746,0.009 -0.01354,0.005 -0.02568,0.0117 -0.03644,0.0185 -0.01932,0.0121 -0.04047,0.0294 -0.053,0.0386 -0.02732,0.0206 -0.05552,0.0444 -0.0801,0.0726 -0.02446,0.028 -0.04615,0.0613 -0.05914,0.10078 -0.0012,0.004 -0.002,0.007 -0.0023,0.0111 -0.0019,0.0183 0.001,0.0357 0.0075,0.0513 0.0064,0.0154 0.01592,0.0283 0.02676,0.0387 0.01078,0.0103 0.02319,0.0185 0.03616,0.0245 0.01293,0.006 0.02702,0.01 0.0415,0.0115 0.02283,0.005 0.04938,0.002 0.0728,-0.004 0.02311,-0.006 0.04414,-0.0159 0.06214,-0.0259 0.01772,-0.0101 0.04053,-0.0237 0.06034,-0.0419 0.01014,-0.009 0.02019,-0.0204 0.02865,-0.0337 0.0085,-0.0134 0.01532,-0.0288 0.01891,-0.0463 0.0036,-0.0184 0.002,-0.0359 -0.0035,-0.0519 -0.0055,-0.0157 -0.01459,-0.0291 -0.02532,-0.0396 -0.01071,-0.0105 -0.02338,-0.0186 -0.0369,-0.024 -0.01354,-0.005 -0.0285,-0.008 -0.04395,-0.008 -0.03019,-4e-4 -0.05986,0.006 -0.08657,0.0145 -0.02666,0.009 -0.05156,0.0203 -0.07347,0.0313 -0.04023,0.0213 -0.07904,0.0462 -0.11422,0.0762 -0.03541,0.0302 -0.06741,0.0658 -0.0923,0.1078 -0.0065,0.007 -0.0141,0.0226 -0.01823,0.0387 -0.0041,0.0161 -0.0048,0.0324 -0.0027,0.0478 0.002,0.0155 0.0069,0.0305 0.01408,0.0443 0.0073,0.0138 0.01713,0.0267 0.02954,0.0375 0.01043,0.011 0.02641,0.0211 0.04316,0.0278 0.01664,0.007 0.03338,0.01 0.04917,0.0103 0.01577,7.5e-4 0.03102,-6.6e-4 0.04496,-0.003 0.01407,-0.002 0.02741,-0.006 0.03948,-0.0103 0.04545,-0.0144 0.08582,-0.0382 0.12135,-0.0648 0.03569,-0.0267 0.06762,-0.0573 0.09591,-0.0857 0.0067,-0.007 0.01405,-0.0143 0.02204,-0.0229 0.0079,-0.008 0.01697,-0.0189 0.02504,-0.0308 0.0082,-0.0121 0.01623,-0.0271 0.02076,-0.0448 0.0023,-0.009 0.0037,-0.0187 0.0037,-0.0288 1.2e-5,-0.0102 -0.0013,-0.0205 -0.0041,-0.0308 -9.13e-4,-0.003 -0.0021,-0.007 -0.0036,-0.01 -0.0043,-0.009 -0.0099,-0.0175 -0.01687,-0.025 -0.007,-0.008 -0.01487,-0.0134 -0.0231,-0.018 -0.0082,-0.005 -0.01643,-0.008 -0.02412,-0.009 -0.0077,-0.002 -0.01504,-0.003 -0.02165,-0.003 -0.013,-8.4e-4 -0.0252,2.7e-4 -0.03431,0.001 -0.0097,0.001 -0.0176,0.003 -0.02275,0.003 -0.02398,0.005 -0.04655,0.0111 -0.06826,0.0215 -0.01122,0.005 -0.02263,0.0121 -0.03342,0.0205 -0.01102,0.009 -0.0214,0.0191 -0.03017,0.0318 -0.0069,0.0116 -0.01,0.0195 -0.01174,0.0279 -0.0018,0.008 -0.0022,0.0169 -0.0013,0.0251 0.0018,0.0168 0.0087,0.0314 0.01801,0.0427 0.0095,0.0115 0.02186,0.0202 0.03566,0.0252 0.01221,0.004 0.02554,0.006 0.03897,0.004 0.02556,-0.001 0.04816,-0.009 0.06686,-0.0183 0.02064,-0.0104 0.03802,-0.0238 0.0518,-0.0365 5.22e-4,5.9e-4 0.0091,-0.006 0.01753,-0.0132 0.0086,-0.008 0.01753,-0.0168 0.02534,-0.0274 0.0081,-0.0111 0.01562,-0.0246 0.02006,-0.0404 0.0044,-0.0155 0.0055,-0.0323 0.0021,-0.0496 -2.84e-4,-0.001 -5.98e-4,-0.003 -9.43e-4,-0.004 -0.0014,-0.006 -0.0038,-0.0119 -0.007,-0.0173 -0.0059,-0.01 -0.01326,-0.0188 -0.02221,-0.0263 -0.009,-0.008 -0.01886,-0.0131 -0.02904,-0.0169 -0.01012,-0.004 -0.0201,-0.006 -0.02936,-0.006 -0.0093,-6.3e-4 -0.01803,-8e-5 -0.02596,0.001 -0.01574,0.002 -0.03011,0.007 -0.04185,0.0122 -0.01205,0.005 -0.02292,0.0112 -0.03186,0.0169 -0.0067,0.003 -0.01679,0.0111 -0.02509,0.0198 -0.0084,0.009 -0.01661,0.02 -0.02225,0.0335 -0.0029,0.007 -0.0053,0.0149 -0.0065,0.0238 -0.0012,0.009 -0.001,0.0189 0.0012,0.0292 0.0023,0.0105 0.0067,0.0205 0.01296,0.0295 0.0063,0.009 0.01386,0.0162 0.0219,0.0218 0.01436,0.0104 0.03053,0.0157 0.04574,0.0174 0.0149,0.002 0.02836,-8e-5 0.03885,-0.002 0.01075,-0.002 0.02038,-0.006 0.02778,-0.009 0.0071,-0.003 0.0149,-0.006 0.01879,-0.008 0.01484,-0.008 0.02538,-0.0141 0.03541,-0.0218 0.01029,-0.008 0.02038,-0.0172 0.02931,-0.0281 0.0092,-0.0112 0.01746,-0.0244 0.02322,-0.0395 0.006,-0.0158 0.0091,-0.033 0.0082,-0.051 -2.7e-4,-0.005 -5.85e-4,-0.0107 -0.0017,-0.0159 -0.0011,-0.005 -0.003,-0.0103 -0.0059,-0.0148 -0.0028,-0.005 -0.0066,-0.008 -0.01077,-0.0118 -0.0042,-0.003 -0.0089,-0.006 -0.01358,-0.008 -0.01787,-0.01 -0.03634,-0.0147 -0.05402,-0.0161 -0.01825,-0.001 -0.03533,8.3e-4 -0.05028,0.005 -0.01571,0.004 -0.02997,0.0103 -0.04229,0.0169 -0.01311,0.007 -0.02482,0.0153 -0.03484,0.0235 -0.02077,0.0169 -0.03552,0.0343 -0.04609,0.0506 a 0.06154408,0.06154408 90 0 0 0.10335,0.0669 c 0.0035,-0.005 0.0096,-0.013 0.02066,-0.0219 0.0049,-0.004 0.01016,-0.008 0.01569,-0.0106 0.0053,-0.003 0.01024,-0.005 0.01468,-0.006 0.0042,-0.001 0.0073,-0.001 0.0093,-0.001 0.0017,1.4e-4 0.003,5.5e-4 0.0042,0.001 l -0.0321,-0.0503 c -2.95e-4,7.5e-4 -0.0011,0.002 -0.0032,0.005 -0.0021,0.003 -0.0051,0.005 -0.0091,0.008 -0.0039,0.003 -0.0084,0.006 -0.01314,0.008 -0.0021,7.1e-4 -0.0062,0.003 -0.01116,0.005 -0.0045,0.002 -0.0074,0.003 -0.0093,0.003 -0.0019,4.1e-4 -9.09e-4,-7e-5 0.0019,2.5e-4 0.0033,3.8e-4 0.0079,0.002 0.01225,0.005 0.0016,0.001 0.0047,0.004 0.0077,0.008 0.003,0.004 0.0052,0.009 0.0064,0.0146 0.0011,0.005 0.0011,0.01 6.47e-4,0.0135 -4.68e-4,0.004 -0.0014,0.006 -0.0021,0.008 -0.0013,0.003 -0.0025,0.004 -0.0026,0.004 -4.4e-5,5e-5 -6.65e-4,7.1e-4 -0.0025,0.002 0.0092,-0.006 0.01419,-0.008 0.01915,-0.0105 0.0051,-0.002 0.0087,-0.003 0.01065,-0.003 -8.69e-4,-1.8e-4 -0.0027,-4.2e-4 -0.0051,-0.001 -0.0025,-9.3e-4 -0.0051,-0.002 -0.0074,-0.004 -0.0023,-0.002 -0.0037,-0.004 -0.0043,-0.005 -0.0016,-0.003 -0.0033,-0.006 -0.0046,-0.009 -0.0013,-0.003 -0.002,-0.006 -0.0026,-0.009 -5.3e-4,-0.003 -2.32e-4,-0.005 2.58e-4,-0.007 4.06e-4,-0.001 6.36e-4,-9.9e-4 -8.66e-4,0.001 -0.0014,0.002 -0.0039,0.005 -0.0075,0.008 -0.0035,0.003 -0.0076,0.006 -0.0119,0.009 -0.01528,0.0132 -0.02338,0.0193 -0.03127,0.0234 -0.0074,0.004 -0.0137,0.006 -0.01908,0.006 -0.0037,1.5e-4 -0.0073,5.6e-4 -0.01089,0.001 0.0069,-0.001 0.01412,-8.4e-4 0.02064,0.002 0.0062,0.002 0.01186,0.006 0.01629,0.0116 0.0044,0.005 0.0079,0.0127 0.0089,0.0215 4.48e-4,0.004 2.15e-4,0.009 -7.03e-4,0.0129 -9.1e-4,0.004 -0.0024,0.008 -0.0042,0.0109 -0.0017,0.003 -1.15e-4,9.3e-4 0.0025,-0.001 0.0027,-0.002 0.0063,-0.005 0.01112,-0.007 0.0098,-0.005 0.02218,-0.009 0.03691,-0.0121 0.0037,-3.4e-4 0.01093,-0.002 0.01689,-0.002 0.0063,-8.5e-4 0.0099,-0.001 0.01209,-9.4e-4 -5.23e-4,-3.2e-4 -0.0021,-8.2e-4 -0.0041,-0.002 -0.0021,-0.001 -0.0042,-0.003 -0.0061,-0.005 -0.0019,-0.002 -0.003,-0.004 -0.0036,-0.005 -3.92e-4,-8.7e-4 -8.13e-4,-0.002 -0.0013,-0.003 -4.89e-4,-8.2e-4 -0.001,-0.002 -0.0015,-0.002 -4.52e-4,-8.3e-4 -7.99e-4,-0.002 -9.21e-4,-0.003 -1.21e-4,-9.4e-4 5e-6,-0.002 1.69e-4,-0.003 -1.33e-4,7.6e-4 -9.68e-4,0.003 -0.0041,0.008 -0.0031,0.005 -0.0075,0.0101 -0.01361,0.0168 -0.0059,0.006 -0.01277,0.0134 -0.02009,0.0213 -0.02589,0.0262 -0.05294,0.0521 -0.08163,0.0738 -0.02816,0.0213 -0.05705,0.038 -0.08794,0.048 -0.0087,0.003 -0.01622,0.005 -0.02348,0.007 -0.0073,0.001 -0.01371,0.002 -0.01922,0.002 -0.0054,-1.9e-4 -0.0094,-0.001 -0.01227,-0.002 -0.0026,-9.8e-4 -0.0048,-0.002 -0.0068,-0.004 -0.0046,-0.004 -0.0058,-0.006 -0.0069,-0.007 -0.0011,-0.002 -0.0018,-0.004 -0.0022,-0.006 -3.33e-4,-0.002 -2.15e-4,-0.004 -1.9e-5,-0.005 1.72e-4,-8.7e-4 3.83e-4,-0.002 7.79e-4,-0.003 3.96e-4,-8e-4 9.52e-4,-0.002 0.0016,-0.002 6.02e-4,-6.6e-4 0.0012,-0.001 0.0018,-0.002 5.69e-4,-6.9e-4 0.001,-0.001 0.0015,-0.002 0.01732,-0.0296 0.04046,-0.0561 0.06805,-0.0799 0.02748,-0.0237 0.05896,-0.0444 0.09251,-0.0623 0.01896,-0.01 0.03801,-0.0186 0.0568,-0.0249 0.0185,-0.006 0.03585,-0.01 0.05208,-0.01 0.0016,-0.004 0.0015,-0.006 0.0018,-0.008 -4.35e-4,0.002 -0.0016,0.005 -0.0037,0.009 -0.0022,0.004 -0.0055,0.008 -0.0103,0.0121 -0.01008,0.009 -0.02357,0.0181 -0.04013,0.0279 -0.01253,0.007 -0.02487,0.0128 -0.03636,0.016 -0.01132,0.003 -0.02069,0.004 -0.02935,0.002 -0.0071,-8.8e-4 -0.01004,-0.002 -0.01302,-0.003 -0.003,-0.001 -0.0054,-0.003 -0.007,-0.004 0.0026,-0.0146 0.01564,-0.0359 0.03325,-0.0564 0.01786,-0.0208 0.03971,-0.0398 0.06339,-0.0579 0.01776,-0.0133 0.03287,-0.0261 0.04594,-0.0345 0.0067,-0.004 0.01251,-0.007 0.01792,-0.01 0.0053,-0.002 0.01025,-0.003 0.01513,-0.004 0.0042,-3.8e-4 6.51e-4,-6.2e-4 -0.0025,-0.002 -0.0031,-9.5e-4 -0.0058,-0.003 -0.0081,-0.005 -0.0023,-0.002 -0.0044,-0.005 -0.0056,-0.009 -0.0013,-0.004 -0.0015,-0.008 -6.23e-4,-0.0122 6.91e-4,-0.003 0.0014,-0.006 0.0026,-0.009 0.0012,-0.003 0.0028,-0.006 0.0045,-0.008 -0.02751,0.0427 -0.06621,0.0785 -0.109243,0.10807 -0.0066,0.003 -0.01672,0.0102 -0.02496,0.0161 -0.0093,0.007 -0.01518,0.0111 -0.02235,0.0159 -0.0066,0.004 -0.01182,0.007 -0.01637,0.009 -0.0044,0.002 -0.008,0.003 -0.01141,0.003 -0.0064,0.002 -0.0051,0.003 -0.0042,0.006 4.69e-4,0.001 7.67e-4,0.003 8.29e-4,0.004 -3.05e-4,0.004 0.0023,-5.1e-4 0.0061,-0.005 0.0039,-0.005 0.009,-0.0103 0.01536,-0.0159 0.0143,-0.0125 0.02917,-0.022 0.04812,-0.0363 0.0086,-0.005 0.02216,-0.0136 0.03349,-0.0209 0.01237,-0.008 0.02308,-0.0148 0.03372,-0.0206 0.01082,-0.006 0.02036,-0.01 0.02929,-0.0124 0.009,-0.003 0.01744,-0.003 0.02581,-0.003 -0.0049,0.0128 -0.0068,0.0164 -0.01004,0.0205 -0.0034,0.004 -0.0081,0.009 -0.01461,0.0144 -0.0065,0.005 -0.01433,0.0114 -0.02292,0.0183 -0.0086,0.007 -0.01835,0.0151 -0.02746,0.0249 -0.01886,0.0164 -0.03949,0.0333 -0.06093,0.0464 -0.01084,0.007 -0.02143,0.0119 -0.0319,0.0158 -0.01067,0.004 -0.02121,0.007 -0.0318,0.008 -0.0025,2.6e-4 -0.0049,6.2e-4 -0.0074,9.5e-4 -0.0025,3.3e-4 -0.005,5.8e-4 -0.0074,1e-4 -0.0012,-2.5e-4 -0.0024,-6.7e-4 -0.0035,-0.001 -0.0011,-6.5e-4 -0.002,-0.001 -0.0027,-0.003 -7.25e-4,-0.001 -0.0012,-0.002 -0.0016,-0.003 -3.24e-4,-0.001 -4.63e-4,-0.002 -5.91e-4,-0.004 -4.32e-4,-0.004 2.5e-5,-0.008 0.0013,-0.0124 0.0014,-0.005 0.0039,-0.01 0.0077,-0.0156 0.004,-0.006 0.0091,-0.0125 0.01508,-0.019 0.0063,-0.007 0.01311,-0.0137 0.02002,-0.0206 0.0081,-0.007 0.01988,-0.0144 0.03214,-0.021 0.0134,-0.007 0.02763,-0.0133 0.04186,-0.0187 0.03477,-0.0133 0.06966,-0.0234 0.09883,-0.0346 a 0.04801468,0.04801468 90 0 0 -0.03444,-0.0896 z"
       id="path-1"
       inkscape:path-effect="#path-effect158;#path-effect160"
       inkscape:original-d="m -15.348138,153.61129 c -0.07837,0.03 -0.171906,0.0467 -0.221642,0.12185 -0.04703,0.0453 -0.02972,0.14376 0.05015,0.12218 0.08147,-0.009 0.139702,-0.074 0.199244,-0.12387 0.05081,-0.0311 0.06562,-0.12503 -0.01462,-0.11987 -0.05145,0.001 -0.09182,0.0378 -0.135048,0.0614 -0.03428,0.0245 -0.0727,0.0491 -0.09372,0.0863 -0.01606,0.0709 0.07807,0.065 0.112195,0.0283 0.06417,-0.0368 0.124568,-0.0855 0.164983,-0.14778 0.005,-0.063 -0.08903,-0.0263 -0.114696,0.002 -0.06114,0.0433 -0.12478,0.0953 -0.148774,0.16883 -0.003,0.0682 0.08688,0.0822 0.136003,0.0589 0.05026,-0.02 0.145854,-0.0782 0.101835,-0.14053 -0.04321,-0.0362 -0.102472,-0.009 -0.14857,0.007 -0.08429,0.0399 -0.166373,0.097 -0.214479,0.17864 -0.04186,0.0565 0.01638,0.12646 0.07923,0.12003 0.09645,-0.009 0.175582,-0.0755 0.240926,-0.14179 0.03107,-0.0296 0.09787,-0.0968 0.03561,-0.12796 -0.0507,-0.004 -0.109678,0.0101 -0.146866,0.0466 -0.02776,0.062 0.07814,0.0321 0.09769,7.6e-4 0.03651,-0.0166 0.08865,-0.0838 0.02452,-0.0991 -0.04033,-0.004 -0.133673,0.0486 -0.07122,0.0824 0.05045,0.004 0.124328,-0.0429 0.119968,-0.095 -0.04848,-0.027 -0.110068,0.0117 -0.140535,0.051 l -0.0055,0.008"
       style="fill:#000000;fill-rule:nonzero;stroke:none;stroke-width:0.500828" />
  </g>
</svg>
