<?xml version="1.0" encoding="UTF-8" standalone="no"?>
<!-- Created with Inkscape (http://www.inkscape.org/) -->

<svg
   width="3mm"
   height="10mm"
   viewBox="0 0 3.0000001 9.9999994"
   version="1.1"
   id="svg1681"
   inkscape:version="1.2.1 (9c6d41e410, 2022-07-14)"
   sodipodi:docname="dot_6.svg"
   inkscape:export-filename="..\..\..\..\Downloads\lower a diff canvas resize 3.0.png"
   inkscape:export-xdpi="96"
   inkscape:export-ydpi="96"
   xmlns:inkscape="http://www.inkscape.org/namespaces/inkscape"
   xmlns:sodipodi="http://sodipodi.sourceforge.net/DTD/sodipodi-0.dtd"
   xmlns="http://www.w3.org/2000/svg"
   xmlns:svg="http://www.w3.org/2000/svg"
   xmlns:rdf="http://www.w3.org/1999/02/22-rdf-syntax-ns#"
   xmlns:cc="http://creativecommons.org/ns#"
   xmlns:dc="http://purl.org/dc/elements/1.1/">
  <defs
     id="defs1675">
    <inkscape:path-effect
       effect="powerstroke"
       id="path-effect155"
       is_visible="true"
       lpeversion="1"
       offset_points="4.2400201,0.061040868 | 14.791018,0.076775847"
       not_jump="true"
       sort_points="true"
       interpolator_type="CentripetalCatmullRom"
       interpolator_beta="0.75"
       start_linecap_type="round"
       linejoin_type="spiro"
       miter_limit="4"
       scale_width="1"
       end_linecap_type="round" />
    <inkscape:path-effect
       effect="simplify"
       id="path-effect153"
       is_visible="true"
       lpeversion="1"
       steps="1"
       threshold="0.0035951417"
       smooth_angles="0"
       helper_size="0"
       simplify_individual_paths="false"
       simplify_just_coalesce="false"
       step="1" />
    <inkscape:path-effect
       effect="powerstroke"
       id="path-effect2036"
       is_visible="true"
       lpeversion="1"
       offset_points="3.0568765,0.084001606 | 7.3726651,0.098157086"
       not_jump="true"
       sort_points="true"
       interpolator_type="CentripetalCatmullRom"
       interpolator_beta="0.75"
       start_linecap_type="round"
       linejoin_type="spiro"
       miter_limit="4"
       scale_width="1"
       end_linecap_type="round" />
    <inkscape:path-effect
       effect="simplify"
       id="path-effect2034"
       is_visible="true"
       lpeversion="1"
       steps="1"
       threshold="0.0035951417"
       smooth_angles="0"
       helper_size="0"
       simplify_individual_paths="false"
       simplify_just_coalesce="false"
       step="1" />
    <inkscape:path-effect
       effect="powerstroke"
       id="path-effect502"
       is_visible="true"
       lpeversion="1"
       offset_points="3.0091841,0.21607495 | 7.3602657,0.17554228 | 9.4159651,0.20236537"
       not_jump="true"
       sort_points="true"
       interpolator_type="CentripetalCatmullRom"
       interpolator_beta="0.75"
       start_linecap_type="round"
       linejoin_type="spiro"
       miter_limit="4"
       scale_width="1"
       end_linecap_type="round" />
    <inkscape:path-effect
       effect="simplify"
       id="path-effect500"
       is_visible="true"
       lpeversion="1"
       steps="1"
       threshold="0.0035951417"
       smooth_angles="0"
       helper_size="0"
       simplify_individual_paths="false"
       simplify_just_coalesce="false"
       step="1" />
    <inkscape:path-effect
       effect="powerstroke"
       id="path-effect241"
       is_visible="true"
       lpeversion="1"
       offset_points="2.6879454,0.34086734"
       not_jump="true"
       sort_points="true"
       interpolator_type="CentripetalCatmullRom"
       interpolator_beta="0.75"
       start_linecap_type="round"
       linejoin_type="spiro"
       miter_limit="4"
       scale_width="1"
       end_linecap_type="round" />
    <inkscape:path-effect
       effect="simplify"
       id="path-effect239"
       is_visible="true"
       lpeversion="1"
       steps="1"
       threshold="0.0028332064"
       smooth_angles="0"
       helper_size="0"
       simplify_individual_paths="false"
       simplify_just_coalesce="false"
       step="1" />
    <inkscape:path-effect
       effect="powerstroke"
       id="path-effect234"
       is_visible="true"
       lpeversion="1"
       offset_points="2.13563,0.075169555"
       not_jump="true"
       sort_points="true"
       interpolator_type="CentripetalCatmullRom"
       interpolator_beta="0.75"
       start_linecap_type="round"
       linejoin_type="spiro"
       miter_limit="4"
       scale_width="1"
       end_linecap_type="round" />
    <inkscape:path-effect
       effect="simplify"
       id="path-effect232"
       is_visible="true"
       lpeversion="1"
       steps="1"
       threshold="0.0028332064"
       smooth_angles="0"
       helper_size="0"
       simplify_individual_paths="false"
       simplify_just_coalesce="false"
       step="1" />
    <inkscape:path-effect
       effect="powerstroke"
       id="path-effect227"
       is_visible="true"
       lpeversion="1"
       offset_points="2.1868266,0.075169555"
       not_jump="true"
       sort_points="true"
       interpolator_type="CentripetalCatmullRom"
       interpolator_beta="0.75"
       start_linecap_type="round"
       linejoin_type="spiro"
       miter_limit="4"
       scale_width="1"
       end_linecap_type="round" />
    <inkscape:path-effect
       effect="simplify"
       id="path-effect225"
       is_visible="true"
       lpeversion="1"
       steps="1"
       threshold="0.0028332064"
       smooth_angles="0"
       helper_size="0"
       simplify_individual_paths="false"
       simplify_just_coalesce="false"
       step="1" />
    <inkscape:path-effect
       effect="powerstroke"
       id="path-effect166"
       is_visible="true"
       lpeversion="1"
       offset_points="1.9637935,0.075169555"
       not_jump="true"
       sort_points="true"
       interpolator_type="CentripetalCatmullRom"
       interpolator_beta="0.75"
       start_linecap_type="round"
       linejoin_type="spiro"
       miter_limit="4"
       scale_width="1"
       end_linecap_type="round" />
    <inkscape:path-effect
       effect="simplify"
       id="path-effect164"
       is_visible="true"
       lpeversion="1"
       steps="1"
       threshold="0.0028332064"
       smooth_angles="0"
       helper_size="0"
       simplify_individual_paths="false"
       simplify_just_coalesce="false"
       step="1" />
    <inkscape:path-effect
       effect="powerstroke"
       id="path-effect159"
       is_visible="true"
       lpeversion="1"
       offset_points="2.2611036,0.075169555"
       not_jump="true"
       sort_points="true"
       interpolator_type="CentripetalCatmullRom"
       interpolator_beta="0.75"
       start_linecap_type="round"
       linejoin_type="spiro"
       miter_limit="4"
       scale_width="1"
       end_linecap_type="round" />
    <inkscape:path-effect
       effect="simplify"
       id="path-effect157"
       is_visible="true"
       lpeversion="1"
       steps="1"
       threshold="0.0028332064"
       smooth_angles="0"
       helper_size="0"
       simplify_individual_paths="false"
       simplify_just_coalesce="false"
       step="1" />
    <inkscape:path-effect
       effect="powerstroke"
       id="path-effect152"
       is_visible="true"
       lpeversion="1"
       offset_points="2.826981,0.075169555"
       not_jump="true"
       sort_points="true"
       interpolator_type="CentripetalCatmullRom"
       interpolator_beta="0.75"
       start_linecap_type="round"
       linejoin_type="spiro"
       miter_limit="4"
       scale_width="1"
       end_linecap_type="round" />
    <inkscape:path-effect
       effect="simplify"
       id="path-effect150"
       is_visible="true"
       lpeversion="1"
       steps="1"
       threshold="0.0028332064"
       smooth_angles="0"
       helper_size="0"
       simplify_individual_paths="false"
       simplify_just_coalesce="false"
       step="1" />
    <inkscape:path-effect
       effect="powerstroke"
       id="path-effect145"
       is_visible="true"
       lpeversion="1"
       offset_points="3.8374447,0.075169555"
       not_jump="true"
       sort_points="true"
       interpolator_type="CentripetalCatmullRom"
       interpolator_beta="0.75"
       start_linecap_type="round"
       linejoin_type="spiro"
       miter_limit="4"
       scale_width="1"
       end_linecap_type="round" />
    <inkscape:path-effect
       effect="simplify"
       id="path-effect143"
       is_visible="true"
       lpeversion="1"
       steps="1"
       threshold="0.0028332064"
       smooth_angles="0"
       helper_size="0"
       simplify_individual_paths="false"
       simplify_just_coalesce="false"
       step="1" />
    <inkscape:path-effect
       effect="powerstroke"
       id="path-effect138"
       is_visible="true"
       lpeversion="1"
       offset_points="2.6880907,0.075169555"
       not_jump="true"
       sort_points="true"
       interpolator_type="CentripetalCatmullRom"
       interpolator_beta="0.75"
       start_linecap_type="round"
       linejoin_type="spiro"
       miter_limit="4"
       scale_width="1"
       end_linecap_type="round" />
    <inkscape:path-effect
       effect="simplify"
       id="path-effect136"
       is_visible="true"
       lpeversion="1"
       steps="1"
       threshold="0.0028332064"
       smooth_angles="0"
       helper_size="0"
       simplify_individual_paths="false"
       simplify_just_coalesce="false"
       step="1" />
    <inkscape:path-effect
       effect="powerstroke"
       id="path-effect131"
       is_visible="true"
       lpeversion="1"
       offset_points="1.9940581,0.075169555"
       not_jump="true"
       sort_points="true"
       interpolator_type="CentripetalCatmullRom"
       interpolator_beta="0.75"
       start_linecap_type="round"
       linejoin_type="spiro"
       miter_limit="4"
       scale_width="1"
       end_linecap_type="round" />
    <inkscape:path-effect
       effect="simplify"
       id="path-effect129"
       is_visible="true"
       lpeversion="1"
       steps="1"
       threshold="0.0028332064"
       smooth_angles="0"
       helper_size="0"
       simplify_individual_paths="false"
       simplify_just_coalesce="false"
       step="1" />
  </defs>
  <sodipodi:namedview
     id="base"
     pagecolor="#ffffff"
     bordercolor="#666666"
     borderopacity="1.0"
     inkscape:pageopacity="0.0"
     inkscape:pageshadow="2"
     inkscape:zoom="7.919596"
     inkscape:cx="-5.3033008"
     inkscape:cy="20.960665"
     inkscape:document-units="mm"
     inkscape:current-layer="layer1"
     showgrid="false"
     fit-margin-top="0"
     fit-margin-left="0"
     fit-margin-right="0"
     fit-margin-bottom="0"
     inkscape:window-width="1920"
     inkscape:window-height="974"
     inkscape:window-x="-11"
     inkscape:window-y="2869"
     inkscape:window-maximized="1"
     showguides="true"
     inkscape:guide-bbox="true"
     inkscape:snap-bbox="true"
     inkscape:bbox-nodes="true"
     inkscape:snap-nodes="false"
     inkscape:snap-others="false"
     inkscape:snap-page="true"
     inkscape:snap-grids="false"
     inkscape:snap-to-guides="false"
     inkscape:snap-global="false"
     inkscape:pagecheckerboard="0"
     inkscape:showpageshadow="2"
     inkscape:deskcolor="#d1d1d1">
    <sodipodi:guide
       position="-6.1806076,9.4988693"
       orientation="0,1"
       id="guide816"
       inkscape:locked="false" />
    <sodipodi:guide
       position="-4.4101636,10.646923"
       orientation="0,1"
       id="guide818"
       inkscape:locked="false" />
    <sodipodi:guide
       position="2.7595724,11.09577"
       orientation="1,0"
       id="guide820"
       inkscape:locked="false" />
    <sodipodi:guide
       position="3.6572659,10.942217"
       orientation="1,0"
       id="guide822"
       inkscape:locked="false" />
    <sodipodi:guide
       position="-0.051625511,9.74923"
       orientation="1,0"
       id="guide1853"
       inkscape:locked="false" />
    <sodipodi:guide
       position="-2.3720169,3.0175835"
       orientation="0,1"
       id="guide1855"
       inkscape:locked="false" />
  </sodipodi:namedview>
  <metadata
     id="metadata1678">
    <rdf:RDF>
      <cc:Work
         rdf:about="">
        <dc:format>image/svg+xml</dc:format>
        <dc:type
           rdf:resource="http://purl.org/dc/dcmitype/StillImage" />
      </cc:Work>
    </rdf:RDF>
  </metadata>
  <g
     inkscape:label="Layer 1"
     inkscape:groupmode="layer"
     id="layer1"
     transform="translate(17.028496,-147.22856)">
    <path
       d="m -15.389428,153.30574 c -0.0525,-0.001 -0.117977,0.0103 -0.184592,0.049 -0.04958,0.0288 -0.09865,0.0724 -0.134762,0.13165 -0.01401,0.0222 -0.02406,0.0479 -0.0294,0.0751 -0.005,0.0256 -0.0059,0.0524 -0.0023,0.0792 0.0066,0.0496 0.02882,0.10156 0.06996,0.14101 0.02274,0.0233 0.05325,0.0393 0.08591,0.0463 0.0311,0.007 0.0641,0.005 0.09522,-0.005 0.04222,-0.0109 0.08167,-0.0335 0.115001,-0.0618 0.03288,-0.0279 0.06009,-0.0614 0.08154,-0.0962 0.0064,-0.0103 0.01265,-0.0213 0.01847,-0.0327 0.0062,-0.0122 0.01212,-0.0256 0.01708,-0.0397 0.0092,-0.0264 0.0155,-0.0567 0.01365,-0.0899 -7.18e-4,-0.0359 -0.01104,-0.0754 -0.0313,-0.11034 -0.0099,-0.0171 -0.02238,-0.0334 -0.03756,-0.0478 -0.01496,-0.0142 -0.03256,-0.0266 -0.05278,-0.0359 -0.02537,-0.008 -0.04261,-0.01 -0.0593,-0.009 -0.01634,9.3e-4 -0.03178,0.004 -0.04596,0.009 -0.02748,0.01 -0.05153,0.0254 -0.07082,0.0419 -0.02872,0.0249 -0.05888,0.0526 -0.08685,0.0838 -0.03439,0.0393 -0.06745,0.0837 -0.09414,0.13288 -0.02633,0.0485 -0.04688,0.10231 -0.05591,0.16115 -0.0029,0.0144 -0.0029,0.0311 -3.16e-4,0.0471 0.0026,0.0158 0.0077,0.0308 0.01469,0.0445 0.01378,0.0269 0.03577,0.0503 0.06364,0.0655 0.02316,0.0143 0.05187,0.0217 0.07854,0.0236 0.02616,0.002 0.05141,-0.002 0.07374,-0.007 0.06782,-0.016 0.129289,-0.0541 0.176172,-0.10475 0.04502,-0.0486 0.07801,-0.11045 0.09033,-0.17847 0.0035,-0.0114 0.0055,-0.0229 0.0061,-0.0343 7.3e-4,-0.0135 -5.02e-4,-0.0261 -0.0028,-0.0376 -0.0044,-0.0222 -0.01314,-0.0413 -0.01977,-0.0548 -0.007,-0.0142 -0.01292,-0.0252 -0.01617,-0.0328 -0.0017,-0.004 -0.0026,-0.007 -0.0031,-0.009 -1.17e-4,0.004 4.04e-4,7.1e-4 0.0015,-0.006 9.07e-4,-0.005 0.0024,-0.0135 0.0034,-0.0217 0.0011,-0.009 0.002,-0.0192 0.0015,-0.031 -4.72e-4,-0.012 -0.0024,-0.0255 -0.0072,-0.0396 -0.002,-0.006 -0.0042,-0.0116 -0.0075,-0.0168 -0.0033,-0.005 -0.0077,-0.01 -0.01218,-0.0138 -0.0084,-0.008 -0.01895,-0.0152 -0.03159,-0.0201 -0.01274,-0.005 -0.0256,-0.007 -0.03766,-0.006 -0.02282,0.001 -0.04026,0.0103 -0.0497,0.0161 -0.0099,0.006 -0.01808,0.013 -0.02245,0.0167 -0.004,0.003 -0.0083,0.007 -0.0122,0.0102 -0.04271,0.0384 -0.08559,0.0833 -0.122487,0.13469 -0.03539,0.0493 -0.0662,0.10591 -0.08554,0.16981 -0.0061,0.0177 -0.0093,0.0384 -0.0095,0.0587 -1.32e-4,0.0199 0.0027,0.0394 0.0077,0.0578 0.0098,0.0357 0.02831,0.069 0.05237,0.0961 0.01833,0.0203 0.04265,0.0412 0.0726,0.0555 0.01497,0.007 0.03209,0.013 0.05097,0.0157 0.01886,0.003 0.03911,0.002 0.05986,-0.003 0.01878,-0.005 0.03524,-0.0119 0.0499,-0.0205 0.01444,-0.009 0.02702,-0.0184 0.03795,-0.0284 0.02116,-0.0194 0.03805,-0.0413 0.0508,-0.0585 0.04035,-0.0559 0.06555,-0.11772 0.08386,-0.17649 0.02066,-0.0687 0.02865,-0.14078 0.02322,-0.21244 -0.0035,-0.0263 -0.01092,-0.0461 -0.02107,-0.0634 -0.01013,-0.0172 -0.02337,-0.0326 -0.03889,-0.0451 -0.0155,-0.0125 -0.0339,-0.0228 -0.05452,-0.0289 -0.02076,-0.006 -0.0437,-0.008 -0.06729,-0.004 -0.02403,0.005 -0.04369,0.014 -0.06005,0.026 -0.01594,0.0117 -0.02804,0.0252 -0.03723,0.0375 -0.0091,0.0122 -0.01644,0.0246 -0.02209,0.0348 -0.0058,0.0104 -0.01048,0.0195 -0.01419,0.0261 -0.01151,0.0226 -0.02015,0.0419 -0.03005,0.0615 -0.0089,0.0176 -0.01705,0.0317 -0.02609,0.0436 -0.0021,0.003 -0.004,0.006 -0.0057,0.009 -0.01603,0.0281 -0.03148,0.0607 -0.04135,0.0962 -0.01002,0.0361 -0.01463,0.0766 -0.0072,0.11891 0.0033,0.0216 0.01126,0.0432 0.02226,0.0623 0.01105,0.0192 0.02518,0.036 0.04127,0.0499 0.03231,0.028 0.07406,0.0458 0.118628,0.0479 0.01935,0.002 0.04226,3e-4 0.0641,-0.004 0.02206,-0.005 0.0436,-0.0126 0.0635,-0.0237 0.02013,-0.0112 0.03898,-0.0258 0.05499,-0.0438 0.01627,-0.0183 0.02947,-0.0401 0.03787,-0.065 0.01693,-0.0582 0.01565,-0.11762 -0.0033,-0.17061 -0.0042,-0.016 -0.01494,-0.0345 -0.02805,-0.0495 -0.01333,-0.0152 -0.02975,-0.0275 -0.04796,-0.0358 -0.01862,-0.009 -0.03995,-0.0134 -0.06239,-0.0123 -0.02128,0.001 -0.04232,0.007 -0.06128,0.0191 -0.03637,0.0187 -0.06496,0.0442 -0.08762,0.0708 -0.02465,0.0289 -0.04331,0.0604 -0.05744,0.089 -0.0088,0.013 -0.01435,0.0353 -0.01407,0.0565 2.8e-4,0.0216 0.0065,0.0416 0.01624,0.0583 0.01016,0.0174 0.02474,0.0324 0.04263,0.0428 0.01913,0.0112 0.04136,0.0169 0.06445,0.0156 0.02071,0.001 0.04448,-0.006 0.06062,-0.0141 a 0.07677585,0.07677585 90 0 0 -0.06597,-0.13866 c 1.1e-4,-5e-5 0.0017,-9.1e-4 0.0049,-8.1e-4 -1.66e-4,-4e-4 0.0074,0.002 0.0137,0.005 0.0057,0.003 0.0099,0.008 0.01268,0.0125 0.0026,0.005 0.0046,0.0103 0.0047,0.0172 1.01e-4,0.007 -0.0018,0.0145 -0.006,0.0212 0.01461,-0.0284 0.02677,-0.0481 0.04082,-0.0645 0.01323,-0.0154 0.02744,-0.0271 0.04279,-0.0345 0.0034,-0.002 0.0068,-0.004 0.0099,-0.006 -0.0038,0.003 -0.0088,0.004 -0.01377,0.005 -0.0045,2.4e-4 -0.0078,-7.6e-4 -0.0096,-0.002 -0.0049,-0.004 -0.0062,-0.006 -0.007,-0.009 0.0092,0.0265 0.01013,0.0525 0.0028,0.0774 -3.23e-4,6.6e-4 -0.0026,0.005 -0.006,0.008 -0.0034,0.004 -0.0082,0.008 -0.01421,0.011 -0.006,0.003 -0.01292,0.006 -0.02027,0.007 -0.0073,0.002 -0.01446,0.002 -0.02096,0.001 -0.01131,-6.5e-4 -0.02009,-0.004 -0.02737,-0.0104 -0.0035,-0.003 -0.0062,-0.006 -0.0081,-0.01 -0.0019,-0.003 -0.003,-0.007 -0.0035,-0.01 -0.0028,-0.0161 -0.0017,-0.0326 0.0037,-0.0518 0.005,-0.018 0.01343,-0.0369 0.02431,-0.0565 0.01567,-0.0213 0.02782,-0.0432 0.03793,-0.0631 0.0096,-0.019 0.01898,-0.0396 0.02862,-0.0586 0.0041,-0.007 0.0087,-0.0161 0.01288,-0.0236 0.0043,-0.008 0.0077,-0.0132 0.01069,-0.0171 0.0028,-0.004 0.0045,-0.005 0.0043,-0.005 -2.17e-4,1.6e-4 -0.0027,0.001 -0.0041,0.002 -0.0032,5.8e-4 -0.0049,2.9e-4 -0.0058,6e-5 0.0066,0.0512 8e-4,0.10395 -0.01408,0.15356 -0.01548,0.0498 -0.03445,0.0939 -0.0604,0.12998 -0.01121,0.0152 -0.02069,0.0269 -0.03014,0.0356 -0.0045,0.004 -0.0084,0.007 -0.01164,0.009 -0.0032,0.002 -0.0058,0.003 -0.0081,0.004 -7.99e-4,-2.5e-4 -0.0028,-7e-4 -0.006,-0.002 -0.007,-0.003 -0.01556,-0.01 -0.02367,-0.0186 -0.0085,-0.01 -0.01518,-0.0217 -0.01848,-0.0334 -0.0016,-0.006 -0.0023,-0.0111 -0.0024,-0.0157 -1.4e-5,-0.005 6.55e-4,-0.009 0.0018,-0.0121 0.01417,-0.0471 0.03612,-0.0887 0.06361,-0.12726 0.02872,-0.0403 0.06333,-0.0772 0.09993,-0.11035 -0.0016,0.002 0.0018,-0.001 0.004,-0.003 0.0015,-0.001 0.0031,-0.003 0.0042,-0.004 0.005,-0.005 0.0057,-0.005 0.0043,-0.004 -0.002,0.001 -0.0086,0.006 -0.02325,0.006 -0.0076,3.6e-4 -0.01609,-7.4e-4 -0.02449,-0.004 -0.0083,-0.003 -0.01451,-0.008 -0.01875,-0.0118 -0.0044,-0.004 -0.0089,-0.009 -0.01235,-0.0137 -0.0034,-0.005 -0.0056,-0.011 -0.0073,-0.0169 -6.5e-4,-0.002 -4.98e-4,-0.003 -4.22e-4,-0.003 1.33e-4,6e-4 2.03e-4,0.003 -1.54e-4,0.007 -3.9e-4,0.004 -0.001,0.009 -0.0021,0.016 -9.05e-4,0.006 -0.0021,0.0154 -0.0027,0.0248 6.72e-4,0.0224 0.0031,0.0343 0.0061,0.0448 0.003,0.0105 0.0068,0.0199 0.01048,0.028 0.0063,0.0139 0.01603,0.0315 0.01973,0.0387 0.0054,0.0105 0.007,0.0152 0.0078,0.018 2.86e-4,0.001 5.17e-4,0.002 4.29e-4,0.003 -8.8e-5,0.001 -4.65e-4,0.002 -9.33e-4,0.003 -4.68e-4,0.001 -0.001,0.002 -0.0014,0.003 -3.94e-4,0.001 -6.13e-4,0.002 -7.8e-4,0.003 -0.006,0.0396 -0.02499,0.0781 -0.05332,0.10929 -0.02856,0.0315 -0.06501,0.0539 -0.103724,0.0635 -0.01238,0.003 -0.02246,0.005 -0.03078,0.005 -0.0082,-1.8e-4 -0.01335,-0.002 -0.01744,-0.004 -0.0054,-0.003 -0.0082,-0.005 -0.01008,-0.008 0.0039,-0.0474 0.01783,-0.0866 0.03776,-0.12449 0.02031,-0.0386 0.04657,-0.0752 0.07573,-0.10937 0.02167,-0.0259 0.04637,-0.0503 0.07214,-0.0741 0.0095,-0.009 0.01963,-0.0152 0.02842,-0.0187 0.0043,-0.002 0.0079,-0.003 0.01065,-0.003 0.0027,-3.1e-4 0.005,-1.8e-4 0.0071,3.2e-4 -0.0014,-1e-4 0.005,0.004 0.01074,0.009 0.0059,0.005 0.01127,0.012 0.01584,0.0195 0.0095,0.0158 0.01488,0.0345 0.01555,0.0526 0.0011,0.0154 -0.001,0.0295 -0.0061,0.0446 -0.0027,0.008 -0.0062,0.0164 -0.01036,0.0248 -0.0039,0.008 -0.0083,0.0158 -0.01312,0.0238 -0.01565,0.0257 -0.03474,0.049 -0.05631,0.0674 -0.02172,0.0186 -0.04512,0.0314 -0.06963,0.0378 -0.01439,0.004 -0.02631,0.005 -0.03678,0.003 -0.01076,-0.002 -0.01928,-0.007 -0.02593,-0.0139 -0.01997,-0.0192 -0.03157,-0.0446 -0.035,-0.071 -0.0018,-0.0139 -0.0013,-0.0274 0.0012,-0.0398 0.0026,-0.0131 0.0073,-0.0247 0.01359,-0.0346 0.02495,-0.0408 0.05885,-0.0708 0.09269,-0.0903 0.04529,-0.0262 0.08818,-0.0331 0.120565,-0.0324 a 0.06104087,0.06104087 90 0 0 0.0028,-0.12204 z"
       id="path-1"
       inkscape:path-effect="#path-effect153;#path-effect155"
       inkscape:original-d="m -15.390848,153.36676 c -0.112024,-0.003 -0.221457,0.0674 -0.273795,0.16483 -0.04425,0.0872 -0.0012,0.22047 0.101269,0.23989 0.112664,0.005 0.202914,-0.0901 0.244063,-0.1872 0.03312,-0.0772 0.0074,-0.18073 -0.07205,-0.21759 -0.06993,-0.0187 -0.121007,0.0472 -0.166006,0.0893 -0.07428,0.0801 -0.139405,0.17833 -0.153927,0.28848 -0.0054,0.0643 0.06004,0.10253 0.117652,0.0937 0.119535,-0.0138 0.222441,-0.118 0.240566,-0.2362 0.01687,-0.0548 -0.02873,-0.0918 -0.04009,-0.14077 0.0027,-0.038 0.02706,-0.12532 -0.03822,-0.0712 -0.08887,0.0783 -0.168306,0.17679 -0.198188,0.29343 -0.01098,0.0698 0.03797,0.14427 0.104132,0.16572 0.06758,0.0178 0.1158,-0.0477 0.149159,-0.0961 0.05258,-0.0894 0.08481,-0.19472 0.07939,-0.29896 0.0049,-0.0682 -0.07513,-0.1208 -0.12807,-0.0685 -0.04505,0.0527 -0.06154,0.12425 -0.103739,0.17957 -0.03799,0.0651 -0.06709,0.15895 -0.01033,0.22216 0.06829,0.0708 0.21101,0.0349 0.227438,-0.0657 0.01019,-0.0533 1.22e-4,-0.153 -0.07232,-0.14785 -0.06385,0.0191 -0.109322,0.0781 -0.137604,0.13582 -0.0226,0.0484 0.02532,0.0758 0.06782,0.0556"
       style="fill:#000000;fill-rule:nonzero;stroke:none;stroke-width:0.615949" />
  </g>
</svg>
