<?xml version="1.0" encoding="UTF-8" standalone="no"?>
<!-- Created with Inkscape (http://www.inkscape.org/) -->

<svg
   width="3mm"
   height="10mm"
   viewBox="0 0 3.0000001 9.9999994"
   version="1.1"
   id="svg1681"
   inkscape:version="1.2.1 (9c6d41e410, 2022-07-14)"
   sodipodi:docname="lower_d_15.svg"
   inkscape:export-filename="..\..\..\..\Downloads\lower a diff canvas resize 3.0.png"
   inkscape:export-xdpi="96"
   inkscape:export-ydpi="96"
   xmlns:inkscape="http://www.inkscape.org/namespaces/inkscape"
   xmlns:sodipodi="http://sodipodi.sourceforge.net/DTD/sodipodi-0.dtd"
   xmlns="http://www.w3.org/2000/svg"
   xmlns:svg="http://www.w3.org/2000/svg"
   xmlns:rdf="http://www.w3.org/1999/02/22-rdf-syntax-ns#"
   xmlns:cc="http://creativecommons.org/ns#"
   xmlns:dc="http://purl.org/dc/elements/1.1/">
  <defs
     id="defs1675">
    <inkscape:path-effect
       effect="powerstroke"
       id="path-effect268"
       is_visible="true"
       lpeversion="1"
       offset_points="1.2987426,0.10571752 | 5.2216749,0.09135655 | 9.3842452,0.14516694"
       not_jump="true"
       sort_points="true"
       interpolator_type="CentripetalCatmullRom"
       interpolator_beta="0.75"
       start_linecap_type="round"
       linejoin_type="spiro"
       miter_limit="4"
       scale_width="1"
       end_linecap_type="round" />
    <inkscape:path-effect
       effect="simplify"
       id="path-effect266"
       is_visible="true"
       lpeversion="1"
       steps="1"
       threshold="0.0047745358"
       smooth_angles="0"
       helper_size="0"
       simplify_individual_paths="false"
       simplify_just_coalesce="false"
       step="1" />
    <inkscape:path-effect
       effect="powerstroke"
       id="path-effect212"
       is_visible="true"
       lpeversion="1"
       offset_points="3.4130475,0.14132323 | 5.4926991,0.087401901 | 10.081687,0.16123537"
       not_jump="true"
       sort_points="true"
       interpolator_type="CentripetalCatmullRom"
       interpolator_beta="0.75"
       start_linecap_type="round"
       linejoin_type="spiro"
       miter_limit="4"
       scale_width="1"
       end_linecap_type="round" />
    <inkscape:path-effect
       effect="simplify"
       id="path-effect210"
       is_visible="true"
       lpeversion="1"
       steps="1"
       threshold="0.0035951417"
       smooth_angles="0"
       helper_size="0"
       simplify_individual_paths="false"
       simplify_just_coalesce="false"
       step="1" />
    <inkscape:path-effect
       effect="powerstroke"
       id="path-effect2924"
       is_visible="true"
       lpeversion="1"
       offset_points="2.0968626,0.14316841 | 4.5733622,0.18306782 | 6.0831468,0.13941318 | 8.4929655,0.17884318"
       not_jump="true"
       sort_points="true"
       interpolator_type="CentripetalCatmullRom"
       interpolator_beta="0.75"
       start_linecap_type="round"
       linejoin_type="spiro"
       miter_limit="4"
       scale_width="1"
       end_linecap_type="round" />
    <inkscape:path-effect
       effect="simplify"
       id="path-effect2922"
       is_visible="true"
       lpeversion="1"
       steps="1"
       threshold="0.0035951417"
       smooth_angles="0"
       helper_size="0"
       simplify_individual_paths="false"
       simplify_just_coalesce="false"
       step="1" />
    <inkscape:path-effect
       effect="powerstroke"
       id="path-effect2917"
       is_visible="true"
       lpeversion="1"
       offset_points="5.1165955,0.077959048 | 7.3846829,0.097779145 | 8.1043412,0.081482621 | 12.581367,0.11011165"
       not_jump="true"
       sort_points="true"
       interpolator_type="CentripetalCatmullRom"
       interpolator_beta="0.75"
       start_linecap_type="round"
       linejoin_type="spiro"
       miter_limit="4"
       scale_width="1"
       end_linecap_type="round" />
    <inkscape:path-effect
       effect="simplify"
       id="path-effect2915"
       is_visible="true"
       lpeversion="1"
       steps="1"
       threshold="0.0035951417"
       smooth_angles="0"
       helper_size="0"
       simplify_individual_paths="false"
       simplify_just_coalesce="false"
       step="1" />
    <inkscape:path-effect
       effect="powerstroke"
       id="path-effect2910"
       is_visible="true"
       lpeversion="1"
       offset_points="2.676822,0.075756815 | 4.6921753,0.091466078 | 6.2204739,0.066947883 | 9.0860519,0.1030645"
       not_jump="true"
       sort_points="true"
       interpolator_type="CentripetalCatmullRom"
       interpolator_beta="0.75"
       start_linecap_type="round"
       linejoin_type="spiro"
       miter_limit="4"
       scale_width="1"
       end_linecap_type="round" />
    <inkscape:path-effect
       effect="simplify"
       id="path-effect2908"
       is_visible="true"
       lpeversion="1"
       steps="1"
       threshold="0.0035951417"
       smooth_angles="0"
       helper_size="0"
       simplify_individual_paths="false"
       simplify_just_coalesce="false"
       step="1" />
    <inkscape:path-effect
       effect="powerstroke"
       id="path-effect2903"
       is_visible="true"
       lpeversion="1"
       offset_points="5.9252334,0.10511992 | 8.1100912,0.084125301 | 8.9201742,0.09498965"
       not_jump="true"
       sort_points="true"
       interpolator_type="CentripetalCatmullRom"
       interpolator_beta="0.75"
       start_linecap_type="round"
       linejoin_type="spiro"
       miter_limit="4"
       scale_width="1"
       end_linecap_type="round" />
    <inkscape:path-effect
       effect="simplify"
       id="path-effect2901"
       is_visible="true"
       lpeversion="1"
       steps="1"
       threshold="0.0035951417"
       smooth_angles="0"
       helper_size="0"
       simplify_individual_paths="false"
       simplify_just_coalesce="false"
       step="1" />
    <inkscape:path-effect
       effect="powerstroke"
       id="path-effect502"
       is_visible="true"
       lpeversion="1"
       offset_points="3.0091841,0.21607495 | 7.3602657,0.17554228 | 9.4159651,0.20236537"
       not_jump="true"
       sort_points="true"
       interpolator_type="CentripetalCatmullRom"
       interpolator_beta="0.75"
       start_linecap_type="round"
       linejoin_type="spiro"
       miter_limit="4"
       scale_width="1"
       end_linecap_type="round" />
    <inkscape:path-effect
       effect="simplify"
       id="path-effect500"
       is_visible="true"
       lpeversion="1"
       steps="1"
       threshold="0.0035951417"
       smooth_angles="0"
       helper_size="0"
       simplify_individual_paths="false"
       simplify_just_coalesce="false"
       step="1" />
    <inkscape:path-effect
       effect="powerstroke"
       id="path-effect241"
       is_visible="true"
       lpeversion="1"
       offset_points="2.6879454,0.34086734"
       not_jump="true"
       sort_points="true"
       interpolator_type="CentripetalCatmullRom"
       interpolator_beta="0.75"
       start_linecap_type="round"
       linejoin_type="spiro"
       miter_limit="4"
       scale_width="1"
       end_linecap_type="round" />
    <inkscape:path-effect
       effect="simplify"
       id="path-effect239"
       is_visible="true"
       lpeversion="1"
       steps="1"
       threshold="0.0028332064"
       smooth_angles="0"
       helper_size="0"
       simplify_individual_paths="false"
       simplify_just_coalesce="false"
       step="1" />
    <inkscape:path-effect
       effect="powerstroke"
       id="path-effect234"
       is_visible="true"
       lpeversion="1"
       offset_points="2.13563,0.075169555"
       not_jump="true"
       sort_points="true"
       interpolator_type="CentripetalCatmullRom"
       interpolator_beta="0.75"
       start_linecap_type="round"
       linejoin_type="spiro"
       miter_limit="4"
       scale_width="1"
       end_linecap_type="round" />
    <inkscape:path-effect
       effect="simplify"
       id="path-effect232"
       is_visible="true"
       lpeversion="1"
       steps="1"
       threshold="0.0028332064"
       smooth_angles="0"
       helper_size="0"
       simplify_individual_paths="false"
       simplify_just_coalesce="false"
       step="1" />
    <inkscape:path-effect
       effect="powerstroke"
       id="path-effect227"
       is_visible="true"
       lpeversion="1"
       offset_points="2.1868266,0.075169555"
       not_jump="true"
       sort_points="true"
       interpolator_type="CentripetalCatmullRom"
       interpolator_beta="0.75"
       start_linecap_type="round"
       linejoin_type="spiro"
       miter_limit="4"
       scale_width="1"
       end_linecap_type="round" />
    <inkscape:path-effect
       effect="simplify"
       id="path-effect225"
       is_visible="true"
       lpeversion="1"
       steps="1"
       threshold="0.0028332064"
       smooth_angles="0"
       helper_size="0"
       simplify_individual_paths="false"
       simplify_just_coalesce="false"
       step="1" />
    <inkscape:path-effect
       effect="powerstroke"
       id="path-effect166"
       is_visible="true"
       lpeversion="1"
       offset_points="1.9637935,0.075169555"
       not_jump="true"
       sort_points="true"
       interpolator_type="CentripetalCatmullRom"
       interpolator_beta="0.75"
       start_linecap_type="round"
       linejoin_type="spiro"
       miter_limit="4"
       scale_width="1"
       end_linecap_type="round" />
    <inkscape:path-effect
       effect="simplify"
       id="path-effect164"
       is_visible="true"
       lpeversion="1"
       steps="1"
       threshold="0.0028332064"
       smooth_angles="0"
       helper_size="0"
       simplify_individual_paths="false"
       simplify_just_coalesce="false"
       step="1" />
    <inkscape:path-effect
       effect="powerstroke"
       id="path-effect159"
       is_visible="true"
       lpeversion="1"
       offset_points="2.2611036,0.075169555"
       not_jump="true"
       sort_points="true"
       interpolator_type="CentripetalCatmullRom"
       interpolator_beta="0.75"
       start_linecap_type="round"
       linejoin_type="spiro"
       miter_limit="4"
       scale_width="1"
       end_linecap_type="round" />
    <inkscape:path-effect
       effect="simplify"
       id="path-effect157"
       is_visible="true"
       lpeversion="1"
       steps="1"
       threshold="0.0028332064"
       smooth_angles="0"
       helper_size="0"
       simplify_individual_paths="false"
       simplify_just_coalesce="false"
       step="1" />
    <inkscape:path-effect
       effect="powerstroke"
       id="path-effect152"
       is_visible="true"
       lpeversion="1"
       offset_points="2.826981,0.075169555"
       not_jump="true"
       sort_points="true"
       interpolator_type="CentripetalCatmullRom"
       interpolator_beta="0.75"
       start_linecap_type="round"
       linejoin_type="spiro"
       miter_limit="4"
       scale_width="1"
       end_linecap_type="round" />
    <inkscape:path-effect
       effect="simplify"
       id="path-effect150"
       is_visible="true"
       lpeversion="1"
       steps="1"
       threshold="0.0028332064"
       smooth_angles="0"
       helper_size="0"
       simplify_individual_paths="false"
       simplify_just_coalesce="false"
       step="1" />
    <inkscape:path-effect
       effect="powerstroke"
       id="path-effect145"
       is_visible="true"
       lpeversion="1"
       offset_points="3.8374447,0.075169555"
       not_jump="true"
       sort_points="true"
       interpolator_type="CentripetalCatmullRom"
       interpolator_beta="0.75"
       start_linecap_type="round"
       linejoin_type="spiro"
       miter_limit="4"
       scale_width="1"
       end_linecap_type="round" />
    <inkscape:path-effect
       effect="simplify"
       id="path-effect143"
       is_visible="true"
       lpeversion="1"
       steps="1"
       threshold="0.0028332064"
       smooth_angles="0"
       helper_size="0"
       simplify_individual_paths="false"
       simplify_just_coalesce="false"
       step="1" />
    <inkscape:path-effect
       effect="powerstroke"
       id="path-effect138"
       is_visible="true"
       lpeversion="1"
       offset_points="2.6880907,0.075169555"
       not_jump="true"
       sort_points="true"
       interpolator_type="CentripetalCatmullRom"
       interpolator_beta="0.75"
       start_linecap_type="round"
       linejoin_type="spiro"
       miter_limit="4"
       scale_width="1"
       end_linecap_type="round" />
    <inkscape:path-effect
       effect="simplify"
       id="path-effect136"
       is_visible="true"
       lpeversion="1"
       steps="1"
       threshold="0.0028332064"
       smooth_angles="0"
       helper_size="0"
       simplify_individual_paths="false"
       simplify_just_coalesce="false"
       step="1" />
    <inkscape:path-effect
       effect="powerstroke"
       id="path-effect131"
       is_visible="true"
       lpeversion="1"
       offset_points="1.9940581,0.075169555"
       not_jump="true"
       sort_points="true"
       interpolator_type="CentripetalCatmullRom"
       interpolator_beta="0.75"
       start_linecap_type="round"
       linejoin_type="spiro"
       miter_limit="4"
       scale_width="1"
       end_linecap_type="round" />
    <inkscape:path-effect
       effect="simplify"
       id="path-effect129"
       is_visible="true"
       lpeversion="1"
       steps="1"
       threshold="0.0028332064"
       smooth_angles="0"
       helper_size="0"
       simplify_individual_paths="false"
       simplify_just_coalesce="false"
       step="1" />
  </defs>
  <sodipodi:namedview
     id="base"
     pagecolor="#ffffff"
     bordercolor="#666666"
     borderopacity="1.0"
     inkscape:pageopacity="0.0"
     inkscape:pageshadow="2"
     inkscape:zoom="22.4"
     inkscape:cx="2.4553571"
     inkscape:cy="15.982143"
     inkscape:document-units="mm"
     inkscape:current-layer="layer1"
     showgrid="false"
     fit-margin-top="0"
     fit-margin-left="0"
     fit-margin-right="0"
     fit-margin-bottom="0"
     inkscape:window-width="1920"
     inkscape:window-height="1057"
     inkscape:window-x="1072"
     inkscape:window-y="321"
     inkscape:window-maximized="1"
     showguides="true"
     inkscape:guide-bbox="true"
     inkscape:snap-bbox="true"
     inkscape:bbox-nodes="true"
     inkscape:snap-nodes="false"
     inkscape:snap-others="false"
     inkscape:snap-page="true"
     inkscape:snap-grids="false"
     inkscape:snap-to-guides="false"
     inkscape:snap-global="false"
     inkscape:pagecheckerboard="0"
     inkscape:showpageshadow="2"
     inkscape:deskcolor="#d1d1d1">
    <sodipodi:guide
       position="-6.1806076,9.4988693"
       orientation="0,1"
       id="guide816"
       inkscape:locked="false" />
    <sodipodi:guide
       position="-4.4101636,10.646923"
       orientation="0,1"
       id="guide818"
       inkscape:locked="false" />
    <sodipodi:guide
       position="2.7595724,11.09577"
       orientation="1,0"
       id="guide820"
       inkscape:locked="false" />
    <sodipodi:guide
       position="3.6572659,10.942217"
       orientation="1,0"
       id="guide822"
       inkscape:locked="false" />
    <sodipodi:guide
       position="-0.051625511,9.74923"
       orientation="1,0"
       id="guide1853"
       inkscape:locked="false" />
    <sodipodi:guide
       position="-2.3720169,3.0175835"
       orientation="0,1"
       id="guide1855"
       inkscape:locked="false" />
  </sodipodi:namedview>
  <metadata
     id="metadata1678">
    <rdf:RDF>
      <cc:Work
         rdf:about="">
        <dc:format>image/svg+xml</dc:format>
        <dc:type
           rdf:resource="http://purl.org/dc/dcmitype/StillImage" />
      </cc:Work>
    </rdf:RDF>
  </metadata>
  <g
     inkscape:label="Layer 1"
     inkscape:groupmode="layer"
     id="layer1"
     transform="translate(17.028496,-147.22856)">
    <path
       d="m -14.953479,148.09428 c 0.03416,0.35399 0.06344,1.13515 0.08565,2.02044 0.0055,0.25233 0.0066,0.5065 0.0057,0.76767 -0.0015,0.46006 -0.01315,1.20986 0.0037,1.81218 0.02761,0.47954 0.05592,1.0324 0.01698,1.57325 -4.88e-4,0.0132 -7.29e-4,0.021 -9.38e-4,0.0275 -1.77e-4,0.006 -3.87e-4,0.0118 -4.36e-4,0.0137 3.08e-4,5.5e-4 6.28e-4,-0.001 0.001,-0.003 2.25e-4,-0.001 6.16e-4,-0.003 0.0012,-0.005 5.02e-4,-0.002 0.0016,-0.006 0.0036,-0.0111 0.001,-0.003 0.0027,-0.006 0.0051,-0.0109 0.0023,-0.004 0.0066,-0.0114 0.01377,-0.0191 0.0037,-0.004 0.0089,-0.009 0.01563,-0.0135 0.0068,-0.005 0.01577,-0.01 0.02681,-0.0128 0.01129,-0.003 0.02371,-0.005 0.03658,-0.003 0.01277,0.001 0.02399,0.005 0.0333,0.01 0.0091,0.005 0.01616,0.01 0.02133,0.0147 0.0052,0.005 0.009,0.009 0.01182,0.013 0.0054,0.007 0.0086,0.0137 0.01037,0.0175 0.0019,0.004 0.0031,0.008 0.0039,0.01 8.01e-4,0.002 0.0014,0.005 0.0018,0.006 7.59e-4,0.003 0.0012,0.006 0.0014,0.007 2.63e-4,0.004 7.1e-5,-1.8e-4 -1.02e-4,-0.005 -3.44e-4,-0.009 -6.18e-4,-0.0216 -8.44e-4,-0.036 -4.51e-4,-0.0287 -7.09e-4,-0.0644 -0.001,-0.0969 -1.62e-4,-0.0162 -3.39e-4,-0.0315 -5.66e-4,-0.0448 -2.24e-4,-0.0131 -5.01e-4,-0.0245 -8.89e-4,-0.0331 -0.0026,-0.71359 -0.04768,-1.41334 -0.23982,-2.08197 -0.01865,-0.058 -0.03937,-0.11468 -0.06386,-0.17053 -0.0032,-0.007 -0.0064,-0.0144 -0.0097,-0.0216 -0.02861,-0.0624 -0.06331,-0.12605 -0.105775,-0.18526 -0.04144,-0.0578 -0.09121,-0.1127 -0.151255,-0.15813 -0.05921,-0.0448 -0.128225,-0.0802 -0.208126,-0.0998 -0.0661,-0.0109 -0.121512,-0.007 -0.173823,0.006 -0.05139,0.0125 -0.09881,0.0334 -0.14206,0.0574 -0.0834,0.0464 -0.16169,0.11123 -0.221474,0.15628 -0.222221,0.20099 -0.375565,0.44376 -0.483975,0.6997 -0.111059,0.26219 -0.176274,0.54072 -0.215482,0.80277 -0.02913,0.22014 -0.03926,0.44545 -0.01038,0.66294 0.01522,0.11458 0.04111,0.22579 0.08002,0.33175 0.04095,0.11153 0.09571,0.21554 0.165675,0.31044 0.08007,0.10964 0.181356,0.19697 0.287142,0.25835 0.03407,0.0198 0.06956,0.0374 0.106215,0.0526 0.07959,0.033 0.164469,0.0542 0.251663,0.0602 0.08958,0.006 0.179744,-0.004 0.267196,-0.0321 0.0081,-0.003 0.01604,-0.006 0.02361,-0.01 0.161162,-0.0851 0.295428,-0.20682 0.393635,-0.2975 0.170701,-0.1576 0.232667,-0.21639 0.33147,-0.28307 a 0.14516694,0.14516694 90 0 0 -0.162412,-0.24066 c -0.120871,0.0816 -0.197459,0.15314 -0.367116,0.30804 -0.09692,0.0885 -0.202721,0.18175 -0.321343,0.24685 -0.04682,0.0136 -0.09556,0.0187 -0.145532,0.0155 -0.0531,-0.003 -0.107351,-0.016 -0.160831,-0.0374 -0.02459,-0.01 -0.04881,-0.0214 -0.07245,-0.0347 -0.07395,-0.0414 -0.146387,-0.10102 -0.204454,-0.17607 -0.05449,-0.0712 -0.09875,-0.15065 -0.133248,-0.23868 -0.03287,-0.0839 -0.05656,-0.17476 -0.07182,-0.27218 -0.02914,-0.18609 -0.02607,-0.38672 -0.0043,-0.59173 0.03181,-0.24634 0.08755,-0.50462 0.183521,-0.7445 0.09345,-0.23358 0.224597,-0.44869 0.408777,-0.62196 0.06103,-0.0523 0.117732,-0.10526 0.181343,-0.14539 0.03056,-0.0193 0.05976,-0.0335 0.08827,-0.0422 0.02833,-0.009 0.05659,-0.0119 0.08594,-0.009 0.04376,0.01 0.08975,0.0312 0.131109,0.0608 0.04242,0.0304 0.08032,0.0695 0.114193,0.1148 0.0347,0.0464 0.06454,0.0986 0.0902,0.15273 0.0029,0.006 0.0058,0.0125 0.0087,0.0187 0.02203,0.0486 0.04106,0.0991 0.05767,0.1494 0.185884,0.64099 0.230095,1.3216 0.230346,2.03165 6.3e-5,0.009 4.6e-5,0.0176 -6.2e-5,0.0311 -1.01e-4,0.0127 -2.66e-4,0.0276 -4.66e-4,0.0437 -2.54e-4,0.0203 -0.0011,0.077 -0.0013,0.0973 -1.95e-4,0.0144 -3.72e-4,0.0282 -4.58e-4,0.0383 -4.2e-5,0.005 -7.2e-5,0.0101 -5.1e-5,0.0141 10e-6,0.002 3.5e-5,0.004 10e-5,0.006 2.43e-4,0.005 3.76e-4,0.007 6.29e-4,0.009 1.29e-4,0.001 3.21e-4,0.003 6.09e-4,0.004 2.69e-4,0.002 7.44e-4,0.004 0.0015,0.008 4.1e-4,0.002 10e-4,0.004 0.0018,0.006 7.91e-4,0.002 0.002,0.006 0.0039,0.0102 0.0018,0.004 0.005,0.0104 0.01043,0.0176 0.0028,0.004 0.0067,0.008 0.01186,0.0131 0.0052,0.005 0.01223,0.0101 0.02136,0.0148 0.0093,0.005 0.02056,0.008 0.03334,0.01 0.01288,0.001 0.02531,-1.1e-4 0.03661,-0.003 0.01106,-0.003 0.02002,-0.008 0.02685,-0.0129 0.0068,-0.005 0.01193,-0.01 0.01567,-0.0135 0.0072,-0.008 0.01155,-0.015 0.01384,-0.0192 0.0025,-0.005 0.0042,-0.008 0.0052,-0.0111 0.002,-0.005 0.0032,-0.009 0.0037,-0.0115 6.34e-4,-0.002 0.0011,-0.005 0.0014,-0.006 5.46e-4,-0.003 9.16e-4,-0.005 0.0011,-0.007 2.31e-4,-0.002 4.23e-4,-0.003 5.73e-4,-0.004 3.03e-4,-0.002 5.66e-4,-0.005 8.01e-4,-0.007 4.76e-4,-0.005 9.46e-4,-0.0106 0.0014,-0.0178 4.97e-4,-0.007 0.001,-0.0158 0.0016,-0.026 0.04407,-0.55156 0.01979,-1.11629 -0.0041,-1.59283 -0.01373,-0.58785 4.45e-4,-1.34558 0.0026,-1.80317 0.0012,-0.26206 4.57e-4,-0.51833 -0.005,-0.77343 -0.02153,-0.88234 -0.05251,-1.6752 -0.08731,-2.03584 a 0.10571752,0.10571752 90 0 0 -0.210458,0.0203 z"
       id="path-1"
       inkscape:path-effect="#path-effect266;#path-effect268"
       inkscape:original-d="m -14.84825,148.08412 c 0.06043,0.46448 0.092,2.06754 0.092,2.53531 0,0.52348 -0.007,1.04688 -0.007,1.57033 0,0.42933 0.0015,0.36463 0.02095,0.78203 0.01322,0.28391 0.02394,0.56828 0.01815,0.8526 -0.0013,0.063 -0.01626,0.34983 -0.01955,0.41336 -0.0019,0.0362 -0.0056,0.14501 -0.0056,0.10872 0,-0.59952 -0.0052,-1.17616 -0.113115,-1.76842 -0.04996,-0.27425 -0.09931,-0.56317 -0.2381,-0.80983 -0.09895,-0.17585 -0.31762,-0.38777 -0.548119,-0.26703 -0.331421,0.17361 -0.561828,0.50075 -0.700335,0.84143 -0.255283,0.6279 -0.431009,1.81811 0.305131,2.21203 0.127942,0.0685 0.295893,0.0892 0.4364,0.058 0.18047,-0.04 0.541783,-0.44984 0.748514,-0.58257"
       style="fill:#000000;fill-rule:nonzero;stroke:none"
       sodipodi:nodetypes="csscccsccccccc" />
  </g>
</svg>
