<?xml version="1.0" encoding="UTF-8" standalone="no"?>
<!-- Created with Inkscape (http://www.inkscape.org/) -->

<svg
   width="3mm"
   height="10mm"
   viewBox="0 0 3.0000001 9.9999994"
   version="1.1"
   id="svg1681"
   inkscape:version="1.2.1 (9c6d41e410, 2022-07-14)"
   sodipodi:docname="lower_d_21.svg"
   inkscape:export-filename="..\..\..\..\Downloads\lower a diff canvas resize 3.0.png"
   inkscape:export-xdpi="96"
   inkscape:export-ydpi="96"
   xmlns:inkscape="http://www.inkscape.org/namespaces/inkscape"
   xmlns:sodipodi="http://sodipodi.sourceforge.net/DTD/sodipodi-0.dtd"
   xmlns="http://www.w3.org/2000/svg"
   xmlns:svg="http://www.w3.org/2000/svg"
   xmlns:rdf="http://www.w3.org/1999/02/22-rdf-syntax-ns#"
   xmlns:cc="http://creativecommons.org/ns#"
   xmlns:dc="http://purl.org/dc/elements/1.1/">
  <defs
     id="defs1675">
    <inkscape:path-effect
       effect="powerstroke"
       id="path-effect633"
       is_visible="true"
       lpeversion="1"
       offset_points="2.2482506,0.089688282 | 5.5735574,0.080719454 | 11.363605,0.10529404"
       not_jump="true"
       sort_points="true"
       interpolator_type="CentripetalCatmullRom"
       interpolator_beta="0.75"
       start_linecap_type="round"
       linejoin_type="spiro"
       miter_limit="4"
       scale_width="1"
       end_linecap_type="round" />
    <inkscape:path-effect
       effect="simplify"
       id="path-effect631"
       is_visible="true"
       lpeversion="1"
       steps="1"
       threshold="0.0047745358"
       smooth_angles="0"
       helper_size="0"
       simplify_individual_paths="false"
       simplify_just_coalesce="false"
       step="1" />
    <inkscape:path-effect
       effect="powerstroke"
       id="path-effect568"
       is_visible="true"
       lpeversion="1"
       offset_points="2.4877957,0.10000774 | 9.2836645,0.1266534"
       not_jump="true"
       sort_points="true"
       interpolator_type="CentripetalCatmullRom"
       interpolator_beta="0.75"
       start_linecap_type="round"
       linejoin_type="spiro"
       miter_limit="4"
       scale_width="1"
       end_linecap_type="round" />
    <inkscape:path-effect
       effect="simplify"
       id="path-effect566"
       is_visible="true"
       lpeversion="1"
       steps="1"
       threshold="0.0047745358"
       smooth_angles="0"
       helper_size="0"
       simplify_individual_paths="false"
       simplify_just_coalesce="false"
       step="1" />
    <inkscape:path-effect
       effect="powerstroke"
       id="path-effect505"
       is_visible="true"
       lpeversion="1"
       offset_points="1.5553775,0.082359314 | 3.8751871,0.073535102 | 7.7254378,0.11782919"
       not_jump="true"
       sort_points="true"
       interpolator_type="CentripetalCatmullRom"
       interpolator_beta="0.75"
       start_linecap_type="round"
       linejoin_type="spiro"
       miter_limit="4"
       scale_width="1"
       end_linecap_type="round" />
    <inkscape:path-effect
       effect="simplify"
       id="path-effect503"
       is_visible="true"
       lpeversion="1"
       steps="1"
       threshold="0.0047745358"
       smooth_angles="0"
       helper_size="0"
       simplify_individual_paths="false"
       simplify_just_coalesce="false"
       step="1" />
    <inkscape:path-effect
       effect="powerstroke"
       id="path-effect497"
       is_visible="true"
       lpeversion="1"
       offset_points="1.7910822,0.084262575 | 3.9737517,0.072843007 | 6.5259743,0.10589055"
       not_jump="true"
       sort_points="true"
       interpolator_type="CentripetalCatmullRom"
       interpolator_beta="0.75"
       start_linecap_type="round"
       linejoin_type="spiro"
       miter_limit="4"
       scale_width="1"
       end_linecap_type="round" />
    <inkscape:path-effect
       effect="simplify"
       id="path-effect495"
       is_visible="true"
       lpeversion="1"
       steps="1"
       threshold="0.0047745358"
       smooth_angles="0"
       helper_size="0"
       simplify_individual_paths="false"
       simplify_just_coalesce="false"
       step="1" />
    <inkscape:path-effect
       effect="powerstroke"
       id="path-effect438"
       is_visible="true"
       lpeversion="1"
       offset_points="1.7761469,0.085473742 | 5.7789858,0.065402985 | 9.2142762,0.10571752"
       not_jump="true"
       sort_points="true"
       interpolator_type="CentripetalCatmullRom"
       interpolator_beta="0.75"
       start_linecap_type="round"
       linejoin_type="spiro"
       miter_limit="4"
       scale_width="1"
       end_linecap_type="round" />
    <inkscape:path-effect
       effect="simplify"
       id="path-effect436"
       is_visible="true"
       lpeversion="1"
       steps="1"
       threshold="0.0047745358"
       smooth_angles="0"
       helper_size="0"
       simplify_individual_paths="false"
       simplify_just_coalesce="false"
       step="1" />
    <inkscape:path-effect
       effect="powerstroke"
       id="path-effect381"
       is_visible="true"
       lpeversion="1"
       offset_points="1.5107179,0.07941791 | 5.0420234,0.067133222 | 8.0862289,0.087550027"
       not_jump="true"
       sort_points="true"
       interpolator_type="CentripetalCatmullRom"
       interpolator_beta="0.75"
       start_linecap_type="round"
       linejoin_type="spiro"
       miter_limit="4"
       scale_width="1"
       end_linecap_type="round" />
    <inkscape:path-effect
       effect="simplify"
       id="path-effect379"
       is_visible="true"
       lpeversion="1"
       steps="1"
       threshold="0.0047745358"
       smooth_angles="0"
       helper_size="0"
       simplify_individual_paths="false"
       simplify_just_coalesce="false"
       step="1" />
    <inkscape:path-effect
       effect="powerstroke"
       id="path-effect326"
       is_visible="true"
       lpeversion="1"
       offset_points="2.155714,0.11886733 | 5.8967817,0.088934217 | 9.8304695,0.11108126"
       not_jump="true"
       sort_points="true"
       interpolator_type="CentripetalCatmullRom"
       interpolator_beta="0.75"
       start_linecap_type="round"
       linejoin_type="spiro"
       miter_limit="4"
       scale_width="1"
       end_linecap_type="round" />
    <inkscape:path-effect
       effect="simplify"
       id="path-effect324"
       is_visible="true"
       lpeversion="1"
       steps="1"
       threshold="0.0047745358"
       smooth_angles="0"
       helper_size="0"
       simplify_individual_paths="false"
       simplify_just_coalesce="false"
       step="1" />
    <inkscape:path-effect
       effect="powerstroke"
       id="path-effect319"
       is_visible="true"
       lpeversion="1"
       offset_points="1.2394572,0.098796572 | 4.1165478,0.074400221 | 7.8196323,0.1223278"
       not_jump="true"
       sort_points="true"
       interpolator_type="CentripetalCatmullRom"
       interpolator_beta="0.75"
       start_linecap_type="round"
       linejoin_type="spiro"
       miter_limit="4"
       scale_width="1"
       end_linecap_type="round" />
    <inkscape:path-effect
       effect="simplify"
       id="path-effect317"
       is_visible="true"
       lpeversion="1"
       steps="1"
       threshold="0.0047745358"
       smooth_angles="0"
       helper_size="0"
       simplify_individual_paths="false"
       simplify_just_coalesce="false"
       step="1" />
    <inkscape:path-effect
       effect="powerstroke"
       id="path-effect268"
       is_visible="true"
       lpeversion="1"
       offset_points="1.2987426,0.10571752 | 5.2216749,0.09135655 | 9.3842452,0.14516694"
       not_jump="true"
       sort_points="true"
       interpolator_type="CentripetalCatmullRom"
       interpolator_beta="0.75"
       start_linecap_type="round"
       linejoin_type="spiro"
       miter_limit="4"
       scale_width="1"
       end_linecap_type="round" />
    <inkscape:path-effect
       effect="simplify"
       id="path-effect266"
       is_visible="true"
       lpeversion="1"
       steps="1"
       threshold="0.0047745358"
       smooth_angles="0"
       helper_size="0"
       simplify_individual_paths="false"
       simplify_just_coalesce="false"
       step="1" />
    <inkscape:path-effect
       effect="powerstroke"
       id="path-effect212"
       is_visible="true"
       lpeversion="1"
       offset_points="3.4130475,0.14132323 | 5.4926991,0.087401901 | 10.081687,0.16123537"
       not_jump="true"
       sort_points="true"
       interpolator_type="CentripetalCatmullRom"
       interpolator_beta="0.75"
       start_linecap_type="round"
       linejoin_type="spiro"
       miter_limit="4"
       scale_width="1"
       end_linecap_type="round" />
    <inkscape:path-effect
       effect="simplify"
       id="path-effect210"
       is_visible="true"
       lpeversion="1"
       steps="1"
       threshold="0.0035951417"
       smooth_angles="0"
       helper_size="0"
       simplify_individual_paths="false"
       simplify_just_coalesce="false"
       step="1" />
    <inkscape:path-effect
       effect="powerstroke"
       id="path-effect2924"
       is_visible="true"
       lpeversion="1"
       offset_points="2.0968626,0.14316841 | 4.5733622,0.18306782 | 6.0831468,0.13941318 | 8.4929655,0.17884318"
       not_jump="true"
       sort_points="true"
       interpolator_type="CentripetalCatmullRom"
       interpolator_beta="0.75"
       start_linecap_type="round"
       linejoin_type="spiro"
       miter_limit="4"
       scale_width="1"
       end_linecap_type="round" />
    <inkscape:path-effect
       effect="simplify"
       id="path-effect2922"
       is_visible="true"
       lpeversion="1"
       steps="1"
       threshold="0.0035951417"
       smooth_angles="0"
       helper_size="0"
       simplify_individual_paths="false"
       simplify_just_coalesce="false"
       step="1" />
    <inkscape:path-effect
       effect="powerstroke"
       id="path-effect2917"
       is_visible="true"
       lpeversion="1"
       offset_points="5.1165955,0.077959048 | 7.3846829,0.097779145 | 8.1043412,0.081482621 | 12.581367,0.11011165"
       not_jump="true"
       sort_points="true"
       interpolator_type="CentripetalCatmullRom"
       interpolator_beta="0.75"
       start_linecap_type="round"
       linejoin_type="spiro"
       miter_limit="4"
       scale_width="1"
       end_linecap_type="round" />
    <inkscape:path-effect
       effect="simplify"
       id="path-effect2915"
       is_visible="true"
       lpeversion="1"
       steps="1"
       threshold="0.0035951417"
       smooth_angles="0"
       helper_size="0"
       simplify_individual_paths="false"
       simplify_just_coalesce="false"
       step="1" />
    <inkscape:path-effect
       effect="powerstroke"
       id="path-effect2910"
       is_visible="true"
       lpeversion="1"
       offset_points="2.676822,0.075756815 | 4.6921753,0.091466078 | 6.2204739,0.066947883 | 9.0860519,0.1030645"
       not_jump="true"
       sort_points="true"
       interpolator_type="CentripetalCatmullRom"
       interpolator_beta="0.75"
       start_linecap_type="round"
       linejoin_type="spiro"
       miter_limit="4"
       scale_width="1"
       end_linecap_type="round" />
    <inkscape:path-effect
       effect="simplify"
       id="path-effect2908"
       is_visible="true"
       lpeversion="1"
       steps="1"
       threshold="0.0035951417"
       smooth_angles="0"
       helper_size="0"
       simplify_individual_paths="false"
       simplify_just_coalesce="false"
       step="1" />
    <inkscape:path-effect
       effect="powerstroke"
       id="path-effect2903"
       is_visible="true"
       lpeversion="1"
       offset_points="5.9252334,0.10511992 | 8.1100912,0.084125301 | 8.9201742,0.09498965"
       not_jump="true"
       sort_points="true"
       interpolator_type="CentripetalCatmullRom"
       interpolator_beta="0.75"
       start_linecap_type="round"
       linejoin_type="spiro"
       miter_limit="4"
       scale_width="1"
       end_linecap_type="round" />
    <inkscape:path-effect
       effect="simplify"
       id="path-effect2901"
       is_visible="true"
       lpeversion="1"
       steps="1"
       threshold="0.0035951417"
       smooth_angles="0"
       helper_size="0"
       simplify_individual_paths="false"
       simplify_just_coalesce="false"
       step="1" />
    <inkscape:path-effect
       effect="powerstroke"
       id="path-effect502"
       is_visible="true"
       lpeversion="1"
       offset_points="3.0091841,0.21607495 | 7.3602657,0.17554228 | 9.4159651,0.20236537"
       not_jump="true"
       sort_points="true"
       interpolator_type="CentripetalCatmullRom"
       interpolator_beta="0.75"
       start_linecap_type="round"
       linejoin_type="spiro"
       miter_limit="4"
       scale_width="1"
       end_linecap_type="round" />
    <inkscape:path-effect
       effect="simplify"
       id="path-effect500"
       is_visible="true"
       lpeversion="1"
       steps="1"
       threshold="0.0035951417"
       smooth_angles="0"
       helper_size="0"
       simplify_individual_paths="false"
       simplify_just_coalesce="false"
       step="1" />
    <inkscape:path-effect
       effect="powerstroke"
       id="path-effect241"
       is_visible="true"
       lpeversion="1"
       offset_points="2.6879454,0.34086734"
       not_jump="true"
       sort_points="true"
       interpolator_type="CentripetalCatmullRom"
       interpolator_beta="0.75"
       start_linecap_type="round"
       linejoin_type="spiro"
       miter_limit="4"
       scale_width="1"
       end_linecap_type="round" />
    <inkscape:path-effect
       effect="simplify"
       id="path-effect239"
       is_visible="true"
       lpeversion="1"
       steps="1"
       threshold="0.0028332064"
       smooth_angles="0"
       helper_size="0"
       simplify_individual_paths="false"
       simplify_just_coalesce="false"
       step="1" />
    <inkscape:path-effect
       effect="powerstroke"
       id="path-effect234"
       is_visible="true"
       lpeversion="1"
       offset_points="2.13563,0.075169555"
       not_jump="true"
       sort_points="true"
       interpolator_type="CentripetalCatmullRom"
       interpolator_beta="0.75"
       start_linecap_type="round"
       linejoin_type="spiro"
       miter_limit="4"
       scale_width="1"
       end_linecap_type="round" />
    <inkscape:path-effect
       effect="simplify"
       id="path-effect232"
       is_visible="true"
       lpeversion="1"
       steps="1"
       threshold="0.0028332064"
       smooth_angles="0"
       helper_size="0"
       simplify_individual_paths="false"
       simplify_just_coalesce="false"
       step="1" />
    <inkscape:path-effect
       effect="powerstroke"
       id="path-effect227"
       is_visible="true"
       lpeversion="1"
       offset_points="2.1868266,0.075169555"
       not_jump="true"
       sort_points="true"
       interpolator_type="CentripetalCatmullRom"
       interpolator_beta="0.75"
       start_linecap_type="round"
       linejoin_type="spiro"
       miter_limit="4"
       scale_width="1"
       end_linecap_type="round" />
    <inkscape:path-effect
       effect="simplify"
       id="path-effect225"
       is_visible="true"
       lpeversion="1"
       steps="1"
       threshold="0.0028332064"
       smooth_angles="0"
       helper_size="0"
       simplify_individual_paths="false"
       simplify_just_coalesce="false"
       step="1" />
    <inkscape:path-effect
       effect="powerstroke"
       id="path-effect166"
       is_visible="true"
       lpeversion="1"
       offset_points="1.9637935,0.075169555"
       not_jump="true"
       sort_points="true"
       interpolator_type="CentripetalCatmullRom"
       interpolator_beta="0.75"
       start_linecap_type="round"
       linejoin_type="spiro"
       miter_limit="4"
       scale_width="1"
       end_linecap_type="round" />
    <inkscape:path-effect
       effect="simplify"
       id="path-effect164"
       is_visible="true"
       lpeversion="1"
       steps="1"
       threshold="0.0028332064"
       smooth_angles="0"
       helper_size="0"
       simplify_individual_paths="false"
       simplify_just_coalesce="false"
       step="1" />
    <inkscape:path-effect
       effect="powerstroke"
       id="path-effect159"
       is_visible="true"
       lpeversion="1"
       offset_points="2.2611036,0.075169555"
       not_jump="true"
       sort_points="true"
       interpolator_type="CentripetalCatmullRom"
       interpolator_beta="0.75"
       start_linecap_type="round"
       linejoin_type="spiro"
       miter_limit="4"
       scale_width="1"
       end_linecap_type="round" />
    <inkscape:path-effect
       effect="simplify"
       id="path-effect157"
       is_visible="true"
       lpeversion="1"
       steps="1"
       threshold="0.0028332064"
       smooth_angles="0"
       helper_size="0"
       simplify_individual_paths="false"
       simplify_just_coalesce="false"
       step="1" />
    <inkscape:path-effect
       effect="powerstroke"
       id="path-effect152"
       is_visible="true"
       lpeversion="1"
       offset_points="2.826981,0.075169555"
       not_jump="true"
       sort_points="true"
       interpolator_type="CentripetalCatmullRom"
       interpolator_beta="0.75"
       start_linecap_type="round"
       linejoin_type="spiro"
       miter_limit="4"
       scale_width="1"
       end_linecap_type="round" />
    <inkscape:path-effect
       effect="simplify"
       id="path-effect150"
       is_visible="true"
       lpeversion="1"
       steps="1"
       threshold="0.0028332064"
       smooth_angles="0"
       helper_size="0"
       simplify_individual_paths="false"
       simplify_just_coalesce="false"
       step="1" />
    <inkscape:path-effect
       effect="powerstroke"
       id="path-effect145"
       is_visible="true"
       lpeversion="1"
       offset_points="3.8374447,0.075169555"
       not_jump="true"
       sort_points="true"
       interpolator_type="CentripetalCatmullRom"
       interpolator_beta="0.75"
       start_linecap_type="round"
       linejoin_type="spiro"
       miter_limit="4"
       scale_width="1"
       end_linecap_type="round" />
    <inkscape:path-effect
       effect="simplify"
       id="path-effect143"
       is_visible="true"
       lpeversion="1"
       steps="1"
       threshold="0.0028332064"
       smooth_angles="0"
       helper_size="0"
       simplify_individual_paths="false"
       simplify_just_coalesce="false"
       step="1" />
    <inkscape:path-effect
       effect="powerstroke"
       id="path-effect138"
       is_visible="true"
       lpeversion="1"
       offset_points="2.6880907,0.075169555"
       not_jump="true"
       sort_points="true"
       interpolator_type="CentripetalCatmullRom"
       interpolator_beta="0.75"
       start_linecap_type="round"
       linejoin_type="spiro"
       miter_limit="4"
       scale_width="1"
       end_linecap_type="round" />
    <inkscape:path-effect
       effect="simplify"
       id="path-effect136"
       is_visible="true"
       lpeversion="1"
       steps="1"
       threshold="0.0028332064"
       smooth_angles="0"
       helper_size="0"
       simplify_individual_paths="false"
       simplify_just_coalesce="false"
       step="1" />
    <inkscape:path-effect
       effect="powerstroke"
       id="path-effect131"
       is_visible="true"
       lpeversion="1"
       offset_points="1.9940581,0.075169555"
       not_jump="true"
       sort_points="true"
       interpolator_type="CentripetalCatmullRom"
       interpolator_beta="0.75"
       start_linecap_type="round"
       linejoin_type="spiro"
       miter_limit="4"
       scale_width="1"
       end_linecap_type="round" />
    <inkscape:path-effect
       effect="simplify"
       id="path-effect129"
       is_visible="true"
       lpeversion="1"
       steps="1"
       threshold="0.0028332064"
       smooth_angles="0"
       helper_size="0"
       simplify_individual_paths="false"
       simplify_just_coalesce="false"
       step="1" />
  </defs>
  <sodipodi:namedview
     id="base"
     pagecolor="#ffffff"
     bordercolor="#666666"
     borderopacity="1.0"
     inkscape:pageopacity="0.0"
     inkscape:pageshadow="2"
     inkscape:zoom="22.4"
     inkscape:cx="2.4553571"
     inkscape:cy="19.553571"
     inkscape:document-units="mm"
     inkscape:current-layer="layer1"
     showgrid="false"
     fit-margin-top="0"
     fit-margin-left="0"
     fit-margin-right="0"
     fit-margin-bottom="0"
     inkscape:window-width="1920"
     inkscape:window-height="1057"
     inkscape:window-x="1072"
     inkscape:window-y="321"
     inkscape:window-maximized="1"
     showguides="true"
     inkscape:guide-bbox="true"
     inkscape:snap-bbox="true"
     inkscape:bbox-nodes="true"
     inkscape:snap-nodes="false"
     inkscape:snap-others="false"
     inkscape:snap-page="true"
     inkscape:snap-grids="false"
     inkscape:snap-to-guides="false"
     inkscape:snap-global="false"
     inkscape:pagecheckerboard="0"
     inkscape:showpageshadow="2"
     inkscape:deskcolor="#d1d1d1">
    <sodipodi:guide
       position="-6.1806076,9.4988693"
       orientation="0,1"
       id="guide816"
       inkscape:locked="false" />
    <sodipodi:guide
       position="-4.4101636,10.646923"
       orientation="0,1"
       id="guide818"
       inkscape:locked="false" />
    <sodipodi:guide
       position="2.7595724,11.09577"
       orientation="1,0"
       id="guide820"
       inkscape:locked="false" />
    <sodipodi:guide
       position="3.6572659,10.942217"
       orientation="1,0"
       id="guide822"
       inkscape:locked="false" />
    <sodipodi:guide
       position="-0.051625511,9.74923"
       orientation="1,0"
       id="guide1853"
       inkscape:locked="false" />
    <sodipodi:guide
       position="-2.3720169,3.0175835"
       orientation="0,1"
       id="guide1855"
       inkscape:locked="false" />
  </sodipodi:namedview>
  <metadata
     id="metadata1678">
    <rdf:RDF>
      <cc:Work
         rdf:about="">
        <dc:format>image/svg+xml</dc:format>
        <dc:type
           rdf:resource="http://purl.org/dc/dcmitype/StillImage" />
      </cc:Work>
    </rdf:RDF>
  </metadata>
  <g
     inkscape:label="Layer 1"
     inkscape:groupmode="layer"
     id="layer1"
     transform="translate(17.028496,-147.22856)">
    <path
       d="m -14.602312,148.36015 c -0.0067,-0.02 -0.01309,-0.0461 -0.01656,-0.0815 -0.0027,-0.0271 -0.0034,-0.0566 -0.0027,-0.0934 9.28e-4,-0.0486 0.007,-0.14417 0.0018,-0.21705 4.26e-4,1.3e-4 4.66e-4,-0.0106 4.33e-4,-0.0221 -3.3e-5,-0.0115 -1.42e-4,-0.0243 -2.56e-4,-0.0374 -2.27e-4,-0.0262 -4.66e-4,-0.053 -2.07e-4,-0.0728 6.3e-5,-0.005 1.54e-4,-0.009 2.69e-4,-0.0125 1.2e-4,-0.004 2.46e-4,-0.006 3.36e-4,-0.007 -8.8e-5,5.4e-4 -3.75e-4,0.003 -0.0011,0.006 -3.75e-4,0.002 -0.0011,0.004 -0.0022,0.008 -0.001,0.003 -0.0033,0.009 -0.0076,0.0164 -0.0022,0.004 -0.0056,0.009 -0.01055,0.0143 -0.0049,0.005 -0.01234,0.0123 -0.02283,0.0181 -0.01092,0.006 -0.02456,0.0106 -0.04017,0.0112 -0.01557,5.9e-4 -0.02933,-0.003 -0.04036,-0.008 -0.01063,-0.005 -0.01841,-0.0108 -0.02359,-0.0156 -0.0052,-0.005 -0.009,-0.009 -0.01147,-0.0128 -0.0048,-0.007 -0.0076,-0.0123 -0.0089,-0.0151 -0.0015,-0.003 -0.0024,-0.006 -0.0029,-0.007 -3.95e-4,7.9e-4 3.28e-4,0.005 0.0012,0.0118 8.89e-4,0.006 0.0019,0.0142 0.003,0.0236 0.0065,0.10342 0.0103,0.21062 0.01229,0.31509 0.0065,0.33959 -0.0038,0.64259 0.0027,0.98218 0.0018,1.23012 -0.01771,2.54235 -0.127764,3.85462 -0.01002,0.11118 -0.01552,0.22438 -0.02401,0.33754 -0.0081,0.10843 -0.01915,0.2179 -0.04047,0.32481 l 0.158881,0.001 c -0.01558,-0.0842 -0.01615,-0.1721 -0.01171,-0.26959 6.31e-4,-0.0139 0.0014,-0.0278 0.0021,-0.0419 0.0041,-0.0743 0.01099,-0.16642 0.01055,-0.25203 0.0091,-0.2712 0.03303,-0.60714 0.02071,-0.91406 -0.0061,-0.15282 -0.02114,-0.30852 -0.05221,-0.4632 -0.03045,-0.1516 -0.07653,-0.30327 -0.145634,-0.45171 -0.01886,-0.0485 -0.04633,-0.1019 -0.08011,-0.15224 -0.0333,-0.0496 -0.07323,-0.097 -0.119569,-0.13791 -0.04588,-0.0405 -0.0987,-0.0752 -0.158021,-0.099 -0.05917,-0.0237 -0.124182,-0.0362 -0.193632,-0.0328 -0.06237,0.006 -0.113856,0.0243 -0.159594,0.0502 -0.04526,0.0256 -0.08433,0.0583 -0.118441,0.0926 -0.0655,0.0659 -0.123817,0.15055 -0.16767,0.20683 -0.170781,0.26553 -0.26007,0.55092 -0.308985,0.83701 -0.05002,0.29259 -0.05862,0.59305 -0.05945,0.86783 0.0026,0.20934 -4.06e-4,0.41884 0.02555,0.62832 0.01348,0.10878 0.03456,0.21502 0.06742,0.31759 0.03429,0.10704 0.08088,0.20843 0.143245,0.30306 0.02786,0.0484 0.0667,0.0949 0.109612,0.13338 0.02042,0.0183 0.04184,0.035 0.06396,0.0498 0.02687,0.018 0.05543,0.0339 0.08536,0.0471 0.05451,0.0241 0.113753,0.0396 0.175281,0.0434 0.0617,0.004 0.12493,-0.004 0.186661,-0.0264 0.08637,-0.0299 0.16636,-0.0714 0.239409,-0.12031 0.07441,-0.0498 0.141587,-0.10716 0.202196,-0.16806 0.12707,-0.12767 0.228968,-0.27468 0.308982,-0.40676 0.02849,-0.0505 0.04598,-0.0875 0.05765,-0.11293 a 0.10529404,0.10529404 90 0 0 -0.191334,-0.088 c -0.0095,0.0206 -0.02526,0.052 -0.04917,0.0934 -0.07417,0.12195 -0.166172,0.25326 -0.276768,0.36432 -0.05243,0.0526 -0.108883,0.10062 -0.169767,0.1414 -0.05965,0.04 -0.12345,0.0729 -0.191959,0.0968 -0.03446,0.0125 -0.06879,0.017 -0.103182,0.0151 -0.03455,-0.002 -0.06943,-0.0106 -0.103069,-0.0252 -0.01844,-0.008 -0.03636,-0.0178 -0.05348,-0.0291 -0.01408,-0.009 -0.02783,-0.0198 -0.04101,-0.0314 -0.02779,-0.0245 -0.05274,-0.0538 -0.07245,-0.0869 -0.05426,-0.0817 -0.09364,-0.1654 -0.123428,-0.2564 -0.02864,-0.0875 -0.04807,-0.18061 -0.06106,-0.27978 -0.02555,-0.19502 -0.02409,-0.38864 -0.02854,-0.60413 -7.51e-4,-0.27067 0.0062,-0.55774 0.05169,-0.83386 0.04425,-0.26868 0.124854,-0.52824 0.272138,-0.76088 0.04799,-0.0641 0.09044,-0.13013 0.144107,-0.18646 0.02548,-0.0267 0.05095,-0.0483 0.0773,-0.064 0.02595,-0.0155 0.05316,-0.0255 0.08316,-0.0291 0.03745,-0.002 0.07716,0.004 0.114674,0.0187 0.03803,0.0145 0.07437,0.037 0.108189,0.0659 0.03418,0.0292 0.06512,0.0645 0.09192,0.10324 0.02715,0.0392 0.04955,0.0813 0.06663,0.12306 0.06514,0.1386 0.108093,0.277 0.136967,0.4176 0.0295,0.14365 0.0444,0.29014 0.05085,0.43681 0.01314,0.29892 -0.0091,0.62117 -0.01789,0.90521 9.96e-4,0.0824 -0.0048,0.16621 -0.009,0.2452 -7.63e-4,0.0145 -0.0015,0.0289 -0.0021,0.0435 -0.0044,0.10109 -0.0047,0.20346 0.01374,0.30584 0.004,0.0221 0.0088,0.0449 0.02168,0.0633 0.0065,0.009 0.01481,0.0172 0.02459,0.0227 0.0098,0.006 0.02097,0.009 0.03223,0.009 0.01125,1e-4 0.02249,-0.003 0.03237,-0.008 0.0099,-0.005 0.01837,-0.0132 0.025,-0.0223 0.01327,-0.0182 0.01853,-0.0408 0.02301,-0.0628 0.02367,-0.11635 0.03603,-0.23339 0.04523,-0.34383 0.0097,-0.11593 0.01628,-0.22808 0.02717,-0.33545 0.113317,-1.32011 0.135886,-2.63793 0.136478,-3.87127 -0.0051,-0.34054 0.0065,-0.64479 0.0014,-0.98378 -0.0018,-0.10642 -0.0055,-0.21646 -0.01253,-0.32814 -0.0016,-0.015 -0.0027,-0.024 -0.0038,-0.0318 -0.001,-0.008 -0.0021,-0.0146 -0.0031,-0.0205 -5.15e-4,-0.003 -0.0011,-0.006 -0.0017,-0.009 -5.93e-4,-0.003 -0.0014,-0.006 -0.0024,-0.01 -5.09e-4,-0.002 -0.0012,-0.004 -0.002,-0.007 -8.09e-4,-0.002 -0.002,-0.006 -0.0038,-0.009 -0.0016,-0.003 -0.0046,-0.01 -0.0097,-0.0165 -0.0026,-0.004 -0.0065,-0.008 -0.01185,-0.0132 -0.0053,-0.005 -0.01321,-0.0109 -0.02395,-0.0158 -0.01115,-0.005 -0.02503,-0.009 -0.04072,-0.008 -0.01572,6e-4 -0.02948,0.005 -0.04051,0.0113 -0.0106,0.006 -0.01816,0.0129 -0.02316,0.0184 -0.005,0.006 -0.0085,0.0108 -0.01086,0.0147 -0.0045,0.008 -0.007,0.0142 -0.0082,0.0178 -0.0014,0.004 -0.0022,0.007 -0.0028,0.01 -0.0011,0.005 -0.0017,0.009 -0.002,0.0116 -3.76e-4,0.003 -6.42e-4,0.006 -8.4e-4,0.008 -3.92e-4,0.005 -6.44e-4,0.0101 -8.19e-4,0.0151 -1.8e-4,0.005 -3e-4,0.0106 -3.79e-4,0.0162 -3.14e-4,0.0224 -4e-5,0.0515 2e-4,0.0769 1.26e-4,0.0133 2.43e-4,0.0256 2.93e-4,0.0365 5.1e-5,0.0112 2.1e-5,0.0199 -1.07e-4,0.0258 0.0048,0.071 -5.4e-4,0.14484 -0.0016,0.20951 -6.77e-4,0.0408 1.45e-4,0.0779 0.0038,0.11432 0.0049,0.0488 0.01412,0.088 0.02521,0.12096 a 0.08968828,0.08968828 90 0 0 0.170016,-0.0572 z"
       id="path-1"
       inkscape:path-effect="#path-effect631;#path-effect633"
       inkscape:original-d="m -14.68732,148.38874 c -0.0074,-0.0245 -0.01483,-0.0488 -0.02225,-0.0732 0,-4.8e-4 -1.38e-4,-0.53353 0,-0.53253 0.03927,0.12926 0.02224,0.8419 0.02368,0.96721 0.0042,0.36651 1.58e-4,0.73373 -0.0014,1.10022 -0.0043,0.99946 -0.03631,1.99564 -0.114818,2.992 -0.01609,0.20425 -0.03409,0.46636 -0.05454,0.67534 -0.0086,0.0877 -0.02178,0.18305 -0.02798,0.17952 -0.02958,-0.0168 -0.0042,-0.45508 -0.0036,-0.48271 0.016,-0.6688 0.120155,-1.43246 -0.247578,-2.03172 -0.111208,-0.18122 -0.377312,-0.3179 -0.561176,-0.14989 -0.506922,0.46324 -0.557801,1.30067 -0.548975,1.95136 0.0051,0.37641 0.0024,0.80355 0.22246,1.12984 0.401999,0.59587 1.056625,-0.13377 1.246499,-0.54711"
       style="fill:#000000;fill-rule:nonzero;stroke:none;stroke-width:1.03672"
       sodipodi:nodetypes="cccccccccccccc" />
  </g>
</svg>
