<?xml version="1.0" encoding="UTF-8" standalone="no"?>
<!-- Created with Inkscape (http://www.inkscape.org/) -->

<svg
   width="3mm"
   height="10mm"
   viewBox="0 0 3.0000001 9.9999994"
   version="1.1"
   id="svg1681"
   inkscape:version="1.2.1 (9c6d41e410, 2022-07-14)"
   sodipodi:docname="number_three_1.svg"
   inkscape:export-filename="..\..\..\..\Downloads\lower a diff canvas resize 3.0.png"
   inkscape:export-xdpi="96"
   inkscape:export-ydpi="96"
   xmlns:inkscape="http://www.inkscape.org/namespaces/inkscape"
   xmlns:sodipodi="http://sodipodi.sourceforge.net/DTD/sodipodi-0.dtd"
   xmlns="http://www.w3.org/2000/svg"
   xmlns:svg="http://www.w3.org/2000/svg"
   xmlns:rdf="http://www.w3.org/1999/02/22-rdf-syntax-ns#"
   xmlns:cc="http://creativecommons.org/ns#"
   xmlns:dc="http://purl.org/dc/elements/1.1/">
  <defs
     id="defs1675">
    <inkscape:path-effect
       effect="powerstroke"
       id="path-effect266"
       is_visible="true"
       lpeversion="1"
       offset_points="3.3464262,0.20901271 | 6.1472519,0.17129353 | 9.4944218,0.23565837"
       not_jump="true"
       sort_points="true"
       interpolator_type="CentripetalCatmullRom"
       interpolator_beta="0.75"
       start_linecap_type="round"
       linejoin_type="spiro"
       miter_limit="4"
       scale_width="1"
       end_linecap_type="round" />
    <inkscape:path-effect
       effect="simplify"
       id="path-effect264"
       is_visible="true"
       lpeversion="1"
       steps="1"
       threshold="0.0047745358"
       smooth_angles="0"
       helper_size="0"
       simplify_individual_paths="false"
       simplify_just_coalesce="false"
       step="1" />
    <inkscape:path-effect
       effect="powerstroke"
       id="path-effect156"
       is_visible="true"
       lpeversion="1"
       offset_points="2.1293113,0.10771485 | 6.2797208,0.16002761 | 8.6828585,0.12995807"
       not_jump="true"
       sort_points="true"
       interpolator_type="CentripetalCatmullRom"
       interpolator_beta="0.75"
       start_linecap_type="round"
       linejoin_type="spiro"
       miter_limit="4"
       scale_width="1"
       end_linecap_type="round" />
    <inkscape:path-effect
       effect="simplify"
       id="path-effect154"
       is_visible="true"
       lpeversion="1"
       steps="1"
       threshold="0.0035951417"
       smooth_angles="0"
       helper_size="0"
       simplify_individual_paths="false"
       simplify_just_coalesce="false"
       step="1" />
    <inkscape:path-effect
       effect="powerstroke"
       id="path-effect761"
       is_visible="true"
       lpeversion="1"
       offset_points="1.6544832,0.13270827 | 4.2861611,0.17374574 | 6.9701576,0.090445786 | 8.1533155,0.13903742"
       not_jump="true"
       sort_points="true"
       interpolator_type="CentripetalCatmullRom"
       interpolator_beta="0.75"
       start_linecap_type="round"
       linejoin_type="spiro"
       miter_limit="4"
       scale_width="1"
       end_linecap_type="round" />
    <inkscape:path-effect
       effect="simplify"
       id="path-effect759"
       is_visible="true"
       lpeversion="1"
       steps="1"
       threshold="0.0035951417"
       smooth_angles="0"
       helper_size="0"
       simplify_individual_paths="false"
       simplify_just_coalesce="false"
       step="1" />
    <inkscape:path-effect
       effect="powerstroke"
       id="path-effect754"
       is_visible="true"
       lpeversion="1"
       offset_points="2.7653669,0.1256741 | 8.5006017,0.094696019 | 9.7773195,0.10893713"
       not_jump="true"
       sort_points="true"
       interpolator_type="CentripetalCatmullRom"
       interpolator_beta="0.75"
       start_linecap_type="round"
       linejoin_type="spiro"
       miter_limit="4"
       scale_width="1"
       end_linecap_type="round" />
    <inkscape:path-effect
       effect="simplify"
       id="path-effect752"
       is_visible="true"
       lpeversion="1"
       steps="1"
       threshold="0.0035951417"
       smooth_angles="0"
       helper_size="0"
       simplify_individual_paths="false"
       simplify_just_coalesce="false"
       step="1" />
    <inkscape:path-effect
       effect="powerstroke"
       id="path-effect747"
       is_visible="true"
       lpeversion="1"
       offset_points="4.6226475,0.10834986 | 8.8729615,0.084125301 | 10.351846,0.098806854"
       not_jump="true"
       sort_points="true"
       interpolator_type="CentripetalCatmullRom"
       interpolator_beta="0.75"
       start_linecap_type="round"
       linejoin_type="spiro"
       miter_limit="4"
       scale_width="1"
       end_linecap_type="round" />
    <inkscape:path-effect
       effect="simplify"
       id="path-effect745"
       is_visible="true"
       lpeversion="1"
       steps="1"
       threshold="0.0035951417"
       smooth_angles="0"
       helper_size="0"
       simplify_individual_paths="false"
       simplify_just_coalesce="false"
       step="1" />
    <inkscape:path-effect
       effect="powerstroke"
       id="path-effect502"
       is_visible="true"
       lpeversion="1"
       offset_points="3.0091841,0.21607495 | 7.3602657,0.17554228 | 9.4159651,0.20236537"
       not_jump="true"
       sort_points="true"
       interpolator_type="CentripetalCatmullRom"
       interpolator_beta="0.75"
       start_linecap_type="round"
       linejoin_type="spiro"
       miter_limit="4"
       scale_width="1"
       end_linecap_type="round" />
    <inkscape:path-effect
       effect="simplify"
       id="path-effect500"
       is_visible="true"
       lpeversion="1"
       steps="1"
       threshold="0.0035951417"
       smooth_angles="0"
       helper_size="0"
       simplify_individual_paths="false"
       simplify_just_coalesce="false"
       step="1" />
    <inkscape:path-effect
       effect="powerstroke"
       id="path-effect241"
       is_visible="true"
       lpeversion="1"
       offset_points="2.6879454,0.34086734"
       not_jump="true"
       sort_points="true"
       interpolator_type="CentripetalCatmullRom"
       interpolator_beta="0.75"
       start_linecap_type="round"
       linejoin_type="spiro"
       miter_limit="4"
       scale_width="1"
       end_linecap_type="round" />
    <inkscape:path-effect
       effect="simplify"
       id="path-effect239"
       is_visible="true"
       lpeversion="1"
       steps="1"
       threshold="0.0028332064"
       smooth_angles="0"
       helper_size="0"
       simplify_individual_paths="false"
       simplify_just_coalesce="false"
       step="1" />
    <inkscape:path-effect
       effect="powerstroke"
       id="path-effect234"
       is_visible="true"
       lpeversion="1"
       offset_points="2.13563,0.075169555"
       not_jump="true"
       sort_points="true"
       interpolator_type="CentripetalCatmullRom"
       interpolator_beta="0.75"
       start_linecap_type="round"
       linejoin_type="spiro"
       miter_limit="4"
       scale_width="1"
       end_linecap_type="round" />
    <inkscape:path-effect
       effect="simplify"
       id="path-effect232"
       is_visible="true"
       lpeversion="1"
       steps="1"
       threshold="0.0028332064"
       smooth_angles="0"
       helper_size="0"
       simplify_individual_paths="false"
       simplify_just_coalesce="false"
       step="1" />
    <inkscape:path-effect
       effect="powerstroke"
       id="path-effect227"
       is_visible="true"
       lpeversion="1"
       offset_points="2.1868266,0.075169555"
       not_jump="true"
       sort_points="true"
       interpolator_type="CentripetalCatmullRom"
       interpolator_beta="0.75"
       start_linecap_type="round"
       linejoin_type="spiro"
       miter_limit="4"
       scale_width="1"
       end_linecap_type="round" />
    <inkscape:path-effect
       effect="simplify"
       id="path-effect225"
       is_visible="true"
       lpeversion="1"
       steps="1"
       threshold="0.0028332064"
       smooth_angles="0"
       helper_size="0"
       simplify_individual_paths="false"
       simplify_just_coalesce="false"
       step="1" />
    <inkscape:path-effect
       effect="powerstroke"
       id="path-effect166"
       is_visible="true"
       lpeversion="1"
       offset_points="1.9637935,0.075169555"
       not_jump="true"
       sort_points="true"
       interpolator_type="CentripetalCatmullRom"
       interpolator_beta="0.75"
       start_linecap_type="round"
       linejoin_type="spiro"
       miter_limit="4"
       scale_width="1"
       end_linecap_type="round" />
    <inkscape:path-effect
       effect="simplify"
       id="path-effect164"
       is_visible="true"
       lpeversion="1"
       steps="1"
       threshold="0.0028332064"
       smooth_angles="0"
       helper_size="0"
       simplify_individual_paths="false"
       simplify_just_coalesce="false"
       step="1" />
    <inkscape:path-effect
       effect="powerstroke"
       id="path-effect159"
       is_visible="true"
       lpeversion="1"
       offset_points="2.2611036,0.075169555"
       not_jump="true"
       sort_points="true"
       interpolator_type="CentripetalCatmullRom"
       interpolator_beta="0.75"
       start_linecap_type="round"
       linejoin_type="spiro"
       miter_limit="4"
       scale_width="1"
       end_linecap_type="round" />
    <inkscape:path-effect
       effect="simplify"
       id="path-effect157"
       is_visible="true"
       lpeversion="1"
       steps="1"
       threshold="0.0028332064"
       smooth_angles="0"
       helper_size="0"
       simplify_individual_paths="false"
       simplify_just_coalesce="false"
       step="1" />
    <inkscape:path-effect
       effect="powerstroke"
       id="path-effect152"
       is_visible="true"
       lpeversion="1"
       offset_points="2.826981,0.075169555"
       not_jump="true"
       sort_points="true"
       interpolator_type="CentripetalCatmullRom"
       interpolator_beta="0.75"
       start_linecap_type="round"
       linejoin_type="spiro"
       miter_limit="4"
       scale_width="1"
       end_linecap_type="round" />
    <inkscape:path-effect
       effect="simplify"
       id="path-effect150"
       is_visible="true"
       lpeversion="1"
       steps="1"
       threshold="0.0028332064"
       smooth_angles="0"
       helper_size="0"
       simplify_individual_paths="false"
       simplify_just_coalesce="false"
       step="1" />
    <inkscape:path-effect
       effect="powerstroke"
       id="path-effect145"
       is_visible="true"
       lpeversion="1"
       offset_points="3.8374447,0.075169555"
       not_jump="true"
       sort_points="true"
       interpolator_type="CentripetalCatmullRom"
       interpolator_beta="0.75"
       start_linecap_type="round"
       linejoin_type="spiro"
       miter_limit="4"
       scale_width="1"
       end_linecap_type="round" />
    <inkscape:path-effect
       effect="simplify"
       id="path-effect143"
       is_visible="true"
       lpeversion="1"
       steps="1"
       threshold="0.0028332064"
       smooth_angles="0"
       helper_size="0"
       simplify_individual_paths="false"
       simplify_just_coalesce="false"
       step="1" />
    <inkscape:path-effect
       effect="powerstroke"
       id="path-effect138"
       is_visible="true"
       lpeversion="1"
       offset_points="2.6880907,0.075169555"
       not_jump="true"
       sort_points="true"
       interpolator_type="CentripetalCatmullRom"
       interpolator_beta="0.75"
       start_linecap_type="round"
       linejoin_type="spiro"
       miter_limit="4"
       scale_width="1"
       end_linecap_type="round" />
    <inkscape:path-effect
       effect="simplify"
       id="path-effect136"
       is_visible="true"
       lpeversion="1"
       steps="1"
       threshold="0.0028332064"
       smooth_angles="0"
       helper_size="0"
       simplify_individual_paths="false"
       simplify_just_coalesce="false"
       step="1" />
    <inkscape:path-effect
       effect="powerstroke"
       id="path-effect131"
       is_visible="true"
       lpeversion="1"
       offset_points="1.9940581,0.075169555"
       not_jump="true"
       sort_points="true"
       interpolator_type="CentripetalCatmullRom"
       interpolator_beta="0.75"
       start_linecap_type="round"
       linejoin_type="spiro"
       miter_limit="4"
       scale_width="1"
       end_linecap_type="round" />
    <inkscape:path-effect
       effect="simplify"
       id="path-effect129"
       is_visible="true"
       lpeversion="1"
       steps="1"
       threshold="0.0028332064"
       smooth_angles="0"
       helper_size="0"
       simplify_individual_paths="false"
       simplify_just_coalesce="false"
       step="1" />
  </defs>
  <sodipodi:namedview
     id="base"
     pagecolor="#ffffff"
     bordercolor="#666666"
     borderopacity="1.0"
     inkscape:pageopacity="0.0"
     inkscape:pageshadow="2"
     inkscape:zoom="11.2"
     inkscape:cx="-1.5625"
     inkscape:cy="18.482143"
     inkscape:document-units="mm"
     inkscape:current-layer="layer1"
     showgrid="false"
     fit-margin-top="0"
     fit-margin-left="0"
     fit-margin-right="0"
     fit-margin-bottom="0"
     inkscape:window-width="1920"
     inkscape:window-height="1057"
     inkscape:window-x="1072"
     inkscape:window-y="321"
     inkscape:window-maximized="1"
     showguides="true"
     inkscape:guide-bbox="true"
     inkscape:snap-bbox="true"
     inkscape:bbox-nodes="true"
     inkscape:snap-nodes="false"
     inkscape:snap-others="false"
     inkscape:snap-page="true"
     inkscape:snap-grids="false"
     inkscape:snap-to-guides="false"
     inkscape:snap-global="false"
     inkscape:pagecheckerboard="0"
     inkscape:showpageshadow="2"
     inkscape:deskcolor="#d1d1d1">
    <sodipodi:guide
       position="-6.1806076,9.4988693"
       orientation="0,1"
       id="guide816"
       inkscape:locked="false" />
    <sodipodi:guide
       position="-4.4101636,10.646923"
       orientation="0,1"
       id="guide818"
       inkscape:locked="false" />
    <sodipodi:guide
       position="2.7595724,11.09577"
       orientation="1,0"
       id="guide820"
       inkscape:locked="false" />
    <sodipodi:guide
       position="3.6572659,10.942217"
       orientation="1,0"
       id="guide822"
       inkscape:locked="false" />
    <sodipodi:guide
       position="-0.051625511,9.74923"
       orientation="1,0"
       id="guide1853"
       inkscape:locked="false" />
    <sodipodi:guide
       position="-2.3720169,3.0175835"
       orientation="0,1"
       id="guide1855"
       inkscape:locked="false" />
  </sodipodi:namedview>
  <metadata
     id="metadata1678">
    <rdf:RDF>
      <cc:Work
         rdf:about="">
        <dc:format>image/svg+xml</dc:format>
        <dc:type
           rdf:resource="http://purl.org/dc/dcmitype/StillImage" />
      </cc:Work>
    </rdf:RDF>
  </metadata>
  <g
     inkscape:label="Layer 1"
     inkscape:groupmode="layer"
     id="layer1"
     transform="translate(17.028496,-147.22856)">
    <path
       d="m -16.307546,149.12483 c -0.01677,-0.0339 -0.03671,-0.0803 -0.05188,-0.13508 -0.01178,-0.0426 -0.02018,-0.0888 -0.02122,-0.1341 -9.08e-4,-0.0394 0.0038,-0.0751 0.0145,-0.10569 0.0094,-0.0269 0.02391,-0.0515 0.04666,-0.0737 0.02922,-0.0267 0.06881,-0.0511 0.114995,-0.0691 0.04474,-0.0174 0.09603,-0.029 0.153726,-0.0341 0.113581,-0.01 0.240542,0.006 0.363882,0.0387 0.216537,0.0564 0.416854,0.17625 0.569122,0.33515 0.07787,0.0812 0.141626,0.17106 0.189317,0.26584 0.04946,0.0983 0.08131,0.20127 0.09486,0.30597 0.01402,0.1163 0.01515,0.23197 0.0079,0.34165 -0.01469,0.22366 -0.06488,0.4457 -0.134983,0.65424 -0.05305,0.1562 -0.136412,0.30619 -0.243183,0.42264 -0.05359,0.0584 -0.112502,0.10785 -0.176037,0.14602 -0.0633,0.038 -0.132069,0.0654 -0.206578,0.0795 -0.145322,0.0274 -0.308003,0.0271 -0.46255,-0.0106 l 0.0825,0.0476 c 0.0017,0.002 0.0074,0.008 0.01339,0.0189 0.0061,0.0112 0.01358,0.0292 0.01552,0.0529 6.84e-4,0.008 6.52e-4,0.017 -2.35e-4,0.0259 -0.0016,0.0163 -0.0059,0.0315 -0.01209,0.0452 -0.0093,0.0207 -0.02158,0.0348 -0.03066,0.0433 -0.0088,0.008 -0.01638,0.013 -0.01983,0.015 -0.0038,0.002 -0.0053,0.003 -0.0048,0.003 9.57e-4,4e-5 0.0089,-0.002 0.01974,-0.003 0.02282,-0.003 0.05281,-0.004 0.08123,-0.002 0.01342,0.001 0.02495,0.003 0.03263,0.004 0.0037,8.3e-4 0.0062,0.002 0.0067,0.002 4.91e-4,4.9e-4 -9.5e-4,7.5e-4 -0.0066,-7.9e-4 l 0.03217,0.008 c 0.120269,0.02 0.234874,0.0599 0.342661,0.11645 0.107142,0.0562 0.207368,0.12878 0.299001,0.2142 0.18463,0.17212 0.329874,0.39216 0.424395,0.62195 0.109188,0.26219 0.162492,0.54636 0.152689,0.81533 -0.0051,0.13951 -0.027,0.2728 -0.06508,0.39684 -0.03965,0.12914 -0.09651,0.24733 -0.16956,0.35312 -0.108606,0.15809 -0.256032,0.26749 -0.408146,0.34163 -0.0019,9.1e-4 -0.0037,0.002 -0.0056,0.003 -0.169387,0.0815 -0.360908,0.12724 -0.551335,0.13781 -0.183471,0.0141 -0.356575,-0.003 -0.515134,-0.0328 -0.215793,-0.0404 -0.419818,-0.10777 -0.522386,-0.14323 a 0.23565837,0.23565837 90 0 0 -0.15402,0.44544 c 0.105212,0.0364 0.336689,0.11578 0.587539,0.16429 0.186088,0.036 0.403492,0.06 0.636081,0.0415 0.242031,-0.0138 0.496634,-0.0748 0.727304,-0.19001 0.0026,-0.001 0.0051,-0.003 0.0077,-0.004 0.207961,-0.1052 0.421722,-0.26859 0.577398,-0.51081 0.09666,-0.14677 0.169355,-0.30915 0.217499,-0.4813 0.04615,-0.16501 0.06925,-0.33726 0.07098,-0.51195 0.0033,-0.33515 -0.07214,-0.67782 -0.210973,-0.98693 -0.122756,-0.27445 -0.30679,-0.53779 -0.541664,-0.74486 -0.117201,-0.10333 -0.247122,-0.19267 -0.388218,-0.26206 -0.141254,-0.0695 -0.292817,-0.11853 -0.452644,-0.14189 -0.0036,-7.4e-4 -0.007,-0.001 -0.0103,-0.002 -0.01174,-0.002 -0.02348,-0.004 -0.03463,-0.005 -0.02234,-0.002 -0.04605,-0.003 -0.06919,-0.003 -0.0466,5e-5 -0.09932,0.004 -0.147818,0.0129 -0.02481,0.005 -0.05196,0.0112 -0.07834,0.021 -0.01353,0.005 -0.02835,0.0114 -0.04332,0.0197 -0.01492,0.008 -0.03222,0.0196 -0.04895,0.0352 -0.01705,0.0159 -0.03533,0.0378 -0.04853,0.067 -0.0087,0.0191 -0.01456,0.0401 -0.01679,0.0624 -0.0012,0.0122 -0.0013,0.0243 -3.33e-4,0.0361 0.0027,0.0335 0.01343,0.0619 0.02561,0.0841 0.01207,0.022 0.02663,0.0399 0.04019,0.0541 0.01121,0.0117 0.02299,0.023 0.03702,0.0311 0.01403,0.008 0.02978,0.0126 0.04549,0.0164 0.199463,0.0493 0.407304,0.0601 0.600994,0.0374 0.123755,-0.0193 0.234519,-0.0593 0.334874,-0.1147 0.100148,-0.0553 0.189474,-0.12573 0.26783,-0.20526 0.154591,-0.1569 0.270288,-0.3531 0.344858,-0.55235 0.08651,-0.23332 0.152442,-0.49068 0.173379,-0.75912 0.01028,-0.13183 0.01048,-0.27429 -0.0064,-0.42273 -0.01939,-0.15578 -0.06525,-0.30473 -0.135071,-0.44457 -0.06711,-0.1344 -0.155599,-0.25884 -0.26122,-0.36941 -0.205068,-0.21468 -0.474025,-0.37611 -0.768116,-0.45264 -0.154606,-0.0406 -0.332746,-0.066 -0.509102,-0.0499 -0.09147,0.008 -0.182989,0.0279 -0.270635,0.0625 -0.09182,0.0363 -0.176819,0.0882 -0.251355,0.15737 -0.0784,0.0772 -0.125473,0.15999 -0.153519,0.2424 -0.0303,0.089 -0.03822,0.17685 -0.03596,0.2535 0.0026,0.0882 0.01891,0.16933 0.03757,0.23549 0.02427,0.0861 0.05557,0.1577 0.08035,0.20773 a 0.20901271,0.20901271 90 0 0 0.374606,-0.18552 z"
       id="path-1"
       inkscape:path-effect="#path-effect264;#path-effect266"
       inkscape:original-d="m -16.494849,149.21759 c -0.617893,-1.32761 1.938834,-1.08859 1.883852,0.52753 -0.02053,0.60332 -0.252802,1.49402 -0.978932,1.60275 -0.133526,0.02 -0.270395,0.004 -0.40498,-0.007 -0.04741,-0.004 -0.163302,-0.034 -0.12708,-0.0649 0.154277,-0.13125 0.575944,0.0138 0.719188,0.0899 1.248069,0.66335 1.457692,2.91416 -0.12708,3.24583 -0.505249,0.10574 -0.933702,0.009 -1.404859,-0.15205"
       style="fill:#000000;fill-rule:nonzero;stroke:none" />
  </g>
</svg>
