<?xml version="1.0" encoding="UTF-8" standalone="no"?>
<!-- Created with Inkscape (http://www.inkscape.org/) -->

<svg
   width="4mm"
   height="10mm"
   viewBox="0 0 4.0000001 9.9999994"
   version="1.1"
   id="svg1681"
   inkscape:version="1.2.1 (9c6d41e410, 2022-07-14)"
   sodipodi:docname="lower_w_6.svg"
   inkscape:export-filename="..\..\..\..\Downloads\lower a diff canvas resize 3.0.png"
   inkscape:export-xdpi="96"
   inkscape:export-ydpi="96"
   xmlns:inkscape="http://www.inkscape.org/namespaces/inkscape"
   xmlns:sodipodi="http://sodipodi.sourceforge.net/DTD/sodipodi-0.dtd"
   xmlns="http://www.w3.org/2000/svg"
   xmlns:svg="http://www.w3.org/2000/svg"
   xmlns:rdf="http://www.w3.org/1999/02/22-rdf-syntax-ns#"
   xmlns:cc="http://creativecommons.org/ns#"
   xmlns:dc="http://purl.org/dc/elements/1.1/">
  <defs
     id="defs1675">
    <inkscape:path-effect
       effect="powerstroke"
       id="path-effect572"
       is_visible="true"
       lpeversion="1"
       offset_points="1.8843702,0.10032395 | 8.4202101,0.12870829"
       not_jump="true"
       sort_points="true"
       interpolator_type="CentripetalCatmullRom"
       interpolator_beta="0.75"
       start_linecap_type="round"
       linejoin_type="spiro"
       miter_limit="4"
       scale_width="1"
       end_linecap_type="round" />
    <inkscape:path-effect
       effect="simplify"
       id="path-effect570"
       is_visible="true"
       lpeversion="1"
       steps="1"
       threshold="0.0047745358"
       smooth_angles="0"
       helper_size="0"
       simplify_individual_paths="false"
       simplify_just_coalesce="false"
       step="1" />
    <inkscape:path-effect
       effect="powerstroke"
       id="path-effect516"
       is_visible="true"
       lpeversion="1"
       offset_points="2.2083742,0.10644126"
       not_jump="true"
       sort_points="true"
       interpolator_type="CentripetalCatmullRom"
       interpolator_beta="0.75"
       start_linecap_type="round"
       linejoin_type="spiro"
       miter_limit="4"
       scale_width="1"
       end_linecap_type="round" />
    <inkscape:path-effect
       effect="simplify"
       id="path-effect514"
       is_visible="true"
       lpeversion="1"
       steps="1"
       threshold="0.0047745358"
       smooth_angles="0"
       helper_size="0"
       simplify_individual_paths="false"
       simplify_just_coalesce="false"
       step="1" />
    <inkscape:path-effect
       effect="powerstroke"
       id="path-effect462"
       is_visible="true"
       lpeversion="1"
       offset_points="1.7675555,0.11476081 | 7.4858936,0.13727253 | 10.223648,0.15611385"
       not_jump="true"
       sort_points="true"
       interpolator_type="CentripetalCatmullRom"
       interpolator_beta="0.75"
       start_linecap_type="round"
       linejoin_type="spiro"
       miter_limit="4"
       scale_width="1"
       end_linecap_type="round" />
    <inkscape:path-effect
       effect="simplify"
       id="path-effect460"
       is_visible="true"
       lpeversion="1"
       steps="1"
       threshold="0.0047745358"
       smooth_angles="0"
       helper_size="0"
       simplify_individual_paths="false"
       simplify_just_coalesce="false"
       step="1" />
    <inkscape:path-effect
       effect="powerstroke"
       id="path-effect410"
       is_visible="true"
       lpeversion="1"
       offset_points="1.3069255,0.10130272 | 7.4061505,0.11720774"
       not_jump="true"
       sort_points="true"
       interpolator_type="CentripetalCatmullRom"
       interpolator_beta="0.75"
       start_linecap_type="round"
       linejoin_type="spiro"
       miter_limit="4"
       scale_width="1"
       end_linecap_type="round" />
    <inkscape:path-effect
       effect="simplify"
       id="path-effect408"
       is_visible="true"
       lpeversion="1"
       steps="1"
       threshold="0.0047745358"
       smooth_angles="0"
       helper_size="0"
       simplify_individual_paths="false"
       simplify_just_coalesce="false"
       step="1" />
    <inkscape:path-effect
       effect="powerstroke"
       id="path-effect360"
       is_visible="true"
       lpeversion="1"
       offset_points="1.7549587,0.10986696 | 6.4945854,0.13947476 | 8.1439231,0.12381443"
       not_jump="true"
       sort_points="true"
       interpolator_type="CentripetalCatmullRom"
       interpolator_beta="0.75"
       start_linecap_type="round"
       linejoin_type="spiro"
       miter_limit="4"
       scale_width="1"
       end_linecap_type="round" />
    <inkscape:path-effect
       effect="simplify"
       id="path-effect358"
       is_visible="true"
       lpeversion="1"
       steps="1"
       threshold="0.0047745358"
       smooth_angles="0"
       helper_size="0"
       simplify_individual_paths="false"
       simplify_just_coalesce="false"
       step="1" />
    <inkscape:path-effect
       effect="powerstroke"
       id="path-effect312"
       is_visible="true"
       lpeversion="1"
       offset_points="1.3996183,0.096408868"
       not_jump="true"
       sort_points="true"
       interpolator_type="CentripetalCatmullRom"
       interpolator_beta="0.75"
       start_linecap_type="round"
       linejoin_type="spiro"
       miter_limit="4"
       scale_width="1"
       end_linecap_type="round" />
    <inkscape:path-effect
       effect="simplify"
       id="path-effect310"
       is_visible="true"
       lpeversion="1"
       steps="1"
       threshold="0.0047745358"
       smooth_angles="0"
       helper_size="0"
       simplify_individual_paths="false"
       simplify_just_coalesce="false"
       step="1" />
    <inkscape:path-effect
       effect="powerstroke"
       id="path-effect305"
       is_visible="true"
       lpeversion="1"
       offset_points="1.530989,0.094206635 | 9.5526397,0.12699544"
       not_jump="true"
       sort_points="true"
       interpolator_type="CentripetalCatmullRom"
       interpolator_beta="0.75"
       start_linecap_type="round"
       linejoin_type="spiro"
       miter_limit="4"
       scale_width="1"
       end_linecap_type="round" />
    <inkscape:path-effect
       effect="simplify"
       id="path-effect303"
       is_visible="true"
       lpeversion="1"
       steps="1"
       threshold="0.0047745358"
       smooth_angles="0"
       helper_size="0"
       simplify_individual_paths="false"
       simplify_just_coalesce="false"
       step="1" />
    <inkscape:path-effect
       effect="powerstroke"
       id="path-effect298"
       is_visible="true"
       lpeversion="1"
       offset_points="1.3734686,0.11280327 | 8.9058734,0.14412392"
       not_jump="true"
       sort_points="true"
       interpolator_type="CentripetalCatmullRom"
       interpolator_beta="0.75"
       start_linecap_type="round"
       linejoin_type="spiro"
       miter_limit="4"
       scale_width="1"
       end_linecap_type="round" />
    <inkscape:path-effect
       effect="simplify"
       id="path-effect296"
       is_visible="true"
       lpeversion="1"
       steps="1"
       threshold="0.0047745358"
       smooth_angles="0"
       helper_size="0"
       simplify_individual_paths="false"
       simplify_just_coalesce="false"
       step="1" />
    <inkscape:path-effect
       effect="powerstroke"
       id="path-effect1424"
       is_visible="true"
       lpeversion="1"
       offset_points="3.2337937,0.1081348 | 7.9295992,0.12199285"
       not_jump="true"
       sort_points="true"
       interpolator_type="CentripetalCatmullRom"
       interpolator_beta="0.75"
       start_linecap_type="round"
       linejoin_type="spiro"
       miter_limit="4"
       scale_width="1"
       end_linecap_type="round" />
    <inkscape:path-effect
       effect="simplify"
       id="path-effect1422"
       is_visible="true"
       lpeversion="1"
       steps="1"
       threshold="0.0035951417"
       smooth_angles="0"
       helper_size="0"
       simplify_individual_paths="false"
       simplify_just_coalesce="false"
       step="1" />
    <inkscape:path-effect
       effect="powerstroke"
       id="path-effect502"
       is_visible="true"
       lpeversion="1"
       offset_points="3.0091841,0.21607495 | 7.3602657,0.17554228 | 9.4159651,0.20236537"
       not_jump="true"
       sort_points="true"
       interpolator_type="CentripetalCatmullRom"
       interpolator_beta="0.75"
       start_linecap_type="round"
       linejoin_type="spiro"
       miter_limit="4"
       scale_width="1"
       end_linecap_type="round" />
    <inkscape:path-effect
       effect="simplify"
       id="path-effect500"
       is_visible="true"
       lpeversion="1"
       steps="1"
       threshold="0.0035951417"
       smooth_angles="0"
       helper_size="0"
       simplify_individual_paths="false"
       simplify_just_coalesce="false"
       step="1" />
    <inkscape:path-effect
       effect="powerstroke"
       id="path-effect241"
       is_visible="true"
       lpeversion="1"
       offset_points="2.6879454,0.34086734"
       not_jump="true"
       sort_points="true"
       interpolator_type="CentripetalCatmullRom"
       interpolator_beta="0.75"
       start_linecap_type="round"
       linejoin_type="spiro"
       miter_limit="4"
       scale_width="1"
       end_linecap_type="round" />
    <inkscape:path-effect
       effect="simplify"
       id="path-effect239"
       is_visible="true"
       lpeversion="1"
       steps="1"
       threshold="0.0028332064"
       smooth_angles="0"
       helper_size="0"
       simplify_individual_paths="false"
       simplify_just_coalesce="false"
       step="1" />
    <inkscape:path-effect
       effect="powerstroke"
       id="path-effect234"
       is_visible="true"
       lpeversion="1"
       offset_points="2.13563,0.075169555"
       not_jump="true"
       sort_points="true"
       interpolator_type="CentripetalCatmullRom"
       interpolator_beta="0.75"
       start_linecap_type="round"
       linejoin_type="spiro"
       miter_limit="4"
       scale_width="1"
       end_linecap_type="round" />
    <inkscape:path-effect
       effect="simplify"
       id="path-effect232"
       is_visible="true"
       lpeversion="1"
       steps="1"
       threshold="0.0028332064"
       smooth_angles="0"
       helper_size="0"
       simplify_individual_paths="false"
       simplify_just_coalesce="false"
       step="1" />
    <inkscape:path-effect
       effect="powerstroke"
       id="path-effect227"
       is_visible="true"
       lpeversion="1"
       offset_points="2.1868266,0.075169555"
       not_jump="true"
       sort_points="true"
       interpolator_type="CentripetalCatmullRom"
       interpolator_beta="0.75"
       start_linecap_type="round"
       linejoin_type="spiro"
       miter_limit="4"
       scale_width="1"
       end_linecap_type="round" />
    <inkscape:path-effect
       effect="simplify"
       id="path-effect225"
       is_visible="true"
       lpeversion="1"
       steps="1"
       threshold="0.0028332064"
       smooth_angles="0"
       helper_size="0"
       simplify_individual_paths="false"
       simplify_just_coalesce="false"
       step="1" />
    <inkscape:path-effect
       effect="powerstroke"
       id="path-effect166"
       is_visible="true"
       lpeversion="1"
       offset_points="1.9637935,0.075169555"
       not_jump="true"
       sort_points="true"
       interpolator_type="CentripetalCatmullRom"
       interpolator_beta="0.75"
       start_linecap_type="round"
       linejoin_type="spiro"
       miter_limit="4"
       scale_width="1"
       end_linecap_type="round" />
    <inkscape:path-effect
       effect="simplify"
       id="path-effect164"
       is_visible="true"
       lpeversion="1"
       steps="1"
       threshold="0.0028332064"
       smooth_angles="0"
       helper_size="0"
       simplify_individual_paths="false"
       simplify_just_coalesce="false"
       step="1" />
    <inkscape:path-effect
       effect="powerstroke"
       id="path-effect159"
       is_visible="true"
       lpeversion="1"
       offset_points="2.2611036,0.075169555"
       not_jump="true"
       sort_points="true"
       interpolator_type="CentripetalCatmullRom"
       interpolator_beta="0.75"
       start_linecap_type="round"
       linejoin_type="spiro"
       miter_limit="4"
       scale_width="1"
       end_linecap_type="round" />
    <inkscape:path-effect
       effect="simplify"
       id="path-effect157"
       is_visible="true"
       lpeversion="1"
       steps="1"
       threshold="0.0028332064"
       smooth_angles="0"
       helper_size="0"
       simplify_individual_paths="false"
       simplify_just_coalesce="false"
       step="1" />
    <inkscape:path-effect
       effect="powerstroke"
       id="path-effect152"
       is_visible="true"
       lpeversion="1"
       offset_points="2.826981,0.075169555"
       not_jump="true"
       sort_points="true"
       interpolator_type="CentripetalCatmullRom"
       interpolator_beta="0.75"
       start_linecap_type="round"
       linejoin_type="spiro"
       miter_limit="4"
       scale_width="1"
       end_linecap_type="round" />
    <inkscape:path-effect
       effect="simplify"
       id="path-effect150"
       is_visible="true"
       lpeversion="1"
       steps="1"
       threshold="0.0028332064"
       smooth_angles="0"
       helper_size="0"
       simplify_individual_paths="false"
       simplify_just_coalesce="false"
       step="1" />
    <inkscape:path-effect
       effect="powerstroke"
       id="path-effect145"
       is_visible="true"
       lpeversion="1"
       offset_points="3.8374447,0.075169555"
       not_jump="true"
       sort_points="true"
       interpolator_type="CentripetalCatmullRom"
       interpolator_beta="0.75"
       start_linecap_type="round"
       linejoin_type="spiro"
       miter_limit="4"
       scale_width="1"
       end_linecap_type="round" />
    <inkscape:path-effect
       effect="simplify"
       id="path-effect143"
       is_visible="true"
       lpeversion="1"
       steps="1"
       threshold="0.0028332064"
       smooth_angles="0"
       helper_size="0"
       simplify_individual_paths="false"
       simplify_just_coalesce="false"
       step="1" />
    <inkscape:path-effect
       effect="powerstroke"
       id="path-effect138"
       is_visible="true"
       lpeversion="1"
       offset_points="2.6880907,0.075169555"
       not_jump="true"
       sort_points="true"
       interpolator_type="CentripetalCatmullRom"
       interpolator_beta="0.75"
       start_linecap_type="round"
       linejoin_type="spiro"
       miter_limit="4"
       scale_width="1"
       end_linecap_type="round" />
    <inkscape:path-effect
       effect="simplify"
       id="path-effect136"
       is_visible="true"
       lpeversion="1"
       steps="1"
       threshold="0.0028332064"
       smooth_angles="0"
       helper_size="0"
       simplify_individual_paths="false"
       simplify_just_coalesce="false"
       step="1" />
    <inkscape:path-effect
       effect="powerstroke"
       id="path-effect131"
       is_visible="true"
       lpeversion="1"
       offset_points="1.9940581,0.075169555"
       not_jump="true"
       sort_points="true"
       interpolator_type="CentripetalCatmullRom"
       interpolator_beta="0.75"
       start_linecap_type="round"
       linejoin_type="spiro"
       miter_limit="4"
       scale_width="1"
       end_linecap_type="round" />
    <inkscape:path-effect
       effect="simplify"
       id="path-effect129"
       is_visible="true"
       lpeversion="1"
       steps="1"
       threshold="0.0028332064"
       smooth_angles="0"
       helper_size="0"
       simplify_individual_paths="false"
       simplify_just_coalesce="false"
       step="1" />
  </defs>
  <sodipodi:namedview
     id="base"
     pagecolor="#ffffff"
     bordercolor="#666666"
     borderopacity="1.0"
     inkscape:pageopacity="0.0"
     inkscape:pageshadow="2"
     inkscape:zoom="15.839192"
     inkscape:cx="1.3258252"
     inkscape:cy="16.351844"
     inkscape:document-units="mm"
     inkscape:current-layer="layer1"
     showgrid="false"
     fit-margin-top="0"
     fit-margin-left="0"
     fit-margin-right="0"
     fit-margin-bottom="0"
     inkscape:window-width="1920"
     inkscape:window-height="1057"
     inkscape:window-x="1072"
     inkscape:window-y="321"
     inkscape:window-maximized="1"
     showguides="true"
     inkscape:guide-bbox="true"
     inkscape:snap-bbox="true"
     inkscape:bbox-nodes="true"
     inkscape:snap-nodes="false"
     inkscape:snap-others="false"
     inkscape:snap-page="true"
     inkscape:snap-grids="false"
     inkscape:snap-to-guides="false"
     inkscape:snap-global="false"
     inkscape:pagecheckerboard="0"
     inkscape:showpageshadow="2"
     inkscape:deskcolor="#d1d1d1">
    <sodipodi:guide
       position="-6.1806075,9.4988692"
       orientation="0,1"
       id="guide816"
       inkscape:locked="false" />
    <sodipodi:guide
       position="-4.4101636,10.646923"
       orientation="0,1"
       id="guide818"
       inkscape:locked="false" />
    <sodipodi:guide
       position="2.7595724,11.09577"
       orientation="1,0"
       id="guide820"
       inkscape:locked="false" />
    <sodipodi:guide
       position="3.6572659,10.942217"
       orientation="1,0"
       id="guide822"
       inkscape:locked="false" />
    <sodipodi:guide
       position="-0.051625511,9.7492299"
       orientation="1,0"
       id="guide1853"
       inkscape:locked="false" />
    <sodipodi:guide
       position="-2.3720169,3.0175835"
       orientation="0,1"
       id="guide1855"
       inkscape:locked="false" />
    <sodipodi:guide
       position="2.6893996,7.3941215"
       orientation="0,-1"
       id="guide176"
       inkscape:locked="false" />
  </sodipodi:namedview>
  <metadata
     id="metadata1678">
    <rdf:RDF>
      <cc:Work
         rdf:about="">
        <dc:format>image/svg+xml</dc:format>
        <dc:type
           rdf:resource="http://purl.org/dc/dcmitype/StillImage" />
      </cc:Work>
    </rdf:RDF>
  </metadata>
  <g
     inkscape:label="Layer 1"
     inkscape:groupmode="layer"
     id="layer1"
     transform="translate(17.028496,-147.22856)">
    <path
       d="m -16.99467,150.11395 c 0.08051,0.25009 0.146667,0.53309 0.218292,0.99738 0.04053,0.26276 0.09732,0.69512 0.163625,1.02982 0.08524,0.44925 0.191644,0.98022 0.362267,1.48613 0.02096,0.0621 0.04346,0.12568 0.06766,0.19022 0.02626,0.0622 0.06238,0.1538 0.102315,0.22994 0.01961,0.0374 0.04268,0.0764 0.07044,0.1142 0.02656,0.0361 0.05799,0.0719 0.09586,0.10457 0.0057,0.005 0.01152,0.01 0.01812,0.0131 0.0066,0.003 0.01378,0.006 0.02095,0.008 0.01414,0.004 0.02951,0.007 0.04577,0.007 0.01627,4.1e-4 0.03302,-0.002 0.04964,-0.007 0.01651,-0.005 0.03146,-0.0127 0.04465,-0.0223 0.01294,-0.009 0.0235,-0.0201 0.03206,-0.0309 0.01651,-0.0209 0.02678,-0.0436 0.03356,-0.063 0.0068,-0.0195 0.01139,-0.0394 0.01473,-0.0577 0.0064,-0.0348 0.0098,-0.0735 0.01293,-0.10084 0.0016,-0.0145 0.0032,-0.0262 0.005,-0.0354 0.0017,-0.009 0.0037,-0.0141 0.003,-0.0115 l 0.0069,-0.0296 c 0.01158,-0.11821 0.0207,-0.2369 0.03464,-0.35385 0.01361,-0.11428 0.03179,-0.22639 0.06137,-0.33545 0.138732,-0.61308 0.335573,-1.20987 0.561535,-1.79886 0.0035,-0.009 0.0056,-0.0148 0.0084,-0.0214 0.0028,-0.006 0.0058,-0.0132 0.0091,-0.0197 0.0032,-0.007 0.0063,-0.0123 0.009,-0.0166 0.0026,-0.004 0.0047,-0.007 0.0036,-0.005 -4.56e-4,7.1e-4 -0.0022,0.003 -0.0057,0.007 -0.0032,0.003 -0.01038,0.01 -0.02188,0.0155 -0.006,0.003 -0.01396,0.006 -0.02371,0.009 -0.0099,0.002 -0.02168,0.004 -0.03477,0.003 -0.01327,-9e-4 -0.02637,-0.004 -0.03865,-0.01 -0.01216,-0.005 -0.02207,-0.0123 -0.02984,-0.0192 -0.01491,-0.0133 -0.02226,-0.0271 -0.02537,-0.0338 -0.0033,-0.007 -0.0046,-0.0123 -0.0049,-0.0131 -8.43e-4,-0.003 2.64e-4,0.003 4.02e-4,0.0152 5.5e-5,0.005 5.41e-4,0.009 0.0012,0.0142 0.0634,0.45527 0.117496,0.86439 0.208269,1.2829 0.04001,0.18077 0.07829,0.35136 0.12309,0.52234 0.06102,0.23287 0.136731,0.47628 0.242897,0.71298 0.006,0.0128 0.01366,0.0294 0.02153,0.0458 0.0082,0.017 0.01773,0.0365 0.02843,0.0567 0.01062,0.02 0.02271,0.0414 0.03605,0.0625 0.0132,0.0208 0.02845,0.0426 0.04568,0.0628 0.01687,0.0198 0.03812,0.0412 0.06396,0.0588 0.01316,0.009 0.02841,0.0175 0.04572,0.0242 0.01743,0.007 0.03714,0.0118 0.0587,0.0132 0.02176,0.001 0.04388,-8.4e-4 0.06561,-0.007 0.02159,-0.006 0.04103,-0.0161 0.0582,-0.028 0.03356,-0.0233 0.05871,-0.0547 0.07812,-0.0867 0.07546,-0.14434 0.113327,-0.28857 0.138629,-0.42572 0.02614,-0.14172 0.03996,-0.27855 0.05899,-0.40313 0.0206,-0.18338 0.05815,-0.35872 0.09942,-0.52679 0.04211,-0.17147 0.09459,-0.35939 0.136704,-0.53086 0.170346,-0.64919 0.518922,-1.57042 0.619548,-1.85265 a 0.12870829,0.12870829 90 0 0 -0.242466,-0.0864 c -0.09574,0.26853 -0.453091,1.21153 -0.627803,1.87511 -0.04642,0.18685 -0.09205,0.34773 -0.138002,0.53278 -0.04257,0.17238 -0.08334,0.36015 -0.105255,0.55462 -0.01981,0.1279 -0.03373,0.26242 -0.05735,0.39002 -0.02309,0.12479 -0.05499,0.24073 -0.109471,0.34544 -0.0035,0.005 -0.0058,0.005 3.9e-4,3e-4 0.0035,-0.002 0.0092,-0.006 0.01715,-0.008 0.0081,-0.002 0.01657,-0.003 0.0248,-0.003 0.008,5.4e-4 0.01428,0.002 0.01839,0.004 0.0041,0.002 0.0059,0.003 0.0061,0.003 4.69e-4,3.4e-4 -0.005,-0.004 -0.01201,-0.0121 -0.0072,-0.008 -0.01546,-0.0197 -0.02437,-0.0337 -0.0088,-0.0138 -0.0176,-0.0291 -0.02612,-0.045 -0.0085,-0.0159 -0.01651,-0.0319 -0.02387,-0.0471 -0.0074,-0.0152 -0.014,-0.0294 -0.02008,-0.042 -0.0974,-0.2161 -0.16948,-0.44438 -0.229383,-0.66982 -0.04402,-0.16567 -0.08201,-0.33157 -0.12282,-0.51188 -0.08982,-0.40497 -0.144739,-0.8009 -0.211296,-1.25697 -9.17e-4,-0.0178 -0.0029,-0.036 -0.0068,-0.0532 -0.0023,-0.0101 -0.0059,-0.0225 -0.01189,-0.0355 -0.0058,-0.0125 -0.01605,-0.0306 -0.03417,-0.0468 -0.0094,-0.008 -0.02094,-0.0164 -0.03481,-0.0225 -0.01399,-0.006 -0.02886,-0.01 -0.04395,-0.0109 -0.01491,-0.001 -0.02856,6.2e-4 -0.04038,0.004 -0.01167,0.003 -0.02158,0.007 -0.02958,0.0111 -0.01547,0.008 -0.02686,0.0176 -0.03426,0.0247 -0.0077,0.007 -0.01392,0.0148 -0.01872,0.0211 -0.0094,0.0123 -0.01713,0.0253 -0.0231,0.0363 -0.0062,0.0114 -0.01178,0.0231 -0.01666,0.0342 -0.0049,0.0111 -0.0094,0.0222 -0.01328,0.0326 -0.0039,0.0103 -0.0073,0.0205 -0.01019,0.0299 -0.223618,0.59164 -0.421135,1.20065 -0.558675,1.82444 -0.03083,0.12023 -0.04881,0.24464 -0.06136,0.36463 -0.0125,0.11952 -0.01989,0.23595 -0.02911,0.34794 -0.0036,0.0131 -0.0059,0.0258 -0.0075,0.0364 -0.0025,0.0165 -0.0042,0.0339 -0.0055,0.0494 -0.003,0.0349 -0.0046,0.0608 -0.0085,0.0861 -0.0018,0.012 -0.0037,0.0202 -0.0054,0.0258 -0.0017,0.006 -0.0023,0.005 9.83e-4,0.001 0.0018,-0.002 0.0049,-0.005 0.0097,-0.009 0.0049,-0.003 0.0108,-0.007 0.0174,-0.008 0.0066,-0.002 0.01251,-0.002 0.01697,-0.002 0.0044,1.8e-4 0.0068,9.4e-4 0.0071,0.001 0.0064,0.004 0.01324,0.007 0.02011,0.009 0.0069,0.003 0.01325,0.007 0.01896,0.0114 -0.02445,-0.0203 -0.046,-0.0436 -0.06551,-0.0691 -0.0205,-0.0268 -0.03873,-0.0562 -0.0555,-0.087 -0.03586,-0.0658 -0.06747,-0.14327 -0.09615,-0.2089 -0.0218,-0.0579 -0.04371,-0.1192 -0.06415,-0.17932 -0.167016,-0.4911 -0.271561,-1.00949 -0.356858,-1.45965 -0.06545,-0.33074 -0.119996,-0.75053 -0.161652,-1.0223 -0.07219,-0.47097 -0.140041,-0.76545 -0.224726,-1.0285 a 0.10032395,0.10032395 90 0 0 -0.190994,0.0615 z"
       id="path-1"
       inkscape:path-effect="#path-effect570;#path-effect572"
       inkscape:original-d="m -16.899173,150.08321 c 0.169123,0.51576 0.222283,1.0605 0.308088,1.59419 0.08053,0.50089 0.174899,0.99509 0.306113,1.48591 0.06082,0.22751 0.227043,0.83476 0.421645,1.01116 0.01732,0.0157 0.05895,0.0381 0.06813,0.0166 0.08196,-0.19189 0.06785,-0.53434 0.107634,-0.74603 0.101747,-0.54145 0.25952,-1.05778 0.438432,-1.5784 0.02337,-0.068 0.198201,-0.5841 0.233041,-0.57957 0.01473,0.002 0.08296,0.5503 0.09282,0.61155 0.0932,0.57874 0.208096,1.15671 0.398934,1.71212 0.01994,0.058 0.217053,0.58322 0.32685,0.46858 0.181109,-0.18909 0.208096,-0.87922 0.265627,-1.12753 0.06637,-0.28646 0.138121,-0.57173 0.215266,-0.85548 0.164738,-0.60593 0.391781,-1.19395 0.602351,-1.78494"
       style="fill:#000000;fill-rule:nonzero;stroke:none" />
  </g>
</svg>
