<?xml version="1.0" encoding="UTF-8" standalone="no"?>
<!-- Created with Inkscape (http://www.inkscape.org/) -->

<svg
   width="4mm"
   height="10mm"
   viewBox="0 0 4.0000001 9.9999994"
   version="1.1"
   id="svg1681"
   inkscape:version="1.2.1 (9c6d41e410, 2022-07-14)"
   sodipodi:docname="lower_w_14.svg"
   inkscape:export-filename="..\..\..\..\Downloads\lower a diff canvas resize 3.0.png"
   inkscape:export-xdpi="96"
   inkscape:export-ydpi="96"
   xmlns:inkscape="http://www.inkscape.org/namespaces/inkscape"
   xmlns:sodipodi="http://sodipodi.sourceforge.net/DTD/sodipodi-0.dtd"
   xmlns="http://www.w3.org/2000/svg"
   xmlns:svg="http://www.w3.org/2000/svg"
   xmlns:rdf="http://www.w3.org/1999/02/22-rdf-syntax-ns#"
   xmlns:cc="http://creativecommons.org/ns#"
   xmlns:dc="http://purl.org/dc/elements/1.1/">
  <defs
     id="defs1675">
    <inkscape:path-effect
       effect="powerstroke"
       id="path-effect957"
       is_visible="true"
       lpeversion="1"
       offset_points="1.3671707,0.098121716 | 6.5417178,0.11892058"
       not_jump="true"
       sort_points="true"
       interpolator_type="CentripetalCatmullRom"
       interpolator_beta="0.75"
       start_linecap_type="round"
       linejoin_type="spiro"
       miter_limit="4"
       scale_width="1"
       end_linecap_type="round" />
    <inkscape:path-effect
       effect="simplify"
       id="path-effect955"
       is_visible="true"
       lpeversion="1"
       steps="1"
       threshold="0.0047745358"
       smooth_angles="0"
       helper_size="0"
       simplify_individual_paths="false"
       simplify_just_coalesce="false"
       step="1" />
    <inkscape:path-effect
       effect="powerstroke"
       id="path-effect630"
       is_visible="true"
       lpeversion="1"
       offset_points="2.6369921,0.11965466 | 7.546399,0.15268816 | 8.7564688,0.13066583"
       not_jump="true"
       sort_points="true"
       interpolator_type="CentripetalCatmullRom"
       interpolator_beta="0.75"
       start_linecap_type="round"
       linejoin_type="spiro"
       miter_limit="4"
       scale_width="1"
       end_linecap_type="round" />
    <inkscape:path-effect
       effect="simplify"
       id="path-effect628"
       is_visible="true"
       lpeversion="1"
       steps="1"
       threshold="0.0047745358"
       smooth_angles="0"
       helper_size="0"
       simplify_individual_paths="false"
       simplify_just_coalesce="false"
       step="1" />
    <inkscape:path-effect
       effect="powerstroke"
       id="path-effect572"
       is_visible="true"
       lpeversion="1"
       offset_points="1.8843702,0.10032395 | 8.4202101,0.12870829"
       not_jump="true"
       sort_points="true"
       interpolator_type="CentripetalCatmullRom"
       interpolator_beta="0.75"
       start_linecap_type="round"
       linejoin_type="spiro"
       miter_limit="4"
       scale_width="1"
       end_linecap_type="round" />
    <inkscape:path-effect
       effect="simplify"
       id="path-effect570"
       is_visible="true"
       lpeversion="1"
       steps="1"
       threshold="0.0047745358"
       smooth_angles="0"
       helper_size="0"
       simplify_individual_paths="false"
       simplify_just_coalesce="false"
       step="1" />
    <inkscape:path-effect
       effect="powerstroke"
       id="path-effect516"
       is_visible="true"
       lpeversion="1"
       offset_points="2.2083742,0.10644126"
       not_jump="true"
       sort_points="true"
       interpolator_type="CentripetalCatmullRom"
       interpolator_beta="0.75"
       start_linecap_type="round"
       linejoin_type="spiro"
       miter_limit="4"
       scale_width="1"
       end_linecap_type="round" />
    <inkscape:path-effect
       effect="simplify"
       id="path-effect514"
       is_visible="true"
       lpeversion="1"
       steps="1"
       threshold="0.0047745358"
       smooth_angles="0"
       helper_size="0"
       simplify_individual_paths="false"
       simplify_just_coalesce="false"
       step="1" />
    <inkscape:path-effect
       effect="powerstroke"
       id="path-effect462"
       is_visible="true"
       lpeversion="1"
       offset_points="1.7675555,0.11476081 | 7.4858936,0.13727253 | 10.223648,0.15611385"
       not_jump="true"
       sort_points="true"
       interpolator_type="CentripetalCatmullRom"
       interpolator_beta="0.75"
       start_linecap_type="round"
       linejoin_type="spiro"
       miter_limit="4"
       scale_width="1"
       end_linecap_type="round" />
    <inkscape:path-effect
       effect="simplify"
       id="path-effect460"
       is_visible="true"
       lpeversion="1"
       steps="1"
       threshold="0.0047745358"
       smooth_angles="0"
       helper_size="0"
       simplify_individual_paths="false"
       simplify_just_coalesce="false"
       step="1" />
    <inkscape:path-effect
       effect="powerstroke"
       id="path-effect410"
       is_visible="true"
       lpeversion="1"
       offset_points="1.3069255,0.10130272 | 7.4061505,0.11720774"
       not_jump="true"
       sort_points="true"
       interpolator_type="CentripetalCatmullRom"
       interpolator_beta="0.75"
       start_linecap_type="round"
       linejoin_type="spiro"
       miter_limit="4"
       scale_width="1"
       end_linecap_type="round" />
    <inkscape:path-effect
       effect="simplify"
       id="path-effect408"
       is_visible="true"
       lpeversion="1"
       steps="1"
       threshold="0.0047745358"
       smooth_angles="0"
       helper_size="0"
       simplify_individual_paths="false"
       simplify_just_coalesce="false"
       step="1" />
    <inkscape:path-effect
       effect="powerstroke"
       id="path-effect360"
       is_visible="true"
       lpeversion="1"
       offset_points="1.7549587,0.10986696 | 6.4945854,0.13947476 | 8.1439231,0.12381443"
       not_jump="true"
       sort_points="true"
       interpolator_type="CentripetalCatmullRom"
       interpolator_beta="0.75"
       start_linecap_type="round"
       linejoin_type="spiro"
       miter_limit="4"
       scale_width="1"
       end_linecap_type="round" />
    <inkscape:path-effect
       effect="simplify"
       id="path-effect358"
       is_visible="true"
       lpeversion="1"
       steps="1"
       threshold="0.0047745358"
       smooth_angles="0"
       helper_size="0"
       simplify_individual_paths="false"
       simplify_just_coalesce="false"
       step="1" />
    <inkscape:path-effect
       effect="powerstroke"
       id="path-effect312"
       is_visible="true"
       lpeversion="1"
       offset_points="1.3996183,0.096408868"
       not_jump="true"
       sort_points="true"
       interpolator_type="CentripetalCatmullRom"
       interpolator_beta="0.75"
       start_linecap_type="round"
       linejoin_type="spiro"
       miter_limit="4"
       scale_width="1"
       end_linecap_type="round" />
    <inkscape:path-effect
       effect="simplify"
       id="path-effect310"
       is_visible="true"
       lpeversion="1"
       steps="1"
       threshold="0.0047745358"
       smooth_angles="0"
       helper_size="0"
       simplify_individual_paths="false"
       simplify_just_coalesce="false"
       step="1" />
    <inkscape:path-effect
       effect="powerstroke"
       id="path-effect305"
       is_visible="true"
       lpeversion="1"
       offset_points="1.530989,0.094206635 | 9.5526397,0.12699544"
       not_jump="true"
       sort_points="true"
       interpolator_type="CentripetalCatmullRom"
       interpolator_beta="0.75"
       start_linecap_type="round"
       linejoin_type="spiro"
       miter_limit="4"
       scale_width="1"
       end_linecap_type="round" />
    <inkscape:path-effect
       effect="simplify"
       id="path-effect303"
       is_visible="true"
       lpeversion="1"
       steps="1"
       threshold="0.0047745358"
       smooth_angles="0"
       helper_size="0"
       simplify_individual_paths="false"
       simplify_just_coalesce="false"
       step="1" />
    <inkscape:path-effect
       effect="powerstroke"
       id="path-effect298"
       is_visible="true"
       lpeversion="1"
       offset_points="1.3734686,0.11280327 | 8.9058734,0.14412392"
       not_jump="true"
       sort_points="true"
       interpolator_type="CentripetalCatmullRom"
       interpolator_beta="0.75"
       start_linecap_type="round"
       linejoin_type="spiro"
       miter_limit="4"
       scale_width="1"
       end_linecap_type="round" />
    <inkscape:path-effect
       effect="simplify"
       id="path-effect296"
       is_visible="true"
       lpeversion="1"
       steps="1"
       threshold="0.0047745358"
       smooth_angles="0"
       helper_size="0"
       simplify_individual_paths="false"
       simplify_just_coalesce="false"
       step="1" />
    <inkscape:path-effect
       effect="powerstroke"
       id="path-effect1424"
       is_visible="true"
       lpeversion="1"
       offset_points="3.2337937,0.1081348 | 7.9295992,0.12199285"
       not_jump="true"
       sort_points="true"
       interpolator_type="CentripetalCatmullRom"
       interpolator_beta="0.75"
       start_linecap_type="round"
       linejoin_type="spiro"
       miter_limit="4"
       scale_width="1"
       end_linecap_type="round" />
    <inkscape:path-effect
       effect="simplify"
       id="path-effect1422"
       is_visible="true"
       lpeversion="1"
       steps="1"
       threshold="0.0035951417"
       smooth_angles="0"
       helper_size="0"
       simplify_individual_paths="false"
       simplify_just_coalesce="false"
       step="1" />
    <inkscape:path-effect
       effect="powerstroke"
       id="path-effect502"
       is_visible="true"
       lpeversion="1"
       offset_points="3.0091841,0.21607495 | 7.3602657,0.17554228 | 9.4159651,0.20236537"
       not_jump="true"
       sort_points="true"
       interpolator_type="CentripetalCatmullRom"
       interpolator_beta="0.75"
       start_linecap_type="round"
       linejoin_type="spiro"
       miter_limit="4"
       scale_width="1"
       end_linecap_type="round" />
    <inkscape:path-effect
       effect="simplify"
       id="path-effect500"
       is_visible="true"
       lpeversion="1"
       steps="1"
       threshold="0.0035951417"
       smooth_angles="0"
       helper_size="0"
       simplify_individual_paths="false"
       simplify_just_coalesce="false"
       step="1" />
    <inkscape:path-effect
       effect="powerstroke"
       id="path-effect241"
       is_visible="true"
       lpeversion="1"
       offset_points="2.6879454,0.34086734"
       not_jump="true"
       sort_points="true"
       interpolator_type="CentripetalCatmullRom"
       interpolator_beta="0.75"
       start_linecap_type="round"
       linejoin_type="spiro"
       miter_limit="4"
       scale_width="1"
       end_linecap_type="round" />
    <inkscape:path-effect
       effect="simplify"
       id="path-effect239"
       is_visible="true"
       lpeversion="1"
       steps="1"
       threshold="0.0028332064"
       smooth_angles="0"
       helper_size="0"
       simplify_individual_paths="false"
       simplify_just_coalesce="false"
       step="1" />
    <inkscape:path-effect
       effect="powerstroke"
       id="path-effect234"
       is_visible="true"
       lpeversion="1"
       offset_points="2.13563,0.075169555"
       not_jump="true"
       sort_points="true"
       interpolator_type="CentripetalCatmullRom"
       interpolator_beta="0.75"
       start_linecap_type="round"
       linejoin_type="spiro"
       miter_limit="4"
       scale_width="1"
       end_linecap_type="round" />
    <inkscape:path-effect
       effect="simplify"
       id="path-effect232"
       is_visible="true"
       lpeversion="1"
       steps="1"
       threshold="0.0028332064"
       smooth_angles="0"
       helper_size="0"
       simplify_individual_paths="false"
       simplify_just_coalesce="false"
       step="1" />
    <inkscape:path-effect
       effect="powerstroke"
       id="path-effect227"
       is_visible="true"
       lpeversion="1"
       offset_points="2.1868266,0.075169555"
       not_jump="true"
       sort_points="true"
       interpolator_type="CentripetalCatmullRom"
       interpolator_beta="0.75"
       start_linecap_type="round"
       linejoin_type="spiro"
       miter_limit="4"
       scale_width="1"
       end_linecap_type="round" />
    <inkscape:path-effect
       effect="simplify"
       id="path-effect225"
       is_visible="true"
       lpeversion="1"
       steps="1"
       threshold="0.0028332064"
       smooth_angles="0"
       helper_size="0"
       simplify_individual_paths="false"
       simplify_just_coalesce="false"
       step="1" />
    <inkscape:path-effect
       effect="powerstroke"
       id="path-effect166"
       is_visible="true"
       lpeversion="1"
       offset_points="1.9637935,0.075169555"
       not_jump="true"
       sort_points="true"
       interpolator_type="CentripetalCatmullRom"
       interpolator_beta="0.75"
       start_linecap_type="round"
       linejoin_type="spiro"
       miter_limit="4"
       scale_width="1"
       end_linecap_type="round" />
    <inkscape:path-effect
       effect="simplify"
       id="path-effect164"
       is_visible="true"
       lpeversion="1"
       steps="1"
       threshold="0.0028332064"
       smooth_angles="0"
       helper_size="0"
       simplify_individual_paths="false"
       simplify_just_coalesce="false"
       step="1" />
    <inkscape:path-effect
       effect="powerstroke"
       id="path-effect159"
       is_visible="true"
       lpeversion="1"
       offset_points="2.2611036,0.075169555"
       not_jump="true"
       sort_points="true"
       interpolator_type="CentripetalCatmullRom"
       interpolator_beta="0.75"
       start_linecap_type="round"
       linejoin_type="spiro"
       miter_limit="4"
       scale_width="1"
       end_linecap_type="round" />
    <inkscape:path-effect
       effect="simplify"
       id="path-effect157"
       is_visible="true"
       lpeversion="1"
       steps="1"
       threshold="0.0028332064"
       smooth_angles="0"
       helper_size="0"
       simplify_individual_paths="false"
       simplify_just_coalesce="false"
       step="1" />
    <inkscape:path-effect
       effect="powerstroke"
       id="path-effect152"
       is_visible="true"
       lpeversion="1"
       offset_points="2.826981,0.075169555"
       not_jump="true"
       sort_points="true"
       interpolator_type="CentripetalCatmullRom"
       interpolator_beta="0.75"
       start_linecap_type="round"
       linejoin_type="spiro"
       miter_limit="4"
       scale_width="1"
       end_linecap_type="round" />
    <inkscape:path-effect
       effect="simplify"
       id="path-effect150"
       is_visible="true"
       lpeversion="1"
       steps="1"
       threshold="0.0028332064"
       smooth_angles="0"
       helper_size="0"
       simplify_individual_paths="false"
       simplify_just_coalesce="false"
       step="1" />
    <inkscape:path-effect
       effect="powerstroke"
       id="path-effect145"
       is_visible="true"
       lpeversion="1"
       offset_points="3.8374447,0.075169555"
       not_jump="true"
       sort_points="true"
       interpolator_type="CentripetalCatmullRom"
       interpolator_beta="0.75"
       start_linecap_type="round"
       linejoin_type="spiro"
       miter_limit="4"
       scale_width="1"
       end_linecap_type="round" />
    <inkscape:path-effect
       effect="simplify"
       id="path-effect143"
       is_visible="true"
       lpeversion="1"
       steps="1"
       threshold="0.0028332064"
       smooth_angles="0"
       helper_size="0"
       simplify_individual_paths="false"
       simplify_just_coalesce="false"
       step="1" />
    <inkscape:path-effect
       effect="powerstroke"
       id="path-effect138"
       is_visible="true"
       lpeversion="1"
       offset_points="2.6880907,0.075169555"
       not_jump="true"
       sort_points="true"
       interpolator_type="CentripetalCatmullRom"
       interpolator_beta="0.75"
       start_linecap_type="round"
       linejoin_type="spiro"
       miter_limit="4"
       scale_width="1"
       end_linecap_type="round" />
    <inkscape:path-effect
       effect="simplify"
       id="path-effect136"
       is_visible="true"
       lpeversion="1"
       steps="1"
       threshold="0.0028332064"
       smooth_angles="0"
       helper_size="0"
       simplify_individual_paths="false"
       simplify_just_coalesce="false"
       step="1" />
    <inkscape:path-effect
       effect="powerstroke"
       id="path-effect131"
       is_visible="true"
       lpeversion="1"
       offset_points="1.9940581,0.075169555"
       not_jump="true"
       sort_points="true"
       interpolator_type="CentripetalCatmullRom"
       interpolator_beta="0.75"
       start_linecap_type="round"
       linejoin_type="spiro"
       miter_limit="4"
       scale_width="1"
       end_linecap_type="round" />
    <inkscape:path-effect
       effect="simplify"
       id="path-effect129"
       is_visible="true"
       lpeversion="1"
       steps="1"
       threshold="0.0028332064"
       smooth_angles="0"
       helper_size="0"
       simplify_individual_paths="false"
       simplify_just_coalesce="false"
       step="1" />
  </defs>
  <sodipodi:namedview
     id="base"
     pagecolor="#ffffff"
     bordercolor="#666666"
     borderopacity="1.0"
     inkscape:pageopacity="0.0"
     inkscape:pageshadow="2"
     inkscape:zoom="15.839192"
     inkscape:cx="1.420527"
     inkscape:cy="16.28871"
     inkscape:document-units="mm"
     inkscape:current-layer="layer1"
     showgrid="false"
     fit-margin-top="0"
     fit-margin-left="0"
     fit-margin-right="0"
     fit-margin-bottom="0"
     inkscape:window-width="1920"
     inkscape:window-height="1057"
     inkscape:window-x="1072"
     inkscape:window-y="321"
     inkscape:window-maximized="1"
     showguides="true"
     inkscape:guide-bbox="true"
     inkscape:snap-bbox="true"
     inkscape:bbox-nodes="true"
     inkscape:snap-nodes="false"
     inkscape:snap-others="false"
     inkscape:snap-page="true"
     inkscape:snap-grids="false"
     inkscape:snap-to-guides="false"
     inkscape:snap-global="false"
     inkscape:pagecheckerboard="0"
     inkscape:showpageshadow="2"
     inkscape:deskcolor="#d1d1d1">
    <sodipodi:guide
       position="-6.1806075,9.4988692"
       orientation="0,1"
       id="guide816"
       inkscape:locked="false" />
    <sodipodi:guide
       position="-4.4101636,10.646923"
       orientation="0,1"
       id="guide818"
       inkscape:locked="false" />
    <sodipodi:guide
       position="2.7595724,11.09577"
       orientation="1,0"
       id="guide820"
       inkscape:locked="false" />
    <sodipodi:guide
       position="-0.051625511,9.7492299"
       orientation="1,0"
       id="guide1853"
       inkscape:locked="false" />
    <sodipodi:guide
       position="-2.3720169,3.0175835"
       orientation="0,1"
       id="guide1855"
       inkscape:locked="false" />
    <sodipodi:guide
       position="2.6893996,7.3941215"
       orientation="0,-1"
       id="guide176"
       inkscape:locked="false" />
  </sodipodi:namedview>
  <metadata
     id="metadata1678">
    <rdf:RDF>
      <cc:Work
         rdf:about="">
        <dc:format>image/svg+xml</dc:format>
        <dc:type
           rdf:resource="http://purl.org/dc/dcmitype/StillImage" />
      </cc:Work>
    </rdf:RDF>
  </metadata>
  <g
     inkscape:label="Layer 1"
     inkscape:groupmode="layer"
     id="layer1"
     transform="translate(17.028496,-147.22856)">
    <path
       d="m -17.527288,150.16765 c 0.03647,0.23247 0.114896,0.49311 0.306056,0.87737 0.122021,0.24528 0.278246,0.51215 0.409738,0.80224 0.07043,0.16281 0.130169,0.3336 0.189559,0.5184 0.02019,0.0628 0.03985,0.1257 0.06098,0.19359 0.06519,0.20947 0.148283,0.48335 0.251768,0.73399 0.02979,0.0778 0.07123,0.19835 0.117673,0.29729 0.02341,0.0499 0.05094,0.10119 0.08456,0.15056 0.03261,0.0479 0.07143,0.0947 0.11873,0.13716 0.02442,0.0215 0.05041,0.0395 0.07891,0.0514 0.01432,0.006 0.02964,0.0106 0.04583,0.0131 0.01618,0.002 0.03285,0.003 0.04965,4.4e-4 0.0342,-0.005 0.06312,-0.0196 0.08592,-0.039 0.02186,-0.0185 0.03755,-0.0406 0.04884,-0.0615 0.01129,-0.0209 0.01946,-0.0429 0.02539,-0.0641 0.0059,-0.0212 0.01,-0.043 0.01252,-0.0643 0.0025,-0.0212 0.0036,-0.0426 0.0033,-0.0633 -2.04e-4,-0.0146 -0.0011,-0.0292 -0.0028,-0.0436 0.08371,-0.75175 0.193709,-1.50029 0.372075,-2.23222 2.1e-4,9.2e-4 0.0024,-0.004 0.0038,-0.007 0.0013,-0.003 0.0017,-0.002 -0.0016,0.002 -0.0015,0.002 -0.0044,0.006 -0.0089,0.0103 -0.0045,0.004 -0.01142,0.0101 -0.02119,0.0153 -0.01005,0.005 -0.02295,0.01 -0.0382,0.0115 -0.01547,0.002 -0.0303,-4.8e-4 -0.04348,-0.005 -0.0128,-0.004 -0.02259,-0.0103 -0.02944,-0.0155 -0.0068,-0.005 -0.01151,-0.0102 -0.01444,-0.0136 -0.0062,-0.007 -0.0075,-0.0105 -0.0079,-0.0112 -3.44e-4,-5.6e-4 2.77e-4,9.4e-4 0.0013,0.004 0.0011,0.003 0.0023,0.008 0.0038,0.0132 0.003,0.0113 0.0061,0.0251 0.0093,0.0409 0.0032,0.0159 0.0063,0.0322 0.0094,0.0489 0.0031,0.0163 0.0063,0.0334 0.0096,0.0485 0.0017,0.008 0.0035,0.0157 0.0056,0.0233 0.0011,0.004 0.0023,0.008 0.0038,0.0132 0.08101,0.39038 0.178165,0.76482 0.306767,1.12174 0.01113,0.0309 0.02248,0.0616 0.03405,0.0921 0.122944,0.32426 0.280888,0.65316 0.491241,0.96436 0.0062,0.0105 0.0171,0.0263 0.02918,0.0421 0.01198,0.0157 0.02556,0.0318 0.04039,0.0476 0.02841,0.0303 0.065,0.0632 0.106835,0.0874 0.02098,0.0121 0.04563,0.0235 0.07311,0.0303 0.02761,0.007 0.05994,0.01 0.09422,0.003 0.01707,-0.004 0.03385,-0.009 0.04993,-0.0178 0.01604,-0.008 0.03063,-0.0187 0.04371,-0.0308 0.02596,-0.0239 0.04474,-0.0528 0.05881,-0.0838 0.06581,-0.18272 0.100185,-0.36119 0.130222,-0.53033 0.03147,-0.1772 0.05715,-0.33679 0.101966,-0.49443 0.231029,-0.91534 0.436584,-1.78544 0.636344,-2.55512 0.02429,-0.0935 0.0442,-0.16865 0.05758,-0.21814 a 0.11892058,0.11892058 90 0 0 -0.22959,-0.0621 c -0.0139,0.0514 -0.03368,0.12393 -0.05923,0.21977 -0.201113,0.77314 -0.407367,1.64417 -0.637088,2.55328 -0.04821,0.16882 -0.07634,0.3434 -0.106816,0.51464 -0.03003,0.16874 -0.0616,0.32951 -0.116226,0.48233 -1.37e-4,-6.5e-4 -0.0021,-1.1e-4 0.0012,-0.003 0.0017,-0.002 0.0044,-0.004 0.0082,-0.006 0.0038,-0.002 0.0079,-0.003 0.01191,-0.004 0.0078,-0.002 0.01303,-4.5e-4 0.01301,-4.3e-4 -2.4e-5,1e-5 -0.0045,-0.001 -0.01113,-0.005 -0.01471,-0.008 -0.03325,-0.0236 -0.05222,-0.0437 -0.0092,-0.01 -0.01774,-0.0198 -0.02518,-0.0294 -0.0076,-0.01 -0.01359,-0.0185 -0.01792,-0.0255 -0.201062,-0.29701 -0.351555,-0.60839 -0.470106,-0.91942 -0.01115,-0.0292 -0.02209,-0.0587 -0.03285,-0.0884 -0.125064,-0.34512 -0.220748,-0.71016 -0.301653,-1.09591 -0.0014,-0.007 -0.0035,-0.0131 -0.0058,-0.0194 9.17e-4,0.002 2.96e-4,0.001 -5.39e-4,-0.001 -8.69e-4,-0.003 -0.002,-0.007 -0.0033,-0.0126 -0.0027,-0.0112 -0.0056,-0.0251 -0.009,-0.0417 -0.0033,-0.0159 -0.007,-0.0343 -0.01098,-0.0522 -0.0039,-0.0178 -0.0085,-0.0368 -0.01362,-0.0547 -0.0026,-0.009 -0.0055,-0.0183 -0.0088,-0.0275 -0.0032,-0.009 -0.0072,-0.0189 -0.0122,-0.0289 -0.0047,-0.009 -0.01188,-0.0222 -0.02243,-0.0348 -0.0054,-0.006 -0.01272,-0.014 -0.02212,-0.0212 -0.0095,-0.007 -0.0219,-0.0147 -0.03741,-0.0199 -0.01589,-0.005 -0.03347,-0.008 -0.05174,-0.006 -0.01805,0.002 -0.03381,0.007 -0.04678,0.0141 -0.01268,0.007 -0.02261,0.0147 -0.03008,0.0219 -0.0075,0.007 -0.01344,0.0145 -0.01811,0.021 -0.0091,0.0127 -0.01592,0.0259 -0.02113,0.0376 -0.0054,0.0121 -0.01017,0.0251 -0.01459,0.0386 -0.182495,0.75931 -0.290952,1.52341 -0.372187,2.28433 -5.45e-4,0.005 -0.0011,0.0102 -9.72e-4,0.0154 1.04e-4,0.005 9.47e-4,0.0102 0.002,0.0153 0.0015,0.008 0.0027,0.0174 0.0032,0.0286 4.65e-4,0.0112 1.79e-4,0.023 -8.92e-4,0.0346 -0.0011,0.0118 -0.0029,0.0225 -0.0052,0.0318 -0.0024,0.01 -0.0048,0.016 -0.0067,0.02 -0.0019,0.004 -0.0021,0.003 0.0014,5.2e-4 0.0042,-0.003 0.01195,-0.008 0.02224,-0.009 0.0047,-5.8e-4 0.0087,-3.1e-4 0.01144,2e-4 0.0026,4.8e-4 0.0039,0.001 0.0032,10e-4 -0.0011,-2.6e-4 -0.009,-0.004 -0.02072,-0.0139 -0.03249,-0.0283 -0.06114,-0.0614 -0.0866,-0.0976 -0.02637,-0.0375 -0.04931,-0.0784 -0.07017,-0.1212 -0.04358,-0.0895 -0.08039,-0.19353 -0.116459,-0.28412 -0.101369,-0.24214 -0.182636,-0.50553 -0.249526,-0.71794 -0.0214,-0.0679 -0.04143,-0.13133 -0.06209,-0.19506 -0.06071,-0.18721 -0.122906,-0.3646 -0.197789,-0.53727 -0.138445,-0.3049 -0.29496,-0.57171 -0.413284,-0.81004 -0.18388,-0.37037 -0.254381,-0.61187 -0.287161,-0.82083 a 0.09812172,0.09812172 90 0 0 -0.193872,0.0304 z"
       id="path-1"
       inkscape:path-effect="#path-effect955;#path-effect957"
       inkscape:original-d="m -17.430352,150.15244 c 0.08945,0.55211 0.388399,1.00709 0.63395,1.4967 0.15254,0.30415 0.246918,0.6192 0.348574,0.94257 0.08689,0.2764 0.101437,0.32841 0.213291,0.6154 0.05319,0.13647 0.214431,0.65589 0.431521,0.62966 0.05976,-0.007 0.04974,-0.20385 0.05233,-0.22812 0.07496,-0.70111 0.178384,-1.40676 0.331787,-2.09554 0.0015,-0.007 0.04514,-0.24001 0.07998,-0.23506 0.01454,0.002 0.09895,0.39738 0.110596,0.44816 0.0217,0.0946 0.04279,0.18931 0.06715,0.28323 0.136764,0.52734 0.33046,1.05538 0.617163,1.52098 0.02756,0.0448 0.219541,0.38172 0.343637,0.28169 0.08397,-0.0677 0.183096,-0.73883 0.195517,-0.79382 0.0543,-0.24043 0.159669,-0.65749 0.213292,-0.87089 0.181385,-0.72187 0.349735,-1.44752 0.544091,-2.16606"
       style="fill:#000000;fill-rule:nonzero;stroke:none" />
  </g>
</svg>
