<?xml version="1.0" encoding="UTF-8" standalone="no"?>
<!-- Created with Inkscape (http://www.inkscape.org/) -->

<svg
   width="4mm"
   height="10mm"
   viewBox="0 0 4.0000001 9.9999994"
   version="1.1"
   id="svg1681"
   inkscape:version="1.2.1 (9c6d41e410, 2022-07-14)"
   sodipodi:docname="lower_w_4.svg"
   inkscape:export-filename="..\..\..\..\Downloads\lower a diff canvas resize 3.0.png"
   inkscape:export-xdpi="96"
   inkscape:export-ydpi="96"
   xmlns:inkscape="http://www.inkscape.org/namespaces/inkscape"
   xmlns:sodipodi="http://sodipodi.sourceforge.net/DTD/sodipodi-0.dtd"
   xmlns="http://www.w3.org/2000/svg"
   xmlns:svg="http://www.w3.org/2000/svg"
   xmlns:rdf="http://www.w3.org/1999/02/22-rdf-syntax-ns#"
   xmlns:cc="http://creativecommons.org/ns#"
   xmlns:dc="http://purl.org/dc/elements/1.1/">
  <defs
     id="defs1675">
    <inkscape:path-effect
       effect="powerstroke"
       id="path-effect462"
       is_visible="true"
       lpeversion="1"
       offset_points="1.7675555,0.11476081 | 7.4858936,0.13727253 | 10.223648,0.15611385"
       not_jump="true"
       sort_points="true"
       interpolator_type="CentripetalCatmullRom"
       interpolator_beta="0.75"
       start_linecap_type="round"
       linejoin_type="spiro"
       miter_limit="4"
       scale_width="1"
       end_linecap_type="round" />
    <inkscape:path-effect
       effect="simplify"
       id="path-effect460"
       is_visible="true"
       lpeversion="1"
       steps="1"
       threshold="0.0047745358"
       smooth_angles="0"
       helper_size="0"
       simplify_individual_paths="false"
       simplify_just_coalesce="false"
       step="1" />
    <inkscape:path-effect
       effect="powerstroke"
       id="path-effect410"
       is_visible="true"
       lpeversion="1"
       offset_points="1.3069255,0.10130272 | 7.4061505,0.11720774"
       not_jump="true"
       sort_points="true"
       interpolator_type="CentripetalCatmullRom"
       interpolator_beta="0.75"
       start_linecap_type="round"
       linejoin_type="spiro"
       miter_limit="4"
       scale_width="1"
       end_linecap_type="round" />
    <inkscape:path-effect
       effect="simplify"
       id="path-effect408"
       is_visible="true"
       lpeversion="1"
       steps="1"
       threshold="0.0047745358"
       smooth_angles="0"
       helper_size="0"
       simplify_individual_paths="false"
       simplify_just_coalesce="false"
       step="1" />
    <inkscape:path-effect
       effect="powerstroke"
       id="path-effect360"
       is_visible="true"
       lpeversion="1"
       offset_points="1.7549587,0.10986696 | 6.4945854,0.13947476 | 8.1439231,0.12381443"
       not_jump="true"
       sort_points="true"
       interpolator_type="CentripetalCatmullRom"
       interpolator_beta="0.75"
       start_linecap_type="round"
       linejoin_type="spiro"
       miter_limit="4"
       scale_width="1"
       end_linecap_type="round" />
    <inkscape:path-effect
       effect="simplify"
       id="path-effect358"
       is_visible="true"
       lpeversion="1"
       steps="1"
       threshold="0.0047745358"
       smooth_angles="0"
       helper_size="0"
       simplify_individual_paths="false"
       simplify_just_coalesce="false"
       step="1" />
    <inkscape:path-effect
       effect="powerstroke"
       id="path-effect312"
       is_visible="true"
       lpeversion="1"
       offset_points="1.3996183,0.096408868"
       not_jump="true"
       sort_points="true"
       interpolator_type="CentripetalCatmullRom"
       interpolator_beta="0.75"
       start_linecap_type="round"
       linejoin_type="spiro"
       miter_limit="4"
       scale_width="1"
       end_linecap_type="round" />
    <inkscape:path-effect
       effect="simplify"
       id="path-effect310"
       is_visible="true"
       lpeversion="1"
       steps="1"
       threshold="0.0047745358"
       smooth_angles="0"
       helper_size="0"
       simplify_individual_paths="false"
       simplify_just_coalesce="false"
       step="1" />
    <inkscape:path-effect
       effect="powerstroke"
       id="path-effect305"
       is_visible="true"
       lpeversion="1"
       offset_points="1.530989,0.094206635 | 9.5526397,0.12699544"
       not_jump="true"
       sort_points="true"
       interpolator_type="CentripetalCatmullRom"
       interpolator_beta="0.75"
       start_linecap_type="round"
       linejoin_type="spiro"
       miter_limit="4"
       scale_width="1"
       end_linecap_type="round" />
    <inkscape:path-effect
       effect="simplify"
       id="path-effect303"
       is_visible="true"
       lpeversion="1"
       steps="1"
       threshold="0.0047745358"
       smooth_angles="0"
       helper_size="0"
       simplify_individual_paths="false"
       simplify_just_coalesce="false"
       step="1" />
    <inkscape:path-effect
       effect="powerstroke"
       id="path-effect298"
       is_visible="true"
       lpeversion="1"
       offset_points="1.3734686,0.11280327 | 8.9058734,0.14412392"
       not_jump="true"
       sort_points="true"
       interpolator_type="CentripetalCatmullRom"
       interpolator_beta="0.75"
       start_linecap_type="round"
       linejoin_type="spiro"
       miter_limit="4"
       scale_width="1"
       end_linecap_type="round" />
    <inkscape:path-effect
       effect="simplify"
       id="path-effect296"
       is_visible="true"
       lpeversion="1"
       steps="1"
       threshold="0.0047745358"
       smooth_angles="0"
       helper_size="0"
       simplify_individual_paths="false"
       simplify_just_coalesce="false"
       step="1" />
    <inkscape:path-effect
       effect="powerstroke"
       id="path-effect1424"
       is_visible="true"
       lpeversion="1"
       offset_points="3.2337937,0.1081348 | 7.9295992,0.12199285"
       not_jump="true"
       sort_points="true"
       interpolator_type="CentripetalCatmullRom"
       interpolator_beta="0.75"
       start_linecap_type="round"
       linejoin_type="spiro"
       miter_limit="4"
       scale_width="1"
       end_linecap_type="round" />
    <inkscape:path-effect
       effect="simplify"
       id="path-effect1422"
       is_visible="true"
       lpeversion="1"
       steps="1"
       threshold="0.0035951417"
       smooth_angles="0"
       helper_size="0"
       simplify_individual_paths="false"
       simplify_just_coalesce="false"
       step="1" />
    <inkscape:path-effect
       effect="powerstroke"
       id="path-effect502"
       is_visible="true"
       lpeversion="1"
       offset_points="3.0091841,0.21607495 | 7.3602657,0.17554228 | 9.4159651,0.20236537"
       not_jump="true"
       sort_points="true"
       interpolator_type="CentripetalCatmullRom"
       interpolator_beta="0.75"
       start_linecap_type="round"
       linejoin_type="spiro"
       miter_limit="4"
       scale_width="1"
       end_linecap_type="round" />
    <inkscape:path-effect
       effect="simplify"
       id="path-effect500"
       is_visible="true"
       lpeversion="1"
       steps="1"
       threshold="0.0035951417"
       smooth_angles="0"
       helper_size="0"
       simplify_individual_paths="false"
       simplify_just_coalesce="false"
       step="1" />
    <inkscape:path-effect
       effect="powerstroke"
       id="path-effect241"
       is_visible="true"
       lpeversion="1"
       offset_points="2.6879454,0.34086734"
       not_jump="true"
       sort_points="true"
       interpolator_type="CentripetalCatmullRom"
       interpolator_beta="0.75"
       start_linecap_type="round"
       linejoin_type="spiro"
       miter_limit="4"
       scale_width="1"
       end_linecap_type="round" />
    <inkscape:path-effect
       effect="simplify"
       id="path-effect239"
       is_visible="true"
       lpeversion="1"
       steps="1"
       threshold="0.0028332064"
       smooth_angles="0"
       helper_size="0"
       simplify_individual_paths="false"
       simplify_just_coalesce="false"
       step="1" />
    <inkscape:path-effect
       effect="powerstroke"
       id="path-effect234"
       is_visible="true"
       lpeversion="1"
       offset_points="2.13563,0.075169555"
       not_jump="true"
       sort_points="true"
       interpolator_type="CentripetalCatmullRom"
       interpolator_beta="0.75"
       start_linecap_type="round"
       linejoin_type="spiro"
       miter_limit="4"
       scale_width="1"
       end_linecap_type="round" />
    <inkscape:path-effect
       effect="simplify"
       id="path-effect232"
       is_visible="true"
       lpeversion="1"
       steps="1"
       threshold="0.0028332064"
       smooth_angles="0"
       helper_size="0"
       simplify_individual_paths="false"
       simplify_just_coalesce="false"
       step="1" />
    <inkscape:path-effect
       effect="powerstroke"
       id="path-effect227"
       is_visible="true"
       lpeversion="1"
       offset_points="2.1868266,0.075169555"
       not_jump="true"
       sort_points="true"
       interpolator_type="CentripetalCatmullRom"
       interpolator_beta="0.75"
       start_linecap_type="round"
       linejoin_type="spiro"
       miter_limit="4"
       scale_width="1"
       end_linecap_type="round" />
    <inkscape:path-effect
       effect="simplify"
       id="path-effect225"
       is_visible="true"
       lpeversion="1"
       steps="1"
       threshold="0.0028332064"
       smooth_angles="0"
       helper_size="0"
       simplify_individual_paths="false"
       simplify_just_coalesce="false"
       step="1" />
    <inkscape:path-effect
       effect="powerstroke"
       id="path-effect166"
       is_visible="true"
       lpeversion="1"
       offset_points="1.9637935,0.075169555"
       not_jump="true"
       sort_points="true"
       interpolator_type="CentripetalCatmullRom"
       interpolator_beta="0.75"
       start_linecap_type="round"
       linejoin_type="spiro"
       miter_limit="4"
       scale_width="1"
       end_linecap_type="round" />
    <inkscape:path-effect
       effect="simplify"
       id="path-effect164"
       is_visible="true"
       lpeversion="1"
       steps="1"
       threshold="0.0028332064"
       smooth_angles="0"
       helper_size="0"
       simplify_individual_paths="false"
       simplify_just_coalesce="false"
       step="1" />
    <inkscape:path-effect
       effect="powerstroke"
       id="path-effect159"
       is_visible="true"
       lpeversion="1"
       offset_points="2.2611036,0.075169555"
       not_jump="true"
       sort_points="true"
       interpolator_type="CentripetalCatmullRom"
       interpolator_beta="0.75"
       start_linecap_type="round"
       linejoin_type="spiro"
       miter_limit="4"
       scale_width="1"
       end_linecap_type="round" />
    <inkscape:path-effect
       effect="simplify"
       id="path-effect157"
       is_visible="true"
       lpeversion="1"
       steps="1"
       threshold="0.0028332064"
       smooth_angles="0"
       helper_size="0"
       simplify_individual_paths="false"
       simplify_just_coalesce="false"
       step="1" />
    <inkscape:path-effect
       effect="powerstroke"
       id="path-effect152"
       is_visible="true"
       lpeversion="1"
       offset_points="2.826981,0.075169555"
       not_jump="true"
       sort_points="true"
       interpolator_type="CentripetalCatmullRom"
       interpolator_beta="0.75"
       start_linecap_type="round"
       linejoin_type="spiro"
       miter_limit="4"
       scale_width="1"
       end_linecap_type="round" />
    <inkscape:path-effect
       effect="simplify"
       id="path-effect150"
       is_visible="true"
       lpeversion="1"
       steps="1"
       threshold="0.0028332064"
       smooth_angles="0"
       helper_size="0"
       simplify_individual_paths="false"
       simplify_just_coalesce="false"
       step="1" />
    <inkscape:path-effect
       effect="powerstroke"
       id="path-effect145"
       is_visible="true"
       lpeversion="1"
       offset_points="3.8374447,0.075169555"
       not_jump="true"
       sort_points="true"
       interpolator_type="CentripetalCatmullRom"
       interpolator_beta="0.75"
       start_linecap_type="round"
       linejoin_type="spiro"
       miter_limit="4"
       scale_width="1"
       end_linecap_type="round" />
    <inkscape:path-effect
       effect="simplify"
       id="path-effect143"
       is_visible="true"
       lpeversion="1"
       steps="1"
       threshold="0.0028332064"
       smooth_angles="0"
       helper_size="0"
       simplify_individual_paths="false"
       simplify_just_coalesce="false"
       step="1" />
    <inkscape:path-effect
       effect="powerstroke"
       id="path-effect138"
       is_visible="true"
       lpeversion="1"
       offset_points="2.6880907,0.075169555"
       not_jump="true"
       sort_points="true"
       interpolator_type="CentripetalCatmullRom"
       interpolator_beta="0.75"
       start_linecap_type="round"
       linejoin_type="spiro"
       miter_limit="4"
       scale_width="1"
       end_linecap_type="round" />
    <inkscape:path-effect
       effect="simplify"
       id="path-effect136"
       is_visible="true"
       lpeversion="1"
       steps="1"
       threshold="0.0028332064"
       smooth_angles="0"
       helper_size="0"
       simplify_individual_paths="false"
       simplify_just_coalesce="false"
       step="1" />
    <inkscape:path-effect
       effect="powerstroke"
       id="path-effect131"
       is_visible="true"
       lpeversion="1"
       offset_points="1.9940581,0.075169555"
       not_jump="true"
       sort_points="true"
       interpolator_type="CentripetalCatmullRom"
       interpolator_beta="0.75"
       start_linecap_type="round"
       linejoin_type="spiro"
       miter_limit="4"
       scale_width="1"
       end_linecap_type="round" />
    <inkscape:path-effect
       effect="simplify"
       id="path-effect129"
       is_visible="true"
       lpeversion="1"
       steps="1"
       threshold="0.0028332064"
       smooth_angles="0"
       helper_size="0"
       simplify_individual_paths="false"
       simplify_just_coalesce="false"
       step="1" />
  </defs>
  <sodipodi:namedview
     id="base"
     pagecolor="#ffffff"
     bordercolor="#666666"
     borderopacity="1.0"
     inkscape:pageopacity="0.0"
     inkscape:pageshadow="2"
     inkscape:zoom="15.839192"
     inkscape:cx="1.3258252"
     inkscape:cy="16.351844"
     inkscape:document-units="mm"
     inkscape:current-layer="layer1"
     showgrid="false"
     fit-margin-top="0"
     fit-margin-left="0"
     fit-margin-right="0"
     fit-margin-bottom="0"
     inkscape:window-width="1920"
     inkscape:window-height="1057"
     inkscape:window-x="1072"
     inkscape:window-y="321"
     inkscape:window-maximized="1"
     showguides="true"
     inkscape:guide-bbox="true"
     inkscape:snap-bbox="true"
     inkscape:bbox-nodes="true"
     inkscape:snap-nodes="false"
     inkscape:snap-others="false"
     inkscape:snap-page="true"
     inkscape:snap-grids="false"
     inkscape:snap-to-guides="false"
     inkscape:snap-global="false"
     inkscape:pagecheckerboard="0"
     inkscape:showpageshadow="2"
     inkscape:deskcolor="#d1d1d1">
    <sodipodi:guide
       position="-6.1806075,9.4988692"
       orientation="0,1"
       id="guide816"
       inkscape:locked="false" />
    <sodipodi:guide
       position="-4.4101636,10.646923"
       orientation="0,1"
       id="guide818"
       inkscape:locked="false" />
    <sodipodi:guide
       position="2.7595724,11.09577"
       orientation="1,0"
       id="guide820"
       inkscape:locked="false" />
    <sodipodi:guide
       position="3.6572659,10.942217"
       orientation="1,0"
       id="guide822"
       inkscape:locked="false" />
    <sodipodi:guide
       position="-0.051625511,9.7492299"
       orientation="1,0"
       id="guide1853"
       inkscape:locked="false" />
    <sodipodi:guide
       position="-2.3720169,3.0175835"
       orientation="0,1"
       id="guide1855"
       inkscape:locked="false" />
    <sodipodi:guide
       position="2.6893996,7.3941215"
       orientation="0,-1"
       id="guide176"
       inkscape:locked="false" />
  </sodipodi:namedview>
  <metadata
     id="metadata1678">
    <rdf:RDF>
      <cc:Work
         rdf:about="">
        <dc:format>image/svg+xml</dc:format>
        <dc:type
           rdf:resource="http://purl.org/dc/dcmitype/StillImage" />
      </cc:Work>
    </rdf:RDF>
  </metadata>
  <g
     inkscape:label="Layer 1"
     inkscape:groupmode="layer"
     id="layer1"
     transform="translate(17.028496,-147.22856)">
    <path
       d="m -16.989734,150.01916 c 0.04675,0.2875 0.279418,1.85627 0.518697,2.85557 0.02905,0.1284 0.06423,0.3059 0.104065,0.45587 0.02173,0.0818 0.04709,0.16525 0.0785,0.24788 0.02472,0.065 0.05486,0.13399 0.0925,0.20359 0.01187,0.0291 0.02948,0.057 0.05006,0.081 0.01084,0.0126 0.02343,0.0252 0.03759,0.0366 0.0135,0.0109 0.03019,0.022 0.04973,0.0306 0.01872,0.008 0.04404,0.0157 0.07354,0.0147 0.01477,-5.1e-4 0.03041,-0.003 0.04618,-0.009 0.01565,-0.006 0.03019,-0.0138 0.04319,-0.0243 0.01276,-0.0102 0.0232,-0.022 0.03161,-0.0342 0.0083,-0.012 0.01458,-0.0245 0.01941,-0.0367 0.0084,-0.0213 0.01309,-0.0436 0.01551,-0.0657 0.02124,-0.11037 0.03501,-0.21921 0.05,-0.33138 0.01436,-0.10753 0.0294,-0.21431 0.05271,-0.31812 0.09931,-0.52366 0.208582,-1.04874 0.349805,-1.56523 0.02604,-0.0797 0.05031,-0.16266 0.07654,-0.24066 0.02707,-0.0805 0.05543,-0.15371 0.09031,-0.2215 l -0.136341,0.0701 c -0.0078,-0.001 -0.01563,-0.003 -0.02299,-0.007 -0.0073,-0.003 -0.01321,-0.008 -0.0177,-0.0114 -0.0089,-0.008 -0.01145,-0.0128 -0.01179,-0.013 -3.37e-4,-2.3e-4 0.0014,0.004 0.0031,0.0109 0.0019,0.007 0.0037,0.0167 0.0056,0.0284 0.0039,0.0248 0.0063,0.0516 0.0095,0.0825 0.0016,0.0151 0.0033,0.0311 0.0055,0.0466 0.0016,0.0113 0.0036,0.0235 0.0062,0.0358 0.01574,0.17346 0.04288,0.34182 0.069,0.4886 0.03218,0.18088 0.06601,0.3494 0.09362,0.50959 0.07219,0.39247 0.156351,0.73744 0.219581,1.07239 0.02624,0.11194 0.05488,0.23377 0.101223,0.34922 0.02338,0.0583 0.05218,0.11736 0.08897,0.17394 0.03623,0.0557 0.08064,0.10969 0.135887,0.15803 0.0085,0.007 0.0178,0.0137 0.02765,0.0191 0.03022,0.0166 0.0667,0.0299 0.108103,0.0318 0.02052,9.8e-4 0.04119,-8.9e-4 0.06154,-0.006 0.0116,-0.003 0.02274,-0.007 0.03336,-0.011 0.0077,-0.003 0.01501,-0.007 0.02201,-0.0108 0.03234,-0.0182 0.05605,-0.042 0.07368,-0.0649 0.01671,-0.0217 0.02922,-0.0446 0.03875,-0.0652 0.01807,-0.0392 0.02987,-0.0808 0.03817,-0.11372 0.0041,-0.0163 0.0078,-0.0321 0.01072,-0.0448 0.0031,-0.0135 0.0053,-0.0224 0.0071,-0.0288 0.0012,-0.004 0.0022,-0.009 0.003,-0.013 0.03867,-0.20736 0.06005,-0.4161 0.08097,-0.61736 0.02214,-0.21298 0.04246,-0.40245 0.07861,-0.59148 0.145638,-0.85784 0.538073,-2.08974 0.625524,-2.38728 a 0.15611385,0.15611385 90 0 0 -0.299558,-0.088 c -0.08148,0.27722 -0.485552,1.54205 -0.635153,2.41933 -0.03877,0.2008 -0.06053,0.40322 -0.08267,0.61479 -0.02112,0.2018 -0.04115,0.39575 -0.07628,0.58668 -0.003,0.0117 -0.0058,0.0239 -0.0082,0.0343 -0.0032,0.014 -0.006,0.0265 -0.0092,0.0395 -0.0068,0.0278 -0.01283,0.0469 -0.01846,0.0597 -0.0027,0.006 -0.0038,0.007 -0.0023,0.006 0.0019,-0.002 0.0081,-0.01 0.02118,-0.017 0.0028,-0.002 0.0059,-0.003 0.0093,-0.005 0.0046,-0.002 0.0096,-0.004 0.01487,-0.005 0.0093,-0.002 0.01835,-0.003 0.02664,-0.002 0.01635,8.8e-4 0.02558,0.006 0.0262,0.006 0.0042,0.004 0.0088,0.007 0.01374,0.01 0.0049,0.003 0.0096,0.006 0.01391,0.009 -0.03148,-0.0267 -0.0585,-0.0579 -0.08228,-0.093 -0.02433,-0.0359 -0.0454,-0.0762 -0.06421,-0.12031 -0.03854,-0.0904 -0.06487,-0.18971 -0.09312,-0.29763 -0.06857,-0.33622 -0.158225,-0.68032 -0.232933,-1.0591 -0.03045,-0.16304 -0.06655,-0.33183 -0.09984,-0.50798 -0.0276,-0.14603 -0.05525,-0.30802 -0.07146,-0.4725 -3.71e-4,-0.004 -6.47e-4,-0.008 -0.0012,-0.0113 -5.51e-4,-0.004 -0.0016,-0.007 -0.0028,-0.011 -0.0011,-0.003 -0.0028,-0.0103 -0.0046,-0.0209 -0.0018,-0.0103 -0.0035,-0.0224 -0.0054,-0.0368 -0.0034,-0.0257 -0.0078,-0.063 -0.01401,-0.0968 -0.0032,-0.0172 -0.0073,-0.0359 -0.01271,-0.0546 -0.0053,-0.0181 -0.01264,-0.0387 -0.02322,-0.059 -0.01035,-0.0198 -0.02578,-0.0432 -0.04904,-0.0634 -0.01174,-0.0102 -0.02547,-0.0196 -0.04129,-0.0272 -0.01581,-0.008 -0.03272,-0.0128 -0.05036,-0.0155 -0.01395,-0.002 -0.02801,-0.004 -0.04211,-0.004 -0.0141,5.7e-4 -0.02817,0.004 -0.04075,0.0102 -0.01258,0.006 -0.02348,0.0159 -0.03215,0.027 -0.0087,0.0111 -0.0151,0.0238 -0.02133,0.0365 -0.0417,0.0847 -0.07328,0.17192 -0.100904,0.25882 -0.02696,0.0848 -0.05007,0.16896 -0.07474,0.24932 -0.142567,0.53168 -0.250637,1.06473 -0.347212,1.58758 -0.02388,0.11209 -0.03881,0.22867 -0.05198,0.336 -0.01431,0.11658 -0.02623,0.21902 -0.04532,0.32268 -7.57e-4,0.004 -0.0014,0.008 -0.0017,0.0124 -5.77e-4,0.009 -0.0016,0.0104 -1.64e-4,0.007 8.01e-4,-0.002 0.0025,-0.006 0.0057,-0.0102 0.0033,-0.005 0.0082,-0.0104 0.01498,-0.0158 0.007,-0.006 0.01513,-0.0102 0.02412,-0.0134 0.009,-0.003 0.01763,-0.005 0.02518,-0.005 0.01483,-4.5e-4 0.02456,0.003 0.0278,0.005 0.0041,0.002 0.0039,0.002 0.0024,0.001 -0.0016,-0.001 -0.0042,-0.003 -0.0072,-0.007 -0.007,-0.008 -0.01062,-0.0145 -0.01218,-0.0178 -0.0012,-0.003 -0.0023,-0.005 -0.0033,-0.008 -0.0011,-0.003 -0.0023,-0.005 -0.0036,-0.008 -0.03363,-0.0607 -0.06099,-0.12197 -0.08384,-0.18132 -0.02811,-0.073 -0.05139,-0.14834 -0.07192,-0.22487 -0.03892,-0.14509 -0.07108,-0.30846 -0.102775,-0.44864 -0.236897,-0.98963 -0.466164,-2.54399 -0.514403,-2.84067 a 0.11476081,0.11476081 90 0 0 -0.226546,0.0368 z"
       id="path-1"
       inkscape:path-effect="#path-effect460;#path-effect462"
       inkscape:original-d="m -16.876461,150.00074 c 0.150158,0.91472 0.277726,1.83053 0.491755,2.73599 0.05964,0.25229 0.165782,0.89892 0.363386,1.08708 0.09434,0.0898 0.09898,-0.29134 0.143182,-0.54219 0.09764,-0.55409 0.215368,-1.11567 0.353511,-1.66086 0.0101,-0.0399 0.181225,-0.63397 0.218228,-0.59306 0.06094,0.0674 0.08837,0.47779 0.09776,0.52947 0.08642,0.47548 0.171392,0.95163 0.283401,1.42195 0.06689,0.28085 0.119559,0.79736 0.366348,0.99651 0.175551,0.14167 0.21397,-0.55469 0.26069,-0.96106 0.116779,-1.01575 0.412252,-1.89933 0.697147,-2.86894"
       style="fill:#000000;fill-rule:nonzero;stroke:none" />
  </g>
</svg>
