<?xml version="1.0" encoding="UTF-8" standalone="no"?>
<!-- Created with Inkscape (http://www.inkscape.org/) -->

<svg
   width="4mm"
   height="10mm"
   viewBox="0 0 4.0000001 9.9999994"
   version="1.1"
   id="svg1681"
   inkscape:version="1.2.1 (9c6d41e410, 2022-07-14)"
   sodipodi:docname="lower_w_1.svg"
   inkscape:export-filename="..\..\..\..\Downloads\lower a diff canvas resize 3.0.png"
   inkscape:export-xdpi="96"
   inkscape:export-ydpi="96"
   xmlns:inkscape="http://www.inkscape.org/namespaces/inkscape"
   xmlns:sodipodi="http://sodipodi.sourceforge.net/DTD/sodipodi-0.dtd"
   xmlns="http://www.w3.org/2000/svg"
   xmlns:svg="http://www.w3.org/2000/svg"
   xmlns:rdf="http://www.w3.org/1999/02/22-rdf-syntax-ns#"
   xmlns:cc="http://creativecommons.org/ns#"
   xmlns:dc="http://purl.org/dc/elements/1.1/">
  <defs
     id="defs1675">
    <inkscape:path-effect
       effect="powerstroke"
       id="path-effect312"
       is_visible="true"
       lpeversion="1"
       offset_points="1.3996183,0.096408868"
       not_jump="true"
       sort_points="true"
       interpolator_type="CentripetalCatmullRom"
       interpolator_beta="0.75"
       start_linecap_type="round"
       linejoin_type="spiro"
       miter_limit="4"
       scale_width="1"
       end_linecap_type="round" />
    <inkscape:path-effect
       effect="simplify"
       id="path-effect310"
       is_visible="true"
       lpeversion="1"
       steps="1"
       threshold="0.0047745358"
       smooth_angles="0"
       helper_size="0"
       simplify_individual_paths="false"
       simplify_just_coalesce="false"
       step="1" />
    <inkscape:path-effect
       effect="powerstroke"
       id="path-effect305"
       is_visible="true"
       lpeversion="1"
       offset_points="1.530989,0.094206635 | 9.5526397,0.12699544"
       not_jump="true"
       sort_points="true"
       interpolator_type="CentripetalCatmullRom"
       interpolator_beta="0.75"
       start_linecap_type="round"
       linejoin_type="spiro"
       miter_limit="4"
       scale_width="1"
       end_linecap_type="round" />
    <inkscape:path-effect
       effect="simplify"
       id="path-effect303"
       is_visible="true"
       lpeversion="1"
       steps="1"
       threshold="0.0047745358"
       smooth_angles="0"
       helper_size="0"
       simplify_individual_paths="false"
       simplify_just_coalesce="false"
       step="1" />
    <inkscape:path-effect
       effect="powerstroke"
       id="path-effect298"
       is_visible="true"
       lpeversion="1"
       offset_points="1.3734686,0.11280327 | 8.9058734,0.14412392"
       not_jump="true"
       sort_points="true"
       interpolator_type="CentripetalCatmullRom"
       interpolator_beta="0.75"
       start_linecap_type="round"
       linejoin_type="spiro"
       miter_limit="4"
       scale_width="1"
       end_linecap_type="round" />
    <inkscape:path-effect
       effect="simplify"
       id="path-effect296"
       is_visible="true"
       lpeversion="1"
       steps="1"
       threshold="0.0047745358"
       smooth_angles="0"
       helper_size="0"
       simplify_individual_paths="false"
       simplify_just_coalesce="false"
       step="1" />
    <inkscape:path-effect
       effect="powerstroke"
       id="path-effect1424"
       is_visible="true"
       lpeversion="1"
       offset_points="3.2337937,0.1081348 | 7.9295992,0.12199285"
       not_jump="true"
       sort_points="true"
       interpolator_type="CentripetalCatmullRom"
       interpolator_beta="0.75"
       start_linecap_type="round"
       linejoin_type="spiro"
       miter_limit="4"
       scale_width="1"
       end_linecap_type="round" />
    <inkscape:path-effect
       effect="simplify"
       id="path-effect1422"
       is_visible="true"
       lpeversion="1"
       steps="1"
       threshold="0.0035951417"
       smooth_angles="0"
       helper_size="0"
       simplify_individual_paths="false"
       simplify_just_coalesce="false"
       step="1" />
    <inkscape:path-effect
       effect="powerstroke"
       id="path-effect502"
       is_visible="true"
       lpeversion="1"
       offset_points="3.0091841,0.21607495 | 7.3602657,0.17554228 | 9.4159651,0.20236537"
       not_jump="true"
       sort_points="true"
       interpolator_type="CentripetalCatmullRom"
       interpolator_beta="0.75"
       start_linecap_type="round"
       linejoin_type="spiro"
       miter_limit="4"
       scale_width="1"
       end_linecap_type="round" />
    <inkscape:path-effect
       effect="simplify"
       id="path-effect500"
       is_visible="true"
       lpeversion="1"
       steps="1"
       threshold="0.0035951417"
       smooth_angles="0"
       helper_size="0"
       simplify_individual_paths="false"
       simplify_just_coalesce="false"
       step="1" />
    <inkscape:path-effect
       effect="powerstroke"
       id="path-effect241"
       is_visible="true"
       lpeversion="1"
       offset_points="2.6879454,0.34086734"
       not_jump="true"
       sort_points="true"
       interpolator_type="CentripetalCatmullRom"
       interpolator_beta="0.75"
       start_linecap_type="round"
       linejoin_type="spiro"
       miter_limit="4"
       scale_width="1"
       end_linecap_type="round" />
    <inkscape:path-effect
       effect="simplify"
       id="path-effect239"
       is_visible="true"
       lpeversion="1"
       steps="1"
       threshold="0.0028332064"
       smooth_angles="0"
       helper_size="0"
       simplify_individual_paths="false"
       simplify_just_coalesce="false"
       step="1" />
    <inkscape:path-effect
       effect="powerstroke"
       id="path-effect234"
       is_visible="true"
       lpeversion="1"
       offset_points="2.13563,0.075169555"
       not_jump="true"
       sort_points="true"
       interpolator_type="CentripetalCatmullRom"
       interpolator_beta="0.75"
       start_linecap_type="round"
       linejoin_type="spiro"
       miter_limit="4"
       scale_width="1"
       end_linecap_type="round" />
    <inkscape:path-effect
       effect="simplify"
       id="path-effect232"
       is_visible="true"
       lpeversion="1"
       steps="1"
       threshold="0.0028332064"
       smooth_angles="0"
       helper_size="0"
       simplify_individual_paths="false"
       simplify_just_coalesce="false"
       step="1" />
    <inkscape:path-effect
       effect="powerstroke"
       id="path-effect227"
       is_visible="true"
       lpeversion="1"
       offset_points="2.1868266,0.075169555"
       not_jump="true"
       sort_points="true"
       interpolator_type="CentripetalCatmullRom"
       interpolator_beta="0.75"
       start_linecap_type="round"
       linejoin_type="spiro"
       miter_limit="4"
       scale_width="1"
       end_linecap_type="round" />
    <inkscape:path-effect
       effect="simplify"
       id="path-effect225"
       is_visible="true"
       lpeversion="1"
       steps="1"
       threshold="0.0028332064"
       smooth_angles="0"
       helper_size="0"
       simplify_individual_paths="false"
       simplify_just_coalesce="false"
       step="1" />
    <inkscape:path-effect
       effect="powerstroke"
       id="path-effect166"
       is_visible="true"
       lpeversion="1"
       offset_points="1.9637935,0.075169555"
       not_jump="true"
       sort_points="true"
       interpolator_type="CentripetalCatmullRom"
       interpolator_beta="0.75"
       start_linecap_type="round"
       linejoin_type="spiro"
       miter_limit="4"
       scale_width="1"
       end_linecap_type="round" />
    <inkscape:path-effect
       effect="simplify"
       id="path-effect164"
       is_visible="true"
       lpeversion="1"
       steps="1"
       threshold="0.0028332064"
       smooth_angles="0"
       helper_size="0"
       simplify_individual_paths="false"
       simplify_just_coalesce="false"
       step="1" />
    <inkscape:path-effect
       effect="powerstroke"
       id="path-effect159"
       is_visible="true"
       lpeversion="1"
       offset_points="2.2611036,0.075169555"
       not_jump="true"
       sort_points="true"
       interpolator_type="CentripetalCatmullRom"
       interpolator_beta="0.75"
       start_linecap_type="round"
       linejoin_type="spiro"
       miter_limit="4"
       scale_width="1"
       end_linecap_type="round" />
    <inkscape:path-effect
       effect="simplify"
       id="path-effect157"
       is_visible="true"
       lpeversion="1"
       steps="1"
       threshold="0.0028332064"
       smooth_angles="0"
       helper_size="0"
       simplify_individual_paths="false"
       simplify_just_coalesce="false"
       step="1" />
    <inkscape:path-effect
       effect="powerstroke"
       id="path-effect152"
       is_visible="true"
       lpeversion="1"
       offset_points="2.826981,0.075169555"
       not_jump="true"
       sort_points="true"
       interpolator_type="CentripetalCatmullRom"
       interpolator_beta="0.75"
       start_linecap_type="round"
       linejoin_type="spiro"
       miter_limit="4"
       scale_width="1"
       end_linecap_type="round" />
    <inkscape:path-effect
       effect="simplify"
       id="path-effect150"
       is_visible="true"
       lpeversion="1"
       steps="1"
       threshold="0.0028332064"
       smooth_angles="0"
       helper_size="0"
       simplify_individual_paths="false"
       simplify_just_coalesce="false"
       step="1" />
    <inkscape:path-effect
       effect="powerstroke"
       id="path-effect145"
       is_visible="true"
       lpeversion="1"
       offset_points="3.8374447,0.075169555"
       not_jump="true"
       sort_points="true"
       interpolator_type="CentripetalCatmullRom"
       interpolator_beta="0.75"
       start_linecap_type="round"
       linejoin_type="spiro"
       miter_limit="4"
       scale_width="1"
       end_linecap_type="round" />
    <inkscape:path-effect
       effect="simplify"
       id="path-effect143"
       is_visible="true"
       lpeversion="1"
       steps="1"
       threshold="0.0028332064"
       smooth_angles="0"
       helper_size="0"
       simplify_individual_paths="false"
       simplify_just_coalesce="false"
       step="1" />
    <inkscape:path-effect
       effect="powerstroke"
       id="path-effect138"
       is_visible="true"
       lpeversion="1"
       offset_points="2.6880907,0.075169555"
       not_jump="true"
       sort_points="true"
       interpolator_type="CentripetalCatmullRom"
       interpolator_beta="0.75"
       start_linecap_type="round"
       linejoin_type="spiro"
       miter_limit="4"
       scale_width="1"
       end_linecap_type="round" />
    <inkscape:path-effect
       effect="simplify"
       id="path-effect136"
       is_visible="true"
       lpeversion="1"
       steps="1"
       threshold="0.0028332064"
       smooth_angles="0"
       helper_size="0"
       simplify_individual_paths="false"
       simplify_just_coalesce="false"
       step="1" />
    <inkscape:path-effect
       effect="powerstroke"
       id="path-effect131"
       is_visible="true"
       lpeversion="1"
       offset_points="1.9940581,0.075169555"
       not_jump="true"
       sort_points="true"
       interpolator_type="CentripetalCatmullRom"
       interpolator_beta="0.75"
       start_linecap_type="round"
       linejoin_type="spiro"
       miter_limit="4"
       scale_width="1"
       end_linecap_type="round" />
    <inkscape:path-effect
       effect="simplify"
       id="path-effect129"
       is_visible="true"
       lpeversion="1"
       steps="1"
       threshold="0.0028332064"
       smooth_angles="0"
       helper_size="0"
       simplify_individual_paths="false"
       simplify_just_coalesce="false"
       step="1" />
  </defs>
  <sodipodi:namedview
     id="base"
     pagecolor="#ffffff"
     bordercolor="#666666"
     borderopacity="1.0"
     inkscape:pageopacity="0.0"
     inkscape:pageshadow="2"
     inkscape:zoom="15.839192"
     inkscape:cx="1.3258252"
     inkscape:cy="16.351844"
     inkscape:document-units="mm"
     inkscape:current-layer="layer1"
     showgrid="false"
     fit-margin-top="0"
     fit-margin-left="0"
     fit-margin-right="0"
     fit-margin-bottom="0"
     inkscape:window-width="1920"
     inkscape:window-height="1057"
     inkscape:window-x="1072"
     inkscape:window-y="321"
     inkscape:window-maximized="1"
     showguides="true"
     inkscape:guide-bbox="true"
     inkscape:snap-bbox="true"
     inkscape:bbox-nodes="true"
     inkscape:snap-nodes="false"
     inkscape:snap-others="false"
     inkscape:snap-page="true"
     inkscape:snap-grids="false"
     inkscape:snap-to-guides="false"
     inkscape:snap-global="false"
     inkscape:pagecheckerboard="0"
     inkscape:showpageshadow="2"
     inkscape:deskcolor="#d1d1d1">
    <sodipodi:guide
       position="-6.1806075,9.4988692"
       orientation="0,1"
       id="guide816"
       inkscape:locked="false" />
    <sodipodi:guide
       position="-4.4101636,10.646923"
       orientation="0,1"
       id="guide818"
       inkscape:locked="false" />
    <sodipodi:guide
       position="2.7595724,11.09577"
       orientation="1,0"
       id="guide820"
       inkscape:locked="false" />
    <sodipodi:guide
       position="3.6572659,10.942217"
       orientation="1,0"
       id="guide822"
       inkscape:locked="false" />
    <sodipodi:guide
       position="-0.051625511,9.7492299"
       orientation="1,0"
       id="guide1853"
       inkscape:locked="false" />
    <sodipodi:guide
       position="-2.3720169,3.0175835"
       orientation="0,1"
       id="guide1855"
       inkscape:locked="false" />
    <sodipodi:guide
       position="2.6893996,7.3941215"
       orientation="0,-1"
       id="guide176"
       inkscape:locked="false" />
  </sodipodi:namedview>
  <metadata
     id="metadata1678">
    <rdf:RDF>
      <cc:Work
         rdf:about="">
        <dc:format>image/svg+xml</dc:format>
        <dc:type
           rdf:resource="http://purl.org/dc/dcmitype/StillImage" />
      </cc:Work>
    </rdf:RDF>
  </metadata>
  <g
     inkscape:label="Layer 1"
     inkscape:groupmode="layer"
     id="layer1"
     transform="translate(17.028496,-147.22856)">
    <path
       d="m -17.072691,150.11544 c 0.134741,0.53929 0.151269,0.73087 0.323585,1.64453 0.08635,0.45784 0.211024,1.06348 0.442433,1.63843 0.01836,0.0469 0.0374,0.10474 0.06345,0.16842 0.0059,0.0143 0.0124,0.0297 0.01964,0.0454 0.01567,0.0341 0.03616,0.0736 0.06318,0.11222 0.02391,0.0342 0.05436,0.0697 0.09388,0.10155 0.0064,0.005 0.01294,0.0101 0.02037,0.0135 0.0074,0.003 0.0155,0.005 0.02354,0.006 0.02724,0.005 0.05625,0.004 0.08493,-0.005 0.02756,-0.009 0.05005,-0.0248 0.06779,-0.0431 0.01666,-0.0173 0.02888,-0.0366 0.0381,-0.055 0.009,-0.0179 0.01589,-0.0364 0.0215,-0.0542 0.01056,-0.0334 0.01809,-0.0696 0.02465,-0.0986 0.0033,-0.0145 0.0063,-0.0271 0.0094,-0.0381 0.0031,-0.0109 0.0057,-0.018 0.0076,-0.0222 0.0025,-0.005 0.0044,-0.0109 0.0059,-0.0166 0.09066,-0.35993 0.154963,-0.72054 0.221507,-1.10768 0.06104,-0.35511 0.123873,-0.73207 0.208597,-1.09708 l -0.0041,0.0133 c 0.0014,-0.004 0.0023,-0.005 0.0014,-0.004 -3.73e-4,6.6e-4 -0.0014,0.002 -0.0032,0.005 -0.0017,0.002 -0.0049,0.006 -0.0097,0.0105 -0.0048,0.004 -0.01234,0.01 -0.02296,0.0146 -0.01103,0.005 -0.02472,0.008 -0.04009,0.007 -0.01531,-7.5e-4 -0.02853,-0.005 -0.03894,-0.011 -0.01,-0.005 -0.01694,-0.0118 -0.02133,-0.0165 -0.0044,-0.005 -0.0073,-0.009 -0.0089,-0.0116 -0.0017,-0.003 -0.0028,-0.005 -0.0033,-0.006 -9.72e-4,-0.002 -0.001,-0.003 -4.75e-4,-8.6e-4 0.0011,0.004 0.0028,0.0107 0.0047,0.0214 0.0037,0.0212 0.0068,0.0474 0.0099,0.0741 0.0014,0.0126 0.0029,0.0255 0.0044,0.0367 7.34e-4,0.006 0.0015,0.0113 0.0024,0.0167 4.64e-4,0.003 0.001,0.006 0.0017,0.009 0.03266,0.33558 0.08546,0.66656 0.138963,1.00276 0.03898,0.21551 0.08465,0.4369 0.155454,0.65005 0.07136,0.21483 0.168449,0.42197 0.310265,0.60634 0.02059,0.024 0.04293,0.0507 0.06621,0.0758 0.02394,0.0259 0.05192,0.0535 0.08357,0.0774 0.03197,0.0241 0.07028,0.0463 0.114665,0.058 0.02263,0.006 0.04659,0.009 0.0716,0.008 0.02525,-7.7e-4 0.0505,-0.005 0.07544,-0.0141 0.0083,-0.003 0.01609,-0.007 0.02328,-0.0118 0.04954,-0.0343 0.08807,-0.0757 0.118554,-0.11993 0.0309,-0.0448 0.05362,-0.0927 0.07136,-0.13927 0.03455,-0.0907 0.05722,-0.19947 0.07586,-0.27058 0.167697,-0.67518 0.300519,-1.35999 0.405018,-1.91617 0.100647,-0.52688 0.288597,-1.03177 0.395115,-1.31018 a 0.09640887,0.09640887 90 0 0 -0.180088,-0.0689 c -0.106746,0.27901 -0.30029,0.79778 -0.404475,1.34319 -0.104481,0.55608 -0.236446,1.23621 -0.402394,1.90437 -0.02241,0.0854 -0.03959,0.17181 -0.06923,0.24964 -0.01402,0.0368 -0.03021,0.0699 -0.04993,0.0985 -0.01626,0.0236 -0.03502,0.0443 -0.05737,0.0618 -0.0025,4e-4 -0.0048,6e-4 -0.007,6.7e-4 -0.0052,1.6e-4 -0.01078,-4.5e-4 -0.01695,-0.002 -0.01265,-0.003 -0.02834,-0.011 -0.04739,-0.0254 -0.01879,-0.0142 -0.038,-0.0326 -0.05816,-0.0544 -0.02056,-0.0222 -0.03822,-0.0435 -0.05852,-0.0668 -0.121475,-0.15821 -0.209801,-0.34441 -0.276464,-0.5451 -0.06637,-0.1998 -0.110119,-0.4103 -0.148363,-0.62159 -0.05362,-0.33709 -0.105713,-0.66401 -0.137662,-0.9946 -4.49e-4,-0.005 -0.0012,-0.009 -0.0024,-0.0138 3.59e-4,0.001 -6e-6,0 -4.13e-4,-0.002 -4.28e-4,-0.003 -9.35e-4,-0.006 -0.0015,-0.0106 -0.0012,-0.009 -0.0025,-0.0204 -0.004,-0.0335 -0.0029,-0.0255 -0.0066,-0.0576 -0.01152,-0.0857 -0.0025,-0.0141 -0.0057,-0.0295 -0.01,-0.0437 -0.0022,-0.007 -0.0051,-0.0157 -0.0091,-0.0244 -0.0021,-0.004 -0.0047,-0.01 -0.008,-0.0149 -0.0033,-0.005 -0.0078,-0.0117 -0.01391,-0.0182 -0.0061,-0.007 -0.0148,-0.0143 -0.02657,-0.0208 -0.01221,-0.007 -0.02727,-0.0118 -0.04448,-0.0126 -0.01727,-8.5e-4 -0.03291,0.003 -0.04594,0.008 -0.01262,0.005 -0.02225,0.0126 -0.02912,0.0187 -0.0069,0.006 -0.01223,0.0125 -0.01619,0.0178 -0.004,0.005 -0.0073,0.0107 -0.01005,0.0155 -0.0053,0.009 -0.0097,0.0193 -0.01331,0.0285 -0.0017,0.004 -0.0031,0.009 -0.0041,0.0133 -0.08627,0.37166 -0.150102,0.75488 -0.210803,1.10802 -0.06609,0.38447 -0.128894,0.7362 -0.21656,1.0857 -0.0058,0.0141 -0.01031,0.0283 -0.01393,0.0411 -0.0046,0.0161 -0.0085,0.0328 -0.01188,0.0479 -0.0077,0.034 -0.013,0.0594 -0.02046,0.0831 -0.0036,0.0115 -0.007,0.0199 -0.01,0.0259 -0.003,0.006 -0.0051,0.008 -0.0045,0.008 9.51e-4,-9.9e-4 0.0044,-0.004 0.01035,-0.006 0.0054,-0.002 0.01011,-0.001 0.0088,-0.001 l 0.04391,0.0199 c -0.02249,-0.0181 -0.041,-0.0393 -0.05686,-0.0619 -0.01812,-0.0259 -0.03312,-0.0543 -0.04597,-0.0822 -0.0058,-0.0127 -0.01129,-0.0255 -0.01637,-0.0379 -0.02248,-0.0549 -0.04157,-0.1126 -0.06271,-0.16658 -0.224088,-0.55677 -0.346001,-1.14616 -0.432161,-1.603 -0.171197,-0.90773 -0.189443,-1.109 -0.325995,-1.65554 a 0.09640887,0.09640887 90 0 0 -0.187068,0.0467 z"
       id="path-1"
       inkscape:path-effect="#path-effect310;#path-effect312"
       inkscape:original-d="m -16.979157,150.09207 c 0.268235,1.06868 0.338115,2.20241 0.749483,3.23579 0.02268,0.057 0.132173,0.42245 0.258714,0.43545 0.119116,0.0122 0.383469,-1.67296 0.418684,-1.85971 0.02242,-0.11889 0.06133,-0.33959 0.08986,-0.45702 0.01576,-0.0649 0.04689,-0.25469 0.0632,-0.18998 0.03914,0.15528 0.04123,0.32735 0.06517,0.48554 0.08403,0.55523 0.145312,1.21963 0.418683,1.72059 0.094,0.17226 0.319891,0.48818 0.467069,0.35838 0.112549,-0.0993 0.152038,-0.26346 0.187617,-0.40924 0.487631,-1.9981 0.316795,-1.9723 0.814656,-3.28281"
       style="fill:#000000;fill-rule:nonzero;stroke:none" />
  </g>
</svg>
