<?xml version="1.0" encoding="UTF-8" standalone="no"?>
<!-- Created with Inkscape (http://www.inkscape.org/) -->

<svg
   width="3mm"
   height="10mm"
   viewBox="0 0 3.0000001 9.9999994"
   version="1.1"
   id="svg1681"
   inkscape:version="1.2.1 (9c6d41e410, 2022-07-14)"
   sodipodi:docname="dot_17.svg"
   inkscape:export-filename="..\..\..\..\Downloads\lower a diff canvas resize 3.0.png"
   inkscape:export-xdpi="96"
   inkscape:export-ydpi="96"
   xmlns:inkscape="http://www.inkscape.org/namespaces/inkscape"
   xmlns:sodipodi="http://sodipodi.sourceforge.net/DTD/sodipodi-0.dtd"
   xmlns="http://www.w3.org/2000/svg"
   xmlns:svg="http://www.w3.org/2000/svg"
   xmlns:rdf="http://www.w3.org/1999/02/22-rdf-syntax-ns#"
   xmlns:cc="http://creativecommons.org/ns#"
   xmlns:dc="http://purl.org/dc/elements/1.1/">
  <defs
     id="defs1675">
    <inkscape:path-effect
       effect="powerstroke"
       id="path-effect155"
       is_visible="true"
       lpeversion="1"
       offset_points="7.5345157,0.07583208 | 27.588147,0.085311089"
       not_jump="true"
       sort_points="true"
       interpolator_type="CentripetalCatmullRom"
       interpolator_beta="0.75"
       start_linecap_type="round"
       linejoin_type="spiro"
       miter_limit="4"
       scale_width="1"
       end_linecap_type="round" />
    <inkscape:path-effect
       effect="simplify"
       id="path-effect153"
       is_visible="true"
       lpeversion="1"
       steps="1"
       threshold="0.0035951417"
       smooth_angles="0"
       helper_size="0"
       simplify_individual_paths="false"
       simplify_just_coalesce="false"
       step="1" />
    <inkscape:path-effect
       effect="powerstroke"
       id="path-effect260"
       is_visible="true"
       lpeversion="1"
       offset_points="6.464606,0.0380326 | 13.321125,0.045491088 | 22.230539,0.050786048"
       not_jump="true"
       sort_points="true"
       interpolator_type="CentripetalCatmullRom"
       interpolator_beta="0.75"
       start_linecap_type="round"
       linejoin_type="spiro"
       miter_limit="4"
       scale_width="1"
       end_linecap_type="round" />
    <inkscape:path-effect
       effect="simplify"
       id="path-effect258"
       is_visible="true"
       lpeversion="1"
       steps="1"
       threshold="0.0035951417"
       smooth_angles="0"
       helper_size="0"
       simplify_individual_paths="false"
       simplify_just_coalesce="false"
       step="1" />
    <inkscape:path-effect
       effect="powerstroke"
       id="path-effect1447"
       is_visible="true"
       lpeversion="1"
       offset_points="3.2201357,0.087785548 | 12.975655,0.10054732"
       not_jump="true"
       sort_points="true"
       interpolator_type="CentripetalCatmullRom"
       interpolator_beta="0.75"
       start_linecap_type="round"
       linejoin_type="spiro"
       miter_limit="4"
       scale_width="1"
       end_linecap_type="round" />
    <inkscape:path-effect
       effect="simplify"
       id="path-effect1445"
       is_visible="true"
       lpeversion="1"
       steps="1"
       threshold="0.0035951417"
       smooth_angles="0"
       helper_size="0"
       simplify_individual_paths="false"
       simplify_just_coalesce="false"
       step="1" />
    <inkscape:path-effect
       effect="powerstroke"
       id="path-effect502"
       is_visible="true"
       lpeversion="1"
       offset_points="3.0091841,0.21607495 | 7.3602657,0.17554228 | 9.4159651,0.20236537"
       not_jump="true"
       sort_points="true"
       interpolator_type="CentripetalCatmullRom"
       interpolator_beta="0.75"
       start_linecap_type="round"
       linejoin_type="spiro"
       miter_limit="4"
       scale_width="1"
       end_linecap_type="round" />
    <inkscape:path-effect
       effect="simplify"
       id="path-effect500"
       is_visible="true"
       lpeversion="1"
       steps="1"
       threshold="0.0035951417"
       smooth_angles="0"
       helper_size="0"
       simplify_individual_paths="false"
       simplify_just_coalesce="false"
       step="1" />
    <inkscape:path-effect
       effect="powerstroke"
       id="path-effect241"
       is_visible="true"
       lpeversion="1"
       offset_points="2.6879454,0.34086734"
       not_jump="true"
       sort_points="true"
       interpolator_type="CentripetalCatmullRom"
       interpolator_beta="0.75"
       start_linecap_type="round"
       linejoin_type="spiro"
       miter_limit="4"
       scale_width="1"
       end_linecap_type="round" />
    <inkscape:path-effect
       effect="simplify"
       id="path-effect239"
       is_visible="true"
       lpeversion="1"
       steps="1"
       threshold="0.0028332064"
       smooth_angles="0"
       helper_size="0"
       simplify_individual_paths="false"
       simplify_just_coalesce="false"
       step="1" />
    <inkscape:path-effect
       effect="powerstroke"
       id="path-effect234"
       is_visible="true"
       lpeversion="1"
       offset_points="2.13563,0.075169555"
       not_jump="true"
       sort_points="true"
       interpolator_type="CentripetalCatmullRom"
       interpolator_beta="0.75"
       start_linecap_type="round"
       linejoin_type="spiro"
       miter_limit="4"
       scale_width="1"
       end_linecap_type="round" />
    <inkscape:path-effect
       effect="simplify"
       id="path-effect232"
       is_visible="true"
       lpeversion="1"
       steps="1"
       threshold="0.0028332064"
       smooth_angles="0"
       helper_size="0"
       simplify_individual_paths="false"
       simplify_just_coalesce="false"
       step="1" />
    <inkscape:path-effect
       effect="powerstroke"
       id="path-effect227"
       is_visible="true"
       lpeversion="1"
       offset_points="2.1868266,0.075169555"
       not_jump="true"
       sort_points="true"
       interpolator_type="CentripetalCatmullRom"
       interpolator_beta="0.75"
       start_linecap_type="round"
       linejoin_type="spiro"
       miter_limit="4"
       scale_width="1"
       end_linecap_type="round" />
    <inkscape:path-effect
       effect="simplify"
       id="path-effect225"
       is_visible="true"
       lpeversion="1"
       steps="1"
       threshold="0.0028332064"
       smooth_angles="0"
       helper_size="0"
       simplify_individual_paths="false"
       simplify_just_coalesce="false"
       step="1" />
    <inkscape:path-effect
       effect="powerstroke"
       id="path-effect166"
       is_visible="true"
       lpeversion="1"
       offset_points="1.9637935,0.075169555"
       not_jump="true"
       sort_points="true"
       interpolator_type="CentripetalCatmullRom"
       interpolator_beta="0.75"
       start_linecap_type="round"
       linejoin_type="spiro"
       miter_limit="4"
       scale_width="1"
       end_linecap_type="round" />
    <inkscape:path-effect
       effect="simplify"
       id="path-effect164"
       is_visible="true"
       lpeversion="1"
       steps="1"
       threshold="0.0028332064"
       smooth_angles="0"
       helper_size="0"
       simplify_individual_paths="false"
       simplify_just_coalesce="false"
       step="1" />
    <inkscape:path-effect
       effect="powerstroke"
       id="path-effect159"
       is_visible="true"
       lpeversion="1"
       offset_points="2.2611036,0.075169555"
       not_jump="true"
       sort_points="true"
       interpolator_type="CentripetalCatmullRom"
       interpolator_beta="0.75"
       start_linecap_type="round"
       linejoin_type="spiro"
       miter_limit="4"
       scale_width="1"
       end_linecap_type="round" />
    <inkscape:path-effect
       effect="simplify"
       id="path-effect157"
       is_visible="true"
       lpeversion="1"
       steps="1"
       threshold="0.0028332064"
       smooth_angles="0"
       helper_size="0"
       simplify_individual_paths="false"
       simplify_just_coalesce="false"
       step="1" />
    <inkscape:path-effect
       effect="powerstroke"
       id="path-effect152"
       is_visible="true"
       lpeversion="1"
       offset_points="2.826981,0.075169555"
       not_jump="true"
       sort_points="true"
       interpolator_type="CentripetalCatmullRom"
       interpolator_beta="0.75"
       start_linecap_type="round"
       linejoin_type="spiro"
       miter_limit="4"
       scale_width="1"
       end_linecap_type="round" />
    <inkscape:path-effect
       effect="simplify"
       id="path-effect150"
       is_visible="true"
       lpeversion="1"
       steps="1"
       threshold="0.0028332064"
       smooth_angles="0"
       helper_size="0"
       simplify_individual_paths="false"
       simplify_just_coalesce="false"
       step="1" />
    <inkscape:path-effect
       effect="powerstroke"
       id="path-effect145"
       is_visible="true"
       lpeversion="1"
       offset_points="3.8374447,0.075169555"
       not_jump="true"
       sort_points="true"
       interpolator_type="CentripetalCatmullRom"
       interpolator_beta="0.75"
       start_linecap_type="round"
       linejoin_type="spiro"
       miter_limit="4"
       scale_width="1"
       end_linecap_type="round" />
    <inkscape:path-effect
       effect="simplify"
       id="path-effect143"
       is_visible="true"
       lpeversion="1"
       steps="1"
       threshold="0.0028332064"
       smooth_angles="0"
       helper_size="0"
       simplify_individual_paths="false"
       simplify_just_coalesce="false"
       step="1" />
    <inkscape:path-effect
       effect="powerstroke"
       id="path-effect138"
       is_visible="true"
       lpeversion="1"
       offset_points="2.6880907,0.075169555"
       not_jump="true"
       sort_points="true"
       interpolator_type="CentripetalCatmullRom"
       interpolator_beta="0.75"
       start_linecap_type="round"
       linejoin_type="spiro"
       miter_limit="4"
       scale_width="1"
       end_linecap_type="round" />
    <inkscape:path-effect
       effect="simplify"
       id="path-effect136"
       is_visible="true"
       lpeversion="1"
       steps="1"
       threshold="0.0028332064"
       smooth_angles="0"
       helper_size="0"
       simplify_individual_paths="false"
       simplify_just_coalesce="false"
       step="1" />
    <inkscape:path-effect
       effect="powerstroke"
       id="path-effect131"
       is_visible="true"
       lpeversion="1"
       offset_points="1.9940581,0.075169555"
       not_jump="true"
       sort_points="true"
       interpolator_type="CentripetalCatmullRom"
       interpolator_beta="0.75"
       start_linecap_type="round"
       linejoin_type="spiro"
       miter_limit="4"
       scale_width="1"
       end_linecap_type="round" />
    <inkscape:path-effect
       effect="simplify"
       id="path-effect129"
       is_visible="true"
       lpeversion="1"
       steps="1"
       threshold="0.0028332064"
       smooth_angles="0"
       helper_size="0"
       simplify_individual_paths="false"
       simplify_just_coalesce="false"
       step="1" />
  </defs>
  <sodipodi:namedview
     id="base"
     pagecolor="#ffffff"
     bordercolor="#666666"
     borderopacity="1.0"
     inkscape:pageopacity="0.0"
     inkscape:pageshadow="2"
     inkscape:zoom="7.919596"
     inkscape:cx="-5.3033008"
     inkscape:cy="20.834396"
     inkscape:document-units="mm"
     inkscape:current-layer="layer1"
     showgrid="false"
     fit-margin-top="0"
     fit-margin-left="0"
     fit-margin-right="0"
     fit-margin-bottom="0"
     inkscape:window-width="1920"
     inkscape:window-height="974"
     inkscape:window-x="-11"
     inkscape:window-y="2889"
     inkscape:window-maximized="1"
     showguides="true"
     inkscape:guide-bbox="true"
     inkscape:snap-bbox="true"
     inkscape:bbox-nodes="true"
     inkscape:snap-nodes="false"
     inkscape:snap-others="false"
     inkscape:snap-page="true"
     inkscape:snap-grids="false"
     inkscape:snap-to-guides="false"
     inkscape:snap-global="false"
     inkscape:pagecheckerboard="0"
     inkscape:showpageshadow="2"
     inkscape:deskcolor="#d1d1d1">
    <sodipodi:guide
       position="-6.1806076,9.4988693"
       orientation="0,1"
       id="guide816"
       inkscape:locked="false" />
    <sodipodi:guide
       position="-4.4101636,10.646923"
       orientation="0,1"
       id="guide818"
       inkscape:locked="false" />
    <sodipodi:guide
       position="2.7595724,11.09577"
       orientation="1,0"
       id="guide820"
       inkscape:locked="false" />
    <sodipodi:guide
       position="3.6572659,10.942217"
       orientation="1,0"
       id="guide822"
       inkscape:locked="false" />
    <sodipodi:guide
       position="-0.051625511,9.74923"
       orientation="1,0"
       id="guide1853"
       inkscape:locked="false" />
    <sodipodi:guide
       position="-2.3720169,3.0175835"
       orientation="0,1"
       id="guide1855"
       inkscape:locked="false" />
  </sodipodi:namedview>
  <metadata
     id="metadata1678">
    <rdf:RDF>
      <cc:Work
         rdf:about="">
        <dc:format>image/svg+xml</dc:format>
        <dc:type
           rdf:resource="http://purl.org/dc/dcmitype/StillImage" />
      </cc:Work>
    </rdf:RDF>
  </metadata>
  <g
     inkscape:label="Layer 1"
     inkscape:groupmode="layer"
     id="layer1"
     transform="translate(17.028496,-147.22856)">
    <path
       d="m -15.938465,153.5971 c -0.0164,0.006 -0.04077,0.0126 -0.07428,0.0244 -0.01375,0.005 -0.03003,0.0112 -0.0466,0.0197 -0.01546,0.008 -0.03218,0.0185 -0.04835,0.0326 -0.01598,0.014 -0.02775,0.0298 -0.03673,0.0457 -0.0083,0.0147 -0.01411,0.0294 -0.01858,0.0419 -0.0043,0.0121 -0.0077,0.0228 -0.01077,0.0313 -0.0031,0.008 -0.0055,0.014 -0.0079,0.018 -0.01094,0.0243 -0.02403,0.0534 -0.03098,0.0828 -0.0036,0.0151 -0.0062,0.0328 -0.0057,0.052 5.61e-4,0.019 0.0043,0.0394 0.01315,0.0598 0.002,0.006 0.0081,0.0177 0.0164,0.0279 0.0083,0.0101 0.01806,0.0181 0.0286,0.0241 0.01031,0.006 0.02073,0.01 0.03043,0.0117 0.0096,0.002 0.01867,0.003 0.02687,0.003 0.01591,1e-5 0.03061,-0.003 0.04264,-0.006 0.01201,-0.003 0.02328,-0.008 0.03302,-0.0127 0.02573,-0.0132 0.04578,-0.0294 0.06128,-0.0426 0.01682,-0.0143 0.02664,-0.0233 0.03832,-0.0316 0.03828,-0.0339 0.06943,-0.066 0.0968,-0.10241 0.0271,-0.036 0.05091,-0.0768 0.06719,-0.12281 0.0013,-0.004 0.0023,-0.008 0.003,-0.0114 0.0022,-0.012 0.0027,-0.0242 0.0014,-0.0363 -0.0013,-0.012 -0.0044,-0.0235 -0.0089,-0.0341 -0.0089,-0.0211 -0.02294,-0.0378 -0.03833,-0.0502 -0.0153,-0.0123 -0.0328,-0.0209 -0.05075,-0.026 -0.01621,-0.005 -0.03388,-0.007 -0.0519,-0.005 -0.01943,3.8e-4 -0.03741,0.004 -0.05376,0.01 -0.01751,0.006 -0.03271,0.0148 -0.04563,0.0236 -0.0018,0.001 -0.0036,0.002 -0.0053,0.004 -0.02177,0.0156 -0.04077,0.0344 -0.05416,0.0471 -0.06081,0.0604 -0.11041,0.13695 -0.138272,0.22537 -0.008,0.0159 -0.0125,0.0328 -0.01384,0.0497 -0.0016,0.02 0.0013,0.04 0.008,0.0584 0.0066,0.0181 0.01713,0.0354 0.0316,0.0501 0.01435,0.0145 0.0326,0.0264 0.05415,0.0333 0.01061,0.005 0.02923,0.009 0.04722,0.01 0.01749,8.4e-4 0.03369,-0.001 0.04791,-0.004 0.01397,-0.003 0.02678,-0.007 0.03775,-0.0115 0.01064,-0.004 0.02099,-0.008 0.02886,-0.0117 0.05427,-0.0257 0.09587,-0.0633 0.127125,-0.10717 0.03055,-0.0428 0.05176,-0.0923 0.06276,-0.14313 0.0042,-0.0217 0.0081,-0.0456 0.0092,-0.0709 0.001,-0.0251 -7.88e-4,-0.0536 -0.0097,-0.083 -0.0071,-0.0187 -0.01436,-0.031 -0.02396,-0.0419 -0.0096,-0.0109 -0.02082,-0.0196 -0.03296,-0.026 -0.01196,-0.006 -0.02429,-0.0102 -0.03603,-0.0122 -0.01165,-0.002 -0.02291,-0.002 -0.03332,-0.002 -0.02045,0.001 -0.03963,0.007 -0.05609,0.015 -0.01632,0.008 -0.03249,0.0184 -0.04615,0.0321 -0.0185,0.0178 -0.03228,0.0387 -0.04251,0.0561 -0.01036,0.0176 -0.01809,0.0328 -0.02483,0.0439 -0.02597,0.0493 -0.04625,0.0996 -0.05856,0.15292 -0.01225,0.0531 -0.01677,0.10985 -0.0083,0.16778 0.002,0.0135 0.006,0.0267 0.01226,0.0392 0.0063,0.0125 0.01441,0.0233 0.02381,0.0325 0.0093,0.009 0.01949,0.0161 0.02968,0.0215 0.01014,0.005 0.02039,0.009 0.03018,0.0117 0.01934,0.005 0.03857,0.006 0.05573,0.005 0.01719,-0.001 0.03447,-0.005 0.05045,-0.0108 0.04334,-0.0137 0.08422,-0.0386 0.116087,-0.0581 0.04682,-0.0308 0.08918,-0.068 0.123892,-0.1122 0.03484,-0.0444 0.06248,-0.0965 0.07636,-0.15528 0.0031,-0.0102 0.0062,-0.0257 0.0077,-0.0419 0.0015,-0.0161 0.0015,-0.0342 -0.0017,-0.0528 -0.0032,-0.0187 -0.0098,-0.0391 -0.02212,-0.0585 -0.01266,-0.0199 -0.03029,-0.0369 -0.05273,-0.0492 -0.01571,-0.009 -0.03327,-0.0161 -0.05011,-0.021 -0.01678,-0.005 -0.03306,-0.008 -0.04789,-0.01 -0.03005,-0.004 -0.05578,-0.005 -0.07559,-0.007 -0.04776,-0.004 -0.0932,0.007 -0.131517,0.0293 -0.01953,0.0112 -0.03786,0.0256 -0.05357,0.0433 -0.01585,0.0178 -0.02898,0.0389 -0.03773,0.0629 -0.0076,0.0224 -0.01024,0.0426 -0.01028,0.0613 -3.1e-5,0.0186 0.0025,0.0357 0.0056,0.0505 0.0054,0.0253 0.0168,0.0586 0.02029,0.0706 0.02005,0.0568 0.04606,0.10659 0.08033,0.15077 0.01907,0.0221 0.03866,0.0351 0.05959,0.043 0.02079,0.008 0.04156,0.0101 0.06029,0.009 0.0189,-8.7e-4 0.03672,-0.005 0.05259,-0.0108 0.01609,-0.006 0.03128,-0.0141 0.04481,-0.0239 0.05326,-0.035 0.09319,-0.0875 0.121184,-0.12545 0.02175,-0.0308 0.04021,-0.0627 0.05455,-0.0967 0.01493,-0.0354 0.02536,-0.0731 0.02922,-0.11256 4.08e-4,-0.004 4.92e-4,-0.008 2.79e-4,-0.0126 -0.0012,-0.0244 -0.009,-0.0466 -0.02111,-0.0653 -0.01225,-0.0189 -0.02833,-0.0332 -0.04583,-0.0433 -0.0063,-0.004 -0.01277,-0.007 -0.0194,-0.009 -0.01221,-0.005 -0.02518,-0.008 -0.0385,-0.009 -0.01867,-0.002 -0.03836,5.5e-4 -0.05738,0.007 -0.01583,0.005 -0.03042,0.011 -0.04372,0.0187 -0.01453,0.008 -0.02736,0.0184 -0.03858,0.0289 -0.02058,0.0194 -0.03644,0.0415 -0.04846,0.0629 -0.01938,0.0275 -0.03815,0.0596 -0.05141,0.0952 -0.0071,0.019 -0.01269,0.0394 -0.0159,0.0608 -0.003,0.0202 -0.0039,0.0414 -0.0019,0.0631 4.31e-4,0.0129 0.0026,0.0256 0.0066,0.0377 0.0046,0.0139 0.01121,0.0266 0.01934,0.0376 0.01625,0.0221 0.0374,0.0372 0.05928,0.0465 0.02177,0.009 0.04554,0.0133 0.06898,0.012 0.02203,-0.001 0.04508,-0.007 0.06633,-0.0199 0.01471,-0.008 0.0272,-0.0166 0.03779,-0.0259 0.01167,-0.0103 0.02119,-0.021 0.02889,-0.0306 0.01589,-0.0198 0.0261,-0.0364 0.03373,-0.0466 0.0401,-0.0616 0.06224,-0.12293 0.07494,-0.18058 0.0018,-0.008 0.0024,-0.0161 0.0018,-0.0242 -0.0017,-0.0248 -0.01005,-0.0473 -0.02272,-0.0659 -0.01283,-0.0189 -0.02943,-0.0331 -0.04737,-0.0429 -0.01834,-0.0101 -0.03862,-0.0159 -0.05918,-0.0172 -0.01958,-0.001 -0.03971,0.002 -0.05888,0.009 -0.03559,0.0116 -0.06349,0.0329 -0.08357,0.0565 -0.02076,0.0243 -0.03425,0.052 -0.04164,0.0792 -0.01211,0.0284 -0.02278,0.0588 -0.02853,0.0909 -0.0035,0.0199 -0.0051,0.0398 -0.0042,0.0598 0.0011,0.0229 0.0054,0.0447 0.01261,0.0651 a 0.08531109,0.08531109 90 0 0 0.160784,-0.0571 c -0.0015,-0.004 -0.0026,-0.009 -0.0029,-0.0159 -2.65e-4,-0.006 1.29e-4,-0.013 0.0017,-0.0219 0.0029,-0.0162 0.0092,-0.0351 0.0198,-0.0591 0.0022,-0.005 0.0039,-0.0102 0.0051,-0.0155 0.0013,-0.006 0.0038,-0.0108 0.0071,-0.0146 0.0028,-0.003 0.0053,-0.005 0.007,-0.005 0.0034,-9.8e-4 0.0067,-0.002 0.0099,-0.004 -0.0051,0.002 -0.01043,0.003 -0.01509,0.003 -0.0044,-2.7e-4 -0.0086,-0.001 -0.01257,-0.004 -0.0039,-0.002 -0.0081,-0.006 -0.0117,-0.0108 -0.0037,-0.005 -0.006,-0.0119 -0.0065,-0.0187 -5.58e-4,-0.008 5.8e-5,-0.0163 0.0018,-0.0242 -0.0094,0.0422 -0.02487,0.0835 -0.0482,0.11952 -0.01024,0.0133 -0.01979,0.0284 -0.02704,0.0374 -0.0036,0.005 -0.0063,0.007 -0.0083,0.009 -0.0019,0.002 -0.0039,0.003 -0.0061,0.004 -0.0022,0.001 -0.0044,0.002 -0.0065,0.004 0.0048,-0.003 0.009,-0.004 0.01175,-0.004 0.0026,-1.5e-4 0.0052,2.4e-4 0.0079,0.001 0.003,0.001 0.0075,0.004 0.01178,0.01 0.0022,0.003 0.0041,0.007 0.0054,0.0105 0.0013,0.004 0.0018,0.008 0.0018,0.011 l -5.29e-4,-0.0101 c -8.17e-4,-0.007 -6.6e-4,-0.0149 5.64e-4,-0.0231 0.0012,-0.008 0.0035,-0.0171 0.007,-0.0266 0.0071,-0.0191 0.01845,-0.0391 0.03295,-0.0593 0.0022,-0.003 0.0042,-0.006 0.006,-0.01 0.0057,-0.0107 0.01184,-0.0188 0.01762,-0.0243 0.0028,-0.003 0.0053,-0.004 0.0073,-0.006 0.002,-0.001 0.0038,-0.002 0.0054,-0.002 0.0035,-9.6e-4 0.0071,-0.002 0.01047,-0.003 -0.0052,0.002 -0.0106,0.003 -0.01525,0.002 -0.003,-2.6e-4 -0.0058,-9.5e-4 -0.0085,-0.002 -0.0015,-5.7e-4 -0.0029,-0.001 -0.0044,-0.002 -0.004,-0.002 -0.0083,-0.006 -0.01178,-0.0114 -0.0036,-0.006 -0.0058,-0.0122 -0.0062,-0.019 -2.01e-4,-0.004 -1.14e-4,-0.008 2.79e-4,-0.0126 -0.0019,0.0202 -0.0073,0.0413 -0.01645,0.0631 -0.0088,0.0211 -0.02078,0.0424 -0.03554,0.0635 -0.02711,0.0371 -0.05132,0.0668 -0.07977,0.0858 -0.0041,0.003 -0.0056,0.004 -0.0072,0.004 -0.0014,7e-4 0.0011,7.1e-4 0.0048,0.002 0.0041,0.002 0.0081,0.004 0.01093,0.008 -0.01931,-0.0247 -0.03751,-0.0583 -0.05113,-0.0957 -0.0059,-0.0201 -0.01313,-0.04 -0.01622,-0.0539 -0.0016,-0.007 -0.0021,-0.012 -0.0022,-0.0156 -4.3e-5,-0.003 3.36e-4,-0.005 7.02e-4,-0.006 4.65e-4,-0.001 0.0022,-0.005 0.0051,-0.008 0.0029,-0.003 0.0069,-0.007 0.01201,-0.01 0.01063,-0.006 0.02343,-0.009 0.03464,-0.008 0.02531,0.003 0.04946,0.003 0.06825,0.006 0.0095,0.001 0.01721,0.003 0.02382,0.005 0.0065,0.002 0.0116,0.004 0.01586,0.006 -6.76e-4,-4.1e-4 -0.0033,-0.003 -0.005,-0.006 -0.0015,-0.002 -0.0013,-0.003 -9.89e-4,-0.002 3.57e-4,0.002 6.55e-4,0.005 2.46e-4,0.0102 -4.02e-4,0.005 -0.0014,0.0104 -0.0029,0.0158 -0.0085,0.0361 -0.02414,0.0673 -0.04661,0.0962 -0.02248,0.0289 -0.0512,0.0547 -0.08325,0.076 -0.03078,0.0193 -0.05611,0.0342 -0.08183,0.0427 -0.0045,0.002 -0.0069,0.002 -0.0096,0.003 -0.0025,2.3e-4 -0.0044,-1.5e-4 -0.0034,1.6e-4 0.0057,0.003 0.0083,0.004 0.01108,0.007 0.0028,0.003 0.0054,0.006 0.0073,0.01 0.0019,0.004 0.0028,0.007 0.0031,0.01 -0.0052,-0.035 -0.003,-0.0716 0.0055,-0.109 0.0085,-0.0376 0.02322,-0.0753 0.04194,-0.11134 0.0084,-0.0142 0.01608,-0.0297 0.02283,-0.0414 0.007,-0.0122 0.01225,-0.0193 0.01695,-0.024 -1.58e-4,1.2e-4 9.94e-4,-0.001 0.0023,-0.002 0.0017,-8.4e-4 0.0024,-7.8e-4 0.001,-7.1e-4 -7.75e-4,4e-5 -0.0026,7e-5 -0.0052,-4e-4 -0.0027,-4.8e-4 -0.0063,-0.002 -0.01031,-0.004 -0.0041,-0.002 -0.0081,-0.005 -0.01133,-0.009 -0.0032,-0.004 -0.0051,-0.007 -0.006,-0.01 5.1e-4,0.002 0.0018,0.0122 0.0014,0.0255 -4.12e-4,0.0136 -0.0025,0.0287 -0.0057,0.046 -0.0062,0.0293 -0.01912,0.0592 -0.03672,0.0841 -0.01789,0.0253 -0.03987,0.0445 -0.0644,0.0562 -0.0061,0.003 -0.01304,0.006 -0.02015,0.008 -0.0069,0.003 -0.01225,0.004 -0.01651,0.005 -0.0042,9.9e-4 -0.0065,0.001 -0.0074,0.001 -0.0044,-0.002 -0.0017,2.6e-4 2.24e-4,0.002 0.0018,0.002 0.0028,0.004 0.0034,0.005 5.53e-4,0.002 8.71e-4,0.004 6.57e-4,0.006 -2.3e-4,0.003 -0.0011,0.005 -0.0029,0.008 l 0.0082,-0.0183 c 0.0193,-0.0657 0.05579,-0.12342 0.10055,-0.16812 0.01541,-0.0148 0.02546,-0.0247 0.0365,-0.0326 0.0073,-0.005 0.01107,-0.007 0.0138,-0.008 0.0025,-9.2e-4 0.0043,-0.001 0.006,-0.001 0.0031,-0.004 3.1e-4,-0.006 -0.0018,-0.0114 -0.0011,-0.003 -0.0018,-0.005 -0.0022,-0.008 -3.23e-4,-0.003 -1.44e-4,-0.006 2.51e-4,-0.008 7.26e-4,-0.004 0.0017,-0.008 0.003,-0.0114 -0.01014,0.0287 -0.02568,0.0561 -0.04544,0.0824 -0.02006,0.0267 -0.04409,0.0518 -0.07024,0.0755 -0.01186,0.008 -0.03055,0.0245 -0.04187,0.0342 -0.01372,0.0117 -0.02292,0.0184 -0.03158,0.0229 -8.64e-4,4.1e-4 -0.0033,0.001 -0.0057,0.002 -0.0026,7.4e-4 -0.0032,5.4e-4 -0.0017,5.4e-4 8.93e-4,0 0.0029,7e-5 0.0058,7.1e-4 0.003,6.6e-4 0.0071,0.002 0.01163,0.005 0.0047,0.003 0.0093,0.006 0.01321,0.0112 0.0039,0.005 0.0062,0.009 0.0076,0.0132 -0.0023,-0.006 -0.0027,-0.007 -0.0027,-0.009 -7e-5,-0.003 2.71e-4,-0.007 0.0017,-0.0127 0.0033,-0.014 0.0099,-0.0288 0.01887,-0.0501 0.0046,-0.007 0.01069,-0.0218 0.01506,-0.0338 0.0047,-0.0129 0.0081,-0.0237 0.0111,-0.0321 0.0033,-0.009 0.0057,-0.0146 0.0079,-0.0185 0.0021,-0.004 0.0036,-0.005 0.0046,-0.006 0.0051,-0.004 0.01105,-0.008 0.01826,-0.0121 0.0079,-0.004 0.01694,-0.008 0.02715,-0.0113 0.02407,-0.008 0.05257,-0.0159 0.0786,-0.026 a 0.07583208,0.07583208 90 0 0 -0.05451,-0.14152 z"
       id="path-1"
       inkscape:path-effect="#path-effect153;#path-effect155"
       inkscape:original-d="m -15.911209,153.66786 c -0.0664,0.0254 -0.157804,0.0352 -0.179152,0.11683 -0.01806,0.0626 -0.08393,0.15002 -0.0344,0.20771 0.06243,0.0193 0.108023,-0.0434 0.153691,-0.0752 0.05765,-0.0522 0.110164,-0.11462 0.136232,-0.18868 0.0072,-0.0766 -0.09934,-0.0753 -0.13987,-0.0343 -0.07564,0.0591 -0.13351,0.14395 -0.160688,0.23612 -0.03534,0.0722 0.04775,0.11481 0.106864,0.0859 0.125934,-0.0358 0.196463,-0.17897 0.1838,-0.30316 -0.01064,-0.0811 -0.103026,-0.0435 -0.126797,0.009 -0.05922,0.0925 -0.102223,0.20463 -0.08843,0.31613 0.0081,0.0723 0.09785,0.0481 0.140076,0.0227 0.114468,-0.0547 0.217851,-0.16051 0.227742,-0.29225 0.0035,-0.092 -0.105355,-0.0913 -0.170702,-0.0968 -0.08019,-0.0103 -0.1682,0.0543 -0.145731,0.14115 0.01418,0.069 0.04269,0.13744 0.08618,0.19317 0.05159,0.0525 0.122831,-0.009 0.159442,-0.0509 0.05574,-0.0622 0.103578,-0.13823 0.111811,-0.22288 -0.01486,-0.0858 -0.125322,-0.035 -0.147448,0.0215 -0.04256,0.0554 -0.07851,0.12832 -0.06039,0.19906 0.03233,0.0617 0.109003,0.0283 0.136562,-0.0195 0.04412,-0.0524 0.07181,-0.1171 0.08649,-0.18364 -0.01614,-0.0873 -0.133055,-0.0355 -0.142439,0.0308 -0.02379,0.0513 -0.04533,0.11386 -0.02525,0.16948"
       style="fill:#000000;fill-rule:nonzero;stroke:none;stroke-width:0.896723" />
  </g>
</svg>
