<?xml version="1.0" encoding="UTF-8" standalone="no"?>
<!-- Created with Inkscape (http://www.inkscape.org/) -->

<svg
   width="3mm"
   height="10mm"
   viewBox="0 0 3.0000001 9.9999994"
   version="1.1"
   id="svg1681"
   inkscape:version="1.2.1 (9c6d41e410, 2022-07-14)"
   sodipodi:docname="dot_10.svg"
   inkscape:export-filename="..\..\..\..\Downloads\lower a diff canvas resize 3.0.png"
   inkscape:export-xdpi="96"
   inkscape:export-ydpi="96"
   xmlns:inkscape="http://www.inkscape.org/namespaces/inkscape"
   xmlns:sodipodi="http://sodipodi.sourceforge.net/DTD/sodipodi-0.dtd"
   xmlns="http://www.w3.org/2000/svg"
   xmlns:svg="http://www.w3.org/2000/svg"
   xmlns:rdf="http://www.w3.org/1999/02/22-rdf-syntax-ns#"
   xmlns:cc="http://creativecommons.org/ns#"
   xmlns:dc="http://purl.org/dc/elements/1.1/">
  <defs
     id="defs1675">
    <inkscape:path-effect
       effect="powerstroke"
       id="path-effect153"
       is_visible="true"
       lpeversion="1"
       offset_points="8.8110212,0.080661891 | 10.214209,0.09148239 | 32.679216,0.10168809 | 38.231793,0.089760945"
       not_jump="true"
       sort_points="true"
       interpolator_type="CentripetalCatmullRom"
       interpolator_beta="0.75"
       start_linecap_type="round"
       linejoin_type="spiro"
       miter_limit="4"
       scale_width="1"
       end_linecap_type="round" />
    <inkscape:path-effect
       effect="simplify"
       id="path-effect151"
       is_visible="true"
       lpeversion="1"
       steps="1"
       threshold="0.0035951417"
       smooth_angles="0"
       helper_size="0"
       simplify_individual_paths="false"
       simplify_just_coalesce="false"
       step="1" />
    <inkscape:path-effect
       effect="powerstroke"
       id="path-effect1728"
       is_visible="true"
       lpeversion="1"
       offset_points="8.1536841,0.077481146 | 19.435006,0.087667 | 22.983426,0.079655653"
       not_jump="true"
       sort_points="true"
       interpolator_type="CentripetalCatmullRom"
       interpolator_beta="0.75"
       start_linecap_type="round"
       linejoin_type="spiro"
       miter_limit="4"
       scale_width="1"
       end_linecap_type="round" />
    <inkscape:path-effect
       effect="simplify"
       id="path-effect1726"
       is_visible="true"
       lpeversion="1"
       steps="1"
       threshold="0.0035951417"
       smooth_angles="0"
       helper_size="0"
       simplify_individual_paths="false"
       simplify_just_coalesce="false"
       step="1" />
    <inkscape:path-effect
       effect="powerstroke"
       id="path-effect502"
       is_visible="true"
       lpeversion="1"
       offset_points="3.0091841,0.21607495 | 7.3602657,0.17554228 | 9.4159651,0.20236537"
       not_jump="true"
       sort_points="true"
       interpolator_type="CentripetalCatmullRom"
       interpolator_beta="0.75"
       start_linecap_type="round"
       linejoin_type="spiro"
       miter_limit="4"
       scale_width="1"
       end_linecap_type="round" />
    <inkscape:path-effect
       effect="simplify"
       id="path-effect500"
       is_visible="true"
       lpeversion="1"
       steps="1"
       threshold="0.0035951417"
       smooth_angles="0"
       helper_size="0"
       simplify_individual_paths="false"
       simplify_just_coalesce="false"
       step="1" />
    <inkscape:path-effect
       effect="powerstroke"
       id="path-effect241"
       is_visible="true"
       lpeversion="1"
       offset_points="2.6879454,0.34086734"
       not_jump="true"
       sort_points="true"
       interpolator_type="CentripetalCatmullRom"
       interpolator_beta="0.75"
       start_linecap_type="round"
       linejoin_type="spiro"
       miter_limit="4"
       scale_width="1"
       end_linecap_type="round" />
    <inkscape:path-effect
       effect="simplify"
       id="path-effect239"
       is_visible="true"
       lpeversion="1"
       steps="1"
       threshold="0.0028332064"
       smooth_angles="0"
       helper_size="0"
       simplify_individual_paths="false"
       simplify_just_coalesce="false"
       step="1" />
    <inkscape:path-effect
       effect="powerstroke"
       id="path-effect234"
       is_visible="true"
       lpeversion="1"
       offset_points="2.13563,0.075169555"
       not_jump="true"
       sort_points="true"
       interpolator_type="CentripetalCatmullRom"
       interpolator_beta="0.75"
       start_linecap_type="round"
       linejoin_type="spiro"
       miter_limit="4"
       scale_width="1"
       end_linecap_type="round" />
    <inkscape:path-effect
       effect="simplify"
       id="path-effect232"
       is_visible="true"
       lpeversion="1"
       steps="1"
       threshold="0.0028332064"
       smooth_angles="0"
       helper_size="0"
       simplify_individual_paths="false"
       simplify_just_coalesce="false"
       step="1" />
    <inkscape:path-effect
       effect="powerstroke"
       id="path-effect227"
       is_visible="true"
       lpeversion="1"
       offset_points="2.1868266,0.075169555"
       not_jump="true"
       sort_points="true"
       interpolator_type="CentripetalCatmullRom"
       interpolator_beta="0.75"
       start_linecap_type="round"
       linejoin_type="spiro"
       miter_limit="4"
       scale_width="1"
       end_linecap_type="round" />
    <inkscape:path-effect
       effect="simplify"
       id="path-effect225"
       is_visible="true"
       lpeversion="1"
       steps="1"
       threshold="0.0028332064"
       smooth_angles="0"
       helper_size="0"
       simplify_individual_paths="false"
       simplify_just_coalesce="false"
       step="1" />
    <inkscape:path-effect
       effect="powerstroke"
       id="path-effect166"
       is_visible="true"
       lpeversion="1"
       offset_points="1.9637935,0.075169555"
       not_jump="true"
       sort_points="true"
       interpolator_type="CentripetalCatmullRom"
       interpolator_beta="0.75"
       start_linecap_type="round"
       linejoin_type="spiro"
       miter_limit="4"
       scale_width="1"
       end_linecap_type="round" />
    <inkscape:path-effect
       effect="simplify"
       id="path-effect164"
       is_visible="true"
       lpeversion="1"
       steps="1"
       threshold="0.0028332064"
       smooth_angles="0"
       helper_size="0"
       simplify_individual_paths="false"
       simplify_just_coalesce="false"
       step="1" />
    <inkscape:path-effect
       effect="powerstroke"
       id="path-effect159"
       is_visible="true"
       lpeversion="1"
       offset_points="2.2611036,0.075169555"
       not_jump="true"
       sort_points="true"
       interpolator_type="CentripetalCatmullRom"
       interpolator_beta="0.75"
       start_linecap_type="round"
       linejoin_type="spiro"
       miter_limit="4"
       scale_width="1"
       end_linecap_type="round" />
    <inkscape:path-effect
       effect="simplify"
       id="path-effect157"
       is_visible="true"
       lpeversion="1"
       steps="1"
       threshold="0.0028332064"
       smooth_angles="0"
       helper_size="0"
       simplify_individual_paths="false"
       simplify_just_coalesce="false"
       step="1" />
    <inkscape:path-effect
       effect="powerstroke"
       id="path-effect152"
       is_visible="true"
       lpeversion="1"
       offset_points="2.826981,0.075169555"
       not_jump="true"
       sort_points="true"
       interpolator_type="CentripetalCatmullRom"
       interpolator_beta="0.75"
       start_linecap_type="round"
       linejoin_type="spiro"
       miter_limit="4"
       scale_width="1"
       end_linecap_type="round" />
    <inkscape:path-effect
       effect="simplify"
       id="path-effect150"
       is_visible="true"
       lpeversion="1"
       steps="1"
       threshold="0.0028332064"
       smooth_angles="0"
       helper_size="0"
       simplify_individual_paths="false"
       simplify_just_coalesce="false"
       step="1" />
    <inkscape:path-effect
       effect="powerstroke"
       id="path-effect145"
       is_visible="true"
       lpeversion="1"
       offset_points="3.8374447,0.075169555"
       not_jump="true"
       sort_points="true"
       interpolator_type="CentripetalCatmullRom"
       interpolator_beta="0.75"
       start_linecap_type="round"
       linejoin_type="spiro"
       miter_limit="4"
       scale_width="1"
       end_linecap_type="round" />
    <inkscape:path-effect
       effect="simplify"
       id="path-effect143"
       is_visible="true"
       lpeversion="1"
       steps="1"
       threshold="0.0028332064"
       smooth_angles="0"
       helper_size="0"
       simplify_individual_paths="false"
       simplify_just_coalesce="false"
       step="1" />
    <inkscape:path-effect
       effect="powerstroke"
       id="path-effect138"
       is_visible="true"
       lpeversion="1"
       offset_points="2.6880907,0.075169555"
       not_jump="true"
       sort_points="true"
       interpolator_type="CentripetalCatmullRom"
       interpolator_beta="0.75"
       start_linecap_type="round"
       linejoin_type="spiro"
       miter_limit="4"
       scale_width="1"
       end_linecap_type="round" />
    <inkscape:path-effect
       effect="simplify"
       id="path-effect136"
       is_visible="true"
       lpeversion="1"
       steps="1"
       threshold="0.0028332064"
       smooth_angles="0"
       helper_size="0"
       simplify_individual_paths="false"
       simplify_just_coalesce="false"
       step="1" />
    <inkscape:path-effect
       effect="powerstroke"
       id="path-effect131"
       is_visible="true"
       lpeversion="1"
       offset_points="1.9940581,0.075169555"
       not_jump="true"
       sort_points="true"
       interpolator_type="CentripetalCatmullRom"
       interpolator_beta="0.75"
       start_linecap_type="round"
       linejoin_type="spiro"
       miter_limit="4"
       scale_width="1"
       end_linecap_type="round" />
    <inkscape:path-effect
       effect="simplify"
       id="path-effect129"
       is_visible="true"
       lpeversion="1"
       steps="1"
       threshold="0.0028332064"
       smooth_angles="0"
       helper_size="0"
       simplify_individual_paths="false"
       simplify_just_coalesce="false"
       step="1" />
  </defs>
  <sodipodi:namedview
     id="base"
     pagecolor="#ffffff"
     bordercolor="#666666"
     borderopacity="1.0"
     inkscape:pageopacity="0.0"
     inkscape:pageshadow="2"
     inkscape:zoom="7.919596"
     inkscape:cx="-5.3033008"
     inkscape:cy="20.834396"
     inkscape:document-units="mm"
     inkscape:current-layer="layer1"
     showgrid="false"
     fit-margin-top="0"
     fit-margin-left="0"
     fit-margin-right="0"
     fit-margin-bottom="0"
     inkscape:window-width="1920"
     inkscape:window-height="974"
     inkscape:window-x="-11"
     inkscape:window-y="2869"
     inkscape:window-maximized="1"
     showguides="true"
     inkscape:guide-bbox="true"
     inkscape:snap-bbox="true"
     inkscape:bbox-nodes="true"
     inkscape:snap-nodes="false"
     inkscape:snap-others="false"
     inkscape:snap-page="true"
     inkscape:snap-grids="false"
     inkscape:snap-to-guides="false"
     inkscape:snap-global="false"
     inkscape:pagecheckerboard="0"
     inkscape:showpageshadow="2"
     inkscape:deskcolor="#d1d1d1">
    <sodipodi:guide
       position="-6.1806076,9.4988693"
       orientation="0,1"
       id="guide816"
       inkscape:locked="false" />
    <sodipodi:guide
       position="-4.4101636,10.646923"
       orientation="0,1"
       id="guide818"
       inkscape:locked="false" />
    <sodipodi:guide
       position="2.7595724,11.09577"
       orientation="1,0"
       id="guide820"
       inkscape:locked="false" />
    <sodipodi:guide
       position="3.6572659,10.942217"
       orientation="1,0"
       id="guide822"
       inkscape:locked="false" />
    <sodipodi:guide
       position="-0.051625511,9.74923"
       orientation="1,0"
       id="guide1853"
       inkscape:locked="false" />
    <sodipodi:guide
       position="-2.3720169,3.0175835"
       orientation="0,1"
       id="guide1855"
       inkscape:locked="false" />
  </sodipodi:namedview>
  <metadata
     id="metadata1678">
    <rdf:RDF>
      <cc:Work
         rdf:about="">
        <dc:format>image/svg+xml</dc:format>
        <dc:type
           rdf:resource="http://purl.org/dc/dcmitype/StillImage" />
      </cc:Work>
    </rdf:RDF>
  </metadata>
  <g
     inkscape:label="Layer 1"
     inkscape:groupmode="layer"
     id="layer1"
     transform="translate(17.028496,-147.22856)">
    <path
       d="m -15.351419,153.48338 c -0.03648,-0.012 -0.08195,-0.0169 -0.132721,-0.006 -0.03797,0.008 -0.07801,0.0256 -0.114246,0.0535 -0.05422,0.0405 -0.102116,0.10456 -0.12245,0.18511 -0.01505,0.0522 -0.0146,0.11278 0.0029,0.16935 0.0085,0.0274 0.0211,0.0542 0.03825,0.079 0.01685,0.0243 0.03818,0.0466 0.06402,0.0649 0.03101,0.0217 0.0671,0.0364 0.105094,0.0422 0.03729,0.006 0.07735,0.003 0.115746,-0.0113 0.04852,-0.0176 0.08999,-0.0473 0.123264,-0.0824 0.03322,-0.0351 0.05887,-0.0763 0.07669,-0.11862 0.01631,-0.0403 0.02585,-0.0843 0.02549,-0.12882 -1.85e-4,-0.0227 -0.0029,-0.0458 -0.0089,-0.0686 -0.0061,-0.0231 -0.01542,-0.0458 -0.02855,-0.0671 -0.01126,-0.0181 -0.02434,-0.0333 -0.03822,-0.0462 -0.01411,-0.0131 -0.02909,-0.0238 -0.04384,-0.0327 -0.03016,-0.0182 -0.06187,-0.0301 -0.088,-0.0385 -0.03387,-0.01 -0.067,-0.0146 -0.09955,-0.014 -0.03622,7.5e-4 -0.07111,0.008 -0.10308,0.0223 -0.02511,0.0128 -0.04263,0.0264 -0.05695,0.0409 -0.01577,0.0159 -0.02788,0.033 -0.03714,0.0494 -0.0135,0.0239 -0.02173,0.0476 -0.02676,0.0679 -0.0038,0.0155 -0.0061,0.0299 -0.0073,0.0426 -0.0069,0.0584 -0.0015,0.12151 0.02024,0.18278 0.0048,0.0119 0.0094,0.0225 0.01559,0.0339 0.0066,0.0121 0.01612,0.0274 0.02928,0.0424 0.0099,0.0114 0.02309,0.0239 0.03998,0.0348 0.01539,0.01 0.03423,0.0186 0.05648,0.0234 0.02569,0.005 0.05098,0.004 0.07493,-0.003 0.02171,-0.006 0.03983,-0.0169 0.05447,-0.0278 0.01371,-0.0102 0.02517,-0.0214 0.03443,-0.0313 0.0087,-0.009 0.01653,-0.0187 0.02222,-0.0255 0.01056,-0.0136 0.01898,-0.0262 0.02645,-0.0403 0.0071,-0.0135 0.01388,-0.0292 0.01859,-0.0467 0.0046,-0.0169 0.0075,-0.0365 0.0065,-0.0578 -0.001,-0.0209 -0.0059,-0.043 -0.01631,-0.0648 -0.0019,-0.004 -0.0042,-0.008 -0.0067,-0.0116 -0.01356,-0.0205 -0.03062,-0.0367 -0.04938,-0.0491 -0.01806,-0.0119 -0.03696,-0.0198 -0.05528,-0.025 -0.03461,-0.01 -0.06969,-0.0104 -0.09931,-0.007 -0.04642,0.007 -0.09764,0.0168 -0.14763,0.0367 -0.0042,0.002 -0.0082,0.004 -0.01217,0.006 -0.0215,0.0122 -0.03864,0.0289 -0.05137,0.0471 -0.01251,0.0179 -0.02152,0.0383 -0.02622,0.0599 -0.0046,0.0213 -0.0054,0.0452 3.05e-4,0.0696 0.0057,0.0245 0.01788,0.0489 0.03779,0.0695 0.0149,0.0141 0.02758,0.023 0.04138,0.03 0.01369,0.007 0.02766,0.0114 0.04139,0.0142 0.02692,0.005 0.05181,0.003 0.0718,-6.3e-4 0.01979,-0.004 0.0376,-0.0101 0.05181,-0.0157 0.01396,-0.006 0.02709,-0.0118 0.03589,-0.0158 0.051,-0.027 0.09003,-0.0588 0.123528,-0.0927 0.03285,-0.0332 0.06111,-0.0692 0.08596,-0.10315 0.01468,-0.0214 0.02358,-0.0423 0.02891,-0.0629 0.0053,-0.0205 0.0078,-0.0439 0.0051,-0.0682 -0.0014,-0.0123 -0.0042,-0.0253 -0.0091,-0.0385 -0.0049,-0.0132 -0.01196,-0.0268 -0.02174,-0.0396 -0.0099,-0.0129 -0.0221,-0.0244 -0.03661,-0.0337 -0.01445,-0.009 -0.0301,-0.0158 -0.04621,-0.0197 -0.0039,-9.5e-4 -0.0078,-0.002 -0.01182,-0.002 -0.02341,-0.003 -0.04576,-0.007 -0.07339,-0.0112 -0.02601,-0.004 -0.05537,-0.008 -0.08597,-0.0106 -0.02855,-9.9e-4 -0.06312,-7.8e-4 -0.09847,0.007 -0.01806,0.004 -0.03786,0.0105 -0.0575,0.0209 -0.01984,0.0105 -0.03943,0.025 -0.05639,0.0448 -0.0031,0.004 -0.0058,0.007 -0.0084,0.0113 -0.013,0.0202 -0.02077,0.0417 -0.0244,0.063 -0.0036,0.021 -0.003,0.0408 -3.74e-4,0.0586 0.0026,0.0177 0.0075,0.034 0.01316,0.0483 0.0057,0.0144 0.01257,0.0277 0.01987,0.0396 0.03548,0.0573 0.08225,0.10324 0.130253,0.13953 0.0274,0.0202 0.05737,0.0377 0.09038,0.0508 0.03324,0.0131 0.07021,0.0219 0.10967,0.0228 0.0044,9e-5 0.0089,-1.1e-4 0.01332,-5.9e-4 0.02416,-0.003 0.04619,-0.0103 0.06535,-0.0214 0.01902,-0.011 0.03455,-0.0248 0.04698,-0.0396 0.0124,-0.0147 0.02202,-0.0308 0.02916,-0.047 0.0072,-0.0163 0.01219,-0.0334 0.01491,-0.0507 0.0057,-0.0246 0.0056,-0.0534 0.0037,-0.0774 -0.0019,-0.0233 -0.006,-0.0462 -0.0087,-0.0619 -0.0015,-0.008 -0.0021,-0.0136 -0.004,-0.0261 -0.0015,-0.0106 -0.0039,-0.0254 -0.0079,-0.0408 -0.0041,-0.0157 -0.01075,-0.0349 -0.02246,-0.0542 -0.01222,-0.0201 -0.02943,-0.0393 -0.05296,-0.0543 -0.0071,-0.004 -0.01466,-0.008 -0.0226,-0.0108 -0.02741,-0.009 -0.05383,-0.01 -0.07706,-0.006 -0.0224,0.004 -0.04107,0.0115 -0.05454,0.0181 -0.02844,0.014 -0.04519,0.026 -0.04836,0.0276 -0.0032,0.002 -0.0064,0.003 -0.0095,0.005 -0.03246,0.0204 -0.06577,0.0462 -0.09424,0.0786 -0.01462,0.0166 -0.02814,0.0351 -0.0396,0.0557 -0.01165,0.0209 -0.02107,0.0438 -0.02723,0.0685 -0.0076,0.0251 -0.008,0.0545 -0.0025,0.0814 0.0055,0.0269 0.0167,0.0505 0.03012,0.0701 0.01367,0.0199 0.0304,0.0368 0.04844,0.0503 0.01839,0.0137 0.03925,0.0248 0.06161,0.0321 0.01538,0.007 0.03834,0.0112 0.06065,0.0121 0.02273,9.6e-4 0.04449,-0.002 0.06464,-0.007 0.04141,-0.0113 0.07728,-0.0341 0.104499,-0.0623 0.03233,-0.0276 0.06361,-0.0699 0.08376,-0.11606 0.01068,-0.0245 0.01838,-0.0503 0.02241,-0.077 0.0042,-0.0278 0.0044,-0.0562 2.8e-5,-0.0846 -0.0051,-0.0299 -0.0163,-0.0539 -0.03014,-0.0735 -0.01432,-0.0203 -0.03137,-0.0357 -0.04763,-0.0473 -0.01233,-0.009 -0.02491,-0.0158 -0.03694,-0.0214 -0.02228,-0.0104 -0.04513,-0.017 -0.06641,-0.0205 -0.03832,-0.007 -0.07721,-0.004 -0.11303,0.006 -0.03831,0.0106 -0.07422,0.0304 -0.103329,0.0587 -0.04298,0.0377 -0.07532,0.089 -0.09428,0.14158 -0.02021,0.056 -0.02617,0.11586 -0.01731,0.17303 0.0011,0.007 0.0023,0.0139 0.0047,0.0205 0.0024,0.007 0.0061,0.0126 0.01,0.0185 0.0078,0.0118 0.01702,0.0223 0.02752,0.0313 0.01063,0.009 0.02205,0.0163 0.03375,0.0218 0.02374,0.0111 0.04722,0.0146 0.06791,0.0146 0.02089,-8e-5 0.04029,-0.004 0.057,-0.009 0.01717,-0.005 0.0333,-0.0132 0.0476,-0.0223 0.06523,-0.0382 0.1215,-0.0909 0.166097,-0.14648 0.01144,-0.0162 0.02363,-0.0318 0.03662,-0.0517 0.01234,-0.0189 0.02732,-0.0451 0.0351,-0.0769 0.0015,-0.006 0.0024,-0.0123 0.0027,-0.0185 4.24e-4,-0.0125 -9.47e-4,-0.0254 -0.0046,-0.0382 -0.0031,-0.0109 -0.0077,-0.0211 -0.01362,-0.0305 -9.96e-4,-0.002 -0.002,-0.003 -0.0031,-0.005 -0.0073,-0.0104 -0.01578,-0.019 -0.02481,-0.0261 -0.0089,-0.007 -0.01814,-0.0121 -0.02726,-0.0161 -0.0177,-0.008 -0.03595,-0.011 -0.05281,-0.0113 -0.01661,-3.3e-4 -0.03413,0.002 -0.05107,0.008 -0.03472,0.01 -0.08176,0.0254 -0.125388,0.0527 -0.04214,0.0287 -0.07168,0.0644 -0.09142,0.10249 -0.02141,0.0413 -0.03172,0.0862 -0.03131,0.12965 -0.0021,0.0285 -4e-6,0.0886 7.1e-5,0.0932 a 0.08976095,0.08976095 90 0 0 0.179498,-0.003 c -2.65e-4,-0.0163 -0.0023,-0.0609 -9.19e-4,-0.0857 -5.5e-5,-0.0207 0.0033,-0.0368 0.01123,-0.0523 0.0073,-0.0143 0.01788,-0.0267 0.03044,-0.0353 0.01885,-0.0118 0.04651,-0.022 0.08176,-0.0318 6.56e-4,0 -0.0035,5e-4 -0.007,4.6e-4 -0.0035,-4e-5 -0.0087,-6.6e-4 -0.01495,-0.003 -0.0033,-0.001 -0.0072,-0.004 -0.01132,-0.007 -0.0042,-0.003 -0.0085,-0.008 -0.01232,-0.0129 -0.0048,-0.007 -0.0072,-0.0127 -0.0088,-0.0183 -0.0019,-0.007 -0.0024,-0.0125 -0.0023,-0.0174 8.4e-5,-0.003 6.1e-5,-0.006 3.76e-4,-0.009 3.15e-4,-0.003 0.0012,-0.006 0.0023,-0.009 -9.91e-4,0.003 -0.0034,0.008 -0.01133,0.0194 -0.0075,0.0105 -0.01867,0.0238 -0.03145,0.0407 -0.03082,0.0359 -0.07151,0.0709 -0.117142,0.0958 -0.008,0.003 -0.0085,0.002 -0.0064,0.002 0.0019,-1.9e-4 0.0072,-1.3e-4 0.01434,0.003 0.0035,0.002 0.0072,0.004 0.01064,0.007 0.0034,0.003 0.0061,0.006 0.0082,0.009 0.004,0.006 0.0078,0.0118 0.01028,0.0184 0.0024,0.007 0.0035,0.0136 0.0044,0.0206 -0.0031,-0.024 -1.99e-4,-0.0506 0.0096,-0.0762 0.0093,-0.0242 0.02417,-0.0461 0.04338,-0.0623 0.0074,-0.007 0.01319,-0.01 0.02126,-0.0117 0.0078,-0.002 0.01673,-0.002 0.02557,-4.3e-4 0.0051,0.001 0.01035,0.003 0.01483,0.005 0.0023,0.001 0.0039,0.002 0.0049,0.003 0.0012,9.4e-4 7e-4,0.001 -9.1e-4,-0.001 -0.0017,-0.002 -0.0037,-0.006 -0.0046,-0.0112 7.22e-4,0.005 7.15e-4,0.0127 -5.94e-4,0.021 -0.0013,0.008 -0.0038,0.0166 -0.0078,0.0257 -0.0078,0.0175 -0.02061,0.0351 -0.03713,0.0493 -0.01016,0.01 -0.01431,0.012 -0.01732,0.0127 -0.0011,2.6e-4 -0.0021,4.8e-4 -0.0032,4.1e-4 -0.0011,-8e-5 -0.0022,-4.5e-4 -0.0031,-0.001 -9.35e-4,-5.6e-4 -0.0017,-0.001 -0.0025,-0.002 -7.68e-4,-7.8e-4 -0.0015,-0.002 -0.0023,-0.002 9.3e-5,9e-5 0.0012,0.002 0.002,0.005 8.48e-4,0.004 8.85e-4,0.009 -6.72e-4,0.0146 0.0027,-0.0102 0.005,-0.0161 0.0085,-0.0224 0.0035,-0.006 0.0081,-0.0128 0.01423,-0.0197 0.01151,-0.013 0.02701,-0.0259 0.04577,-0.0379 0.01416,-0.008 0.02824,-0.0175 0.04242,-0.0244 0.0033,-0.002 0.0018,-4.2e-4 -0.0029,3.6e-4 -0.0057,9.6e-4 -0.0141,9.8e-4 -0.02298,-0.002 -0.0079,-0.003 -0.01553,-0.006 -0.0226,-0.0108 -0.0063,-0.004 -0.01055,-0.009 -0.0129,-0.0129 -0.0019,-0.003 -0.0018,-0.004 -8.59e-4,-7.2e-4 9.5e-4,0.004 0.0019,0.009 0.0033,0.018 0.001,0.007 0.0028,0.021 0.0051,0.0329 0.0029,0.0171 0.0051,0.0298 0.0061,0.042 9.09e-4,0.0112 3.3e-4,0.018 -6.29e-4,0.0224 0.0022,0.001 0.0047,-0.001 0.0089,-0.004 0.0044,-0.003 0.0099,-0.004 0.01588,-0.005 0.0044,-4.7e-4 0.0089,-6.7e-4 0.01332,-5.9e-4 -0.01138,-2.1e-4 -0.0241,-0.003 -0.03807,-0.008 -0.01399,-0.005 -0.0285,-0.0136 -0.04283,-0.0241 -0.03226,-0.0243 -0.05948,-0.0521 -0.07825,-0.0822 -0.0015,-0.002 -0.0028,-0.005 -0.0037,-0.007 -8.44e-4,-0.002 -0.0011,-0.003 -0.0011,-0.003 3.5e-5,3.9e-4 3.23e-4,0.003 -3.64e-4,0.007 -7.35e-4,0.004 -0.0024,0.009 -0.0055,0.0137 -0.0017,0.003 -0.0033,0.005 -0.0052,0.008 -0.0019,0.002 -0.0042,0.005 -0.0067,0.006 1.32e-4,-10e-5 0.0024,-0.001 0.0067,-0.002 0.0099,-0.002 0.02398,-0.003 0.04287,-0.003 0.01737,0.001 0.03942,0.004 0.06438,0.008 0.024,0.004 0.05233,0.008 0.08027,0.0117 l -0.01182,-0.002 c -0.0044,-0.001 -0.01,-0.003 -0.01573,-0.007 -0.0058,-0.004 -0.01079,-0.008 -0.01472,-0.0136 -0.0039,-0.005 -0.0063,-0.01 -0.0077,-0.0139 -0.0014,-0.004 -0.002,-0.007 -0.0022,-0.009 -4.45e-4,-0.004 4e-5,-0.005 1.79e-4,-0.005 1.4e-4,-3.7e-4 -5.6e-5,-5.7e-4 0.002,-0.004 -0.02011,0.0277 -0.04151,0.0547 -0.06419,0.0779 -0.02274,0.0232 -0.0457,0.0414 -0.06959,0.0543 -0.0056,0.003 -0.01318,0.006 -0.02096,0.009 -0.0077,0.003 -0.01245,0.005 -0.01518,0.005 -0.0023,5e-4 -4.07e-4,-3.1e-4 0.0054,8.7e-4 0.003,6.2e-4 0.0066,0.002 0.01027,0.004 0.0038,0.002 0.0068,0.004 0.0091,0.006 0.0106,0.0108 0.01478,0.0196 0.0166,0.0276 0.0017,0.008 0.0012,0.014 2.1e-4,0.0183 -0.001,0.004 -0.0028,0.008 -0.0054,0.012 -0.0026,0.004 -0.0069,0.008 -0.01346,0.0118 -0.0039,0.002 -0.008,0.004 -0.01217,0.006 0.02944,-0.0122 0.06349,-0.0202 0.09928,-0.0259 0.0079,-0.001 0.01632,-3.3e-4 0.02092,6.9e-4 0.0019,4.2e-4 0.0019,6.2e-4 6.13e-4,-3.6e-4 -0.0016,-0.001 -0.0038,-0.003 -0.0057,-0.006 -0.0012,-0.002 -0.0024,-0.004 -0.0036,-0.006 -0.0012,-0.002 -0.0022,-0.004 -0.0031,-0.006 -0.0016,-0.004 -0.0022,-0.007 -0.0022,-0.01 -10e-6,-0.002 4.77e-4,-0.003 2.83e-4,-0.002 -1.8e-4,0.001 -9.11e-4,0.004 -0.0025,0.007 -0.0016,0.003 -0.0037,0.007 -0.0062,0.0105 -0.0041,0.005 -0.0081,0.0103 -0.01254,0.0154 -0.0046,0.005 -0.0068,0.007 -0.0082,0.009 -0.0011,0.001 5.89e-4,-3e-4 0.0051,-0.001 0.0055,-0.001 0.01182,-0.002 0.01739,-3.3e-4 0.003,8.5e-4 0.0049,0.002 0.0056,0.003 -0.0042,-0.003 -0.007,-0.006 -0.0099,-0.0106 -0.0026,-0.004 -0.005,-0.008 -0.0071,-0.0118 -0.01536,-0.0338 -0.02572,-0.0687 -0.0247,-0.10035 1.73e-4,-0.007 6.86e-4,-0.0128 0.0019,-0.0195 0.0017,-0.009 0.0046,-0.0183 0.0091,-0.0271 0.0031,-0.006 0.0067,-0.0113 0.01083,-0.0157 0.0037,-0.004 0.0078,-0.007 0.01236,-0.01 0.0073,-0.003 0.02129,-0.007 0.03824,-0.008 0.0154,-5.1e-4 0.03255,0.002 0.05028,0.007 0.01888,0.006 0.03772,0.0135 0.05314,0.0227 0.0073,0.004 0.01337,0.009 0.01837,0.0135 0.0048,0.004 0.0087,0.009 0.01164,0.0139 0.0044,0.007 0.0079,0.0155 0.01034,0.0247 0.0024,0.009 0.0037,0.0193 0.0038,0.0303 1.3e-4,0.0219 -0.0047,0.0456 -0.01387,0.068 -0.01093,0.0257 -0.02681,0.0506 -0.04603,0.0707 -0.01914,0.0201 -0.04067,0.0346 -0.06353,0.0427 -0.01158,0.004 -0.02444,0.005 -0.03793,0.003 -0.01383,-0.002 -0.02709,-0.008 -0.03808,-0.0157 -0.0095,-0.007 -0.01794,-0.0156 -0.025,-0.0259 -0.0072,-0.0105 -0.01294,-0.0226 -0.01689,-0.0357 -0.0083,-0.0274 -0.0081,-0.0564 -8.72e-4,-0.0809 0.01176,-0.0449 0.03748,-0.0782 0.06556,-0.0989 0.01754,-0.0133 0.03566,-0.0208 0.05175,-0.0242 0.02084,-0.004 0.03682,-0.002 0.04831,0.002 a 0.08066189,0.08066189 90 0 0 0.05022,-0.1533 z"
       id="path-1"
       inkscape:path-effect="#path-effect151;#path-effect153"
       inkscape:original-d="m -15.37653,153.56003 c -0.115792,-0.0364 -0.234063,0.0569 -0.264209,0.16652 -0.03423,0.0994 0.01039,0.2268 0.115555,0.2608 0.103481,0.0359 0.203135,-0.0474 0.247515,-0.13497 0.04274,-0.0804 0.04725,-0.19531 -0.031,-0.2562 -0.0665,-0.0474 -0.160878,-0.0734 -0.238515,-0.0387 -0.08603,0.0466 -0.09276,0.16205 -0.06693,0.24587 0.01315,0.056 0.0604,0.13262 0.128061,0.10236 0.04659,-0.0326 0.10447,-0.10466 0.07068,-0.16236 -0.05072,-0.0546 -0.136709,-0.0296 -0.198827,-0.0116 -0.07865,0.009 -0.08713,0.11787 -0.0018,0.11774 0.102328,-0.0148 0.180003,-0.0961 0.239279,-0.17522 0.03399,-0.0376 0.04572,-0.11432 -0.02184,-0.12166 -0.08617,-0.008 -0.183136,-0.0435 -0.262254,0.009 -0.044,0.0515 0.0029,0.11857 0.03978,0.15928 0.05299,0.059 0.125188,0.11217 0.207161,0.11406 0.06641,-0.0102 0.07412,-0.0901 0.06617,-0.14376 -0.01215,-0.0493 -0.0073,-0.17122 -0.08853,-0.13686 -0.07908,0.0366 -0.165056,0.0967 -0.178492,0.18906 -4.75e-4,0.0843 0.116111,0.13244 0.178157,0.0772 0.06811,-0.0477 0.116107,-0.13763 0.09432,-0.22092 -0.03504,-0.0661 -0.132669,-0.0814 -0.19499,-0.0471 -0.08231,0.0501 -0.127482,0.15491 -0.113152,0.24944 0.0405,0.0553 0.111687,0.006 0.152294,-0.0246 0.062,-0.0468 0.114975,-0.1071 0.150234,-0.1764 0.0011,-0.0755 -0.0951,-0.0249 -0.135762,-0.0103 -0.06754,0.0293 -0.110925,0.0989 -0.110408,0.17217 -0.0019,0.0309 -9e-5,0.0618 4.13e-4,0.0927"
       style="fill:#000000;fill-rule:nonzero;stroke:none;stroke-width:0.837515" />
  </g>
</svg>
