<?xml version="1.0" encoding="UTF-8" standalone="no"?>
<!-- Created with Inkscape (http://www.inkscape.org/) -->

<svg
   width="3mm"
   height="10mm"
   viewBox="0 0 3.0000001 9.9999994"
   version="1.1"
   id="svg1681"
   inkscape:version="1.2.1 (9c6d41e410, 2022-07-14)"
   sodipodi:docname="dot_19.svg"
   inkscape:export-filename="..\..\..\..\Downloads\lower a diff canvas resize 3.0.png"
   inkscape:export-xdpi="96"
   inkscape:export-ydpi="96"
   xmlns:inkscape="http://www.inkscape.org/namespaces/inkscape"
   xmlns:sodipodi="http://sodipodi.sourceforge.net/DTD/sodipodi-0.dtd"
   xmlns="http://www.w3.org/2000/svg"
   xmlns:svg="http://www.w3.org/2000/svg"
   xmlns:rdf="http://www.w3.org/1999/02/22-rdf-syntax-ns#"
   xmlns:cc="http://creativecommons.org/ns#"
   xmlns:dc="http://purl.org/dc/elements/1.1/">
  <defs
     id="defs1675">
    <inkscape:path-effect
       effect="powerstroke"
       id="path-effect156"
       is_visible="true"
       lpeversion="1"
       offset_points="3.0982213,0.070450598 | 20.422833,0.089063966"
       not_jump="true"
       sort_points="true"
       interpolator_type="CentripetalCatmullRom"
       interpolator_beta="0.75"
       start_linecap_type="round"
       linejoin_type="spiro"
       miter_limit="4"
       scale_width="1"
       end_linecap_type="round" />
    <inkscape:path-effect
       effect="simplify"
       id="path-effect154"
       is_visible="true"
       lpeversion="1"
       steps="1"
       threshold="0.0035951417"
       smooth_angles="0"
       helper_size="0"
       simplify_individual_paths="false"
       simplify_just_coalesce="false"
       step="1" />
    <inkscape:path-effect
       effect="powerstroke"
       id="path-effect160"
       is_visible="true"
       lpeversion="1"
       offset_points="5.3293904,0.048014678 | 28.980475,0.06154408"
       not_jump="true"
       sort_points="true"
       interpolator_type="CentripetalCatmullRom"
       interpolator_beta="0.75"
       start_linecap_type="round"
       linejoin_type="spiro"
       miter_limit="4"
       scale_width="1"
       end_linecap_type="round" />
    <inkscape:path-effect
       effect="simplify"
       id="path-effect158"
       is_visible="true"
       lpeversion="1"
       steps="1"
       threshold="0.0035951417"
       smooth_angles="0"
       helper_size="0"
       simplify_individual_paths="false"
       simplify_just_coalesce="false"
       step="1" />
    <inkscape:path-effect
       effect="powerstroke"
       id="path-effect153"
       is_visible="true"
       lpeversion="1"
       offset_points="4.8374271,0.094989652 | 12.507211,0.12200371 | 26.557178,0.1369789 | 29.728272,0.11862695 | 32.633808,0.13477666"
       not_jump="true"
       sort_points="true"
       interpolator_type="CentripetalCatmullRom"
       interpolator_beta="0.75"
       start_linecap_type="round"
       linejoin_type="spiro"
       miter_limit="4"
       scale_width="1"
       end_linecap_type="round" />
    <inkscape:path-effect
       effect="simplify"
       id="path-effect151"
       is_visible="true"
       lpeversion="1"
       steps="1"
       threshold="0.0035951417"
       smooth_angles="0"
       helper_size="0"
       simplify_individual_paths="false"
       simplify_just_coalesce="false"
       step="1" />
    <inkscape:path-effect
       effect="powerstroke"
       id="path-effect1588"
       is_visible="true"
       lpeversion="1"
       offset_points="7.8414948,0.064841696"
       not_jump="true"
       sort_points="true"
       interpolator_type="CentripetalCatmullRom"
       interpolator_beta="0.75"
       start_linecap_type="round"
       linejoin_type="spiro"
       miter_limit="4"
       scale_width="1"
       end_linecap_type="round" />
    <inkscape:path-effect
       effect="simplify"
       id="path-effect1586"
       is_visible="true"
       lpeversion="1"
       steps="1"
       threshold="0.0035951417"
       smooth_angles="0"
       helper_size="0"
       simplify_individual_paths="false"
       simplify_just_coalesce="false"
       step="1" />
    <inkscape:path-effect
       effect="powerstroke"
       id="path-effect502"
       is_visible="true"
       lpeversion="1"
       offset_points="3.0091841,0.21607495 | 7.3602657,0.17554228 | 9.4159651,0.20236537"
       not_jump="true"
       sort_points="true"
       interpolator_type="CentripetalCatmullRom"
       interpolator_beta="0.75"
       start_linecap_type="round"
       linejoin_type="spiro"
       miter_limit="4"
       scale_width="1"
       end_linecap_type="round" />
    <inkscape:path-effect
       effect="simplify"
       id="path-effect500"
       is_visible="true"
       lpeversion="1"
       steps="1"
       threshold="0.0035951417"
       smooth_angles="0"
       helper_size="0"
       simplify_individual_paths="false"
       simplify_just_coalesce="false"
       step="1" />
    <inkscape:path-effect
       effect="powerstroke"
       id="path-effect241"
       is_visible="true"
       lpeversion="1"
       offset_points="2.6879454,0.34086734"
       not_jump="true"
       sort_points="true"
       interpolator_type="CentripetalCatmullRom"
       interpolator_beta="0.75"
       start_linecap_type="round"
       linejoin_type="spiro"
       miter_limit="4"
       scale_width="1"
       end_linecap_type="round" />
    <inkscape:path-effect
       effect="simplify"
       id="path-effect239"
       is_visible="true"
       lpeversion="1"
       steps="1"
       threshold="0.0028332064"
       smooth_angles="0"
       helper_size="0"
       simplify_individual_paths="false"
       simplify_just_coalesce="false"
       step="1" />
    <inkscape:path-effect
       effect="powerstroke"
       id="path-effect234"
       is_visible="true"
       lpeversion="1"
       offset_points="2.13563,0.075169555"
       not_jump="true"
       sort_points="true"
       interpolator_type="CentripetalCatmullRom"
       interpolator_beta="0.75"
       start_linecap_type="round"
       linejoin_type="spiro"
       miter_limit="4"
       scale_width="1"
       end_linecap_type="round" />
    <inkscape:path-effect
       effect="simplify"
       id="path-effect232"
       is_visible="true"
       lpeversion="1"
       steps="1"
       threshold="0.0028332064"
       smooth_angles="0"
       helper_size="0"
       simplify_individual_paths="false"
       simplify_just_coalesce="false"
       step="1" />
    <inkscape:path-effect
       effect="powerstroke"
       id="path-effect227"
       is_visible="true"
       lpeversion="1"
       offset_points="2.1868266,0.075169555"
       not_jump="true"
       sort_points="true"
       interpolator_type="CentripetalCatmullRom"
       interpolator_beta="0.75"
       start_linecap_type="round"
       linejoin_type="spiro"
       miter_limit="4"
       scale_width="1"
       end_linecap_type="round" />
    <inkscape:path-effect
       effect="simplify"
       id="path-effect225"
       is_visible="true"
       lpeversion="1"
       steps="1"
       threshold="0.0028332064"
       smooth_angles="0"
       helper_size="0"
       simplify_individual_paths="false"
       simplify_just_coalesce="false"
       step="1" />
    <inkscape:path-effect
       effect="powerstroke"
       id="path-effect166"
       is_visible="true"
       lpeversion="1"
       offset_points="1.9637935,0.075169555"
       not_jump="true"
       sort_points="true"
       interpolator_type="CentripetalCatmullRom"
       interpolator_beta="0.75"
       start_linecap_type="round"
       linejoin_type="spiro"
       miter_limit="4"
       scale_width="1"
       end_linecap_type="round" />
    <inkscape:path-effect
       effect="simplify"
       id="path-effect164"
       is_visible="true"
       lpeversion="1"
       steps="1"
       threshold="0.0028332064"
       smooth_angles="0"
       helper_size="0"
       simplify_individual_paths="false"
       simplify_just_coalesce="false"
       step="1" />
    <inkscape:path-effect
       effect="powerstroke"
       id="path-effect159"
       is_visible="true"
       lpeversion="1"
       offset_points="2.2611036,0.075169555"
       not_jump="true"
       sort_points="true"
       interpolator_type="CentripetalCatmullRom"
       interpolator_beta="0.75"
       start_linecap_type="round"
       linejoin_type="spiro"
       miter_limit="4"
       scale_width="1"
       end_linecap_type="round" />
    <inkscape:path-effect
       effect="simplify"
       id="path-effect157"
       is_visible="true"
       lpeversion="1"
       steps="1"
       threshold="0.0028332064"
       smooth_angles="0"
       helper_size="0"
       simplify_individual_paths="false"
       simplify_just_coalesce="false"
       step="1" />
    <inkscape:path-effect
       effect="powerstroke"
       id="path-effect152"
       is_visible="true"
       lpeversion="1"
       offset_points="2.826981,0.075169555"
       not_jump="true"
       sort_points="true"
       interpolator_type="CentripetalCatmullRom"
       interpolator_beta="0.75"
       start_linecap_type="round"
       linejoin_type="spiro"
       miter_limit="4"
       scale_width="1"
       end_linecap_type="round" />
    <inkscape:path-effect
       effect="simplify"
       id="path-effect150"
       is_visible="true"
       lpeversion="1"
       steps="1"
       threshold="0.0028332064"
       smooth_angles="0"
       helper_size="0"
       simplify_individual_paths="false"
       simplify_just_coalesce="false"
       step="1" />
    <inkscape:path-effect
       effect="powerstroke"
       id="path-effect145"
       is_visible="true"
       lpeversion="1"
       offset_points="3.8374447,0.075169555"
       not_jump="true"
       sort_points="true"
       interpolator_type="CentripetalCatmullRom"
       interpolator_beta="0.75"
       start_linecap_type="round"
       linejoin_type="spiro"
       miter_limit="4"
       scale_width="1"
       end_linecap_type="round" />
    <inkscape:path-effect
       effect="simplify"
       id="path-effect143"
       is_visible="true"
       lpeversion="1"
       steps="1"
       threshold="0.0028332064"
       smooth_angles="0"
       helper_size="0"
       simplify_individual_paths="false"
       simplify_just_coalesce="false"
       step="1" />
    <inkscape:path-effect
       effect="powerstroke"
       id="path-effect138"
       is_visible="true"
       lpeversion="1"
       offset_points="2.6880907,0.075169555"
       not_jump="true"
       sort_points="true"
       interpolator_type="CentripetalCatmullRom"
       interpolator_beta="0.75"
       start_linecap_type="round"
       linejoin_type="spiro"
       miter_limit="4"
       scale_width="1"
       end_linecap_type="round" />
    <inkscape:path-effect
       effect="simplify"
       id="path-effect136"
       is_visible="true"
       lpeversion="1"
       steps="1"
       threshold="0.0028332064"
       smooth_angles="0"
       helper_size="0"
       simplify_individual_paths="false"
       simplify_just_coalesce="false"
       step="1" />
    <inkscape:path-effect
       effect="powerstroke"
       id="path-effect131"
       is_visible="true"
       lpeversion="1"
       offset_points="1.9940581,0.075169555"
       not_jump="true"
       sort_points="true"
       interpolator_type="CentripetalCatmullRom"
       interpolator_beta="0.75"
       start_linecap_type="round"
       linejoin_type="spiro"
       miter_limit="4"
       scale_width="1"
       end_linecap_type="round" />
    <inkscape:path-effect
       effect="simplify"
       id="path-effect129"
       is_visible="true"
       lpeversion="1"
       steps="1"
       threshold="0.0028332064"
       smooth_angles="0"
       helper_size="0"
       simplify_individual_paths="false"
       simplify_just_coalesce="false"
       step="1" />
  </defs>
  <sodipodi:namedview
     id="base"
     pagecolor="#ffffff"
     bordercolor="#666666"
     borderopacity="1.0"
     inkscape:pageopacity="0.0"
     inkscape:pageshadow="2"
     inkscape:zoom="7.919596"
     inkscape:cx="-5.3033008"
     inkscape:cy="20.834396"
     inkscape:document-units="mm"
     inkscape:current-layer="layer1"
     showgrid="false"
     fit-margin-top="0"
     fit-margin-left="0"
     fit-margin-right="0"
     fit-margin-bottom="0"
     inkscape:window-width="1920"
     inkscape:window-height="974"
     inkscape:window-x="-11"
     inkscape:window-y="2889"
     inkscape:window-maximized="1"
     showguides="true"
     inkscape:guide-bbox="true"
     inkscape:snap-bbox="true"
     inkscape:bbox-nodes="true"
     inkscape:snap-nodes="false"
     inkscape:snap-others="false"
     inkscape:snap-page="true"
     inkscape:snap-grids="false"
     inkscape:snap-to-guides="false"
     inkscape:snap-global="false"
     inkscape:pagecheckerboard="0"
     inkscape:showpageshadow="2"
     inkscape:deskcolor="#d1d1d1">
    <sodipodi:guide
       position="-6.1806076,9.4988693"
       orientation="0,1"
       id="guide816"
       inkscape:locked="false" />
    <sodipodi:guide
       position="-4.4101636,10.646923"
       orientation="0,1"
       id="guide818"
       inkscape:locked="false" />
    <sodipodi:guide
       position="2.7595724,11.09577"
       orientation="1,0"
       id="guide820"
       inkscape:locked="false" />
    <sodipodi:guide
       position="3.6572659,10.942217"
       orientation="1,0"
       id="guide822"
       inkscape:locked="false" />
    <sodipodi:guide
       position="-0.051625511,9.74923"
       orientation="1,0"
       id="guide1853"
       inkscape:locked="false" />
    <sodipodi:guide
       position="-2.3720169,3.0175835"
       orientation="0,1"
       id="guide1855"
       inkscape:locked="false" />
  </sodipodi:namedview>
  <metadata
     id="metadata1678">
    <rdf:RDF>
      <cc:Work
         rdf:about="">
        <dc:format>image/svg+xml</dc:format>
        <dc:type
           rdf:resource="http://purl.org/dc/dcmitype/StillImage" />
      </cc:Work>
    </rdf:RDF>
  </metadata>
  <g
     inkscape:label="Layer 1"
     inkscape:groupmode="layer"
     id="layer1"
     transform="translate(17.028496,-147.22856)">
    <path
       d="m -16.00948,154.10939 c -0.02328,0.009 -0.05692,0.02 -0.10159,0.0383 -0.03106,0.0127 -0.07356,0.0322 -0.112087,0.0646 -0.0073,0.006 -0.01747,0.0147 -0.02716,0.0256 -0.009,0.0101 -0.01851,0.0228 -0.02611,0.038 -0.0073,0.0146 -0.01335,0.0325 -0.01439,0.0533 -5.03e-4,0.0101 2.11e-4,0.0206 0.0025,0.0314 0.0022,0.0105 0.0058,0.0208 0.01086,0.0308 0.0066,0.0149 0.01751,0.0304 0.03041,0.0436 0.01231,0.0126 0.02593,0.0225 0.03964,0.0304 0.02577,0.0149 0.05328,0.0237 0.07604,0.0298 0.006,0.002 0.01338,0.004 0.02086,0.005 0.0282,0.006 0.06039,0.0103 0.09466,0.009 0.03753,-0.001 0.07948,-0.009 0.120544,-0.0288 0.02162,-0.0117 0.03691,-0.0253 0.04876,-0.0415 0.01122,-0.0153 0.01883,-0.0322 0.02355,-0.0491 0.0045,-0.0163 0.0065,-0.0329 0.0063,-0.0491 -1.33e-4,-0.0156 -0.0022,-0.0315 -0.0062,-0.0467 -0.0067,-0.0228 -0.01546,-0.0542 -0.0291,-0.0832 -0.0069,-0.0146 -0.01564,-0.0302 -0.02714,-0.0451 -0.01133,-0.0147 -0.02537,-0.029 -0.04287,-0.0412 -0.02282,-0.0141 -0.04304,-0.0213 -0.06331,-0.0251 -0.01974,-0.004 -0.03916,-0.004 -0.05744,-0.002 -0.03525,0.003 -0.0684,0.0144 -0.0958,0.0269 -0.0575,0.0283 -0.109589,0.0733 -0.142532,0.13374 -0.01118,0.0212 -0.01748,0.0428 -0.01978,0.0645 -0.0023,0.0214 -6.36e-4,0.0426 0.0041,0.0626 0.0092,0.0392 0.03038,0.0754 0.05998,0.10311 0.0172,0.0186 0.04427,0.0386 0.07589,0.0509 0.01584,0.006 0.0333,0.0106 0.0519,0.0122 0.01861,0.002 0.03817,1.4e-4 0.05789,-0.005 0.04182,-0.0111 0.07756,-0.0324 0.107241,-0.0569 0.02933,-0.0243 0.05361,-0.0525 0.07357,-0.0796 0.02607,-0.034 0.04843,-0.0716 0.06689,-0.11068 0.01734,-0.036 0.03443,-0.0804 0.03866,-0.13025 0.0019,-0.0125 3.59e-4,-0.029 -0.0039,-0.0441 -0.0043,-0.0151 -0.01167,-0.03 -0.02261,-0.0432 -0.01105,-0.0133 -0.0264,-0.0256 -0.0461,-0.0329 -0.0099,-0.004 -0.02039,-0.006 -0.0313,-0.007 -0.01093,-6.1e-4 -0.02168,4.6e-4 -0.03198,0.003 -0.01322,9.3e-4 -0.03291,0.008 -0.04852,0.0158 -0.01496,0.007 -0.02842,0.0159 -0.03726,0.0215 -0.01026,0.006 -0.01597,0.01 -0.02115,0.0125 -0.0045,0.002 -0.0059,0.002 -0.006,0.002 -0.0256,0.005 -0.04471,0.006 -0.07627,0.008 -0.01462,0.001 -0.03122,0.003 -0.04846,0.006 -0.01759,0.003 -0.03648,0.008 -0.05582,0.015 -0.02642,0.01 -0.05432,0.025 -0.0787,0.0462 -0.01255,0.0109 -0.02443,0.0236 -0.03472,0.0383 -0.01049,0.015 -0.01921,0.0319 -0.0252,0.0506 -0.0078,0.0239 -0.0092,0.048 -0.0062,0.0703 0.003,0.0223 0.01027,0.0419 0.01854,0.0583 0.0084,0.0167 0.01857,0.0312 0.02841,0.0434 0.0101,0.0125 0.02066,0.0234 0.03036,0.0325 0.03154,0.0279 0.06397,0.047 0.09569,0.0611 0.03357,0.0148 0.06752,0.0245 0.09899,0.0308 0.04491,0.008 0.0891,0.007 0.13037,-0.004 0.02218,-0.005 0.0437,-0.0136 0.06392,-0.0245 0.02137,-0.0115 0.04097,-0.0261 0.05812,-0.0436 0.03365,-0.0363 0.05344,-0.0767 0.06362,-0.11535 0.002,-0.008 0.0037,-0.0153 0.005,-0.0231 0.0088,-0.0512 0.0031,-0.10554 -0.02051,-0.15436 -0.0048,-0.0122 -0.01455,-0.0282 -0.02622,-0.0421 -0.01199,-0.0143 -0.02651,-0.027 -0.0432,-0.0369 -0.01729,-0.0103 -0.03733,-0.0179 -0.05904,-0.0207 -0.02285,-0.003 -0.04621,-7.2e-4 -0.06861,0.007 -0.01425,0.004 -0.03058,0.0118 -0.04478,0.0204 -0.01479,0.009 -0.02747,0.0191 -0.03819,0.0289 -0.0226,0.0207 -0.0401,0.0438 -0.05182,0.0602 -0.02086,0.0286 -0.03785,0.0589 -0.04557,0.0727 a 0.08906397,0.08906397 90 0 0 0.155392,0.0871 c 0.0074,-0.0132 0.02004,-0.035 0.03471,-0.0548 0.01018,-0.0141 0.01922,-0.0252 0.02809,-0.0333 0.0039,-0.004 0.0073,-0.006 0.0102,-0.008 0.0027,-0.002 0.0049,-0.003 0.0067,-0.003 1.99e-4,5e-5 -0.0047,6.1e-4 -0.0095,-3e-5 -0.0044,-5.9e-4 -0.0074,-0.002 -0.009,-0.003 0.0061,0.0153 0.0088,0.0314 0.0057,0.0496 -4.45e-4,0.003 -0.001,0.005 -0.0017,0.008 -0.0036,0.014 -0.01041,0.0275 -0.02008,0.0382 -0.0024,0.003 -0.0076,0.007 -0.01402,0.0102 -0.0061,0.003 -0.01346,0.006 -0.02206,0.009 -0.01636,0.004 -0.03602,0.005 -0.05621,0.002 -0.01931,-0.004 -0.04061,-0.01 -0.06026,-0.018 -0.01851,-0.008 -0.03512,-0.0178 -0.04915,-0.0298 -0.0035,-0.003 -0.0085,-0.008 -0.01268,-0.0133 -0.0042,-0.005 -0.007,-0.009 -0.0087,-0.0123 -0.0016,-0.003 -0.0018,-0.004 -0.0017,-0.003 4.8e-5,0.001 -4e-6,0.003 -8.42e-4,0.006 4.59e-4,-0.002 0.001,-0.003 0.0023,-0.005 0.0013,-0.002 0.0034,-0.005 0.0065,-0.007 0.0063,-0.006 0.01572,-0.0117 0.02722,-0.0163 0.0069,-0.003 0.01446,-0.005 0.02381,-0.007 0.0095,-0.002 0.01997,-0.003 0.03281,-0.004 0.02216,-0.002 0.05875,-0.004 0.09266,-0.0115 0.01678,-0.002 0.0359,-0.01 0.0512,-0.0178 0.0145,-0.007 0.02755,-0.0161 0.03613,-0.0218 0.0099,-0.007 0.0152,-0.01 0.02013,-0.0125 0.0042,-0.002 0.0053,-0.002 0.0053,-0.002 0.005,-6.7e-4 -3.99e-4,-10e-5 -0.0062,-4.5e-4 -0.0058,-3.4e-4 -0.01148,-0.002 -0.01679,-0.004 -0.01063,-0.004 -0.0181,-0.0104 -0.02285,-0.0161 -0.0047,-0.006 -0.0073,-0.0115 -0.0087,-0.0168 -0.0014,-0.005 -0.002,-0.0114 -0.001,-0.0182 -0.0017,0.0264 -0.0092,0.0508 -0.02222,0.0795 -0.01367,0.0306 -0.02971,0.0588 -0.04853,0.0845 -0.01548,0.0216 -0.0309,0.0395 -0.04713,0.0533 -0.01615,0.0138 -0.03202,0.0227 -0.04791,0.0272 -0.0015,5.1e-4 -0.0029,8.2e-4 -0.0049,7.6e-4 -0.0021,-6e-5 -0.005,-5.3e-4 -0.0086,-0.002 -0.0077,-0.003 -0.01631,-0.008 -0.02373,-0.0158 -0.01162,-0.0107 -0.01734,-0.0203 -0.01978,-0.0297 -0.0012,-0.005 -0.0015,-0.009 -0.0012,-0.012 2.45e-4,-0.003 0.001,-0.006 0.0024,-0.009 0.01529,-0.0293 0.04227,-0.0545 0.07372,-0.0706 0.01532,-0.007 0.03197,-0.0125 0.04601,-0.0141 0.007,-7.8e-4 0.01249,-5.8e-4 0.01678,10e-5 0.0042,6.8e-4 0.0074,0.002 0.01011,0.003 7.3e-5,1.1e-4 0.0037,0.003 0.0073,0.008 0.0038,0.005 0.0075,0.0107 0.01123,0.0183 0.0081,0.0166 0.01413,0.0362 0.02146,0.0601 4.64e-4,0.002 0.0011,0.005 0.0012,0.009 1.37e-4,0.004 -2.77e-4,0.007 -8.12e-4,0.009 -0.01622,0.0102 -0.0383,0.0149 -0.06049,0.0159 -0.02021,9e-4 -0.04015,-0.001 -0.05848,-0.005 -0.0048,-0.001 -0.0096,-0.002 -0.01428,-0.004 -0.0197,-0.005 -0.03313,-0.01 -0.04289,-0.0155 -0.0047,-0.003 -0.0079,-0.005 -0.0098,-0.007 -0.0019,-0.002 -0.0031,-0.004 -0.0039,-0.006 8.5e-5,0.002 1.83e-4,0.004 1.14e-4,0.005 -1.38e-4,0.003 -8e-4,0.004 -2.36e-4,0.002 7.1e-4,-0.001 0.0023,-0.004 0.0053,-0.007 0.0031,-0.003 0.0069,-0.007 0.01083,-0.01 0.02394,-0.02 0.0501,-0.0326 0.07691,-0.0435 0.03642,-0.0148 0.07273,-0.0264 0.101066,-0.0378 a 0.0704506,0.0704506 90 0 0 -0.05257,-0.13072 z"
       id="path-1"
       inkscape:path-effect="#path-effect154;#path-effect156"
       inkscape:original-d="m -15.983194,154.17475 c -0.0808,0.0324 -0.175265,0.0533 -0.228963,0.12816 -0.02932,0.053 0.02387,0.10353 0.07288,0.1156 0.06754,0.0252 0.147138,0.0299 0.213028,-0.002 0.05385,-0.0324 0.04027,-0.0998 0.01899,-0.14762 -0.0141,-0.0466 -0.04699,-0.0968 -0.100542,-0.0986 -0.07906,-0.005 -0.155415,0.0435 -0.198273,0.10788 -0.02633,0.0388 -0.02807,0.093 0.0023,0.13032 0.02914,0.0436 0.08314,0.0788 0.136879,0.061 0.07506,-0.0228 0.124737,-0.0908 0.164836,-0.15414 0.02586,-0.0476 0.05195,-0.0984 0.05618,-0.15319 1.06e-4,-0.0711 -0.08012,-0.0241 -0.110158,-2.8e-4 -0.05803,0.0341 -0.128962,0.0181 -0.191585,0.0372 -0.05532,0.0149 -0.116645,0.0626 -0.105347,0.12633 0.02603,0.0808 0.110914,0.1238 0.188494,0.14191 0.07556,0.0179 0.169174,-0.002 0.208592,-0.0748 0.03597,-0.0609 0.03521,-0.14908 -0.01893,-0.19916 -0.05183,-0.0351 -0.109995,0.012 -0.140277,0.0539 -0.01954,0.0243 -0.03586,0.0509 -0.05105,0.078"
       style="fill:#000000;fill-rule:nonzero;stroke:none;stroke-width:0.681616" />
  </g>
</svg>
