<?xml version="1.0" encoding="UTF-8" standalone="no"?>
<!-- Created with Inkscape (http://www.inkscape.org/) -->

<svg
   width="3mm"
   height="10mm"
   viewBox="0 0 3.0000001 9.9999994"
   version="1.1"
   id="svg1681"
   inkscape:version="1.2.1 (9c6d41e410, 2022-07-14)"
   sodipodi:docname="dot_16.svg"
   inkscape:export-filename="..\..\..\..\Downloads\lower a diff canvas resize 3.0.png"
   inkscape:export-xdpi="96"
   inkscape:export-ydpi="96"
   xmlns:inkscape="http://www.inkscape.org/namespaces/inkscape"
   xmlns:sodipodi="http://sodipodi.sourceforge.net/DTD/sodipodi-0.dtd"
   xmlns="http://www.w3.org/2000/svg"
   xmlns:svg="http://www.w3.org/2000/svg"
   xmlns:rdf="http://www.w3.org/1999/02/22-rdf-syntax-ns#"
   xmlns:cc="http://creativecommons.org/ns#"
   xmlns:dc="http://purl.org/dc/elements/1.1/">
  <defs
     id="defs1675">
    <inkscape:path-effect
       effect="powerstroke"
       id="path-effect156"
       is_visible="true"
       lpeversion="1"
       offset_points="3.9801687,0.071189044"
       not_jump="true"
       sort_points="true"
       interpolator_type="CentripetalCatmullRom"
       interpolator_beta="0.75"
       start_linecap_type="round"
       linejoin_type="spiro"
       miter_limit="4"
       scale_width="1"
       end_linecap_type="round" />
    <inkscape:path-effect
       effect="simplify"
       id="path-effect154"
       is_visible="true"
       lpeversion="1"
       steps="1"
       threshold="0.0035951417"
       smooth_angles="0"
       helper_size="0"
       simplify_individual_paths="false"
       simplify_just_coalesce="false"
       step="1" />
    <inkscape:path-effect
       effect="powerstroke"
       id="path-effect155"
       is_visible="true"
       lpeversion="1"
       offset_points="4.2400201,0.061040868 | 14.791018,0.076775847"
       not_jump="true"
       sort_points="true"
       interpolator_type="CentripetalCatmullRom"
       interpolator_beta="0.75"
       start_linecap_type="round"
       linejoin_type="spiro"
       miter_limit="4"
       scale_width="1"
       end_linecap_type="round" />
    <inkscape:path-effect
       effect="simplify"
       id="path-effect153"
       is_visible="true"
       lpeversion="1"
       steps="1"
       threshold="0.0035951417"
       smooth_angles="0"
       helper_size="0"
       simplify_individual_paths="false"
       simplify_just_coalesce="false"
       step="1" />
    <inkscape:path-effect
       effect="powerstroke"
       id="path-effect2036"
       is_visible="true"
       lpeversion="1"
       offset_points="3.0568765,0.084001606 | 7.3726651,0.098157086"
       not_jump="true"
       sort_points="true"
       interpolator_type="CentripetalCatmullRom"
       interpolator_beta="0.75"
       start_linecap_type="round"
       linejoin_type="spiro"
       miter_limit="4"
       scale_width="1"
       end_linecap_type="round" />
    <inkscape:path-effect
       effect="simplify"
       id="path-effect2034"
       is_visible="true"
       lpeversion="1"
       steps="1"
       threshold="0.0035951417"
       smooth_angles="0"
       helper_size="0"
       simplify_individual_paths="false"
       simplify_just_coalesce="false"
       step="1" />
    <inkscape:path-effect
       effect="powerstroke"
       id="path-effect502"
       is_visible="true"
       lpeversion="1"
       offset_points="3.0091841,0.21607495 | 7.3602657,0.17554228 | 9.4159651,0.20236537"
       not_jump="true"
       sort_points="true"
       interpolator_type="CentripetalCatmullRom"
       interpolator_beta="0.75"
       start_linecap_type="round"
       linejoin_type="spiro"
       miter_limit="4"
       scale_width="1"
       end_linecap_type="round" />
    <inkscape:path-effect
       effect="simplify"
       id="path-effect500"
       is_visible="true"
       lpeversion="1"
       steps="1"
       threshold="0.0035951417"
       smooth_angles="0"
       helper_size="0"
       simplify_individual_paths="false"
       simplify_just_coalesce="false"
       step="1" />
    <inkscape:path-effect
       effect="powerstroke"
       id="path-effect241"
       is_visible="true"
       lpeversion="1"
       offset_points="2.6879454,0.34086734"
       not_jump="true"
       sort_points="true"
       interpolator_type="CentripetalCatmullRom"
       interpolator_beta="0.75"
       start_linecap_type="round"
       linejoin_type="spiro"
       miter_limit="4"
       scale_width="1"
       end_linecap_type="round" />
    <inkscape:path-effect
       effect="simplify"
       id="path-effect239"
       is_visible="true"
       lpeversion="1"
       steps="1"
       threshold="0.0028332064"
       smooth_angles="0"
       helper_size="0"
       simplify_individual_paths="false"
       simplify_just_coalesce="false"
       step="1" />
    <inkscape:path-effect
       effect="powerstroke"
       id="path-effect234"
       is_visible="true"
       lpeversion="1"
       offset_points="2.13563,0.075169555"
       not_jump="true"
       sort_points="true"
       interpolator_type="CentripetalCatmullRom"
       interpolator_beta="0.75"
       start_linecap_type="round"
       linejoin_type="spiro"
       miter_limit="4"
       scale_width="1"
       end_linecap_type="round" />
    <inkscape:path-effect
       effect="simplify"
       id="path-effect232"
       is_visible="true"
       lpeversion="1"
       steps="1"
       threshold="0.0028332064"
       smooth_angles="0"
       helper_size="0"
       simplify_individual_paths="false"
       simplify_just_coalesce="false"
       step="1" />
    <inkscape:path-effect
       effect="powerstroke"
       id="path-effect227"
       is_visible="true"
       lpeversion="1"
       offset_points="2.1868266,0.075169555"
       not_jump="true"
       sort_points="true"
       interpolator_type="CentripetalCatmullRom"
       interpolator_beta="0.75"
       start_linecap_type="round"
       linejoin_type="spiro"
       miter_limit="4"
       scale_width="1"
       end_linecap_type="round" />
    <inkscape:path-effect
       effect="simplify"
       id="path-effect225"
       is_visible="true"
       lpeversion="1"
       steps="1"
       threshold="0.0028332064"
       smooth_angles="0"
       helper_size="0"
       simplify_individual_paths="false"
       simplify_just_coalesce="false"
       step="1" />
    <inkscape:path-effect
       effect="powerstroke"
       id="path-effect166"
       is_visible="true"
       lpeversion="1"
       offset_points="1.9637935,0.075169555"
       not_jump="true"
       sort_points="true"
       interpolator_type="CentripetalCatmullRom"
       interpolator_beta="0.75"
       start_linecap_type="round"
       linejoin_type="spiro"
       miter_limit="4"
       scale_width="1"
       end_linecap_type="round" />
    <inkscape:path-effect
       effect="simplify"
       id="path-effect164"
       is_visible="true"
       lpeversion="1"
       steps="1"
       threshold="0.0028332064"
       smooth_angles="0"
       helper_size="0"
       simplify_individual_paths="false"
       simplify_just_coalesce="false"
       step="1" />
    <inkscape:path-effect
       effect="powerstroke"
       id="path-effect159"
       is_visible="true"
       lpeversion="1"
       offset_points="2.2611036,0.075169555"
       not_jump="true"
       sort_points="true"
       interpolator_type="CentripetalCatmullRom"
       interpolator_beta="0.75"
       start_linecap_type="round"
       linejoin_type="spiro"
       miter_limit="4"
       scale_width="1"
       end_linecap_type="round" />
    <inkscape:path-effect
       effect="simplify"
       id="path-effect157"
       is_visible="true"
       lpeversion="1"
       steps="1"
       threshold="0.0028332064"
       smooth_angles="0"
       helper_size="0"
       simplify_individual_paths="false"
       simplify_just_coalesce="false"
       step="1" />
    <inkscape:path-effect
       effect="powerstroke"
       id="path-effect152"
       is_visible="true"
       lpeversion="1"
       offset_points="2.826981,0.075169555"
       not_jump="true"
       sort_points="true"
       interpolator_type="CentripetalCatmullRom"
       interpolator_beta="0.75"
       start_linecap_type="round"
       linejoin_type="spiro"
       miter_limit="4"
       scale_width="1"
       end_linecap_type="round" />
    <inkscape:path-effect
       effect="simplify"
       id="path-effect150"
       is_visible="true"
       lpeversion="1"
       steps="1"
       threshold="0.0028332064"
       smooth_angles="0"
       helper_size="0"
       simplify_individual_paths="false"
       simplify_just_coalesce="false"
       step="1" />
    <inkscape:path-effect
       effect="powerstroke"
       id="path-effect145"
       is_visible="true"
       lpeversion="1"
       offset_points="3.8374447,0.075169555"
       not_jump="true"
       sort_points="true"
       interpolator_type="CentripetalCatmullRom"
       interpolator_beta="0.75"
       start_linecap_type="round"
       linejoin_type="spiro"
       miter_limit="4"
       scale_width="1"
       end_linecap_type="round" />
    <inkscape:path-effect
       effect="simplify"
       id="path-effect143"
       is_visible="true"
       lpeversion="1"
       steps="1"
       threshold="0.0028332064"
       smooth_angles="0"
       helper_size="0"
       simplify_individual_paths="false"
       simplify_just_coalesce="false"
       step="1" />
    <inkscape:path-effect
       effect="powerstroke"
       id="path-effect138"
       is_visible="true"
       lpeversion="1"
       offset_points="2.6880907,0.075169555"
       not_jump="true"
       sort_points="true"
       interpolator_type="CentripetalCatmullRom"
       interpolator_beta="0.75"
       start_linecap_type="round"
       linejoin_type="spiro"
       miter_limit="4"
       scale_width="1"
       end_linecap_type="round" />
    <inkscape:path-effect
       effect="simplify"
       id="path-effect136"
       is_visible="true"
       lpeversion="1"
       steps="1"
       threshold="0.0028332064"
       smooth_angles="0"
       helper_size="0"
       simplify_individual_paths="false"
       simplify_just_coalesce="false"
       step="1" />
    <inkscape:path-effect
       effect="powerstroke"
       id="path-effect131"
       is_visible="true"
       lpeversion="1"
       offset_points="1.9940581,0.075169555"
       not_jump="true"
       sort_points="true"
       interpolator_type="CentripetalCatmullRom"
       interpolator_beta="0.75"
       start_linecap_type="round"
       linejoin_type="spiro"
       miter_limit="4"
       scale_width="1"
       end_linecap_type="round" />
    <inkscape:path-effect
       effect="simplify"
       id="path-effect129"
       is_visible="true"
       lpeversion="1"
       steps="1"
       threshold="0.0028332064"
       smooth_angles="0"
       helper_size="0"
       simplify_individual_paths="false"
       simplify_just_coalesce="false"
       step="1" />
  </defs>
  <sodipodi:namedview
     id="base"
     pagecolor="#ffffff"
     bordercolor="#666666"
     borderopacity="1.0"
     inkscape:pageopacity="0.0"
     inkscape:pageshadow="2"
     inkscape:zoom="7.919596"
     inkscape:cx="-5.3033008"
     inkscape:cy="20.960665"
     inkscape:document-units="mm"
     inkscape:current-layer="layer1"
     showgrid="false"
     fit-margin-top="0"
     fit-margin-left="0"
     fit-margin-right="0"
     fit-margin-bottom="0"
     inkscape:window-width="1920"
     inkscape:window-height="974"
     inkscape:window-x="-11"
     inkscape:window-y="2889"
     inkscape:window-maximized="1"
     showguides="true"
     inkscape:guide-bbox="true"
     inkscape:snap-bbox="true"
     inkscape:bbox-nodes="true"
     inkscape:snap-nodes="false"
     inkscape:snap-others="false"
     inkscape:snap-page="true"
     inkscape:snap-grids="false"
     inkscape:snap-to-guides="false"
     inkscape:snap-global="false"
     inkscape:pagecheckerboard="0"
     inkscape:showpageshadow="2"
     inkscape:deskcolor="#d1d1d1">
    <sodipodi:guide
       position="-6.1806076,9.4988693"
       orientation="0,1"
       id="guide816"
       inkscape:locked="false" />
    <sodipodi:guide
       position="-4.4101636,10.646923"
       orientation="0,1"
       id="guide818"
       inkscape:locked="false" />
    <sodipodi:guide
       position="2.7595724,11.09577"
       orientation="1,0"
       id="guide820"
       inkscape:locked="false" />
    <sodipodi:guide
       position="3.6572659,10.942217"
       orientation="1,0"
       id="guide822"
       inkscape:locked="false" />
    <sodipodi:guide
       position="-0.051625511,9.74923"
       orientation="1,0"
       id="guide1853"
       inkscape:locked="false" />
    <sodipodi:guide
       position="-2.3720169,3.0175835"
       orientation="0,1"
       id="guide1855"
       inkscape:locked="false" />
  </sodipodi:namedview>
  <metadata
     id="metadata1678">
    <rdf:RDF>
      <cc:Work
         rdf:about="">
        <dc:format>image/svg+xml</dc:format>
        <dc:type
           rdf:resource="http://purl.org/dc/dcmitype/StillImage" />
      </cc:Work>
    </rdf:RDF>
  </metadata>
  <g
     inkscape:label="Layer 1"
     inkscape:groupmode="layer"
     id="layer1"
     transform="translate(17.028496,-147.22856)">
    <path
       d="m -15.411287,153.50956 c -0.02165,-0.006 -0.05839,-0.016 -0.09845,-0.0184 -0.01676,-9.8e-4 -0.03567,-8.1e-4 -0.05568,0.002 -0.01821,0.002 -0.03785,0.007 -0.05791,0.0153 -0.0268,0.0105 -0.05245,0.0286 -0.07292,0.0534 -0.01811,0.0219 -0.03249,0.0494 -0.03913,0.0809 -0.01004,0.0445 -0.0062,0.0935 0.01123,0.13871 0.0162,0.0419 0.04523,0.0827 0.08807,0.11104 0.03516,0.0233 0.07772,0.0338 0.119618,0.0309 0.02029,-0.001 0.04093,-0.006 0.06073,-0.0142 0.01787,-0.007 0.03522,-0.0179 0.05081,-0.0317 0.01263,-0.0107 0.02289,-0.0222 0.03146,-0.035 0.008,-0.0119 0.01419,-0.0244 0.01902,-0.0372 0.0089,-0.0234 0.01294,-0.0474 0.01474,-0.0697 0.0012,-0.007 0.0075,-0.0382 0.0096,-0.0612 0.0012,-0.013 0.0018,-0.0279 4.69e-4,-0.0437 -0.0013,-0.0154 -0.0044,-0.0322 -0.01078,-0.0493 -0.0047,-0.0119 -0.01024,-0.0213 -0.01713,-0.0298 -0.0068,-0.008 -0.01461,-0.0154 -0.02311,-0.0212 -0.01664,-0.0113 -0.03501,-0.017 -0.05246,-0.0188 -0.01697,-0.002 -0.0341,1.6e-4 -0.05009,0.005 -0.01301,0.004 -0.02616,0.0106 -0.03815,0.0198 -0.04433,0.0261 -0.08493,0.0603 -0.118987,0.10125 -0.03274,0.0393 -0.05971,0.0852 -0.0775,0.13593 -0.01004,0.0193 -0.0146,0.0401 -0.01429,0.0606 3.52e-4,0.0227 0.0066,0.0438 0.01632,0.0621 0.0095,0.0179 0.0228,0.0338 0.0387,0.0465 0.0157,0.0125 0.03487,0.0226 0.05659,0.0276 0.05626,0.01 0.116614,0.007 0.172789,-0.0166 0.03281,-0.0138 0.06341,-0.0348 0.08853,-0.0615 0.02475,-0.0264 0.0448,-0.0591 0.05558,-0.0968 0.01199,-0.0318 0.01904,-0.0726 0.01729,-0.11366 -0.0017,-0.0407 -0.0122,-0.0827 -0.03456,-0.12109 -0.0029,-0.005 -0.0063,-0.009 -0.01026,-0.0136 -0.01543,-0.016 -0.03386,-0.0269 -0.05354,-0.033 -0.01927,-0.006 -0.03839,-0.007 -0.05573,-0.005 -0.01721,0.002 -0.03341,0.007 -0.04784,0.0136 -0.0144,0.007 -0.02792,0.0153 -0.03982,0.0256 -0.01928,0.0149 -0.03799,0.0342 -0.05426,0.0532 -0.01605,0.0188 -0.03052,0.0382 -0.04339,0.0556 -0.02608,0.0369 -0.04887,0.0769 -0.06549,0.12021 -0.01661,0.0433 -0.02727,0.0905 -0.02745,0.14023 0.0017,0.0244 0.0067,0.0416 0.01405,0.057 0.0073,0.0154 0.01704,0.029 0.0281,0.0405 0.02191,0.0229 0.05039,0.0392 0.08097,0.0467 0.01404,0.004 0.03023,0.006 0.04569,0.007 0.01542,5.9e-4 0.03017,-4.1e-4 0.04387,-0.002 0.02684,-0.004 0.05239,-0.0105 0.07231,-0.0161 0.0498,-0.0168 0.09158,-0.0423 0.126476,-0.0746 0.03513,-0.0325 0.06378,-0.0722 0.08284,-0.11671 0.009,-0.022 0.01111,-0.0438 0.0077,-0.0645 -0.0034,-0.0204 -0.01198,-0.0384 -0.02303,-0.053 -0.01107,-0.0146 -0.0251,-0.0266 -0.04068,-0.0353 -0.0157,-0.009 -0.03377,-0.0146 -0.05307,-0.016 -0.006,-0.002 -0.0211,-0.003 -0.03547,-0.002 -0.0144,7.2e-4 -0.02794,0.003 -0.04038,0.006 -0.02474,0.006 -0.0468,0.0167 -0.06444,0.0259 -0.04367,0.0199 -0.09316,0.0431 -0.140669,0.071 -0.04852,0.0284 -0.09567,0.0621 -0.137215,0.10474 -0.0036,0.004 -0.0067,0.008 -0.0094,0.012 -0.01022,0.0164 -0.01542,0.0345 -0.01607,0.0523 -6.51e-4,0.0179 0.0032,0.0348 0.01005,0.0495 0.0069,0.0149 0.01702,0.0281 0.02957,0.0386 0.01278,0.0107 0.02826,0.0188 0.04559,0.0228 0.01041,0.004 0.02826,0.007 0.0451,0.009 0.01697,0.001 0.03307,4.5e-4 0.04764,-0.001 0.02781,-0.003 0.05731,-0.0103 0.0755,-0.0141 0.09135,-0.0238 0.172942,-0.0674 0.235333,-0.13039 0.01252,-0.0112 0.02276,-0.0282 0.02825,-0.046 0.0056,-0.0181 0.0061,-0.0365 0.0029,-0.0534 -0.0033,-0.0174 -0.0107,-0.034 -0.02175,-0.0482 -0.01152,-0.0148 -0.02683,-0.0267 -0.04497,-0.0343 -0.03252,-0.0194 -0.07663,-0.024 -0.11277,-0.0197 -0.0019,-1e-4 -0.0039,-2.1e-4 -0.0059,-3.1e-4 a 0.07118904,0.07118904 90 0 0 -0.0075,0.14218 c 0.0025,1.3e-4 0.0093,5.2e-4 0.0152,6.6e-4 0.0042,1e-4 0.0084,-1.8e-4 0.01258,-8.3e-4 0.01272,-0.002 0.02583,-1.3e-4 0.0355,0.005 0.0032,0.002 -0.0012,-0.001 -0.0045,-0.006 -0.0031,-0.004 -0.005,-0.008 -0.0058,-0.0129 -8.28e-4,-0.004 -7.61e-4,-0.01 9.07e-4,-0.0149 0.0017,-0.005 0.0049,-0.0107 0.0094,-0.0148 -0.04468,0.045 -0.102585,0.0771 -0.169693,0.0947 -0.02176,0.005 -0.03978,0.009 -0.05835,0.0111 -0.0084,9.2e-4 -0.01547,0.001 -0.0216,6.7e-4 -0.0059,-4.3e-4 -0.01087,-0.001 -0.01519,-0.003 -0.0026,-0.001 0.0019,0.001 0.0055,0.004 0.0035,0.003 0.0063,0.007 0.0082,0.0108 0.0019,0.004 0.0033,0.009 0.0031,0.0156 -2.28e-4,0.006 -0.0021,0.0125 -0.0054,0.0178 -0.0027,0.004 -0.0059,0.008 -0.0094,0.012 0.03017,-0.031 0.06616,-0.0572 0.107288,-0.0813 0.04074,-0.0239 0.08445,-0.0445 0.131359,-0.066 0.01669,-0.009 0.02781,-0.0134 0.03749,-0.0159 0.0046,-0.001 0.0085,-0.002 0.01174,-0.002 0.0032,-1.6e-4 0.0059,7e-5 0.0083,5.8e-4 0.007,0.001 0.0051,4.6e-4 0.004,-2e-4 -0.005,-0.005 -0.0068,-0.008 -0.0076,-0.0127 -8.15e-4,-0.005 -1.96e-4,-0.01 0.0014,-0.0139 -0.01039,0.0242 -0.02707,0.0476 -0.04812,0.0671 -0.02091,0.0193 -0.04559,0.0342 -0.07195,0.0432 -0.01659,0.005 -0.03319,0.009 -0.04879,0.0109 -0.0075,9.9e-4 -0.01401,0.001 -0.0198,0.001 -0.0057,-2.2e-4 -0.01065,-0.001 -0.01501,-0.002 -0.0068,-0.002 -0.01126,-0.004 -0.01425,-0.007 -0.0026,-0.0282 0.0038,-0.0583 0.01532,-0.0884 0.01159,-0.0302 0.02819,-0.0598 0.04798,-0.0879 0.01212,-0.0164 0.02382,-0.032 0.03615,-0.0464 0.01223,-0.0143 0.02409,-0.0262 0.03643,-0.0358 0.0044,-0.004 0.0066,-0.005 0.0089,-0.006 0.0024,-0.001 0.0041,-0.001 0.0049,-0.002 5.83e-4,-7e-5 -4.98e-4,1.6e-4 -0.0028,-5.5e-4 -0.0027,-8.3e-4 -0.0052,-0.002 -0.0069,-0.004 -0.004,-0.004 -0.0074,-0.009 -0.01026,-0.0136 0.0092,0.0158 0.01445,0.0348 0.01534,0.0555 9.02e-4,0.0211 -0.0027,0.043 -0.01024,0.0633 -0.0056,0.0188 -0.01325,0.032 -0.02419,0.0436 -0.01116,0.0119 -0.02508,0.0215 -0.04004,0.0278 -0.02621,0.0111 -0.05815,0.0135 -0.08951,0.008 0.0023,-0.002 0.0028,-0.001 0.0028,0.001 4.2e-5,0.003 -7.63e-4,0.006 -0.0022,0.008 l 0.007,-0.0149 c 0.01175,-0.0353 0.0305,-0.068 0.05408,-0.0964 0.02447,-0.0294 0.05379,-0.0537 0.08551,-0.0718 0.0045,-0.003 0.0086,-0.006 0.01246,-0.009 -0.0029,0.003 -0.0056,0.004 -0.0075,0.004 -0.0019,6e-4 -0.0042,9.5e-4 -0.0071,6.5e-4 -0.003,-3.1e-4 -0.0078,-0.001 -0.01309,-0.005 -0.0027,-0.002 -0.0053,-0.004 -0.0075,-0.007 -0.0023,-0.003 -0.004,-0.006 -0.0051,-0.009 4.53e-4,0.001 0.0013,0.005 0.0017,0.01 4.28e-4,0.005 3.36e-4,0.0112 -3.56e-4,0.0187 -0.0014,0.0156 -0.0056,0.0354 -0.0091,0.0577 -0.0017,0.0189 -0.0039,0.0289 -0.0066,0.0361 -0.0014,0.004 -0.0028,0.006 -0.0041,0.008 -0.0013,0.002 -0.0025,0.003 -0.0037,0.004 -0.007,0.006 -0.01063,0.009 -0.01491,0.0103 -0.0048,0.002 -0.01022,0.003 -0.01596,0.004 -0.01231,8.5e-4 -0.02345,-0.002 -0.03122,-0.008 -0.01491,-0.01 -0.02678,-0.0254 -0.03387,-0.0437 -0.0076,-0.0197 -0.0087,-0.04 -0.0049,-0.057 0.0017,-0.008 0.0052,-0.015 0.0097,-0.0204 0.005,-0.006 0.01081,-0.01 0.01614,-0.012 0.0083,-0.003 0.0161,-0.005 0.02424,-0.006 0.009,-0.001 0.01849,-0.001 0.02811,-8.6e-4 0.02386,0.001 0.04834,0.008 0.06705,0.0129 a 0.07118904,0.07118904 90 0 0 0.03975,-0.13672 z"
       id="path-1"
       inkscape:path-effect="#path-effect154;#path-effect156"
       inkscape:original-d="m -15.431163,153.57792 c -0.06862,-0.0205 -0.158329,-0.0308 -0.21064,0.0292 -0.06866,0.0872 -0.0028,0.2475 0.112827,0.24537 0.05924,0.001 0.113268,-0.0466 0.115649,-0.10679 0.0074,-0.0501 0.04149,-0.17236 -0.04222,-0.16348 -0.09097,0.0426 -0.165363,0.12473 -0.197016,0.22057 -0.03066,0.0568 0.02825,0.10941 0.08441,0.10082 0.08433,0.007 0.171735,-0.0443 0.196073,-0.12762 0.02127,-0.0576 0.02113,-0.12541 -0.01034,-0.17934 -0.0546,-0.0496 -0.118725,0.018 -0.153017,0.0602 -0.0613,0.073 -0.111706,0.16397 -0.112067,0.26126 0.0082,0.0689 0.08475,0.0902 0.143186,0.0756 0.09381,-0.011 0.177659,-0.0763 0.2145,-0.16244 0.02125,-0.0746 -0.07984,-0.0849 -0.1273,-0.0584 -0.100465,0.0459 -0.205312,0.0928 -0.283588,0.17315 -0.0279,0.0596 0.06093,0.0701 0.100916,0.0609 0.094,-0.0114 0.186866,-0.0516 0.255791,-0.11698 0.05804,-0.0586 -0.03685,-0.0963 -0.08634,-0.0856 l -0.0082,-2.6e-4 -0.0078,-4.1e-4"
       style="fill:#000000;fill-rule:nonzero;stroke:none;stroke-width:0.748283" />
  </g>
</svg>
