<?xml version="1.0" encoding="UTF-8" standalone="no"?>
<!-- Created with Inkscape (http://www.inkscape.org/) -->

<svg
   width="3mm"
   height="10mm"
   viewBox="0 0 3.0000001 9.9999994"
   version="1.1"
   id="svg1681"
   inkscape:version="1.2.1 (9c6d41e410, 2022-07-14)"
   sodipodi:docname="dot_13.svg"
   inkscape:export-filename="..\..\..\..\Downloads\lower a diff canvas resize 3.0.png"
   inkscape:export-xdpi="96"
   inkscape:export-ydpi="96"
   xmlns:inkscape="http://www.inkscape.org/namespaces/inkscape"
   xmlns:sodipodi="http://sodipodi.sourceforge.net/DTD/sodipodi-0.dtd"
   xmlns="http://www.w3.org/2000/svg"
   xmlns:svg="http://www.w3.org/2000/svg"
   xmlns:rdf="http://www.w3.org/1999/02/22-rdf-syntax-ns#"
   xmlns:cc="http://creativecommons.org/ns#"
   xmlns:dc="http://purl.org/dc/elements/1.1/">
  <defs
     id="defs1675">
    <inkscape:path-effect
       effect="powerstroke"
       id="path-effect160"
       is_visible="true"
       lpeversion="1"
       offset_points="3.0723671,0.050684855 | 7.6571267,0.060898914"
       not_jump="true"
       sort_points="true"
       interpolator_type="CentripetalCatmullRom"
       interpolator_beta="0.75"
       start_linecap_type="round"
       linejoin_type="spiro"
       miter_limit="4"
       scale_width="1"
       end_linecap_type="round" />
    <inkscape:path-effect
       effect="simplify"
       id="path-effect158"
       is_visible="true"
       lpeversion="1"
       steps="1"
       threshold="0.0035951417"
       smooth_angles="0"
       helper_size="0"
       simplify_individual_paths="false"
       simplify_just_coalesce="false"
       step="1" />
    <inkscape:path-effect
       effect="powerstroke"
       id="path-effect153"
       is_visible="true"
       lpeversion="1"
       offset_points="3.3286085,0.093521497 | 6.3712717,0.11187344"
       not_jump="true"
       sort_points="true"
       interpolator_type="CentripetalCatmullRom"
       interpolator_beta="0.75"
       start_linecap_type="round"
       linejoin_type="spiro"
       miter_limit="4"
       scale_width="1"
       end_linecap_type="round" />
    <inkscape:path-effect
       effect="simplify"
       id="path-effect151"
       is_visible="true"
       lpeversion="1"
       steps="1"
       threshold="0.0035951417"
       smooth_angles="0"
       helper_size="0"
       simplify_individual_paths="false"
       simplify_just_coalesce="false"
       step="1" />
    <inkscape:path-effect
       effect="powerstroke"
       id="path-effect1547"
       is_visible="true"
       lpeversion="1"
       offset_points="5.6381698,0.094267736"
       not_jump="true"
       sort_points="true"
       interpolator_type="CentripetalCatmullRom"
       interpolator_beta="0.75"
       start_linecap_type="round"
       linejoin_type="spiro"
       miter_limit="4"
       scale_width="1"
       end_linecap_type="round" />
    <inkscape:path-effect
       effect="simplify"
       id="path-effect1545"
       is_visible="true"
       lpeversion="1"
       steps="1"
       threshold="0.0035951417"
       smooth_angles="0"
       helper_size="0"
       simplify_individual_paths="false"
       simplify_just_coalesce="false"
       step="1" />
    <inkscape:path-effect
       effect="powerstroke"
       id="path-effect502"
       is_visible="true"
       lpeversion="1"
       offset_points="3.0091841,0.21607495 | 7.3602657,0.17554228 | 9.4159651,0.20236537"
       not_jump="true"
       sort_points="true"
       interpolator_type="CentripetalCatmullRom"
       interpolator_beta="0.75"
       start_linecap_type="round"
       linejoin_type="spiro"
       miter_limit="4"
       scale_width="1"
       end_linecap_type="round" />
    <inkscape:path-effect
       effect="simplify"
       id="path-effect500"
       is_visible="true"
       lpeversion="1"
       steps="1"
       threshold="0.0035951417"
       smooth_angles="0"
       helper_size="0"
       simplify_individual_paths="false"
       simplify_just_coalesce="false"
       step="1" />
    <inkscape:path-effect
       effect="powerstroke"
       id="path-effect241"
       is_visible="true"
       lpeversion="1"
       offset_points="2.6879454,0.34086734"
       not_jump="true"
       sort_points="true"
       interpolator_type="CentripetalCatmullRom"
       interpolator_beta="0.75"
       start_linecap_type="round"
       linejoin_type="spiro"
       miter_limit="4"
       scale_width="1"
       end_linecap_type="round" />
    <inkscape:path-effect
       effect="simplify"
       id="path-effect239"
       is_visible="true"
       lpeversion="1"
       steps="1"
       threshold="0.0028332064"
       smooth_angles="0"
       helper_size="0"
       simplify_individual_paths="false"
       simplify_just_coalesce="false"
       step="1" />
    <inkscape:path-effect
       effect="powerstroke"
       id="path-effect234"
       is_visible="true"
       lpeversion="1"
       offset_points="2.13563,0.075169555"
       not_jump="true"
       sort_points="true"
       interpolator_type="CentripetalCatmullRom"
       interpolator_beta="0.75"
       start_linecap_type="round"
       linejoin_type="spiro"
       miter_limit="4"
       scale_width="1"
       end_linecap_type="round" />
    <inkscape:path-effect
       effect="simplify"
       id="path-effect232"
       is_visible="true"
       lpeversion="1"
       steps="1"
       threshold="0.0028332064"
       smooth_angles="0"
       helper_size="0"
       simplify_individual_paths="false"
       simplify_just_coalesce="false"
       step="1" />
    <inkscape:path-effect
       effect="powerstroke"
       id="path-effect227"
       is_visible="true"
       lpeversion="1"
       offset_points="2.1868266,0.075169555"
       not_jump="true"
       sort_points="true"
       interpolator_type="CentripetalCatmullRom"
       interpolator_beta="0.75"
       start_linecap_type="round"
       linejoin_type="spiro"
       miter_limit="4"
       scale_width="1"
       end_linecap_type="round" />
    <inkscape:path-effect
       effect="simplify"
       id="path-effect225"
       is_visible="true"
       lpeversion="1"
       steps="1"
       threshold="0.0028332064"
       smooth_angles="0"
       helper_size="0"
       simplify_individual_paths="false"
       simplify_just_coalesce="false"
       step="1" />
    <inkscape:path-effect
       effect="powerstroke"
       id="path-effect166"
       is_visible="true"
       lpeversion="1"
       offset_points="1.9637935,0.075169555"
       not_jump="true"
       sort_points="true"
       interpolator_type="CentripetalCatmullRom"
       interpolator_beta="0.75"
       start_linecap_type="round"
       linejoin_type="spiro"
       miter_limit="4"
       scale_width="1"
       end_linecap_type="round" />
    <inkscape:path-effect
       effect="simplify"
       id="path-effect164"
       is_visible="true"
       lpeversion="1"
       steps="1"
       threshold="0.0028332064"
       smooth_angles="0"
       helper_size="0"
       simplify_individual_paths="false"
       simplify_just_coalesce="false"
       step="1" />
    <inkscape:path-effect
       effect="powerstroke"
       id="path-effect159"
       is_visible="true"
       lpeversion="1"
       offset_points="2.2611036,0.075169555"
       not_jump="true"
       sort_points="true"
       interpolator_type="CentripetalCatmullRom"
       interpolator_beta="0.75"
       start_linecap_type="round"
       linejoin_type="spiro"
       miter_limit="4"
       scale_width="1"
       end_linecap_type="round" />
    <inkscape:path-effect
       effect="simplify"
       id="path-effect157"
       is_visible="true"
       lpeversion="1"
       steps="1"
       threshold="0.0028332064"
       smooth_angles="0"
       helper_size="0"
       simplify_individual_paths="false"
       simplify_just_coalesce="false"
       step="1" />
    <inkscape:path-effect
       effect="powerstroke"
       id="path-effect152"
       is_visible="true"
       lpeversion="1"
       offset_points="2.826981,0.075169555"
       not_jump="true"
       sort_points="true"
       interpolator_type="CentripetalCatmullRom"
       interpolator_beta="0.75"
       start_linecap_type="round"
       linejoin_type="spiro"
       miter_limit="4"
       scale_width="1"
       end_linecap_type="round" />
    <inkscape:path-effect
       effect="simplify"
       id="path-effect150"
       is_visible="true"
       lpeversion="1"
       steps="1"
       threshold="0.0028332064"
       smooth_angles="0"
       helper_size="0"
       simplify_individual_paths="false"
       simplify_just_coalesce="false"
       step="1" />
    <inkscape:path-effect
       effect="powerstroke"
       id="path-effect145"
       is_visible="true"
       lpeversion="1"
       offset_points="3.8374447,0.075169555"
       not_jump="true"
       sort_points="true"
       interpolator_type="CentripetalCatmullRom"
       interpolator_beta="0.75"
       start_linecap_type="round"
       linejoin_type="spiro"
       miter_limit="4"
       scale_width="1"
       end_linecap_type="round" />
    <inkscape:path-effect
       effect="simplify"
       id="path-effect143"
       is_visible="true"
       lpeversion="1"
       steps="1"
       threshold="0.0028332064"
       smooth_angles="0"
       helper_size="0"
       simplify_individual_paths="false"
       simplify_just_coalesce="false"
       step="1" />
    <inkscape:path-effect
       effect="powerstroke"
       id="path-effect138"
       is_visible="true"
       lpeversion="1"
       offset_points="2.6880907,0.075169555"
       not_jump="true"
       sort_points="true"
       interpolator_type="CentripetalCatmullRom"
       interpolator_beta="0.75"
       start_linecap_type="round"
       linejoin_type="spiro"
       miter_limit="4"
       scale_width="1"
       end_linecap_type="round" />
    <inkscape:path-effect
       effect="simplify"
       id="path-effect136"
       is_visible="true"
       lpeversion="1"
       steps="1"
       threshold="0.0028332064"
       smooth_angles="0"
       helper_size="0"
       simplify_individual_paths="false"
       simplify_just_coalesce="false"
       step="1" />
    <inkscape:path-effect
       effect="powerstroke"
       id="path-effect131"
       is_visible="true"
       lpeversion="1"
       offset_points="1.9940581,0.075169555"
       not_jump="true"
       sort_points="true"
       interpolator_type="CentripetalCatmullRom"
       interpolator_beta="0.75"
       start_linecap_type="round"
       linejoin_type="spiro"
       miter_limit="4"
       scale_width="1"
       end_linecap_type="round" />
    <inkscape:path-effect
       effect="simplify"
       id="path-effect129"
       is_visible="true"
       lpeversion="1"
       steps="1"
       threshold="0.0028332064"
       smooth_angles="0"
       helper_size="0"
       simplify_individual_paths="false"
       simplify_just_coalesce="false"
       step="1" />
  </defs>
  <sodipodi:namedview
     id="base"
     pagecolor="#ffffff"
     bordercolor="#666666"
     borderopacity="1.0"
     inkscape:pageopacity="0.0"
     inkscape:pageshadow="2"
     inkscape:zoom="7.919596"
     inkscape:cx="-5.3033008"
     inkscape:cy="20.834396"
     inkscape:document-units="mm"
     inkscape:current-layer="layer1"
     showgrid="false"
     fit-margin-top="0"
     fit-margin-left="0"
     fit-margin-right="0"
     fit-margin-bottom="0"
     inkscape:window-width="1920"
     inkscape:window-height="974"
     inkscape:window-x="-11"
     inkscape:window-y="2889"
     inkscape:window-maximized="1"
     showguides="true"
     inkscape:guide-bbox="true"
     inkscape:snap-bbox="true"
     inkscape:bbox-nodes="true"
     inkscape:snap-nodes="false"
     inkscape:snap-others="false"
     inkscape:snap-page="true"
     inkscape:snap-grids="false"
     inkscape:snap-to-guides="false"
     inkscape:snap-global="false"
     inkscape:pagecheckerboard="0"
     inkscape:showpageshadow="2"
     inkscape:deskcolor="#d1d1d1">
    <sodipodi:guide
       position="-6.1806076,9.4988693"
       orientation="0,1"
       id="guide816"
       inkscape:locked="false" />
    <sodipodi:guide
       position="-4.4101636,10.646923"
       orientation="0,1"
       id="guide818"
       inkscape:locked="false" />
    <sodipodi:guide
       position="2.7595724,11.09577"
       orientation="1,0"
       id="guide820"
       inkscape:locked="false" />
    <sodipodi:guide
       position="3.6572659,10.942217"
       orientation="1,0"
       id="guide822"
       inkscape:locked="false" />
    <sodipodi:guide
       position="-0.051625511,9.74923"
       orientation="1,0"
       id="guide1853"
       inkscape:locked="false" />
    <sodipodi:guide
       position="-2.3720169,3.0175835"
       orientation="0,1"
       id="guide1855"
       inkscape:locked="false" />
  </sodipodi:namedview>
  <metadata
     id="metadata1678">
    <rdf:RDF>
      <cc:Work
         rdf:about="">
        <dc:format>image/svg+xml</dc:format>
        <dc:type
           rdf:resource="http://purl.org/dc/dcmitype/StillImage" />
      </cc:Work>
    </rdf:RDF>
  </metadata>
  <g
     inkscape:label="Layer 1"
     inkscape:groupmode="layer"
     id="layer1"
     transform="translate(17.028496,-147.22856)">
    <path
       d="m -15.324647,153.69255 c -0.01315,0.007 -0.03492,0.016 -0.06468,0.0323 -0.01108,0.006 -0.02382,0.0137 -0.03637,0.0233 -0.01157,0.009 -0.02355,0.0197 -0.03447,0.0334 -0.01036,0.0149 -0.01675,0.0273 -0.02198,0.0398 -0.005,0.0119 -0.0089,0.0237 -0.01223,0.035 -0.007,0.0234 -0.01074,0.04 -0.01738,0.0572 -0.01148,0.0383 -0.02064,0.0755 -0.02504,0.11385 -0.0045,0.0396 -0.004,0.08 0.0052,0.12022 0.0014,0.006 0.003,0.0107 0.0048,0.0154 0.0047,0.0117 0.01113,0.022 0.01876,0.0308 0.01079,0.0125 0.02359,0.0217 0.03689,0.0284 0.01329,0.007 0.02743,0.011 0.04141,0.0131 0.01398,0.002 0.02846,0.002 0.04261,2.6e-4 0.01182,-6.7e-4 0.0263,-0.004 0.03965,-0.009 0.01315,-0.005 0.02516,-0.0106 0.03606,-0.0169 0.02047,-0.0118 0.03988,-0.0266 0.05456,-0.037 0.02766,-0.0217 0.05403,-0.0474 0.07547,-0.0784 0.02026,-0.0293 0.03726,-0.0651 0.04348,-0.10669 3.26e-4,-0.0307 -0.0047,-0.0511 -0.01353,-0.0696 -0.0084,-0.0178 -0.02014,-0.0335 -0.03386,-0.0468 -0.01322,-0.0128 -0.02853,-0.0236 -0.04506,-0.032 -0.01595,-0.008 -0.03355,-0.0142 -0.05199,-0.0174 -0.01586,-0.004 -0.03613,-0.005 -0.05573,-0.001 -0.01887,0.003 -0.03681,0.0103 -0.05299,0.0202 -0.0099,0.006 -0.01918,0.0132 -0.02765,0.0214 -0.01737,0.0168 -0.03227,0.0388 -0.04093,0.0651 -0.01511,0.0343 -0.02294,0.0793 -0.01935,0.1255 0.0033,0.0422 0.01624,0.0863 0.04133,0.12599 0.01497,0.0194 0.02835,0.0303 0.04314,0.0383 0.01426,0.008 0.02947,0.0126 0.04469,0.0149 0.02886,0.004 0.05939,3.7e-4 0.08649,-0.0117 0.01031,-0.004 0.02279,-0.0104 0.03404,-0.0178 0.01097,-0.007 0.02073,-0.0152 0.02945,-0.0231 0.016,-0.0145 0.03156,-0.0318 0.04244,-0.0431 0.04264,-0.0471 0.07667,-0.0984 0.106276,-0.15229 0.0022,-0.004 0.0039,-0.008 0.0052,-0.0126 0.008,-0.0273 0.0108,-0.0554 0.0091,-0.0828 -0.0016,-0.0272 -0.0076,-0.0539 -0.0173,-0.0791 -0.01899,-0.0494 -0.05287,-0.0947 -0.09852,-0.12587 -0.02355,-0.0142 -0.04547,-0.0212 -0.06741,-0.0239 -0.02172,-0.003 -0.04345,-0.001 -0.06399,0.004 -0.02042,0.005 -0.04008,0.0134 -0.05785,0.0248 -0.0177,0.0114 -0.0339,0.0262 -0.04705,0.044 -0.0095,0.013 -0.01655,0.0264 -0.0219,0.0395 -0.0053,0.013 -0.009,0.0258 -0.01175,0.0377 -0.0049,0.0213 -0.0084,0.0478 -0.01089,0.062 -0.0063,0.0457 -0.0088,0.079 -0.01662,0.11433 -0.0038,0.0199 -0.003,0.0376 0.0011,0.054 0.0041,0.0163 0.01115,0.0309 0.01998,0.0435 0.0088,0.0126 0.01955,0.0234 0.03134,0.0323 0.01184,0.009 0.02516,0.0161 0.03943,0.021 0.01236,0.005 0.02811,0.009 0.04328,0.0104 0.01516,0.002 0.02972,0.001 0.04317,-2.5e-4 0.02655,-0.003 0.05155,-0.01 0.07083,-0.0159 0.03816,-0.0137 0.07239,-0.0338 0.10061,-0.0608 0.01437,-0.0137 0.02737,-0.0294 0.0381,-0.0469 0.01087,-0.0178 0.01936,-0.0374 0.02457,-0.0587 0.0036,-0.0143 0.0057,-0.0299 0.0059,-0.0457 1.86e-4,-0.0159 -0.0016,-0.0329 -0.0063,-0.0497 -0.0048,-0.017 -0.01294,-0.0346 -0.02584,-0.0502 -0.01333,-0.0162 -0.03074,-0.0291 -0.05181,-0.0371 -0.01145,-0.005 -0.02712,-0.01 -0.04254,-0.0115 -0.01566,-0.002 -0.03106,-0.002 -0.04569,6.6e-4 -0.02804,0.004 -0.05414,0.015 -0.07611,0.0299 -0.02521,0.013 -0.04675,0.0317 -0.06293,0.0533 -0.0184,0.0246 -0.03065,0.054 -0.03347,0.0855 -0.0014,0.0136 -9.1e-5,0.0273 0.0031,0.0399 0.0033,0.013 0.0086,0.0248 0.01496,0.035 0.01362,0.0219 0.03291,0.0382 0.05351,0.0483 0.0019,0.001 0.0067,0.004 0.01032,0.006 a 0.06089891,0.06089891 90 0 0 0.06067,-0.10562 c -0.0036,-0.002 -0.0085,-0.005 -0.01285,-0.008 -0.0071,-0.0117 -0.0042,-0.0198 0.0019,-0.0279 0.0059,-0.008 0.01386,-0.0144 0.02268,-0.0185 0.0034,-0.002 0.0065,-0.003 0.0095,-0.006 0.0079,-0.006 0.01736,-0.01 0.02672,-0.0109 0.0044,-6.3e-4 0.0086,-6.6e-4 0.01238,-1.6e-4 0.0037,4.8e-4 0.007,0.001 0.01002,0.003 0.0044,0.002 0.0055,0.004 0.0065,0.007 9.96e-4,0.004 0.0017,0.009 0.0016,0.0145 -9.5e-5,0.006 -9.33e-4,0.0119 -0.0023,0.0174 -0.0021,0.008 -0.0054,0.0162 -0.01008,0.0238 -0.0047,0.008 -0.01066,0.0149 -0.01799,0.0219 -0.01463,0.0139 -0.03363,0.0253 -0.05418,0.0327 -0.01532,0.005 -0.0307,0.009 -0.04464,0.01 -0.0066,6.8e-4 -0.01229,6.8e-4 -0.01712,1.6e-4 -0.0047,-5.2e-4 -0.0087,-0.002 -0.01217,-0.003 -0.005,-0.002 -0.0068,-0.003 -0.0086,-0.004 -0.0018,-0.001 -0.0032,-0.003 -0.004,-0.004 0.008,-0.0405 0.0122,-0.086 0.01702,-0.12078 0.0035,-0.0194 0.0058,-0.0383 0.0092,-0.053 0.0017,-0.007 0.0036,-0.0136 0.0058,-0.0188 0.0021,-0.005 0.0044,-0.009 0.0068,-0.0125 0.0034,-0.005 0.0082,-0.009 0.01408,-0.0129 0.0059,-0.004 0.01251,-0.007 0.0193,-0.008 0.0068,-0.002 0.01337,-0.002 0.0192,-0.001 0.0058,7.1e-4 0.01082,0.002 0.01512,0.005 0.01986,0.0137 0.03838,0.0378 0.04891,0.0651 0.0053,0.0137 0.0084,0.0278 0.0092,0.0417 7.13e-4,0.0118 -2.06e-4,0.0232 -0.0027,0.0341 -0.0253,0.0453 -0.05279,0.0858 -0.0842,0.12066 -0.01441,0.015 -0.02304,0.0251 -0.03487,0.0359 -0.0053,0.005 -0.01003,0.009 -0.01444,0.0116 -0.0044,0.003 -0.0085,0.005 -0.01233,0.007 -0.0091,0.004 -0.01548,0.005 -0.02038,0.004 -0.0023,-3.3e-4 -0.0038,-9e-4 -0.0047,-0.001 -0.01085,-0.0164 -0.01841,-0.0407 -0.02046,-0.0649 -0.0022,-0.0264 0.0021,-0.0514 0.01101,-0.0726 0.0038,-0.0111 0.0072,-0.0166 0.01149,-0.021 0.0021,-0.002 0.0043,-0.004 0.0065,-0.005 0.0037,-0.002 0.0074,-0.004 0.01081,-0.005 0.0034,-7.6e-4 0.0069,-8.3e-4 0.0103,-1.5e-4 0.0101,0.002 0.01651,0.004 0.02269,0.006 0.0064,0.003 0.012,0.007 0.01656,0.0109 0.0047,0.004 0.008,0.009 0.01008,0.0124 0.0021,0.004 0.0033,0.008 0.0035,0.0117 -0.0019,0.0115 -0.01,0.0315 -0.02216,0.0504 -0.01297,0.0201 -0.03027,0.0386 -0.04924,0.0545 -0.01659,0.013 -0.02819,0.0229 -0.04219,0.0319 -0.0065,0.004 -0.01231,0.007 -0.01775,0.01 -0.0054,0.002 -0.01047,0.004 -0.01541,0.004 -0.0072,0.001 -0.01119,0.001 -0.01532,0.001 -0.0041,-4e-4 -0.0078,-0.001 -0.01073,-0.003 -0.0029,-0.001 -0.0046,-0.003 -0.0056,-0.003 -0.0079,-0.0284 -0.0089,-0.0569 -0.0055,-0.088 0.0033,-0.0303 0.01072,-0.0613 0.02003,-0.0929 0.0071,-0.0179 0.01392,-0.045 0.01862,-0.0606 0.0029,-0.01 0.0056,-0.0176 0.0087,-0.0248 0.0032,-0.007 0.0065,-0.0136 0.01009,-0.0187 0.0026,-0.003 0.0083,-0.008 0.01482,-0.0132 0.0071,-0.005 0.01518,-0.0103 0.02371,-0.0149 0.02239,-0.0121 0.04664,-0.0224 0.06367,-0.0314 a 0.05068486,0.05068486 90 0 0 -0.04737,-0.0896 z"
       id="path-1"
       inkscape:path-effect="#path-effect158;#path-effect160"
       inkscape:original-d="m -15.300964,153.73736 c -0.05434,0.0285 -0.126277,0.0505 -0.139933,0.11955 -0.02915,0.087 -0.06115,0.18028 -0.04302,0.27289 0.0147,0.071 0.107573,0.0649 0.153254,0.0283 0.06356,-0.0401 0.124543,-0.10072 0.135454,-0.17814 -0.0013,-0.0857 -0.133298,-0.13858 -0.187414,-0.0665 -0.04753,0.0665 -0.04642,0.16453 -0.0027,0.23262 0.04441,0.051 0.118635,0.0185 0.155576,-0.0246 0.05039,-0.0479 0.09045,-0.10649 0.123661,-0.16706 0.02377,-0.0798 -0.01409,-0.17239 -0.08188,-0.21836 -0.06526,-0.038 -0.154473,0.004 -0.170322,0.0774 -0.01661,0.0611 -0.01699,0.12506 -0.0307,0.18673 -0.0095,0.0647 0.06695,0.0972 0.120754,0.0833 0.08747,-0.009 0.182362,-0.0803 0.173554,-0.17603 0.0018,-0.0761 -0.09709,-0.0962 -0.148334,-0.0552 -0.05953,0.0222 -0.107845,0.11407 -0.03843,0.15459 l 0.0085,0.005 0.0087,0.005"
       style="fill:#000000;fill-rule:nonzero;stroke:none;stroke-width:0.656327" />
  </g>
</svg>
