<?xml version="1.0" encoding="UTF-8" standalone="no"?>
<!-- Created with Inkscape (http://www.inkscape.org/) -->

<svg
   width="3mm"
   height="10mm"
   viewBox="0 0 3.0000001 9.9999994"
   version="1.1"
   id="svg1681"
   inkscape:version="1.2.1 (9c6d41e410, 2022-07-14)"
   sodipodi:docname="dot_18.svg"
   inkscape:export-filename="..\..\..\..\Downloads\lower a diff canvas resize 3.0.png"
   inkscape:export-xdpi="96"
   inkscape:export-ydpi="96"
   xmlns:inkscape="http://www.inkscape.org/namespaces/inkscape"
   xmlns:sodipodi="http://sodipodi.sourceforge.net/DTD/sodipodi-0.dtd"
   xmlns="http://www.w3.org/2000/svg"
   xmlns:svg="http://www.w3.org/2000/svg"
   xmlns:rdf="http://www.w3.org/1999/02/22-rdf-syntax-ns#"
   xmlns:cc="http://creativecommons.org/ns#"
   xmlns:dc="http://purl.org/dc/elements/1.1/">
  <defs
     id="defs1675">
    <inkscape:path-effect
       effect="powerstroke"
       id="path-effect156"
       is_visible="true"
       lpeversion="1"
       offset_points="3.3322384,0.069148074 | 11.821411,0.061572864 | 16.401344,0.069536545"
       not_jump="true"
       sort_points="true"
       interpolator_type="CentripetalCatmullRom"
       interpolator_beta="0.75"
       start_linecap_type="round"
       linejoin_type="spiro"
       miter_limit="4"
       scale_width="1"
       end_linecap_type="round" />
    <inkscape:path-effect
       effect="simplify"
       id="path-effect154"
       is_visible="true"
       lpeversion="1"
       steps="1"
       threshold="0.0035951417"
       smooth_angles="0"
       helper_size="0"
       simplify_individual_paths="false"
       simplify_just_coalesce="false"
       step="1" />
    <inkscape:path-effect
       effect="powerstroke"
       id="path-effect153"
       is_visible="true"
       lpeversion="1"
       offset_points="6.0891728,0.066722402 | 8.297066,0.074845815 | 40.900087,0.06758995 | 47.987313,0.075713364"
       not_jump="true"
       sort_points="true"
       interpolator_type="CentripetalCatmullRom"
       interpolator_beta="0.75"
       start_linecap_type="round"
       linejoin_type="spiro"
       miter_limit="4"
       scale_width="1"
       end_linecap_type="round" />
    <inkscape:path-effect
       effect="simplify"
       id="path-effect151"
       is_visible="true"
       lpeversion="1"
       steps="1"
       threshold="0.0035951417"
       smooth_angles="0"
       helper_size="0"
       simplify_individual_paths="false"
       simplify_just_coalesce="false"
       step="1" />
    <inkscape:path-effect
       effect="powerstroke"
       id="path-effect1547"
       is_visible="true"
       lpeversion="1"
       offset_points="5.6381698,0.094267736"
       not_jump="true"
       sort_points="true"
       interpolator_type="CentripetalCatmullRom"
       interpolator_beta="0.75"
       start_linecap_type="round"
       linejoin_type="spiro"
       miter_limit="4"
       scale_width="1"
       end_linecap_type="round" />
    <inkscape:path-effect
       effect="simplify"
       id="path-effect1545"
       is_visible="true"
       lpeversion="1"
       steps="1"
       threshold="0.0035951417"
       smooth_angles="0"
       helper_size="0"
       simplify_individual_paths="false"
       simplify_just_coalesce="false"
       step="1" />
    <inkscape:path-effect
       effect="powerstroke"
       id="path-effect502"
       is_visible="true"
       lpeversion="1"
       offset_points="3.0091841,0.21607495 | 7.3602657,0.17554228 | 9.4159651,0.20236537"
       not_jump="true"
       sort_points="true"
       interpolator_type="CentripetalCatmullRom"
       interpolator_beta="0.75"
       start_linecap_type="round"
       linejoin_type="spiro"
       miter_limit="4"
       scale_width="1"
       end_linecap_type="round" />
    <inkscape:path-effect
       effect="simplify"
       id="path-effect500"
       is_visible="true"
       lpeversion="1"
       steps="1"
       threshold="0.0035951417"
       smooth_angles="0"
       helper_size="0"
       simplify_individual_paths="false"
       simplify_just_coalesce="false"
       step="1" />
    <inkscape:path-effect
       effect="powerstroke"
       id="path-effect241"
       is_visible="true"
       lpeversion="1"
       offset_points="2.6879454,0.34086734"
       not_jump="true"
       sort_points="true"
       interpolator_type="CentripetalCatmullRom"
       interpolator_beta="0.75"
       start_linecap_type="round"
       linejoin_type="spiro"
       miter_limit="4"
       scale_width="1"
       end_linecap_type="round" />
    <inkscape:path-effect
       effect="simplify"
       id="path-effect239"
       is_visible="true"
       lpeversion="1"
       steps="1"
       threshold="0.0028332064"
       smooth_angles="0"
       helper_size="0"
       simplify_individual_paths="false"
       simplify_just_coalesce="false"
       step="1" />
    <inkscape:path-effect
       effect="powerstroke"
       id="path-effect234"
       is_visible="true"
       lpeversion="1"
       offset_points="2.13563,0.075169555"
       not_jump="true"
       sort_points="true"
       interpolator_type="CentripetalCatmullRom"
       interpolator_beta="0.75"
       start_linecap_type="round"
       linejoin_type="spiro"
       miter_limit="4"
       scale_width="1"
       end_linecap_type="round" />
    <inkscape:path-effect
       effect="simplify"
       id="path-effect232"
       is_visible="true"
       lpeversion="1"
       steps="1"
       threshold="0.0028332064"
       smooth_angles="0"
       helper_size="0"
       simplify_individual_paths="false"
       simplify_just_coalesce="false"
       step="1" />
    <inkscape:path-effect
       effect="powerstroke"
       id="path-effect227"
       is_visible="true"
       lpeversion="1"
       offset_points="2.1868266,0.075169555"
       not_jump="true"
       sort_points="true"
       interpolator_type="CentripetalCatmullRom"
       interpolator_beta="0.75"
       start_linecap_type="round"
       linejoin_type="spiro"
       miter_limit="4"
       scale_width="1"
       end_linecap_type="round" />
    <inkscape:path-effect
       effect="simplify"
       id="path-effect225"
       is_visible="true"
       lpeversion="1"
       steps="1"
       threshold="0.0028332064"
       smooth_angles="0"
       helper_size="0"
       simplify_individual_paths="false"
       simplify_just_coalesce="false"
       step="1" />
    <inkscape:path-effect
       effect="powerstroke"
       id="path-effect166"
       is_visible="true"
       lpeversion="1"
       offset_points="1.9637935,0.075169555"
       not_jump="true"
       sort_points="true"
       interpolator_type="CentripetalCatmullRom"
       interpolator_beta="0.75"
       start_linecap_type="round"
       linejoin_type="spiro"
       miter_limit="4"
       scale_width="1"
       end_linecap_type="round" />
    <inkscape:path-effect
       effect="simplify"
       id="path-effect164"
       is_visible="true"
       lpeversion="1"
       steps="1"
       threshold="0.0028332064"
       smooth_angles="0"
       helper_size="0"
       simplify_individual_paths="false"
       simplify_just_coalesce="false"
       step="1" />
    <inkscape:path-effect
       effect="powerstroke"
       id="path-effect159"
       is_visible="true"
       lpeversion="1"
       offset_points="2.2611036,0.075169555"
       not_jump="true"
       sort_points="true"
       interpolator_type="CentripetalCatmullRom"
       interpolator_beta="0.75"
       start_linecap_type="round"
       linejoin_type="spiro"
       miter_limit="4"
       scale_width="1"
       end_linecap_type="round" />
    <inkscape:path-effect
       effect="simplify"
       id="path-effect157"
       is_visible="true"
       lpeversion="1"
       steps="1"
       threshold="0.0028332064"
       smooth_angles="0"
       helper_size="0"
       simplify_individual_paths="false"
       simplify_just_coalesce="false"
       step="1" />
    <inkscape:path-effect
       effect="powerstroke"
       id="path-effect152"
       is_visible="true"
       lpeversion="1"
       offset_points="2.826981,0.075169555"
       not_jump="true"
       sort_points="true"
       interpolator_type="CentripetalCatmullRom"
       interpolator_beta="0.75"
       start_linecap_type="round"
       linejoin_type="spiro"
       miter_limit="4"
       scale_width="1"
       end_linecap_type="round" />
    <inkscape:path-effect
       effect="simplify"
       id="path-effect150"
       is_visible="true"
       lpeversion="1"
       steps="1"
       threshold="0.0028332064"
       smooth_angles="0"
       helper_size="0"
       simplify_individual_paths="false"
       simplify_just_coalesce="false"
       step="1" />
    <inkscape:path-effect
       effect="powerstroke"
       id="path-effect145"
       is_visible="true"
       lpeversion="1"
       offset_points="3.8374447,0.075169555"
       not_jump="true"
       sort_points="true"
       interpolator_type="CentripetalCatmullRom"
       interpolator_beta="0.75"
       start_linecap_type="round"
       linejoin_type="spiro"
       miter_limit="4"
       scale_width="1"
       end_linecap_type="round" />
    <inkscape:path-effect
       effect="simplify"
       id="path-effect143"
       is_visible="true"
       lpeversion="1"
       steps="1"
       threshold="0.0028332064"
       smooth_angles="0"
       helper_size="0"
       simplify_individual_paths="false"
       simplify_just_coalesce="false"
       step="1" />
    <inkscape:path-effect
       effect="powerstroke"
       id="path-effect138"
       is_visible="true"
       lpeversion="1"
       offset_points="2.6880907,0.075169555"
       not_jump="true"
       sort_points="true"
       interpolator_type="CentripetalCatmullRom"
       interpolator_beta="0.75"
       start_linecap_type="round"
       linejoin_type="spiro"
       miter_limit="4"
       scale_width="1"
       end_linecap_type="round" />
    <inkscape:path-effect
       effect="simplify"
       id="path-effect136"
       is_visible="true"
       lpeversion="1"
       steps="1"
       threshold="0.0028332064"
       smooth_angles="0"
       helper_size="0"
       simplify_individual_paths="false"
       simplify_just_coalesce="false"
       step="1" />
    <inkscape:path-effect
       effect="powerstroke"
       id="path-effect131"
       is_visible="true"
       lpeversion="1"
       offset_points="1.9940581,0.075169555"
       not_jump="true"
       sort_points="true"
       interpolator_type="CentripetalCatmullRom"
       interpolator_beta="0.75"
       start_linecap_type="round"
       linejoin_type="spiro"
       miter_limit="4"
       scale_width="1"
       end_linecap_type="round" />
    <inkscape:path-effect
       effect="simplify"
       id="path-effect129"
       is_visible="true"
       lpeversion="1"
       steps="1"
       threshold="0.0028332064"
       smooth_angles="0"
       helper_size="0"
       simplify_individual_paths="false"
       simplify_just_coalesce="false"
       step="1" />
  </defs>
  <sodipodi:namedview
     id="base"
     pagecolor="#ffffff"
     bordercolor="#666666"
     borderopacity="1.0"
     inkscape:pageopacity="0.0"
     inkscape:pageshadow="2"
     inkscape:zoom="7.919596"
     inkscape:cx="-5.3033008"
     inkscape:cy="20.834396"
     inkscape:document-units="mm"
     inkscape:current-layer="layer1"
     showgrid="false"
     fit-margin-top="0"
     fit-margin-left="0"
     fit-margin-right="0"
     fit-margin-bottom="0"
     inkscape:window-width="1920"
     inkscape:window-height="974"
     inkscape:window-x="-11"
     inkscape:window-y="2889"
     inkscape:window-maximized="1"
     showguides="true"
     inkscape:guide-bbox="true"
     inkscape:snap-bbox="true"
     inkscape:bbox-nodes="true"
     inkscape:snap-nodes="false"
     inkscape:snap-others="false"
     inkscape:snap-page="true"
     inkscape:snap-grids="false"
     inkscape:snap-to-guides="false"
     inkscape:snap-global="false"
     inkscape:pagecheckerboard="0"
     inkscape:showpageshadow="2"
     inkscape:deskcolor="#d1d1d1">
    <sodipodi:guide
       position="-6.1806076,9.4988693"
       orientation="0,1"
       id="guide816"
       inkscape:locked="false" />
    <sodipodi:guide
       position="-4.4101636,10.646923"
       orientation="0,1"
       id="guide818"
       inkscape:locked="false" />
    <sodipodi:guide
       position="2.7595724,11.09577"
       orientation="1,0"
       id="guide820"
       inkscape:locked="false" />
    <sodipodi:guide
       position="3.6572659,10.942217"
       orientation="1,0"
       id="guide822"
       inkscape:locked="false" />
    <sodipodi:guide
       position="-0.051625511,9.74923"
       orientation="1,0"
       id="guide1853"
       inkscape:locked="false" />
    <sodipodi:guide
       position="-2.3720169,3.0175835"
       orientation="0,1"
       id="guide1855"
       inkscape:locked="false" />
  </sodipodi:namedview>
  <metadata
     id="metadata1678">
    <rdf:RDF>
      <cc:Work
         rdf:about="">
        <dc:format>image/svg+xml</dc:format>
        <dc:type
           rdf:resource="http://purl.org/dc/dcmitype/StillImage" />
      </cc:Work>
    </rdf:RDF>
  </metadata>
  <g
     inkscape:label="Layer 1"
     inkscape:groupmode="layer"
     id="layer1"
     transform="translate(17.028496,-147.22856)">
    <path
       d="m -15.507554,153.92557 c -0.03164,0.0225 -0.07795,0.0514 -0.134921,0.0921 -0.04033,0.0288 -0.09088,0.068 -0.134327,0.11939 -0.003,0.003 -0.0095,0.0105 -0.01581,0.019 -0.0059,0.008 -0.0131,0.0187 -0.01874,0.0316 -0.0055,0.0125 -0.01035,0.0291 -0.0099,0.0484 2.16e-4,0.01 0.0017,0.0193 0.0048,0.0291 0.003,0.01 0.0074,0.0187 0.01291,0.0272 0.01818,0.0224 0.03383,0.0338 0.05044,0.0419 0.01605,0.008 0.03233,0.0119 0.0474,0.0141 0.01485,0.002 0.02921,0.002 0.04216,0.002 0.0129,-6e-4 0.02506,-0.002 0.03571,-0.004 0.02102,-0.005 0.03457,-0.008 0.05118,-0.0118 0.0078,-0.002 0.01665,-0.004 0.02557,-0.006 0.02425,-0.006 0.05582,-0.0149 0.08644,-0.0328 0.01122,-0.006 0.02279,-0.0152 0.03302,-0.0256 0.0098,-0.01 0.01974,-0.0226 0.0272,-0.0377 0.0037,-0.008 0.007,-0.016 0.0092,-0.0254 0.0022,-0.009 0.0034,-0.0195 0.0029,-0.0305 -5.38e-4,-0.0109 -0.0028,-0.022 -0.0071,-0.0329 -0.0043,-0.0108 -0.01026,-0.0207 -0.01762,-0.0295 -0.01836,-0.0206 -0.03862,-0.034 -0.06023,-0.0426 -0.02097,-0.008 -0.0426,-0.0119 -0.06325,-0.0124 -0.0203,-4.4e-4 -0.04032,0.002 -0.05905,0.007 -0.01847,0.005 -0.03638,0.0113 -0.05277,0.0198 -0.03445,0.0171 -0.06768,0.0425 -0.09414,0.0745 -0.02606,0.0315 -0.0462,0.0703 -0.05395,0.11446 -0.0019,0.0127 -0.002,0.0238 -5.6e-4,0.0347 0.0015,0.0109 0.0044,0.0211 0.0086,0.0306 0.0083,0.0189 0.02088,0.0339 0.03445,0.0451 0.0135,0.0112 0.02868,0.0194 0.04387,0.0248 0.0152,0.005 0.0315,0.009 0.04785,0.009 0.02152,0.002 0.04711,3.8e-4 0.07076,-0.004 0.0237,-0.004 0.04602,-0.0111 0.06604,-0.0182 0.02783,-0.0109 0.05496,-0.0258 0.07822,-0.0466 0.01194,-0.0107 0.02307,-0.0231 0.03244,-0.0375 0.0095,-0.0146 0.01709,-0.0311 0.02168,-0.0492 0.0041,-0.0148 0.0056,-0.0312 0.0045,-0.047 -0.0011,-0.0161 -0.0047,-0.0319 -0.01088,-0.0467 -0.0063,-0.0152 -0.01527,-0.0295 -0.027,-0.0419 -0.01209,-0.0128 -0.02688,-0.0233 -0.04398,-0.0304 -0.025,-0.0119 -0.0535,-0.0162 -0.07934,-0.0155 -0.01765,4.6e-4 -0.03455,0.003 -0.05011,0.008 -0.009,0.002 -0.0177,0.005 -0.02604,0.009 -0.03697,0.0131 -0.07497,0.0343 -0.107152,0.0616 -0.03406,0.0289 -0.06224,0.0654 -0.0791,0.1084 -0.01222,0.0318 -0.01776,0.0681 -0.01322,0.10346 0.0024,0.0184 0.0075,0.0372 0.01659,0.0552 0.0092,0.0183 0.02228,0.0353 0.03959,0.0495 0.01461,0.0122 0.03112,0.0218 0.04818,0.0288 0.01712,0.007 0.03483,0.0115 0.05243,0.0138 0.03491,0.004 0.07076,3.6e-4 0.103435,-0.011 0.04545,-0.0131 0.09586,-0.0343 0.142109,-0.0643 0.04359,-0.0283 0.08496,-0.0655 0.116855,-0.1136 0.01133,-0.0139 0.01935,-0.0296 0.02426,-0.0459 0.0032,-0.0106 0.0051,-0.0214 0.0057,-0.0322 4.16e-4,-0.007 3.37e-4,-0.0139 -2.38e-4,-0.0208 -0.0027,-0.0324 -0.01664,-0.0677 -0.0452,-0.0942 -0.01287,-0.0139 -0.03232,-0.0258 -0.05361,-0.0324 -0.02029,-0.006 -0.04031,-0.007 -0.05831,-0.005 -0.01755,0.002 -0.034,0.006 -0.04854,0.0119 -0.01438,0.005 -0.02774,0.0122 -0.03953,0.0194 -0.03585,0.0195 -0.07077,0.0488 -0.09836,0.0845 -0.02751,0.0355 -0.04802,0.0777 -0.05681,0.12416 -0.0027,0.0308 0.0018,0.0523 0.01081,0.0713 0.009,0.0189 0.02199,0.0341 0.03632,0.0458 0.01453,0.0118 0.03098,0.0203 0.04787,0.0257 0.01727,0.005 0.03579,0.008 0.0544,0.007 0.01217,6.3e-4 0.0297,-0.002 0.04546,-0.006 0.01615,-0.004 0.03079,-0.009 0.04346,-0.0147 0.02748,-0.0117 0.0483,-0.0238 0.06458,-0.0316 0.04703,-0.0263 0.07635,-0.0515 0.09685,-0.0732 a 0.06953655,0.06953655 90 0 0 -0.101088,-0.0955 c -0.01135,0.012 -0.02976,0.0282 -0.05975,0.0448 -0.01812,0.008 -0.03818,0.0196 -0.05519,0.0268 -0.008,0.003 -0.01503,0.006 -0.02137,0.007 -0.006,0.001 -0.01125,0.002 -0.01607,0.002 -0.0077,0.004 -0.0072,0.007 -0.0073,0.009 0.0032,-0.0145 0.01357,-0.0366 0.02884,-0.0563 0.01547,-0.02 0.03542,-0.0368 0.05746,-0.0489 0.0082,-0.005 0.01394,-0.008 0.01946,-0.01 0.0057,-0.002 0.01012,-0.003 0.01314,-0.004 0.003,-3.4e-4 0.0035,9e-5 0.0024,-2.9e-4 -5.48e-4,6.6e-4 0.0011,0.003 0.0014,0.005 -0.02432,0.0394 -0.05115,0.0651 -0.08289,0.0863 -0.03281,0.0219 -0.07041,0.0387 -0.109139,0.0507 -0.01705,0.006 -0.03214,0.009 -0.04617,0.007 -0.0069,-6.1e-4 -0.01333,-0.002 -0.01906,-0.004 -0.0057,-0.002 -0.01073,-0.005 -0.01514,-0.008 -0.0029,-0.002 -0.005,-0.004 -0.0068,-0.007 -0.0019,-0.003 -0.0036,-0.008 -0.0046,-0.0137 -0.002,-0.0121 -6.2e-4,-0.0273 0.0043,-0.0414 0.0077,-0.0207 0.02194,-0.0408 0.04243,-0.0587 0.0195,-0.017 0.04397,-0.0312 0.07099,-0.041 0.0066,-0.003 0.01039,-0.004 0.0143,-0.005 0.0068,-0.002 0.01376,-0.003 0.02049,-0.003 0.0099,-2.8e-4 0.01868,0.001 0.02596,0.005 0.0051,0.003 0.0061,0.005 0.0069,0.007 8.34e-4,0.002 0.0014,0.005 0.0015,0.007 1.16e-4,0.003 -2.27e-4,0.005 -8.44e-4,0.007 -0.0014,0.005 -0.0032,0.009 -0.0058,0.013 -0.0027,0.004 -0.0064,0.008 -0.01127,0.0124 -0.0099,0.009 -0.02333,0.0162 -0.03866,0.0219 -0.01426,0.005 -0.02978,0.009 -0.04463,0.0114 -0.01467,0.002 -0.02798,0.003 -0.04022,0.001 -0.0072,-5.2e-4 -0.0097,-0.001 -0.01237,-0.002 -0.0026,-0.001 -0.0044,-0.002 -0.005,-0.003 -5.2e-4,-5.8e-4 5.31e-4,-2e-5 0.0016,0.002 5.81e-4,0.001 0.001,0.003 0.0013,0.004 0.0035,-0.0135 0.01266,-0.0316 0.02655,-0.048 0.01421,-0.0167 0.03259,-0.0305 0.05245,-0.04 0.0082,-0.004 0.01637,-0.007 0.02488,-0.009 0.0086,-0.002 0.01684,-0.003 0.024,-0.002 0.0073,2.9e-4 0.01269,0.002 0.01644,0.003 0.0036,0.002 0.0059,0.003 0.0078,0.006 -0.0029,-0.003 -0.0046,-0.006 -0.006,-0.009 -0.0014,-0.003 -0.0021,-0.007 -0.0023,-0.0103 -1.95e-4,-0.003 1.62e-4,-0.006 5.64e-4,-0.008 0.0014,-0.004 5.44e-4,-0.003 -9.08e-4,-0.002 -0.0017,0.002 -0.0034,0.003 -0.0042,0.003 -0.01408,0.008 -0.03027,0.0131 -0.05061,0.0179 -0.0072,0.002 -0.01459,0.003 -0.02234,0.005 -0.01509,0.003 -0.03329,0.007 -0.05123,0.0118 5.09e-4,-5.9e-4 -0.0065,1.8e-4 -0.01302,4.6e-4 -0.0066,2.8e-4 -0.01191,2e-5 -0.01602,-5.9e-4 -0.0041,-6.1e-4 -0.0062,-0.001 -0.0069,-0.002 0.0066,0.009 0.0078,0.0114 0.0088,0.0144 9.8e-4,0.003 0.0015,0.006 0.0015,0.009 1.33e-4,0.006 -0.0013,0.009 -0.0016,0.0101 -2.83e-4,6.3e-4 6.27e-4,-0.001 0.0026,-0.004 0.0023,-0.003 0.0052,-0.007 0.009,-0.0107 0.03382,-0.0401 0.07326,-0.0713 0.11053,-0.098 0.05117,-0.0367 0.09946,-0.067 0.134523,-0.092 a 0.06914807,0.06914807 90 0 0 -0.08016,-0.1127 z"
       id="path-1"
       inkscape:path-effect="#path-effect154;#path-effect156"
       inkscape:original-d="m -15.467472,153.98192 c -0.0986,0.0701 -0.210847,0.12993 -0.280741,0.23183 -0.02263,0.0692 0.07421,0.0743 0.118753,0.062 0.05807,-0.016 0.154959,-0.0219 0.170141,-0.0917 -0.0064,-0.0561 -0.07823,-0.0631 -0.122597,-0.0539 -0.07316,0.0192 -0.140789,0.0802 -0.154372,0.15635 -0.0058,0.0768 0.09784,0.0771 0.149914,0.0615 0.06332,-0.0125 0.138868,-0.0585 0.131348,-0.13231 -0.0061,-0.0688 -0.08892,-0.0849 -0.142815,-0.063 -0.08925,0.0281 -0.180502,0.10861 -0.168422,0.21019 0.0085,0.0787 0.09911,0.10643 0.165716,0.0846 0.09137,-0.0257 0.182871,-0.0765 0.234775,-0.15844 0.04233,-0.0515 -0.0037,-0.13107 -0.06968,-0.1197 -0.08516,0.0224 -0.160061,0.0956 -0.176491,0.18324 10e-4,0.0802 0.100894,0.077 0.151999,0.0462 0.04704,-0.0192 0.0932,-0.0457 0.128243,-0.0828"
       style="fill:#000000;fill-rule:nonzero;stroke:none;stroke-width:0.661497" />
  </g>
</svg>
