<?xml version="1.0" encoding="UTF-8" standalone="no"?>
<!-- Created with Inkscape (http://www.inkscape.org/) -->

<svg
   width="4mm"
   height="10mm"
   viewBox="0 0 4.0000001 9.9999994"
   version="1.1"
   id="svg1681"
   inkscape:version="1.2.1 (9c6d41e410, 2022-07-14)"
   sodipodi:docname="lower_a_1.svg"
   inkscape:export-filename="..\..\..\..\Downloads\lower a diff canvas resize 3.0.png"
   inkscape:export-xdpi="96"
   inkscape:export-ydpi="96"
   xmlns:inkscape="http://www.inkscape.org/namespaces/inkscape"
   xmlns:sodipodi="http://sodipodi.sourceforge.net/DTD/sodipodi-0.dtd"
   xmlns="http://www.w3.org/2000/svg"
   xmlns:svg="http://www.w3.org/2000/svg"
   xmlns:rdf="http://www.w3.org/1999/02/22-rdf-syntax-ns#"
   xmlns:cc="http://creativecommons.org/ns#"
   xmlns:dc="http://purl.org/dc/elements/1.1/">
  <defs
     id="defs1675">
    <inkscape:path-effect
       effect="powerstroke"
       id="path-effect616"
       is_visible="true"
       lpeversion="1"
       offset_points="1.6242787,0.11731011 | 5.5716384,0.10173798 | 7.1976303,0.11454173 | 11.895689,0.095336096"
       not_jump="true"
       sort_points="true"
       interpolator_type="CentripetalCatmullRom"
       interpolator_beta="0.75"
       start_linecap_type="round"
       linejoin_type="spiro"
       miter_limit="4"
       scale_width="1"
       end_linecap_type="round" />
    <inkscape:path-effect
       effect="simplify"
       id="path-effect614"
       is_visible="true"
       lpeversion="1"
       steps="1"
       threshold="0.0047745358"
       smooth_angles="0"
       helper_size="0"
       simplify_individual_paths="false"
       simplify_just_coalesce="false"
       step="1" />
    <inkscape:path-effect
       effect="powerstroke"
       id="path-effect609"
       is_visible="true"
       lpeversion="1"
       offset_points="1.8093588,0.17717634 | 6.9028627,0.15918187 | 10.609422,0.17717634 | 14.9264,0.13582366"
       not_jump="true"
       sort_points="true"
       interpolator_type="CentripetalCatmullRom"
       interpolator_beta="0.75"
       start_linecap_type="round"
       linejoin_type="spiro"
       miter_limit="4"
       scale_width="1"
       end_linecap_type="round" />
    <inkscape:path-effect
       effect="simplify"
       id="path-effect607"
       is_visible="true"
       lpeversion="1"
       steps="1"
       threshold="0.0047745358"
       smooth_angles="0"
       helper_size="0"
       simplify_individual_paths="false"
       simplify_just_coalesce="false"
       step="1" />
    <inkscape:path-effect
       effect="powerstroke"
       id="path-effect602"
       is_visible="true"
       lpeversion="1"
       offset_points="1.9617486,0.10156495"
       not_jump="true"
       sort_points="true"
       interpolator_type="CentripetalCatmullRom"
       interpolator_beta="0.75"
       start_linecap_type="round"
       linejoin_type="spiro"
       miter_limit="4"
       scale_width="1"
       end_linecap_type="round" />
    <inkscape:path-effect
       effect="simplify"
       id="path-effect600"
       is_visible="true"
       lpeversion="1"
       steps="1"
       threshold="0.0047745358"
       smooth_angles="0"
       helper_size="0"
       simplify_individual_paths="false"
       simplify_just_coalesce="false"
       step="1" />
    <inkscape:path-effect
       effect="powerstroke"
       id="path-effect149"
       is_visible="true"
       lpeversion="1"
       offset_points="1.7808428,0.17192968 | 7.3853847,0.13319675 | 10.547291,0.17750277"
       not_jump="true"
       sort_points="true"
       interpolator_type="CentripetalCatmullRom"
       interpolator_beta="0.75"
       start_linecap_type="round"
       linejoin_type="spiro"
       miter_limit="4"
       scale_width="1"
       end_linecap_type="round" />
    <inkscape:path-effect
       effect="simplify"
       id="path-effect147"
       is_visible="true"
       lpeversion="1"
       steps="1"
       threshold="0.0035951417"
       smooth_angles="0"
       helper_size="0"
       simplify_individual_paths="false"
       simplify_just_coalesce="false"
       step="1" />
    <inkscape:path-effect
       effect="powerstroke"
       id="path-effect502"
       is_visible="true"
       lpeversion="1"
       offset_points="3.0091841,0.21607495 | 7.3602657,0.17554228 | 9.4159651,0.20236537"
       not_jump="true"
       sort_points="true"
       interpolator_type="CentripetalCatmullRom"
       interpolator_beta="0.75"
       start_linecap_type="round"
       linejoin_type="spiro"
       miter_limit="4"
       scale_width="1"
       end_linecap_type="round" />
    <inkscape:path-effect
       effect="simplify"
       id="path-effect500"
       is_visible="true"
       lpeversion="1"
       steps="1"
       threshold="0.0035951417"
       smooth_angles="0"
       helper_size="0"
       simplify_individual_paths="false"
       simplify_just_coalesce="false"
       step="1" />
    <inkscape:path-effect
       effect="powerstroke"
       id="path-effect241"
       is_visible="true"
       lpeversion="1"
       offset_points="2.6879454,0.34086734"
       not_jump="true"
       sort_points="true"
       interpolator_type="CentripetalCatmullRom"
       interpolator_beta="0.75"
       start_linecap_type="round"
       linejoin_type="spiro"
       miter_limit="4"
       scale_width="1"
       end_linecap_type="round" />
    <inkscape:path-effect
       effect="simplify"
       id="path-effect239"
       is_visible="true"
       lpeversion="1"
       steps="1"
       threshold="0.0028332064"
       smooth_angles="0"
       helper_size="0"
       simplify_individual_paths="false"
       simplify_just_coalesce="false"
       step="1" />
    <inkscape:path-effect
       effect="powerstroke"
       id="path-effect234"
       is_visible="true"
       lpeversion="1"
       offset_points="2.13563,0.075169555"
       not_jump="true"
       sort_points="true"
       interpolator_type="CentripetalCatmullRom"
       interpolator_beta="0.75"
       start_linecap_type="round"
       linejoin_type="spiro"
       miter_limit="4"
       scale_width="1"
       end_linecap_type="round" />
    <inkscape:path-effect
       effect="simplify"
       id="path-effect232"
       is_visible="true"
       lpeversion="1"
       steps="1"
       threshold="0.0028332064"
       smooth_angles="0"
       helper_size="0"
       simplify_individual_paths="false"
       simplify_just_coalesce="false"
       step="1" />
    <inkscape:path-effect
       effect="powerstroke"
       id="path-effect227"
       is_visible="true"
       lpeversion="1"
       offset_points="2.1868266,0.075169555"
       not_jump="true"
       sort_points="true"
       interpolator_type="CentripetalCatmullRom"
       interpolator_beta="0.75"
       start_linecap_type="round"
       linejoin_type="spiro"
       miter_limit="4"
       scale_width="1"
       end_linecap_type="round" />
    <inkscape:path-effect
       effect="simplify"
       id="path-effect225"
       is_visible="true"
       lpeversion="1"
       steps="1"
       threshold="0.0028332064"
       smooth_angles="0"
       helper_size="0"
       simplify_individual_paths="false"
       simplify_just_coalesce="false"
       step="1" />
    <inkscape:path-effect
       effect="powerstroke"
       id="path-effect166"
       is_visible="true"
       lpeversion="1"
       offset_points="1.9637935,0.075169555"
       not_jump="true"
       sort_points="true"
       interpolator_type="CentripetalCatmullRom"
       interpolator_beta="0.75"
       start_linecap_type="round"
       linejoin_type="spiro"
       miter_limit="4"
       scale_width="1"
       end_linecap_type="round" />
    <inkscape:path-effect
       effect="simplify"
       id="path-effect164"
       is_visible="true"
       lpeversion="1"
       steps="1"
       threshold="0.0028332064"
       smooth_angles="0"
       helper_size="0"
       simplify_individual_paths="false"
       simplify_just_coalesce="false"
       step="1" />
    <inkscape:path-effect
       effect="powerstroke"
       id="path-effect159"
       is_visible="true"
       lpeversion="1"
       offset_points="2.2611036,0.075169555"
       not_jump="true"
       sort_points="true"
       interpolator_type="CentripetalCatmullRom"
       interpolator_beta="0.75"
       start_linecap_type="round"
       linejoin_type="spiro"
       miter_limit="4"
       scale_width="1"
       end_linecap_type="round" />
    <inkscape:path-effect
       effect="simplify"
       id="path-effect157"
       is_visible="true"
       lpeversion="1"
       steps="1"
       threshold="0.0028332064"
       smooth_angles="0"
       helper_size="0"
       simplify_individual_paths="false"
       simplify_just_coalesce="false"
       step="1" />
    <inkscape:path-effect
       effect="powerstroke"
       id="path-effect152"
       is_visible="true"
       lpeversion="1"
       offset_points="2.826981,0.075169555"
       not_jump="true"
       sort_points="true"
       interpolator_type="CentripetalCatmullRom"
       interpolator_beta="0.75"
       start_linecap_type="round"
       linejoin_type="spiro"
       miter_limit="4"
       scale_width="1"
       end_linecap_type="round" />
    <inkscape:path-effect
       effect="simplify"
       id="path-effect150"
       is_visible="true"
       lpeversion="1"
       steps="1"
       threshold="0.0028332064"
       smooth_angles="0"
       helper_size="0"
       simplify_individual_paths="false"
       simplify_just_coalesce="false"
       step="1" />
    <inkscape:path-effect
       effect="powerstroke"
       id="path-effect145"
       is_visible="true"
       lpeversion="1"
       offset_points="3.8374447,0.075169555"
       not_jump="true"
       sort_points="true"
       interpolator_type="CentripetalCatmullRom"
       interpolator_beta="0.75"
       start_linecap_type="round"
       linejoin_type="spiro"
       miter_limit="4"
       scale_width="1"
       end_linecap_type="round" />
    <inkscape:path-effect
       effect="simplify"
       id="path-effect143"
       is_visible="true"
       lpeversion="1"
       steps="1"
       threshold="0.0028332064"
       smooth_angles="0"
       helper_size="0"
       simplify_individual_paths="false"
       simplify_just_coalesce="false"
       step="1" />
    <inkscape:path-effect
       effect="powerstroke"
       id="path-effect138"
       is_visible="true"
       lpeversion="1"
       offset_points="2.6880907,0.075169555"
       not_jump="true"
       sort_points="true"
       interpolator_type="CentripetalCatmullRom"
       interpolator_beta="0.75"
       start_linecap_type="round"
       linejoin_type="spiro"
       miter_limit="4"
       scale_width="1"
       end_linecap_type="round" />
    <inkscape:path-effect
       effect="simplify"
       id="path-effect136"
       is_visible="true"
       lpeversion="1"
       steps="1"
       threshold="0.0028332064"
       smooth_angles="0"
       helper_size="0"
       simplify_individual_paths="false"
       simplify_just_coalesce="false"
       step="1" />
    <inkscape:path-effect
       effect="powerstroke"
       id="path-effect131"
       is_visible="true"
       lpeversion="1"
       offset_points="1.9940581,0.075169555"
       not_jump="true"
       sort_points="true"
       interpolator_type="CentripetalCatmullRom"
       interpolator_beta="0.75"
       start_linecap_type="round"
       linejoin_type="spiro"
       miter_limit="4"
       scale_width="1"
       end_linecap_type="round" />
    <inkscape:path-effect
       effect="simplify"
       id="path-effect129"
       is_visible="true"
       lpeversion="1"
       steps="1"
       threshold="0.0028332064"
       smooth_angles="0"
       helper_size="0"
       simplify_individual_paths="false"
       simplify_just_coalesce="false"
       step="1" />
  </defs>
  <sodipodi:namedview
     id="base"
     pagecolor="#ffffff"
     bordercolor="#666666"
     borderopacity="1.0"
     inkscape:pageopacity="0.0"
     inkscape:pageshadow="2"
     inkscape:zoom="22.4"
     inkscape:cx="9.5535714"
     inkscape:cy="16.607143"
     inkscape:document-units="mm"
     inkscape:current-layer="layer1"
     showgrid="false"
     fit-margin-top="0"
     fit-margin-left="0"
     fit-margin-right="0"
     fit-margin-bottom="0"
     inkscape:window-width="1920"
     inkscape:window-height="1057"
     inkscape:window-x="1072"
     inkscape:window-y="321"
     inkscape:window-maximized="1"
     showguides="true"
     inkscape:guide-bbox="true"
     inkscape:snap-bbox="true"
     inkscape:bbox-nodes="true"
     inkscape:snap-nodes="false"
     inkscape:snap-others="false"
     inkscape:snap-page="true"
     inkscape:snap-grids="false"
     inkscape:snap-to-guides="false"
     inkscape:snap-global="false"
     inkscape:pagecheckerboard="0"
     inkscape:showpageshadow="2"
     inkscape:deskcolor="#d1d1d1">
    <sodipodi:guide
       position="-6.1806075,9.4988692"
       orientation="0,1"
       id="guide816"
       inkscape:locked="false" />
    <sodipodi:guide
       position="-4.4101636,10.646923"
       orientation="0,1"
       id="guide818"
       inkscape:locked="false" />
    <sodipodi:guide
       position="2.7595724,11.09577"
       orientation="1,0"
       id="guide820"
       inkscape:locked="false" />
    <sodipodi:guide
       position="3.6572659,10.942217"
       orientation="1,0"
       id="guide822"
       inkscape:locked="false" />
    <sodipodi:guide
       position="-0.051625511,9.7492299"
       orientation="1,0"
       id="guide1853"
       inkscape:locked="false" />
    <sodipodi:guide
       position="-2.3720169,3.0175835"
       orientation="0,1"
       id="guide1855"
       inkscape:locked="false" />
  </sodipodi:namedview>
  <metadata
     id="metadata1678">
    <rdf:RDF>
      <cc:Work
         rdf:about="">
        <dc:format>image/svg+xml</dc:format>
        <dc:type
           rdf:resource="http://purl.org/dc/dcmitype/StillImage" />
      </cc:Work>
    </rdf:RDF>
  </metadata>
  <g
     inkscape:label="Layer 1"
     inkscape:groupmode="layer"
     id="layer1"
     transform="translate(17.028496,-147.22856)">
    <path
       d="m -14.124199,150.1298 c -0.125274,-0.0622 -0.371895,-0.17106 -0.671393,-0.20448 -0.111403,-0.0124 -0.23239,-0.0147 -0.357468,0.001 -0.115288,0.0147 -0.234118,0.0448 -0.351479,0.0966 -0.07442,0.0341 -0.14097,0.0755 -0.203392,0.12188 -0.06093,0.0453 -0.117202,0.0949 -0.17053,0.14504 -0.02643,0.0249 -0.0523,0.05 -0.0775,0.0747 -0.06801,0.0667 -0.14626,0.14569 -0.224262,0.21074 -0.128192,0.11808 -0.230831,0.25398 -0.322455,0.40884 -0.08414,0.1422 -0.153934,0.29148 -0.222602,0.44359 -0.08042,0.19396 -0.155183,0.39927 -0.204033,0.61199 -0.04875,0.21231 -0.07158,0.43132 -0.04892,0.65317 0.03797,0.23453 0.123407,0.44355 0.232198,0.62941 0.115834,0.19788 0.259092,0.37118 0.402593,0.5166 0.146467,0.14636 0.30397,0.26408 0.466454,0.34472 0.02573,0.0128 0.05139,0.0245 0.07699,0.0353 0.06836,0.0287 0.135719,0.0501 0.201838,0.0648 0.104386,0.0231 0.205966,0.0296 0.30406,0.0215 0.295616,-0.0281 0.642632,-0.10366 0.956894,-0.2911 0.06431,-0.039 0.123785,-0.0866 0.178231,-0.144 0.01345,-0.0142 0.02651,-0.0289 0.03919,-0.0441 0.05747,-0.0689 0.106065,-0.14709 0.147007,-0.23319 0.07433,-0.15632 0.119487,-0.33019 0.150968,-0.50742 0.07023,-0.44736 0.07097,-0.94919 -0.05816,-1.4472 -0.09704,-0.33728 -0.175035,-0.68551 -0.1997,-1.04081 -0.0031,-0.035 -0.0088,-0.0706 -0.01381,-0.10238 -0.0052,-0.0333 -0.0099,-0.0635 -0.01258,-0.0925 -0.0027,-0.0291 -0.0029,-0.0531 -5.06e-4,-0.0728 0.0012,-0.01 0.0029,-0.0178 0.005,-0.0244 0.0021,-0.007 0.0045,-0.0118 0.0071,-0.016 l -0.178103,-0.0757 c -0.01174,0.0568 -0.02869,0.1229 -0.03805,0.18825 -0.005,0.0347 -0.008,0.0704 -0.0076,0.10704 2.85e-4,0.0219 0.0018,0.0439 0.005,0.0662 0.0019,0.0135 0.0044,0.0273 0.0076,0.0412 0.016,0.192 0.02483,0.39476 0.03871,0.60417 0.01334,0.2014 0.03188,0.41137 0.06986,0.62087 0.05118,0.29087 0.07005,0.58137 0.106412,0.88721 0.03624,0.3048 0.08849,0.6068 0.205214,0.89732 0.06045,0.14574 0.118242,0.28588 0.186449,0.42363 0.07337,0.14818 0.153522,0.28247 0.249777,0.40325 0.105004,0.12626 0.226094,0.22543 0.284248,0.27202 a 0.0953361,0.0953361 90 0 0 0.119212,-0.14882 c -0.05688,-0.0456 -0.165699,-0.13447 -0.256702,-0.24301 -0.0844,-0.10559 -0.157902,-0.22743 -0.227391,-0.36732 -0.06506,-0.13097 -0.120591,-0.26503 -0.18127,-0.41098 -0.107126,-0.26633 -0.157122,-0.54881 -0.192748,-0.8483 -0.03476,-0.2922 -0.05563,-0.60048 -0.107866,-0.89805 -0.03602,-0.19944 -0.0538,-0.40104 -0.06668,-0.60016 -0.01352,-0.20897 -0.02197,-0.41558 -0.03821,-0.61484 -4.05e-4,-0.005 -0.0012,-0.01 -0.0024,-0.0147 -0.0023,-0.01 -0.0041,-0.0195 -0.0053,-0.0292 -0.0017,-0.0135 -0.0026,-0.0275 -0.0025,-0.0418 4.1e-5,-0.0242 0.0025,-0.0495 0.0069,-0.0768 0.0092,-0.057 0.02365,-0.10602 0.03965,-0.17484 0.0062,-0.0268 0.01187,-0.0548 0.006,-0.0817 -0.0029,-0.0135 -0.0086,-0.0264 -0.01707,-0.0373 -0.0085,-0.0109 -0.0197,-0.0196 -0.03241,-0.0249 -0.0127,-0.005 -0.02679,-0.007 -0.04048,-0.006 -0.0137,0.002 -0.02693,0.006 -0.03868,0.0136 -0.02349,0.0144 -0.04006,0.0375 -0.05551,0.0603 -0.01304,0.0193 -0.0229,0.0395 -0.03025,0.0601 -0.0073,0.0203 -0.01209,0.0409 -0.01519,0.061 -0.0061,0.0396 -0.0059,0.0796 -0.0035,0.11659 0.0024,0.0367 0.0072,0.0735 0.01137,0.10608 0.0044,0.0338 0.008,0.0624 0.0095,0.0879 0.0221,0.37452 0.100301,0.73935 0.195589,1.08298 0.116024,0.46192 0.112841,0.93234 0.04497,1.35241 -0.03041,0.16474 -0.07165,0.31623 -0.133998,0.44687 -0.03401,0.0712 -0.07268,0.13277 -0.116169,0.18522 -0.0096,0.0116 -0.01941,0.0227 -0.02944,0.0333 -0.04041,0.043 -0.08385,0.0781 -0.129957,0.10666 -0.273271,0.16675 -0.583903,0.24747 -0.858748,0.2787 -0.0753,0.007 -0.155948,0.004 -0.240461,-0.0144 -0.05365,-0.0114 -0.109337,-0.0286 -0.166877,-0.0525 -0.02155,-0.009 -0.04332,-0.0188 -0.06529,-0.0297 -0.139175,-0.0687 -0.278934,-0.17241 -0.411613,-0.30614 -0.133644,-0.13644 -0.264412,-0.29699 -0.368372,-0.47722 -0.09755,-0.16913 -0.170779,-0.35436 -0.201407,-0.55224 -0.01742,-0.18719 0.0037,-0.38191 0.05023,-0.57669 0.04672,-0.19566 0.118177,-0.38778 0.19642,-0.57208 0.06866,-0.14743 0.135645,-0.28613 0.214322,-0.416 0.085,-0.14031 0.175499,-0.25619 0.279422,-0.35057 0.08382,-0.0684 0.171256,-0.15545 0.235709,-0.21806 0.02494,-0.0242 0.04957,-0.048 0.07433,-0.0711 0.05007,-0.0467 0.09922,-0.0896 0.150274,-0.12742 0.05198,-0.0385 0.104421,-0.0707 0.159594,-0.096 0.09289,-0.041 0.189367,-0.0657 0.284671,-0.0779 0.103595,-0.0133 0.205583,-0.0117 0.301644,-0.001 0.260331,0.0288 0.478733,0.12391 0.592982,0.18067 a 0.11731011,0.11731011 90 0 0 0.104388,-0.21012 z"
       id="path-1-0"
       inkscape:path-effect="#path-effect614;#path-effect616"
       inkscape:original-d="m -14.176393,150.23486 c -0.377931,-0.19097 -0.879888,-0.28645 -1.280572,-0.10382 -0.180988,0.0825 -0.311113,0.21463 -0.450365,0.35178 -0.119697,0.11789 -0.259538,0.22064 -0.360292,0.35641 -0.32387,0.43642 -0.666027,1.26106 -0.608167,1.81801 0.05627,0.54171 0.585081,1.23659 1.097633,1.46161 0.276469,0.12137 0.521501,0.0974 0.809261,0.0256 0.251351,-0.0627 0.575977,-0.17552 0.751306,-0.37848 0.394668,-0.45687 0.38355,-1.54658 0.236005,-2.08532 -0.08928,-0.32601 -0.165726,-0.63434 -0.191317,-0.97222 -0.0085,-0.11164 -0.02628,-0.22155 -0.03701,-0.33298 -0.0046,-0.048 0.03509,-0.18875 0.03351,-0.1406 -0.0021,0.063 -0.03484,0.12166 -0.04259,0.1842 -0.01089,0.0879 0.01038,0.17677 0.01606,0.26513 0.01881,0.29276 0.02531,0.60471 0.06354,0.89892 0.028,0.21549 0.06797,0.42813 0.09077,0.64443 0.07215,0.6843 0.08144,1.03598 0.38124,1.66705 0.163068,0.34327 0.254961,0.50997 0.562083,0.75587"
       style="fill:#000000;fill-rule:nonzero;stroke:none" />
  </g>
</svg>
