<?xml version="1.0" encoding="UTF-8" standalone="no"?>
<!-- Created with Inkscape (http://www.inkscape.org/) -->

<svg
   width="5mm"
   height="10mm"
   viewBox="0 0 5.0000001 9.9999994"
   version="1.1"
   id="svg1681"
   inkscape:version="1.2.1 (9c6d41e410, 2022-07-14)"
   sodipodi:docname="at_symbol_2.svg"
   inkscape:export-filename="..\..\..\..\Downloads\lower a diff canvas resize 3.0.png"
   inkscape:export-xdpi="96"
   inkscape:export-ydpi="96"
   xmlns:inkscape="http://www.inkscape.org/namespaces/inkscape"
   xmlns:sodipodi="http://sodipodi.sourceforge.net/DTD/sodipodi-0.dtd"
   xmlns="http://www.w3.org/2000/svg"
   xmlns:svg="http://www.w3.org/2000/svg"
   xmlns:rdf="http://www.w3.org/1999/02/22-rdf-syntax-ns#"
   xmlns:cc="http://creativecommons.org/ns#"
   xmlns:dc="http://purl.org/dc/elements/1.1/">
  <defs
     id="defs1675">
    <inkscape:path-effect
       effect="powerstroke"
       id="path-effect280"
       is_visible="true"
       lpeversion="1"
       offset_points="3.3579045,0.17421953 | 18.822375,0.22347967"
       not_jump="true"
       sort_points="true"
       interpolator_type="CentripetalCatmullRom"
       interpolator_beta="0.75"
       start_linecap_type="round"
       linejoin_type="spiro"
       miter_limit="4"
       scale_width="1"
       end_linecap_type="round" />
    <inkscape:path-effect
       effect="simplify"
       id="path-effect278"
       is_visible="true"
       lpeversion="1"
       steps="1"
       threshold="0.0035951417"
       smooth_angles="0"
       helper_size="0"
       simplify_individual_paths="false"
       simplify_just_coalesce="false"
       step="1" />
    <inkscape:path-effect
       effect="powerstroke"
       id="path-effect273"
       is_visible="true"
       lpeversion="1"
       offset_points="2.7597594,0.083244408 | 16.82786,0.10893713 | 21.189661,0.094255573"
       not_jump="true"
       sort_points="true"
       interpolator_type="CentripetalCatmullRom"
       interpolator_beta="0.75"
       start_linecap_type="round"
       linejoin_type="spiro"
       miter_limit="4"
       scale_width="1"
       end_linecap_type="round" />
    <inkscape:path-effect
       effect="simplify"
       id="path-effect271"
       is_visible="true"
       lpeversion="1"
       steps="1"
       threshold="0.0035951417"
       smooth_angles="0"
       helper_size="0"
       simplify_individual_paths="false"
       simplify_just_coalesce="false"
       step="1" />
    <inkscape:path-effect
       effect="powerstroke"
       id="path-effect502"
       is_visible="true"
       lpeversion="1"
       offset_points="3.0091841,0.21607495 | 7.3602657,0.17554228 | 9.4159651,0.20236537"
       not_jump="true"
       sort_points="true"
       interpolator_type="CentripetalCatmullRom"
       interpolator_beta="0.75"
       start_linecap_type="round"
       linejoin_type="spiro"
       miter_limit="4"
       scale_width="1"
       end_linecap_type="round" />
    <inkscape:path-effect
       effect="simplify"
       id="path-effect500"
       is_visible="true"
       lpeversion="1"
       steps="1"
       threshold="0.0035951417"
       smooth_angles="0"
       helper_size="0"
       simplify_individual_paths="false"
       simplify_just_coalesce="false"
       step="1" />
    <inkscape:path-effect
       effect="powerstroke"
       id="path-effect241"
       is_visible="true"
       lpeversion="1"
       offset_points="2.6879454,0.34086734"
       not_jump="true"
       sort_points="true"
       interpolator_type="CentripetalCatmullRom"
       interpolator_beta="0.75"
       start_linecap_type="round"
       linejoin_type="spiro"
       miter_limit="4"
       scale_width="1"
       end_linecap_type="round" />
    <inkscape:path-effect
       effect="simplify"
       id="path-effect239"
       is_visible="true"
       lpeversion="1"
       steps="1"
       threshold="0.0028332064"
       smooth_angles="0"
       helper_size="0"
       simplify_individual_paths="false"
       simplify_just_coalesce="false"
       step="1" />
    <inkscape:path-effect
       effect="powerstroke"
       id="path-effect234"
       is_visible="true"
       lpeversion="1"
       offset_points="2.13563,0.075169555"
       not_jump="true"
       sort_points="true"
       interpolator_type="CentripetalCatmullRom"
       interpolator_beta="0.75"
       start_linecap_type="round"
       linejoin_type="spiro"
       miter_limit="4"
       scale_width="1"
       end_linecap_type="round" />
    <inkscape:path-effect
       effect="simplify"
       id="path-effect232"
       is_visible="true"
       lpeversion="1"
       steps="1"
       threshold="0.0028332064"
       smooth_angles="0"
       helper_size="0"
       simplify_individual_paths="false"
       simplify_just_coalesce="false"
       step="1" />
    <inkscape:path-effect
       effect="powerstroke"
       id="path-effect227"
       is_visible="true"
       lpeversion="1"
       offset_points="2.1868266,0.075169555"
       not_jump="true"
       sort_points="true"
       interpolator_type="CentripetalCatmullRom"
       interpolator_beta="0.75"
       start_linecap_type="round"
       linejoin_type="spiro"
       miter_limit="4"
       scale_width="1"
       end_linecap_type="round" />
    <inkscape:path-effect
       effect="simplify"
       id="path-effect225"
       is_visible="true"
       lpeversion="1"
       steps="1"
       threshold="0.0028332064"
       smooth_angles="0"
       helper_size="0"
       simplify_individual_paths="false"
       simplify_just_coalesce="false"
       step="1" />
    <inkscape:path-effect
       effect="powerstroke"
       id="path-effect166"
       is_visible="true"
       lpeversion="1"
       offset_points="1.9637935,0.075169555"
       not_jump="true"
       sort_points="true"
       interpolator_type="CentripetalCatmullRom"
       interpolator_beta="0.75"
       start_linecap_type="round"
       linejoin_type="spiro"
       miter_limit="4"
       scale_width="1"
       end_linecap_type="round" />
    <inkscape:path-effect
       effect="simplify"
       id="path-effect164"
       is_visible="true"
       lpeversion="1"
       steps="1"
       threshold="0.0028332064"
       smooth_angles="0"
       helper_size="0"
       simplify_individual_paths="false"
       simplify_just_coalesce="false"
       step="1" />
    <inkscape:path-effect
       effect="powerstroke"
       id="path-effect159"
       is_visible="true"
       lpeversion="1"
       offset_points="2.2611036,0.075169555"
       not_jump="true"
       sort_points="true"
       interpolator_type="CentripetalCatmullRom"
       interpolator_beta="0.75"
       start_linecap_type="round"
       linejoin_type="spiro"
       miter_limit="4"
       scale_width="1"
       end_linecap_type="round" />
    <inkscape:path-effect
       effect="simplify"
       id="path-effect157"
       is_visible="true"
       lpeversion="1"
       steps="1"
       threshold="0.0028332064"
       smooth_angles="0"
       helper_size="0"
       simplify_individual_paths="false"
       simplify_just_coalesce="false"
       step="1" />
    <inkscape:path-effect
       effect="powerstroke"
       id="path-effect152"
       is_visible="true"
       lpeversion="1"
       offset_points="2.826981,0.075169555"
       not_jump="true"
       sort_points="true"
       interpolator_type="CentripetalCatmullRom"
       interpolator_beta="0.75"
       start_linecap_type="round"
       linejoin_type="spiro"
       miter_limit="4"
       scale_width="1"
       end_linecap_type="round" />
    <inkscape:path-effect
       effect="simplify"
       id="path-effect150"
       is_visible="true"
       lpeversion="1"
       steps="1"
       threshold="0.0028332064"
       smooth_angles="0"
       helper_size="0"
       simplify_individual_paths="false"
       simplify_just_coalesce="false"
       step="1" />
    <inkscape:path-effect
       effect="powerstroke"
       id="path-effect145"
       is_visible="true"
       lpeversion="1"
       offset_points="3.8374447,0.075169555"
       not_jump="true"
       sort_points="true"
       interpolator_type="CentripetalCatmullRom"
       interpolator_beta="0.75"
       start_linecap_type="round"
       linejoin_type="spiro"
       miter_limit="4"
       scale_width="1"
       end_linecap_type="round" />
    <inkscape:path-effect
       effect="simplify"
       id="path-effect143"
       is_visible="true"
       lpeversion="1"
       steps="1"
       threshold="0.0028332064"
       smooth_angles="0"
       helper_size="0"
       simplify_individual_paths="false"
       simplify_just_coalesce="false"
       step="1" />
    <inkscape:path-effect
       effect="powerstroke"
       id="path-effect138"
       is_visible="true"
       lpeversion="1"
       offset_points="2.6880907,0.075169555"
       not_jump="true"
       sort_points="true"
       interpolator_type="CentripetalCatmullRom"
       interpolator_beta="0.75"
       start_linecap_type="round"
       linejoin_type="spiro"
       miter_limit="4"
       scale_width="1"
       end_linecap_type="round" />
    <inkscape:path-effect
       effect="simplify"
       id="path-effect136"
       is_visible="true"
       lpeversion="1"
       steps="1"
       threshold="0.0028332064"
       smooth_angles="0"
       helper_size="0"
       simplify_individual_paths="false"
       simplify_just_coalesce="false"
       step="1" />
    <inkscape:path-effect
       effect="powerstroke"
       id="path-effect131"
       is_visible="true"
       lpeversion="1"
       offset_points="1.9940581,0.075169555"
       not_jump="true"
       sort_points="true"
       interpolator_type="CentripetalCatmullRom"
       interpolator_beta="0.75"
       start_linecap_type="round"
       linejoin_type="spiro"
       miter_limit="4"
       scale_width="1"
       end_linecap_type="round" />
    <inkscape:path-effect
       effect="simplify"
       id="path-effect129"
       is_visible="true"
       lpeversion="1"
       steps="1"
       threshold="0.0028332064"
       smooth_angles="0"
       helper_size="0"
       simplify_individual_paths="false"
       simplify_just_coalesce="false"
       step="1" />
  </defs>
  <sodipodi:namedview
     id="base"
     pagecolor="#ffffff"
     bordercolor="#666666"
     borderopacity="1.0"
     inkscape:pageopacity="0.0"
     inkscape:pageshadow="2"
     inkscape:zoom="7.919596"
     inkscape:cx="-5.3033008"
     inkscape:cy="20.834396"
     inkscape:document-units="mm"
     inkscape:current-layer="layer1"
     showgrid="false"
     fit-margin-top="0"
     fit-margin-left="0"
     fit-margin-right="0"
     fit-margin-bottom="0"
     inkscape:window-width="3440"
     inkscape:window-height="1369"
     inkscape:window-x="1072"
     inkscape:window-y="224"
     inkscape:window-maximized="1"
     showguides="true"
     inkscape:guide-bbox="true"
     inkscape:snap-bbox="true"
     inkscape:bbox-nodes="true"
     inkscape:snap-nodes="false"
     inkscape:snap-others="false"
     inkscape:snap-page="true"
     inkscape:snap-grids="false"
     inkscape:snap-to-guides="false"
     inkscape:snap-global="false"
     inkscape:pagecheckerboard="0"
     inkscape:showpageshadow="2"
     inkscape:deskcolor="#d1d1d1">
    <sodipodi:guide
       position="-6.1806075,9.4988692"
       orientation="0,1"
       id="guide816"
       inkscape:locked="false" />
    <sodipodi:guide
       position="-4.4101636,10.646923"
       orientation="0,1"
       id="guide818"
       inkscape:locked="false" />
    <sodipodi:guide
       position="2.7595724,11.09577"
       orientation="1,0"
       id="guide820"
       inkscape:locked="false" />
    <sodipodi:guide
       position="3.6572659,10.942217"
       orientation="1,0"
       id="guide822"
       inkscape:locked="false" />
    <sodipodi:guide
       position="-0.051625511,9.7492299"
       orientation="1,0"
       id="guide1853"
       inkscape:locked="false" />
    <sodipodi:guide
       position="-2.3720169,3.0175835"
       orientation="0,1"
       id="guide1855"
       inkscape:locked="false" />
  </sodipodi:namedview>
  <metadata
     id="metadata1678">
    <rdf:RDF>
      <cc:Work
         rdf:about="">
        <dc:format>image/svg+xml</dc:format>
        <dc:type
           rdf:resource="http://purl.org/dc/dcmitype/StillImage" />
      </cc:Work>
    </rdf:RDF>
  </metadata>
  <g
     inkscape:label="Layer 1"
     inkscape:groupmode="layer"
     id="layer1"
     transform="translate(17.028496,-147.22856)">
    <path
       d="m -13.867855,148.62385 c -0.272686,0.008 -0.608559,0.0767 -0.965965,0.27742 -0.26199,0.14715 -0.527043,0.36156 -0.754741,0.64484 -0.18943,0.23801 -0.39425,0.55676 -0.5049,0.93632 -0.0011,0.004 -0.0021,0.008 -0.003,0.0117 -0.04824,0.22226 -0.03498,0.47011 0.04826,0.70065 0.0398,0.11025 0.09604,0.21744 0.170038,0.31456 0.0722,0.0948 0.1616,0.18025 0.268791,0.24845 0.07436,0.0487 0.156549,0.0824 0.241389,0.10207 0.03597,0.008 0.07224,0.0141 0.108547,0.0175 0.04662,0.004 0.094,0.005 0.141787,0.002 0.154426,-0.009 0.312842,-0.0548 0.458233,-0.12687 0.168968,-0.0828 0.319616,-0.20322 0.448143,-0.35314 0.118415,-0.13813 0.216293,-0.29933 0.291409,-0.4733 0.143094,-0.32058 0.220456,-0.6625 0.287104,-1.02366 0.0023,-0.0125 0.0031,-0.0252 0.0028,-0.0379 -0.0021,-0.0853 -0.0114,-0.1809 -0.03613,-0.27642 -0.02393,-0.0924 -0.06356,-0.18962 -0.129374,-0.27779 -0.0027,-0.004 -0.0057,-0.007 -0.0087,-0.0106 -0.02425,-0.0278 -0.05431,-0.0533 -0.09096,-0.0719 -0.03701,-0.0187 -0.07756,-0.0287 -0.119267,-0.0287 -0.04093,3e-5 -0.07823,0.01 -0.110207,0.024 -0.03145,0.0142 -0.05809,0.033 -0.07998,0.053 -0.04264,0.0389 -0.07394,0.0879 -0.09327,0.13807 -0.0098,0.0255 -0.01728,0.0531 -0.02121,0.0821 -0.0025,0.0181 -0.0036,0.0373 -0.0029,0.0573 -0.04952,0.34224 -0.03476,0.6852 -0.01235,1.01928 3.56e-4,0.005 10e-4,0.0106 0.0018,0.0159 0.01694,0.11296 0.03801,0.24602 0.07802,0.37478 0.02015,0.0649 0.04574,0.13089 0.07938,0.19522 0.03186,0.0609 0.07104,0.12049 0.119766,0.17611 0.04075,0.0549 0.09367,0.0995 0.158807,0.12584 0.06864,0.0277 0.138361,0.03 0.200797,0.0171 0.06094,-0.0126 0.114701,-0.0394 0.159092,-0.0707 0.04157,-0.0293 0.07831,-0.0649 0.109023,-0.10371 0.06549,-0.0731 0.116262,-0.15281 0.155647,-0.23554 0.04021,-0.0845 0.06843,-0.1718 0.08859,-0.25824 0.03995,-0.1713 0.04994,-0.34735 0.05479,-0.50044 7.03e-4,-0.18716 0.0077,-0.3978 -0.01065,-0.60187 -0.0094,-0.10438 -0.02555,-0.21085 -0.05343,-0.3167 -0.02805,-0.10648 -0.06796,-0.21238 -0.12469,-0.31495 -0.05417,-0.0941 -0.119701,-0.19021 -0.203351,-0.27384 -0.04247,-0.0425 -0.09026,-0.0824 -0.14406,-0.11675 -0.05431,-0.0347 -0.114326,-0.0635 -0.180286,-0.0836 -0.109417,-0.0392 -0.229759,-0.0507 -0.342863,-0.0437 -0.108018,0.007 -0.211698,0.0303 -0.30598,0.0624 -0.38803,0.0734 -0.738848,0.24238 -1.039946,0.46414 -0.313513,0.2309 -0.576417,0.52123 -0.779563,0.83206 -0.286326,0.43219 -0.455178,0.9177 -0.574093,1.35876 -0.09031,0.35354 -0.13827,0.71478 -0.12899,1.06878 0.0098,0.37526 0.08383,0.73752 0.235265,1.07052 0.08443,0.20853 0.231037,0.37832 0.396272,0.50161 0.114319,0.0853 0.238824,0.14918 0.364612,0.19278 0.0718,0.0249 0.145726,0.0438 0.220731,0.0562 0.332291,0.0624 0.674054,0.006 0.967844,-0.12554 0.513228,-0.20146 0.961585,-0.5176 1.329885,-0.89753 0.380752,-0.39277 0.677354,-0.85475 0.879321,-1.3394 0.250837,-0.60456 0.357992,-1.23373 0.316009,-1.8297 -2.44e-4,-0.003 -5.66e-4,-0.007 -9.7e-4,-0.0104 -0.04382,-0.37408 -0.204862,-0.71598 -0.424174,-0.98048 -0.118193,-0.14254 -0.25433,-0.26422 -0.402461,-0.36111 -0.157274,-0.10287 -0.327024,-0.17717 -0.503555,-0.2206 -0.209874,-0.0426 -0.381446,-0.061 -0.499832,-0.0703 a 0.22347967,0.22347967 90 0 0 -0.03529,0.44556 c 0.105695,0.008 0.258405,0.0253 0.436856,0.0619 0.1169,0.0291 0.240027,0.0826 0.356181,0.15873 0.109578,0.0718 0.212232,0.16326 0.302472,0.27225 0.167628,0.20246 0.289167,0.46247 0.322761,0.74115 0.0354,0.51946 -0.05817,1.07704 -0.283549,1.62019 -0.181088,0.43452 -0.447093,0.84845 -0.786849,1.19906 -0.329621,0.34014 -0.726751,0.61848 -1.175712,0.79408 -0.0036,0.001 -0.0072,0.003 -0.01079,0.005 -0.22246,0.10084 -0.47325,0.14056 -0.710888,0.0968 -0.05435,-0.009 -0.103797,-0.0214 -0.152129,-0.0379 -0.08492,-0.0291 -0.168457,-0.0718 -0.244381,-0.12799 -0.109394,-0.081 -0.201345,-0.18905 -0.255082,-0.31974 -0.127665,-0.2795 -0.192107,-0.58195 -0.201453,-0.90676 -0.0088,-0.30709 0.03187,-0.62761 0.112259,-0.94605 0.111402,-0.41979 0.263619,-0.85439 0.511535,-1.23223 0.177667,-0.2736 0.405352,-0.52551 0.672914,-0.72382 0.260186,-0.19285 0.55629,-0.33388 0.877893,-0.39341 0.01158,-0.002 0.023,-0.005 0.03405,-0.009 0.06874,-0.0254 0.139102,-0.0424 0.207037,-0.0475 0.06639,-0.005 0.12861,0.001 0.185128,0.0206 0.03575,0.0106 0.06137,0.0222 0.08651,0.0378 0.02514,0.0156 0.05006,0.0353 0.07479,0.0594 0.04977,0.0484 0.09524,0.11086 0.137736,0.18247 0.03638,0.0649 0.06503,0.13816 0.08619,0.21644 0.02115,0.0782 0.03471,0.16112 0.04314,0.24879 0.01723,0.17917 0.01201,0.35949 0.0126,0.55847 -0.0034,0.14307 -0.01171,0.2857 -0.04105,0.41627 -0.01447,0.0644 -0.03364,0.12368 -0.0587,0.17747 -0.02494,0.0535 -0.0558,0.10183 -0.09413,0.14466 -0.004,0.004 -0.008,0.009 -0.01148,0.0139 -0.009,0.0125 -0.01893,0.0223 -0.02768,0.029 -0.0083,0.006 -0.01366,0.008 -0.0107,0.007 0.0038,-4.1e-4 0.01401,-0.001 0.02615,0.004 0.01033,0.004 0.01379,0.0115 0.0076,0.003 -0.0047,-0.006 -0.0094,-0.0126 -0.01475,-0.0183 -0.02814,-0.0305 -0.05222,-0.0652 -0.07311,-0.10407 -0.02107,-0.0392 -0.03883,-0.0826 -0.05412,-0.13007 -0.03065,-0.0951 -0.04918,-0.19893 -0.06711,-0.31009 -0.02473,-0.33481 -0.03817,-0.64635 0.0058,-0.94916 0.0014,-0.009 0.0025,-0.019 0.0024,-0.0286 -1.08e-4,-0.01 -0.0013,-0.0191 -0.0026,-0.0285 0.001,0.007 4.34e-4,0.012 3.8e-5,0.014 -4.62e-4,0.002 -8.35e-4,0.002 -8.72e-4,0.002 -1.35e-4,-4.7e-4 0.0018,-0.002 -0.0043,0.003 -0.0028,0.002 -0.0088,0.007 -0.0185,0.0113 -0.01011,0.004 -0.02453,0.009 -0.04213,0.008 -0.01823,-7e-5 -0.03489,-0.005 -0.04816,-0.0115 -0.01276,-0.007 -0.01908,-0.0135 -0.02038,-0.0152 -0.0028,-0.004 -0.0059,-0.007 -0.0087,-0.0106 0.03122,0.0404 0.05451,0.091 0.07047,0.14913 0.0152,0.0553 0.0233,0.11539 0.02657,0.17627 -0.0623,0.34675 -0.131517,0.64822 -0.253453,0.92566 -0.06245,0.14694 -0.141435,0.27738 -0.23373,0.38621 -0.09981,0.1177 -0.212725,0.20742 -0.335124,0.26811 -0.109575,0.0551 -0.222126,0.0867 -0.323355,0.093 -0.03093,0.002 -0.0604,0.002 -0.0883,-9.8e-4 -0.02172,-0.002 -0.04274,-0.005 -0.063,-0.01 -0.0474,-0.0108 -0.09121,-0.0288 -0.131194,-0.0549 -0.0718,-0.0455 -0.131594,-0.10198 -0.181156,-0.16683 -0.05093,-0.0666 -0.09101,-0.14207 -0.119934,-0.22195 -0.0603,-0.16652 -0.07013,-0.34572 -0.03703,-0.50361 0.09406,-0.31879 0.269742,-0.5951 0.441582,-0.81037 0.198936,-0.24709 0.429712,-0.43265 0.65407,-0.55839 0.304514,-0.17066 0.584558,-0.22623 0.805575,-0.23246 a 0.17421953,0.17421953 90 0 0 -0.0098,-0.3483 z"
       id="path-1"
       inkscape:path-effect="#path-effect278;#path-effect280"
       inkscape:original-d="m -13.862946,148.798 c -0.930779,0.0292 -1.728543,0.77947 -2.045295,1.66227 -0.154885,0.49489 0.115312,1.15519 0.638508,1.24329 0.45702,0.0406 0.890176,-0.27034 1.102566,-0.6808 0.194794,-0.34739 0.278863,-0.74783 0.355034,-1.13573 0.01605,-0.16609 -0.111978,-0.67932 -0.299304,-0.44157 -0.07491,0.34832 -0.05455,0.71817 -0.03674,1.07413 0.03352,0.27793 0.126657,0.72177 0.400483,0.78238 0.382035,-0.19614 0.416931,-0.70039 0.417672,-1.09166 0.0013,-0.3984 0.0083,-0.83719 -0.253491,-1.16039 -0.185391,-0.2824 -0.541415,-0.34359 -0.83295,-0.22691 -0.968706,0.16862 -1.733714,0.98715 -2.070326,1.92231 -0.324788,0.83175 -0.470945,1.82829 -0.05514,2.65543 0.298468,0.5653 1.036028,0.6876 1.57128,0.45151 1.481185,-0.54816 2.520315,-2.17539 2.445168,-3.81233 -0.06144,-0.72733 -0.638172,-1.38471 -1.344782,-1.45178 -0.0942,-0.0173 -0.189393,-0.0286 -0.284832,-0.0351"
       style="fill:#000000;fill-rule:nonzero;stroke:none;stroke-width:1.89562" />
  </g>
</svg>
