<?xml version="1.0" encoding="UTF-8" standalone="no"?>
<!-- Created with Inkscape (http://www.inkscape.org/) -->

<svg
   width="5mm"
   height="10mm"
   viewBox="0 0 5.0000001 9.9999994"
   version="1.1"
   id="svg1681"
   inkscape:version="1.2.1 (9c6d41e410, 2022-07-14)"
   sodipodi:docname="at_symbol_14.svg"
   inkscape:export-filename="..\..\..\..\Downloads\lower a diff canvas resize 3.0.png"
   inkscape:export-xdpi="96"
   inkscape:export-ydpi="96"
   xmlns:inkscape="http://www.inkscape.org/namespaces/inkscape"
   xmlns:sodipodi="http://sodipodi.sourceforge.net/DTD/sodipodi-0.dtd"
   xmlns="http://www.w3.org/2000/svg"
   xmlns:svg="http://www.w3.org/2000/svg"
   xmlns:rdf="http://www.w3.org/1999/02/22-rdf-syntax-ns#"
   xmlns:cc="http://creativecommons.org/ns#"
   xmlns:dc="http://purl.org/dc/elements/1.1/">
  <defs
     id="defs1675">
    <inkscape:path-effect
       effect="powerstroke"
       id="path-effect153"
       is_visible="true"
       lpeversion="1"
       offset_points="3.7485359,0.1623782 | 6.4602784,0.13006932 | 7.3976112,0.14507731 | 8.286148,0.1290271 | 19.418665,0.18801686"
       not_jump="true"
       sort_points="true"
       interpolator_type="CentripetalCatmullRom"
       interpolator_beta="0.75"
       start_linecap_type="round"
       linejoin_type="spiro"
       miter_limit="4"
       scale_width="1"
       end_linecap_type="round" />
    <inkscape:path-effect
       effect="simplify"
       id="path-effect151"
       is_visible="true"
       lpeversion="1"
       steps="1"
       threshold="0.0035951417"
       smooth_angles="0"
       helper_size="0"
       simplify_individual_paths="false"
       simplify_just_coalesce="false"
       step="1" />
    <inkscape:path-effect
       effect="powerstroke"
       id="path-effect472"
       is_visible="true"
       lpeversion="1"
       offset_points="4.0521283,0.12528567 | 12.810949,0.15034281 | 15.888046,0.12134149 | 21.515736,0.14199042"
       not_jump="true"
       sort_points="true"
       interpolator_type="CentripetalCatmullRom"
       interpolator_beta="0.75"
       start_linecap_type="round"
       linejoin_type="spiro"
       miter_limit="4"
       scale_width="1"
       end_linecap_type="round" />
    <inkscape:path-effect
       effect="simplify"
       id="path-effect470"
       is_visible="true"
       lpeversion="1"
       steps="1"
       threshold="0.0035951417"
       smooth_angles="0"
       helper_size="0"
       simplify_individual_paths="false"
       simplify_just_coalesce="false"
       step="1" />
    <inkscape:path-effect
       effect="powerstroke"
       id="path-effect502"
       is_visible="true"
       lpeversion="1"
       offset_points="3.0091841,0.21607495 | 7.3602657,0.17554228 | 9.4159651,0.20236537"
       not_jump="true"
       sort_points="true"
       interpolator_type="CentripetalCatmullRom"
       interpolator_beta="0.75"
       start_linecap_type="round"
       linejoin_type="spiro"
       miter_limit="4"
       scale_width="1"
       end_linecap_type="round" />
    <inkscape:path-effect
       effect="simplify"
       id="path-effect500"
       is_visible="true"
       lpeversion="1"
       steps="1"
       threshold="0.0035951417"
       smooth_angles="0"
       helper_size="0"
       simplify_individual_paths="false"
       simplify_just_coalesce="false"
       step="1" />
    <inkscape:path-effect
       effect="powerstroke"
       id="path-effect241"
       is_visible="true"
       lpeversion="1"
       offset_points="2.6879454,0.34086734"
       not_jump="true"
       sort_points="true"
       interpolator_type="CentripetalCatmullRom"
       interpolator_beta="0.75"
       start_linecap_type="round"
       linejoin_type="spiro"
       miter_limit="4"
       scale_width="1"
       end_linecap_type="round" />
    <inkscape:path-effect
       effect="simplify"
       id="path-effect239"
       is_visible="true"
       lpeversion="1"
       steps="1"
       threshold="0.0028332064"
       smooth_angles="0"
       helper_size="0"
       simplify_individual_paths="false"
       simplify_just_coalesce="false"
       step="1" />
    <inkscape:path-effect
       effect="powerstroke"
       id="path-effect234"
       is_visible="true"
       lpeversion="1"
       offset_points="2.13563,0.075169555"
       not_jump="true"
       sort_points="true"
       interpolator_type="CentripetalCatmullRom"
       interpolator_beta="0.75"
       start_linecap_type="round"
       linejoin_type="spiro"
       miter_limit="4"
       scale_width="1"
       end_linecap_type="round" />
    <inkscape:path-effect
       effect="simplify"
       id="path-effect232"
       is_visible="true"
       lpeversion="1"
       steps="1"
       threshold="0.0028332064"
       smooth_angles="0"
       helper_size="0"
       simplify_individual_paths="false"
       simplify_just_coalesce="false"
       step="1" />
    <inkscape:path-effect
       effect="powerstroke"
       id="path-effect227"
       is_visible="true"
       lpeversion="1"
       offset_points="2.1868266,0.075169555"
       not_jump="true"
       sort_points="true"
       interpolator_type="CentripetalCatmullRom"
       interpolator_beta="0.75"
       start_linecap_type="round"
       linejoin_type="spiro"
       miter_limit="4"
       scale_width="1"
       end_linecap_type="round" />
    <inkscape:path-effect
       effect="simplify"
       id="path-effect225"
       is_visible="true"
       lpeversion="1"
       steps="1"
       threshold="0.0028332064"
       smooth_angles="0"
       helper_size="0"
       simplify_individual_paths="false"
       simplify_just_coalesce="false"
       step="1" />
    <inkscape:path-effect
       effect="powerstroke"
       id="path-effect166"
       is_visible="true"
       lpeversion="1"
       offset_points="1.9637935,0.075169555"
       not_jump="true"
       sort_points="true"
       interpolator_type="CentripetalCatmullRom"
       interpolator_beta="0.75"
       start_linecap_type="round"
       linejoin_type="spiro"
       miter_limit="4"
       scale_width="1"
       end_linecap_type="round" />
    <inkscape:path-effect
       effect="simplify"
       id="path-effect164"
       is_visible="true"
       lpeversion="1"
       steps="1"
       threshold="0.0028332064"
       smooth_angles="0"
       helper_size="0"
       simplify_individual_paths="false"
       simplify_just_coalesce="false"
       step="1" />
    <inkscape:path-effect
       effect="powerstroke"
       id="path-effect159"
       is_visible="true"
       lpeversion="1"
       offset_points="2.2611036,0.075169555"
       not_jump="true"
       sort_points="true"
       interpolator_type="CentripetalCatmullRom"
       interpolator_beta="0.75"
       start_linecap_type="round"
       linejoin_type="spiro"
       miter_limit="4"
       scale_width="1"
       end_linecap_type="round" />
    <inkscape:path-effect
       effect="simplify"
       id="path-effect157"
       is_visible="true"
       lpeversion="1"
       steps="1"
       threshold="0.0028332064"
       smooth_angles="0"
       helper_size="0"
       simplify_individual_paths="false"
       simplify_just_coalesce="false"
       step="1" />
    <inkscape:path-effect
       effect="powerstroke"
       id="path-effect152"
       is_visible="true"
       lpeversion="1"
       offset_points="2.826981,0.075169555"
       not_jump="true"
       sort_points="true"
       interpolator_type="CentripetalCatmullRom"
       interpolator_beta="0.75"
       start_linecap_type="round"
       linejoin_type="spiro"
       miter_limit="4"
       scale_width="1"
       end_linecap_type="round" />
    <inkscape:path-effect
       effect="simplify"
       id="path-effect150"
       is_visible="true"
       lpeversion="1"
       steps="1"
       threshold="0.0028332064"
       smooth_angles="0"
       helper_size="0"
       simplify_individual_paths="false"
       simplify_just_coalesce="false"
       step="1" />
    <inkscape:path-effect
       effect="powerstroke"
       id="path-effect145"
       is_visible="true"
       lpeversion="1"
       offset_points="3.8374447,0.075169555"
       not_jump="true"
       sort_points="true"
       interpolator_type="CentripetalCatmullRom"
       interpolator_beta="0.75"
       start_linecap_type="round"
       linejoin_type="spiro"
       miter_limit="4"
       scale_width="1"
       end_linecap_type="round" />
    <inkscape:path-effect
       effect="simplify"
       id="path-effect143"
       is_visible="true"
       lpeversion="1"
       steps="1"
       threshold="0.0028332064"
       smooth_angles="0"
       helper_size="0"
       simplify_individual_paths="false"
       simplify_just_coalesce="false"
       step="1" />
    <inkscape:path-effect
       effect="powerstroke"
       id="path-effect138"
       is_visible="true"
       lpeversion="1"
       offset_points="2.6880907,0.075169555"
       not_jump="true"
       sort_points="true"
       interpolator_type="CentripetalCatmullRom"
       interpolator_beta="0.75"
       start_linecap_type="round"
       linejoin_type="spiro"
       miter_limit="4"
       scale_width="1"
       end_linecap_type="round" />
    <inkscape:path-effect
       effect="simplify"
       id="path-effect136"
       is_visible="true"
       lpeversion="1"
       steps="1"
       threshold="0.0028332064"
       smooth_angles="0"
       helper_size="0"
       simplify_individual_paths="false"
       simplify_just_coalesce="false"
       step="1" />
    <inkscape:path-effect
       effect="powerstroke"
       id="path-effect131"
       is_visible="true"
       lpeversion="1"
       offset_points="1.9940581,0.075169555"
       not_jump="true"
       sort_points="true"
       interpolator_type="CentripetalCatmullRom"
       interpolator_beta="0.75"
       start_linecap_type="round"
       linejoin_type="spiro"
       miter_limit="4"
       scale_width="1"
       end_linecap_type="round" />
    <inkscape:path-effect
       effect="simplify"
       id="path-effect129"
       is_visible="true"
       lpeversion="1"
       steps="1"
       threshold="0.0028332064"
       smooth_angles="0"
       helper_size="0"
       simplify_individual_paths="false"
       simplify_just_coalesce="false"
       step="1" />
  </defs>
  <sodipodi:namedview
     id="base"
     pagecolor="#ffffff"
     bordercolor="#666666"
     borderopacity="1.0"
     inkscape:pageopacity="0.0"
     inkscape:pageshadow="2"
     inkscape:zoom="7.919596"
     inkscape:cx="-5.1770318"
     inkscape:cy="20.960665"
     inkscape:document-units="mm"
     inkscape:current-layer="layer1"
     showgrid="false"
     fit-margin-top="0"
     fit-margin-left="0"
     fit-margin-right="0"
     fit-margin-bottom="0"
     inkscape:window-width="1920"
     inkscape:window-height="974"
     inkscape:window-x="-11"
     inkscape:window-y="2889"
     inkscape:window-maximized="1"
     showguides="true"
     inkscape:guide-bbox="true"
     inkscape:snap-bbox="true"
     inkscape:bbox-nodes="true"
     inkscape:snap-nodes="false"
     inkscape:snap-others="false"
     inkscape:snap-page="true"
     inkscape:snap-grids="false"
     inkscape:snap-to-guides="false"
     inkscape:snap-global="false"
     inkscape:pagecheckerboard="0"
     inkscape:showpageshadow="2"
     inkscape:deskcolor="#d1d1d1">
    <sodipodi:guide
       position="-6.1806075,9.4988692"
       orientation="0,1"
       id="guide816"
       inkscape:locked="false" />
    <sodipodi:guide
       position="-4.4101636,10.646923"
       orientation="0,1"
       id="guide818"
       inkscape:locked="false" />
    <sodipodi:guide
       position="2.7595724,11.09577"
       orientation="1,0"
       id="guide820"
       inkscape:locked="false" />
    <sodipodi:guide
       position="3.6572659,10.942217"
       orientation="1,0"
       id="guide822"
       inkscape:locked="false" />
    <sodipodi:guide
       position="-0.051625511,9.7492299"
       orientation="1,0"
       id="guide1853"
       inkscape:locked="false" />
    <sodipodi:guide
       position="-2.3720169,3.0175835"
       orientation="0,1"
       id="guide1855"
       inkscape:locked="false" />
  </sodipodi:namedview>
  <metadata
     id="metadata1678">
    <rdf:RDF>
      <cc:Work
         rdf:about="">
        <dc:format>image/svg+xml</dc:format>
        <dc:type
           rdf:resource="http://purl.org/dc/dcmitype/StillImage" />
      </cc:Work>
    </rdf:RDF>
  </metadata>
  <g
     inkscape:label="Layer 1"
     inkscape:groupmode="layer"
     id="layer1"
     transform="translate(17.028496,-147.22856)">
    <path
       d="m -12.55236,149.1333 c -0.219145,-0.11576 -0.568454,-0.24568 -1.002362,-0.23798 -0.313492,0.006 -0.669915,0.0845 -0.992219,0.30176 -0.135561,0.0899 -0.251045,0.2044 -0.354941,0.33459 -0.09712,0.12169 -0.180364,0.25232 -0.259059,0.38008 -0.377235,0.65363 -0.492607,1.41453 -0.389614,2.11237 0.0011,0.007 0.0026,0.0143 0.0046,0.0212 0.02787,0.0973 0.07131,0.18478 0.124251,0.26136 0.05568,0.0805 0.121855,0.14906 0.192402,0.20573 0.0755,0.0607 0.156387,0.10806 0.237229,0.14351 0.0851,0.0373 0.175781,0.0638 0.268854,0.0775 0.225159,0.0393 0.467353,0.0135 0.683541,-0.0728 0.108834,-0.0434 0.21127,-0.10227 0.302267,-0.17598 0.09231,-0.0748 0.172267,-0.16436 0.235076,-0.26766 0.209637,-0.3066 0.339997,-0.64968 0.414958,-0.98854 0.08133,-0.36763 0.09822,-0.73407 0.08287,-1.06249 -0.0013,-0.0381 -0.0031,-0.0815 -0.0075,-0.12639 -0.004,-0.0412 -0.01002,-0.0817 -0.01928,-0.12116 -0.0019,-0.008 -0.0038,-0.0158 -0.006,-0.0236 -0.01467,-0.054 -0.03544,-0.10396 -0.06457,-0.14867 -0.03382,-0.0519 -0.07767,-0.0948 -0.131395,-0.12689 -0.07301,-0.0401 -0.147822,-0.0537 -0.220054,-0.0469 -0.04091,0.004 -0.08123,0.0143 -0.119682,0.0307 -0.0274,0.0117 -0.05183,0.0256 -0.07321,0.0402 -0.0577,0.0393 -0.103444,0.0904 -0.136296,0.14589 -0.02845,0.048 -0.05617,0.11473 -0.06177,0.19399 -0.0054,0.0501 -0.0033,0.11028 0.01097,0.17624 0.0017,0.008 0.0036,0.016 0.0057,0.0241 0.011,0.0429 0.02659,0.0862 0.04699,0.13181 0.03713,0.0831 0.09019,0.16944 0.130889,0.25176 0.101158,0.17768 0.229238,0.37833 0.391803,0.55782 0.1443,0.15932 0.326248,0.31395 0.555432,0.41725 0.172,0.0767 0.378968,0.11836 0.595784,0.0926 0.01344,-0.002 0.02698,-0.004 0.03929,-0.009 0.01231,-0.006 0.02295,-0.0143 0.03319,-0.0231 0.06665,-0.0576 0.119067,-0.12474 0.159346,-0.19814 0.03925,-0.0715 0.06637,-0.14787 0.08454,-0.2256 0.03522,-0.15064 0.03728,-0.30854 0.02792,-0.4519 -0.0062,-0.11269 -0.01669,-0.22523 -0.02369,-0.33572 -0.0069,-0.10831 -0.01035,-0.21377 -0.0039,-0.31744 5.91e-4,-0.009 3.5e-5,-0.0189 -0.0012,-0.0283 -0.03347,-0.24882 -0.09405,-0.50621 -0.194848,-0.74942 -0.09985,-0.24092 -0.240114,-0.47014 -0.434469,-0.66241 -0.08623,-0.0833 -0.182341,-0.15839 -0.288278,-0.21924 -0.106004,-0.0609 -0.222802,-0.10804 -0.347818,-0.13225 -0.0086,-0.002 -0.01738,-0.002 -0.02616,-0.003 -0.301889,-0.007 -0.58974,0.0701 -0.847273,0.19921 -0.260045,0.13041 -0.491094,0.31426 -0.680024,0.52152 -0.167555,0.17633 -0.29995,0.37663 -0.41073,0.57928 -0.112565,0.20591 -0.206736,0.4219 -0.292793,0.62252 -0.178014,0.42972 -0.316489,0.87206 -0.397415,1.31946 -0.08425,0.46576 -0.105129,0.93151 -0.04645,1.38877 0.02039,0.14143 0.04195,0.2781 0.07378,0.414 0.034,0.14516 0.0786,0.28427 0.141582,0.41624 0.108697,0.21461 0.259081,0.39548 0.42846,0.53451 0.03445,0.0283 0.07016,0.0552 0.107027,0.0807 0.112593,0.0777 0.236424,0.14161 0.36866,0.18633 0.131414,0.0444 0.27113,0.0699 0.415622,0.0708 0.08703,0.002 0.173297,-0.009 0.255469,-0.0284 0.0818,-0.0195 0.159288,-0.0478 0.232255,-0.0806 0.144614,-0.0651 0.277667,-0.15118 0.393271,-0.22871 0.342543,-0.23873 0.617269,-0.53825 0.84249,-0.86302 0.229377,-0.33076 0.409526,-0.69083 0.555252,-1.04313 0.168081,-0.40346 0.298831,-0.80043 0.360268,-1.20967 0.04702,-0.2916 0.06506,-0.58752 0.03765,-0.8733 -0.03019,-0.31481 -0.114446,-0.60545 -0.26204,-0.86284 -0.07351,-0.12863 -0.157439,-0.23876 -0.247554,-0.33 -0.117288,-0.11875 -0.237149,-0.19765 -0.347187,-0.25022 a 0.18801686,0.18801686 90 0 0 -0.162108,0.3393 c 0.07283,0.0348 0.156267,0.089 0.241001,0.17529 0.06558,0.0668 0.129728,0.15056 0.187821,0.25297 0.116738,0.20423 0.187368,0.44146 0.21291,0.71144 0.02329,0.2462 0.008,0.50876 -0.03578,0.77872 -0.05598,0.36918 -0.175087,0.73427 -0.336892,1.12215 -0.139087,0.33601 -0.307167,0.6701 -0.516559,0.9721 -0.205294,0.2961 -0.449453,0.56019 -0.744354,0.76596 -0.111492,0.075 -0.221533,0.14543 -0.334461,0.19659 -0.05567,0.0252 -0.110344,0.0449 -0.16457,0.0581 -0.05415,0.0131 -0.107861,0.0197 -0.161855,0.0187 -0.104341,-4.5e-4 -0.204124,-0.018 -0.300135,-0.0502 -0.09678,-0.0324 -0.189612,-0.0796 -0.275841,-0.13864 -0.02819,-0.0193 -0.05564,-0.0399 -0.08225,-0.0615 -0.131504,-0.10714 -0.248873,-0.24715 -0.332125,-0.40932 -0.04782,-0.0979 -0.08593,-0.21006 -0.117107,-0.33653 -0.02944,-0.11943 -0.05071,-0.24279 -0.07214,-0.37855 -0.05441,-0.41147 -0.03791,-0.83974 0.03889,-1.27499 0.07382,-0.41838 0.202215,-0.83676 0.369819,-1.24668 0.08369,-0.20014 0.170177,-0.40296 0.272065,-0.59364 0.09964,-0.18649 0.213882,-0.36118 0.355814,-0.51357 0.164972,-0.18398 0.362373,-0.34288 0.580779,-0.45475 0.212104,-0.10863 0.441893,-0.17187 0.677683,-0.17029 0.08031,0.0154 0.159731,0.0454 0.236542,0.0873 0.08126,0.0443 0.158088,0.10123 0.227853,0.16573 0.158831,0.15422 0.280021,0.34529 0.369525,0.55565 0.08885,0.20882 0.14562,0.43469 0.178902,0.6598 -0.004,0.11654 0.0026,0.23066 0.01158,0.33849 0.0097,0.11603 0.02216,0.22728 0.03014,0.33391 0.0106,0.13012 0.0093,0.25719 -0.01534,0.3705 -0.01252,0.0576 -0.0307,0.10975 -0.05516,0.156 -0.01865,0.0353 -0.04109,0.0674 -0.06792,0.0962 -0.146745,0.0126 -0.289175,-0.0152 -0.410567,-0.0669 -0.186665,-0.0826 -0.341441,-0.21028 -0.470366,-0.35111 -0.14555,-0.159 -0.263625,-0.34107 -0.357349,-0.50441 -0.04651,-0.0931 -0.09454,-0.17106 -0.122241,-0.23464 -0.01516,-0.0348 -0.02484,-0.064 -0.0308,-0.0899 -0.0011,-0.005 -0.0021,-0.01 -0.003,-0.0143 -0.0069,-0.0375 -0.0057,-0.0682 -7.82e-4,-0.0942 0.005,-0.0317 0.01774,-0.0554 0.03222,-0.0742 0.01634,-0.0212 0.03796,-0.0403 0.06163,-0.0548 0.0087,-0.005 0.01802,-0.0102 0.02772,-0.0143 0.01352,-0.006 0.02612,-0.009 0.03742,-0.0111 0.01882,-0.003 0.03803,-0.002 0.05739,0.005 0.01428,0.006 0.02991,0.0166 0.04343,0.0333 0.0121,0.015 0.02382,0.0363 0.03288,0.0672 0.0013,0.004 0.0025,0.009 0.0037,0.0139 0.0059,0.0241 0.01,0.0518 0.01237,0.0836 0.0026,0.0348 0.003,0.071 0.0026,0.1108 0.01147,0.31553 -0.0095,0.65608 -0.08928,0.99328 -0.07341,0.31011 -0.196497,0.61592 -0.389267,0.88901 -0.05024,0.0778 -0.108722,0.14022 -0.176925,0.19264 -0.06738,0.0518 -0.144007,0.0936 -0.226561,0.12436 -0.165189,0.0616 -0.348758,0.0769 -0.518469,0.0446 -0.06798,-0.0114 -0.130883,-0.0309 -0.19018,-0.0578 -0.05636,-0.0256 -0.112078,-0.0592 -0.163407,-0.10116 -0.04796,-0.0392 -0.09149,-0.0853 -0.127284,-0.13776 -0.03204,-0.0469 -0.05781,-0.0989 -0.07492,-0.15525 -0.08931,-0.62834 0.01686,-1.30813 0.348728,-1.88422 0.07524,-0.12251 0.14939,-0.23876 0.232891,-0.34407 0.08817,-0.11121 0.179009,-0.2 0.279752,-0.26744 0.259705,-0.17576 0.553222,-0.24293 0.815683,-0.24808 0.365956,-0.007 0.661188,0.1023 0.844614,0.1992 a 0.1623782,0.1623782 90 0 0 0.15169,-0.28716 z"
       id="path-1"
       inkscape:path-effect="#path-effect151;#path-effect153"
       inkscape:original-d="m -12.628205,149.27688 c -0.710516,-0.37837 -1.715301,-0.28233 -2.190867,0.42162 -0.497331,0.64284 -0.686247,1.50442 -0.568263,2.30166 0.229206,0.74139 1.336027,0.77372 1.740568,0.1668 0.422719,-0.58709 0.547431,-1.35286 0.506487,-2.06206 1.49e-4,-0.67808 -0.789977,-0.37525 -0.519398,0.16446 0.281021,0.59159 0.801379,1.3205 1.5356,1.23003 0.383981,-0.34699 0.149278,-0.95825 0.186928,-1.41794 -0.08405,-0.66785 -0.418488,-1.45972 -1.130248,-1.63867 -0.801743,-0.0233 -1.489592,0.58964 -1.831253,1.27573 -0.562298,1.11857 -0.922843,2.44173 -0.573442,3.67976 0.181088,0.71709 1.042637,1.29744 1.740604,0.89061 0.977717,-0.50982 1.497741,-1.58108 1.830107,-2.58353 0.231607,-0.80693 0.331767,-1.82682 -0.292102,-2.48671 -0.08557,-0.0828 -0.183213,-0.15339 -0.29,-0.20627"
       style="fill:#000000;fill-rule:nonzero;stroke:none;stroke-width:1.41977" />
  </g>
</svg>
