<?xml version="1.0" encoding="UTF-8" standalone="no"?>
<!-- Created with Inkscape (http://www.inkscape.org/) -->

<svg
   width="5mm"
   height="10mm"
   viewBox="0 0 5.0000001 9.9999994"
   version="1.1"
   id="svg1681"
   inkscape:version="1.2.1 (9c6d41e410, 2022-07-14)"
   sodipodi:docname="at_symbol_17.svg"
   inkscape:export-filename="..\..\..\..\Downloads\lower a diff canvas resize 3.0.png"
   inkscape:export-xdpi="96"
   inkscape:export-ydpi="96"
   xmlns:inkscape="http://www.inkscape.org/namespaces/inkscape"
   xmlns:sodipodi="http://sodipodi.sourceforge.net/DTD/sodipodi-0.dtd"
   xmlns="http://www.w3.org/2000/svg"
   xmlns:svg="http://www.w3.org/2000/svg"
   xmlns:rdf="http://www.w3.org/1999/02/22-rdf-syntax-ns#"
   xmlns:cc="http://creativecommons.org/ns#"
   xmlns:dc="http://purl.org/dc/elements/1.1/">
  <defs
     id="defs1675">
    <inkscape:path-effect
       effect="powerstroke"
       id="path-effect158"
       is_visible="true"
       lpeversion="1"
       offset_points="3.3253705,0.14543971 | 7.8047043,0.12471899 | 20.519865,0.16280565"
       not_jump="true"
       sort_points="true"
       interpolator_type="CentripetalCatmullRom"
       interpolator_beta="0.75"
       start_linecap_type="round"
       linejoin_type="spiro"
       miter_limit="4"
       scale_width="1"
       end_linecap_type="round" />
    <inkscape:path-effect
       effect="simplify"
       id="path-effect156"
       is_visible="true"
       lpeversion="1"
       steps="1"
       threshold="0.0035951417"
       smooth_angles="0"
       helper_size="0"
       simplify_individual_paths="false"
       simplify_just_coalesce="false"
       step="1" />
    <inkscape:path-effect
       effect="powerstroke"
       id="path-effect162"
       is_visible="true"
       lpeversion="1"
       offset_points="2.750415,0.1455995"
       not_jump="true"
       sort_points="true"
       interpolator_type="CentripetalCatmullRom"
       interpolator_beta="0.75"
       start_linecap_type="round"
       linejoin_type="spiro"
       miter_limit="4"
       scale_width="1"
       end_linecap_type="round" />
    <inkscape:path-effect
       effect="simplify"
       id="path-effect160"
       is_visible="true"
       lpeversion="1"
       steps="1"
       threshold="0.0035951417"
       smooth_angles="0"
       helper_size="0"
       simplify_individual_paths="false"
       simplify_just_coalesce="false"
       step="1" />
    <inkscape:path-effect
       effect="powerstroke"
       id="path-effect155"
       is_visible="true"
       lpeversion="1"
       offset_points="3.4661472,0.1380066 | 7.2546663,0.12405913 | 18.061674,0.1105521 | 21.957341,0.13477666"
       not_jump="true"
       sort_points="true"
       interpolator_type="CentripetalCatmullRom"
       interpolator_beta="0.75"
       start_linecap_type="round"
       linejoin_type="spiro"
       miter_limit="4"
       scale_width="1"
       end_linecap_type="round" />
    <inkscape:path-effect
       effect="simplify"
       id="path-effect153"
       is_visible="true"
       lpeversion="1"
       steps="1"
       threshold="0.0035951417"
       smooth_angles="0"
       helper_size="0"
       simplify_individual_paths="false"
       simplify_just_coalesce="false"
       step="1" />
    <inkscape:path-effect
       effect="powerstroke"
       id="path-effect280"
       is_visible="true"
       lpeversion="1"
       offset_points="3.3579045,0.17421953 | 18.822375,0.22347967"
       not_jump="true"
       sort_points="true"
       interpolator_type="CentripetalCatmullRom"
       interpolator_beta="0.75"
       start_linecap_type="round"
       linejoin_type="spiro"
       miter_limit="4"
       scale_width="1"
       end_linecap_type="round" />
    <inkscape:path-effect
       effect="simplify"
       id="path-effect278"
       is_visible="true"
       lpeversion="1"
       steps="1"
       threshold="0.0035951417"
       smooth_angles="0"
       helper_size="0"
       simplify_individual_paths="false"
       simplify_just_coalesce="false"
       step="1" />
    <inkscape:path-effect
       effect="powerstroke"
       id="path-effect273"
       is_visible="true"
       lpeversion="1"
       offset_points="2.7597594,0.083244408 | 16.82786,0.10893713 | 21.189661,0.094255573"
       not_jump="true"
       sort_points="true"
       interpolator_type="CentripetalCatmullRom"
       interpolator_beta="0.75"
       start_linecap_type="round"
       linejoin_type="spiro"
       miter_limit="4"
       scale_width="1"
       end_linecap_type="round" />
    <inkscape:path-effect
       effect="simplify"
       id="path-effect271"
       is_visible="true"
       lpeversion="1"
       steps="1"
       threshold="0.0035951417"
       smooth_angles="0"
       helper_size="0"
       simplify_individual_paths="false"
       simplify_just_coalesce="false"
       step="1" />
    <inkscape:path-effect
       effect="powerstroke"
       id="path-effect502"
       is_visible="true"
       lpeversion="1"
       offset_points="3.0091841,0.21607495 | 7.3602657,0.17554228 | 9.4159651,0.20236537"
       not_jump="true"
       sort_points="true"
       interpolator_type="CentripetalCatmullRom"
       interpolator_beta="0.75"
       start_linecap_type="round"
       linejoin_type="spiro"
       miter_limit="4"
       scale_width="1"
       end_linecap_type="round" />
    <inkscape:path-effect
       effect="simplify"
       id="path-effect500"
       is_visible="true"
       lpeversion="1"
       steps="1"
       threshold="0.0035951417"
       smooth_angles="0"
       helper_size="0"
       simplify_individual_paths="false"
       simplify_just_coalesce="false"
       step="1" />
    <inkscape:path-effect
       effect="powerstroke"
       id="path-effect241"
       is_visible="true"
       lpeversion="1"
       offset_points="2.6879454,0.34086734"
       not_jump="true"
       sort_points="true"
       interpolator_type="CentripetalCatmullRom"
       interpolator_beta="0.75"
       start_linecap_type="round"
       linejoin_type="spiro"
       miter_limit="4"
       scale_width="1"
       end_linecap_type="round" />
    <inkscape:path-effect
       effect="simplify"
       id="path-effect239"
       is_visible="true"
       lpeversion="1"
       steps="1"
       threshold="0.0028332064"
       smooth_angles="0"
       helper_size="0"
       simplify_individual_paths="false"
       simplify_just_coalesce="false"
       step="1" />
    <inkscape:path-effect
       effect="powerstroke"
       id="path-effect234"
       is_visible="true"
       lpeversion="1"
       offset_points="2.13563,0.075169555"
       not_jump="true"
       sort_points="true"
       interpolator_type="CentripetalCatmullRom"
       interpolator_beta="0.75"
       start_linecap_type="round"
       linejoin_type="spiro"
       miter_limit="4"
       scale_width="1"
       end_linecap_type="round" />
    <inkscape:path-effect
       effect="simplify"
       id="path-effect232"
       is_visible="true"
       lpeversion="1"
       steps="1"
       threshold="0.0028332064"
       smooth_angles="0"
       helper_size="0"
       simplify_individual_paths="false"
       simplify_just_coalesce="false"
       step="1" />
    <inkscape:path-effect
       effect="powerstroke"
       id="path-effect227"
       is_visible="true"
       lpeversion="1"
       offset_points="2.1868266,0.075169555"
       not_jump="true"
       sort_points="true"
       interpolator_type="CentripetalCatmullRom"
       interpolator_beta="0.75"
       start_linecap_type="round"
       linejoin_type="spiro"
       miter_limit="4"
       scale_width="1"
       end_linecap_type="round" />
    <inkscape:path-effect
       effect="simplify"
       id="path-effect225"
       is_visible="true"
       lpeversion="1"
       steps="1"
       threshold="0.0028332064"
       smooth_angles="0"
       helper_size="0"
       simplify_individual_paths="false"
       simplify_just_coalesce="false"
       step="1" />
    <inkscape:path-effect
       effect="powerstroke"
       id="path-effect166"
       is_visible="true"
       lpeversion="1"
       offset_points="1.9637935,0.075169555"
       not_jump="true"
       sort_points="true"
       interpolator_type="CentripetalCatmullRom"
       interpolator_beta="0.75"
       start_linecap_type="round"
       linejoin_type="spiro"
       miter_limit="4"
       scale_width="1"
       end_linecap_type="round" />
    <inkscape:path-effect
       effect="simplify"
       id="path-effect164"
       is_visible="true"
       lpeversion="1"
       steps="1"
       threshold="0.0028332064"
       smooth_angles="0"
       helper_size="0"
       simplify_individual_paths="false"
       simplify_just_coalesce="false"
       step="1" />
    <inkscape:path-effect
       effect="powerstroke"
       id="path-effect159"
       is_visible="true"
       lpeversion="1"
       offset_points="2.2611036,0.075169555"
       not_jump="true"
       sort_points="true"
       interpolator_type="CentripetalCatmullRom"
       interpolator_beta="0.75"
       start_linecap_type="round"
       linejoin_type="spiro"
       miter_limit="4"
       scale_width="1"
       end_linecap_type="round" />
    <inkscape:path-effect
       effect="simplify"
       id="path-effect157"
       is_visible="true"
       lpeversion="1"
       steps="1"
       threshold="0.0028332064"
       smooth_angles="0"
       helper_size="0"
       simplify_individual_paths="false"
       simplify_just_coalesce="false"
       step="1" />
    <inkscape:path-effect
       effect="powerstroke"
       id="path-effect152"
       is_visible="true"
       lpeversion="1"
       offset_points="2.826981,0.075169555"
       not_jump="true"
       sort_points="true"
       interpolator_type="CentripetalCatmullRom"
       interpolator_beta="0.75"
       start_linecap_type="round"
       linejoin_type="spiro"
       miter_limit="4"
       scale_width="1"
       end_linecap_type="round" />
    <inkscape:path-effect
       effect="simplify"
       id="path-effect150"
       is_visible="true"
       lpeversion="1"
       steps="1"
       threshold="0.0028332064"
       smooth_angles="0"
       helper_size="0"
       simplify_individual_paths="false"
       simplify_just_coalesce="false"
       step="1" />
    <inkscape:path-effect
       effect="powerstroke"
       id="path-effect145"
       is_visible="true"
       lpeversion="1"
       offset_points="3.8374447,0.075169555"
       not_jump="true"
       sort_points="true"
       interpolator_type="CentripetalCatmullRom"
       interpolator_beta="0.75"
       start_linecap_type="round"
       linejoin_type="spiro"
       miter_limit="4"
       scale_width="1"
       end_linecap_type="round" />
    <inkscape:path-effect
       effect="simplify"
       id="path-effect143"
       is_visible="true"
       lpeversion="1"
       steps="1"
       threshold="0.0028332064"
       smooth_angles="0"
       helper_size="0"
       simplify_individual_paths="false"
       simplify_just_coalesce="false"
       step="1" />
    <inkscape:path-effect
       effect="powerstroke"
       id="path-effect138"
       is_visible="true"
       lpeversion="1"
       offset_points="2.6880907,0.075169555"
       not_jump="true"
       sort_points="true"
       interpolator_type="CentripetalCatmullRom"
       interpolator_beta="0.75"
       start_linecap_type="round"
       linejoin_type="spiro"
       miter_limit="4"
       scale_width="1"
       end_linecap_type="round" />
    <inkscape:path-effect
       effect="simplify"
       id="path-effect136"
       is_visible="true"
       lpeversion="1"
       steps="1"
       threshold="0.0028332064"
       smooth_angles="0"
       helper_size="0"
       simplify_individual_paths="false"
       simplify_just_coalesce="false"
       step="1" />
    <inkscape:path-effect
       effect="powerstroke"
       id="path-effect131"
       is_visible="true"
       lpeversion="1"
       offset_points="1.9940581,0.075169555"
       not_jump="true"
       sort_points="true"
       interpolator_type="CentripetalCatmullRom"
       interpolator_beta="0.75"
       start_linecap_type="round"
       linejoin_type="spiro"
       miter_limit="4"
       scale_width="1"
       end_linecap_type="round" />
    <inkscape:path-effect
       effect="simplify"
       id="path-effect129"
       is_visible="true"
       lpeversion="1"
       steps="1"
       threshold="0.0028332064"
       smooth_angles="0"
       helper_size="0"
       simplify_individual_paths="false"
       simplify_just_coalesce="false"
       step="1" />
  </defs>
  <sodipodi:namedview
     id="base"
     pagecolor="#ffffff"
     bordercolor="#666666"
     borderopacity="1.0"
     inkscape:pageopacity="0.0"
     inkscape:pageshadow="2"
     inkscape:zoom="7.919596"
     inkscape:cx="-5.3033008"
     inkscape:cy="20.834396"
     inkscape:document-units="mm"
     inkscape:current-layer="layer1"
     showgrid="false"
     fit-margin-top="0"
     fit-margin-left="0"
     fit-margin-right="0"
     fit-margin-bottom="0"
     inkscape:window-width="1920"
     inkscape:window-height="974"
     inkscape:window-x="-11"
     inkscape:window-y="2889"
     inkscape:window-maximized="1"
     showguides="true"
     inkscape:guide-bbox="true"
     inkscape:snap-bbox="true"
     inkscape:bbox-nodes="true"
     inkscape:snap-nodes="false"
     inkscape:snap-others="false"
     inkscape:snap-page="true"
     inkscape:snap-grids="false"
     inkscape:snap-to-guides="false"
     inkscape:snap-global="false"
     inkscape:pagecheckerboard="0"
     inkscape:showpageshadow="2"
     inkscape:deskcolor="#d1d1d1">
    <sodipodi:guide
       position="-6.1806075,9.4988692"
       orientation="0,1"
       id="guide816"
       inkscape:locked="false" />
    <sodipodi:guide
       position="-4.4101636,10.646923"
       orientation="0,1"
       id="guide818"
       inkscape:locked="false" />
    <sodipodi:guide
       position="2.7595724,11.09577"
       orientation="1,0"
       id="guide820"
       inkscape:locked="false" />
    <sodipodi:guide
       position="3.6572659,10.942217"
       orientation="1,0"
       id="guide822"
       inkscape:locked="false" />
    <sodipodi:guide
       position="-0.051625511,9.7492299"
       orientation="1,0"
       id="guide1853"
       inkscape:locked="false" />
    <sodipodi:guide
       position="-2.3720169,3.0175835"
       orientation="0,1"
       id="guide1855"
       inkscape:locked="false" />
  </sodipodi:namedview>
  <metadata
     id="metadata1678">
    <rdf:RDF>
      <cc:Work
         rdf:about="">
        <dc:format>image/svg+xml</dc:format>
        <dc:type
           rdf:resource="http://purl.org/dc/dcmitype/StillImage" />
      </cc:Work>
    </rdf:RDF>
  </metadata>
  <g
     inkscape:label="Layer 1"
     inkscape:groupmode="layer"
     id="layer1"
     transform="translate(17.028496,-147.22856)">
    <path
       d="m -12.518215,149.25272 c -0.0025,-0.10495 -0.02792,-0.22771 -0.09538,-0.35347 -0.05198,-0.0969 -0.128177,-0.19344 -0.230116,-0.27466 -0.08801,-0.0701 -0.19659,-0.12957 -0.320466,-0.16144 -0.11297,-0.0291 -0.240073,-0.0354 -0.37055,-0.002 -0.05099,0.0109 -0.102205,0.0309 -0.149786,0.0558 -0.04513,0.0237 -0.08602,0.0513 -0.123859,0.0793 -0.03594,0.0266 -0.07123,0.0552 -0.102711,0.08 -0.03193,0.0251 -0.06099,0.0472 -0.09002,0.066 -0.0032,0.002 -0.0064,0.004 -0.0094,0.007 -0.368839,0.28232 -0.66994,0.63381 -0.911333,1.02199 -0.243952,0.3923 -0.423862,0.81705 -0.551911,1.23711 -0.04873,0.12769 -0.07493,0.26079 -0.08145,0.39098 -0.0037,0.073 -0.0012,0.14613 0.0074,0.21819 0.02473,0.20842 0.100596,0.41097 0.229685,0.57959 0.04529,0.0607 0.101221,0.1125 0.162963,0.15378 0.06155,0.0411 0.128994,0.0719 0.1991,0.0921 0.137809,0.0398 0.289744,0.04 0.431634,-0.006 0.255524,-0.0751 0.48269,-0.21349 0.683955,-0.38705 0.192929,-0.16637 0.361498,-0.36451 0.512649,-0.57137 0.151149,-0.21179 0.337311,-0.47136 0.459173,-0.75934 0.09746,-0.21478 0.192795,-0.46255 0.246958,-0.7226 0.0316,-0.15172 0.05,-0.31129 0.0457,-0.47477 -0.0027,-0.10113 -0.01403,-0.20502 -0.03699,-0.31038 -0.02388,-0.097 -0.05644,-0.1996 -0.104064,-0.29914 -0.04458,-0.0932 -0.104204,-0.18757 -0.185378,-0.26992 -0.03328,-0.0328 -0.07106,-0.0614 -0.112661,-0.0846 -0.04052,-0.0226 -0.08641,-0.041 -0.135471,-0.0511 -0.04832,-0.01 -0.101053,-0.0121 -0.154988,-2.9e-4 -0.05358,0.0117 -0.105765,0.0368 -0.151552,0.078 -0.05412,0.0504 -0.0964,0.10619 -0.130071,0.16611 -0.03305,0.0588 -0.05758,0.12113 -0.07573,0.18456 -0.03539,0.12369 -0.04692,0.25328 -0.04861,0.37216 -0.0023,0.0871 0.01481,0.16921 0.03015,0.23882 0.01586,0.072 0.02909,0.12824 0.03153,0.18517 1.71e-4,0.004 6.12e-4,0.008 0.0012,0.0119 0.04211,0.29605 0.100009,0.607 0.198246,0.90571 0.09738,0.2961 0.235397,0.58393 0.441437,0.83793 0.04283,0.0492 0.09014,0.10601 0.139548,0.15658 0.05039,0.0516 0.109925,0.10432 0.181708,0.14531 0.0054,0.003 0.01107,0.006 0.01684,0.008 0.0688,0.0277 0.140178,0.041 0.210729,0.0419 0.07037,8.9e-4 0.139691,-0.0106 0.205081,-0.032 0.130203,-0.0428 0.248053,-0.12645 0.330973,-0.23887 0.09808,-0.12257 0.165802,-0.26812 0.205908,-0.41832 0.03945,-0.14774 0.05251,-0.30107 0.04454,-0.449 0.01594,-0.2878 -0.0038,-0.58543 -0.07293,-0.87042 -0.0707,-0.29153 -0.193187,-0.57028 -0.382055,-0.81134 -0.187358,-0.24256 -0.443711,-0.40846 -0.710905,-0.50838 -0.340895,-0.15163 -0.711994,-0.19079 -1.064316,-0.14213 -0.362278,0.05 -0.706475,0.19311 -0.989315,0.40815 -0.408761,0.2715 -0.746328,0.61742 -1.015732,0.9965 -0.282512,0.39752 -0.492143,0.83411 -0.635029,1.27202 -0.107128,0.32464 -0.180614,0.65 -0.226409,0.96771 -0.04288,0.2975 -0.06324,0.60025 -0.06101,0.90466 -0.03279,0.28457 -0.0043,0.58736 0.09378,0.86601 0.04954,0.14073 0.117084,0.27592 0.204013,0.39934 0.08697,0.12349 0.193203,0.23497 0.319567,0.32793 0.140791,0.10488 0.302147,0.18352 0.47205,0.22892 0.171794,0.0459 0.352555,0.0579 0.530656,0.0291 0.257064,-0.0385 0.493697,-0.13129 0.708727,-0.24531 0.219695,-0.1165 0.423709,-0.25909 0.60774,-0.39529 0.0034,-0.003 0.0067,-0.005 0.0098,-0.008 0.40614,-0.35172 0.780925,-0.72949 1.105336,-1.1376 0.341188,-0.42922 0.620486,-0.88429 0.823146,-1.36832 0.199538,-0.47845 0.300487,-0.94853 0.333147,-1.3757 0.0076,-0.28582 -0.05006,-0.54134 -0.114007,-0.75062 -0.07532,-0.24652 -0.191154,-0.51937 -0.253553,-0.67158 a 0.16280565,0.16280565 90 0 0 -0.301276,0.12352 c 0.06559,0.15998 0.173469,0.41474 0.243084,0.64319 0.05863,0.1924 0.105839,0.41025 0.09976,0.63871 -0.03011,0.38629 -0.123924,0.82198 -0.309539,1.26602 -0.189522,0.45219 -0.452395,0.88147 -0.777708,1.29047 -0.308225,0.38752 -0.666524,0.74936 -1.058736,1.0893 -0.178732,0.13199 -0.365435,0.26139 -0.561287,0.36519 -0.192654,0.1021 -0.393367,0.17906 -0.605335,0.21087 -0.131034,0.0212 -0.264954,0.013 -0.395186,-0.0217 -0.128977,-0.0344 -0.252676,-0.0944 -0.361535,-0.17529 -0.09674,-0.0711 -0.178581,-0.15643 -0.246652,-0.25292 -0.06816,-0.0966 -0.122529,-0.20442 -0.163087,-0.31927 -0.0817,-0.23135 -0.10596,-0.48726 -0.07717,-0.7286 8.33e-4,-0.007 0.0012,-0.014 0.0012,-0.0211 -0.003,-0.29166 0.01587,-0.58146 0.05639,-0.86583 0.04279,-0.30026 0.111518,-0.60714 0.21176,-0.91327 0.133294,-0.41067 0.328281,-0.81777 0.589462,-1.18675 0.249853,-0.35297 0.560741,-0.67149 0.934101,-0.91984 0.003,-0.002 0.006,-0.004 0.0089,-0.006 0.238798,-0.18374 0.532754,-0.30799 0.843604,-0.35194 0.301147,-0.0426 0.614641,-0.009 0.897977,0.11674 0.0033,0.001 0.0066,0.003 0.01,0.004 0.225069,0.0811 0.434405,0.21587 0.583558,0.40526 0.159049,0.20115 0.266209,0.43848 0.329659,0.69496 0.06282,0.25392 0.0823,0.52427 0.06817,0.79058 -3.15e-4,0.006 -3.35e-4,0.0119 7.9e-5,0.0178 0.0085,0.12242 -8.58e-4,0.2473 -0.03106,0.36497 -0.02999,0.11682 -0.08013,0.22526 -0.152449,0.31763 -0.04911,0.0682 -0.116291,0.11765 -0.191097,0.14333 -0.03706,0.0127 -0.07512,0.0193 -0.112466,0.0193 -0.03458,3e-5 -0.06872,-0.006 -0.101467,-0.0172 -0.03776,-0.0219 -0.07457,-0.0523 -0.113219,-0.0903 -0.04305,-0.0423 -0.08201,-0.0876 -0.128003,-0.13832 -0.176807,-0.21631 -0.30239,-0.47218 -0.393456,-0.74536 -0.09171,-0.2751 -0.147944,-0.56641 -0.190149,-0.85401 -0.0058,-0.0824 -0.02621,-0.16136 -0.04069,-0.22248 -0.01641,-0.0693 -0.02735,-0.12312 -0.02677,-0.17628 5.53e-4,-0.10766 0.01003,-0.21242 0.03606,-0.30632 0.01317,-0.0475 0.03025,-0.091 0.05167,-0.12985 0.02169,-0.0393 0.04784,-0.0739 0.07917,-0.10355 0.0099,-0.009 0.02156,-0.0149 0.03405,-0.0179 0.0135,-0.003 0.03056,-0.004 0.05028,2.7e-4 0.02045,0.004 0.04231,0.012 0.06372,0.0237 0.0219,0.0119 0.04162,0.0267 0.05761,0.0422 0.05609,0.0564 0.101287,0.1257 0.137177,0.20027 0.03836,0.0797 0.06591,0.16497 0.0862,0.24757 0.01853,0.0854 0.0282,0.17362 0.03039,0.26051 0.0035,0.1406 -0.01247,0.28053 -0.04123,0.41706 -0.04948,0.23486 -0.137573,0.46357 -0.233126,0.67186 -0.112174,0.25977 -0.283271,0.49455 -0.439255,0.70726 -0.144912,0.19515 -0.301545,0.37502 -0.475305,0.52227 -0.180675,0.15312 -0.375597,0.26725 -0.58931,0.32807 -0.0913,0.0275 -0.186841,0.0257 -0.272838,-8.6e-4 -0.04339,-0.0134 -0.0839,-0.0329 -0.119844,-0.0579 -0.03597,-0.0249 -0.06744,-0.0553 -0.09306,-0.0907 -0.09481,-0.12621 -0.152155,-0.27932 -0.170494,-0.44169 -0.0063,-0.0559 -0.008,-0.11279 -0.0049,-0.16964 0.0056,-0.10301 0.02689,-0.20721 0.06531,-0.3057 0.0013,-0.003 0.0025,-0.007 0.0036,-0.0103 0.122552,-0.40166 0.293528,-0.80391 0.522847,-1.17232 0.224895,-0.3613 0.501833,-0.6835 0.836449,-0.94059 0.039,-0.0256 0.07505,-0.0534 0.107019,-0.0786 0.03621,-0.0286 0.06443,-0.0517 0.0957,-0.0749 0.03089,-0.023 0.05853,-0.0413 0.08557,-0.0555 0.02788,-0.0147 0.05409,-0.0246 0.08029,-0.0303 0.08237,-0.0209 0.159461,-0.0178 0.23119,5.2e-4 0.07923,0.0203 0.151391,0.059 0.211554,0.10678 0.0695,0.0552 0.120814,0.12044 0.15516,0.18428 0.04422,0.0822 0.05953,0.15959 0.06104,0.22272 a 0.14543971,0.14543971 90 0 0 0.290796,-0.007 z"
       id="path-1"
       inkscape:path-effect="#path-effect156;#path-effect158"
       inkscape:original-d="m -12.663613,149.25621 c -0.02466,-0.54458 -0.695297,-0.90424 -1.113993,-0.49421 -0.784179,0.52829 -1.288473,1.40389 -1.557949,2.29318 -0.229644,0.55216 0.07081,1.4727 0.80413,1.24082 0.636949,-0.20373 1.053992,-0.80301 1.402994,-1.34091 0.349697,-0.64581 0.670408,-1.53907 0.171686,-2.19316 -0.500027,-0.48335 -0.727745,0.42371 -0.581239,0.80252 0.09345,0.74977 0.277216,1.59627 0.893704,2.09201 0.544343,0.21052 0.864982,-0.46626 0.819182,-0.91892 0.05959,-0.79613 -0.201726,-1.75921 -1.028639,-2.06254 -0.636578,-0.30137 -1.393398,-0.18802 -1.947062,0.23083 -1.305504,0.87312 -1.882796,2.49838 -1.867069,4.01998 -0.07119,0.60316 0.155336,1.27472 0.726127,1.55843 0.666446,0.36467 1.414322,-0.0884 1.949172,-0.4888 1.050385,-0.90688 1.985439,-2.0931 2.176549,-3.50808 0.114807,-0.56217 -0.116625,-1.10175 -0.325552,-1.60975"
       style="fill:#000000;fill-rule:nonzero;stroke:none;stroke-width:1.34414" />
  </g>
</svg>
