<?xml version="1.0" encoding="UTF-8" standalone="no"?>
<!-- Created with Inkscape (http://www.inkscape.org/) -->

<svg
   width="5mm"
   height="10mm"
   viewBox="0 0 5.0000001 9.9999994"
   version="1.1"
   id="svg1681"
   inkscape:version="1.2.1 (9c6d41e410, 2022-07-14)"
   sodipodi:docname="at_symbol_12.svg"
   inkscape:export-filename="..\..\..\..\Downloads\lower a diff canvas resize 3.0.png"
   inkscape:export-xdpi="96"
   inkscape:export-ydpi="96"
   xmlns:inkscape="http://www.inkscape.org/namespaces/inkscape"
   xmlns:sodipodi="http://sodipodi.sourceforge.net/DTD/sodipodi-0.dtd"
   xmlns="http://www.w3.org/2000/svg"
   xmlns:svg="http://www.w3.org/2000/svg"
   xmlns:rdf="http://www.w3.org/1999/02/22-rdf-syntax-ns#"
   xmlns:cc="http://creativecommons.org/ns#"
   xmlns:dc="http://purl.org/dc/elements/1.1/">
  <defs
     id="defs1675">
    <inkscape:path-effect
       effect="powerstroke"
       id="path-effect162"
       is_visible="true"
       lpeversion="1"
       offset_points="3.1582327,0.13657049 | 4.5293525,0.12005499 | 8.2039106,0.089564831 | 17.127514,0.16579021"
       not_jump="true"
       sort_points="true"
       interpolator_type="CentripetalCatmullRom"
       interpolator_beta="0.75"
       start_linecap_type="round"
       linejoin_type="spiro"
       miter_limit="4"
       scale_width="1"
       end_linecap_type="round" />
    <inkscape:path-effect
       effect="simplify"
       id="path-effect160"
       is_visible="true"
       lpeversion="1"
       steps="1"
       threshold="0.0035951417"
       smooth_angles="0"
       helper_size="0"
       simplify_individual_paths="false"
       simplify_just_coalesce="false"
       step="1" />
    <inkscape:path-effect
       effect="powerstroke"
       id="path-effect155"
       is_visible="true"
       lpeversion="1"
       offset_points="3.7495768,0.096898253 | 7.0766853,0.073995029 | 18.548553,0.12259097"
       not_jump="true"
       sort_points="true"
       interpolator_type="CentripetalCatmullRom"
       interpolator_beta="0.75"
       start_linecap_type="round"
       linejoin_type="spiro"
       miter_limit="4"
       scale_width="1"
       end_linecap_type="round" />
    <inkscape:path-effect
       effect="simplify"
       id="path-effect153"
       is_visible="true"
       lpeversion="1"
       steps="1"
       threshold="0.0035951417"
       smooth_angles="0"
       helper_size="0"
       simplify_individual_paths="false"
       simplify_just_coalesce="false"
       step="1" />
    <inkscape:path-effect
       effect="powerstroke"
       id="path-effect280"
       is_visible="true"
       lpeversion="1"
       offset_points="3.3579045,0.17421953 | 18.822375,0.22347967"
       not_jump="true"
       sort_points="true"
       interpolator_type="CentripetalCatmullRom"
       interpolator_beta="0.75"
       start_linecap_type="round"
       linejoin_type="spiro"
       miter_limit="4"
       scale_width="1"
       end_linecap_type="round" />
    <inkscape:path-effect
       effect="simplify"
       id="path-effect278"
       is_visible="true"
       lpeversion="1"
       steps="1"
       threshold="0.0035951417"
       smooth_angles="0"
       helper_size="0"
       simplify_individual_paths="false"
       simplify_just_coalesce="false"
       step="1" />
    <inkscape:path-effect
       effect="powerstroke"
       id="path-effect273"
       is_visible="true"
       lpeversion="1"
       offset_points="2.7597594,0.083244408 | 16.82786,0.10893713 | 21.189661,0.094255573"
       not_jump="true"
       sort_points="true"
       interpolator_type="CentripetalCatmullRom"
       interpolator_beta="0.75"
       start_linecap_type="round"
       linejoin_type="spiro"
       miter_limit="4"
       scale_width="1"
       end_linecap_type="round" />
    <inkscape:path-effect
       effect="simplify"
       id="path-effect271"
       is_visible="true"
       lpeversion="1"
       steps="1"
       threshold="0.0035951417"
       smooth_angles="0"
       helper_size="0"
       simplify_individual_paths="false"
       simplify_just_coalesce="false"
       step="1" />
    <inkscape:path-effect
       effect="powerstroke"
       id="path-effect502"
       is_visible="true"
       lpeversion="1"
       offset_points="3.0091841,0.21607495 | 7.3602657,0.17554228 | 9.4159651,0.20236537"
       not_jump="true"
       sort_points="true"
       interpolator_type="CentripetalCatmullRom"
       interpolator_beta="0.75"
       start_linecap_type="round"
       linejoin_type="spiro"
       miter_limit="4"
       scale_width="1"
       end_linecap_type="round" />
    <inkscape:path-effect
       effect="simplify"
       id="path-effect500"
       is_visible="true"
       lpeversion="1"
       steps="1"
       threshold="0.0035951417"
       smooth_angles="0"
       helper_size="0"
       simplify_individual_paths="false"
       simplify_just_coalesce="false"
       step="1" />
    <inkscape:path-effect
       effect="powerstroke"
       id="path-effect241"
       is_visible="true"
       lpeversion="1"
       offset_points="2.6879454,0.34086734"
       not_jump="true"
       sort_points="true"
       interpolator_type="CentripetalCatmullRom"
       interpolator_beta="0.75"
       start_linecap_type="round"
       linejoin_type="spiro"
       miter_limit="4"
       scale_width="1"
       end_linecap_type="round" />
    <inkscape:path-effect
       effect="simplify"
       id="path-effect239"
       is_visible="true"
       lpeversion="1"
       steps="1"
       threshold="0.0028332064"
       smooth_angles="0"
       helper_size="0"
       simplify_individual_paths="false"
       simplify_just_coalesce="false"
       step="1" />
    <inkscape:path-effect
       effect="powerstroke"
       id="path-effect234"
       is_visible="true"
       lpeversion="1"
       offset_points="2.13563,0.075169555"
       not_jump="true"
       sort_points="true"
       interpolator_type="CentripetalCatmullRom"
       interpolator_beta="0.75"
       start_linecap_type="round"
       linejoin_type="spiro"
       miter_limit="4"
       scale_width="1"
       end_linecap_type="round" />
    <inkscape:path-effect
       effect="simplify"
       id="path-effect232"
       is_visible="true"
       lpeversion="1"
       steps="1"
       threshold="0.0028332064"
       smooth_angles="0"
       helper_size="0"
       simplify_individual_paths="false"
       simplify_just_coalesce="false"
       step="1" />
    <inkscape:path-effect
       effect="powerstroke"
       id="path-effect227"
       is_visible="true"
       lpeversion="1"
       offset_points="2.1868266,0.075169555"
       not_jump="true"
       sort_points="true"
       interpolator_type="CentripetalCatmullRom"
       interpolator_beta="0.75"
       start_linecap_type="round"
       linejoin_type="spiro"
       miter_limit="4"
       scale_width="1"
       end_linecap_type="round" />
    <inkscape:path-effect
       effect="simplify"
       id="path-effect225"
       is_visible="true"
       lpeversion="1"
       steps="1"
       threshold="0.0028332064"
       smooth_angles="0"
       helper_size="0"
       simplify_individual_paths="false"
       simplify_just_coalesce="false"
       step="1" />
    <inkscape:path-effect
       effect="powerstroke"
       id="path-effect166"
       is_visible="true"
       lpeversion="1"
       offset_points="1.9637935,0.075169555"
       not_jump="true"
       sort_points="true"
       interpolator_type="CentripetalCatmullRom"
       interpolator_beta="0.75"
       start_linecap_type="round"
       linejoin_type="spiro"
       miter_limit="4"
       scale_width="1"
       end_linecap_type="round" />
    <inkscape:path-effect
       effect="simplify"
       id="path-effect164"
       is_visible="true"
       lpeversion="1"
       steps="1"
       threshold="0.0028332064"
       smooth_angles="0"
       helper_size="0"
       simplify_individual_paths="false"
       simplify_just_coalesce="false"
       step="1" />
    <inkscape:path-effect
       effect="powerstroke"
       id="path-effect159"
       is_visible="true"
       lpeversion="1"
       offset_points="2.2611036,0.075169555"
       not_jump="true"
       sort_points="true"
       interpolator_type="CentripetalCatmullRom"
       interpolator_beta="0.75"
       start_linecap_type="round"
       linejoin_type="spiro"
       miter_limit="4"
       scale_width="1"
       end_linecap_type="round" />
    <inkscape:path-effect
       effect="simplify"
       id="path-effect157"
       is_visible="true"
       lpeversion="1"
       steps="1"
       threshold="0.0028332064"
       smooth_angles="0"
       helper_size="0"
       simplify_individual_paths="false"
       simplify_just_coalesce="false"
       step="1" />
    <inkscape:path-effect
       effect="powerstroke"
       id="path-effect152"
       is_visible="true"
       lpeversion="1"
       offset_points="2.826981,0.075169555"
       not_jump="true"
       sort_points="true"
       interpolator_type="CentripetalCatmullRom"
       interpolator_beta="0.75"
       start_linecap_type="round"
       linejoin_type="spiro"
       miter_limit="4"
       scale_width="1"
       end_linecap_type="round" />
    <inkscape:path-effect
       effect="simplify"
       id="path-effect150"
       is_visible="true"
       lpeversion="1"
       steps="1"
       threshold="0.0028332064"
       smooth_angles="0"
       helper_size="0"
       simplify_individual_paths="false"
       simplify_just_coalesce="false"
       step="1" />
    <inkscape:path-effect
       effect="powerstroke"
       id="path-effect145"
       is_visible="true"
       lpeversion="1"
       offset_points="3.8374447,0.075169555"
       not_jump="true"
       sort_points="true"
       interpolator_type="CentripetalCatmullRom"
       interpolator_beta="0.75"
       start_linecap_type="round"
       linejoin_type="spiro"
       miter_limit="4"
       scale_width="1"
       end_linecap_type="round" />
    <inkscape:path-effect
       effect="simplify"
       id="path-effect143"
       is_visible="true"
       lpeversion="1"
       steps="1"
       threshold="0.0028332064"
       smooth_angles="0"
       helper_size="0"
       simplify_individual_paths="false"
       simplify_just_coalesce="false"
       step="1" />
    <inkscape:path-effect
       effect="powerstroke"
       id="path-effect138"
       is_visible="true"
       lpeversion="1"
       offset_points="2.6880907,0.075169555"
       not_jump="true"
       sort_points="true"
       interpolator_type="CentripetalCatmullRom"
       interpolator_beta="0.75"
       start_linecap_type="round"
       linejoin_type="spiro"
       miter_limit="4"
       scale_width="1"
       end_linecap_type="round" />
    <inkscape:path-effect
       effect="simplify"
       id="path-effect136"
       is_visible="true"
       lpeversion="1"
       steps="1"
       threshold="0.0028332064"
       smooth_angles="0"
       helper_size="0"
       simplify_individual_paths="false"
       simplify_just_coalesce="false"
       step="1" />
    <inkscape:path-effect
       effect="powerstroke"
       id="path-effect131"
       is_visible="true"
       lpeversion="1"
       offset_points="1.9940581,0.075169555"
       not_jump="true"
       sort_points="true"
       interpolator_type="CentripetalCatmullRom"
       interpolator_beta="0.75"
       start_linecap_type="round"
       linejoin_type="spiro"
       miter_limit="4"
       scale_width="1"
       end_linecap_type="round" />
    <inkscape:path-effect
       effect="simplify"
       id="path-effect129"
       is_visible="true"
       lpeversion="1"
       steps="1"
       threshold="0.0028332064"
       smooth_angles="0"
       helper_size="0"
       simplify_individual_paths="false"
       simplify_just_coalesce="false"
       step="1" />
  </defs>
  <sodipodi:namedview
     id="base"
     pagecolor="#ffffff"
     bordercolor="#666666"
     borderopacity="1.0"
     inkscape:pageopacity="0.0"
     inkscape:pageshadow="2"
     inkscape:zoom="7.919596"
     inkscape:cx="-5.3033008"
     inkscape:cy="20.834396"
     inkscape:document-units="mm"
     inkscape:current-layer="layer1"
     showgrid="false"
     fit-margin-top="0"
     fit-margin-left="0"
     fit-margin-right="0"
     fit-margin-bottom="0"
     inkscape:window-width="1920"
     inkscape:window-height="974"
     inkscape:window-x="-11"
     inkscape:window-y="2889"
     inkscape:window-maximized="1"
     showguides="true"
     inkscape:guide-bbox="true"
     inkscape:snap-bbox="true"
     inkscape:bbox-nodes="true"
     inkscape:snap-nodes="false"
     inkscape:snap-others="false"
     inkscape:snap-page="true"
     inkscape:snap-grids="false"
     inkscape:snap-to-guides="false"
     inkscape:snap-global="false"
     inkscape:pagecheckerboard="0"
     inkscape:showpageshadow="2"
     inkscape:deskcolor="#d1d1d1">
    <sodipodi:guide
       position="-6.1806075,9.4988692"
       orientation="0,1"
       id="guide816"
       inkscape:locked="false" />
    <sodipodi:guide
       position="-4.4101636,10.646923"
       orientation="0,1"
       id="guide818"
       inkscape:locked="false" />
    <sodipodi:guide
       position="2.7595724,11.09577"
       orientation="1,0"
       id="guide820"
       inkscape:locked="false" />
    <sodipodi:guide
       position="3.6572659,10.942217"
       orientation="1,0"
       id="guide822"
       inkscape:locked="false" />
    <sodipodi:guide
       position="-0.051625511,9.7492299"
       orientation="1,0"
       id="guide1853"
       inkscape:locked="false" />
    <sodipodi:guide
       position="-2.3720169,3.0175835"
       orientation="0,1"
       id="guide1855"
       inkscape:locked="false" />
  </sodipodi:namedview>
  <metadata
     id="metadata1678">
    <rdf:RDF>
      <cc:Work
         rdf:about="">
        <dc:format>image/svg+xml</dc:format>
        <dc:type
           rdf:resource="http://purl.org/dc/dcmitype/StillImage" />
      </cc:Work>
    </rdf:RDF>
  </metadata>
  <g
     inkscape:label="Layer 1"
     inkscape:groupmode="layer"
     id="layer1"
     transform="translate(17.028496,-147.22856)">
    <path
       d="m -14.47439,149.55275 c -0.01297,-0.0558 -0.03729,-0.12306 -0.08326,-0.19233 -0.03442,-0.0519 -0.0795,-0.10255 -0.136529,-0.14805 -0.09406,-0.0751 -0.219202,-0.13385 -0.359771,-0.15329 -0.271788,-0.0405 -0.553698,-0.002 -0.81963,0.1043 -0.256985,0.10277 -0.490175,0.26553 -0.675871,0.46511 -0.236077,0.24949 -0.407129,0.55136 -0.500542,0.86062 -0.107498,0.35588 -0.107222,0.70048 -0.02459,1.00297 0.01521,0.0548 0.03254,0.10594 0.05128,0.15355 0.04783,0.12151 0.106915,0.22541 0.171207,0.31166 0.05493,0.0737 0.116076,0.13778 0.182429,0.19168 0.06841,0.0556 0.146108,0.10336 0.233453,0.13899 0.126823,0.0537 0.26898,0.0857 0.421135,0.0902 0.131199,0.004 0.274223,-0.0128 0.421279,-0.0573 0.01581,-0.005 0.03169,-0.01 0.04762,-0.0154 0.237916,-0.0816 0.473108,-0.2358 0.640391,-0.46184 0.08386,-0.11468 0.142167,-0.24645 0.178815,-0.38947 0.0338,-0.1319 0.04861,-0.27115 0.04935,-0.41148 -0.0092,-0.41781 -0.128231,-0.85023 -0.353743,-1.24941 -0.01368,-0.0206 -0.02782,-0.0428 -0.04522,-0.0693 -0.01649,-0.0251 -0.03583,-0.054 -0.05556,-0.0807 -0.0098,-0.0132 -0.02005,-0.0264 -0.03052,-0.0387 -0.01023,-0.012 -0.02154,-0.0243 -0.03353,-0.0351 -0.006,-0.005 -0.01271,-0.011 -0.01999,-0.0162 -0.0072,-0.005 -0.01581,-0.0105 -0.02578,-0.015 -0.0098,-0.004 -0.02263,-0.009 -0.03771,-0.0105 -0.01552,-0.002 -0.03325,-2.4e-4 -0.05118,0.007 -0.0087,0.003 -0.01749,0.007 -0.02541,0.0121 -0.0079,0.005 -0.01496,0.0116 -0.02016,0.0194 -0.0052,0.008 -0.0085,0.0168 -0.01002,0.0261 -0.0016,0.009 -0.0014,0.0187 -0.0012,0.0281 0.0035,0.13649 0.01916,0.27157 0.04562,0.40501 0.03716,0.1874 0.09589,0.37358 0.173576,0.55844 0.123508,0.2939 0.291918,0.57741 0.487929,0.85026 0.189795,0.26657 0.397929,0.51924 0.629332,0.79017 0.06725,0.0768 0.160094,0.1276 0.26021,0.14378 0.04908,0.008 0.100618,0.008 0.151669,-0.003 0.05051,-0.0105 0.100413,-0.0311 0.146041,-0.0633 0.129288,-0.0892 0.227263,-0.21879 0.287878,-0.36429 0.05947,-0.14276 0.08393,-0.30327 0.0657,-0.45931 -0.01469,-0.094 -0.02228,-0.18161 -0.03268,-0.27862 -0.01006,-0.0938 -0.02252,-0.19356 -0.04625,-0.29334 -0.08343,-0.38172 -0.234826,-0.76116 -0.451991,-1.09734 -0.218106,-0.33762 -0.502823,-0.63197 -0.852537,-0.8443 -0.261181,-0.17772 -0.590059,-0.2543 -0.904639,-0.20763 -0.260322,0.0381 -0.497095,0.14263 -0.702746,0.28197 -0.210979,0.14296 -0.391625,0.32405 -0.537768,0.51508 -0.435325,0.54039 -0.699205,1.19376 -0.795612,1.85519 -0.10085,0.69192 -0.01872,1.39124 0.235752,2.01092 0.04093,0.0915 0.08545,0.17496 0.134803,0.25459 0.143153,0.23097 0.332904,0.43969 0.557927,0.60622 0.294161,0.2177 0.651225,0.3648 1.037138,0.38649 0.132265,0.008 0.26235,-0.003 0.388278,-0.0239 0.124846,-0.0209 0.246256,-0.0521 0.361617,-0.0855 0.284294,-0.0939 0.521312,-0.25669 0.716523,-0.45356 0.198015,-0.1997 0.354549,-0.43589 0.471098,-0.67561 0.209308,-0.43296 0.313779,-0.90212 0.390222,-1.31381 0.101881,-0.58536 0.124232,-1.14398 0.11272,-1.63107 -2.31e-4,-0.01 -0.0013,-0.0196 -0.0032,-0.0291 -0.0283,-0.13931 -0.07928,-0.27148 -0.116899,-0.3677 -0.05716,-0.14619 -0.08848,-0.22363 -0.114961,-0.32035 a 0.16579021,0.16579021 90 0 0 -0.319808,0.0876 c 0.03212,0.1173 0.07002,0.21132 0.124868,0.35326 0.03619,0.0936 0.07442,0.19602 0.09634,0.29886 0.0093,0.4678 -0.01414,0.99817 -0.110918,1.54857 -0.07604,0.40467 -0.174906,0.83617 -0.363654,1.22564 -0.103212,0.21184 -0.239555,0.4157 -0.407028,0.58454 -0.164672,0.16602 -0.357277,0.29604 -0.57597,0.36856 -0.103232,0.0299 -0.2107,0.0575 -0.317439,0.0758 -0.107237,0.0184 -0.211208,0.0268 -0.312809,0.0214 -0.312219,-0.0169 -0.608315,-0.1358 -0.857568,-0.31904 -0.190786,-0.14025 -0.352626,-0.31686 -0.474943,-0.51237 -0.04208,-0.0673 -0.07996,-0.13751 -0.112926,-0.21018 -0.230251,-0.55701 -0.308485,-1.1965 -0.217789,-1.8338 0.08656,-0.60829 0.327502,-1.20934 0.724581,-1.70648 0.129711,-0.17352 0.284694,-0.33176 0.462225,-0.45544 0.172677,-0.1203 0.365311,-0.20718 0.574043,-0.24071 0.238861,-0.0411 0.496299,0.0104 0.709614,0.14747 0.316123,0.18816 0.574841,0.44867 0.776929,0.75506 0.201341,0.30527 0.344742,0.65359 0.426527,1.01086 0.02404,0.0865 0.03859,0.17249 0.05204,0.26421 0.01327,0.0905 0.02563,0.18785 0.04435,0.28326 0.01561,0.10839 9.32e-4,0.22976 -0.04156,0.33962 -0.04297,0.1111 -0.113508,0.20776 -0.204614,0.27405 -0.02096,0.0163 -0.04302,0.0269 -0.06668,0.033 -0.02409,0.006 -0.04997,0.008 -0.07617,0.005 -0.05427,-0.006 -0.105884,-0.0321 -0.142575,-0.0709 -0.233026,-0.26412 -0.440672,-0.50961 -0.627853,-0.76724 -0.191531,-0.2638 -0.353407,-0.5348 -0.471017,-0.81288 -0.07391,-0.17474 -0.129024,-0.34923 -0.163587,-0.52343 -0.02461,-0.12402 -0.03901,-0.24893 -0.04204,-0.3746 l -0.05676,0.0857 c -0.01256,0.005 -0.0245,0.006 -0.03387,0.005 -0.0089,-9.3e-4 -0.01514,-0.003 -0.01811,-0.005 -0.0033,-0.001 -0.0043,-0.002 -0.0042,-0.002 0.0072,0.007 0.0127,0.0127 0.01963,0.0212 0.0069,0.008 0.01428,0.0184 0.0221,0.0295 0.01592,0.0226 0.03221,0.0482 0.04727,0.0728 0.01531,0.025 0.0289,0.0482 0.0401,0.0667 0.204132,0.37117 0.307059,0.77378 0.308881,1.15264 -0.0043,0.12355 -0.02136,0.2445 -0.05339,0.35502 -0.03463,0.11949 -0.0855,0.22263 -0.152518,0.30853 -0.139063,0.18186 -0.334727,0.30692 -0.533453,0.37213 -0.01322,0.004 -0.02639,0.008 -0.03948,0.0122 -0.121922,0.0351 -0.23872,0.0466 -0.343779,0.0417 -0.121712,-0.006 -0.232688,-0.0333 -0.330388,-0.0769 -0.06237,-0.0278 -0.117212,-0.0639 -0.166085,-0.10624 -0.04745,-0.0411 -0.09236,-0.0906 -0.133647,-0.14884 -0.04832,-0.0682 -0.09445,-0.15225 -0.132482,-0.25267 -0.0149,-0.0393 -0.02879,-0.0818 -0.04094,-0.12715 -0.06738,-0.25098 -0.06862,-0.54271 0.02479,-0.85051 0.08146,-0.26844 0.230888,-0.53231 0.437725,-0.75099 0.159485,-0.17149 0.3587,-0.31052 0.576415,-0.39791 0.224731,-0.0902 0.457212,-0.12086 0.677777,-0.0884 0.09123,0.0122 0.170236,0.0494 0.227967,0.095 0.03453,0.0273 0.06048,0.0566 0.07949,0.085 0.02523,0.0377 0.03813,0.0734 0.0449,0.10256 a 0.13657049,0.13657049 90 0 0 0.26605,-0.0618 z"
       id="path-1"
       inkscape:path-effect="#path-effect160;#path-effect162"
       inkscape:original-d="m -14.607415,149.58367 c -0.139006,-0.5048 -0.817112,-0.44849 -1.20259,-0.29683 -0.961256,0.37207 -1.547778,1.69764 -0.936124,2.59128 0.523777,0.72208 1.776045,0.33007 1.925231,-0.50819 0.16049,-0.59103 -0.189402,-1.51512 -0.477595,-1.77449 0.01723,0.9629 0.642267,1.776 1.244115,2.47381 0.4075,0.56133 0.919369,-0.17839 0.783018,-0.64336 -0.07017,-0.98973 -0.605578,-2.02503 -1.534005,-2.45317 -0.640827,-0.25376 -1.306702,0.12479 -1.697085,0.62889 -0.847813,1.01393 -1.07711,2.51504 -0.580924,3.73729 0.33664,0.77074 1.200447,1.33372 2.05109,1.11407 0.808261,-0.13138 1.302788,-0.87433 1.515191,-1.60812 0.232078,-0.75989 0.310269,-1.56719 0.292277,-2.35739 -0.04723,-0.23487 -0.16499,-0.4471 -0.227997,-0.67719"
       style="fill:#000000;fill-rule:nonzero;stroke:none;stroke-width:1.4422" />
  </g>
</svg>
