<?xml version="1.0" encoding="UTF-8" standalone="no"?>
<!-- Created with Inkscape (http://www.inkscape.org/) -->

<svg
   width="5mm"
   height="10mm"
   viewBox="0 0 5.0000001 9.9999994"
   version="1.1"
   id="svg1681"
   inkscape:version="1.2.1 (9c6d41e410, 2022-07-14)"
   sodipodi:docname="at_symbol_112.svg"
   inkscape:export-filename="..\..\..\..\Downloads\lower a diff canvas resize 3.0.png"
   inkscape:export-xdpi="96"
   inkscape:export-ydpi="96"
   xmlns:inkscape="http://www.inkscape.org/namespaces/inkscape"
   xmlns:sodipodi="http://sodipodi.sourceforge.net/DTD/sodipodi-0.dtd"
   xmlns="http://www.w3.org/2000/svg"
   xmlns:svg="http://www.w3.org/2000/svg"
   xmlns:rdf="http://www.w3.org/1999/02/22-rdf-syntax-ns#"
   xmlns:cc="http://creativecommons.org/ns#"
   xmlns:dc="http://purl.org/dc/elements/1.1/">
  <defs
     id="defs1675">
    <inkscape:path-effect
       effect="powerstroke"
       id="path-effect153"
       is_visible="true"
       lpeversion="1"
       offset_points="3.3308848,0.13080024 | 5.9706296,0.11107488 | 6.624158,0.12831063 | 20.005852,0.17618773"
       not_jump="true"
       sort_points="true"
       interpolator_type="CentripetalCatmullRom"
       interpolator_beta="0.75"
       start_linecap_type="round"
       linejoin_type="spiro"
       miter_limit="4"
       scale_width="1"
       end_linecap_type="round" />
    <inkscape:path-effect
       effect="simplify"
       id="path-effect151"
       is_visible="true"
       lpeversion="1"
       steps="1"
       threshold="0.0035951417"
       smooth_angles="0"
       helper_size="0"
       simplify_individual_paths="false"
       simplify_just_coalesce="false"
       step="1" />
    <inkscape:path-effect
       effect="powerstroke"
       id="path-effect1482"
       is_visible="true"
       lpeversion="1"
       offset_points="3.7088798,0.16303938 | 6.5700881,0.14748794 | 7.7997513,0.166551 | 18.340411,0.14548129 | 22.036374,0.17909248"
       not_jump="true"
       sort_points="true"
       interpolator_type="CentripetalCatmullRom"
       interpolator_beta="0.75"
       start_linecap_type="round"
       linejoin_type="spiro"
       miter_limit="4"
       scale_width="1"
       end_linecap_type="round" />
    <inkscape:path-effect
       effect="simplify"
       id="path-effect1480"
       is_visible="true"
       lpeversion="1"
       steps="1"
       threshold="0.0035951417"
       smooth_angles="0"
       helper_size="0"
       simplify_individual_paths="false"
       simplify_just_coalesce="false"
       step="1" />
    <inkscape:path-effect
       effect="powerstroke"
       id="path-effect502"
       is_visible="true"
       lpeversion="1"
       offset_points="3.0091841,0.21607495 | 7.3602657,0.17554228 | 9.4159651,0.20236537"
       not_jump="true"
       sort_points="true"
       interpolator_type="CentripetalCatmullRom"
       interpolator_beta="0.75"
       start_linecap_type="round"
       linejoin_type="spiro"
       miter_limit="4"
       scale_width="1"
       end_linecap_type="round" />
    <inkscape:path-effect
       effect="simplify"
       id="path-effect500"
       is_visible="true"
       lpeversion="1"
       steps="1"
       threshold="0.0035951417"
       smooth_angles="0"
       helper_size="0"
       simplify_individual_paths="false"
       simplify_just_coalesce="false"
       step="1" />
    <inkscape:path-effect
       effect="powerstroke"
       id="path-effect241"
       is_visible="true"
       lpeversion="1"
       offset_points="2.6879454,0.34086734"
       not_jump="true"
       sort_points="true"
       interpolator_type="CentripetalCatmullRom"
       interpolator_beta="0.75"
       start_linecap_type="round"
       linejoin_type="spiro"
       miter_limit="4"
       scale_width="1"
       end_linecap_type="round" />
    <inkscape:path-effect
       effect="simplify"
       id="path-effect239"
       is_visible="true"
       lpeversion="1"
       steps="1"
       threshold="0.0028332064"
       smooth_angles="0"
       helper_size="0"
       simplify_individual_paths="false"
       simplify_just_coalesce="false"
       step="1" />
    <inkscape:path-effect
       effect="powerstroke"
       id="path-effect234"
       is_visible="true"
       lpeversion="1"
       offset_points="2.13563,0.075169555"
       not_jump="true"
       sort_points="true"
       interpolator_type="CentripetalCatmullRom"
       interpolator_beta="0.75"
       start_linecap_type="round"
       linejoin_type="spiro"
       miter_limit="4"
       scale_width="1"
       end_linecap_type="round" />
    <inkscape:path-effect
       effect="simplify"
       id="path-effect232"
       is_visible="true"
       lpeversion="1"
       steps="1"
       threshold="0.0028332064"
       smooth_angles="0"
       helper_size="0"
       simplify_individual_paths="false"
       simplify_just_coalesce="false"
       step="1" />
    <inkscape:path-effect
       effect="powerstroke"
       id="path-effect227"
       is_visible="true"
       lpeversion="1"
       offset_points="2.1868266,0.075169555"
       not_jump="true"
       sort_points="true"
       interpolator_type="CentripetalCatmullRom"
       interpolator_beta="0.75"
       start_linecap_type="round"
       linejoin_type="spiro"
       miter_limit="4"
       scale_width="1"
       end_linecap_type="round" />
    <inkscape:path-effect
       effect="simplify"
       id="path-effect225"
       is_visible="true"
       lpeversion="1"
       steps="1"
       threshold="0.0028332064"
       smooth_angles="0"
       helper_size="0"
       simplify_individual_paths="false"
       simplify_just_coalesce="false"
       step="1" />
    <inkscape:path-effect
       effect="powerstroke"
       id="path-effect166"
       is_visible="true"
       lpeversion="1"
       offset_points="1.9637935,0.075169555"
       not_jump="true"
       sort_points="true"
       interpolator_type="CentripetalCatmullRom"
       interpolator_beta="0.75"
       start_linecap_type="round"
       linejoin_type="spiro"
       miter_limit="4"
       scale_width="1"
       end_linecap_type="round" />
    <inkscape:path-effect
       effect="simplify"
       id="path-effect164"
       is_visible="true"
       lpeversion="1"
       steps="1"
       threshold="0.0028332064"
       smooth_angles="0"
       helper_size="0"
       simplify_individual_paths="false"
       simplify_just_coalesce="false"
       step="1" />
    <inkscape:path-effect
       effect="powerstroke"
       id="path-effect159"
       is_visible="true"
       lpeversion="1"
       offset_points="2.2611036,0.075169555"
       not_jump="true"
       sort_points="true"
       interpolator_type="CentripetalCatmullRom"
       interpolator_beta="0.75"
       start_linecap_type="round"
       linejoin_type="spiro"
       miter_limit="4"
       scale_width="1"
       end_linecap_type="round" />
    <inkscape:path-effect
       effect="simplify"
       id="path-effect157"
       is_visible="true"
       lpeversion="1"
       steps="1"
       threshold="0.0028332064"
       smooth_angles="0"
       helper_size="0"
       simplify_individual_paths="false"
       simplify_just_coalesce="false"
       step="1" />
    <inkscape:path-effect
       effect="powerstroke"
       id="path-effect152"
       is_visible="true"
       lpeversion="1"
       offset_points="2.826981,0.075169555"
       not_jump="true"
       sort_points="true"
       interpolator_type="CentripetalCatmullRom"
       interpolator_beta="0.75"
       start_linecap_type="round"
       linejoin_type="spiro"
       miter_limit="4"
       scale_width="1"
       end_linecap_type="round" />
    <inkscape:path-effect
       effect="simplify"
       id="path-effect150"
       is_visible="true"
       lpeversion="1"
       steps="1"
       threshold="0.0028332064"
       smooth_angles="0"
       helper_size="0"
       simplify_individual_paths="false"
       simplify_just_coalesce="false"
       step="1" />
    <inkscape:path-effect
       effect="powerstroke"
       id="path-effect145"
       is_visible="true"
       lpeversion="1"
       offset_points="3.8374447,0.075169555"
       not_jump="true"
       sort_points="true"
       interpolator_type="CentripetalCatmullRom"
       interpolator_beta="0.75"
       start_linecap_type="round"
       linejoin_type="spiro"
       miter_limit="4"
       scale_width="1"
       end_linecap_type="round" />
    <inkscape:path-effect
       effect="simplify"
       id="path-effect143"
       is_visible="true"
       lpeversion="1"
       steps="1"
       threshold="0.0028332064"
       smooth_angles="0"
       helper_size="0"
       simplify_individual_paths="false"
       simplify_just_coalesce="false"
       step="1" />
    <inkscape:path-effect
       effect="powerstroke"
       id="path-effect138"
       is_visible="true"
       lpeversion="1"
       offset_points="2.6880907,0.075169555"
       not_jump="true"
       sort_points="true"
       interpolator_type="CentripetalCatmullRom"
       interpolator_beta="0.75"
       start_linecap_type="round"
       linejoin_type="spiro"
       miter_limit="4"
       scale_width="1"
       end_linecap_type="round" />
    <inkscape:path-effect
       effect="simplify"
       id="path-effect136"
       is_visible="true"
       lpeversion="1"
       steps="1"
       threshold="0.0028332064"
       smooth_angles="0"
       helper_size="0"
       simplify_individual_paths="false"
       simplify_just_coalesce="false"
       step="1" />
    <inkscape:path-effect
       effect="powerstroke"
       id="path-effect131"
       is_visible="true"
       lpeversion="1"
       offset_points="1.9940581,0.075169555"
       not_jump="true"
       sort_points="true"
       interpolator_type="CentripetalCatmullRom"
       interpolator_beta="0.75"
       start_linecap_type="round"
       linejoin_type="spiro"
       miter_limit="4"
       scale_width="1"
       end_linecap_type="round" />
    <inkscape:path-effect
       effect="simplify"
       id="path-effect129"
       is_visible="true"
       lpeversion="1"
       steps="1"
       threshold="0.0028332064"
       smooth_angles="0"
       helper_size="0"
       simplify_individual_paths="false"
       simplify_just_coalesce="false"
       step="1" />
  </defs>
  <sodipodi:namedview
     id="base"
     pagecolor="#ffffff"
     bordercolor="#666666"
     borderopacity="1.0"
     inkscape:pageopacity="0.0"
     inkscape:pageshadow="2"
     inkscape:zoom="7.919596"
     inkscape:cx="-5.3033008"
     inkscape:cy="20.834396"
     inkscape:document-units="mm"
     inkscape:current-layer="layer1"
     showgrid="false"
     fit-margin-top="0"
     fit-margin-left="0"
     fit-margin-right="0"
     fit-margin-bottom="0"
     inkscape:window-width="1920"
     inkscape:window-height="974"
     inkscape:window-x="-11"
     inkscape:window-y="2889"
     inkscape:window-maximized="1"
     showguides="true"
     inkscape:guide-bbox="true"
     inkscape:snap-bbox="true"
     inkscape:bbox-nodes="true"
     inkscape:snap-nodes="false"
     inkscape:snap-others="false"
     inkscape:snap-page="true"
     inkscape:snap-grids="false"
     inkscape:snap-to-guides="false"
     inkscape:snap-global="false"
     inkscape:pagecheckerboard="0"
     inkscape:showpageshadow="2"
     inkscape:deskcolor="#d1d1d1">
    <sodipodi:guide
       position="-6.1806075,9.4988692"
       orientation="0,1"
       id="guide816"
       inkscape:locked="false" />
    <sodipodi:guide
       position="-4.4101636,10.646923"
       orientation="0,1"
       id="guide818"
       inkscape:locked="false" />
    <sodipodi:guide
       position="2.7595724,11.09577"
       orientation="1,0"
       id="guide820"
       inkscape:locked="false" />
    <sodipodi:guide
       position="3.6572659,10.942217"
       orientation="1,0"
       id="guide822"
       inkscape:locked="false" />
    <sodipodi:guide
       position="-0.051625511,9.7492299"
       orientation="1,0"
       id="guide1853"
       inkscape:locked="false" />
    <sodipodi:guide
       position="-2.3720169,3.0175835"
       orientation="0,1"
       id="guide1855"
       inkscape:locked="false" />
  </sodipodi:namedview>
  <metadata
     id="metadata1678">
    <rdf:RDF>
      <cc:Work
         rdf:about="">
        <dc:format>image/svg+xml</dc:format>
        <dc:type
           rdf:resource="http://purl.org/dc/dcmitype/StillImage" />
      </cc:Work>
    </rdf:RDF>
  </metadata>
  <g
     inkscape:label="Layer 1"
     inkscape:groupmode="layer"
     id="layer1"
     transform="translate(17.028496,-147.22856)">
    <path
       d="m -13.406603,149.1849 c -0.103157,-0.006 -0.38893,-0.0284 -0.618951,-0.0143 -0.09946,0.006 -0.208275,0.0191 -0.31926,0.0457 -0.101829,0.0244 -0.207709,0.0609 -0.312561,0.11611 -0.0843,0.0438 -0.161782,0.10205 -0.231663,0.17211 -0.06404,0.0642 -0.119668,0.13625 -0.167524,0.21197 -0.267997,0.32741 -0.485068,0.6936 -0.638538,1.07915 -0.163314,0.41027 -0.249598,0.82941 -0.259733,1.23876 -0.0011,0.0924 0.01688,0.17891 0.04649,0.25449 0.01588,0.0405 0.03598,0.0802 0.0604,0.11767 0.03529,0.0542 0.07976,0.10432 0.133369,0.14592 0.05292,0.0411 0.114224,0.0734 0.182899,0.0931 0.08216,0.0257 0.169044,0.0358 0.254214,0.0321 0.08567,-0.004 0.169318,-0.0211 0.247823,-0.0492 0.15854,-0.0568 0.295969,-0.1568 0.394659,-0.27905 0.280833,-0.22903 0.483076,-0.50653 0.628782,-0.77694 0.170347,-0.31615 0.269634,-0.63393 0.329654,-0.88636 0.0047,-0.0196 0.009,-0.0387 0.01316,-0.057 0.04081,-0.17425 0.09107,-0.39754 0.119964,-0.66398 0.01159,-0.1069 0.02302,-0.24162 0.03033,-0.40418 4.12e-4,-0.009 1.69e-4,-0.0184 -0.0017,-0.0274 -0.0019,-0.009 -0.0049,-0.0177 -0.0076,-0.0264 -0.0014,-0.005 -0.0046,-0.0144 -0.0086,-0.0272 -0.0036,-0.0114 -0.0085,-0.0268 -0.01404,-0.0427 -0.0052,-0.0151 -0.01158,-0.0327 -0.01896,-0.0506 -0.0069,-0.0168 -0.01553,-0.0358 -0.0259,-0.0546 -0.0096,-0.0174 -0.02282,-0.0383 -0.04037,-0.0577 -0.01632,-0.0181 -0.04249,-0.0417 -0.08005,-0.0555 -0.01891,-0.007 -0.04023,-0.0112 -0.06324,-0.011 -0.02264,2.2e-4 -0.04429,0.005 -0.06425,0.0126 -0.03796,0.0149 -0.06644,0.0401 -0.08724,0.0642 -0.0054,0.006 -0.01056,0.0127 -0.01465,0.0198 -0.0041,0.007 -0.0071,0.0148 -0.01,0.0225 -0.04134,0.10971 -0.06099,0.22396 -0.07018,0.34247 -0.0085,0.10899 -0.0077,0.21413 -0.0096,0.32001 0.0097,0.25689 0.05407,0.51001 0.08039,0.76371 0.08123,0.6344 0.185122,1.31755 0.378315,1.98233 0.0038,0.057 0.01485,0.11413 0.03294,0.16922 0.01993,0.0607 0.04872,0.11992 0.08665,0.17393 0.03765,0.0536 0.08467,0.10267 0.141604,0.14229 0.05669,0.0394 0.122445,0.0689 0.19608,0.0834 0.08939,0.0199 0.183352,0.0188 0.272603,3.8e-4 0.08851,-0.0183 0.172522,-0.0536 0.247674,-0.1017 0.07476,-0.0479 0.14177,-0.10906 0.196258,-0.18047 0.05096,-0.0668 0.09151,-0.14323 0.116611,-0.22665 0.231603,-0.46621 0.41689,-0.96376 0.533757,-1.47776 0.117851,-0.51832 0.166054,-1.0531 0.122045,-1.5885 -0.02573,-0.26826 -0.06069,-0.54769 -0.152587,-0.81553 -0.04897,-0.12929 -0.11696,-0.24185 -0.19934,-0.34012 -0.08294,-0.099 -0.180599,-0.18366 -0.287219,-0.25261 -0.215746,-0.13951 -0.470847,-0.21631 -0.725224,-0.21566 -0.119448,-3.9e-4 -0.23456,0.016 -0.341479,0.0382 -0.108872,0.0226 -0.216168,0.0529 -0.31194,0.0799 -0.375221,0.11852 -0.700993,0.31675 -0.976009,0.55569 -0.288236,0.25042 -0.523706,0.54788 -0.704509,0.85586 -0.391931,0.66848 -0.569562,1.39114 -0.566557,2.05699 0.0059,0.33373 0.06062,0.65109 0.160257,0.93521 0.116751,0.33291 0.290208,0.60727 0.505272,0.82091 0.0016,0.002 0.0041,0.004 0.0066,0.007 0.219548,0.21863 0.488283,0.36012 0.763308,0.43764 0.29406,0.0829 0.59856,0.0941 0.878679,0.0493 0.459606,-0.0725 0.870353,-0.27463 1.199106,-0.54049 0.36663,-0.29649 0.629478,-0.66973 0.779287,-1.06015 0.235448,-0.54987 0.317167,-1.11591 0.295197,-1.6095 -0.03052,-0.6857 -0.254254,-1.20955 -0.497628,-1.57337 a 0.17618773,0.17618773 90 0 0 -0.292888,0.19592 c 0.211326,0.31591 0.410794,0.77832 0.43778,1.39305 0.01951,0.44431 -0.05591,0.9603 -0.270369,1.46078 -0.130188,0.33834 -0.35589,0.66029 -0.674245,0.91763 -0.284691,0.23012 -0.639968,0.40418 -1.03185,0.46608 -0.233174,0.0374 -0.485674,0.028 -0.727286,-0.0398 -0.225597,-0.0633 -0.438957,-0.17677 -0.610689,-0.34703 -0.002,-0.002 -0.004,-0.004 -0.006,-0.006 -0.175834,-0.17398 -0.322525,-0.40147 -0.423698,-0.68802 -0.08666,-0.24543 -0.136399,-0.52536 -0.142349,-0.8231 -0.0038,-0.60145 0.156179,-1.26328 0.515328,-1.87872 0.163522,-0.27982 0.375407,-0.54781 0.631989,-0.77166 0.24463,-0.21343 0.529813,-0.38652 0.84938,-0.48826 0.09256,-0.0268 0.188384,-0.0544 0.2836,-0.0749 0.09244,-0.0199 0.182945,-0.0328 0.272341,-0.0332 0.188153,-0.001 0.380394,0.0552 0.544069,0.16014 0.08038,0.0516 0.152868,0.11424 0.213659,0.18619 0.0603,0.0714 0.10899,0.15175 0.14266,0.2395 0.0782,0.22336 0.112225,0.46946 0.139266,0.73209 0.0416,0.4957 -0.0021,0.99723 -0.112656,1.4877 -0.110702,0.49104 -0.288057,0.96921 -0.511781,1.41947 -0.0047,0.009 -0.0085,0.0193 -0.01122,0.0295 -0.01254,0.0473 -0.03517,0.0929 -0.06625,0.13431 -0.03122,0.0416 -0.07031,0.078 -0.114282,0.10658 -0.04418,0.0288 -0.09219,0.049 -0.14076,0.0595 -0.04869,0.0105 -0.09762,0.011 -0.144741,9.8e-4 -0.03262,-0.006 -0.0586,-0.0171 -0.08218,-0.033 -0.02404,-0.0163 -0.04625,-0.0381 -0.06558,-0.0649 -0.01955,-0.0271 -0.03556,-0.0585 -0.04711,-0.0922 -0.01168,-0.0341 -0.0184,-0.0694 -0.0201,-0.10368 -6.24e-4,-0.0126 -0.0026,-0.025 -0.0061,-0.0371 -0.191706,-0.64553 -0.296872,-1.31515 -0.380591,-1.9487 -0.03042,-0.26568 -0.07565,-0.50951 -0.08708,-0.73313 4.3e-4,-0.10711 -0.0018,-0.1972 0.0041,-0.29515 0.0062,-0.1019 0.02062,-0.18819 0.0481,-0.26572 l -0.02466,0.0423 c 0.0011,-0.002 -0.0047,0.006 -0.02309,0.0133 -0.0097,0.004 -0.02147,0.006 -0.03456,0.006 -0.01329,8e-5 -0.02524,-0.002 -0.03511,-0.006 -0.0198,-0.007 -0.02676,-0.0162 -0.0284,-0.0184 -5.4e-5,-7e-5 5.3e-5,-0.001 0.0053,0.007 0.0042,0.007 0.0089,0.0157 0.01391,0.0265 0.0052,0.0113 0.01031,0.0235 0.01518,0.0359 0.0051,0.0129 0.01007,0.0261 0.0146,0.0381 0.0015,0.004 0.003,0.008 0.0046,0.0119 -0.0044,0.14425 -0.01207,0.26434 -0.01978,0.36081 -0.02082,0.26057 -0.04569,0.46791 -0.08203,0.64019 -0.0038,0.0179 -0.0077,0.036 -0.01197,0.0546 -0.05468,0.24034 -0.148315,0.53787 -0.308403,0.83088 -0.13851,0.25351 -0.328584,0.50675 -0.587837,0.71114 -0.0067,0.005 -0.01269,0.0115 -0.01813,0.0181 -0.07467,0.0907 -0.180544,0.16476 -0.301252,0.20446 -0.05781,0.019 -0.117587,0.0296 -0.17686,0.0306 -0.0588,0.001 -0.116624,-0.007 -0.171588,-0.026 -0.03841,-0.0123 -0.07031,-0.0304 -0.09833,-0.0534 -0.02858,-0.0235 -0.05335,-0.0524 -0.07369,-0.0851 -0.01406,-0.0226 -0.02586,-0.0467 -0.03531,-0.0717 -0.01772,-0.047 -0.02813,-0.10019 -0.02708,-0.15495 0.01,-0.37535 0.08984,-0.7636 0.242325,-1.14604 0.144319,-0.36197 0.349124,-0.70687 0.602681,-1.01546 0.0037,-0.004 0.007,-0.009 0.0101,-0.0141 0.03995,-0.0642 0.08494,-0.1227 0.134807,-0.17301 0.05248,-0.0529 0.108176,-0.0946 0.166545,-0.12524 0.08282,-0.0438 0.16747,-0.0734 0.251738,-0.0938 0.09215,-0.0223 0.185094,-0.0338 0.273961,-0.0395 0.209972,-0.0133 0.473423,0.007 0.586783,0.0134 a 0.13080024,0.13080024 90 0 0 0.01585,-0.26112 z"
       id="path-1"
       inkscape:path-effect="#path-effect151;#path-effect153"
       inkscape:original-d="m -13.414529,149.31546 c -0.541445,-0.0362 -1.201679,-0.0748 -1.522221,0.4641 -0.51462,0.61797 -0.851588,1.406 -0.886216,2.21197 -0.02073,0.67266 0.75325,0.71456 1.105639,0.27631 0.803719,-0.64788 1.036575,-1.73033 1.071623,-2.71169 -0.226698,-0.67098 -0.270483,0.39023 -0.22119,0.64749 0.102544,0.84137 0.208094,1.69179 0.448371,2.50601 0.05289,0.64492 0.835589,0.54998 0.988577,0.0279 0.552487,-1.10585 0.835902,-2.41035 0.540759,-3.62912 -0.149786,-0.62155 -0.810627,-0.95435 -1.411175,-0.79577 -1.363463,0.25449 -2.227115,1.62025 -2.388243,2.92096 -0.122175,0.90427 0.159565,2.01454 1.065258,2.41268 1.097085,0.46595 2.417347,-0.25781 2.841363,-1.323 0.43035,-0.96627 0.437257,-2.16885 -0.163797,-3.06692"
       style="fill:#000000;fill-rule:nonzero;stroke:none;stroke-width:1.30442" />
  </g>
</svg>
