<?xml version="1.0" encoding="UTF-8" standalone="no"?>
<!-- Created with Inkscape (http://www.inkscape.org/) -->

<svg
   width="5mm"
   height="10mm"
   viewBox="0 0 5.0000001 9.9999994"
   version="1.1"
   id="svg1681"
   inkscape:version="1.2.1 (9c6d41e410, 2022-07-14)"
   sodipodi:docname="at_symbol_9.svg"
   inkscape:export-filename="..\..\..\..\Downloads\lower a diff canvas resize 3.0.png"
   inkscape:export-xdpi="96"
   inkscape:export-ydpi="96"
   xmlns:inkscape="http://www.inkscape.org/namespaces/inkscape"
   xmlns:sodipodi="http://sodipodi.sourceforge.net/DTD/sodipodi-0.dtd"
   xmlns="http://www.w3.org/2000/svg"
   xmlns:svg="http://www.w3.org/2000/svg"
   xmlns:rdf="http://www.w3.org/1999/02/22-rdf-syntax-ns#"
   xmlns:cc="http://creativecommons.org/ns#"
   xmlns:dc="http://purl.org/dc/elements/1.1/">
  <defs
     id="defs1675">
    <inkscape:path-effect
       effect="powerstroke"
       id="path-effect160"
       is_visible="true"
       lpeversion="1"
       offset_points="3.7099098,0.13534937 | 5.4036328,0.11282723 | 7.6692144,0.13794807 | 11.500148,0.11672529 | 20.920345,0.15743838"
       not_jump="true"
       sort_points="true"
       interpolator_type="CentripetalCatmullRom"
       interpolator_beta="0.75"
       start_linecap_type="round"
       linejoin_type="spiro"
       miter_limit="4"
       scale_width="1"
       end_linecap_type="round" />
    <inkscape:path-effect
       effect="simplify"
       id="path-effect158"
       is_visible="true"
       lpeversion="1"
       steps="1"
       threshold="0.0035951417"
       smooth_angles="0"
       helper_size="0"
       simplify_individual_paths="false"
       simplify_just_coalesce="false"
       step="1" />
    <inkscape:path-effect
       effect="powerstroke"
       id="path-effect153"
       is_visible="true"
       lpeversion="1"
       offset_points="3.2907211,0.10365177 | 6.9205662,0.075463185 | 9.7595326,0.091759709 | 12.37872,0.075022738 | 18.728585,0.10511992"
       not_jump="true"
       sort_points="true"
       interpolator_type="CentripetalCatmullRom"
       interpolator_beta="0.75"
       start_linecap_type="round"
       linejoin_type="spiro"
       miter_limit="4"
       scale_width="1"
       end_linecap_type="round" />
    <inkscape:path-effect
       effect="simplify"
       id="path-effect151"
       is_visible="true"
       lpeversion="1"
       steps="1"
       threshold="0.0035951417"
       smooth_angles="0"
       helper_size="0"
       simplify_individual_paths="false"
       simplify_just_coalesce="false"
       step="1" />
    <inkscape:path-effect
       effect="powerstroke"
       id="path-effect472"
       is_visible="true"
       lpeversion="1"
       offset_points="4.0521283,0.12528567 | 12.810949,0.15034281 | 15.888046,0.12134149 | 21.515736,0.14199042"
       not_jump="true"
       sort_points="true"
       interpolator_type="CentripetalCatmullRom"
       interpolator_beta="0.75"
       start_linecap_type="round"
       linejoin_type="spiro"
       miter_limit="4"
       scale_width="1"
       end_linecap_type="round" />
    <inkscape:path-effect
       effect="simplify"
       id="path-effect470"
       is_visible="true"
       lpeversion="1"
       steps="1"
       threshold="0.0035951417"
       smooth_angles="0"
       helper_size="0"
       simplify_individual_paths="false"
       simplify_just_coalesce="false"
       step="1" />
    <inkscape:path-effect
       effect="powerstroke"
       id="path-effect502"
       is_visible="true"
       lpeversion="1"
       offset_points="3.0091841,0.21607495 | 7.3602657,0.17554228 | 9.4159651,0.20236537"
       not_jump="true"
       sort_points="true"
       interpolator_type="CentripetalCatmullRom"
       interpolator_beta="0.75"
       start_linecap_type="round"
       linejoin_type="spiro"
       miter_limit="4"
       scale_width="1"
       end_linecap_type="round" />
    <inkscape:path-effect
       effect="simplify"
       id="path-effect500"
       is_visible="true"
       lpeversion="1"
       steps="1"
       threshold="0.0035951417"
       smooth_angles="0"
       helper_size="0"
       simplify_individual_paths="false"
       simplify_just_coalesce="false"
       step="1" />
    <inkscape:path-effect
       effect="powerstroke"
       id="path-effect241"
       is_visible="true"
       lpeversion="1"
       offset_points="2.6879454,0.34086734"
       not_jump="true"
       sort_points="true"
       interpolator_type="CentripetalCatmullRom"
       interpolator_beta="0.75"
       start_linecap_type="round"
       linejoin_type="spiro"
       miter_limit="4"
       scale_width="1"
       end_linecap_type="round" />
    <inkscape:path-effect
       effect="simplify"
       id="path-effect239"
       is_visible="true"
       lpeversion="1"
       steps="1"
       threshold="0.0028332064"
       smooth_angles="0"
       helper_size="0"
       simplify_individual_paths="false"
       simplify_just_coalesce="false"
       step="1" />
    <inkscape:path-effect
       effect="powerstroke"
       id="path-effect234"
       is_visible="true"
       lpeversion="1"
       offset_points="2.13563,0.075169555"
       not_jump="true"
       sort_points="true"
       interpolator_type="CentripetalCatmullRom"
       interpolator_beta="0.75"
       start_linecap_type="round"
       linejoin_type="spiro"
       miter_limit="4"
       scale_width="1"
       end_linecap_type="round" />
    <inkscape:path-effect
       effect="simplify"
       id="path-effect232"
       is_visible="true"
       lpeversion="1"
       steps="1"
       threshold="0.0028332064"
       smooth_angles="0"
       helper_size="0"
       simplify_individual_paths="false"
       simplify_just_coalesce="false"
       step="1" />
    <inkscape:path-effect
       effect="powerstroke"
       id="path-effect227"
       is_visible="true"
       lpeversion="1"
       offset_points="2.1868266,0.075169555"
       not_jump="true"
       sort_points="true"
       interpolator_type="CentripetalCatmullRom"
       interpolator_beta="0.75"
       start_linecap_type="round"
       linejoin_type="spiro"
       miter_limit="4"
       scale_width="1"
       end_linecap_type="round" />
    <inkscape:path-effect
       effect="simplify"
       id="path-effect225"
       is_visible="true"
       lpeversion="1"
       steps="1"
       threshold="0.0028332064"
       smooth_angles="0"
       helper_size="0"
       simplify_individual_paths="false"
       simplify_just_coalesce="false"
       step="1" />
    <inkscape:path-effect
       effect="powerstroke"
       id="path-effect166"
       is_visible="true"
       lpeversion="1"
       offset_points="1.9637935,0.075169555"
       not_jump="true"
       sort_points="true"
       interpolator_type="CentripetalCatmullRom"
       interpolator_beta="0.75"
       start_linecap_type="round"
       linejoin_type="spiro"
       miter_limit="4"
       scale_width="1"
       end_linecap_type="round" />
    <inkscape:path-effect
       effect="simplify"
       id="path-effect164"
       is_visible="true"
       lpeversion="1"
       steps="1"
       threshold="0.0028332064"
       smooth_angles="0"
       helper_size="0"
       simplify_individual_paths="false"
       simplify_just_coalesce="false"
       step="1" />
    <inkscape:path-effect
       effect="powerstroke"
       id="path-effect159"
       is_visible="true"
       lpeversion="1"
       offset_points="2.2611036,0.075169555"
       not_jump="true"
       sort_points="true"
       interpolator_type="CentripetalCatmullRom"
       interpolator_beta="0.75"
       start_linecap_type="round"
       linejoin_type="spiro"
       miter_limit="4"
       scale_width="1"
       end_linecap_type="round" />
    <inkscape:path-effect
       effect="simplify"
       id="path-effect157"
       is_visible="true"
       lpeversion="1"
       steps="1"
       threshold="0.0028332064"
       smooth_angles="0"
       helper_size="0"
       simplify_individual_paths="false"
       simplify_just_coalesce="false"
       step="1" />
    <inkscape:path-effect
       effect="powerstroke"
       id="path-effect152"
       is_visible="true"
       lpeversion="1"
       offset_points="2.826981,0.075169555"
       not_jump="true"
       sort_points="true"
       interpolator_type="CentripetalCatmullRom"
       interpolator_beta="0.75"
       start_linecap_type="round"
       linejoin_type="spiro"
       miter_limit="4"
       scale_width="1"
       end_linecap_type="round" />
    <inkscape:path-effect
       effect="simplify"
       id="path-effect150"
       is_visible="true"
       lpeversion="1"
       steps="1"
       threshold="0.0028332064"
       smooth_angles="0"
       helper_size="0"
       simplify_individual_paths="false"
       simplify_just_coalesce="false"
       step="1" />
    <inkscape:path-effect
       effect="powerstroke"
       id="path-effect145"
       is_visible="true"
       lpeversion="1"
       offset_points="3.8374447,0.075169555"
       not_jump="true"
       sort_points="true"
       interpolator_type="CentripetalCatmullRom"
       interpolator_beta="0.75"
       start_linecap_type="round"
       linejoin_type="spiro"
       miter_limit="4"
       scale_width="1"
       end_linecap_type="round" />
    <inkscape:path-effect
       effect="simplify"
       id="path-effect143"
       is_visible="true"
       lpeversion="1"
       steps="1"
       threshold="0.0028332064"
       smooth_angles="0"
       helper_size="0"
       simplify_individual_paths="false"
       simplify_just_coalesce="false"
       step="1" />
    <inkscape:path-effect
       effect="powerstroke"
       id="path-effect138"
       is_visible="true"
       lpeversion="1"
       offset_points="2.6880907,0.075169555"
       not_jump="true"
       sort_points="true"
       interpolator_type="CentripetalCatmullRom"
       interpolator_beta="0.75"
       start_linecap_type="round"
       linejoin_type="spiro"
       miter_limit="4"
       scale_width="1"
       end_linecap_type="round" />
    <inkscape:path-effect
       effect="simplify"
       id="path-effect136"
       is_visible="true"
       lpeversion="1"
       steps="1"
       threshold="0.0028332064"
       smooth_angles="0"
       helper_size="0"
       simplify_individual_paths="false"
       simplify_just_coalesce="false"
       step="1" />
    <inkscape:path-effect
       effect="powerstroke"
       id="path-effect131"
       is_visible="true"
       lpeversion="1"
       offset_points="1.9940581,0.075169555"
       not_jump="true"
       sort_points="true"
       interpolator_type="CentripetalCatmullRom"
       interpolator_beta="0.75"
       start_linecap_type="round"
       linejoin_type="spiro"
       miter_limit="4"
       scale_width="1"
       end_linecap_type="round" />
    <inkscape:path-effect
       effect="simplify"
       id="path-effect129"
       is_visible="true"
       lpeversion="1"
       steps="1"
       threshold="0.0028332064"
       smooth_angles="0"
       helper_size="0"
       simplify_individual_paths="false"
       simplify_just_coalesce="false"
       step="1" />
  </defs>
  <sodipodi:namedview
     id="base"
     pagecolor="#ffffff"
     bordercolor="#666666"
     borderopacity="1.0"
     inkscape:pageopacity="0.0"
     inkscape:pageshadow="2"
     inkscape:zoom="7.919596"
     inkscape:cx="-5.1770318"
     inkscape:cy="20.960665"
     inkscape:document-units="mm"
     inkscape:current-layer="layer1"
     showgrid="false"
     fit-margin-top="0"
     fit-margin-left="0"
     fit-margin-right="0"
     fit-margin-bottom="0"
     inkscape:window-width="1920"
     inkscape:window-height="974"
     inkscape:window-x="-11"
     inkscape:window-y="2869"
     inkscape:window-maximized="1"
     showguides="true"
     inkscape:guide-bbox="true"
     inkscape:snap-bbox="true"
     inkscape:bbox-nodes="true"
     inkscape:snap-nodes="false"
     inkscape:snap-others="false"
     inkscape:snap-page="true"
     inkscape:snap-grids="false"
     inkscape:snap-to-guides="false"
     inkscape:snap-global="false"
     inkscape:pagecheckerboard="0"
     inkscape:showpageshadow="2"
     inkscape:deskcolor="#d1d1d1">
    <sodipodi:guide
       position="-6.1806075,9.4988692"
       orientation="0,1"
       id="guide816"
       inkscape:locked="false" />
    <sodipodi:guide
       position="-4.4101636,10.646923"
       orientation="0,1"
       id="guide818"
       inkscape:locked="false" />
    <sodipodi:guide
       position="2.7595724,11.09577"
       orientation="1,0"
       id="guide820"
       inkscape:locked="false" />
    <sodipodi:guide
       position="3.6572659,10.942217"
       orientation="1,0"
       id="guide822"
       inkscape:locked="false" />
    <sodipodi:guide
       position="-0.051625511,9.7492299"
       orientation="1,0"
       id="guide1853"
       inkscape:locked="false" />
    <sodipodi:guide
       position="-2.3720169,3.0175835"
       orientation="0,1"
       id="guide1855"
       inkscape:locked="false" />
  </sodipodi:namedview>
  <metadata
     id="metadata1678">
    <rdf:RDF>
      <cc:Work
         rdf:about="">
        <dc:format>image/svg+xml</dc:format>
        <dc:type
           rdf:resource="http://purl.org/dc/dcmitype/StillImage" />
      </cc:Work>
    </rdf:RDF>
  </metadata>
  <g
     inkscape:label="Layer 1"
     inkscape:groupmode="layer"
     id="layer1"
     transform="translate(17.028496,-147.22856)">
    <path
       d="m -14.263824,149.28935 c -0.175334,-0.0574 -0.428858,-0.0949 -0.733105,-0.0174 -0.214155,0.0546 -0.44219,0.16489 -0.640551,0.34104 -0.253326,0.21596 -0.4481,0.5234 -0.542547,0.88011 -0.07229,0.23757 -0.11128,0.49695 -0.100133,0.75231 0.01173,0.26864 0.07851,0.52413 0.208141,0.74933 0.03817,0.0645 0.07823,0.12455 0.127046,0.17789 0.02348,0.0256 0.04785,0.0485 0.07333,0.0686 0.0052,0.004 0.01048,0.008 0.01581,0.012 0.03428,0.0251 0.07071,0.0454 0.10926,0.0608 0.09061,0.0453 0.182883,0.0709 0.271344,0.0827 0.09698,0.0129 0.192359,0.01 0.282161,-0.004 0.182681,-0.0284 0.359206,-0.10392 0.507573,-0.20836 0.07848,-0.0533 0.156784,-0.11936 0.230604,-0.19726 0.101753,-0.10738 0.188806,-0.23056 0.258417,-0.36384 0.140491,-0.23801 0.258676,-0.51601 0.322854,-0.81119 0.06119,-0.28143 0.07486,-0.58647 0.0061,-0.8924 -0.01682,-0.0825 -0.04104,-0.16678 -0.07537,-0.25127 -0.01619,-0.0399 -0.03434,-0.0793 -0.05445,-0.11806 -0.03246,-0.0559 -0.0738,-0.0947 -0.118324,-0.12139 -0.02228,-0.0133 -0.0464,-0.0242 -0.07162,-0.0319 -0.02492,-0.008 -0.05216,-0.0124 -0.08053,-0.0125 -0.02836,-1.1e-4 -0.05885,0.004 -0.08926,0.0168 -0.03064,0.0125 -0.05937,0.0324 -0.0826,0.0604 -0.0229,0.0276 -0.03758,0.0595 -0.04541,0.0929 -0.007,0.0297 -0.0085,0.0602 -0.0062,0.0906 -0.0055,0.13274 0.0093,0.26143 0.02581,0.3865 0.01614,0.12241 0.03399,0.24193 0.03622,0.35917 9.1e-5,0.005 3.23e-4,0.01 9.28e-4,0.0143 0.03469,0.27074 0.08333,0.56646 0.170962,0.85201 0.0833,0.27143 0.205436,0.54635 0.396548,0.7922 0.0056,0.007 0.01204,0.0139 0.01921,0.0196 0.05257,0.042 0.111729,0.0732 0.174529,0.0936 0.06099,0.0198 0.125315,0.0293 0.190068,0.0285 0.118023,-0.001 0.24841,-0.0377 0.359644,-0.12207 0.119542,-0.0841 0.223102,-0.2027 0.297533,-0.3449 0.06768,-0.1293 0.110982,-0.27798 0.119862,-0.43361 0.06782,-0.46716 0.02641,-0.95865 -0.123977,-1.42898 -0.144537,-0.45203 -0.389912,-0.88368 -0.730802,-1.24105 -0.204008,-0.20358 -0.477255,-0.33042 -0.763575,-0.36478 -0.140926,-0.0169 -0.285718,-0.0115 -0.426522,0.0194 -0.139735,0.0306 -0.275854,0.0864 -0.399288,0.17002 -0.297869,0.18704 -0.557178,0.42738 -0.784358,0.69538 -0.225912,0.26652 -0.41961,0.55987 -0.59117,0.85634 -0.0021,0.004 -0.004,0.007 -0.0057,0.0111 -0.361685,0.78949 -0.476699,1.66726 -0.409399,2.50524 0.04572,0.31604 0.163053,0.61243 0.336377,0.86462 0.178444,0.25964 0.41633,0.47286 0.698616,0.60756 0.15495,0.076 0.319351,0.11567 0.479805,0.12858 0.168906,0.0136 0.334988,-0.002 0.488217,-0.037 0.351868,-0.0707 0.666506,-0.22343 0.933629,-0.4087 0.294843,-0.20449 0.539261,-0.45347 0.732439,-0.69897 0.458774,-0.58684 0.705402,-1.17637 0.837902,-1.6154 0.01551,-0.0514 0.02992,-0.1022 0.04329,-0.15237 0.09178,-0.35264 0.126592,-0.67263 0.12898,-0.94757 0.0038,-0.43558 -0.07375,-0.76164 -0.131277,-0.9534 a 0.15743838,0.15743838 90 0 0 -0.301598,0.0905 c 0.05107,0.17023 0.120647,0.46417 0.117022,0.86011 -0.0023,0.25046 -0.03391,0.54468 -0.117996,0.87038 -0.01218,0.046 -0.02556,0.0936 -0.03997,0.14172 -0.123067,0.41111 -0.351898,0.96474 -0.778997,1.51668 -0.176872,0.22708 -0.398717,0.45456 -0.663002,0.63996 -0.23919,0.16779 -0.515611,0.30269 -0.82379,0.36641 -0.13117,0.0313 -0.267028,0.0456 -0.403043,0.0364 -0.128991,-0.009 -0.257694,-0.0387 -0.377879,-0.0958 -0.234298,-0.10998 -0.436383,-0.28675 -0.591213,-0.50896 -0.150549,-0.21606 -0.253681,-0.4716 -0.29393,-0.73631 -0.06649,-0.78797 0.03966,-1.61684 0.374369,-2.35846 0.164148,-0.28653 0.346676,-0.56478 0.556842,-0.81522 0.212529,-0.25326 0.45142,-0.4758 0.725602,-0.64987 0.09824,-0.0674 0.203703,-0.11166 0.314222,-0.13659 0.111519,-0.0251 0.227906,-0.0305 0.34269,-0.0174 0.234481,0.0267 0.45607,0.12935 0.61736,0.28852 0.312311,0.32551 0.540694,0.72369 0.67595,1.14285 0.141231,0.43768 0.180051,0.89412 0.117548,1.32596 -5.54e-4,0.004 -9.47e-4,0.008 -0.0011,0.0115 -0.0053,0.12235 -0.03838,0.24022 -0.09113,0.34244 -0.05712,0.11069 -0.135809,0.20064 -0.226743,0.26509 -0.06998,0.0534 -0.150316,0.0764 -0.223987,0.0772 -0.04008,4e-4 -0.07887,-0.006 -0.114671,-0.0176 -0.0324,-0.0108 -0.06231,-0.0263 -0.08896,-0.0462 -0.162795,-0.21481 -0.26971,-0.45787 -0.344014,-0.7064 -0.07894,-0.26405 -0.122988,-0.54131 -0.1544,-0.80474 -2.09e-4,-0.13272 -0.0172,-0.26764 -0.02947,-0.38146 -0.01383,-0.12825 -0.02319,-0.24026 -0.0152,-0.35096 2.36e-4,-0.003 3.6e-4,-0.007 2.46e-4,-0.01 -1.14e-4,-0.003 -3.52e-4,-0.007 -5.3e-4,-0.01 -5.94e-4,-0.0109 9.04e-4,-0.0137 8.34e-4,-0.0124 -1.12e-4,0.002 -0.0021,0.009 -0.0085,0.0171 -0.0066,0.008 -0.01494,0.0142 -0.02276,0.0176 -0.0074,0.003 -0.01242,0.004 -0.01419,0.004 -0.0017,2.1e-4 -7.17e-4,2.8e-4 0.0021,0.001 0.0028,0.001 0.0066,0.003 0.01081,0.006 0.0091,0.006 0.01545,0.0132 0.01871,0.019 0.01281,0.0257 0.02789,0.0583 0.04184,0.0911 0.02951,0.0695 0.05375,0.13883 0.07288,0.20638 0.06283,0.26018 0.05748,0.52681 0.0074,0.78095 -0.05258,0.26666 -0.155003,0.5227 -0.284713,0.75096 -0.05872,0.1227 -0.130309,0.22921 -0.216231,0.31931 -0.06223,0.0653 -0.128395,0.11825 -0.195894,0.16049 -0.125707,0.0836 -0.269929,0.13793 -0.412715,0.15447 -0.06977,0.008 -0.140784,0.007 -0.210314,-0.004 -0.06491,-0.011 -0.130266,-0.032 -0.193026,-0.0662 -0.0017,-9.2e-4 -0.0034,-0.002 -0.0052,-0.003 -0.0018,-7.7e-4 -0.0035,-0.002 -0.0052,-0.002 -0.01768,-0.008 -0.035,-0.0194 -0.0523,-0.0333 -0.0026,-0.002 -0.0053,-0.004 -0.008,-0.007 -0.013,-0.0111 -0.02657,-0.0245 -0.04079,-0.0408 -0.03031,-0.0348 -0.05876,-0.0773 -0.09163,-0.13394 -0.103659,-0.18102 -0.160313,-0.39232 -0.17034,-0.62293 -0.0096,-0.21994 0.02386,-0.44801 0.08952,-0.66493 0.08154,-0.30962 0.246057,-0.56842 0.456714,-0.74932 0.165097,-0.14732 0.353102,-0.23872 0.528117,-0.28379 0.246544,-0.0635 0.4472,-0.0327 0.581404,0.0113 a 0.13534937,0.13534937 90 0 0 0.08426,-0.25726 z"
       id="path-1"
       inkscape:path-effect="#path-effect158;#path-effect160"
       inkscape:original-d="m -14.305955,149.41798 c -0.743033,-0.23373 -1.512523,0.32156 -1.715477,1.03396 -0.187034,0.53701 -0.188437,1.21925 0.205534,1.66251 0.5137,0.39481 1.23314,0.0191 1.490204,-0.50235 0.354968,-0.58273 0.527801,-1.37074 0.205478,-1.99879 -0.409206,-0.41248 -0.169688,0.52995 -0.188447,0.75008 0.06772,0.56272 0.186237,1.15751 0.540972,1.61366 0.442954,0.32228 0.925495,-0.2116 0.942408,-0.65672 0.147495,-0.89456 -0.144972,-1.8626 -0.746321,-2.53854 -0.366048,-0.42817 -1.024311,-0.54944 -1.500799,-0.2317 -0.575198,0.36167 -0.998561,0.93113 -1.33249,1.51249 -0.343423,0.74959 -0.458078,1.603 -0.395114,2.42035 0.103092,0.79631 0.794249,1.59595 1.65599,1.47842 1.19103,-0.14759 2.010115,-1.22494 2.431359,-2.26698 0.296875,-0.73858 0.405896,-1.57647 0.175046,-2.34884"
       style="fill:#000000;fill-rule:nonzero;stroke:none;stroke-width:1.47504" />
  </g>
</svg>
