<?xml version="1.0" encoding="UTF-8" standalone="no"?>
<!-- Created with Inkscape (http://www.inkscape.org/) -->

<svg
   width="5mm"
   height="10mm"
   viewBox="0 0 5.0000001 9.9999994"
   version="1.1"
   id="svg1681"
   inkscape:version="1.2.1 (9c6d41e410, 2022-07-14)"
   sodipodi:docname="at_symbol_20.svg"
   inkscape:export-filename="..\..\..\..\Downloads\lower a diff canvas resize 3.0.png"
   inkscape:export-xdpi="96"
   inkscape:export-ydpi="96"
   xmlns:inkscape="http://www.inkscape.org/namespaces/inkscape"
   xmlns:sodipodi="http://sodipodi.sourceforge.net/DTD/sodipodi-0.dtd"
   xmlns="http://www.w3.org/2000/svg"
   xmlns:svg="http://www.w3.org/2000/svg"
   xmlns:rdf="http://www.w3.org/1999/02/22-rdf-syntax-ns#"
   xmlns:cc="http://creativecommons.org/ns#"
   xmlns:dc="http://purl.org/dc/elements/1.1/">
  <defs
     id="defs1675">
    <inkscape:path-effect
       effect="powerstroke"
       id="path-effect161"
       is_visible="true"
       lpeversion="1"
       offset_points="4.2012783,0.1344573 | 6.9005324,0.10521935 | 20.120515,0.13538843"
       not_jump="true"
       sort_points="true"
       interpolator_type="CentripetalCatmullRom"
       interpolator_beta="0.75"
       start_linecap_type="round"
       linejoin_type="spiro"
       miter_limit="4"
       scale_width="1"
       end_linecap_type="round" />
    <inkscape:path-effect
       effect="simplify"
       id="path-effect158"
       is_visible="true"
       lpeversion="1"
       steps="1"
       threshold="0.0035951417"
       smooth_angles="0"
       helper_size="0"
       simplify_individual_paths="false"
       simplify_just_coalesce="false"
       step="1" />
    <inkscape:path-effect
       effect="powerstroke"
       id="path-effect169"
       is_visible="true"
       lpeversion="1"
       offset_points="3.5771107,0.15043594 | 6.4399547,0.11391851 | 6.7921858,0.12880333 | 8.8884855,0.10220912 | 18.099159,0.15619141"
       not_jump="true"
       sort_points="true"
       interpolator_type="CentripetalCatmullRom"
       interpolator_beta="0.75"
       start_linecap_type="round"
       linejoin_type="spiro"
       miter_limit="4"
       scale_width="1"
       end_linecap_type="round" />
    <inkscape:path-effect
       effect="simplify"
       id="path-effect167"
       is_visible="true"
       lpeversion="1"
       steps="1"
       threshold="0.0035951417"
       smooth_angles="0"
       helper_size="0"
       simplify_individual_paths="false"
       simplify_just_coalesce="false"
       step="1" />
    <inkscape:path-effect
       effect="powerstroke"
       id="path-effect162"
       is_visible="true"
       lpeversion="1"
       offset_points="4.0861261,0.093815126 | 6.8851331,0.066360621 | 7.9298877,0.077078155 | 16.275357,0.098366408"
       not_jump="true"
       sort_points="true"
       interpolator_type="CentripetalCatmullRom"
       interpolator_beta="0.75"
       start_linecap_type="round"
       linejoin_type="spiro"
       miter_limit="4"
       scale_width="1"
       end_linecap_type="round" />
    <inkscape:path-effect
       effect="simplify"
       id="path-effect160"
       is_visible="true"
       lpeversion="1"
       steps="1"
       threshold="0.0035951417"
       smooth_angles="0"
       helper_size="0"
       simplify_individual_paths="false"
       simplify_just_coalesce="false"
       step="1" />
    <inkscape:path-effect
       effect="powerstroke"
       id="path-effect155"
       is_visible="true"
       lpeversion="1"
       offset_points="3.2697077,0.12171008 | 5.2007255,0.091172447 | 7.3621484,0.1077626"
       not_jump="true"
       sort_points="true"
       interpolator_type="CentripetalCatmullRom"
       interpolator_beta="0.75"
       start_linecap_type="round"
       linejoin_type="spiro"
       miter_limit="4"
       scale_width="1"
       end_linecap_type="round" />
    <inkscape:path-effect
       effect="simplify"
       id="path-effect153"
       is_visible="true"
       lpeversion="1"
       steps="1"
       threshold="0.0035951417"
       smooth_angles="0"
       helper_size="0"
       simplify_individual_paths="false"
       simplify_just_coalesce="false"
       step="1" />
    <inkscape:path-effect
       effect="powerstroke"
       id="path-effect520"
       is_visible="true"
       lpeversion="1"
       offset_points="2.7104209,0.13651777 | 6.1891906,0.10208306 | 6.7050343,0.12552797 | 13.23432,0.15092662 | 19.757333,0.17315044"
       not_jump="true"
       sort_points="true"
       interpolator_type="CentripetalCatmullRom"
       interpolator_beta="0.75"
       start_linecap_type="round"
       linejoin_type="spiro"
       miter_limit="4"
       scale_width="1"
       end_linecap_type="round" />
    <inkscape:path-effect
       effect="simplify"
       id="path-effect518"
       is_visible="true"
       lpeversion="1"
       steps="1"
       threshold="0.0035951417"
       smooth_angles="0"
       helper_size="0"
       simplify_individual_paths="false"
       simplify_just_coalesce="false"
       step="1" />
    <inkscape:path-effect
       effect="powerstroke"
       id="path-effect513"
       is_visible="true"
       lpeversion="1"
       offset_points="3.4665905,0.085593456 | 5.097968,0.077665417 | 18.223138,0.10717534"
       not_jump="true"
       sort_points="true"
       interpolator_type="CentripetalCatmullRom"
       interpolator_beta="0.75"
       start_linecap_type="round"
       linejoin_type="spiro"
       miter_limit="4"
       scale_width="1"
       end_linecap_type="round" />
    <inkscape:path-effect
       effect="simplify"
       id="path-effect511"
       is_visible="true"
       lpeversion="1"
       steps="1"
       threshold="0.0035951417"
       smooth_angles="0"
       helper_size="0"
       simplify_individual_paths="false"
       simplify_just_coalesce="false"
       step="1" />
    <inkscape:path-effect
       effect="powerstroke"
       id="path-effect502"
       is_visible="true"
       lpeversion="1"
       offset_points="3.0091841,0.21607495 | 7.3602657,0.17554228 | 9.4159651,0.20236537"
       not_jump="true"
       sort_points="true"
       interpolator_type="CentripetalCatmullRom"
       interpolator_beta="0.75"
       start_linecap_type="round"
       linejoin_type="spiro"
       miter_limit="4"
       scale_width="1"
       end_linecap_type="round" />
    <inkscape:path-effect
       effect="simplify"
       id="path-effect500"
       is_visible="true"
       lpeversion="1"
       steps="1"
       threshold="0.0035951417"
       smooth_angles="0"
       helper_size="0"
       simplify_individual_paths="false"
       simplify_just_coalesce="false"
       step="1" />
    <inkscape:path-effect
       effect="powerstroke"
       id="path-effect241"
       is_visible="true"
       lpeversion="1"
       offset_points="2.6879454,0.34086734"
       not_jump="true"
       sort_points="true"
       interpolator_type="CentripetalCatmullRom"
       interpolator_beta="0.75"
       start_linecap_type="round"
       linejoin_type="spiro"
       miter_limit="4"
       scale_width="1"
       end_linecap_type="round" />
    <inkscape:path-effect
       effect="simplify"
       id="path-effect239"
       is_visible="true"
       lpeversion="1"
       steps="1"
       threshold="0.0028332064"
       smooth_angles="0"
       helper_size="0"
       simplify_individual_paths="false"
       simplify_just_coalesce="false"
       step="1" />
    <inkscape:path-effect
       effect="powerstroke"
       id="path-effect234"
       is_visible="true"
       lpeversion="1"
       offset_points="2.13563,0.075169555"
       not_jump="true"
       sort_points="true"
       interpolator_type="CentripetalCatmullRom"
       interpolator_beta="0.75"
       start_linecap_type="round"
       linejoin_type="spiro"
       miter_limit="4"
       scale_width="1"
       end_linecap_type="round" />
    <inkscape:path-effect
       effect="simplify"
       id="path-effect232"
       is_visible="true"
       lpeversion="1"
       steps="1"
       threshold="0.0028332064"
       smooth_angles="0"
       helper_size="0"
       simplify_individual_paths="false"
       simplify_just_coalesce="false"
       step="1" />
    <inkscape:path-effect
       effect="powerstroke"
       id="path-effect227"
       is_visible="true"
       lpeversion="1"
       offset_points="2.1868266,0.075169555"
       not_jump="true"
       sort_points="true"
       interpolator_type="CentripetalCatmullRom"
       interpolator_beta="0.75"
       start_linecap_type="round"
       linejoin_type="spiro"
       miter_limit="4"
       scale_width="1"
       end_linecap_type="round" />
    <inkscape:path-effect
       effect="simplify"
       id="path-effect225"
       is_visible="true"
       lpeversion="1"
       steps="1"
       threshold="0.0028332064"
       smooth_angles="0"
       helper_size="0"
       simplify_individual_paths="false"
       simplify_just_coalesce="false"
       step="1" />
    <inkscape:path-effect
       effect="powerstroke"
       id="path-effect166"
       is_visible="true"
       lpeversion="1"
       offset_points="1.9637935,0.075169555"
       not_jump="true"
       sort_points="true"
       interpolator_type="CentripetalCatmullRom"
       interpolator_beta="0.75"
       start_linecap_type="round"
       linejoin_type="spiro"
       miter_limit="4"
       scale_width="1"
       end_linecap_type="round" />
    <inkscape:path-effect
       effect="simplify"
       id="path-effect164"
       is_visible="true"
       lpeversion="1"
       steps="1"
       threshold="0.0028332064"
       smooth_angles="0"
       helper_size="0"
       simplify_individual_paths="false"
       simplify_just_coalesce="false"
       step="1" />
    <inkscape:path-effect
       effect="powerstroke"
       id="path-effect159"
       is_visible="true"
       lpeversion="1"
       offset_points="2.2611036,0.075169555"
       not_jump="true"
       sort_points="true"
       interpolator_type="CentripetalCatmullRom"
       interpolator_beta="0.75"
       start_linecap_type="round"
       linejoin_type="spiro"
       miter_limit="4"
       scale_width="1"
       end_linecap_type="round" />
    <inkscape:path-effect
       effect="simplify"
       id="path-effect157"
       is_visible="true"
       lpeversion="1"
       steps="1"
       threshold="0.0028332064"
       smooth_angles="0"
       helper_size="0"
       simplify_individual_paths="false"
       simplify_just_coalesce="false"
       step="1" />
    <inkscape:path-effect
       effect="powerstroke"
       id="path-effect152"
       is_visible="true"
       lpeversion="1"
       offset_points="2.826981,0.075169555"
       not_jump="true"
       sort_points="true"
       interpolator_type="CentripetalCatmullRom"
       interpolator_beta="0.75"
       start_linecap_type="round"
       linejoin_type="spiro"
       miter_limit="4"
       scale_width="1"
       end_linecap_type="round" />
    <inkscape:path-effect
       effect="simplify"
       id="path-effect150"
       is_visible="true"
       lpeversion="1"
       steps="1"
       threshold="0.0028332064"
       smooth_angles="0"
       helper_size="0"
       simplify_individual_paths="false"
       simplify_just_coalesce="false"
       step="1" />
    <inkscape:path-effect
       effect="powerstroke"
       id="path-effect145"
       is_visible="true"
       lpeversion="1"
       offset_points="3.8374447,0.075169555"
       not_jump="true"
       sort_points="true"
       interpolator_type="CentripetalCatmullRom"
       interpolator_beta="0.75"
       start_linecap_type="round"
       linejoin_type="spiro"
       miter_limit="4"
       scale_width="1"
       end_linecap_type="round" />
    <inkscape:path-effect
       effect="simplify"
       id="path-effect143"
       is_visible="true"
       lpeversion="1"
       steps="1"
       threshold="0.0028332064"
       smooth_angles="0"
       helper_size="0"
       simplify_individual_paths="false"
       simplify_just_coalesce="false"
       step="1" />
    <inkscape:path-effect
       effect="powerstroke"
       id="path-effect138"
       is_visible="true"
       lpeversion="1"
       offset_points="2.6880907,0.075169555"
       not_jump="true"
       sort_points="true"
       interpolator_type="CentripetalCatmullRom"
       interpolator_beta="0.75"
       start_linecap_type="round"
       linejoin_type="spiro"
       miter_limit="4"
       scale_width="1"
       end_linecap_type="round" />
    <inkscape:path-effect
       effect="simplify"
       id="path-effect136"
       is_visible="true"
       lpeversion="1"
       steps="1"
       threshold="0.0028332064"
       smooth_angles="0"
       helper_size="0"
       simplify_individual_paths="false"
       simplify_just_coalesce="false"
       step="1" />
    <inkscape:path-effect
       effect="powerstroke"
       id="path-effect131"
       is_visible="true"
       lpeversion="1"
       offset_points="1.9940581,0.075169555"
       not_jump="true"
       sort_points="true"
       interpolator_type="CentripetalCatmullRom"
       interpolator_beta="0.75"
       start_linecap_type="round"
       linejoin_type="spiro"
       miter_limit="4"
       scale_width="1"
       end_linecap_type="round" />
    <inkscape:path-effect
       effect="simplify"
       id="path-effect129"
       is_visible="true"
       lpeversion="1"
       steps="1"
       threshold="0.0028332064"
       smooth_angles="0"
       helper_size="0"
       simplify_individual_paths="false"
       simplify_just_coalesce="false"
       step="1" />
  </defs>
  <sodipodi:namedview
     id="base"
     pagecolor="#ffffff"
     bordercolor="#666666"
     borderopacity="1.0"
     inkscape:pageopacity="0.0"
     inkscape:pageshadow="2"
     inkscape:zoom="7.919596"
     inkscape:cx="-5.1770318"
     inkscape:cy="20.960665"
     inkscape:document-units="mm"
     inkscape:current-layer="layer1"
     showgrid="false"
     fit-margin-top="0"
     fit-margin-left="0"
     fit-margin-right="0"
     fit-margin-bottom="0"
     inkscape:window-width="1920"
     inkscape:window-height="974"
     inkscape:window-x="-11"
     inkscape:window-y="2889"
     inkscape:window-maximized="1"
     showguides="true"
     inkscape:guide-bbox="true"
     inkscape:snap-bbox="true"
     inkscape:bbox-nodes="true"
     inkscape:snap-nodes="false"
     inkscape:snap-others="false"
     inkscape:snap-page="true"
     inkscape:snap-grids="false"
     inkscape:snap-to-guides="false"
     inkscape:snap-global="false"
     inkscape:pagecheckerboard="0"
     inkscape:showpageshadow="2"
     inkscape:deskcolor="#d1d1d1">
    <sodipodi:guide
       position="-6.1806075,9.4988692"
       orientation="0,1"
       id="guide816"
       inkscape:locked="false" />
    <sodipodi:guide
       position="-4.4101636,10.646923"
       orientation="0,1"
       id="guide818"
       inkscape:locked="false" />
    <sodipodi:guide
       position="2.7595724,11.09577"
       orientation="1,0"
       id="guide820"
       inkscape:locked="false" />
    <sodipodi:guide
       position="3.6572659,10.942217"
       orientation="1,0"
       id="guide822"
       inkscape:locked="false" />
    <sodipodi:guide
       position="-0.051625511,9.7492299"
       orientation="1,0"
       id="guide1853"
       inkscape:locked="false" />
    <sodipodi:guide
       position="-2.3720169,3.0175835"
       orientation="0,1"
       id="guide1855"
       inkscape:locked="false" />
  </sodipodi:namedview>
  <metadata
     id="metadata1678">
    <rdf:RDF>
      <cc:Work
         rdf:about="">
        <dc:format>image/svg+xml</dc:format>
        <dc:type
           rdf:resource="http://purl.org/dc/dcmitype/StillImage" />
      </cc:Work>
    </rdf:RDF>
  </metadata>
  <g
     inkscape:label="Layer 1"
     inkscape:groupmode="layer"
     id="layer1"
     transform="translate(17.028496,-147.22856)">
    <path
       d="m -12.678459,149.71173 c -0.198976,-0.0854 -0.479449,-0.15208 -0.826805,-0.10789 -0.249477,0.0317 -0.521698,0.12057 -0.776483,0.28187 -0.384288,0.23478 -0.72066,0.61037 -0.921516,1.08801 -0.101707,0.22775 -0.178433,0.4845 -0.202713,0.74758 -0.02449,0.26537 0.0047,0.53425 0.110922,0.78585 0.0366,0.0737 0.07538,0.15635 0.128102,0.22974 0.02836,0.0395 0.06137,0.0773 0.100861,0.11005 0.04085,0.0339 0.08691,0.061 0.138717,0.0792 0.07149,0.0311 0.142512,0.048 0.210266,0.0549 0.01769,0.002 0.0352,0.003 0.05248,0.003 0.09296,0.003 0.181013,-0.0116 0.259931,-0.0343 0.174073,-0.0499 0.326123,-0.1454 0.438857,-0.2374 0.258577,-0.21008 0.466955,-0.4698 0.626349,-0.75556 0.149068,-0.26724 0.265936,-0.57668 0.333003,-0.91467 0.0509,-0.26469 0.08108,-0.59348 0.04688,-0.96462 -0.0032,-0.0348 -0.007,-0.0702 -0.01146,-0.10626 -9.88e-4,-0.008 -0.002,-0.016 -0.0041,-0.0238 -0.0021,-0.008 -0.0052,-0.0153 -0.0095,-0.0221 -0.0043,-0.007 -0.0099,-0.0128 -0.01611,-0.0179 -0.0062,-0.005 -0.01316,-0.009 -0.02008,-0.0134 -0.02804,-0.0166 -0.0626,-0.0346 -0.100956,-0.0495 -0.0353,-0.0138 -0.07708,-0.0262 -0.121431,-0.0312 -0.04158,-0.005 -0.09006,-0.003 -0.138366,0.0139 -0.02344,0.008 -0.04652,0.0204 -0.0682,0.0369 -0.02118,0.0161 -0.04016,0.0358 -0.05651,0.0591 -0.0019,0.003 -0.0038,0.006 -0.0054,0.009 -0.02972,0.0527 -0.04833,0.10846 -0.05829,0.16582 -0.0095,0.0549 -0.01098,0.11043 -0.0074,0.16518 0.0069,0.10421 0.03216,0.20635 0.05538,0.29813 0.0277,0.0954 0.06392,0.19197 0.113764,0.28403 0.04476,0.0827 0.101531,0.16359 0.174063,0.23422 0.03191,0.0626 0.07426,0.11863 0.124284,0.16655 0.05398,0.0517 0.116994,0.0941 0.185576,0.12502 0.0676,0.0305 0.141084,0.0502 0.216857,0.0563 0.07487,0.006 0.152272,-9.1e-4 0.227972,-0.0239 0.07939,-0.0188 0.15899,-0.0563 0.229283,-0.10629 0.06954,-0.0495 0.130281,-0.11147 0.178801,-0.18207 0.04809,-0.07 0.08457,-0.14899 0.105279,-0.23319 0.01971,-0.0801 0.02515,-0.16529 0.01243,-0.25104 0.0069,-0.28673 -0.0341,-0.58174 -0.128307,-0.86008 -0.09448,-0.27914 -0.242906,-0.54253 -0.450923,-0.76199 -0.138761,-0.14404 -0.310886,-0.26409 -0.500865,-0.33967 -0.095,-0.0378 -0.194875,-0.0646 -0.297414,-0.0774 -0.102628,-0.0128 -0.207843,-0.0116 -0.313145,0.007 -0.305095,0.0406 -0.587495,0.15845 -0.842769,0.31478 -0.256405,0.15702 -0.487599,0.35424 -0.693782,0.55548 -0.199386,0.20056 -0.400993,0.39923 -0.575475,0.62465 -0.325263,0.44623 -0.570919,0.94485 -0.721594,1.46396 -0.154419,0.532 -0.208892,1.0842 -0.148412,1.6252 0.04033,0.33637 0.116398,0.65742 0.245163,0.95179 0.142587,0.30201 0.378885,0.53309 0.648414,0.68214 0.285461,0.15786 0.609581,0.22434 0.919495,0.18801 0.600515,-0.0804 1.118536,-0.30159 1.524777,-0.58783 0.113193,-0.0793 0.220202,-0.16338 0.320771,-0.25082 0.324373,-0.28201 0.599048,-0.61344 0.82054,-0.97342 0.297835,-0.48406 0.49943,-1.01946 0.600241,-1.56065 0.01592,-0.11574 0.04095,-0.22884 0.06002,-0.34574 0.02011,-0.12324 0.03326,-0.24945 0.02128,-0.38046 -0.0097,-0.18571 -0.05416,-0.36338 -0.111872,-0.52261 -0.0627,-0.17299 -0.144178,-0.33246 -0.222695,-0.46943 -0.02623,-0.0551 -0.04404,-0.0955 -0.05694,-0.12642 a 0.13538843,0.13538843 90 0 0 -0.249962,0.1041 c 0.01509,0.0362 0.03462,0.0815 0.06366,0.1435 0.0015,0.003 0.0032,0.006 0.005,0.01 0.07466,0.13019 0.148995,0.2764 0.205007,0.4313 0.05091,0.14079 0.08781,0.29167 0.0961,0.44952 0.0093,0.10299 4.4e-5,0.20323 -0.01849,0.31707 -0.01742,0.10699 -0.04297,0.22192 -0.05975,0.3464 -0.09365,0.50264 -0.283088,1.0063 -0.562901,1.46159 -0.207887,0.33825 -0.464818,0.64829 -0.766981,0.91137 -0.09365,0.0815 -0.193158,0.15988 -0.298636,0.23386 -0.371681,0.26286 -0.848467,0.46877 -1.402748,0.54483 -0.249554,0.03 -0.518095,-0.0227 -0.758686,-0.15469 -0.226049,-0.12403 -0.422694,-0.31639 -0.538653,-0.55967 -0.1164,-0.26151 -0.189471,-0.55629 -0.229756,-0.87316 -0.0574,-0.50383 -0.0079,-1.02267 0.136896,-1.52574 0.141359,-0.49097 0.372872,-0.9639 0.678783,-1.38559 0.15948,-0.20961 0.347211,-0.39807 0.547047,-0.60251 0.196519,-0.19336 0.4128,-0.37847 0.648184,-0.52392 0.233791,-0.14447 0.484825,-0.24883 0.754703,-0.28596 0.08562,-0.0153 0.167604,-0.017 0.249072,-0.007 0.08151,0.01 0.162485,0.0307 0.241058,0.0614 0.157757,0.0617 0.303694,0.1616 0.421773,0.28272 0.182724,0.1913 0.316527,0.42496 0.402893,0.67704 0.08723,0.2546 0.125727,0.52677 0.119262,0.79234 -1.74e-4,0.007 2.91e-4,0.0143 0.0015,0.0213 0.01012,0.0581 0.0075,0.11689 -0.0061,0.17371 -0.01369,0.0574 -0.03846,0.11251 -0.07213,0.1622 -0.03397,0.0501 -0.07655,0.0941 -0.124952,0.12898 -0.04885,0.0352 -0.103163,0.0609 -0.160336,0.075 -0.0544,0.0167 -0.104558,0.0218 -0.154374,0.0181 -0.05051,-0.004 -0.100357,-0.0166 -0.146786,-0.0372 -0.04709,-0.0209 -0.09014,-0.0495 -0.126706,-0.0841 -0.03712,-0.0351 -0.06732,-0.0762 -0.08882,-0.1215 -0.0029,-0.006 -0.006,-0.0123 -0.01,-0.0178 -0.004,-0.006 -0.0089,-0.0103 -0.01395,-0.0148 -0.05985,-0.0546 -0.108595,-0.12097 -0.148393,-0.19346 -0.04155,-0.0757 -0.0731,-0.15766 -0.09715,-0.23906 -0.02303,-0.0897 -0.04366,-0.17446 -0.04927,-0.25717 -0.0029,-0.0422 -0.0015,-0.0808 0.0047,-0.11623 0.006,-0.0345 0.01646,-0.0659 0.03193,-0.0946 0.0036,-0.005 0.007,-0.008 0.01,-0.01 0.0038,-0.003 0.0079,-0.005 0.01268,-0.007 0.01024,-0.004 0.02507,-0.005 0.04527,-0.003 0.02137,0.003 0.04501,0.009 0.06883,0.0191 0.0085,0.003 0.01679,0.007 0.02482,0.011 0.0016,0.0158 0.003,0.0314 0.0043,0.0469 0.02925,0.3488 -0.0043,0.65545 -0.05744,0.90117 -0.06646,0.31401 -0.179335,0.59872 -0.320134,0.84191 -0.150578,0.26009 -0.343625,0.49133 -0.576838,0.67521 -0.09745,0.0745 -0.220967,0.14572 -0.351835,0.18042 -0.05858,0.0155 -0.11916,0.0238 -0.179418,0.0211 -0.01117,-5e-4 -0.02235,-0.001 -0.03354,-0.003 -0.04384,-0.005 -0.08879,-0.0165 -0.133799,-0.0371 -0.0038,-0.002 -0.0077,-0.003 -0.01161,-0.005 -0.02028,-0.007 -0.03904,-0.0183 -0.05732,-0.0339 -0.01759,-0.015 -0.03511,-0.0346 -0.05307,-0.0601 -0.03658,-0.0518 -0.06361,-0.1098 -0.101345,-0.18557 -0.08176,-0.19482 -0.107741,-0.41707 -0.08673,-0.64588 0.0209,-0.22759 0.08776,-0.45508 0.180656,-0.66391 0.179225,-0.42777 0.476629,-0.75955 0.81353,-0.96647 0.221033,-0.14055 0.454973,-0.21711 0.667148,-0.24452 0.293617,-0.0379 0.525876,0.0184 0.686482,0.0873 a 0.1344573,0.1344573 90 0 0 0.106018,-0.24714 z"
       id="path-1"
       inkscape:path-effect="#path-effect158;#path-effect161"
       inkscape:original-d="m -12.731468,149.8353 c -0.903422,-0.37502 -1.916623,0.25163 -2.294678,1.0862 -0.281463,0.54891 -0.394483,1.30862 0.03139,1.81229 0.493007,0.34595 1.065609,-0.14508 1.35568,-0.53944 0.47369,-0.62276 0.656765,-1.43914 0.563936,-2.21006 -0.636808,-0.36134 -0.395837,0.7833 -0.08015,1.01834 0.303492,0.60472 1.175029,0.27408 1.091164,-0.36427 0.03067,-0.82834 -0.429886,-1.85563 -1.348436,-1.94042 -0.919807,0.0124 -1.611542,0.74785 -2.180921,1.38458 -0.801773,1.04295 -1.177967,2.49949 -0.756098,3.77013 0.208282,0.73275 0.974897,1.16986 1.710569,0.98605 1.638933,-0.29052 2.7907,-1.86439 2.992898,-3.45495 0.124785,-0.47514 -0.008,-0.95038 -0.252871,-1.36147 -0.02915,-0.0603 -0.05743,-0.12099 -0.08318,-0.18281"
       style="fill:#000000;fill-rule:nonzero;stroke:none;stroke-width:1.26846" />
  </g>
</svg>
