<?xml version="1.0" encoding="UTF-8" standalone="no"?>
<!-- Created with Inkscape (http://www.inkscape.org/) -->

<svg
   width="5mm"
   height="10mm"
   viewBox="0 0 5.0000001 9.9999994"
   version="1.1"
   id="svg1681"
   inkscape:version="1.2.1 (9c6d41e410, 2022-07-14)"
   sodipodi:docname="at_symbol_18.svg"
   inkscape:export-filename="..\..\..\..\Downloads\lower a diff canvas resize 3.0.png"
   inkscape:export-xdpi="96"
   inkscape:export-ydpi="96"
   xmlns:inkscape="http://www.inkscape.org/namespaces/inkscape"
   xmlns:sodipodi="http://sodipodi.sourceforge.net/DTD/sodipodi-0.dtd"
   xmlns="http://www.w3.org/2000/svg"
   xmlns:svg="http://www.w3.org/2000/svg"
   xmlns:rdf="http://www.w3.org/1999/02/22-rdf-syntax-ns#"
   xmlns:cc="http://creativecommons.org/ns#"
   xmlns:dc="http://purl.org/dc/elements/1.1/">
  <defs
     id="defs1675">
    <inkscape:path-effect
       effect="powerstroke"
       id="path-effect210"
       is_visible="true"
       lpeversion="1"
       offset_points="3.9544417,0.17955399 | 5.5180909,0.11351116 | 8.1171129,0.12795802 | 10.39034,0.10979624 | 18.432031,0.14900919 | 20.155457,0.11536861"
       not_jump="true"
       sort_points="true"
       interpolator_type="CentripetalCatmullRom"
       interpolator_beta="0.75"
       start_linecap_type="round"
       linejoin_type="spiro"
       miter_limit="4"
       scale_width="1"
       end_linecap_type="round" />
    <inkscape:path-effect
       effect="simplify"
       id="path-effect208"
       is_visible="true"
       lpeversion="1"
       steps="1"
       threshold="0.0035951417"
       smooth_angles="0"
       helper_size="0"
       simplify_individual_paths="false"
       simplify_just_coalesce="false"
       step="1" />
    <inkscape:path-effect
       effect="powerstroke"
       id="path-effect160"
       is_visible="true"
       lpeversion="1"
       offset_points="3.3473184,0.14739949 | 6.529025,0.12840937 | 22.313063,0.17339786"
       not_jump="true"
       sort_points="true"
       interpolator_type="CentripetalCatmullRom"
       interpolator_beta="0.75"
       start_linecap_type="round"
       linejoin_type="spiro"
       miter_limit="4"
       scale_width="1"
       end_linecap_type="round" />
    <inkscape:path-effect
       effect="simplify"
       id="path-effect158"
       is_visible="true"
       lpeversion="1"
       steps="1"
       threshold="0.0035951417"
       smooth_angles="0"
       helper_size="0"
       simplify_individual_paths="false"
       simplify_just_coalesce="false"
       step="1" />
    <inkscape:path-effect
       effect="powerstroke"
       id="path-effect153"
       is_visible="true"
       lpeversion="1"
       offset_points="2.3547139,0.09469602 | 6.2698251,0.073848214 | 8.3043188,0.090732 | 10.741125,0.081335806 | 19.152896,0.10159635"
       not_jump="true"
       sort_points="true"
       interpolator_type="CentripetalCatmullRom"
       interpolator_beta="0.75"
       start_linecap_type="round"
       linejoin_type="spiro"
       miter_limit="4"
       scale_width="1"
       end_linecap_type="round" />
    <inkscape:path-effect
       effect="simplify"
       id="path-effect151"
       is_visible="true"
       lpeversion="1"
       steps="1"
       threshold="0.0035951417"
       smooth_angles="0"
       helper_size="0"
       simplify_individual_paths="false"
       simplify_just_coalesce="false"
       step="1" />
    <inkscape:path-effect
       effect="powerstroke"
       id="path-effect431"
       is_visible="true"
       lpeversion="1"
       offset_points="3.6217867,0.13820622 | 5.1318942,0.16124059"
       not_jump="true"
       sort_points="true"
       interpolator_type="CentripetalCatmullRom"
       interpolator_beta="0.75"
       start_linecap_type="round"
       linejoin_type="spiro"
       miter_limit="4"
       scale_width="1"
       end_linecap_type="round" />
    <inkscape:path-effect
       effect="simplify"
       id="path-effect429"
       is_visible="true"
       lpeversion="1"
       steps="1"
       threshold="0.0035951417"
       smooth_angles="0"
       helper_size="0"
       simplify_individual_paths="false"
       simplify_just_coalesce="false"
       step="1" />
    <inkscape:path-effect
       effect="powerstroke"
       id="path-effect502"
       is_visible="true"
       lpeversion="1"
       offset_points="3.0091841,0.21607495 | 7.3602657,0.17554228 | 9.4159651,0.20236537"
       not_jump="true"
       sort_points="true"
       interpolator_type="CentripetalCatmullRom"
       interpolator_beta="0.75"
       start_linecap_type="round"
       linejoin_type="spiro"
       miter_limit="4"
       scale_width="1"
       end_linecap_type="round" />
    <inkscape:path-effect
       effect="simplify"
       id="path-effect500"
       is_visible="true"
       lpeversion="1"
       steps="1"
       threshold="0.0035951417"
       smooth_angles="0"
       helper_size="0"
       simplify_individual_paths="false"
       simplify_just_coalesce="false"
       step="1" />
    <inkscape:path-effect
       effect="powerstroke"
       id="path-effect241"
       is_visible="true"
       lpeversion="1"
       offset_points="2.6879454,0.34086734"
       not_jump="true"
       sort_points="true"
       interpolator_type="CentripetalCatmullRom"
       interpolator_beta="0.75"
       start_linecap_type="round"
       linejoin_type="spiro"
       miter_limit="4"
       scale_width="1"
       end_linecap_type="round" />
    <inkscape:path-effect
       effect="simplify"
       id="path-effect239"
       is_visible="true"
       lpeversion="1"
       steps="1"
       threshold="0.0028332064"
       smooth_angles="0"
       helper_size="0"
       simplify_individual_paths="false"
       simplify_just_coalesce="false"
       step="1" />
    <inkscape:path-effect
       effect="powerstroke"
       id="path-effect234"
       is_visible="true"
       lpeversion="1"
       offset_points="2.13563,0.075169555"
       not_jump="true"
       sort_points="true"
       interpolator_type="CentripetalCatmullRom"
       interpolator_beta="0.75"
       start_linecap_type="round"
       linejoin_type="spiro"
       miter_limit="4"
       scale_width="1"
       end_linecap_type="round" />
    <inkscape:path-effect
       effect="simplify"
       id="path-effect232"
       is_visible="true"
       lpeversion="1"
       steps="1"
       threshold="0.0028332064"
       smooth_angles="0"
       helper_size="0"
       simplify_individual_paths="false"
       simplify_just_coalesce="false"
       step="1" />
    <inkscape:path-effect
       effect="powerstroke"
       id="path-effect227"
       is_visible="true"
       lpeversion="1"
       offset_points="2.1868266,0.075169555"
       not_jump="true"
       sort_points="true"
       interpolator_type="CentripetalCatmullRom"
       interpolator_beta="0.75"
       start_linecap_type="round"
       linejoin_type="spiro"
       miter_limit="4"
       scale_width="1"
       end_linecap_type="round" />
    <inkscape:path-effect
       effect="simplify"
       id="path-effect225"
       is_visible="true"
       lpeversion="1"
       steps="1"
       threshold="0.0028332064"
       smooth_angles="0"
       helper_size="0"
       simplify_individual_paths="false"
       simplify_just_coalesce="false"
       step="1" />
    <inkscape:path-effect
       effect="powerstroke"
       id="path-effect166"
       is_visible="true"
       lpeversion="1"
       offset_points="1.9637935,0.075169555"
       not_jump="true"
       sort_points="true"
       interpolator_type="CentripetalCatmullRom"
       interpolator_beta="0.75"
       start_linecap_type="round"
       linejoin_type="spiro"
       miter_limit="4"
       scale_width="1"
       end_linecap_type="round" />
    <inkscape:path-effect
       effect="simplify"
       id="path-effect164"
       is_visible="true"
       lpeversion="1"
       steps="1"
       threshold="0.0028332064"
       smooth_angles="0"
       helper_size="0"
       simplify_individual_paths="false"
       simplify_just_coalesce="false"
       step="1" />
    <inkscape:path-effect
       effect="powerstroke"
       id="path-effect159"
       is_visible="true"
       lpeversion="1"
       offset_points="2.2611036,0.075169555"
       not_jump="true"
       sort_points="true"
       interpolator_type="CentripetalCatmullRom"
       interpolator_beta="0.75"
       start_linecap_type="round"
       linejoin_type="spiro"
       miter_limit="4"
       scale_width="1"
       end_linecap_type="round" />
    <inkscape:path-effect
       effect="simplify"
       id="path-effect157"
       is_visible="true"
       lpeversion="1"
       steps="1"
       threshold="0.0028332064"
       smooth_angles="0"
       helper_size="0"
       simplify_individual_paths="false"
       simplify_just_coalesce="false"
       step="1" />
    <inkscape:path-effect
       effect="powerstroke"
       id="path-effect152"
       is_visible="true"
       lpeversion="1"
       offset_points="2.826981,0.075169555"
       not_jump="true"
       sort_points="true"
       interpolator_type="CentripetalCatmullRom"
       interpolator_beta="0.75"
       start_linecap_type="round"
       linejoin_type="spiro"
       miter_limit="4"
       scale_width="1"
       end_linecap_type="round" />
    <inkscape:path-effect
       effect="simplify"
       id="path-effect150"
       is_visible="true"
       lpeversion="1"
       steps="1"
       threshold="0.0028332064"
       smooth_angles="0"
       helper_size="0"
       simplify_individual_paths="false"
       simplify_just_coalesce="false"
       step="1" />
    <inkscape:path-effect
       effect="powerstroke"
       id="path-effect145"
       is_visible="true"
       lpeversion="1"
       offset_points="3.8374447,0.075169555"
       not_jump="true"
       sort_points="true"
       interpolator_type="CentripetalCatmullRom"
       interpolator_beta="0.75"
       start_linecap_type="round"
       linejoin_type="spiro"
       miter_limit="4"
       scale_width="1"
       end_linecap_type="round" />
    <inkscape:path-effect
       effect="simplify"
       id="path-effect143"
       is_visible="true"
       lpeversion="1"
       steps="1"
       threshold="0.0028332064"
       smooth_angles="0"
       helper_size="0"
       simplify_individual_paths="false"
       simplify_just_coalesce="false"
       step="1" />
    <inkscape:path-effect
       effect="powerstroke"
       id="path-effect138"
       is_visible="true"
       lpeversion="1"
       offset_points="2.6880907,0.075169555"
       not_jump="true"
       sort_points="true"
       interpolator_type="CentripetalCatmullRom"
       interpolator_beta="0.75"
       start_linecap_type="round"
       linejoin_type="spiro"
       miter_limit="4"
       scale_width="1"
       end_linecap_type="round" />
    <inkscape:path-effect
       effect="simplify"
       id="path-effect136"
       is_visible="true"
       lpeversion="1"
       steps="1"
       threshold="0.0028332064"
       smooth_angles="0"
       helper_size="0"
       simplify_individual_paths="false"
       simplify_just_coalesce="false"
       step="1" />
    <inkscape:path-effect
       effect="powerstroke"
       id="path-effect131"
       is_visible="true"
       lpeversion="1"
       offset_points="1.9940581,0.075169555"
       not_jump="true"
       sort_points="true"
       interpolator_type="CentripetalCatmullRom"
       interpolator_beta="0.75"
       start_linecap_type="round"
       linejoin_type="spiro"
       miter_limit="4"
       scale_width="1"
       end_linecap_type="round" />
    <inkscape:path-effect
       effect="simplify"
       id="path-effect129"
       is_visible="true"
       lpeversion="1"
       steps="1"
       threshold="0.0028332064"
       smooth_angles="0"
       helper_size="0"
       simplify_individual_paths="false"
       simplify_just_coalesce="false"
       step="1" />
  </defs>
  <sodipodi:namedview
     id="base"
     pagecolor="#ffffff"
     bordercolor="#666666"
     borderopacity="1.0"
     inkscape:pageopacity="0.0"
     inkscape:pageshadow="2"
     inkscape:zoom="7.919596"
     inkscape:cx="-5.1770318"
     inkscape:cy="20.834396"
     inkscape:document-units="mm"
     inkscape:current-layer="layer1"
     showgrid="false"
     fit-margin-top="0"
     fit-margin-left="0"
     fit-margin-right="0"
     fit-margin-bottom="0"
     inkscape:window-width="1920"
     inkscape:window-height="974"
     inkscape:window-x="-11"
     inkscape:window-y="2889"
     inkscape:window-maximized="1"
     showguides="true"
     inkscape:guide-bbox="true"
     inkscape:snap-bbox="true"
     inkscape:bbox-nodes="true"
     inkscape:snap-nodes="false"
     inkscape:snap-others="false"
     inkscape:snap-page="true"
     inkscape:snap-grids="false"
     inkscape:snap-to-guides="false"
     inkscape:snap-global="false"
     inkscape:pagecheckerboard="0"
     inkscape:showpageshadow="2"
     inkscape:deskcolor="#d1d1d1">
    <sodipodi:guide
       position="-6.1806075,9.4988692"
       orientation="0,1"
       id="guide816"
       inkscape:locked="false" />
    <sodipodi:guide
       position="-4.4101636,10.646923"
       orientation="0,1"
       id="guide818"
       inkscape:locked="false" />
    <sodipodi:guide
       position="2.7595724,11.09577"
       orientation="1,0"
       id="guide820"
       inkscape:locked="false" />
    <sodipodi:guide
       position="3.6572659,10.942217"
       orientation="1,0"
       id="guide822"
       inkscape:locked="false" />
    <sodipodi:guide
       position="-0.051625511,9.7492299"
       orientation="1,0"
       id="guide1853"
       inkscape:locked="false" />
    <sodipodi:guide
       position="-2.3720169,3.0175835"
       orientation="0,1"
       id="guide1855"
       inkscape:locked="false" />
  </sodipodi:namedview>
  <metadata
     id="metadata1678">
    <rdf:RDF>
      <cc:Work
         rdf:about="">
        <dc:format>image/svg+xml</dc:format>
        <dc:type
           rdf:resource="http://purl.org/dc/dcmitype/StillImage" />
      </cc:Work>
    </rdf:RDF>
  </metadata>
  <g
     inkscape:label="Layer 1"
     inkscape:groupmode="layer"
     id="layer1"
     transform="translate(17.028496,-147.22856)">
    <path
       d="m -13.034959,148.60885 c -0.291997,-0.0695 -0.708994,-0.10458 -1.203299,0.0337 -0.350245,0.0979 -0.722836,0.28035 -1.0553,0.56401 -0.243044,0.20419 -0.466507,0.47078 -0.625988,0.78482 -0.150521,0.2964 -0.243058,0.6334 -0.238728,0.98812 -0.0077,0.22581 0.05767,0.45129 0.171282,0.64363 0.117446,0.19883 0.285117,0.36065 0.478054,0.46782 0.1696,0.0995 0.353632,0.15278 0.525811,0.17184 0.187409,0.0208 0.358693,0.001 0.501283,-0.0365 0.01653,-0.004 0.03279,-0.009 0.04878,-0.0139 0.131612,-0.0315 0.255164,-0.0867 0.360544,-0.15035 0.118021,-0.0713 0.218642,-0.15627 0.302833,-0.24462 0.181171,-0.19013 0.309747,-0.42004 0.387199,-0.65052 0.06168,-0.18254 0.108818,-0.39883 0.120561,-0.63474 0.0092,-0.18508 -0.0039,-0.38332 -0.05137,-0.58424 5.04e-4,-0.0611 -0.0086,-0.12336 -0.02665,-0.18369 -0.01901,-0.0636 -0.04816,-0.12596 -0.08703,-0.18257 -0.03815,-0.0556 -0.08624,-0.10641 -0.1439,-0.14683 -0.0573,-0.0402 -0.123975,-0.07 -0.198394,-0.083 -0.03833,-0.005 -0.07012,-0.004 -0.100971,0.003 -0.03095,0.006 -0.05936,0.018 -0.08484,0.0337 -0.02542,0.0156 -0.04698,0.0347 -0.06502,0.0553 -0.01808,0.0207 -0.03275,0.043 -0.04459,0.0656 -0.02377,0.0453 -0.03761,0.0942 -0.04453,0.13992 -0.0071,0.047 -0.0075,0.0943 -0.0018,0.13734 0.0027,0.028 0.0073,0.0595 0.01292,0.0903 0.0195,0.10615 0.052,0.20428 0.08849,0.29169 0.05125,0.12278 0.115676,0.23694 0.180619,0.33975 0.0832,0.12837 0.198443,0.26475 0.344001,0.36586 0.06759,0.0469 0.145113,0.0886 0.231637,0.11628 0.08018,0.0256 0.169991,0.0398 0.267526,0.0333 0.04403,-0.001 0.08887,-0.0133 0.130637,-0.0325 0.0217,-0.01 0.04212,-0.0217 0.06149,-0.0346 0.01441,-0.01 0.0283,-0.0198 0.04183,-0.0305 0.05489,-0.0435 0.104178,-0.0958 0.147428,-0.13163 0.09987,-0.1 0.179775,-0.20541 0.247585,-0.32189 0.06426,-0.11039 0.116878,-0.22937 0.159155,-0.35529 0.07978,-0.23763 0.120812,-0.4942 0.136722,-0.75371 0.01825,-0.21229 0.0055,-0.43307 0.0084,-0.64848 0.02588,-0.20722 -0.02263,-0.41644 -0.12631,-0.59532 -0.102753,-0.17728 -0.261328,-0.32721 -0.457672,-0.4123 -0.138903,-0.0665 -0.295133,-0.0974 -0.449864,-0.0952 -0.152589,0.002 -0.304267,0.0365 -0.442583,0.0989 -0.335528,0.1189 -0.63426,0.30609 -0.891584,0.53275 -0.265079,0.23349 -0.486655,0.50913 -0.662298,0.79854 -0.5366,0.88445 -0.743866,1.89204 -0.787188,2.79534 -0.01632,0.36082 0.0039,0.71062 0.06885,1.04001 0.07312,0.37103 0.199773,0.70032 0.378056,0.98585 0.0043,0.007 0.0092,0.0135 0.01459,0.0196 0.0699,0.0795 0.147251,0.1417 0.224621,0.19011 0.06256,0.0391 0.125864,0.0697 0.186893,0.0936 0.02456,0.01 0.04894,0.0182 0.07298,0.0259 0.205352,0.0656 0.403524,0.0705 0.553434,0.0565 0.256845,-0.0215 0.495683,-0.0828 0.705549,-0.15209 0.20568,-0.0679 0.413331,-0.15313 0.65637,-0.26101 0.07092,-0.0329 0.144651,-0.069 0.22023,-0.10892 0.143515,-0.0759 0.307089,-0.17306 0.4639,-0.29495 0.194803,-0.15141 0.390649,-0.34957 0.528188,-0.61036 0.09588,-0.18288 0.147975,-0.3816 0.172575,-0.58948 0.02361,-0.19955 0.02126,-0.40184 0.01192,-0.5957 -0.03289,-0.45371 -0.146707,-0.88218 -0.29742,-1.2845 -0.158082,-0.42198 -0.360823,-0.82467 -0.55163,-1.18157 -0.111288,-0.1983 -0.209143,-0.35481 -0.267407,-0.44496 a 0.11536861,0.11536861 90 0 0 -0.193782,0.12526 c 0.05697,0.0881 0.153772,0.23915 0.262842,0.42912 0.188674,0.35134 0.386569,0.74328 0.540041,1.15099 0.146127,0.38819 0.254038,0.79511 0.285232,1.21925 0.0094,0.18654 0.01136,0.3746 -0.01008,0.55606 -0.02223,0.18811 -0.06857,0.3591 -0.149163,0.5117 -0.118851,0.22412 -0.290592,0.39843 -0.469327,0.53546 -0.143798,0.11025 -0.295721,0.19895 -0.432468,0.26904 -0.07179,0.0368 -0.142146,0.0698 -0.208578,0.0992 -0.239826,0.10058 -0.440811,0.17473 -0.63696,0.23106 -0.200394,0.0575 -0.420489,0.10326 -0.650059,0.11523 -0.124787,0.006 -0.283198,-0.004 -0.440835,-0.0574 -0.01831,-0.006 -0.03672,-0.0131 -0.05514,-0.0206 -0.04582,-0.0187 -0.0922,-0.0419 -0.137192,-0.0706 -0.05252,-0.0335 -0.103762,-0.0749 -0.150085,-0.12609 -0.153145,-0.24909 -0.265418,-0.53976 -0.332022,-0.87418 -0.06009,-0.30174 -0.08057,-0.62703 -0.06651,-0.96816 0.03931,-0.87105 0.23529,-1.82745 0.735629,-2.66027 0.160674,-0.26854 0.36264,-0.52262 0.602539,-0.73688 0.233846,-0.20885 0.502919,-0.37904 0.802302,-0.48681 0.0042,-0.001 0.0083,-0.003 0.01224,-0.005 0.105125,-0.0506 0.221786,-0.0797 0.339312,-0.0836 0.11679,-0.004 0.233063,0.0173 0.338278,0.0651 0.146534,0.0612 0.266712,0.16984 0.346623,0.30336 0.08086,0.13512 0.118122,0.29245 0.100117,0.44391 -5.86e-4,0.005 -0.001,0.01 -9.68e-4,0.0149 0.0016,0.23113 0.01856,0.44658 0.0054,0.64229 -0.01315,0.24764 -0.04987,0.48382 -0.120256,0.6982 -0.0372,0.11331 -0.08314,0.21847 -0.138421,0.31467 -0.05827,0.10139 -0.12638,0.19191 -0.204626,0.27138 -0.05164,0.0438 -0.0957,0.0916 -0.133781,0.12167 -0.0094,0.007 -0.01822,0.0138 -0.02661,0.0193 -0.01128,0.007 -0.02164,0.013 -0.0313,0.0172 -0.018,0.008 -0.03398,0.011 -0.04952,0.011 -0.0704,0.004 -0.131593,-0.007 -0.187394,-0.0258 -0.06064,-0.0207 -0.117097,-0.0521 -0.168572,-0.0897 -0.111982,-0.0818 -0.204094,-0.19514 -0.271482,-0.30555 -0.05654,-0.0966 -0.110588,-0.2003 -0.152689,-0.30712 -0.02995,-0.076 -0.05542,-0.15747 -0.07073,-0.2424 -0.0044,-0.0246 -0.008,-0.0495 -0.01069,-0.0746 -0.0033,-0.0235 -0.0039,-0.0474 -0.0011,-0.0723 0.0028,-0.0245 0.0085,-0.0461 0.01594,-0.0628 0.0036,-0.008 0.0071,-0.0141 0.01035,-0.0187 0.0031,-0.004 0.0058,-0.007 0.0077,-0.009 0.0018,-0.002 0.0038,-0.003 0.0067,-0.004 0.003,-0.001 0.0081,-0.002 0.01657,-0.002 0.03145,0.004 0.06713,0.0178 0.100119,0.039 0.03348,0.0216 0.06388,0.0508 0.08948,0.0857 0.02606,0.0356 0.04633,0.0759 0.05971,0.11771 0.01377,0.0431 0.01983,0.0864 0.01848,0.12677 -3.38e-4,0.0101 6.83e-4,0.0201 0.0031,0.0299 0.04465,0.18189 0.05519,0.36284 0.04151,0.53165 -0.01712,0.21125 -0.07224,0.39882 -0.141026,0.55561 -0.08143,0.19335 -0.206443,0.37429 -0.36378,0.51666 -0.07288,0.0659 -0.155984,0.12656 -0.248635,0.17561 -0.08263,0.0438 -0.17587,0.0799 -0.279009,0.10101 -0.02143,0.005 -0.03365,0.008 -0.04604,0.011 -0.107123,0.0232 -0.23435,0.0341 -0.372328,0.0162 -0.12689,-0.0165 -0.259269,-0.057 -0.381927,-0.12983 -0.137743,-0.0774 -0.25656,-0.19174 -0.340298,-0.3331 -0.08087,-0.13653 -0.124988,-0.29174 -0.12063,-0.44788 -0.0043,-0.29445 0.06913,-0.57243 0.195123,-0.82344 0.13395,-0.26685 0.323075,-0.4954 0.531744,-0.6727 0.288909,-0.2488 0.612527,-0.40898 0.915398,-0.49512 0.425369,-0.12099 0.779504,-0.0909 1.021819,-0.0333 a 0.17955399,0.17955399 90 0 0 0.08311,-0.34936 z"
       id="path-1"
       inkscape:path-effect="#path-effect208;#path-effect210"
       inkscape:original-d="m -13.076516,148.78353 c -1.37511,-0.32909 -2.97956,0.84089 -2.890142,2.29515 0.05334,0.69133 0.768061,1.13788 1.421549,0.97518 0.913512,-0.16798 1.328391,-1.26645 1.121747,-2.09416 0.01508,-0.4742 -0.653839,-0.76903 -0.551496,-0.10339 0.109176,0.47246 0.497061,1.14877 1.060088,1.0466 0.716236,-0.45939 0.778441,-1.3933 0.736332,-2.16415 0.0976,-0.70407 -0.632921,-1.1983 -1.26919,-0.91169 -1.296613,0.45231 -1.945621,1.84318 -2.174492,3.10892 -0.157202,0.94275 -0.196196,2.00416 0.326823,2.8475 0.475066,0.52045 1.265396,0.31494 1.845273,0.10497 0.721696,-0.26454 1.550079,-0.69642 1.694867,-1.53113 0.182363,-1.09602 -0.291041,-2.17314 -0.797588,-3.11911 -0.08631,-0.15274 -0.177332,-0.3028 -0.272563,-0.45014"
       style="fill:#000000;fill-rule:nonzero;stroke:none;stroke-width:1.40573" />
  </g>
</svg>
