<?xml version="1.0" encoding="UTF-8" standalone="no"?>
<!-- Created with Inkscape (http://www.inkscape.org/) -->

<svg
   width="5mm"
   height="10mm"
   viewBox="0 0 5.0000001 9.9999994"
   version="1.1"
   id="svg1681"
   inkscape:version="1.2.1 (9c6d41e410, 2022-07-14)"
   sodipodi:docname="at_symbol_5.svg"
   inkscape:export-filename="..\..\..\..\Downloads\lower a diff canvas resize 3.0.png"
   inkscape:export-xdpi="96"
   inkscape:export-ydpi="96"
   xmlns:inkscape="http://www.inkscape.org/namespaces/inkscape"
   xmlns:sodipodi="http://sodipodi.sourceforge.net/DTD/sodipodi-0.dtd"
   xmlns="http://www.w3.org/2000/svg"
   xmlns:svg="http://www.w3.org/2000/svg"
   xmlns:rdf="http://www.w3.org/1999/02/22-rdf-syntax-ns#"
   xmlns:cc="http://creativecommons.org/ns#"
   xmlns:dc="http://purl.org/dc/elements/1.1/">
  <defs
     id="defs1675">
    <inkscape:path-effect
       effect="powerstroke"
       id="path-effect520"
       is_visible="true"
       lpeversion="1"
       offset_points="2.7104209,0.13651777 | 6.1891906,0.10208306 | 6.7050343,0.12552797 | 13.23432,0.15092662 | 19.757333,0.17315044"
       not_jump="true"
       sort_points="true"
       interpolator_type="CentripetalCatmullRom"
       interpolator_beta="0.75"
       start_linecap_type="round"
       linejoin_type="spiro"
       miter_limit="4"
       scale_width="1"
       end_linecap_type="round" />
    <inkscape:path-effect
       effect="simplify"
       id="path-effect518"
       is_visible="true"
       lpeversion="1"
       steps="1"
       threshold="0.0035951417"
       smooth_angles="0"
       helper_size="0"
       simplify_individual_paths="false"
       simplify_just_coalesce="false"
       step="1" />
    <inkscape:path-effect
       effect="powerstroke"
       id="path-effect513"
       is_visible="true"
       lpeversion="1"
       offset_points="3.4665905,0.085593456 | 5.097968,0.077665417 | 18.223138,0.10717534"
       not_jump="true"
       sort_points="true"
       interpolator_type="CentripetalCatmullRom"
       interpolator_beta="0.75"
       start_linecap_type="round"
       linejoin_type="spiro"
       miter_limit="4"
       scale_width="1"
       end_linecap_type="round" />
    <inkscape:path-effect
       effect="simplify"
       id="path-effect511"
       is_visible="true"
       lpeversion="1"
       steps="1"
       threshold="0.0035951417"
       smooth_angles="0"
       helper_size="0"
       simplify_individual_paths="false"
       simplify_just_coalesce="false"
       step="1" />
    <inkscape:path-effect
       effect="powerstroke"
       id="path-effect502"
       is_visible="true"
       lpeversion="1"
       offset_points="3.0091841,0.21607495 | 7.3602657,0.17554228 | 9.4159651,0.20236537"
       not_jump="true"
       sort_points="true"
       interpolator_type="CentripetalCatmullRom"
       interpolator_beta="0.75"
       start_linecap_type="round"
       linejoin_type="spiro"
       miter_limit="4"
       scale_width="1"
       end_linecap_type="round" />
    <inkscape:path-effect
       effect="simplify"
       id="path-effect500"
       is_visible="true"
       lpeversion="1"
       steps="1"
       threshold="0.0035951417"
       smooth_angles="0"
       helper_size="0"
       simplify_individual_paths="false"
       simplify_just_coalesce="false"
       step="1" />
    <inkscape:path-effect
       effect="powerstroke"
       id="path-effect241"
       is_visible="true"
       lpeversion="1"
       offset_points="2.6879454,0.34086734"
       not_jump="true"
       sort_points="true"
       interpolator_type="CentripetalCatmullRom"
       interpolator_beta="0.75"
       start_linecap_type="round"
       linejoin_type="spiro"
       miter_limit="4"
       scale_width="1"
       end_linecap_type="round" />
    <inkscape:path-effect
       effect="simplify"
       id="path-effect239"
       is_visible="true"
       lpeversion="1"
       steps="1"
       threshold="0.0028332064"
       smooth_angles="0"
       helper_size="0"
       simplify_individual_paths="false"
       simplify_just_coalesce="false"
       step="1" />
    <inkscape:path-effect
       effect="powerstroke"
       id="path-effect234"
       is_visible="true"
       lpeversion="1"
       offset_points="2.13563,0.075169555"
       not_jump="true"
       sort_points="true"
       interpolator_type="CentripetalCatmullRom"
       interpolator_beta="0.75"
       start_linecap_type="round"
       linejoin_type="spiro"
       miter_limit="4"
       scale_width="1"
       end_linecap_type="round" />
    <inkscape:path-effect
       effect="simplify"
       id="path-effect232"
       is_visible="true"
       lpeversion="1"
       steps="1"
       threshold="0.0028332064"
       smooth_angles="0"
       helper_size="0"
       simplify_individual_paths="false"
       simplify_just_coalesce="false"
       step="1" />
    <inkscape:path-effect
       effect="powerstroke"
       id="path-effect227"
       is_visible="true"
       lpeversion="1"
       offset_points="2.1868266,0.075169555"
       not_jump="true"
       sort_points="true"
       interpolator_type="CentripetalCatmullRom"
       interpolator_beta="0.75"
       start_linecap_type="round"
       linejoin_type="spiro"
       miter_limit="4"
       scale_width="1"
       end_linecap_type="round" />
    <inkscape:path-effect
       effect="simplify"
       id="path-effect225"
       is_visible="true"
       lpeversion="1"
       steps="1"
       threshold="0.0028332064"
       smooth_angles="0"
       helper_size="0"
       simplify_individual_paths="false"
       simplify_just_coalesce="false"
       step="1" />
    <inkscape:path-effect
       effect="powerstroke"
       id="path-effect166"
       is_visible="true"
       lpeversion="1"
       offset_points="1.9637935,0.075169555"
       not_jump="true"
       sort_points="true"
       interpolator_type="CentripetalCatmullRom"
       interpolator_beta="0.75"
       start_linecap_type="round"
       linejoin_type="spiro"
       miter_limit="4"
       scale_width="1"
       end_linecap_type="round" />
    <inkscape:path-effect
       effect="simplify"
       id="path-effect164"
       is_visible="true"
       lpeversion="1"
       steps="1"
       threshold="0.0028332064"
       smooth_angles="0"
       helper_size="0"
       simplify_individual_paths="false"
       simplify_just_coalesce="false"
       step="1" />
    <inkscape:path-effect
       effect="powerstroke"
       id="path-effect159"
       is_visible="true"
       lpeversion="1"
       offset_points="2.2611036,0.075169555"
       not_jump="true"
       sort_points="true"
       interpolator_type="CentripetalCatmullRom"
       interpolator_beta="0.75"
       start_linecap_type="round"
       linejoin_type="spiro"
       miter_limit="4"
       scale_width="1"
       end_linecap_type="round" />
    <inkscape:path-effect
       effect="simplify"
       id="path-effect157"
       is_visible="true"
       lpeversion="1"
       steps="1"
       threshold="0.0028332064"
       smooth_angles="0"
       helper_size="0"
       simplify_individual_paths="false"
       simplify_just_coalesce="false"
       step="1" />
    <inkscape:path-effect
       effect="powerstroke"
       id="path-effect152"
       is_visible="true"
       lpeversion="1"
       offset_points="2.826981,0.075169555"
       not_jump="true"
       sort_points="true"
       interpolator_type="CentripetalCatmullRom"
       interpolator_beta="0.75"
       start_linecap_type="round"
       linejoin_type="spiro"
       miter_limit="4"
       scale_width="1"
       end_linecap_type="round" />
    <inkscape:path-effect
       effect="simplify"
       id="path-effect150"
       is_visible="true"
       lpeversion="1"
       steps="1"
       threshold="0.0028332064"
       smooth_angles="0"
       helper_size="0"
       simplify_individual_paths="false"
       simplify_just_coalesce="false"
       step="1" />
    <inkscape:path-effect
       effect="powerstroke"
       id="path-effect145"
       is_visible="true"
       lpeversion="1"
       offset_points="3.8374447,0.075169555"
       not_jump="true"
       sort_points="true"
       interpolator_type="CentripetalCatmullRom"
       interpolator_beta="0.75"
       start_linecap_type="round"
       linejoin_type="spiro"
       miter_limit="4"
       scale_width="1"
       end_linecap_type="round" />
    <inkscape:path-effect
       effect="simplify"
       id="path-effect143"
       is_visible="true"
       lpeversion="1"
       steps="1"
       threshold="0.0028332064"
       smooth_angles="0"
       helper_size="0"
       simplify_individual_paths="false"
       simplify_just_coalesce="false"
       step="1" />
    <inkscape:path-effect
       effect="powerstroke"
       id="path-effect138"
       is_visible="true"
       lpeversion="1"
       offset_points="2.6880907,0.075169555"
       not_jump="true"
       sort_points="true"
       interpolator_type="CentripetalCatmullRom"
       interpolator_beta="0.75"
       start_linecap_type="round"
       linejoin_type="spiro"
       miter_limit="4"
       scale_width="1"
       end_linecap_type="round" />
    <inkscape:path-effect
       effect="simplify"
       id="path-effect136"
       is_visible="true"
       lpeversion="1"
       steps="1"
       threshold="0.0028332064"
       smooth_angles="0"
       helper_size="0"
       simplify_individual_paths="false"
       simplify_just_coalesce="false"
       step="1" />
    <inkscape:path-effect
       effect="powerstroke"
       id="path-effect131"
       is_visible="true"
       lpeversion="1"
       offset_points="1.9940581,0.075169555"
       not_jump="true"
       sort_points="true"
       interpolator_type="CentripetalCatmullRom"
       interpolator_beta="0.75"
       start_linecap_type="round"
       linejoin_type="spiro"
       miter_limit="4"
       scale_width="1"
       end_linecap_type="round" />
    <inkscape:path-effect
       effect="simplify"
       id="path-effect129"
       is_visible="true"
       lpeversion="1"
       steps="1"
       threshold="0.0028332064"
       smooth_angles="0"
       helper_size="0"
       simplify_individual_paths="false"
       simplify_just_coalesce="false"
       step="1" />
  </defs>
  <sodipodi:namedview
     id="base"
     pagecolor="#ffffff"
     bordercolor="#666666"
     borderopacity="1.0"
     inkscape:pageopacity="0.0"
     inkscape:pageshadow="2"
     inkscape:zoom="7.919596"
     inkscape:cx="-5.1770318"
     inkscape:cy="20.960665"
     inkscape:document-units="mm"
     inkscape:current-layer="layer1"
     showgrid="false"
     fit-margin-top="0"
     fit-margin-left="0"
     fit-margin-right="0"
     fit-margin-bottom="0"
     inkscape:window-width="3440"
     inkscape:window-height="1369"
     inkscape:window-x="1072"
     inkscape:window-y="224"
     inkscape:window-maximized="1"
     showguides="true"
     inkscape:guide-bbox="true"
     inkscape:snap-bbox="true"
     inkscape:bbox-nodes="true"
     inkscape:snap-nodes="false"
     inkscape:snap-others="false"
     inkscape:snap-page="true"
     inkscape:snap-grids="false"
     inkscape:snap-to-guides="false"
     inkscape:snap-global="false"
     inkscape:pagecheckerboard="0"
     inkscape:showpageshadow="2"
     inkscape:deskcolor="#d1d1d1">
    <sodipodi:guide
       position="-6.1806075,9.4988692"
       orientation="0,1"
       id="guide816"
       inkscape:locked="false" />
    <sodipodi:guide
       position="-4.4101636,10.646923"
       orientation="0,1"
       id="guide818"
       inkscape:locked="false" />
    <sodipodi:guide
       position="2.7595724,11.09577"
       orientation="1,0"
       id="guide820"
       inkscape:locked="false" />
    <sodipodi:guide
       position="3.6572659,10.942217"
       orientation="1,0"
       id="guide822"
       inkscape:locked="false" />
    <sodipodi:guide
       position="-0.051625511,9.7492299"
       orientation="1,0"
       id="guide1853"
       inkscape:locked="false" />
    <sodipodi:guide
       position="-2.3720169,3.0175835"
       orientation="0,1"
       id="guide1855"
       inkscape:locked="false" />
  </sodipodi:namedview>
  <metadata
     id="metadata1678">
    <rdf:RDF>
      <cc:Work
         rdf:about="">
        <dc:format>image/svg+xml</dc:format>
        <dc:type
           rdf:resource="http://purl.org/dc/dcmitype/StillImage" />
      </cc:Work>
    </rdf:RDF>
  </metadata>
  <g
     inkscape:label="Layer 1"
     inkscape:groupmode="layer"
     id="layer1"
     transform="translate(17.028496,-147.22856)">
    <path
       d="m -14.588975,148.5335 c -0.15246,-0.0395 -0.374448,-0.0642 -0.639491,0.004 -0.187026,0.0484 -0.385195,0.14159 -0.563006,0.289 -0.210841,0.17195 -0.39138,0.38856 -0.535143,0.63914 -0.136816,0.23847 -0.235693,0.49975 -0.296588,0.76679 -0.06273,0.20169 -0.07985,0.41187 -0.05835,0.61125 0.0096,0.0889 0.02678,0.17517 0.05064,0.25753 0.03204,0.11058 0.07891,0.22336 0.143961,0.33195 0.06939,0.11716 0.173457,0.22505 0.303771,0.29934 0.06199,0.0353 0.129848,0.063 0.201911,0.0797 0.07103,0.0165 0.145699,0.0223 0.221868,0.0147 0.186662,-0.0156 0.365442,-0.0813 0.517697,-0.18193 0.157843,-0.10433 0.284735,-0.24429 0.369133,-0.40347 0.12322,-0.22542 0.184244,-0.46284 0.217162,-0.67787 0.03878,-0.25331 0.04283,-0.51349 0.04411,-0.69453 -1.76e-4,-0.0477 9.7e-5,-0.0944 5.13e-4,-0.1312 0.0013,-0.11189 0.0058,-0.15208 0.0074,-0.21883 8.02e-4,-0.0329 7.92e-4,-0.0827 -0.0051,-0.14778 -0.0052,-0.0576 -0.01501,-0.13269 -0.0345,-0.21517 -0.0012,-0.005 -0.0027,-0.0104 -0.0047,-0.0153 -0.002,-0.005 -0.0045,-0.01 -0.0069,-0.0144 -0.0062,-0.0121 -0.01407,-0.0255 -0.02403,-0.0384 -0.0093,-0.012 -0.02298,-0.0271 -0.04228,-0.0398 -0.0096,-0.006 -0.02122,-0.0125 -0.03473,-0.0172 -0.01339,-0.005 -0.0282,-0.008 -0.04405,-0.008 -0.03205,-0.001 -0.06009,0.008 -0.08199,0.0213 -0.0201,0.0119 -0.03452,0.0264 -0.04427,0.0382 -0.0096,0.0116 -0.01705,0.0234 -0.02269,0.0335 -0.01069,0.0193 -0.01867,0.0396 -0.02476,0.0576 -0.006,0.0177 -0.01112,0.0361 -0.01553,0.0538 -0.0043,0.0171 -0.008,0.0341 -0.01128,0.0498 -0.0032,0.0153 -0.0059,0.0291 -0.0082,0.0406 -0.0011,0.006 -0.0021,0.0103 -0.0029,0.0141 -7.89e-4,0.004 -0.0015,0.006 -0.0017,0.007 -4.84e-4,7.7e-4 -9.43e-4,0.002 -0.0012,0.002 -2.8e-4,8.6e-4 -3.89e-4,0.002 -4.17e-4,0.003 -2.7e-5,9.1e-4 10e-6,0.002 -1.9e-5,0.003 -3e-5,9.1e-4 -1.42e-4,0.002 -2.8e-4,0.003 -0.01355,0.088 -0.01462,0.17558 -0.01107,0.26415 0.0033,0.0813 0.01032,0.1616 0.01356,0.23841 0.04604,0.56923 0.184844,1.16647 0.477643,1.71129 0.0038,0.007 0.0081,0.0136 0.01294,0.0199 0.03113,0.0405 0.06766,0.0808 0.108936,0.11775 0.04095,0.0366 0.08767,0.0708 0.139503,0.0982 0.05188,0.0274 0.109784,0.0483 0.172756,0.057 0.06352,0.009 0.130199,0.005 0.197355,-0.0163 0.07782,-0.0269 0.14274,-0.0638 0.199924,-0.10763 0.05728,-0.0439 0.106577,-0.0945 0.149372,-0.14733 0.08583,-0.10589 0.150308,-0.22671 0.201136,-0.33068 0.11765,-0.25338 0.182714,-0.51516 0.190111,-0.77188 0.01547,-0.1286 0.0262,-0.25694 0.03089,-0.38447 0.0054,-0.14807 0.0029,-0.29971 -0.01136,-0.45186 -0.02616,-0.27909 -0.09204,-0.56345 -0.223327,-0.83219 -0.06064,-0.12007 -0.135167,-0.23705 -0.226135,-0.34296 -0.08974,-0.10448 -0.196099,-0.19897 -0.320644,-0.27229 -0.0056,-0.003 -0.01149,-0.006 -0.01749,-0.009 -0.230609,-0.0991 -0.479669,-0.13039 -0.72194,-0.10813 -0.241886,0.0222 -0.478451,0.0976 -0.688272,0.21261 -0.284464,0.15284 -0.532199,0.36024 -0.738529,0.59919 -0.209299,0.24238 -0.376214,0.51741 -0.498645,0.80396 -0.26603,0.60036 -0.386054,1.25502 -0.369288,1.8945 0.01735,0.66173 0.180693,1.30587 0.477614,1.87401 0.0017,0.003 0.0036,0.007 0.0056,0.01 0.112352,0.18458 0.27182,0.32396 0.445496,0.41798 0.185016,0.10015 0.388441,0.15055 0.584861,0.15429 0.203622,0.008 0.399051,-0.0268 0.572819,-0.0842 0.09759,-0.0322 0.189203,-0.0718 0.273924,-0.11597 0.08307,-0.0433 0.162504,-0.0925 0.237483,-0.14655 0.447884,-0.2874 0.828289,-0.66209 1.133311,-1.07386 0.326913,-0.44131 0.563711,-0.91988 0.722564,-1.38815 0.0012,-0.004 0.0023,-0.007 0.0033,-0.011 0.109086,-0.40902 0.114513,-0.78762 0.113075,-0.9697 a 0.17315044,0.17315044 90 0 0 -0.34629,0.003 c 0.0013,0.17087 -0.0052,0.50996 -0.101116,0.87168 -0.148539,0.43579 -0.368878,0.87955 -0.670962,1.28749 -0.282947,0.3821 -0.633263,0.72649 -1.049359,0.99423 -0.06945,0.05 -0.13461,0.0906 -0.202512,0.12624 -0.06927,0.0364 -0.143642,0.0688 -0.222276,0.0951 -0.140217,0.0469 -0.294448,0.0745 -0.454889,0.0691 -0.14661,-0.002 -0.296529,-0.0382 -0.432793,-0.11098 -0.126263,-0.0674 -0.238231,-0.16506 -0.316601,-0.29011 -0.271242,-0.51894 -0.422627,-1.11036 -0.439769,-1.72125 -0.01663,-0.59251 0.0936,-1.19824 0.338656,-1.75418 0.109913,-0.26008 0.258369,-0.50643 0.443291,-0.72237 0.182196,-0.21276 0.398753,-0.39479 0.645603,-0.52876 0.173858,-0.0966 0.367796,-0.15923 0.563714,-0.17838 0.192653,-0.0188 0.384489,0.005 0.559694,0.0769 0.08709,0.0515 0.165567,0.11942 0.235124,0.19872 0.07307,0.0833 0.135264,0.17804 0.186429,0.27679 0.111571,0.22576 0.17114,0.47204 0.195859,0.72343 0.01346,0.13691 0.01654,0.27519 0.01211,0.41241 -0.0039,0.12018 -0.01364,0.24231 -0.02819,0.36604 -5.77e-4,0.005 -9.54e-4,0.01 -0.001,0.0148 -0.0034,0.21393 -0.05608,0.43873 -0.157274,0.65946 -0.04653,0.0964 -0.09885,0.19298 -0.162725,0.27246 -0.03115,0.0388 -0.06411,0.0722 -0.09941,0.0995 -0.0349,0.027 -0.07228,0.0481 -0.113159,0.0624 -0.01953,0.006 -0.04256,0.008 -0.06585,0.005 -0.02385,-0.003 -0.04978,-0.0116 -0.07687,-0.0257 -0.02741,-0.0143 -0.05498,-0.0337 -0.08161,-0.0573 -0.02391,-0.0211 -0.04614,-0.0448 -0.06594,-0.0693 -0.266271,-0.49789 -0.396932,-1.04966 -0.441608,-1.58125 -0.0037,-0.0715 -0.01219,-0.15666 -0.01625,-0.2331 -0.0044,-0.0793 -0.0041,-0.14668 0.0041,-0.20999 4.17e-4,-0.002 8.05e-4,-0.005 0.0012,-0.007 8.65e-4,-0.005 0.0018,-0.0111 0.0027,-0.0166 0.0019,-0.0121 0.0038,-0.0243 0.0061,-0.0376 0.0023,-0.0136 0.0048,-0.0269 0.0074,-0.0394 0.0028,-0.0132 0.0054,-0.0241 0.0079,-0.033 0.0025,-0.009 0.0048,-0.0145 0.0037,-0.0132 -0.0024,0.003 -0.004,0.005 -0.0064,0.008 -0.004,0.005 -0.01257,0.0138 -0.02661,0.022 -0.01567,0.009 -0.03734,0.0167 -0.0629,0.0158 -0.01251,-4.2e-4 -0.02395,-0.003 -0.03395,-0.006 -0.01005,-0.004 -0.01813,-0.008 -0.02426,-0.012 -0.01213,-0.008 -0.0183,-0.016 -0.02019,-0.0187 -0.0025,-0.004 -0.0019,-0.004 -3.62e-4,-0.002 l -0.01163,-0.0297 c 0.01886,0.0673 0.0308,0.1309 0.03904,0.18122 0.0097,0.0593 0.01537,0.0989 0.02059,0.13157 0.0089,0.0558 0.01788,0.103 0.02209,0.20695 0.0016,0.0384 0.0024,0.0796 0.0032,0.12881 -2.36e-4,0.17962 -0.0058,0.42442 -0.04531,0.66186 -0.0333,0.20032 -0.09251,0.41073 -0.204098,0.60596 -0.0709,0.12561 -0.175509,0.23473 -0.304455,0.31456 -0.12453,0.0771 -0.267076,0.12387 -0.412542,0.13169 -0.04976,0.003 -0.09702,-0.003 -0.142419,-0.0151 -0.0462,-0.0127 -0.09049,-0.0326 -0.131659,-0.0581 -0.08727,-0.0541 -0.156735,-0.13089 -0.202493,-0.21292 -0.05141,-0.089 -0.08826,-0.18079 -0.113632,-0.27134 -0.01889,-0.0674 -0.03247,-0.13815 -0.0399,-0.21127 -0.01686,-0.1659 -0.0015,-0.33972 0.05089,-0.5047 0.0012,-0.004 0.0022,-0.007 0.003,-0.0112 0.0555,-0.24402 0.145279,-0.48108 0.268191,-0.69562 0.128141,-0.22367 0.287013,-0.41382 0.470304,-0.56387 0.145162,-0.12096 0.306039,-0.19707 0.456535,-0.23654 0.21179,-0.0555 0.385843,-0.0357 0.501802,-0.006 a 0.13651777,0.13651777 90 0 0 0.06855,-0.2643 z"
       id="path-1"
       inkscape:path-effect="#path-effect518;#path-effect520"
       inkscape:original-d="m -14.623249,148.66565 c -0.956037,-0.22776 -1.682498,0.74991 -1.86102,1.58849 -0.223194,0.62565 0.108431,1.68109 0.933721,1.40857 0.773654,-0.23547 0.848086,-1.19141 0.838294,-1.87488 0.0037,-0.31992 -0.06658,-1.03932 -0.17482,-0.35877 0.0019,0.7063 0.142646,1.44049 0.479907,2.06544 0.56963,0.70284 1.098691,-0.46131 1.089935,-0.98799 0.100794,-0.75007 0.02859,-1.70354 -0.652904,-2.16246 -0.960336,-0.41184 -1.964336,0.3951 -2.370391,1.23738 -0.593258,1.16945 -0.590528,2.64691 0.01992,3.80625 0.407231,0.63624 1.271038,0.59712 1.82885,0.19838 0.866008,-0.53773 1.500077,-1.4297 1.829485,-2.3884 0.08318,-0.30488 0.114193,-0.62226 0.111698,-0.93777"
       style="fill:#000000;fill-rule:nonzero;stroke:none;stroke-width:1.66344" />
  </g>
</svg>
