<?xml version="1.0" encoding="UTF-8" standalone="no"?>
<!-- Created with Inkscape (http://www.inkscape.org/) -->

<svg
   width="5mm"
   height="10mm"
   viewBox="0 0 5.0000001 9.9999994"
   version="1.1"
   id="svg1681"
   inkscape:version="1.2.1 (9c6d41e410, 2022-07-14)"
   sodipodi:docname="at_symbol_13.svg"
   inkscape:export-filename="..\..\..\..\Downloads\lower a diff canvas resize 3.0.png"
   inkscape:export-xdpi="96"
   inkscape:export-ydpi="96"
   xmlns:inkscape="http://www.inkscape.org/namespaces/inkscape"
   xmlns:sodipodi="http://sodipodi.sourceforge.net/DTD/sodipodi-0.dtd"
   xmlns="http://www.w3.org/2000/svg"
   xmlns:svg="http://www.w3.org/2000/svg"
   xmlns:rdf="http://www.w3.org/1999/02/22-rdf-syntax-ns#"
   xmlns:cc="http://creativecommons.org/ns#"
   xmlns:dc="http://purl.org/dc/elements/1.1/">
  <defs
     id="defs1675">
    <inkscape:path-effect
       effect="powerstroke"
       id="path-effect153"
       is_visible="true"
       lpeversion="1"
       offset_points="4.7209899,0.15016988 | 6.5245441,0.11973277 | 8.4929911,0.13605996 | 11.003751,0.10904954 | 21.842826,0.17254419"
       not_jump="true"
       sort_points="true"
       interpolator_type="CentripetalCatmullRom"
       interpolator_beta="0.75"
       start_linecap_type="round"
       linejoin_type="spiro"
       miter_limit="4"
       scale_width="1"
       end_linecap_type="round" />
    <inkscape:path-effect
       effect="simplify"
       id="path-effect151"
       is_visible="true"
       lpeversion="1"
       steps="1"
       threshold="0.0035951417"
       smooth_angles="0"
       helper_size="0"
       simplify_individual_paths="false"
       simplify_just_coalesce="false"
       step="1" />
    <inkscape:path-effect
       effect="powerstroke"
       id="path-effect431"
       is_visible="true"
       lpeversion="1"
       offset_points="3.6217867,0.13820622 | 5.1318942,0.16124059"
       not_jump="true"
       sort_points="true"
       interpolator_type="CentripetalCatmullRom"
       interpolator_beta="0.75"
       start_linecap_type="round"
       linejoin_type="spiro"
       miter_limit="4"
       scale_width="1"
       end_linecap_type="round" />
    <inkscape:path-effect
       effect="simplify"
       id="path-effect429"
       is_visible="true"
       lpeversion="1"
       steps="1"
       threshold="0.0035951417"
       smooth_angles="0"
       helper_size="0"
       simplify_individual_paths="false"
       simplify_just_coalesce="false"
       step="1" />
    <inkscape:path-effect
       effect="powerstroke"
       id="path-effect502"
       is_visible="true"
       lpeversion="1"
       offset_points="3.0091841,0.21607495 | 7.3602657,0.17554228 | 9.4159651,0.20236537"
       not_jump="true"
       sort_points="true"
       interpolator_type="CentripetalCatmullRom"
       interpolator_beta="0.75"
       start_linecap_type="round"
       linejoin_type="spiro"
       miter_limit="4"
       scale_width="1"
       end_linecap_type="round" />
    <inkscape:path-effect
       effect="simplify"
       id="path-effect500"
       is_visible="true"
       lpeversion="1"
       steps="1"
       threshold="0.0035951417"
       smooth_angles="0"
       helper_size="0"
       simplify_individual_paths="false"
       simplify_just_coalesce="false"
       step="1" />
    <inkscape:path-effect
       effect="powerstroke"
       id="path-effect241"
       is_visible="true"
       lpeversion="1"
       offset_points="2.6879454,0.34086734"
       not_jump="true"
       sort_points="true"
       interpolator_type="CentripetalCatmullRom"
       interpolator_beta="0.75"
       start_linecap_type="round"
       linejoin_type="spiro"
       miter_limit="4"
       scale_width="1"
       end_linecap_type="round" />
    <inkscape:path-effect
       effect="simplify"
       id="path-effect239"
       is_visible="true"
       lpeversion="1"
       steps="1"
       threshold="0.0028332064"
       smooth_angles="0"
       helper_size="0"
       simplify_individual_paths="false"
       simplify_just_coalesce="false"
       step="1" />
    <inkscape:path-effect
       effect="powerstroke"
       id="path-effect234"
       is_visible="true"
       lpeversion="1"
       offset_points="2.13563,0.075169555"
       not_jump="true"
       sort_points="true"
       interpolator_type="CentripetalCatmullRom"
       interpolator_beta="0.75"
       start_linecap_type="round"
       linejoin_type="spiro"
       miter_limit="4"
       scale_width="1"
       end_linecap_type="round" />
    <inkscape:path-effect
       effect="simplify"
       id="path-effect232"
       is_visible="true"
       lpeversion="1"
       steps="1"
       threshold="0.0028332064"
       smooth_angles="0"
       helper_size="0"
       simplify_individual_paths="false"
       simplify_just_coalesce="false"
       step="1" />
    <inkscape:path-effect
       effect="powerstroke"
       id="path-effect227"
       is_visible="true"
       lpeversion="1"
       offset_points="2.1868266,0.075169555"
       not_jump="true"
       sort_points="true"
       interpolator_type="CentripetalCatmullRom"
       interpolator_beta="0.75"
       start_linecap_type="round"
       linejoin_type="spiro"
       miter_limit="4"
       scale_width="1"
       end_linecap_type="round" />
    <inkscape:path-effect
       effect="simplify"
       id="path-effect225"
       is_visible="true"
       lpeversion="1"
       steps="1"
       threshold="0.0028332064"
       smooth_angles="0"
       helper_size="0"
       simplify_individual_paths="false"
       simplify_just_coalesce="false"
       step="1" />
    <inkscape:path-effect
       effect="powerstroke"
       id="path-effect166"
       is_visible="true"
       lpeversion="1"
       offset_points="1.9637935,0.075169555"
       not_jump="true"
       sort_points="true"
       interpolator_type="CentripetalCatmullRom"
       interpolator_beta="0.75"
       start_linecap_type="round"
       linejoin_type="spiro"
       miter_limit="4"
       scale_width="1"
       end_linecap_type="round" />
    <inkscape:path-effect
       effect="simplify"
       id="path-effect164"
       is_visible="true"
       lpeversion="1"
       steps="1"
       threshold="0.0028332064"
       smooth_angles="0"
       helper_size="0"
       simplify_individual_paths="false"
       simplify_just_coalesce="false"
       step="1" />
    <inkscape:path-effect
       effect="powerstroke"
       id="path-effect159"
       is_visible="true"
       lpeversion="1"
       offset_points="2.2611036,0.075169555"
       not_jump="true"
       sort_points="true"
       interpolator_type="CentripetalCatmullRom"
       interpolator_beta="0.75"
       start_linecap_type="round"
       linejoin_type="spiro"
       miter_limit="4"
       scale_width="1"
       end_linecap_type="round" />
    <inkscape:path-effect
       effect="simplify"
       id="path-effect157"
       is_visible="true"
       lpeversion="1"
       steps="1"
       threshold="0.0028332064"
       smooth_angles="0"
       helper_size="0"
       simplify_individual_paths="false"
       simplify_just_coalesce="false"
       step="1" />
    <inkscape:path-effect
       effect="powerstroke"
       id="path-effect152"
       is_visible="true"
       lpeversion="1"
       offset_points="2.826981,0.075169555"
       not_jump="true"
       sort_points="true"
       interpolator_type="CentripetalCatmullRom"
       interpolator_beta="0.75"
       start_linecap_type="round"
       linejoin_type="spiro"
       miter_limit="4"
       scale_width="1"
       end_linecap_type="round" />
    <inkscape:path-effect
       effect="simplify"
       id="path-effect150"
       is_visible="true"
       lpeversion="1"
       steps="1"
       threshold="0.0028332064"
       smooth_angles="0"
       helper_size="0"
       simplify_individual_paths="false"
       simplify_just_coalesce="false"
       step="1" />
    <inkscape:path-effect
       effect="powerstroke"
       id="path-effect145"
       is_visible="true"
       lpeversion="1"
       offset_points="3.8374447,0.075169555"
       not_jump="true"
       sort_points="true"
       interpolator_type="CentripetalCatmullRom"
       interpolator_beta="0.75"
       start_linecap_type="round"
       linejoin_type="spiro"
       miter_limit="4"
       scale_width="1"
       end_linecap_type="round" />
    <inkscape:path-effect
       effect="simplify"
       id="path-effect143"
       is_visible="true"
       lpeversion="1"
       steps="1"
       threshold="0.0028332064"
       smooth_angles="0"
       helper_size="0"
       simplify_individual_paths="false"
       simplify_just_coalesce="false"
       step="1" />
    <inkscape:path-effect
       effect="powerstroke"
       id="path-effect138"
       is_visible="true"
       lpeversion="1"
       offset_points="2.6880907,0.075169555"
       not_jump="true"
       sort_points="true"
       interpolator_type="CentripetalCatmullRom"
       interpolator_beta="0.75"
       start_linecap_type="round"
       linejoin_type="spiro"
       miter_limit="4"
       scale_width="1"
       end_linecap_type="round" />
    <inkscape:path-effect
       effect="simplify"
       id="path-effect136"
       is_visible="true"
       lpeversion="1"
       steps="1"
       threshold="0.0028332064"
       smooth_angles="0"
       helper_size="0"
       simplify_individual_paths="false"
       simplify_just_coalesce="false"
       step="1" />
    <inkscape:path-effect
       effect="powerstroke"
       id="path-effect131"
       is_visible="true"
       lpeversion="1"
       offset_points="1.9940581,0.075169555"
       not_jump="true"
       sort_points="true"
       interpolator_type="CentripetalCatmullRom"
       interpolator_beta="0.75"
       start_linecap_type="round"
       linejoin_type="spiro"
       miter_limit="4"
       scale_width="1"
       end_linecap_type="round" />
    <inkscape:path-effect
       effect="simplify"
       id="path-effect129"
       is_visible="true"
       lpeversion="1"
       steps="1"
       threshold="0.0028332064"
       smooth_angles="0"
       helper_size="0"
       simplify_individual_paths="false"
       simplify_just_coalesce="false"
       step="1" />
  </defs>
  <sodipodi:namedview
     id="base"
     pagecolor="#ffffff"
     bordercolor="#666666"
     borderopacity="1.0"
     inkscape:pageopacity="0.0"
     inkscape:pageshadow="2"
     inkscape:zoom="7.919596"
     inkscape:cx="-5.1770318"
     inkscape:cy="20.834396"
     inkscape:document-units="mm"
     inkscape:current-layer="layer1"
     showgrid="false"
     fit-margin-top="0"
     fit-margin-left="0"
     fit-margin-right="0"
     fit-margin-bottom="0"
     inkscape:window-width="1920"
     inkscape:window-height="974"
     inkscape:window-x="-11"
     inkscape:window-y="2889"
     inkscape:window-maximized="1"
     showguides="true"
     inkscape:guide-bbox="true"
     inkscape:snap-bbox="true"
     inkscape:bbox-nodes="true"
     inkscape:snap-nodes="false"
     inkscape:snap-others="false"
     inkscape:snap-page="true"
     inkscape:snap-grids="false"
     inkscape:snap-to-guides="false"
     inkscape:snap-global="false"
     inkscape:pagecheckerboard="0"
     inkscape:showpageshadow="2"
     inkscape:deskcolor="#d1d1d1">
    <sodipodi:guide
       position="-6.1806075,9.4988692"
       orientation="0,1"
       id="guide816"
       inkscape:locked="false" />
    <sodipodi:guide
       position="-4.4101636,10.646923"
       orientation="0,1"
       id="guide818"
       inkscape:locked="false" />
    <sodipodi:guide
       position="2.7595724,11.09577"
       orientation="1,0"
       id="guide820"
       inkscape:locked="false" />
    <sodipodi:guide
       position="3.6572659,10.942217"
       orientation="1,0"
       id="guide822"
       inkscape:locked="false" />
    <sodipodi:guide
       position="-0.051625511,9.7492299"
       orientation="1,0"
       id="guide1853"
       inkscape:locked="false" />
    <sodipodi:guide
       position="-2.3720169,3.0175835"
       orientation="0,1"
       id="guide1855"
       inkscape:locked="false" />
  </sodipodi:namedview>
  <metadata
     id="metadata1678">
    <rdf:RDF>
      <cc:Work
         rdf:about="">
        <dc:format>image/svg+xml</dc:format>
        <dc:type
           rdf:resource="http://purl.org/dc/dcmitype/StillImage" />
      </cc:Work>
    </rdf:RDF>
  </metadata>
  <g
     inkscape:label="Layer 1"
     inkscape:groupmode="layer"
     id="layer1"
     transform="translate(17.028496,-147.22856)">
    <path
       d="m -12.642879,149.56434 c -0.171842,-0.0974 -0.415911,-0.18855 -0.733437,-0.19787 -0.228358,-0.007 -0.482896,0.0301 -0.73833,0.12562 -0.388224,0.13867 -0.752221,0.38836 -1.074843,0.72558 -0.218059,0.21753 -0.428003,0.46832 -0.59651,0.74725 -0.168504,0.27893 -0.29406,0.58351 -0.349129,0.91098 -0.0098,0.056 -0.0226,0.12841 -0.02108,0.20273 8.15e-4,0.0397 0.0057,0.0813 0.01738,0.12323 0.01166,0.0418 0.02959,0.082 0.05476,0.11977 0.04727,0.0847 0.106041,0.15431 0.168829,0.2114 0.06997,0.0636 0.145848,0.11253 0.21892,0.15045 0.0723,0.0375 0.144649,0.0657 0.210785,0.0871 0.09377,0.0304 0.185907,0.0505 0.268096,0.0642 0.127213,0.0239 0.25248,0.0294 0.368803,0.0188 0.128372,-0.0117 0.252328,-0.0436 0.367513,-0.0973 0.110174,-0.0481 0.213106,-0.11227 0.307117,-0.18899 0.08964,-0.0732 0.172153,-0.15858 0.246899,-0.25465 0.0071,-0.009 0.01411,-0.0183 0.02106,-0.0276 0.133952,-0.17932 0.2344,-0.38383 0.302785,-0.5895 0.05353,-0.14713 0.08358,-0.30028 0.108994,-0.44886 0.0301,-0.12166 0.02709,-0.24544 0.003,-0.36422 -3.39e-4,-0.002 -6.82e-4,-0.003 -0.001,-0.005 -0.02532,-0.12151 -0.07161,-0.23395 -0.120659,-0.3293 -0.01269,-0.0278 -0.0352,-0.0631 -0.06142,-0.0948 -0.02559,-0.0309 -0.0589,-0.0635 -0.09867,-0.0883 -0.01966,-0.0123 -0.04257,-0.0236 -0.06824,-0.0314 -0.02524,-0.008 -0.05416,-0.0119 -0.08524,-0.009 -0.03067,0.003 -0.06088,0.0123 -0.08899,0.0291 -0.02673,0.016 -0.04972,0.0376 -0.06887,0.0626 -0.0012,0.002 -0.0024,0.003 -0.0035,0.004 -0.0012,0.002 -0.0022,0.003 -0.0032,0.005 -0.01156,0.0198 -0.02753,0.0468 -0.04176,0.0749 -0.01334,0.0264 -0.02801,0.0592 -0.03763,0.0952 -0.009,0.0335 -0.01498,0.075 -0.0078,0.11972 0.0034,0.0215 0.0099,0.0434 0.02017,0.0651 0.01,0.0209 0.02311,0.0408 0.03954,0.0593 l -0.01459,-0.0211 c -3e-6,-10e-6 0.0026,0.005 0.0026,0.005 0.102462,0.19258 0.235946,0.41675 0.406044,0.62151 0.151086,0.18189 0.341093,0.361 0.581574,0.49236 0.0236,0.0115 0.03969,0.0204 0.0628,0.0326 0.02025,0.0107 0.04519,0.0237 0.07185,0.0346 0.02607,0.0107 0.05691,0.0209 0.09135,0.0257 0.03062,0.004 0.06394,0.004 0.0991,-0.003 0.05689,-0.005 0.110575,-0.0209 0.159662,-0.0458 0.04999,-0.0254 0.09438,-0.0596 0.132297,-0.0998 0.07306,-0.0774 0.1239,-0.17902 0.143368,-0.28642 0.03604,-0.17312 0.03518,-0.34869 0.02415,-0.52047 -0.01076,-0.16758 -0.031,-0.33156 -0.03636,-0.48906 -1.5e-4,-0.004 -6.24e-4,-0.009 -0.0012,-0.0132 -0.02828,-0.19966 -0.06561,-0.41164 -0.129159,-0.61674 -0.0631,-0.20363 -0.15293,-0.40403 -0.289398,-0.5839 -0.09752,-0.12877 -0.228626,-0.23906 -0.37894,-0.31061 -0.07524,-0.0358 -0.155914,-0.0622 -0.239995,-0.0759 -0.08422,-0.0137 -0.171688,-0.0147 -0.259872,1.8e-4 -0.246977,0.0267 -0.478795,0.12342 -0.682899,0.25568 -0.205432,0.13311 -0.384723,0.30344 -0.535459,0.48075 -0.280975,0.3312 -0.507338,0.69658 -0.679033,1.07663 -0.213902,0.45971 -0.383904,0.93976 -0.492061,1.42754 -0.112003,0.50514 -0.156668,1.01393 -0.119402,1.51684 0.0039,0.14043 0.02269,0.28689 0.06099,0.42713 0.04064,0.14883 0.102658,0.28848 0.19009,0.41329 0.08929,0.13688 0.212996,0.24892 0.347819,0.32535 0.100951,0.0572 0.208513,0.0948 0.317326,0.11201 0.04799,0.008 0.09702,0.0113 0.146696,0.0108 0.238781,0.0234 0.472221,-0.0197 0.684026,-0.10459 0.217126,-0.0871 0.413427,-0.21844 0.577374,-0.37041 0.183208,-0.16412 0.33509,-0.353 0.464049,-0.54621 0.133737,-0.20037 0.246339,-0.41093 0.344751,-0.60918 0.34882,-0.68936 0.577996,-1.34856 0.687116,-1.99165 0.0018,-0.0108 0.0027,-0.0217 0.0024,-0.0327 -0.0024,-0.11472 -0.02488,-0.21845 -0.05637,-0.311 -0.03427,-0.10071 -0.08041,-0.19121 -0.126341,-0.269 -0.09471,-0.16039 -0.264918,-0.3778 -0.314506,-0.44549 a 0.17254419,0.17254419 90 0 0 -0.27837,0.20396 c 0.06571,0.0897 0.211669,0.27557 0.294778,0.41711 0.03798,0.0647 0.07203,0.13317 0.09616,0.20471 0.02032,0.0603 0.03398,0.12368 0.03693,0.19097 -0.104122,0.59704 -0.319961,1.21713 -0.65402,1.87645 -0.09624,0.19347 -0.201396,0.38909 -0.323292,0.57174 -0.11727,0.17572 -0.250608,0.34041 -0.408633,0.48232 -0.138561,0.12871 -0.299113,0.23564 -0.471954,0.30547 -0.170542,0.0689 -0.350084,0.10053 -0.528797,0.0823 -0.0075,-7.7e-4 -0.0151,-0.001 -0.02266,-8.7e-4 -0.03235,0.001 -0.06461,-9.8e-4 -0.09655,-0.006 -0.06699,-0.0101 -0.13572,-0.0329 -0.202398,-0.0698 -0.08954,-0.0495 -0.173488,-0.12349 -0.236685,-0.21745 -0.06668,-0.0928 -0.115166,-0.19558 -0.14889,-0.31208 -0.03189,-0.11018 -0.04978,-0.22992 -0.0555,-0.35577 -0.03706,-0.47381 0.002,-0.95103 0.105829,-1.43006 0.10033,-0.46273 0.260029,-0.92179 0.464492,-1.36695 0.157045,-0.35868 0.364236,-0.7023 0.622465,-1.01435 0.134957,-0.16243 0.291739,-0.31347 0.466531,-0.42956 0.173057,-0.11493 0.361992,-0.19445 0.56457,-0.21892 0.06396,-0.0117 0.12031,-0.0123 0.176456,-0.004 0.05623,0.008 0.1123,0.025 0.166615,0.0497 0.109387,0.0497 0.20851,0.12936 0.283266,0.22448 0.114462,0.14709 0.194558,0.31684 0.253533,0.4994 0.05914,0.18308 0.09634,0.37685 0.126097,0.56966 0.0087,0.16995 0.03118,0.33294 0.04329,0.48838 0.01269,0.16289 0.01422,0.31341 -0.01414,0.45927 -0.01038,0.0668 -0.03915,0.12716 -0.07921,0.17179 -0.02039,0.0227 -0.04313,0.0408 -0.06719,0.0537 -0.02447,0.0132 -0.05086,0.0214 -0.07904,0.024 -0.0033,3e-4 -0.0066,5.3e-4 -0.0099,9.8e-4 -0.0033,4.5e-4 -0.0065,0.001 -0.0097,0.002 -0.0078,0.002 -0.01577,0.003 -0.02529,0.002 -0.01033,-9.4e-4 -0.02272,-0.004 -0.03815,-0.01 -0.01608,-0.006 -0.0332,-0.014 -0.0529,-0.0239 -0.01946,-0.01 -0.04249,-0.0216 -0.0653,-0.0319 -0.203761,-0.11051 -0.373737,-0.26832 -0.512984,-0.43554 -0.156993,-0.18853 -0.282194,-0.39819 -0.380541,-0.58457 -2e-6,-1e-5 -0.0025,-0.005 -0.0025,-0.005 -0.002,-0.004 -0.0041,-0.008 -0.0066,-0.0111 -0.0025,-0.004 -0.0052,-0.007 -0.008,-0.0101 -0.003,-0.004 -0.0042,-0.006 -0.0048,-0.008 -5.87e-4,-0.002 -8.26e-4,-0.003 -8.99e-4,-0.005 -1.67e-4,-0.004 5.06e-4,-0.0124 0.005,-0.0253 0.0048,-0.014 0.01279,-0.03 0.02354,-0.0478 0.0095,-0.0158 0.02029,-0.0314 0.0314,-0.047 0.0039,-0.004 0.0065,-0.004 0.0036,-0.002 -0.0027,0.002 -0.0075,0.005 -0.01276,0.006 -0.0049,0.001 -0.0081,7.3e-4 -0.0082,0.001 -1.6e-4,6.7e-4 0.0025,0.002 0.0066,0.006 0.0095,0.008 0.02124,0.0207 0.0332,0.0382 0.01175,0.0172 0.02044,0.0347 0.02444,0.0468 0.04214,0.0904 0.07627,0.1818 0.09501,0.27378 0.01861,0.0935 0.02068,0.17756 0.0037,0.25536 -8.35e-4,0.004 -0.0017,0.008 -0.0022,0.0115 -0.01912,0.15327 -0.0347,0.29007 -0.07585,0.4194 -0.05929,0.18694 -0.147247,0.36782 -0.264292,0.52238 -0.006,0.008 -0.01214,0.0159 -0.01829,0.0236 -0.06492,0.0821 -0.135679,0.15286 -0.210987,0.21177 -0.07891,0.0617 -0.163743,0.11121 -0.253962,0.14745 -0.08934,0.0355 -0.184672,0.0528 -0.284736,0.0551 -0.09071,0.002 -0.190203,-0.008 -0.29577,-0.0328 -0.07543,-0.0151 -0.15297,-0.0343 -0.229447,-0.0606 -0.05403,-0.0186 -0.110263,-0.0417 -0.164408,-0.0707 -0.05481,-0.0293 -0.107419,-0.0647 -0.153641,-0.10745 -0.04233,-0.0392 -0.0798,-0.0851 -0.109085,-0.13959 -0.0026,-0.005 -0.0055,-0.009 -0.0085,-0.0139 -0.0069,-0.0104 -0.0118,-0.0214 -0.01516,-0.0341 -0.0033,-0.0125 -0.0054,-0.0278 -0.0057,-0.047 -5.98e-4,-0.04 0.0063,-0.0833 0.01696,-0.14481 0.04754,-0.28314 0.156464,-0.55134 0.308507,-0.80364 0.152298,-0.25274 0.344796,-0.48442 0.552045,-0.69193 0.297446,-0.31241 0.621844,-0.53342 0.959699,-0.65539 0.219706,-0.0829 0.43508,-0.11419 0.625187,-0.10912 0.262573,0.007 0.459317,0.0814 0.593783,0.15765 a 0.15016988,0.15016988 90 0 0 0.148134,-0.26126 z"
       id="path-1"
       inkscape:path-effect="#path-effect151;#path-effect153"
       inkscape:original-d="m -12.716946,149.69497 c -0.768695,-0.42467 -1.707837,-0.0341 -2.277431,0.54718 -0.515473,0.48903 -0.967324,1.13431 -1.010989,1.86175 0.113803,0.45105 0.669472,0.59406 1.074955,0.61637 0.765375,-0.004 1.236786,-0.80059 1.299974,-1.48632 0.122305,-0.31476 -0.269462,-1.22198 -0.448207,-0.54791 0.248868,0.49531 0.613645,1.02803 1.161305,1.23357 0.628702,0.006 0.408065,-0.88315 0.400161,-1.3006 -0.07896,-0.58834 -0.284477,-1.41062 -0.98094,-1.50353 -0.8276,-0.007 -1.393025,0.73631 -1.771571,1.3852 -0.530491,1.012 -0.874891,2.17392 -0.761668,3.32461 0.02068,0.4867 0.340463,1.03162 0.880278,1.03151 0.817743,0.087 1.442425,-0.61274 1.788667,-1.2726 0.374556,-0.68788 0.677799,-1.43036 0.809242,-2.20357 -0.0074,-0.36262 -0.259966,-0.65014 -0.462788,-0.92701"
       style="fill:#000000;fill-rule:nonzero;stroke:none;stroke-width:1.37295" />
  </g>
</svg>
