<?xml version="1.0" encoding="UTF-8" standalone="no"?>
<!-- Created with Inkscape (http://www.inkscape.org/) -->

<svg
   width="5mm"
   height="10mm"
   viewBox="0 0 5.0000001 9.9999994"
   version="1.1"
   id="svg1681"
   inkscape:version="1.2.1 (9c6d41e410, 2022-07-14)"
   sodipodi:docname="at_symbol_4.svg"
   inkscape:export-filename="..\..\..\..\Downloads\lower a diff canvas resize 3.0.png"
   inkscape:export-xdpi="96"
   inkscape:export-ydpi="96"
   xmlns:inkscape="http://www.inkscape.org/namespaces/inkscape"
   xmlns:sodipodi="http://sodipodi.sourceforge.net/DTD/sodipodi-0.dtd"
   xmlns="http://www.w3.org/2000/svg"
   xmlns:svg="http://www.w3.org/2000/svg"
   xmlns:rdf="http://www.w3.org/1999/02/22-rdf-syntax-ns#"
   xmlns:cc="http://creativecommons.org/ns#"
   xmlns:dc="http://purl.org/dc/elements/1.1/">
  <defs
     id="defs1675">
    <inkscape:path-effect
       effect="powerstroke"
       id="path-effect472"
       is_visible="true"
       lpeversion="1"
       offset_points="4.0521283,0.12528567 | 12.810949,0.15034281 | 15.888046,0.12134149 | 21.515736,0.14199042"
       not_jump="true"
       sort_points="true"
       interpolator_type="CentripetalCatmullRom"
       interpolator_beta="0.75"
       start_linecap_type="round"
       linejoin_type="spiro"
       miter_limit="4"
       scale_width="1"
       end_linecap_type="round" />
    <inkscape:path-effect
       effect="simplify"
       id="path-effect470"
       is_visible="true"
       lpeversion="1"
       steps="1"
       threshold="0.0035951417"
       smooth_angles="0"
       helper_size="0"
       simplify_individual_paths="false"
       simplify_just_coalesce="false"
       step="1" />
    <inkscape:path-effect
       effect="powerstroke"
       id="path-effect502"
       is_visible="true"
       lpeversion="1"
       offset_points="3.0091841,0.21607495 | 7.3602657,0.17554228 | 9.4159651,0.20236537"
       not_jump="true"
       sort_points="true"
       interpolator_type="CentripetalCatmullRom"
       interpolator_beta="0.75"
       start_linecap_type="round"
       linejoin_type="spiro"
       miter_limit="4"
       scale_width="1"
       end_linecap_type="round" />
    <inkscape:path-effect
       effect="simplify"
       id="path-effect500"
       is_visible="true"
       lpeversion="1"
       steps="1"
       threshold="0.0035951417"
       smooth_angles="0"
       helper_size="0"
       simplify_individual_paths="false"
       simplify_just_coalesce="false"
       step="1" />
    <inkscape:path-effect
       effect="powerstroke"
       id="path-effect241"
       is_visible="true"
       lpeversion="1"
       offset_points="2.6879454,0.34086734"
       not_jump="true"
       sort_points="true"
       interpolator_type="CentripetalCatmullRom"
       interpolator_beta="0.75"
       start_linecap_type="round"
       linejoin_type="spiro"
       miter_limit="4"
       scale_width="1"
       end_linecap_type="round" />
    <inkscape:path-effect
       effect="simplify"
       id="path-effect239"
       is_visible="true"
       lpeversion="1"
       steps="1"
       threshold="0.0028332064"
       smooth_angles="0"
       helper_size="0"
       simplify_individual_paths="false"
       simplify_just_coalesce="false"
       step="1" />
    <inkscape:path-effect
       effect="powerstroke"
       id="path-effect234"
       is_visible="true"
       lpeversion="1"
       offset_points="2.13563,0.075169555"
       not_jump="true"
       sort_points="true"
       interpolator_type="CentripetalCatmullRom"
       interpolator_beta="0.75"
       start_linecap_type="round"
       linejoin_type="spiro"
       miter_limit="4"
       scale_width="1"
       end_linecap_type="round" />
    <inkscape:path-effect
       effect="simplify"
       id="path-effect232"
       is_visible="true"
       lpeversion="1"
       steps="1"
       threshold="0.0028332064"
       smooth_angles="0"
       helper_size="0"
       simplify_individual_paths="false"
       simplify_just_coalesce="false"
       step="1" />
    <inkscape:path-effect
       effect="powerstroke"
       id="path-effect227"
       is_visible="true"
       lpeversion="1"
       offset_points="2.1868266,0.075169555"
       not_jump="true"
       sort_points="true"
       interpolator_type="CentripetalCatmullRom"
       interpolator_beta="0.75"
       start_linecap_type="round"
       linejoin_type="spiro"
       miter_limit="4"
       scale_width="1"
       end_linecap_type="round" />
    <inkscape:path-effect
       effect="simplify"
       id="path-effect225"
       is_visible="true"
       lpeversion="1"
       steps="1"
       threshold="0.0028332064"
       smooth_angles="0"
       helper_size="0"
       simplify_individual_paths="false"
       simplify_just_coalesce="false"
       step="1" />
    <inkscape:path-effect
       effect="powerstroke"
       id="path-effect166"
       is_visible="true"
       lpeversion="1"
       offset_points="1.9637935,0.075169555"
       not_jump="true"
       sort_points="true"
       interpolator_type="CentripetalCatmullRom"
       interpolator_beta="0.75"
       start_linecap_type="round"
       linejoin_type="spiro"
       miter_limit="4"
       scale_width="1"
       end_linecap_type="round" />
    <inkscape:path-effect
       effect="simplify"
       id="path-effect164"
       is_visible="true"
       lpeversion="1"
       steps="1"
       threshold="0.0028332064"
       smooth_angles="0"
       helper_size="0"
       simplify_individual_paths="false"
       simplify_just_coalesce="false"
       step="1" />
    <inkscape:path-effect
       effect="powerstroke"
       id="path-effect159"
       is_visible="true"
       lpeversion="1"
       offset_points="2.2611036,0.075169555"
       not_jump="true"
       sort_points="true"
       interpolator_type="CentripetalCatmullRom"
       interpolator_beta="0.75"
       start_linecap_type="round"
       linejoin_type="spiro"
       miter_limit="4"
       scale_width="1"
       end_linecap_type="round" />
    <inkscape:path-effect
       effect="simplify"
       id="path-effect157"
       is_visible="true"
       lpeversion="1"
       steps="1"
       threshold="0.0028332064"
       smooth_angles="0"
       helper_size="0"
       simplify_individual_paths="false"
       simplify_just_coalesce="false"
       step="1" />
    <inkscape:path-effect
       effect="powerstroke"
       id="path-effect152"
       is_visible="true"
       lpeversion="1"
       offset_points="2.826981,0.075169555"
       not_jump="true"
       sort_points="true"
       interpolator_type="CentripetalCatmullRom"
       interpolator_beta="0.75"
       start_linecap_type="round"
       linejoin_type="spiro"
       miter_limit="4"
       scale_width="1"
       end_linecap_type="round" />
    <inkscape:path-effect
       effect="simplify"
       id="path-effect150"
       is_visible="true"
       lpeversion="1"
       steps="1"
       threshold="0.0028332064"
       smooth_angles="0"
       helper_size="0"
       simplify_individual_paths="false"
       simplify_just_coalesce="false"
       step="1" />
    <inkscape:path-effect
       effect="powerstroke"
       id="path-effect145"
       is_visible="true"
       lpeversion="1"
       offset_points="3.8374447,0.075169555"
       not_jump="true"
       sort_points="true"
       interpolator_type="CentripetalCatmullRom"
       interpolator_beta="0.75"
       start_linecap_type="round"
       linejoin_type="spiro"
       miter_limit="4"
       scale_width="1"
       end_linecap_type="round" />
    <inkscape:path-effect
       effect="simplify"
       id="path-effect143"
       is_visible="true"
       lpeversion="1"
       steps="1"
       threshold="0.0028332064"
       smooth_angles="0"
       helper_size="0"
       simplify_individual_paths="false"
       simplify_just_coalesce="false"
       step="1" />
    <inkscape:path-effect
       effect="powerstroke"
       id="path-effect138"
       is_visible="true"
       lpeversion="1"
       offset_points="2.6880907,0.075169555"
       not_jump="true"
       sort_points="true"
       interpolator_type="CentripetalCatmullRom"
       interpolator_beta="0.75"
       start_linecap_type="round"
       linejoin_type="spiro"
       miter_limit="4"
       scale_width="1"
       end_linecap_type="round" />
    <inkscape:path-effect
       effect="simplify"
       id="path-effect136"
       is_visible="true"
       lpeversion="1"
       steps="1"
       threshold="0.0028332064"
       smooth_angles="0"
       helper_size="0"
       simplify_individual_paths="false"
       simplify_just_coalesce="false"
       step="1" />
    <inkscape:path-effect
       effect="powerstroke"
       id="path-effect131"
       is_visible="true"
       lpeversion="1"
       offset_points="1.9940581,0.075169555"
       not_jump="true"
       sort_points="true"
       interpolator_type="CentripetalCatmullRom"
       interpolator_beta="0.75"
       start_linecap_type="round"
       linejoin_type="spiro"
       miter_limit="4"
       scale_width="1"
       end_linecap_type="round" />
    <inkscape:path-effect
       effect="simplify"
       id="path-effect129"
       is_visible="true"
       lpeversion="1"
       steps="1"
       threshold="0.0028332064"
       smooth_angles="0"
       helper_size="0"
       simplify_individual_paths="false"
       simplify_just_coalesce="false"
       step="1" />
  </defs>
  <sodipodi:namedview
     id="base"
     pagecolor="#ffffff"
     bordercolor="#666666"
     borderopacity="1.0"
     inkscape:pageopacity="0.0"
     inkscape:pageshadow="2"
     inkscape:zoom="7.919596"
     inkscape:cx="-5.1770318"
     inkscape:cy="20.960665"
     inkscape:document-units="mm"
     inkscape:current-layer="layer1"
     showgrid="false"
     fit-margin-top="0"
     fit-margin-left="0"
     fit-margin-right="0"
     fit-margin-bottom="0"
     inkscape:window-width="3440"
     inkscape:window-height="1369"
     inkscape:window-x="1072"
     inkscape:window-y="224"
     inkscape:window-maximized="1"
     showguides="true"
     inkscape:guide-bbox="true"
     inkscape:snap-bbox="true"
     inkscape:bbox-nodes="true"
     inkscape:snap-nodes="false"
     inkscape:snap-others="false"
     inkscape:snap-page="true"
     inkscape:snap-grids="false"
     inkscape:snap-to-guides="false"
     inkscape:snap-global="false"
     inkscape:pagecheckerboard="0"
     inkscape:showpageshadow="2"
     inkscape:deskcolor="#d1d1d1">
    <sodipodi:guide
       position="-6.1806075,9.4988692"
       orientation="0,1"
       id="guide816"
       inkscape:locked="false" />
    <sodipodi:guide
       position="-4.4101636,10.646923"
       orientation="0,1"
       id="guide818"
       inkscape:locked="false" />
    <sodipodi:guide
       position="2.7595724,11.09577"
       orientation="1,0"
       id="guide820"
       inkscape:locked="false" />
    <sodipodi:guide
       position="3.6572659,10.942217"
       orientation="1,0"
       id="guide822"
       inkscape:locked="false" />
    <sodipodi:guide
       position="-0.051625511,9.7492299"
       orientation="1,0"
       id="guide1853"
       inkscape:locked="false" />
    <sodipodi:guide
       position="-2.3720169,3.0175835"
       orientation="0,1"
       id="guide1855"
       inkscape:locked="false" />
  </sodipodi:namedview>
  <metadata
     id="metadata1678">
    <rdf:RDF>
      <cc:Work
         rdf:about="">
        <dc:format>image/svg+xml</dc:format>
        <dc:type
           rdf:resource="http://purl.org/dc/dcmitype/StillImage" />
      </cc:Work>
    </rdf:RDF>
  </metadata>
  <g
     inkscape:label="Layer 1"
     inkscape:groupmode="layer"
     id="layer1"
     transform="translate(17.028496,-147.22856)">
    <path
       d="m -14.983039,149.21989 c -0.189385,-0.0402 -0.463025,-0.0484 -0.748823,0.067 -0.111055,0.0448 -0.223876,0.10889 -0.326288,0.19672 -0.09338,0.0801 -0.178658,0.18046 -0.243534,0.30343 -0.04748,0.0814 -0.07733,0.17382 -0.09635,0.27104 -0.01733,0.0886 -0.02491,0.1768 -0.03285,0.2629 -0.02887,0.24086 -0.03824,0.50225 -0.0096,0.7639 0.02779,0.25365 0.09153,0.50923 0.208932,0.74994 0.07019,0.14329 0.167619,0.27632 0.287823,0.38554 0.120647,0.10963 0.264038,0.19505 0.424532,0.24198 0.0105,0.003 0.02138,0.005 0.03232,0.005 0.01625,3.7e-4 0.03244,2.8e-4 0.04857,-2.7e-4 0.132696,-0.004 0.26806,-0.0397 0.393471,-0.1067 0.128961,-0.0689 0.248259,-0.17207 0.335364,-0.30715 0.124699,-0.18946 0.202406,-0.40013 0.256319,-0.62092 0.05157,-0.2112 0.08011,-0.42567 0.110575,-0.63662 0.01323,-0.0865 0.02892,-0.18476 0.03666,-0.28281 0.0077,-0.0971 0.0083,-0.2009 -0.0094,-0.3078 -0.01722,-0.1192 -0.03864,-0.25657 -0.07802,-0.38929 -0.01972,-0.0665 -0.04435,-0.1333 -0.07614,-0.19819 -0.03173,-0.0648 -0.07068,-0.1278 -0.119145,-0.18672 -0.03002,-0.0398 -0.07227,-0.0726 -0.11897,-0.0939 -0.04634,-0.0211 -0.09563,-0.0304 -0.14359,-0.0298 -0.09505,0.001 -0.190922,0.0411 -0.259253,0.11551 -0.0085,0.009 -0.01697,0.0186 -0.02384,0.0292 -0.0069,0.0105 -0.01208,0.0222 -0.01482,0.0345 -0.0027,0.0123 -0.003,0.025 -0.0013,0.0375 0.0017,0.0125 0.0052,0.0246 0.0087,0.0367 0.09793,0.32949 0.134057,0.674 0.174401,1.02895 0.0408,0.35899 0.08564,0.72468 0.20554,1.07994 0.07196,0.22304 0.166668,0.44933 0.295374,0.65325 0.133382,0.21133 0.302311,0.39702 0.517864,0.53191 0.07766,0.0451 0.156672,0.0867 0.240989,0.11838 0.0898,0.0337 0.18507,0.0558 0.284698,0.0556 0.09564,-0.002 0.181053,-0.0219 0.257827,-0.0532 0.08025,-0.0327 0.151131,-0.0777 0.212355,-0.12796 0.08111,-0.0666 0.147669,-0.14426 0.200387,-0.22169 0.03444,-0.0506 0.06378,-0.10225 0.08828,-0.15301 0.145387,-0.29339 0.229207,-0.61421 0.286275,-0.84648 0.08859,-0.4494 0.09649,-0.89907 0.03065,-1.32602 -0.06588,-0.4272 -0.209015,-0.85395 -0.444652,-1.2424 -0.119596,-0.1928 -0.27044,-0.38622 -0.455286,-0.56034 -0.129109,-0.12162 -0.279415,-0.2381 -0.451214,-0.33649 -0.04649,-0.0266 -0.09483,-0.0521 -0.145007,-0.076 -0.223987,-0.10087 -0.473195,-0.13874 -0.732585,-0.11393 -0.236538,0.0226 -0.476839,0.0972 -0.696745,0.21713 -0.249829,0.13235 -0.478565,0.31095 -0.677758,0.52588 -0.192674,0.2079 -0.355665,0.44767 -0.48243,0.70706 -0.264598,0.52227 -0.423318,1.10615 -0.458668,1.69826 -0.03543,0.59346 0.05332,1.19116 0.278629,1.74122 0.137316,0.3294 0.310755,0.63267 0.535363,0.88761 0.189387,0.19478 0.414877,0.31693 0.64149,0.38688 0.250194,0.0772 0.504577,0.0922 0.731953,0.0674 0.337307,-0.033 0.636737,-0.13302 0.881039,-0.24573 0.0088,-0.004 0.01745,-0.008 0.02609,-0.0122 0.277456,-0.1311 0.526186,-0.29778 0.740806,-0.47386 0.614996,-0.48857 0.9266,-1.03547 1.068394,-1.32973 a 0.14199042,0.14199042 90 0 0 -0.255828,-0.12328 c -0.13042,0.27066 -0.419684,0.77652 -0.991634,1.2313 -0.201425,0.16536 -0.430487,0.31882 -0.683314,0.43893 -0.0079,0.004 -0.01577,0.007 -0.02373,0.0111 -0.222586,0.1033 -0.490904,0.19341 -0.791429,0.22428 -0.195345,0.0225 -0.411984,0.0107 -0.621821,-0.0524 -0.190371,-0.0572 -0.374687,-0.15646 -0.524157,-0.30763 -0.198288,-0.22039 -0.360924,-0.49472 -0.493264,-0.80288 -0.21044,-0.50932 -0.295888,-1.06779 -0.264154,-1.62629 0.03167,-0.55735 0.179685,-1.10793 0.428427,-1.60207 0.116002,-0.24057 0.264298,-0.46079 0.439155,-0.65112 0.180694,-0.19668 0.387165,-0.35872 0.612291,-0.47883 0.193312,-0.10627 0.401959,-0.17111 0.60441,-0.19068 0.221319,-0.0214 0.427861,0.0115 0.607354,0.093 0.04198,0.0202 0.08482,0.043 0.126099,0.0668 0.152649,0.0883 0.286783,0.19358 0.402489,0.3047 0.165743,0.15917 0.300578,0.3368 0.406548,0.51402 0.21279,0.35783 0.341123,0.75278 0.398002,1.14966 0.05686,0.39672 0.04499,0.81423 -0.03959,1.2232 -0.06178,0.222 -0.147398,0.51619 -0.280248,0.77697 -0.01969,0.0396 -0.04218,0.0782 -0.06819,0.11576 -0.04009,0.0579 -0.08835,0.11275 -0.143768,0.15785 -0.04168,0.0339 -0.08689,0.0619 -0.135022,0.0814 -0.04565,0.0185 -0.09468,0.0297 -0.147222,0.0308 -0.05159,6e-5 -0.110379,-0.0118 -0.17578,-0.0359 -0.06216,-0.0229 -0.12505,-0.0549 -0.192295,-0.093 -0.164969,-0.10262 -0.30509,-0.25257 -0.420408,-0.43362 -0.112172,-0.1761 -0.198511,-0.37737 -0.267197,-0.58669 -0.110131,-0.32308 -0.153606,-0.65914 -0.195925,-1.02039 -0.04074,-0.34779 -0.08043,-0.71962 -0.188386,-1.078 l -0.03123,0.13781 c 0.0122,-0.0145 0.03183,-0.0241 0.05182,-0.0252 0.0093,-5.3e-4 0.0171,8.9e-4 0.02304,0.003 0.0056,0.002 0.01089,0.006 0.01578,0.0113 0.03674,0.0438 0.06494,0.0878 0.08905,0.13561 0.02423,0.048 0.04424,0.0998 0.06119,0.15461 0.03443,0.11138 0.05494,0.23092 0.07403,0.35283 0.01464,0.081 0.01616,0.16155 0.01081,0.24557 -0.0055,0.0864 -0.0181,0.17409 -0.03062,0.2647 -0.02987,0.21649 -0.05542,0.41673 -0.102204,0.61321 -0.04826,0.2027 -0.115588,0.38383 -0.219145,0.5429 -0.06167,0.0973 -0.146807,0.17267 -0.24065,0.22355 -0.09107,0.0494 -0.18864,0.075 -0.282876,0.0785 -0.0061,2.3e-4 -0.01215,3.6e-4 -0.01823,4.1e-4 -0.114071,-0.0358 -0.219228,-0.0984 -0.310813,-0.18134 -0.09573,-0.0866 -0.174742,-0.19372 -0.23191,-0.31016 -0.102508,-0.2099 -0.159992,-0.4367 -0.185319,-0.66772 -0.02614,-0.23841 -0.01788,-0.48037 0.0097,-0.71056 0.0087,-0.0927 0.01539,-0.16746 0.02995,-0.24115 0.01545,-0.0782 0.03766,-0.14241 0.07015,-0.19796 0.05133,-0.0969 0.115984,-0.17316 0.187988,-0.2348 0.0793,-0.0679 0.168028,-0.1185 0.257248,-0.15442 0.230947,-0.093 0.452462,-0.0859 0.603218,-0.0539 a 0.12528567,0.12528567 90 0 0 0.05206,-0.2451 z"
       id="path-1"
       inkscape:path-effect="#path-effect470;#path-effect472"
       inkscape:original-d="m -15.009069,149.34244 c -0.622294,-0.12563 -1.275289,0.25468 -1.288216,0.92181 -0.111692,0.71498 1.83e-4,1.82813 0.813103,2.07782 0.888569,-0.0101 0.948067,-1.14515 1.042654,-1.79268 0.04752,-0.32278 -0.153968,-1.3883 -0.562311,-1.03018 0.165312,0.54138 0.16,1.13186 0.274498,1.69489 0.141654,0.67451 0.480965,1.51557 1.248607,1.66365 0.630871,0.0164 0.803705,-0.74209 0.951141,-1.21415 0.283836,-1.23971 -0.09877,-2.76959 -1.283097,-3.43015 -0.87844,-0.45392 -1.873371,0.2006 -2.3359,0.93819 -0.828788,1.32696 -0.87512,3.20285 0.137434,4.45069 0.739272,0.78109 1.982118,0.42549 2.727596,-0.15771 0.496451,-0.35903 0.904198,-0.83759 1.168127,-1.38531"
       style="fill:#000000;fill-rule:nonzero;stroke:none;stroke-width:1.58028" />
  </g>
</svg>
