<?xml version="1.0" encoding="UTF-8" standalone="no"?>
<!-- Created with Inkscape (http://www.inkscape.org/) -->

<svg
   width="4mm"
   height="10mm"
   viewBox="0 0 4.0000001 9.9999994"
   version="1.1"
   id="svg1681"
   inkscape:version="1.2.1 (9c6d41e410, 2022-07-14)"
   sodipodi:docname="upper_r_3.svg"
   inkscape:export-filename="..\..\..\..\Downloads\lower a diff canvas resize 3.0.png"
   inkscape:export-xdpi="96"
   inkscape:export-ydpi="96"
   xmlns:inkscape="http://www.inkscape.org/namespaces/inkscape"
   xmlns:sodipodi="http://sodipodi.sourceforge.net/DTD/sodipodi-0.dtd"
   xmlns="http://www.w3.org/2000/svg"
   xmlns:svg="http://www.w3.org/2000/svg"
   xmlns:rdf="http://www.w3.org/1999/02/22-rdf-syntax-ns#"
   xmlns:cc="http://creativecommons.org/ns#"
   xmlns:dc="http://purl.org/dc/elements/1.1/">
  <defs
     id="defs1675">
    <inkscape:path-effect
       effect="powerstroke"
       id="path-effect384"
       is_visible="true"
       lpeversion="1"
       offset_points="1.984572,0.11769712 | 6.0192486,0.13311275 | 8.3820056,0.15684793"
       not_jump="true"
       sort_points="true"
       interpolator_type="CentripetalCatmullRom"
       interpolator_beta="0.75"
       start_linecap_type="round"
       linejoin_type="spiro"
       miter_limit="4"
       scale_width="1"
       end_linecap_type="round" />
    <inkscape:path-effect
       effect="simplify"
       id="path-effect382"
       is_visible="true"
       lpeversion="1"
       steps="1"
       threshold="0.0047745358"
       smooth_angles="0"
       helper_size="0"
       simplify_individual_paths="false"
       simplify_just_coalesce="false"
       step="1" />
    <inkscape:path-effect
       effect="powerstroke"
       id="path-effect376"
       is_visible="true"
       lpeversion="1"
       offset_points="0.41880271,0.10644126"
       not_jump="true"
       sort_points="true"
       interpolator_type="CentripetalCatmullRom"
       interpolator_beta="0.75"
       start_linecap_type="round"
       linejoin_type="spiro"
       miter_limit="4"
       scale_width="1"
       end_linecap_type="round" />
    <inkscape:path-effect
       effect="simplify"
       id="path-effect374"
       is_visible="true"
       lpeversion="1"
       steps="1"
       threshold="0.0047745358"
       smooth_angles="0"
       helper_size="0"
       simplify_individual_paths="false"
       simplify_just_coalesce="false"
       step="1" />
    <inkscape:path-effect
       effect="powerstroke"
       id="path-effect324"
       is_visible="true"
       lpeversion="1"
       offset_points="1.47212,0.10888819 | 5.6326087,0.13017644 | 7.5744735,0.14877308"
       not_jump="true"
       sort_points="true"
       interpolator_type="CentripetalCatmullRom"
       interpolator_beta="0.75"
       start_linecap_type="round"
       linejoin_type="spiro"
       miter_limit="4"
       scale_width="1"
       end_linecap_type="round" />
    <inkscape:path-effect
       effect="simplify"
       id="path-effect322"
       is_visible="true"
       lpeversion="1"
       steps="1"
       threshold="0.0047745358"
       smooth_angles="0"
       helper_size="0"
       simplify_individual_paths="false"
       simplify_just_coalesce="false"
       step="1" />
    <inkscape:path-effect
       effect="powerstroke"
       id="path-effect317"
       is_visible="true"
       lpeversion="1"
       offset_points="0.21345164,0.099834564"
       not_jump="true"
       sort_points="true"
       interpolator_type="CentripetalCatmullRom"
       interpolator_beta="0.75"
       start_linecap_type="round"
       linejoin_type="spiro"
       miter_limit="4"
       scale_width="1"
       end_linecap_type="round" />
    <inkscape:path-effect
       effect="simplify"
       id="path-effect315"
       is_visible="true"
       lpeversion="1"
       steps="1"
       threshold="0.0047745358"
       smooth_angles="0"
       helper_size="0"
       simplify_individual_paths="false"
       simplify_just_coalesce="false"
       step="1" />
    <inkscape:path-effect
       effect="powerstroke"
       id="path-effect269"
       is_visible="true"
       lpeversion="1"
       offset_points="1.483013,0.078546311 | 5.7732082,0.12405913"
       not_jump="true"
       sort_points="true"
       interpolator_type="CentripetalCatmullRom"
       interpolator_beta="0.75"
       start_linecap_type="round"
       linejoin_type="spiro"
       miter_limit="4"
       scale_width="1"
       end_linecap_type="round" />
    <inkscape:path-effect
       effect="simplify"
       id="path-effect267"
       is_visible="true"
       lpeversion="1"
       steps="1"
       threshold="0.0047745358"
       smooth_angles="0"
       helper_size="0"
       simplify_individual_paths="false"
       simplify_just_coalesce="false"
       step="1" />
    <inkscape:path-effect
       effect="powerstroke"
       id="path-effect262"
       is_visible="true"
       lpeversion="1"
       offset_points="0.26681479,0.09371725"
       not_jump="true"
       sort_points="true"
       interpolator_type="CentripetalCatmullRom"
       interpolator_beta="0.75"
       start_linecap_type="round"
       linejoin_type="spiro"
       miter_limit="4"
       scale_width="1"
       end_linecap_type="round" />
    <inkscape:path-effect
       effect="simplify"
       id="path-effect260"
       is_visible="true"
       lpeversion="1"
       steps="1"
       threshold="0.0047745358"
       smooth_angles="0"
       helper_size="0"
       simplify_individual_paths="false"
       simplify_just_coalesce="false"
       step="1" />
    <inkscape:path-effect
       effect="powerstroke"
       id="path-effect388"
       is_visible="true"
       lpeversion="1"
       offset_points="1.4987633,0.12586803 | 3.8634606,0.15518345 | 5.2668693,0.11914431 | 9.6457555,0.1538387 | 11.904742,0.12909541"
       not_jump="true"
       sort_points="true"
       interpolator_type="CentripetalCatmullRom"
       interpolator_beta="0.75"
       start_linecap_type="round"
       linejoin_type="spiro"
       miter_limit="4"
       scale_width="1"
       end_linecap_type="round" />
    <inkscape:path-effect
       effect="simplify"
       id="path-effect386"
       is_visible="true"
       lpeversion="1"
       steps="1"
       threshold="0.0035951417"
       smooth_angles="0"
       helper_size="0"
       simplify_individual_paths="false"
       simplify_just_coalesce="false"
       step="1" />
    <inkscape:path-effect
       effect="powerstroke"
       id="path-effect381"
       is_visible="true"
       lpeversion="1"
       offset_points="4.0204944,0.081629437"
       not_jump="true"
       sort_points="true"
       interpolator_type="CentripetalCatmullRom"
       interpolator_beta="0.75"
       start_linecap_type="round"
       linejoin_type="spiro"
       miter_limit="4"
       scale_width="1"
       end_linecap_type="round" />
    <inkscape:path-effect
       effect="simplify"
       id="path-effect379"
       is_visible="true"
       lpeversion="1"
       steps="1"
       threshold="0.0035951417"
       smooth_angles="0"
       helper_size="0"
       simplify_individual_paths="false"
       simplify_just_coalesce="false"
       step="1" />
    <inkscape:path-effect
       effect="powerstroke"
       id="path-effect502"
       is_visible="true"
       lpeversion="1"
       offset_points="3.0091841,0.21607495 | 7.3602657,0.17554228 | 9.4159651,0.20236537"
       not_jump="true"
       sort_points="true"
       interpolator_type="CentripetalCatmullRom"
       interpolator_beta="0.75"
       start_linecap_type="round"
       linejoin_type="spiro"
       miter_limit="4"
       scale_width="1"
       end_linecap_type="round" />
    <inkscape:path-effect
       effect="simplify"
       id="path-effect500"
       is_visible="true"
       lpeversion="1"
       steps="1"
       threshold="0.0035951417"
       smooth_angles="0"
       helper_size="0"
       simplify_individual_paths="false"
       simplify_just_coalesce="false"
       step="1" />
    <inkscape:path-effect
       effect="powerstroke"
       id="path-effect241"
       is_visible="true"
       lpeversion="1"
       offset_points="2.6879454,0.34086734"
       not_jump="true"
       sort_points="true"
       interpolator_type="CentripetalCatmullRom"
       interpolator_beta="0.75"
       start_linecap_type="round"
       linejoin_type="spiro"
       miter_limit="4"
       scale_width="1"
       end_linecap_type="round" />
    <inkscape:path-effect
       effect="simplify"
       id="path-effect239"
       is_visible="true"
       lpeversion="1"
       steps="1"
       threshold="0.0028332064"
       smooth_angles="0"
       helper_size="0"
       simplify_individual_paths="false"
       simplify_just_coalesce="false"
       step="1" />
    <inkscape:path-effect
       effect="powerstroke"
       id="path-effect234"
       is_visible="true"
       lpeversion="1"
       offset_points="2.13563,0.075169555"
       not_jump="true"
       sort_points="true"
       interpolator_type="CentripetalCatmullRom"
       interpolator_beta="0.75"
       start_linecap_type="round"
       linejoin_type="spiro"
       miter_limit="4"
       scale_width="1"
       end_linecap_type="round" />
    <inkscape:path-effect
       effect="simplify"
       id="path-effect232"
       is_visible="true"
       lpeversion="1"
       steps="1"
       threshold="0.0028332064"
       smooth_angles="0"
       helper_size="0"
       simplify_individual_paths="false"
       simplify_just_coalesce="false"
       step="1" />
    <inkscape:path-effect
       effect="powerstroke"
       id="path-effect227"
       is_visible="true"
       lpeversion="1"
       offset_points="2.1868266,0.075169555"
       not_jump="true"
       sort_points="true"
       interpolator_type="CentripetalCatmullRom"
       interpolator_beta="0.75"
       start_linecap_type="round"
       linejoin_type="spiro"
       miter_limit="4"
       scale_width="1"
       end_linecap_type="round" />
    <inkscape:path-effect
       effect="simplify"
       id="path-effect225"
       is_visible="true"
       lpeversion="1"
       steps="1"
       threshold="0.0028332064"
       smooth_angles="0"
       helper_size="0"
       simplify_individual_paths="false"
       simplify_just_coalesce="false"
       step="1" />
    <inkscape:path-effect
       effect="powerstroke"
       id="path-effect166"
       is_visible="true"
       lpeversion="1"
       offset_points="1.9637935,0.075169555"
       not_jump="true"
       sort_points="true"
       interpolator_type="CentripetalCatmullRom"
       interpolator_beta="0.75"
       start_linecap_type="round"
       linejoin_type="spiro"
       miter_limit="4"
       scale_width="1"
       end_linecap_type="round" />
    <inkscape:path-effect
       effect="simplify"
       id="path-effect164"
       is_visible="true"
       lpeversion="1"
       steps="1"
       threshold="0.0028332064"
       smooth_angles="0"
       helper_size="0"
       simplify_individual_paths="false"
       simplify_just_coalesce="false"
       step="1" />
    <inkscape:path-effect
       effect="powerstroke"
       id="path-effect159"
       is_visible="true"
       lpeversion="1"
       offset_points="2.2611036,0.075169555"
       not_jump="true"
       sort_points="true"
       interpolator_type="CentripetalCatmullRom"
       interpolator_beta="0.75"
       start_linecap_type="round"
       linejoin_type="spiro"
       miter_limit="4"
       scale_width="1"
       end_linecap_type="round" />
    <inkscape:path-effect
       effect="simplify"
       id="path-effect157"
       is_visible="true"
       lpeversion="1"
       steps="1"
       threshold="0.0028332064"
       smooth_angles="0"
       helper_size="0"
       simplify_individual_paths="false"
       simplify_just_coalesce="false"
       step="1" />
    <inkscape:path-effect
       effect="powerstroke"
       id="path-effect152"
       is_visible="true"
       lpeversion="1"
       offset_points="2.826981,0.075169555"
       not_jump="true"
       sort_points="true"
       interpolator_type="CentripetalCatmullRom"
       interpolator_beta="0.75"
       start_linecap_type="round"
       linejoin_type="spiro"
       miter_limit="4"
       scale_width="1"
       end_linecap_type="round" />
    <inkscape:path-effect
       effect="simplify"
       id="path-effect150"
       is_visible="true"
       lpeversion="1"
       steps="1"
       threshold="0.0028332064"
       smooth_angles="0"
       helper_size="0"
       simplify_individual_paths="false"
       simplify_just_coalesce="false"
       step="1" />
    <inkscape:path-effect
       effect="powerstroke"
       id="path-effect145"
       is_visible="true"
       lpeversion="1"
       offset_points="3.8374447,0.075169555"
       not_jump="true"
       sort_points="true"
       interpolator_type="CentripetalCatmullRom"
       interpolator_beta="0.75"
       start_linecap_type="round"
       linejoin_type="spiro"
       miter_limit="4"
       scale_width="1"
       end_linecap_type="round" />
    <inkscape:path-effect
       effect="simplify"
       id="path-effect143"
       is_visible="true"
       lpeversion="1"
       steps="1"
       threshold="0.0028332064"
       smooth_angles="0"
       helper_size="0"
       simplify_individual_paths="false"
       simplify_just_coalesce="false"
       step="1" />
    <inkscape:path-effect
       effect="powerstroke"
       id="path-effect138"
       is_visible="true"
       lpeversion="1"
       offset_points="2.6880907,0.075169555"
       not_jump="true"
       sort_points="true"
       interpolator_type="CentripetalCatmullRom"
       interpolator_beta="0.75"
       start_linecap_type="round"
       linejoin_type="spiro"
       miter_limit="4"
       scale_width="1"
       end_linecap_type="round" />
    <inkscape:path-effect
       effect="simplify"
       id="path-effect136"
       is_visible="true"
       lpeversion="1"
       steps="1"
       threshold="0.0028332064"
       smooth_angles="0"
       helper_size="0"
       simplify_individual_paths="false"
       simplify_just_coalesce="false"
       step="1" />
    <inkscape:path-effect
       effect="powerstroke"
       id="path-effect131"
       is_visible="true"
       lpeversion="1"
       offset_points="1.9940581,0.075169555"
       not_jump="true"
       sort_points="true"
       interpolator_type="CentripetalCatmullRom"
       interpolator_beta="0.75"
       start_linecap_type="round"
       linejoin_type="spiro"
       miter_limit="4"
       scale_width="1"
       end_linecap_type="round" />
    <inkscape:path-effect
       effect="simplify"
       id="path-effect129"
       is_visible="true"
       lpeversion="1"
       steps="1"
       threshold="0.0028332064"
       smooth_angles="0"
       helper_size="0"
       simplify_individual_paths="false"
       simplify_just_coalesce="false"
       step="1" />
  </defs>
  <sodipodi:namedview
     id="base"
     pagecolor="#ffffff"
     bordercolor="#666666"
     borderopacity="1.0"
     inkscape:pageopacity="0.0"
     inkscape:pageshadow="2"
     inkscape:zoom="15.839192"
     inkscape:cx="7.0395005"
     inkscape:cy="14.394674"
     inkscape:document-units="mm"
     inkscape:current-layer="layer1"
     showgrid="false"
     fit-margin-top="0"
     fit-margin-left="0"
     fit-margin-right="0"
     fit-margin-bottom="0"
     inkscape:window-width="1920"
     inkscape:window-height="1057"
     inkscape:window-x="1072"
     inkscape:window-y="321"
     inkscape:window-maximized="1"
     showguides="true"
     inkscape:guide-bbox="true"
     inkscape:snap-bbox="true"
     inkscape:bbox-nodes="true"
     inkscape:snap-nodes="false"
     inkscape:snap-others="false"
     inkscape:snap-page="true"
     inkscape:snap-grids="false"
     inkscape:snap-to-guides="false"
     inkscape:snap-global="false"
     inkscape:pagecheckerboard="0"
     inkscape:showpageshadow="2"
     inkscape:deskcolor="#d1d1d1">
    <sodipodi:guide
       position="-6.1806075,9.4988692"
       orientation="0,1"
       id="guide816"
       inkscape:locked="false" />
    <sodipodi:guide
       position="-4.4101636,10.646923"
       orientation="0,1"
       id="guide818"
       inkscape:locked="false" />
    <sodipodi:guide
       position="2.7595724,11.09577"
       orientation="1,0"
       id="guide820"
       inkscape:locked="false" />
    <sodipodi:guide
       position="3.6572659,10.942217"
       orientation="1,0"
       id="guide822"
       inkscape:locked="false" />
    <sodipodi:guide
       position="-0.051625511,9.7492299"
       orientation="1,0"
       id="guide1853"
       inkscape:locked="false" />
    <sodipodi:guide
       position="-2.3720169,3.0175835"
       orientation="0,1"
       id="guide1855"
       inkscape:locked="false" />
  </sodipodi:namedview>
  <metadata
     id="metadata1678">
    <rdf:RDF>
      <cc:Work
         rdf:about="">
        <dc:format>image/svg+xml</dc:format>
        <dc:type
           rdf:resource="http://purl.org/dc/dcmitype/StillImage" />
      </cc:Work>
    </rdf:RDF>
  </metadata>
  <g
     inkscape:label="Layer 1"
     inkscape:groupmode="layer"
     id="layer1"
     transform="translate(17.028496,-147.22856)">
    <path
       d="m -16.819372,147.76514 c 0.0084,0.13399 0.02549,0.37809 0.06373,0.73829 0.02947,0.27761 0.06163,0.53951 0.123484,1.01713 0.07849,0.51377 0.146089,1.06958 0.160855,1.63607 0.03533,0.88605 0.0052,3.12972 0.0052,3.21252 a 0.10644126,0.10644126 90 0 0 0.212882,0 c 0,-0.0705 0.03012,-2.33006 -0.0054,-3.21953 -0.01505,-0.5777 -0.08407,-1.14337 -0.162837,-1.65881 -0.06146,-0.47471 -0.09336,-0.7347 -0.122571,-1.00986 -0.03785,-0.35653 -0.05468,-0.59752 -0.06296,-0.72917 a 0.10644126,0.10644126 90 0 0 -0.212464,0.0134 z"
       id="path-1"
       inkscape:path-effect="#path-effect374;#path-effect376"
       inkscape:original-d="m -16.71314,147.75846 c 0.02315,0.42938 0.07932,0.8613 0.127383,1.29016 0.0577,0.51482 0.154717,1.02823 0.19058,1.54525 0.0872,1.2572 0.03555,2.51668 0.03555,3.77528"
       style="fill:#000000;fill-rule:nonzero;stroke:none" />
    <path
       d="m -16.600775,147.70868 c 0.06814,-0.0298 0.17056,-0.0837 0.286121,-0.12666 0.0427,-0.0159 0.08724,-0.0296 0.132737,-0.038 0.04169,-0.008 0.08459,-0.011 0.128997,-0.007 0.124523,0.004 0.242435,0.0248 0.359406,0.0609 0.1137,0.0351 0.225052,0.0843 0.333499,0.1454 0.210073,0.11828 0.401969,0.27672 0.569934,0.4467 0.0054,0.005 0.01074,0.0109 0.0161,0.0164 0.150655,0.16096 0.307753,0.35692 0.429877,0.57809 0.110703,0.20048 0.193802,0.42363 0.21766,0.66423 0.01102,0.23429 -0.03797,0.47644 -0.134686,0.71272 -0.094,0.22963 -0.230748,0.44779 -0.390187,0.64395 -0.07659,0.0948 -0.160598,0.18128 -0.252919,0.24535 -0.04632,0.0321 -0.09366,0.0579 -0.142126,0.0764 -0.04909,0.0187 -0.09939,0.0299 -0.151366,0.0328 -0.08136,0.007 -0.15916,0.003 -0.237118,-0.008 -0.08047,-0.0109 -0.161219,-0.0287 -0.242218,-0.049 -0.179669,-0.045 -0.341861,-0.0963 -0.523113,-0.12359 -0.01063,-0.002 -0.02141,-0.003 -0.03212,-0.002 -0.0107,0.001 -0.02103,0.004 -0.03113,0.008 0.004,-0.001 0.0077,-0.003 0.01095,-0.003 0.0073,-0.002 0.01334,-0.002 0.01736,-0.003 0.0054,-3e-4 0.0098,2e-5 0.01052,4e-5 0.0021,8e-5 -7.96e-4,-7.4e-4 -0.0066,-0.003 -0.0058,-0.003 -0.01259,-0.006 -0.01985,-0.01 -0.0072,-0.004 -0.01382,-0.008 -0.01863,-0.0119 -0.0024,-0.002 -0.0042,-0.003 -0.005,-0.004 -6.92e-4,-7.1e-4 -8.47e-4,-0.001 0.0013,3.4e-4 9.73e-4,7.1e-4 0.0027,0.002 0.005,0.004 0.0021,0.002 0.006,0.006 0.01035,0.0118 0.0038,0.005 0.01184,0.0164 0.01797,0.0334 0.0032,0.009 0.0067,0.0216 0.0078,0.0372 0.001,0.016 -5.46e-4,0.0357 -0.0083,0.0566 -0.0079,0.0213 -0.02052,0.0394 -0.03571,0.0535 -0.01465,0.0136 -0.02959,0.0217 -0.04184,0.0267 -0.01196,0.005 -0.02252,0.007 -0.03012,0.008 -0.0077,0.001 -0.01432,0.002 -0.01909,0.002 -0.0092,1.6e-4 -0.01629,-6.9e-4 -0.01953,-0.001 -0.0039,-5.2e-4 -0.006,-9.3e-4 -0.0072,-0.001 -0.0021,-3.2e-4 -9.8e-4,1.7e-4 0.0024,0.002 0.0038,0.002 0.0081,0.004 0.01545,0.007 l -0.04068,-0.026 c 0.158787,0.14726 0.301683,0.31051 0.436218,0.47451 0.13949,0.17003 0.276436,0.34893 0.415926,0.51896 0.156406,0.19277 0.311985,0.38395 0.475686,0.57006 0.05012,0.057 0.102027,0.11465 0.155582,0.17229 0.219215,0.23592 0.461434,0.46644 0.7372,0.66665 0.103214,0.0717 0.192527,0.16547 0.281373,0.25685 0.14126,0.14529 0.227077,0.22259 0.333781,0.29146 a 0.15684793,0.15684793 90 0 0 0.170104,-0.26358 c -0.0764,-0.0493 -0.14278,-0.10767 -0.277323,-0.24723 -0.08159,-0.0846 -0.193485,-0.20422 -0.324796,-0.2954 -0.251436,-0.18259 -0.478592,-0.3974 -0.690188,-0.6234 -0.05159,-0.0551 -0.101857,-0.11045 -0.150718,-0.16542 -0.160259,-0.1803 -0.313461,-0.36555 -0.473031,-0.55843 -0.138409,-0.16416 -0.276159,-0.33815 -0.425314,-0.51354 -0.141166,-0.166 -0.296824,-0.33785 -0.472328,-0.4949 -0.006,-0.005 -0.01214,-0.0108 -0.01891,-0.0153 -0.0068,-0.004 -0.01423,-0.008 -0.02177,-0.0107 -0.01043,-0.004 -0.02026,-0.008 -0.0295,-0.0108 -0.0089,-0.003 -0.01865,-0.006 -0.02866,-0.008 -0.005,-0.001 -0.01113,-0.002 -0.0179,-0.003 -0.0063,-9.2e-4 -0.01593,-0.002 -0.02727,-0.002 -0.0058,8e-5 -0.01332,5.1e-4 -0.0219,0.002 -0.0084,0.001 -0.01969,0.004 -0.03224,0.009 -0.01284,0.005 -0.02827,0.0136 -0.0433,0.0276 -0.01557,0.0144 -0.02848,0.0329 -0.03653,0.0547 -0.0079,0.0213 -0.0095,0.0415 -0.0085,0.0581 0.001,0.0162 0.0047,0.0295 0.0082,0.0391 0.0066,0.0182 0.0155,0.0311 0.02048,0.0378 0.0056,0.007 0.01098,0.0132 0.015,0.0172 0.0042,0.004 0.0082,0.008 0.01164,0.0106 0.0068,0.006 0.0137,0.0107 0.01986,0.0149 0.0063,0.004 0.01285,0.008 0.01942,0.0123 0.01293,0.008 0.02748,0.0155 0.0426,0.0227 0.01487,0.007 0.03157,0.0143 0.04899,0.0203 0.01662,0.006 0.03715,0.0118 0.05919,0.0149 0.0111,0.002 0.02438,0.003 0.03891,0.002 0.01006,-4.1e-4 0.02174,-0.002 0.03429,-0.005 0.0056,-0.001 0.01153,-0.003 0.01764,-0.005 l -0.06324,0.006 c 0.164399,0.0225 0.300569,0.0651 0.499294,0.11269 0.08529,0.0204 0.1767,0.0398 0.270913,0.0516 0.09179,0.0115 0.188573,0.0161 0.289186,0.007 0.0769,-0.005 0.15262,-0.0234 0.223858,-0.0515 0.06988,-0.0276 0.134742,-0.0644 0.194591,-0.10686 0.117898,-0.0837 0.217752,-0.19051 0.301041,-0.29565 0.170413,-0.21163 0.319716,-0.45083 0.423299,-0.70677 0.106769,-0.26382 0.163305,-0.54133 0.148908,-0.82238 -0.02931,-0.28667 -0.126483,-0.5407 -0.249257,-0.7614 -0.13528,-0.24318 -0.306466,-0.45446 -0.467672,-0.62576 -0.0074,-0.008 -0.01313,-0.0134 -0.01889,-0.0192 -0.179173,-0.18042 -0.388296,-0.35365 -0.622317,-0.48519 -0.121192,-0.0681 -0.247852,-0.12437 -0.379355,-0.16492 -0.13547,-0.0418 -0.273983,-0.0662 -0.414848,-0.0709 -0.06255,-0.005 -0.126423,-2.1e-4 -0.184733,0.0104 -0.06305,0.0115 -0.121305,0.0297 -0.17207,0.0484 -0.138882,0.0513 -0.237206,0.10409 -0.29898,0.13113 a 0.11769712,0.11769712 90 0 0 0.09438,0.21564 z"
       id="path-1-4"
       inkscape:path-effect="#path-effect382;#path-effect384"
       inkscape:original-d="m -16.647967,147.60086 c 0.147132,-0.057 0.285045,-0.14977 0.441395,-0.1711 0.986419,-0.13458 2.16783,1.14407 2.202038,2.04929 0.02117,0.56012 -0.327225,1.21806 -0.737634,1.60229 -0.374397,0.35052 -0.823757,0.17975 -1.249138,0.0744 -0.06483,-0.0161 -0.414066,-0.0654 -0.386097,-0.1156 0.0422,-0.0758 0.648075,0.67002 0.667524,0.69325 0.0392,0.0468 0.07596,0.0956 0.114545,0.14296 0.347027,0.42562 0.742081,0.9198 1.149405,1.28592 0.152012,0.13663 0.321189,0.25269 0.475956,0.38573 0.158454,0.13621 0.303824,0.3344 0.473981,0.43545"
       style="fill:#000000;fill-rule:nonzero;stroke:none" />
  </g>
</svg>
