<?xml version="1.0" encoding="UTF-8" standalone="no"?>
<!-- Created with Inkscape (http://www.inkscape.org/) -->

<svg
   width="5mm"
   height="10mm"
   viewBox="0 0 5.0000001 9.9999994"
   version="1.1"
   id="svg1681"
   inkscape:version="1.2.1 (9c6d41e410, 2022-07-14)"
   sodipodi:docname="at_symbol_6.svg"
   inkscape:export-filename="..\..\..\..\Downloads\lower a diff canvas resize 3.0.png"
   inkscape:export-xdpi="96"
   inkscape:export-ydpi="96"
   xmlns:inkscape="http://www.inkscape.org/namespaces/inkscape"
   xmlns:sodipodi="http://sodipodi.sourceforge.net/DTD/sodipodi-0.dtd"
   xmlns="http://www.w3.org/2000/svg"
   xmlns:svg="http://www.w3.org/2000/svg"
   xmlns:rdf="http://www.w3.org/1999/02/22-rdf-syntax-ns#"
   xmlns:cc="http://creativecommons.org/ns#"
   xmlns:dc="http://purl.org/dc/elements/1.1/">
  <defs
     id="defs1675">
    <inkscape:path-effect
       effect="powerstroke"
       id="path-effect153"
       is_visible="true"
       lpeversion="1"
       offset_points="2.9327115,0.19952465 | 6.1103069,0.16425639 | 11.047729,0.14057979 | 18.07483,0.20100444"
       not_jump="true"
       sort_points="true"
       interpolator_type="CentripetalCatmullRom"
       interpolator_beta="0.75"
       start_linecap_type="round"
       linejoin_type="spiro"
       miter_limit="4"
       scale_width="1"
       end_linecap_type="round" />
    <inkscape:path-effect
       effect="simplify"
       id="path-effect151"
       is_visible="true"
       lpeversion="1"
       steps="1"
       threshold="0.0035951417"
       smooth_angles="0"
       helper_size="0"
       simplify_individual_paths="false"
       simplify_just_coalesce="false"
       step="1" />
    <inkscape:path-effect
       effect="powerstroke"
       id="path-effect1482"
       is_visible="true"
       lpeversion="1"
       offset_points="3.7088798,0.16303938 | 6.5700881,0.14748794 | 7.7997513,0.166551 | 18.340411,0.14548129 | 22.036374,0.17909248"
       not_jump="true"
       sort_points="true"
       interpolator_type="CentripetalCatmullRom"
       interpolator_beta="0.75"
       start_linecap_type="round"
       linejoin_type="spiro"
       miter_limit="4"
       scale_width="1"
       end_linecap_type="round" />
    <inkscape:path-effect
       effect="simplify"
       id="path-effect1480"
       is_visible="true"
       lpeversion="1"
       steps="1"
       threshold="0.0035951417"
       smooth_angles="0"
       helper_size="0"
       simplify_individual_paths="false"
       simplify_just_coalesce="false"
       step="1" />
    <inkscape:path-effect
       effect="powerstroke"
       id="path-effect502"
       is_visible="true"
       lpeversion="1"
       offset_points="3.0091841,0.21607495 | 7.3602657,0.17554228 | 9.4159651,0.20236537"
       not_jump="true"
       sort_points="true"
       interpolator_type="CentripetalCatmullRom"
       interpolator_beta="0.75"
       start_linecap_type="round"
       linejoin_type="spiro"
       miter_limit="4"
       scale_width="1"
       end_linecap_type="round" />
    <inkscape:path-effect
       effect="simplify"
       id="path-effect500"
       is_visible="true"
       lpeversion="1"
       steps="1"
       threshold="0.0035951417"
       smooth_angles="0"
       helper_size="0"
       simplify_individual_paths="false"
       simplify_just_coalesce="false"
       step="1" />
    <inkscape:path-effect
       effect="powerstroke"
       id="path-effect241"
       is_visible="true"
       lpeversion="1"
       offset_points="2.6879454,0.34086734"
       not_jump="true"
       sort_points="true"
       interpolator_type="CentripetalCatmullRom"
       interpolator_beta="0.75"
       start_linecap_type="round"
       linejoin_type="spiro"
       miter_limit="4"
       scale_width="1"
       end_linecap_type="round" />
    <inkscape:path-effect
       effect="simplify"
       id="path-effect239"
       is_visible="true"
       lpeversion="1"
       steps="1"
       threshold="0.0028332064"
       smooth_angles="0"
       helper_size="0"
       simplify_individual_paths="false"
       simplify_just_coalesce="false"
       step="1" />
    <inkscape:path-effect
       effect="powerstroke"
       id="path-effect234"
       is_visible="true"
       lpeversion="1"
       offset_points="2.13563,0.075169555"
       not_jump="true"
       sort_points="true"
       interpolator_type="CentripetalCatmullRom"
       interpolator_beta="0.75"
       start_linecap_type="round"
       linejoin_type="spiro"
       miter_limit="4"
       scale_width="1"
       end_linecap_type="round" />
    <inkscape:path-effect
       effect="simplify"
       id="path-effect232"
       is_visible="true"
       lpeversion="1"
       steps="1"
       threshold="0.0028332064"
       smooth_angles="0"
       helper_size="0"
       simplify_individual_paths="false"
       simplify_just_coalesce="false"
       step="1" />
    <inkscape:path-effect
       effect="powerstroke"
       id="path-effect227"
       is_visible="true"
       lpeversion="1"
       offset_points="2.1868266,0.075169555"
       not_jump="true"
       sort_points="true"
       interpolator_type="CentripetalCatmullRom"
       interpolator_beta="0.75"
       start_linecap_type="round"
       linejoin_type="spiro"
       miter_limit="4"
       scale_width="1"
       end_linecap_type="round" />
    <inkscape:path-effect
       effect="simplify"
       id="path-effect225"
       is_visible="true"
       lpeversion="1"
       steps="1"
       threshold="0.0028332064"
       smooth_angles="0"
       helper_size="0"
       simplify_individual_paths="false"
       simplify_just_coalesce="false"
       step="1" />
    <inkscape:path-effect
       effect="powerstroke"
       id="path-effect166"
       is_visible="true"
       lpeversion="1"
       offset_points="1.9637935,0.075169555"
       not_jump="true"
       sort_points="true"
       interpolator_type="CentripetalCatmullRom"
       interpolator_beta="0.75"
       start_linecap_type="round"
       linejoin_type="spiro"
       miter_limit="4"
       scale_width="1"
       end_linecap_type="round" />
    <inkscape:path-effect
       effect="simplify"
       id="path-effect164"
       is_visible="true"
       lpeversion="1"
       steps="1"
       threshold="0.0028332064"
       smooth_angles="0"
       helper_size="0"
       simplify_individual_paths="false"
       simplify_just_coalesce="false"
       step="1" />
    <inkscape:path-effect
       effect="powerstroke"
       id="path-effect159"
       is_visible="true"
       lpeversion="1"
       offset_points="2.2611036,0.075169555"
       not_jump="true"
       sort_points="true"
       interpolator_type="CentripetalCatmullRom"
       interpolator_beta="0.75"
       start_linecap_type="round"
       linejoin_type="spiro"
       miter_limit="4"
       scale_width="1"
       end_linecap_type="round" />
    <inkscape:path-effect
       effect="simplify"
       id="path-effect157"
       is_visible="true"
       lpeversion="1"
       steps="1"
       threshold="0.0028332064"
       smooth_angles="0"
       helper_size="0"
       simplify_individual_paths="false"
       simplify_just_coalesce="false"
       step="1" />
    <inkscape:path-effect
       effect="powerstroke"
       id="path-effect152"
       is_visible="true"
       lpeversion="1"
       offset_points="2.826981,0.075169555"
       not_jump="true"
       sort_points="true"
       interpolator_type="CentripetalCatmullRom"
       interpolator_beta="0.75"
       start_linecap_type="round"
       linejoin_type="spiro"
       miter_limit="4"
       scale_width="1"
       end_linecap_type="round" />
    <inkscape:path-effect
       effect="simplify"
       id="path-effect150"
       is_visible="true"
       lpeversion="1"
       steps="1"
       threshold="0.0028332064"
       smooth_angles="0"
       helper_size="0"
       simplify_individual_paths="false"
       simplify_just_coalesce="false"
       step="1" />
    <inkscape:path-effect
       effect="powerstroke"
       id="path-effect145"
       is_visible="true"
       lpeversion="1"
       offset_points="3.8374447,0.075169555"
       not_jump="true"
       sort_points="true"
       interpolator_type="CentripetalCatmullRom"
       interpolator_beta="0.75"
       start_linecap_type="round"
       linejoin_type="spiro"
       miter_limit="4"
       scale_width="1"
       end_linecap_type="round" />
    <inkscape:path-effect
       effect="simplify"
       id="path-effect143"
       is_visible="true"
       lpeversion="1"
       steps="1"
       threshold="0.0028332064"
       smooth_angles="0"
       helper_size="0"
       simplify_individual_paths="false"
       simplify_just_coalesce="false"
       step="1" />
    <inkscape:path-effect
       effect="powerstroke"
       id="path-effect138"
       is_visible="true"
       lpeversion="1"
       offset_points="2.6880907,0.075169555"
       not_jump="true"
       sort_points="true"
       interpolator_type="CentripetalCatmullRom"
       interpolator_beta="0.75"
       start_linecap_type="round"
       linejoin_type="spiro"
       miter_limit="4"
       scale_width="1"
       end_linecap_type="round" />
    <inkscape:path-effect
       effect="simplify"
       id="path-effect136"
       is_visible="true"
       lpeversion="1"
       steps="1"
       threshold="0.0028332064"
       smooth_angles="0"
       helper_size="0"
       simplify_individual_paths="false"
       simplify_just_coalesce="false"
       step="1" />
    <inkscape:path-effect
       effect="powerstroke"
       id="path-effect131"
       is_visible="true"
       lpeversion="1"
       offset_points="1.9940581,0.075169555"
       not_jump="true"
       sort_points="true"
       interpolator_type="CentripetalCatmullRom"
       interpolator_beta="0.75"
       start_linecap_type="round"
       linejoin_type="spiro"
       miter_limit="4"
       scale_width="1"
       end_linecap_type="round" />
    <inkscape:path-effect
       effect="simplify"
       id="path-effect129"
       is_visible="true"
       lpeversion="1"
       steps="1"
       threshold="0.0028332064"
       smooth_angles="0"
       helper_size="0"
       simplify_individual_paths="false"
       simplify_just_coalesce="false"
       step="1" />
  </defs>
  <sodipodi:namedview
     id="base"
     pagecolor="#ffffff"
     bordercolor="#666666"
     borderopacity="1.0"
     inkscape:pageopacity="0.0"
     inkscape:pageshadow="2"
     inkscape:zoom="7.919596"
     inkscape:cx="-5.3033008"
     inkscape:cy="20.834396"
     inkscape:document-units="mm"
     inkscape:current-layer="layer1"
     showgrid="false"
     fit-margin-top="0"
     fit-margin-left="0"
     fit-margin-right="0"
     fit-margin-bottom="0"
     inkscape:window-width="1920"
     inkscape:window-height="974"
     inkscape:window-x="-11"
     inkscape:window-y="2869"
     inkscape:window-maximized="1"
     showguides="true"
     inkscape:guide-bbox="true"
     inkscape:snap-bbox="true"
     inkscape:bbox-nodes="true"
     inkscape:snap-nodes="false"
     inkscape:snap-others="false"
     inkscape:snap-page="true"
     inkscape:snap-grids="false"
     inkscape:snap-to-guides="false"
     inkscape:snap-global="false"
     inkscape:pagecheckerboard="0"
     inkscape:showpageshadow="2"
     inkscape:deskcolor="#d1d1d1">
    <sodipodi:guide
       position="-6.1806075,9.4988692"
       orientation="0,1"
       id="guide816"
       inkscape:locked="false" />
    <sodipodi:guide
       position="-4.4101636,10.646923"
       orientation="0,1"
       id="guide818"
       inkscape:locked="false" />
    <sodipodi:guide
       position="2.7595724,11.09577"
       orientation="1,0"
       id="guide820"
       inkscape:locked="false" />
    <sodipodi:guide
       position="3.6572659,10.942217"
       orientation="1,0"
       id="guide822"
       inkscape:locked="false" />
    <sodipodi:guide
       position="-0.051625511,9.7492299"
       orientation="1,0"
       id="guide1853"
       inkscape:locked="false" />
    <sodipodi:guide
       position="-2.3720169,3.0175835"
       orientation="0,1"
       id="guide1855"
       inkscape:locked="false" />
  </sodipodi:namedview>
  <metadata
     id="metadata1678">
    <rdf:RDF>
      <cc:Work
         rdf:about="">
        <dc:format>image/svg+xml</dc:format>
        <dc:type
           rdf:resource="http://purl.org/dc/dcmitype/StillImage" />
      </cc:Work>
    </rdf:RDF>
  </metadata>
  <g
     inkscape:label="Layer 1"
     inkscape:groupmode="layer"
     id="layer1"
     transform="translate(17.028496,-147.22856)">
    <path
       d="m -14.464999,148.73175 c -0.01592,-0.10765 -0.05692,-0.23485 -0.14369,-0.36222 -0.06547,-0.0961 -0.156007,-0.19019 -0.272121,-0.26595 -0.100053,-0.0653 -0.220968,-0.11785 -0.355967,-0.13991 -0.123674,-0.0202 -0.260413,-0.0148 -0.397359,0.0329 -0.05653,0.0181 -0.110836,0.0458 -0.159959,0.0781 -0.04688,0.0308 -0.08819,0.0652 -0.125047,0.099 -0.03542,0.0324 -0.06924,0.0666 -0.09839,0.0956 -0.0303,0.0302 -0.05626,0.0555 -0.08219,0.0778 -0.0039,0.003 -0.0076,0.007 -0.01123,0.0104 -0.318455,0.31874 -0.547607,0.69743 -0.702495,1.09085 -0.143087,0.36345 -0.221425,0.73541 -0.252917,1.08557 -0.0052,0.0574 -0.0091,0.11474 -0.01188,0.17191 -0.0037,0.2627 0.03316,0.52399 0.115397,0.76907 0.08284,0.24688 0.212983,0.4808 0.398246,0.67624 0.08508,0.0853 0.180889,0.16137 0.287234,0.22275 0.103992,0.06 0.220335,0.10728 0.34595,0.13161 0.0082,0.002 0.01653,0.003 0.02491,0.003 0.09821,0.005 0.19479,-0.005 0.287738,-0.0279 0.09105,-0.0227 0.17842,-0.0579 0.260424,-0.10304 0.158012,-0.0871 0.29863,-0.21292 0.406955,-0.36202 0.03869,-0.0515 0.07557,-0.10669 0.109394,-0.16374 0.117431,-0.19805 0.196633,-0.41574 0.243057,-0.64201 0.05792,-0.28232 0.0648,-0.57803 0.03129,-0.86441 -0.04726,-0.37246 -0.173759,-0.74642 -0.386918,-1.07908 -0.01424,-0.0222 -0.02907,-0.0446 -0.04922,-0.0616 -0.02014,-0.017 -0.04561,-0.0283 -0.07199,-0.0292 -0.02638,-9.7e-4 -0.05263,0.008 -0.07382,0.0241 -0.02119,0.0157 -0.0372,0.0373 -0.05255,0.0588 -0.04063,0.0569 -0.06333,0.11837 -0.07252,0.18032 -0.0089,0.0603 -0.0048,0.11884 0.0053,0.17215 0.0099,0.0528 0.02609,0.10294 0.04346,0.14818 0.01721,0.0448 0.03651,0.0871 0.05347,0.12355 0.06386,0.13211 0.13808,0.2554 0.205543,0.37312 0.06731,0.11745 0.128852,0.23088 0.173979,0.34958 0.0023,0.006 0.005,0.0119 0.008,0.0176 0.128385,0.23532 0.268561,0.48292 0.434403,0.71208 0.164295,0.22702 0.357512,0.44139 0.597711,0.614 0.0085,0.006 0.01727,0.012 0.02694,0.0161 0.0097,0.004 0.02,0.006 0.03032,0.008 0.01236,0.002 0.02476,0.004 0.03718,0.006 0.115371,0.014 0.235441,-0.002 0.344885,-0.0487 0.05927,-0.0251 0.115942,-0.0593 0.166763,-0.10277 0.05017,-0.0429 0.09466,-0.0949 0.129819,-0.15561 0.09428,-0.15588 0.14607,-0.3284 0.175058,-0.50183 0.02832,-0.16945 0.0351,-0.34141 0.03956,-0.5025 0.01327,-0.39207 -0.06526,-0.77905 -0.175808,-1.14861 -0.08693,-0.27727 -0.210096,-0.55314 -0.377115,-0.80151 -0.166623,-0.24778 -0.378076,-0.46986 -0.64139,-0.63538 -0.20504,-0.12656 -0.435361,-0.18166 -0.66266,-0.18218 -0.227804,-5.1e-4 -0.455143,0.0537 -0.656907,0.14931 -0.204615,0.0926 -0.390348,0.22365 -0.549102,0.37925 -0.160616,0.15742 -0.293987,0.34028 -0.39557,0.53701 -0.31209,0.56692 -0.489899,1.197 -0.545248,1.83002 -0.05654,0.64665 0.01439,1.29748 0.197857,1.90283 0.0046,0.0181 0.01143,0.0432 0.01864,0.0681 0.08484,0.29317 0.224644,0.60035 0.449053,0.86515 0.169642,0.20766 0.391037,0.39074 0.644637,0.51665 0.250061,0.12415 0.533335,0.19341 0.82786,0.17388 0.273327,-0.0113 0.538869,-0.0929 0.774724,-0.22133 0.238142,-0.12964 0.447064,-0.30716 0.614108,-0.51106 0.235914,-0.2818 0.405652,-0.60151 0.524051,-0.92925 0.123062,-0.34064 0.191662,-0.69255 0.223108,-1.02894 0.03443,-0.36622 0.03185,-0.7278 -0.01554,-1.07418 -0.05197,-0.37984 -0.156199,-0.72969 -0.313646,-1.04438 -0.27405,-0.54697 -0.681533,-0.85561 -0.994224,-1.01126 a 0.20100444,0.20100444 90 0 0 -0.179146,0.35988 c 0.249153,0.12403 0.589817,0.38664 0.811659,0.83207 0.13511,0.27108 0.227068,0.5777 0.273175,0.91843 0.04211,0.31119 0.04461,0.64116 0.0122,0.98116 -0.02929,0.30887 -0.09218,0.62597 -0.201735,0.92823 -0.105297,0.29051 -0.253348,0.56632 -0.455107,0.80701 -0.136965,0.16685 -0.305556,0.30935 -0.494814,0.41231 -0.186779,0.10162 -0.391469,0.16336 -0.600961,0.17217 -0.217501,0.0145 -0.429088,-0.0348 -0.624033,-0.13125 -0.198292,-0.0981 -0.375047,-0.24288 -0.513423,-0.41131 -0.181661,-0.21268 -0.300419,-0.46381 -0.376245,-0.71733 -0.0064,-0.0214 -0.01253,-0.0429 -0.01841,-0.0646 -0.17223,-0.56364 -0.239523,-1.16327 -0.189583,-1.75916 0.04887,-0.58317 0.21,-1.16051 0.494288,-1.68259 0.08379,-0.16754 0.190812,-0.31878 0.319753,-0.44916 0.127362,-0.12879 0.275438,-0.23654 0.439565,-0.31424 0.156386,-0.0775 0.329598,-0.12163 0.501033,-0.12441 0.170262,-0.003 0.335664,0.0353 0.478661,0.11985 0.215633,0.13161 0.396825,0.31439 0.544945,0.52847 0.14869,0.21491 0.262468,0.45912 0.344621,0.70968 0.111516,0.34805 0.187081,0.69732 0.181183,1.04401 -0.0013,0.16162 -0.0051,0.31524 -0.02718,0.46254 -0.02224,0.14846 -0.06245,0.28404 -0.132058,0.40281 -0.01866,0.0339 -0.04098,0.0614 -0.06733,0.0848 -0.02678,0.0238 -0.05774,0.0435 -0.09143,0.0584 -0.06272,0.0277 -0.132631,0.0381 -0.199292,0.0304 -0.0071,-8.2e-4 -0.01418,-0.002 -0.0212,-0.003 l 0.05726,0.0241 c -0.208919,-0.14947 -0.381935,-0.3391 -0.534452,-0.54992 -0.152714,-0.21109 -0.284086,-0.4423 -0.409802,-0.67371 -0.0524,-0.1373 -0.120993,-0.26425 -0.186852,-0.38134 -0.07053,-0.12541 -0.13589,-0.23624 -0.191438,-0.35449 -0.01473,-0.0335 -0.02976,-0.0685 -0.04243,-0.10364 -0.01277,-0.0355 -0.02205,-0.0682 -0.02693,-0.0983 -0.0049,-0.0303 -0.0049,-0.0548 -0.0012,-0.0746 0.0035,-0.019 0.01053,-0.0351 0.02218,-0.0502 l -0.247574,-0.008 c 0.183462,0.29436 0.290927,0.62634 0.327786,0.95531 0.02747,0.25669 0.01807,0.51785 -0.03454,0.76194 -0.04209,0.19526 -0.111311,0.37746 -0.209509,0.53943 -0.02829,0.0467 -0.05893,0.0915 -0.09197,0.13452 -0.08434,0.11166 -0.190095,0.20127 -0.303802,0.26038 -0.05863,0.0305 -0.118863,0.0526 -0.179275,0.066 -0.05639,0.0125 -0.113008,0.0173 -0.169199,0.014 -0.07737,-0.0197 -0.151584,-0.0537 -0.22075,-0.0978 -0.07371,-0.047 -0.141534,-0.1054 -0.20104,-0.17009 -0.13727,-0.15014 -0.237787,-0.33529 -0.302389,-0.53731 -0.06425,-0.20093 -0.09282,-0.41829 -0.08802,-0.63376 0.0025,-0.0451 0.0064,-0.097 0.01128,-0.1489 0.02999,-0.31724 0.101817,-0.6511 0.229872,-0.97437 0.137698,-0.34761 0.337457,-0.67512 0.608718,-0.94799 0.03599,-0.0313 0.06908,-0.0639 0.09805,-0.0928 0.03253,-0.0325 0.0586,-0.0589 0.08615,-0.0843 0.02726,-0.0251 0.0512,-0.0446 0.07419,-0.0599 0.02339,-0.0156 0.04493,-0.0262 0.06611,-0.0332 0.0706,-0.0247 0.138886,-0.0285 0.204887,-0.018 0.07285,0.0116 0.141938,0.0405 0.201793,0.0793 0.06923,0.0448 0.122724,0.10039 0.160554,0.15557 0.04958,0.0723 0.07092,0.14121 0.07892,0.19529 a 0.19952465,0.19952465 90 0 0 0.394754,-0.0584 z"
       id="path-1"
       inkscape:path-effect="#path-effect151;#path-effect153"
       inkscape:original-d="m -14.662376,148.76095 c -0.08738,-0.53375 -0.789764,-0.84169 -1.168399,-0.38749 -0.674808,0.57824 -1.011612,1.49134 -1.049543,2.36293 -0.0084,0.64401 0.294253,1.41292 0.968998,1.59585 0.69971,0.0439 1.112043,-0.70933 1.181291,-1.31887 0.08089,-0.57337 -0.04095,-1.17625 -0.351046,-1.66661 -0.209954,0.27027 0.286944,0.82074 0.407405,1.18672 0.260714,0.48053 0.550599,0.97841 1.002737,1.30165 0.741466,0.0986 0.731027,-0.94217 0.709381,-1.46001 -0.09167,-0.77836 -0.382984,-1.62168 -1.044804,-2.09225 -0.691106,-0.48773 -1.607187,-0.031 -1.996427,0.62349 -0.684518,1.12799 -0.793431,2.57688 -0.385657,3.8214 0.208458,0.77425 0.922375,1.47023 1.765897,1.38523 1.029449,-0.091 1.640123,-1.11268 1.818916,-2.03807 0.238201,-1.19023 0.06462,-2.78236 -1.141408,-3.39326"
       style="fill:#000000;fill-rule:nonzero;stroke:none;stroke-width:1.67987" />
  </g>
</svg>
