<?xml version="1.0" encoding="UTF-8" standalone="no"?>
<!-- Created with Inkscape (http://www.inkscape.org/) -->

<svg
   width="5mm"
   height="10mm"
   viewBox="0 0 5.0000001 9.9999994"
   version="1.1"
   id="svg1681"
   inkscape:version="1.2.1 (9c6d41e410, 2022-07-14)"
   sodipodi:docname="at_symbol_15.svg"
   inkscape:export-filename="..\..\..\..\Downloads\lower a diff canvas resize 3.0.png"
   inkscape:export-xdpi="96"
   inkscape:export-ydpi="96"
   xmlns:inkscape="http://www.inkscape.org/namespaces/inkscape"
   xmlns:sodipodi="http://sodipodi.sourceforge.net/DTD/sodipodi-0.dtd"
   xmlns="http://www.w3.org/2000/svg"
   xmlns:svg="http://www.w3.org/2000/svg"
   xmlns:rdf="http://www.w3.org/1999/02/22-rdf-syntax-ns#"
   xmlns:cc="http://creativecommons.org/ns#"
   xmlns:dc="http://purl.org/dc/elements/1.1/">
  <defs
     id="defs1675">
    <inkscape:path-effect
       effect="powerstroke"
       id="path-effect162"
       is_visible="true"
       lpeversion="1"
       offset_points="3.5035831,0.13866726 | 10.264614,0.15779379 | 12.251543,0.12801727 | 21.510634,0.16583561"
       not_jump="true"
       sort_points="true"
       interpolator_type="CentripetalCatmullRom"
       interpolator_beta="0.75"
       start_linecap_type="round"
       linejoin_type="spiro"
       miter_limit="4"
       scale_width="1"
       end_linecap_type="round" />
    <inkscape:path-effect
       effect="simplify"
       id="path-effect160"
       is_visible="true"
       lpeversion="1"
       steps="1"
       threshold="0.0035951417"
       smooth_angles="0"
       helper_size="0"
       simplify_individual_paths="false"
       simplify_just_coalesce="false"
       step="1" />
    <inkscape:path-effect
       effect="powerstroke"
       id="path-effect155"
       is_visible="true"
       lpeversion="1"
       offset_points="5.0346698,0.099247301 | 7.0164459,0.082657146 | 9.1313968,0.073407767 | 19.328923,0.10658808"
       not_jump="true"
       sort_points="true"
       interpolator_type="CentripetalCatmullRom"
       interpolator_beta="0.75"
       start_linecap_type="round"
       linejoin_type="spiro"
       miter_limit="4"
       scale_width="1"
       end_linecap_type="round" />
    <inkscape:path-effect
       effect="simplify"
       id="path-effect153"
       is_visible="true"
       lpeversion="1"
       steps="1"
       threshold="0.0035951417"
       smooth_angles="0"
       helper_size="0"
       simplify_individual_paths="false"
       simplify_just_coalesce="false"
       step="1" />
    <inkscape:path-effect
       effect="powerstroke"
       id="path-effect520"
       is_visible="true"
       lpeversion="1"
       offset_points="2.7104209,0.13651777 | 6.1891906,0.10208306 | 6.7050343,0.12552797 | 13.23432,0.15092662 | 19.757333,0.17315044"
       not_jump="true"
       sort_points="true"
       interpolator_type="CentripetalCatmullRom"
       interpolator_beta="0.75"
       start_linecap_type="round"
       linejoin_type="spiro"
       miter_limit="4"
       scale_width="1"
       end_linecap_type="round" />
    <inkscape:path-effect
       effect="simplify"
       id="path-effect518"
       is_visible="true"
       lpeversion="1"
       steps="1"
       threshold="0.0035951417"
       smooth_angles="0"
       helper_size="0"
       simplify_individual_paths="false"
       simplify_just_coalesce="false"
       step="1" />
    <inkscape:path-effect
       effect="powerstroke"
       id="path-effect513"
       is_visible="true"
       lpeversion="1"
       offset_points="3.4665905,0.085593456 | 5.097968,0.077665417 | 18.223138,0.10717534"
       not_jump="true"
       sort_points="true"
       interpolator_type="CentripetalCatmullRom"
       interpolator_beta="0.75"
       start_linecap_type="round"
       linejoin_type="spiro"
       miter_limit="4"
       scale_width="1"
       end_linecap_type="round" />
    <inkscape:path-effect
       effect="simplify"
       id="path-effect511"
       is_visible="true"
       lpeversion="1"
       steps="1"
       threshold="0.0035951417"
       smooth_angles="0"
       helper_size="0"
       simplify_individual_paths="false"
       simplify_just_coalesce="false"
       step="1" />
    <inkscape:path-effect
       effect="powerstroke"
       id="path-effect502"
       is_visible="true"
       lpeversion="1"
       offset_points="3.0091841,0.21607495 | 7.3602657,0.17554228 | 9.4159651,0.20236537"
       not_jump="true"
       sort_points="true"
       interpolator_type="CentripetalCatmullRom"
       interpolator_beta="0.75"
       start_linecap_type="round"
       linejoin_type="spiro"
       miter_limit="4"
       scale_width="1"
       end_linecap_type="round" />
    <inkscape:path-effect
       effect="simplify"
       id="path-effect500"
       is_visible="true"
       lpeversion="1"
       steps="1"
       threshold="0.0035951417"
       smooth_angles="0"
       helper_size="0"
       simplify_individual_paths="false"
       simplify_just_coalesce="false"
       step="1" />
    <inkscape:path-effect
       effect="powerstroke"
       id="path-effect241"
       is_visible="true"
       lpeversion="1"
       offset_points="2.6879454,0.34086734"
       not_jump="true"
       sort_points="true"
       interpolator_type="CentripetalCatmullRom"
       interpolator_beta="0.75"
       start_linecap_type="round"
       linejoin_type="spiro"
       miter_limit="4"
       scale_width="1"
       end_linecap_type="round" />
    <inkscape:path-effect
       effect="simplify"
       id="path-effect239"
       is_visible="true"
       lpeversion="1"
       steps="1"
       threshold="0.0028332064"
       smooth_angles="0"
       helper_size="0"
       simplify_individual_paths="false"
       simplify_just_coalesce="false"
       step="1" />
    <inkscape:path-effect
       effect="powerstroke"
       id="path-effect234"
       is_visible="true"
       lpeversion="1"
       offset_points="2.13563,0.075169555"
       not_jump="true"
       sort_points="true"
       interpolator_type="CentripetalCatmullRom"
       interpolator_beta="0.75"
       start_linecap_type="round"
       linejoin_type="spiro"
       miter_limit="4"
       scale_width="1"
       end_linecap_type="round" />
    <inkscape:path-effect
       effect="simplify"
       id="path-effect232"
       is_visible="true"
       lpeversion="1"
       steps="1"
       threshold="0.0028332064"
       smooth_angles="0"
       helper_size="0"
       simplify_individual_paths="false"
       simplify_just_coalesce="false"
       step="1" />
    <inkscape:path-effect
       effect="powerstroke"
       id="path-effect227"
       is_visible="true"
       lpeversion="1"
       offset_points="2.1868266,0.075169555"
       not_jump="true"
       sort_points="true"
       interpolator_type="CentripetalCatmullRom"
       interpolator_beta="0.75"
       start_linecap_type="round"
       linejoin_type="spiro"
       miter_limit="4"
       scale_width="1"
       end_linecap_type="round" />
    <inkscape:path-effect
       effect="simplify"
       id="path-effect225"
       is_visible="true"
       lpeversion="1"
       steps="1"
       threshold="0.0028332064"
       smooth_angles="0"
       helper_size="0"
       simplify_individual_paths="false"
       simplify_just_coalesce="false"
       step="1" />
    <inkscape:path-effect
       effect="powerstroke"
       id="path-effect166"
       is_visible="true"
       lpeversion="1"
       offset_points="1.9637935,0.075169555"
       not_jump="true"
       sort_points="true"
       interpolator_type="CentripetalCatmullRom"
       interpolator_beta="0.75"
       start_linecap_type="round"
       linejoin_type="spiro"
       miter_limit="4"
       scale_width="1"
       end_linecap_type="round" />
    <inkscape:path-effect
       effect="simplify"
       id="path-effect164"
       is_visible="true"
       lpeversion="1"
       steps="1"
       threshold="0.0028332064"
       smooth_angles="0"
       helper_size="0"
       simplify_individual_paths="false"
       simplify_just_coalesce="false"
       step="1" />
    <inkscape:path-effect
       effect="powerstroke"
       id="path-effect159"
       is_visible="true"
       lpeversion="1"
       offset_points="2.2611036,0.075169555"
       not_jump="true"
       sort_points="true"
       interpolator_type="CentripetalCatmullRom"
       interpolator_beta="0.75"
       start_linecap_type="round"
       linejoin_type="spiro"
       miter_limit="4"
       scale_width="1"
       end_linecap_type="round" />
    <inkscape:path-effect
       effect="simplify"
       id="path-effect157"
       is_visible="true"
       lpeversion="1"
       steps="1"
       threshold="0.0028332064"
       smooth_angles="0"
       helper_size="0"
       simplify_individual_paths="false"
       simplify_just_coalesce="false"
       step="1" />
    <inkscape:path-effect
       effect="powerstroke"
       id="path-effect152"
       is_visible="true"
       lpeversion="1"
       offset_points="2.826981,0.075169555"
       not_jump="true"
       sort_points="true"
       interpolator_type="CentripetalCatmullRom"
       interpolator_beta="0.75"
       start_linecap_type="round"
       linejoin_type="spiro"
       miter_limit="4"
       scale_width="1"
       end_linecap_type="round" />
    <inkscape:path-effect
       effect="simplify"
       id="path-effect150"
       is_visible="true"
       lpeversion="1"
       steps="1"
       threshold="0.0028332064"
       smooth_angles="0"
       helper_size="0"
       simplify_individual_paths="false"
       simplify_just_coalesce="false"
       step="1" />
    <inkscape:path-effect
       effect="powerstroke"
       id="path-effect145"
       is_visible="true"
       lpeversion="1"
       offset_points="3.8374447,0.075169555"
       not_jump="true"
       sort_points="true"
       interpolator_type="CentripetalCatmullRom"
       interpolator_beta="0.75"
       start_linecap_type="round"
       linejoin_type="spiro"
       miter_limit="4"
       scale_width="1"
       end_linecap_type="round" />
    <inkscape:path-effect
       effect="simplify"
       id="path-effect143"
       is_visible="true"
       lpeversion="1"
       steps="1"
       threshold="0.0028332064"
       smooth_angles="0"
       helper_size="0"
       simplify_individual_paths="false"
       simplify_just_coalesce="false"
       step="1" />
    <inkscape:path-effect
       effect="powerstroke"
       id="path-effect138"
       is_visible="true"
       lpeversion="1"
       offset_points="2.6880907,0.075169555"
       not_jump="true"
       sort_points="true"
       interpolator_type="CentripetalCatmullRom"
       interpolator_beta="0.75"
       start_linecap_type="round"
       linejoin_type="spiro"
       miter_limit="4"
       scale_width="1"
       end_linecap_type="round" />
    <inkscape:path-effect
       effect="simplify"
       id="path-effect136"
       is_visible="true"
       lpeversion="1"
       steps="1"
       threshold="0.0028332064"
       smooth_angles="0"
       helper_size="0"
       simplify_individual_paths="false"
       simplify_just_coalesce="false"
       step="1" />
    <inkscape:path-effect
       effect="powerstroke"
       id="path-effect131"
       is_visible="true"
       lpeversion="1"
       offset_points="1.9940581,0.075169555"
       not_jump="true"
       sort_points="true"
       interpolator_type="CentripetalCatmullRom"
       interpolator_beta="0.75"
       start_linecap_type="round"
       linejoin_type="spiro"
       miter_limit="4"
       scale_width="1"
       end_linecap_type="round" />
    <inkscape:path-effect
       effect="simplify"
       id="path-effect129"
       is_visible="true"
       lpeversion="1"
       steps="1"
       threshold="0.0028332064"
       smooth_angles="0"
       helper_size="0"
       simplify_individual_paths="false"
       simplify_just_coalesce="false"
       step="1" />
  </defs>
  <sodipodi:namedview
     id="base"
     pagecolor="#ffffff"
     bordercolor="#666666"
     borderopacity="1.0"
     inkscape:pageopacity="0.0"
     inkscape:pageshadow="2"
     inkscape:zoom="7.919596"
     inkscape:cx="-5.1770318"
     inkscape:cy="20.960665"
     inkscape:document-units="mm"
     inkscape:current-layer="layer1"
     showgrid="false"
     fit-margin-top="0"
     fit-margin-left="0"
     fit-margin-right="0"
     fit-margin-bottom="0"
     inkscape:window-width="1920"
     inkscape:window-height="974"
     inkscape:window-x="-11"
     inkscape:window-y="2889"
     inkscape:window-maximized="1"
     showguides="true"
     inkscape:guide-bbox="true"
     inkscape:snap-bbox="true"
     inkscape:bbox-nodes="true"
     inkscape:snap-nodes="false"
     inkscape:snap-others="false"
     inkscape:snap-page="true"
     inkscape:snap-grids="false"
     inkscape:snap-to-guides="false"
     inkscape:snap-global="false"
     inkscape:pagecheckerboard="0"
     inkscape:showpageshadow="2"
     inkscape:deskcolor="#d1d1d1">
    <sodipodi:guide
       position="-6.1806075,9.4988692"
       orientation="0,1"
       id="guide816"
       inkscape:locked="false" />
    <sodipodi:guide
       position="-4.4101636,10.646923"
       orientation="0,1"
       id="guide818"
       inkscape:locked="false" />
    <sodipodi:guide
       position="2.7595724,11.09577"
       orientation="1,0"
       id="guide820"
       inkscape:locked="false" />
    <sodipodi:guide
       position="3.6572659,10.942217"
       orientation="1,0"
       id="guide822"
       inkscape:locked="false" />
    <sodipodi:guide
       position="-0.051625511,9.7492299"
       orientation="1,0"
       id="guide1853"
       inkscape:locked="false" />
    <sodipodi:guide
       position="-2.3720169,3.0175835"
       orientation="0,1"
       id="guide1855"
       inkscape:locked="false" />
  </sodipodi:namedview>
  <metadata
     id="metadata1678">
    <rdf:RDF>
      <cc:Work
         rdf:about="">
        <dc:format>image/svg+xml</dc:format>
        <dc:type
           rdf:resource="http://purl.org/dc/dcmitype/StillImage" />
      </cc:Work>
    </rdf:RDF>
  </metadata>
  <g
     inkscape:label="Layer 1"
     inkscape:groupmode="layer"
     id="layer1"
     transform="translate(17.028496,-147.22856)">
    <path
       d="m -13.031921,147.63656 c -0.186133,-0.0839 -0.444287,-0.14842 -0.763336,-0.11421 -0.230787,0.0248 -0.483488,0.10127 -0.722482,0.24395 -0.318551,0.18303 -0.606577,0.4695 -0.817089,0.84076 -0.155134,0.25058 -0.289356,0.53712 -0.372411,0.84144 -0.08198,0.30037 -0.11369,0.61675 -0.06954,0.9343 0.02473,0.15331 0.06438,0.30585 0.125901,0.44918 0.05965,0.13811 0.143395,0.27888 0.265641,0.40015 0.08257,0.0803 0.17944,0.142 0.285619,0.18439 0.10222,0.0408 0.212859,0.0636 0.325682,0.0671 0.109383,0.003 0.221532,-0.0114 0.329369,-0.0464 0.105189,-0.0341 0.206951,-0.0876 0.296749,-0.16246 0.09053,-0.0701 0.164344,-0.16166 0.22044,-0.26282 0.0529,-0.0954 0.08981,-0.19883 0.113658,-0.30268 0.230951,-0.67938 0.32796,-1.41477 0.277217,-2.14308 0.0092,-0.1243 -0.01651,-0.25102 -0.07037,-0.36174 -0.02836,-0.0583 -0.06495,-0.11307 -0.109442,-0.1614 -0.04514,-0.049 -0.09844,-0.0914 -0.159281,-0.12382 -0.03129,-0.017 -0.06597,-0.0293 -0.102434,-0.0348 -0.03702,-0.006 -0.07345,-0.004 -0.108011,0.005 -0.03465,0.008 -0.06531,0.023 -0.09165,0.0405 -0.02649,0.0176 -0.04883,0.0384 -0.06739,0.0599 -0.03737,0.0432 -0.06311,0.0933 -0.07931,0.14118 -0.01544,0.0456 -0.02409,0.0946 -0.02384,0.14265 -0.0243,0.26917 0.01431,0.52742 0.09093,0.75868 0.08637,0.26069 0.220847,0.48712 0.374829,0.67062 0.09886,0.11965 0.205008,0.22476 0.311971,0.31557 0.377027,0.3201 0.780146,0.47828 1.087968,0.5532 0.0056,0.001 0.01112,0.003 0.01677,0.004 0.0057,8.6e-4 0.01139,0.001 0.01711,0.001 0.07421,-3e-4 0.143699,-0.0149 0.206465,-0.0389 0.06185,-0.0236 0.120414,-0.0576 0.173664,-0.10044 0.08674,-0.0698 0.174589,-0.17652 0.22368,-0.31708 0.02337,-0.059 0.04357,-0.12836 0.05728,-0.20389 0.01179,-0.065 0.01871,-0.13425 0.01991,-0.20806 0.0021,-0.1282 -0.01319,-0.26403 -0.04527,-0.40668 -0.05484,-0.32726 -0.158434,-0.68829 -0.331437,-1.03255 -0.157732,-0.31387 -0.376332,-0.61966 -0.673082,-0.86996 -0.003,-0.003 -0.0062,-0.005 -0.0095,-0.007 -0.225328,-0.15673 -0.494438,-0.23797 -0.774406,-0.24608 -0.265897,-0.008 -0.54112,0.0509 -0.787945,0.17261 -0.29058,0.13613 -0.541774,0.36237 -0.722834,0.64256 -0.300697,0.41443 -0.518558,0.88968 -0.65688,1.3897 -0.13756,0.49727 -0.195946,1.01722 -0.184213,1.52962 0.01025,0.34542 0.03618,0.6939 0.120785,1.03321 0.06155,0.23052 0.139159,0.46207 0.248204,0.67765 0.112647,0.2227 0.257935,0.42648 0.45025,0.59137 0.09792,0.084 0.205905,0.15287 0.320139,0.20291 0.121633,0.0533 0.248948,0.0847 0.37779,0.0913 0.352705,0.0378 0.694912,-0.0336 0.988634,-0.15569 0.333495,-0.1386 0.613446,-0.34522 0.827696,-0.56086 0.290159,-0.28636 0.480429,-0.60831 0.604052,-0.88641 0.0031,-0.007 0.0062,-0.014 0.0092,-0.0209 0.149417,-0.34261 0.231262,-0.6907 0.268343,-1.00824 0.05456,-0.48197 0.0029,-0.92429 -0.09745,-1.29127 -0.150936,-0.55186 -0.407618,-0.92826 -0.59881,-1.15403 a 0.16583561,0.16583561 90 0 0 -0.253108,0.21434 c 0.167482,0.19777 0.39601,0.53229 0.531032,1.02734 0.09004,0.33012 0.136782,0.72992 0.08762,1.16566 -0.03368,0.28954 -0.10791,0.60527 -0.241773,0.9139 -0.0027,0.006 -0.0055,0.0125 -0.0082,0.0188 -0.110818,0.2507 -0.278974,0.53588 -0.533107,0.78876 -0.188732,0.19165 -0.432731,0.37298 -0.720428,0.49437 -0.253061,0.10677 -0.540766,0.16699 -0.840086,0.13689 -0.0974,-0.004 -0.187893,-0.0238 -0.27803,-0.0614 -0.08488,-0.0354 -0.16795,-0.0859 -0.245015,-0.14967 -0.155743,-0.13125 -0.279795,-0.29904 -0.380616,-0.49419 -0.09797,-0.18963 -0.170982,-0.39911 -0.230858,-0.61585 -0.08,-0.30568 -0.108903,-0.62923 -0.12267,-0.96654 -0.01293,-0.48532 0.04084,-0.97793 0.168898,-1.44742 0.128727,-0.47192 0.331639,-0.91735 0.614252,-1.31002 0.157015,-0.24863 0.368727,-0.44199 0.612195,-0.55891 0.209682,-0.1049 0.442296,-0.15565 0.666029,-0.15028 0.231873,0.006 0.450857,0.0714 0.63075,0.19402 0.263657,0.22246 0.461505,0.4967 0.606513,0.78405 0.160094,0.31724 0.257318,0.6531 0.310146,0.96712 0.02966,0.13263 0.04176,0.24814 0.03925,0.35298 -0.0014,0.0602 -0.0077,0.11536 -0.01757,0.16573 -0.0115,0.0585 -0.02804,0.11084 -0.04802,0.15778 -0.03527,0.0914 -0.09356,0.15429 -0.148096,0.19248 -0.03315,0.0232 -0.06754,0.0394 -0.101359,0.0494 -0.02807,0.008 -0.05708,0.0126 -0.08665,0.0126 -0.269983,-0.0751 -0.618519,-0.22326 -0.942064,-0.50228 -0.09346,-0.0806 -0.185832,-0.17322 -0.272243,-0.27874 -0.130315,-0.15683 -0.243465,-0.34858 -0.316072,-0.56812 -0.06497,-0.19645 -0.09678,-0.41387 -0.07593,-0.63722 6.61e-4,-0.007 9.69e-4,-0.0142 5.84e-4,-0.0213 -5.07e-4,-0.009 9.97e-4,-0.0244 0.0065,-0.0413 0.0053,-0.0166 0.01246,-0.0288 0.01809,-0.0357 0.0024,-0.003 0.0038,-0.004 0.0031,-0.004 -8.32e-4,3.9e-4 -0.0037,0.002 -0.0086,0.003 -0.005,0.001 -0.01,0.001 -0.01369,4.1e-4 -0.0035,-6.7e-4 -0.0033,-0.001 6.53e-4,4.8e-4 0.02889,0.0149 0.05485,0.0346 0.07821,0.0592 0.02311,0.0244 0.04342,0.0534 0.05989,0.086 0.03286,0.0651 0.0482,0.14008 0.04285,0.21047 -6.19e-4,0.008 -7.77e-4,0.0164 -1.56e-4,0.0245 0.05265,0.69105 -0.03557,1.39097 -0.254659,2.04505 -0.0018,0.005 -0.0034,0.0108 -0.0045,0.0163 -0.01721,0.084 -0.04441,0.16392 -0.08199,0.23439 -0.03848,0.0722 -0.0869,0.13283 -0.145329,0.1796 -0.06273,0.053 -0.13132,0.0902 -0.204559,0.11454 -0.07518,0.025 -0.154544,0.0362 -0.232736,0.0343 -0.08061,-0.002 -0.158836,-0.0177 -0.230038,-0.0457 -0.07378,-0.0289 -0.139371,-0.0705 -0.193789,-0.12293 -0.09052,-0.0886 -0.156845,-0.19635 -0.205268,-0.30745 -0.05214,-0.12036 -0.08679,-0.25002 -0.108542,-0.38318 -0.03795,-0.27147 -0.01136,-0.54987 0.06241,-0.82052 0.07483,-0.27454 0.197048,-0.53685 0.343478,-0.7735 0.19023,-0.33517 0.444004,-0.58479 0.71957,-0.74277 0.205317,-0.12234 0.419484,-0.18657 0.612338,-0.20709 0.264807,-0.0282 0.473582,0.0257 0.619903,0.0917 a 0.13866726,0.13866726 90 0 0 0.114014,-0.25282 z"
       id="path-1"
       inkscape:path-effect="#path-effect160;#path-effect162"
       inkscape:original-d="m -13.088928,147.76297 c -0.786698,-0.34408 -1.683712,0.15167 -2.085479,0.84897 -0.438307,0.66482 -0.693404,1.60171 -0.264066,2.32905 0.36784,0.63565 1.326058,0.49036 1.471049,-0.2401 0.234964,-0.67922 0.33135,-1.41925 0.277617,-2.1356 0.04363,-0.42327 -0.501261,-0.82695 -0.502326,-0.20512 -0.04964,1.01621 0.816736,1.83283 1.746374,2.06792 0.506857,-0.0118 0.616891,-0.63594 0.520054,-1.0327 -0.10599,-0.70977 -0.416123,-1.43173 -0.974195,-1.89882 -0.669462,-0.45619 -1.633831,-0.17096 -2.060562,0.48738 -0.791505,1.05936 -0.995501,2.48271 -0.761391,3.76329 0.143164,0.6059 0.431371,1.31913 1.069588,1.53306 1.061993,0.24561 2.094118,-0.53637 2.488745,-1.48724 0.468968,-1.05626 0.359768,-2.38985 -0.397423,-3.28712"
       style="fill:#000000;fill-rule:nonzero;stroke:none;stroke-width:1.48041" />
  </g>
</svg>
