<?xml version="1.0" encoding="UTF-8" standalone="no"?>
<!-- Created with Inkscape (http://www.inkscape.org/) -->

<svg
   width="5mm"
   height="10mm"
   viewBox="0 0 5.0000001 9.9999994"
   version="1.1"
   id="svg1681"
   inkscape:version="1.2.1 (9c6d41e410, 2022-07-14)"
   sodipodi:docname="at_symbol_16.svg"
   inkscape:export-filename="..\..\..\..\Downloads\lower a diff canvas resize 3.0.png"
   inkscape:export-xdpi="96"
   inkscape:export-ydpi="96"
   xmlns:inkscape="http://www.inkscape.org/namespaces/inkscape"
   xmlns:sodipodi="http://sodipodi.sourceforge.net/DTD/sodipodi-0.dtd"
   xmlns="http://www.w3.org/2000/svg"
   xmlns:svg="http://www.w3.org/2000/svg"
   xmlns:rdf="http://www.w3.org/1999/02/22-rdf-syntax-ns#"
   xmlns:cc="http://creativecommons.org/ns#"
   xmlns:dc="http://purl.org/dc/elements/1.1/">
  <defs
     id="defs1675">
    <inkscape:path-effect
       effect="powerstroke"
       id="path-effect156"
       is_visible="true"
       lpeversion="1"
       offset_points="5.8192127,0.14857716 | 13.632503,0.10193084 | 21.111706,0.154144"
       not_jump="true"
       sort_points="true"
       interpolator_type="CentripetalCatmullRom"
       interpolator_beta="0.75"
       start_linecap_type="round"
       linejoin_type="spiro"
       miter_limit="4"
       scale_width="1"
       end_linecap_type="round" />
    <inkscape:path-effect
       effect="simplify"
       id="path-effect154"
       is_visible="true"
       lpeversion="1"
       steps="1"
       threshold="0.0035951417"
       smooth_angles="0"
       helper_size="0"
       simplify_individual_paths="false"
       simplify_just_coalesce="false"
       step="1" />
    <inkscape:path-effect
       effect="powerstroke"
       id="path-effect153"
       is_visible="true"
       lpeversion="1"
       offset_points="2.9327115,0.19952465 | 6.1103069,0.16425639 | 11.047729,0.14057979 | 18.07483,0.20100444"
       not_jump="true"
       sort_points="true"
       interpolator_type="CentripetalCatmullRom"
       interpolator_beta="0.75"
       start_linecap_type="round"
       linejoin_type="spiro"
       miter_limit="4"
       scale_width="1"
       end_linecap_type="round" />
    <inkscape:path-effect
       effect="simplify"
       id="path-effect151"
       is_visible="true"
       lpeversion="1"
       steps="1"
       threshold="0.0035951417"
       smooth_angles="0"
       helper_size="0"
       simplify_individual_paths="false"
       simplify_just_coalesce="false"
       step="1" />
    <inkscape:path-effect
       effect="powerstroke"
       id="path-effect1482"
       is_visible="true"
       lpeversion="1"
       offset_points="3.7088798,0.16303938 | 6.5700881,0.14748794 | 7.7997513,0.166551 | 18.340411,0.14548129 | 22.036374,0.17909248"
       not_jump="true"
       sort_points="true"
       interpolator_type="CentripetalCatmullRom"
       interpolator_beta="0.75"
       start_linecap_type="round"
       linejoin_type="spiro"
       miter_limit="4"
       scale_width="1"
       end_linecap_type="round" />
    <inkscape:path-effect
       effect="simplify"
       id="path-effect1480"
       is_visible="true"
       lpeversion="1"
       steps="1"
       threshold="0.0035951417"
       smooth_angles="0"
       helper_size="0"
       simplify_individual_paths="false"
       simplify_just_coalesce="false"
       step="1" />
    <inkscape:path-effect
       effect="powerstroke"
       id="path-effect502"
       is_visible="true"
       lpeversion="1"
       offset_points="3.0091841,0.21607495 | 7.3602657,0.17554228 | 9.4159651,0.20236537"
       not_jump="true"
       sort_points="true"
       interpolator_type="CentripetalCatmullRom"
       interpolator_beta="0.75"
       start_linecap_type="round"
       linejoin_type="spiro"
       miter_limit="4"
       scale_width="1"
       end_linecap_type="round" />
    <inkscape:path-effect
       effect="simplify"
       id="path-effect500"
       is_visible="true"
       lpeversion="1"
       steps="1"
       threshold="0.0035951417"
       smooth_angles="0"
       helper_size="0"
       simplify_individual_paths="false"
       simplify_just_coalesce="false"
       step="1" />
    <inkscape:path-effect
       effect="powerstroke"
       id="path-effect241"
       is_visible="true"
       lpeversion="1"
       offset_points="2.6879454,0.34086734"
       not_jump="true"
       sort_points="true"
       interpolator_type="CentripetalCatmullRom"
       interpolator_beta="0.75"
       start_linecap_type="round"
       linejoin_type="spiro"
       miter_limit="4"
       scale_width="1"
       end_linecap_type="round" />
    <inkscape:path-effect
       effect="simplify"
       id="path-effect239"
       is_visible="true"
       lpeversion="1"
       steps="1"
       threshold="0.0028332064"
       smooth_angles="0"
       helper_size="0"
       simplify_individual_paths="false"
       simplify_just_coalesce="false"
       step="1" />
    <inkscape:path-effect
       effect="powerstroke"
       id="path-effect234"
       is_visible="true"
       lpeversion="1"
       offset_points="2.13563,0.075169555"
       not_jump="true"
       sort_points="true"
       interpolator_type="CentripetalCatmullRom"
       interpolator_beta="0.75"
       start_linecap_type="round"
       linejoin_type="spiro"
       miter_limit="4"
       scale_width="1"
       end_linecap_type="round" />
    <inkscape:path-effect
       effect="simplify"
       id="path-effect232"
       is_visible="true"
       lpeversion="1"
       steps="1"
       threshold="0.0028332064"
       smooth_angles="0"
       helper_size="0"
       simplify_individual_paths="false"
       simplify_just_coalesce="false"
       step="1" />
    <inkscape:path-effect
       effect="powerstroke"
       id="path-effect227"
       is_visible="true"
       lpeversion="1"
       offset_points="2.1868266,0.075169555"
       not_jump="true"
       sort_points="true"
       interpolator_type="CentripetalCatmullRom"
       interpolator_beta="0.75"
       start_linecap_type="round"
       linejoin_type="spiro"
       miter_limit="4"
       scale_width="1"
       end_linecap_type="round" />
    <inkscape:path-effect
       effect="simplify"
       id="path-effect225"
       is_visible="true"
       lpeversion="1"
       steps="1"
       threshold="0.0028332064"
       smooth_angles="0"
       helper_size="0"
       simplify_individual_paths="false"
       simplify_just_coalesce="false"
       step="1" />
    <inkscape:path-effect
       effect="powerstroke"
       id="path-effect166"
       is_visible="true"
       lpeversion="1"
       offset_points="1.9637935,0.075169555"
       not_jump="true"
       sort_points="true"
       interpolator_type="CentripetalCatmullRom"
       interpolator_beta="0.75"
       start_linecap_type="round"
       linejoin_type="spiro"
       miter_limit="4"
       scale_width="1"
       end_linecap_type="round" />
    <inkscape:path-effect
       effect="simplify"
       id="path-effect164"
       is_visible="true"
       lpeversion="1"
       steps="1"
       threshold="0.0028332064"
       smooth_angles="0"
       helper_size="0"
       simplify_individual_paths="false"
       simplify_just_coalesce="false"
       step="1" />
    <inkscape:path-effect
       effect="powerstroke"
       id="path-effect159"
       is_visible="true"
       lpeversion="1"
       offset_points="2.2611036,0.075169555"
       not_jump="true"
       sort_points="true"
       interpolator_type="CentripetalCatmullRom"
       interpolator_beta="0.75"
       start_linecap_type="round"
       linejoin_type="spiro"
       miter_limit="4"
       scale_width="1"
       end_linecap_type="round" />
    <inkscape:path-effect
       effect="simplify"
       id="path-effect157"
       is_visible="true"
       lpeversion="1"
       steps="1"
       threshold="0.0028332064"
       smooth_angles="0"
       helper_size="0"
       simplify_individual_paths="false"
       simplify_just_coalesce="false"
       step="1" />
    <inkscape:path-effect
       effect="powerstroke"
       id="path-effect152"
       is_visible="true"
       lpeversion="1"
       offset_points="2.826981,0.075169555"
       not_jump="true"
       sort_points="true"
       interpolator_type="CentripetalCatmullRom"
       interpolator_beta="0.75"
       start_linecap_type="round"
       linejoin_type="spiro"
       miter_limit="4"
       scale_width="1"
       end_linecap_type="round" />
    <inkscape:path-effect
       effect="simplify"
       id="path-effect150"
       is_visible="true"
       lpeversion="1"
       steps="1"
       threshold="0.0028332064"
       smooth_angles="0"
       helper_size="0"
       simplify_individual_paths="false"
       simplify_just_coalesce="false"
       step="1" />
    <inkscape:path-effect
       effect="powerstroke"
       id="path-effect145"
       is_visible="true"
       lpeversion="1"
       offset_points="3.8374447,0.075169555"
       not_jump="true"
       sort_points="true"
       interpolator_type="CentripetalCatmullRom"
       interpolator_beta="0.75"
       start_linecap_type="round"
       linejoin_type="spiro"
       miter_limit="4"
       scale_width="1"
       end_linecap_type="round" />
    <inkscape:path-effect
       effect="simplify"
       id="path-effect143"
       is_visible="true"
       lpeversion="1"
       steps="1"
       threshold="0.0028332064"
       smooth_angles="0"
       helper_size="0"
       simplify_individual_paths="false"
       simplify_just_coalesce="false"
       step="1" />
    <inkscape:path-effect
       effect="powerstroke"
       id="path-effect138"
       is_visible="true"
       lpeversion="1"
       offset_points="2.6880907,0.075169555"
       not_jump="true"
       sort_points="true"
       interpolator_type="CentripetalCatmullRom"
       interpolator_beta="0.75"
       start_linecap_type="round"
       linejoin_type="spiro"
       miter_limit="4"
       scale_width="1"
       end_linecap_type="round" />
    <inkscape:path-effect
       effect="simplify"
       id="path-effect136"
       is_visible="true"
       lpeversion="1"
       steps="1"
       threshold="0.0028332064"
       smooth_angles="0"
       helper_size="0"
       simplify_individual_paths="false"
       simplify_just_coalesce="false"
       step="1" />
    <inkscape:path-effect
       effect="powerstroke"
       id="path-effect131"
       is_visible="true"
       lpeversion="1"
       offset_points="1.9940581,0.075169555"
       not_jump="true"
       sort_points="true"
       interpolator_type="CentripetalCatmullRom"
       interpolator_beta="0.75"
       start_linecap_type="round"
       linejoin_type="spiro"
       miter_limit="4"
       scale_width="1"
       end_linecap_type="round" />
    <inkscape:path-effect
       effect="simplify"
       id="path-effect129"
       is_visible="true"
       lpeversion="1"
       steps="1"
       threshold="0.0028332064"
       smooth_angles="0"
       helper_size="0"
       simplify_individual_paths="false"
       simplify_just_coalesce="false"
       step="1" />
  </defs>
  <sodipodi:namedview
     id="base"
     pagecolor="#ffffff"
     bordercolor="#666666"
     borderopacity="1.0"
     inkscape:pageopacity="0.0"
     inkscape:pageshadow="2"
     inkscape:zoom="7.919596"
     inkscape:cx="-5.3033008"
     inkscape:cy="20.834396"
     inkscape:document-units="mm"
     inkscape:current-layer="layer1"
     showgrid="false"
     fit-margin-top="0"
     fit-margin-left="0"
     fit-margin-right="0"
     fit-margin-bottom="0"
     inkscape:window-width="1920"
     inkscape:window-height="974"
     inkscape:window-x="-11"
     inkscape:window-y="2889"
     inkscape:window-maximized="1"
     showguides="true"
     inkscape:guide-bbox="true"
     inkscape:snap-bbox="true"
     inkscape:bbox-nodes="true"
     inkscape:snap-nodes="false"
     inkscape:snap-others="false"
     inkscape:snap-page="true"
     inkscape:snap-grids="false"
     inkscape:snap-to-guides="false"
     inkscape:snap-global="false"
     inkscape:pagecheckerboard="0"
     inkscape:showpageshadow="2"
     inkscape:deskcolor="#d1d1d1">
    <sodipodi:guide
       position="-6.1806075,9.4988692"
       orientation="0,1"
       id="guide816"
       inkscape:locked="false" />
    <sodipodi:guide
       position="-4.4101636,10.646923"
       orientation="0,1"
       id="guide818"
       inkscape:locked="false" />
    <sodipodi:guide
       position="2.7595724,11.09577"
       orientation="1,0"
       id="guide820"
       inkscape:locked="false" />
    <sodipodi:guide
       position="3.6572659,10.942217"
       orientation="1,0"
       id="guide822"
       inkscape:locked="false" />
    <sodipodi:guide
       position="-0.051625511,9.7492299"
       orientation="1,0"
       id="guide1853"
       inkscape:locked="false" />
    <sodipodi:guide
       position="-2.3720169,3.0175835"
       orientation="0,1"
       id="guide1855"
       inkscape:locked="false" />
  </sodipodi:namedview>
  <metadata
     id="metadata1678">
    <rdf:RDF>
      <cc:Work
         rdf:about="">
        <dc:format>image/svg+xml</dc:format>
        <dc:type
           rdf:resource="http://purl.org/dc/dcmitype/StillImage" />
      </cc:Work>
    </rdf:RDF>
  </metadata>
  <g
     inkscape:label="Layer 1"
     inkscape:groupmode="layer"
     id="layer1"
     transform="translate(17.028496,-147.22856)">
    <path
       d="m -12.612263,149.69328 c -0.118229,-0.0971 -0.280267,-0.18179 -0.489991,-0.21619 -0.1586,-0.026 -0.338296,-0.0216 -0.521416,0.0246 -0.192,0.0467 -0.381847,0.12173 -0.572927,0.22125 -0.174552,0.0909 -0.342649,0.19829 -0.510672,0.31601 -0.223391,0.16896 -0.394095,0.38147 -0.529744,0.62052 -0.129999,0.2291 -0.225698,0.47874 -0.301886,0.72799 -0.06483,0.19884 -0.106957,0.40238 -0.163771,0.5896 -0.06235,0.14705 -0.07786,0.31016 -0.04948,0.46321 0.01463,0.0789 0.04102,0.15577 0.07925,0.22706 0.03863,0.072 0.08928,0.13824 0.151722,0.19478 0.123369,0.12003 0.281356,0.1931 0.440799,0.22407 0.105267,0.0205 0.212238,0.0229 0.314942,0.009 0.05697,-0.007 0.113617,-0.0199 0.168929,-0.0375 0.362279,-0.0855 0.713118,-0.24923 1.016803,-0.48031 0.299817,-0.22814 0.554532,-0.52257 0.724517,-0.8716 0.08699,-0.18487 0.148253,-0.38634 0.173613,-0.5939 0.02503,-0.20483 0.0152,-0.41692 -0.0415,-0.62252 -0.03665,-0.1119 -0.08319,-0.23196 -0.151666,-0.34021 -0.03428,-0.0542 -0.07479,-0.10663 -0.123199,-0.15341 -0.04838,-0.0467 -0.104502,-0.0877 -0.169618,-0.11888 -0.05784,-0.026 -0.114194,-0.0354 -0.168891,-0.033 -0.05399,0.002 -0.104481,0.0162 -0.14972,0.036 -0.04508,0.0197 -0.08621,0.0459 -0.122461,0.0747 -0.03513,0.0279 -0.06672,0.0591 -0.09392,0.0911 -0.05674,0.0563 -0.102695,0.12017 -0.138293,0.18848 -0.03659,0.0702 -0.06222,0.14507 -0.07755,0.22152 -0.03059,0.15252 -0.02059,0.31326 0.02735,0.46023 0.05116,0.17289 0.138462,0.33179 0.246715,0.47199 0.108559,0.14061 0.238767,0.26319 0.377598,0.36636 0.148768,0.11396 0.324336,0.20227 0.509354,0.25046 0.186603,0.0486 0.384121,0.0567 0.575377,0.009 0.140752,-0.0337 0.263011,-0.11113 0.357058,-0.21141 0.02514,-0.0268 0.04834,-0.0553 0.06946,-0.0852 0.05835,-0.0826 0.101638,-0.17691 0.125414,-0.27679 0.07424,-0.25558 0.111283,-0.53614 0.09479,-0.81424 -0.01639,-0.27634 -0.08578,-0.55177 -0.224351,-0.80138 -0.06925,-0.12794 -0.160465,-0.24102 -0.265347,-0.33847 -0.104628,-0.0972 -0.222951,-0.17899 -0.347473,-0.24546 -0.153506,-0.0886 -0.330117,-0.17644 -0.516954,-0.2296 -0.09392,-0.0267 -0.191325,-0.045 -0.290902,-0.0502 -0.09992,-0.005 -0.201851,0.003 -0.304196,0.028 -0.125,0.0331 -0.232171,0.091 -0.327779,0.153 -0.09683,0.0628 -0.183913,0.13084 -0.26703,0.18906 -0.314244,0.2428 -0.58955,0.52999 -0.811186,0.85161 -0.224616,0.32594 -0.393973,0.687 -0.489847,1.07071 -0.104367,0.36405 -0.201976,0.74103 -0.259447,1.12389 -0.05859,0.39028 -0.07503,0.78418 -0.01666,1.17781 0.04559,0.28761 0.121076,0.57044 0.25924,0.82469 0.04279,0.0715 0.08848,0.1324 0.138852,0.18777 0.06221,0.0684 0.132149,0.12904 0.207998,0.18154 0.134884,0.0934 0.288431,0.16086 0.450034,0.19981 0.15891,0.0383 0.326473,0.0492 0.491692,0.0291 0.163321,-0.0199 0.325148,-0.0703 0.472916,-0.15518 0.449631,-0.25819 0.843565,-0.6048 1.165042,-1.00731 0.354909,-0.44198 0.632714,-0.92467 0.851663,-1.40094 0.002,-0.004 0.0039,-0.009 0.0055,-0.0136 0.208702,-0.59569 0.267442,-1.1931 0.2542,-1.71468 -1.23e-4,-0.005 -4.6e-4,-0.01 -0.001,-0.0145 -0.01398,-0.1167 -0.05301,-0.21574 -0.101505,-0.2995 -0.05239,-0.0905 -0.117868,-0.16651 -0.178816,-0.22869 -0.06735,-0.0687 -0.14313,-0.1341 -0.19976,-0.18314 -0.07817,-0.0677 -0.129626,-0.11263 -0.178622,-0.16211 a 0.154144,0.154144 90 0 0 -0.219046,0.21694 c 0.05857,0.0591 0.118486,0.11134 0.195469,0.17825 0.05844,0.0508 0.124176,0.10797 0.180967,0.16619 0.05091,0.0522 0.09715,0.10764 0.131542,0.16745 0.02998,0.0521 0.05197,0.10912 0.06062,0.17432 0.01145,0.48202 -0.04473,1.0393 -0.236776,1.58887 -0.210803,0.45602 -0.475316,0.9129 -0.809404,1.32895 -0.298804,0.37412 -0.662926,0.6944 -1.075928,0.93263 -0.108456,0.0626 -0.229751,0.10113 -0.35505,0.11669 -0.127007,0.0158 -0.25717,0.008 -0.381267,-0.0217 -0.126169,-0.03 -0.24445,-0.082 -0.346865,-0.15229 -0.05749,-0.0395 -0.109805,-0.0846 -0.155898,-0.13489 -0.03731,-0.0407 -0.07094,-0.0851 -0.10011,-0.13325 -0.114759,-0.20649 -0.186289,-0.45139 -0.233425,-0.71791 -0.05489,-0.35479 -0.04339,-0.71859 0.0095,-1.08948 0.05205,-0.36468 0.142847,-0.72823 0.244579,-1.09433 0.08558,-0.35388 0.237515,-0.68622 0.442848,-0.9895 0.202657,-0.29932 0.456389,-0.56885 0.744661,-0.79553 0.08471,-0.0632 0.167314,-0.13136 0.250061,-0.18853 0.08212,-0.0567 0.163603,-0.10231 0.25049,-0.12801 0.0742,-0.0197 0.152082,-0.0274 0.230993,-0.0245 0.0789,0.003 0.158865,0.0161 0.239327,0.0377 0.161394,0.0432 0.320466,0.11833 0.471415,0.20251 0.113763,0.0581 0.21728,0.12711 0.307914,0.20854 0.09076,0.0815 0.168217,0.17511 0.227013,0.2803 0.122734,0.21763 0.186688,0.46109 0.202735,0.7112 0.01616,0.25189 -0.01638,0.50894 -0.08549,0.74961 -0.01843,0.0788 -0.05036,0.14927 -0.09393,0.21112 -0.01571,0.0223 -0.03294,0.0435 -0.05153,0.0633 -0.06976,0.0744 -0.15796,0.12869 -0.256743,0.15181 -0.154523,0.038 -0.316637,0.0316 -0.47411,-0.0106 -0.156405,-0.0419 -0.306172,-0.11844 -0.433984,-0.21825 -0.125822,-0.0954 -0.239991,-0.20585 -0.333224,-0.32966 -0.09288,-0.12335 -0.164343,-0.25913 -0.205395,-0.40518 -0.03507,-0.11419 -0.04018,-0.23537 -0.01534,-0.34804 0.01238,-0.0562 0.03206,-0.10965 0.0588,-0.15855 0.02673,-0.0489 0.06049,-0.0932 0.101194,-0.13127 0.0027,-0.003 0.0051,-0.005 0.0076,-0.008 0.01916,-0.0211 0.04099,-0.0411 0.06431,-0.0582 0.02343,-0.0172 0.04719,-0.0306 0.0701,-0.0395 0.02273,-0.009 0.04359,-0.0128 0.06174,-0.0126 0.01765,1.2e-4 0.03447,0.004 0.05139,0.0125 0.03446,0.0177 0.06745,0.0428 0.09719,0.0731 0.03,0.0306 0.05689,0.0666 0.08119,0.10725 0.04935,0.0825 0.0855,0.17954 0.115317,0.278 0.04212,0.16204 0.0486,0.3377 0.02523,0.51082 -0.0237,0.1756 -0.07798,0.34759 -0.154149,0.50493 -0.149516,0.30245 -0.37526,0.56169 -0.643254,0.7636 -0.273441,0.206 -0.58926,0.35125 -0.913793,0.42585 -0.004,9.1e-4 -0.0079,0.002 -0.01174,0.003 -0.0396,0.0125 -0.08049,0.0213 -0.121837,0.0264 -0.0723,0.009 -0.147045,0.007 -0.219615,-0.008 -0.110133,-0.0221 -0.212707,-0.0718 -0.292404,-0.14984 -0.03947,-0.0362 -0.069,-0.0747 -0.09197,-0.1179 -0.02279,-0.0428 -0.03906,-0.0901 -0.04814,-0.13971 -0.01814,-0.0991 -0.0069,-0.20395 0.03332,-0.2955 0.0023,-0.005 0.0044,-0.0108 0.0061,-0.0164 0.06403,-0.20812 0.105975,-0.41227 0.165321,-0.59523 0.07301,-0.23924 0.160812,-0.46652 0.276057,-0.67007 0.119774,-0.21155 0.265064,-0.39005 0.444513,-0.52622 0.156958,-0.11024 0.313231,-0.21008 0.472132,-0.29323 0.173484,-0.0908 0.340554,-0.15649 0.506352,-0.19719 0.144224,-0.0368 0.282592,-0.0399 0.40125,-0.0207 0.155286,0.0251 0.269409,0.0863 0.349305,0.15193 a 0.14857716,0.14857716 90 0 0 0.188622,-0.22962 z"
       id="path-1"
       inkscape:path-effect="#path-effect154;#path-effect156"
       inkscape:original-d="m -12.706574,149.80809 c -0.561131,-0.44059 -1.302246,-0.0547 -1.811898,0.28217 -0.647499,0.41833 -0.854438,1.20888 -1.030066,1.91092 -0.266695,0.60005 0.312697,1.09255 0.889686,0.91922 0.970883,-0.20685 1.912758,-1.08143 1.847813,-2.13238 -0.0036,-0.37806 -0.356469,-1.12453 -0.781803,-0.68235 -0.485023,0.45667 -0.114668,1.1805 0.328931,1.51201 0.412179,0.38325 1.262725,0.52466 1.507066,-0.11538 0.244729,-0.71721 0.15067,-1.69239 -0.570793,-2.10364 -0.40362,-0.24823 -0.944749,-0.482 -1.382252,-0.17105 -0.714745,0.46451 -1.294487,1.16021 -1.51609,1.99423 -0.265749,0.9245 -0.499593,1.96047 -0.127719,2.88832 0.234482,0.68894 1.142537,0.93097 1.723847,0.52454 0.859227,-0.50746 1.43917,-1.37828 1.859905,-2.26073 0.19054,-0.52416 0.262921,-1.09372 0.258672,-1.64861 -0.02402,-0.37953 -0.376637,-0.57595 -0.61728,-0.81833"
       style="fill:#000000;fill-rule:nonzero;stroke:none;stroke-width:1.30749" />
  </g>
</svg>
