<?xml version="1.0" encoding="UTF-8" standalone="no"?>
<!-- Created with Inkscape (http://www.inkscape.org/) -->

<svg
   width="5mm"
   height="10mm"
   viewBox="0 0 5.0000001 9.9999994"
   version="1.1"
   id="svg1681"
   inkscape:version="1.2.1 (9c6d41e410, 2022-07-14)"
   sodipodi:docname="at_symbol_21.svg"
   inkscape:export-filename="..\..\..\..\Downloads\lower a diff canvas resize 3.0.png"
   inkscape:export-xdpi="96"
   inkscape:export-ydpi="96"
   xmlns:inkscape="http://www.inkscape.org/namespaces/inkscape"
   xmlns:sodipodi="http://sodipodi.sourceforge.net/DTD/sodipodi-0.dtd"
   xmlns="http://www.w3.org/2000/svg"
   xmlns:svg="http://www.w3.org/2000/svg"
   xmlns:rdf="http://www.w3.org/1999/02/22-rdf-syntax-ns#"
   xmlns:cc="http://creativecommons.org/ns#"
   xmlns:dc="http://purl.org/dc/elements/1.1/">
  <defs
     id="defs1675">
    <inkscape:path-effect
       effect="powerstroke"
       id="path-effect156"
       is_visible="true"
       lpeversion="1"
       offset_points="3.3037976,0.14716339 | 5.8515904,0.12103157 | 20.993213,0.18528047"
       not_jump="true"
       sort_points="true"
       interpolator_type="CentripetalCatmullRom"
       interpolator_beta="0.75"
       start_linecap_type="round"
       linejoin_type="spiro"
       miter_limit="4"
       scale_width="1"
       end_linecap_type="round" />
    <inkscape:path-effect
       effect="simplify"
       id="path-effect154"
       is_visible="true"
       lpeversion="1"
       steps="1"
       threshold="0.0035951417"
       smooth_angles="0"
       helper_size="0"
       simplify_individual_paths="false"
       simplify_just_coalesce="false"
       step="1" />
    <inkscape:path-effect
       effect="powerstroke"
       id="path-effect153"
       is_visible="true"
       lpeversion="1"
       offset_points="3.3308848,0.13080024 | 5.9706296,0.11107488 | 6.624158,0.12831063 | 20.005852,0.17618773"
       not_jump="true"
       sort_points="true"
       interpolator_type="CentripetalCatmullRom"
       interpolator_beta="0.75"
       start_linecap_type="round"
       linejoin_type="spiro"
       miter_limit="4"
       scale_width="1"
       end_linecap_type="round" />
    <inkscape:path-effect
       effect="simplify"
       id="path-effect151"
       is_visible="true"
       lpeversion="1"
       steps="1"
       threshold="0.0035951417"
       smooth_angles="0"
       helper_size="0"
       simplify_individual_paths="false"
       simplify_just_coalesce="false"
       step="1" />
    <inkscape:path-effect
       effect="powerstroke"
       id="path-effect1482"
       is_visible="true"
       lpeversion="1"
       offset_points="3.7088798,0.16303938 | 6.5700881,0.14748794 | 7.7997513,0.166551 | 18.340411,0.14548129 | 22.036374,0.17909248"
       not_jump="true"
       sort_points="true"
       interpolator_type="CentripetalCatmullRom"
       interpolator_beta="0.75"
       start_linecap_type="round"
       linejoin_type="spiro"
       miter_limit="4"
       scale_width="1"
       end_linecap_type="round" />
    <inkscape:path-effect
       effect="simplify"
       id="path-effect1480"
       is_visible="true"
       lpeversion="1"
       steps="1"
       threshold="0.0035951417"
       smooth_angles="0"
       helper_size="0"
       simplify_individual_paths="false"
       simplify_just_coalesce="false"
       step="1" />
    <inkscape:path-effect
       effect="powerstroke"
       id="path-effect502"
       is_visible="true"
       lpeversion="1"
       offset_points="3.0091841,0.21607495 | 7.3602657,0.17554228 | 9.4159651,0.20236537"
       not_jump="true"
       sort_points="true"
       interpolator_type="CentripetalCatmullRom"
       interpolator_beta="0.75"
       start_linecap_type="round"
       linejoin_type="spiro"
       miter_limit="4"
       scale_width="1"
       end_linecap_type="round" />
    <inkscape:path-effect
       effect="simplify"
       id="path-effect500"
       is_visible="true"
       lpeversion="1"
       steps="1"
       threshold="0.0035951417"
       smooth_angles="0"
       helper_size="0"
       simplify_individual_paths="false"
       simplify_just_coalesce="false"
       step="1" />
    <inkscape:path-effect
       effect="powerstroke"
       id="path-effect241"
       is_visible="true"
       lpeversion="1"
       offset_points="2.6879454,0.34086734"
       not_jump="true"
       sort_points="true"
       interpolator_type="CentripetalCatmullRom"
       interpolator_beta="0.75"
       start_linecap_type="round"
       linejoin_type="spiro"
       miter_limit="4"
       scale_width="1"
       end_linecap_type="round" />
    <inkscape:path-effect
       effect="simplify"
       id="path-effect239"
       is_visible="true"
       lpeversion="1"
       steps="1"
       threshold="0.0028332064"
       smooth_angles="0"
       helper_size="0"
       simplify_individual_paths="false"
       simplify_just_coalesce="false"
       step="1" />
    <inkscape:path-effect
       effect="powerstroke"
       id="path-effect234"
       is_visible="true"
       lpeversion="1"
       offset_points="2.13563,0.075169555"
       not_jump="true"
       sort_points="true"
       interpolator_type="CentripetalCatmullRom"
       interpolator_beta="0.75"
       start_linecap_type="round"
       linejoin_type="spiro"
       miter_limit="4"
       scale_width="1"
       end_linecap_type="round" />
    <inkscape:path-effect
       effect="simplify"
       id="path-effect232"
       is_visible="true"
       lpeversion="1"
       steps="1"
       threshold="0.0028332064"
       smooth_angles="0"
       helper_size="0"
       simplify_individual_paths="false"
       simplify_just_coalesce="false"
       step="1" />
    <inkscape:path-effect
       effect="powerstroke"
       id="path-effect227"
       is_visible="true"
       lpeversion="1"
       offset_points="2.1868266,0.075169555"
       not_jump="true"
       sort_points="true"
       interpolator_type="CentripetalCatmullRom"
       interpolator_beta="0.75"
       start_linecap_type="round"
       linejoin_type="spiro"
       miter_limit="4"
       scale_width="1"
       end_linecap_type="round" />
    <inkscape:path-effect
       effect="simplify"
       id="path-effect225"
       is_visible="true"
       lpeversion="1"
       steps="1"
       threshold="0.0028332064"
       smooth_angles="0"
       helper_size="0"
       simplify_individual_paths="false"
       simplify_just_coalesce="false"
       step="1" />
    <inkscape:path-effect
       effect="powerstroke"
       id="path-effect166"
       is_visible="true"
       lpeversion="1"
       offset_points="1.9637935,0.075169555"
       not_jump="true"
       sort_points="true"
       interpolator_type="CentripetalCatmullRom"
       interpolator_beta="0.75"
       start_linecap_type="round"
       linejoin_type="spiro"
       miter_limit="4"
       scale_width="1"
       end_linecap_type="round" />
    <inkscape:path-effect
       effect="simplify"
       id="path-effect164"
       is_visible="true"
       lpeversion="1"
       steps="1"
       threshold="0.0028332064"
       smooth_angles="0"
       helper_size="0"
       simplify_individual_paths="false"
       simplify_just_coalesce="false"
       step="1" />
    <inkscape:path-effect
       effect="powerstroke"
       id="path-effect159"
       is_visible="true"
       lpeversion="1"
       offset_points="2.2611036,0.075169555"
       not_jump="true"
       sort_points="true"
       interpolator_type="CentripetalCatmullRom"
       interpolator_beta="0.75"
       start_linecap_type="round"
       linejoin_type="spiro"
       miter_limit="4"
       scale_width="1"
       end_linecap_type="round" />
    <inkscape:path-effect
       effect="simplify"
       id="path-effect157"
       is_visible="true"
       lpeversion="1"
       steps="1"
       threshold="0.0028332064"
       smooth_angles="0"
       helper_size="0"
       simplify_individual_paths="false"
       simplify_just_coalesce="false"
       step="1" />
    <inkscape:path-effect
       effect="powerstroke"
       id="path-effect152"
       is_visible="true"
       lpeversion="1"
       offset_points="2.826981,0.075169555"
       not_jump="true"
       sort_points="true"
       interpolator_type="CentripetalCatmullRom"
       interpolator_beta="0.75"
       start_linecap_type="round"
       linejoin_type="spiro"
       miter_limit="4"
       scale_width="1"
       end_linecap_type="round" />
    <inkscape:path-effect
       effect="simplify"
       id="path-effect150"
       is_visible="true"
       lpeversion="1"
       steps="1"
       threshold="0.0028332064"
       smooth_angles="0"
       helper_size="0"
       simplify_individual_paths="false"
       simplify_just_coalesce="false"
       step="1" />
    <inkscape:path-effect
       effect="powerstroke"
       id="path-effect145"
       is_visible="true"
       lpeversion="1"
       offset_points="3.8374447,0.075169555"
       not_jump="true"
       sort_points="true"
       interpolator_type="CentripetalCatmullRom"
       interpolator_beta="0.75"
       start_linecap_type="round"
       linejoin_type="spiro"
       miter_limit="4"
       scale_width="1"
       end_linecap_type="round" />
    <inkscape:path-effect
       effect="simplify"
       id="path-effect143"
       is_visible="true"
       lpeversion="1"
       steps="1"
       threshold="0.0028332064"
       smooth_angles="0"
       helper_size="0"
       simplify_individual_paths="false"
       simplify_just_coalesce="false"
       step="1" />
    <inkscape:path-effect
       effect="powerstroke"
       id="path-effect138"
       is_visible="true"
       lpeversion="1"
       offset_points="2.6880907,0.075169555"
       not_jump="true"
       sort_points="true"
       interpolator_type="CentripetalCatmullRom"
       interpolator_beta="0.75"
       start_linecap_type="round"
       linejoin_type="spiro"
       miter_limit="4"
       scale_width="1"
       end_linecap_type="round" />
    <inkscape:path-effect
       effect="simplify"
       id="path-effect136"
       is_visible="true"
       lpeversion="1"
       steps="1"
       threshold="0.0028332064"
       smooth_angles="0"
       helper_size="0"
       simplify_individual_paths="false"
       simplify_just_coalesce="false"
       step="1" />
    <inkscape:path-effect
       effect="powerstroke"
       id="path-effect131"
       is_visible="true"
       lpeversion="1"
       offset_points="1.9940581,0.075169555"
       not_jump="true"
       sort_points="true"
       interpolator_type="CentripetalCatmullRom"
       interpolator_beta="0.75"
       start_linecap_type="round"
       linejoin_type="spiro"
       miter_limit="4"
       scale_width="1"
       end_linecap_type="round" />
    <inkscape:path-effect
       effect="simplify"
       id="path-effect129"
       is_visible="true"
       lpeversion="1"
       steps="1"
       threshold="0.0028332064"
       smooth_angles="0"
       helper_size="0"
       simplify_individual_paths="false"
       simplify_just_coalesce="false"
       step="1" />
  </defs>
  <sodipodi:namedview
     id="base"
     pagecolor="#ffffff"
     bordercolor="#666666"
     borderopacity="1.0"
     inkscape:pageopacity="0.0"
     inkscape:pageshadow="2"
     inkscape:zoom="7.919596"
     inkscape:cx="-5.3033008"
     inkscape:cy="20.834396"
     inkscape:document-units="mm"
     inkscape:current-layer="layer1"
     showgrid="false"
     fit-margin-top="0"
     fit-margin-left="0"
     fit-margin-right="0"
     fit-margin-bottom="0"
     inkscape:window-width="1920"
     inkscape:window-height="974"
     inkscape:window-x="-11"
     inkscape:window-y="2889"
     inkscape:window-maximized="1"
     showguides="true"
     inkscape:guide-bbox="true"
     inkscape:snap-bbox="true"
     inkscape:bbox-nodes="true"
     inkscape:snap-nodes="false"
     inkscape:snap-others="false"
     inkscape:snap-page="true"
     inkscape:snap-grids="false"
     inkscape:snap-to-guides="false"
     inkscape:snap-global="false"
     inkscape:pagecheckerboard="0"
     inkscape:showpageshadow="2"
     inkscape:deskcolor="#d1d1d1">
    <sodipodi:guide
       position="-6.1806075,9.4988692"
       orientation="0,1"
       id="guide816"
       inkscape:locked="false" />
    <sodipodi:guide
       position="-4.4101636,10.646923"
       orientation="0,1"
       id="guide818"
       inkscape:locked="false" />
    <sodipodi:guide
       position="2.7595724,11.09577"
       orientation="1,0"
       id="guide820"
       inkscape:locked="false" />
    <sodipodi:guide
       position="3.6572659,10.942217"
       orientation="1,0"
       id="guide822"
       inkscape:locked="false" />
    <sodipodi:guide
       position="-0.051625511,9.7492299"
       orientation="1,0"
       id="guide1853"
       inkscape:locked="false" />
    <sodipodi:guide
       position="-2.3720169,3.0175835"
       orientation="0,1"
       id="guide1855"
       inkscape:locked="false" />
  </sodipodi:namedview>
  <metadata
     id="metadata1678">
    <rdf:RDF>
      <cc:Work
         rdf:about="">
        <dc:format>image/svg+xml</dc:format>
        <dc:type
           rdf:resource="http://purl.org/dc/dcmitype/StillImage" />
      </cc:Work>
    </rdf:RDF>
  </metadata>
  <g
     inkscape:label="Layer 1"
     inkscape:groupmode="layer"
     id="layer1"
     transform="translate(17.028496,-147.22856)">
    <path
       d="m -12.995508,148.74371 c -0.132629,0.0195 -0.48218,0.0659 -0.761667,0.13833 -0.226694,0.0587 -0.49243,0.15182 -0.737428,0.32421 -0.09974,0.0681 -0.18973,0.15293 -0.270487,0.2504 -0.07654,0.0924 -0.14208,0.19279 -0.199636,0.29537 -0.195732,0.30468 -0.337019,0.65701 -0.401645,1.01691 -0.06881,0.3832 -0.04862,0.76148 0.06253,1.1084 0.02095,0.0592 0.04108,0.11197 0.06297,0.16309 0.01537,0.0359 0.03136,0.0703 0.0482,0.10339 0.04774,0.0939 0.102428,0.17732 0.167028,0.25008 0.0029,0.003 0.0058,0.007 0.0089,0.01 0.07006,0.0668 0.149136,0.11678 0.232142,0.1521 0.08221,0.035 0.169765,0.0562 0.259159,0.0647 0.161606,0.0154 0.342202,-0.01 0.511855,-0.085 0.198434,-0.0804 0.397649,-0.21082 0.575735,-0.39674 0.10639,-0.11106 0.206178,-0.2431 0.29137,-0.39519 0.03279,-0.0585 0.0636,-0.1204 0.09171,-0.18536 0.15442,-0.34016 0.247584,-0.73939 0.24736,-1.17218 -1.97e-4,-0.38032 -0.07324,-0.78566 -0.239428,-1.17446 -0.0172,-0.0445 -0.04967,-0.089 -0.08525,-0.12459 -0.03391,-0.0339 -0.07855,-0.0675 -0.128754,-0.0868 -0.02479,-0.01 -0.05518,-0.0173 -0.0886,-0.0167 -0.01681,3.1e-4 -0.03485,0.003 -0.05311,0.008 -0.01831,0.006 -0.03615,0.0144 -0.05267,0.0265 -0.01638,0.0119 -0.03029,0.0263 -0.04175,0.0423 -0.01129,0.0157 -0.01985,0.0326 -0.02626,0.0497 -0.01249,0.0333 -0.01756,0.0694 -0.01815,0.10599 -0.01638,0.26765 0.04072,0.55423 0.160234,0.82241 0.0038,0.009 0.0087,0.0166 0.01428,0.0241 0.03318,0.0451 0.05831,0.0975 0.08491,0.16225 0.02341,0.057 0.05275,0.13703 0.08731,0.20715 0.06332,0.1256 0.136211,0.26753 0.227126,0.39653 0.04525,0.0642 0.09614,0.127 0.154382,0.18476 0.05778,0.0573 0.123045,0.1099 0.197551,0.15412 0.05078,0.0315 0.107912,0.0504 0.165768,0.0571 0.05713,0.007 0.113925,0.001 0.167337,-0.0133 0.05298,-0.0145 0.103304,-0.0382 0.14843,-0.0694 0.04297,-0.0296 0.082,-0.0665 0.114274,-0.10959 0.03744,-0.0447 0.06363,-0.0931 0.08246,-0.14147 0.01898,-0.0488 0.03065,-0.0981 0.03891,-0.14396 0.0081,-0.0452 0.01357,-0.0909 0.01855,-0.13052 0.0052,-0.0412 0.0099,-0.0764 0.01675,-0.10873 8.5e-4,-0.004 0.0014,-0.008 0.0019,-0.0122 0.02961,-0.26229 0.02386,-0.52225 0.0086,-0.77646 -0.01524,-0.25402 -0.03988,-0.50357 -0.05028,-0.74777 0.0025,-0.24268 -0.07526,-0.49046 -0.212394,-0.69622 -0.06887,-0.10334 -0.153214,-0.19685 -0.25096,-0.27515 -0.09643,-0.0772 -0.205962,-0.13973 -0.326291,-0.18199 -0.100328,-0.0423 -0.2012,-0.0587 -0.29113,-0.0678 -0.09294,-0.009 -0.177918,-0.012 -0.251742,-0.0208 -0.245117,-0.0357 -0.490006,0.005 -0.711013,0.0918 -0.224075,0.0882 -0.426428,0.22521 -0.593034,0.38483 -0.191222,0.17634 -0.34279,0.38267 -0.471035,0.5917 -0.12982,0.21159 -0.242293,0.43742 -0.346411,0.64212 -0.284182,0.58692 -0.499651,1.19992 -0.628749,1.82209 -0.13351,0.64344 -0.17385,1.29253 -0.1046,1.9297 0.01772,0.16083 0.03768,0.3268 0.07734,0.49018 0.04173,0.17191 0.104854,0.33901 0.207592,0.49142 0.139036,0.22341 0.340971,0.40796 0.564657,0.52865 0.118542,0.064 0.243955,0.1105 0.372361,0.13737 0.130416,0.0273 0.263104,0.0342 0.394551,0.0191 0.0037,-4.3e-4 0.0075,-8.8e-4 0.01123,-0.001 0.3761,-0.0527 0.722076,-0.18874 1.036624,-0.37312 0.314544,-0.18437 0.598658,-0.41761 0.84919,-0.66573 0.152093,-0.15524 0.30766,-0.31494 0.449507,-0.4874 0.14426,-0.1754 0.275306,-0.36511 0.374686,-0.57802 0.176907,-0.36651 0.275831,-0.75277 0.340952,-1.12975 0.06589,-0.38142 0.101139,-0.78256 0.140084,-1.13854 9.59e-4,-0.009 0.0013,-0.0176 0.001,-0.0264 -0.0029,-0.0913 8.53e-4,-0.18577 0.0062,-0.28438 0.0054,-0.0999 0.01234,-0.20424 0.01456,-0.30883 0.0023,-0.10784 -3.81e-4,-0.21765 -0.01501,-0.32798 -0.01512,-0.11406 -0.04289,-0.22757 -0.09018,-0.339 -0.03526,-0.0809 -0.0801,-0.14918 -0.12933,-0.20819 -0.05103,-0.0612 -0.107406,-0.11315 -0.163172,-0.1577 -0.115384,-0.0922 -0.249115,-0.16795 -0.344455,-0.2229 -0.131948,-0.0712 -0.268197,-0.13282 -0.370906,-0.17954 -0.14877,-0.0677 -0.244831,-0.11205 -0.344894,-0.16553 a 0.18528047,0.18528047 90 0 0 -0.174656,0.32682 c 0.111881,0.0598 0.216983,0.10838 0.365565,0.17633 0.105136,0.0481 0.229283,0.10472 0.343367,0.16658 0.09725,0.0565 0.20402,0.11802 0.292868,0.18937 0.04127,0.0331 0.07819,0.068 0.109329,0.10551 0.02975,0.0358 0.0544,0.0743 0.07278,0.11673 0.03123,0.0739 0.05131,0.15378 0.0627,0.2405 0.01113,0.0847 0.0137,0.17399 0.01155,0.27088 -0.0021,0.0965 -0.0086,0.19024 -0.01437,0.29665 -0.0052,0.0961 -0.0098,0.19924 -0.0071,0.30308 -0.03969,0.3635 -0.07308,0.74067 -0.13563,1.10266 -0.06182,0.35779 -0.152703,0.70651 -0.310099,1.03283 -0.08312,0.17825 -0.194225,0.34133 -0.325265,0.50099 -0.129936,0.15831 -0.274319,0.30726 -0.425242,0.46186 -0.231819,0.23005 -0.491301,0.44249 -0.772576,0.60793 -0.280783,0.16516 -0.580647,0.28196 -0.896993,0.32694 2.46e-4,-5e-5 -0.0023,2.7e-4 -0.0049,5.7e-4 -0.09058,0.0107 -0.183507,0.006 -0.276828,-0.0127 -0.09206,-0.0189 -0.184242,-0.0523 -0.273325,-0.0999 -0.169196,-0.0903 -0.324082,-0.23032 -0.433356,-0.40363 -0.07658,-0.112 -0.126622,-0.2356 -0.162686,-0.37873 -0.03486,-0.13833 -0.05415,-0.28345 -0.07332,-0.4435 -0.06612,-0.59538 -0.03031,-1.2072 0.09499,-1.81877 0.121193,-0.59153 0.325165,-1.17783 0.595318,-1.7396 0.103715,-0.20744 0.207723,-0.41972 0.327305,-0.61781 0.116923,-0.19369 0.248404,-0.37328 0.410441,-0.52499 0.139928,-0.13624 0.305216,-0.24922 0.484057,-0.32141 0.175745,-0.0709 0.362443,-0.10165 0.548034,-0.0763 0.09881,0.01 0.185497,0.0104 0.263037,0.0165 0.0777,0.006 0.143442,0.0171 0.202495,0.0408 0.0033,0.001 0.0067,0.003 0.01011,0.004 0.08695,0.0291 0.16736,0.0735 0.239531,0.13028 0.07207,0.0567 0.135647,0.12561 0.188406,0.2033 0.105674,0.15561 0.165648,0.34302 0.165543,0.52983 0.01295,0.26337 0.03968,0.51432 0.05628,0.76052 0.01658,0.24591 0.02306,0.4848 -0.0015,0.72104 -0.0076,0.0429 -0.01224,0.0861 -0.01621,0.12442 -0.0044,0.0427 -0.008,0.0795 -0.01365,0.11536 -0.0055,0.0354 -0.01244,0.0653 -0.02178,0.0912 -0.0092,0.0255 -0.02053,0.0464 -0.03479,0.0641 -0.0023,0.003 -0.0047,0.006 -0.0067,0.009 -0.01306,0.019 -0.02995,0.0363 -0.04953,0.0506 -0.01971,0.0144 -0.04127,0.0251 -0.063,0.0317 -0.02183,0.007 -0.04308,0.009 -0.06267,0.007 -0.01948,-0.002 -0.03826,-0.007 -0.05603,-0.0177 -0.05523,-0.0319 -0.103651,-0.0697 -0.148435,-0.11306 -0.0453,-0.0439 -0.08683,-0.0935 -0.125745,-0.14745 -0.07951,-0.11017 -0.145916,-0.23507 -0.21079,-0.36038 -0.03038,-0.0584 -0.05304,-0.11811 -0.0838,-0.18887 -0.02892,-0.0666 -0.06263,-0.13673 -0.111261,-0.20299 -0.103255,-0.2303 -0.151315,-0.47183 -0.13943,-0.69694 2.75e-4,-0.0223 0.0027,-0.0301 0.0023,-0.0292 -2.43e-4,4.8e-4 -0.0014,0.003 -0.0042,0.007 -0.0029,0.004 -0.0072,0.009 -0.01314,0.0129 -0.006,0.004 -0.01241,0.007 -0.01865,0.009 -0.0061,0.002 -0.01129,0.002 -0.01478,0.002 -0.0064,4e-5 -0.008,-0.001 -0.0034,1.2e-4 0.0099,0.004 0.02725,0.0142 0.04492,0.0315 0.01843,0.018 0.02881,0.0349 0.03256,0.0441 0.154453,0.36026 0.222042,0.73314 0.22225,1.08328 2.37e-4,0.3982 -0.08578,0.7634 -0.227428,1.07399 -0.02577,0.059 -0.0531,0.11332 -0.08216,0.16466 -0.07557,0.13348 -0.163713,0.24821 -0.256768,0.3436 -0.155649,0.15955 -0.326867,0.26743 -0.496229,0.33284 -0.133564,0.0553 -0.269578,0.0694 -0.386052,0.0544 -0.06399,-0.008 -0.123735,-0.0253 -0.177489,-0.0504 -0.05145,-0.024 -0.09873,-0.0559 -0.140163,-0.0964 -0.04236,-0.0537 -0.08069,-0.1174 -0.116786,-0.19376 -0.01302,-0.0275 -0.02576,-0.0567 -0.03843,-0.088 -0.01811,-0.0446 -0.03534,-0.0917 -0.0531,-0.14359 -0.09296,-0.29321 -0.111354,-0.62197 -0.05005,-0.96151 0.05769,-0.31951 0.183908,-0.63517 0.363955,-0.91602 0.05566,-0.0988 0.111204,-0.18362 0.173392,-0.25916 0.06533,-0.0794 0.134947,-0.14474 0.210045,-0.19651 0.205598,-0.14525 0.433113,-0.22751 0.642261,-0.28216 0.260363,-0.068 0.587944,-0.11224 0.729989,-0.13307 a 0.14716339,0.14716339 90 0 0 -0.04271,-0.29122 z"
       id="path-1"
       inkscape:path-effect="#path-effect154;#path-effect156"
       inkscape:original-d="m -12.974151,148.88932 c -0.676518,0.0967 -1.471457,0.2142 -1.826247,0.88464 -0.490178,0.72044 -0.657654,1.75567 -0.141434,2.50682 0.492414,0.48678 1.250517,0.0493 1.578154,-0.42013 0.514202,-0.74964 0.560919,-1.77878 0.206008,-2.60179 -0.425901,-0.5999 -0.262315,0.61044 -0.03709,0.83219 0.139515,0.41196 0.675248,1.44549 1.116636,0.78367 0.158583,-0.59447 0.06791,-1.22971 0.02298,-1.83563 0.02071,-0.65389 -0.463455,-1.16851 -1.126951,-1.13667 -0.75922,-0.14067 -1.381489,0.43808 -1.723016,1.05513 -0.79226,1.37059 -1.246114,3.02502 -0.949923,4.60444 0.121091,0.68382 0.776701,1.25017 1.485157,1.09134 0.897913,-0.1746 1.610378,-0.84736 2.172138,-1.5322 0.580322,-0.75624 0.640794,-1.74478 0.739895,-2.65727 -0.01491,-0.50731 0.167725,-1.15982 -0.326683,-1.49948 -0.301821,-0.23931 -0.67442,-0.35748 -1.01046,-0.53713"
       style="fill:#000000;fill-rule:nonzero;stroke:none;stroke-width:1.33828" />
  </g>
</svg>
