<?xml version="1.0" encoding="UTF-8" standalone="no"?>
<!-- Created with Inkscape (http://www.inkscape.org/) -->

<svg
   width="5mm"
   height="10mm"
   viewBox="0 0 5.0000001 9.9999994"
   version="1.1"
   id="svg1681"
   inkscape:version="1.2.1 (9c6d41e410, 2022-07-14)"
   sodipodi:docname="at_symbol_25.svg"
   inkscape:export-filename="..\..\..\..\Downloads\lower a diff canvas resize 3.0.png"
   inkscape:export-xdpi="96"
   inkscape:export-ydpi="96"
   xmlns:inkscape="http://www.inkscape.org/namespaces/inkscape"
   xmlns:sodipodi="http://sodipodi.sourceforge.net/DTD/sodipodi-0.dtd"
   xmlns="http://www.w3.org/2000/svg"
   xmlns:svg="http://www.w3.org/2000/svg"
   xmlns:rdf="http://www.w3.org/1999/02/22-rdf-syntax-ns#"
   xmlns:cc="http://creativecommons.org/ns#"
   xmlns:dc="http://purl.org/dc/elements/1.1/">
  <defs
     id="defs1675">
    <inkscape:path-effect
       effect="powerstroke"
       id="path-effect158"
       is_visible="true"
       lpeversion="1"
       offset_points="3.519898,0.17631692 | 12.516413,0.11367301 | 16.561595,0.15499133"
       not_jump="true"
       sort_points="true"
       interpolator_type="CentripetalCatmullRom"
       interpolator_beta="0.75"
       start_linecap_type="round"
       linejoin_type="spiro"
       miter_limit="4"
       scale_width="1"
       end_linecap_type="round" />
    <inkscape:path-effect
       effect="simplify"
       id="path-effect156"
       is_visible="true"
       lpeversion="1"
       steps="1"
       threshold="0.0035951417"
       smooth_angles="0"
       helper_size="0"
       simplify_individual_paths="false"
       simplify_just_coalesce="false"
       step="1" />
    <inkscape:path-effect
       effect="powerstroke"
       id="path-effect162"
       is_visible="true"
       lpeversion="1"
       offset_points="3.5035831,0.13866726 | 10.264614,0.15779379 | 12.251543,0.12801727 | 21.510634,0.16583561"
       not_jump="true"
       sort_points="true"
       interpolator_type="CentripetalCatmullRom"
       interpolator_beta="0.75"
       start_linecap_type="round"
       linejoin_type="spiro"
       miter_limit="4"
       scale_width="1"
       end_linecap_type="round" />
    <inkscape:path-effect
       effect="simplify"
       id="path-effect160"
       is_visible="true"
       lpeversion="1"
       steps="1"
       threshold="0.0035951417"
       smooth_angles="0"
       helper_size="0"
       simplify_individual_paths="false"
       simplify_just_coalesce="false"
       step="1" />
    <inkscape:path-effect
       effect="powerstroke"
       id="path-effect155"
       is_visible="true"
       lpeversion="1"
       offset_points="5.0346698,0.099247301 | 7.0164459,0.082657146 | 9.1313968,0.073407767 | 19.328923,0.10658808"
       not_jump="true"
       sort_points="true"
       interpolator_type="CentripetalCatmullRom"
       interpolator_beta="0.75"
       start_linecap_type="round"
       linejoin_type="spiro"
       miter_limit="4"
       scale_width="1"
       end_linecap_type="round" />
    <inkscape:path-effect
       effect="simplify"
       id="path-effect153"
       is_visible="true"
       lpeversion="1"
       steps="1"
       threshold="0.0035951417"
       smooth_angles="0"
       helper_size="0"
       simplify_individual_paths="false"
       simplify_just_coalesce="false"
       step="1" />
    <inkscape:path-effect
       effect="powerstroke"
       id="path-effect520"
       is_visible="true"
       lpeversion="1"
       offset_points="2.7104209,0.13651777 | 6.1891906,0.10208306 | 6.7050343,0.12552797 | 13.23432,0.15092662 | 19.757333,0.17315044"
       not_jump="true"
       sort_points="true"
       interpolator_type="CentripetalCatmullRom"
       interpolator_beta="0.75"
       start_linecap_type="round"
       linejoin_type="spiro"
       miter_limit="4"
       scale_width="1"
       end_linecap_type="round" />
    <inkscape:path-effect
       effect="simplify"
       id="path-effect518"
       is_visible="true"
       lpeversion="1"
       steps="1"
       threshold="0.0035951417"
       smooth_angles="0"
       helper_size="0"
       simplify_individual_paths="false"
       simplify_just_coalesce="false"
       step="1" />
    <inkscape:path-effect
       effect="powerstroke"
       id="path-effect513"
       is_visible="true"
       lpeversion="1"
       offset_points="3.4665905,0.085593456 | 5.097968,0.077665417 | 18.223138,0.10717534"
       not_jump="true"
       sort_points="true"
       interpolator_type="CentripetalCatmullRom"
       interpolator_beta="0.75"
       start_linecap_type="round"
       linejoin_type="spiro"
       miter_limit="4"
       scale_width="1"
       end_linecap_type="round" />
    <inkscape:path-effect
       effect="simplify"
       id="path-effect511"
       is_visible="true"
       lpeversion="1"
       steps="1"
       threshold="0.0035951417"
       smooth_angles="0"
       helper_size="0"
       simplify_individual_paths="false"
       simplify_just_coalesce="false"
       step="1" />
    <inkscape:path-effect
       effect="powerstroke"
       id="path-effect502"
       is_visible="true"
       lpeversion="1"
       offset_points="3.0091841,0.21607495 | 7.3602657,0.17554228 | 9.4159651,0.20236537"
       not_jump="true"
       sort_points="true"
       interpolator_type="CentripetalCatmullRom"
       interpolator_beta="0.75"
       start_linecap_type="round"
       linejoin_type="spiro"
       miter_limit="4"
       scale_width="1"
       end_linecap_type="round" />
    <inkscape:path-effect
       effect="simplify"
       id="path-effect500"
       is_visible="true"
       lpeversion="1"
       steps="1"
       threshold="0.0035951417"
       smooth_angles="0"
       helper_size="0"
       simplify_individual_paths="false"
       simplify_just_coalesce="false"
       step="1" />
    <inkscape:path-effect
       effect="powerstroke"
       id="path-effect241"
       is_visible="true"
       lpeversion="1"
       offset_points="2.6879454,0.34086734"
       not_jump="true"
       sort_points="true"
       interpolator_type="CentripetalCatmullRom"
       interpolator_beta="0.75"
       start_linecap_type="round"
       linejoin_type="spiro"
       miter_limit="4"
       scale_width="1"
       end_linecap_type="round" />
    <inkscape:path-effect
       effect="simplify"
       id="path-effect239"
       is_visible="true"
       lpeversion="1"
       steps="1"
       threshold="0.0028332064"
       smooth_angles="0"
       helper_size="0"
       simplify_individual_paths="false"
       simplify_just_coalesce="false"
       step="1" />
    <inkscape:path-effect
       effect="powerstroke"
       id="path-effect234"
       is_visible="true"
       lpeversion="1"
       offset_points="2.13563,0.075169555"
       not_jump="true"
       sort_points="true"
       interpolator_type="CentripetalCatmullRom"
       interpolator_beta="0.75"
       start_linecap_type="round"
       linejoin_type="spiro"
       miter_limit="4"
       scale_width="1"
       end_linecap_type="round" />
    <inkscape:path-effect
       effect="simplify"
       id="path-effect232"
       is_visible="true"
       lpeversion="1"
       steps="1"
       threshold="0.0028332064"
       smooth_angles="0"
       helper_size="0"
       simplify_individual_paths="false"
       simplify_just_coalesce="false"
       step="1" />
    <inkscape:path-effect
       effect="powerstroke"
       id="path-effect227"
       is_visible="true"
       lpeversion="1"
       offset_points="2.1868266,0.075169555"
       not_jump="true"
       sort_points="true"
       interpolator_type="CentripetalCatmullRom"
       interpolator_beta="0.75"
       start_linecap_type="round"
       linejoin_type="spiro"
       miter_limit="4"
       scale_width="1"
       end_linecap_type="round" />
    <inkscape:path-effect
       effect="simplify"
       id="path-effect225"
       is_visible="true"
       lpeversion="1"
       steps="1"
       threshold="0.0028332064"
       smooth_angles="0"
       helper_size="0"
       simplify_individual_paths="false"
       simplify_just_coalesce="false"
       step="1" />
    <inkscape:path-effect
       effect="powerstroke"
       id="path-effect166"
       is_visible="true"
       lpeversion="1"
       offset_points="1.9637935,0.075169555"
       not_jump="true"
       sort_points="true"
       interpolator_type="CentripetalCatmullRom"
       interpolator_beta="0.75"
       start_linecap_type="round"
       linejoin_type="spiro"
       miter_limit="4"
       scale_width="1"
       end_linecap_type="round" />
    <inkscape:path-effect
       effect="simplify"
       id="path-effect164"
       is_visible="true"
       lpeversion="1"
       steps="1"
       threshold="0.0028332064"
       smooth_angles="0"
       helper_size="0"
       simplify_individual_paths="false"
       simplify_just_coalesce="false"
       step="1" />
    <inkscape:path-effect
       effect="powerstroke"
       id="path-effect159"
       is_visible="true"
       lpeversion="1"
       offset_points="2.2611036,0.075169555"
       not_jump="true"
       sort_points="true"
       interpolator_type="CentripetalCatmullRom"
       interpolator_beta="0.75"
       start_linecap_type="round"
       linejoin_type="spiro"
       miter_limit="4"
       scale_width="1"
       end_linecap_type="round" />
    <inkscape:path-effect
       effect="simplify"
       id="path-effect157"
       is_visible="true"
       lpeversion="1"
       steps="1"
       threshold="0.0028332064"
       smooth_angles="0"
       helper_size="0"
       simplify_individual_paths="false"
       simplify_just_coalesce="false"
       step="1" />
    <inkscape:path-effect
       effect="powerstroke"
       id="path-effect152"
       is_visible="true"
       lpeversion="1"
       offset_points="2.826981,0.075169555"
       not_jump="true"
       sort_points="true"
       interpolator_type="CentripetalCatmullRom"
       interpolator_beta="0.75"
       start_linecap_type="round"
       linejoin_type="spiro"
       miter_limit="4"
       scale_width="1"
       end_linecap_type="round" />
    <inkscape:path-effect
       effect="simplify"
       id="path-effect150"
       is_visible="true"
       lpeversion="1"
       steps="1"
       threshold="0.0028332064"
       smooth_angles="0"
       helper_size="0"
       simplify_individual_paths="false"
       simplify_just_coalesce="false"
       step="1" />
    <inkscape:path-effect
       effect="powerstroke"
       id="path-effect145"
       is_visible="true"
       lpeversion="1"
       offset_points="3.8374447,0.075169555"
       not_jump="true"
       sort_points="true"
       interpolator_type="CentripetalCatmullRom"
       interpolator_beta="0.75"
       start_linecap_type="round"
       linejoin_type="spiro"
       miter_limit="4"
       scale_width="1"
       end_linecap_type="round" />
    <inkscape:path-effect
       effect="simplify"
       id="path-effect143"
       is_visible="true"
       lpeversion="1"
       steps="1"
       threshold="0.0028332064"
       smooth_angles="0"
       helper_size="0"
       simplify_individual_paths="false"
       simplify_just_coalesce="false"
       step="1" />
    <inkscape:path-effect
       effect="powerstroke"
       id="path-effect138"
       is_visible="true"
       lpeversion="1"
       offset_points="2.6880907,0.075169555"
       not_jump="true"
       sort_points="true"
       interpolator_type="CentripetalCatmullRom"
       interpolator_beta="0.75"
       start_linecap_type="round"
       linejoin_type="spiro"
       miter_limit="4"
       scale_width="1"
       end_linecap_type="round" />
    <inkscape:path-effect
       effect="simplify"
       id="path-effect136"
       is_visible="true"
       lpeversion="1"
       steps="1"
       threshold="0.0028332064"
       smooth_angles="0"
       helper_size="0"
       simplify_individual_paths="false"
       simplify_just_coalesce="false"
       step="1" />
    <inkscape:path-effect
       effect="powerstroke"
       id="path-effect131"
       is_visible="true"
       lpeversion="1"
       offset_points="1.9940581,0.075169555"
       not_jump="true"
       sort_points="true"
       interpolator_type="CentripetalCatmullRom"
       interpolator_beta="0.75"
       start_linecap_type="round"
       linejoin_type="spiro"
       miter_limit="4"
       scale_width="1"
       end_linecap_type="round" />
    <inkscape:path-effect
       effect="simplify"
       id="path-effect129"
       is_visible="true"
       lpeversion="1"
       steps="1"
       threshold="0.0028332064"
       smooth_angles="0"
       helper_size="0"
       simplify_individual_paths="false"
       simplify_just_coalesce="false"
       step="1" />
  </defs>
  <sodipodi:namedview
     id="base"
     pagecolor="#ffffff"
     bordercolor="#666666"
     borderopacity="1.0"
     inkscape:pageopacity="0.0"
     inkscape:pageshadow="2"
     inkscape:zoom="7.919596"
     inkscape:cx="-5.1770318"
     inkscape:cy="20.960665"
     inkscape:document-units="mm"
     inkscape:current-layer="layer1"
     showgrid="false"
     fit-margin-top="0"
     fit-margin-left="0"
     fit-margin-right="0"
     fit-margin-bottom="0"
     inkscape:window-width="1920"
     inkscape:window-height="974"
     inkscape:window-x="-11"
     inkscape:window-y="2889"
     inkscape:window-maximized="1"
     showguides="true"
     inkscape:guide-bbox="true"
     inkscape:snap-bbox="true"
     inkscape:bbox-nodes="true"
     inkscape:snap-nodes="false"
     inkscape:snap-others="false"
     inkscape:snap-page="true"
     inkscape:snap-grids="false"
     inkscape:snap-to-guides="false"
     inkscape:snap-global="false"
     inkscape:pagecheckerboard="0"
     inkscape:showpageshadow="2"
     inkscape:deskcolor="#d1d1d1">
    <sodipodi:guide
       position="-6.1806075,9.4988692"
       orientation="0,1"
       id="guide816"
       inkscape:locked="false" />
    <sodipodi:guide
       position="-4.4101636,10.646923"
       orientation="0,1"
       id="guide818"
       inkscape:locked="false" />
    <sodipodi:guide
       position="2.7595724,11.09577"
       orientation="1,0"
       id="guide820"
       inkscape:locked="false" />
    <sodipodi:guide
       position="3.6572659,10.942217"
       orientation="1,0"
       id="guide822"
       inkscape:locked="false" />
    <sodipodi:guide
       position="-0.051625511,9.7492299"
       orientation="1,0"
       id="guide1853"
       inkscape:locked="false" />
    <sodipodi:guide
       position="-2.3720169,3.0175835"
       orientation="0,1"
       id="guide1855"
       inkscape:locked="false" />
  </sodipodi:namedview>
  <metadata
     id="metadata1678">
    <rdf:RDF>
      <cc:Work
         rdf:about="">
        <dc:format>image/svg+xml</dc:format>
        <dc:type
           rdf:resource="http://purl.org/dc/dcmitype/StillImage" />
      </cc:Work>
    </rdf:RDF>
  </metadata>
  <g
     inkscape:label="Layer 1"
     inkscape:groupmode="layer"
     id="layer1"
     transform="translate(17.028496,-147.22856)">
    <path
       d="m -13.67007,148.94194 c -0.248777,-0.10548 -0.588743,-0.1869 -1.006065,-0.14963 -0.304455,0.0272 -0.639672,0.11793 -0.963639,0.29352 -0.52039,0.27441 -1.009734,0.74069 -1.322205,1.37263 -0.142621,0.27665 -0.238582,0.5977 -0.260608,0.93008 -0.02136,0.32241 0.02705,0.65646 0.171017,0.96493 0.08875,0.18523 0.21439,0.35307 0.367716,0.48983 0.0061,0.005 0.01226,0.0109 0.01845,0.0162 0.141193,0.12189 0.315946,0.22693 0.518629,0.28656 0.119376,0.032 0.236969,0.0437 0.354948,0.0384 0.113414,-0.005 0.225979,-0.0259 0.335842,-0.0593 0.209472,-0.0638 0.408706,-0.17361 0.583123,-0.30715 0.310774,-0.24084 0.571399,-0.56022 0.764037,-0.92798 0.186741,-0.36627 0.291089,-0.75992 0.337888,-1.16432 0.04582,-0.39594 0.03623,-0.79988 -0.0044,-1.19329 -0.0079,-0.0948 -0.02145,-0.21266 -0.05836,-0.32498 -0.01859,-0.0566 -0.04361,-0.11347 -0.07804,-0.16719 -0.03453,-0.0539 -0.07811,-0.10391 -0.132935,-0.1468 -0.05645,-0.0507 -0.131098,-0.0907 -0.208722,-0.11502 -0.07769,-0.0243 -0.160234,-0.0335 -0.240867,-0.0268 -0.08085,0.007 -0.161614,0.0296 -0.234146,0.0713 -0.07331,0.0421 -0.137086,0.10276 -0.182415,0.18225 -0.02516,0.0419 -0.04313,0.0886 -0.05447,0.13501 -0.01137,0.0465 -0.01604,0.0926 -0.01676,0.13652 -0.0014,0.0832 0.01152,0.16484 0.02439,0.23322 -0.0051,0.39352 0.07016,0.78753 0.218087,1.14347 0.154975,0.37289 0.388865,0.70265 0.693931,0.95396 0.06407,0.0468 0.135563,0.10582 0.211402,0.15088 0.04065,0.0242 0.08456,0.0457 0.13226,0.0609 0.04964,0.0158 0.102213,0.0244 0.157906,0.0228 0.08293,0.005 0.168912,-0.0106 0.24645,-0.0392 0.08088,-0.0298 0.152655,-0.0738 0.214528,-0.12434 0.0042,-0.003 0.0083,-0.007 0.01244,-0.0103 0.125797,-0.1067 0.216446,-0.24518 0.271398,-0.37658 0.04818,-0.10229 0.07673,-0.21069 0.09295,-0.3124 0.01754,-0.11 0.02168,-0.2189 0.01974,-0.31931 0.01321,-0.35734 -0.0158,-0.72838 -0.100855,-1.08174 -0.08545,-0.355 -0.229888,-0.70216 -0.455087,-1.01022 -0.06765,-0.0961 -0.148482,-0.19492 -0.244439,-0.28356 -0.08931,-0.0825 -0.196612,-0.16071 -0.324473,-0.21846 -0.126842,-0.0628 -0.267887,-0.1084 -0.415298,-0.13488 -0.140356,-0.0252 -0.285816,-0.033 -0.433912,-0.0243 -0.03536,0.002 -0.07086,0.005 -0.106459,0.009 -0.238065,0.0263 -0.484311,0.0944 -0.722106,0.20127 -0.396047,0.17494 -0.767244,0.44331 -1.079558,0.7943 -0.289013,0.3248 -0.525436,0.71867 -0.673458,1.15812 -0.18409,0.53411 -0.25432,1.12652 -0.18863,1.71683 0.06317,0.56769 0.252603,1.13381 0.586742,1.62838 0.232475,0.33767 0.535218,0.65166 0.909324,0.87026 0.0034,0.002 0.0069,0.004 0.01042,0.006 0.23731,0.1161 0.496055,0.15818 0.748875,0.14573 0.253173,-0.0125 0.502309,-0.0793 0.72564,-0.18131 0.508574,-0.22935 0.932877,-0.59787 1.257041,-1.00884 0.24592,-0.32713 0.407058,-0.6868 0.519937,-1.04635 0.117709,-0.37494 0.186453,-0.76196 0.23615,-1.11858 0.03346,-0.29173 0.07292,-0.49699 0.08227,-0.76038 -0.0013,-0.16419 -0.02758,-0.30934 -0.06549,-0.44111 -0.04119,-0.14313 -0.09769,-0.27556 -0.155545,-0.39314 -0.110869,-0.22535 -0.334765,-0.58433 -0.401255,-0.69963 a 0.15499133,0.15499133 90 0 0 -0.268532,0.15486 c 0.08115,0.14071 0.285293,0.46614 0.391025,0.68171 0.05257,0.10719 0.100896,0.22195 0.135257,0.34203 0.0315,0.11008 0.05199,0.22697 0.05292,0.35081 -0.0095,0.24024 -0.04561,0.41286 -0.08248,0.72488 -0.04868,0.34593 -0.114979,0.71321 -0.225491,1.06381 -0.105769,0.33556 -0.253161,0.66001 -0.469759,0.94757 -0.297429,0.37583 -0.683589,0.70761 -1.13775,0.91182 -0.19153,0.0872 -0.401184,0.14242 -0.609528,0.15249 -0.205472,0.01 -0.406448,-0.0241 -0.587215,-0.11142 -0.322102,-0.18973 -0.590568,-0.46568 -0.801267,-0.77131 -0.301406,-0.44592 -0.475258,-0.96148 -0.533599,-1.4833 -0.06068,-0.54272 0.0037,-1.08762 0.172464,-1.57882 0.133682,-0.3984 0.347254,-0.7556 0.608642,-1.05044 0.282306,-0.31844 0.616324,-0.56039 0.971026,-0.71823 0.210585,-0.0958 0.425113,-0.15575 0.628899,-0.1796 0.03041,-0.004 0.06061,-0.006 0.0906,-0.008 0.125586,-0.008 0.246783,-0.003 0.36192,0.0171 0.120772,0.0205 0.234924,0.0563 0.341381,0.10742 0.09947,0.042 0.182838,0.0978 0.257046,0.16154 0.07986,0.0686 0.15124,0.14835 0.215026,0.23132 0.203912,0.2712 0.339866,0.58189 0.423294,0.9086 0.08307,0.32529 0.115447,0.67207 0.10716,1.01966 0.0057,0.0986 0.0054,0.192 -0.0063,0.284 -0.01079,0.0849 -0.03165,0.17144 -0.06878,0.25441 -0.04368,0.10808 -0.113594,0.21547 -0.207253,0.29554 -0.003,0.003 -0.006,0.005 -0.0091,0.008 -0.04524,0.0372 -0.09532,0.0675 -0.148976,0.0872 -0.05103,0.0188 -0.106095,0.0284 -0.164818,0.025 -0.03671,4.9e-4 -0.06337,-0.004 -0.09067,-0.0129 -0.02676,-0.009 -0.05432,-0.0224 -0.08387,-0.0406 -0.06256,-0.0385 -0.111283,-0.0819 -0.185449,-0.13828 -0.266764,-0.22203 -0.477015,-0.5201 -0.616532,-0.8612 -0.134796,-0.32955 -0.201721,-0.69548 -0.192952,-1.05991 1.92e-4,-0.008 -5.82e-4,-0.0159 -0.0018,-0.0238 -0.01077,-0.0687 -0.01847,-0.13345 -0.01522,-0.19331 0.0016,-0.029 0.0057,-0.0554 0.01263,-0.0795 0.0068,-0.0237 0.01649,-0.0451 0.02949,-0.0648 0.0234,-0.0388 0.05287,-0.0656 0.08795,-0.0845 0.03543,-0.0191 0.07757,-0.0306 0.123093,-0.0333 0.04545,-0.003 0.09235,0.004 0.135896,0.0187 0.04352,0.0149 0.08172,0.0375 0.111546,0.0657 0.03372,0.0283 0.05535,0.0546 0.07305,0.0844 0.0179,0.0301 0.0322,0.0645 0.0435,0.10308 0.02314,0.0789 0.03193,0.16841 0.03682,0.26305 0.03645,0.38313 0.04181,0.76402 -0.0037,1.1317 -0.04642,0.37508 -0.145051,0.73052 -0.312889,1.05363 -0.177631,0.32641 -0.413473,0.60442 -0.685236,0.80905 -0.14931,0.11114 -0.313987,0.19777 -0.47861,0.24579 -0.08579,0.025 -0.170135,0.0392 -0.251948,0.042 -0.08483,0.003 -0.166752,-0.006 -0.2454,-0.0282 -0.143905,-0.0441 -0.274735,-0.12333 -0.382971,-0.21801 -0.0047,-0.004 -0.0094,-0.008 -0.0141,-0.0125 -0.117703,-0.10634 -0.214409,-0.23686 -0.28176,-0.37876 -0.113813,-0.24528 -0.154718,-0.51867 -0.136521,-0.78965 0.01882,-0.2803 0.100275,-0.55398 0.223369,-0.79292 0.279279,-0.56502 0.713254,-0.97789 1.171195,-1.22032 0.280837,-0.15276 0.568822,-0.23085 0.827628,-0.25441 0.353013,-0.0321 0.635092,0.0365 0.836673,0.12197 a 0.17631692,0.17631692 90 0 0 0.13765,-0.32466 z"
       id="path-1"
       inkscape:path-effect="#path-effect156;#path-effect158"
       inkscape:original-d="m -13.738895,149.10427 c -1.1629,-0.47915 -2.474204,0.29552 -3.013597,1.34441 -0.439042,0.74402 -0.442342,1.87409 0.349389,2.38618 0.635337,0.44131 1.41131,-0.0134 1.828348,-0.53825 0.69153,-0.79681 0.757801,-1.93847 0.628719,-2.93853 -0.09718,-0.6752 -1.069017,-0.62143 -0.887344,0.12089 -0.02723,0.85852 0.366918,1.78843 1.131814,2.22291 0.568984,0.16764 0.928193,-0.48849 0.888081,-0.97831 0.03886,-0.83681 -0.161374,-1.76863 -0.794754,-2.35615 -0.83552,-0.64576 -1.998355,-0.18476 -2.674847,0.4749 -1.463472,1.39091 -1.345016,4.16733 0.390894,5.28533 0.81321,0.41526 1.735126,-0.094 2.31184,-0.6825 0.775812,-0.74878 0.935365,-1.87561 1.05084,-2.89381 0.110853,-0.64641 -0.278404,-1.16342 -0.581527,-1.68727"
       style="fill:#000000;fill-rule:nonzero;stroke:none;stroke-width:1.29691" />
  </g>
</svg>
