<?xml version="1.0" encoding="UTF-8" standalone="no"?>
<!-- Created with Inkscape (http://www.inkscape.org/) -->

<svg
   width="5mm"
   height="10mm"
   viewBox="0 0 5.0000001 9.9999994"
   version="1.1"
   id="svg1681"
   inkscape:version="1.2.1 (9c6d41e410, 2022-07-14)"
   sodipodi:docname="at_symbol_1.svg"
   inkscape:export-filename="..\..\..\..\Downloads\lower a diff canvas resize 3.0.png"
   inkscape:export-xdpi="96"
   inkscape:export-ydpi="96"
   xmlns:inkscape="http://www.inkscape.org/namespaces/inkscape"
   xmlns:sodipodi="http://sodipodi.sourceforge.net/DTD/sodipodi-0.dtd"
   xmlns="http://www.w3.org/2000/svg"
   xmlns:svg="http://www.w3.org/2000/svg"
   xmlns:rdf="http://www.w3.org/1999/02/22-rdf-syntax-ns#"
   xmlns:cc="http://creativecommons.org/ns#"
   xmlns:dc="http://purl.org/dc/elements/1.1/">
  <defs
     id="defs1675">
    <inkscape:path-effect
       effect="powerstroke"
       id="path-effect1482"
       is_visible="true"
       lpeversion="1"
       offset_points="3.7088798,0.16303938 | 6.5700881,0.14748794 | 7.7997513,0.166551 | 18.340411,0.14548129 | 22.036374,0.17909248"
       not_jump="true"
       sort_points="true"
       interpolator_type="CentripetalCatmullRom"
       interpolator_beta="0.75"
       start_linecap_type="round"
       linejoin_type="spiro"
       miter_limit="4"
       scale_width="1"
       end_linecap_type="round" />
    <inkscape:path-effect
       effect="simplify"
       id="path-effect1480"
       is_visible="true"
       lpeversion="1"
       steps="1"
       threshold="0.0035951417"
       smooth_angles="0"
       helper_size="0"
       simplify_individual_paths="false"
       simplify_just_coalesce="false"
       step="1" />
    <inkscape:path-effect
       effect="powerstroke"
       id="path-effect502"
       is_visible="true"
       lpeversion="1"
       offset_points="3.0091841,0.21607495 | 7.3602657,0.17554228 | 9.4159651,0.20236537"
       not_jump="true"
       sort_points="true"
       interpolator_type="CentripetalCatmullRom"
       interpolator_beta="0.75"
       start_linecap_type="round"
       linejoin_type="spiro"
       miter_limit="4"
       scale_width="1"
       end_linecap_type="round" />
    <inkscape:path-effect
       effect="simplify"
       id="path-effect500"
       is_visible="true"
       lpeversion="1"
       steps="1"
       threshold="0.0035951417"
       smooth_angles="0"
       helper_size="0"
       simplify_individual_paths="false"
       simplify_just_coalesce="false"
       step="1" />
    <inkscape:path-effect
       effect="powerstroke"
       id="path-effect241"
       is_visible="true"
       lpeversion="1"
       offset_points="2.6879454,0.34086734"
       not_jump="true"
       sort_points="true"
       interpolator_type="CentripetalCatmullRom"
       interpolator_beta="0.75"
       start_linecap_type="round"
       linejoin_type="spiro"
       miter_limit="4"
       scale_width="1"
       end_linecap_type="round" />
    <inkscape:path-effect
       effect="simplify"
       id="path-effect239"
       is_visible="true"
       lpeversion="1"
       steps="1"
       threshold="0.0028332064"
       smooth_angles="0"
       helper_size="0"
       simplify_individual_paths="false"
       simplify_just_coalesce="false"
       step="1" />
    <inkscape:path-effect
       effect="powerstroke"
       id="path-effect234"
       is_visible="true"
       lpeversion="1"
       offset_points="2.13563,0.075169555"
       not_jump="true"
       sort_points="true"
       interpolator_type="CentripetalCatmullRom"
       interpolator_beta="0.75"
       start_linecap_type="round"
       linejoin_type="spiro"
       miter_limit="4"
       scale_width="1"
       end_linecap_type="round" />
    <inkscape:path-effect
       effect="simplify"
       id="path-effect232"
       is_visible="true"
       lpeversion="1"
       steps="1"
       threshold="0.0028332064"
       smooth_angles="0"
       helper_size="0"
       simplify_individual_paths="false"
       simplify_just_coalesce="false"
       step="1" />
    <inkscape:path-effect
       effect="powerstroke"
       id="path-effect227"
       is_visible="true"
       lpeversion="1"
       offset_points="2.1868266,0.075169555"
       not_jump="true"
       sort_points="true"
       interpolator_type="CentripetalCatmullRom"
       interpolator_beta="0.75"
       start_linecap_type="round"
       linejoin_type="spiro"
       miter_limit="4"
       scale_width="1"
       end_linecap_type="round" />
    <inkscape:path-effect
       effect="simplify"
       id="path-effect225"
       is_visible="true"
       lpeversion="1"
       steps="1"
       threshold="0.0028332064"
       smooth_angles="0"
       helper_size="0"
       simplify_individual_paths="false"
       simplify_just_coalesce="false"
       step="1" />
    <inkscape:path-effect
       effect="powerstroke"
       id="path-effect166"
       is_visible="true"
       lpeversion="1"
       offset_points="1.9637935,0.075169555"
       not_jump="true"
       sort_points="true"
       interpolator_type="CentripetalCatmullRom"
       interpolator_beta="0.75"
       start_linecap_type="round"
       linejoin_type="spiro"
       miter_limit="4"
       scale_width="1"
       end_linecap_type="round" />
    <inkscape:path-effect
       effect="simplify"
       id="path-effect164"
       is_visible="true"
       lpeversion="1"
       steps="1"
       threshold="0.0028332064"
       smooth_angles="0"
       helper_size="0"
       simplify_individual_paths="false"
       simplify_just_coalesce="false"
       step="1" />
    <inkscape:path-effect
       effect="powerstroke"
       id="path-effect159"
       is_visible="true"
       lpeversion="1"
       offset_points="2.2611036,0.075169555"
       not_jump="true"
       sort_points="true"
       interpolator_type="CentripetalCatmullRom"
       interpolator_beta="0.75"
       start_linecap_type="round"
       linejoin_type="spiro"
       miter_limit="4"
       scale_width="1"
       end_linecap_type="round" />
    <inkscape:path-effect
       effect="simplify"
       id="path-effect157"
       is_visible="true"
       lpeversion="1"
       steps="1"
       threshold="0.0028332064"
       smooth_angles="0"
       helper_size="0"
       simplify_individual_paths="false"
       simplify_just_coalesce="false"
       step="1" />
    <inkscape:path-effect
       effect="powerstroke"
       id="path-effect152"
       is_visible="true"
       lpeversion="1"
       offset_points="2.826981,0.075169555"
       not_jump="true"
       sort_points="true"
       interpolator_type="CentripetalCatmullRom"
       interpolator_beta="0.75"
       start_linecap_type="round"
       linejoin_type="spiro"
       miter_limit="4"
       scale_width="1"
       end_linecap_type="round" />
    <inkscape:path-effect
       effect="simplify"
       id="path-effect150"
       is_visible="true"
       lpeversion="1"
       steps="1"
       threshold="0.0028332064"
       smooth_angles="0"
       helper_size="0"
       simplify_individual_paths="false"
       simplify_just_coalesce="false"
       step="1" />
    <inkscape:path-effect
       effect="powerstroke"
       id="path-effect145"
       is_visible="true"
       lpeversion="1"
       offset_points="3.8374447,0.075169555"
       not_jump="true"
       sort_points="true"
       interpolator_type="CentripetalCatmullRom"
       interpolator_beta="0.75"
       start_linecap_type="round"
       linejoin_type="spiro"
       miter_limit="4"
       scale_width="1"
       end_linecap_type="round" />
    <inkscape:path-effect
       effect="simplify"
       id="path-effect143"
       is_visible="true"
       lpeversion="1"
       steps="1"
       threshold="0.0028332064"
       smooth_angles="0"
       helper_size="0"
       simplify_individual_paths="false"
       simplify_just_coalesce="false"
       step="1" />
    <inkscape:path-effect
       effect="powerstroke"
       id="path-effect138"
       is_visible="true"
       lpeversion="1"
       offset_points="2.6880907,0.075169555"
       not_jump="true"
       sort_points="true"
       interpolator_type="CentripetalCatmullRom"
       interpolator_beta="0.75"
       start_linecap_type="round"
       linejoin_type="spiro"
       miter_limit="4"
       scale_width="1"
       end_linecap_type="round" />
    <inkscape:path-effect
       effect="simplify"
       id="path-effect136"
       is_visible="true"
       lpeversion="1"
       steps="1"
       threshold="0.0028332064"
       smooth_angles="0"
       helper_size="0"
       simplify_individual_paths="false"
       simplify_just_coalesce="false"
       step="1" />
    <inkscape:path-effect
       effect="powerstroke"
       id="path-effect131"
       is_visible="true"
       lpeversion="1"
       offset_points="1.9940581,0.075169555"
       not_jump="true"
       sort_points="true"
       interpolator_type="CentripetalCatmullRom"
       interpolator_beta="0.75"
       start_linecap_type="round"
       linejoin_type="spiro"
       miter_limit="4"
       scale_width="1"
       end_linecap_type="round" />
    <inkscape:path-effect
       effect="simplify"
       id="path-effect129"
       is_visible="true"
       lpeversion="1"
       steps="1"
       threshold="0.0028332064"
       smooth_angles="0"
       helper_size="0"
       simplify_individual_paths="false"
       simplify_just_coalesce="false"
       step="1" />
  </defs>
  <sodipodi:namedview
     id="base"
     pagecolor="#ffffff"
     bordercolor="#666666"
     borderopacity="1.0"
     inkscape:pageopacity="0.0"
     inkscape:pageshadow="2"
     inkscape:zoom="7.919596"
     inkscape:cx="-5.3033008"
     inkscape:cy="20.834396"
     inkscape:document-units="mm"
     inkscape:current-layer="layer1"
     showgrid="false"
     fit-margin-top="0"
     fit-margin-left="0"
     fit-margin-right="0"
     fit-margin-bottom="0"
     inkscape:window-width="3440"
     inkscape:window-height="1369"
     inkscape:window-x="1072"
     inkscape:window-y="224"
     inkscape:window-maximized="1"
     showguides="true"
     inkscape:guide-bbox="true"
     inkscape:snap-bbox="true"
     inkscape:bbox-nodes="true"
     inkscape:snap-nodes="false"
     inkscape:snap-others="false"
     inkscape:snap-page="true"
     inkscape:snap-grids="false"
     inkscape:snap-to-guides="false"
     inkscape:snap-global="false"
     inkscape:pagecheckerboard="0"
     inkscape:showpageshadow="2"
     inkscape:deskcolor="#d1d1d1">
    <sodipodi:guide
       position="-6.1806075,9.4988692"
       orientation="0,1"
       id="guide816"
       inkscape:locked="false" />
    <sodipodi:guide
       position="-4.4101636,10.646923"
       orientation="0,1"
       id="guide818"
       inkscape:locked="false" />
    <sodipodi:guide
       position="2.7595724,11.09577"
       orientation="1,0"
       id="guide820"
       inkscape:locked="false" />
    <sodipodi:guide
       position="3.6572659,10.942217"
       orientation="1,0"
       id="guide822"
       inkscape:locked="false" />
    <sodipodi:guide
       position="-0.051625511,9.7492299"
       orientation="1,0"
       id="guide1853"
       inkscape:locked="false" />
    <sodipodi:guide
       position="-2.3720169,3.0175835"
       orientation="0,1"
       id="guide1855"
       inkscape:locked="false" />
  </sodipodi:namedview>
  <metadata
     id="metadata1678">
    <rdf:RDF>
      <cc:Work
         rdf:about="">
        <dc:format>image/svg+xml</dc:format>
        <dc:type
           rdf:resource="http://purl.org/dc/dcmitype/StillImage" />
      </cc:Work>
    </rdf:RDF>
  </metadata>
  <g
     inkscape:label="Layer 1"
     inkscape:groupmode="layer"
     id="layer1"
     transform="translate(17.028496,-147.22856)">
    <path
       d="m -14.915891,148.69358 c -0.148439,9.5e-4 -0.385161,0.0219 -0.632082,0.12762 -0.09469,0.0406 -0.192598,0.0945 -0.285623,0.16567 -0.08232,0.063 -0.161339,0.14 -0.230112,0.23333 -0.266313,0.28373 -0.517621,0.62451 -0.707937,1.01266 -0.180626,0.36839 -0.305052,0.77732 -0.332423,1.2114 -0.01672,0.17948 -0.0043,0.37256 0.04583,0.55625 0.05157,0.18891 0.142152,0.36455 0.276815,0.50911 0.100237,0.11433 0.236031,0.18423 0.368307,0.21265 0.06088,0.0131 0.121588,0.0176 0.180205,0.0145 0.01195,-6.3e-4 0.02392,-0.002 0.03589,-0.003 0.0724,-0.008 0.144857,-0.0276 0.213563,-0.0612 0.261046,-0.11119 0.488647,-0.28206 0.686374,-0.4767 0.198783,-0.19567 0.369317,-0.41743 0.519578,-0.63063 0.171931,-0.23439 0.317085,-0.49306 0.415056,-0.76372 0.104523,-0.28877 0.152622,-0.58353 0.132309,-0.87581 -0.007,-0.0839 -0.01726,-0.16164 -0.03349,-0.23724 -0.0024,-0.0114 -0.005,-0.0226 -0.0077,-0.0338 -0.02006,-0.0832 -0.0449,-0.15209 -0.07042,-0.20811 l 0.0044,0.01 c -0.03314,-0.087 -0.05575,-0.17749 -0.112672,-0.31852 -0.0194,-0.0481 -0.04661,-0.10943 -0.08363,-0.17167 -0.0066,-0.0111 -0.0136,-0.0224 -0.02107,-0.0338 -0.027,-0.0414 -0.06111,-0.0865 -0.104486,-0.13053 -0.01693,-0.0189 -0.04534,-0.0451 -0.0812,-0.0642 -0.01764,-0.009 -0.03853,-0.0179 -0.06236,-0.0228 -0.02346,-0.005 -0.04884,-0.006 -0.07509,-0.002 -0.02554,0.004 -0.04903,0.0123 -0.06987,0.0238 -0.02003,0.011 -0.03655,0.0243 -0.04994,0.0376 -0.02515,0.025 -0.04183,0.0528 -0.05304,0.0758 -0.01104,0.0226 -0.01921,0.0457 -0.02544,0.0668 -0.0061,0.0206 -0.01083,0.0413 -0.01464,0.0607 -0.0073,0.0371 -0.01153,0.0725 -0.01427,0.0978 -0.0069,0.0909 -0.0024,0.17375 0.0082,0.25519 0.01015,0.0775 0.02575,0.15273 0.04221,0.22628 0.03147,0.14054 0.0645,0.26902 0.07109,0.39602 4.5e-4,0.009 0.0015,0.0173 0.0033,0.0258 0.0603,0.28868 0.132874,0.60625 0.241272,0.9116 0.104308,0.29383 0.24604,0.58948 0.455287,0.85538 0.004,0.005 0.0082,0.01 0.01268,0.0144 0.04404,0.0439 0.0957,0.0767 0.150761,0.0986 0.0541,0.0215 0.111574,0.0325 0.168939,0.0333 0.05661,8.4e-4 0.114061,-0.008 0.168861,-0.0277 0.05428,-0.0193 0.106523,-0.049 0.15226,-0.0899 0.05614,-0.0454 0.108234,-0.10219 0.15257,-0.16282 0.04392,-0.0601 0.08007,-0.12365 0.110695,-0.188 0.06025,-0.12661 0.101175,-0.26096 0.136285,-0.38113 0.118706,-0.38287 0.188833,-0.78775 0.198277,-1.19444 0.0095,-0.40719 -0.04195,-0.81555 -0.165229,-1.2064 -0.05394,-0.14302 -0.132037,-0.26156 -0.227486,-0.36099 -0.09585,-0.0999 -0.209372,-0.18066 -0.331927,-0.24039 -0.123399,-0.0601 -0.256834,-0.0994 -0.392543,-0.11508 -0.136929,-0.0159 -0.276827,-0.008 -0.411714,0.0272 -0.269403,0.0563 -0.512602,0.18344 -0.722073,0.34199 -0.215146,0.16284 -0.398452,0.36161 -0.550409,0.56185 -0.257062,0.33396 -0.455357,0.69225 -0.612315,1.03421 -0.225076,0.47714 -0.402162,0.95921 -0.519691,1.44042 -0.128823,0.52744 -0.182501,1.03911 -0.159459,1.5329 0.0041,0.0887 0.0086,0.17335 0.01833,0.25908 0.0048,0.0421 0.01078,0.0842 0.01856,0.12612 0.0125,0.0674 0.02955,0.13414 0.05325,0.1994 0.02448,0.0674 0.05585,0.13263 0.09603,0.19466 0.122389,0.20769 0.310932,0.36926 0.516849,0.4687 0.220645,0.10654 0.466503,0.14502 0.702684,0.10395 0.311889,-0.039 0.600675,-0.15166 0.855984,-0.29005 0.269547,-0.14612 0.51536,-0.32855 0.731191,-0.50439 0.322016,-0.25945 0.627139,-0.52455 0.867094,-0.85608 0.0038,-0.005 0.01093,-0.014 0.01796,-0.0233 0.18493,-0.24442 0.334768,-0.51683 0.474723,-0.75948 0.0049,-0.008 0.01217,-0.0214 0.01635,-0.0279 a 0.17909248,0.17909248 90 0 0 -0.301572,-0.19326 c -0.0042,0.007 -0.01343,0.0188 -0.02313,0.0334 -0.15101,0.26054 -0.286438,0.50764 -0.453024,0.73246 -0.0062,0.008 -0.0124,0.0166 -0.01867,0.0249 -0.211884,0.29781 -0.481192,0.543 -0.795867,0.8069 -0.20619,0.1727 -0.431419,0.34387 -0.673284,0.47939 -0.228472,0.12802 -0.477338,0.2275 -0.746683,0.26489 -0.173688,0.0332 -0.354173,0.0101 -0.522433,-0.068 -0.15732,-0.073 -0.300658,-0.19334 -0.395839,-0.35045 -0.031,-0.0463 -0.05355,-0.0906 -0.07197,-0.13883 -0.0179,-0.0469 -0.03181,-0.0974 -0.0426,-0.15181 -0.0067,-0.0338 -0.01215,-0.0689 -0.01663,-0.10529 -0.0092,-0.0748 -0.01396,-0.15112 -0.01844,-0.23885 -0.02216,-0.46313 0.02773,-0.94716 0.150671,-1.45068 0.112223,-0.45962 0.282358,-0.92333 0.501374,-1.38683 0.151787,-0.32917 0.340511,-0.66651 0.582522,-0.97826 0.141796,-0.18559 0.307351,-0.36256 0.496061,-0.50427 0.183252,-0.1376 0.386948,-0.24117 0.611971,-0.28733 0.104025,-0.0264 0.20666,-0.0321 0.309125,-0.0198 0.101637,0.0123 0.202137,0.0423 0.295047,0.0881 0.09228,0.0455 0.176042,0.10619 0.245424,0.17921 0.06893,0.0725 0.123413,0.15698 0.158486,0.25095 0.108368,0.34815 0.15481,0.72281 0.144863,1.0994 -0.0099,0.37623 -0.07612,0.75242 -0.18858,1.11104 -0.03701,0.12204 -0.07308,0.23411 -0.122373,0.33505 -0.02447,0.0501 -0.05138,0.0957 -0.08177,0.13632 -0.03051,0.0408 -0.06447,0.0767 -0.102976,0.10726 -0.01877,0.016 -0.03442,0.0247 -0.05199,0.0305 -0.01785,0.006 -0.03712,0.009 -0.05632,0.008 -0.01945,-6.9e-4 -0.03777,-0.005 -0.05378,-0.0116 -0.0132,-0.006 -0.02462,-0.0129 -0.03422,-0.0214 -0.176453,-0.22834 -0.300344,-0.48665 -0.394635,-0.75513 -0.09811,-0.27935 -0.165541,-0.57424 -0.223868,-0.85664 -0.009,-0.15888 -0.04919,-0.31866 -0.07563,-0.43936 -0.01556,-0.071 -0.02823,-0.13458 -0.03616,-0.19684 -0.0082,-0.0646 -0.01073,-0.12374 -0.0063,-0.18054 0.0021,-0.0167 0.0052,-0.0411 0.0098,-0.0644 0.0024,-0.012 0.0048,-0.0222 0.0072,-0.0304 0.0024,-0.008 0.0048,-0.0139 0.0051,-0.0145 2.86e-4,-6.6e-4 -0.0015,0.005 -0.01224,0.0153 -0.0055,0.005 -0.0138,0.0124 -0.02515,0.0186 -0.01193,0.007 -0.02609,0.0117 -0.04187,0.0141 -0.0162,0.002 -0.03112,0.002 -0.04367,-0.001 -0.01261,-0.003 -0.02165,-0.007 -0.02731,-0.01 -0.01016,-0.005 -0.01158,-0.009 -0.0041,-0.001 0.02998,0.0299 0.0512,0.0567 0.06946,0.0834 0.005,0.007 0.0099,0.0148 0.01453,0.0222 0.02652,0.0422 0.04868,0.0871 0.06694,0.12724 0.05236,0.11512 0.08515,0.20895 0.131057,0.30932 7.31e-4,0.002 0.0014,0.003 0.0021,0.005 6.74e-4,0.002 0.0015,0.003 0.0024,0.005 0.02042,0.0348 0.04128,0.0799 0.05781,0.14197 0.0022,0.008 0.0043,0.0168 0.0063,0.0254 0.01333,0.0577 0.02159,0.12143 0.02626,0.19439 0.01573,0.24452 -0.02624,0.49727 -0.12072,0.75112 -0.08876,0.23849 -0.221143,0.47033 -0.382389,0.68559 -0.149783,0.20778 -0.309969,0.41052 -0.490921,0.58532 -0.179275,0.17318 -0.37559,0.31572 -0.598046,0.40899 -0.04073,0.019 -0.07673,0.0284 -0.113725,0.032 -0.0061,5.9e-4 -0.01227,0.001 -0.01844,0.001 -0.03028,0.001 -0.06222,-0.001 -0.09467,-0.008 -0.07153,-0.0159 -0.142141,-0.0537 -0.193991,-0.11307 -0.09689,-0.10447 -0.163859,-0.231 -0.203299,-0.37565 -0.03854,-0.14134 -0.04916,-0.29443 -0.03537,-0.44424 0.02451,-0.38921 0.134866,-0.75625 0.299467,-1.09241 0.175108,-0.35761 0.408634,-0.67454 0.658618,-0.94003 0.0049,-0.005 0.0095,-0.0107 0.01366,-0.0166 0.04957,-0.0689 0.107708,-0.12643 0.169979,-0.17425 0.06836,-0.0525 0.141948,-0.0935 0.215436,-0.12506 0.193383,-0.0832 0.380074,-0.10095 0.505375,-0.10175 a 0.16303938,0.16303938 90 0 0 -0.0021,-0.32608 z"
       id="path-1"
       inkscape:path-effect="#path-effect1480;#path-effect1482"
       inkscape:original-d="m -14.914848,148.85662 c -0.395346,0.006 -0.785693,0.14475 -1.022592,0.46835 -0.593123,0.62781 -1.023039,1.46453 -1.006811,2.33235 0.002,0.43258 0.315248,1.06702 0.85117,0.88561 0.563569,-0.22143 0.95393,-0.72401 1.28408,-1.20219 0.334854,-0.49814 0.541322,-1.12058 0.379474,-1.71173 -0.116457,-0.23931 -0.223735,-0.71501 -0.443901,-0.75856 -0.172484,0.33101 0.0398,0.71172 0.05344,1.06012 0.124898,0.60289 0.280974,1.23166 0.67421,1.72563 0.365022,0.26791 0.650229,-0.24214 0.725367,-0.5366 0.255294,-0.73835 0.317048,-1.56029 0.112463,-2.3169 -0.116283,-0.50895 -0.670652,-0.8233 -1.181241,-0.71323 -0.746756,0.1409 -1.237909,0.8028 -1.596181,1.40717 -0.60268,1.11891 -1.02113,2.39824 -0.86931,3.67402 0.07042,0.52546 0.571589,0.94898 1.118291,0.89877 0.762062,-0.0648 1.378147,-0.58226 1.924572,-1.06052 0.401785,-0.35295 0.697574,-0.79537 0.946779,-1.25938 l 0.02872,-0.0461 0.02935,-0.0458"
       style="fill:#000000;fill-rule:nonzero;stroke:none;stroke-width:1.70846" />
  </g>
</svg>
