<?xml version="1.0" encoding="UTF-8" standalone="no"?>
<!-- Created with Inkscape (http://www.inkscape.org/) -->

<svg
   width="5mm"
   height="10mm"
   viewBox="0 0 5.0000001 9.9999994"
   version="1.1"
   id="svg1681"
   inkscape:version="1.2.1 (9c6d41e410, 2022-07-14)"
   sodipodi:docname="at_symbol_22.svg"
   inkscape:export-filename="..\..\..\..\Downloads\lower a diff canvas resize 3.0.png"
   inkscape:export-xdpi="96"
   inkscape:export-ydpi="96"
   xmlns:inkscape="http://www.inkscape.org/namespaces/inkscape"
   xmlns:sodipodi="http://sodipodi.sourceforge.net/DTD/sodipodi-0.dtd"
   xmlns="http://www.w3.org/2000/svg"
   xmlns:svg="http://www.w3.org/2000/svg"
   xmlns:rdf="http://www.w3.org/1999/02/22-rdf-syntax-ns#"
   xmlns:cc="http://creativecommons.org/ns#"
   xmlns:dc="http://purl.org/dc/elements/1.1/">
  <defs
     id="defs1675">
    <inkscape:path-effect
       effect="powerstroke"
       id="path-effect158"
       is_visible="true"
       lpeversion="1"
       offset_points="4.9365961,0.15034578 | 6.8662274,0.11872467 | 9.9040352,0.090983446 | 19.029018,0.15228572"
       not_jump="true"
       sort_points="true"
       interpolator_type="CentripetalCatmullRom"
       interpolator_beta="0.75"
       start_linecap_type="round"
       linejoin_type="spiro"
       miter_limit="4"
       scale_width="1"
       end_linecap_type="round" />
    <inkscape:path-effect
       effect="simplify"
       id="path-effect156"
       is_visible="true"
       lpeversion="1"
       steps="1"
       threshold="0.0035951417"
       smooth_angles="0"
       helper_size="0"
       simplify_individual_paths="false"
       simplify_just_coalesce="false"
       step="1" />
    <inkscape:path-effect
       effect="powerstroke"
       id="path-effect162"
       is_visible="true"
       lpeversion="1"
       offset_points="3.1582327,0.13657049 | 4.5293525,0.12005499 | 8.2039106,0.089564831 | 17.127514,0.16579021"
       not_jump="true"
       sort_points="true"
       interpolator_type="CentripetalCatmullRom"
       interpolator_beta="0.75"
       start_linecap_type="round"
       linejoin_type="spiro"
       miter_limit="4"
       scale_width="1"
       end_linecap_type="round" />
    <inkscape:path-effect
       effect="simplify"
       id="path-effect160"
       is_visible="true"
       lpeversion="1"
       steps="1"
       threshold="0.0035951417"
       smooth_angles="0"
       helper_size="0"
       simplify_individual_paths="false"
       simplify_just_coalesce="false"
       step="1" />
    <inkscape:path-effect
       effect="powerstroke"
       id="path-effect155"
       is_visible="true"
       lpeversion="1"
       offset_points="3.7495768,0.096898253 | 7.0766853,0.073995029 | 18.548553,0.12259097"
       not_jump="true"
       sort_points="true"
       interpolator_type="CentripetalCatmullRom"
       interpolator_beta="0.75"
       start_linecap_type="round"
       linejoin_type="spiro"
       miter_limit="4"
       scale_width="1"
       end_linecap_type="round" />
    <inkscape:path-effect
       effect="simplify"
       id="path-effect153"
       is_visible="true"
       lpeversion="1"
       steps="1"
       threshold="0.0035951417"
       smooth_angles="0"
       helper_size="0"
       simplify_individual_paths="false"
       simplify_just_coalesce="false"
       step="1" />
    <inkscape:path-effect
       effect="powerstroke"
       id="path-effect280"
       is_visible="true"
       lpeversion="1"
       offset_points="3.3579045,0.17421953 | 18.822375,0.22347967"
       not_jump="true"
       sort_points="true"
       interpolator_type="CentripetalCatmullRom"
       interpolator_beta="0.75"
       start_linecap_type="round"
       linejoin_type="spiro"
       miter_limit="4"
       scale_width="1"
       end_linecap_type="round" />
    <inkscape:path-effect
       effect="simplify"
       id="path-effect278"
       is_visible="true"
       lpeversion="1"
       steps="1"
       threshold="0.0035951417"
       smooth_angles="0"
       helper_size="0"
       simplify_individual_paths="false"
       simplify_just_coalesce="false"
       step="1" />
    <inkscape:path-effect
       effect="powerstroke"
       id="path-effect273"
       is_visible="true"
       lpeversion="1"
       offset_points="2.7597594,0.083244408 | 16.82786,0.10893713 | 21.189661,0.094255573"
       not_jump="true"
       sort_points="true"
       interpolator_type="CentripetalCatmullRom"
       interpolator_beta="0.75"
       start_linecap_type="round"
       linejoin_type="spiro"
       miter_limit="4"
       scale_width="1"
       end_linecap_type="round" />
    <inkscape:path-effect
       effect="simplify"
       id="path-effect271"
       is_visible="true"
       lpeversion="1"
       steps="1"
       threshold="0.0035951417"
       smooth_angles="0"
       helper_size="0"
       simplify_individual_paths="false"
       simplify_just_coalesce="false"
       step="1" />
    <inkscape:path-effect
       effect="powerstroke"
       id="path-effect502"
       is_visible="true"
       lpeversion="1"
       offset_points="3.0091841,0.21607495 | 7.3602657,0.17554228 | 9.4159651,0.20236537"
       not_jump="true"
       sort_points="true"
       interpolator_type="CentripetalCatmullRom"
       interpolator_beta="0.75"
       start_linecap_type="round"
       linejoin_type="spiro"
       miter_limit="4"
       scale_width="1"
       end_linecap_type="round" />
    <inkscape:path-effect
       effect="simplify"
       id="path-effect500"
       is_visible="true"
       lpeversion="1"
       steps="1"
       threshold="0.0035951417"
       smooth_angles="0"
       helper_size="0"
       simplify_individual_paths="false"
       simplify_just_coalesce="false"
       step="1" />
    <inkscape:path-effect
       effect="powerstroke"
       id="path-effect241"
       is_visible="true"
       lpeversion="1"
       offset_points="2.6879454,0.34086734"
       not_jump="true"
       sort_points="true"
       interpolator_type="CentripetalCatmullRom"
       interpolator_beta="0.75"
       start_linecap_type="round"
       linejoin_type="spiro"
       miter_limit="4"
       scale_width="1"
       end_linecap_type="round" />
    <inkscape:path-effect
       effect="simplify"
       id="path-effect239"
       is_visible="true"
       lpeversion="1"
       steps="1"
       threshold="0.0028332064"
       smooth_angles="0"
       helper_size="0"
       simplify_individual_paths="false"
       simplify_just_coalesce="false"
       step="1" />
    <inkscape:path-effect
       effect="powerstroke"
       id="path-effect234"
       is_visible="true"
       lpeversion="1"
       offset_points="2.13563,0.075169555"
       not_jump="true"
       sort_points="true"
       interpolator_type="CentripetalCatmullRom"
       interpolator_beta="0.75"
       start_linecap_type="round"
       linejoin_type="spiro"
       miter_limit="4"
       scale_width="1"
       end_linecap_type="round" />
    <inkscape:path-effect
       effect="simplify"
       id="path-effect232"
       is_visible="true"
       lpeversion="1"
       steps="1"
       threshold="0.0028332064"
       smooth_angles="0"
       helper_size="0"
       simplify_individual_paths="false"
       simplify_just_coalesce="false"
       step="1" />
    <inkscape:path-effect
       effect="powerstroke"
       id="path-effect227"
       is_visible="true"
       lpeversion="1"
       offset_points="2.1868266,0.075169555"
       not_jump="true"
       sort_points="true"
       interpolator_type="CentripetalCatmullRom"
       interpolator_beta="0.75"
       start_linecap_type="round"
       linejoin_type="spiro"
       miter_limit="4"
       scale_width="1"
       end_linecap_type="round" />
    <inkscape:path-effect
       effect="simplify"
       id="path-effect225"
       is_visible="true"
       lpeversion="1"
       steps="1"
       threshold="0.0028332064"
       smooth_angles="0"
       helper_size="0"
       simplify_individual_paths="false"
       simplify_just_coalesce="false"
       step="1" />
    <inkscape:path-effect
       effect="powerstroke"
       id="path-effect166"
       is_visible="true"
       lpeversion="1"
       offset_points="1.9637935,0.075169555"
       not_jump="true"
       sort_points="true"
       interpolator_type="CentripetalCatmullRom"
       interpolator_beta="0.75"
       start_linecap_type="round"
       linejoin_type="spiro"
       miter_limit="4"
       scale_width="1"
       end_linecap_type="round" />
    <inkscape:path-effect
       effect="simplify"
       id="path-effect164"
       is_visible="true"
       lpeversion="1"
       steps="1"
       threshold="0.0028332064"
       smooth_angles="0"
       helper_size="0"
       simplify_individual_paths="false"
       simplify_just_coalesce="false"
       step="1" />
    <inkscape:path-effect
       effect="powerstroke"
       id="path-effect159"
       is_visible="true"
       lpeversion="1"
       offset_points="2.2611036,0.075169555"
       not_jump="true"
       sort_points="true"
       interpolator_type="CentripetalCatmullRom"
       interpolator_beta="0.75"
       start_linecap_type="round"
       linejoin_type="spiro"
       miter_limit="4"
       scale_width="1"
       end_linecap_type="round" />
    <inkscape:path-effect
       effect="simplify"
       id="path-effect157"
       is_visible="true"
       lpeversion="1"
       steps="1"
       threshold="0.0028332064"
       smooth_angles="0"
       helper_size="0"
       simplify_individual_paths="false"
       simplify_just_coalesce="false"
       step="1" />
    <inkscape:path-effect
       effect="powerstroke"
       id="path-effect152"
       is_visible="true"
       lpeversion="1"
       offset_points="2.826981,0.075169555"
       not_jump="true"
       sort_points="true"
       interpolator_type="CentripetalCatmullRom"
       interpolator_beta="0.75"
       start_linecap_type="round"
       linejoin_type="spiro"
       miter_limit="4"
       scale_width="1"
       end_linecap_type="round" />
    <inkscape:path-effect
       effect="simplify"
       id="path-effect150"
       is_visible="true"
       lpeversion="1"
       steps="1"
       threshold="0.0028332064"
       smooth_angles="0"
       helper_size="0"
       simplify_individual_paths="false"
       simplify_just_coalesce="false"
       step="1" />
    <inkscape:path-effect
       effect="powerstroke"
       id="path-effect145"
       is_visible="true"
       lpeversion="1"
       offset_points="3.8374447,0.075169555"
       not_jump="true"
       sort_points="true"
       interpolator_type="CentripetalCatmullRom"
       interpolator_beta="0.75"
       start_linecap_type="round"
       linejoin_type="spiro"
       miter_limit="4"
       scale_width="1"
       end_linecap_type="round" />
    <inkscape:path-effect
       effect="simplify"
       id="path-effect143"
       is_visible="true"
       lpeversion="1"
       steps="1"
       threshold="0.0028332064"
       smooth_angles="0"
       helper_size="0"
       simplify_individual_paths="false"
       simplify_just_coalesce="false"
       step="1" />
    <inkscape:path-effect
       effect="powerstroke"
       id="path-effect138"
       is_visible="true"
       lpeversion="1"
       offset_points="2.6880907,0.075169555"
       not_jump="true"
       sort_points="true"
       interpolator_type="CentripetalCatmullRom"
       interpolator_beta="0.75"
       start_linecap_type="round"
       linejoin_type="spiro"
       miter_limit="4"
       scale_width="1"
       end_linecap_type="round" />
    <inkscape:path-effect
       effect="simplify"
       id="path-effect136"
       is_visible="true"
       lpeversion="1"
       steps="1"
       threshold="0.0028332064"
       smooth_angles="0"
       helper_size="0"
       simplify_individual_paths="false"
       simplify_just_coalesce="false"
       step="1" />
    <inkscape:path-effect
       effect="powerstroke"
       id="path-effect131"
       is_visible="true"
       lpeversion="1"
       offset_points="1.9940581,0.075169555"
       not_jump="true"
       sort_points="true"
       interpolator_type="CentripetalCatmullRom"
       interpolator_beta="0.75"
       start_linecap_type="round"
       linejoin_type="spiro"
       miter_limit="4"
       scale_width="1"
       end_linecap_type="round" />
    <inkscape:path-effect
       effect="simplify"
       id="path-effect129"
       is_visible="true"
       lpeversion="1"
       steps="1"
       threshold="0.0028332064"
       smooth_angles="0"
       helper_size="0"
       simplify_individual_paths="false"
       simplify_just_coalesce="false"
       step="1" />
  </defs>
  <sodipodi:namedview
     id="base"
     pagecolor="#ffffff"
     bordercolor="#666666"
     borderopacity="1.0"
     inkscape:pageopacity="0.0"
     inkscape:pageshadow="2"
     inkscape:zoom="7.919596"
     inkscape:cx="-5.3033008"
     inkscape:cy="20.834396"
     inkscape:document-units="mm"
     inkscape:current-layer="layer1"
     showgrid="false"
     fit-margin-top="0"
     fit-margin-left="0"
     fit-margin-right="0"
     fit-margin-bottom="0"
     inkscape:window-width="1920"
     inkscape:window-height="974"
     inkscape:window-x="-11"
     inkscape:window-y="2889"
     inkscape:window-maximized="1"
     showguides="true"
     inkscape:guide-bbox="true"
     inkscape:snap-bbox="true"
     inkscape:bbox-nodes="true"
     inkscape:snap-nodes="false"
     inkscape:snap-others="false"
     inkscape:snap-page="true"
     inkscape:snap-grids="false"
     inkscape:snap-to-guides="false"
     inkscape:snap-global="false"
     inkscape:pagecheckerboard="0"
     inkscape:showpageshadow="2"
     inkscape:deskcolor="#d1d1d1">
    <sodipodi:guide
       position="-6.1806075,9.4988692"
       orientation="0,1"
       id="guide816"
       inkscape:locked="false" />
    <sodipodi:guide
       position="-4.4101636,10.646923"
       orientation="0,1"
       id="guide818"
       inkscape:locked="false" />
    <sodipodi:guide
       position="2.7595724,11.09577"
       orientation="1,0"
       id="guide820"
       inkscape:locked="false" />
    <sodipodi:guide
       position="3.6572659,10.942217"
       orientation="1,0"
       id="guide822"
       inkscape:locked="false" />
    <sodipodi:guide
       position="-0.051625511,9.7492299"
       orientation="1,0"
       id="guide1853"
       inkscape:locked="false" />
    <sodipodi:guide
       position="-2.3720169,3.0175835"
       orientation="0,1"
       id="guide1855"
       inkscape:locked="false" />
  </sodipodi:namedview>
  <metadata
     id="metadata1678">
    <rdf:RDF>
      <cc:Work
         rdf:about="">
        <dc:format>image/svg+xml</dc:format>
        <dc:type
           rdf:resource="http://purl.org/dc/dcmitype/StillImage" />
      </cc:Work>
    </rdf:RDF>
  </metadata>
  <g
     inkscape:label="Layer 1"
     inkscape:groupmode="layer"
     id="layer1"
     transform="translate(17.028496,-147.22856)">
    <path
       d="m -13.104008,148.97554 c -0.115977,-0.0862 -0.342156,-0.25197 -0.590169,-0.36738 -0.101275,-0.0471 -0.215637,-0.0908 -0.340085,-0.12023 -0.113628,-0.0269 -0.237886,-0.0425 -0.370701,-0.0372 -0.189929,0.0109 -0.370368,0.0695 -0.541125,0.1642 -0.157333,0.0872 -0.301238,0.2021 -0.429447,0.328 -0.232509,0.2398 -0.394495,0.52316 -0.508996,0.82649 -0.113128,0.29969 -0.178882,0.61613 -0.219274,0.92047 -0.01017,0.10365 -0.02448,0.2065 -0.03374,0.31154 -0.0098,0.11119 -0.01365,0.22265 -0.0014,0.33552 0.02227,0.13442 0.06506,0.2478 0.120355,0.34805 0.05873,0.10647 0.131889,0.19889 0.209858,0.27768 0.15437,0.15599 0.333221,0.26469 0.488445,0.33575 0.02593,0.0119 0.05169,0.0229 0.07719,0.0332 0.08975,0.0377 0.179796,0.0633 0.266892,0.0758 0.100211,0.0144 0.198792,0.0117 0.294228,-0.0101 0.11175,-0.0167 0.224306,-0.053 0.329584,-0.1036 0.101423,-0.0488 0.197544,-0.11161 0.287763,-0.18624 0.120527,-0.0997 0.232856,-0.22245 0.33324,-0.36396 0.0344,-0.0485 0.06647,-0.098 0.09618,-0.14784 0.142199,-0.2456 0.266609,-0.52439 0.326836,-0.82421 0.02661,-0.19317 0.06982,-0.43774 0.08861,-0.6517 0.01836,-0.20912 0.0201,-0.43988 -0.03816,-0.67242 -0.01174,-0.0403 -0.02679,-0.0815 -0.04594,-0.12295 -0.01828,-0.0395 -0.04102,-0.0809 -0.06843,-0.11955 -0.02608,-0.0368 -0.05797,-0.0734 -0.09609,-0.10331 -0.0186,-0.0146 -0.03913,-0.0279 -0.06161,-0.0388 -0.0052,-0.002 -0.01043,-0.005 -0.01581,-0.007 -0.01755,-0.007 -0.03628,-0.0132 -0.05611,-0.0169 -0.007,-0.001 -0.01412,-0.003 -0.02129,-0.003 -0.0072,-3.1e-4 -0.01439,3.8e-4 -0.02129,0.002 -0.0069,0.002 -0.01341,0.005 -0.01934,0.009 -0.0059,0.004 -0.01127,0.009 -0.01655,0.0137 -0.06692,0.0614 -0.121007,0.13357 -0.162191,0.21415 -0.03923,0.0768 -0.06627,0.16023 -0.08179,0.24762 -0.02923,0.16458 -0.01747,0.34313 0.03007,0.51074 0.03944,0.15572 0.100783,0.30799 0.1768,0.45794 0.07118,0.14041 0.153413,0.27533 0.240322,0.40953 0.0752,0.16978 0.201474,0.32394 0.361023,0.43474 0.07909,0.0549 0.166886,0.0995 0.260791,0.12927 0.0927,0.0294 0.191602,0.0444 0.293483,0.0403 0.06495,-0.001 0.127832,-0.0173 0.184962,-0.0443 0.05638,-0.0266 0.106586,-0.0639 0.149039,-0.10828 0.04204,-0.044 0.07679,-0.0953 0.102575,-0.15106 0.02558,-0.0553 0.04261,-0.11566 0.04874,-0.17815 0.02049,-0.21036 0.0091,-0.42067 1.63e-4,-0.62245 -0.02718,-0.34231 -0.09425,-0.69059 -0.217834,-1.01777 -0.123706,-0.32751 -0.304706,-0.63515 -0.559014,-0.89005 -0.08903,-0.0889 -0.187543,-0.17618 -0.297949,-0.24853 -0.111727,-0.0732 -0.237282,-0.13201 -0.376997,-0.16019 -0.134485,-0.0331 -0.275784,-0.0447 -0.414526,-0.0378 -0.139755,0.007 -0.276831,0.0324 -0.408449,0.0719 -0.266642,0.08 -0.513357,0.21817 -0.72136,0.38131 -0.202001,0.15282 -0.369393,0.3373 -0.512783,0.52891 -0.147156,0.19665 -0.273623,0.40726 -0.387203,0.6053 -0.01767,0.032 -0.03397,0.0621 -0.05001,0.0923 -0.515993,0.97274 -0.788351,2.13101 -0.712185,3.31808 0.03282,0.31096 0.114433,0.62221 0.252661,0.91025 0.135629,0.28262 0.326595,0.54435 0.579256,0.75154 0.140872,0.11336 0.302301,0.20677 0.476822,0.26744 0.17401,0.0605 0.36215,0.0886 0.553063,0.0694 0.425497,-0.0183 0.836408,-0.15665 1.198511,-0.3713 0.365629,-0.21675 0.682576,-0.51173 0.928764,-0.8445 0.119539,-0.15456 0.218308,-0.32205 0.302732,-0.49021 0.08632,-0.17196 0.159567,-0.34862 0.22584,-0.5172 0.146946,-0.3606 0.278286,-0.72926 0.363314,-1.10618 0.08932,-0.39593 0.125001,-0.7906 0.07977,-1.18368 -0.02024,-0.20146 -0.07517,-0.39275 -0.128976,-0.55954 -0.06584,-0.20408 -0.117076,-0.33773 -0.164885,-0.51259 -0.0194,-0.0646 -0.03307,-0.11381 -0.04295,-0.15201 a 0.15228572,0.15228572 90 0 0 -0.294858,0.0763 c 0.0108,0.0418 0.02441,0.0931 0.04319,0.15896 0.04887,0.18037 0.106749,0.33556 0.166885,0.52339 0.05177,0.16169 0.09803,0.32797 0.114793,0.49834 0.04028,0.35336 0.0089,0.71232 -0.07504,1.08254 -0.08006,0.35333 -0.204781,0.7042 -0.349622,1.05883 -0.06607,0.16718 -0.135558,0.33356 -0.215811,0.49287 -0.0783,0.15542 -0.167042,0.30459 -0.273315,0.44177 -0.225227,0.30408 -0.511703,0.56991 -0.839224,0.76396 -0.324018,0.19198 -0.685392,0.31204 -1.061606,0.32841 -0.149144,0.0148 -0.291206,-0.005 -0.428033,-0.0528 -0.137565,-0.0477 -0.26799,-0.12239 -0.38276,-0.21445 -0.211428,-0.17308 -0.376212,-0.39625 -0.495538,-0.644 -0.121727,-0.25273 -0.195194,-0.52903 -0.224684,-0.80194 -0.07301,-1.12143 0.184413,-2.22358 0.673084,-3.14917 0.01517,-0.0287 0.0306,-0.0574 0.04629,-0.0859 0.110045,-0.19407 0.228042,-0.39255 0.362671,-0.57507 0.130717,-0.17722 0.277926,-0.34061 0.452634,-0.47514 0.184466,-0.14701 0.398191,-0.26808 0.624595,-0.33824 0.111354,-0.0345 0.22528,-0.0565 0.339596,-0.0632 0.113321,-0.007 0.227256,0.002 0.339896,0.0282 0.104235,0.019 0.197705,0.0588 0.28882,0.11561 0.09065,0.0565 0.176334,0.12818 0.259361,0.20725 0.224378,0.22119 0.38941,0.49357 0.505391,0.79277 0.116003,0.29926 0.181922,0.62284 0.210297,0.94374 0.01498,0.20292 0.03066,0.39477 0.01769,0.58527 -0.0023,0.0355 -0.01107,0.0714 -0.02544,0.10524 -0.01449,0.0341 -0.03441,0.0655 -0.05835,0.0922 -0.02409,0.0268 -0.05198,0.0486 -0.08211,0.064 -0.0303,0.0155 -0.06333,0.0249 -0.0985,0.0267 -0.07663,0.004 -0.151233,-0.006 -0.222985,-0.0271 -0.0728,-0.0218 -0.142528,-0.0557 -0.206673,-0.0988 -0.131981,-0.0888 -0.237084,-0.21468 -0.298942,-0.35231 -0.0023,-0.005 -0.0049,-0.01 -0.0079,-0.0146 -0.08888,-0.13267 -0.170419,-0.26234 -0.240076,-0.39561 -0.07289,-0.13947 -0.130088,-0.27791 -0.167385,-0.41941 -0.04261,-0.14509 -0.05293,-0.29523 -0.02972,-0.43004 0.01226,-0.0712 0.03365,-0.13723 0.06377,-0.19653 0.03153,-0.0621 0.07256,-0.11666 0.122941,-0.16282 l -0.07846,0.0223 c 0.0065,0.001 0.01307,0.003 0.01978,0.006 0.0021,8.8e-4 0.0041,0.002 0.0062,0.003 0.0092,0.005 0.0187,0.0107 0.02841,0.0185 0.0203,0.0163 0.04012,0.0387 0.05854,0.0655 0.01913,0.0279 0.03579,0.0591 0.04954,0.0906 0.01436,0.0329 0.02529,0.0654 0.0328,0.0943 0.04816,0.20105 0.04514,0.40776 0.02479,0.60592 -0.02142,0.20858 -0.06591,0.43404 -0.09691,0.63351 -0.06066,0.26178 -0.182313,0.5139 -0.322712,0.74002 -0.02716,0.0434 -0.05676,0.0871 -0.08826,0.12961 -0.09212,0.12442 -0.192698,0.22826 -0.296877,0.30961 -0.07788,0.0608 -0.158291,0.10949 -0.240306,0.14573 -0.08499,0.0376 -0.173268,0.0625 -0.26458,0.0732 -0.06863,0.01 -0.13328,0.007 -0.201974,-0.008 -0.06003,-0.0128 -0.125888,-0.035 -0.198427,-0.0687 -0.02455,-0.0103 -0.04598,-0.0199 -0.06754,-0.0301 -0.13055,-0.0619 -0.275655,-0.15304 -0.397261,-0.27761 -0.06102,-0.0625 -0.115627,-0.13302 -0.158286,-0.21122 -0.04,-0.0733 -0.06974,-0.15387 -0.0842,-0.24164 -0.0075,-0.076 -0.0048,-0.16528 0.0042,-0.26651 0.0085,-0.0949 0.02261,-0.19665 0.03286,-0.30374 0.03769,-0.28439 0.09888,-0.57606 0.200668,-0.84673 0.102724,-0.27315 0.244179,-0.51794 0.438312,-0.71891 0.110623,-0.10928 0.232379,-0.20604 0.359755,-0.2773 0.137372,-0.0768 0.273473,-0.11972 0.407569,-0.12796 0.09857,-0.004 0.195128,0.007 0.286169,0.0286 0.100049,0.0234 0.19487,0.0588 0.2824,0.0993 0.217532,0.10051 0.421744,0.24854 0.537803,0.33483 a 0.15034578,0.15034578 90 0 0 0.1794,-0.24132 z"
       id="path-1"
       inkscape:path-effect="#path-effect156;#path-effect158"
       inkscape:original-d="m -13.193708,149.0962 c -0.462005,-0.34743 -1.064001,-0.6877 -1.638371,-0.36675 -0.89447,0.46365 -1.116999,1.56877 -1.162909,2.49067 0.01835,0.54543 0.570254,0.94616 1.066749,1.05353 0.81388,0.0521 1.320208,-0.78698 1.511028,-1.47583 0.07326,-0.50121 0.288302,-1.41855 -0.190143,-1.68092 -0.501388,0.46836 -0.114964,1.25446 0.211511,1.72222 0.256019,0.63133 1.278502,0.8711 1.209819,-0.034 0.0096,-0.92616 -0.275875,-1.98619 -1.114255,-2.49352 -0.826983,-0.38695 -1.75594,0.18831 -2.215469,0.87926 -0.771348,1.09388 -1.143571,2.47153 -1.068004,3.80524 0.06721,0.81528 0.570322,1.74637 1.441257,1.8887 1.214912,0.0807 2.281499,-0.8306 2.697559,-1.92337 0.399252,-0.93176 0.755761,-2.00838 0.372649,-3.00574 -0.06343,-0.20346 -0.13251,-0.40532 -0.185934,-0.61176"
       style="fill:#000000;fill-rule:nonzero;stroke:none;stroke-width:1.32135" />
  </g>
</svg>
