<?xml version="1.0" encoding="UTF-8" standalone="no"?>
<!-- Created with Inkscape (http://www.inkscape.org/) -->

<svg
   width="5mm"
   height="10mm"
   viewBox="0 0 5.0000001 9.9999994"
   version="1.1"
   id="svg1681"
   inkscape:version="1.2.1 (9c6d41e410, 2022-07-14)"
   sodipodi:docname="at_symbol_8.svg"
   inkscape:export-filename="..\..\..\..\Downloads\lower a diff canvas resize 3.0.png"
   inkscape:export-xdpi="96"
   inkscape:export-ydpi="96"
   xmlns:inkscape="http://www.inkscape.org/namespaces/inkscape"
   xmlns:sodipodi="http://sodipodi.sourceforge.net/DTD/sodipodi-0.dtd"
   xmlns="http://www.w3.org/2000/svg"
   xmlns:svg="http://www.w3.org/2000/svg"
   xmlns:rdf="http://www.w3.org/1999/02/22-rdf-syntax-ns#"
   xmlns:cc="http://creativecommons.org/ns#"
   xmlns:dc="http://purl.org/dc/elements/1.1/">
  <defs
     id="defs1675">
    <inkscape:path-effect
       effect="powerstroke"
       id="path-effect160"
       is_visible="true"
       lpeversion="1"
       offset_points="3.3473184,0.14739949 | 6.529025,0.12840937 | 22.313063,0.17339786"
       not_jump="true"
       sort_points="true"
       interpolator_type="CentripetalCatmullRom"
       interpolator_beta="0.75"
       start_linecap_type="round"
       linejoin_type="spiro"
       miter_limit="4"
       scale_width="1"
       end_linecap_type="round" />
    <inkscape:path-effect
       effect="simplify"
       id="path-effect158"
       is_visible="true"
       lpeversion="1"
       steps="1"
       threshold="0.0035951417"
       smooth_angles="0"
       helper_size="0"
       simplify_individual_paths="false"
       simplify_just_coalesce="false"
       step="1" />
    <inkscape:path-effect
       effect="powerstroke"
       id="path-effect153"
       is_visible="true"
       lpeversion="1"
       offset_points="2.3547139,0.09469602 | 6.2698251,0.073848214 | 8.3043188,0.090732 | 10.741125,0.081335806 | 19.152896,0.10159635"
       not_jump="true"
       sort_points="true"
       interpolator_type="CentripetalCatmullRom"
       interpolator_beta="0.75"
       start_linecap_type="round"
       linejoin_type="spiro"
       miter_limit="4"
       scale_width="1"
       end_linecap_type="round" />
    <inkscape:path-effect
       effect="simplify"
       id="path-effect151"
       is_visible="true"
       lpeversion="1"
       steps="1"
       threshold="0.0035951417"
       smooth_angles="0"
       helper_size="0"
       simplify_individual_paths="false"
       simplify_just_coalesce="false"
       step="1" />
    <inkscape:path-effect
       effect="powerstroke"
       id="path-effect431"
       is_visible="true"
       lpeversion="1"
       offset_points="3.6217867,0.13820622 | 5.1318942,0.16124059"
       not_jump="true"
       sort_points="true"
       interpolator_type="CentripetalCatmullRom"
       interpolator_beta="0.75"
       start_linecap_type="round"
       linejoin_type="spiro"
       miter_limit="4"
       scale_width="1"
       end_linecap_type="round" />
    <inkscape:path-effect
       effect="simplify"
       id="path-effect429"
       is_visible="true"
       lpeversion="1"
       steps="1"
       threshold="0.0035951417"
       smooth_angles="0"
       helper_size="0"
       simplify_individual_paths="false"
       simplify_just_coalesce="false"
       step="1" />
    <inkscape:path-effect
       effect="powerstroke"
       id="path-effect502"
       is_visible="true"
       lpeversion="1"
       offset_points="3.0091841,0.21607495 | 7.3602657,0.17554228 | 9.4159651,0.20236537"
       not_jump="true"
       sort_points="true"
       interpolator_type="CentripetalCatmullRom"
       interpolator_beta="0.75"
       start_linecap_type="round"
       linejoin_type="spiro"
       miter_limit="4"
       scale_width="1"
       end_linecap_type="round" />
    <inkscape:path-effect
       effect="simplify"
       id="path-effect500"
       is_visible="true"
       lpeversion="1"
       steps="1"
       threshold="0.0035951417"
       smooth_angles="0"
       helper_size="0"
       simplify_individual_paths="false"
       simplify_just_coalesce="false"
       step="1" />
    <inkscape:path-effect
       effect="powerstroke"
       id="path-effect241"
       is_visible="true"
       lpeversion="1"
       offset_points="2.6879454,0.34086734"
       not_jump="true"
       sort_points="true"
       interpolator_type="CentripetalCatmullRom"
       interpolator_beta="0.75"
       start_linecap_type="round"
       linejoin_type="spiro"
       miter_limit="4"
       scale_width="1"
       end_linecap_type="round" />
    <inkscape:path-effect
       effect="simplify"
       id="path-effect239"
       is_visible="true"
       lpeversion="1"
       steps="1"
       threshold="0.0028332064"
       smooth_angles="0"
       helper_size="0"
       simplify_individual_paths="false"
       simplify_just_coalesce="false"
       step="1" />
    <inkscape:path-effect
       effect="powerstroke"
       id="path-effect234"
       is_visible="true"
       lpeversion="1"
       offset_points="2.13563,0.075169555"
       not_jump="true"
       sort_points="true"
       interpolator_type="CentripetalCatmullRom"
       interpolator_beta="0.75"
       start_linecap_type="round"
       linejoin_type="spiro"
       miter_limit="4"
       scale_width="1"
       end_linecap_type="round" />
    <inkscape:path-effect
       effect="simplify"
       id="path-effect232"
       is_visible="true"
       lpeversion="1"
       steps="1"
       threshold="0.0028332064"
       smooth_angles="0"
       helper_size="0"
       simplify_individual_paths="false"
       simplify_just_coalesce="false"
       step="1" />
    <inkscape:path-effect
       effect="powerstroke"
       id="path-effect227"
       is_visible="true"
       lpeversion="1"
       offset_points="2.1868266,0.075169555"
       not_jump="true"
       sort_points="true"
       interpolator_type="CentripetalCatmullRom"
       interpolator_beta="0.75"
       start_linecap_type="round"
       linejoin_type="spiro"
       miter_limit="4"
       scale_width="1"
       end_linecap_type="round" />
    <inkscape:path-effect
       effect="simplify"
       id="path-effect225"
       is_visible="true"
       lpeversion="1"
       steps="1"
       threshold="0.0028332064"
       smooth_angles="0"
       helper_size="0"
       simplify_individual_paths="false"
       simplify_just_coalesce="false"
       step="1" />
    <inkscape:path-effect
       effect="powerstroke"
       id="path-effect166"
       is_visible="true"
       lpeversion="1"
       offset_points="1.9637935,0.075169555"
       not_jump="true"
       sort_points="true"
       interpolator_type="CentripetalCatmullRom"
       interpolator_beta="0.75"
       start_linecap_type="round"
       linejoin_type="spiro"
       miter_limit="4"
       scale_width="1"
       end_linecap_type="round" />
    <inkscape:path-effect
       effect="simplify"
       id="path-effect164"
       is_visible="true"
       lpeversion="1"
       steps="1"
       threshold="0.0028332064"
       smooth_angles="0"
       helper_size="0"
       simplify_individual_paths="false"
       simplify_just_coalesce="false"
       step="1" />
    <inkscape:path-effect
       effect="powerstroke"
       id="path-effect159"
       is_visible="true"
       lpeversion="1"
       offset_points="2.2611036,0.075169555"
       not_jump="true"
       sort_points="true"
       interpolator_type="CentripetalCatmullRom"
       interpolator_beta="0.75"
       start_linecap_type="round"
       linejoin_type="spiro"
       miter_limit="4"
       scale_width="1"
       end_linecap_type="round" />
    <inkscape:path-effect
       effect="simplify"
       id="path-effect157"
       is_visible="true"
       lpeversion="1"
       steps="1"
       threshold="0.0028332064"
       smooth_angles="0"
       helper_size="0"
       simplify_individual_paths="false"
       simplify_just_coalesce="false"
       step="1" />
    <inkscape:path-effect
       effect="powerstroke"
       id="path-effect152"
       is_visible="true"
       lpeversion="1"
       offset_points="2.826981,0.075169555"
       not_jump="true"
       sort_points="true"
       interpolator_type="CentripetalCatmullRom"
       interpolator_beta="0.75"
       start_linecap_type="round"
       linejoin_type="spiro"
       miter_limit="4"
       scale_width="1"
       end_linecap_type="round" />
    <inkscape:path-effect
       effect="simplify"
       id="path-effect150"
       is_visible="true"
       lpeversion="1"
       steps="1"
       threshold="0.0028332064"
       smooth_angles="0"
       helper_size="0"
       simplify_individual_paths="false"
       simplify_just_coalesce="false"
       step="1" />
    <inkscape:path-effect
       effect="powerstroke"
       id="path-effect145"
       is_visible="true"
       lpeversion="1"
       offset_points="3.8374447,0.075169555"
       not_jump="true"
       sort_points="true"
       interpolator_type="CentripetalCatmullRom"
       interpolator_beta="0.75"
       start_linecap_type="round"
       linejoin_type="spiro"
       miter_limit="4"
       scale_width="1"
       end_linecap_type="round" />
    <inkscape:path-effect
       effect="simplify"
       id="path-effect143"
       is_visible="true"
       lpeversion="1"
       steps="1"
       threshold="0.0028332064"
       smooth_angles="0"
       helper_size="0"
       simplify_individual_paths="false"
       simplify_just_coalesce="false"
       step="1" />
    <inkscape:path-effect
       effect="powerstroke"
       id="path-effect138"
       is_visible="true"
       lpeversion="1"
       offset_points="2.6880907,0.075169555"
       not_jump="true"
       sort_points="true"
       interpolator_type="CentripetalCatmullRom"
       interpolator_beta="0.75"
       start_linecap_type="round"
       linejoin_type="spiro"
       miter_limit="4"
       scale_width="1"
       end_linecap_type="round" />
    <inkscape:path-effect
       effect="simplify"
       id="path-effect136"
       is_visible="true"
       lpeversion="1"
       steps="1"
       threshold="0.0028332064"
       smooth_angles="0"
       helper_size="0"
       simplify_individual_paths="false"
       simplify_just_coalesce="false"
       step="1" />
    <inkscape:path-effect
       effect="powerstroke"
       id="path-effect131"
       is_visible="true"
       lpeversion="1"
       offset_points="1.9940581,0.075169555"
       not_jump="true"
       sort_points="true"
       interpolator_type="CentripetalCatmullRom"
       interpolator_beta="0.75"
       start_linecap_type="round"
       linejoin_type="spiro"
       miter_limit="4"
       scale_width="1"
       end_linecap_type="round" />
    <inkscape:path-effect
       effect="simplify"
       id="path-effect129"
       is_visible="true"
       lpeversion="1"
       steps="1"
       threshold="0.0028332064"
       smooth_angles="0"
       helper_size="0"
       simplify_individual_paths="false"
       simplify_just_coalesce="false"
       step="1" />
  </defs>
  <sodipodi:namedview
     id="base"
     pagecolor="#ffffff"
     bordercolor="#666666"
     borderopacity="1.0"
     inkscape:pageopacity="0.0"
     inkscape:pageshadow="2"
     inkscape:zoom="7.919596"
     inkscape:cx="-5.1770318"
     inkscape:cy="20.834396"
     inkscape:document-units="mm"
     inkscape:current-layer="layer1"
     showgrid="false"
     fit-margin-top="0"
     fit-margin-left="0"
     fit-margin-right="0"
     fit-margin-bottom="0"
     inkscape:window-width="1920"
     inkscape:window-height="974"
     inkscape:window-x="-11"
     inkscape:window-y="2869"
     inkscape:window-maximized="1"
     showguides="true"
     inkscape:guide-bbox="true"
     inkscape:snap-bbox="true"
     inkscape:bbox-nodes="true"
     inkscape:snap-nodes="false"
     inkscape:snap-others="false"
     inkscape:snap-page="true"
     inkscape:snap-grids="false"
     inkscape:snap-to-guides="false"
     inkscape:snap-global="false"
     inkscape:pagecheckerboard="0"
     inkscape:showpageshadow="2"
     inkscape:deskcolor="#d1d1d1">
    <sodipodi:guide
       position="-6.1806075,9.4988692"
       orientation="0,1"
       id="guide816"
       inkscape:locked="false" />
    <sodipodi:guide
       position="-4.4101636,10.646923"
       orientation="0,1"
       id="guide818"
       inkscape:locked="false" />
    <sodipodi:guide
       position="2.7595724,11.09577"
       orientation="1,0"
       id="guide820"
       inkscape:locked="false" />
    <sodipodi:guide
       position="3.6572659,10.942217"
       orientation="1,0"
       id="guide822"
       inkscape:locked="false" />
    <sodipodi:guide
       position="-0.051625511,9.7492299"
       orientation="1,0"
       id="guide1853"
       inkscape:locked="false" />
    <sodipodi:guide
       position="-2.3720169,3.0175835"
       orientation="0,1"
       id="guide1855"
       inkscape:locked="false" />
  </sodipodi:namedview>
  <metadata
     id="metadata1678">
    <rdf:RDF>
      <cc:Work
         rdf:about="">
        <dc:format>image/svg+xml</dc:format>
        <dc:type
           rdf:resource="http://purl.org/dc/dcmitype/StillImage" />
      </cc:Work>
    </rdf:RDF>
  </metadata>
  <g
     inkscape:label="Layer 1"
     inkscape:groupmode="layer"
     id="layer1"
     transform="translate(17.028496,-147.22856)">
    <path
       d="m -14.401421,148.54857 c -0.07235,-0.0326 -0.163819,-0.0622 -0.273736,-0.0749 -0.08466,-0.01 -0.177887,-0.009 -0.277087,0.007 -0.164145,0.0262 -0.342631,0.0945 -0.500999,0.21356 -0.234436,0.16798 -0.420536,0.42413 -0.518632,0.72786 -0.104657,0.26172 -0.177477,0.55324 -0.197568,0.8469 -0.02096,0.30639 0.01605,0.60609 0.120683,0.88388 0.02087,0.0615 0.04926,0.12378 0.08291,0.1807 0.01574,0.0266 0.03266,0.0521 0.05072,0.0764 0.0633,0.085 0.140812,0.1549 0.231367,0.20508 0.120313,0.0712 0.253991,0.10878 0.38698,0.11835 0.133762,0.01 0.268574,-0.009 0.394658,-0.0512 0.124473,-0.0416 0.24347,-0.10713 0.345995,-0.19473 0.09921,-0.0848 0.185219,-0.1922 0.24306,-0.32052 0.126726,-0.24997 0.20165,-0.534 0.230342,-0.8431 0.02536,-0.27317 0.01425,-0.56073 -0.02359,-0.86278 -0.008,-0.054 -0.01715,-0.0999 -0.02047,-0.14299 -1.75e-4,-0.002 -3.33e-4,-0.005 -4.72e-4,-0.007 -0.001,-0.0163 -0.001,-0.0318 2.6e-4,-0.0464 0.0014,-0.0152 0.0042,-0.0299 0.0091,-0.0444 0.0041,-0.012 0.0064,-0.0245 0.0069,-0.0372 0.0034,-0.0994 -0.01823,-0.20994 -0.07085,-0.31121 -0.02447,-0.0471 -0.05621,-0.0931 -0.09602,-0.13417 -0.03824,-0.0394 -0.08436,-0.0746 -0.13861,-0.10097 -0.0073,-0.004 -0.01498,-0.006 -0.02283,-0.008 -0.03158,-0.008 -0.06533,-0.012 -0.09981,-0.007 -0.03447,0.005 -0.06613,0.0172 -0.09367,0.0362 -0.0266,0.0184 -0.0468,0.0411 -0.06202,0.064 -0.01488,0.0224 -0.02562,0.0459 -0.0335,0.0683 -0.01524,0.0433 -0.02214,0.0889 -0.02496,0.12888 -0.0028,0.0395 -0.0019,0.0777 8.9e-4,0.10915 0.01959,0.75071 0.285311,1.51701 0.744843,2.18621 0.04832,0.091 0.116762,0.1682 0.197028,0.22902 0.08119,0.0615 0.175294,0.10689 0.274612,0.13283 0.09794,0.0256 0.202655,0.0327 0.305764,0.016 0.102155,-0.0165 0.203019,-0.0565 0.291929,-0.12486 0.05017,-0.037 0.09259,-0.0828 0.126536,-0.1331 0.03348,-0.0496 0.05823,-0.10296 0.07637,-0.15707 0.03557,-0.10615 0.04664,-0.21833 0.04673,-0.31965 0.01616,-0.37957 -0.0283,-0.77846 -0.144392,-1.15752 -0.114851,-0.37501 -0.300353,-0.7321 -0.567542,-1.03525 -0.02756,-0.0321 -0.05931,-0.068 -0.09401,-0.10277 -0.03461,-0.0347 -0.07346,-0.0697 -0.11676,-0.10082 -0.04327,-0.0311 -0.09217,-0.0593 -0.147008,-0.0795 -0.05515,-0.0203 -0.115418,-0.0321 -0.180368,-0.0312 -0.105559,0.001 -0.203105,0.0246 -0.291853,0.055 -0.08716,0.0298 -0.172011,0.0688 -0.246869,0.10194 -0.07783,0.0345 -0.147211,0.0637 -0.216303,0.0831 -0.06782,0.019 -0.131575,0.0273 -0.19581,0.0211 -0.0077,-7.5e-4 -0.01536,-7.6e-4 -0.02304,-3.4e-4 -0.07785,0.004 -0.150134,0.0238 -0.213962,0.0469 -0.06356,0.023 -0.124471,0.0517 -0.175701,0.0757 -0.23176,0.12205 -0.413304,0.29129 -0.563329,0.47721 -0.151454,0.18769 -0.274067,0.39658 -0.379077,0.59527 -0.131676,0.24687 -0.250355,0.49922 -0.330213,0.76843 -0.132466,0.41711 -0.215975,0.8535 -0.235753,1.28786 -0.02039,0.44784 0.02704,0.89107 0.154887,1.31295 0.09383,0.27344 0.25927,0.51218 0.465613,0.69144 0.106854,0.0928 0.22534,0.17038 0.35204,0.22881 0.129911,0.0599 0.268123,0.0995 0.411109,0.11528 0.17965,0.0223 0.350435,-0.007 0.502522,-0.0586 0.161273,-0.0551 0.306634,-0.13794 0.428609,-0.22284 0.275716,-0.19181 0.486312,-0.43348 0.651852,-0.67269 0.184098,-0.26603 0.328249,-0.55304 0.441254,-0.79698 0.03784,-0.082 0.07163,-0.15618 0.104126,-0.23047 0.07904,-0.18071 0.146804,-0.35411 0.198849,-0.53204 0.126813,-0.39071 0.235581,-0.7679 0.305448,-1.14927 0.07829,-0.42735 0.10127,-0.82832 0.05795,-1.21581 -0.0082,-0.0704 -0.01735,-0.12633 -0.02301,-0.16058 a 0.17339786,0.17339786 90 0 0 -0.342158,0.0565 c 0.005,0.0305 0.01234,0.0803 0.01924,0.14302 0.03861,0.34673 0.01879,0.71287 -0.05472,1.11406 -0.06583,0.35931 -0.169181,0.71972 -0.295447,1.10963 -0.04771,0.16366 -0.108932,0.32244 -0.184129,0.49605 -0.03096,0.0715 -0.06326,0.14324 -0.100207,0.22438 -0.109401,0.23758 -0.243165,0.50408 -0.409854,0.74646 -0.149509,0.21739 -0.332232,0.42588 -0.564423,0.58854 -0.104119,0.0735 -0.220641,0.1399 -0.343458,0.18284 -0.114558,0.04 -0.234015,0.0595 -0.354399,0.0455 -0.107536,-0.0114 -0.211153,-0.0403 -0.310426,-0.0855 -0.09695,-0.0442 -0.189434,-0.10377 -0.274179,-0.1767 -0.164544,-0.14162 -0.297151,-0.3314 -0.370751,-0.54235 -0.115022,-0.37618 -0.160407,-0.78188 -0.14266,-1.19741 0.01722,-0.40322 0.09379,-0.81195 0.21859,-1.20899 0.06994,-0.24362 0.175357,-0.47547 0.300728,-0.71578 0.100142,-0.19204 0.210924,-0.38151 0.343308,-0.54742 0.130483,-0.16352 0.28043,-0.30223 0.460013,-0.39814 0.04755,-0.0235 0.09523,-0.047 0.142989,-0.0654 0.04344,-0.0168 0.08253,-0.0275 0.118797,-0.0314 0.104569,0.007 0.201252,-0.009 0.290025,-0.0341 0.09138,-0.0263 0.177697,-0.0642 0.255303,-0.0991 0.08049,-0.0363 0.150612,-0.069 0.22243,-0.0942 0.07027,-0.0246 0.135706,-0.0395 0.200889,-0.0408 0.02692,-7.9e-4 0.05202,0.003 0.07701,0.0122 0.02544,0.009 0.05157,0.0228 0.07879,0.0417 0.02735,0.0191 0.0546,0.0425 0.08221,0.0695 0.0277,0.0271 0.05455,0.0564 0.08159,0.0871 0.238545,0.26902 0.40703,0.58866 0.51282,0.93047 0.106996,0.34571 0.149407,0.7126 0.135369,1.06986 8.12e-4,0.0894 -0.0076,0.1697 -0.02984,0.2387 -0.01108,0.0344 -0.02531,0.0651 -0.04266,0.0915 -0.01739,0.0265 -0.0383,0.0494 -0.06357,0.0685 -0.05193,0.0404 -0.109877,0.0644 -0.171744,0.0748 -0.06296,0.0106 -0.129833,0.007 -0.194838,-0.01 -0.06589,-0.0168 -0.12811,-0.0465 -0.181051,-0.0862 -0.05366,-0.0402 -0.09674,-0.0897 -0.125809,-0.14549 -0.0026,-0.005 -0.0055,-0.01 -0.0087,-0.0145 -0.437921,-0.63213 -0.687857,-1.35182 -0.707859,-2.05768 -0.0025,-0.0274 -0.0033,-0.0518 -0.0019,-0.0763 0.0015,-0.0258 0.0054,-0.0466 0.01016,-0.0608 0.0024,-0.007 0.0042,-0.0101 0.0047,-0.0111 3.34e-4,-6.3e-4 -0.0016,0.002 -0.0065,0.006 -0.0057,0.004 -0.01229,0.006 -0.01821,0.007 -0.0054,6.9e-4 -0.0066,-5.1e-4 -0.0017,7.3e-4 l -0.02283,-0.008 c 0.02457,0.0117 0.04682,0.0282 0.06655,0.0483 0.02064,0.0211 0.03835,0.0461 0.05269,0.0735 0.02853,0.0545 0.04179,0.11437 0.04246,0.16802 -0.0083,0.0289 -0.01299,0.0565 -0.01547,0.0824 -0.0029,0.0304 -0.0028,0.0591 -0.0015,0.0845 1.81e-4,0.004 3.85e-4,0.007 6.1e-4,0.0105 0.0034,0.0522 0.01539,0.12658 0.0193,0.15846 0.0346,0.28698 0.04268,0.55484 0.01771,0.80403 -0.02819,0.2814 -0.09786,0.53101 -0.21148,0.75014 -0.0433,0.0929 -0.104123,0.16781 -0.176642,0.22819 -0.07508,0.0625 -0.162973,0.10966 -0.255317,0.13923 -0.09356,0.03 -0.191294,0.0418 -0.285439,0.0338 -0.09306,-0.008 -0.183182,-0.035 -0.263749,-0.0838 -0.05365,-0.0318 -0.09977,-0.0745 -0.139728,-0.13006 -0.01146,-0.0159 -0.02246,-0.033 -0.03291,-0.0512 -0.02238,-0.0389 -0.04214,-0.0829 -0.05826,-0.13141 -0.08902,-0.23803 -0.121672,-0.49453 -0.103045,-0.76401 0.01789,-0.25885 0.08255,-0.52008 0.180698,-0.76649 0.08296,-0.25607 0.231976,-0.45847 0.414381,-0.58985 0.120413,-0.0909 0.252269,-0.14124 0.372092,-0.1606 0.07194,-0.0116 0.138149,-0.012 0.196804,-0.005 0.07593,0.009 0.137975,0.0288 0.186179,0.0505 a 0.14739949,0.14739949 90 0 0 0.121062,-0.2688 z"
       id="path-1"
       inkscape:path-effect="#path-effect158;#path-effect160"
       inkscape:original-d="m -14.461952,148.68297 c -0.569686,-0.24409 -1.176139,0.20205 -1.351561,0.74392 -0.241554,0.57593 -0.316367,1.28391 -0.01653,1.85032 0.315434,0.48654 1.067224,0.37624 1.34911,-0.0861 0.330892,-0.56812 0.318585,-1.27675 0.21818,-1.90925 0.147357,-0.35456 -0.415099,-0.88094 -0.356625,-0.22201 0.02491,0.74306 0.305397,1.47643 0.725858,2.08523 0.253298,0.46115 1.001619,0.43671 1.057351,-0.14733 0.07131,-0.85038 -0.175407,-1.78711 -0.813146,-2.3858 -0.401294,-0.35231 -0.830656,0.21286 -1.274634,0.14487 -0.718581,0.15935 -1.081802,0.89453 -1.368603,1.50167 -0.352359,0.88871 -0.487793,1.91125 -0.216116,2.83928 0.198875,0.63265 0.900378,1.14273 1.567648,0.8818 0.843144,-0.34856 1.244957,-1.25557 1.578903,-2.0442 0.292365,-0.86694 0.584225,-1.81277 0.431751,-2.7358"
       style="fill:#000000;fill-rule:nonzero;stroke:none;stroke-width:1.53984" />
  </g>
</svg>
