<?xml version="1.0" encoding="UTF-8" standalone="no"?>
<!-- Created with Inkscape (http://www.inkscape.org/) -->

<svg
   width="5mm"
   height="10mm"
   viewBox="0 0 5.0000001 9.9999994"
   version="1.1"
   id="svg1681"
   inkscape:version="1.2.1 (9c6d41e410, 2022-07-14)"
   sodipodi:docname="at_symbol_24.svg"
   inkscape:export-filename="..\..\..\..\Downloads\lower a diff canvas resize 3.0.png"
   inkscape:export-xdpi="96"
   inkscape:export-ydpi="96"
   xmlns:inkscape="http://www.inkscape.org/namespaces/inkscape"
   xmlns:sodipodi="http://sodipodi.sourceforge.net/DTD/sodipodi-0.dtd"
   xmlns="http://www.w3.org/2000/svg"
   xmlns:svg="http://www.w3.org/2000/svg"
   xmlns:rdf="http://www.w3.org/1999/02/22-rdf-syntax-ns#"
   xmlns:cc="http://creativecommons.org/ns#"
   xmlns:dc="http://purl.org/dc/elements/1.1/">
  <defs
     id="defs1675">
    <inkscape:path-effect
       effect="powerstroke"
       id="path-effect208"
       is_visible="true"
       lpeversion="1"
       offset_points="4.1336346,0.17001109 | 6.1387325,0.100157 | 9.0012491,0.13242763 | 20.999295,0.17630781"
       not_jump="true"
       sort_points="true"
       interpolator_type="CentripetalCatmullRom"
       interpolator_beta="0.75"
       start_linecap_type="round"
       linejoin_type="spiro"
       miter_limit="4"
       scale_width="1"
       end_linecap_type="round" />
    <inkscape:path-effect
       effect="simplify"
       id="path-effect206"
       is_visible="true"
       lpeversion="1"
       steps="1"
       threshold="0.0035951417"
       smooth_angles="0"
       helper_size="0"
       simplify_individual_paths="false"
       simplify_just_coalesce="false"
       step="1" />
    <inkscape:path-effect
       effect="powerstroke"
       id="path-effect153"
       is_visible="true"
       lpeversion="1"
       offset_points="3.7485359,0.1623782 | 6.4602784,0.13006932 | 7.3976112,0.14507731 | 8.286148,0.1290271 | 19.418665,0.18801686"
       not_jump="true"
       sort_points="true"
       interpolator_type="CentripetalCatmullRom"
       interpolator_beta="0.75"
       start_linecap_type="round"
       linejoin_type="spiro"
       miter_limit="4"
       scale_width="1"
       end_linecap_type="round" />
    <inkscape:path-effect
       effect="simplify"
       id="path-effect151"
       is_visible="true"
       lpeversion="1"
       steps="1"
       threshold="0.0035951417"
       smooth_angles="0"
       helper_size="0"
       simplify_individual_paths="false"
       simplify_just_coalesce="false"
       step="1" />
    <inkscape:path-effect
       effect="powerstroke"
       id="path-effect472"
       is_visible="true"
       lpeversion="1"
       offset_points="4.0521283,0.12528567 | 12.810949,0.15034281 | 15.888046,0.12134149 | 21.515736,0.14199042"
       not_jump="true"
       sort_points="true"
       interpolator_type="CentripetalCatmullRom"
       interpolator_beta="0.75"
       start_linecap_type="round"
       linejoin_type="spiro"
       miter_limit="4"
       scale_width="1"
       end_linecap_type="round" />
    <inkscape:path-effect
       effect="simplify"
       id="path-effect470"
       is_visible="true"
       lpeversion="1"
       steps="1"
       threshold="0.0035951417"
       smooth_angles="0"
       helper_size="0"
       simplify_individual_paths="false"
       simplify_just_coalesce="false"
       step="1" />
    <inkscape:path-effect
       effect="powerstroke"
       id="path-effect502"
       is_visible="true"
       lpeversion="1"
       offset_points="3.0091841,0.21607495 | 7.3602657,0.17554228 | 9.4159651,0.20236537"
       not_jump="true"
       sort_points="true"
       interpolator_type="CentripetalCatmullRom"
       interpolator_beta="0.75"
       start_linecap_type="round"
       linejoin_type="spiro"
       miter_limit="4"
       scale_width="1"
       end_linecap_type="round" />
    <inkscape:path-effect
       effect="simplify"
       id="path-effect500"
       is_visible="true"
       lpeversion="1"
       steps="1"
       threshold="0.0035951417"
       smooth_angles="0"
       helper_size="0"
       simplify_individual_paths="false"
       simplify_just_coalesce="false"
       step="1" />
    <inkscape:path-effect
       effect="powerstroke"
       id="path-effect241"
       is_visible="true"
       lpeversion="1"
       offset_points="2.6879454,0.34086734"
       not_jump="true"
       sort_points="true"
       interpolator_type="CentripetalCatmullRom"
       interpolator_beta="0.75"
       start_linecap_type="round"
       linejoin_type="spiro"
       miter_limit="4"
       scale_width="1"
       end_linecap_type="round" />
    <inkscape:path-effect
       effect="simplify"
       id="path-effect239"
       is_visible="true"
       lpeversion="1"
       steps="1"
       threshold="0.0028332064"
       smooth_angles="0"
       helper_size="0"
       simplify_individual_paths="false"
       simplify_just_coalesce="false"
       step="1" />
    <inkscape:path-effect
       effect="powerstroke"
       id="path-effect234"
       is_visible="true"
       lpeversion="1"
       offset_points="2.13563,0.075169555"
       not_jump="true"
       sort_points="true"
       interpolator_type="CentripetalCatmullRom"
       interpolator_beta="0.75"
       start_linecap_type="round"
       linejoin_type="spiro"
       miter_limit="4"
       scale_width="1"
       end_linecap_type="round" />
    <inkscape:path-effect
       effect="simplify"
       id="path-effect232"
       is_visible="true"
       lpeversion="1"
       steps="1"
       threshold="0.0028332064"
       smooth_angles="0"
       helper_size="0"
       simplify_individual_paths="false"
       simplify_just_coalesce="false"
       step="1" />
    <inkscape:path-effect
       effect="powerstroke"
       id="path-effect227"
       is_visible="true"
       lpeversion="1"
       offset_points="2.1868266,0.075169555"
       not_jump="true"
       sort_points="true"
       interpolator_type="CentripetalCatmullRom"
       interpolator_beta="0.75"
       start_linecap_type="round"
       linejoin_type="spiro"
       miter_limit="4"
       scale_width="1"
       end_linecap_type="round" />
    <inkscape:path-effect
       effect="simplify"
       id="path-effect225"
       is_visible="true"
       lpeversion="1"
       steps="1"
       threshold="0.0028332064"
       smooth_angles="0"
       helper_size="0"
       simplify_individual_paths="false"
       simplify_just_coalesce="false"
       step="1" />
    <inkscape:path-effect
       effect="powerstroke"
       id="path-effect166"
       is_visible="true"
       lpeversion="1"
       offset_points="1.9637935,0.075169555"
       not_jump="true"
       sort_points="true"
       interpolator_type="CentripetalCatmullRom"
       interpolator_beta="0.75"
       start_linecap_type="round"
       linejoin_type="spiro"
       miter_limit="4"
       scale_width="1"
       end_linecap_type="round" />
    <inkscape:path-effect
       effect="simplify"
       id="path-effect164"
       is_visible="true"
       lpeversion="1"
       steps="1"
       threshold="0.0028332064"
       smooth_angles="0"
       helper_size="0"
       simplify_individual_paths="false"
       simplify_just_coalesce="false"
       step="1" />
    <inkscape:path-effect
       effect="powerstroke"
       id="path-effect159"
       is_visible="true"
       lpeversion="1"
       offset_points="2.2611036,0.075169555"
       not_jump="true"
       sort_points="true"
       interpolator_type="CentripetalCatmullRom"
       interpolator_beta="0.75"
       start_linecap_type="round"
       linejoin_type="spiro"
       miter_limit="4"
       scale_width="1"
       end_linecap_type="round" />
    <inkscape:path-effect
       effect="simplify"
       id="path-effect157"
       is_visible="true"
       lpeversion="1"
       steps="1"
       threshold="0.0028332064"
       smooth_angles="0"
       helper_size="0"
       simplify_individual_paths="false"
       simplify_just_coalesce="false"
       step="1" />
    <inkscape:path-effect
       effect="powerstroke"
       id="path-effect152"
       is_visible="true"
       lpeversion="1"
       offset_points="2.826981,0.075169555"
       not_jump="true"
       sort_points="true"
       interpolator_type="CentripetalCatmullRom"
       interpolator_beta="0.75"
       start_linecap_type="round"
       linejoin_type="spiro"
       miter_limit="4"
       scale_width="1"
       end_linecap_type="round" />
    <inkscape:path-effect
       effect="simplify"
       id="path-effect150"
       is_visible="true"
       lpeversion="1"
       steps="1"
       threshold="0.0028332064"
       smooth_angles="0"
       helper_size="0"
       simplify_individual_paths="false"
       simplify_just_coalesce="false"
       step="1" />
    <inkscape:path-effect
       effect="powerstroke"
       id="path-effect145"
       is_visible="true"
       lpeversion="1"
       offset_points="3.8374447,0.075169555"
       not_jump="true"
       sort_points="true"
       interpolator_type="CentripetalCatmullRom"
       interpolator_beta="0.75"
       start_linecap_type="round"
       linejoin_type="spiro"
       miter_limit="4"
       scale_width="1"
       end_linecap_type="round" />
    <inkscape:path-effect
       effect="simplify"
       id="path-effect143"
       is_visible="true"
       lpeversion="1"
       steps="1"
       threshold="0.0028332064"
       smooth_angles="0"
       helper_size="0"
       simplify_individual_paths="false"
       simplify_just_coalesce="false"
       step="1" />
    <inkscape:path-effect
       effect="powerstroke"
       id="path-effect138"
       is_visible="true"
       lpeversion="1"
       offset_points="2.6880907,0.075169555"
       not_jump="true"
       sort_points="true"
       interpolator_type="CentripetalCatmullRom"
       interpolator_beta="0.75"
       start_linecap_type="round"
       linejoin_type="spiro"
       miter_limit="4"
       scale_width="1"
       end_linecap_type="round" />
    <inkscape:path-effect
       effect="simplify"
       id="path-effect136"
       is_visible="true"
       lpeversion="1"
       steps="1"
       threshold="0.0028332064"
       smooth_angles="0"
       helper_size="0"
       simplify_individual_paths="false"
       simplify_just_coalesce="false"
       step="1" />
    <inkscape:path-effect
       effect="powerstroke"
       id="path-effect131"
       is_visible="true"
       lpeversion="1"
       offset_points="1.9940581,0.075169555"
       not_jump="true"
       sort_points="true"
       interpolator_type="CentripetalCatmullRom"
       interpolator_beta="0.75"
       start_linecap_type="round"
       linejoin_type="spiro"
       miter_limit="4"
       scale_width="1"
       end_linecap_type="round" />
    <inkscape:path-effect
       effect="simplify"
       id="path-effect129"
       is_visible="true"
       lpeversion="1"
       steps="1"
       threshold="0.0028332064"
       smooth_angles="0"
       helper_size="0"
       simplify_individual_paths="false"
       simplify_just_coalesce="false"
       step="1" />
  </defs>
  <sodipodi:namedview
     id="base"
     pagecolor="#ffffff"
     bordercolor="#666666"
     borderopacity="1.0"
     inkscape:pageopacity="0.0"
     inkscape:pageshadow="2"
     inkscape:zoom="7.919596"
     inkscape:cx="-5.1770318"
     inkscape:cy="20.960665"
     inkscape:document-units="mm"
     inkscape:current-layer="layer1"
     showgrid="false"
     fit-margin-top="0"
     fit-margin-left="0"
     fit-margin-right="0"
     fit-margin-bottom="0"
     inkscape:window-width="1920"
     inkscape:window-height="974"
     inkscape:window-x="-11"
     inkscape:window-y="2889"
     inkscape:window-maximized="1"
     showguides="true"
     inkscape:guide-bbox="true"
     inkscape:snap-bbox="true"
     inkscape:bbox-nodes="true"
     inkscape:snap-nodes="false"
     inkscape:snap-others="false"
     inkscape:snap-page="true"
     inkscape:snap-grids="false"
     inkscape:snap-to-guides="false"
     inkscape:snap-global="false"
     inkscape:pagecheckerboard="0"
     inkscape:showpageshadow="2"
     inkscape:deskcolor="#d1d1d1">
    <sodipodi:guide
       position="-6.1806075,9.4988692"
       orientation="0,1"
       id="guide816"
       inkscape:locked="false" />
    <sodipodi:guide
       position="-4.4101636,10.646923"
       orientation="0,1"
       id="guide818"
       inkscape:locked="false" />
    <sodipodi:guide
       position="2.7595724,11.09577"
       orientation="1,0"
       id="guide820"
       inkscape:locked="false" />
    <sodipodi:guide
       position="3.6572659,10.942217"
       orientation="1,0"
       id="guide822"
       inkscape:locked="false" />
    <sodipodi:guide
       position="-0.051625511,9.7492299"
       orientation="1,0"
       id="guide1853"
       inkscape:locked="false" />
    <sodipodi:guide
       position="-2.3720169,3.0175835"
       orientation="0,1"
       id="guide1855"
       inkscape:locked="false" />
  </sodipodi:namedview>
  <metadata
     id="metadata1678">
    <rdf:RDF>
      <cc:Work
         rdf:about="">
        <dc:format>image/svg+xml</dc:format>
        <dc:type
           rdf:resource="http://purl.org/dc/dcmitype/StillImage" />
      </cc:Work>
    </rdf:RDF>
  </metadata>
  <g
     inkscape:label="Layer 1"
     inkscape:groupmode="layer"
     id="layer1"
     transform="translate(17.028496,-147.22856)">
    <path
       d="m -12.620225,148.93809 c -0.03014,-0.0565 -0.07426,-0.1178 -0.139043,-0.1738 -0.05007,-0.0433 -0.109977,-0.0812 -0.179649,-0.11052 -0.114843,-0.0483 -0.253403,-0.0717 -0.397345,-0.0572 -0.143077,0.01 -0.285135,0.0396 -0.429933,0.0741 -0.134993,0.0322 -0.263817,0.0664 -0.392178,0.0887 -0.0105,0.002 -0.0208,0.005 -0.03079,0.008 -0.453169,0.16759 -0.845576,0.47827 -1.127364,0.86657 -0.286851,0.39527 -0.455623,0.86565 -0.466068,1.34485 -0.0053,0.14095 0.0079,0.28446 0.04431,0.41918 0.04145,0.15359 0.110424,0.28676 0.20398,0.39594 0.03985,0.051 0.08779,0.1002 0.137199,0.1429 0.148394,0.12823 0.321634,0.20787 0.489225,0.24563 0.125887,0.0284 0.252252,0.0341 0.372521,0.0188 0.127261,-0.0162 0.248604,-0.0562 0.358226,-0.11924 0.26456,-0.12803 0.493998,-0.32484 0.673924,-0.55518 0.170679,-0.21851 0.309002,-0.48312 0.391709,-0.77631 0.02797,-0.0951 0.05093,-0.19493 0.0678,-0.29796 0.04382,-0.2676 0.04334,-0.53867 0.0012,-0.79714 -0.05902,-0.36246 -0.202185,-0.71437 -0.439367,-1.00874 -0.0065,-0.008 -0.0132,-0.0162 -0.02119,-0.0229 -0.008,-0.007 -0.01726,-0.0119 -0.02726,-0.0148 -0.01,-0.003 -0.0206,-0.003 -0.03094,-0.002 -0.01034,0.001 -0.0204,0.004 -0.03038,0.007 -0.05882,0.0174 -0.112896,0.0454 -0.160713,0.0822 -0.04608,0.0355 -0.08637,0.0791 -0.119267,0.12902 -0.06036,0.0916 -0.09884,0.20958 -0.09379,0.33635 0.0047,0.18572 0.05141,0.37052 0.128964,0.55694 0.06934,0.16669 0.158776,0.32461 0.258193,0.48832 0.06875,0.12944 0.183167,0.26544 0.337563,0.3657 0.06976,0.0453 0.148514,0.0837 0.234505,0.10937 0.08154,0.0243 0.170311,0.0375 0.263459,0.0333 0.06611,-0.002 0.12993,-0.0191 0.188524,-0.0476 0.05601,-0.0273 0.106189,-0.0649 0.149048,-0.10976 0.04134,-0.0432 0.07619,-0.0935 0.103166,-0.14801 0.02615,-0.0529 0.04531,-0.11068 0.05531,-0.17081 0.09877,-0.42707 0.124121,-0.91714 0.0071,-1.40155 -0.04714,-0.2023 -0.118844,-0.40698 -0.219159,-0.6041 -0.0042,-0.008 -0.0087,-0.0166 -0.01452,-0.024 -0.0058,-0.007 -0.01266,-0.0138 -0.01964,-0.02 -0.09901,-0.0885 -0.210057,-0.1587 -0.328471,-0.21136 -0.117339,-0.0522 -0.241638,-0.0871 -0.368401,-0.10582 -0.250498,-0.0371 -0.512704,-0.0114 -0.752319,0.0706 -0.347237,0.11201 -0.65816,0.34047 -0.871572,0.64449 -0.298076,0.37738 -0.528329,0.80583 -0.703771,1.25346 -0.176097,0.44929 -0.29722,0.91854 -0.381809,1.38329 -0.06202,0.35422 -0.124439,0.71427 -0.121529,1.08344 -0.0031,0.2297 0.0017,0.47428 0.04029,0.71432 0.03962,0.24671 0.114873,0.48851 0.252883,0.70811 0.09702,0.16053 0.231903,0.29473 0.384762,0.3925 0.159673,0.10213 0.339806,0.16524 0.524635,0.18248 0.258433,0.0252 0.504206,-0.0189 0.724082,-0.0915 0.234293,-0.0774 0.450535,-0.19098 0.635107,-0.30281 0.763401,-0.47851 1.265238,-1.1504 1.563192,-1.77275 0.187309,-0.39102 0.3067,-0.80842 0.35009,-1.2253 0.04558,-0.43795 0.007,-0.87093 -0.119875,-1.27506 -0.09816,-0.35177 -0.283941,-0.64965 -0.463383,-0.87667 -0.101323,-0.13262 -0.227787,-0.28388 -0.330946,-0.41887 a 0.17630781,0.17630781 90 0 0 -0.280168,0.21412 c 0.07355,0.0962 0.194854,0.24232 0.33124,0.42181 0.162676,0.20652 0.319894,0.46286 0.403263,0.76053 0.112995,0.35979 0.14837,0.74385 0.107721,1.13763 -0.03873,0.37515 -0.146108,0.75353 -0.315388,1.10828 -0.271527,0.56949 -0.734864,1.19288 -1.428958,1.62988 -0.16977,0.10367 -0.36087,0.20386 -0.560966,0.27075 -0.187151,0.0626 -0.383505,0.0965 -0.58302,0.0778 -0.129207,-0.0113 -0.257542,-0.0548 -0.373574,-0.12806 -0.1112,-0.0702 -0.209069,-0.16677 -0.280231,-0.28292 -0.10973,-0.17311 -0.173835,-0.36848 -0.209346,-0.58383 -0.0348,-0.21106 -0.04092,-0.43271 -0.03888,-0.66037 -0.0045,-0.33801 0.05005,-0.66928 0.11045,-1.02683 0.08052,-0.44814 0.195655,-0.8966 0.361404,-1.32241 0.165039,-0.42399 0.379724,-0.82415 0.659589,-1.18065 0.177262,-0.25568 0.429909,-0.44424 0.714235,-0.53829 0.195788,-0.0681 0.407791,-0.0898 0.608294,-0.0613 0.100984,0.0144 0.198285,0.0413 0.288721,0.0809 0.08285,0.0363 0.159913,0.0831 0.22915,0.14079 0.0836,0.1644 0.145435,0.33588 0.188019,0.50758 0.107016,0.43096 0.08882,0.87412 -0.001,1.27699 -0.0063,0.0404 -0.01586,0.0715 -0.0295,0.10051 -0.01406,0.0299 -0.03199,0.0565 -0.05228,0.0787 -0.02097,0.0229 -0.04393,0.0404 -0.06753,0.0526 -0.02435,0.0126 -0.0501,0.0199 -0.07719,0.0215 -0.05985,0.003 -0.117836,-0.004 -0.173186,-0.0196 -0.05852,-0.0166 -0.114101,-0.0424 -0.165056,-0.0744 -0.113747,-0.0715 -0.200046,-0.17073 -0.25453,-0.26868 -0.104147,-0.16674 -0.188281,-0.3096 -0.253874,-0.45704 -0.07261,-0.16321 -0.115076,-0.31681 -0.123987,-0.46894 -0.0079,-0.076 0.0096,-0.14878 0.04244,-0.20725 0.01767,-0.0314 0.03972,-0.0587 0.06494,-0.0809 0.0091,-0.008 0.0187,-0.0154 0.02871,-0.0221 0.186726,0.2483 0.3039,0.54174 0.354059,0.84838 0.0388,0.23719 0.03813,0.48649 -0.0049,0.73208 -0.01654,0.0944 -0.03893,0.1856 -0.06632,0.2728 -0.08161,0.26573 -0.216381,0.49874 -0.377904,0.68554 -0.170393,0.19707 -0.379752,0.35392 -0.616137,0.45255 -0.0875,0.0423 -0.173875,0.064 -0.263954,0.0695 -0.08539,0.005 -0.175286,-0.004 -0.264878,-0.0293 -0.119928,-0.0336 -0.240718,-0.0961 -0.341463,-0.18815 -0.03338,-0.0305 -0.06511,-0.0649 -0.0937,-0.10309 -0.0594,-0.0749 -0.103419,-0.16237 -0.130819,-0.27085 -0.0243,-0.0962 -0.03415,-0.20391 -0.02932,-0.31828 0.0093,-0.40394 0.151039,-0.80472 0.398439,-1.14617 0.240195,-0.3315 0.571248,-0.59437 0.947679,-0.73786 0.137737,-0.0258 0.278568,-0.0642 0.396644,-0.0935 0.139795,-0.0348 0.259061,-0.0602 0.378069,-0.0699 0.09155,-0.0105 0.172419,0.003 0.234527,0.0279 0.037,0.0149 0.06629,0.0334 0.08904,0.0525 0.02916,0.0246 0.04823,0.0508 0.06101,0.0748 a 0.17001109,0.17001109 90 0 0 0.300068,-0.15992 z"
       id="path-1"
       inkscape:path-effect="#path-effect206;#path-effect208"
       inkscape:original-d="m -12.770259,149.01805 c -0.278261,-0.46806 -0.921048,-0.14805 -1.335783,-0.0914 -0.911903,0.3208 -1.591104,1.31381 -1.487943,2.2839 0.05975,0.63864 0.79508,1.04834 1.363803,0.74076 1.178394,-0.5513 1.470979,-2.25725 0.669252,-3.23981 -0.563835,0.21473 -0.158322,1.03986 0.0846,1.40407 0.222158,0.47013 1.004317,0.73264 1.098234,0.0386 0.13832,-0.61569 0.07477,-1.28706 -0.216261,-1.85061 -0.606019,-0.52905 -1.60333,-0.2944 -2.052668,0.33097 -0.76283,0.94226 -1.06569,2.17375 -1.198517,3.35661 -0.02368,0.65261 -0.04703,1.45033 0.49196,1.91559 0.604735,0.48552 1.426589,0.12527 1.980659,-0.26082 1.248278,-0.89656 2.042657,-2.59125 1.490283,-4.09678 -0.140763,-0.42634 -0.451061,-0.75147 -0.717349,-1.09997"
       style="fill:#000000;fill-rule:nonzero;stroke:none;stroke-width:1.34027" />
  </g>
</svg>
