<?xml version="1.0" encoding="UTF-8" standalone="no"?>
<!-- Created with Inkscape (http://www.inkscape.org/) -->

<svg
   width="5mm"
   height="10mm"
   viewBox="0 0 5.0000001 9.9999994"
   version="1.1"
   id="svg1681"
   inkscape:version="1.2.1 (9c6d41e410, 2022-07-14)"
   sodipodi:docname="at_symbol_19.svg"
   inkscape:export-filename="..\..\..\..\Downloads\lower a diff canvas resize 3.0.png"
   inkscape:export-xdpi="96"
   inkscape:export-ydpi="96"
   xmlns:inkscape="http://www.inkscape.org/namespaces/inkscape"
   xmlns:sodipodi="http://sodipodi.sourceforge.net/DTD/sodipodi-0.dtd"
   xmlns="http://www.w3.org/2000/svg"
   xmlns:svg="http://www.w3.org/2000/svg"
   xmlns:rdf="http://www.w3.org/1999/02/22-rdf-syntax-ns#"
   xmlns:cc="http://creativecommons.org/ns#"
   xmlns:dc="http://purl.org/dc/elements/1.1/">
  <defs
     id="defs1675">
    <inkscape:path-effect
       effect="powerstroke"
       id="path-effect217"
       is_visible="true"
       lpeversion="1"
       offset_points="2.928322,0.13712374 | 6.1022358,0.10946358 | 9.7786199,0.13555436 | 10.256299,0.10946358 | 20.65722,0.16046813"
       not_jump="true"
       sort_points="true"
       interpolator_type="CentripetalCatmullRom"
       interpolator_beta="0.75"
       start_linecap_type="round"
       linejoin_type="spiro"
       miter_limit="4"
       scale_width="1"
       end_linecap_type="round" />
    <inkscape:path-effect
       effect="simplify"
       id="path-effect215"
       is_visible="true"
       lpeversion="1"
       steps="1"
       threshold="0.0035951417"
       smooth_angles="0"
       helper_size="0"
       simplify_individual_paths="false"
       simplify_just_coalesce="false"
       step="1" />
    <inkscape:path-effect
       effect="powerstroke"
       id="path-effect156"
       is_visible="true"
       lpeversion="1"
       offset_points="3.7767171,0.095576913 | 5.6207523,0.081923068 | 16.014846,0.099394117"
       not_jump="true"
       sort_points="true"
       interpolator_type="CentripetalCatmullRom"
       interpolator_beta="0.75"
       start_linecap_type="round"
       linejoin_type="spiro"
       miter_limit="4"
       scale_width="1"
       end_linecap_type="round" />
    <inkscape:path-effect
       effect="simplify"
       id="path-effect154"
       is_visible="true"
       lpeversion="1"
       steps="1"
       threshold="0.0035951417"
       smooth_angles="0"
       helper_size="0"
       simplify_individual_paths="false"
       simplify_just_coalesce="false"
       step="1" />
    <inkscape:path-effect
       effect="powerstroke"
       id="path-effect160"
       is_visible="true"
       lpeversion="1"
       offset_points="3.7099098,0.13534937 | 5.4036328,0.11282723 | 7.6692144,0.13794807 | 11.500148,0.11672529 | 20.920345,0.15743838"
       not_jump="true"
       sort_points="true"
       interpolator_type="CentripetalCatmullRom"
       interpolator_beta="0.75"
       start_linecap_type="round"
       linejoin_type="spiro"
       miter_limit="4"
       scale_width="1"
       end_linecap_type="round" />
    <inkscape:path-effect
       effect="simplify"
       id="path-effect158"
       is_visible="true"
       lpeversion="1"
       steps="1"
       threshold="0.0035951417"
       smooth_angles="0"
       helper_size="0"
       simplify_individual_paths="false"
       simplify_just_coalesce="false"
       step="1" />
    <inkscape:path-effect
       effect="powerstroke"
       id="path-effect153"
       is_visible="true"
       lpeversion="1"
       offset_points="3.2907211,0.10365177 | 6.9205662,0.075463185 | 9.7595326,0.091759709 | 12.37872,0.075022738 | 18.728585,0.10511992"
       not_jump="true"
       sort_points="true"
       interpolator_type="CentripetalCatmullRom"
       interpolator_beta="0.75"
       start_linecap_type="round"
       linejoin_type="spiro"
       miter_limit="4"
       scale_width="1"
       end_linecap_type="round" />
    <inkscape:path-effect
       effect="simplify"
       id="path-effect151"
       is_visible="true"
       lpeversion="1"
       steps="1"
       threshold="0.0035951417"
       smooth_angles="0"
       helper_size="0"
       simplify_individual_paths="false"
       simplify_just_coalesce="false"
       step="1" />
    <inkscape:path-effect
       effect="powerstroke"
       id="path-effect472"
       is_visible="true"
       lpeversion="1"
       offset_points="4.0521283,0.12528567 | 12.810949,0.15034281 | 15.888046,0.12134149 | 21.515736,0.14199042"
       not_jump="true"
       sort_points="true"
       interpolator_type="CentripetalCatmullRom"
       interpolator_beta="0.75"
       start_linecap_type="round"
       linejoin_type="spiro"
       miter_limit="4"
       scale_width="1"
       end_linecap_type="round" />
    <inkscape:path-effect
       effect="simplify"
       id="path-effect470"
       is_visible="true"
       lpeversion="1"
       steps="1"
       threshold="0.0035951417"
       smooth_angles="0"
       helper_size="0"
       simplify_individual_paths="false"
       simplify_just_coalesce="false"
       step="1" />
    <inkscape:path-effect
       effect="powerstroke"
       id="path-effect502"
       is_visible="true"
       lpeversion="1"
       offset_points="3.0091841,0.21607495 | 7.3602657,0.17554228 | 9.4159651,0.20236537"
       not_jump="true"
       sort_points="true"
       interpolator_type="CentripetalCatmullRom"
       interpolator_beta="0.75"
       start_linecap_type="round"
       linejoin_type="spiro"
       miter_limit="4"
       scale_width="1"
       end_linecap_type="round" />
    <inkscape:path-effect
       effect="simplify"
       id="path-effect500"
       is_visible="true"
       lpeversion="1"
       steps="1"
       threshold="0.0035951417"
       smooth_angles="0"
       helper_size="0"
       simplify_individual_paths="false"
       simplify_just_coalesce="false"
       step="1" />
    <inkscape:path-effect
       effect="powerstroke"
       id="path-effect241"
       is_visible="true"
       lpeversion="1"
       offset_points="2.6879454,0.34086734"
       not_jump="true"
       sort_points="true"
       interpolator_type="CentripetalCatmullRom"
       interpolator_beta="0.75"
       start_linecap_type="round"
       linejoin_type="spiro"
       miter_limit="4"
       scale_width="1"
       end_linecap_type="round" />
    <inkscape:path-effect
       effect="simplify"
       id="path-effect239"
       is_visible="true"
       lpeversion="1"
       steps="1"
       threshold="0.0028332064"
       smooth_angles="0"
       helper_size="0"
       simplify_individual_paths="false"
       simplify_just_coalesce="false"
       step="1" />
    <inkscape:path-effect
       effect="powerstroke"
       id="path-effect234"
       is_visible="true"
       lpeversion="1"
       offset_points="2.13563,0.075169555"
       not_jump="true"
       sort_points="true"
       interpolator_type="CentripetalCatmullRom"
       interpolator_beta="0.75"
       start_linecap_type="round"
       linejoin_type="spiro"
       miter_limit="4"
       scale_width="1"
       end_linecap_type="round" />
    <inkscape:path-effect
       effect="simplify"
       id="path-effect232"
       is_visible="true"
       lpeversion="1"
       steps="1"
       threshold="0.0028332064"
       smooth_angles="0"
       helper_size="0"
       simplify_individual_paths="false"
       simplify_just_coalesce="false"
       step="1" />
    <inkscape:path-effect
       effect="powerstroke"
       id="path-effect227"
       is_visible="true"
       lpeversion="1"
       offset_points="2.1868266,0.075169555"
       not_jump="true"
       sort_points="true"
       interpolator_type="CentripetalCatmullRom"
       interpolator_beta="0.75"
       start_linecap_type="round"
       linejoin_type="spiro"
       miter_limit="4"
       scale_width="1"
       end_linecap_type="round" />
    <inkscape:path-effect
       effect="simplify"
       id="path-effect225"
       is_visible="true"
       lpeversion="1"
       steps="1"
       threshold="0.0028332064"
       smooth_angles="0"
       helper_size="0"
       simplify_individual_paths="false"
       simplify_just_coalesce="false"
       step="1" />
    <inkscape:path-effect
       effect="powerstroke"
       id="path-effect166"
       is_visible="true"
       lpeversion="1"
       offset_points="1.9637935,0.075169555"
       not_jump="true"
       sort_points="true"
       interpolator_type="CentripetalCatmullRom"
       interpolator_beta="0.75"
       start_linecap_type="round"
       linejoin_type="spiro"
       miter_limit="4"
       scale_width="1"
       end_linecap_type="round" />
    <inkscape:path-effect
       effect="simplify"
       id="path-effect164"
       is_visible="true"
       lpeversion="1"
       steps="1"
       threshold="0.0028332064"
       smooth_angles="0"
       helper_size="0"
       simplify_individual_paths="false"
       simplify_just_coalesce="false"
       step="1" />
    <inkscape:path-effect
       effect="powerstroke"
       id="path-effect159"
       is_visible="true"
       lpeversion="1"
       offset_points="2.2611036,0.075169555"
       not_jump="true"
       sort_points="true"
       interpolator_type="CentripetalCatmullRom"
       interpolator_beta="0.75"
       start_linecap_type="round"
       linejoin_type="spiro"
       miter_limit="4"
       scale_width="1"
       end_linecap_type="round" />
    <inkscape:path-effect
       effect="simplify"
       id="path-effect157"
       is_visible="true"
       lpeversion="1"
       steps="1"
       threshold="0.0028332064"
       smooth_angles="0"
       helper_size="0"
       simplify_individual_paths="false"
       simplify_just_coalesce="false"
       step="1" />
    <inkscape:path-effect
       effect="powerstroke"
       id="path-effect152"
       is_visible="true"
       lpeversion="1"
       offset_points="2.826981,0.075169555"
       not_jump="true"
       sort_points="true"
       interpolator_type="CentripetalCatmullRom"
       interpolator_beta="0.75"
       start_linecap_type="round"
       linejoin_type="spiro"
       miter_limit="4"
       scale_width="1"
       end_linecap_type="round" />
    <inkscape:path-effect
       effect="simplify"
       id="path-effect150"
       is_visible="true"
       lpeversion="1"
       steps="1"
       threshold="0.0028332064"
       smooth_angles="0"
       helper_size="0"
       simplify_individual_paths="false"
       simplify_just_coalesce="false"
       step="1" />
    <inkscape:path-effect
       effect="powerstroke"
       id="path-effect145"
       is_visible="true"
       lpeversion="1"
       offset_points="3.8374447,0.075169555"
       not_jump="true"
       sort_points="true"
       interpolator_type="CentripetalCatmullRom"
       interpolator_beta="0.75"
       start_linecap_type="round"
       linejoin_type="spiro"
       miter_limit="4"
       scale_width="1"
       end_linecap_type="round" />
    <inkscape:path-effect
       effect="simplify"
       id="path-effect143"
       is_visible="true"
       lpeversion="1"
       steps="1"
       threshold="0.0028332064"
       smooth_angles="0"
       helper_size="0"
       simplify_individual_paths="false"
       simplify_just_coalesce="false"
       step="1" />
    <inkscape:path-effect
       effect="powerstroke"
       id="path-effect138"
       is_visible="true"
       lpeversion="1"
       offset_points="2.6880907,0.075169555"
       not_jump="true"
       sort_points="true"
       interpolator_type="CentripetalCatmullRom"
       interpolator_beta="0.75"
       start_linecap_type="round"
       linejoin_type="spiro"
       miter_limit="4"
       scale_width="1"
       end_linecap_type="round" />
    <inkscape:path-effect
       effect="simplify"
       id="path-effect136"
       is_visible="true"
       lpeversion="1"
       steps="1"
       threshold="0.0028332064"
       smooth_angles="0"
       helper_size="0"
       simplify_individual_paths="false"
       simplify_just_coalesce="false"
       step="1" />
    <inkscape:path-effect
       effect="powerstroke"
       id="path-effect131"
       is_visible="true"
       lpeversion="1"
       offset_points="1.9940581,0.075169555"
       not_jump="true"
       sort_points="true"
       interpolator_type="CentripetalCatmullRom"
       interpolator_beta="0.75"
       start_linecap_type="round"
       linejoin_type="spiro"
       miter_limit="4"
       scale_width="1"
       end_linecap_type="round" />
    <inkscape:path-effect
       effect="simplify"
       id="path-effect129"
       is_visible="true"
       lpeversion="1"
       steps="1"
       threshold="0.0028332064"
       smooth_angles="0"
       helper_size="0"
       simplify_individual_paths="false"
       simplify_just_coalesce="false"
       step="1" />
  </defs>
  <sodipodi:namedview
     id="base"
     pagecolor="#ffffff"
     bordercolor="#666666"
     borderopacity="1.0"
     inkscape:pageopacity="0.0"
     inkscape:pageshadow="2"
     inkscape:zoom="7.919596"
     inkscape:cx="-5.1770318"
     inkscape:cy="20.960665"
     inkscape:document-units="mm"
     inkscape:current-layer="layer1"
     showgrid="false"
     fit-margin-top="0"
     fit-margin-left="0"
     fit-margin-right="0"
     fit-margin-bottom="0"
     inkscape:window-width="1920"
     inkscape:window-height="974"
     inkscape:window-x="-11"
     inkscape:window-y="2889"
     inkscape:window-maximized="1"
     showguides="true"
     inkscape:guide-bbox="true"
     inkscape:snap-bbox="true"
     inkscape:bbox-nodes="true"
     inkscape:snap-nodes="false"
     inkscape:snap-others="false"
     inkscape:snap-page="true"
     inkscape:snap-grids="false"
     inkscape:snap-to-guides="false"
     inkscape:snap-global="false"
     inkscape:pagecheckerboard="0"
     inkscape:showpageshadow="2"
     inkscape:deskcolor="#d1d1d1">
    <sodipodi:guide
       position="-6.1806075,9.4988692"
       orientation="0,1"
       id="guide816"
       inkscape:locked="false" />
    <sodipodi:guide
       position="-4.4101636,10.646923"
       orientation="0,1"
       id="guide818"
       inkscape:locked="false" />
    <sodipodi:guide
       position="2.7595724,11.09577"
       orientation="1,0"
       id="guide820"
       inkscape:locked="false" />
    <sodipodi:guide
       position="3.6572659,10.942217"
       orientation="1,0"
       id="guide822"
       inkscape:locked="false" />
    <sodipodi:guide
       position="-0.051625511,9.7492299"
       orientation="1,0"
       id="guide1853"
       inkscape:locked="false" />
    <sodipodi:guide
       position="-2.3720169,3.0175835"
       orientation="0,1"
       id="guide1855"
       inkscape:locked="false" />
  </sodipodi:namedview>
  <metadata
     id="metadata1678">
    <rdf:RDF>
      <cc:Work
         rdf:about="">
        <dc:format>image/svg+xml</dc:format>
        <dc:type
           rdf:resource="http://purl.org/dc/dcmitype/StillImage" />
      </cc:Work>
    </rdf:RDF>
  </metadata>
  <g
     inkscape:label="Layer 1"
     inkscape:groupmode="layer"
     id="layer1"
     transform="translate(17.028496,-147.22856)">
    <path
       d="m -13.666023,147.92682 c -0.180561,-0.0282 -0.429499,-0.0296 -0.723015,0.0723 -0.207732,0.0721 -0.421566,0.19102 -0.618566,0.3584 -0.376502,0.31466 -0.670137,0.72838 -0.90774,1.19127 -0.08837,0.20041 -0.140484,0.41062 -0.149155,0.61894 -0.008,0.19141 0.02089,0.37534 0.08803,0.5424 0.01173,0.0292 0.02471,0.0581 0.03899,0.0865 0.07097,0.14369 0.182981,0.25742 0.313064,0.33723 0.129329,0.0793 0.278356,0.12637 0.428736,0.13751 0.09724,0.0118 0.198052,0.007 0.295229,-0.0114 0.09669,-0.0183 0.189604,-0.05 0.277258,-0.0914 0.173653,-0.0822 0.328862,-0.20378 0.455175,-0.34079 0.356704,-0.37962 0.587983,-0.88103 0.647886,-1.41095 0.005,-0.0403 0.0095,-0.0821 0.01334,-0.12392 0.03099,-0.34065 0.01928,-0.70323 -0.03401,-1.09577 -0.0053,-0.0474 -0.02122,-0.0971 -0.04433,-0.1421 -0.02281,-0.0444 -0.05466,-0.0882 -0.09539,-0.12328 -0.02051,-0.0176 -0.04397,-0.0337 -0.07034,-0.0462 -0.02652,-0.0126 -0.05608,-0.0216 -0.08806,-0.0249 -0.0323,-0.003 -0.06543,-5.2e-4 -0.0983,0.009 -0.03294,0.009 -0.0638,0.0251 -0.09226,0.0456 -0.05779,0.0402 -0.106564,0.0925 -0.144317,0.14998 -0.03884,0.0591 -0.06638,0.12405 -0.08265,0.19015 -0.01699,0.069 -0.02186,0.13987 -0.01441,0.20849 0.0067,0.062 0.02346,0.12177 0.04998,0.17695 0.02892,0.32088 0.04195,0.62625 0.07382,0.88763 0.02492,0.20439 0.05724,0.37058 0.09711,0.51634 0.05231,0.19122 0.110551,0.31731 0.151432,0.39823 0.02486,0.04 0.04812,0.0785 0.103065,0.16611 0.02591,0.0413 0.06151,0.0961 0.104948,0.15358 0.06222,0.0823 0.152553,0.18643 0.27547,0.27348 0.03378,0.0253 0.07612,0.0483 0.123055,0.0645 0.04289,0.0148 0.09087,0.0244 0.141016,0.0248 0.04677,3.7e-4 0.09696,-0.007 0.145749,-0.0276 0.04645,-0.0194 0.09097,-0.05 0.128106,-0.0945 0.04707,-0.0557 0.08554,-0.11768 0.116473,-0.18407 0.02968,-0.0637 0.05208,-0.13068 0.06914,-0.19961 0.03262,-0.1318 0.04514,-0.26808 0.05326,-0.39975 -0.0033,-0.23455 -0.01328,-0.46595 -0.02829,-0.70903 -0.02497,-0.31268 -0.0722,-0.64049 -0.166302,-0.95632 -0.09252,-0.3105 -0.231173,-0.61276 -0.442428,-0.87949 -0.07847,-0.10639 -0.175498,-0.20697 -0.287346,-0.29019 -0.111265,-0.0828 -0.237625,-0.14863 -0.376346,-0.18781 -0.268521,-0.0784 -0.550567,-0.0678 -0.811856,0.007 -0.262935,0.0756 -0.506774,0.21695 -0.701888,0.40202 -0.417883,0.36722 -0.750571,0.81638 -1.001122,1.30112 -0.255942,0.49517 -0.426612,1.02808 -0.521162,1.55833 -0.0505,0.29768 -0.02333,0.5872 0.04171,0.85674 0.06749,0.27967 0.177713,0.54536 0.292943,0.78226 0.115677,0.25055 0.244688,0.46786 0.340857,0.66831 0.07335,0.20244 0.200215,0.36369 0.342925,0.48256 0.04956,0.0413 0.101249,0.0776 0.153927,0.10912 0.117411,0.0703 0.24742,0.12136 0.383553,0.1486 0.170832,0.0394 0.347524,0.0462 0.518615,0.0325 0.172508,-0.0138 0.340726,-0.0487 0.49807,-0.0915 0.0036,-9.9e-4 0.0072,-0.002 0.01072,-0.003 0.132163,-0.0461 0.249552,-0.10996 0.355904,-0.18223 0.107581,-0.0731 0.205391,-0.15587 0.295705,-0.23845 0.08972,-0.082 0.181756,-0.17314 0.263224,-0.25106 0.08714,-0.0834 0.169808,-0.15921 0.25563,-0.22658 0.0039,-0.003 0.0076,-0.006 0.01114,-0.01 0.378913,-0.35725 0.650667,-0.78685 0.828868,-1.22976 0.195692,-0.48639 0.278584,-0.98763 0.2755,-1.45324 0.01619,-0.29738 0.0241,-0.90407 0.02668,-1.00891 a 0.16046813,0.16046813 90 0 0 -0.32084,-0.008 c -0.0031,0.12473 -0.0111,0.69936 -0.02833,1.00903 0.0023,0.43632 -0.0741,0.89549 -0.253303,1.3401 -0.162044,0.40203 -0.4077,0.78946 -0.745884,1.10965 -0.0963,0.076 -0.186222,0.15882 -0.273822,0.24254 -0.08751,0.0836 -0.171659,0.1671 -0.258002,0.24603 -0.08448,0.0772 -0.169489,0.14862 -0.259122,0.20956 -0.08649,0.0588 -0.176978,0.10766 -0.27517,0.14253 -0.1426,0.0387 -0.28832,0.0684 -0.433228,0.0804 -0.145245,0.012 -0.287799,0.006 -0.425039,-0.025 -0.103644,-0.0204 -0.199453,-0.0575 -0.286644,-0.10906 -0.03904,-0.0231 -0.07732,-0.0497 -0.113978,-0.0798 -0.10664,-0.0877 -0.199769,-0.20593 -0.252405,-0.35024 -0.0019,-0.005 -0.0041,-0.0105 -0.0066,-0.0156 -0.107213,-0.21778 -0.242019,-0.43684 -0.354981,-0.67059 -0.112962,-0.22746 -0.21549,-0.47081 -0.278279,-0.72121 -0.06033,-0.2406 -0.08432,-0.48875 -0.04455,-0.73701 0.08734,-0.50335 0.247065,-1.00931 0.486501,-1.47801 0.234287,-0.45863 0.544489,-0.88065 0.935854,-1.22809 0.166091,-0.1607 0.370526,-0.28212 0.590946,-0.34802 0.218558,-0.0653 0.449445,-0.0751 0.66706,-0.014 0.107591,0.028 0.207142,0.0766 0.298014,0.14134 0.09148,0.0652 0.173301,0.14609 0.242903,0.23649 0.19165,0.2382 0.320515,0.51035 0.408793,0.79853 0.09003,0.2939 0.137618,0.60383 0.163962,0.90572 0.01947,0.23847 0.03347,0.46627 0.04045,0.68795 -0.0058,0.12012 -0.0159,0.24082 -0.04231,0.35349 -0.01365,0.0583 -0.03124,0.11224 -0.05367,0.16181 -0.0233,0.0515 -0.05163,0.0977 -0.08578,0.13892 -0.01458,0.0181 -0.03103,0.0298 -0.04878,0.0375 -0.01918,0.008 -0.04128,0.0125 -0.06463,0.0124 -0.02522,-2e-5 -0.05101,-0.005 -0.07525,-0.0132 -0.02645,-0.009 -0.04981,-0.0222 -0.06879,-0.0367 -0.100801,-0.0724 -0.174428,-0.15913 -0.226653,-0.23285 -0.0363,-0.0512 -0.06495,-0.10008 -0.08573,-0.139 -0.04058,-0.076 -0.05767,-0.12756 -0.06829,-0.15992 -0.02522,-0.0649 -0.07222,-0.19637 -0.113035,-0.36254 -0.03283,-0.13365 -0.06091,-0.28632 -0.08393,-0.48116 -0.03019,-0.25557 -0.04408,-0.56486 -0.07867,-0.90685 -9.78e-4,-0.01 -0.0021,-0.0194 -0.005,-0.0287 -0.0029,-0.009 -0.0075,-0.0179 -0.01252,-0.0263 -0.01735,-0.0291 -0.02971,-0.0633 -0.03524,-0.10199 -0.0052,-0.0365 -0.0042,-0.0762 0.0041,-0.11652 0.008,-0.0386 0.02246,-0.0766 0.04309,-0.11098 0.02002,-0.0333 0.04538,-0.0624 0.07517,-0.0851 0.0087,-0.007 0.01374,-0.01 0.01586,-0.0109 0.002,-0.001 0.0036,-0.002 0.0047,-0.002 0.0015,-3.7e-4 0.0042,-4.6e-4 0.0087,0.001 0.0046,0.001 0.01051,0.004 0.01749,0.01 0.01439,0.0106 0.02957,0.0277 0.04224,0.0493 0.0128,0.0218 0.02064,0.0441 0.02387,0.0624 0.05769,0.37823 0.07238,0.72447 0.0428,1.04477 -0.0036,0.0394 -0.0079,0.0786 -0.01296,0.11768 -0.05602,0.48401 -0.27214,0.93871 -0.599196,1.27743 -0.112155,0.11691 -0.245417,0.21557 -0.388201,0.27919 -0.07169,0.0319 -0.145162,0.0548 -0.219186,0.067 -0.07422,0.0122 -0.149096,0.0138 -0.223827,0.003 -0.115948,-0.0121 -0.223694,-0.05 -0.314745,-0.10895 -0.09126,-0.0591 -0.164103,-0.13829 -0.209088,-0.23254 -0.01112,-0.0227 -0.02084,-0.0448 -0.02965,-0.0672 -0.05026,-0.12787 -0.07326,-0.27263 -0.0662,-0.42902 0.0077,-0.17092 0.05116,-0.34728 0.123433,-0.5114 0.223227,-0.43375 0.495417,-0.81401 0.835425,-1.09922 0.171946,-0.14667 0.355727,-0.24874 0.530551,-0.30987 0.245044,-0.0857 0.447815,-0.0837 0.590074,-0.0614 a 0.13712374,0.13712374 90 0 0 0.04236,-0.27096 z"
       id="path-1"
       inkscape:path-effect="#path-effect215;#path-effect217"
       inkscape:original-d="m -13.687202,148.0623 c -0.907453,-0.12907 -1.617928,0.66679 -2.015183,1.38494 -0.352098,0.54909 -0.348555,1.54193 0.439164,1.68432 0.676648,0.13673 1.205146,-0.49901 1.454375,-1.05279 0.247736,-0.57695 0.236768,-1.22855 0.161427,-1.83824 -0.136651,-0.59653 -0.659981,-0.0205 -0.439295,0.36117 0.07534,0.78833 0.04112,1.71804 0.665567,2.304 0.57653,0.45526 0.717834,-0.51337 0.665229,-0.91313 -0.02333,-0.86337 -0.148099,-1.83858 -0.814341,-2.45647 -0.524525,-0.43598 -1.298432,-0.28825 -1.768739,0.15314 -0.800723,0.69508 -1.291077,1.71231 -1.483063,2.74484 -0.158097,0.8106 0.28923,1.56362 0.657508,2.24817 0.229348,0.64957 0.911271,0.79986 1.518805,0.6614 0.560183,-0.0689 0.907032,-0.5905 1.32443,-0.91852 0.69326,-0.6565 1.05518,-1.59989 1.053377,-2.54786 0.01928,-0.34299 0.02006,-0.68662 0.02851,-1.02995"
       style="fill:#000000;fill-rule:nonzero;stroke:none;stroke-width:1.33618" />
  </g>
</svg>
