<?xml version="1.0" encoding="UTF-8" standalone="no"?>
<!-- Created with Inkscape (http://www.inkscape.org/) -->

<svg
   width="5mm"
   height="10mm"
   viewBox="0 0 5.0000001 9.9999994"
   version="1.1"
   id="svg1681"
   inkscape:version="1.2.1 (9c6d41e410, 2022-07-14)"
   sodipodi:docname="at_symbol_3.svg"
   inkscape:export-filename="..\..\..\..\Downloads\lower a diff canvas resize 3.0.png"
   inkscape:export-xdpi="96"
   inkscape:export-ydpi="96"
   xmlns:inkscape="http://www.inkscape.org/namespaces/inkscape"
   xmlns:sodipodi="http://sodipodi.sourceforge.net/DTD/sodipodi-0.dtd"
   xmlns="http://www.w3.org/2000/svg"
   xmlns:svg="http://www.w3.org/2000/svg"
   xmlns:rdf="http://www.w3.org/1999/02/22-rdf-syntax-ns#"
   xmlns:cc="http://creativecommons.org/ns#"
   xmlns:dc="http://purl.org/dc/elements/1.1/">
  <defs
     id="defs1675">
    <inkscape:path-effect
       effect="powerstroke"
       id="path-effect431"
       is_visible="true"
       lpeversion="1"
       offset_points="3.6217867,0.13820622 | 5.1318942,0.16124059"
       not_jump="true"
       sort_points="true"
       interpolator_type="CentripetalCatmullRom"
       interpolator_beta="0.75"
       start_linecap_type="round"
       linejoin_type="spiro"
       miter_limit="4"
       scale_width="1"
       end_linecap_type="round" />
    <inkscape:path-effect
       effect="simplify"
       id="path-effect429"
       is_visible="true"
       lpeversion="1"
       steps="1"
       threshold="0.0035951417"
       smooth_angles="0"
       helper_size="0"
       simplify_individual_paths="false"
       simplify_just_coalesce="false"
       step="1" />
    <inkscape:path-effect
       effect="powerstroke"
       id="path-effect502"
       is_visible="true"
       lpeversion="1"
       offset_points="3.0091841,0.21607495 | 7.3602657,0.17554228 | 9.4159651,0.20236537"
       not_jump="true"
       sort_points="true"
       interpolator_type="CentripetalCatmullRom"
       interpolator_beta="0.75"
       start_linecap_type="round"
       linejoin_type="spiro"
       miter_limit="4"
       scale_width="1"
       end_linecap_type="round" />
    <inkscape:path-effect
       effect="simplify"
       id="path-effect500"
       is_visible="true"
       lpeversion="1"
       steps="1"
       threshold="0.0035951417"
       smooth_angles="0"
       helper_size="0"
       simplify_individual_paths="false"
       simplify_just_coalesce="false"
       step="1" />
    <inkscape:path-effect
       effect="powerstroke"
       id="path-effect241"
       is_visible="true"
       lpeversion="1"
       offset_points="2.6879454,0.34086734"
       not_jump="true"
       sort_points="true"
       interpolator_type="CentripetalCatmullRom"
       interpolator_beta="0.75"
       start_linecap_type="round"
       linejoin_type="spiro"
       miter_limit="4"
       scale_width="1"
       end_linecap_type="round" />
    <inkscape:path-effect
       effect="simplify"
       id="path-effect239"
       is_visible="true"
       lpeversion="1"
       steps="1"
       threshold="0.0028332064"
       smooth_angles="0"
       helper_size="0"
       simplify_individual_paths="false"
       simplify_just_coalesce="false"
       step="1" />
    <inkscape:path-effect
       effect="powerstroke"
       id="path-effect234"
       is_visible="true"
       lpeversion="1"
       offset_points="2.13563,0.075169555"
       not_jump="true"
       sort_points="true"
       interpolator_type="CentripetalCatmullRom"
       interpolator_beta="0.75"
       start_linecap_type="round"
       linejoin_type="spiro"
       miter_limit="4"
       scale_width="1"
       end_linecap_type="round" />
    <inkscape:path-effect
       effect="simplify"
       id="path-effect232"
       is_visible="true"
       lpeversion="1"
       steps="1"
       threshold="0.0028332064"
       smooth_angles="0"
       helper_size="0"
       simplify_individual_paths="false"
       simplify_just_coalesce="false"
       step="1" />
    <inkscape:path-effect
       effect="powerstroke"
       id="path-effect227"
       is_visible="true"
       lpeversion="1"
       offset_points="2.1868266,0.075169555"
       not_jump="true"
       sort_points="true"
       interpolator_type="CentripetalCatmullRom"
       interpolator_beta="0.75"
       start_linecap_type="round"
       linejoin_type="spiro"
       miter_limit="4"
       scale_width="1"
       end_linecap_type="round" />
    <inkscape:path-effect
       effect="simplify"
       id="path-effect225"
       is_visible="true"
       lpeversion="1"
       steps="1"
       threshold="0.0028332064"
       smooth_angles="0"
       helper_size="0"
       simplify_individual_paths="false"
       simplify_just_coalesce="false"
       step="1" />
    <inkscape:path-effect
       effect="powerstroke"
       id="path-effect166"
       is_visible="true"
       lpeversion="1"
       offset_points="1.9637935,0.075169555"
       not_jump="true"
       sort_points="true"
       interpolator_type="CentripetalCatmullRom"
       interpolator_beta="0.75"
       start_linecap_type="round"
       linejoin_type="spiro"
       miter_limit="4"
       scale_width="1"
       end_linecap_type="round" />
    <inkscape:path-effect
       effect="simplify"
       id="path-effect164"
       is_visible="true"
       lpeversion="1"
       steps="1"
       threshold="0.0028332064"
       smooth_angles="0"
       helper_size="0"
       simplify_individual_paths="false"
       simplify_just_coalesce="false"
       step="1" />
    <inkscape:path-effect
       effect="powerstroke"
       id="path-effect159"
       is_visible="true"
       lpeversion="1"
       offset_points="2.2611036,0.075169555"
       not_jump="true"
       sort_points="true"
       interpolator_type="CentripetalCatmullRom"
       interpolator_beta="0.75"
       start_linecap_type="round"
       linejoin_type="spiro"
       miter_limit="4"
       scale_width="1"
       end_linecap_type="round" />
    <inkscape:path-effect
       effect="simplify"
       id="path-effect157"
       is_visible="true"
       lpeversion="1"
       steps="1"
       threshold="0.0028332064"
       smooth_angles="0"
       helper_size="0"
       simplify_individual_paths="false"
       simplify_just_coalesce="false"
       step="1" />
    <inkscape:path-effect
       effect="powerstroke"
       id="path-effect152"
       is_visible="true"
       lpeversion="1"
       offset_points="2.826981,0.075169555"
       not_jump="true"
       sort_points="true"
       interpolator_type="CentripetalCatmullRom"
       interpolator_beta="0.75"
       start_linecap_type="round"
       linejoin_type="spiro"
       miter_limit="4"
       scale_width="1"
       end_linecap_type="round" />
    <inkscape:path-effect
       effect="simplify"
       id="path-effect150"
       is_visible="true"
       lpeversion="1"
       steps="1"
       threshold="0.0028332064"
       smooth_angles="0"
       helper_size="0"
       simplify_individual_paths="false"
       simplify_just_coalesce="false"
       step="1" />
    <inkscape:path-effect
       effect="powerstroke"
       id="path-effect145"
       is_visible="true"
       lpeversion="1"
       offset_points="3.8374447,0.075169555"
       not_jump="true"
       sort_points="true"
       interpolator_type="CentripetalCatmullRom"
       interpolator_beta="0.75"
       start_linecap_type="round"
       linejoin_type="spiro"
       miter_limit="4"
       scale_width="1"
       end_linecap_type="round" />
    <inkscape:path-effect
       effect="simplify"
       id="path-effect143"
       is_visible="true"
       lpeversion="1"
       steps="1"
       threshold="0.0028332064"
       smooth_angles="0"
       helper_size="0"
       simplify_individual_paths="false"
       simplify_just_coalesce="false"
       step="1" />
    <inkscape:path-effect
       effect="powerstroke"
       id="path-effect138"
       is_visible="true"
       lpeversion="1"
       offset_points="2.6880907,0.075169555"
       not_jump="true"
       sort_points="true"
       interpolator_type="CentripetalCatmullRom"
       interpolator_beta="0.75"
       start_linecap_type="round"
       linejoin_type="spiro"
       miter_limit="4"
       scale_width="1"
       end_linecap_type="round" />
    <inkscape:path-effect
       effect="simplify"
       id="path-effect136"
       is_visible="true"
       lpeversion="1"
       steps="1"
       threshold="0.0028332064"
       smooth_angles="0"
       helper_size="0"
       simplify_individual_paths="false"
       simplify_just_coalesce="false"
       step="1" />
    <inkscape:path-effect
       effect="powerstroke"
       id="path-effect131"
       is_visible="true"
       lpeversion="1"
       offset_points="1.9940581,0.075169555"
       not_jump="true"
       sort_points="true"
       interpolator_type="CentripetalCatmullRom"
       interpolator_beta="0.75"
       start_linecap_type="round"
       linejoin_type="spiro"
       miter_limit="4"
       scale_width="1"
       end_linecap_type="round" />
    <inkscape:path-effect
       effect="simplify"
       id="path-effect129"
       is_visible="true"
       lpeversion="1"
       steps="1"
       threshold="0.0028332064"
       smooth_angles="0"
       helper_size="0"
       simplify_individual_paths="false"
       simplify_just_coalesce="false"
       step="1" />
  </defs>
  <sodipodi:namedview
     id="base"
     pagecolor="#ffffff"
     bordercolor="#666666"
     borderopacity="1.0"
     inkscape:pageopacity="0.0"
     inkscape:pageshadow="2"
     inkscape:zoom="7.919596"
     inkscape:cx="-5.1770318"
     inkscape:cy="20.834396"
     inkscape:document-units="mm"
     inkscape:current-layer="layer1"
     showgrid="false"
     fit-margin-top="0"
     fit-margin-left="0"
     fit-margin-right="0"
     fit-margin-bottom="0"
     inkscape:window-width="3440"
     inkscape:window-height="1369"
     inkscape:window-x="1072"
     inkscape:window-y="224"
     inkscape:window-maximized="1"
     showguides="true"
     inkscape:guide-bbox="true"
     inkscape:snap-bbox="true"
     inkscape:bbox-nodes="true"
     inkscape:snap-nodes="false"
     inkscape:snap-others="false"
     inkscape:snap-page="true"
     inkscape:snap-grids="false"
     inkscape:snap-to-guides="false"
     inkscape:snap-global="false"
     inkscape:pagecheckerboard="0"
     inkscape:showpageshadow="2"
     inkscape:deskcolor="#d1d1d1">
    <sodipodi:guide
       position="-6.1806075,9.4988692"
       orientation="0,1"
       id="guide816"
       inkscape:locked="false" />
    <sodipodi:guide
       position="-4.4101636,10.646923"
       orientation="0,1"
       id="guide818"
       inkscape:locked="false" />
    <sodipodi:guide
       position="2.7595724,11.09577"
       orientation="1,0"
       id="guide820"
       inkscape:locked="false" />
    <sodipodi:guide
       position="3.6572659,10.942217"
       orientation="1,0"
       id="guide822"
       inkscape:locked="false" />
    <sodipodi:guide
       position="-0.051625511,9.7492299"
       orientation="1,0"
       id="guide1853"
       inkscape:locked="false" />
    <sodipodi:guide
       position="-2.3720169,3.0175835"
       orientation="0,1"
       id="guide1855"
       inkscape:locked="false" />
  </sodipodi:namedview>
  <metadata
     id="metadata1678">
    <rdf:RDF>
      <cc:Work
         rdf:about="">
        <dc:format>image/svg+xml</dc:format>
        <dc:type
           rdf:resource="http://purl.org/dc/dcmitype/StillImage" />
      </cc:Work>
    </rdf:RDF>
  </metadata>
  <g
     inkscape:label="Layer 1"
     inkscape:groupmode="layer"
     id="layer1"
     transform="translate(17.028496,-147.22856)">
    <path
       d="m -14.827117,149.04935 c -0.07636,-0.0319 -0.173834,-0.06 -0.291245,-0.0681 -0.08927,-0.006 -0.186979,-3.9e-4 -0.290423,0.022 -0.170922,0.0369 -0.3526,0.11873 -0.512345,0.2507 -0.198614,0.15942 -0.372176,0.38224 -0.477459,0.64394 -0.05023,0.12485 -0.08456,0.25798 -0.09783,0.39519 -0.01314,0.13585 -0.0055,0.27502 0.02727,0.41279 0.01629,0.0863 0.05149,0.17094 0.09813,0.24553 0.04937,0.079 0.110551,0.14519 0.175756,0.19864 0.0687,0.061 0.148525,0.10763 0.228273,0.14 0.08828,0.0358 0.176891,0.0545 0.259292,0.0617 0.0449,0.004 0.08824,0.005 0.129379,0.003 0.155611,-0.007 0.288135,-0.0495 0.387831,-0.0975 0.179884,-0.0814 0.343225,-0.21485 0.464736,-0.38437 0.08493,-0.1185 0.183744,-0.30392 0.208765,-0.54112 0.0096,-0.0205 0.01843,-0.0418 0.02627,-0.0641 0.0094,-0.0268 0.01751,-0.0549 0.02408,-0.0844 0.01238,-0.0555 0.01904,-0.11393 0.02059,-0.17593 0.0027,-0.10644 -0.0097,-0.21062 -0.02579,-0.32021 -5.08e-4,-0.003 -0.0012,-0.007 -0.0019,-0.0103 -0.01169,-0.0558 -0.02914,-0.14859 -0.05652,-0.23082 -0.01348,-0.0405 -0.03104,-0.0843 -0.055,-0.12773 -0.02299,-0.0417 -0.05243,-0.0841 -0.0909,-0.12351 -0.0088,-0.009 -0.01788,-0.0178 -0.02845,-0.0245 -0.01057,-0.007 -0.02233,-0.0114 -0.03411,-0.0157 -0.03418,-0.0125 -0.074,-0.0199 -0.115676,-0.0161 -0.04239,0.004 -0.0806,0.0187 -0.112895,0.0408 -0.03064,0.0209 -0.05309,0.0463 -0.06941,0.0698 -0.01602,0.0231 -0.02786,0.0468 -0.03682,0.0681 -0.01716,0.0409 -0.02797,0.0836 -0.03549,0.11641 -0.0037,0.016 -0.0072,0.0327 -0.0099,0.0449 -0.0029,0.0133 -0.005,0.0222 -0.0067,0.0283 -0.0025,0.009 -0.0042,0.0182 -0.0051,0.0276 -0.008,0.0774 -0.0039,0.152 0.0023,0.22007 0.0062,0.0687 0.01339,0.12323 0.01617,0.18083 0.03271,0.34742 0.08242,0.70774 0.175617,1.05963 0.09066,0.3423 0.224382,0.68436 0.430028,0.99935 0.04529,0.0661 0.10608,0.16381 0.172117,0.24294 0.03471,0.0416 0.07497,0.0836 0.122444,0.12121 0.04735,0.0375 0.101874,0.0707 0.165126,0.0949 0.07553,0.0314 0.157861,0.0459 0.238866,0.0454 0.08003,-5e-4 0.15761,-0.0156 0.230351,-0.0408 0.142693,-0.0494 0.271153,-0.13938 0.368358,-0.24576 0.110667,-0.11701 0.197806,-0.26301 0.248782,-0.42144 0.04867,-0.15127 0.06503,-0.31619 0.03635,-0.48008 0.0083,-0.32398 0.0016,-0.65926 -0.04207,-0.99105 -0.04437,-0.33726 -0.1272,-0.67326 -0.272929,-0.99258 -0.07014,-0.14885 -0.154661,-0.29334 -0.256506,-0.42604 -0.102079,-0.13301 -0.222018,-0.25475 -0.3619,-0.35506 -0.0056,-0.004 -0.01138,-0.008 -0.0174,-0.011 -0.197154,-0.1077 -0.414712,-0.1549 -0.62878,-0.15419 -0.215366,7.3e-4 -0.429351,0.0498 -0.621625,0.137 -0.281483,0.12445 -0.527299,0.30617 -0.735851,0.51849 -0.211084,0.21489 -0.385325,0.46241 -0.523328,0.71882 -0.240644,0.43908 -0.406703,0.91756 -0.489913,1.40517 -0.08486,0.49729 -0.08358,1.00371 0.01095,1.49197 0.06086,0.28555 0.139065,0.5696 0.283601,0.82723 0.132684,0.22723 0.331202,0.40631 0.554523,0.51798 0.115406,0.0577 0.238489,0.098 0.36466,0.11787 0.129069,0.0203 0.261024,0.0191 0.39108,-0.007 0.07895,-0.0137 0.154963,-0.0387 0.224823,-0.0697 0.07151,-0.0317 0.137297,-0.0699 0.197525,-0.10992 0.121845,-0.0811 0.236777,-0.18127 0.328165,-0.25859 0.323931,-0.29137 0.575188,-0.62269 0.781284,-0.9485 0.223754,-0.35372 0.411957,-0.73051 0.570222,-1.05871 0.234554,-0.47117 0.365515,-0.9137 0.440814,-1.25421 a 0.16124059,0.16124059 90 0 0 -0.314874,-0.0696 c -0.07105,0.3213 -0.1947,0.73756 -0.416256,1.18143 -0.158614,0.3284 -0.340352,0.69087 -0.553779,1.02774 -0.196219,0.30971 -0.429483,0.61504 -0.720882,0.87685 -0.0943,0.0793 -0.192393,0.16419 -0.294926,0.23204 -0.04894,0.0324 -0.09843,0.0606 -0.149128,0.0829 -0.04926,0.0217 -0.09977,0.0378 -0.152405,0.0468 -0.09427,0.0184 -0.187452,0.0194 -0.280613,0.005 -0.09125,-0.0145 -0.182141,-0.0441 -0.268862,-0.0876 -0.169081,-0.0849 -0.318602,-0.22094 -0.415812,-0.38796 -0.117947,-0.2115 -0.18735,-0.45677 -0.24489,-0.72979 -0.08564,-0.44411 -0.08695,-0.91024 -0.0081,-1.37033 0.07731,-0.45122 0.231447,-0.89452 0.455193,-1.30214 0.126131,-0.23372 0.282683,-0.45463 0.468908,-0.64381 0.183813,-0.18672 0.395742,-0.34174 0.634438,-0.44698 0.152686,-0.0689 0.320121,-0.1067 0.485987,-0.10701 0.160955,-3e-4 0.318147,0.0346 0.457411,0.10884 0.105613,0.0774 0.199499,0.17275 0.282227,0.2809 0.08477,0.11083 0.157055,0.23411 0.217559,0.36299 0.127584,0.28011 0.202986,0.58239 0.243865,0.89466 0.04106,0.31365 0.04715,0.63577 0.03826,0.95571 -3.48e-4,0.0125 7.09e-4,0.025 0.0031,0.0373 0.02107,0.10786 0.01181,0.22137 -0.02326,0.32994 -0.03542,0.10965 -0.09633,0.2115 -0.174519,0.29403 -0.06504,0.071 -0.146844,0.12673 -0.230761,0.15572 -0.04183,0.0144 -0.08262,0.0217 -0.121108,0.022 -0.03845,2.1e-4 -0.0754,-0.007 -0.110693,-0.0213 -0.03108,-0.012 -0.05573,-0.0265 -0.07965,-0.0455 -0.02445,-0.0194 -0.04826,-0.0435 -0.07248,-0.0725 -0.05241,-0.0628 -0.09359,-0.1311 -0.150637,-0.21418 -0.178713,-0.27378 -0.299903,-0.58005 -0.383948,-0.89706 -0.08655,-0.32647 -0.134126,-0.66618 -0.165577,-0.99693 -0.0028,-0.0588 -0.01241,-0.13634 -0.01718,-0.18731 -0.0053,-0.0562 -0.0074,-0.10193 -0.0044,-0.14368 0.0025,-0.0104 0.0047,-0.0205 0.0066,-0.0295 0.0033,-0.0157 0.0058,-0.0277 0.009,-0.0419 0.0064,-0.0287 0.01189,-0.0481 0.01727,-0.0613 0.0023,-0.006 0.004,-0.008 0.0026,-0.006 -0.0014,0.002 -0.0064,0.009 -0.01758,0.0163 -0.01245,0.008 -0.02845,0.0147 -0.04589,0.0163 -0.01684,0.002 -0.02791,-0.002 -0.03073,-0.003 -0.01167,-0.005 -0.02333,-0.009 -0.03392,-0.016 -0.01058,-0.007 -0.0198,-0.0153 -0.02864,-0.0242 0.01422,0.0143 0.02668,0.0312 0.0379,0.051 0.01187,0.021 0.02218,0.0449 0.03147,0.0718 0.02001,0.0579 0.0335,0.12381 0.04845,0.19026 0.01619,0.10289 0.02577,0.18234 0.02521,0.25838 -3.21e-4,0.0438 -0.0042,0.0813 -0.01062,0.11401 -0.0034,0.0174 -0.0076,0.0334 -0.01232,0.0481 -0.0058,0.0181 -0.01251,0.0346 -0.01995,0.0498 -0.0048,0.01 -0.0096,0.0199 -0.01274,0.0304 -0.0031,0.0106 -0.0042,0.0216 -0.0048,0.0326 -0.0099,0.17935 -0.08022,0.32578 -0.143912,0.42187 -0.08633,0.13026 -0.203871,0.23573 -0.337997,0.30197 -0.07166,0.0379 -0.165274,0.0713 -0.277518,0.0784 -0.02948,0.002 -0.06039,0.002 -0.09224,-4.9e-4 -0.05862,-0.004 -0.12014,-0.0169 -0.180199,-0.0407 -0.05409,-0.0215 -0.106962,-0.0521 -0.154691,-0.094 -0.04908,-0.0396 -0.08992,-0.0838 -0.122107,-0.13511 -0.0303,-0.0483 -0.05208,-0.10171 -0.06269,-0.15862 -0.02662,-0.11297 -0.03267,-0.22204 -0.02203,-0.33019 0.01076,-0.1094 0.03853,-0.21723 0.08007,-0.31989 0.0875,-0.21624 0.232281,-0.40119 0.397885,-0.53343 0.126585,-0.10377 0.26811,-0.16628 0.397786,-0.19378 0.07798,-0.0165 0.149776,-0.0202 0.213508,-0.0157 0.08353,0.006 0.151557,0.026 0.20404,0.0479 a 0.13820622,0.13820622 90 0 0 0.106468,-0.25508 z"
       id="path-1"
       inkscape:path-effect="#path-effect429;#path-effect431"
       inkscape:original-d="m -14.880351,149.17689 c -0.85186,-0.33878 -1.79345,0.823 -1.392051,1.68292 0.480862,0.72587 1.536299,0.25489 1.598692,-0.57309 0.209606,-0.33398 -0.154926,-1.53604 -0.295341,-0.69786 0.05531,0.84002 0.181909,1.74644 0.683982,2.42519 0.441793,0.74642 1.329026,0.0187 1.190809,-0.69052 0.02994,-0.93126 -0.09119,-2.04057 -0.842443,-2.63129 -0.815726,-0.44533 -1.736402,0.20963 -2.185524,0.94503 -0.645761,1.02374 -0.86503,2.42993 -0.402435,3.58221 0.264577,0.67229 1.0719,0.98161 1.63398,0.53871 0.794558,-0.56054 1.268317,-1.50709 1.686461,-2.39563 0.134457,-0.318 0.246214,-0.64805 0.319787,-0.98867"
       style="fill:#000000;fill-rule:nonzero;stroke:none;stroke-width:1.66908" />
  </g>
</svg>
