<?xml version="1.0" encoding="UTF-8" standalone="no"?>
<!-- Created with Inkscape (http://www.inkscape.org/) -->

<svg
   width="5mm"
   height="10mm"
   viewBox="0 0 5.0000001 9.9999994"
   version="1.1"
   id="svg1681"
   inkscape:version="1.2.1 (9c6d41e410, 2022-07-14)"
   sodipodi:docname="at_symbol_23.svg"
   inkscape:export-filename="..\..\..\..\Downloads\lower a diff canvas resize 3.0.png"
   inkscape:export-xdpi="96"
   inkscape:export-ydpi="96"
   xmlns:inkscape="http://www.inkscape.org/namespaces/inkscape"
   xmlns:sodipodi="http://sodipodi.sourceforge.net/DTD/sodipodi-0.dtd"
   xmlns="http://www.w3.org/2000/svg"
   xmlns:svg="http://www.w3.org/2000/svg"
   xmlns:rdf="http://www.w3.org/1999/02/22-rdf-syntax-ns#"
   xmlns:cc="http://creativecommons.org/ns#"
   xmlns:dc="http://purl.org/dc/elements/1.1/">
  <defs
     id="defs1675">
    <inkscape:path-effect
       effect="powerstroke"
       id="path-effect156"
       is_visible="true"
       lpeversion="1"
       offset_points="2.9533361,0.13677236 | 22.776934,0.15861152"
       not_jump="true"
       sort_points="true"
       interpolator_type="CentripetalCatmullRom"
       interpolator_beta="0.75"
       start_linecap_type="round"
       linejoin_type="spiro"
       miter_limit="4"
       scale_width="1"
       end_linecap_type="round" />
    <inkscape:path-effect
       effect="simplify"
       id="path-effect154"
       is_visible="true"
       lpeversion="1"
       steps="1"
       threshold="0.0035951417"
       smooth_angles="0"
       helper_size="0"
       simplify_individual_paths="false"
       simplify_just_coalesce="false"
       step="1" />
    <inkscape:path-effect
       effect="powerstroke"
       id="path-effect153"
       is_visible="true"
       lpeversion="1"
       offset_points="4.7209899,0.15016988 | 6.5245441,0.11973277 | 8.4929911,0.13605996 | 11.003751,0.10904954 | 21.842826,0.17254419"
       not_jump="true"
       sort_points="true"
       interpolator_type="CentripetalCatmullRom"
       interpolator_beta="0.75"
       start_linecap_type="round"
       linejoin_type="spiro"
       miter_limit="4"
       scale_width="1"
       end_linecap_type="round" />
    <inkscape:path-effect
       effect="simplify"
       id="path-effect151"
       is_visible="true"
       lpeversion="1"
       steps="1"
       threshold="0.0035951417"
       smooth_angles="0"
       helper_size="0"
       simplify_individual_paths="false"
       simplify_just_coalesce="false"
       step="1" />
    <inkscape:path-effect
       effect="powerstroke"
       id="path-effect431"
       is_visible="true"
       lpeversion="1"
       offset_points="3.6217867,0.13820622 | 5.1318942,0.16124059"
       not_jump="true"
       sort_points="true"
       interpolator_type="CentripetalCatmullRom"
       interpolator_beta="0.75"
       start_linecap_type="round"
       linejoin_type="spiro"
       miter_limit="4"
       scale_width="1"
       end_linecap_type="round" />
    <inkscape:path-effect
       effect="simplify"
       id="path-effect429"
       is_visible="true"
       lpeversion="1"
       steps="1"
       threshold="0.0035951417"
       smooth_angles="0"
       helper_size="0"
       simplify_individual_paths="false"
       simplify_just_coalesce="false"
       step="1" />
    <inkscape:path-effect
       effect="powerstroke"
       id="path-effect502"
       is_visible="true"
       lpeversion="1"
       offset_points="3.0091841,0.21607495 | 7.3602657,0.17554228 | 9.4159651,0.20236537"
       not_jump="true"
       sort_points="true"
       interpolator_type="CentripetalCatmullRom"
       interpolator_beta="0.75"
       start_linecap_type="round"
       linejoin_type="spiro"
       miter_limit="4"
       scale_width="1"
       end_linecap_type="round" />
    <inkscape:path-effect
       effect="simplify"
       id="path-effect500"
       is_visible="true"
       lpeversion="1"
       steps="1"
       threshold="0.0035951417"
       smooth_angles="0"
       helper_size="0"
       simplify_individual_paths="false"
       simplify_just_coalesce="false"
       step="1" />
    <inkscape:path-effect
       effect="powerstroke"
       id="path-effect241"
       is_visible="true"
       lpeversion="1"
       offset_points="2.6879454,0.34086734"
       not_jump="true"
       sort_points="true"
       interpolator_type="CentripetalCatmullRom"
       interpolator_beta="0.75"
       start_linecap_type="round"
       linejoin_type="spiro"
       miter_limit="4"
       scale_width="1"
       end_linecap_type="round" />
    <inkscape:path-effect
       effect="simplify"
       id="path-effect239"
       is_visible="true"
       lpeversion="1"
       steps="1"
       threshold="0.0028332064"
       smooth_angles="0"
       helper_size="0"
       simplify_individual_paths="false"
       simplify_just_coalesce="false"
       step="1" />
    <inkscape:path-effect
       effect="powerstroke"
       id="path-effect234"
       is_visible="true"
       lpeversion="1"
       offset_points="2.13563,0.075169555"
       not_jump="true"
       sort_points="true"
       interpolator_type="CentripetalCatmullRom"
       interpolator_beta="0.75"
       start_linecap_type="round"
       linejoin_type="spiro"
       miter_limit="4"
       scale_width="1"
       end_linecap_type="round" />
    <inkscape:path-effect
       effect="simplify"
       id="path-effect232"
       is_visible="true"
       lpeversion="1"
       steps="1"
       threshold="0.0028332064"
       smooth_angles="0"
       helper_size="0"
       simplify_individual_paths="false"
       simplify_just_coalesce="false"
       step="1" />
    <inkscape:path-effect
       effect="powerstroke"
       id="path-effect227"
       is_visible="true"
       lpeversion="1"
       offset_points="2.1868266,0.075169555"
       not_jump="true"
       sort_points="true"
       interpolator_type="CentripetalCatmullRom"
       interpolator_beta="0.75"
       start_linecap_type="round"
       linejoin_type="spiro"
       miter_limit="4"
       scale_width="1"
       end_linecap_type="round" />
    <inkscape:path-effect
       effect="simplify"
       id="path-effect225"
       is_visible="true"
       lpeversion="1"
       steps="1"
       threshold="0.0028332064"
       smooth_angles="0"
       helper_size="0"
       simplify_individual_paths="false"
       simplify_just_coalesce="false"
       step="1" />
    <inkscape:path-effect
       effect="powerstroke"
       id="path-effect166"
       is_visible="true"
       lpeversion="1"
       offset_points="1.9637935,0.075169555"
       not_jump="true"
       sort_points="true"
       interpolator_type="CentripetalCatmullRom"
       interpolator_beta="0.75"
       start_linecap_type="round"
       linejoin_type="spiro"
       miter_limit="4"
       scale_width="1"
       end_linecap_type="round" />
    <inkscape:path-effect
       effect="simplify"
       id="path-effect164"
       is_visible="true"
       lpeversion="1"
       steps="1"
       threshold="0.0028332064"
       smooth_angles="0"
       helper_size="0"
       simplify_individual_paths="false"
       simplify_just_coalesce="false"
       step="1" />
    <inkscape:path-effect
       effect="powerstroke"
       id="path-effect159"
       is_visible="true"
       lpeversion="1"
       offset_points="2.2611036,0.075169555"
       not_jump="true"
       sort_points="true"
       interpolator_type="CentripetalCatmullRom"
       interpolator_beta="0.75"
       start_linecap_type="round"
       linejoin_type="spiro"
       miter_limit="4"
       scale_width="1"
       end_linecap_type="round" />
    <inkscape:path-effect
       effect="simplify"
       id="path-effect157"
       is_visible="true"
       lpeversion="1"
       steps="1"
       threshold="0.0028332064"
       smooth_angles="0"
       helper_size="0"
       simplify_individual_paths="false"
       simplify_just_coalesce="false"
       step="1" />
    <inkscape:path-effect
       effect="powerstroke"
       id="path-effect152"
       is_visible="true"
       lpeversion="1"
       offset_points="2.826981,0.075169555"
       not_jump="true"
       sort_points="true"
       interpolator_type="CentripetalCatmullRom"
       interpolator_beta="0.75"
       start_linecap_type="round"
       linejoin_type="spiro"
       miter_limit="4"
       scale_width="1"
       end_linecap_type="round" />
    <inkscape:path-effect
       effect="simplify"
       id="path-effect150"
       is_visible="true"
       lpeversion="1"
       steps="1"
       threshold="0.0028332064"
       smooth_angles="0"
       helper_size="0"
       simplify_individual_paths="false"
       simplify_just_coalesce="false"
       step="1" />
    <inkscape:path-effect
       effect="powerstroke"
       id="path-effect145"
       is_visible="true"
       lpeversion="1"
       offset_points="3.8374447,0.075169555"
       not_jump="true"
       sort_points="true"
       interpolator_type="CentripetalCatmullRom"
       interpolator_beta="0.75"
       start_linecap_type="round"
       linejoin_type="spiro"
       miter_limit="4"
       scale_width="1"
       end_linecap_type="round" />
    <inkscape:path-effect
       effect="simplify"
       id="path-effect143"
       is_visible="true"
       lpeversion="1"
       steps="1"
       threshold="0.0028332064"
       smooth_angles="0"
       helper_size="0"
       simplify_individual_paths="false"
       simplify_just_coalesce="false"
       step="1" />
    <inkscape:path-effect
       effect="powerstroke"
       id="path-effect138"
       is_visible="true"
       lpeversion="1"
       offset_points="2.6880907,0.075169555"
       not_jump="true"
       sort_points="true"
       interpolator_type="CentripetalCatmullRom"
       interpolator_beta="0.75"
       start_linecap_type="round"
       linejoin_type="spiro"
       miter_limit="4"
       scale_width="1"
       end_linecap_type="round" />
    <inkscape:path-effect
       effect="simplify"
       id="path-effect136"
       is_visible="true"
       lpeversion="1"
       steps="1"
       threshold="0.0028332064"
       smooth_angles="0"
       helper_size="0"
       simplify_individual_paths="false"
       simplify_just_coalesce="false"
       step="1" />
    <inkscape:path-effect
       effect="powerstroke"
       id="path-effect131"
       is_visible="true"
       lpeversion="1"
       offset_points="1.9940581,0.075169555"
       not_jump="true"
       sort_points="true"
       interpolator_type="CentripetalCatmullRom"
       interpolator_beta="0.75"
       start_linecap_type="round"
       linejoin_type="spiro"
       miter_limit="4"
       scale_width="1"
       end_linecap_type="round" />
    <inkscape:path-effect
       effect="simplify"
       id="path-effect129"
       is_visible="true"
       lpeversion="1"
       steps="1"
       threshold="0.0028332064"
       smooth_angles="0"
       helper_size="0"
       simplify_individual_paths="false"
       simplify_just_coalesce="false"
       step="1" />
  </defs>
  <sodipodi:namedview
     id="base"
     pagecolor="#ffffff"
     bordercolor="#666666"
     borderopacity="1.0"
     inkscape:pageopacity="0.0"
     inkscape:pageshadow="2"
     inkscape:zoom="7.919596"
     inkscape:cx="-5.1770318"
     inkscape:cy="20.834396"
     inkscape:document-units="mm"
     inkscape:current-layer="layer1"
     showgrid="false"
     fit-margin-top="0"
     fit-margin-left="0"
     fit-margin-right="0"
     fit-margin-bottom="0"
     inkscape:window-width="1920"
     inkscape:window-height="974"
     inkscape:window-x="-11"
     inkscape:window-y="2889"
     inkscape:window-maximized="1"
     showguides="true"
     inkscape:guide-bbox="true"
     inkscape:snap-bbox="true"
     inkscape:bbox-nodes="true"
     inkscape:snap-nodes="false"
     inkscape:snap-others="false"
     inkscape:snap-page="true"
     inkscape:snap-grids="false"
     inkscape:snap-to-guides="false"
     inkscape:snap-global="false"
     inkscape:pagecheckerboard="0"
     inkscape:showpageshadow="2"
     inkscape:deskcolor="#d1d1d1">
    <sodipodi:guide
       position="-6.1806075,9.4988692"
       orientation="0,1"
       id="guide816"
       inkscape:locked="false" />
    <sodipodi:guide
       position="-4.4101636,10.646923"
       orientation="0,1"
       id="guide818"
       inkscape:locked="false" />
    <sodipodi:guide
       position="2.7595724,11.09577"
       orientation="1,0"
       id="guide820"
       inkscape:locked="false" />
    <sodipodi:guide
       position="3.6572659,10.942217"
       orientation="1,0"
       id="guide822"
       inkscape:locked="false" />
    <sodipodi:guide
       position="-0.051625511,9.7492299"
       orientation="1,0"
       id="guide1853"
       inkscape:locked="false" />
    <sodipodi:guide
       position="-2.3720169,3.0175835"
       orientation="0,1"
       id="guide1855"
       inkscape:locked="false" />
  </sodipodi:namedview>
  <metadata
     id="metadata1678">
    <rdf:RDF>
      <cc:Work
         rdf:about="">
        <dc:format>image/svg+xml</dc:format>
        <dc:type
           rdf:resource="http://purl.org/dc/dcmitype/StillImage" />
      </cc:Work>
    </rdf:RDF>
  </metadata>
  <g
     inkscape:label="Layer 1"
     inkscape:groupmode="layer"
     id="layer1"
     transform="translate(17.028496,-147.22856)">
    <path
       d="m -13.178826,148.85345 c -0.196246,-0.0412 -0.508698,-0.0959 -0.844317,-0.0892 -0.25035,0.005 -0.550356,0.0443 -0.848411,0.17607 -0.224586,0.0975 -0.439447,0.26334 -0.627791,0.49895 -0.278945,0.3023 -0.524141,0.68523 -0.68293,1.11894 -0.133678,0.36513 -0.206984,0.76979 -0.182709,1.18783 0.0024,0.0414 0.0058,0.0832 0.01021,0.12541 0.01067,0.0665 0.01784,0.13949 0.03357,0.22465 0.01313,0.0711 0.03467,0.15982 0.08094,0.24394 0.0028,0.005 0.0059,0.01 0.0093,0.0146 0.102199,0.14042 0.246167,0.24688 0.414903,0.31067 0.154758,0.0585 0.330765,0.0809 0.506239,0.0576 0.225909,-0.0269 0.448514,-0.10348 0.654824,-0.22209 0.195451,-0.11237 0.375578,-0.26218 0.527544,-0.44005 0.288789,-0.30135 0.521317,-0.66691 0.689801,-1.06983 0.158082,-0.37804 0.259,-0.78734 0.300657,-1.20565 0.04865,-0.0839 0.07808,-0.17612 0.09016,-0.27013 0.01337,-0.10407 0.0056,-0.21116 -0.02152,-0.3131 -0.02673,-0.10052 -0.07276,-0.19775 -0.137763,-0.28234 -0.06431,-0.0837 -0.14784,-0.15572 -0.249581,-0.20447 -0.05843,-0.0281 -0.11986,-0.0395 -0.180046,-0.0367 -0.05902,0.003 -0.114775,0.019 -0.164477,0.0437 -0.04914,0.0245 -0.09346,0.0578 -0.130906,0.0968 -0.03538,0.0368 -0.0657,0.0797 -0.08824,0.12682 -0.03289,0.0576 -0.05615,0.11746 -0.07218,0.17789 -0.01639,0.0618 -0.02518,0.12394 -0.02918,0.18484 -0.0079,0.11947 0.0025,0.23891 0.01275,0.34421 0.04227,0.31669 0.158683,0.62585 0.340597,0.89078 0.180303,0.26257 0.426916,0.48424 0.730571,0.61708 0.0938,0.0366 0.185007,0.0444 0.269881,0.0382 0.08437,-0.006 0.165762,-0.0266 0.237995,-0.0522 0.08898,-0.0353 0.161285,-0.083 0.223039,-0.13979 0.06145,-0.0565 0.111905,-0.12154 0.153409,-0.18982 0.08243,-0.1356 0.13247,-0.28886 0.163454,-0.42794 0.04679,-0.20091 0.06352,-0.40373 0.0718,-0.59988 0.0083,-0.19738 0.0084,-0.39021 0.01961,-0.57597 -0.0013,-0.23499 -0.03621,-0.46579 -0.110838,-0.68301 -0.0752,-0.2189 -0.191134,-0.42516 -0.354746,-0.59724 -0.127147,-0.13691 -0.294967,-0.23108 -0.472358,-0.2746 -0.179694,-0.0441 -0.372884,-0.0372 -0.550613,0.032 -0.748826,0.25499 -1.428167,0.68863 -1.971831,1.23482 -0.282976,0.32143 -0.478933,0.68203 -0.620097,1.05465 -0.144224,0.38069 -0.233146,0.77904 -0.290987,1.16213 -0.05772,0.39965 -0.101427,0.78435 -0.118221,1.16707 3.17e-4,0.24647 0.0075,0.49078 0.04493,0.731 0.03911,0.2508 0.11074,0.49293 0.238239,0.71491 0.08611,0.15297 0.204544,0.27793 0.335526,0.37331 0.139656,0.10169 0.295122,0.17109 0.450853,0.2102 0.219566,0.0654 0.443631,0.0563 0.641578,0.0103 0.219216,-0.0509 0.415914,-0.14869 0.575408,-0.25731 0.3129,-0.20962 0.567771,-0.47116 0.745599,-0.66705 0.06474,-0.0713 0.126987,-0.1427 0.185902,-0.21161 0.726983,-0.94479 1.159227,-1.87793 1.364985,-2.75235 7.67e-4,-0.003 0.0014,-0.007 0.002,-0.01 0.07084,-0.41804 0.0461,-0.97414 0.04364,-1.10499 a 0.15861152,0.15861152 90 0 0 -0.317166,0.006 c 0.0028,0.15062 0.02462,0.66112 -0.03891,1.04098 -0.19499,0.82497 -0.605616,1.71574 -1.301031,2.62037 -0.05238,0.061 -0.112422,0.12997 -0.174377,0.19834 -0.172372,0.19022 -0.406429,0.42934 -0.687734,0.61835 -0.134742,0.0921 -0.29574,0.17145 -0.469791,0.21215 -0.156618,0.0366 -0.323966,0.0418 -0.487337,-0.006 -0.125599,-0.0314 -0.244009,-0.0841 -0.349522,-0.16053 -0.09885,-0.0716 -0.185682,-0.16363 -0.248431,-0.27445 -0.104483,-0.18127 -0.166832,-0.38439 -0.202155,-0.60855 -0.03405,-0.2161 -0.04161,-0.44125 -0.04245,-0.67662 0.01531,-0.36162 0.05681,-0.73535 0.112788,-1.12857 0.0552,-0.36812 0.13939,-0.744 0.273261,-1.09844 0.130872,-0.34651 0.309485,-0.67333 0.55639,-0.95474 0.504502,-0.5075 1.143513,-0.91625 1.852915,-1.15879 0.120784,-0.0472 0.250114,-0.0537 0.375095,-0.0233 0.123612,0.03 0.238831,0.095 0.325205,0.18753 0.131073,0.13734 0.226837,0.30437 0.290586,0.48877 0.06335,0.18324 0.09429,0.38153 0.096,0.5779 -0.01123,0.18777 -0.01082,0.38236 -0.0184,0.57141 -0.0076,0.18916 -0.02293,0.37077 -0.06353,0.54679 -0.02682,0.12212 -0.06725,0.24185 -0.126918,0.34069 -0.02957,0.049 -0.06309,0.0915 -0.100802,0.12644 -0.03751,0.0347 -0.07966,0.0624 -0.127657,0.0816 -0.04881,0.0176 -0.104089,0.0311 -0.156486,0.0353 -0.05258,0.004 -0.09856,-0.001 -0.137128,-0.0159 -0.241687,-0.10548 -0.448261,-0.2882 -0.602618,-0.51233 -0.155958,-0.22646 -0.256661,-0.49241 -0.29284,-0.76015 -0.01007,-0.10072 -0.01834,-0.19894 -0.01255,-0.29247 0.0029,-0.0464 0.0092,-0.0898 0.01971,-0.13017 0.01059,-0.0405 0.02546,-0.0781 0.04557,-0.11286 0.0024,-0.004 0.0046,-0.008 0.0065,-0.0125 0.0087,-0.0192 0.02143,-0.0382 0.03736,-0.055 0.01608,-0.0169 0.03418,-0.0303 0.05237,-0.0396 0.01831,-0.009 0.03551,-0.0137 0.05059,-0.0145 0.01472,-7.9e-4 0.02924,0.002 0.0441,0.009 0.05805,0.0276 0.107567,0.0693 0.147742,0.12131 0.04081,0.0529 0.07117,0.11564 0.08913,0.18255 0.01821,0.0678 0.02319,0.13809 0.0148,0.20461 -0.0085,0.0674 -0.03051,0.12974 -0.06519,0.18299 -0.0063,0.01 -0.01229,0.0195 -0.01608,0.0303 -0.0038,0.0108 -0.0052,0.0223 -0.0062,0.0338 -0.03671,0.40292 -0.131894,0.79593 -0.282241,1.15637 -0.156061,0.37415 -0.370158,0.71023 -0.638283,0.99081 -0.136829,0.16034 -0.292229,0.28972 -0.459297,0.38613 -0.176157,0.10166 -0.363041,0.16555 -0.550914,0.18823 -0.131185,0.0177 -0.261176,0.001 -0.37405,-0.0411 -0.119282,-0.0448 -0.216453,-0.11697 -0.284753,-0.20744 -0.02305,-0.0442 -0.03729,-0.0964 -0.04808,-0.15369 -0.01301,-0.0691 -0.02071,-0.14223 -0.03219,-0.21108 -0.0029,-0.0299 -0.006,-0.0675 -0.0081,-0.10467 -0.022,-0.37604 0.04369,-0.74334 0.166127,-1.07805 0.145495,-0.39774 0.370881,-0.75018 0.633382,-1.03519 0.170284,-0.21263 0.350698,-0.34864 0.530335,-0.42647 0.255599,-0.11292 0.516984,-0.14844 0.744354,-0.15292 0.305162,-0.006 0.594191,0.0441 0.78268,0.0836 a 0.13677236,0.13677236 90 0 0 0.0562,-0.2677 z"
       id="path-1"
       inkscape:path-effect="#path-effect154;#path-effect156"
       inkscape:original-d="m -13.206925,148.9873 c -0.745529,-0.15992 -1.639728,-0.15322 -2.154265,0.50372 -0.677989,0.70781 -1.058644,1.79739 -0.780843,2.75265 0.465426,0.65467 1.437361,0.27678 1.866272,-0.22998 0.605838,-0.61294 0.92227,-1.43147 1.001858,-2.27423 0.362119,-0.56988 -0.433036,-1.40349 -0.687389,-0.55926 -0.113871,0.73707 0.325582,1.59788 1.031816,1.86722 0.881873,0.10019 0.866476,-1.06456 0.87282,-1.67412 0.08275,-0.69529 -0.334851,-1.75225 -1.187957,-1.57011 -0.740409,0.23352 -1.435662,0.66497 -1.987107,1.20909 -0.778015,0.87443 -0.910965,2.09971 -1.000063,3.2192 -0.0098,0.70999 0.05359,1.65961 0.853939,1.92288 0.842711,0.31142 1.552731,-0.4358 2.058807,-1.00716 0.621462,-0.79694 1.120712,-1.72129 1.357133,-2.70618 0.06354,-0.3609 0.05146,-0.72798 0.04461,-1.09236"
       style="fill:#000000;fill-rule:nonzero;stroke:none;stroke-width:1.26061" />
  </g>
</svg>
