<?xml version="1.0" encoding="UTF-8" standalone="no"?>
<!-- Created with Inkscape (http://www.inkscape.org/) -->

<svg
   width="5mm"
   height="10mm"
   viewBox="0 0 5.0000001 9.9999994"
   version="1.1"
   id="svg1681"
   inkscape:version="1.2.1 (9c6d41e410, 2022-07-14)"
   sodipodi:docname="at_symbol_10.svg"
   inkscape:export-filename="..\..\..\..\Downloads\lower a diff canvas resize 3.0.png"
   inkscape:export-xdpi="96"
   inkscape:export-ydpi="96"
   xmlns:inkscape="http://www.inkscape.org/namespaces/inkscape"
   xmlns:sodipodi="http://sodipodi.sourceforge.net/DTD/sodipodi-0.dtd"
   xmlns="http://www.w3.org/2000/svg"
   xmlns:svg="http://www.w3.org/2000/svg"
   xmlns:rdf="http://www.w3.org/1999/02/22-rdf-syntax-ns#"
   xmlns:cc="http://creativecommons.org/ns#"
   xmlns:dc="http://purl.org/dc/elements/1.1/">
  <defs
     id="defs1675">
    <inkscape:path-effect
       effect="powerstroke"
       id="path-effect169"
       is_visible="true"
       lpeversion="1"
       offset_points="3.5771107,0.15043594 | 6.4399547,0.11391851 | 6.7921858,0.12880333 | 8.8884855,0.10220912 | 18.099159,0.15619141"
       not_jump="true"
       sort_points="true"
       interpolator_type="CentripetalCatmullRom"
       interpolator_beta="0.75"
       start_linecap_type="round"
       linejoin_type="spiro"
       miter_limit="4"
       scale_width="1"
       end_linecap_type="round" />
    <inkscape:path-effect
       effect="simplify"
       id="path-effect167"
       is_visible="true"
       lpeversion="1"
       steps="1"
       threshold="0.0035951417"
       smooth_angles="0"
       helper_size="0"
       simplify_individual_paths="false"
       simplify_just_coalesce="false"
       step="1" />
    <inkscape:path-effect
       effect="powerstroke"
       id="path-effect162"
       is_visible="true"
       lpeversion="1"
       offset_points="4.0861261,0.093815126 | 6.8851331,0.066360621 | 7.9298877,0.077078155 | 16.275357,0.098366408"
       not_jump="true"
       sort_points="true"
       interpolator_type="CentripetalCatmullRom"
       interpolator_beta="0.75"
       start_linecap_type="round"
       linejoin_type="spiro"
       miter_limit="4"
       scale_width="1"
       end_linecap_type="round" />
    <inkscape:path-effect
       effect="simplify"
       id="path-effect160"
       is_visible="true"
       lpeversion="1"
       steps="1"
       threshold="0.0035951417"
       smooth_angles="0"
       helper_size="0"
       simplify_individual_paths="false"
       simplify_just_coalesce="false"
       step="1" />
    <inkscape:path-effect
       effect="powerstroke"
       id="path-effect155"
       is_visible="true"
       lpeversion="1"
       offset_points="3.2697077,0.12171008 | 5.2007255,0.091172447 | 7.3621484,0.1077626"
       not_jump="true"
       sort_points="true"
       interpolator_type="CentripetalCatmullRom"
       interpolator_beta="0.75"
       start_linecap_type="round"
       linejoin_type="spiro"
       miter_limit="4"
       scale_width="1"
       end_linecap_type="round" />
    <inkscape:path-effect
       effect="simplify"
       id="path-effect153"
       is_visible="true"
       lpeversion="1"
       steps="1"
       threshold="0.0035951417"
       smooth_angles="0"
       helper_size="0"
       simplify_individual_paths="false"
       simplify_just_coalesce="false"
       step="1" />
    <inkscape:path-effect
       effect="powerstroke"
       id="path-effect520"
       is_visible="true"
       lpeversion="1"
       offset_points="2.7104209,0.13651777 | 6.1891906,0.10208306 | 6.7050343,0.12552797 | 13.23432,0.15092662 | 19.757333,0.17315044"
       not_jump="true"
       sort_points="true"
       interpolator_type="CentripetalCatmullRom"
       interpolator_beta="0.75"
       start_linecap_type="round"
       linejoin_type="spiro"
       miter_limit="4"
       scale_width="1"
       end_linecap_type="round" />
    <inkscape:path-effect
       effect="simplify"
       id="path-effect518"
       is_visible="true"
       lpeversion="1"
       steps="1"
       threshold="0.0035951417"
       smooth_angles="0"
       helper_size="0"
       simplify_individual_paths="false"
       simplify_just_coalesce="false"
       step="1" />
    <inkscape:path-effect
       effect="powerstroke"
       id="path-effect513"
       is_visible="true"
       lpeversion="1"
       offset_points="3.4665905,0.085593456 | 5.097968,0.077665417 | 18.223138,0.10717534"
       not_jump="true"
       sort_points="true"
       interpolator_type="CentripetalCatmullRom"
       interpolator_beta="0.75"
       start_linecap_type="round"
       linejoin_type="spiro"
       miter_limit="4"
       scale_width="1"
       end_linecap_type="round" />
    <inkscape:path-effect
       effect="simplify"
       id="path-effect511"
       is_visible="true"
       lpeversion="1"
       steps="1"
       threshold="0.0035951417"
       smooth_angles="0"
       helper_size="0"
       simplify_individual_paths="false"
       simplify_just_coalesce="false"
       step="1" />
    <inkscape:path-effect
       effect="powerstroke"
       id="path-effect502"
       is_visible="true"
       lpeversion="1"
       offset_points="3.0091841,0.21607495 | 7.3602657,0.17554228 | 9.4159651,0.20236537"
       not_jump="true"
       sort_points="true"
       interpolator_type="CentripetalCatmullRom"
       interpolator_beta="0.75"
       start_linecap_type="round"
       linejoin_type="spiro"
       miter_limit="4"
       scale_width="1"
       end_linecap_type="round" />
    <inkscape:path-effect
       effect="simplify"
       id="path-effect500"
       is_visible="true"
       lpeversion="1"
       steps="1"
       threshold="0.0035951417"
       smooth_angles="0"
       helper_size="0"
       simplify_individual_paths="false"
       simplify_just_coalesce="false"
       step="1" />
    <inkscape:path-effect
       effect="powerstroke"
       id="path-effect241"
       is_visible="true"
       lpeversion="1"
       offset_points="2.6879454,0.34086734"
       not_jump="true"
       sort_points="true"
       interpolator_type="CentripetalCatmullRom"
       interpolator_beta="0.75"
       start_linecap_type="round"
       linejoin_type="spiro"
       miter_limit="4"
       scale_width="1"
       end_linecap_type="round" />
    <inkscape:path-effect
       effect="simplify"
       id="path-effect239"
       is_visible="true"
       lpeversion="1"
       steps="1"
       threshold="0.0028332064"
       smooth_angles="0"
       helper_size="0"
       simplify_individual_paths="false"
       simplify_just_coalesce="false"
       step="1" />
    <inkscape:path-effect
       effect="powerstroke"
       id="path-effect234"
       is_visible="true"
       lpeversion="1"
       offset_points="2.13563,0.075169555"
       not_jump="true"
       sort_points="true"
       interpolator_type="CentripetalCatmullRom"
       interpolator_beta="0.75"
       start_linecap_type="round"
       linejoin_type="spiro"
       miter_limit="4"
       scale_width="1"
       end_linecap_type="round" />
    <inkscape:path-effect
       effect="simplify"
       id="path-effect232"
       is_visible="true"
       lpeversion="1"
       steps="1"
       threshold="0.0028332064"
       smooth_angles="0"
       helper_size="0"
       simplify_individual_paths="false"
       simplify_just_coalesce="false"
       step="1" />
    <inkscape:path-effect
       effect="powerstroke"
       id="path-effect227"
       is_visible="true"
       lpeversion="1"
       offset_points="2.1868266,0.075169555"
       not_jump="true"
       sort_points="true"
       interpolator_type="CentripetalCatmullRom"
       interpolator_beta="0.75"
       start_linecap_type="round"
       linejoin_type="spiro"
       miter_limit="4"
       scale_width="1"
       end_linecap_type="round" />
    <inkscape:path-effect
       effect="simplify"
       id="path-effect225"
       is_visible="true"
       lpeversion="1"
       steps="1"
       threshold="0.0028332064"
       smooth_angles="0"
       helper_size="0"
       simplify_individual_paths="false"
       simplify_just_coalesce="false"
       step="1" />
    <inkscape:path-effect
       effect="powerstroke"
       id="path-effect166"
       is_visible="true"
       lpeversion="1"
       offset_points="1.9637935,0.075169555"
       not_jump="true"
       sort_points="true"
       interpolator_type="CentripetalCatmullRom"
       interpolator_beta="0.75"
       start_linecap_type="round"
       linejoin_type="spiro"
       miter_limit="4"
       scale_width="1"
       end_linecap_type="round" />
    <inkscape:path-effect
       effect="simplify"
       id="path-effect164"
       is_visible="true"
       lpeversion="1"
       steps="1"
       threshold="0.0028332064"
       smooth_angles="0"
       helper_size="0"
       simplify_individual_paths="false"
       simplify_just_coalesce="false"
       step="1" />
    <inkscape:path-effect
       effect="powerstroke"
       id="path-effect159"
       is_visible="true"
       lpeversion="1"
       offset_points="2.2611036,0.075169555"
       not_jump="true"
       sort_points="true"
       interpolator_type="CentripetalCatmullRom"
       interpolator_beta="0.75"
       start_linecap_type="round"
       linejoin_type="spiro"
       miter_limit="4"
       scale_width="1"
       end_linecap_type="round" />
    <inkscape:path-effect
       effect="simplify"
       id="path-effect157"
       is_visible="true"
       lpeversion="1"
       steps="1"
       threshold="0.0028332064"
       smooth_angles="0"
       helper_size="0"
       simplify_individual_paths="false"
       simplify_just_coalesce="false"
       step="1" />
    <inkscape:path-effect
       effect="powerstroke"
       id="path-effect152"
       is_visible="true"
       lpeversion="1"
       offset_points="2.826981,0.075169555"
       not_jump="true"
       sort_points="true"
       interpolator_type="CentripetalCatmullRom"
       interpolator_beta="0.75"
       start_linecap_type="round"
       linejoin_type="spiro"
       miter_limit="4"
       scale_width="1"
       end_linecap_type="round" />
    <inkscape:path-effect
       effect="simplify"
       id="path-effect150"
       is_visible="true"
       lpeversion="1"
       steps="1"
       threshold="0.0028332064"
       smooth_angles="0"
       helper_size="0"
       simplify_individual_paths="false"
       simplify_just_coalesce="false"
       step="1" />
    <inkscape:path-effect
       effect="powerstroke"
       id="path-effect145"
       is_visible="true"
       lpeversion="1"
       offset_points="3.8374447,0.075169555"
       not_jump="true"
       sort_points="true"
       interpolator_type="CentripetalCatmullRom"
       interpolator_beta="0.75"
       start_linecap_type="round"
       linejoin_type="spiro"
       miter_limit="4"
       scale_width="1"
       end_linecap_type="round" />
    <inkscape:path-effect
       effect="simplify"
       id="path-effect143"
       is_visible="true"
       lpeversion="1"
       steps="1"
       threshold="0.0028332064"
       smooth_angles="0"
       helper_size="0"
       simplify_individual_paths="false"
       simplify_just_coalesce="false"
       step="1" />
    <inkscape:path-effect
       effect="powerstroke"
       id="path-effect138"
       is_visible="true"
       lpeversion="1"
       offset_points="2.6880907,0.075169555"
       not_jump="true"
       sort_points="true"
       interpolator_type="CentripetalCatmullRom"
       interpolator_beta="0.75"
       start_linecap_type="round"
       linejoin_type="spiro"
       miter_limit="4"
       scale_width="1"
       end_linecap_type="round" />
    <inkscape:path-effect
       effect="simplify"
       id="path-effect136"
       is_visible="true"
       lpeversion="1"
       steps="1"
       threshold="0.0028332064"
       smooth_angles="0"
       helper_size="0"
       simplify_individual_paths="false"
       simplify_just_coalesce="false"
       step="1" />
    <inkscape:path-effect
       effect="powerstroke"
       id="path-effect131"
       is_visible="true"
       lpeversion="1"
       offset_points="1.9940581,0.075169555"
       not_jump="true"
       sort_points="true"
       interpolator_type="CentripetalCatmullRom"
       interpolator_beta="0.75"
       start_linecap_type="round"
       linejoin_type="spiro"
       miter_limit="4"
       scale_width="1"
       end_linecap_type="round" />
    <inkscape:path-effect
       effect="simplify"
       id="path-effect129"
       is_visible="true"
       lpeversion="1"
       steps="1"
       threshold="0.0028332064"
       smooth_angles="0"
       helper_size="0"
       simplify_individual_paths="false"
       simplify_just_coalesce="false"
       step="1" />
  </defs>
  <sodipodi:namedview
     id="base"
     pagecolor="#ffffff"
     bordercolor="#666666"
     borderopacity="1.0"
     inkscape:pageopacity="0.0"
     inkscape:pageshadow="2"
     inkscape:zoom="7.919596"
     inkscape:cx="-5.1770318"
     inkscape:cy="20.960665"
     inkscape:document-units="mm"
     inkscape:current-layer="layer1"
     showgrid="false"
     fit-margin-top="0"
     fit-margin-left="0"
     fit-margin-right="0"
     fit-margin-bottom="0"
     inkscape:window-width="1920"
     inkscape:window-height="974"
     inkscape:window-x="-11"
     inkscape:window-y="2869"
     inkscape:window-maximized="1"
     showguides="true"
     inkscape:guide-bbox="true"
     inkscape:snap-bbox="true"
     inkscape:bbox-nodes="true"
     inkscape:snap-nodes="false"
     inkscape:snap-others="false"
     inkscape:snap-page="true"
     inkscape:snap-grids="false"
     inkscape:snap-to-guides="false"
     inkscape:snap-global="false"
     inkscape:pagecheckerboard="0"
     inkscape:showpageshadow="2"
     inkscape:deskcolor="#d1d1d1">
    <sodipodi:guide
       position="-6.1806075,9.4988692"
       orientation="0,1"
       id="guide816"
       inkscape:locked="false" />
    <sodipodi:guide
       position="-4.4101636,10.646923"
       orientation="0,1"
       id="guide818"
       inkscape:locked="false" />
    <sodipodi:guide
       position="2.7595724,11.09577"
       orientation="1,0"
       id="guide820"
       inkscape:locked="false" />
    <sodipodi:guide
       position="3.6572659,10.942217"
       orientation="1,0"
       id="guide822"
       inkscape:locked="false" />
    <sodipodi:guide
       position="-0.051625511,9.7492299"
       orientation="1,0"
       id="guide1853"
       inkscape:locked="false" />
    <sodipodi:guide
       position="-2.3720169,3.0175835"
       orientation="0,1"
       id="guide1855"
       inkscape:locked="false" />
  </sodipodi:namedview>
  <metadata
     id="metadata1678">
    <rdf:RDF>
      <cc:Work
         rdf:about="">
        <dc:format>image/svg+xml</dc:format>
        <dc:type
           rdf:resource="http://purl.org/dc/dcmitype/StillImage" />
      </cc:Work>
    </rdf:RDF>
  </metadata>
  <g
     inkscape:label="Layer 1"
     inkscape:groupmode="layer"
     id="layer1"
     transform="translate(17.028496,-147.22856)">
    <path
       d="m -13.197615,148.94999 c -0.06514,-0.0651 -0.152051,-0.13456 -0.265738,-0.19331 -0.08781,-0.0454 -0.189301,-0.0831 -0.303609,-0.10684 -0.189172,-0.0393 -0.411803,-0.0388 -0.633446,0.0257 -0.297766,0.0802 -0.588857,0.26427 -0.803426,0.53905 -0.193636,0.21786 -0.353686,0.47257 -0.459734,0.74686 -0.110363,0.28545 -0.159662,0.58527 -0.134504,0.88188 0.01321,0.12436 0.03792,0.23964 0.07424,0.3459 0.006,0.0176 0.01234,0.0349 0.01893,0.0519 0.03526,0.0907 0.08305,0.18269 0.147288,0.26879 0.003,0.004 0.006,0.008 0.0094,0.0118 0.06546,0.072 0.14299,0.12778 0.227513,0.16772 0.08314,0.0393 0.172192,0.0629 0.26199,0.0722 0.180417,0.0189 0.364519,-0.0192 0.518219,-0.10261 0.108049,-0.0536 0.200744,-0.12988 0.274962,-0.21123 0.08358,-0.0916 0.144448,-0.19034 0.188255,-0.27939 0.186166,-0.30059 0.28505,-0.60068 0.341205,-0.79784 0.01201,-0.0422 0.02248,-0.0811 0.0312,-0.11445 0.04395,-0.16813 0.08602,-0.34258 0.116361,-0.56365 0.01664,-0.12124 0.03048,-0.25324 0.04214,-0.40212 0.0012,-0.0159 0.0018,-0.0321 -0.0026,-0.0474 -0.0044,-0.0153 -0.0136,-0.0287 -0.02334,-0.0413 -0.01889,-0.0245 -0.04212,-0.0477 -0.07044,-0.066 -0.02634,-0.0171 -0.05678,-0.0296 -0.09045,-0.0344 -0.03148,-0.004 -0.06283,-0.002 -0.0924,0.007 -0.02757,0.009 -0.05224,0.0222 -0.07358,0.0389 -0.02021,0.0158 -0.03774,0.0345 -0.05246,0.055 -0.01408,0.0196 -0.02597,0.0412 -0.03526,0.0642 -0.01654,0.041 -0.02611,0.0895 -0.02214,0.14027 -0.01433,0.21462 -0.0018,0.46544 0.07125,0.71578 0.0085,0.0289 0.01791,0.0585 0.02851,0.0885 0.01198,0.0368 0.03086,0.0784 0.05634,0.11843 0.02338,0.0368 0.05349,0.074 0.0908,0.10597 0.03492,0.0299 0.07805,0.0567 0.128992,0.0718 0.04893,0.0145 0.103625,0.0178 0.161415,0.004 0.07185,-0.0198 0.134799,-0.0517 0.190986,-0.0941 0.05389,-0.0406 0.101004,-0.0903 0.140814,-0.14599 0.07559,-0.1057 0.126154,-0.23481 0.145465,-0.36461 0.0068,-0.0409 0.0077,-0.0818 0.0052,-0.12104 -0.0024,-0.0382 -0.0081,-0.075 -0.01455,-0.10955 -0.01328,-0.0715 -0.02719,-0.12468 -0.0323,-0.1824 -3.05e-4,-0.003 -9.33e-4,-0.007 -0.0016,-0.0102 -0.0411,-0.20763 -0.104889,-0.42456 -0.203855,-0.62674 -0.09734,-0.19884 -0.230065,-0.38615 -0.411345,-0.53537 -0.117463,-0.097 -0.256688,-0.16708 -0.404828,-0.20432 -0.147609,-0.0371 -0.304848,-0.0418 -0.457822,-0.007 -0.276646,0.0476 -0.53044,0.17141 -0.751736,0.33379 -0.223154,0.16375 -0.414836,0.36781 -0.574029,0.57841 -0.463105,0.62333 -0.768645,1.33495 -0.932585,2.04932 -0.07718,0.34786 -0.113596,0.70223 -0.09855,1.04882 0.0158,0.36404 0.08814,0.71487 0.225438,1.03935 0.08255,0.17683 0.193328,0.32826 0.321739,0.45561 0.133383,0.13228 0.286509,0.23939 0.44821,0.31886 0.169153,0.0831 0.348117,0.1363 0.527351,0.15778 0.189177,0.0227 0.377604,0.01 0.556977,-0.0385 0.04368,-0.0132 0.08165,-0.0259 0.118644,-0.0395 0.151103,-0.0553 0.29479,-0.12649 0.43119,-0.20834 0.170074,-0.10205 0.328415,-0.22037 0.474936,-0.34394 0.319747,-0.27767 0.584396,-0.59721 0.808315,-0.93369 0.231131,-0.34732 0.420458,-0.71517 0.579641,-1.07395 0.112218,-0.29371 0.203374,-0.57918 0.260933,-0.86762 0.06298,-0.31562 0.0825,-0.61949 0.04936,-0.9147 -0.0258,-0.23755 -0.100565,-0.44863 -0.19849,-0.62084 -0.132797,-0.23352 -0.301338,-0.38619 -0.451619,-0.48302 a 0.15619141,0.15619141 90 0 0 -0.169192,0.2626 c 0.11335,0.073 0.244005,0.19058 0.348353,0.37501 0.07738,0.13677 0.137651,0.30693 0.158261,0.50052 0.02859,0.25805 0.01192,0.52881 -0.04621,0.8185 -0.05327,0.26546 -0.13842,0.5331 -0.243755,0.809 -0.151134,0.33976 -0.332291,0.69079 -0.550752,1.0192 -0.211519,0.31798 -0.458014,0.61484 -0.750364,0.86917 -0.135212,0.11444 -0.279583,0.22252 -0.431617,0.31449 -0.121784,0.0737 -0.247358,0.13631 -0.377002,0.18449 -0.03172,0.0118 -0.06415,0.0229 -0.09724,0.0332 -0.134409,0.0368 -0.282837,0.0478 -0.434095,0.0303 -0.143725,-0.0166 -0.28937,-0.0588 -0.428597,-0.12638 -0.133128,-0.0646 -0.259311,-0.15194 -0.369062,-0.25959 -0.10563,-0.1036 -0.195514,-0.22555 -0.260339,-0.36211 -0.121017,-0.28161 -0.188958,-0.59632 -0.205617,-0.92955 -0.01587,-0.31753 0.01517,-0.64642 0.08508,-0.97243 0.151308,-0.67948 0.437055,-1.35661 0.870518,-1.94859 0.144817,-0.19562 0.316711,-0.38109 0.512648,-0.52792 0.193781,-0.1452 0.409495,-0.25146 0.645686,-0.29475 0.117375,-0.029 0.233855,-0.0285 0.346339,-0.003 0.112933,0.026 0.22003,0.0774 0.310605,0.14928 0.150274,0.12071 0.265541,0.27674 0.353646,0.45155 0.08923,0.17704 0.149735,0.37165 0.190336,0.56427 0.0094,0.0691 0.03012,0.14441 0.04109,0.19422 0.0066,0.0299 0.01148,0.0568 0.01397,0.0825 0.0025,0.026 0.0025,0.0499 -5.39e-4,0.0729 -0.01301,0.0993 -0.04997,0.19691 -0.103949,0.27471 -0.0281,0.0405 -0.06016,0.0748 -0.09509,0.10181 -0.03618,0.028 -0.07544,0.0483 -0.117364,0.0603 -0.01734,0.005 -0.03519,0.004 -0.05156,-9.7e-4 -0.01797,-0.005 -0.03659,-0.0154 -0.05447,-0.0305 -0.0193,-0.0163 -0.03672,-0.0371 -0.05126,-0.06 -0.01576,-0.0248 -0.02728,-0.0507 -0.03472,-0.0743 -0.0099,-0.0287 -0.01801,-0.0546 -0.0252,-0.08 -0.06366,-0.22541 -0.06661,-0.45389 -0.04361,-0.65018 3.64e-4,-0.003 4.48e-4,-0.006 2.67e-4,-0.009 -1.81e-4,-0.003 -2.65e-4,-0.006 -9.2e-5,-0.009 6.7e-4,-0.0121 0.0047,-0.0251 0.01139,-0.0361 0.0034,-0.006 0.0071,-0.0101 0.01052,-0.0132 0.0035,-0.003 0.0064,-0.005 0.0076,-0.004 0.0012,1.5e-4 3.39e-4,0.002 -0.0032,0.004 -0.004,0.002 -0.0096,0.003 -0.01566,0.003 -0.006,-2.7e-4 -0.0105,-0.002 -0.0113,-0.002 -8.67e-4,8e-5 0.0022,0.003 0.0072,0.01 l -0.0259,-0.0887 c -0.01247,0.14628 -0.02554,0.27241 -0.03986,0.3901 -0.0247,0.20312 -0.05043,0.39103 -0.08477,0.54191 -0.0073,0.032 -0.01615,0.0684 -0.0269,0.10851 -0.05086,0.18959 -0.143965,0.46708 -0.319228,0.74167 -0.0019,0.003 -0.0036,0.006 -0.0052,0.009 -0.03887,0.073 -0.09206,0.15028 -0.161568,0.21855 -0.06072,0.0596 -0.13224,0.11078 -0.214334,0.1457 -0.115238,0.0566 -0.245925,0.0781 -0.36966,0.0605 -0.06091,-0.009 -0.118255,-0.0265 -0.169467,-0.0529 -0.04887,-0.0252 -0.09198,-0.058 -0.128094,-0.0982 -0.04236,-0.0627 -0.07504,-0.13058 -0.100319,-0.19973 -0.0048,-0.0132 -0.0095,-0.0268 -0.01396,-0.0407 -0.027,-0.0839 -0.04622,-0.17737 -0.05624,-0.27892 -0.01983,-0.24263 0.02095,-0.49584 0.116584,-0.74267 0.09261,-0.23903 0.233636,-0.46384 0.405937,-0.65721 0.0024,-0.003 0.0046,-0.005 0.0068,-0.008 0.173125,-0.22396 0.407836,-0.37307 0.646615,-0.43852 0.174231,-0.0514 0.345381,-0.052 0.48978,-0.0225 0.08677,0.0177 0.162433,0.0457 0.226613,0.0787 0.08289,0.0425 0.145198,0.0924 0.191174,0.13831 a 0.15043594,0.15043594 90 0 0 0.212596,-0.2129 z"
       id="path-1"
       inkscape:path-effect="#path-effect167;#path-effect169"
       inkscape:original-d="m -13.303913,149.05644 c -0.507524,-0.49137 -1.352953,-0.29207 -1.758205,0.23076 -0.508298,0.54307 -0.811077,1.44304 -0.394043,2.11805 0.364424,0.41805 1.031518,0.20411 1.253239,-0.25366 0.364069,-0.55084 0.475432,-1.22945 0.527704,-1.87179 -0.320716,-0.29736 -0.23768,0.61597 -0.163442,0.81876 0.200069,0.72778 0.889255,0.0456 0.713227,-0.44484 -0.08194,-0.61756 -0.431347,-1.41372 -1.147809,-1.44111 -0.931259,0.0367 -1.54341,0.89731 -1.922939,1.65543 -0.471724,0.96794 -0.738864,2.14807 -0.334014,3.18374 0.301557,0.7015 1.168633,1.10408 1.883851,0.78476 1.01828,-0.44716 1.674426,-1.44509 2.114069,-2.42689 0.329391,-0.83603 0.620022,-2.11161 -0.272127,-2.71038"
       style="fill:#000000;fill-rule:nonzero;stroke:none;stroke-width:1.35179" />
  </g>
</svg>
