<?xml version="1.0" encoding="UTF-8" standalone="no"?>
<!-- Created with Inkscape (http://www.inkscape.org/) -->

<svg
   width="5mm"
   height="10mm"
   viewBox="0 0 5.0000001 9.9999994"
   version="1.1"
   id="svg1681"
   inkscape:version="1.2.1 (9c6d41e410, 2022-07-14)"
   sodipodi:docname="at_symbol_7.svg"
   inkscape:export-filename="..\..\..\..\Downloads\lower a diff canvas resize 3.0.png"
   inkscape:export-xdpi="96"
   inkscape:export-ydpi="96"
   xmlns:inkscape="http://www.inkscape.org/namespaces/inkscape"
   xmlns:sodipodi="http://sodipodi.sourceforge.net/DTD/sodipodi-0.dtd"
   xmlns="http://www.w3.org/2000/svg"
   xmlns:svg="http://www.w3.org/2000/svg"
   xmlns:rdf="http://www.w3.org/1999/02/22-rdf-syntax-ns#"
   xmlns:cc="http://creativecommons.org/ns#"
   xmlns:dc="http://purl.org/dc/elements/1.1/">
  <defs
     id="defs1675">
    <inkscape:path-effect
       effect="powerstroke"
       id="path-effect162"
       is_visible="true"
       lpeversion="1"
       offset_points="2.750415,0.1455995"
       not_jump="true"
       sort_points="true"
       interpolator_type="CentripetalCatmullRom"
       interpolator_beta="0.75"
       start_linecap_type="round"
       linejoin_type="spiro"
       miter_limit="4"
       scale_width="1"
       end_linecap_type="round" />
    <inkscape:path-effect
       effect="simplify"
       id="path-effect160"
       is_visible="true"
       lpeversion="1"
       steps="1"
       threshold="0.0035951417"
       smooth_angles="0"
       helper_size="0"
       simplify_individual_paths="false"
       simplify_just_coalesce="false"
       step="1" />
    <inkscape:path-effect
       effect="powerstroke"
       id="path-effect155"
       is_visible="true"
       lpeversion="1"
       offset_points="3.4661472,0.1380066 | 7.2546663,0.12405913 | 18.061674,0.1105521 | 21.957341,0.13477666"
       not_jump="true"
       sort_points="true"
       interpolator_type="CentripetalCatmullRom"
       interpolator_beta="0.75"
       start_linecap_type="round"
       linejoin_type="spiro"
       miter_limit="4"
       scale_width="1"
       end_linecap_type="round" />
    <inkscape:path-effect
       effect="simplify"
       id="path-effect153"
       is_visible="true"
       lpeversion="1"
       steps="1"
       threshold="0.0035951417"
       smooth_angles="0"
       helper_size="0"
       simplify_individual_paths="false"
       simplify_just_coalesce="false"
       step="1" />
    <inkscape:path-effect
       effect="powerstroke"
       id="path-effect280"
       is_visible="true"
       lpeversion="1"
       offset_points="3.3579045,0.17421953 | 18.822375,0.22347967"
       not_jump="true"
       sort_points="true"
       interpolator_type="CentripetalCatmullRom"
       interpolator_beta="0.75"
       start_linecap_type="round"
       linejoin_type="spiro"
       miter_limit="4"
       scale_width="1"
       end_linecap_type="round" />
    <inkscape:path-effect
       effect="simplify"
       id="path-effect278"
       is_visible="true"
       lpeversion="1"
       steps="1"
       threshold="0.0035951417"
       smooth_angles="0"
       helper_size="0"
       simplify_individual_paths="false"
       simplify_just_coalesce="false"
       step="1" />
    <inkscape:path-effect
       effect="powerstroke"
       id="path-effect273"
       is_visible="true"
       lpeversion="1"
       offset_points="2.7597594,0.083244408 | 16.82786,0.10893713 | 21.189661,0.094255573"
       not_jump="true"
       sort_points="true"
       interpolator_type="CentripetalCatmullRom"
       interpolator_beta="0.75"
       start_linecap_type="round"
       linejoin_type="spiro"
       miter_limit="4"
       scale_width="1"
       end_linecap_type="round" />
    <inkscape:path-effect
       effect="simplify"
       id="path-effect271"
       is_visible="true"
       lpeversion="1"
       steps="1"
       threshold="0.0035951417"
       smooth_angles="0"
       helper_size="0"
       simplify_individual_paths="false"
       simplify_just_coalesce="false"
       step="1" />
    <inkscape:path-effect
       effect="powerstroke"
       id="path-effect502"
       is_visible="true"
       lpeversion="1"
       offset_points="3.0091841,0.21607495 | 7.3602657,0.17554228 | 9.4159651,0.20236537"
       not_jump="true"
       sort_points="true"
       interpolator_type="CentripetalCatmullRom"
       interpolator_beta="0.75"
       start_linecap_type="round"
       linejoin_type="spiro"
       miter_limit="4"
       scale_width="1"
       end_linecap_type="round" />
    <inkscape:path-effect
       effect="simplify"
       id="path-effect500"
       is_visible="true"
       lpeversion="1"
       steps="1"
       threshold="0.0035951417"
       smooth_angles="0"
       helper_size="0"
       simplify_individual_paths="false"
       simplify_just_coalesce="false"
       step="1" />
    <inkscape:path-effect
       effect="powerstroke"
       id="path-effect241"
       is_visible="true"
       lpeversion="1"
       offset_points="2.6879454,0.34086734"
       not_jump="true"
       sort_points="true"
       interpolator_type="CentripetalCatmullRom"
       interpolator_beta="0.75"
       start_linecap_type="round"
       linejoin_type="spiro"
       miter_limit="4"
       scale_width="1"
       end_linecap_type="round" />
    <inkscape:path-effect
       effect="simplify"
       id="path-effect239"
       is_visible="true"
       lpeversion="1"
       steps="1"
       threshold="0.0028332064"
       smooth_angles="0"
       helper_size="0"
       simplify_individual_paths="false"
       simplify_just_coalesce="false"
       step="1" />
    <inkscape:path-effect
       effect="powerstroke"
       id="path-effect234"
       is_visible="true"
       lpeversion="1"
       offset_points="2.13563,0.075169555"
       not_jump="true"
       sort_points="true"
       interpolator_type="CentripetalCatmullRom"
       interpolator_beta="0.75"
       start_linecap_type="round"
       linejoin_type="spiro"
       miter_limit="4"
       scale_width="1"
       end_linecap_type="round" />
    <inkscape:path-effect
       effect="simplify"
       id="path-effect232"
       is_visible="true"
       lpeversion="1"
       steps="1"
       threshold="0.0028332064"
       smooth_angles="0"
       helper_size="0"
       simplify_individual_paths="false"
       simplify_just_coalesce="false"
       step="1" />
    <inkscape:path-effect
       effect="powerstroke"
       id="path-effect227"
       is_visible="true"
       lpeversion="1"
       offset_points="2.1868266,0.075169555"
       not_jump="true"
       sort_points="true"
       interpolator_type="CentripetalCatmullRom"
       interpolator_beta="0.75"
       start_linecap_type="round"
       linejoin_type="spiro"
       miter_limit="4"
       scale_width="1"
       end_linecap_type="round" />
    <inkscape:path-effect
       effect="simplify"
       id="path-effect225"
       is_visible="true"
       lpeversion="1"
       steps="1"
       threshold="0.0028332064"
       smooth_angles="0"
       helper_size="0"
       simplify_individual_paths="false"
       simplify_just_coalesce="false"
       step="1" />
    <inkscape:path-effect
       effect="powerstroke"
       id="path-effect166"
       is_visible="true"
       lpeversion="1"
       offset_points="1.9637935,0.075169555"
       not_jump="true"
       sort_points="true"
       interpolator_type="CentripetalCatmullRom"
       interpolator_beta="0.75"
       start_linecap_type="round"
       linejoin_type="spiro"
       miter_limit="4"
       scale_width="1"
       end_linecap_type="round" />
    <inkscape:path-effect
       effect="simplify"
       id="path-effect164"
       is_visible="true"
       lpeversion="1"
       steps="1"
       threshold="0.0028332064"
       smooth_angles="0"
       helper_size="0"
       simplify_individual_paths="false"
       simplify_just_coalesce="false"
       step="1" />
    <inkscape:path-effect
       effect="powerstroke"
       id="path-effect159"
       is_visible="true"
       lpeversion="1"
       offset_points="2.2611036,0.075169555"
       not_jump="true"
       sort_points="true"
       interpolator_type="CentripetalCatmullRom"
       interpolator_beta="0.75"
       start_linecap_type="round"
       linejoin_type="spiro"
       miter_limit="4"
       scale_width="1"
       end_linecap_type="round" />
    <inkscape:path-effect
       effect="simplify"
       id="path-effect157"
       is_visible="true"
       lpeversion="1"
       steps="1"
       threshold="0.0028332064"
       smooth_angles="0"
       helper_size="0"
       simplify_individual_paths="false"
       simplify_just_coalesce="false"
       step="1" />
    <inkscape:path-effect
       effect="powerstroke"
       id="path-effect152"
       is_visible="true"
       lpeversion="1"
       offset_points="2.826981,0.075169555"
       not_jump="true"
       sort_points="true"
       interpolator_type="CentripetalCatmullRom"
       interpolator_beta="0.75"
       start_linecap_type="round"
       linejoin_type="spiro"
       miter_limit="4"
       scale_width="1"
       end_linecap_type="round" />
    <inkscape:path-effect
       effect="simplify"
       id="path-effect150"
       is_visible="true"
       lpeversion="1"
       steps="1"
       threshold="0.0028332064"
       smooth_angles="0"
       helper_size="0"
       simplify_individual_paths="false"
       simplify_just_coalesce="false"
       step="1" />
    <inkscape:path-effect
       effect="powerstroke"
       id="path-effect145"
       is_visible="true"
       lpeversion="1"
       offset_points="3.8374447,0.075169555"
       not_jump="true"
       sort_points="true"
       interpolator_type="CentripetalCatmullRom"
       interpolator_beta="0.75"
       start_linecap_type="round"
       linejoin_type="spiro"
       miter_limit="4"
       scale_width="1"
       end_linecap_type="round" />
    <inkscape:path-effect
       effect="simplify"
       id="path-effect143"
       is_visible="true"
       lpeversion="1"
       steps="1"
       threshold="0.0028332064"
       smooth_angles="0"
       helper_size="0"
       simplify_individual_paths="false"
       simplify_just_coalesce="false"
       step="1" />
    <inkscape:path-effect
       effect="powerstroke"
       id="path-effect138"
       is_visible="true"
       lpeversion="1"
       offset_points="2.6880907,0.075169555"
       not_jump="true"
       sort_points="true"
       interpolator_type="CentripetalCatmullRom"
       interpolator_beta="0.75"
       start_linecap_type="round"
       linejoin_type="spiro"
       miter_limit="4"
       scale_width="1"
       end_linecap_type="round" />
    <inkscape:path-effect
       effect="simplify"
       id="path-effect136"
       is_visible="true"
       lpeversion="1"
       steps="1"
       threshold="0.0028332064"
       smooth_angles="0"
       helper_size="0"
       simplify_individual_paths="false"
       simplify_just_coalesce="false"
       step="1" />
    <inkscape:path-effect
       effect="powerstroke"
       id="path-effect131"
       is_visible="true"
       lpeversion="1"
       offset_points="1.9940581,0.075169555"
       not_jump="true"
       sort_points="true"
       interpolator_type="CentripetalCatmullRom"
       interpolator_beta="0.75"
       start_linecap_type="round"
       linejoin_type="spiro"
       miter_limit="4"
       scale_width="1"
       end_linecap_type="round" />
    <inkscape:path-effect
       effect="simplify"
       id="path-effect129"
       is_visible="true"
       lpeversion="1"
       steps="1"
       threshold="0.0028332064"
       smooth_angles="0"
       helper_size="0"
       simplify_individual_paths="false"
       simplify_just_coalesce="false"
       step="1" />
  </defs>
  <sodipodi:namedview
     id="base"
     pagecolor="#ffffff"
     bordercolor="#666666"
     borderopacity="1.0"
     inkscape:pageopacity="0.0"
     inkscape:pageshadow="2"
     inkscape:zoom="7.919596"
     inkscape:cx="-5.3033008"
     inkscape:cy="20.834396"
     inkscape:document-units="mm"
     inkscape:current-layer="layer1"
     showgrid="false"
     fit-margin-top="0"
     fit-margin-left="0"
     fit-margin-right="0"
     fit-margin-bottom="0"
     inkscape:window-width="1920"
     inkscape:window-height="974"
     inkscape:window-x="-11"
     inkscape:window-y="2869"
     inkscape:window-maximized="1"
     showguides="true"
     inkscape:guide-bbox="true"
     inkscape:snap-bbox="true"
     inkscape:bbox-nodes="true"
     inkscape:snap-nodes="false"
     inkscape:snap-others="false"
     inkscape:snap-page="true"
     inkscape:snap-grids="false"
     inkscape:snap-to-guides="false"
     inkscape:snap-global="false"
     inkscape:pagecheckerboard="0"
     inkscape:showpageshadow="2"
     inkscape:deskcolor="#d1d1d1">
    <sodipodi:guide
       position="-6.1806075,9.4988692"
       orientation="0,1"
       id="guide816"
       inkscape:locked="false" />
    <sodipodi:guide
       position="-4.4101636,10.646923"
       orientation="0,1"
       id="guide818"
       inkscape:locked="false" />
    <sodipodi:guide
       position="2.7595724,11.09577"
       orientation="1,0"
       id="guide820"
       inkscape:locked="false" />
    <sodipodi:guide
       position="3.6572659,10.942217"
       orientation="1,0"
       id="guide822"
       inkscape:locked="false" />
    <sodipodi:guide
       position="-0.051625511,9.7492299"
       orientation="1,0"
       id="guide1853"
       inkscape:locked="false" />
    <sodipodi:guide
       position="-2.3720169,3.0175835"
       orientation="0,1"
       id="guide1855"
       inkscape:locked="false" />
  </sodipodi:namedview>
  <metadata
     id="metadata1678">
    <rdf:RDF>
      <cc:Work
         rdf:about="">
        <dc:format>image/svg+xml</dc:format>
        <dc:type
           rdf:resource="http://purl.org/dc/dcmitype/StillImage" />
      </cc:Work>
    </rdf:RDF>
  </metadata>
  <g
     inkscape:label="Layer 1"
     inkscape:groupmode="layer"
     id="layer1"
     transform="translate(17.028496,-147.22856)">
    <path
       d="m -14.865566,148.17889 c -0.196453,0.004 -0.43947,0.0515 -0.700582,0.19655 -0.187058,0.10388 -0.379515,0.25689 -0.547921,0.45931 -0.196262,0.23375 -0.364775,0.50986 -0.503325,0.83102 -0.121255,0.28108 -0.215621,0.58743 -0.287301,0.91672 -0.06444,0.3134 -0.100503,0.66475 -0.07111,1.02237 0.01385,0.16853 0.04242,0.34042 0.09058,0.51095 0.04446,0.15741 0.107975,0.32195 0.198437,0.48516 0.05372,0.0989 0.131642,0.22645 0.237321,0.3339 0.04875,0.0496 0.105955,0.0975 0.172687,0.13718 0.06344,0.0377 0.135953,0.0681 0.21809,0.0848 0.111744,0.0234 0.226135,0.0233 0.338177,0.002 0.107144,-0.0204 0.211105,-0.0601 0.308008,-0.11549 0.09323,-0.0533 0.180257,-0.1214 0.256825,-0.20108 0.07182,-0.0747 0.135063,-0.16036 0.184834,-0.25377 0.181053,-0.26281 0.298928,-0.56059 0.368775,-0.87867 0.06695,-0.30488 0.08878,-0.62365 0.08294,-0.941 -0.007,-0.24482 -0.01728,-0.51869 -0.05839,-0.78802 -0.03574,-0.16987 -0.09623,-0.31982 -0.153359,-0.46147 -0.05469,-0.1356 -0.105676,-0.26218 -0.135147,-0.39237 -1.1e-5,-6.2e-4 -1.6e-5,-0.001 -1.9e-5,-0.002 -10e-6,-7.6e-4 -7.6e-5,0.001 -3.84e-4,0.004 -2.43e-4,0.002 -0.001,0.009 -0.0033,0.0179 -0.0012,0.005 -0.0033,0.0117 -0.007,0.0203 -0.0034,0.008 -0.01025,0.0218 -0.02274,0.0363 -0.0065,0.008 -0.01535,0.0163 -0.02697,0.0244 -0.0118,0.008 -0.02626,0.0157 -0.04325,0.0205 -0.03627,0.0103 -0.06986,0.005 -0.09483,-0.005 -0.02271,-0.009 -0.03778,-0.0223 -0.04565,-0.03 -0.0084,-0.008 -0.01406,-0.0157 -0.01732,-0.0205 -0.0064,-0.009 -0.01,-0.0168 -0.01119,-0.0194 -0.0016,-0.003 -0.0025,-0.006 -0.0029,-0.007 -6.32e-4,-0.002 -5.83e-4,-0.002 1.53e-4,7.1e-4 0.0014,0.005 0.0035,0.0127 0.0062,0.024 0.0052,0.0214 0.01162,0.0502 0.01785,0.077 0.003,0.0131 0.0062,0.0265 0.0092,0.0383 0.0015,0.006 0.0031,0.012 0.0048,0.0178 9.49e-4,0.003 0.0021,0.007 0.0034,0.0112 0.2002,0.78889 0.446977,1.60104 0.8148,2.36863 0.0054,0.0112 0.01215,0.0217 0.02018,0.0312 0.03781,0.0447 0.08487,0.0791 0.135581,0.102 0.05025,0.0227 0.106529,0.0353 0.163821,0.0335 0.05736,-0.002 0.117802,-0.0185 0.170504,-0.0548 0.0264,-0.0182 0.05014,-0.0408 0.07033,-0.0674 0.01722,-0.0227 0.03139,-0.0478 0.04248,-0.0748 0.02676,-0.0465 0.04863,-0.0946 0.06776,-0.13843 0.02162,-0.0496 0.03868,-0.0912 0.05879,-0.1329 0.01941,-0.0402 0.03857,-0.0737 0.0599,-0.10139 0.02078,-0.027 0.04333,-0.0482 0.06985,-0.0644 0.0078,-0.005 0.01544,-0.01 0.02218,-0.0158 0.0067,-0.006 0.01243,-0.0132 0.01793,-0.0205 0.02288,-0.0301 0.03954,-0.0619 0.05216,-0.0921 0.01255,-0.03 0.02175,-0.0601 0.02901,-0.0877 0.01465,-0.0556 0.02342,-0.10568 0.03305,-0.14193 9.04e-4,-0.003 0.0017,-0.007 0.0023,-0.0103 0.05452,-0.28757 0.04172,-0.57237 -5.57e-4,-0.84757 -0.04205,-0.27371 -0.114364,-0.54377 -0.181117,-0.79833 -0.08925,-0.29577 -0.20974,-0.58414 -0.379527,-0.84445 -0.09161,-0.14305 -0.215859,-0.27394 -0.363509,-0.3694 -0.07435,-0.0481 -0.155024,-0.0874 -0.240948,-0.11469 -0.08629,-0.0274 -0.177528,-0.0425 -0.272089,-0.0421 -0.201033,-0.009 -0.39874,0.0426 -0.573672,0.13096 -0.176205,0.089 -0.331473,0.21593 -0.456537,0.35936 -0.270161,0.30545 -0.459412,0.66738 -0.610475,1.01734 -0.18639,0.49501 -0.324392,1.00303 -0.396982,1.51697 -0.07386,0.52293 -0.07975,1.05019 0.0014,1.56852 0.03433,0.20354 0.07603,0.41063 0.142151,0.61055 0.06773,0.20476 0.160969,0.40162 0.297105,0.57707 0.123971,0.16852 0.286972,0.31703 0.471812,0.42116 0.09467,0.0533 0.195414,0.0952 0.300403,0.12269 0.106798,0.0279 0.217571,0.0408 0.330255,0.0359 0.156722,-0.0106 0.302071,-0.0457 0.436275,-0.0915 0.139382,-0.0475 0.271499,-0.10814 0.391332,-0.16858 0.371473,-0.19826 0.679281,-0.46356 0.937015,-0.75162 0.272555,-0.30463 0.496129,-0.64267 0.679952,-0.96936 0.229274,-0.41506 0.37744,-0.82395 0.435218,-1.22696 0.02805,-0.20077 0.02307,-0.39421 -0.01049,-0.57088 -0.03992,-0.21012 -0.118737,-0.38991 -0.223278,-0.53811 a 0.1455995,0.1455995 90 0 0 -0.237952,0.16786 c 0.07994,0.11332 0.142777,0.25421 0.175149,0.4246 0.02733,0.14385 0.03206,0.30528 0.0082,0.47572 -0.0517,0.36058 -0.185771,0.73591 -0.401231,1.12597 -0.176311,0.31332 -0.38813,0.63254 -0.642631,0.91699 -0.240475,0.26878 -0.522252,0.51018 -0.854135,0.68735 -0.110591,0.0557 -0.229426,0.10992 -0.351124,0.15139 -0.116981,0.0399 -0.236771,0.0681 -0.358626,0.0764 -0.07846,0.003 -0.160084,-0.006 -0.240279,-0.0269 -0.07898,-0.0207 -0.156568,-0.0526 -0.23117,-0.0947 -0.146348,-0.0824 -0.278884,-0.20231 -0.382446,-0.34301 -0.112978,-0.14569 -0.192644,-0.31068 -0.252931,-0.49295 -0.05918,-0.17893 -0.09798,-0.36894 -0.131201,-0.56585 -0.07585,-0.48461 -0.07086,-0.98272 -4.71e-4,-1.48105 0.0692,-0.48991 0.201203,-0.97716 0.378598,-1.44874 0.143336,-0.33163 0.31807,-0.66138 0.559325,-0.93415 0.103926,-0.11918 0.230077,-0.22138 0.369061,-0.29161 0.137463,-0.0695 0.285599,-0.10677 0.436257,-0.0998 0.06975,-1.1e-4 0.130853,0.01 0.190018,0.0286 0.05909,0.0188 0.116454,0.0464 0.171013,0.0817 0.109149,0.0706 0.204833,0.17017 0.277043,0.28292 0.151455,0.23221 0.261734,0.49354 0.343871,0.76542 0.06632,0.25329 0.134214,0.50773 0.173511,0.76351 0.03883,0.2527 0.04854,0.50108 0.0032,0.74422 -0.01352,0.0519 -0.02182,0.0993 -0.03179,0.13713 -0.0053,0.02 -0.01051,0.0362 -0.01613,0.0497 -0.0019,0.004 -0.0037,0.008 -0.0055,0.0119 -0.04781,0.034 -0.08657,0.0737 -0.118723,0.11543 -0.03829,0.0498 -0.06745,0.10281 -0.0914,0.15245 -0.02334,0.0484 -0.04507,0.1009 -0.06345,0.14306 -0.01966,0.0451 -0.03753,0.0833 -0.05744,0.11678 -0.0046,0.008 -0.0086,0.016 -0.01166,0.0246 -0.0024,0.007 -0.0049,0.0105 -0.0063,0.0124 -0.0054,0.005 -0.009,0.007 -0.01781,0.007 -0.0092,2.9e-4 -0.02151,-0.002 -0.03471,-0.008 -0.0085,-0.004 -0.01637,-0.009 -0.02319,-0.0147 -0.351043,-0.73794 -0.589835,-1.52317 -0.786454,-2.29865 -0.0012,-0.005 -0.0025,-0.009 -0.0041,-0.0134 5.7e-4,0.002 4.97e-4,0.002 -2.41e-4,-0.001 -6.5e-4,-0.002 -0.0015,-0.005 -0.0026,-0.01 -0.0022,-0.009 -0.0048,-0.0195 -0.0077,-0.032 -0.0056,-0.0241 -0.01255,-0.0553 -0.01858,-0.0801 -0.0031,-0.0126 -0.0064,-0.0258 -0.0098,-0.0374 -0.0017,-0.006 -0.0039,-0.0128 -0.0066,-0.02 -0.0014,-0.004 -0.0033,-0.009 -0.0058,-0.014 -0.0022,-0.005 -0.0067,-0.0139 -0.01382,-0.0242 -0.0037,-0.005 -0.0097,-0.0134 -0.01851,-0.0219 -0.0083,-0.008 -0.02369,-0.0213 -0.04675,-0.0308 -0.02532,-0.0104 -0.05925,-0.0159 -0.09583,-0.005 -0.01716,0.005 -0.03177,0.0124 -0.04372,0.0207 -0.01177,0.008 -0.02076,0.017 -0.02741,0.0248 -0.01279,0.0149 -0.01988,0.0292 -0.02356,0.0377 -0.0039,0.009 -0.0063,0.017 -0.0077,0.0224 -0.0027,0.0105 -0.0039,0.0195 -0.0044,0.0246 -6.01e-4,0.006 -8.85e-4,0.0109 -0.001,0.0152 -1.53e-4,0.004 -1.94e-4,0.009 -1.74e-4,0.0126 3.8e-5,0.008 3.24e-4,0.0167 7.65e-4,0.0258 3.84e-4,0.008 0.0014,0.0159 0.0031,0.0236 0.03517,0.16316 0.09786,0.31677 0.152435,0.4521 0.05849,0.14503 0.108915,0.2719 0.137051,0.4047 0.03663,0.24153 0.0467,0.49928 0.05365,0.74271 0.0055,0.29971 -0.01543,0.59475 -0.07624,0.8717 -0.06391,0.29103 -0.170216,0.55453 -0.328604,0.78236 -0.0035,0.005 -0.0067,0.0103 -0.0095,0.0158 -0.03691,0.0708 -0.08515,0.13688 -0.141014,0.19501 -0.05781,0.0602 -0.12292,0.11091 -0.191389,0.15005 -0.07112,0.0407 -0.144877,0.0683 -0.218048,0.0823 -0.07616,0.0145 -0.151657,0.0143 -0.224732,-0.001 -0.04756,-0.01 -0.08967,-0.0271 -0.128236,-0.05 -0.04099,-0.0243 -0.0788,-0.0554 -0.113798,-0.091 -0.07751,-0.0788 -0.139752,-0.17798 -0.189658,-0.26981 -0.0788,-0.14219 -0.134294,-0.28549 -0.173478,-0.42422 -0.04246,-0.15031 -0.06809,-0.30346 -0.0806,-0.45564 -0.0266,-0.32367 0.0058,-0.64656 0.06577,-0.93823 0.06806,-0.31264 0.157194,-0.60065 0.269796,-0.86166 0.128506,-0.29788 0.282712,-0.54921 0.45938,-0.75963 0.146296,-0.17584 0.309931,-0.30488 0.465867,-0.39148 0.216184,-0.12006 0.412006,-0.15695 0.564967,-0.15998 a 0.1455995,0.1455995 90 0 0 -0.0058,-0.29114 z"
       id="path-1"
       inkscape:path-effect="#path-effect160;#path-effect162"
       inkscape:original-d="m -14.862683,148.32446 c -0.885654,0.0295 -1.442736,0.87771 -1.712216,1.63228 -0.32663,0.89117 -0.436311,2.00752 0.166665,2.80621 0.38612,0.49828 1.061474,0.23223 1.312687,-0.25022 0.480387,-0.69533 0.468619,-1.59163 0.390787,-2.39671 -0.02121,-0.32429 -0.337195,-0.86355 -0.306194,-1.02571 0.21365,0.87119 0.468815,1.74064 0.85719,2.55092 0.402905,0.34406 0.36229,-0.39961 0.666005,-0.53562 0.23713,-0.61786 0.03862,-1.30423 -0.123038,-1.91849 -0.182822,-0.50366 -0.451308,-1.1627 -1.077254,-1.18906 -0.782254,-0.0335 -1.220845,0.75091 -1.505611,1.36594 -0.436676,1.132 -0.633719,2.42357 -0.282135,3.60519 0.174364,0.60127 0.698909,1.18168 1.377881,1.08829 1.072174,-0.21172 1.826528,-1.14793 2.307499,-2.07058 0.288908,-0.61043 0.537997,-1.39566 0.115966,-2.00764"
       style="fill:#000000;fill-rule:nonzero;stroke:none;stroke-width:1.22133" />
  </g>
</svg>
