<?xml version="1.0" encoding="UTF-8" standalone="no"?>
<!-- Created with Inkscape (http://www.inkscape.org/) -->

<svg
   width="4mm"
   height="10mm"
   viewBox="0 0 4.0000001 9.9999994"
   version="1.1"
   id="svg1681"
   inkscape:version="1.2.1 (9c6d41e410, 2022-07-14)"
   sodipodi:docname="upper_r_2.svg"
   inkscape:export-filename="..\..\..\..\Downloads\lower a diff canvas resize 3.0.png"
   inkscape:export-xdpi="96"
   inkscape:export-ydpi="96"
   xmlns:inkscape="http://www.inkscape.org/namespaces/inkscape"
   xmlns:sodipodi="http://sodipodi.sourceforge.net/DTD/sodipodi-0.dtd"
   xmlns="http://www.w3.org/2000/svg"
   xmlns:svg="http://www.w3.org/2000/svg"
   xmlns:rdf="http://www.w3.org/1999/02/22-rdf-syntax-ns#"
   xmlns:cc="http://creativecommons.org/ns#"
   xmlns:dc="http://purl.org/dc/elements/1.1/">
  <defs
     id="defs1675">
    <inkscape:path-effect
       effect="powerstroke"
       id="path-effect324"
       is_visible="true"
       lpeversion="1"
       offset_points="1.47212,0.10888819 | 5.6326087,0.13017644 | 7.5744735,0.14877308"
       not_jump="true"
       sort_points="true"
       interpolator_type="CentripetalCatmullRom"
       interpolator_beta="0.75"
       start_linecap_type="round"
       linejoin_type="spiro"
       miter_limit="4"
       scale_width="1"
       end_linecap_type="round" />
    <inkscape:path-effect
       effect="simplify"
       id="path-effect322"
       is_visible="true"
       lpeversion="1"
       steps="1"
       threshold="0.0047745358"
       smooth_angles="0"
       helper_size="0"
       simplify_individual_paths="false"
       simplify_just_coalesce="false"
       step="1" />
    <inkscape:path-effect
       effect="powerstroke"
       id="path-effect317"
       is_visible="true"
       lpeversion="1"
       offset_points="0.21345164,0.099834564"
       not_jump="true"
       sort_points="true"
       interpolator_type="CentripetalCatmullRom"
       interpolator_beta="0.75"
       start_linecap_type="round"
       linejoin_type="spiro"
       miter_limit="4"
       scale_width="1"
       end_linecap_type="round" />
    <inkscape:path-effect
       effect="simplify"
       id="path-effect315"
       is_visible="true"
       lpeversion="1"
       steps="1"
       threshold="0.0047745358"
       smooth_angles="0"
       helper_size="0"
       simplify_individual_paths="false"
       simplify_just_coalesce="false"
       step="1" />
    <inkscape:path-effect
       effect="powerstroke"
       id="path-effect269"
       is_visible="true"
       lpeversion="1"
       offset_points="1.483013,0.078546311 | 5.7732082,0.12405913"
       not_jump="true"
       sort_points="true"
       interpolator_type="CentripetalCatmullRom"
       interpolator_beta="0.75"
       start_linecap_type="round"
       linejoin_type="spiro"
       miter_limit="4"
       scale_width="1"
       end_linecap_type="round" />
    <inkscape:path-effect
       effect="simplify"
       id="path-effect267"
       is_visible="true"
       lpeversion="1"
       steps="1"
       threshold="0.0047745358"
       smooth_angles="0"
       helper_size="0"
       simplify_individual_paths="false"
       simplify_just_coalesce="false"
       step="1" />
    <inkscape:path-effect
       effect="powerstroke"
       id="path-effect262"
       is_visible="true"
       lpeversion="1"
       offset_points="0.26681479,0.09371725"
       not_jump="true"
       sort_points="true"
       interpolator_type="CentripetalCatmullRom"
       interpolator_beta="0.75"
       start_linecap_type="round"
       linejoin_type="spiro"
       miter_limit="4"
       scale_width="1"
       end_linecap_type="round" />
    <inkscape:path-effect
       effect="simplify"
       id="path-effect260"
       is_visible="true"
       lpeversion="1"
       steps="1"
       threshold="0.0047745358"
       smooth_angles="0"
       helper_size="0"
       simplify_individual_paths="false"
       simplify_just_coalesce="false"
       step="1" />
    <inkscape:path-effect
       effect="powerstroke"
       id="path-effect388"
       is_visible="true"
       lpeversion="1"
       offset_points="1.4987633,0.12586803 | 3.8634606,0.15518345 | 5.2668693,0.11914431 | 9.6457555,0.1538387 | 11.904742,0.12909541"
       not_jump="true"
       sort_points="true"
       interpolator_type="CentripetalCatmullRom"
       interpolator_beta="0.75"
       start_linecap_type="round"
       linejoin_type="spiro"
       miter_limit="4"
       scale_width="1"
       end_linecap_type="round" />
    <inkscape:path-effect
       effect="simplify"
       id="path-effect386"
       is_visible="true"
       lpeversion="1"
       steps="1"
       threshold="0.0035951417"
       smooth_angles="0"
       helper_size="0"
       simplify_individual_paths="false"
       simplify_just_coalesce="false"
       step="1" />
    <inkscape:path-effect
       effect="powerstroke"
       id="path-effect381"
       is_visible="true"
       lpeversion="1"
       offset_points="4.0204944,0.081629437"
       not_jump="true"
       sort_points="true"
       interpolator_type="CentripetalCatmullRom"
       interpolator_beta="0.75"
       start_linecap_type="round"
       linejoin_type="spiro"
       miter_limit="4"
       scale_width="1"
       end_linecap_type="round" />
    <inkscape:path-effect
       effect="simplify"
       id="path-effect379"
       is_visible="true"
       lpeversion="1"
       steps="1"
       threshold="0.0035951417"
       smooth_angles="0"
       helper_size="0"
       simplify_individual_paths="false"
       simplify_just_coalesce="false"
       step="1" />
    <inkscape:path-effect
       effect="powerstroke"
       id="path-effect502"
       is_visible="true"
       lpeversion="1"
       offset_points="3.0091841,0.21607495 | 7.3602657,0.17554228 | 9.4159651,0.20236537"
       not_jump="true"
       sort_points="true"
       interpolator_type="CentripetalCatmullRom"
       interpolator_beta="0.75"
       start_linecap_type="round"
       linejoin_type="spiro"
       miter_limit="4"
       scale_width="1"
       end_linecap_type="round" />
    <inkscape:path-effect
       effect="simplify"
       id="path-effect500"
       is_visible="true"
       lpeversion="1"
       steps="1"
       threshold="0.0035951417"
       smooth_angles="0"
       helper_size="0"
       simplify_individual_paths="false"
       simplify_just_coalesce="false"
       step="1" />
    <inkscape:path-effect
       effect="powerstroke"
       id="path-effect241"
       is_visible="true"
       lpeversion="1"
       offset_points="2.6879454,0.34086734"
       not_jump="true"
       sort_points="true"
       interpolator_type="CentripetalCatmullRom"
       interpolator_beta="0.75"
       start_linecap_type="round"
       linejoin_type="spiro"
       miter_limit="4"
       scale_width="1"
       end_linecap_type="round" />
    <inkscape:path-effect
       effect="simplify"
       id="path-effect239"
       is_visible="true"
       lpeversion="1"
       steps="1"
       threshold="0.0028332064"
       smooth_angles="0"
       helper_size="0"
       simplify_individual_paths="false"
       simplify_just_coalesce="false"
       step="1" />
    <inkscape:path-effect
       effect="powerstroke"
       id="path-effect234"
       is_visible="true"
       lpeversion="1"
       offset_points="2.13563,0.075169555"
       not_jump="true"
       sort_points="true"
       interpolator_type="CentripetalCatmullRom"
       interpolator_beta="0.75"
       start_linecap_type="round"
       linejoin_type="spiro"
       miter_limit="4"
       scale_width="1"
       end_linecap_type="round" />
    <inkscape:path-effect
       effect="simplify"
       id="path-effect232"
       is_visible="true"
       lpeversion="1"
       steps="1"
       threshold="0.0028332064"
       smooth_angles="0"
       helper_size="0"
       simplify_individual_paths="false"
       simplify_just_coalesce="false"
       step="1" />
    <inkscape:path-effect
       effect="powerstroke"
       id="path-effect227"
       is_visible="true"
       lpeversion="1"
       offset_points="2.1868266,0.075169555"
       not_jump="true"
       sort_points="true"
       interpolator_type="CentripetalCatmullRom"
       interpolator_beta="0.75"
       start_linecap_type="round"
       linejoin_type="spiro"
       miter_limit="4"
       scale_width="1"
       end_linecap_type="round" />
    <inkscape:path-effect
       effect="simplify"
       id="path-effect225"
       is_visible="true"
       lpeversion="1"
       steps="1"
       threshold="0.0028332064"
       smooth_angles="0"
       helper_size="0"
       simplify_individual_paths="false"
       simplify_just_coalesce="false"
       step="1" />
    <inkscape:path-effect
       effect="powerstroke"
       id="path-effect166"
       is_visible="true"
       lpeversion="1"
       offset_points="1.9637935,0.075169555"
       not_jump="true"
       sort_points="true"
       interpolator_type="CentripetalCatmullRom"
       interpolator_beta="0.75"
       start_linecap_type="round"
       linejoin_type="spiro"
       miter_limit="4"
       scale_width="1"
       end_linecap_type="round" />
    <inkscape:path-effect
       effect="simplify"
       id="path-effect164"
       is_visible="true"
       lpeversion="1"
       steps="1"
       threshold="0.0028332064"
       smooth_angles="0"
       helper_size="0"
       simplify_individual_paths="false"
       simplify_just_coalesce="false"
       step="1" />
    <inkscape:path-effect
       effect="powerstroke"
       id="path-effect159"
       is_visible="true"
       lpeversion="1"
       offset_points="2.2611036,0.075169555"
       not_jump="true"
       sort_points="true"
       interpolator_type="CentripetalCatmullRom"
       interpolator_beta="0.75"
       start_linecap_type="round"
       linejoin_type="spiro"
       miter_limit="4"
       scale_width="1"
       end_linecap_type="round" />
    <inkscape:path-effect
       effect="simplify"
       id="path-effect157"
       is_visible="true"
       lpeversion="1"
       steps="1"
       threshold="0.0028332064"
       smooth_angles="0"
       helper_size="0"
       simplify_individual_paths="false"
       simplify_just_coalesce="false"
       step="1" />
    <inkscape:path-effect
       effect="powerstroke"
       id="path-effect152"
       is_visible="true"
       lpeversion="1"
       offset_points="2.826981,0.075169555"
       not_jump="true"
       sort_points="true"
       interpolator_type="CentripetalCatmullRom"
       interpolator_beta="0.75"
       start_linecap_type="round"
       linejoin_type="spiro"
       miter_limit="4"
       scale_width="1"
       end_linecap_type="round" />
    <inkscape:path-effect
       effect="simplify"
       id="path-effect150"
       is_visible="true"
       lpeversion="1"
       steps="1"
       threshold="0.0028332064"
       smooth_angles="0"
       helper_size="0"
       simplify_individual_paths="false"
       simplify_just_coalesce="false"
       step="1" />
    <inkscape:path-effect
       effect="powerstroke"
       id="path-effect145"
       is_visible="true"
       lpeversion="1"
       offset_points="3.8374447,0.075169555"
       not_jump="true"
       sort_points="true"
       interpolator_type="CentripetalCatmullRom"
       interpolator_beta="0.75"
       start_linecap_type="round"
       linejoin_type="spiro"
       miter_limit="4"
       scale_width="1"
       end_linecap_type="round" />
    <inkscape:path-effect
       effect="simplify"
       id="path-effect143"
       is_visible="true"
       lpeversion="1"
       steps="1"
       threshold="0.0028332064"
       smooth_angles="0"
       helper_size="0"
       simplify_individual_paths="false"
       simplify_just_coalesce="false"
       step="1" />
    <inkscape:path-effect
       effect="powerstroke"
       id="path-effect138"
       is_visible="true"
       lpeversion="1"
       offset_points="2.6880907,0.075169555"
       not_jump="true"
       sort_points="true"
       interpolator_type="CentripetalCatmullRom"
       interpolator_beta="0.75"
       start_linecap_type="round"
       linejoin_type="spiro"
       miter_limit="4"
       scale_width="1"
       end_linecap_type="round" />
    <inkscape:path-effect
       effect="simplify"
       id="path-effect136"
       is_visible="true"
       lpeversion="1"
       steps="1"
       threshold="0.0028332064"
       smooth_angles="0"
       helper_size="0"
       simplify_individual_paths="false"
       simplify_just_coalesce="false"
       step="1" />
    <inkscape:path-effect
       effect="powerstroke"
       id="path-effect131"
       is_visible="true"
       lpeversion="1"
       offset_points="1.9940581,0.075169555"
       not_jump="true"
       sort_points="true"
       interpolator_type="CentripetalCatmullRom"
       interpolator_beta="0.75"
       start_linecap_type="round"
       linejoin_type="spiro"
       miter_limit="4"
       scale_width="1"
       end_linecap_type="round" />
    <inkscape:path-effect
       effect="simplify"
       id="path-effect129"
       is_visible="true"
       lpeversion="1"
       steps="1"
       threshold="0.0028332064"
       smooth_angles="0"
       helper_size="0"
       simplify_individual_paths="false"
       simplify_just_coalesce="false"
       step="1" />
  </defs>
  <sodipodi:namedview
     id="base"
     pagecolor="#ffffff"
     bordercolor="#666666"
     borderopacity="1.0"
     inkscape:pageopacity="0.0"
     inkscape:pageshadow="2"
     inkscape:zoom="15.839192"
     inkscape:cx="7.0395005"
     inkscape:cy="14.394674"
     inkscape:document-units="mm"
     inkscape:current-layer="layer1"
     showgrid="false"
     fit-margin-top="0"
     fit-margin-left="0"
     fit-margin-right="0"
     fit-margin-bottom="0"
     inkscape:window-width="1920"
     inkscape:window-height="1057"
     inkscape:window-x="1072"
     inkscape:window-y="321"
     inkscape:window-maximized="1"
     showguides="true"
     inkscape:guide-bbox="true"
     inkscape:snap-bbox="true"
     inkscape:bbox-nodes="true"
     inkscape:snap-nodes="false"
     inkscape:snap-others="false"
     inkscape:snap-page="true"
     inkscape:snap-grids="false"
     inkscape:snap-to-guides="false"
     inkscape:snap-global="false"
     inkscape:pagecheckerboard="0"
     inkscape:showpageshadow="2"
     inkscape:deskcolor="#d1d1d1">
    <sodipodi:guide
       position="-6.1806075,9.4988692"
       orientation="0,1"
       id="guide816"
       inkscape:locked="false" />
    <sodipodi:guide
       position="-4.4101636,10.646923"
       orientation="0,1"
       id="guide818"
       inkscape:locked="false" />
    <sodipodi:guide
       position="2.7595724,11.09577"
       orientation="1,0"
       id="guide820"
       inkscape:locked="false" />
    <sodipodi:guide
       position="3.6572659,10.942217"
       orientation="1,0"
       id="guide822"
       inkscape:locked="false" />
    <sodipodi:guide
       position="-0.051625511,9.7492299"
       orientation="1,0"
       id="guide1853"
       inkscape:locked="false" />
    <sodipodi:guide
       position="-2.3720169,3.0175835"
       orientation="0,1"
       id="guide1855"
       inkscape:locked="false" />
  </sodipodi:namedview>
  <metadata
     id="metadata1678">
    <rdf:RDF>
      <cc:Work
         rdf:about="">
        <dc:format>image/svg+xml</dc:format>
        <dc:type
           rdf:resource="http://purl.org/dc/dcmitype/StillImage" />
      </cc:Work>
    </rdf:RDF>
  </metadata>
  <g
     inkscape:label="Layer 1"
     inkscape:groupmode="layer"
     id="layer1"
     transform="translate(17.028496,-147.22856)">
    <path
       d="m -16.597345,147.86172 c -0.0081,0.0945 -0.02374,0.284 -0.04156,0.56375 -0.02319,0.36401 -0.05382,1.19856 -0.1158,2.07109 -0.09353,1.64661 -0.06177,2.67012 0.0073,3.47687 a 0.09983456,0.09983456 90 0 0 0.198942,-0.017 c -0.06812,-0.79608 -0.09993,-1.81002 -0.0069,-3.44712 0.06234,-0.87749 0.09276,-1.70925 0.115807,-2.07113 0.01771,-0.27794 0.03325,-0.46598 0.04124,-0.55944 a 0.09983456,0.09983456 90 0 0 -0.198944,-0.017 z"
       id="path-1"
       inkscape:path-effect="#path-effect315;#path-effect317"
       inkscape:original-d="m -16.497873,147.87022 c -0.06536,0.73925 -0.08476,1.49685 -0.133307,2.24312 -0.0831,1.27728 -0.125416,2.59396 -0.01679,3.85158"
       style="fill:#000000;fill-rule:nonzero;stroke:none" />
    <path
       d="m -16.323907,147.83611 c 0.003,-0.0123 0.0075,-0.0252 0.01458,-0.0378 0.0055,-0.01 0.01273,-0.0198 0.02238,-0.0297 0.01603,-0.0163 0.03964,-0.0329 0.0743,-0.0467 0.03001,-0.012 0.06617,-0.021 0.107474,-0.026 0.03777,-0.005 0.07726,-0.005 0.115216,-0.003 0.154263,0.0108 0.312049,0.0404 0.46783,0.0897 0.149656,0.0473 0.314077,0.11799 0.477947,0.22067 0.12693,0.1048 0.230742,0.24509 0.30805,0.4164 0.07226,0.16012 0.118168,0.34064 0.138306,0.52614 0.01774,0.31499 -0.05563,0.64413 -0.186669,0.94951 -0.07532,0.16943 -0.179964,0.3238 -0.300782,0.46146 -0.127571,0.14536 -0.272156,0.27095 -0.418051,0.37713 -0.142711,0.0994 -0.297761,0.16915 -0.444047,0.20094 -0.0425,0.009 -0.08367,0.0152 -0.123339,0.018 -0.0369,0.003 -0.07258,0.003 -0.106981,1.3e-4 -0.07816,-0.006 -0.15033,-0.0243 -0.216653,-0.0547 -0.0055,-0.003 -0.01103,-0.005 -0.01681,-0.007 -0.0058,-0.002 -0.01179,-0.003 -0.0178,-0.003 0.0096,0.001 0.01041,0.002 0.0039,-0.001 -0.0061,-0.003 -0.0137,-0.008 -0.02368,-0.0146 -0.0098,-0.007 -0.01992,-0.014 -0.02943,-0.0214 -0.0097,-0.008 -0.01824,-0.0148 -0.02454,-0.0206 -0.0031,-0.003 -0.0056,-0.005 -0.0071,-0.007 -0.0012,-0.001 -0.0021,-0.003 2.9e-5,-8.7e-4 8.33e-4,7.3e-4 0.0028,0.003 0.0055,0.006 0.0014,0.002 0.0034,0.004 0.0056,0.007 0.0021,0.003 0.0054,0.008 0.0088,0.0148 0.0031,0.006 0.0085,0.0178 0.01182,0.0338 0.0017,0.008 0.0032,0.0195 0.0028,0.0327 -4.28e-4,0.0134 -0.0029,0.0298 -0.0098,0.0472 -0.0071,0.0179 -0.01798,0.0346 -0.03244,0.0488 -0.01423,0.0139 -0.02961,0.0231 -0.04351,0.029 -0.01362,0.006 -0.02602,0.009 -0.03559,0.01 -0.0096,0.001 -0.01789,0.001 -0.02417,0.001 -0.0121,-4.1e-4 -0.02162,-0.002 -0.02686,-0.004 -0.0057,-0.001 -0.0102,-0.003 -0.01301,-0.004 -0.0051,-0.002 -0.0096,-0.004 -0.0103,-0.004 -0.0027,-0.001 -0.0018,-4.6e-4 0.0015,0.002 0.0081,0.006 0.01832,0.0124 0.04008,0.028 0.131897,0.10625 0.265274,0.23478 0.412222,0.39033 0.01976,0.0209 0.03967,0.0422 0.05988,0.064 0.122644,0.13227 0.220761,0.24337 0.343405,0.37564 0.274521,0.33358 0.609684,0.72045 0.998109,1.05922 0.291873,0.26457 0.557236,0.51907 0.802998,0.77964 0.05933,0.0572 0.09803,0.0899 0.130401,0.11584 a 0.14877308,0.14877308 90 0 0 0.185984,-0.23226 c -0.02363,-0.0189 -0.05556,-0.047 -0.10252,-0.0936 -0.24755,-0.26386 -0.518788,-0.52488 -0.816387,-0.79495 -0.371179,-0.32409 -0.693846,-0.69518 -0.97304,-1.03197 -0.129755,-0.13899 -0.244848,-0.26744 -0.351585,-0.38072 -0.02097,-0.0223 -0.04174,-0.0441 -0.06246,-0.0656 -0.154021,-0.16009 -0.29983,-0.29734 -0.455443,-0.41796 -0.03068,-0.021 -0.04931,-0.0327 -0.06439,-0.0413 -0.0074,-0.004 -0.01584,-0.009 -0.02463,-0.0127 -0.0043,-0.002 -0.01077,-0.005 -0.01842,-0.007 -0.0039,-0.001 -0.0094,-0.003 -0.01591,-0.005 -0.0061,-0.001 -0.0163,-0.003 -0.02901,-0.004 -0.0066,-2.2e-4 -0.01512,-6e-5 -0.02497,0.001 -0.0098,0.001 -0.02241,0.004 -0.03621,0.01 -0.01408,0.006 -0.02961,0.0153 -0.04396,0.0293 -0.01459,0.0143 -0.02557,0.0312 -0.03272,0.0492 -0.007,0.0176 -0.0095,0.0342 -0.0099,0.0478 -4.3e-4,0.0134 0.0011,0.0248 0.0029,0.0334 0.0034,0.0165 0.009,0.0288 0.01243,0.0355 0.0037,0.007 0.0074,0.0131 0.01007,0.0169 0.0028,0.004 0.0054,0.007 0.0075,0.01 0.0041,0.005 0.008,0.009 0.01097,0.0121 0.0059,0.006 0.01204,0.0113 0.0173,0.0157 0.0055,0.005 0.01143,0.009 0.01746,0.014 0.01189,0.009 0.0258,0.0192 0.04055,0.0293 0.01444,0.01 0.03062,0.0202 0.04744,0.03 0.01605,0.009 0.03442,0.0192 0.05343,0.0275 0.01274,0.006 0.03037,0.0125 0.05047,0.0171 0.09227,0.0381 0.190382,0.0602 0.292951,0.0661 0.04743,0.003 0.09563,0.002 0.144425,-0.002 0.05244,-0.005 0.105639,-0.013 0.15934,-0.0254 0.183477,-0.0424 0.368176,-0.12992 0.534588,-0.24891 0.158641,-0.11806 0.316116,-0.25732 0.456236,-0.42023 0.132796,-0.15438 0.250164,-0.33022 0.335714,-0.52764 0.139392,-0.33459 0.21908,-0.70072 0.195038,-1.06437 -0.02459,-0.21167 -0.07746,-0.41549 -0.162199,-0.5996 -0.09209,-0.20009 -0.218565,-0.37009 -0.378636,-0.49884 -0.0035,-0.003 -0.0071,-0.005 -0.01085,-0.008 -0.18444,-0.11468 -0.368935,-0.19283 -0.536255,-0.24485 -0.172122,-0.0535 -0.346642,-0.086 -0.518524,-0.0979 -0.05064,-0.003 -0.10339,-0.002 -0.155275,0.004 -0.05661,0.007 -0.111458,0.0195 -0.161757,0.0394 -0.05884,0.0232 -0.108853,0.0551 -0.14871,0.0952 -0.02388,0.024 -0.04279,0.0496 -0.05757,0.0757 -0.01876,0.0331 -0.02994,0.0654 -0.03674,0.0935 a 0.10888819,0.10888819 90 0 0 0.211662,0.0512 z"
       id="path-1-7"
       inkscape:path-effect="#path-effect322;#path-effect324"
       inkscape:original-d="m -16.429738,147.81049 c 0.124812,-0.48762 1.293101,-0.0685 1.519702,0.15953 0.237989,0.23947 0.370913,0.56675 0.418683,0.89748 0.03373,0.23354 -0.0037,0.46575 -0.0553,0.69402 -0.05987,0.26497 -0.190307,0.56071 -0.358449,0.76916 -0.286863,0.35562 -0.677206,0.70557 -1.151379,0.75259 -0.493547,0.0489 -0.806709,-0.41692 -0.356473,-0.0185 0.08179,0.0724 0.161542,0.14625 0.236003,0.2262 0.193069,0.20732 0.396181,0.41192 0.576677,0.63005 0.22638,0.27358 0.446434,0.52241 0.708009,0.76454 0.233465,0.2161 0.471781,0.43175 0.699123,0.65394 0.130312,0.12736 0.269493,0.29371 0.403871,0.40115"
       style="fill:#000000;fill-rule:nonzero;stroke:none" />
  </g>
</svg>
