<?xml version="1.0" encoding="UTF-8" standalone="no"?>
<!-- Created with Inkscape (http://www.inkscape.org/) -->

<svg
   width="6mm"
   height="10mm"
   viewBox="0 0 6.0000001 9.9999994"
   version="1.1"
   id="svg1681"
   inkscape:version="1.2.1 (9c6d41e410, 2022-07-14)"
   sodipodi:docname="upper_j_3.svg"
   inkscape:export-filename="..\..\..\..\Downloads\lower a diff canvas resize 3.0.png"
   inkscape:export-xdpi="96"
   inkscape:export-ydpi="96"
   xmlns:inkscape="http://www.inkscape.org/namespaces/inkscape"
   xmlns:sodipodi="http://sodipodi.sourceforge.net/DTD/sodipodi-0.dtd"
   xmlns="http://www.w3.org/2000/svg"
   xmlns:svg="http://www.w3.org/2000/svg"
   xmlns:rdf="http://www.w3.org/1999/02/22-rdf-syntax-ns#"
   xmlns:cc="http://creativecommons.org/ns#"
   xmlns:dc="http://purl.org/dc/elements/1.1/">
  <defs
     id="defs1675">
    <inkscape:path-effect
       effect="powerstroke"
       id="path-effect462"
       is_visible="true"
       lpeversion="1"
       offset_points="0.3385381,0.12283566 | 2.5341037,0.15097531"
       not_jump="true"
       sort_points="true"
       interpolator_type="CentripetalCatmullRom"
       interpolator_beta="0.75"
       start_linecap_type="round"
       linejoin_type="spiro"
       miter_limit="4"
       scale_width="1"
       end_linecap_type="round" />
    <inkscape:path-effect
       effect="simplify"
       id="path-effect460"
       is_visible="true"
       lpeversion="1"
       steps="1"
       threshold="0.0047745358"
       smooth_angles="0"
       helper_size="0"
       simplify_individual_paths="false"
       simplify_just_coalesce="false"
       step="1" />
    <inkscape:path-effect
       effect="powerstroke"
       id="path-effect455"
       is_visible="true"
       lpeversion="1"
       offset_points="0.73717555,0.11084573"
       not_jump="true"
       sort_points="true"
       interpolator_type="CentripetalCatmullRom"
       interpolator_beta="0.75"
       start_linecap_type="round"
       linejoin_type="spiro"
       miter_limit="4"
       scale_width="1"
       end_linecap_type="round" />
    <inkscape:path-effect
       effect="simplify"
       id="path-effect453"
       is_visible="true"
       lpeversion="1"
       steps="1"
       threshold="0.0047745358"
       smooth_angles="0"
       helper_size="0"
       simplify_individual_paths="false"
       simplify_just_coalesce="false"
       step="1" />
    <inkscape:path-effect
       effect="powerstroke"
       id="path-effect270"
       is_visible="true"
       lpeversion="1"
       offset_points="0.26682037,0.14608146 | 1.3076038,0.17446579"
       not_jump="true"
       sort_points="true"
       interpolator_type="CentripetalCatmullRom"
       interpolator_beta="0.75"
       start_linecap_type="round"
       linejoin_type="spiro"
       miter_limit="4"
       scale_width="1"
       end_linecap_type="round" />
    <inkscape:path-effect
       effect="simplify"
       id="path-effect268"
       is_visible="true"
       lpeversion="1"
       steps="1"
       threshold="0.0047745358"
       smooth_angles="0"
       helper_size="0"
       simplify_individual_paths="false"
       simplify_just_coalesce="false"
       step="1" />
    <inkscape:path-effect
       effect="powerstroke"
       id="path-effect263"
       is_visible="true"
       lpeversion="1"
       offset_points="0.66465084,0.16051832 | 2.7575618,0.14534738"
       not_jump="true"
       sort_points="true"
       interpolator_type="CentripetalCatmullRom"
       interpolator_beta="0.75"
       start_linecap_type="round"
       linejoin_type="spiro"
       miter_limit="4"
       scale_width="1"
       end_linecap_type="round" />
    <inkscape:path-effect
       effect="simplify"
       id="path-effect261"
       is_visible="true"
       lpeversion="1"
       steps="1"
       threshold="0.0047745358"
       smooth_angles="0"
       helper_size="0"
       simplify_individual_paths="false"
       simplify_just_coalesce="false"
       step="1" />
    <inkscape:path-effect
       effect="powerstroke"
       id="path-effect137"
       is_visible="true"
       lpeversion="1"
       offset_points="0.8265762,0.13992289"
       not_jump="true"
       sort_points="true"
       interpolator_type="CentripetalCatmullRom"
       interpolator_beta="0.75"
       start_linecap_type="round"
       linejoin_type="spiro"
       miter_limit="4"
       scale_width="1"
       end_linecap_type="round" />
    <inkscape:path-effect
       effect="simplify"
       id="path-effect135"
       is_visible="true"
       lpeversion="1"
       steps="1"
       threshold="0.0035951417"
       smooth_angles="0"
       helper_size="0"
       simplify_individual_paths="false"
       simplify_just_coalesce="false"
       step="1" />
    <inkscape:path-effect
       effect="powerstroke"
       id="path-effect130"
       is_visible="true"
       lpeversion="1"
       offset_points="1.5071181,0.17423856 | 5.2749614,0.21467258"
       not_jump="true"
       sort_points="true"
       interpolator_type="CentripetalCatmullRom"
       interpolator_beta="0.75"
       start_linecap_type="round"
       linejoin_type="spiro"
       miter_limit="4"
       scale_width="1"
       end_linecap_type="round" />
    <inkscape:path-effect
       effect="simplify"
       id="path-effect128"
       is_visible="true"
       lpeversion="1"
       steps="1"
       threshold="0.0035951417"
       smooth_angles="0"
       helper_size="0"
       simplify_individual_paths="false"
       simplify_just_coalesce="false"
       step="1" />
    <inkscape:path-effect
       effect="powerstroke"
       id="path-effect502"
       is_visible="true"
       lpeversion="1"
       offset_points="3.0091841,0.21607495 | 7.3602657,0.17554228 | 9.4159651,0.20236537"
       not_jump="true"
       sort_points="true"
       interpolator_type="CentripetalCatmullRom"
       interpolator_beta="0.75"
       start_linecap_type="round"
       linejoin_type="spiro"
       miter_limit="4"
       scale_width="1"
       end_linecap_type="round" />
    <inkscape:path-effect
       effect="simplify"
       id="path-effect500"
       is_visible="true"
       lpeversion="1"
       steps="1"
       threshold="0.0035951417"
       smooth_angles="0"
       helper_size="0"
       simplify_individual_paths="false"
       simplify_just_coalesce="false"
       step="1" />
    <inkscape:path-effect
       effect="powerstroke"
       id="path-effect241"
       is_visible="true"
       lpeversion="1"
       offset_points="2.6879454,0.34086734"
       not_jump="true"
       sort_points="true"
       interpolator_type="CentripetalCatmullRom"
       interpolator_beta="0.75"
       start_linecap_type="round"
       linejoin_type="spiro"
       miter_limit="4"
       scale_width="1"
       end_linecap_type="round" />
    <inkscape:path-effect
       effect="simplify"
       id="path-effect239"
       is_visible="true"
       lpeversion="1"
       steps="1"
       threshold="0.0028332064"
       smooth_angles="0"
       helper_size="0"
       simplify_individual_paths="false"
       simplify_just_coalesce="false"
       step="1" />
    <inkscape:path-effect
       effect="powerstroke"
       id="path-effect234"
       is_visible="true"
       lpeversion="1"
       offset_points="2.13563,0.075169555"
       not_jump="true"
       sort_points="true"
       interpolator_type="CentripetalCatmullRom"
       interpolator_beta="0.75"
       start_linecap_type="round"
       linejoin_type="spiro"
       miter_limit="4"
       scale_width="1"
       end_linecap_type="round" />
    <inkscape:path-effect
       effect="simplify"
       id="path-effect232"
       is_visible="true"
       lpeversion="1"
       steps="1"
       threshold="0.0028332064"
       smooth_angles="0"
       helper_size="0"
       simplify_individual_paths="false"
       simplify_just_coalesce="false"
       step="1" />
    <inkscape:path-effect
       effect="powerstroke"
       id="path-effect227"
       is_visible="true"
       lpeversion="1"
       offset_points="2.1868266,0.075169555"
       not_jump="true"
       sort_points="true"
       interpolator_type="CentripetalCatmullRom"
       interpolator_beta="0.75"
       start_linecap_type="round"
       linejoin_type="spiro"
       miter_limit="4"
       scale_width="1"
       end_linecap_type="round" />
    <inkscape:path-effect
       effect="simplify"
       id="path-effect225"
       is_visible="true"
       lpeversion="1"
       steps="1"
       threshold="0.0028332064"
       smooth_angles="0"
       helper_size="0"
       simplify_individual_paths="false"
       simplify_just_coalesce="false"
       step="1" />
    <inkscape:path-effect
       effect="powerstroke"
       id="path-effect166"
       is_visible="true"
       lpeversion="1"
       offset_points="1.9637935,0.075169555"
       not_jump="true"
       sort_points="true"
       interpolator_type="CentripetalCatmullRom"
       interpolator_beta="0.75"
       start_linecap_type="round"
       linejoin_type="spiro"
       miter_limit="4"
       scale_width="1"
       end_linecap_type="round" />
    <inkscape:path-effect
       effect="simplify"
       id="path-effect164"
       is_visible="true"
       lpeversion="1"
       steps="1"
       threshold="0.0028332064"
       smooth_angles="0"
       helper_size="0"
       simplify_individual_paths="false"
       simplify_just_coalesce="false"
       step="1" />
    <inkscape:path-effect
       effect="powerstroke"
       id="path-effect159"
       is_visible="true"
       lpeversion="1"
       offset_points="2.2611036,0.075169555"
       not_jump="true"
       sort_points="true"
       interpolator_type="CentripetalCatmullRom"
       interpolator_beta="0.75"
       start_linecap_type="round"
       linejoin_type="spiro"
       miter_limit="4"
       scale_width="1"
       end_linecap_type="round" />
    <inkscape:path-effect
       effect="simplify"
       id="path-effect157"
       is_visible="true"
       lpeversion="1"
       steps="1"
       threshold="0.0028332064"
       smooth_angles="0"
       helper_size="0"
       simplify_individual_paths="false"
       simplify_just_coalesce="false"
       step="1" />
    <inkscape:path-effect
       effect="powerstroke"
       id="path-effect152"
       is_visible="true"
       lpeversion="1"
       offset_points="2.826981,0.075169555"
       not_jump="true"
       sort_points="true"
       interpolator_type="CentripetalCatmullRom"
       interpolator_beta="0.75"
       start_linecap_type="round"
       linejoin_type="spiro"
       miter_limit="4"
       scale_width="1"
       end_linecap_type="round" />
    <inkscape:path-effect
       effect="simplify"
       id="path-effect150"
       is_visible="true"
       lpeversion="1"
       steps="1"
       threshold="0.0028332064"
       smooth_angles="0"
       helper_size="0"
       simplify_individual_paths="false"
       simplify_just_coalesce="false"
       step="1" />
    <inkscape:path-effect
       effect="powerstroke"
       id="path-effect145"
       is_visible="true"
       lpeversion="1"
       offset_points="3.8374447,0.075169555"
       not_jump="true"
       sort_points="true"
       interpolator_type="CentripetalCatmullRom"
       interpolator_beta="0.75"
       start_linecap_type="round"
       linejoin_type="spiro"
       miter_limit="4"
       scale_width="1"
       end_linecap_type="round" />
    <inkscape:path-effect
       effect="simplify"
       id="path-effect143"
       is_visible="true"
       lpeversion="1"
       steps="1"
       threshold="0.0028332064"
       smooth_angles="0"
       helper_size="0"
       simplify_individual_paths="false"
       simplify_just_coalesce="false"
       step="1" />
    <inkscape:path-effect
       effect="powerstroke"
       id="path-effect138"
       is_visible="true"
       lpeversion="1"
       offset_points="2.6880907,0.075169555"
       not_jump="true"
       sort_points="true"
       interpolator_type="CentripetalCatmullRom"
       interpolator_beta="0.75"
       start_linecap_type="round"
       linejoin_type="spiro"
       miter_limit="4"
       scale_width="1"
       end_linecap_type="round" />
    <inkscape:path-effect
       effect="simplify"
       id="path-effect136"
       is_visible="true"
       lpeversion="1"
       steps="1"
       threshold="0.0028332064"
       smooth_angles="0"
       helper_size="0"
       simplify_individual_paths="false"
       simplify_just_coalesce="false"
       step="1" />
    <inkscape:path-effect
       effect="powerstroke"
       id="path-effect131"
       is_visible="true"
       lpeversion="1"
       offset_points="1.9940581,0.075169555"
       not_jump="true"
       sort_points="true"
       interpolator_type="CentripetalCatmullRom"
       interpolator_beta="0.75"
       start_linecap_type="round"
       linejoin_type="spiro"
       miter_limit="4"
       scale_width="1"
       end_linecap_type="round" />
    <inkscape:path-effect
       effect="simplify"
       id="path-effect129"
       is_visible="true"
       lpeversion="1"
       steps="1"
       threshold="0.0028332064"
       smooth_angles="0"
       helper_size="0"
       simplify_individual_paths="false"
       simplify_just_coalesce="false"
       step="1" />
  </defs>
  <sodipodi:namedview
     id="base"
     pagecolor="#ffffff"
     bordercolor="#666666"
     borderopacity="1.0"
     inkscape:pageopacity="0.0"
     inkscape:pageshadow="2"
     inkscape:zoom="15.839192"
     inkscape:cx="4.4825519"
     inkscape:cy="19.445436"
     inkscape:document-units="mm"
     inkscape:current-layer="layer1"
     showgrid="false"
     fit-margin-top="0"
     fit-margin-left="0"
     fit-margin-right="0"
     fit-margin-bottom="0"
     inkscape:window-width="1920"
     inkscape:window-height="1057"
     inkscape:window-x="1072"
     inkscape:window-y="321"
     inkscape:window-maximized="1"
     showguides="true"
     inkscape:guide-bbox="true"
     inkscape:snap-bbox="true"
     inkscape:bbox-nodes="true"
     inkscape:snap-nodes="false"
     inkscape:snap-others="false"
     inkscape:snap-page="true"
     inkscape:snap-grids="false"
     inkscape:snap-to-guides="false"
     inkscape:snap-global="false"
     inkscape:pagecheckerboard="0"
     inkscape:showpageshadow="2"
     inkscape:deskcolor="#d1d1d1">
    <sodipodi:guide
       position="-6.1806075,9.4988692"
       orientation="0,1"
       id="guide816"
       inkscape:locked="false" />
    <sodipodi:guide
       position="-4.4101636,10.646923"
       orientation="0,1"
       id="guide818"
       inkscape:locked="false" />
    <sodipodi:guide
       position="2.7595724,11.09577"
       orientation="1,0"
       id="guide820"
       inkscape:locked="false" />
    <sodipodi:guide
       position="3.6572659,10.942217"
       orientation="1,0"
       id="guide822"
       inkscape:locked="false" />
    <sodipodi:guide
       position="-0.051625511,9.7492299"
       orientation="1,0"
       id="guide1853"
       inkscape:locked="false" />
    <sodipodi:guide
       position="-2.3720169,3.0175835"
       orientation="0,1"
       id="guide1855"
       inkscape:locked="false" />
  </sodipodi:namedview>
  <metadata
     id="metadata1678">
    <rdf:RDF>
      <cc:Work
         rdf:about="">
        <dc:format>image/svg+xml</dc:format>
        <dc:type
           rdf:resource="http://purl.org/dc/dcmitype/StillImage" />
      </cc:Work>
    </rdf:RDF>
  </metadata>
  <g
     inkscape:label="Layer 1"
     inkscape:groupmode="layer"
     id="layer1"
     transform="translate(17.028496,-147.22856)">
    <path
       d="m -13.563976,147.91483 c 0.059,0.38201 0.18254,1.26164 0.176831,2.4269 -0.0012,0.24341 -0.0081,0.53577 -0.02721,0.86822 -0.03039,0.29109 -0.09578,0.84599 -0.09845,1.32347 -0.0087,0.28036 -0.01918,0.59136 -0.06913,0.88649 -0.02414,0.14262 -0.05769,0.28335 -0.105328,0.41917 -0.04682,0.13349 -0.107258,0.2623 -0.185939,0.38398 -0.114489,0.17673 -0.26774,0.33716 -0.445432,0.45049 -0.08877,0.0566 -0.182622,0.10082 -0.279848,0.12987 -0.09825,0.0294 -0.199626,0.0432 -0.303151,0.039 -0.28391,-0.008 -0.557836,-0.0866 -0.797361,-0.21189 -0.259852,-0.13589 -0.472623,-0.32307 -0.626571,-0.53361 -0.08601,-0.11925 -0.136595,-0.25166 -0.169608,-0.37327 -0.04335,-0.1597 -0.06346,-0.3334 -0.07413,-0.42955 a 0.11084573,0.11084573 90 0 0 -0.22034,0.0244 c 0.01058,0.0954 0.03212,0.28489 0.08052,0.46319 0.03706,0.1365 0.09671,0.29646 0.204176,0.44546 0.174642,0.23884 0.413604,0.44834 0.703219,0.59979 0.266793,0.13951 0.573974,0.22755 0.892322,0.23699 0.128163,0.005 0.254078,-0.0122 0.374391,-0.0481 0.118829,-0.0355 0.231294,-0.0889 0.335583,-0.15538 0.207862,-0.13256 0.382854,-0.31707 0.512341,-0.51694 0.08945,-0.13835 0.157198,-0.2833 0.209024,-0.43107 0.05266,-0.15013 0.08897,-0.30344 0.114712,-0.45554 0.05289,-0.31244 0.06352,-0.63838 0.07219,-0.91945 0.0026,-0.46645 0.06626,-1.00713 0.09773,-1.30967 0.01979,-0.34195 0.02678,-0.63823 0.02798,-0.88498 0.0058,-1.18142 -0.119486,-2.07372 -0.179426,-2.46182 a 0.11084573,0.11084573 90 0 0 -0.219094,0.0338 z"
       id="path-1"
       inkscape:path-effect="#path-effect453;#path-effect455"
       inkscape:original-d="m -13.454429,147.89791 c 0.160664,1.02235 0.205467,2.08732 0.162931,3.12404 -0.0142,0.3461 -0.07361,0.6888 -0.09282,1.03467 -0.04823,0.86821 0.04499,1.86058 -0.64185,2.5252 -0.14728,0.14251 -0.342784,0.27341 -0.541128,0.3287 -0.688007,0.19178 -1.647264,-0.28877 -1.949248,-0.92176 -0.101151,-0.21202 -0.136484,-0.45126 -0.162931,-0.68245"
       style="fill:#000000;fill-rule:nonzero;stroke:none" />
    <path
       d="m -15.523659,147.81835 c -0.003,-0.0134 -0.0086,-0.029 -0.01899,-0.0446 -0.0082,-0.0123 -0.01835,-0.023 -0.02972,-0.0317 -0.0096,-0.007 -0.0195,-0.0129 -0.02885,-0.0169 -0.0083,-0.004 -0.01634,-0.006 -0.02367,-0.008 -0.01278,-0.003 -0.02483,-0.004 -0.03516,-0.005 -0.0093,-3.8e-4 -0.01837,-1.4e-4 -0.02697,4.2e-4 -0.01096,7.2e-4 -0.02216,0.002 -0.03326,0.004 -0.0041,6.2e-4 -0.0085,0.001 -0.01299,0.002 -0.01298,0.002 -0.02726,0.005 -0.04263,0.009 -0.01264,0.003 -0.02593,0.006 -0.03878,0.0101 -0.01085,0.003 -0.02341,0.007 -0.03432,0.0111 -0.005,0.002 -0.01195,0.005 -0.01922,0.008 -0.0035,0.002 -0.0089,0.005 -0.01492,0.009 -0.0031,0.002 -0.0071,0.005 -0.01162,0.009 -0.0042,0.004 -0.01064,0.01 -0.01726,0.018 -0.0034,0.004 -0.0074,0.01 -0.01123,0.0168 -0.0038,0.007 -0.008,0.0158 -0.01127,0.0267 -0.0032,0.011 -0.0056,0.0244 -0.0053,0.0396 3.41e-4,0.0154 0.0035,0.0312 0.0097,0.0465 0.0062,0.0151 0.01464,0.0276 0.02362,0.0376 0.0088,0.01 0.01791,0.017 0.02577,0.0221 0.01499,0.01 0.02884,0.0145 0.03693,0.0168 0.0086,0.002 0.01603,0.004 0.02102,0.004 0.0052,6.4e-4 0.0097,9.2e-4 0.01318,0.001 0.0067,2.5e-4 0.0126,6e-5 0.01671,-1.5e-4 0.967783,-0.066 2.090071,-0.0836 3.039924,-0.17657 0.323066,-0.0358 0.597794,-0.0843 0.791293,-0.11043 0.01835,-0.002 0.03588,-0.005 0.05274,-0.007 0.357085,-0.0463 0.563871,-0.0486 0.709865,-0.0419 a 0.15097531,0.15097531 90 0 0 0.01375,-0.30164 c -0.16315,-0.007 -0.390983,-0.007 -0.763681,0.0443 -0.01747,0.002 -0.0356,0.005 -0.0545,0.008 -0.199354,0.0289 -0.475529,0.0816 -0.781397,0.12079 -0.930685,0.0994 -2.049917,0.12809 -3.028431,0.20395 -5.64e-4,1.1e-4 0.0039,6e-5 0.0083,2.6e-4 0.0025,1.1e-4 0.0062,3.4e-4 0.01067,9e-4 0.0043,5.3e-4 0.01105,0.002 0.01917,0.004 0.0076,0.002 0.02102,0.007 0.03571,0.0163 0.0077,0.005 0.01668,0.0121 0.02538,0.0218 0.0089,0.01 0.01725,0.0223 0.02339,0.0372 0.0062,0.0151 0.0093,0.0308 0.0096,0.0461 3.33e-4,0.0151 -0.002,0.0284 -0.0052,0.0392 -0.0032,0.0108 -0.0073,0.0195 -0.01106,0.0262 -0.0038,0.007 -0.0076,0.0122 -0.01089,0.0163 -0.0063,0.008 -0.01237,0.0136 -0.01616,0.0169 -0.004,0.003 -0.0076,0.006 -0.01,0.008 -0.0048,0.003 -0.0084,0.005 -0.01013,0.006 -0.0041,0.002 -0.0046,0.002 -0.0041,0.001 0.0011,-0.001 0.0071,-0.004 0.0135,-0.007 0.0075,-0.003 0.01601,-0.006 0.02411,-0.009 0.0098,-0.003 0.01846,-0.006 0.02521,-0.007 0.0023,-5.6e-4 0.0044,-0.001 0.0063,-0.001 0.0051,-0.001 0.0084,-0.002 0.01013,-0.002 0.0013,-1.5e-4 0.001,-7e-5 -7.61e-4,-1.4e-4 -0.0018,-7e-5 -0.0069,-3.6e-4 -0.01404,-0.002 -0.0042,-0.001 -0.0094,-0.003 -0.01542,-0.005 -0.0067,-0.003 -0.01445,-0.007 -0.02234,-0.0131 -0.0094,-0.007 -0.01797,-0.0161 -0.02513,-0.0268 -0.009,-0.0135 -0.01391,-0.027 -0.01646,-0.0386 a 0.12283566,0.12283566 90 0 0 0.239942,-0.0528 z"
       id="path-1-8"
       inkscape:path-effect="#path-effect460;#path-effect462"
       inkscape:original-d="m -15.64363,147.84473 c 0.04411,-0.0402 -0.205428,0.0321 -0.18268,0.0305 0.961403,-0.0697 1.933073,-0.0887 2.896223,-0.17495 0.577045,-0.0517 1.158155,-0.21019 1.737931,-0.18304"
       style="fill:#000000;fill-rule:nonzero;stroke:none" />
  </g>
</svg>
