<?xml version="1.0" encoding="UTF-8" standalone="no"?>
<!-- Created with Inkscape (http://www.inkscape.org/) -->

<svg
   width="4mm"
   height="10mm"
   viewBox="0 0 4.0000001 9.9999994"
   version="1.1"
   id="svg1681"
   inkscape:version="1.2.1 (9c6d41e410, 2022-07-14)"
   sodipodi:docname="lower_m_38.svg"
   inkscape:export-filename="..\..\..\..\Downloads\lower a diff canvas resize 3.0.png"
   inkscape:export-xdpi="96"
   inkscape:export-ydpi="96"
   xmlns:inkscape="http://www.inkscape.org/namespaces/inkscape"
   xmlns:sodipodi="http://sodipodi.sourceforge.net/DTD/sodipodi-0.dtd"
   xmlns="http://www.w3.org/2000/svg"
   xmlns:svg="http://www.w3.org/2000/svg"
   xmlns:rdf="http://www.w3.org/1999/02/22-rdf-syntax-ns#"
   xmlns:cc="http://creativecommons.org/ns#"
   xmlns:dc="http://purl.org/dc/elements/1.1/">
  <defs
     id="defs1675">
    <inkscape:path-effect
       effect="powerstroke"
       id="path-effect6806"
       is_visible="true"
       lpeversion="1"
       offset_points="2.7771306,0.12112282 | 6.7321911,0.1086435 | 9.5445512,0.14045353"
       not_jump="true"
       sort_points="true"
       interpolator_type="CentripetalCatmullRom"
       interpolator_beta="0.75"
       start_linecap_type="round"
       linejoin_type="spiro"
       miter_limit="4"
       scale_width="1"
       end_linecap_type="round" />
    <inkscape:path-effect
       effect="simplify"
       id="path-effect6804"
       is_visible="true"
       lpeversion="1"
       steps="1"
       threshold="0.0047745358"
       smooth_angles="0"
       helper_size="0"
       simplify_individual_paths="false"
       simplify_just_coalesce="false"
       step="1" />
    <inkscape:path-effect
       effect="powerstroke"
       id="path-effect5976"
       is_visible="true"
       lpeversion="1"
       offset_points="2.0404567,0.1316446 | 6.4925582,0.1578267"
       not_jump="true"
       sort_points="true"
       interpolator_type="CentripetalCatmullRom"
       interpolator_beta="0.75"
       start_linecap_type="round"
       linejoin_type="spiro"
       miter_limit="4"
       scale_width="1"
       end_linecap_type="round" />
    <inkscape:path-effect
       effect="simplify"
       id="path-effect5974"
       is_visible="true"
       lpeversion="1"
       steps="1"
       threshold="0.0047745358"
       smooth_angles="0"
       helper_size="0"
       simplify_individual_paths="false"
       simplify_just_coalesce="false"
       step="1" />
    <inkscape:path-effect
       effect="powerstroke"
       id="path-effect5148"
       is_visible="true"
       lpeversion="1"
       offset_points="1.9261061,0.12332505 | 4.5255456,0.097632331 | 7.1327064,0.13188929 | 9.3386949,0.14926246 | 10.838469,0.13458091 | 15.691998,0.15905016"
       not_jump="true"
       sort_points="true"
       interpolator_type="CentripetalCatmullRom"
       interpolator_beta="0.75"
       start_linecap_type="round"
       linejoin_type="spiro"
       miter_limit="4"
       scale_width="1"
       end_linecap_type="round" />
    <inkscape:path-effect
       effect="simplify"
       id="path-effect5146"
       is_visible="true"
       lpeversion="1"
       steps="1"
       threshold="0.0047745358"
       smooth_angles="0"
       helper_size="0"
       simplify_individual_paths="false"
       simplify_just_coalesce="false"
       step="1" />
    <inkscape:path-effect
       effect="powerstroke"
       id="path-effect4322"
       is_visible="true"
       lpeversion="1"
       offset_points="2.8930528,0.11867589 | 7.0466469,0.13874068"
       not_jump="true"
       sort_points="true"
       interpolator_type="CentripetalCatmullRom"
       interpolator_beta="0.75"
       start_linecap_type="round"
       linejoin_type="spiro"
       miter_limit="4"
       scale_width="1"
       end_linecap_type="round" />
    <inkscape:path-effect
       effect="simplify"
       id="path-effect4320"
       is_visible="true"
       lpeversion="1"
       steps="1"
       threshold="0.0047745358"
       smooth_angles="0"
       helper_size="0"
       simplify_individual_paths="false"
       simplify_just_coalesce="false"
       step="1" />
    <inkscape:path-effect
       effect="powerstroke"
       id="path-effect3498"
       is_visible="true"
       lpeversion="1"
       offset_points="2.349377,0.11818651 | 10.377256,0.15073062"
       not_jump="true"
       sort_points="true"
       interpolator_type="CentripetalCatmullRom"
       interpolator_beta="0.75"
       start_linecap_type="round"
       linejoin_type="spiro"
       miter_limit="4"
       scale_width="1"
       end_linecap_type="round" />
    <inkscape:path-effect
       effect="simplify"
       id="path-effect3496"
       is_visible="true"
       lpeversion="1"
       steps="1"
       threshold="0.0047745358"
       smooth_angles="0"
       helper_size="0"
       simplify_individual_paths="false"
       simplify_just_coalesce="false"
       step="1" />
    <inkscape:path-effect
       effect="powerstroke"
       id="path-effect2763"
       is_visible="true"
       lpeversion="1"
       offset_points="0.11771695,0.11378204"
       not_jump="true"
       sort_points="true"
       interpolator_type="CentripetalCatmullRom"
       interpolator_beta="0.75"
       start_linecap_type="round"
       linejoin_type="spiro"
       miter_limit="4"
       scale_width="1"
       end_linecap_type="round" />
    <inkscape:path-effect
       effect="simplify"
       id="path-effect2761"
       is_visible="true"
       lpeversion="1"
       steps="1"
       threshold="0.0047745358"
       smooth_angles="0"
       helper_size="0"
       simplify_individual_paths="false"
       simplify_just_coalesce="false"
       step="1" />
    <inkscape:path-effect
       effect="powerstroke"
       id="path-effect14456"
       is_visible="true"
       lpeversion="1"
       offset_points="1.7772115,0.14363453 | 5.5715271,0.17568926"
       not_jump="true"
       sort_points="true"
       interpolator_type="CentripetalCatmullRom"
       interpolator_beta="0.75"
       start_linecap_type="round"
       linejoin_type="spiro"
       miter_limit="4"
       scale_width="1"
       end_linecap_type="round" />
    <inkscape:path-effect
       effect="simplify"
       id="path-effect14454"
       is_visible="true"
       lpeversion="1"
       steps="1"
       threshold="0.0047745358"
       smooth_angles="0"
       helper_size="0"
       simplify_individual_paths="false"
       simplify_just_coalesce="false"
       step="1" />
    <inkscape:path-effect
       effect="powerstroke"
       id="path-effect13640"
       is_visible="true"
       lpeversion="1"
       offset_points="1.8518347,0.13531498 | 4.1772502,0.10717534 | 8.216531,0.15562447 | 10.133993,0.13678314 | 12.94433,0.16345463"
       not_jump="true"
       sort_points="true"
       interpolator_type="CentripetalCatmullRom"
       interpolator_beta="0.75"
       start_linecap_type="round"
       linejoin_type="spiro"
       miter_limit="4"
       scale_width="1"
       end_linecap_type="round" />
    <inkscape:path-effect
       effect="simplify"
       id="path-effect13638"
       is_visible="true"
       lpeversion="1"
       steps="1"
       threshold="0.0047745358"
       smooth_angles="0"
       helper_size="0"
       simplify_individual_paths="false"
       simplify_just_coalesce="false"
       step="1" />
    <inkscape:path-effect
       effect="powerstroke"
       id="path-effect12826"
       is_visible="true"
       lpeversion="1"
       offset_points="1.7173498,0.15513508 | 5.0170607,0.13923007 | 7.8693365,0.18474288"
       not_jump="true"
       sort_points="true"
       interpolator_type="CentripetalCatmullRom"
       interpolator_beta="0.75"
       start_linecap_type="round"
       linejoin_type="spiro"
       miter_limit="4"
       scale_width="1"
       end_linecap_type="round" />
    <inkscape:path-effect
       effect="simplify"
       id="path-effect12824"
       is_visible="true"
       lpeversion="1"
       steps="1"
       threshold="0.0047745358"
       smooth_angles="0"
       helper_size="0"
       simplify_individual_paths="false"
       simplify_just_coalesce="false"
       step="1" />
    <inkscape:path-effect
       effect="powerstroke"
       id="path-effect10483"
       is_visible="true"
       lpeversion="1"
       offset_points="1.8595848,0.13335744 | 3.1296086,0.11745243 | 8.6041726,0.16418871 | 9.3768326,0.14657084 | 11.960881,0.17495518"
       not_jump="true"
       sort_points="true"
       interpolator_type="CentripetalCatmullRom"
       interpolator_beta="0.75"
       start_linecap_type="round"
       linejoin_type="spiro"
       miter_limit="4"
       scale_width="1"
       end_linecap_type="round" />
    <inkscape:path-effect
       effect="simplify"
       id="path-effect10481"
       is_visible="true"
       lpeversion="1"
       steps="1"
       threshold="0.0047745358"
       smooth_angles="0"
       helper_size="0"
       simplify_individual_paths="false"
       simplify_just_coalesce="false"
       step="1" />
    <inkscape:path-effect
       effect="powerstroke"
       id="path-effect8097"
       is_visible="true"
       lpeversion="1"
       offset_points="1.4061348,0.11573958 | 7.3805892,0.14241107 | 7.9541774,0.12356974 | 11.56231,0.14387922"
       not_jump="true"
       sort_points="true"
       interpolator_type="CentripetalCatmullRom"
       interpolator_beta="0.75"
       start_linecap_type="round"
       linejoin_type="spiro"
       miter_limit="4"
       scale_width="1"
       end_linecap_type="round" />
    <inkscape:path-effect
       effect="simplify"
       id="path-effect8095"
       is_visible="true"
       lpeversion="1"
       steps="1"
       threshold="0.0047745358"
       smooth_angles="0"
       helper_size="0"
       simplify_individual_paths="false"
       simplify_just_coalesce="false"
       step="1" />
    <inkscape:path-effect
       effect="powerstroke"
       id="path-effect7289"
       is_visible="true"
       lpeversion="1"
       offset_points="2.0361583,0.1216122 | 6.7004661,0.13678314 | 9.3476469,0.12087812 | 11.342412,0.14510269"
       not_jump="true"
       sort_points="true"
       interpolator_type="CentripetalCatmullRom"
       interpolator_beta="0.75"
       start_linecap_type="round"
       linejoin_type="spiro"
       miter_limit="4"
       scale_width="1"
       end_linecap_type="round" />
    <inkscape:path-effect
       effect="simplify"
       id="path-effect7287"
       is_visible="true"
       lpeversion="1"
       steps="1"
       threshold="0.0047745358"
       smooth_angles="0"
       helper_size="0"
       simplify_individual_paths="false"
       simplify_just_coalesce="false"
       step="1" />
    <inkscape:path-effect
       effect="powerstroke"
       id="path-effect6483"
       is_visible="true"
       lpeversion="1"
       offset_points="1.9175568,0.097877023 | 3.253401,0.081482622 | 7.4612982,0.12405913 | 10.372845,0.10693065 | 12.339008,0.12846359"
       not_jump="true"
       sort_points="true"
       interpolator_type="CentripetalCatmullRom"
       interpolator_beta="0.75"
       start_linecap_type="round"
       linejoin_type="spiro"
       miter_limit="4"
       scale_width="1"
       end_linecap_type="round" />
    <inkscape:path-effect
       effect="simplify"
       id="path-effect6481"
       is_visible="true"
       lpeversion="1"
       steps="1"
       threshold="0.0047745358"
       smooth_angles="0"
       helper_size="0"
       simplify_individual_paths="false"
       simplify_just_coalesce="false"
       step="1" />
    <inkscape:path-effect
       effect="powerstroke"
       id="path-effect4953"
       is_visible="true"
       lpeversion="1"
       offset_points="1.5509816,0.11916528 | 12.474985,0.14290045"
       not_jump="true"
       sort_points="true"
       interpolator_type="CentripetalCatmullRom"
       interpolator_beta="0.75"
       start_linecap_type="round"
       linejoin_type="spiro"
       miter_limit="4"
       scale_width="1"
       end_linecap_type="round" />
    <inkscape:path-effect
       effect="simplify"
       id="path-effect4951"
       is_visible="true"
       lpeversion="1"
       steps="1"
       threshold="0.0047745358"
       smooth_angles="0"
       helper_size="0"
       simplify_individual_paths="false"
       simplify_just_coalesce="false"
       step="1" />
    <inkscape:path-effect
       effect="powerstroke"
       id="path-effect4151"
       is_visible="true"
       lpeversion="1"
       offset_points="1.7653631,0.12283566 | 7.8722155,0.16076301 | 12.89872,0.18670042"
       not_jump="true"
       sort_points="true"
       interpolator_type="CentripetalCatmullRom"
       interpolator_beta="0.75"
       start_linecap_type="round"
       linejoin_type="spiro"
       miter_limit="4"
       scale_width="1"
       end_linecap_type="round" />
    <inkscape:path-effect
       effect="simplify"
       id="path-effect4149"
       is_visible="true"
       lpeversion="1"
       steps="1"
       threshold="0.0047745358"
       smooth_angles="0"
       helper_size="0"
       simplify_individual_paths="false"
       simplify_just_coalesce="false"
       step="1" />
    <inkscape:path-effect
       effect="powerstroke"
       id="path-effect3351"
       is_visible="true"
       lpeversion="1"
       offset_points="1.5146059,0.1086435 | 8.7080238,0.13458091 | 9.945315,0.11353735 | 13.211737,0.14241107"
       not_jump="true"
       sort_points="true"
       interpolator_type="CentripetalCatmullRom"
       interpolator_beta="0.75"
       start_linecap_type="round"
       linejoin_type="spiro"
       miter_limit="4"
       scale_width="1"
       end_linecap_type="round" />
    <inkscape:path-effect
       effect="simplify"
       id="path-effect3349"
       is_visible="true"
       lpeversion="1"
       steps="1"
       threshold="0.0047745358"
       smooth_angles="0"
       helper_size="0"
       simplify_individual_paths="false"
       simplify_just_coalesce="false"
       step="1" />
    <inkscape:path-effect
       effect="powerstroke"
       id="path-effect2553"
       is_visible="true"
       lpeversion="1"
       offset_points="1.9976508,0.10815411 | 9.5478711,0.12846359 | 10.285176,0.11353735 | 14.394028,0.14192168"
       not_jump="true"
       sort_points="true"
       interpolator_type="CentripetalCatmullRom"
       interpolator_beta="0.75"
       start_linecap_type="round"
       linejoin_type="spiro"
       miter_limit="4"
       scale_width="1"
       end_linecap_type="round" />
    <inkscape:path-effect
       effect="simplify"
       id="path-effect2551"
       is_visible="true"
       lpeversion="1"
       steps="1"
       threshold="0.0047745358"
       smooth_angles="0"
       helper_size="0"
       simplify_individual_paths="false"
       simplify_just_coalesce="false"
       step="1" />
    <inkscape:path-effect
       effect="powerstroke"
       id="path-effect1757"
       is_visible="true"
       lpeversion="1"
       offset_points="1.532114,0.12454851 | 6.3788683,0.15170939 | 7.8234677,0.1250379 | 10.803321,0.16883787"
       not_jump="true"
       sort_points="true"
       interpolator_type="CentripetalCatmullRom"
       interpolator_beta="0.75"
       start_linecap_type="round"
       linejoin_type="spiro"
       miter_limit="4"
       scale_width="1"
       end_linecap_type="round" />
    <inkscape:path-effect
       effect="simplify"
       id="path-effect1755"
       is_visible="true"
       lpeversion="1"
       steps="1"
       threshold="0.0047745358"
       smooth_angles="0"
       helper_size="0"
       simplify_individual_paths="false"
       simplify_just_coalesce="false"
       step="1" />
    <inkscape:path-effect
       effect="powerstroke"
       id="path-effect963"
       is_visible="true"
       lpeversion="1"
       offset_points="1.4436445,0.12650605 | 5.5065269,0.15268816 | 7.7050672,0.13507029 | 9.3985828,0.16908256"
       not_jump="true"
       sort_points="true"
       interpolator_type="CentripetalCatmullRom"
       interpolator_beta="0.75"
       start_linecap_type="round"
       linejoin_type="spiro"
       miter_limit="4"
       scale_width="1"
       end_linecap_type="round" />
    <inkscape:path-effect
       effect="simplify"
       id="path-effect961"
       is_visible="true"
       lpeversion="1"
       steps="1"
       threshold="0.0047745358"
       smooth_angles="0"
       helper_size="0"
       simplify_individual_paths="false"
       simplify_just_coalesce="false"
       step="1" />
    <inkscape:path-effect
       effect="powerstroke"
       id="path-effect805"
       is_visible="true"
       lpeversion="1"
       offset_points="1.3207447,0.13115521 | 10.325754,0.14706023"
       not_jump="true"
       sort_points="true"
       interpolator_type="CentripetalCatmullRom"
       interpolator_beta="0.75"
       start_linecap_type="round"
       linejoin_type="spiro"
       miter_limit="4"
       scale_width="1"
       end_linecap_type="round" />
    <inkscape:path-effect
       effect="simplify"
       id="path-effect803"
       is_visible="true"
       lpeversion="1"
       steps="1"
       threshold="0.0047745358"
       smooth_angles="0"
       helper_size="0"
       simplify_individual_paths="false"
       simplify_just_coalesce="false"
       step="1" />
    <inkscape:path-effect
       effect="powerstroke"
       id="path-effect742"
       is_visible="true"
       lpeversion="1"
       offset_points="2.3665113,0.09371725 | 7.9063398,0.10448372"
       not_jump="true"
       sort_points="true"
       interpolator_type="CentripetalCatmullRom"
       interpolator_beta="0.75"
       start_linecap_type="round"
       linejoin_type="spiro"
       miter_limit="4"
       scale_width="1"
       end_linecap_type="round" />
    <inkscape:path-effect
       effect="simplify"
       id="path-effect740"
       is_visible="true"
       lpeversion="1"
       steps="1"
       threshold="0.0047745358"
       smooth_angles="0"
       helper_size="0"
       simplify_individual_paths="false"
       simplify_just_coalesce="false"
       step="1" />
    <inkscape:path-effect
       effect="powerstroke"
       id="path-effect681"
       is_visible="true"
       lpeversion="1"
       offset_points="2.217234,0.10252618 | 8.9442199,0.11769712"
       not_jump="true"
       sort_points="true"
       interpolator_type="CentripetalCatmullRom"
       interpolator_beta="0.75"
       start_linecap_type="round"
       linejoin_type="spiro"
       miter_limit="4"
       scale_width="1"
       end_linecap_type="round" />
    <inkscape:path-effect
       effect="simplify"
       id="path-effect679"
       is_visible="true"
       lpeversion="1"
       steps="1"
       threshold="0.0047745358"
       smooth_angles="0"
       helper_size="0"
       simplify_individual_paths="false"
       simplify_just_coalesce="false"
       step="1" />
    <inkscape:path-effect
       effect="powerstroke"
       id="path-effect622"
       is_visible="true"
       lpeversion="1"
       offset_points="1.7202203,0.1083988"
       not_jump="true"
       sort_points="true"
       interpolator_type="CentripetalCatmullRom"
       interpolator_beta="0.75"
       start_linecap_type="round"
       linejoin_type="spiro"
       miter_limit="4"
       scale_width="1"
       end_linecap_type="round" />
    <inkscape:path-effect
       effect="simplify"
       id="path-effect620"
       is_visible="true"
       lpeversion="1"
       steps="1"
       threshold="0.0047745358"
       smooth_angles="0"
       helper_size="0"
       simplify_individual_paths="false"
       simplify_just_coalesce="false"
       step="1" />
    <inkscape:path-effect
       effect="powerstroke"
       id="path-effect565"
       is_visible="true"
       lpeversion="1"
       offset_points="2.2898405,0.099589871 | 6.6413189,0.085887088 | 9.3403103,0.097877023 | 13.278467,0.11427142"
       not_jump="true"
       sort_points="true"
       interpolator_type="CentripetalCatmullRom"
       interpolator_beta="0.75"
       start_linecap_type="round"
       linejoin_type="spiro"
       miter_limit="4"
       scale_width="1"
       end_linecap_type="round" />
    <inkscape:path-effect
       effect="simplify"
       id="path-effect563"
       is_visible="true"
       lpeversion="1"
       steps="1"
       threshold="0.0047745358"
       smooth_angles="0"
       helper_size="0"
       simplify_individual_paths="false"
       simplify_just_coalesce="false"
       step="1" />
    <inkscape:path-effect
       effect="powerstroke"
       id="path-effect510"
       is_visible="true"
       lpeversion="1"
       offset_points="1.9176024,0.17666803 | 6.6799515,0.12405913 | 8.9071225,0.13923007 | 11.94271,0.12626136 | 14.359274,0.148039"
       not_jump="true"
       sort_points="true"
       interpolator_type="CentripetalCatmullRom"
       interpolator_beta="0.75"
       start_linecap_type="round"
       linejoin_type="spiro"
       miter_limit="4"
       scale_width="1"
       end_linecap_type="round" />
    <inkscape:path-effect
       effect="simplify"
       id="path-effect508"
       is_visible="true"
       lpeversion="1"
       steps="1"
       threshold="0.0047745358"
       smooth_angles="0"
       helper_size="0"
       simplify_individual_paths="false"
       simplify_just_coalesce="false"
       step="1" />
    <inkscape:path-effect
       effect="powerstroke"
       id="path-effect457"
       is_visible="true"
       lpeversion="1"
       offset_points="1.698284,0.11157981"
       not_jump="true"
       sort_points="true"
       interpolator_type="CentripetalCatmullRom"
       interpolator_beta="0.75"
       start_linecap_type="round"
       linejoin_type="spiro"
       miter_limit="4"
       scale_width="1"
       end_linecap_type="round" />
    <inkscape:path-effect
       effect="simplify"
       id="path-effect455"
       is_visible="true"
       lpeversion="1"
       steps="1"
       threshold="0.0047745358"
       smooth_angles="0"
       helper_size="0"
       simplify_individual_paths="false"
       simplify_just_coalesce="false"
       step="1" />
    <inkscape:path-effect
       effect="powerstroke"
       id="path-effect450"
       is_visible="true"
       lpeversion="1"
       offset_points="2.3032336,0.10448372 | 5.4261225,0.1216122 | 9.9205125,0.13971945"
       not_jump="true"
       sort_points="true"
       interpolator_type="CentripetalCatmullRom"
       interpolator_beta="0.75"
       start_linecap_type="round"
       linejoin_type="spiro"
       miter_limit="4"
       scale_width="1"
       end_linecap_type="round" />
    <inkscape:path-effect
       effect="simplify"
       id="path-effect448"
       is_visible="true"
       lpeversion="1"
       steps="1"
       threshold="0.0047745358"
       smooth_angles="0"
       helper_size="0"
       simplify_individual_paths="false"
       simplify_just_coalesce="false"
       step="1" />
    <inkscape:path-effect
       effect="powerstroke"
       id="path-effect401"
       is_visible="true"
       lpeversion="1"
       offset_points="1.919598,0.085642395 | 7.1414337,0.095185405 | 11.392776,0.11084573"
       not_jump="true"
       sort_points="true"
       interpolator_type="CentripetalCatmullRom"
       interpolator_beta="0.75"
       start_linecap_type="round"
       linejoin_type="spiro"
       miter_limit="4"
       scale_width="1"
       end_linecap_type="round" />
    <inkscape:path-effect
       effect="simplify"
       id="path-effect399"
       is_visible="true"
       lpeversion="1"
       steps="1"
       threshold="0.0047745358"
       smooth_angles="0"
       helper_size="0"
       simplify_individual_paths="false"
       simplify_just_coalesce="false"
       step="1" />
    <inkscape:path-effect
       effect="powerstroke"
       id="path-effect354"
       is_visible="true"
       lpeversion="1"
       offset_points="1.8669648,0.097632331 | 3.3867434,0.08319547 | 6.5616288,0.10448372"
       not_jump="true"
       sort_points="true"
       interpolator_type="CentripetalCatmullRom"
       interpolator_beta="0.75"
       start_linecap_type="round"
       linejoin_type="spiro"
       miter_limit="4"
       scale_width="1"
       end_linecap_type="round" />
    <inkscape:path-effect
       effect="simplify"
       id="path-effect352"
       is_visible="true"
       lpeversion="1"
       steps="1"
       threshold="0.0047745358"
       smooth_angles="0"
       helper_size="0"
       simplify_individual_paths="false"
       simplify_just_coalesce="false"
       step="1" />
    <inkscape:path-effect
       effect="powerstroke"
       id="path-effect309"
       is_visible="true"
       lpeversion="1"
       offset_points="1.7013678,0.12014405 | 7.8476699,0.13580437"
       not_jump="true"
       sort_points="true"
       interpolator_type="CentripetalCatmullRom"
       interpolator_beta="0.75"
       start_linecap_type="round"
       linejoin_type="spiro"
       miter_limit="4"
       scale_width="1"
       end_linecap_type="round" />
    <inkscape:path-effect
       effect="simplify"
       id="path-effect307"
       is_visible="true"
       lpeversion="1"
       steps="1"
       threshold="0.0047745358"
       smooth_angles="0"
       helper_size="0"
       simplify_individual_paths="false"
       simplify_just_coalesce="false"
       step="1" />
    <inkscape:path-effect
       effect="powerstroke"
       id="path-effect302"
       is_visible="true"
       lpeversion="1"
       offset_points="2.2193262,0.1282189"
       not_jump="true"
       sort_points="true"
       interpolator_type="CentripetalCatmullRom"
       interpolator_beta="0.75"
       start_linecap_type="round"
       linejoin_type="spiro"
       miter_limit="4"
       scale_width="1"
       end_linecap_type="round" />
    <inkscape:path-effect
       effect="simplify"
       id="path-effect300"
       is_visible="true"
       lpeversion="1"
       steps="1"
       threshold="0.0047745358"
       smooth_angles="0"
       helper_size="0"
       simplify_individual_paths="false"
       simplify_just_coalesce="false"
       step="1" />
    <inkscape:path-effect
       effect="powerstroke"
       id="path-effect329"
       is_visible="true"
       lpeversion="1"
       offset_points="2.036852,0.12799523 | 9.038239,0.16903718 | 11.263778,0.13750213"
       not_jump="true"
       sort_points="true"
       interpolator_type="CentripetalCatmullRom"
       interpolator_beta="0.75"
       start_linecap_type="round"
       linejoin_type="spiro"
       miter_limit="4"
       scale_width="1"
       end_linecap_type="round" />
    <inkscape:path-effect
       effect="simplify"
       id="path-effect327"
       is_visible="true"
       lpeversion="1"
       steps="1"
       threshold="0.0035951417"
       smooth_angles="0"
       helper_size="0"
       simplify_individual_paths="false"
       simplify_just_coalesce="false"
       step="1" />
    <inkscape:path-effect
       effect="powerstroke"
       id="path-effect502"
       is_visible="true"
       lpeversion="1"
       offset_points="3.0091841,0.21607495 | 7.3602657,0.17554228 | 9.4159651,0.20236537"
       not_jump="true"
       sort_points="true"
       interpolator_type="CentripetalCatmullRom"
       interpolator_beta="0.75"
       start_linecap_type="round"
       linejoin_type="spiro"
       miter_limit="4"
       scale_width="1"
       end_linecap_type="round" />
    <inkscape:path-effect
       effect="simplify"
       id="path-effect500"
       is_visible="true"
       lpeversion="1"
       steps="1"
       threshold="0.0035951417"
       smooth_angles="0"
       helper_size="0"
       simplify_individual_paths="false"
       simplify_just_coalesce="false"
       step="1" />
    <inkscape:path-effect
       effect="powerstroke"
       id="path-effect241"
       is_visible="true"
       lpeversion="1"
       offset_points="2.6879454,0.34086734"
       not_jump="true"
       sort_points="true"
       interpolator_type="CentripetalCatmullRom"
       interpolator_beta="0.75"
       start_linecap_type="round"
       linejoin_type="spiro"
       miter_limit="4"
       scale_width="1"
       end_linecap_type="round" />
    <inkscape:path-effect
       effect="simplify"
       id="path-effect239"
       is_visible="true"
       lpeversion="1"
       steps="1"
       threshold="0.0028332064"
       smooth_angles="0"
       helper_size="0"
       simplify_individual_paths="false"
       simplify_just_coalesce="false"
       step="1" />
    <inkscape:path-effect
       effect="powerstroke"
       id="path-effect234"
       is_visible="true"
       lpeversion="1"
       offset_points="2.13563,0.075169555"
       not_jump="true"
       sort_points="true"
       interpolator_type="CentripetalCatmullRom"
       interpolator_beta="0.75"
       start_linecap_type="round"
       linejoin_type="spiro"
       miter_limit="4"
       scale_width="1"
       end_linecap_type="round" />
    <inkscape:path-effect
       effect="simplify"
       id="path-effect232"
       is_visible="true"
       lpeversion="1"
       steps="1"
       threshold="0.0028332064"
       smooth_angles="0"
       helper_size="0"
       simplify_individual_paths="false"
       simplify_just_coalesce="false"
       step="1" />
    <inkscape:path-effect
       effect="powerstroke"
       id="path-effect227"
       is_visible="true"
       lpeversion="1"
       offset_points="2.1868266,0.075169555"
       not_jump="true"
       sort_points="true"
       interpolator_type="CentripetalCatmullRom"
       interpolator_beta="0.75"
       start_linecap_type="round"
       linejoin_type="spiro"
       miter_limit="4"
       scale_width="1"
       end_linecap_type="round" />
    <inkscape:path-effect
       effect="simplify"
       id="path-effect225"
       is_visible="true"
       lpeversion="1"
       steps="1"
       threshold="0.0028332064"
       smooth_angles="0"
       helper_size="0"
       simplify_individual_paths="false"
       simplify_just_coalesce="false"
       step="1" />
    <inkscape:path-effect
       effect="powerstroke"
       id="path-effect166"
       is_visible="true"
       lpeversion="1"
       offset_points="1.9637935,0.075169555"
       not_jump="true"
       sort_points="true"
       interpolator_type="CentripetalCatmullRom"
       interpolator_beta="0.75"
       start_linecap_type="round"
       linejoin_type="spiro"
       miter_limit="4"
       scale_width="1"
       end_linecap_type="round" />
    <inkscape:path-effect
       effect="simplify"
       id="path-effect164"
       is_visible="true"
       lpeversion="1"
       steps="1"
       threshold="0.0028332064"
       smooth_angles="0"
       helper_size="0"
       simplify_individual_paths="false"
       simplify_just_coalesce="false"
       step="1" />
    <inkscape:path-effect
       effect="powerstroke"
       id="path-effect159"
       is_visible="true"
       lpeversion="1"
       offset_points="2.2611036,0.075169555"
       not_jump="true"
       sort_points="true"
       interpolator_type="CentripetalCatmullRom"
       interpolator_beta="0.75"
       start_linecap_type="round"
       linejoin_type="spiro"
       miter_limit="4"
       scale_width="1"
       end_linecap_type="round" />
    <inkscape:path-effect
       effect="simplify"
       id="path-effect157"
       is_visible="true"
       lpeversion="1"
       steps="1"
       threshold="0.0028332064"
       smooth_angles="0"
       helper_size="0"
       simplify_individual_paths="false"
       simplify_just_coalesce="false"
       step="1" />
    <inkscape:path-effect
       effect="powerstroke"
       id="path-effect152"
       is_visible="true"
       lpeversion="1"
       offset_points="2.826981,0.075169555"
       not_jump="true"
       sort_points="true"
       interpolator_type="CentripetalCatmullRom"
       interpolator_beta="0.75"
       start_linecap_type="round"
       linejoin_type="spiro"
       miter_limit="4"
       scale_width="1"
       end_linecap_type="round" />
    <inkscape:path-effect
       effect="simplify"
       id="path-effect150"
       is_visible="true"
       lpeversion="1"
       steps="1"
       threshold="0.0028332064"
       smooth_angles="0"
       helper_size="0"
       simplify_individual_paths="false"
       simplify_just_coalesce="false"
       step="1" />
    <inkscape:path-effect
       effect="powerstroke"
       id="path-effect145"
       is_visible="true"
       lpeversion="1"
       offset_points="3.8374447,0.075169555"
       not_jump="true"
       sort_points="true"
       interpolator_type="CentripetalCatmullRom"
       interpolator_beta="0.75"
       start_linecap_type="round"
       linejoin_type="spiro"
       miter_limit="4"
       scale_width="1"
       end_linecap_type="round" />
    <inkscape:path-effect
       effect="simplify"
       id="path-effect143"
       is_visible="true"
       lpeversion="1"
       steps="1"
       threshold="0.0028332064"
       smooth_angles="0"
       helper_size="0"
       simplify_individual_paths="false"
       simplify_just_coalesce="false"
       step="1" />
    <inkscape:path-effect
       effect="powerstroke"
       id="path-effect138"
       is_visible="true"
       lpeversion="1"
       offset_points="2.6880907,0.075169555"
       not_jump="true"
       sort_points="true"
       interpolator_type="CentripetalCatmullRom"
       interpolator_beta="0.75"
       start_linecap_type="round"
       linejoin_type="spiro"
       miter_limit="4"
       scale_width="1"
       end_linecap_type="round" />
    <inkscape:path-effect
       effect="simplify"
       id="path-effect136"
       is_visible="true"
       lpeversion="1"
       steps="1"
       threshold="0.0028332064"
       smooth_angles="0"
       helper_size="0"
       simplify_individual_paths="false"
       simplify_just_coalesce="false"
       step="1" />
    <inkscape:path-effect
       effect="powerstroke"
       id="path-effect131"
       is_visible="true"
       lpeversion="1"
       offset_points="1.9940581,0.075169555"
       not_jump="true"
       sort_points="true"
       interpolator_type="CentripetalCatmullRom"
       interpolator_beta="0.75"
       start_linecap_type="round"
       linejoin_type="spiro"
       miter_limit="4"
       scale_width="1"
       end_linecap_type="round" />
    <inkscape:path-effect
       effect="simplify"
       id="path-effect129"
       is_visible="true"
       lpeversion="1"
       steps="1"
       threshold="0.0028332064"
       smooth_angles="0"
       helper_size="0"
       simplify_individual_paths="false"
       simplify_just_coalesce="false"
       step="1" />
  </defs>
  <sodipodi:namedview
     id="base"
     pagecolor="#ffffff"
     bordercolor="#666666"
     borderopacity="1.0"
     inkscape:pageopacity="0.0"
     inkscape:pageshadow="2"
     inkscape:zoom="15.839192"
     inkscape:cx="1.8624687"
     inkscape:cy="19.824244"
     inkscape:document-units="mm"
     inkscape:current-layer="layer1"
     showgrid="false"
     fit-margin-top="0"
     fit-margin-left="0"
     fit-margin-right="0"
     fit-margin-bottom="0"
     inkscape:window-width="1920"
     inkscape:window-height="1057"
     inkscape:window-x="1072"
     inkscape:window-y="321"
     inkscape:window-maximized="1"
     showguides="true"
     inkscape:guide-bbox="true"
     inkscape:snap-bbox="true"
     inkscape:bbox-nodes="true"
     inkscape:snap-nodes="false"
     inkscape:snap-others="false"
     inkscape:snap-page="true"
     inkscape:snap-grids="false"
     inkscape:snap-to-guides="false"
     inkscape:snap-global="false"
     inkscape:pagecheckerboard="0"
     inkscape:showpageshadow="2"
     inkscape:deskcolor="#d1d1d1">
    <sodipodi:guide
       position="-6.1806075,9.4988692"
       orientation="0,1"
       id="guide816"
       inkscape:locked="false" />
    <sodipodi:guide
       position="-4.4101636,10.646923"
       orientation="0,1"
       id="guide818"
       inkscape:locked="false" />
    <sodipodi:guide
       position="2.7595724,11.09577"
       orientation="1,0"
       id="guide820"
       inkscape:locked="false" />
    <sodipodi:guide
       position="3.6572659,10.942217"
       orientation="1,0"
       id="guide822"
       inkscape:locked="false" />
    <sodipodi:guide
       position="-0.051625511,9.7492299"
       orientation="1,0"
       id="guide1853"
       inkscape:locked="false" />
    <sodipodi:guide
       position="-2.3720169,3.0175835"
       orientation="0,1"
       id="guide1855"
       inkscape:locked="false" />
    <sodipodi:guide
       position="3.7250688,7.3106001"
       orientation="0,-1"
       id="guide787"
       inkscape:locked="false" />
  </sodipodi:namedview>
  <metadata
     id="metadata1678">
    <rdf:RDF>
      <cc:Work
         rdf:about="">
        <dc:format>image/svg+xml</dc:format>
        <dc:type
           rdf:resource="http://purl.org/dc/dcmitype/StillImage" />
      </cc:Work>
    </rdf:RDF>
  </metadata>
  <g
     inkscape:label="Layer 1"
     inkscape:groupmode="layer"
     id="layer1"
     transform="translate(17.028496,-147.22856)">
    <path
       d="m -16.921818,149.90541 c -0.0018,-0.006 -0.0042,-0.0165 -0.0061,-0.0308 -7.06e-4,-0.005 -0.0012,-0.0105 -0.0015,-0.0149 -2.79e-4,-0.004 -3.13e-4,-0.007 -2.88e-4,-0.006 1.1e-5,4.1e-4 1.4e-4,0.001 -3.43e-4,0.007 -1.83e-4,0.002 -6.71e-4,0.007 -0.002,0.0126 -6.62e-4,0.003 -0.0018,0.008 -0.0039,0.0137 -0.0018,0.005 -0.0057,0.0153 -0.01323,0.0266 -0.0039,0.006 -0.0098,0.0136 -0.01812,0.0214 -0.0084,0.008 -0.02034,0.0168 -0.03617,0.0234 -0.01631,0.007 -0.03463,0.0102 -0.05369,0.009 -0.01863,-0.001 -0.03446,-0.006 -0.04678,-0.0124 -0.012,-0.006 -0.02101,-0.0129 -0.02725,-0.0185 -0.0063,-0.006 -0.01097,-0.0111 -0.01426,-0.0153 -0.0063,-0.008 -0.01027,-0.0153 -0.01233,-0.0193 -0.0022,-0.004 -0.0038,-0.008 -0.0047,-0.0105 -9.88e-4,-0.003 -0.0017,-0.005 -0.0022,-0.006 -9.33e-4,-0.003 -0.0015,-0.005 -0.0017,-0.006 -4.57e-4,-0.002 -4.8e-4,-0.002 -2.23e-4,-6.3e-4 2.29e-4,0.001 5.84e-4,0.004 0.0011,0.007 9.29e-4,0.007 0.0021,0.017 0.0036,0.0314 0.0106,0.31046 0.0085,0.63292 0.0015,0.98639 -0.02578,0.61934 -0.08868,1.22599 -0.114541,1.84792 -0.0072,0.17526 -0.01149,0.35498 -0.01061,0.53717 -1.45e-4,0.12425 -0.005,0.25766 -0.0034,0.39707 0.0015,0.1329 0.0091,0.27361 0.03594,0.41495 9.65e-4,0.005 0.002,0.0102 0.0035,0.0151 0.0016,0.005 0.0037,0.01 0.006,0.0143 0.0044,0.009 0.0092,0.0179 0.01432,0.0263 0.0047,0.008 0.01171,0.0183 0.02117,0.0286 0.0048,0.005 0.01204,0.0123 0.0217,0.0192 0.0094,0.007 0.02469,0.0155 0.0453,0.0199 0.0106,0.002 0.0225,0.003 0.03526,0.002 0.01284,-0.001 0.02527,-0.004 0.03685,-0.009 0.01147,-0.005 0.02109,-0.0114 0.02894,-0.018 0.0078,-0.007 0.0138,-0.0133 0.01841,-0.0194 0.0089,-0.0118 0.01404,-0.023 0.01696,-0.0306 0.003,-0.008 0.0049,-0.0151 0.0061,-0.0205 0.0023,-0.0106 0.0032,-0.0204 0.0036,-0.0276 4.33e-4,-0.008 4.86e-4,-0.0151 3.79e-4,-0.0219 -1.09e-4,-0.007 -3.98e-4,-0.0139 -7.75e-4,-0.0207 -7.49e-4,-0.0135 -0.0019,-0.0277 -0.0032,-0.041 -0.0012,-0.0132 -0.0026,-0.0268 -0.0037,-0.0382 -0.0012,-0.0123 -0.0021,-0.0211 -0.0027,-0.0287 -2.75e-4,-0.003 -4.34e-4,-0.006 -5.36e-4,-0.007 -2.24e-4,0.001 -4.48e-4,0.004 -8.79e-4,0.007 l 6.89e-4,-0.0227 c -0.03145,-0.41362 -0.06804,-0.78928 -0.06638,-1.17809 -0.0025,-0.51685 0.0098,-0.99136 0.08092,-1.454 0.02769,-0.18014 0.06334,-0.35135 0.107782,-0.51537 0.04618,-0.15317 0.09765,-0.29409 0.1671,-0.41722 0.03615,-0.0641 0.07638,-0.1218 0.121745,-0.17221 0.04565,-0.0507 0.0969,-0.0945 0.155162,-0.12994 0.04092,-0.0242 0.08797,-0.0416 0.137819,-0.0507 0.04822,-0.009 0.0988,-0.01 0.148297,-0.002 0.04707,0.007 0.09278,0.0223 0.13373,0.0457 0.03834,0.0219 0.07307,0.0513 0.100992,0.0893 0.04595,0.0599 0.08414,0.12495 0.116683,0.19754 0.03047,0.068 0.05575,0.14195 0.07719,0.22315 0.0037,0.0138 0.0072,0.0279 0.01063,0.0421 0.03377,0.14005 0.05302,0.27903 0.07695,0.45373 0.03733,0.27438 0.04951,0.59595 0.108588,0.94976 6.44e-4,0.006 0.0025,0.0172 0.0047,0.0281 0.0021,0.0108 0.0047,0.022 0.0075,0.0329 0.0028,0.0107 0.006,0.022 0.0098,0.0331 0.0035,0.0103 0.0084,0.0234 0.01507,0.0366 0.0033,0.007 0.0083,0.0156 0.01526,0.0253 0.0036,0.005 0.0083,0.011 0.01446,0.0175 0.006,0.006 0.01465,0.0144 0.02621,0.0221 0.01153,0.008 0.02813,0.0165 0.04951,0.0215 0.02226,0.005 0.04733,0.006 0.07275,-0.001 0.02489,-0.007 0.04439,-0.019 0.05859,-0.0314 0.01375,-0.012 0.02303,-0.0244 0.02905,-0.034 0.01143,-0.0181 0.01691,-0.0352 0.01958,-0.0448 0.003,-0.0107 0.0048,-0.0207 0.0059,-0.029 0.0023,-0.0162 0.0033,-0.0338 0.0037,-0.0516 0.0027,-0.15115 -0.0095,-0.3001 -0.01806,-0.44274 -0.0085,-0.14125 -0.01358,-0.27563 -1.74e-4,-0.40769 0.01497,-0.22007 0.04583,-0.43865 0.111234,-0.63899 0.03254,-0.0997 0.0733,-0.1938 0.124135,-0.28024 0.05088,-0.0865 0.111843,-0.16532 0.184948,-0.23457 0.03656,-0.0345 0.07798,-0.0671 0.121993,-0.0949 0.04438,-0.0281 0.09019,-0.0505 0.135637,-0.0658 0.04585,-0.0154 0.09004,-0.0231 0.131605,-0.0228 0.04166,2.5e-4 0.08172,0.008 0.120248,0.0259 0.05035,0.0239 0.0964,0.0572 0.137566,0.0971 0.04215,0.0408 0.07948,0.0889 0.113068,0.14242 0.06994,0.11138 0.12127,0.24229 0.165219,0.36922 0.112591,0.33693 0.160361,0.68717 0.18737,1.02455 0.02984,0.37269 0.03654,0.73679 0.06207,1.07872 0.04912,0.78098 0.07518,1.14818 0.07519,1.63675 a 0.14045353,0.14045353 90 0 0 0.280908,0 c -1.6e-5,-0.50135 -0.02607,-0.87316 -0.07417,-1.65596 -0.02452,-0.33358 -0.03068,-0.69697 -0.06104,-1.08199 -0.02733,-0.34664 -0.07701,-0.72329 -0.200272,-1.09362 -0.04546,-0.13261 -0.104863,-0.28921 -0.192462,-0.4296 -0.04288,-0.0687 -0.09395,-0.13602 -0.15576,-0.19628 -0.06087,-0.0593 -0.132185,-0.11186 -0.216049,-0.15198 -0.07971,-0.0365 -0.159959,-0.0527 -0.239526,-0.0535 -0.07814,-7.3e-4 -0.154122,0.0134 -0.22538,0.0371 -0.07051,0.0234 -0.137284,0.0565 -0.198439,0.0949 -0.06075,0.0382 -0.116875,0.0823 -0.166521,0.12884 -0.09513,0.0899 -0.172732,0.19053 -0.236168,0.29811 -0.06321,0.1072 -0.112172,0.22096 -0.150238,0.33718 -0.076,0.23204 -0.109544,0.47703 -0.125075,0.70464 -0.01569,0.15224 -0.0093,0.30671 -6.54e-4,0.44983 0.0091,0.1511 0.01996,0.28366 0.01765,0.4198 -2.04e-4,0.0107 -9.32e-4,0.0173 -8.08e-4,0.0165 6.2e-5,-3.9e-4 2.85e-4,-0.003 0.0019,-0.008 0.0012,-0.004 0.005,-0.0171 0.0146,-0.0324 0.0051,-0.008 0.01346,-0.0194 0.02625,-0.0305 0.01323,-0.0115 0.03175,-0.0232 0.05562,-0.0297 0.0244,-0.007 0.04842,-0.006 0.06962,-0.001 0.02031,0.005 0.03582,0.013 0.04624,0.02 0.01045,0.007 0.01798,0.0141 0.02283,0.0192 0.005,0.005 0.0086,0.01 0.01098,0.0132 0.0046,0.006 0.0072,0.0114 0.0081,0.0132 0.0017,0.003 0.0019,0.005 5.51e-4,8.8e-4 -0.0011,-0.003 -0.0024,-0.007 -0.0039,-0.0128 -0.0015,-0.005 -0.0028,-0.0111 -0.004,-0.0166 -0.0012,-0.006 -0.002,-0.0103 -0.0025,-0.0138 -0.05647,-0.33286 -0.07097,-0.65574 -0.112718,-0.94624 -0.02484,-0.17242 -0.04717,-0.32587 -0.0865,-0.48157 -0.0041,-0.0161 -0.0083,-0.0321 -0.01268,-0.0479 -0.02571,-0.093 -0.05702,-0.18154 -0.09623,-0.26538 -0.042,-0.0898 -0.09244,-0.17287 -0.153046,-0.24871 -0.05372,-0.0689 -0.120202,-0.12079 -0.18946,-0.1571 -0.0735,-0.0385 -0.151411,-0.0603 -0.2271,-0.069 -0.07967,-0.009 -0.159092,-0.004 -0.233638,0.0129 -0.07718,0.0175 -0.150842,0.0481 -0.21655,0.0908 -0.07952,0.052 -0.146494,0.11369 -0.203709,0.18142 -0.05665,0.0671 -0.104219,0.14061 -0.144924,0.21755 -0.07745,0.1464 -0.130949,0.30652 -0.176883,0.46817 -0.04621,0.17541 -0.08242,0.35476 -0.110439,0.54215 -0.07182,0.48023 -0.08358,0.96765 -0.08175,1.48643 -0.0026,0.39929 0.0326,0.78591 0.06039,1.1942 l 6.89e-4,-0.0227 c -7.41e-4,0.005 -0.0011,0.01 -0.0013,0.0133 -2.14e-4,0.004 -3.12e-4,0.007 -3.54e-4,0.0101 -8.4e-5,0.006 3.3e-5,0.012 2.16e-4,0.0175 3.66e-4,0.0111 0.0011,0.0236 0.0019,0.0356 8.05e-4,0.0125 0.0016,0.0248 0.0024,0.0371 7.09e-4,0.0122 0.0012,0.0234 0.0014,0.0328 7.2e-5,0.005 4.7e-5,0.009 -6.6e-5,0.0118 -1.12e-4,0.003 -3.29e-4,0.005 -4.67e-4,0.006 -1.38e-4,3.7e-4 -3.78e-4,-8.9e-4 7.93e-4,-0.007 5.3e-4,-0.003 0.0016,-0.007 0.0038,-0.0129 0.0021,-0.005 0.0062,-0.0149 0.01409,-0.0252 0.0041,-0.005 0.0095,-0.0115 0.01672,-0.0176 0.0073,-0.006 0.01627,-0.0121 0.02708,-0.0168 0.01093,-0.005 0.02268,-0.008 0.0348,-0.009 0.01205,-0.001 0.02321,-1e-4 0.03303,0.002 0.01905,0.004 0.03265,0.0121 0.04025,0.0174 0.0078,0.006 0.01309,0.0108 0.01582,0.0138 0.0062,0.007 0.0069,0.009 0.0068,0.008 -1.73e-4,-5.1e-4 -0.0018,-0.004 -0.004,-0.008 l 0.0095,0.0293 c -0.02159,-0.12234 -0.02721,-0.24777 -0.02717,-0.37421 3.4e-5,-0.13187 0.0061,-0.26469 0.0072,-0.39563 -4.5e-4,-0.17872 0.0041,-0.35469 0.01138,-0.52719 0.02641,-0.62303 0.08954,-1.22743 0.115952,-1.85047 0.0074,-0.3576 0.0094,-0.68581 -0.0023,-1.01063 -0.0022,-0.0244 -0.0038,-0.0376 -0.0053,-0.0482 -7.71e-4,-0.005 -0.0016,-0.0105 -0.0024,-0.0152 -8.03e-4,-0.005 -0.0018,-0.01 -0.0031,-0.0152 -6.68e-4,-0.003 -0.0016,-0.006 -0.003,-0.0105 -6.81e-4,-0.002 -0.0016,-0.005 -0.0028,-0.008 -0.0011,-0.003 -0.0028,-0.007 -0.0053,-0.0118 -0.0022,-0.004 -0.0063,-0.0118 -0.01282,-0.0201 -0.0034,-0.004 -0.0081,-0.01 -0.01449,-0.0155 -0.0063,-0.006 -0.0154,-0.0127 -0.02747,-0.0187 -0.01239,-0.006 -0.02829,-0.0114 -0.04699,-0.0125 -0.01913,-0.001 -0.03752,0.002 -0.05389,0.009 -0.0159,0.007 -0.02789,0.0156 -0.03636,0.0235 -0.0084,0.008 -0.01433,0.0157 -0.0183,0.0216 -0.0076,0.0115 -0.01165,0.0219 -0.01356,0.0273 -0.0021,0.006 -0.0034,0.0113 -0.0042,0.0148 -0.0015,0.007 -0.0021,0.0126 -0.0024,0.0157 -6.44e-4,0.007 -7.25e-4,0.0127 -7.21e-4,0.0165 10e-6,0.009 5.24e-4,0.0176 0.0012,0.0256 7.46e-4,0.009 0.0018,0.0189 0.0031,0.0285 0.0034,0.0245 0.0082,0.0474 0.0141,0.0674 a 0.12112282,0.12112282 90 0 0 0.232204,-0.069 z"
       id="path-1"
       inkscape:path-effect="#path-effect6804;#path-effect6806"
       inkscape:original-d="m -17.03792,149.93992 c -0.01592,-0.0907 -0.01481,-0.0558 -0.01481,-0.10366 0,-0.0349 0.01308,0.0688 0.01481,0.10366 0.0043,0.087 0.0025,0.17417 0.003,0.26127 0.0015,0.26793 0.0049,0.53689 -0.0079,0.80461 -0.03502,0.73255 -0.12047,1.46007 -0.12047,2.19419 0,0.0962 -0.03065,0.8401 0.04246,0.91713 0.02315,0.0244 0.0091,-0.067 0.0079,-0.10058 -0.01055,-0.29129 -0.04949,-0.58087 -0.05826,-0.87204 -0.02149,-0.71388 -0.093,-3.236 0.950925,-3.27125 0.628143,-0.0212 0.699517,0.96043 0.752445,1.40846 0.02189,0.18534 0.0372,0.3714 0.05826,0.55683 0.01627,0.14323 0.05231,0.26123 0.05431,0.25857 0.03812,-0.0506 -0.01075,-0.51664 -0.01185,-0.59806 -0.0076,-0.55911 0.07659,-1.31439 0.584577,-1.66472 0.453345,-0.31264 0.790045,-0.0351 0.977586,0.41194 0.255404,0.60883 0.269759,1.27765 0.303151,1.92714 0.03504,0.68147 0.09776,1.36394 0.09776,2.0466"
       style="fill:#000000;fill-rule:nonzero;stroke:none" />
  </g>
</svg>
