<?xml version="1.0" encoding="UTF-8" standalone="no"?>
<!-- Created with Inkscape (http://www.inkscape.org/) -->

<svg
   width="4mm"
   height="10mm"
   viewBox="0 0 4.0000001 9.9999994"
   version="1.1"
   id="svg1681"
   inkscape:version="1.2.1 (9c6d41e410, 2022-07-14)"
   sodipodi:docname="lower_m_5.svg"
   inkscape:export-filename="..\..\..\..\Downloads\lower a diff canvas resize 3.0.png"
   inkscape:export-xdpi="96"
   inkscape:export-ydpi="96"
   xmlns:inkscape="http://www.inkscape.org/namespaces/inkscape"
   xmlns:sodipodi="http://sodipodi.sourceforge.net/DTD/sodipodi-0.dtd"
   xmlns="http://www.w3.org/2000/svg"
   xmlns:svg="http://www.w3.org/2000/svg"
   xmlns:rdf="http://www.w3.org/1999/02/22-rdf-syntax-ns#"
   xmlns:cc="http://creativecommons.org/ns#"
   xmlns:dc="http://purl.org/dc/elements/1.1/">
  <defs
     id="defs1675">
    <inkscape:path-effect
       effect="powerstroke"
       id="path-effect510"
       is_visible="true"
       lpeversion="1"
       offset_points="1.9176024,0.19134256 | 6.6799515,0.13436382 | 8.9071225,0.1507949 | 11.94271,0.13674897 | 14.359274,0.16033552"
       not_jump="true"
       sort_points="true"
       interpolator_type="CentripetalCatmullRom"
       interpolator_beta="0.75"
       start_linecap_type="round"
       linejoin_type="spiro"
       miter_limit="4"
       scale_width="1"
       end_linecap_type="round" />
    <inkscape:path-effect
       effect="simplify"
       id="path-effect508"
       is_visible="true"
       lpeversion="1"
       steps="1"
       threshold="0.0047745358"
       smooth_angles="0"
       helper_size="0"
       simplify_individual_paths="false"
       simplify_just_coalesce="false"
       step="1" />
    <inkscape:path-effect
       effect="powerstroke"
       id="path-effect457"
       is_visible="true"
       lpeversion="1"
       offset_points="1.698284,0.11157981"
       not_jump="true"
       sort_points="true"
       interpolator_type="CentripetalCatmullRom"
       interpolator_beta="0.75"
       start_linecap_type="round"
       linejoin_type="spiro"
       miter_limit="4"
       scale_width="1"
       end_linecap_type="round" />
    <inkscape:path-effect
       effect="simplify"
       id="path-effect455"
       is_visible="true"
       lpeversion="1"
       steps="1"
       threshold="0.0047745358"
       smooth_angles="0"
       helper_size="0"
       simplify_individual_paths="false"
       simplify_just_coalesce="false"
       step="1" />
    <inkscape:path-effect
       effect="powerstroke"
       id="path-effect450"
       is_visible="true"
       lpeversion="1"
       offset_points="2.3032336,0.10448372 | 5.4261225,0.1216122 | 9.9205125,0.13971945"
       not_jump="true"
       sort_points="true"
       interpolator_type="CentripetalCatmullRom"
       interpolator_beta="0.75"
       start_linecap_type="round"
       linejoin_type="spiro"
       miter_limit="4"
       scale_width="1"
       end_linecap_type="round" />
    <inkscape:path-effect
       effect="simplify"
       id="path-effect448"
       is_visible="true"
       lpeversion="1"
       steps="1"
       threshold="0.0047745358"
       smooth_angles="0"
       helper_size="0"
       simplify_individual_paths="false"
       simplify_just_coalesce="false"
       step="1" />
    <inkscape:path-effect
       effect="powerstroke"
       id="path-effect401"
       is_visible="true"
       lpeversion="1"
       offset_points="1.919598,0.085642395 | 7.1414337,0.095185405 | 11.392776,0.11084573"
       not_jump="true"
       sort_points="true"
       interpolator_type="CentripetalCatmullRom"
       interpolator_beta="0.75"
       start_linecap_type="round"
       linejoin_type="spiro"
       miter_limit="4"
       scale_width="1"
       end_linecap_type="round" />
    <inkscape:path-effect
       effect="simplify"
       id="path-effect399"
       is_visible="true"
       lpeversion="1"
       steps="1"
       threshold="0.0047745358"
       smooth_angles="0"
       helper_size="0"
       simplify_individual_paths="false"
       simplify_just_coalesce="false"
       step="1" />
    <inkscape:path-effect
       effect="powerstroke"
       id="path-effect354"
       is_visible="true"
       lpeversion="1"
       offset_points="1.8669648,0.097632331 | 3.3867434,0.08319547 | 6.5616288,0.10448372"
       not_jump="true"
       sort_points="true"
       interpolator_type="CentripetalCatmullRom"
       interpolator_beta="0.75"
       start_linecap_type="round"
       linejoin_type="spiro"
       miter_limit="4"
       scale_width="1"
       end_linecap_type="round" />
    <inkscape:path-effect
       effect="simplify"
       id="path-effect352"
       is_visible="true"
       lpeversion="1"
       steps="1"
       threshold="0.0047745358"
       smooth_angles="0"
       helper_size="0"
       simplify_individual_paths="false"
       simplify_just_coalesce="false"
       step="1" />
    <inkscape:path-effect
       effect="powerstroke"
       id="path-effect309"
       is_visible="true"
       lpeversion="1"
       offset_points="1.7013678,0.12014405 | 7.8476699,0.13580437"
       not_jump="true"
       sort_points="true"
       interpolator_type="CentripetalCatmullRom"
       interpolator_beta="0.75"
       start_linecap_type="round"
       linejoin_type="spiro"
       miter_limit="4"
       scale_width="1"
       end_linecap_type="round" />
    <inkscape:path-effect
       effect="simplify"
       id="path-effect307"
       is_visible="true"
       lpeversion="1"
       steps="1"
       threshold="0.0047745358"
       smooth_angles="0"
       helper_size="0"
       simplify_individual_paths="false"
       simplify_just_coalesce="false"
       step="1" />
    <inkscape:path-effect
       effect="powerstroke"
       id="path-effect302"
       is_visible="true"
       lpeversion="1"
       offset_points="2.2193262,0.1282189"
       not_jump="true"
       sort_points="true"
       interpolator_type="CentripetalCatmullRom"
       interpolator_beta="0.75"
       start_linecap_type="round"
       linejoin_type="spiro"
       miter_limit="4"
       scale_width="1"
       end_linecap_type="round" />
    <inkscape:path-effect
       effect="simplify"
       id="path-effect300"
       is_visible="true"
       lpeversion="1"
       steps="1"
       threshold="0.0047745358"
       smooth_angles="0"
       helper_size="0"
       simplify_individual_paths="false"
       simplify_just_coalesce="false"
       step="1" />
    <inkscape:path-effect
       effect="powerstroke"
       id="path-effect329"
       is_visible="true"
       lpeversion="1"
       offset_points="2.036852,0.12799523 | 9.038239,0.16903718 | 11.263778,0.13750213"
       not_jump="true"
       sort_points="true"
       interpolator_type="CentripetalCatmullRom"
       interpolator_beta="0.75"
       start_linecap_type="round"
       linejoin_type="spiro"
       miter_limit="4"
       scale_width="1"
       end_linecap_type="round" />
    <inkscape:path-effect
       effect="simplify"
       id="path-effect327"
       is_visible="true"
       lpeversion="1"
       steps="1"
       threshold="0.0035951417"
       smooth_angles="0"
       helper_size="0"
       simplify_individual_paths="false"
       simplify_just_coalesce="false"
       step="1" />
    <inkscape:path-effect
       effect="powerstroke"
       id="path-effect502"
       is_visible="true"
       lpeversion="1"
       offset_points="3.0091841,0.21607495 | 7.3602657,0.17554228 | 9.4159651,0.20236537"
       not_jump="true"
       sort_points="true"
       interpolator_type="CentripetalCatmullRom"
       interpolator_beta="0.75"
       start_linecap_type="round"
       linejoin_type="spiro"
       miter_limit="4"
       scale_width="1"
       end_linecap_type="round" />
    <inkscape:path-effect
       effect="simplify"
       id="path-effect500"
       is_visible="true"
       lpeversion="1"
       steps="1"
       threshold="0.0035951417"
       smooth_angles="0"
       helper_size="0"
       simplify_individual_paths="false"
       simplify_just_coalesce="false"
       step="1" />
    <inkscape:path-effect
       effect="powerstroke"
       id="path-effect241"
       is_visible="true"
       lpeversion="1"
       offset_points="2.6879454,0.34086734"
       not_jump="true"
       sort_points="true"
       interpolator_type="CentripetalCatmullRom"
       interpolator_beta="0.75"
       start_linecap_type="round"
       linejoin_type="spiro"
       miter_limit="4"
       scale_width="1"
       end_linecap_type="round" />
    <inkscape:path-effect
       effect="simplify"
       id="path-effect239"
       is_visible="true"
       lpeversion="1"
       steps="1"
       threshold="0.0028332064"
       smooth_angles="0"
       helper_size="0"
       simplify_individual_paths="false"
       simplify_just_coalesce="false"
       step="1" />
    <inkscape:path-effect
       effect="powerstroke"
       id="path-effect234"
       is_visible="true"
       lpeversion="1"
       offset_points="2.13563,0.075169555"
       not_jump="true"
       sort_points="true"
       interpolator_type="CentripetalCatmullRom"
       interpolator_beta="0.75"
       start_linecap_type="round"
       linejoin_type="spiro"
       miter_limit="4"
       scale_width="1"
       end_linecap_type="round" />
    <inkscape:path-effect
       effect="simplify"
       id="path-effect232"
       is_visible="true"
       lpeversion="1"
       steps="1"
       threshold="0.0028332064"
       smooth_angles="0"
       helper_size="0"
       simplify_individual_paths="false"
       simplify_just_coalesce="false"
       step="1" />
    <inkscape:path-effect
       effect="powerstroke"
       id="path-effect227"
       is_visible="true"
       lpeversion="1"
       offset_points="2.1868266,0.075169555"
       not_jump="true"
       sort_points="true"
       interpolator_type="CentripetalCatmullRom"
       interpolator_beta="0.75"
       start_linecap_type="round"
       linejoin_type="spiro"
       miter_limit="4"
       scale_width="1"
       end_linecap_type="round" />
    <inkscape:path-effect
       effect="simplify"
       id="path-effect225"
       is_visible="true"
       lpeversion="1"
       steps="1"
       threshold="0.0028332064"
       smooth_angles="0"
       helper_size="0"
       simplify_individual_paths="false"
       simplify_just_coalesce="false"
       step="1" />
    <inkscape:path-effect
       effect="powerstroke"
       id="path-effect166"
       is_visible="true"
       lpeversion="1"
       offset_points="1.9637935,0.075169555"
       not_jump="true"
       sort_points="true"
       interpolator_type="CentripetalCatmullRom"
       interpolator_beta="0.75"
       start_linecap_type="round"
       linejoin_type="spiro"
       miter_limit="4"
       scale_width="1"
       end_linecap_type="round" />
    <inkscape:path-effect
       effect="simplify"
       id="path-effect164"
       is_visible="true"
       lpeversion="1"
       steps="1"
       threshold="0.0028332064"
       smooth_angles="0"
       helper_size="0"
       simplify_individual_paths="false"
       simplify_just_coalesce="false"
       step="1" />
    <inkscape:path-effect
       effect="powerstroke"
       id="path-effect159"
       is_visible="true"
       lpeversion="1"
       offset_points="2.2611036,0.075169555"
       not_jump="true"
       sort_points="true"
       interpolator_type="CentripetalCatmullRom"
       interpolator_beta="0.75"
       start_linecap_type="round"
       linejoin_type="spiro"
       miter_limit="4"
       scale_width="1"
       end_linecap_type="round" />
    <inkscape:path-effect
       effect="simplify"
       id="path-effect157"
       is_visible="true"
       lpeversion="1"
       steps="1"
       threshold="0.0028332064"
       smooth_angles="0"
       helper_size="0"
       simplify_individual_paths="false"
       simplify_just_coalesce="false"
       step="1" />
    <inkscape:path-effect
       effect="powerstroke"
       id="path-effect152"
       is_visible="true"
       lpeversion="1"
       offset_points="2.826981,0.075169555"
       not_jump="true"
       sort_points="true"
       interpolator_type="CentripetalCatmullRom"
       interpolator_beta="0.75"
       start_linecap_type="round"
       linejoin_type="spiro"
       miter_limit="4"
       scale_width="1"
       end_linecap_type="round" />
    <inkscape:path-effect
       effect="simplify"
       id="path-effect150"
       is_visible="true"
       lpeversion="1"
       steps="1"
       threshold="0.0028332064"
       smooth_angles="0"
       helper_size="0"
       simplify_individual_paths="false"
       simplify_just_coalesce="false"
       step="1" />
    <inkscape:path-effect
       effect="powerstroke"
       id="path-effect145"
       is_visible="true"
       lpeversion="1"
       offset_points="3.8374447,0.075169555"
       not_jump="true"
       sort_points="true"
       interpolator_type="CentripetalCatmullRom"
       interpolator_beta="0.75"
       start_linecap_type="round"
       linejoin_type="spiro"
       miter_limit="4"
       scale_width="1"
       end_linecap_type="round" />
    <inkscape:path-effect
       effect="simplify"
       id="path-effect143"
       is_visible="true"
       lpeversion="1"
       steps="1"
       threshold="0.0028332064"
       smooth_angles="0"
       helper_size="0"
       simplify_individual_paths="false"
       simplify_just_coalesce="false"
       step="1" />
    <inkscape:path-effect
       effect="powerstroke"
       id="path-effect138"
       is_visible="true"
       lpeversion="1"
       offset_points="2.6880907,0.075169555"
       not_jump="true"
       sort_points="true"
       interpolator_type="CentripetalCatmullRom"
       interpolator_beta="0.75"
       start_linecap_type="round"
       linejoin_type="spiro"
       miter_limit="4"
       scale_width="1"
       end_linecap_type="round" />
    <inkscape:path-effect
       effect="simplify"
       id="path-effect136"
       is_visible="true"
       lpeversion="1"
       steps="1"
       threshold="0.0028332064"
       smooth_angles="0"
       helper_size="0"
       simplify_individual_paths="false"
       simplify_just_coalesce="false"
       step="1" />
    <inkscape:path-effect
       effect="powerstroke"
       id="path-effect131"
       is_visible="true"
       lpeversion="1"
       offset_points="1.9940581,0.075169555"
       not_jump="true"
       sort_points="true"
       interpolator_type="CentripetalCatmullRom"
       interpolator_beta="0.75"
       start_linecap_type="round"
       linejoin_type="spiro"
       miter_limit="4"
       scale_width="1"
       end_linecap_type="round" />
    <inkscape:path-effect
       effect="simplify"
       id="path-effect129"
       is_visible="true"
       lpeversion="1"
       steps="1"
       threshold="0.0028332064"
       smooth_angles="0"
       helper_size="0"
       simplify_individual_paths="false"
       simplify_just_coalesce="false"
       step="1" />
  </defs>
  <sodipodi:namedview
     id="base"
     pagecolor="#ffffff"
     bordercolor="#666666"
     borderopacity="1.0"
     inkscape:pageopacity="0.0"
     inkscape:pageshadow="2"
     inkscape:zoom="15.839192"
     inkscape:cx="1.6730651"
     inkscape:cy="19.887378"
     inkscape:document-units="mm"
     inkscape:current-layer="layer1"
     showgrid="false"
     fit-margin-top="0"
     fit-margin-left="0"
     fit-margin-right="0"
     fit-margin-bottom="0"
     inkscape:window-width="1920"
     inkscape:window-height="1057"
     inkscape:window-x="1072"
     inkscape:window-y="321"
     inkscape:window-maximized="1"
     showguides="true"
     inkscape:guide-bbox="true"
     inkscape:snap-bbox="true"
     inkscape:bbox-nodes="true"
     inkscape:snap-nodes="false"
     inkscape:snap-others="false"
     inkscape:snap-page="true"
     inkscape:snap-grids="false"
     inkscape:snap-to-guides="false"
     inkscape:snap-global="false"
     inkscape:pagecheckerboard="0"
     inkscape:showpageshadow="2"
     inkscape:deskcolor="#d1d1d1">
    <sodipodi:guide
       position="-6.1806075,9.4988692"
       orientation="0,1"
       id="guide816"
       inkscape:locked="false" />
    <sodipodi:guide
       position="-4.4101636,10.646923"
       orientation="0,1"
       id="guide818"
       inkscape:locked="false" />
    <sodipodi:guide
       position="2.7595724,11.09577"
       orientation="1,0"
       id="guide820"
       inkscape:locked="false" />
    <sodipodi:guide
       position="3.6572659,10.942217"
       orientation="1,0"
       id="guide822"
       inkscape:locked="false" />
    <sodipodi:guide
       position="-0.051625511,9.7492299"
       orientation="1,0"
       id="guide1853"
       inkscape:locked="false" />
    <sodipodi:guide
       position="-2.3720169,3.0175835"
       orientation="0,1"
       id="guide1855"
       inkscape:locked="false" />
  </sodipodi:namedview>
  <metadata
     id="metadata1678">
    <rdf:RDF>
      <cc:Work
         rdf:about="">
        <dc:format>image/svg+xml</dc:format>
        <dc:type
           rdf:resource="http://purl.org/dc/dcmitype/StillImage" />
      </cc:Work>
    </rdf:RDF>
  </metadata>
  <g
     inkscape:label="Layer 1"
     inkscape:groupmode="layer"
     id="layer1"
     transform="translate(17.028496,-147.22856)">
    <path
       d="m -17.166949,150.40618 c 0.02977,0.14094 0.04896,0.31972 0.03859,0.59694 -0.007,0.18683 -0.02865,0.40398 -0.04167,0.64229 -0.03982,0.51194 -0.03931,1.02151 -0.03718,1.56796 5.02e-4,0.12881 4.3e-5,0.0109 5.45e-4,0.13973 -0.0014,0.30329 0.03078,0.55336 0.06022,0.90733 0.0016,0.0107 0.0032,0.0276 0.0047,0.0432 0.0015,0.0148 0.0029,0.0287 0.0042,0.0359 3.13e-4,0.002 6.38e-4,0.003 9.4e-4,0.004 5.97e-4,4.6e-4 7.73e-4,1.3e-4 9.51e-4,-0.002 4.65e-4,-0.007 6.24e-4,-0.009 8.76e-4,-0.0114 1.3e-4,-0.001 3.43e-4,-0.003 6.63e-4,-0.006 2.81e-4,-0.002 8.74e-4,-0.006 0.0019,-0.0119 5.46e-4,-0.003 0.0014,-0.007 0.0028,-0.0118 0.0012,-0.004 0.0037,-0.0128 0.0081,-0.0229 0.0023,-0.005 0.0057,-0.0125 0.01077,-0.0208 0.0048,-0.008 0.01304,-0.02 0.02568,-0.0325 0.01326,-0.0131 0.03357,-0.0294 0.06427,-0.04 0.01558,-0.005 0.0328,-0.009 0.05115,-0.009 0.01836,-5e-4 0.0359,0.002 0.05205,0.007 0.03184,0.009 0.05366,0.0251 0.06783,0.0381 0.01356,0.0124 0.02242,0.0246 0.02763,0.0326 0.01008,0.0155 0.01527,0.0291 0.01734,0.0348 0.0025,0.007 0.0041,0.0128 0.005,0.0162 9.48e-4,0.004 0.0016,0.007 0.002,0.009 8.45e-4,0.004 0.0013,0.008 0.0016,0.01 2.83e-4,0.002 4.71e-4,0.004 5.91e-4,0.005 4.22e-4,0.004 5.12e-4,0.007 5.37e-4,0.008 -3.91e-4,0.006 -7.94e-4,0.004 -0.0011,0.003 -6.55e-4,-0.003 -0.0014,-0.009 -0.0021,-0.017 -7e-4,-0.008 -0.0014,-0.0198 -0.0021,-0.0344 -0.02411,-0.51844 -0.05507,-1.00664 0.0065,-1.49175 0.03553,-0.29686 0.07887,-0.58152 0.14254,-0.85715 0.06714,-0.29067 0.154301,-0.55948 0.270148,-0.80855 0.06418,-0.13266 0.135142,-0.25177 0.218525,-0.3467 0.03224,-0.0367 0.06519,-0.0684 0.0989,-0.0954 0.01365,-0.0109 0.02743,-0.0211 0.04134,-0.0304 0.0518,-0.0349 0.10577,-0.0594 0.162494,-0.0739 0.02978,-0.008 0.05494,-0.007 0.07846,-8.6e-4 0.02577,0.007 0.05254,0.0198 0.07978,0.0394 0.02844,0.0205 0.05601,0.047 0.08181,0.0771 0.02626,0.0307 0.04995,0.0643 0.07037,0.0976 0.0918,0.14797 0.1661,0.31257 0.227508,0.49153 0.04657,0.13573 0.08599,0.28038 0.121242,0.43691 0.0076,0.0337 0.01491,0.0676 0.02204,0.10192 0.01095,0.0721 0.01318,0.0861 0.02551,0.16586 0.0046,0.0298 0.0089,0.058 0.01275,0.0834 0.0044,0.0289 0.0063,0.0417 0.0089,0.0599 l 0.287676,-0.051 c -0.0015,-0.005 -0.0033,-0.0116 -0.0054,-0.0178 -0.001,-0.003 -0.0026,-0.008 -0.0047,-0.0126 -0.0011,-0.003 -0.0025,-0.006 -0.0045,-0.01 -0.0018,-0.004 -0.0049,-0.01 -0.0093,-0.0166 -0.0037,-0.006 -0.01269,-0.0189 -0.02789,-0.032 -0.008,-0.007 -0.02051,-0.0161 -0.03761,-0.0235 -0.01774,-0.008 -0.04122,-0.0135 -0.06845,-0.0114 -0.0277,0.002 -0.05168,0.0118 -0.0705,0.0245 -0.01787,0.0121 -0.02968,0.0258 -0.03697,0.036 -0.0074,0.0103 -0.01207,0.0198 -0.01499,0.0265 -0.003,0.007 -0.005,0.013 -0.0063,0.0175 -0.0026,0.009 -0.0038,0.0161 -0.0044,0.0205 -6.52e-4,0.005 -9.7e-4,0.009 -0.0011,0.0115 -3.34e-4,0.006 -2.89e-4,0.0103 -2.09e-4,0.0134 1.61e-4,0.006 6.53e-4,0.012 0.0011,0.0162 4.45e-4,0.005 0.001,0.009 0.0016,0.014 0.0011,0.009 0.0026,0.0199 0.0041,0.0302 0.0029,0.0208 0.0066,0.0455 0.0096,0.0651 0.0015,0.01 0.003,0.0197 0.0041,0.0267 5.56e-4,0.004 0.0011,0.007 0.0015,0.009 3.94e-4,0.002 7.36e-4,0.004 8.88e-4,0.005 1.12e-4,0.005 0.0011,0.0174 0.0026,0.0293 0.0014,0.0119 0.0034,0.0237 0.006,0.0352 0.0025,0.0108 0.0063,0.0247 0.0125,0.0391 0.0031,0.007 0.0081,0.0175 0.01571,0.0284 0.0039,0.006 0.0092,0.0124 0.01607,0.0195 0.0069,0.007 0.01639,0.0153 0.02894,0.0228 0.01279,0.008 0.02926,0.0147 0.04905,0.018 0.02027,0.003 0.04092,0.002 0.06051,-0.003 0.01899,-0.005 0.03462,-0.0142 0.04629,-0.023 0.01152,-0.009 0.01998,-0.0178 0.02595,-0.0254 0.01151,-0.0145 0.01801,-0.0285 0.0215,-0.037 0.0038,-0.009 0.0063,-0.018 0.008,-0.0248 0.0034,-0.0136 0.0053,-0.0271 0.0065,-0.0389 6.88e-4,-0.007 0.0012,-0.0138 0.0016,-0.0209 1.99e-4,-0.004 3.66e-4,-0.007 5e-4,-0.0111 0.02208,-0.20398 0.02968,-0.39815 0.05596,-0.57506 0.0138,-0.0929 0.03218,-0.18031 0.05843,-0.26285 0.02649,-0.0833 0.06089,-0.16127 0.106302,-0.2339 0.07747,-0.11606 0.182641,-0.22654 0.303037,-0.30475 0.05852,-0.038 0.120276,-0.0682 0.184102,-0.0881 0.06175,-0.0193 0.126093,-0.0292 0.192439,-0.0271 0.04952,0.003 0.100334,0.0162 0.148871,0.0393 0.0207,0.01 0.04112,0.0216 0.06116,0.0351 0.0248,0.0168 0.04946,0.0367 0.07349,0.0599 0.07797,0.0753 0.145516,0.18211 0.182173,0.30357 0.04264,0.1343 0.06638,0.27234 0.08977,0.43118 0.02171,0.1475 0.04301,0.31262 0.08153,0.47278 0.04068,0.19431 0.07796,0.38409 0.10202,0.57383 0.02543,0.2005 0.03417,0.38707 0.02122,0.56727 -0.0063,0.16465 -0.01149,0.3057 -0.01149,0.3872 a 0.16033552,0.16033552 90 0 0 0.320672,0 c -2e-6,-0.074 0.006,-0.2049 0.01337,-0.36877 0.01503,-0.20138 0.0051,-0.41007 -0.02193,-0.62622 -0.02544,-0.20348 -0.06473,-0.40405 -0.106586,-0.60455 -0.03507,-0.14684 -0.05381,-0.29267 -0.07693,-0.44903 -0.02379,-0.16088 -0.05082,-0.32138 -0.101886,-0.4803 -0.05246,-0.17154 -0.150007,-0.32641 -0.269666,-0.43981 -0.03743,-0.0355 -0.07696,-0.0669 -0.118109,-0.094 -0.03325,-0.0219 -0.06801,-0.0413 -0.104133,-0.0578 -0.08548,-0.0392 -0.17754,-0.0619 -0.273784,-0.0652 -0.108583,-0.002 -0.20781,0.0166 -0.298931,0.0474 -0.09376,0.0317 -0.17985,0.0771 -0.25719,0.13023 -0.157729,0.1083 -0.286698,0.25362 -0.38056,0.40302 -0.06016,0.1009 -0.101755,0.20241 -0.132193,0.30526 -0.03003,0.10147 -0.04932,0.20465 -0.06291,0.30759 -0.02618,0.19838 -0.03127,0.39833 -0.05105,0.58973 -4.31e-4,0.004 -7.68e-4,0.008 -7.55e-4,0.0126 1.1e-5,0.004 -3.5e-5,0.007 -1.18e-4,0.01 -9.7e-5,0.003 -2.4e-4,0.006 -3.74e-4,0.008 -2.84e-4,0.004 -4.5e-4,0.003 5.69e-4,-0.001 5.11e-4,-0.002 0.0017,-0.007 0.0042,-0.0127 0.0022,-0.005 0.0072,-0.0167 0.01731,-0.0294 0.0052,-0.007 0.01297,-0.015 0.02374,-0.0232 0.01091,-0.008 0.02559,-0.0166 0.04404,-0.0218 0.01883,-0.005 0.03871,-0.006 0.05822,-0.003 0.01902,0.003 0.03473,0.01 0.04674,0.0171 0.01178,0.007 0.02053,0.0147 0.02662,0.0209 0.0061,0.006 0.01063,0.0121 0.01377,0.0166 0.006,0.009 0.0095,0.0161 0.01119,0.0198 0.0038,0.009 0.0041,0.011 0.0043,0.011 1.98e-4,-1e-5 -7.5e-5,-0.003 -2.67e-4,-0.007 -1.95e-4,-0.004 -3.41e-4,-0.01 -2.56e-4,-0.0166 -6.68e-4,-0.0121 -8.98e-4,-0.0157 -0.0012,-0.0194 -2.66e-4,-0.004 -5.78e-4,-0.008 -9.34e-4,-0.0119 -7.09e-4,-0.008 -0.0016,-0.018 -0.0025,-0.0283 -0.0019,-0.0204 -0.0041,-0.0435 -0.0056,-0.0626 -7.47e-4,-0.01 -0.0013,-0.018 -0.0015,-0.0241 -1.12e-4,-0.003 -1.39e-4,-0.005 -6.2e-5,-0.007 5.6e-5,-9.6e-4 2.84e-4,-0.002 4.59e-4,0.001 6.8e-5,0.001 1.7e-4,0.004 -7.1e-5,0.008 -1.22e-4,0.002 -3.75e-4,0.006 -9.51e-4,0.01 -5.26e-4,0.004 -0.0016,0.0107 -0.0041,0.0192 -0.0013,0.004 -0.0032,0.0103 -0.0061,0.017 -0.0029,0.007 -0.0075,0.0159 -0.0148,0.0262 -0.0072,0.0101 -0.01896,0.0238 -0.03676,0.0358 -0.01874,0.0127 -0.04265,0.0223 -0.07027,0.0244 -0.02715,0.002 -0.05054,-0.004 -0.06819,-0.0114 -0.01701,-0.007 -0.0294,-0.0165 -0.03732,-0.0233 -0.015,-0.0129 -0.02378,-0.0258 -0.02725,-0.0312 -0.0042,-0.007 -0.0071,-0.0121 -0.0086,-0.0152 -0.0017,-0.003 -0.0029,-0.006 -0.0036,-0.008 -0.0012,-0.003 -0.0027,-0.007 -0.0027,-0.007 -7.24e-4,-0.002 -5.82e-4,-9.7e-4 -8.4e-5,0.002 0.0044,0.0231 0.0089,0.0462 0.01657,0.0684 0.0076,0.0222 0.01842,0.0435 0.03346,0.0616 0.01505,0.018 0.03437,0.0327 0.05624,0.0412 0.02188,0.009 0.04617,0.0109 0.06923,0.006 0.02306,-0.004 0.04472,-0.0156 0.06209,-0.0314 0.01738,-0.0158 0.03044,-0.0361 0.03887,-0.058 0.01687,-0.0438 0.01457,-0.0924 0.0112,-0.13924 -0.0013,-0.0184 -0.0036,-0.0416 -0.0065,-0.0678 -0.0029,-0.0266 -0.0065,-0.0564 -0.01039,-0.0867 -0.008,-0.0631 -0.01722,-0.12856 -0.02489,-0.17802 -0.0088,-0.0435 -0.0166,-0.0792 -0.02469,-0.11476 -0.0376,-0.16513 -0.0814,-0.32087 -0.134486,-0.46894 -0.07006,-0.19539 -0.157011,-0.37922 -0.266831,-0.54808 -0.0295,-0.0436 -0.06376,-0.0882 -0.10305,-0.13042 -0.03829,-0.0411 -0.08342,-0.0821 -0.135008,-0.11643 -0.04941,-0.0329 -0.107976,-0.0618 -0.174582,-0.0765 -0.06372,-0.0141 -0.134234,-0.0151 -0.208515,0.005 -0.08611,0.0226 -0.167547,0.0603 -0.242957,0.11082 -0.02012,0.0135 -0.03974,0.0278 -0.05889,0.043 -0.04726,0.0374 -0.09164,0.0797 -0.133489,0.12631 -0.10694,0.11906 -0.192368,0.2602 -0.266441,0.40507 -0.129756,0.27123 -0.226237,0.55785 -0.301116,0.86271 -0.07091,0.28871 -0.120124,0.58392 -0.160877,0.88459 -0.07492,0.51493 -0.05169,1.03392 -0.03804,1.53847 -6.29e-4,0.01 -0.0012,0.0216 -0.0017,0.0305 -5.41e-4,0.009 -0.0011,0.0149 -0.0016,0.0192 -2.75e-4,0.002 -5.67e-4,0.003 -8.01e-4,0.006 -7.9e-5,0.006 1.6e-5,0.009 4.41e-4,0.0136 1.21e-4,0.001 3.1e-4,0.003 5.94e-4,0.005 2.58e-4,0.002 7.54e-4,0.005 0.0016,0.01 4.33e-4,0.002 0.0011,0.005 0.002,0.009 8.83e-4,0.004 0.0025,0.009 0.005,0.0163 0.0021,0.006 0.0073,0.0193 0.01734,0.0348 0.0052,0.008 0.01408,0.0202 0.02762,0.0326 0.0142,0.013 0.03602,0.0289 0.06786,0.0382 0.01614,0.005 0.03369,0.007 0.05205,0.007 0.01834,-4.9e-4 0.03557,-0.004 0.05115,-0.009 0.0307,-0.0106 0.05102,-0.0269 0.06425,-0.04 0.01266,-0.0125 0.02087,-0.0246 0.02569,-0.0325 0.0051,-0.008 0.0085,-0.0156 0.01078,-0.0208 0.0044,-0.0101 0.0068,-0.0184 0.0081,-0.0229 0.0014,-0.005 0.0023,-0.009 0.0028,-0.0118 0.0011,-0.005 0.0017,-0.01 0.0019,-0.0119 3.21e-4,-0.002 5.35e-4,-0.005 6.66e-4,-0.006 2.53e-4,-0.003 4.13e-4,-0.005 4.87e-4,-0.006 5.83e-4,-0.008 7.75e-4,-0.009 9.1e-4,-0.0102 7.61e-4,-0.004 0.001,-0.006 0.0013,-0.009 0.0011,-0.009 0.0021,-0.0237 0.0029,-0.0406 7.96e-4,-0.0171 0.0014,-0.037 0.0017,-0.0554 -0.02028,-0.38325 -0.04353,-0.59277 -0.03754,-0.88475 5.5e-5,-0.0108 5.09e-4,-0.13373 5.49e-4,-0.14229 0.0017,-0.55096 0.0019,-1.04151 0.04037,-1.54249 0.01233,-0.22974 0.03374,-0.45207 0.04049,-0.65402 0.01016,-0.30397 -0.01172,-0.51372 -0.04887,-0.68962 a 0.19134256,0.19134256 90 0 0 -0.374424,0.0791 z"
       id="path-1"
       inkscape:path-effect="#path-effect508;#path-effect510"
       inkscape:original-d="m -16.979737,150.36664 c 0.04419,0.19729 0.05049,0.40242 0.04401,0.60307 -0.01433,0.44422 -0.06732,0.88642 -0.07297,1.331 -0.0057,0.45696 -0.01563,0.91741 0,1.37416 0.0077,0.2261 0.04401,0.45355 0.04401,0.67938 0,0.0633 -1.99e-4,-0.12671 -0.0035,-0.18998 -0.01443,-0.27868 -0.0228,-0.55675 -0.01737,-0.83583 0.01193,-0.6129 0.260539,-2.7053 1.111983,-2.87972 0.499186,-0.10226 0.81062,1.11152 0.850205,1.39304 0.08588,0.61075 2.94e-4,0.006 0.04401,0.38265 0.0047,0.0402 0.01795,0.15958 0.02317,0.11946 0.04714,-0.36233 0.02405,-0.71299 0.167956,-1.06511 0.173934,-0.42558 0.807982,-0.91598 1.277623,-0.46165 0.285806,0.27649 0.288877,0.72035 0.352128,1.0628 0.06615,0.35813 0.155795,0.71296 0.171431,1.07667 0.0102,0.23697 -0.01506,0.47162 -0.01506,0.7075"
       style="fill:#000000;fill-rule:nonzero;stroke:none;stroke-width:1.08306" />
  </g>
</svg>
