<?xml version="1.0" encoding="UTF-8" standalone="no"?>
<!-- Created with Inkscape (http://www.inkscape.org/) -->

<svg
   width="4mm"
   height="10mm"
   viewBox="0 0 4.0000001 9.9999994"
   version="1.1"
   id="svg1681"
   inkscape:version="1.2.1 (9c6d41e410, 2022-07-14)"
   sodipodi:docname="lower_m_2.svg"
   inkscape:export-filename="..\..\..\..\Downloads\lower a diff canvas resize 3.0.png"
   inkscape:export-xdpi="96"
   inkscape:export-ydpi="96"
   xmlns:inkscape="http://www.inkscape.org/namespaces/inkscape"
   xmlns:sodipodi="http://sodipodi.sourceforge.net/DTD/sodipodi-0.dtd"
   xmlns="http://www.w3.org/2000/svg"
   xmlns:svg="http://www.w3.org/2000/svg"
   xmlns:rdf="http://www.w3.org/1999/02/22-rdf-syntax-ns#"
   xmlns:cc="http://creativecommons.org/ns#"
   xmlns:dc="http://purl.org/dc/elements/1.1/">
  <defs
     id="defs1675">
    <inkscape:path-effect
       effect="powerstroke"
       id="path-effect354"
       is_visible="true"
       lpeversion="1"
       offset_points="1.8669648,0.097632331 | 3.3867434,0.08319547 | 6.5616288,0.10448372"
       not_jump="true"
       sort_points="true"
       interpolator_type="CentripetalCatmullRom"
       interpolator_beta="0.75"
       start_linecap_type="round"
       linejoin_type="spiro"
       miter_limit="4"
       scale_width="1"
       end_linecap_type="round" />
    <inkscape:path-effect
       effect="simplify"
       id="path-effect352"
       is_visible="true"
       lpeversion="1"
       steps="1"
       threshold="0.0047745358"
       smooth_angles="0"
       helper_size="0"
       simplify_individual_paths="false"
       simplify_just_coalesce="false"
       step="1" />
    <inkscape:path-effect
       effect="powerstroke"
       id="path-effect309"
       is_visible="true"
       lpeversion="1"
       offset_points="1.7013678,0.12014405 | 7.8476699,0.13580437"
       not_jump="true"
       sort_points="true"
       interpolator_type="CentripetalCatmullRom"
       interpolator_beta="0.75"
       start_linecap_type="round"
       linejoin_type="spiro"
       miter_limit="4"
       scale_width="1"
       end_linecap_type="round" />
    <inkscape:path-effect
       effect="simplify"
       id="path-effect307"
       is_visible="true"
       lpeversion="1"
       steps="1"
       threshold="0.0047745358"
       smooth_angles="0"
       helper_size="0"
       simplify_individual_paths="false"
       simplify_just_coalesce="false"
       step="1" />
    <inkscape:path-effect
       effect="powerstroke"
       id="path-effect302"
       is_visible="true"
       lpeversion="1"
       offset_points="2.2193262,0.1282189"
       not_jump="true"
       sort_points="true"
       interpolator_type="CentripetalCatmullRom"
       interpolator_beta="0.75"
       start_linecap_type="round"
       linejoin_type="spiro"
       miter_limit="4"
       scale_width="1"
       end_linecap_type="round" />
    <inkscape:path-effect
       effect="simplify"
       id="path-effect300"
       is_visible="true"
       lpeversion="1"
       steps="1"
       threshold="0.0047745358"
       smooth_angles="0"
       helper_size="0"
       simplify_individual_paths="false"
       simplify_just_coalesce="false"
       step="1" />
    <inkscape:path-effect
       effect="powerstroke"
       id="path-effect329"
       is_visible="true"
       lpeversion="1"
       offset_points="2.036852,0.12799523 | 9.038239,0.16903718 | 11.263778,0.13750213"
       not_jump="true"
       sort_points="true"
       interpolator_type="CentripetalCatmullRom"
       interpolator_beta="0.75"
       start_linecap_type="round"
       linejoin_type="spiro"
       miter_limit="4"
       scale_width="1"
       end_linecap_type="round" />
    <inkscape:path-effect
       effect="simplify"
       id="path-effect327"
       is_visible="true"
       lpeversion="1"
       steps="1"
       threshold="0.0035951417"
       smooth_angles="0"
       helper_size="0"
       simplify_individual_paths="false"
       simplify_just_coalesce="false"
       step="1" />
    <inkscape:path-effect
       effect="powerstroke"
       id="path-effect502"
       is_visible="true"
       lpeversion="1"
       offset_points="3.0091841,0.21607495 | 7.3602657,0.17554228 | 9.4159651,0.20236537"
       not_jump="true"
       sort_points="true"
       interpolator_type="CentripetalCatmullRom"
       interpolator_beta="0.75"
       start_linecap_type="round"
       linejoin_type="spiro"
       miter_limit="4"
       scale_width="1"
       end_linecap_type="round" />
    <inkscape:path-effect
       effect="simplify"
       id="path-effect500"
       is_visible="true"
       lpeversion="1"
       steps="1"
       threshold="0.0035951417"
       smooth_angles="0"
       helper_size="0"
       simplify_individual_paths="false"
       simplify_just_coalesce="false"
       step="1" />
    <inkscape:path-effect
       effect="powerstroke"
       id="path-effect241"
       is_visible="true"
       lpeversion="1"
       offset_points="2.6879454,0.34086734"
       not_jump="true"
       sort_points="true"
       interpolator_type="CentripetalCatmullRom"
       interpolator_beta="0.75"
       start_linecap_type="round"
       linejoin_type="spiro"
       miter_limit="4"
       scale_width="1"
       end_linecap_type="round" />
    <inkscape:path-effect
       effect="simplify"
       id="path-effect239"
       is_visible="true"
       lpeversion="1"
       steps="1"
       threshold="0.0028332064"
       smooth_angles="0"
       helper_size="0"
       simplify_individual_paths="false"
       simplify_just_coalesce="false"
       step="1" />
    <inkscape:path-effect
       effect="powerstroke"
       id="path-effect234"
       is_visible="true"
       lpeversion="1"
       offset_points="2.13563,0.075169555"
       not_jump="true"
       sort_points="true"
       interpolator_type="CentripetalCatmullRom"
       interpolator_beta="0.75"
       start_linecap_type="round"
       linejoin_type="spiro"
       miter_limit="4"
       scale_width="1"
       end_linecap_type="round" />
    <inkscape:path-effect
       effect="simplify"
       id="path-effect232"
       is_visible="true"
       lpeversion="1"
       steps="1"
       threshold="0.0028332064"
       smooth_angles="0"
       helper_size="0"
       simplify_individual_paths="false"
       simplify_just_coalesce="false"
       step="1" />
    <inkscape:path-effect
       effect="powerstroke"
       id="path-effect227"
       is_visible="true"
       lpeversion="1"
       offset_points="2.1868266,0.075169555"
       not_jump="true"
       sort_points="true"
       interpolator_type="CentripetalCatmullRom"
       interpolator_beta="0.75"
       start_linecap_type="round"
       linejoin_type="spiro"
       miter_limit="4"
       scale_width="1"
       end_linecap_type="round" />
    <inkscape:path-effect
       effect="simplify"
       id="path-effect225"
       is_visible="true"
       lpeversion="1"
       steps="1"
       threshold="0.0028332064"
       smooth_angles="0"
       helper_size="0"
       simplify_individual_paths="false"
       simplify_just_coalesce="false"
       step="1" />
    <inkscape:path-effect
       effect="powerstroke"
       id="path-effect166"
       is_visible="true"
       lpeversion="1"
       offset_points="1.9637935,0.075169555"
       not_jump="true"
       sort_points="true"
       interpolator_type="CentripetalCatmullRom"
       interpolator_beta="0.75"
       start_linecap_type="round"
       linejoin_type="spiro"
       miter_limit="4"
       scale_width="1"
       end_linecap_type="round" />
    <inkscape:path-effect
       effect="simplify"
       id="path-effect164"
       is_visible="true"
       lpeversion="1"
       steps="1"
       threshold="0.0028332064"
       smooth_angles="0"
       helper_size="0"
       simplify_individual_paths="false"
       simplify_just_coalesce="false"
       step="1" />
    <inkscape:path-effect
       effect="powerstroke"
       id="path-effect159"
       is_visible="true"
       lpeversion="1"
       offset_points="2.2611036,0.075169555"
       not_jump="true"
       sort_points="true"
       interpolator_type="CentripetalCatmullRom"
       interpolator_beta="0.75"
       start_linecap_type="round"
       linejoin_type="spiro"
       miter_limit="4"
       scale_width="1"
       end_linecap_type="round" />
    <inkscape:path-effect
       effect="simplify"
       id="path-effect157"
       is_visible="true"
       lpeversion="1"
       steps="1"
       threshold="0.0028332064"
       smooth_angles="0"
       helper_size="0"
       simplify_individual_paths="false"
       simplify_just_coalesce="false"
       step="1" />
    <inkscape:path-effect
       effect="powerstroke"
       id="path-effect152"
       is_visible="true"
       lpeversion="1"
       offset_points="2.826981,0.075169555"
       not_jump="true"
       sort_points="true"
       interpolator_type="CentripetalCatmullRom"
       interpolator_beta="0.75"
       start_linecap_type="round"
       linejoin_type="spiro"
       miter_limit="4"
       scale_width="1"
       end_linecap_type="round" />
    <inkscape:path-effect
       effect="simplify"
       id="path-effect150"
       is_visible="true"
       lpeversion="1"
       steps="1"
       threshold="0.0028332064"
       smooth_angles="0"
       helper_size="0"
       simplify_individual_paths="false"
       simplify_just_coalesce="false"
       step="1" />
    <inkscape:path-effect
       effect="powerstroke"
       id="path-effect145"
       is_visible="true"
       lpeversion="1"
       offset_points="3.8374447,0.075169555"
       not_jump="true"
       sort_points="true"
       interpolator_type="CentripetalCatmullRom"
       interpolator_beta="0.75"
       start_linecap_type="round"
       linejoin_type="spiro"
       miter_limit="4"
       scale_width="1"
       end_linecap_type="round" />
    <inkscape:path-effect
       effect="simplify"
       id="path-effect143"
       is_visible="true"
       lpeversion="1"
       steps="1"
       threshold="0.0028332064"
       smooth_angles="0"
       helper_size="0"
       simplify_individual_paths="false"
       simplify_just_coalesce="false"
       step="1" />
    <inkscape:path-effect
       effect="powerstroke"
       id="path-effect138"
       is_visible="true"
       lpeversion="1"
       offset_points="2.6880907,0.075169555"
       not_jump="true"
       sort_points="true"
       interpolator_type="CentripetalCatmullRom"
       interpolator_beta="0.75"
       start_linecap_type="round"
       linejoin_type="spiro"
       miter_limit="4"
       scale_width="1"
       end_linecap_type="round" />
    <inkscape:path-effect
       effect="simplify"
       id="path-effect136"
       is_visible="true"
       lpeversion="1"
       steps="1"
       threshold="0.0028332064"
       smooth_angles="0"
       helper_size="0"
       simplify_individual_paths="false"
       simplify_just_coalesce="false"
       step="1" />
    <inkscape:path-effect
       effect="powerstroke"
       id="path-effect131"
       is_visible="true"
       lpeversion="1"
       offset_points="1.9940581,0.075169555"
       not_jump="true"
       sort_points="true"
       interpolator_type="CentripetalCatmullRom"
       interpolator_beta="0.75"
       start_linecap_type="round"
       linejoin_type="spiro"
       miter_limit="4"
       scale_width="1"
       end_linecap_type="round" />
    <inkscape:path-effect
       effect="simplify"
       id="path-effect129"
       is_visible="true"
       lpeversion="1"
       steps="1"
       threshold="0.0028332064"
       smooth_angles="0"
       helper_size="0"
       simplify_individual_paths="false"
       simplify_just_coalesce="false"
       step="1" />
  </defs>
  <sodipodi:namedview
     id="base"
     pagecolor="#ffffff"
     bordercolor="#666666"
     borderopacity="1.0"
     inkscape:pageopacity="0.0"
     inkscape:pageshadow="2"
     inkscape:zoom="15.839192"
     inkscape:cx="1.894036"
     inkscape:cy="19.887378"
     inkscape:document-units="mm"
     inkscape:current-layer="layer1"
     showgrid="false"
     fit-margin-top="0"
     fit-margin-left="0"
     fit-margin-right="0"
     fit-margin-bottom="0"
     inkscape:window-width="1920"
     inkscape:window-height="1057"
     inkscape:window-x="1072"
     inkscape:window-y="321"
     inkscape:window-maximized="1"
     showguides="true"
     inkscape:guide-bbox="true"
     inkscape:snap-bbox="true"
     inkscape:bbox-nodes="true"
     inkscape:snap-nodes="false"
     inkscape:snap-others="false"
     inkscape:snap-page="true"
     inkscape:snap-grids="false"
     inkscape:snap-to-guides="false"
     inkscape:snap-global="false"
     inkscape:pagecheckerboard="0"
     inkscape:showpageshadow="2"
     inkscape:deskcolor="#d1d1d1">
    <sodipodi:guide
       position="-6.1806075,9.4988692"
       orientation="0,1"
       id="guide816"
       inkscape:locked="false" />
    <sodipodi:guide
       position="-4.4101636,10.646923"
       orientation="0,1"
       id="guide818"
       inkscape:locked="false" />
    <sodipodi:guide
       position="2.7595724,11.09577"
       orientation="1,0"
       id="guide820"
       inkscape:locked="false" />
    <sodipodi:guide
       position="3.6572659,10.942217"
       orientation="1,0"
       id="guide822"
       inkscape:locked="false" />
    <sodipodi:guide
       position="-0.051625511,9.7492299"
       orientation="1,0"
       id="guide1853"
       inkscape:locked="false" />
    <sodipodi:guide
       position="-2.3720169,3.0175835"
       orientation="0,1"
       id="guide1855"
       inkscape:locked="false" />
  </sodipodi:namedview>
  <metadata
     id="metadata1678">
    <rdf:RDF>
      <cc:Work
         rdf:about="">
        <dc:format>image/svg+xml</dc:format>
        <dc:type
           rdf:resource="http://purl.org/dc/dcmitype/StillImage" />
      </cc:Work>
    </rdf:RDF>
  </metadata>
  <g
     inkscape:label="Layer 1"
     inkscape:groupmode="layer"
     id="layer1"
     transform="translate(17.028496,-147.22856)">
    <path
       d="m -17.108388,150.86517 c 0.01537,0.36321 0.0434,1.08211 0.06081,1.89984 0.0023,0.56341 0.0013,0.67673 0.0036,1.24183 3.94e-4,0.0651 8.89e-4,0.12858 0.0015,0.19098 6.9e-5,0.007 1.79e-4,0.0144 0.0014,0.0216 0.0012,0.007 0.0035,0.0141 0.0073,0.0202 0.0038,0.006 0.0092,0.0113 0.0155,0.0147 0.0063,0.003 0.01364,0.005 0.02084,0.005 0.0072,-3.9e-4 0.01425,-0.003 0.02036,-0.007 0.0061,-0.004 0.01129,-0.009 0.01541,-0.015 0.0083,-0.0118 0.01219,-0.026 0.01591,-0.04 0.0037,-0.0139 0.0076,-0.0281 0.01588,-0.04 0.0041,-0.006 0.0093,-0.0112 0.01539,-0.015 0.0061,-0.004 0.01315,-0.006 0.02035,-0.007 0.0072,-4e-4 0.0145,0.001 0.02085,0.005 0.0064,0.003 0.0117,0.009 0.01555,0.0147 0.0038,0.006 0.0062,0.0131 0.0074,0.0202 0.0012,0.007 0.0014,0.0143 0.0015,0.0216 -0.0042,-0.31575 -0.0403,-0.57578 -0.03915,-0.88418 -4.92e-4,-0.20297 -0.007,-0.41723 -0.0035,-0.64761 9.42e-4,-0.0621 0.0027,-0.12469 0.0056,-0.18731 0.01234,-0.26316 0.04598,-0.53522 0.136718,-0.79833 0.04688,-0.1298 0.115613,-0.26516 0.20937,-0.3778 0.0446,-0.0536 0.09478,-0.1019 0.150818,-0.14193 0.05421,-0.0387 0.114261,-0.0699 0.180739,-0.0907 0.106639,-0.0368 0.227261,-0.0426 0.340021,-0.0121 0.0536,0.0145 0.104598,0.037 0.149949,0.0677 0.04398,0.0298 0.08287,0.0673 0.113843,0.11317 0.101555,0.14709 0.166722,0.31529 0.213774,0.50385 0.0056,0.0224 0.01093,0.0451 0.01604,0.068 0.03519,0.15803 0.0557,0.3065 0.08412,0.49245 -1.4e-5,0.007 1.55e-4,0.0137 4.58e-4,0.0205 4.35e-4,0.01 0.0012,0.0199 0.0022,0.0298 9.74e-4,0.01 0.0022,0.0197 0.0038,0.0293 0.0015,0.009 0.0036,0.0196 0.0066,0.0301 0.0015,0.005 0.0037,0.012 0.007,0.0195 0.0017,0.004 0.004,0.009 0.0073,0.014 0.0031,0.005 0.008,0.0124 0.01525,0.02 0.007,0.007 0.01918,0.0181 0.03719,0.0256 0.0093,0.004 0.02002,0.007 0.03199,0.008 0.01203,0.001 0.02404,1.7e-4 0.03557,-0.003 0.01139,-0.003 0.02125,-0.007 0.02947,-0.012 0.0081,-0.005 0.01466,-0.01 0.01975,-0.0148 0.0098,-0.009 0.01611,-0.0186 0.01983,-0.0249 0.0072,-0.0121 0.01093,-0.0235 0.01283,-0.0299 0.0022,-0.007 0.0037,-0.0144 0.0049,-0.0208 0.0024,-0.0126 0.0042,-0.0272 0.0057,-0.0435 0.0028,-0.0913 -0.004,-0.17562 -0.0069,-0.25333 -0.0029,-0.0762 -0.0022,-0.14627 0.0115,-0.2134 0.02516,-0.14829 0.0687,-0.29416 0.135244,-0.42622 0.0658,-0.13059 0.153091,-0.24573 0.264774,-0.33358 0.05514,-0.0448 0.122885,-0.0734 0.190404,-0.081 0.03371,-0.004 0.06652,-0.002 0.09713,0.005 0.03077,0.007 0.05963,0.0192 0.08576,0.0373 0.04191,0.0287 0.07871,0.0625 0.112088,0.10046 0.034,0.0387 0.06445,0.0817 0.09257,0.12771 0.05806,0.0951 0.105481,0.20204 0.152505,0.30546 0.24231,0.59681 0.34297,1.2313 0.394995,1.77078 0.01734,0.19675 0.02224,0.34377 0.02234,0.45725 a 0.10448372,0.10448372 90 0 0 0.208968,-1.8e-4 c -1.05e-4,-0.11971 -0.0048,-0.2722 -0.02205,-0.47615 -0.05242,-0.54872 -0.155003,-1.20666 -0.409649,-1.83523 -0.04651,-0.10314 -0.09936,-0.22367 -0.165529,-0.33254 -0.03277,-0.0539 -0.0702,-0.10749 -0.114048,-0.15756 -0.04322,-0.0494 -0.09292,-0.0956 -0.150929,-0.13553 -0.04931,-0.0343 -0.103741,-0.0574 -0.159969,-0.0702 -0.05555,-0.0126 -0.112305,-0.015 -0.167681,-0.009 -0.109279,0.012 -0.21557,0.0571 -0.300682,0.12607 -0.139646,0.10964 -0.24551,0.25138 -0.322737,0.40449 -0.07795,0.15455 -0.127261,0.32163 -0.154638,0.48348 -0.01835,0.0896 -0.018,0.18067 -0.01482,0.26113 0.0036,0.0902 0.0097,0.15711 0.0078,0.23258 -7.43e-4,0.006 -0.0018,0.0136 -0.0024,0.0171 -2.86e-4,0.002 -2.63e-4,0.001 3.84e-4,-9.5e-4 3.42e-4,-0.001 0.0026,-0.009 0.0082,-0.0181 0.0029,-0.005 0.0084,-0.0132 0.01747,-0.0218 0.0047,-0.004 0.01084,-0.009 0.01857,-0.0139 0.0078,-0.005 0.0173,-0.009 0.02829,-0.0115 0.01113,-0.003 0.02275,-0.004 0.03439,-0.003 0.01157,0.001 0.02193,0.004 0.03081,0.008 0.01723,0.007 0.0286,0.0173 0.03485,0.0239 0.0065,0.007 0.01064,0.0131 0.01293,0.0169 0.0024,0.004 0.004,0.007 0.005,0.01 0.0018,0.004 0.0025,0.007 0.0026,0.007 3.75e-4,0.001 -5.27e-4,-0.002 -0.0013,-0.006 -8.23e-4,-0.004 -0.0016,-0.01 -0.0024,-0.0159 -7.37e-4,-0.006 -0.0013,-0.0124 -0.0017,-0.0182 -4.04e-4,-0.006 -5.5e-4,-0.0109 -5.72e-4,-0.0144 -4e-5,-0.006 -2.75e-4,-0.0123 -0.0012,-0.0183 -0.02916,-0.18572 -0.05186,-0.34607 -0.09049,-0.51503 -0.0056,-0.0245 -0.01149,-0.0489 -0.01771,-0.0732 -0.05219,-0.20367 -0.127278,-0.39666 -0.248863,-0.56876 -0.04734,-0.0676 -0.106375,-0.12221 -0.170776,-0.16398 -0.06617,-0.0429 -0.138276,-0.0726 -0.211306,-0.0906 -0.152372,-0.0377 -0.312035,-0.026 -0.44931,0.0251 -0.08379,0.0279 -0.160492,0.0702 -0.227865,0.12043 -0.06945,0.0518 -0.129422,0.1124 -0.180935,0.17677 -0.107615,0.13447 -0.182378,0.29032 -0.232172,0.43437 -0.09622,0.28576 -0.129737,0.57563 -0.142274,0.84627 -0.003,0.0647 -0.0048,0.12893 -0.0059,0.19238 -0.004,0.23536 0.0011,0.4499 -5.02e-4,0.64886 -0.0076,0.32139 0.017,0.5839 0.0159,0.88658 l 0.193623,-9e-4 c -3.9e-5,0.0395 1.97e-4,-0.23019 1.58e-4,-0.1907 1.79e-4,-0.3248 7.35e-4,-0.83792 -0.0013,-1.24387 -0.01799,-0.82204 -0.04792,-1.54118 -0.06333,-1.90552 a 0.09763233,0.09763233 90 0 0 -0.19509,0.008 z"
       id="path-1"
       inkscape:path-effect="#path-effect352;#path-effect354"
       inkscape:original-d="m -17.010843,150.86104 c 0.02478,0.52737 0.03763,1.05491 0.0553,1.58264 0.01036,0.30952 0.0079,0.61904 0.0079,0.92869 0,0.27504 0.002,0.55001 0.002,0.82504 0,0.0127 0,-0.0254 0,-0.0382 0,-0.0754 8.06e-4,-0.0861 -0.0049,-0.17803 -0.01491,-0.2386 -0.02271,-0.47526 -0.02271,-0.71444 0,-0.65279 -0.06616,-1.61123 0.449295,-2.11327 0.271611,-0.26453 0.758867,-0.30937 1.00326,0.0266 0.113514,0.15605 0.182134,0.34821 0.230078,0.53333 0.04768,0.1841 0.07396,0.37535 0.103684,0.563 0.0065,0.0407 0.0085,0.16182 0.01975,0.12215 0.02705,-0.095 -6.99e-4,-0.23627 0,-0.33371 0.0017,-0.24316 0.06559,-0.47694 0.180705,-0.69209 0.225164,-0.42085 0.646274,-0.64335 0.9608,-0.18767 0.421063,0.61003 0.631975,1.92366 0.631975,2.66123"
       style="fill:#000000;fill-rule:nonzero;stroke:none" />
  </g>
</svg>
