<?xml version="1.0" encoding="UTF-8" standalone="no"?>
<!-- Created with Inkscape (http://www.inkscape.org/) -->

<svg
   width="4mm"
   height="10mm"
   viewBox="0 0 4.0000001 9.9999994"
   version="1.1"
   id="svg1681"
   inkscape:version="1.2.1 (9c6d41e410, 2022-07-14)"
   sodipodi:docname="lower_m_8.svg"
   inkscape:export-filename="..\..\..\..\Downloads\lower a diff canvas resize 3.0.png"
   inkscape:export-xdpi="96"
   inkscape:export-ydpi="96"
   xmlns:inkscape="http://www.inkscape.org/namespaces/inkscape"
   xmlns:sodipodi="http://sodipodi.sourceforge.net/DTD/sodipodi-0.dtd"
   xmlns="http://www.w3.org/2000/svg"
   xmlns:svg="http://www.w3.org/2000/svg"
   xmlns:rdf="http://www.w3.org/1999/02/22-rdf-syntax-ns#"
   xmlns:cc="http://creativecommons.org/ns#"
   xmlns:dc="http://purl.org/dc/elements/1.1/">
  <defs
     id="defs1675">
    <inkscape:path-effect
       effect="powerstroke"
       id="path-effect681"
       is_visible="true"
       lpeversion="1"
       offset_points="2.217234,0.10252618 | 8.9442199,0.11769712"
       not_jump="true"
       sort_points="true"
       interpolator_type="CentripetalCatmullRom"
       interpolator_beta="0.75"
       start_linecap_type="round"
       linejoin_type="spiro"
       miter_limit="4"
       scale_width="1"
       end_linecap_type="round" />
    <inkscape:path-effect
       effect="simplify"
       id="path-effect679"
       is_visible="true"
       lpeversion="1"
       steps="1"
       threshold="0.0047745358"
       smooth_angles="0"
       helper_size="0"
       simplify_individual_paths="false"
       simplify_just_coalesce="false"
       step="1" />
    <inkscape:path-effect
       effect="powerstroke"
       id="path-effect622"
       is_visible="true"
       lpeversion="1"
       offset_points="1.7202203,0.1083988"
       not_jump="true"
       sort_points="true"
       interpolator_type="CentripetalCatmullRom"
       interpolator_beta="0.75"
       start_linecap_type="round"
       linejoin_type="spiro"
       miter_limit="4"
       scale_width="1"
       end_linecap_type="round" />
    <inkscape:path-effect
       effect="simplify"
       id="path-effect620"
       is_visible="true"
       lpeversion="1"
       steps="1"
       threshold="0.0047745358"
       smooth_angles="0"
       helper_size="0"
       simplify_individual_paths="false"
       simplify_just_coalesce="false"
       step="1" />
    <inkscape:path-effect
       effect="powerstroke"
       id="path-effect565"
       is_visible="true"
       lpeversion="1"
       offset_points="2.2898405,0.099589871 | 6.6413189,0.085887088 | 9.3403103,0.097877023 | 13.278467,0.11427142"
       not_jump="true"
       sort_points="true"
       interpolator_type="CentripetalCatmullRom"
       interpolator_beta="0.75"
       start_linecap_type="round"
       linejoin_type="spiro"
       miter_limit="4"
       scale_width="1"
       end_linecap_type="round" />
    <inkscape:path-effect
       effect="simplify"
       id="path-effect563"
       is_visible="true"
       lpeversion="1"
       steps="1"
       threshold="0.0047745358"
       smooth_angles="0"
       helper_size="0"
       simplify_individual_paths="false"
       simplify_just_coalesce="false"
       step="1" />
    <inkscape:path-effect
       effect="powerstroke"
       id="path-effect510"
       is_visible="true"
       lpeversion="1"
       offset_points="1.9176024,0.17666803 | 6.6799515,0.12405913 | 8.9071225,0.13923007 | 11.94271,0.12626136 | 14.359274,0.148039"
       not_jump="true"
       sort_points="true"
       interpolator_type="CentripetalCatmullRom"
       interpolator_beta="0.75"
       start_linecap_type="round"
       linejoin_type="spiro"
       miter_limit="4"
       scale_width="1"
       end_linecap_type="round" />
    <inkscape:path-effect
       effect="simplify"
       id="path-effect508"
       is_visible="true"
       lpeversion="1"
       steps="1"
       threshold="0.0047745358"
       smooth_angles="0"
       helper_size="0"
       simplify_individual_paths="false"
       simplify_just_coalesce="false"
       step="1" />
    <inkscape:path-effect
       effect="powerstroke"
       id="path-effect457"
       is_visible="true"
       lpeversion="1"
       offset_points="1.698284,0.11157981"
       not_jump="true"
       sort_points="true"
       interpolator_type="CentripetalCatmullRom"
       interpolator_beta="0.75"
       start_linecap_type="round"
       linejoin_type="spiro"
       miter_limit="4"
       scale_width="1"
       end_linecap_type="round" />
    <inkscape:path-effect
       effect="simplify"
       id="path-effect455"
       is_visible="true"
       lpeversion="1"
       steps="1"
       threshold="0.0047745358"
       smooth_angles="0"
       helper_size="0"
       simplify_individual_paths="false"
       simplify_just_coalesce="false"
       step="1" />
    <inkscape:path-effect
       effect="powerstroke"
       id="path-effect450"
       is_visible="true"
       lpeversion="1"
       offset_points="2.3032336,0.10448372 | 5.4261225,0.1216122 | 9.9205125,0.13971945"
       not_jump="true"
       sort_points="true"
       interpolator_type="CentripetalCatmullRom"
       interpolator_beta="0.75"
       start_linecap_type="round"
       linejoin_type="spiro"
       miter_limit="4"
       scale_width="1"
       end_linecap_type="round" />
    <inkscape:path-effect
       effect="simplify"
       id="path-effect448"
       is_visible="true"
       lpeversion="1"
       steps="1"
       threshold="0.0047745358"
       smooth_angles="0"
       helper_size="0"
       simplify_individual_paths="false"
       simplify_just_coalesce="false"
       step="1" />
    <inkscape:path-effect
       effect="powerstroke"
       id="path-effect401"
       is_visible="true"
       lpeversion="1"
       offset_points="1.919598,0.085642395 | 7.1414337,0.095185405 | 11.392776,0.11084573"
       not_jump="true"
       sort_points="true"
       interpolator_type="CentripetalCatmullRom"
       interpolator_beta="0.75"
       start_linecap_type="round"
       linejoin_type="spiro"
       miter_limit="4"
       scale_width="1"
       end_linecap_type="round" />
    <inkscape:path-effect
       effect="simplify"
       id="path-effect399"
       is_visible="true"
       lpeversion="1"
       steps="1"
       threshold="0.0047745358"
       smooth_angles="0"
       helper_size="0"
       simplify_individual_paths="false"
       simplify_just_coalesce="false"
       step="1" />
    <inkscape:path-effect
       effect="powerstroke"
       id="path-effect354"
       is_visible="true"
       lpeversion="1"
       offset_points="1.8669648,0.097632331 | 3.3867434,0.08319547 | 6.5616288,0.10448372"
       not_jump="true"
       sort_points="true"
       interpolator_type="CentripetalCatmullRom"
       interpolator_beta="0.75"
       start_linecap_type="round"
       linejoin_type="spiro"
       miter_limit="4"
       scale_width="1"
       end_linecap_type="round" />
    <inkscape:path-effect
       effect="simplify"
       id="path-effect352"
       is_visible="true"
       lpeversion="1"
       steps="1"
       threshold="0.0047745358"
       smooth_angles="0"
       helper_size="0"
       simplify_individual_paths="false"
       simplify_just_coalesce="false"
       step="1" />
    <inkscape:path-effect
       effect="powerstroke"
       id="path-effect309"
       is_visible="true"
       lpeversion="1"
       offset_points="1.7013678,0.12014405 | 7.8476699,0.13580437"
       not_jump="true"
       sort_points="true"
       interpolator_type="CentripetalCatmullRom"
       interpolator_beta="0.75"
       start_linecap_type="round"
       linejoin_type="spiro"
       miter_limit="4"
       scale_width="1"
       end_linecap_type="round" />
    <inkscape:path-effect
       effect="simplify"
       id="path-effect307"
       is_visible="true"
       lpeversion="1"
       steps="1"
       threshold="0.0047745358"
       smooth_angles="0"
       helper_size="0"
       simplify_individual_paths="false"
       simplify_just_coalesce="false"
       step="1" />
    <inkscape:path-effect
       effect="powerstroke"
       id="path-effect302"
       is_visible="true"
       lpeversion="1"
       offset_points="2.2193262,0.1282189"
       not_jump="true"
       sort_points="true"
       interpolator_type="CentripetalCatmullRom"
       interpolator_beta="0.75"
       start_linecap_type="round"
       linejoin_type="spiro"
       miter_limit="4"
       scale_width="1"
       end_linecap_type="round" />
    <inkscape:path-effect
       effect="simplify"
       id="path-effect300"
       is_visible="true"
       lpeversion="1"
       steps="1"
       threshold="0.0047745358"
       smooth_angles="0"
       helper_size="0"
       simplify_individual_paths="false"
       simplify_just_coalesce="false"
       step="1" />
    <inkscape:path-effect
       effect="powerstroke"
       id="path-effect329"
       is_visible="true"
       lpeversion="1"
       offset_points="2.036852,0.12799523 | 9.038239,0.16903718 | 11.263778,0.13750213"
       not_jump="true"
       sort_points="true"
       interpolator_type="CentripetalCatmullRom"
       interpolator_beta="0.75"
       start_linecap_type="round"
       linejoin_type="spiro"
       miter_limit="4"
       scale_width="1"
       end_linecap_type="round" />
    <inkscape:path-effect
       effect="simplify"
       id="path-effect327"
       is_visible="true"
       lpeversion="1"
       steps="1"
       threshold="0.0035951417"
       smooth_angles="0"
       helper_size="0"
       simplify_individual_paths="false"
       simplify_just_coalesce="false"
       step="1" />
    <inkscape:path-effect
       effect="powerstroke"
       id="path-effect502"
       is_visible="true"
       lpeversion="1"
       offset_points="3.0091841,0.21607495 | 7.3602657,0.17554228 | 9.4159651,0.20236537"
       not_jump="true"
       sort_points="true"
       interpolator_type="CentripetalCatmullRom"
       interpolator_beta="0.75"
       start_linecap_type="round"
       linejoin_type="spiro"
       miter_limit="4"
       scale_width="1"
       end_linecap_type="round" />
    <inkscape:path-effect
       effect="simplify"
       id="path-effect500"
       is_visible="true"
       lpeversion="1"
       steps="1"
       threshold="0.0035951417"
       smooth_angles="0"
       helper_size="0"
       simplify_individual_paths="false"
       simplify_just_coalesce="false"
       step="1" />
    <inkscape:path-effect
       effect="powerstroke"
       id="path-effect241"
       is_visible="true"
       lpeversion="1"
       offset_points="2.6879454,0.34086734"
       not_jump="true"
       sort_points="true"
       interpolator_type="CentripetalCatmullRom"
       interpolator_beta="0.75"
       start_linecap_type="round"
       linejoin_type="spiro"
       miter_limit="4"
       scale_width="1"
       end_linecap_type="round" />
    <inkscape:path-effect
       effect="simplify"
       id="path-effect239"
       is_visible="true"
       lpeversion="1"
       steps="1"
       threshold="0.0028332064"
       smooth_angles="0"
       helper_size="0"
       simplify_individual_paths="false"
       simplify_just_coalesce="false"
       step="1" />
    <inkscape:path-effect
       effect="powerstroke"
       id="path-effect234"
       is_visible="true"
       lpeversion="1"
       offset_points="2.13563,0.075169555"
       not_jump="true"
       sort_points="true"
       interpolator_type="CentripetalCatmullRom"
       interpolator_beta="0.75"
       start_linecap_type="round"
       linejoin_type="spiro"
       miter_limit="4"
       scale_width="1"
       end_linecap_type="round" />
    <inkscape:path-effect
       effect="simplify"
       id="path-effect232"
       is_visible="true"
       lpeversion="1"
       steps="1"
       threshold="0.0028332064"
       smooth_angles="0"
       helper_size="0"
       simplify_individual_paths="false"
       simplify_just_coalesce="false"
       step="1" />
    <inkscape:path-effect
       effect="powerstroke"
       id="path-effect227"
       is_visible="true"
       lpeversion="1"
       offset_points="2.1868266,0.075169555"
       not_jump="true"
       sort_points="true"
       interpolator_type="CentripetalCatmullRom"
       interpolator_beta="0.75"
       start_linecap_type="round"
       linejoin_type="spiro"
       miter_limit="4"
       scale_width="1"
       end_linecap_type="round" />
    <inkscape:path-effect
       effect="simplify"
       id="path-effect225"
       is_visible="true"
       lpeversion="1"
       steps="1"
       threshold="0.0028332064"
       smooth_angles="0"
       helper_size="0"
       simplify_individual_paths="false"
       simplify_just_coalesce="false"
       step="1" />
    <inkscape:path-effect
       effect="powerstroke"
       id="path-effect166"
       is_visible="true"
       lpeversion="1"
       offset_points="1.9637935,0.075169555"
       not_jump="true"
       sort_points="true"
       interpolator_type="CentripetalCatmullRom"
       interpolator_beta="0.75"
       start_linecap_type="round"
       linejoin_type="spiro"
       miter_limit="4"
       scale_width="1"
       end_linecap_type="round" />
    <inkscape:path-effect
       effect="simplify"
       id="path-effect164"
       is_visible="true"
       lpeversion="1"
       steps="1"
       threshold="0.0028332064"
       smooth_angles="0"
       helper_size="0"
       simplify_individual_paths="false"
       simplify_just_coalesce="false"
       step="1" />
    <inkscape:path-effect
       effect="powerstroke"
       id="path-effect159"
       is_visible="true"
       lpeversion="1"
       offset_points="2.2611036,0.075169555"
       not_jump="true"
       sort_points="true"
       interpolator_type="CentripetalCatmullRom"
       interpolator_beta="0.75"
       start_linecap_type="round"
       linejoin_type="spiro"
       miter_limit="4"
       scale_width="1"
       end_linecap_type="round" />
    <inkscape:path-effect
       effect="simplify"
       id="path-effect157"
       is_visible="true"
       lpeversion="1"
       steps="1"
       threshold="0.0028332064"
       smooth_angles="0"
       helper_size="0"
       simplify_individual_paths="false"
       simplify_just_coalesce="false"
       step="1" />
    <inkscape:path-effect
       effect="powerstroke"
       id="path-effect152"
       is_visible="true"
       lpeversion="1"
       offset_points="2.826981,0.075169555"
       not_jump="true"
       sort_points="true"
       interpolator_type="CentripetalCatmullRom"
       interpolator_beta="0.75"
       start_linecap_type="round"
       linejoin_type="spiro"
       miter_limit="4"
       scale_width="1"
       end_linecap_type="round" />
    <inkscape:path-effect
       effect="simplify"
       id="path-effect150"
       is_visible="true"
       lpeversion="1"
       steps="1"
       threshold="0.0028332064"
       smooth_angles="0"
       helper_size="0"
       simplify_individual_paths="false"
       simplify_just_coalesce="false"
       step="1" />
    <inkscape:path-effect
       effect="powerstroke"
       id="path-effect145"
       is_visible="true"
       lpeversion="1"
       offset_points="3.8374447,0.075169555"
       not_jump="true"
       sort_points="true"
       interpolator_type="CentripetalCatmullRom"
       interpolator_beta="0.75"
       start_linecap_type="round"
       linejoin_type="spiro"
       miter_limit="4"
       scale_width="1"
       end_linecap_type="round" />
    <inkscape:path-effect
       effect="simplify"
       id="path-effect143"
       is_visible="true"
       lpeversion="1"
       steps="1"
       threshold="0.0028332064"
       smooth_angles="0"
       helper_size="0"
       simplify_individual_paths="false"
       simplify_just_coalesce="false"
       step="1" />
    <inkscape:path-effect
       effect="powerstroke"
       id="path-effect138"
       is_visible="true"
       lpeversion="1"
       offset_points="2.6880907,0.075169555"
       not_jump="true"
       sort_points="true"
       interpolator_type="CentripetalCatmullRom"
       interpolator_beta="0.75"
       start_linecap_type="round"
       linejoin_type="spiro"
       miter_limit="4"
       scale_width="1"
       end_linecap_type="round" />
    <inkscape:path-effect
       effect="simplify"
       id="path-effect136"
       is_visible="true"
       lpeversion="1"
       steps="1"
       threshold="0.0028332064"
       smooth_angles="0"
       helper_size="0"
       simplify_individual_paths="false"
       simplify_just_coalesce="false"
       step="1" />
    <inkscape:path-effect
       effect="powerstroke"
       id="path-effect131"
       is_visible="true"
       lpeversion="1"
       offset_points="1.9940581,0.075169555"
       not_jump="true"
       sort_points="true"
       interpolator_type="CentripetalCatmullRom"
       interpolator_beta="0.75"
       start_linecap_type="round"
       linejoin_type="spiro"
       miter_limit="4"
       scale_width="1"
       end_linecap_type="round" />
    <inkscape:path-effect
       effect="simplify"
       id="path-effect129"
       is_visible="true"
       lpeversion="1"
       steps="1"
       threshold="0.0028332064"
       smooth_angles="0"
       helper_size="0"
       simplify_individual_paths="false"
       simplify_just_coalesce="false"
       step="1" />
  </defs>
  <sodipodi:namedview
     id="base"
     pagecolor="#ffffff"
     bordercolor="#666666"
     borderopacity="1.0"
     inkscape:pageopacity="0.0"
     inkscape:pageshadow="2"
     inkscape:zoom="15.839192"
     inkscape:cx="1.894036"
     inkscape:cy="19.887378"
     inkscape:document-units="mm"
     inkscape:current-layer="layer1"
     showgrid="false"
     fit-margin-top="0"
     fit-margin-left="0"
     fit-margin-right="0"
     fit-margin-bottom="0"
     inkscape:window-width="1920"
     inkscape:window-height="1057"
     inkscape:window-x="1072"
     inkscape:window-y="321"
     inkscape:window-maximized="1"
     showguides="true"
     inkscape:guide-bbox="true"
     inkscape:snap-bbox="true"
     inkscape:bbox-nodes="true"
     inkscape:snap-nodes="false"
     inkscape:snap-others="false"
     inkscape:snap-page="true"
     inkscape:snap-grids="false"
     inkscape:snap-to-guides="false"
     inkscape:snap-global="false"
     inkscape:pagecheckerboard="0"
     inkscape:showpageshadow="2"
     inkscape:deskcolor="#d1d1d1">
    <sodipodi:guide
       position="-6.1806075,9.4988692"
       orientation="0,1"
       id="guide816"
       inkscape:locked="false" />
    <sodipodi:guide
       position="-4.4101636,10.646923"
       orientation="0,1"
       id="guide818"
       inkscape:locked="false" />
    <sodipodi:guide
       position="2.7595724,11.09577"
       orientation="1,0"
       id="guide820"
       inkscape:locked="false" />
    <sodipodi:guide
       position="3.6572659,10.942217"
       orientation="1,0"
       id="guide822"
       inkscape:locked="false" />
    <sodipodi:guide
       position="-0.051625511,9.7492299"
       orientation="1,0"
       id="guide1853"
       inkscape:locked="false" />
    <sodipodi:guide
       position="-2.3720169,3.0175835"
       orientation="0,1"
       id="guide1855"
       inkscape:locked="false" />
  </sodipodi:namedview>
  <metadata
     id="metadata1678">
    <rdf:RDF>
      <cc:Work
         rdf:about="">
        <dc:format>image/svg+xml</dc:format>
        <dc:type
           rdf:resource="http://purl.org/dc/dcmitype/StillImage" />
      </cc:Work>
    </rdf:RDF>
  </metadata>
  <g
     inkscape:label="Layer 1"
     inkscape:groupmode="layer"
     id="layer1"
     transform="translate(17.028496,-147.22856)">
    <path
       d="m -16.916649,150.43084 c -3.16e-4,-0.003 -0.0029,-0.0308 -0.0032,-0.0343 0.0018,0.0196 -0.0046,-0.0489 -0.0027,-0.0293 -1.54e-4,-0.002 -2.91e-4,-0.003 -3.94e-4,-0.004 9.8e-5,0.008 7.7e-5,0.009 -5.2e-5,0.0118 -6.6e-5,0.001 -1.86e-4,0.003 -4.21e-4,0.005 -2.07e-4,0.002 -6.67e-4,0.006 -0.0017,0.0106 -5.28e-4,0.002 -0.0014,0.006 -0.0029,0.0106 -0.0013,0.004 -0.004,0.0113 -0.0088,0.0196 -0.0025,0.004 -0.0062,0.01 -0.01148,0.0159 -0.0052,0.006 -0.01283,0.0132 -0.02331,0.0196 -0.01082,0.007 -0.0243,0.0121 -0.04003,0.0142 -0.01582,0.002 -0.03074,3.3e-4 -0.04373,-0.004 -0.01264,-0.004 -0.02246,-0.01 -0.02949,-0.0147 -0.007,-0.005 -0.01225,-0.0102 -0.0159,-0.0142 -0.007,-0.008 -0.01132,-0.0149 -0.01349,-0.0188 -0.0024,-0.004 -0.0041,-0.008 -0.0051,-0.0104 -0.0011,-0.003 -0.0019,-0.005 -0.0024,-0.006 -0.0011,-0.003 -0.0018,-0.006 -0.0022,-0.007 -0.0014,-0.006 -0.0016,-0.007 -0.0018,-0.008 -6.6e-4,-0.004 -2.55e-4,4.5e-4 3.7e-4,0.007 -5.3e-5,-5.8e-4 0.0025,0.0278 0.0025,0.0272 0.0083,0.0938 0.0069,0.18885 0.0029,0.29939 -0.0035,0.0978 -0.0091,0.21021 -0.0058,0.31938 -4.74e-4,0.0966 -0.0017,0.42768 -0.0021,0.52795 -0.0021,0.55906 -0.0051,1.24616 -0.01774,1.9136 -0.0041,0.11561 -0.01248,0.2296 -0.01661,0.34667 -0.004,0.11444 -0.0042,0.23824 0.01085,0.36381 6.69e-4,0.006 0.0015,0.0112 0.0031,0.0166 0.0016,0.005 0.0039,0.0106 0.0063,0.0157 0.003,0.007 0.007,0.0145 0.01205,0.0224 0.0026,0.004 0.0061,0.009 0.01082,0.0147 0.0044,0.005 0.01197,0.0133 0.02312,0.0208 0.0058,0.004 0.01346,0.008 0.02296,0.0119 0.0096,0.004 0.02159,0.007 0.03506,0.007 0.01382,4.4e-4 0.02783,-0.002 0.04121,-0.007 0.01319,-0.005 0.02397,-0.0118 0.03243,-0.0189 0.0083,-0.007 0.01441,-0.0143 0.01878,-0.0205 0.0044,-0.006 0.0075,-0.0119 0.0098,-0.0167 0.0044,-0.009 0.0068,-0.0173 0.0081,-0.0226 0.0027,-0.0105 0.0036,-0.02 0.0041,-0.0258 5.05e-4,-0.007 6.75e-4,-0.0128 7.04e-4,-0.0184 6e-5,-0.0111 -4.2e-4,-0.023 -0.001,-0.0342 -0.0013,-0.0227 -0.0034,-0.0468 -0.0047,-0.0662 -6.87e-4,-0.01 -0.0012,-0.0178 -0.0013,-0.0235 -6.8e-5,-0.003 -4.1e-5,-0.005 1.6e-5,-0.005 4.1e-5,0.002 -2.3e-5,0.003 -3.45e-4,0.006 l 6e-4,-0.0216 c -0.02787,-0.40002 -0.06296,-0.80929 -0.04574,-1.21313 0.0099,-0.27846 0.02504,-0.55713 0.06148,-0.83099 0.03637,-0.2733 0.09367,-0.53986 0.186928,-0.79491 0.0455,-0.11693 0.103407,-0.23426 0.178352,-0.3287 0.03743,-0.0472 0.07812,-0.0873 0.122458,-0.11909 0.04443,-0.0318 0.09285,-0.0554 0.146344,-0.0692 0.03613,-0.0107 0.06858,-0.0146 0.100963,-0.0136 0.03282,0.001 0.06575,0.007 0.09779,0.0176 0.05834,0.0192 0.1124,0.0529 0.156309,0.0959 0.0055,0.005 0.01094,0.011 0.01619,0.0168 0.136726,0.13438 0.246303,0.29154 0.331496,0.47115 0.08084,0.17043 0.138311,0.35821 0.171865,0.55445 0.04357,0.23101 0.0646,0.47761 0.099,0.73144 0.0026,0.0192 0.0053,0.0384 0.01034,0.057 0.0051,0.0187 0.01263,0.0368 0.02373,0.0526 0.0111,0.0158 0.02579,0.0293 0.04302,0.0381 0.01723,0.009 0.03692,0.0128 0.05618,0.011 0.01926,-0.002 0.03794,-0.009 0.05335,-0.0208 0.01541,-0.0117 0.0275,-0.0275 0.03563,-0.0451 0.0081,-0.0175 0.01237,-0.0367 0.01408,-0.056 0.0017,-0.0193 9.54e-4,-0.0387 1.36e-4,-0.058 -0.0081,-0.19205 -0.02026,-0.37955 -0.01456,-0.56524 0.0057,-0.18432 0.02888,-0.36018 0.08843,-0.52644 0.04433,-0.12643 0.09833,-0.24873 0.169278,-0.35199 0.03564,-0.0519 0.07484,-0.0979 0.118179,-0.13675 0.04373,-0.0392 0.09171,-0.0712 0.144875,-0.095 0.04381,-0.0178 0.09201,-0.0252 0.140181,-0.0233 0.04939,0.002 0.09962,0.0139 0.148864,0.0341 0.05037,0.0206 0.09879,0.0495 0.14301,0.0838 0.0454,0.0353 0.08549,0.0757 0.118525,0.11768 0.128367,0.16225 0.220648,0.34379 0.292471,0.52685 0.07796,0.19872 0.135129,0.40861 0.183039,0.59778 0.157977,0.67331 0.20113,1.23681 0.206771,1.64339 a 0.11769712,0.11769712 90 0 0 0.235372,-0.003 c -0.0058,-0.42051 -0.05024,-1.00125 -0.212933,-1.69598 -0.04871,-0.19288 -0.108689,-0.41483 -0.192241,-0.62816 -0.07718,-0.19706 -0.179675,-0.40121 -0.326577,-0.58711 -0.04444,-0.0566 -0.09816,-0.11077 -0.158998,-0.15814 -0.0592,-0.0461 -0.126099,-0.0865 -0.198575,-0.11621 -0.0709,-0.0291 -0.148233,-0.0484 -0.229023,-0.0517 -0.07965,-0.003 -0.162009,0.009 -0.243016,0.042 -0.08118,0.0361 -0.149754,0.0822 -0.210227,0.1364 -0.05963,0.0534 -0.110952,0.11429 -0.155443,0.17899 -0.08763,0.12742 -0.149953,0.27149 -0.197548,0.40714 -0.07062,0.19703 -0.09593,0.39976 -0.102024,0.59856 -0.006,0.19706 0.0069,0.3979 0.01473,0.58261 l 0.236463,-0.021 c -0.03403,-0.25036 -0.0538,-0.49206 -0.101223,-0.74156 -0.03666,-0.21345 -0.100384,-0.42217 -0.191584,-0.61383 -0.09622,-0.20222 -0.221639,-0.38263 -0.375758,-0.53331 -0.0038,-0.004 -0.01239,-0.0132 -0.02115,-0.0217 -0.06876,-0.0668 -0.153933,-0.11969 -0.248218,-0.15011 -0.05215,-0.0168 -0.107319,-0.0268 -0.164005,-0.0282 -0.0561,-0.001 -0.113496,0.006 -0.170214,0.0232 -0.07913,0.0207 -0.153249,0.0577 -0.218656,0.10508 -0.06469,0.0468 -0.120224,0.10324 -0.168074,0.1642 -0.09448,0.12036 -0.161595,0.26178 -0.211102,0.39137 -0.100434,0.27701 -0.160041,0.56075 -0.197069,0.84554 -0.03705,0.28495 -0.05163,0.57231 -0.06067,0.85214 -0.01605,0.41877 0.02234,0.84319 0.05154,1.23704 l 6e-4,-0.0216 c -5.6e-4,0.005 -8.12e-4,0.009 -9.38e-4,0.0118 -1.31e-4,0.003 -1.57e-4,0.006 -1.36e-4,0.009 4e-5,0.005 2.74e-4,0.0108 5.55e-4,0.0157 5.62e-4,0.01 0.0015,0.0208 0.0025,0.0312 0.002,0.0216 0.0044,0.0448 0.0058,0.0627 7.46e-4,0.01 0.0011,0.0162 0.0013,0.021 6.6e-5,0.002 5.7e-5,0.003 1.42e-4,0.003 1.01e-4,-6.6e-4 1.7e-5,-0.003 0.002,-0.0107 8.63e-4,-0.003 0.0027,-0.01 0.0064,-0.0177 0.0019,-0.004 0.0048,-0.009 0.0088,-0.0149 0.004,-0.006 0.0097,-0.0125 0.01763,-0.0192 0.0081,-0.007 0.01841,-0.0134 0.03115,-0.0182 0.01293,-0.005 0.02646,-0.007 0.03979,-0.006 0.01298,4.2e-4 0.02444,0.003 0.03351,0.007 0.009,0.003 0.01607,0.007 0.02127,0.011 0.01,0.007 0.01631,0.0137 0.01929,0.0172 0.0033,0.004 0.0054,0.007 0.0064,0.009 0.0022,0.004 0.002,0.004 0.0011,0.002 l 0.0093,0.0323 c -0.01394,-0.10973 -0.01495,-0.22112 -0.01187,-0.33127 0.0031,-0.11228 0.01124,-0.23578 0.01438,-0.34806 0.01157,-0.66943 0.01355,-1.36051 0.01517,-1.91812 -0.0017,0.57357 0.0033,-1.10503 0.0016,-0.53146 -0.0034,-0.10409 0.0017,-0.20715 0.0052,-0.30936 0.0039,-0.1118 0.0058,-0.21735 -0.0036,-0.32469 -5.2e-5,-5.9e-4 -0.0024,-0.0271 -0.0024,-0.0275 -6.08e-4,-0.007 -9.73e-4,-0.0111 -0.0012,-0.0136 -3.2e-4,-0.004 -7.11e-4,-0.007 -0.0014,-0.0112 -1.46e-4,-8.2e-4 -4.22e-4,-0.002 -8.32e-4,-0.004 -0.0013,-0.005 -0.0021,-0.008 -0.0031,-0.0111 -5.49e-4,-0.002 -0.0013,-0.004 -0.0024,-0.006 -0.001,-0.002 -0.0027,-0.006 -0.0051,-0.0104 -0.0022,-0.004 -0.0065,-0.011 -0.0135,-0.0187 -0.0037,-0.004 -0.0089,-0.009 -0.0159,-0.0142 -0.007,-0.005 -0.01685,-0.0108 -0.02946,-0.0147 -0.01302,-0.004 -0.02794,-0.006 -0.04376,-0.004 -0.01573,0.002 -0.02922,0.008 -0.04,0.0142 -0.01051,0.006 -0.01812,0.0137 -0.02334,0.0197 -0.0052,0.006 -0.0089,0.0116 -0.01148,0.0159 -0.0049,0.008 -0.0075,0.0156 -0.0088,0.0196 -0.0014,0.004 -0.0023,0.008 -0.0029,0.0106 -0.001,0.005 -0.0015,0.009 -0.0017,0.0106 -2.36e-4,0.002 -3.56e-4,0.004 -4.22e-4,0.005 -1.29e-4,0.002 -1.51e-4,0.004 -1.56e-4,0.005 -2.4e-5,0.004 2.5e-4,0.008 5.66e-4,0.0122 9.3e-5,0.001 2.11e-4,0.003 3.49e-4,0.004 6.08e-4,0.007 0.0016,0.0192 0.0025,0.0297 0.0012,0.0142 0.0023,0.0267 0.0031,0.0347 a 0.10252618,0.10252618 90 0 0 0.204188,-0.0188 z"
       id="path-1"
       inkscape:path-effect="#path-effect679;#path-effect681"
       inkscape:original-d="m -17.018743,150.44024 c -0.0023,-0.0254 -0.0046,-0.0509 -0.0069,-0.0763 0,-3.9e-4 -3.5e-5,-0.002 0,-0.001 0.02686,0.29647 0.0034,0.0486 0.002,0.73602 -0.0016,0.76551 -0.0062,1.52906 -0.01481,2.29438 -0.0015,0.13126 -0.04495,0.7059 0,0.81116 0.01499,0.0351 0.0048,-0.0763 0.003,-0.11445 -0.01372,-0.29158 -0.04891,-0.5832 -0.05332,-0.87513 -0.0089,-0.58966 0.01329,-2.4932 0.797869,-2.66007 0.250733,-0.0533 0.401323,0.068 0.556928,0.24855 0.440892,0.51167 0.46429,1.08411 0.54409,1.72252 0.0047,0.0379 -0.0034,-0.0763 -0.0049,-0.11445 -0.0075,-0.18984 -0.01451,-0.38875 -0.003,-0.57841 0.03101,-0.50928 0.399434,-1.38833 1.033871,-1.05201 0.707644,0.37513 0.950925,2.27838 0.950925,3.04658"
       style="fill:#000000;fill-rule:nonzero;stroke:none" />
  </g>
</svg>
