<?xml version="1.0" encoding="UTF-8" standalone="no"?>
<!-- Created with Inkscape (http://www.inkscape.org/) -->

<svg
   width="4mm"
   height="10mm"
   viewBox="0 0 4.0000001 9.9999994"
   version="1.1"
   id="svg1681"
   inkscape:version="1.2.1 (9c6d41e410, 2022-07-14)"
   sodipodi:docname="lower_m_11.svg"
   inkscape:export-filename="..\..\..\..\Downloads\lower a diff canvas resize 3.0.png"
   inkscape:export-xdpi="96"
   inkscape:export-ydpi="96"
   xmlns:inkscape="http://www.inkscape.org/namespaces/inkscape"
   xmlns:sodipodi="http://sodipodi.sourceforge.net/DTD/sodipodi-0.dtd"
   xmlns="http://www.w3.org/2000/svg"
   xmlns:svg="http://www.w3.org/2000/svg"
   xmlns:rdf="http://www.w3.org/1999/02/22-rdf-syntax-ns#"
   xmlns:cc="http://creativecommons.org/ns#"
   xmlns:dc="http://purl.org/dc/elements/1.1/">
  <defs
     id="defs1675">
    <inkscape:path-effect
       effect="powerstroke"
       id="path-effect870"
       is_visible="true"
       lpeversion="1"
       offset_points="1.6396908,0.11549489 | 9.4731523,0.13286806 | 11.658012,0.14852838"
       not_jump="true"
       sort_points="true"
       interpolator_type="CentripetalCatmullRom"
       interpolator_beta="0.75"
       start_linecap_type="round"
       linejoin_type="spiro"
       miter_limit="4"
       scale_width="1"
       end_linecap_type="round" />
    <inkscape:path-effect
       effect="simplify"
       id="path-effect868"
       is_visible="true"
       lpeversion="1"
       steps="1"
       threshold="0.0047745358"
       smooth_angles="0"
       helper_size="0"
       simplify_individual_paths="false"
       simplify_just_coalesce="false"
       step="1" />
    <inkscape:path-effect
       effect="powerstroke"
       id="path-effect805"
       is_visible="true"
       lpeversion="1"
       offset_points="1.3207447,0.13115521 | 10.325754,0.14706023"
       not_jump="true"
       sort_points="true"
       interpolator_type="CentripetalCatmullRom"
       interpolator_beta="0.75"
       start_linecap_type="round"
       linejoin_type="spiro"
       miter_limit="4"
       scale_width="1"
       end_linecap_type="round" />
    <inkscape:path-effect
       effect="simplify"
       id="path-effect803"
       is_visible="true"
       lpeversion="1"
       steps="1"
       threshold="0.0047745358"
       smooth_angles="0"
       helper_size="0"
       simplify_individual_paths="false"
       simplify_just_coalesce="false"
       step="1" />
    <inkscape:path-effect
       effect="powerstroke"
       id="path-effect742"
       is_visible="true"
       lpeversion="1"
       offset_points="2.3665113,0.09371725 | 7.9063398,0.10448372"
       not_jump="true"
       sort_points="true"
       interpolator_type="CentripetalCatmullRom"
       interpolator_beta="0.75"
       start_linecap_type="round"
       linejoin_type="spiro"
       miter_limit="4"
       scale_width="1"
       end_linecap_type="round" />
    <inkscape:path-effect
       effect="simplify"
       id="path-effect740"
       is_visible="true"
       lpeversion="1"
       steps="1"
       threshold="0.0047745358"
       smooth_angles="0"
       helper_size="0"
       simplify_individual_paths="false"
       simplify_just_coalesce="false"
       step="1" />
    <inkscape:path-effect
       effect="powerstroke"
       id="path-effect681"
       is_visible="true"
       lpeversion="1"
       offset_points="2.217234,0.10252618 | 8.9442199,0.11769712"
       not_jump="true"
       sort_points="true"
       interpolator_type="CentripetalCatmullRom"
       interpolator_beta="0.75"
       start_linecap_type="round"
       linejoin_type="spiro"
       miter_limit="4"
       scale_width="1"
       end_linecap_type="round" />
    <inkscape:path-effect
       effect="simplify"
       id="path-effect679"
       is_visible="true"
       lpeversion="1"
       steps="1"
       threshold="0.0047745358"
       smooth_angles="0"
       helper_size="0"
       simplify_individual_paths="false"
       simplify_just_coalesce="false"
       step="1" />
    <inkscape:path-effect
       effect="powerstroke"
       id="path-effect622"
       is_visible="true"
       lpeversion="1"
       offset_points="1.7202203,0.1083988"
       not_jump="true"
       sort_points="true"
       interpolator_type="CentripetalCatmullRom"
       interpolator_beta="0.75"
       start_linecap_type="round"
       linejoin_type="spiro"
       miter_limit="4"
       scale_width="1"
       end_linecap_type="round" />
    <inkscape:path-effect
       effect="simplify"
       id="path-effect620"
       is_visible="true"
       lpeversion="1"
       steps="1"
       threshold="0.0047745358"
       smooth_angles="0"
       helper_size="0"
       simplify_individual_paths="false"
       simplify_just_coalesce="false"
       step="1" />
    <inkscape:path-effect
       effect="powerstroke"
       id="path-effect565"
       is_visible="true"
       lpeversion="1"
       offset_points="2.2898405,0.099589871 | 6.6413189,0.085887088 | 9.3403103,0.097877023 | 13.278467,0.11427142"
       not_jump="true"
       sort_points="true"
       interpolator_type="CentripetalCatmullRom"
       interpolator_beta="0.75"
       start_linecap_type="round"
       linejoin_type="spiro"
       miter_limit="4"
       scale_width="1"
       end_linecap_type="round" />
    <inkscape:path-effect
       effect="simplify"
       id="path-effect563"
       is_visible="true"
       lpeversion="1"
       steps="1"
       threshold="0.0047745358"
       smooth_angles="0"
       helper_size="0"
       simplify_individual_paths="false"
       simplify_just_coalesce="false"
       step="1" />
    <inkscape:path-effect
       effect="powerstroke"
       id="path-effect510"
       is_visible="true"
       lpeversion="1"
       offset_points="1.9176024,0.17666803 | 6.6799515,0.12405913 | 8.9071225,0.13923007 | 11.94271,0.12626136 | 14.359274,0.148039"
       not_jump="true"
       sort_points="true"
       interpolator_type="CentripetalCatmullRom"
       interpolator_beta="0.75"
       start_linecap_type="round"
       linejoin_type="spiro"
       miter_limit="4"
       scale_width="1"
       end_linecap_type="round" />
    <inkscape:path-effect
       effect="simplify"
       id="path-effect508"
       is_visible="true"
       lpeversion="1"
       steps="1"
       threshold="0.0047745358"
       smooth_angles="0"
       helper_size="0"
       simplify_individual_paths="false"
       simplify_just_coalesce="false"
       step="1" />
    <inkscape:path-effect
       effect="powerstroke"
       id="path-effect457"
       is_visible="true"
       lpeversion="1"
       offset_points="1.698284,0.11157981"
       not_jump="true"
       sort_points="true"
       interpolator_type="CentripetalCatmullRom"
       interpolator_beta="0.75"
       start_linecap_type="round"
       linejoin_type="spiro"
       miter_limit="4"
       scale_width="1"
       end_linecap_type="round" />
    <inkscape:path-effect
       effect="simplify"
       id="path-effect455"
       is_visible="true"
       lpeversion="1"
       steps="1"
       threshold="0.0047745358"
       smooth_angles="0"
       helper_size="0"
       simplify_individual_paths="false"
       simplify_just_coalesce="false"
       step="1" />
    <inkscape:path-effect
       effect="powerstroke"
       id="path-effect450"
       is_visible="true"
       lpeversion="1"
       offset_points="2.3032336,0.10448372 | 5.4261225,0.1216122 | 9.9205125,0.13971945"
       not_jump="true"
       sort_points="true"
       interpolator_type="CentripetalCatmullRom"
       interpolator_beta="0.75"
       start_linecap_type="round"
       linejoin_type="spiro"
       miter_limit="4"
       scale_width="1"
       end_linecap_type="round" />
    <inkscape:path-effect
       effect="simplify"
       id="path-effect448"
       is_visible="true"
       lpeversion="1"
       steps="1"
       threshold="0.0047745358"
       smooth_angles="0"
       helper_size="0"
       simplify_individual_paths="false"
       simplify_just_coalesce="false"
       step="1" />
    <inkscape:path-effect
       effect="powerstroke"
       id="path-effect401"
       is_visible="true"
       lpeversion="1"
       offset_points="1.919598,0.085642395 | 7.1414337,0.095185405 | 11.392776,0.11084573"
       not_jump="true"
       sort_points="true"
       interpolator_type="CentripetalCatmullRom"
       interpolator_beta="0.75"
       start_linecap_type="round"
       linejoin_type="spiro"
       miter_limit="4"
       scale_width="1"
       end_linecap_type="round" />
    <inkscape:path-effect
       effect="simplify"
       id="path-effect399"
       is_visible="true"
       lpeversion="1"
       steps="1"
       threshold="0.0047745358"
       smooth_angles="0"
       helper_size="0"
       simplify_individual_paths="false"
       simplify_just_coalesce="false"
       step="1" />
    <inkscape:path-effect
       effect="powerstroke"
       id="path-effect354"
       is_visible="true"
       lpeversion="1"
       offset_points="1.8669648,0.097632331 | 3.3867434,0.08319547 | 6.5616288,0.10448372"
       not_jump="true"
       sort_points="true"
       interpolator_type="CentripetalCatmullRom"
       interpolator_beta="0.75"
       start_linecap_type="round"
       linejoin_type="spiro"
       miter_limit="4"
       scale_width="1"
       end_linecap_type="round" />
    <inkscape:path-effect
       effect="simplify"
       id="path-effect352"
       is_visible="true"
       lpeversion="1"
       steps="1"
       threshold="0.0047745358"
       smooth_angles="0"
       helper_size="0"
       simplify_individual_paths="false"
       simplify_just_coalesce="false"
       step="1" />
    <inkscape:path-effect
       effect="powerstroke"
       id="path-effect309"
       is_visible="true"
       lpeversion="1"
       offset_points="1.7013678,0.12014405 | 7.8476699,0.13580437"
       not_jump="true"
       sort_points="true"
       interpolator_type="CentripetalCatmullRom"
       interpolator_beta="0.75"
       start_linecap_type="round"
       linejoin_type="spiro"
       miter_limit="4"
       scale_width="1"
       end_linecap_type="round" />
    <inkscape:path-effect
       effect="simplify"
       id="path-effect307"
       is_visible="true"
       lpeversion="1"
       steps="1"
       threshold="0.0047745358"
       smooth_angles="0"
       helper_size="0"
       simplify_individual_paths="false"
       simplify_just_coalesce="false"
       step="1" />
    <inkscape:path-effect
       effect="powerstroke"
       id="path-effect302"
       is_visible="true"
       lpeversion="1"
       offset_points="2.2193262,0.1282189"
       not_jump="true"
       sort_points="true"
       interpolator_type="CentripetalCatmullRom"
       interpolator_beta="0.75"
       start_linecap_type="round"
       linejoin_type="spiro"
       miter_limit="4"
       scale_width="1"
       end_linecap_type="round" />
    <inkscape:path-effect
       effect="simplify"
       id="path-effect300"
       is_visible="true"
       lpeversion="1"
       steps="1"
       threshold="0.0047745358"
       smooth_angles="0"
       helper_size="0"
       simplify_individual_paths="false"
       simplify_just_coalesce="false"
       step="1" />
    <inkscape:path-effect
       effect="powerstroke"
       id="path-effect329"
       is_visible="true"
       lpeversion="1"
       offset_points="2.036852,0.12799523 | 9.038239,0.16903718 | 11.263778,0.13750213"
       not_jump="true"
       sort_points="true"
       interpolator_type="CentripetalCatmullRom"
       interpolator_beta="0.75"
       start_linecap_type="round"
       linejoin_type="spiro"
       miter_limit="4"
       scale_width="1"
       end_linecap_type="round" />
    <inkscape:path-effect
       effect="simplify"
       id="path-effect327"
       is_visible="true"
       lpeversion="1"
       steps="1"
       threshold="0.0035951417"
       smooth_angles="0"
       helper_size="0"
       simplify_individual_paths="false"
       simplify_just_coalesce="false"
       step="1" />
    <inkscape:path-effect
       effect="powerstroke"
       id="path-effect502"
       is_visible="true"
       lpeversion="1"
       offset_points="3.0091841,0.21607495 | 7.3602657,0.17554228 | 9.4159651,0.20236537"
       not_jump="true"
       sort_points="true"
       interpolator_type="CentripetalCatmullRom"
       interpolator_beta="0.75"
       start_linecap_type="round"
       linejoin_type="spiro"
       miter_limit="4"
       scale_width="1"
       end_linecap_type="round" />
    <inkscape:path-effect
       effect="simplify"
       id="path-effect500"
       is_visible="true"
       lpeversion="1"
       steps="1"
       threshold="0.0035951417"
       smooth_angles="0"
       helper_size="0"
       simplify_individual_paths="false"
       simplify_just_coalesce="false"
       step="1" />
    <inkscape:path-effect
       effect="powerstroke"
       id="path-effect241"
       is_visible="true"
       lpeversion="1"
       offset_points="2.6879454,0.34086734"
       not_jump="true"
       sort_points="true"
       interpolator_type="CentripetalCatmullRom"
       interpolator_beta="0.75"
       start_linecap_type="round"
       linejoin_type="spiro"
       miter_limit="4"
       scale_width="1"
       end_linecap_type="round" />
    <inkscape:path-effect
       effect="simplify"
       id="path-effect239"
       is_visible="true"
       lpeversion="1"
       steps="1"
       threshold="0.0028332064"
       smooth_angles="0"
       helper_size="0"
       simplify_individual_paths="false"
       simplify_just_coalesce="false"
       step="1" />
    <inkscape:path-effect
       effect="powerstroke"
       id="path-effect234"
       is_visible="true"
       lpeversion="1"
       offset_points="2.13563,0.075169555"
       not_jump="true"
       sort_points="true"
       interpolator_type="CentripetalCatmullRom"
       interpolator_beta="0.75"
       start_linecap_type="round"
       linejoin_type="spiro"
       miter_limit="4"
       scale_width="1"
       end_linecap_type="round" />
    <inkscape:path-effect
       effect="simplify"
       id="path-effect232"
       is_visible="true"
       lpeversion="1"
       steps="1"
       threshold="0.0028332064"
       smooth_angles="0"
       helper_size="0"
       simplify_individual_paths="false"
       simplify_just_coalesce="false"
       step="1" />
    <inkscape:path-effect
       effect="powerstroke"
       id="path-effect227"
       is_visible="true"
       lpeversion="1"
       offset_points="2.1868266,0.075169555"
       not_jump="true"
       sort_points="true"
       interpolator_type="CentripetalCatmullRom"
       interpolator_beta="0.75"
       start_linecap_type="round"
       linejoin_type="spiro"
       miter_limit="4"
       scale_width="1"
       end_linecap_type="round" />
    <inkscape:path-effect
       effect="simplify"
       id="path-effect225"
       is_visible="true"
       lpeversion="1"
       steps="1"
       threshold="0.0028332064"
       smooth_angles="0"
       helper_size="0"
       simplify_individual_paths="false"
       simplify_just_coalesce="false"
       step="1" />
    <inkscape:path-effect
       effect="powerstroke"
       id="path-effect166"
       is_visible="true"
       lpeversion="1"
       offset_points="1.9637935,0.075169555"
       not_jump="true"
       sort_points="true"
       interpolator_type="CentripetalCatmullRom"
       interpolator_beta="0.75"
       start_linecap_type="round"
       linejoin_type="spiro"
       miter_limit="4"
       scale_width="1"
       end_linecap_type="round" />
    <inkscape:path-effect
       effect="simplify"
       id="path-effect164"
       is_visible="true"
       lpeversion="1"
       steps="1"
       threshold="0.0028332064"
       smooth_angles="0"
       helper_size="0"
       simplify_individual_paths="false"
       simplify_just_coalesce="false"
       step="1" />
    <inkscape:path-effect
       effect="powerstroke"
       id="path-effect159"
       is_visible="true"
       lpeversion="1"
       offset_points="2.2611036,0.075169555"
       not_jump="true"
       sort_points="true"
       interpolator_type="CentripetalCatmullRom"
       interpolator_beta="0.75"
       start_linecap_type="round"
       linejoin_type="spiro"
       miter_limit="4"
       scale_width="1"
       end_linecap_type="round" />
    <inkscape:path-effect
       effect="simplify"
       id="path-effect157"
       is_visible="true"
       lpeversion="1"
       steps="1"
       threshold="0.0028332064"
       smooth_angles="0"
       helper_size="0"
       simplify_individual_paths="false"
       simplify_just_coalesce="false"
       step="1" />
    <inkscape:path-effect
       effect="powerstroke"
       id="path-effect152"
       is_visible="true"
       lpeversion="1"
       offset_points="2.826981,0.075169555"
       not_jump="true"
       sort_points="true"
       interpolator_type="CentripetalCatmullRom"
       interpolator_beta="0.75"
       start_linecap_type="round"
       linejoin_type="spiro"
       miter_limit="4"
       scale_width="1"
       end_linecap_type="round" />
    <inkscape:path-effect
       effect="simplify"
       id="path-effect150"
       is_visible="true"
       lpeversion="1"
       steps="1"
       threshold="0.0028332064"
       smooth_angles="0"
       helper_size="0"
       simplify_individual_paths="false"
       simplify_just_coalesce="false"
       step="1" />
    <inkscape:path-effect
       effect="powerstroke"
       id="path-effect145"
       is_visible="true"
       lpeversion="1"
       offset_points="3.8374447,0.075169555"
       not_jump="true"
       sort_points="true"
       interpolator_type="CentripetalCatmullRom"
       interpolator_beta="0.75"
       start_linecap_type="round"
       linejoin_type="spiro"
       miter_limit="4"
       scale_width="1"
       end_linecap_type="round" />
    <inkscape:path-effect
       effect="simplify"
       id="path-effect143"
       is_visible="true"
       lpeversion="1"
       steps="1"
       threshold="0.0028332064"
       smooth_angles="0"
       helper_size="0"
       simplify_individual_paths="false"
       simplify_just_coalesce="false"
       step="1" />
    <inkscape:path-effect
       effect="powerstroke"
       id="path-effect138"
       is_visible="true"
       lpeversion="1"
       offset_points="2.6880907,0.075169555"
       not_jump="true"
       sort_points="true"
       interpolator_type="CentripetalCatmullRom"
       interpolator_beta="0.75"
       start_linecap_type="round"
       linejoin_type="spiro"
       miter_limit="4"
       scale_width="1"
       end_linecap_type="round" />
    <inkscape:path-effect
       effect="simplify"
       id="path-effect136"
       is_visible="true"
       lpeversion="1"
       steps="1"
       threshold="0.0028332064"
       smooth_angles="0"
       helper_size="0"
       simplify_individual_paths="false"
       simplify_just_coalesce="false"
       step="1" />
    <inkscape:path-effect
       effect="powerstroke"
       id="path-effect131"
       is_visible="true"
       lpeversion="1"
       offset_points="1.9940581,0.075169555"
       not_jump="true"
       sort_points="true"
       interpolator_type="CentripetalCatmullRom"
       interpolator_beta="0.75"
       start_linecap_type="round"
       linejoin_type="spiro"
       miter_limit="4"
       scale_width="1"
       end_linecap_type="round" />
    <inkscape:path-effect
       effect="simplify"
       id="path-effect129"
       is_visible="true"
       lpeversion="1"
       steps="1"
       threshold="0.0028332064"
       smooth_angles="0"
       helper_size="0"
       simplify_individual_paths="false"
       simplify_just_coalesce="false"
       step="1" />
  </defs>
  <sodipodi:namedview
     id="base"
     pagecolor="#ffffff"
     bordercolor="#666666"
     borderopacity="1.0"
     inkscape:pageopacity="0.0"
     inkscape:pageshadow="2"
     inkscape:zoom="15.839192"
     inkscape:cx="1.894036"
     inkscape:cy="19.887378"
     inkscape:document-units="mm"
     inkscape:current-layer="layer1"
     showgrid="false"
     fit-margin-top="0"
     fit-margin-left="0"
     fit-margin-right="0"
     fit-margin-bottom="0"
     inkscape:window-width="1920"
     inkscape:window-height="1057"
     inkscape:window-x="1072"
     inkscape:window-y="321"
     inkscape:window-maximized="1"
     showguides="true"
     inkscape:guide-bbox="true"
     inkscape:snap-bbox="true"
     inkscape:bbox-nodes="true"
     inkscape:snap-nodes="false"
     inkscape:snap-others="false"
     inkscape:snap-page="true"
     inkscape:snap-grids="false"
     inkscape:snap-to-guides="false"
     inkscape:snap-global="false"
     inkscape:pagecheckerboard="0"
     inkscape:showpageshadow="2"
     inkscape:deskcolor="#d1d1d1">
    <sodipodi:guide
       position="-6.1806075,9.4988692"
       orientation="0,1"
       id="guide816"
       inkscape:locked="false" />
    <sodipodi:guide
       position="-4.4101636,10.646923"
       orientation="0,1"
       id="guide818"
       inkscape:locked="false" />
    <sodipodi:guide
       position="2.7595724,11.09577"
       orientation="1,0"
       id="guide820"
       inkscape:locked="false" />
    <sodipodi:guide
       position="3.6572659,10.942217"
       orientation="1,0"
       id="guide822"
       inkscape:locked="false" />
    <sodipodi:guide
       position="-0.051625511,9.7492299"
       orientation="1,0"
       id="guide1853"
       inkscape:locked="false" />
    <sodipodi:guide
       position="-2.3720169,3.0175835"
       orientation="0,1"
       id="guide1855"
       inkscape:locked="false" />
  </sodipodi:namedview>
  <metadata
     id="metadata1678">
    <rdf:RDF>
      <cc:Work
         rdf:about="">
        <dc:format>image/svg+xml</dc:format>
        <dc:type
           rdf:resource="http://purl.org/dc/dcmitype/StillImage" />
      </cc:Work>
    </rdf:RDF>
  </metadata>
  <g
     inkscape:label="Layer 1"
     inkscape:groupmode="layer"
     id="layer1"
     transform="translate(17.028496,-147.22856)">
    <path
       d="m -17.106495,151.02821 c 0.0079,0.0177 0.01597,0.0412 0.02158,0.0739 0.0043,0.0249 0.0068,0.0531 0.0079,0.0893 0.0017,0.0573 -0.0029,0.13047 0.0055,0.22015 0.01873,0.53302 0.05293,1.01779 0.09074,1.63133 0.01655,0.26859 0.03558,0.59297 0.04826,0.91836 0.0016,0.0184 0.0024,0.0294 0.0029,0.0389 2.19e-4,0.004 3.51e-4,0.008 3.91e-4,0.011 6.5e-5,-0.002 2.3e-4,-0.004 7.25e-4,-0.008 2.5e-4,-0.002 6.97e-4,-0.005 0.0015,-0.009 6.81e-4,-0.003 0.0022,-0.01 0.0053,-0.0177 0.0016,-0.004 0.0042,-0.0101 0.0083,-0.0169 0.0038,-0.006 0.01076,-0.0167 0.02197,-0.0269 0.0058,-0.005 0.01325,-0.0109 0.02252,-0.016 0.0094,-0.005 0.02039,-0.009 0.03288,-0.0119 0.01257,-0.003 0.02532,-0.003 0.03775,-0.001 0.0123,0.002 0.02316,0.005 0.03235,0.009 0.01776,0.008 0.02972,0.0184 0.03654,0.0254 0.0071,0.007 0.01181,0.0141 0.01469,0.0186 0.0056,0.009 0.0087,0.0163 0.01003,0.0196 0.0016,0.004 0.0026,0.007 0.0032,0.009 6.38e-4,0.002 0.0011,0.004 0.0014,0.005 5.74e-4,0.002 9.45e-4,0.004 0.0011,0.005 4.44e-4,0.002 3.8e-5,-0.001 -4.6e-4,-0.007 -4.97e-4,-0.005 -0.0011,-0.0124 -0.0019,-0.0221 -0.03424,-0.31213 -0.07166,-0.64826 -0.08638,-0.97774 -0.01405,-0.31468 -0.0084,-0.63776 0.0416,-0.95992 0.02608,-0.15209 0.06429,-0.30967 0.126916,-0.45154 0.03061,-0.0693 0.06681,-0.13438 0.109941,-0.19328 0.04265,-0.0582 0.09214,-0.11057 0.150016,-0.15533 0.07572,-0.0566 0.166677,-0.10146 0.257766,-0.12065 0.045,-0.009 0.08896,-0.0125 0.130797,-0.008 0.04167,0.004 0.08174,0.0152 0.119715,0.0345 0.04946,0.0257 0.09476,0.0589 0.136038,0.0978 0.04165,0.0393 0.07929,0.0846 0.113806,0.13433 0.07043,0.10156 0.125954,0.21916 0.175287,0.33731 0.124417,0.31541 0.19468,0.62511 0.181912,0.92405 -7.54e-4,0.003 -0.0016,0.0144 -0.0018,0.0252 -2.03e-4,0.0109 1.88e-4,0.0221 0.0015,0.0333 6.69e-4,0.006 0.0016,0.0119 0.0031,0.0184 0.0014,0.006 0.0035,0.0142 0.0068,0.0227 0.0031,0.008 0.0085,0.0201 0.01789,0.0328 0.0049,0.007 0.0116,0.0145 0.02063,0.0223 0.0091,0.008 0.02139,0.0162 0.03696,0.0224 0.01604,0.006 0.0342,0.01 0.05345,0.009 0.01925,-6.8e-4 0.03639,-0.006 0.05066,-0.0121 0.01405,-0.006 0.02493,-0.0145 0.03291,-0.0216 0.008,-0.007 0.0141,-0.0143 0.01853,-0.0202 0.0087,-0.0116 0.01407,-0.0225 0.01727,-0.03 0.0034,-0.008 0.0059,-0.0153 0.0076,-0.0214 0.0035,-0.0123 0.0056,-0.0244 0.007,-0.035 0.0015,-0.0113 0.0023,-0.0232 0.0027,-0.0352 1.25e-4,-0.004 -3.9e-5,-0.007 -2.5e-4,-0.0112 -0.0044,-0.0778 -0.0078,-0.13506 -0.0097,-0.19759 -0.0024,-0.0803 -0.0011,-0.14744 0.0042,-0.20951 0.0046,-0.20163 0.04743,-0.38102 0.111499,-0.53303 0.06996,-0.16601 0.171177,-0.31425 0.300313,-0.43266 0.06764,-0.0625 0.153711,-0.12192 0.247456,-0.155 0.02658,-0.009 0.05375,-0.0166 0.08114,-0.0211 0.01511,-0.002 0.03039,-0.004 0.04576,-0.005 0.03865,-0.002 0.07847,0.003 0.118604,0.0168 0.04017,0.0144 0.07936,0.0366 0.116435,0.0666 0.03547,0.0288 0.06892,0.0646 0.100421,0.10743 0.06148,0.0837 0.110043,0.18657 0.150277,0.29606 0.08379,0.23949 0.127199,0.4921 0.149307,0.7492 0.02288,0.26609 0.02291,0.54018 0.022,0.79285 -0.0034,0.36238 -0.01369,0.67645 -0.01396,0.8513 a 0.14852838,0.14852838 90 0 0 0.297056,4.4e-4 c 2.57e-4,-0.17018 0.01139,-0.47855 0.01575,-0.84952 0.0012,-0.25245 0.0017,-0.53926 -0.02222,-0.82062 -0.02324,-0.27309 -0.07,-0.55222 -0.165358,-0.82494 -0.04599,-0.12542 -0.106271,-0.25742 -0.191242,-0.37267 -0.04431,-0.0601 -0.09519,-0.11546 -0.153876,-0.1627 -0.06195,-0.0499 -0.13085,-0.0893 -0.206839,-0.11591 -0.08158,-0.0275 -0.159303,-0.0353 -0.23055,-0.0316 -0.0281,0.001 -0.05524,0.005 -0.08121,0.009 -0.04696,0.008 -0.09128,0.0208 -0.132266,0.0359 -0.141429,0.0521 -0.2596,0.13971 -0.344823,0.2223 -0.15947,0.15032 -0.280363,0.33564 -0.361452,0.53671 -0.07424,0.18408 -0.121721,0.39829 -0.123943,0.62867 -0.0035,0.0677 -0.0025,0.1446 0.002,0.23147 0.0034,0.0661 0.0081,0.12479 0.01366,0.19969 -3.7e-5,0.002 -8.1e-5,0.003 -9.8e-5,0.004 -2.8e-5,0.002 5.3e-5,5.9e-4 0.0014,-0.004 6.41e-4,-0.002 0.0019,-0.006 0.0042,-0.0112 0.002,-0.005 0.0062,-0.0133 0.0136,-0.0232 0.0038,-0.005 0.0093,-0.0115 0.01665,-0.0181 0.0073,-0.007 0.0176,-0.0141 0.03102,-0.0203 0.01365,-0.006 0.03016,-0.011 0.04879,-0.0116 0.01864,-6.5e-4 0.03618,0.003 0.05161,0.009 0.01497,0.006 0.02661,0.014 0.03516,0.0213 0.0084,0.007 0.01459,0.0145 0.0189,0.0204 0.0082,0.0112 0.01258,0.0212 0.0147,0.0268 0.0023,0.006 0.0035,0.0108 0.0041,0.0137 6.35e-4,0.003 8.96e-4,0.005 9.99e-4,0.007 1.62e-4,0.002 -4e-6,0.003 -1.67e-4,0.001 -1.15e-4,-0.001 -1.23e-4,-0.004 1.94e-4,-0.008 0.01343,-0.35456 -0.06996,-0.70023 -0.204968,-1.0376 -0.05318,-0.12529 -0.117446,-0.26166 -0.203569,-0.38438 -0.04275,-0.0609 -0.09162,-0.11956 -0.14823,-0.1724 -0.05636,-0.0526 -0.120317,-0.0994 -0.193291,-0.13673 -0.06825,-0.0342 -0.13834,-0.0528 -0.208384,-0.0591 -0.06973,-0.006 -0.138635,-5.4e-4 -0.204566,0.0138 -0.131481,0.0285 -0.253895,0.0916 -0.353364,0.16684 -0.07874,0.0614 -0.143418,0.13071 -0.197717,0.20545 -0.05474,0.0753 -0.09891,0.15613 -0.134976,0.23863 -0.0732,0.16745 -0.114938,0.34664 -0.142322,0.50986 -0.05293,0.34467 -0.05777,0.68458 -0.04277,1.00867 0.01567,0.33847 0.05459,0.68242 0.08885,0.99008 7.26e-4,0.008 0.0016,0.0167 0.0024,0.0238 8.06e-4,0.007 0.0016,0.0135 0.0026,0.0192 2.57e-4,0.002 5.71e-4,0.003 9.44e-4,0.005 3.52e-4,0.002 8.97e-4,0.004 0.0017,0.008 3.89e-4,0.002 9.35e-4,0.004 0.0017,0.006 6.82e-4,0.002 0.0018,0.006 0.0035,0.01 0.0014,0.004 0.0046,0.0112 0.01025,0.0201 0.0029,0.005 0.0077,0.0114 0.01479,0.0187 0.0069,0.007 0.01885,0.0176 0.03664,0.0255 0.0092,0.004 0.02008,0.007 0.0324,0.009 0.01245,0.002 0.02522,0.001 0.0378,-0.001 0.01251,-0.003 0.02354,-0.007 0.03292,-0.012 0.0093,-0.005 0.01674,-0.0107 0.02256,-0.016 0.01124,-0.0102 0.01818,-0.0205 0.02206,-0.027 0.0041,-0.007 0.0067,-0.0129 0.0083,-0.0171 0.0032,-0.008 0.0047,-0.0148 0.0055,-0.0182 8.31e-4,-0.004 0.0013,-0.007 0.0016,-0.009 5.69e-4,-0.004 8.01e-4,-0.008 9.1e-4,-0.01 1.23e-4,-0.002 1.74e-4,-0.004 1.97e-4,-0.006 4.6e-5,-0.003 0,-0.006 -6.2e-5,-0.008 -6.6e-5,-0.003 -1.69e-4,-0.005 -2.9e-4,-0.008 -2.47e-4,-0.005 -6.08e-4,-0.0112 -0.001,-0.0172 -9.24e-4,-0.0129 -0.0022,-0.0273 -0.0039,-0.0415 -0.01251,-0.32005 -0.03198,-0.64666 -0.04878,-0.91551 -0.03843,-0.61478 -0.07259,-1.09713 -0.09161,-1.63182 -0.0065,-0.0714 -0.0029,-0.14364 -0.0048,-0.21197 -0.0012,-0.0432 -0.0043,-0.0827 -0.01076,-0.12123 -0.0088,-0.0522 -0.02252,-0.0943 -0.03806,-0.12925 a 0.11549489,0.11549489 90 0 0 -0.211052,0.0939 z"
       id="path-1"
       inkscape:path-effect="#path-effect868;#path-effect870"
       inkscape:original-d="m -17.000969,150.98127 c 0.03501,0.10198 0.03433,0.0783 0.03752,0.20462 0.01932,0.76514 0.08214,1.52166 0.123432,2.28552 0.0071,0.13115 0.01578,0.26214 0.01778,0.39344 7.71e-4,0.0509 0.0066,0.0969 0.0099,0.14682 4.3e-4,0.007 7.05e-4,0.0262 0,0.0196 -0.08067,-0.74502 -0.322287,-2.48469 0.448308,-2.94408 0.59757,-0.35623 0.936747,0.21321 1.11188,0.72523 0.06468,0.18909 0.112156,0.39616 0.13232,0.59498 0.0091,0.0896 -0.0062,0.39503 0.01777,0.25164 0.0097,-0.0579 -0.0088,-0.13319 -0.0099,-0.18921 -0.0049,-0.2506 0.0023,-0.50059 0.08295,-0.74064 0.236278,-0.70289 1.032302,-1.22935 1.426881,-0.321 0.306123,0.70472 0.205391,1.78132 0.205391,2.54678"
       style="fill:#000000;fill-rule:nonzero;stroke:none" />
  </g>
</svg>
