<?xml version="1.0" encoding="UTF-8" standalone="no"?>
<!-- Created with Inkscape (http://www.inkscape.org/) -->

<svg
   width="4mm"
   height="10mm"
   viewBox="0 0 4.0000001 9.9999994"
   version="1.1"
   id="svg1681"
   inkscape:version="1.2.1 (9c6d41e410, 2022-07-14)"
   sodipodi:docname="lower_m_7.svg"
   inkscape:export-filename="..\..\..\..\Downloads\lower a diff canvas resize 3.0.png"
   inkscape:export-xdpi="96"
   inkscape:export-ydpi="96"
   xmlns:inkscape="http://www.inkscape.org/namespaces/inkscape"
   xmlns:sodipodi="http://sodipodi.sourceforge.net/DTD/sodipodi-0.dtd"
   xmlns="http://www.w3.org/2000/svg"
   xmlns:svg="http://www.w3.org/2000/svg"
   xmlns:rdf="http://www.w3.org/1999/02/22-rdf-syntax-ns#"
   xmlns:cc="http://creativecommons.org/ns#"
   xmlns:dc="http://purl.org/dc/elements/1.1/">
  <defs
     id="defs1675">
    <inkscape:path-effect
       effect="powerstroke"
       id="path-effect622"
       is_visible="true"
       lpeversion="1"
       offset_points="1.7202203,0.1100903"
       not_jump="true"
       sort_points="true"
       interpolator_type="CentripetalCatmullRom"
       interpolator_beta="0.75"
       start_linecap_type="round"
       linejoin_type="spiro"
       miter_limit="4"
       scale_width="1"
       end_linecap_type="round" />
    <inkscape:path-effect
       effect="simplify"
       id="path-effect620"
       is_visible="true"
       lpeversion="1"
       steps="1"
       threshold="0.0047745358"
       smooth_angles="0"
       helper_size="0"
       simplify_individual_paths="false"
       simplify_just_coalesce="false"
       step="1" />
    <inkscape:path-effect
       effect="powerstroke"
       id="path-effect565"
       is_visible="true"
       lpeversion="1"
       offset_points="2.2898405,0.099589871 | 6.6413189,0.085887088 | 9.3403103,0.097877023 | 13.278467,0.11427142"
       not_jump="true"
       sort_points="true"
       interpolator_type="CentripetalCatmullRom"
       interpolator_beta="0.75"
       start_linecap_type="round"
       linejoin_type="spiro"
       miter_limit="4"
       scale_width="1"
       end_linecap_type="round" />
    <inkscape:path-effect
       effect="simplify"
       id="path-effect563"
       is_visible="true"
       lpeversion="1"
       steps="1"
       threshold="0.0047745358"
       smooth_angles="0"
       helper_size="0"
       simplify_individual_paths="false"
       simplify_just_coalesce="false"
       step="1" />
    <inkscape:path-effect
       effect="powerstroke"
       id="path-effect510"
       is_visible="true"
       lpeversion="1"
       offset_points="1.9176024,0.17666803 | 6.6799515,0.12405913 | 8.9071225,0.13923007 | 11.94271,0.12626136 | 14.359274,0.148039"
       not_jump="true"
       sort_points="true"
       interpolator_type="CentripetalCatmullRom"
       interpolator_beta="0.75"
       start_linecap_type="round"
       linejoin_type="spiro"
       miter_limit="4"
       scale_width="1"
       end_linecap_type="round" />
    <inkscape:path-effect
       effect="simplify"
       id="path-effect508"
       is_visible="true"
       lpeversion="1"
       steps="1"
       threshold="0.0047745358"
       smooth_angles="0"
       helper_size="0"
       simplify_individual_paths="false"
       simplify_just_coalesce="false"
       step="1" />
    <inkscape:path-effect
       effect="powerstroke"
       id="path-effect457"
       is_visible="true"
       lpeversion="1"
       offset_points="1.698284,0.11157981"
       not_jump="true"
       sort_points="true"
       interpolator_type="CentripetalCatmullRom"
       interpolator_beta="0.75"
       start_linecap_type="round"
       linejoin_type="spiro"
       miter_limit="4"
       scale_width="1"
       end_linecap_type="round" />
    <inkscape:path-effect
       effect="simplify"
       id="path-effect455"
       is_visible="true"
       lpeversion="1"
       steps="1"
       threshold="0.0047745358"
       smooth_angles="0"
       helper_size="0"
       simplify_individual_paths="false"
       simplify_just_coalesce="false"
       step="1" />
    <inkscape:path-effect
       effect="powerstroke"
       id="path-effect450"
       is_visible="true"
       lpeversion="1"
       offset_points="2.3032336,0.10448372 | 5.4261225,0.1216122 | 9.9205125,0.13971945"
       not_jump="true"
       sort_points="true"
       interpolator_type="CentripetalCatmullRom"
       interpolator_beta="0.75"
       start_linecap_type="round"
       linejoin_type="spiro"
       miter_limit="4"
       scale_width="1"
       end_linecap_type="round" />
    <inkscape:path-effect
       effect="simplify"
       id="path-effect448"
       is_visible="true"
       lpeversion="1"
       steps="1"
       threshold="0.0047745358"
       smooth_angles="0"
       helper_size="0"
       simplify_individual_paths="false"
       simplify_just_coalesce="false"
       step="1" />
    <inkscape:path-effect
       effect="powerstroke"
       id="path-effect401"
       is_visible="true"
       lpeversion="1"
       offset_points="1.919598,0.085642395 | 7.1414337,0.095185405 | 11.392776,0.11084573"
       not_jump="true"
       sort_points="true"
       interpolator_type="CentripetalCatmullRom"
       interpolator_beta="0.75"
       start_linecap_type="round"
       linejoin_type="spiro"
       miter_limit="4"
       scale_width="1"
       end_linecap_type="round" />
    <inkscape:path-effect
       effect="simplify"
       id="path-effect399"
       is_visible="true"
       lpeversion="1"
       steps="1"
       threshold="0.0047745358"
       smooth_angles="0"
       helper_size="0"
       simplify_individual_paths="false"
       simplify_just_coalesce="false"
       step="1" />
    <inkscape:path-effect
       effect="powerstroke"
       id="path-effect354"
       is_visible="true"
       lpeversion="1"
       offset_points="1.8669648,0.097632331 | 3.3867434,0.08319547 | 6.5616288,0.10448372"
       not_jump="true"
       sort_points="true"
       interpolator_type="CentripetalCatmullRom"
       interpolator_beta="0.75"
       start_linecap_type="round"
       linejoin_type="spiro"
       miter_limit="4"
       scale_width="1"
       end_linecap_type="round" />
    <inkscape:path-effect
       effect="simplify"
       id="path-effect352"
       is_visible="true"
       lpeversion="1"
       steps="1"
       threshold="0.0047745358"
       smooth_angles="0"
       helper_size="0"
       simplify_individual_paths="false"
       simplify_just_coalesce="false"
       step="1" />
    <inkscape:path-effect
       effect="powerstroke"
       id="path-effect309"
       is_visible="true"
       lpeversion="1"
       offset_points="1.7013678,0.12014405 | 7.8476699,0.13580437"
       not_jump="true"
       sort_points="true"
       interpolator_type="CentripetalCatmullRom"
       interpolator_beta="0.75"
       start_linecap_type="round"
       linejoin_type="spiro"
       miter_limit="4"
       scale_width="1"
       end_linecap_type="round" />
    <inkscape:path-effect
       effect="simplify"
       id="path-effect307"
       is_visible="true"
       lpeversion="1"
       steps="1"
       threshold="0.0047745358"
       smooth_angles="0"
       helper_size="0"
       simplify_individual_paths="false"
       simplify_just_coalesce="false"
       step="1" />
    <inkscape:path-effect
       effect="powerstroke"
       id="path-effect302"
       is_visible="true"
       lpeversion="1"
       offset_points="2.2193262,0.1282189"
       not_jump="true"
       sort_points="true"
       interpolator_type="CentripetalCatmullRom"
       interpolator_beta="0.75"
       start_linecap_type="round"
       linejoin_type="spiro"
       miter_limit="4"
       scale_width="1"
       end_linecap_type="round" />
    <inkscape:path-effect
       effect="simplify"
       id="path-effect300"
       is_visible="true"
       lpeversion="1"
       steps="1"
       threshold="0.0047745358"
       smooth_angles="0"
       helper_size="0"
       simplify_individual_paths="false"
       simplify_just_coalesce="false"
       step="1" />
    <inkscape:path-effect
       effect="powerstroke"
       id="path-effect329"
       is_visible="true"
       lpeversion="1"
       offset_points="2.036852,0.12799523 | 9.038239,0.16903718 | 11.263778,0.13750213"
       not_jump="true"
       sort_points="true"
       interpolator_type="CentripetalCatmullRom"
       interpolator_beta="0.75"
       start_linecap_type="round"
       linejoin_type="spiro"
       miter_limit="4"
       scale_width="1"
       end_linecap_type="round" />
    <inkscape:path-effect
       effect="simplify"
       id="path-effect327"
       is_visible="true"
       lpeversion="1"
       steps="1"
       threshold="0.0035951417"
       smooth_angles="0"
       helper_size="0"
       simplify_individual_paths="false"
       simplify_just_coalesce="false"
       step="1" />
    <inkscape:path-effect
       effect="powerstroke"
       id="path-effect502"
       is_visible="true"
       lpeversion="1"
       offset_points="3.0091841,0.21607495 | 7.3602657,0.17554228 | 9.4159651,0.20236537"
       not_jump="true"
       sort_points="true"
       interpolator_type="CentripetalCatmullRom"
       interpolator_beta="0.75"
       start_linecap_type="round"
       linejoin_type="spiro"
       miter_limit="4"
       scale_width="1"
       end_linecap_type="round" />
    <inkscape:path-effect
       effect="simplify"
       id="path-effect500"
       is_visible="true"
       lpeversion="1"
       steps="1"
       threshold="0.0035951417"
       smooth_angles="0"
       helper_size="0"
       simplify_individual_paths="false"
       simplify_just_coalesce="false"
       step="1" />
    <inkscape:path-effect
       effect="powerstroke"
       id="path-effect241"
       is_visible="true"
       lpeversion="1"
       offset_points="2.6879454,0.34086734"
       not_jump="true"
       sort_points="true"
       interpolator_type="CentripetalCatmullRom"
       interpolator_beta="0.75"
       start_linecap_type="round"
       linejoin_type="spiro"
       miter_limit="4"
       scale_width="1"
       end_linecap_type="round" />
    <inkscape:path-effect
       effect="simplify"
       id="path-effect239"
       is_visible="true"
       lpeversion="1"
       steps="1"
       threshold="0.0028332064"
       smooth_angles="0"
       helper_size="0"
       simplify_individual_paths="false"
       simplify_just_coalesce="false"
       step="1" />
    <inkscape:path-effect
       effect="powerstroke"
       id="path-effect234"
       is_visible="true"
       lpeversion="1"
       offset_points="2.13563,0.075169555"
       not_jump="true"
       sort_points="true"
       interpolator_type="CentripetalCatmullRom"
       interpolator_beta="0.75"
       start_linecap_type="round"
       linejoin_type="spiro"
       miter_limit="4"
       scale_width="1"
       end_linecap_type="round" />
    <inkscape:path-effect
       effect="simplify"
       id="path-effect232"
       is_visible="true"
       lpeversion="1"
       steps="1"
       threshold="0.0028332064"
       smooth_angles="0"
       helper_size="0"
       simplify_individual_paths="false"
       simplify_just_coalesce="false"
       step="1" />
    <inkscape:path-effect
       effect="powerstroke"
       id="path-effect227"
       is_visible="true"
       lpeversion="1"
       offset_points="2.1868266,0.075169555"
       not_jump="true"
       sort_points="true"
       interpolator_type="CentripetalCatmullRom"
       interpolator_beta="0.75"
       start_linecap_type="round"
       linejoin_type="spiro"
       miter_limit="4"
       scale_width="1"
       end_linecap_type="round" />
    <inkscape:path-effect
       effect="simplify"
       id="path-effect225"
       is_visible="true"
       lpeversion="1"
       steps="1"
       threshold="0.0028332064"
       smooth_angles="0"
       helper_size="0"
       simplify_individual_paths="false"
       simplify_just_coalesce="false"
       step="1" />
    <inkscape:path-effect
       effect="powerstroke"
       id="path-effect166"
       is_visible="true"
       lpeversion="1"
       offset_points="1.9637935,0.075169555"
       not_jump="true"
       sort_points="true"
       interpolator_type="CentripetalCatmullRom"
       interpolator_beta="0.75"
       start_linecap_type="round"
       linejoin_type="spiro"
       miter_limit="4"
       scale_width="1"
       end_linecap_type="round" />
    <inkscape:path-effect
       effect="simplify"
       id="path-effect164"
       is_visible="true"
       lpeversion="1"
       steps="1"
       threshold="0.0028332064"
       smooth_angles="0"
       helper_size="0"
       simplify_individual_paths="false"
       simplify_just_coalesce="false"
       step="1" />
    <inkscape:path-effect
       effect="powerstroke"
       id="path-effect159"
       is_visible="true"
       lpeversion="1"
       offset_points="2.2611036,0.075169555"
       not_jump="true"
       sort_points="true"
       interpolator_type="CentripetalCatmullRom"
       interpolator_beta="0.75"
       start_linecap_type="round"
       linejoin_type="spiro"
       miter_limit="4"
       scale_width="1"
       end_linecap_type="round" />
    <inkscape:path-effect
       effect="simplify"
       id="path-effect157"
       is_visible="true"
       lpeversion="1"
       steps="1"
       threshold="0.0028332064"
       smooth_angles="0"
       helper_size="0"
       simplify_individual_paths="false"
       simplify_just_coalesce="false"
       step="1" />
    <inkscape:path-effect
       effect="powerstroke"
       id="path-effect152"
       is_visible="true"
       lpeversion="1"
       offset_points="2.826981,0.075169555"
       not_jump="true"
       sort_points="true"
       interpolator_type="CentripetalCatmullRom"
       interpolator_beta="0.75"
       start_linecap_type="round"
       linejoin_type="spiro"
       miter_limit="4"
       scale_width="1"
       end_linecap_type="round" />
    <inkscape:path-effect
       effect="simplify"
       id="path-effect150"
       is_visible="true"
       lpeversion="1"
       steps="1"
       threshold="0.0028332064"
       smooth_angles="0"
       helper_size="0"
       simplify_individual_paths="false"
       simplify_just_coalesce="false"
       step="1" />
    <inkscape:path-effect
       effect="powerstroke"
       id="path-effect145"
       is_visible="true"
       lpeversion="1"
       offset_points="3.8374447,0.075169555"
       not_jump="true"
       sort_points="true"
       interpolator_type="CentripetalCatmullRom"
       interpolator_beta="0.75"
       start_linecap_type="round"
       linejoin_type="spiro"
       miter_limit="4"
       scale_width="1"
       end_linecap_type="round" />
    <inkscape:path-effect
       effect="simplify"
       id="path-effect143"
       is_visible="true"
       lpeversion="1"
       steps="1"
       threshold="0.0028332064"
       smooth_angles="0"
       helper_size="0"
       simplify_individual_paths="false"
       simplify_just_coalesce="false"
       step="1" />
    <inkscape:path-effect
       effect="powerstroke"
       id="path-effect138"
       is_visible="true"
       lpeversion="1"
       offset_points="2.6880907,0.075169555"
       not_jump="true"
       sort_points="true"
       interpolator_type="CentripetalCatmullRom"
       interpolator_beta="0.75"
       start_linecap_type="round"
       linejoin_type="spiro"
       miter_limit="4"
       scale_width="1"
       end_linecap_type="round" />
    <inkscape:path-effect
       effect="simplify"
       id="path-effect136"
       is_visible="true"
       lpeversion="1"
       steps="1"
       threshold="0.0028332064"
       smooth_angles="0"
       helper_size="0"
       simplify_individual_paths="false"
       simplify_just_coalesce="false"
       step="1" />
    <inkscape:path-effect
       effect="powerstroke"
       id="path-effect131"
       is_visible="true"
       lpeversion="1"
       offset_points="1.9940581,0.075169555"
       not_jump="true"
       sort_points="true"
       interpolator_type="CentripetalCatmullRom"
       interpolator_beta="0.75"
       start_linecap_type="round"
       linejoin_type="spiro"
       miter_limit="4"
       scale_width="1"
       end_linecap_type="round" />
    <inkscape:path-effect
       effect="simplify"
       id="path-effect129"
       is_visible="true"
       lpeversion="1"
       steps="1"
       threshold="0.0028332064"
       smooth_angles="0"
       helper_size="0"
       simplify_individual_paths="false"
       simplify_just_coalesce="false"
       step="1" />
  </defs>
  <sodipodi:namedview
     id="base"
     pagecolor="#ffffff"
     bordercolor="#666666"
     borderopacity="1.0"
     inkscape:pageopacity="0.0"
     inkscape:pageshadow="2"
     inkscape:zoom="15.839192"
     inkscape:cx="1.6730651"
     inkscape:cy="19.887378"
     inkscape:document-units="mm"
     inkscape:current-layer="layer1"
     showgrid="false"
     fit-margin-top="0"
     fit-margin-left="0"
     fit-margin-right="0"
     fit-margin-bottom="0"
     inkscape:window-width="1920"
     inkscape:window-height="1057"
     inkscape:window-x="1072"
     inkscape:window-y="321"
     inkscape:window-maximized="1"
     showguides="true"
     inkscape:guide-bbox="true"
     inkscape:snap-bbox="true"
     inkscape:bbox-nodes="true"
     inkscape:snap-nodes="false"
     inkscape:snap-others="false"
     inkscape:snap-page="true"
     inkscape:snap-grids="false"
     inkscape:snap-to-guides="false"
     inkscape:snap-global="false"
     inkscape:pagecheckerboard="0"
     inkscape:showpageshadow="2"
     inkscape:deskcolor="#d1d1d1">
    <sodipodi:guide
       position="-6.1806075,9.4988692"
       orientation="0,1"
       id="guide816"
       inkscape:locked="false" />
    <sodipodi:guide
       position="-4.4101636,10.646923"
       orientation="0,1"
       id="guide818"
       inkscape:locked="false" />
    <sodipodi:guide
       position="2.7595724,11.09577"
       orientation="1,0"
       id="guide820"
       inkscape:locked="false" />
    <sodipodi:guide
       position="3.6572659,10.942217"
       orientation="1,0"
       id="guide822"
       inkscape:locked="false" />
    <sodipodi:guide
       position="-0.051625511,9.7492299"
       orientation="1,0"
       id="guide1853"
       inkscape:locked="false" />
    <sodipodi:guide
       position="-2.3720169,3.0175835"
       orientation="0,1"
       id="guide1855"
       inkscape:locked="false" />
  </sodipodi:namedview>
  <metadata
     id="metadata1678">
    <rdf:RDF>
      <cc:Work
         rdf:about="">
        <dc:format>image/svg+xml</dc:format>
        <dc:type
           rdf:resource="http://purl.org/dc/dcmitype/StillImage" />
      </cc:Work>
    </rdf:RDF>
  </metadata>
  <g
     inkscape:label="Layer 1"
     inkscape:groupmode="layer"
     id="layer1"
     transform="translate(17.028496,-147.22856)">
    <path
       d="m -17.180731,150.46125 c 0.02218,0.38475 -0.007,1.05892 0.03786,1.98906 0.0073,0.37156 0.0039,0.75923 -0.0069,1.22005 -0.0035,0.14975 -0.0075,0.29886 -0.01242,0.47632 4.67e-4,0.0229 7.83e-4,0.0342 9.33e-4,0.04 8.97e-4,-0.011 0.0012,-0.0136 0.0018,-0.0168 2.99e-4,-0.002 7.65e-4,-0.004 0.0015,-0.007 6.5e-4,-0.003 0.0018,-0.007 0.0038,-0.0124 0.0016,-0.004 0.0058,-0.0148 0.0141,-0.0262 0.0044,-0.006 0.01157,-0.0146 0.0223,-0.0228 0.0055,-0.004 0.01226,-0.009 0.0203,-0.0122 0.0081,-0.004 0.01735,-0.007 0.02758,-0.009 0.01026,-0.002 0.02072,-0.002 0.03107,-9.4e-4 0.0103,0.001 0.01968,0.004 0.02798,0.007 0.01624,0.006 0.02779,0.0154 0.03507,0.0222 0.0074,0.007 0.01244,0.0136 0.01563,0.0182 0.0033,0.005 0.0057,0.009 0.0073,0.0123 0.0031,0.006 0.005,0.0114 0.006,0.0143 0.0011,0.003 0.0018,0.006 0.0023,0.008 9.32e-4,0.004 0.0015,0.006 0.0018,0.008 3.09e-4,0.002 5.23e-4,0.003 6.58e-4,0.004 2.64e-4,0.002 4.26e-4,0.003 5.06e-4,0.004 3.82e-4,0.004 2.93e-4,0.002 1.63e-4,-0.002 -9.8e-5,-0.003 -3.68e-4,-0.01 -4.66e-4,-0.0123 -3.57e-4,-0.009 -8.38e-4,-0.022 -0.0014,-0.0362 -0.0011,-0.0265 -0.0026,-0.0615 -0.0042,-0.0933 -8.05e-4,-0.0152 -0.0017,-0.0303 -0.0026,-0.0435 -4.55e-4,-0.006 -9.35e-4,-0.0128 -0.0014,-0.0186 -4.91e-4,-0.006 -0.0011,-0.0113 -0.0017,-0.0167 -0.01413,-0.16655 -0.03338,-0.36169 -0.04207,-0.54446 -0.0083,-0.17393 -0.0082,-0.3543 0.0139,-0.535 0.05335,-0.53302 0.201155,-1.0768 0.439949,-1.61193 0.02152,-0.045 0.04837,-0.0927 0.07928,-0.13748 0.03047,-0.0442 0.06446,-0.0848 0.10168,-0.11947 0.03663,-0.0341 0.07599,-0.0619 0.11761,-0.0817 0.0409,-0.0194 0.08478,-0.0314 0.132294,-0.0338 0.06753,-0.009 0.126154,-0.007 0.183832,0.004 0.05727,0.0109 0.113682,0.0305 0.167768,0.0578 0.107504,0.0543 0.203872,0.13816 0.275914,0.23841 0.121114,0.15944 0.205313,0.33831 0.270399,0.531 0.06505,0.19258 0.109758,0.39494 0.15257,0.59959 4.96e-4,0.005 0.0028,0.0161 0.0052,0.0273 0.0025,0.0113 0.0054,0.0233 0.0084,0.035 0.003,0.0117 0.0063,0.0234 0.0097,0.0345 0.0033,0.0109 0.0068,0.0218 0.01041,0.0316 0.0018,0.005 0.0039,0.0103 0.0062,0.0156 0.0012,0.003 0.0026,0.006 0.0042,0.009 0.0016,0.003 0.0037,0.007 0.0066,0.0117 0.0025,0.004 0.0073,0.0112 0.01465,0.019 0.0038,0.004 0.0095,0.01 0.01734,0.015 0.0076,0.005 0.01978,0.0125 0.0361,0.0167 0.01731,0.004 0.03838,0.005 0.06038,-0.001 0.01057,-0.003 0.02001,-0.008 0.02821,-0.0132 0.0081,-0.005 0.01473,-0.0112 0.01999,-0.0167 0.01023,-0.0108 0.01631,-0.0216 0.01981,-0.029 0.0036,-0.008 0.0058,-0.0144 0.0071,-0.0192 0.0025,-0.009 0.0034,-0.0174 0.0038,-0.022 4.39e-4,-0.005 5.42e-4,-0.01 5.35e-4,-0.0135 -1.3e-5,-0.007 -4.73e-4,-0.0146 -0.001,-0.0213 -0.0012,-0.0135 -0.0033,-0.0303 -0.0064,-0.0502 -0.026,-0.16919 -0.04513,-0.3365 -0.03914,-0.49831 0.003,-0.0814 0.01237,-0.1601 0.02994,-0.2356 0.01773,-0.0762 0.0438,-0.14903 0.08008,-0.21807 0.06521,-0.12976 0.15001,-0.25108 0.25098,-0.3436 0.05139,-0.0471 0.106082,-0.0859 0.163603,-0.11486 0.05844,-0.0294 0.119877,-0.0486 0.184434,-0.0562 0.0473,-0.005 0.0933,-1.7e-4 0.137485,0.0122 0.04553,0.0127 0.09008,0.0337 0.133174,0.0609 0.04438,0.0279 0.08679,0.062 0.126826,0.0995 0.04122,0.0385 0.07959,0.0803 0.114674,0.12175 0.186776,0.21791 0.305114,0.4708 0.383209,0.72601 0.08567,0.27996 0.125681,0.57279 0.147282,0.83529 0.03003,0.36277 0.03106,0.84848 0.0345,1.05338 a 0.1100903,0.1100903 90 0 0 0.22015,-0.004 c -0.0033,-0.19757 -0.0044,-0.69552 -0.03522,-1.06779 -0.02221,-0.26994 -0.06397,-0.58029 -0.156172,-0.88161 -0.0842,-0.27515 -0.214715,-0.5577 -0.426111,-0.80433 -0.03851,-0.0455 -0.08283,-0.0939 -0.131948,-0.13984 -0.04761,-0.0445 -0.101024,-0.0879 -0.159914,-0.12499 -0.05737,-0.0361 -0.121221,-0.067 -0.191131,-0.0866 -0.06858,-0.0192 -0.142689,-0.0274 -0.221255,-0.019 -0.09308,0.0109 -0.17926,0.0382 -0.258942,0.0783 -0.07806,0.0393 -0.149227,0.0904 -0.213398,0.14922 -0.125112,0.11464 -0.224779,0.25945 -0.298054,0.4053 -0.04494,0.0855 -0.07716,0.1762 -0.09871,0.26881 -0.0213,0.0915 -0.03208,0.18448 -0.03552,0.27735 -0.0068,0.18306 0.01495,0.36689 0.04153,0.5398 0.0027,0.0178 0.0041,0.0292 0.0046,0.0357 2.57e-4,0.003 2.39e-4,0.004 2.36e-4,0.003 -10e-7,-6.2e-4 7e-6,-0.003 2.6e-4,-0.006 2.11e-4,-0.002 8.33e-4,-0.009 0.003,-0.0167 0.0011,-0.004 0.0031,-0.0103 0.0065,-0.0175 0.0033,-0.007 0.0091,-0.0173 0.01908,-0.0279 0.0051,-0.005 0.01159,-0.0112 0.01958,-0.0164 0.0081,-0.005 0.01736,-0.01 0.02777,-0.013 0.02169,-0.007 0.04244,-0.006 0.05941,-0.001 0.01598,0.004 0.02776,0.0111 0.03503,0.0161 0.0074,0.005 0.01279,0.0104 0.01616,0.0139 0.0065,0.007 0.01044,0.0129 0.012,0.0154 0.0019,0.003 0.0031,0.005 0.0036,0.006 -0.0019,-0.006 -0.0041,-0.0122 -0.0066,-0.0205 -0.0025,-0.008 -0.005,-0.0173 -0.0074,-0.0266 -0.0024,-0.009 -0.0046,-0.0184 -0.0064,-0.0266 -0.0018,-0.008 -0.003,-0.0148 -0.0037,-0.0189 -0.04393,-0.21086 -0.09089,-0.42483 -0.160599,-0.63119 -0.07014,-0.20763 -0.163978,-0.40983 -0.301948,-0.59139 -0.08992,-0.12519 -0.21305,-0.23302 -0.353665,-0.30407 -0.07115,-0.0359 -0.147098,-0.0627 -0.226049,-0.0776 -0.07969,-0.0151 -0.162124,-0.0182 -0.245243,-0.007 -0.06937,0.003 -0.141296,0.0231 -0.206193,0.0539 -0.06538,0.031 -0.123043,0.0726 -0.173326,0.11945 -0.05092,0.0474 -0.09507,0.10078 -0.132883,0.15556 -0.03842,0.0557 -0.07096,0.11373 -0.09795,0.17027 -0.248745,0.55734 -0.403263,1.12393 -0.458882,1.67989 -0.02392,0.19526 -0.02359,0.38919 -0.01501,0.56978 0.0089,0.18826 0.02886,0.39054 0.04306,0.55699 6.5e-4,0.006 9.49e-4,0.009 0.0013,0.0129 3.63e-4,0.004 7.45e-4,0.009 0.0011,0.0147 8.06e-4,0.0115 0.0016,0.0252 0.0024,0.0398 0.0016,0.0304 0.003,0.0642 0.0041,0.0905 5.6e-4,0.0139 0.001,0.0263 0.0014,0.0357 2.58e-4,0.007 2.11e-4,0.006 4.68e-4,0.0123 1.28e-4,0.003 2.32e-4,0.006 3.08e-4,0.008 6.87e-4,0.009 8.5e-4,0.011 0.0011,0.0128 1.35e-4,9.4e-4 3.5e-4,0.002 6.59e-4,0.004 2.76e-4,0.002 8.31e-4,0.004 0.0018,0.008 4.78e-4,0.002 0.0012,0.005 0.0023,0.008 9.95e-4,0.003 0.0029,0.008 0.006,0.0143 0.0016,0.003 0.004,0.007 0.0073,0.0123 0.0032,0.005 0.0083,0.0113 0.0156,0.0182 0.0073,0.007 0.01888,0.0158 0.03512,0.0222 0.0083,0.003 0.01768,0.006 0.02797,0.007 0.01035,0.001 0.02081,8.5e-4 0.03107,-9.3e-4 0.01023,-0.002 0.01947,-0.005 0.02758,-0.009 0.008,-0.004 0.01479,-0.008 0.0203,-0.0123 0.01073,-0.008 0.0179,-0.0167 0.02227,-0.0227 0.0083,-0.0114 0.01247,-0.0218 0.01412,-0.0262 0.002,-0.005 0.0032,-0.01 0.0038,-0.0124 6.99e-4,-0.003 0.0012,-0.005 0.0015,-0.007 5.84e-4,-0.003 8.99e-4,-0.006 0.0011,-0.007 7.41e-4,-0.007 6.86e-4,-0.0135 5.11e-4,-0.0203 -1.59e-4,-0.006 -4.81e-4,-0.0177 -9.44e-4,-0.0343 0.0049,-0.17142 0.009,-0.32091 0.01245,-0.4712 0.01074,-0.46251 0.01424,-0.85361 0.0068,-1.23263 -0.04399,-0.91358 -0.01536,-1.60038 -0.03807,-1.99427 a 0.1100903,0.1100903 90 0 0 -0.219816,0.0127 z"
       id="path-1"
       inkscape:path-effect="#path-effect620;#path-effect622"
       inkscape:original-d="m -17.070823,150.45491 c 0.03693,0.60193 0.0077,1.20453 0.03221,1.80664 0.0072,0.17718 0.0091,0.35706 0.0095,0.5344 8.61e-4,0.33172 -0.0054,0.66623 -0.01277,0.99764 -0.0024,0.10801 -0.01033,0.21497 -0.01054,0.32316 -6.5e-5,0.032 0.0023,0.12792 0.0018,0.0959 -0.0062,-0.34734 -0.06819,-0.69055 -0.05929,-1.03961 0.01413,-0.55384 0.13703,-1.09898 0.330726,-1.61885 0.08696,-0.23341 0.180272,-0.49728 0.38342,-0.66317 0.104068,-0.0849 0.219366,-0.1112 0.352475,-0.11343 0.615098,-0.0103 0.904866,0.72237 1.017547,1.1939 0.0083,0.0343 0.15127,0.70991 0.107917,0.39632 -0.03989,-0.28853 -0.07712,-0.57481 0.01627,-0.85858 0.162219,-0.49294 0.694881,-1.0071 1.189792,-0.57224 0.783058,0.68806 0.743186,1.91759 0.759895,2.85471"
       style="fill:#000000;fill-rule:nonzero;stroke:none;stroke-width:1.0156" />
  </g>
</svg>
