<?xml version="1.0" encoding="UTF-8" standalone="no"?>
<!-- Created with Inkscape (http://www.inkscape.org/) -->

<svg
   width="4mm"
   height="10mm"
   viewBox="0 0 4.0000001 9.9999994"
   version="1.1"
   id="svg1681"
   inkscape:version="1.2.1 (9c6d41e410, 2022-07-14)"
   sodipodi:docname="lower_m_16.svg"
   inkscape:export-filename="..\..\..\..\Downloads\lower a diff canvas resize 3.0.png"
   inkscape:export-xdpi="96"
   inkscape:export-ydpi="96"
   xmlns:inkscape="http://www.inkscape.org/namespaces/inkscape"
   xmlns:sodipodi="http://sodipodi.sourceforge.net/DTD/sodipodi-0.dtd"
   xmlns="http://www.w3.org/2000/svg"
   xmlns:svg="http://www.w3.org/2000/svg"
   xmlns:rdf="http://www.w3.org/1999/02/22-rdf-syntax-ns#"
   xmlns:cc="http://creativecommons.org/ns#"
   xmlns:dc="http://purl.org/dc/elements/1.1/">
  <defs
     id="defs1675">
    <inkscape:path-effect
       effect="powerstroke"
       id="path-effect1225"
       is_visible="true"
       lpeversion="1"
       offset_points="1.879456,0.11297386 | 12.349244,0.1335602"
       not_jump="true"
       sort_points="true"
       interpolator_type="CentripetalCatmullRom"
       interpolator_beta="0.75"
       start_linecap_type="round"
       linejoin_type="spiro"
       miter_limit="4"
       scale_width="1"
       end_linecap_type="round" />
    <inkscape:path-effect
       effect="simplify"
       id="path-effect1223"
       is_visible="true"
       lpeversion="1"
       steps="1"
       threshold="0.0047745358"
       smooth_angles="0"
       helper_size="0"
       simplify_individual_paths="false"
       simplify_just_coalesce="false"
       step="1" />
    <inkscape:path-effect
       effect="powerstroke"
       id="path-effect1150"
       is_visible="true"
       lpeversion="1"
       offset_points="1.561859,0.097387638 | 6.7112746,0.10986696"
       not_jump="true"
       sort_points="true"
       interpolator_type="CentripetalCatmullRom"
       interpolator_beta="0.75"
       start_linecap_type="round"
       linejoin_type="spiro"
       miter_limit="4"
       scale_width="1"
       end_linecap_type="round" />
    <inkscape:path-effect
       effect="simplify"
       id="path-effect1148"
       is_visible="true"
       lpeversion="1"
       steps="1"
       threshold="0.0047745358"
       smooth_angles="0"
       helper_size="0"
       simplify_individual_paths="false"
       simplify_just_coalesce="false"
       step="1" />
    <inkscape:path-effect
       effect="powerstroke"
       id="path-effect1077"
       is_visible="true"
       lpeversion="1"
       offset_points="1.7094205,0.094940713 | 7.3790741,0.10644126"
       not_jump="true"
       sort_points="true"
       interpolator_type="CentripetalCatmullRom"
       interpolator_beta="0.75"
       start_linecap_type="round"
       linejoin_type="spiro"
       miter_limit="4"
       scale_width="1"
       end_linecap_type="round" />
    <inkscape:path-effect
       effect="simplify"
       id="path-effect1075"
       is_visible="true"
       lpeversion="1"
       steps="1"
       threshold="0.0047745358"
       smooth_angles="0"
       helper_size="0"
       simplify_individual_paths="false"
       simplify_just_coalesce="false"
       step="1" />
    <inkscape:path-effect
       effect="powerstroke"
       id="path-effect1006"
       is_visible="true"
       lpeversion="1"
       offset_points="1.7474915,0.11231388 | 8.5867742,0.1020368 | 11.77786,0.11965466"
       not_jump="true"
       sort_points="true"
       interpolator_type="CentripetalCatmullRom"
       interpolator_beta="0.75"
       start_linecap_type="round"
       linejoin_type="spiro"
       miter_limit="4"
       scale_width="1"
       end_linecap_type="round" />
    <inkscape:path-effect
       effect="simplify"
       id="path-effect1004"
       is_visible="true"
       lpeversion="1"
       steps="1"
       threshold="0.0047745358"
       smooth_angles="0"
       helper_size="0"
       simplify_individual_paths="false"
       simplify_just_coalesce="false"
       step="1" />
    <inkscape:path-effect
       effect="powerstroke"
       id="path-effect937"
       is_visible="true"
       lpeversion="1"
       offset_points="2.0056585,0.10130272 | 9.9211025,0.12038874"
       not_jump="true"
       sort_points="true"
       interpolator_type="CentripetalCatmullRom"
       interpolator_beta="0.75"
       start_linecap_type="round"
       linejoin_type="spiro"
       miter_limit="4"
       scale_width="1"
       end_linecap_type="round" />
    <inkscape:path-effect
       effect="simplify"
       id="path-effect935"
       is_visible="true"
       lpeversion="1"
       steps="1"
       threshold="0.0047745358"
       smooth_angles="0"
       helper_size="0"
       simplify_individual_paths="false"
       simplify_just_coalesce="false"
       step="1" />
    <inkscape:path-effect
       effect="powerstroke"
       id="path-effect870"
       is_visible="true"
       lpeversion="1"
       offset_points="1.6396908,0.11549489 | 9.4731523,0.13286806 | 11.658012,0.14852838"
       not_jump="true"
       sort_points="true"
       interpolator_type="CentripetalCatmullRom"
       interpolator_beta="0.75"
       start_linecap_type="round"
       linejoin_type="spiro"
       miter_limit="4"
       scale_width="1"
       end_linecap_type="round" />
    <inkscape:path-effect
       effect="simplify"
       id="path-effect868"
       is_visible="true"
       lpeversion="1"
       steps="1"
       threshold="0.0047745358"
       smooth_angles="0"
       helper_size="0"
       simplify_individual_paths="false"
       simplify_just_coalesce="false"
       step="1" />
    <inkscape:path-effect
       effect="powerstroke"
       id="path-effect805"
       is_visible="true"
       lpeversion="1"
       offset_points="1.3207447,0.13115521 | 10.325754,0.14706023"
       not_jump="true"
       sort_points="true"
       interpolator_type="CentripetalCatmullRom"
       interpolator_beta="0.75"
       start_linecap_type="round"
       linejoin_type="spiro"
       miter_limit="4"
       scale_width="1"
       end_linecap_type="round" />
    <inkscape:path-effect
       effect="simplify"
       id="path-effect803"
       is_visible="true"
       lpeversion="1"
       steps="1"
       threshold="0.0047745358"
       smooth_angles="0"
       helper_size="0"
       simplify_individual_paths="false"
       simplify_just_coalesce="false"
       step="1" />
    <inkscape:path-effect
       effect="powerstroke"
       id="path-effect742"
       is_visible="true"
       lpeversion="1"
       offset_points="2.3665113,0.09371725 | 7.9063398,0.10448372"
       not_jump="true"
       sort_points="true"
       interpolator_type="CentripetalCatmullRom"
       interpolator_beta="0.75"
       start_linecap_type="round"
       linejoin_type="spiro"
       miter_limit="4"
       scale_width="1"
       end_linecap_type="round" />
    <inkscape:path-effect
       effect="simplify"
       id="path-effect740"
       is_visible="true"
       lpeversion="1"
       steps="1"
       threshold="0.0047745358"
       smooth_angles="0"
       helper_size="0"
       simplify_individual_paths="false"
       simplify_just_coalesce="false"
       step="1" />
    <inkscape:path-effect
       effect="powerstroke"
       id="path-effect681"
       is_visible="true"
       lpeversion="1"
       offset_points="2.217234,0.10252618 | 8.9442199,0.11769712"
       not_jump="true"
       sort_points="true"
       interpolator_type="CentripetalCatmullRom"
       interpolator_beta="0.75"
       start_linecap_type="round"
       linejoin_type="spiro"
       miter_limit="4"
       scale_width="1"
       end_linecap_type="round" />
    <inkscape:path-effect
       effect="simplify"
       id="path-effect679"
       is_visible="true"
       lpeversion="1"
       steps="1"
       threshold="0.0047745358"
       smooth_angles="0"
       helper_size="0"
       simplify_individual_paths="false"
       simplify_just_coalesce="false"
       step="1" />
    <inkscape:path-effect
       effect="powerstroke"
       id="path-effect622"
       is_visible="true"
       lpeversion="1"
       offset_points="1.7202203,0.1083988"
       not_jump="true"
       sort_points="true"
       interpolator_type="CentripetalCatmullRom"
       interpolator_beta="0.75"
       start_linecap_type="round"
       linejoin_type="spiro"
       miter_limit="4"
       scale_width="1"
       end_linecap_type="round" />
    <inkscape:path-effect
       effect="simplify"
       id="path-effect620"
       is_visible="true"
       lpeversion="1"
       steps="1"
       threshold="0.0047745358"
       smooth_angles="0"
       helper_size="0"
       simplify_individual_paths="false"
       simplify_just_coalesce="false"
       step="1" />
    <inkscape:path-effect
       effect="powerstroke"
       id="path-effect565"
       is_visible="true"
       lpeversion="1"
       offset_points="2.2898405,0.099589871 | 6.6413189,0.085887088 | 9.3403103,0.097877023 | 13.278467,0.11427142"
       not_jump="true"
       sort_points="true"
       interpolator_type="CentripetalCatmullRom"
       interpolator_beta="0.75"
       start_linecap_type="round"
       linejoin_type="spiro"
       miter_limit="4"
       scale_width="1"
       end_linecap_type="round" />
    <inkscape:path-effect
       effect="simplify"
       id="path-effect563"
       is_visible="true"
       lpeversion="1"
       steps="1"
       threshold="0.0047745358"
       smooth_angles="0"
       helper_size="0"
       simplify_individual_paths="false"
       simplify_just_coalesce="false"
       step="1" />
    <inkscape:path-effect
       effect="powerstroke"
       id="path-effect510"
       is_visible="true"
       lpeversion="1"
       offset_points="1.9176024,0.17666803 | 6.6799515,0.12405913 | 8.9071225,0.13923007 | 11.94271,0.12626136 | 14.359274,0.148039"
       not_jump="true"
       sort_points="true"
       interpolator_type="CentripetalCatmullRom"
       interpolator_beta="0.75"
       start_linecap_type="round"
       linejoin_type="spiro"
       miter_limit="4"
       scale_width="1"
       end_linecap_type="round" />
    <inkscape:path-effect
       effect="simplify"
       id="path-effect508"
       is_visible="true"
       lpeversion="1"
       steps="1"
       threshold="0.0047745358"
       smooth_angles="0"
       helper_size="0"
       simplify_individual_paths="false"
       simplify_just_coalesce="false"
       step="1" />
    <inkscape:path-effect
       effect="powerstroke"
       id="path-effect457"
       is_visible="true"
       lpeversion="1"
       offset_points="1.698284,0.11157981"
       not_jump="true"
       sort_points="true"
       interpolator_type="CentripetalCatmullRom"
       interpolator_beta="0.75"
       start_linecap_type="round"
       linejoin_type="spiro"
       miter_limit="4"
       scale_width="1"
       end_linecap_type="round" />
    <inkscape:path-effect
       effect="simplify"
       id="path-effect455"
       is_visible="true"
       lpeversion="1"
       steps="1"
       threshold="0.0047745358"
       smooth_angles="0"
       helper_size="0"
       simplify_individual_paths="false"
       simplify_just_coalesce="false"
       step="1" />
    <inkscape:path-effect
       effect="powerstroke"
       id="path-effect450"
       is_visible="true"
       lpeversion="1"
       offset_points="2.3032336,0.10448372 | 5.4261225,0.1216122 | 9.9205125,0.13971945"
       not_jump="true"
       sort_points="true"
       interpolator_type="CentripetalCatmullRom"
       interpolator_beta="0.75"
       start_linecap_type="round"
       linejoin_type="spiro"
       miter_limit="4"
       scale_width="1"
       end_linecap_type="round" />
    <inkscape:path-effect
       effect="simplify"
       id="path-effect448"
       is_visible="true"
       lpeversion="1"
       steps="1"
       threshold="0.0047745358"
       smooth_angles="0"
       helper_size="0"
       simplify_individual_paths="false"
       simplify_just_coalesce="false"
       step="1" />
    <inkscape:path-effect
       effect="powerstroke"
       id="path-effect401"
       is_visible="true"
       lpeversion="1"
       offset_points="1.919598,0.085642395 | 7.1414337,0.095185405 | 11.392776,0.11084573"
       not_jump="true"
       sort_points="true"
       interpolator_type="CentripetalCatmullRom"
       interpolator_beta="0.75"
       start_linecap_type="round"
       linejoin_type="spiro"
       miter_limit="4"
       scale_width="1"
       end_linecap_type="round" />
    <inkscape:path-effect
       effect="simplify"
       id="path-effect399"
       is_visible="true"
       lpeversion="1"
       steps="1"
       threshold="0.0047745358"
       smooth_angles="0"
       helper_size="0"
       simplify_individual_paths="false"
       simplify_just_coalesce="false"
       step="1" />
    <inkscape:path-effect
       effect="powerstroke"
       id="path-effect354"
       is_visible="true"
       lpeversion="1"
       offset_points="1.8669648,0.097632331 | 3.3867434,0.08319547 | 6.5616288,0.10448372"
       not_jump="true"
       sort_points="true"
       interpolator_type="CentripetalCatmullRom"
       interpolator_beta="0.75"
       start_linecap_type="round"
       linejoin_type="spiro"
       miter_limit="4"
       scale_width="1"
       end_linecap_type="round" />
    <inkscape:path-effect
       effect="simplify"
       id="path-effect352"
       is_visible="true"
       lpeversion="1"
       steps="1"
       threshold="0.0047745358"
       smooth_angles="0"
       helper_size="0"
       simplify_individual_paths="false"
       simplify_just_coalesce="false"
       step="1" />
    <inkscape:path-effect
       effect="powerstroke"
       id="path-effect309"
       is_visible="true"
       lpeversion="1"
       offset_points="1.7013678,0.12014405 | 7.8476699,0.13580437"
       not_jump="true"
       sort_points="true"
       interpolator_type="CentripetalCatmullRom"
       interpolator_beta="0.75"
       start_linecap_type="round"
       linejoin_type="spiro"
       miter_limit="4"
       scale_width="1"
       end_linecap_type="round" />
    <inkscape:path-effect
       effect="simplify"
       id="path-effect307"
       is_visible="true"
       lpeversion="1"
       steps="1"
       threshold="0.0047745358"
       smooth_angles="0"
       helper_size="0"
       simplify_individual_paths="false"
       simplify_just_coalesce="false"
       step="1" />
    <inkscape:path-effect
       effect="powerstroke"
       id="path-effect302"
       is_visible="true"
       lpeversion="1"
       offset_points="2.2193262,0.1282189"
       not_jump="true"
       sort_points="true"
       interpolator_type="CentripetalCatmullRom"
       interpolator_beta="0.75"
       start_linecap_type="round"
       linejoin_type="spiro"
       miter_limit="4"
       scale_width="1"
       end_linecap_type="round" />
    <inkscape:path-effect
       effect="simplify"
       id="path-effect300"
       is_visible="true"
       lpeversion="1"
       steps="1"
       threshold="0.0047745358"
       smooth_angles="0"
       helper_size="0"
       simplify_individual_paths="false"
       simplify_just_coalesce="false"
       step="1" />
    <inkscape:path-effect
       effect="powerstroke"
       id="path-effect329"
       is_visible="true"
       lpeversion="1"
       offset_points="2.036852,0.12799523 | 9.038239,0.16903718 | 11.263778,0.13750213"
       not_jump="true"
       sort_points="true"
       interpolator_type="CentripetalCatmullRom"
       interpolator_beta="0.75"
       start_linecap_type="round"
       linejoin_type="spiro"
       miter_limit="4"
       scale_width="1"
       end_linecap_type="round" />
    <inkscape:path-effect
       effect="simplify"
       id="path-effect327"
       is_visible="true"
       lpeversion="1"
       steps="1"
       threshold="0.0035951417"
       smooth_angles="0"
       helper_size="0"
       simplify_individual_paths="false"
       simplify_just_coalesce="false"
       step="1" />
    <inkscape:path-effect
       effect="powerstroke"
       id="path-effect502"
       is_visible="true"
       lpeversion="1"
       offset_points="3.0091841,0.21607495 | 7.3602657,0.17554228 | 9.4159651,0.20236537"
       not_jump="true"
       sort_points="true"
       interpolator_type="CentripetalCatmullRom"
       interpolator_beta="0.75"
       start_linecap_type="round"
       linejoin_type="spiro"
       miter_limit="4"
       scale_width="1"
       end_linecap_type="round" />
    <inkscape:path-effect
       effect="simplify"
       id="path-effect500"
       is_visible="true"
       lpeversion="1"
       steps="1"
       threshold="0.0035951417"
       smooth_angles="0"
       helper_size="0"
       simplify_individual_paths="false"
       simplify_just_coalesce="false"
       step="1" />
    <inkscape:path-effect
       effect="powerstroke"
       id="path-effect241"
       is_visible="true"
       lpeversion="1"
       offset_points="2.6879454,0.34086734"
       not_jump="true"
       sort_points="true"
       interpolator_type="CentripetalCatmullRom"
       interpolator_beta="0.75"
       start_linecap_type="round"
       linejoin_type="spiro"
       miter_limit="4"
       scale_width="1"
       end_linecap_type="round" />
    <inkscape:path-effect
       effect="simplify"
       id="path-effect239"
       is_visible="true"
       lpeversion="1"
       steps="1"
       threshold="0.0028332064"
       smooth_angles="0"
       helper_size="0"
       simplify_individual_paths="false"
       simplify_just_coalesce="false"
       step="1" />
    <inkscape:path-effect
       effect="powerstroke"
       id="path-effect234"
       is_visible="true"
       lpeversion="1"
       offset_points="2.13563,0.075169555"
       not_jump="true"
       sort_points="true"
       interpolator_type="CentripetalCatmullRom"
       interpolator_beta="0.75"
       start_linecap_type="round"
       linejoin_type="spiro"
       miter_limit="4"
       scale_width="1"
       end_linecap_type="round" />
    <inkscape:path-effect
       effect="simplify"
       id="path-effect232"
       is_visible="true"
       lpeversion="1"
       steps="1"
       threshold="0.0028332064"
       smooth_angles="0"
       helper_size="0"
       simplify_individual_paths="false"
       simplify_just_coalesce="false"
       step="1" />
    <inkscape:path-effect
       effect="powerstroke"
       id="path-effect227"
       is_visible="true"
       lpeversion="1"
       offset_points="2.1868266,0.075169555"
       not_jump="true"
       sort_points="true"
       interpolator_type="CentripetalCatmullRom"
       interpolator_beta="0.75"
       start_linecap_type="round"
       linejoin_type="spiro"
       miter_limit="4"
       scale_width="1"
       end_linecap_type="round" />
    <inkscape:path-effect
       effect="simplify"
       id="path-effect225"
       is_visible="true"
       lpeversion="1"
       steps="1"
       threshold="0.0028332064"
       smooth_angles="0"
       helper_size="0"
       simplify_individual_paths="false"
       simplify_just_coalesce="false"
       step="1" />
    <inkscape:path-effect
       effect="powerstroke"
       id="path-effect166"
       is_visible="true"
       lpeversion="1"
       offset_points="1.9637935,0.075169555"
       not_jump="true"
       sort_points="true"
       interpolator_type="CentripetalCatmullRom"
       interpolator_beta="0.75"
       start_linecap_type="round"
       linejoin_type="spiro"
       miter_limit="4"
       scale_width="1"
       end_linecap_type="round" />
    <inkscape:path-effect
       effect="simplify"
       id="path-effect164"
       is_visible="true"
       lpeversion="1"
       steps="1"
       threshold="0.0028332064"
       smooth_angles="0"
       helper_size="0"
       simplify_individual_paths="false"
       simplify_just_coalesce="false"
       step="1" />
    <inkscape:path-effect
       effect="powerstroke"
       id="path-effect159"
       is_visible="true"
       lpeversion="1"
       offset_points="2.2611036,0.075169555"
       not_jump="true"
       sort_points="true"
       interpolator_type="CentripetalCatmullRom"
       interpolator_beta="0.75"
       start_linecap_type="round"
       linejoin_type="spiro"
       miter_limit="4"
       scale_width="1"
       end_linecap_type="round" />
    <inkscape:path-effect
       effect="simplify"
       id="path-effect157"
       is_visible="true"
       lpeversion="1"
       steps="1"
       threshold="0.0028332064"
       smooth_angles="0"
       helper_size="0"
       simplify_individual_paths="false"
       simplify_just_coalesce="false"
       step="1" />
    <inkscape:path-effect
       effect="powerstroke"
       id="path-effect152"
       is_visible="true"
       lpeversion="1"
       offset_points="2.826981,0.075169555"
       not_jump="true"
       sort_points="true"
       interpolator_type="CentripetalCatmullRom"
       interpolator_beta="0.75"
       start_linecap_type="round"
       linejoin_type="spiro"
       miter_limit="4"
       scale_width="1"
       end_linecap_type="round" />
    <inkscape:path-effect
       effect="simplify"
       id="path-effect150"
       is_visible="true"
       lpeversion="1"
       steps="1"
       threshold="0.0028332064"
       smooth_angles="0"
       helper_size="0"
       simplify_individual_paths="false"
       simplify_just_coalesce="false"
       step="1" />
    <inkscape:path-effect
       effect="powerstroke"
       id="path-effect145"
       is_visible="true"
       lpeversion="1"
       offset_points="3.8374447,0.075169555"
       not_jump="true"
       sort_points="true"
       interpolator_type="CentripetalCatmullRom"
       interpolator_beta="0.75"
       start_linecap_type="round"
       linejoin_type="spiro"
       miter_limit="4"
       scale_width="1"
       end_linecap_type="round" />
    <inkscape:path-effect
       effect="simplify"
       id="path-effect143"
       is_visible="true"
       lpeversion="1"
       steps="1"
       threshold="0.0028332064"
       smooth_angles="0"
       helper_size="0"
       simplify_individual_paths="false"
       simplify_just_coalesce="false"
       step="1" />
    <inkscape:path-effect
       effect="powerstroke"
       id="path-effect138"
       is_visible="true"
       lpeversion="1"
       offset_points="2.6880907,0.075169555"
       not_jump="true"
       sort_points="true"
       interpolator_type="CentripetalCatmullRom"
       interpolator_beta="0.75"
       start_linecap_type="round"
       linejoin_type="spiro"
       miter_limit="4"
       scale_width="1"
       end_linecap_type="round" />
    <inkscape:path-effect
       effect="simplify"
       id="path-effect136"
       is_visible="true"
       lpeversion="1"
       steps="1"
       threshold="0.0028332064"
       smooth_angles="0"
       helper_size="0"
       simplify_individual_paths="false"
       simplify_just_coalesce="false"
       step="1" />
    <inkscape:path-effect
       effect="powerstroke"
       id="path-effect131"
       is_visible="true"
       lpeversion="1"
       offset_points="1.9940581,0.075169555"
       not_jump="true"
       sort_points="true"
       interpolator_type="CentripetalCatmullRom"
       interpolator_beta="0.75"
       start_linecap_type="round"
       linejoin_type="spiro"
       miter_limit="4"
       scale_width="1"
       end_linecap_type="round" />
    <inkscape:path-effect
       effect="simplify"
       id="path-effect129"
       is_visible="true"
       lpeversion="1"
       steps="1"
       threshold="0.0028332064"
       smooth_angles="0"
       helper_size="0"
       simplify_individual_paths="false"
       simplify_just_coalesce="false"
       step="1" />
  </defs>
  <sodipodi:namedview
     id="base"
     pagecolor="#ffffff"
     bordercolor="#666666"
     borderopacity="1.0"
     inkscape:pageopacity="0.0"
     inkscape:pageshadow="2"
     inkscape:zoom="15.839192"
     inkscape:cx="1.6730651"
     inkscape:cy="19.887378"
     inkscape:document-units="mm"
     inkscape:current-layer="layer1"
     showgrid="false"
     fit-margin-top="0"
     fit-margin-left="0"
     fit-margin-right="0"
     fit-margin-bottom="0"
     inkscape:window-width="1920"
     inkscape:window-height="1057"
     inkscape:window-x="1072"
     inkscape:window-y="321"
     inkscape:window-maximized="1"
     showguides="true"
     inkscape:guide-bbox="true"
     inkscape:snap-bbox="true"
     inkscape:bbox-nodes="true"
     inkscape:snap-nodes="false"
     inkscape:snap-others="false"
     inkscape:snap-page="true"
     inkscape:snap-grids="false"
     inkscape:snap-to-guides="false"
     inkscape:snap-global="false"
     inkscape:pagecheckerboard="0"
     inkscape:showpageshadow="2"
     inkscape:deskcolor="#d1d1d1">
    <sodipodi:guide
       position="-6.1806075,9.4988692"
       orientation="0,1"
       id="guide816"
       inkscape:locked="false" />
    <sodipodi:guide
       position="-4.4101636,10.646923"
       orientation="0,1"
       id="guide818"
       inkscape:locked="false" />
    <sodipodi:guide
       position="2.7595724,11.09577"
       orientation="1,0"
       id="guide820"
       inkscape:locked="false" />
    <sodipodi:guide
       position="3.6572659,10.942217"
       orientation="1,0"
       id="guide822"
       inkscape:locked="false" />
    <sodipodi:guide
       position="-0.051625511,9.7492299"
       orientation="1,0"
       id="guide1853"
       inkscape:locked="false" />
    <sodipodi:guide
       position="-2.3720169,3.0175835"
       orientation="0,1"
       id="guide1855"
       inkscape:locked="false" />
  </sodipodi:namedview>
  <metadata
     id="metadata1678">
    <rdf:RDF>
      <cc:Work
         rdf:about="">
        <dc:format>image/svg+xml</dc:format>
        <dc:type
           rdf:resource="http://purl.org/dc/dcmitype/StillImage" />
      </cc:Work>
    </rdf:RDF>
  </metadata>
  <g
     inkscape:label="Layer 1"
     inkscape:groupmode="layer"
     id="layer1"
     transform="translate(17.028496,-147.22856)">
    <path
       d="m -17.091779,151.30295 c 0.02558,0.38373 0.02539,1.06034 0.06724,1.94975 0.0066,0.23257 0.01167,0.57147 0.03994,0.8724 0.0037,0.039 0.0079,0.0794 0.01276,0.12104 -4.43e-4,-0.002 -2.87e-4,0.003 -2.11e-4,0.007 7.3e-5,0.004 5.3e-5,0.006 2.1e-5,0.007 5e-4,-0.007 8.55e-4,-0.0106 0.0016,-0.0147 3.96e-4,-0.002 0.001,-0.005 0.002,-0.009 9.2e-4,-0.003 0.0026,-0.009 0.0054,-0.0151 0.0025,-0.006 0.0079,-0.0168 0.01796,-0.0285 0.0053,-0.006 0.01292,-0.0136 0.02332,-0.0205 0.01062,-0.007 0.02415,-0.0134 0.04033,-0.0166 0.01637,-0.003 0.03256,-0.003 0.04747,7.3e-4 0.01449,0.003 0.02619,0.009 0.03492,0.0145 0.0086,0.005 0.01519,0.0112 0.01982,0.0158 0.0047,0.005 0.0082,0.009 0.01083,0.0126 0.005,0.007 0.0082,0.0127 0.01004,0.0163 0.0019,0.004 0.0033,0.007 0.0042,0.009 0.0017,0.004 0.0028,0.008 0.0033,0.01 5.62e-4,0.002 9.48e-4,0.003 0.0012,0.004 7.15e-4,0.003 4.64e-4,0.001 1.51e-4,-0.001 -6.62e-4,-0.005 -0.0015,-0.0122 -0.0026,-0.0218 -0.002,-0.0183 -0.0043,-0.0407 -0.0066,-0.0632 -0.001,-0.0102 -0.0021,-0.0207 -0.003,-0.0293 -4.43e-4,-0.004 -8.76e-4,-0.008 -0.0013,-0.012 -3.77e-4,-0.003 -7.83e-4,-0.007 -0.0012,-0.0101 -0.03254,-0.29552 -0.06078,-0.62278 -0.05038,-0.94591 0.0097,-0.30216 0.05322,-0.61147 0.163901,-0.90953 0.053,-0.13659 0.118985,-0.27555 0.200962,-0.40512 0.07862,-0.12428 0.172062,-0.24009 0.283688,-0.3384 0.0668,-0.0511 0.148435,-0.1008 0.23283,-0.1315 0.04119,-0.015 0.08231,-0.0252 0.122829,-0.0296 0.03999,-0.004 0.07947,-0.003 0.118293,0.005 0.03457,0.009 0.07112,0.0262 0.105406,0.05 0.03437,0.0239 0.06679,0.0546 0.09811,0.0912 0.06358,0.0744 0.115722,0.165 0.16998,0.26064 0.176338,0.3143 0.306718,0.65111 0.346912,1.00039 0.039,0.23539 0.07157,0.44228 0.05513,0.64914 -2.73e-4,0.003 -3.52e-4,0.007 -3.65e-4,0.0104 -1.8e-5,0.005 -1.1e-4,0.008 -2.11e-4,0.01 -7.4e-5,2.1e-4 -5e-6,-0.001 3.34e-4,-0.004 1.71e-4,-0.001 4.66e-4,-0.003 9.59e-4,-0.006 4.65e-4,-0.002 0.0013,-0.007 0.0028,-0.0115 0.0013,-0.004 0.0042,-0.0133 0.0098,-0.0237 0.0029,-0.005 0.0074,-0.0128 0.0141,-0.0208 0.0066,-0.008 0.01689,-0.0183 0.03172,-0.0273 0.01547,-0.009 0.03521,-0.0169 0.05816,-0.0183 0.0229,-0.001 0.04318,0.003 0.05932,0.0104 0.01551,0.007 0.02685,0.0154 0.03429,0.0221 0.0075,0.007 0.01296,0.0133 0.01656,0.018 0.0069,0.009 0.01108,0.0174 0.01303,0.0214 0.0022,0.005 0.0037,0.008 0.0046,0.0109 0.0017,0.005 0.0026,0.008 0.0029,0.009 7.56e-4,0.003 5.05e-4,0.001 1.9e-4,-9.9e-4 -6.98e-4,-0.005 -0.0016,-0.012 -0.0026,-0.0212 -0.002,-0.0183 -0.0039,-0.0404 -0.0051,-0.0593 -6.05e-4,-0.01 -9.82e-4,-0.0177 -0.0011,-0.0236 -6.1e-5,-0.003 -5.1e-5,-0.005 -3e-6,-0.006 1.49e-4,-0.003 4.5e-5,0.002 -1.4e-4,0.004 0.0056,-0.25022 0.01516,-0.48018 0.02788,-0.69841 0.01616,-0.18853 0.03303,-0.36302 0.06457,-0.53403 0.03397,-0.1842 0.08218,-0.34706 0.152613,-0.4942 0.01386,-0.0289 0.03052,-0.0565 0.04893,-0.0809 0.0076,-0.0101 0.01546,-0.0196 0.0234,-0.0284 0.01229,-0.0135 0.02493,-0.0255 0.03771,-0.0356 0.02116,-0.0168 0.04201,-0.028 0.06145,-0.0341 0.019,-0.006 0.0384,-0.008 0.05935,-0.004 0.03616,0.007 0.07363,0.0199 0.110125,0.0384 0.03719,0.0188 0.07337,0.0431 0.108974,0.0716 0.07396,0.0593 0.141723,0.1341 0.20738,0.20933 0.161858,0.20114 0.270142,0.43621 0.345668,0.67486 0.08229,0.26003 0.128129,0.53329 0.160416,0.77849 0.06305,0.48889 0.07836,0.90107 0.102562,1.16749 a 0.1335602,0.1335602 90 0 0 0.266024,-0.0242 c -0.02369,-0.26082 -0.03774,-0.66948 -0.102924,-1.17786 -0.0329,-0.25092 -0.08103,-0.54242 -0.170305,-0.82485 -0.08214,-0.25988 -0.203615,-0.52777 -0.395763,-0.7664 -0.06901,-0.0793 -0.150606,-0.17056 -0.245222,-0.24634 -0.04673,-0.0374 -0.0985,-0.0727 -0.155743,-0.10159 -0.0566,-0.0286 -0.11871,-0.0511 -0.186581,-0.0633 -0.06712,-0.0105 -0.128553,-0.004 -0.185195,0.0136 -0.05568,0.0178 -0.104751,0.0465 -0.146847,0.0801 -0.02534,0.0203 -0.04848,0.0425 -0.06942,0.0658 -0.01359,0.0151 -0.02653,0.0309 -0.03877,0.0474 -0.02931,0.0393 -0.05487,0.0823 -0.07571,0.12642 -0.08261,0.17361 -0.136289,0.36034 -0.172705,0.56098 -0.03356,0.18493 -0.05073,0.37079 -0.06656,0.56337 -0.01204,0.22509 -0.02043,0.45838 -0.02421,0.70249 -1.33e-4,-0.002 -1.99e-4,0.005 -1.74e-4,0.01 2.8e-5,0.005 1.93e-4,0.0106 4.15e-4,0.0157 4.42e-4,0.0102 0.0012,0.0216 0.0021,0.0331 0.0018,0.0227 0.0045,0.0487 0.0072,0.0709 0.0014,0.0109 0.0029,0.0217 0.0045,0.0312 7.83e-4,0.005 0.0017,0.01 0.0028,0.015 5.54e-4,0.003 0.0013,0.006 0.0022,0.009 8.01e-4,0.003 0.0022,0.008 0.0044,0.0141 0.0011,0.003 0.0028,0.007 0.0052,0.0125 0.0022,0.005 0.0065,0.0131 0.01367,0.0225 0.0037,0.005 0.0092,0.0115 0.01687,0.0184 0.0075,0.007 0.01898,0.0155 0.03459,0.0223 0.01624,0.007 0.03662,0.0119 0.05961,0.0104 0.02305,-0.001 0.04287,-0.009 0.05843,-0.0184 0.01492,-0.009 0.02529,-0.0195 0.03199,-0.0276 0.0068,-0.008 0.01136,-0.0157 0.01436,-0.0212 0.0058,-0.0107 0.0088,-0.02 0.01028,-0.0249 0.0016,-0.006 0.0026,-0.0102 0.0032,-0.0134 6.34e-4,-0.003 0.0011,-0.006 0.0014,-0.009 5.84e-4,-0.005 8.98e-4,-0.009 0.0011,-0.0118 1.97e-4,-0.003 3.15e-4,-0.006 3.89e-4,-0.01 1.12e-4,-0.005 1.41e-4,-0.01 1.11e-4,-0.0148 0.01671,-0.24079 -0.02322,-0.47554 -0.06178,-0.69838 -0.04571,-0.38513 -0.192183,-0.7533 -0.380907,-1.08651 -0.05348,-0.0928 -0.117295,-0.2037 -0.199241,-0.2983 -0.04182,-0.0483 -0.08968,-0.094 -0.145249,-0.13203 -0.05625,-0.0385 -0.119775,-0.0688 -0.191597,-0.0862 -0.07116,-0.0138 -0.135578,-0.0148 -0.197464,-0.007 -0.06237,0.007 -0.122174,0.0231 -0.178333,0.044 -0.113775,0.0423 -0.216442,0.10722 -0.301503,0.17374 -0.136969,0.1214 -0.243778,0.256 -0.331322,0.39577 -0.09123,0.14565 -0.162953,0.29918 -0.219966,0.44808 -0.12185,0.33028 -0.167206,0.66618 -0.176805,0.98476 -0.01025,0.34004 0.02019,0.68043 0.05395,0.98136 5.38e-4,0.004 8.68e-4,0.006 0.0012,0.009 3.86e-4,0.003 8.3e-4,0.006 0.0013,0.0104 9.88e-4,0.008 0.0021,0.018 0.0033,0.0283 0.0026,0.0222 0.0052,0.0455 0.0077,0.0653 0.0013,0.0102 0.0025,0.0196 0.0037,0.0273 5.91e-4,0.004 0.0013,0.008 0.0021,0.0123 3.92e-4,0.002 9.59e-4,0.005 0.0017,0.008 3.82e-4,0.002 9.26e-4,0.004 0.0016,0.006 6.55e-4,0.002 0.0019,0.006 0.0037,0.011 9.56e-4,0.002 0.0024,0.006 0.0044,0.01 0.0019,0.004 0.0052,0.01 0.01023,0.0166 0.0026,0.004 0.0062,0.008 0.01092,0.0127 0.0047,0.005 0.01124,0.0105 0.01991,0.0159 0.0088,0.006 0.02049,0.0112 0.03501,0.0146 0.01494,0.003 0.03116,0.004 0.04756,7.3e-4 0.01621,-0.003 0.02977,-0.01 0.04042,-0.0166 0.01043,-0.007 0.01807,-0.0144 0.0234,-0.0206 0.01015,-0.0118 0.01558,-0.023 0.01811,-0.0287 0.0028,-0.006 0.0045,-0.012 0.0055,-0.0155 0.001,-0.004 0.0017,-0.007 0.0021,-0.009 8.58e-4,-0.005 0.0013,-0.008 0.0015,-0.0105 2.47e-4,-0.002 3.89e-4,-0.005 4.77e-4,-0.006 1.75e-4,-0.003 2.26e-4,-0.006 2.41e-4,-0.009 3e-5,-0.005 -8e-5,-0.01 -2.38e-4,-0.0153 -1.69e-4,-0.006 -4.24e-4,-0.0121 -7.5e-4,-0.0194 -0.0054,-0.0483 -0.0096,-0.087 -0.01314,-0.12436 -0.02801,-0.2919 -0.03308,-0.61895 -0.03986,-0.85952 -0.0413,-0.87979 -0.04077,-1.56567 -0.06681,-1.9563 a 0.11297386,0.11297386 90 0 0 -0.225448,0.015 z"
       id="path-1"
       inkscape:path-effect="#path-effect1223;#path-effect1225"
       inkscape:original-d="m -16.979055,151.29544 c 0.02789,0.38088 0.03158,0.76222 0.04168,1.14375 0.0051,0.19469 0.0098,0.4209 0.0185,0.62134 0.01229,0.28469 0.01396,0.56985 0.03004,0.85437 0.0027,0.0488 0.01604,0.17241 0.02,0.21712 0.0034,0.0385 0.0077,0.0767 0.01039,0.11522 7.4e-4,0.011 7.82e-4,0.0438 -5.39e-4,0.0329 -0.103412,-0.86443 -0.172055,-1.77372 0.33333,-2.5362 0.102157,-0.15413 0.232807,-0.31866 0.398883,-0.4118 0.498378,-0.27948 0.71814,-0.009 0.935536,0.39217 0.160346,0.2958 0.281354,0.5905 0.330926,0.92463 0.02677,0.1805 0.06499,0.36883 0.07391,0.55103 0.003,0.0626 -0.0021,0.12519 -0.0031,0.18779 -3.14e-4,0.0192 0.0026,0.0763 -9.41e-4,0.0575 -0.0326,-0.17243 -0.0074,-0.36329 -0.0045,-0.53697 0.0076,-0.46358 0.103501,-2.32879 1.016278,-1.41248 0.676095,0.6787 0.662694,1.92708 0.745384,2.81331"
       style="fill:#000000;fill-rule:nonzero;stroke:none;stroke-width:1.02599" />
  </g>
</svg>
