<?xml version="1.0" encoding="UTF-8" standalone="no"?>
<!-- Created with Inkscape (http://www.inkscape.org/) -->

<svg
   width="4mm"
   height="10mm"
   viewBox="0 0 4.0000001 9.9999994"
   version="1.1"
   id="svg1681"
   inkscape:version="1.2.1 (9c6d41e410, 2022-07-14)"
   sodipodi:docname="lower_g_3.svg"
   inkscape:export-filename="..\..\..\..\Downloads\lower a diff canvas resize 3.0.png"
   inkscape:export-xdpi="96"
   inkscape:export-ydpi="96"
   xmlns:inkscape="http://www.inkscape.org/namespaces/inkscape"
   xmlns:sodipodi="http://sodipodi.sourceforge.net/DTD/sodipodi-0.dtd"
   xmlns="http://www.w3.org/2000/svg"
   xmlns:svg="http://www.w3.org/2000/svg"
   xmlns:rdf="http://www.w3.org/1999/02/22-rdf-syntax-ns#"
   xmlns:cc="http://creativecommons.org/ns#"
   xmlns:dc="http://purl.org/dc/elements/1.1/">
  <defs
     id="defs1675">
    <inkscape:path-effect
       effect="powerstroke"
       id="path-effect2404"
       is_visible="true"
       lpeversion="1"
       offset_points="2.0477023,0.10742003 | 5.7600132,0.081972007 | 7.3572373,0.10766473"
       not_jump="true"
       sort_points="true"
       interpolator_type="CentripetalCatmullRom"
       interpolator_beta="0.75"
       start_linecap_type="round"
       linejoin_type="spiro"
       miter_limit="4"
       scale_width="1"
       end_linecap_type="round" />
    <inkscape:path-effect
       effect="simplify"
       id="path-effect2402"
       is_visible="true"
       lpeversion="1"
       steps="1"
       threshold="0.0047745358"
       smooth_angles="0"
       helper_size="0"
       simplify_individual_paths="false"
       simplify_just_coalesce="false"
       step="1" />
    <inkscape:path-effect
       effect="powerstroke"
       id="path-effect945"
       is_visible="true"
       lpeversion="1"
       offset_points="2.7826101,0.12259097 | 9.9263246,0.14290045"
       not_jump="true"
       sort_points="true"
       interpolator_type="CentripetalCatmullRom"
       interpolator_beta="0.75"
       start_linecap_type="round"
       linejoin_type="spiro"
       miter_limit="4"
       scale_width="1"
       end_linecap_type="round" />
    <inkscape:path-effect
       effect="simplify"
       id="path-effect943"
       is_visible="true"
       lpeversion="1"
       steps="1"
       threshold="0.0047745358"
       smooth_angles="0"
       helper_size="0"
       simplify_individual_paths="false"
       simplify_just_coalesce="false"
       step="1" />
    <inkscape:path-effect
       effect="powerstroke"
       id="path-effect391"
       is_visible="true"
       lpeversion="1"
       offset_points="2.4124338,0.12528259"
       not_jump="true"
       sort_points="true"
       interpolator_type="CentripetalCatmullRom"
       interpolator_beta="0.75"
       start_linecap_type="round"
       linejoin_type="spiro"
       miter_limit="4"
       scale_width="1"
       end_linecap_type="round" />
    <inkscape:path-effect
       effect="simplify"
       id="path-effect389"
       is_visible="true"
       lpeversion="1"
       steps="1"
       threshold="0.0047745358"
       smooth_angles="0"
       helper_size="0"
       simplify_individual_paths="false"
       simplify_just_coalesce="false"
       step="1" />
    <inkscape:path-effect
       effect="powerstroke"
       id="path-effect384"
       is_visible="true"
       lpeversion="1"
       offset_points="1.6679666,0.12308036 | 3.0673939,0.13678314 | 6.685264,0.12259097 | 10.959936,0.17568926"
       not_jump="true"
       sort_points="true"
       interpolator_type="CentripetalCatmullRom"
       interpolator_beta="0.75"
       start_linecap_type="round"
       linejoin_type="spiro"
       miter_limit="4"
       scale_width="1"
       end_linecap_type="round" />
    <inkscape:path-effect
       effect="simplify"
       id="path-effect382"
       is_visible="true"
       lpeversion="1"
       steps="1"
       threshold="0.0047745358"
       smooth_angles="0"
       helper_size="0"
       simplify_individual_paths="false"
       simplify_just_coalesce="false"
       step="1" />
    <inkscape:path-effect
       effect="powerstroke"
       id="path-effect339"
       is_visible="true"
       lpeversion="1"
       offset_points="2.475381,0.18351942 | 6.319337,0.14926246 | 12.59631,0.19673282"
       not_jump="true"
       sort_points="true"
       interpolator_type="CentripetalCatmullRom"
       interpolator_beta="0.75"
       start_linecap_type="round"
       linejoin_type="spiro"
       miter_limit="4"
       scale_width="1"
       end_linecap_type="round" />
    <inkscape:path-effect
       effect="simplify"
       id="path-effect337"
       is_visible="true"
       lpeversion="1"
       steps="1"
       threshold="0.0047745358"
       smooth_angles="0"
       helper_size="0"
       simplify_individual_paths="false"
       simplify_just_coalesce="false"
       step="1" />
    <inkscape:path-effect
       effect="powerstroke"
       id="path-effect260"
       is_visible="true"
       lpeversion="1"
       offset_points="2.2247419,0.18303003 | 5.6341611,0.1610077 | 12.393695,0.20285013"
       not_jump="true"
       sort_points="true"
       interpolator_type="CentripetalCatmullRom"
       interpolator_beta="0.75"
       start_linecap_type="round"
       linejoin_type="spiro"
       miter_limit="4"
       scale_width="1"
       end_linecap_type="round" />
    <inkscape:path-effect
       effect="simplify"
       id="path-effect258"
       is_visible="true"
       lpeversion="1"
       steps="1"
       threshold="0.0047745358"
       smooth_angles="0"
       helper_size="0"
       simplify_individual_paths="false"
       simplify_just_coalesce="false"
       step="1" />
    <inkscape:path-effect
       effect="powerstroke"
       id="path-effect1588"
       is_visible="true"
       lpeversion="1"
       offset_points="1.4884926,0.13227569 | 2.9293853,0.1075182 | 4.5609178,0.13274725"
       not_jump="true"
       sort_points="true"
       interpolator_type="CentripetalCatmullRom"
       interpolator_beta="0.75"
       start_linecap_type="round"
       linejoin_type="spiro"
       miter_limit="4"
       scale_width="1"
       end_linecap_type="round" />
    <inkscape:path-effect
       effect="simplify"
       id="path-effect1586"
       is_visible="true"
       lpeversion="1"
       steps="1"
       threshold="0.0035951417"
       smooth_angles="0"
       helper_size="0"
       simplify_individual_paths="false"
       simplify_just_coalesce="false"
       step="1" />
    <inkscape:path-effect
       effect="powerstroke"
       id="path-effect502"
       is_visible="true"
       lpeversion="1"
       offset_points="3.0091841,0.21607495 | 7.3602657,0.17554228 | 9.4159651,0.20236537"
       not_jump="true"
       sort_points="true"
       interpolator_type="CentripetalCatmullRom"
       interpolator_beta="0.75"
       start_linecap_type="round"
       linejoin_type="spiro"
       miter_limit="4"
       scale_width="1"
       end_linecap_type="round" />
    <inkscape:path-effect
       effect="simplify"
       id="path-effect500"
       is_visible="true"
       lpeversion="1"
       steps="1"
       threshold="0.0035951417"
       smooth_angles="0"
       helper_size="0"
       simplify_individual_paths="false"
       simplify_just_coalesce="false"
       step="1" />
    <inkscape:path-effect
       effect="powerstroke"
       id="path-effect241"
       is_visible="true"
       lpeversion="1"
       offset_points="2.6879454,0.34086734"
       not_jump="true"
       sort_points="true"
       interpolator_type="CentripetalCatmullRom"
       interpolator_beta="0.75"
       start_linecap_type="round"
       linejoin_type="spiro"
       miter_limit="4"
       scale_width="1"
       end_linecap_type="round" />
    <inkscape:path-effect
       effect="simplify"
       id="path-effect239"
       is_visible="true"
       lpeversion="1"
       steps="1"
       threshold="0.0028332064"
       smooth_angles="0"
       helper_size="0"
       simplify_individual_paths="false"
       simplify_just_coalesce="false"
       step="1" />
    <inkscape:path-effect
       effect="powerstroke"
       id="path-effect234"
       is_visible="true"
       lpeversion="1"
       offset_points="2.13563,0.075169555"
       not_jump="true"
       sort_points="true"
       interpolator_type="CentripetalCatmullRom"
       interpolator_beta="0.75"
       start_linecap_type="round"
       linejoin_type="spiro"
       miter_limit="4"
       scale_width="1"
       end_linecap_type="round" />
    <inkscape:path-effect
       effect="simplify"
       id="path-effect232"
       is_visible="true"
       lpeversion="1"
       steps="1"
       threshold="0.0028332064"
       smooth_angles="0"
       helper_size="0"
       simplify_individual_paths="false"
       simplify_just_coalesce="false"
       step="1" />
    <inkscape:path-effect
       effect="powerstroke"
       id="path-effect227"
       is_visible="true"
       lpeversion="1"
       offset_points="2.1868266,0.075169555"
       not_jump="true"
       sort_points="true"
       interpolator_type="CentripetalCatmullRom"
       interpolator_beta="0.75"
       start_linecap_type="round"
       linejoin_type="spiro"
       miter_limit="4"
       scale_width="1"
       end_linecap_type="round" />
    <inkscape:path-effect
       effect="simplify"
       id="path-effect225"
       is_visible="true"
       lpeversion="1"
       steps="1"
       threshold="0.0028332064"
       smooth_angles="0"
       helper_size="0"
       simplify_individual_paths="false"
       simplify_just_coalesce="false"
       step="1" />
    <inkscape:path-effect
       effect="powerstroke"
       id="path-effect166"
       is_visible="true"
       lpeversion="1"
       offset_points="1.9637935,0.075169555"
       not_jump="true"
       sort_points="true"
       interpolator_type="CentripetalCatmullRom"
       interpolator_beta="0.75"
       start_linecap_type="round"
       linejoin_type="spiro"
       miter_limit="4"
       scale_width="1"
       end_linecap_type="round" />
    <inkscape:path-effect
       effect="simplify"
       id="path-effect164"
       is_visible="true"
       lpeversion="1"
       steps="1"
       threshold="0.0028332064"
       smooth_angles="0"
       helper_size="0"
       simplify_individual_paths="false"
       simplify_just_coalesce="false"
       step="1" />
    <inkscape:path-effect
       effect="powerstroke"
       id="path-effect159"
       is_visible="true"
       lpeversion="1"
       offset_points="2.2611036,0.075169555"
       not_jump="true"
       sort_points="true"
       interpolator_type="CentripetalCatmullRom"
       interpolator_beta="0.75"
       start_linecap_type="round"
       linejoin_type="spiro"
       miter_limit="4"
       scale_width="1"
       end_linecap_type="round" />
    <inkscape:path-effect
       effect="simplify"
       id="path-effect157"
       is_visible="true"
       lpeversion="1"
       steps="1"
       threshold="0.0028332064"
       smooth_angles="0"
       helper_size="0"
       simplify_individual_paths="false"
       simplify_just_coalesce="false"
       step="1" />
    <inkscape:path-effect
       effect="powerstroke"
       id="path-effect152"
       is_visible="true"
       lpeversion="1"
       offset_points="2.826981,0.075169555"
       not_jump="true"
       sort_points="true"
       interpolator_type="CentripetalCatmullRom"
       interpolator_beta="0.75"
       start_linecap_type="round"
       linejoin_type="spiro"
       miter_limit="4"
       scale_width="1"
       end_linecap_type="round" />
    <inkscape:path-effect
       effect="simplify"
       id="path-effect150"
       is_visible="true"
       lpeversion="1"
       steps="1"
       threshold="0.0028332064"
       smooth_angles="0"
       helper_size="0"
       simplify_individual_paths="false"
       simplify_just_coalesce="false"
       step="1" />
    <inkscape:path-effect
       effect="powerstroke"
       id="path-effect145"
       is_visible="true"
       lpeversion="1"
       offset_points="3.8374447,0.075169555"
       not_jump="true"
       sort_points="true"
       interpolator_type="CentripetalCatmullRom"
       interpolator_beta="0.75"
       start_linecap_type="round"
       linejoin_type="spiro"
       miter_limit="4"
       scale_width="1"
       end_linecap_type="round" />
    <inkscape:path-effect
       effect="simplify"
       id="path-effect143"
       is_visible="true"
       lpeversion="1"
       steps="1"
       threshold="0.0028332064"
       smooth_angles="0"
       helper_size="0"
       simplify_individual_paths="false"
       simplify_just_coalesce="false"
       step="1" />
    <inkscape:path-effect
       effect="powerstroke"
       id="path-effect138"
       is_visible="true"
       lpeversion="1"
       offset_points="2.6880907,0.075169555"
       not_jump="true"
       sort_points="true"
       interpolator_type="CentripetalCatmullRom"
       interpolator_beta="0.75"
       start_linecap_type="round"
       linejoin_type="spiro"
       miter_limit="4"
       scale_width="1"
       end_linecap_type="round" />
    <inkscape:path-effect
       effect="simplify"
       id="path-effect136"
       is_visible="true"
       lpeversion="1"
       steps="1"
       threshold="0.0028332064"
       smooth_angles="0"
       helper_size="0"
       simplify_individual_paths="false"
       simplify_just_coalesce="false"
       step="1" />
    <inkscape:path-effect
       effect="powerstroke"
       id="path-effect131"
       is_visible="true"
       lpeversion="1"
       offset_points="1.9940581,0.075169555"
       not_jump="true"
       sort_points="true"
       interpolator_type="CentripetalCatmullRom"
       interpolator_beta="0.75"
       start_linecap_type="round"
       linejoin_type="spiro"
       miter_limit="4"
       scale_width="1"
       end_linecap_type="round" />
    <inkscape:path-effect
       effect="simplify"
       id="path-effect129"
       is_visible="true"
       lpeversion="1"
       steps="1"
       threshold="0.0028332064"
       smooth_angles="0"
       helper_size="0"
       simplify_individual_paths="false"
       simplify_just_coalesce="false"
       step="1" />
  </defs>
  <sodipodi:namedview
     id="base"
     pagecolor="#ffffff"
     bordercolor="#666666"
     borderopacity="1.0"
     inkscape:pageopacity="0.0"
     inkscape:pageshadow="2"
     inkscape:zoom="15.839192"
     inkscape:cx="2.9988903"
     inkscape:cy="18.24588"
     inkscape:document-units="mm"
     inkscape:current-layer="layer1"
     showgrid="false"
     fit-margin-top="0"
     fit-margin-left="0"
     fit-margin-right="0"
     fit-margin-bottom="0"
     inkscape:window-width="1920"
     inkscape:window-height="1057"
     inkscape:window-x="1072"
     inkscape:window-y="321"
     inkscape:window-maximized="1"
     showguides="true"
     inkscape:guide-bbox="true"
     inkscape:snap-bbox="true"
     inkscape:bbox-nodes="true"
     inkscape:snap-nodes="false"
     inkscape:snap-others="false"
     inkscape:snap-page="true"
     inkscape:snap-grids="false"
     inkscape:snap-to-guides="false"
     inkscape:snap-global="false"
     inkscape:pagecheckerboard="0"
     inkscape:showpageshadow="2"
     inkscape:deskcolor="#d1d1d1">
    <sodipodi:guide
       position="-6.1806076,9.4988693"
       orientation="0,1"
       id="guide816"
       inkscape:locked="false" />
    <sodipodi:guide
       position="-4.4101636,10.646923"
       orientation="0,1"
       id="guide818"
       inkscape:locked="false" />
    <sodipodi:guide
       position="2.7595724,11.09577"
       orientation="1,0"
       id="guide820"
       inkscape:locked="false" />
    <sodipodi:guide
       position="3.6572659,10.942217"
       orientation="1,0"
       id="guide822"
       inkscape:locked="false" />
    <sodipodi:guide
       position="-0.051625511,9.74923"
       orientation="1,0"
       id="guide1853"
       inkscape:locked="false" />
    <sodipodi:guide
       position="-2.3720169,3.0175835"
       orientation="0,1"
       id="guide1855"
       inkscape:locked="false" />
  </sodipodi:namedview>
  <metadata
     id="metadata1678">
    <rdf:RDF>
      <cc:Work
         rdf:about="">
        <dc:format>image/svg+xml</dc:format>
        <dc:type
           rdf:resource="http://purl.org/dc/dcmitype/StillImage" />
      </cc:Work>
    </rdf:RDF>
  </metadata>
  <g
     inkscape:label="Layer 1"
     inkscape:groupmode="layer"
     id="layer1"
     transform="translate(17.028496,-147.22856)">
    <path
       d="m -14.253624,150.45041 c -0.118772,-0.0807 -0.311445,-0.17443 -0.574963,-0.18475 -0.183271,-0.007 -0.389855,0.0278 -0.586747,0.12527 -0.268405,0.13033 -0.506737,0.31883 -0.713598,0.54838 -0.203302,0.2256 -0.368108,0.48185 -0.49795,0.74044 -0.0087,0.0169 -0.01751,0.0348 -0.026,0.0528 -0.0759,0.16044 -0.132166,0.33917 -0.165133,0.53485 -0.03291,0.19535 -0.0415,0.40125 -0.02641,0.61167 0.0087,0.11322 0.03673,0.23112 0.09036,0.33904 0.05279,0.10624 0.130048,0.202 0.235577,0.27186 0.06614,0.0556 0.147543,0.10235 0.23267,0.13585 0.08622,0.0339 0.176029,0.0542 0.265701,0.0626 0.186531,0.0175 0.371866,-0.016 0.531718,-0.0844 0.251712,-0.10481 0.465454,-0.2577 0.63776,-0.42444 0.100779,-0.0975 0.187682,-0.2 0.261729,-0.30214 0.07772,-0.10721 0.140928,-0.21349 0.191956,-0.3139 0.204404,-0.40932 0.33626,-0.87393 0.335264,-1.35591 5.25e-4,-0.0493 0.0042,-0.16201 0.0021,-0.24071 -8.38e-4,-0.0319 -0.0026,-0.067 -0.0061,-0.10334 -0.0055,-0.0561 -0.01575,-0.12012 -0.03661,-0.18483 -0.01884,-0.0585 -0.04711,-0.12008 -0.09079,-0.17902 -0.0042,-0.006 -0.0087,-0.0113 -0.01394,-0.0161 -0.0053,-0.005 -0.0113,-0.009 -0.01735,-0.0123 -0.01072,-0.007 -0.02571,-0.0147 -0.0436,-0.0198 -0.0092,-0.003 -0.02102,-0.005 -0.03475,-0.005 -0.01387,-2.4e-4 -0.03074,0.002 -0.04787,0.009 -0.01765,0.007 -0.03301,0.018 -0.04522,0.0316 -0.01175,0.0131 -0.01901,0.0269 -0.02351,0.0387 -0.0044,0.0116 -0.0066,0.0223 -0.0077,0.0308 -0.0011,0.009 -0.0014,0.0165 -0.0013,0.0231 1.89e-4,0.0129 0.0018,0.025 0.0035,0.035 0.0018,0.0102 0.0041,0.0204 0.0065,0.0301 0.0048,0.0189 0.01102,0.0392 0.01727,0.0589 0.0062,0.0196 0.01278,0.0396 0.01885,0.0591 0.006,0.0192 0.01132,0.0373 0.01539,0.0536 0.0041,0.0164 0.0063,0.0285 0.007,0.0366 3.23e-4,0.004 2.06e-4,0.006 2.34e-4,0.005 2.8e-5,-7.3e-4 8.5e-5,-0.004 0.0025,-0.0115 l -0.0049,0.0521 c 0.117391,0.83359 0.186772,1.70475 0.202525,2.61288 0.01104,0.47285 0.01809,0.95159 -0.01292,1.42462 -0.03101,0.47293 -0.0998,0.93615 -0.238234,1.38315 -0.05647,0.16009 -0.12383,0.32086 -0.21317,0.45995 -0.04531,0.0705 -0.09531,0.13394 -0.151128,0.18861 -0.05692,0.0557 -0.119642,0.10218 -0.189428,0.13798 -0.06867,0.0328 -0.142396,0.0508 -0.216293,0.0563 -0.07672,0.006 -0.154321,-0.002 -0.230227,-0.0196 -0.162963,-0.0379 -0.316011,-0.12165 -0.435976,-0.2147 -0.217541,-0.16128 -0.384059,-0.35416 -0.473421,-0.4632 a 0.10766473,0.10766473 90 0 0 -0.166546,0.13648 c 0.09212,0.11241 0.271592,0.32286 0.50811,0.49987 0.136447,0.10654 0.316549,0.20756 0.517769,0.25504 0.09408,0.0222 0.194117,0.0329 0.296288,0.0256 0.09889,-0.007 0.199737,-0.0311 0.298076,-0.0778 0.0942,-0.0479 0.174964,-0.10777 0.246491,-0.17743 0.06989,-0.0681 0.130314,-0.14487 0.183214,-0.22675 0.103433,-0.1601 0.177992,-0.33942 0.238509,-0.50999 0.14687,-0.47259 0.218135,-0.95415 0.250218,-1.43879 0.03204,-0.48396 0.02494,-0.97156 0.01408,-1.44393 -0.01541,-0.90949 -0.08451,-1.78361 -0.202006,-2.62068 6.96e-4,-0.005 0.0011,-0.0102 0.0014,-0.0148 8.25e-4,-0.0141 2.18e-4,-0.0276 -9.54e-4,-0.0397 -0.0023,-0.0242 -0.0075,-0.0486 -0.01306,-0.0703 -0.0057,-0.0225 -0.01263,-0.0453 -0.01924,-0.0661 -0.0068,-0.0215 -0.01367,-0.042 -0.01955,-0.0601 -0.0062,-0.0191 -0.01088,-0.0342 -0.01413,-0.0464 -0.0016,-0.006 -0.0026,-0.0104 -0.0032,-0.0133 -6.11e-4,-0.003 -3.86e-4,-0.003 -3.72e-4,1.4e-4 8e-6,0.002 -4.5e-5,0.005 -6.42e-4,0.009 -5.89e-4,0.004 -0.0019,0.0114 -0.0051,0.0198 -0.0033,0.009 -0.009,0.0197 -0.01878,0.0306 -0.01026,0.0114 -0.02328,0.0207 -0.0382,0.0267 -0.01438,0.006 -0.0281,0.007 -0.03839,0.007 -0.01013,-1.8e-4 -0.01794,-0.002 -0.02264,-0.003 -0.01014,-0.003 -0.01188,-0.005 -0.01081,-0.004 l -0.03129,-0.0284 c 0.02712,0.0358 0.04597,0.0747 0.05955,0.11485 0.0152,0.045 0.02404,0.0925 0.02951,0.13916 0.0035,0.0299 0.0057,0.0598 0.0071,0.0884 0.0043,0.0851 0.0035,0.16429 0.0063,0.23555 0.01135,0.44583 -0.09045,0.8851 -0.278832,1.27868 -0.04553,0.0931 -0.103014,0.19234 -0.17459,0.29237 -0.06818,0.0953 -0.148581,0.19056 -0.241976,0.28088 -0.159884,0.15462 -0.357363,0.29405 -0.588404,0.38825 -0.137162,0.0569 -0.294582,0.0827 -0.450334,0.0655 -0.07458,-0.008 -0.14783,-0.0263 -0.21689,-0.0549 -0.06809,-0.0282 -0.131936,-0.0667 -0.188981,-0.11604 -0.08096,-0.0576 -0.135302,-0.12844 -0.172677,-0.21012 -0.03827,-0.0836 -0.05798,-0.17698 -0.06227,-0.26887 -0.01096,-0.19618 -5.4e-5,-0.38548 0.03209,-0.56282 0.03217,-0.17746 0.08446,-0.33696 0.152437,-0.47851 0.0076,-0.0159 0.0155,-0.0316 0.02368,-0.0474 0.124339,-0.24537 0.279276,-0.48444 0.467477,-0.69289 0.191227,-0.2118 0.407689,-0.38193 0.648093,-0.49888 0.162296,-0.0806 0.332416,-0.10978 0.482897,-0.10427 0.214927,0.008 0.369484,0.0834 0.462386,0.14657 a 0.10742003,0.10742003 90 0 0 0.120776,-0.17768 z"
       id="path-1"
       inkscape:path-effect="#path-effect2402;#path-effect2404"
       inkscape:original-d="m -14.314012,150.53925 c -1.000177,-0.63652 -2.108785,0.68049 -2.360032,1.55528 -0.04732,0.16476 -0.06102,0.33805 -0.07307,0.50904 -0.01469,0.20833 0.0045,0.53309 0.159969,0.6998 0.712108,0.76387 1.778835,-0.0642 2.115141,-0.77725 0.185756,-0.39384 0.29323,-0.76449 0.30315,-1.19497 0.0037,-0.15979 0.03893,-0.67177 -0.145156,-0.7919 -0.04368,-0.0285 0.02599,0.10116 0.03456,0.1526 0.04208,0.25248 0.06976,0.51111 0.100721,0.76531 0.07574,0.62194 0.110387,1.24825 0.127382,1.87434 0.02564,0.94461 0.04349,1.9148 -0.197492,2.83657 -0.09643,0.36885 -0.323252,0.91487 -0.719859,1.05817 -0.567943,0.20521 -1.111676,-0.29845 -1.434781,-0.69402"
       style="fill:#000000;fill-rule:nonzero;stroke:none" />
  </g>
</svg>
