<?xml version="1.0" encoding="UTF-8" standalone="no"?>
<!-- Created with Inkscape (http://www.inkscape.org/) -->

<svg
   width="4mm"
   height="10mm"
   viewBox="0 0 4.0000001 9.9999994"
   version="1.1"
   id="svg1681"
   inkscape:version="1.2.1 (9c6d41e410, 2022-07-14)"
   sodipodi:docname="lower_g_4.svg"
   inkscape:export-filename="..\..\..\..\Downloads\lower a diff canvas resize 3.0.png"
   inkscape:export-xdpi="96"
   inkscape:export-ydpi="96"
   xmlns:inkscape="http://www.inkscape.org/namespaces/inkscape"
   xmlns:sodipodi="http://sodipodi.sourceforge.net/DTD/sodipodi-0.dtd"
   xmlns="http://www.w3.org/2000/svg"
   xmlns:svg="http://www.w3.org/2000/svg"
   xmlns:rdf="http://www.w3.org/1999/02/22-rdf-syntax-ns#"
   xmlns:cc="http://creativecommons.org/ns#"
   xmlns:dc="http://purl.org/dc/elements/1.1/">
  <defs
     id="defs1675">
    <inkscape:path-effect
       effect="powerstroke"
       id="path-effect6477"
       is_visible="true"
       lpeversion="1"
       offset_points="2.4548173,0.10301557 | 5.098042,0.11794181 | 9.2994586,0.10032395 | 9.4705515,0.11451612"
       not_jump="true"
       sort_points="true"
       interpolator_type="CentripetalCatmullRom"
       interpolator_beta="0.75"
       start_linecap_type="round"
       linejoin_type="spiro"
       miter_limit="4"
       scale_width="1"
       end_linecap_type="round" />
    <inkscape:path-effect
       effect="simplify"
       id="path-effect6475"
       is_visible="true"
       lpeversion="1"
       steps="1"
       threshold="0.0047745358"
       smooth_angles="0"
       helper_size="0"
       simplify_individual_paths="false"
       simplify_just_coalesce="false"
       step="1" />
    <inkscape:path-effect
       effect="powerstroke"
       id="path-effect440"
       is_visible="true"
       lpeversion="1"
       offset_points="2.8746672,0.13727253 | 5.554683,0.12063343 | 11.383844,0.18351942"
       not_jump="true"
       sort_points="true"
       interpolator_type="CentripetalCatmullRom"
       interpolator_beta="0.75"
       start_linecap_type="round"
       linejoin_type="spiro"
       miter_limit="4"
       scale_width="1"
       end_linecap_type="round" />
    <inkscape:path-effect
       effect="simplify"
       id="path-effect438"
       is_visible="true"
       lpeversion="1"
       steps="1"
       threshold="0.0047745358"
       smooth_angles="0"
       helper_size="0"
       simplify_individual_paths="false"
       simplify_just_coalesce="false"
       step="1" />
    <inkscape:path-effect
       effect="powerstroke"
       id="path-effect391"
       is_visible="true"
       lpeversion="1"
       offset_points="2.4124338,0.12528259"
       not_jump="true"
       sort_points="true"
       interpolator_type="CentripetalCatmullRom"
       interpolator_beta="0.75"
       start_linecap_type="round"
       linejoin_type="spiro"
       miter_limit="4"
       scale_width="1"
       end_linecap_type="round" />
    <inkscape:path-effect
       effect="simplify"
       id="path-effect389"
       is_visible="true"
       lpeversion="1"
       steps="1"
       threshold="0.0047745358"
       smooth_angles="0"
       helper_size="0"
       simplify_individual_paths="false"
       simplify_just_coalesce="false"
       step="1" />
    <inkscape:path-effect
       effect="powerstroke"
       id="path-effect384"
       is_visible="true"
       lpeversion="1"
       offset_points="1.6679666,0.12308036 | 3.0673939,0.13678314 | 6.685264,0.12259097 | 10.959936,0.17568926"
       not_jump="true"
       sort_points="true"
       interpolator_type="CentripetalCatmullRom"
       interpolator_beta="0.75"
       start_linecap_type="round"
       linejoin_type="spiro"
       miter_limit="4"
       scale_width="1"
       end_linecap_type="round" />
    <inkscape:path-effect
       effect="simplify"
       id="path-effect382"
       is_visible="true"
       lpeversion="1"
       steps="1"
       threshold="0.0047745358"
       smooth_angles="0"
       helper_size="0"
       simplify_individual_paths="false"
       simplify_just_coalesce="false"
       step="1" />
    <inkscape:path-effect
       effect="powerstroke"
       id="path-effect339"
       is_visible="true"
       lpeversion="1"
       offset_points="2.475381,0.18351942 | 6.319337,0.14926246 | 12.59631,0.19673282"
       not_jump="true"
       sort_points="true"
       interpolator_type="CentripetalCatmullRom"
       interpolator_beta="0.75"
       start_linecap_type="round"
       linejoin_type="spiro"
       miter_limit="4"
       scale_width="1"
       end_linecap_type="round" />
    <inkscape:path-effect
       effect="simplify"
       id="path-effect337"
       is_visible="true"
       lpeversion="1"
       steps="1"
       threshold="0.0047745358"
       smooth_angles="0"
       helper_size="0"
       simplify_individual_paths="false"
       simplify_just_coalesce="false"
       step="1" />
    <inkscape:path-effect
       effect="powerstroke"
       id="path-effect260"
       is_visible="true"
       lpeversion="1"
       offset_points="2.2247419,0.18303003 | 5.6341611,0.1610077 | 12.393695,0.20285013"
       not_jump="true"
       sort_points="true"
       interpolator_type="CentripetalCatmullRom"
       interpolator_beta="0.75"
       start_linecap_type="round"
       linejoin_type="spiro"
       miter_limit="4"
       scale_width="1"
       end_linecap_type="round" />
    <inkscape:path-effect
       effect="simplify"
       id="path-effect258"
       is_visible="true"
       lpeversion="1"
       steps="1"
       threshold="0.0047745358"
       smooth_angles="0"
       helper_size="0"
       simplify_individual_paths="false"
       simplify_just_coalesce="false"
       step="1" />
    <inkscape:path-effect
       effect="powerstroke"
       id="path-effect1588"
       is_visible="true"
       lpeversion="1"
       offset_points="1.4884926,0.13227569 | 2.9293853,0.1075182 | 4.5609178,0.13274725"
       not_jump="true"
       sort_points="true"
       interpolator_type="CentripetalCatmullRom"
       interpolator_beta="0.75"
       start_linecap_type="round"
       linejoin_type="spiro"
       miter_limit="4"
       scale_width="1"
       end_linecap_type="round" />
    <inkscape:path-effect
       effect="simplify"
       id="path-effect1586"
       is_visible="true"
       lpeversion="1"
       steps="1"
       threshold="0.0035951417"
       smooth_angles="0"
       helper_size="0"
       simplify_individual_paths="false"
       simplify_just_coalesce="false"
       step="1" />
    <inkscape:path-effect
       effect="powerstroke"
       id="path-effect502"
       is_visible="true"
       lpeversion="1"
       offset_points="3.0091841,0.21607495 | 7.3602657,0.17554228 | 9.4159651,0.20236537"
       not_jump="true"
       sort_points="true"
       interpolator_type="CentripetalCatmullRom"
       interpolator_beta="0.75"
       start_linecap_type="round"
       linejoin_type="spiro"
       miter_limit="4"
       scale_width="1"
       end_linecap_type="round" />
    <inkscape:path-effect
       effect="simplify"
       id="path-effect500"
       is_visible="true"
       lpeversion="1"
       steps="1"
       threshold="0.0035951417"
       smooth_angles="0"
       helper_size="0"
       simplify_individual_paths="false"
       simplify_just_coalesce="false"
       step="1" />
    <inkscape:path-effect
       effect="powerstroke"
       id="path-effect241"
       is_visible="true"
       lpeversion="1"
       offset_points="2.6879454,0.34086734"
       not_jump="true"
       sort_points="true"
       interpolator_type="CentripetalCatmullRom"
       interpolator_beta="0.75"
       start_linecap_type="round"
       linejoin_type="spiro"
       miter_limit="4"
       scale_width="1"
       end_linecap_type="round" />
    <inkscape:path-effect
       effect="simplify"
       id="path-effect239"
       is_visible="true"
       lpeversion="1"
       steps="1"
       threshold="0.0028332064"
       smooth_angles="0"
       helper_size="0"
       simplify_individual_paths="false"
       simplify_just_coalesce="false"
       step="1" />
    <inkscape:path-effect
       effect="powerstroke"
       id="path-effect234"
       is_visible="true"
       lpeversion="1"
       offset_points="2.13563,0.075169555"
       not_jump="true"
       sort_points="true"
       interpolator_type="CentripetalCatmullRom"
       interpolator_beta="0.75"
       start_linecap_type="round"
       linejoin_type="spiro"
       miter_limit="4"
       scale_width="1"
       end_linecap_type="round" />
    <inkscape:path-effect
       effect="simplify"
       id="path-effect232"
       is_visible="true"
       lpeversion="1"
       steps="1"
       threshold="0.0028332064"
       smooth_angles="0"
       helper_size="0"
       simplify_individual_paths="false"
       simplify_just_coalesce="false"
       step="1" />
    <inkscape:path-effect
       effect="powerstroke"
       id="path-effect227"
       is_visible="true"
       lpeversion="1"
       offset_points="2.1868266,0.075169555"
       not_jump="true"
       sort_points="true"
       interpolator_type="CentripetalCatmullRom"
       interpolator_beta="0.75"
       start_linecap_type="round"
       linejoin_type="spiro"
       miter_limit="4"
       scale_width="1"
       end_linecap_type="round" />
    <inkscape:path-effect
       effect="simplify"
       id="path-effect225"
       is_visible="true"
       lpeversion="1"
       steps="1"
       threshold="0.0028332064"
       smooth_angles="0"
       helper_size="0"
       simplify_individual_paths="false"
       simplify_just_coalesce="false"
       step="1" />
    <inkscape:path-effect
       effect="powerstroke"
       id="path-effect166"
       is_visible="true"
       lpeversion="1"
       offset_points="1.9637935,0.075169555"
       not_jump="true"
       sort_points="true"
       interpolator_type="CentripetalCatmullRom"
       interpolator_beta="0.75"
       start_linecap_type="round"
       linejoin_type="spiro"
       miter_limit="4"
       scale_width="1"
       end_linecap_type="round" />
    <inkscape:path-effect
       effect="simplify"
       id="path-effect164"
       is_visible="true"
       lpeversion="1"
       steps="1"
       threshold="0.0028332064"
       smooth_angles="0"
       helper_size="0"
       simplify_individual_paths="false"
       simplify_just_coalesce="false"
       step="1" />
    <inkscape:path-effect
       effect="powerstroke"
       id="path-effect159"
       is_visible="true"
       lpeversion="1"
       offset_points="2.2611036,0.075169555"
       not_jump="true"
       sort_points="true"
       interpolator_type="CentripetalCatmullRom"
       interpolator_beta="0.75"
       start_linecap_type="round"
       linejoin_type="spiro"
       miter_limit="4"
       scale_width="1"
       end_linecap_type="round" />
    <inkscape:path-effect
       effect="simplify"
       id="path-effect157"
       is_visible="true"
       lpeversion="1"
       steps="1"
       threshold="0.0028332064"
       smooth_angles="0"
       helper_size="0"
       simplify_individual_paths="false"
       simplify_just_coalesce="false"
       step="1" />
    <inkscape:path-effect
       effect="powerstroke"
       id="path-effect152"
       is_visible="true"
       lpeversion="1"
       offset_points="2.826981,0.075169555"
       not_jump="true"
       sort_points="true"
       interpolator_type="CentripetalCatmullRom"
       interpolator_beta="0.75"
       start_linecap_type="round"
       linejoin_type="spiro"
       miter_limit="4"
       scale_width="1"
       end_linecap_type="round" />
    <inkscape:path-effect
       effect="simplify"
       id="path-effect150"
       is_visible="true"
       lpeversion="1"
       steps="1"
       threshold="0.0028332064"
       smooth_angles="0"
       helper_size="0"
       simplify_individual_paths="false"
       simplify_just_coalesce="false"
       step="1" />
    <inkscape:path-effect
       effect="powerstroke"
       id="path-effect145"
       is_visible="true"
       lpeversion="1"
       offset_points="3.8374447,0.075169555"
       not_jump="true"
       sort_points="true"
       interpolator_type="CentripetalCatmullRom"
       interpolator_beta="0.75"
       start_linecap_type="round"
       linejoin_type="spiro"
       miter_limit="4"
       scale_width="1"
       end_linecap_type="round" />
    <inkscape:path-effect
       effect="simplify"
       id="path-effect143"
       is_visible="true"
       lpeversion="1"
       steps="1"
       threshold="0.0028332064"
       smooth_angles="0"
       helper_size="0"
       simplify_individual_paths="false"
       simplify_just_coalesce="false"
       step="1" />
    <inkscape:path-effect
       effect="powerstroke"
       id="path-effect138"
       is_visible="true"
       lpeversion="1"
       offset_points="2.6880907,0.075169555"
       not_jump="true"
       sort_points="true"
       interpolator_type="CentripetalCatmullRom"
       interpolator_beta="0.75"
       start_linecap_type="round"
       linejoin_type="spiro"
       miter_limit="4"
       scale_width="1"
       end_linecap_type="round" />
    <inkscape:path-effect
       effect="simplify"
       id="path-effect136"
       is_visible="true"
       lpeversion="1"
       steps="1"
       threshold="0.0028332064"
       smooth_angles="0"
       helper_size="0"
       simplify_individual_paths="false"
       simplify_just_coalesce="false"
       step="1" />
    <inkscape:path-effect
       effect="powerstroke"
       id="path-effect131"
       is_visible="true"
       lpeversion="1"
       offset_points="1.9940581,0.075169555"
       not_jump="true"
       sort_points="true"
       interpolator_type="CentripetalCatmullRom"
       interpolator_beta="0.75"
       start_linecap_type="round"
       linejoin_type="spiro"
       miter_limit="4"
       scale_width="1"
       end_linecap_type="round" />
    <inkscape:path-effect
       effect="simplify"
       id="path-effect129"
       is_visible="true"
       lpeversion="1"
       steps="1"
       threshold="0.0028332064"
       smooth_angles="0"
       helper_size="0"
       simplify_individual_paths="false"
       simplify_just_coalesce="false"
       step="1" />
  </defs>
  <sodipodi:namedview
     id="base"
     pagecolor="#ffffff"
     bordercolor="#666666"
     borderopacity="1.0"
     inkscape:pageopacity="0.0"
     inkscape:pageshadow="2"
     inkscape:zoom="15.839192"
     inkscape:cx="3.0620249"
     inkscape:cy="18.182746"
     inkscape:document-units="mm"
     inkscape:current-layer="layer1"
     showgrid="false"
     fit-margin-top="0"
     fit-margin-left="0"
     fit-margin-right="0"
     fit-margin-bottom="0"
     inkscape:window-width="1920"
     inkscape:window-height="1057"
     inkscape:window-x="1072"
     inkscape:window-y="321"
     inkscape:window-maximized="1"
     showguides="true"
     inkscape:guide-bbox="true"
     inkscape:snap-bbox="true"
     inkscape:bbox-nodes="true"
     inkscape:snap-nodes="false"
     inkscape:snap-others="false"
     inkscape:snap-page="true"
     inkscape:snap-grids="false"
     inkscape:snap-to-guides="false"
     inkscape:snap-global="false"
     inkscape:pagecheckerboard="0"
     inkscape:showpageshadow="2"
     inkscape:deskcolor="#d1d1d1">
    <sodipodi:guide
       position="-6.1806076,9.4988693"
       orientation="0,1"
       id="guide816"
       inkscape:locked="false" />
    <sodipodi:guide
       position="-4.4101636,10.646923"
       orientation="0,1"
       id="guide818"
       inkscape:locked="false" />
    <sodipodi:guide
       position="2.7595724,11.09577"
       orientation="1,0"
       id="guide820"
       inkscape:locked="false" />
    <sodipodi:guide
       position="3.6572659,10.942217"
       orientation="1,0"
       id="guide822"
       inkscape:locked="false" />
    <sodipodi:guide
       position="-0.051625511,9.74923"
       orientation="1,0"
       id="guide1853"
       inkscape:locked="false" />
    <sodipodi:guide
       position="-2.3720169,3.0175835"
       orientation="0,1"
       id="guide1855"
       inkscape:locked="false" />
  </sodipodi:namedview>
  <metadata
     id="metadata1678">
    <rdf:RDF>
      <cc:Work
         rdf:about="">
        <dc:format>image/svg+xml</dc:format>
        <dc:type
           rdf:resource="http://purl.org/dc/dcmitype/StillImage" />
      </cc:Work>
    </rdf:RDF>
  </metadata>
  <g
     inkscape:label="Layer 1"
     inkscape:groupmode="layer"
     id="layer1"
     transform="translate(17.028496,-147.22856)">
    <path
       d="m -14.533821,151.08826 c -0.05483,-0.0303 -0.128183,-0.0611 -0.219946,-0.077 -0.06859,-0.0119 -0.145075,-0.0152 -0.227183,-0.005 -0.136407,0.0167 -0.284224,0.0701 -0.414323,0.16901 -0.189996,0.14089 -0.347182,0.32039 -0.479579,0.52398 -0.129914,0.19977 -0.23145,0.41582 -0.315062,0.62406 -0.05242,0.12651 -0.08759,0.25536 -0.114769,0.37062 -0.0029,0.0123 -0.0058,0.0246 -0.0085,0.0369 -0.03128,0.13745 -0.05633,0.27137 -0.08689,0.3999 -0.0093,0.041 -0.01488,0.0828 -0.01583,0.12513 -9.41e-4,0.0422 0.0027,0.0861 0.01279,0.12946 0.01005,0.0432 0.02663,0.0864 0.05217,0.12701 0.02342,0.0372 0.05401,0.0715 0.09271,0.10019 0.117091,0.11345 0.266137,0.21534 0.434152,0.27528 0.08256,0.0294 0.171083,0.0492 0.263084,0.0541 0.08946,0.005 0.182682,-0.005 0.276016,-0.0334 0.04247,-0.013 0.08383,-0.0285 0.124072,-0.0463 0.05981,-0.0264 0.118468,-0.0584 0.175922,-0.0962 0.08733,-0.0575 0.169806,-0.1269 0.248099,-0.20734 0.142846,-0.14675 0.263306,-0.32124 0.371037,-0.50624 0.06819,-0.12637 0.13669,-0.26139 0.193687,-0.40285 0.05572,-0.13828 0.101061,-0.28407 0.125011,-0.43687 7.26e-4,-0.005 0.0013,-0.009 0.0014,-0.014 0.0026,-0.12202 0.01272,-0.259 0.0062,-0.39277 -0.0034,-0.0696 -0.01124,-0.13914 -0.0268,-0.20753 -0.01581,-0.0695 -0.03932,-0.13666 -0.0731,-0.20075 -0.0069,-0.0166 -0.01567,-0.0318 -0.02461,-0.0449 -0.01108,-0.0163 -0.02371,-0.0313 -0.0367,-0.0446 -0.0135,-0.0138 -0.02812,-0.0264 -0.0432,-0.0373 -0.01559,-0.0112 -0.03289,-0.0215 -0.05129,-0.029 -0.0096,-0.004 -0.02014,-0.007 -0.03132,-0.01 -0.01148,-0.002 -0.02435,-0.004 -0.03811,-0.003 -0.01433,6e-4 -0.02972,0.003 -0.04506,0.01 -0.01608,0.007 -0.03036,0.0166 -0.04223,0.029 -0.01208,0.0126 -0.02062,0.0268 -0.0264,0.0404 -0.006,0.014 -0.0093,0.0281 -0.01119,0.0408 -0.0039,0.027 -0.002,0.0549 0.0018,0.0801 0.01161,0.12993 0.03315,0.26575 0.04172,0.32453 0.01515,0.10399 0.0044,0.0812 0.02244,0.18761 0.0016,0.01 0.0035,0.0203 0.0056,0.0318 0.01915,0.10608 0.0616,0.29085 0.102694,0.52934 0.06722,0.33305 0.13599,0.78076 0.121264,1.26643 -0.0023,0.62418 -0.02309,1.30352 -0.08821,2.00052 -0.07263,0.32685 -0.218445,0.63818 -0.386504,0.95309 -0.01594,0.0251 -0.03398,0.0571 -0.05158,0.0865 -0.01804,0.0301 -0.03468,0.0562 -0.05212,0.0787 -0.01752,0.0227 -0.03411,0.0395 -0.05058,0.0518 -0.01623,0.012 -0.03308,0.0202 -0.0523,0.0245 -0.0047,0.001 -0.0093,0.002 -0.01389,0.004 -0.149292,0.0518 -0.277922,0.0992 -0.413678,0.13057 -0.06956,0.0161 -0.13574,0.0266 -0.199816,0.0303 -0.06761,0.004 -0.131673,4.5e-4 -0.193348,-0.0112 -0.05322,-0.0126 -0.101176,-0.0385 -0.142916,-0.0714 -0.04667,-0.0367 -0.0872,-0.0835 -0.123644,-0.13368 -0.04128,-0.0568 -0.07929,-0.12108 -0.111705,-0.17679 -0.04656,-0.08 -0.07592,-0.13187 -0.114048,-0.1897 a 0.11451612,0.11451612 90 0 0 -0.191216,0.12606 c 0.03325,0.0504 0.05918,0.0964 0.10657,0.17869 0.03188,0.0553 0.07479,0.12913 0.123261,0.19671 0.04292,0.0598 0.0973,0.12526 0.166436,0.18048 0.06349,0.0507 0.141474,0.0946 0.237969,0.11793 0.08741,0.0172 0.170797,0.0221 0.255557,0.0177 0.08002,-0.004 0.159667,-0.0165 0.23937,-0.0343 0.149244,-0.0334 0.291125,-0.0842 0.432369,-0.13222 0.05181,-0.0119 0.09708,-0.0337 0.136559,-0.0619 0.03993,-0.0286 0.07258,-0.0627 0.09998,-0.0972 0.0269,-0.0338 0.04993,-0.0694 0.07004,-0.10208 0.02015,-0.0327 0.03813,-0.0636 0.05484,-0.0897 0.177779,-0.32867 0.339459,-0.66648 0.420154,-1.03056 0.0011,-0.005 0.0019,-0.01 0.0024,-0.0151 0.06771,-0.70948 0.08937,-1.39951 0.09126,-2.02749 0.01508,-0.50995 -0.05937,-0.97815 -0.131605,-1.31714 -0.03659,-0.19736 -0.104016,-0.47568 -0.117347,-0.53057 -0.0027,-0.0112 -0.0052,-0.0215 -0.0076,-0.0308 -0.02555,-0.10263 -0.02744,-0.0779 -0.04926,-0.17684 -0.01378,-0.0625 -0.03607,-0.17909 -0.04951,-0.31263 -0.0032,-0.0199 -0.0028,-0.0294 -0.0029,-0.0292 -4.4e-5,9e-5 -3.05e-4,0.002 -0.0022,0.007 -0.0018,0.004 -0.0052,0.0105 -0.01137,0.0169 -0.0061,0.006 -0.01361,0.0116 -0.0221,0.0152 -0.008,0.003 -0.01526,0.005 -0.02076,0.005 -0.0052,2.5e-4 -0.0089,-3.2e-4 -0.0106,-6.3e-4 1.74e-4,8.3e-4 0.0038,0.003 0.0098,0.007 0.0054,0.004 0.01139,0.01 0.01717,0.0162 0.0056,0.006 0.01037,0.0126 0.0139,0.0184 0.0033,0.006 0.0051,0.0102 0.005,0.0109 -9e-5,0.001 -1.24e-4,0.003 1.68e-4,0.004 2.92e-4,0.001 8.78e-4,0.002 0.0016,0.003 7.06e-4,0.001 0.0015,0.002 0.0022,0.003 7.26e-4,0.001 0.0013,0.002 0.0019,0.003 0.02471,0.0482 0.04212,0.10003 0.05367,0.15605 0.01118,0.0542 0.0167,0.11157 0.01838,0.17265 0.0033,0.12186 -0.0081,0.23601 -0.01423,0.36952 -0.0236,0.13029 -0.06556,0.25721 -0.118361,0.38157 -0.05493,0.12936 -0.121212,0.25495 -0.187907,0.37423 -0.102851,0.17196 -0.213776,0.32792 -0.339561,0.45547 -0.0685,0.0695 -0.138374,0.12734 -0.21001,0.17422 -0.0471,0.0308 -0.09441,0.0565 -0.141933,0.0776 -0.032,0.0142 -0.06471,0.0265 -0.09818,0.0369 -0.06496,0.0202 -0.130384,0.0273 -0.194909,0.0244 -0.06663,-0.003 -0.133073,-0.0169 -0.19762,-0.0391 -0.134467,-0.0464 -0.259191,-0.12875 -0.359516,-0.22411 -0.0024,-0.002 -0.0047,-0.005 -0.0072,-0.007 -0.0025,-0.002 -0.0052,-0.004 -0.0079,-0.006 -0.0176,-0.0112 -0.03149,-0.0249 -0.04258,-0.0409 -0.0114,-0.0164 -0.02041,-0.036 -0.0267,-0.0586 -0.0064,-0.0229 -0.0098,-0.0483 -0.01018,-0.0751 -4.12e-4,-0.0269 0.0022,-0.0544 0.0073,-0.0812 0.02814,-0.12727 0.05344,-0.27169 0.08193,-0.40053 0.0026,-0.0118 0.0052,-0.0236 0.0079,-0.0353 0.02528,-0.11063 0.05696,-0.22738 0.103386,-0.34023 0.08084,-0.20221 0.176575,-0.40516 0.296719,-0.58987 0.122133,-0.18777 0.263637,-0.34768 0.43121,-0.47168 0.100422,-0.076 0.2136,-0.11643 0.316448,-0.12875 0.06152,-0.007 0.117708,-0.005 0.166973,0.004 0.06572,0.0116 0.117475,0.0335 0.155734,0.0547 a 0.10301557,0.10301557 90 0 0 0.0997,-0.1803 z"
       id="path-1"
       inkscape:path-effect="#path-effect6475;#path-effect6477"
       inkscape:original-d="m -14.583672,151.17841 c -0.840328,-0.42263 -1.542888,1.01151 -1.643135,1.64622 -0.03415,0.21621 -0.160707,0.50287 -0.0049,0.65664 0.994878,0.98212 1.83053,-0.37352 2.054906,-1.15798 0.03842,-0.13433 0.03153,-0.27804 0.03456,-0.41772 0.0041,-0.18743 -0.01661,-0.46175 -0.19058,-0.58149 -0.118119,-0.0813 -0.03457,0.30778 0.0049,0.50596 0.107408,0.53881 0.254889,1.1317 0.258714,1.67782 0.0053,0.75119 -0.01867,1.50379 -0.08591,2.25199 -0.02528,0.28133 -0.449573,1.22676 -0.619138,1.29208 -1.106686,0.42629 -1.174391,0.10588 -1.509827,-0.44354"
       style="fill:#000000;fill-rule:nonzero;stroke:none" />
  </g>
</svg>
