<?xml version="1.0" encoding="UTF-8" standalone="no"?>
<!-- Created with Inkscape (http://www.inkscape.org/) -->

<svg
   width="4mm"
   height="10mm"
   viewBox="0 0 4.0000001 9.9999994"
   version="1.1"
   id="svg1681"
   inkscape:version="1.2.1 (9c6d41e410, 2022-07-14)"
   sodipodi:docname="lower_g_2.svg"
   inkscape:export-filename="..\..\..\..\Downloads\lower a diff canvas resize 3.0.png"
   inkscape:export-xdpi="96"
   inkscape:export-ydpi="96"
   xmlns:inkscape="http://www.inkscape.org/namespaces/inkscape"
   xmlns:sodipodi="http://sodipodi.sourceforge.net/DTD/sodipodi-0.dtd"
   xmlns="http://www.w3.org/2000/svg"
   xmlns:svg="http://www.w3.org/2000/svg"
   xmlns:rdf="http://www.w3.org/1999/02/22-rdf-syntax-ns#"
   xmlns:cc="http://creativecommons.org/ns#"
   xmlns:dc="http://purl.org/dc/elements/1.1/">
  <defs
     id="defs1675">
    <inkscape:path-effect
       effect="powerstroke"
       id="path-effect4656"
       is_visible="true"
       lpeversion="1"
       offset_points="2.1622208,0.097632331 | 4.042097,0.11402673 | 5.3228175,0.10301557"
       not_jump="true"
       sort_points="true"
       interpolator_type="CentripetalCatmullRom"
       interpolator_beta="0.75"
       start_linecap_type="round"
       linejoin_type="spiro"
       miter_limit="4"
       scale_width="1"
       end_linecap_type="round" />
    <inkscape:path-effect
       effect="simplify"
       id="path-effect4654"
       is_visible="true"
       lpeversion="1"
       steps="1"
       threshold="0.0047745358"
       smooth_angles="0"
       helper_size="0"
       simplify_individual_paths="false"
       simplify_just_coalesce="false"
       step="1" />
    <inkscape:path-effect
       effect="powerstroke"
       id="path-effect4649"
       is_visible="true"
       lpeversion="1"
       offset_points="3.9874108,0.11353735"
       not_jump="true"
       sort_points="true"
       interpolator_type="CentripetalCatmullRom"
       interpolator_beta="0.75"
       start_linecap_type="round"
       linejoin_type="spiro"
       miter_limit="4"
       scale_width="1"
       end_linecap_type="round" />
    <inkscape:path-effect
       effect="simplify"
       id="path-effect4647"
       is_visible="true"
       lpeversion="1"
       steps="1"
       threshold="0.0047745358"
       smooth_angles="0"
       helper_size="0"
       simplify_individual_paths="false"
       simplify_just_coalesce="false"
       step="1" />
    <inkscape:path-effect
       effect="powerstroke"
       id="path-effect339"
       is_visible="true"
       lpeversion="1"
       offset_points="2.475381,0.18351942 | 6.319337,0.14926246 | 12.59631,0.19673282"
       not_jump="true"
       sort_points="true"
       interpolator_type="CentripetalCatmullRom"
       interpolator_beta="0.75"
       start_linecap_type="round"
       linejoin_type="spiro"
       miter_limit="4"
       scale_width="1"
       end_linecap_type="round" />
    <inkscape:path-effect
       effect="simplify"
       id="path-effect337"
       is_visible="true"
       lpeversion="1"
       steps="1"
       threshold="0.0047745358"
       smooth_angles="0"
       helper_size="0"
       simplify_individual_paths="false"
       simplify_just_coalesce="false"
       step="1" />
    <inkscape:path-effect
       effect="powerstroke"
       id="path-effect260"
       is_visible="true"
       lpeversion="1"
       offset_points="2.2247419,0.18303003 | 5.6341611,0.1610077 | 12.393695,0.20285013"
       not_jump="true"
       sort_points="true"
       interpolator_type="CentripetalCatmullRom"
       interpolator_beta="0.75"
       start_linecap_type="round"
       linejoin_type="spiro"
       miter_limit="4"
       scale_width="1"
       end_linecap_type="round" />
    <inkscape:path-effect
       effect="simplify"
       id="path-effect258"
       is_visible="true"
       lpeversion="1"
       steps="1"
       threshold="0.0047745358"
       smooth_angles="0"
       helper_size="0"
       simplify_individual_paths="false"
       simplify_just_coalesce="false"
       step="1" />
    <inkscape:path-effect
       effect="powerstroke"
       id="path-effect1588"
       is_visible="true"
       lpeversion="1"
       offset_points="1.4884926,0.13227569 | 2.9293853,0.1075182 | 4.5609178,0.13274725"
       not_jump="true"
       sort_points="true"
       interpolator_type="CentripetalCatmullRom"
       interpolator_beta="0.75"
       start_linecap_type="round"
       linejoin_type="spiro"
       miter_limit="4"
       scale_width="1"
       end_linecap_type="round" />
    <inkscape:path-effect
       effect="simplify"
       id="path-effect1586"
       is_visible="true"
       lpeversion="1"
       steps="1"
       threshold="0.0035951417"
       smooth_angles="0"
       helper_size="0"
       simplify_individual_paths="false"
       simplify_just_coalesce="false"
       step="1" />
    <inkscape:path-effect
       effect="powerstroke"
       id="path-effect502"
       is_visible="true"
       lpeversion="1"
       offset_points="3.0091841,0.21607495 | 7.3602657,0.17554228 | 9.4159651,0.20236537"
       not_jump="true"
       sort_points="true"
       interpolator_type="CentripetalCatmullRom"
       interpolator_beta="0.75"
       start_linecap_type="round"
       linejoin_type="spiro"
       miter_limit="4"
       scale_width="1"
       end_linecap_type="round" />
    <inkscape:path-effect
       effect="simplify"
       id="path-effect500"
       is_visible="true"
       lpeversion="1"
       steps="1"
       threshold="0.0035951417"
       smooth_angles="0"
       helper_size="0"
       simplify_individual_paths="false"
       simplify_just_coalesce="false"
       step="1" />
    <inkscape:path-effect
       effect="powerstroke"
       id="path-effect241"
       is_visible="true"
       lpeversion="1"
       offset_points="2.6879454,0.34086734"
       not_jump="true"
       sort_points="true"
       interpolator_type="CentripetalCatmullRom"
       interpolator_beta="0.75"
       start_linecap_type="round"
       linejoin_type="spiro"
       miter_limit="4"
       scale_width="1"
       end_linecap_type="round" />
    <inkscape:path-effect
       effect="simplify"
       id="path-effect239"
       is_visible="true"
       lpeversion="1"
       steps="1"
       threshold="0.0028332064"
       smooth_angles="0"
       helper_size="0"
       simplify_individual_paths="false"
       simplify_just_coalesce="false"
       step="1" />
    <inkscape:path-effect
       effect="powerstroke"
       id="path-effect234"
       is_visible="true"
       lpeversion="1"
       offset_points="2.13563,0.075169555"
       not_jump="true"
       sort_points="true"
       interpolator_type="CentripetalCatmullRom"
       interpolator_beta="0.75"
       start_linecap_type="round"
       linejoin_type="spiro"
       miter_limit="4"
       scale_width="1"
       end_linecap_type="round" />
    <inkscape:path-effect
       effect="simplify"
       id="path-effect232"
       is_visible="true"
       lpeversion="1"
       steps="1"
       threshold="0.0028332064"
       smooth_angles="0"
       helper_size="0"
       simplify_individual_paths="false"
       simplify_just_coalesce="false"
       step="1" />
    <inkscape:path-effect
       effect="powerstroke"
       id="path-effect227"
       is_visible="true"
       lpeversion="1"
       offset_points="2.1868266,0.075169555"
       not_jump="true"
       sort_points="true"
       interpolator_type="CentripetalCatmullRom"
       interpolator_beta="0.75"
       start_linecap_type="round"
       linejoin_type="spiro"
       miter_limit="4"
       scale_width="1"
       end_linecap_type="round" />
    <inkscape:path-effect
       effect="simplify"
       id="path-effect225"
       is_visible="true"
       lpeversion="1"
       steps="1"
       threshold="0.0028332064"
       smooth_angles="0"
       helper_size="0"
       simplify_individual_paths="false"
       simplify_just_coalesce="false"
       step="1" />
    <inkscape:path-effect
       effect="powerstroke"
       id="path-effect166"
       is_visible="true"
       lpeversion="1"
       offset_points="1.9637935,0.075169555"
       not_jump="true"
       sort_points="true"
       interpolator_type="CentripetalCatmullRom"
       interpolator_beta="0.75"
       start_linecap_type="round"
       linejoin_type="spiro"
       miter_limit="4"
       scale_width="1"
       end_linecap_type="round" />
    <inkscape:path-effect
       effect="simplify"
       id="path-effect164"
       is_visible="true"
       lpeversion="1"
       steps="1"
       threshold="0.0028332064"
       smooth_angles="0"
       helper_size="0"
       simplify_individual_paths="false"
       simplify_just_coalesce="false"
       step="1" />
    <inkscape:path-effect
       effect="powerstroke"
       id="path-effect159"
       is_visible="true"
       lpeversion="1"
       offset_points="2.2611036,0.075169555"
       not_jump="true"
       sort_points="true"
       interpolator_type="CentripetalCatmullRom"
       interpolator_beta="0.75"
       start_linecap_type="round"
       linejoin_type="spiro"
       miter_limit="4"
       scale_width="1"
       end_linecap_type="round" />
    <inkscape:path-effect
       effect="simplify"
       id="path-effect157"
       is_visible="true"
       lpeversion="1"
       steps="1"
       threshold="0.0028332064"
       smooth_angles="0"
       helper_size="0"
       simplify_individual_paths="false"
       simplify_just_coalesce="false"
       step="1" />
    <inkscape:path-effect
       effect="powerstroke"
       id="path-effect152"
       is_visible="true"
       lpeversion="1"
       offset_points="2.826981,0.075169555"
       not_jump="true"
       sort_points="true"
       interpolator_type="CentripetalCatmullRom"
       interpolator_beta="0.75"
       start_linecap_type="round"
       linejoin_type="spiro"
       miter_limit="4"
       scale_width="1"
       end_linecap_type="round" />
    <inkscape:path-effect
       effect="simplify"
       id="path-effect150"
       is_visible="true"
       lpeversion="1"
       steps="1"
       threshold="0.0028332064"
       smooth_angles="0"
       helper_size="0"
       simplify_individual_paths="false"
       simplify_just_coalesce="false"
       step="1" />
    <inkscape:path-effect
       effect="powerstroke"
       id="path-effect145"
       is_visible="true"
       lpeversion="1"
       offset_points="3.8374447,0.075169555"
       not_jump="true"
       sort_points="true"
       interpolator_type="CentripetalCatmullRom"
       interpolator_beta="0.75"
       start_linecap_type="round"
       linejoin_type="spiro"
       miter_limit="4"
       scale_width="1"
       end_linecap_type="round" />
    <inkscape:path-effect
       effect="simplify"
       id="path-effect143"
       is_visible="true"
       lpeversion="1"
       steps="1"
       threshold="0.0028332064"
       smooth_angles="0"
       helper_size="0"
       simplify_individual_paths="false"
       simplify_just_coalesce="false"
       step="1" />
    <inkscape:path-effect
       effect="powerstroke"
       id="path-effect138"
       is_visible="true"
       lpeversion="1"
       offset_points="2.6880907,0.075169555"
       not_jump="true"
       sort_points="true"
       interpolator_type="CentripetalCatmullRom"
       interpolator_beta="0.75"
       start_linecap_type="round"
       linejoin_type="spiro"
       miter_limit="4"
       scale_width="1"
       end_linecap_type="round" />
    <inkscape:path-effect
       effect="simplify"
       id="path-effect136"
       is_visible="true"
       lpeversion="1"
       steps="1"
       threshold="0.0028332064"
       smooth_angles="0"
       helper_size="0"
       simplify_individual_paths="false"
       simplify_just_coalesce="false"
       step="1" />
    <inkscape:path-effect
       effect="powerstroke"
       id="path-effect131"
       is_visible="true"
       lpeversion="1"
       offset_points="1.9940581,0.075169555"
       not_jump="true"
       sort_points="true"
       interpolator_type="CentripetalCatmullRom"
       interpolator_beta="0.75"
       start_linecap_type="round"
       linejoin_type="spiro"
       miter_limit="4"
       scale_width="1"
       end_linecap_type="round" />
    <inkscape:path-effect
       effect="simplify"
       id="path-effect129"
       is_visible="true"
       lpeversion="1"
       steps="1"
       threshold="0.0028332064"
       smooth_angles="0"
       helper_size="0"
       simplify_individual_paths="false"
       simplify_just_coalesce="false"
       step="1" />
  </defs>
  <sodipodi:namedview
     id="base"
     pagecolor="#ffffff"
     bordercolor="#666666"
     borderopacity="1.0"
     inkscape:pageopacity="0.0"
     inkscape:pageshadow="2"
     inkscape:zoom="15.839192"
     inkscape:cx="-6.0924825"
     inkscape:cy="18.182746"
     inkscape:document-units="mm"
     inkscape:current-layer="layer1"
     showgrid="false"
     fit-margin-top="0"
     fit-margin-left="0"
     fit-margin-right="0"
     fit-margin-bottom="0"
     inkscape:window-width="1920"
     inkscape:window-height="1057"
     inkscape:window-x="1072"
     inkscape:window-y="321"
     inkscape:window-maximized="1"
     showguides="true"
     inkscape:guide-bbox="true"
     inkscape:snap-bbox="true"
     inkscape:bbox-nodes="true"
     inkscape:snap-nodes="false"
     inkscape:snap-others="false"
     inkscape:snap-page="true"
     inkscape:snap-grids="false"
     inkscape:snap-to-guides="false"
     inkscape:snap-global="false"
     inkscape:pagecheckerboard="0"
     inkscape:showpageshadow="2"
     inkscape:deskcolor="#d1d1d1">
    <sodipodi:guide
       position="-6.1806076,9.4988693"
       orientation="0,1"
       id="guide816"
       inkscape:locked="false" />
    <sodipodi:guide
       position="-4.4101636,10.646923"
       orientation="0,1"
       id="guide818"
       inkscape:locked="false" />
    <sodipodi:guide
       position="2.7595724,11.09577"
       orientation="1,0"
       id="guide820"
       inkscape:locked="false" />
    <sodipodi:guide
       position="3.6572659,10.942217"
       orientation="1,0"
       id="guide822"
       inkscape:locked="false" />
    <sodipodi:guide
       position="-0.051625511,9.74923"
       orientation="1,0"
       id="guide1853"
       inkscape:locked="false" />
    <sodipodi:guide
       position="-2.3720169,3.0175835"
       orientation="0,1"
       id="guide1855"
       inkscape:locked="false" />
  </sodipodi:namedview>
  <metadata
     id="metadata1678">
    <rdf:RDF>
      <cc:Work
         rdf:about="">
        <dc:format>image/svg+xml</dc:format>
        <dc:type
           rdf:resource="http://purl.org/dc/dcmitype/StillImage" />
      </cc:Work>
    </rdf:RDF>
  </metadata>
  <g
     inkscape:label="Layer 1"
     inkscape:groupmode="layer"
     id="layer1"
     transform="translate(17.028496,-147.22856)">
    <path
       d="m -14.323461,150.31971 c -0.06745,-0.0339 -0.159489,-0.0685 -0.275407,-0.0828 -0.08518,-0.0105 -0.179301,-0.009 -0.280023,0.008 -0.169274,0.0295 -0.346995,0.10433 -0.503071,0.22584 -0.209105,0.15823 -0.388246,0.34842 -0.550143,0.55314 -0.164925,0.20855 -0.314017,0.43562 -0.440782,0.62973 -0.04904,0.0803 -0.09318,0.15736 -0.133784,0.23421 -0.08735,0.16533 -0.164919,0.34159 -0.219068,0.5247 -0.04014,0.13574 -0.06746,0.27539 -0.07636,0.41732 -0.009,0.14311 8.42e-4,0.28783 0.0346,0.43239 0.012,0.0772 0.04363,0.15197 0.08757,0.21631 0.04469,0.0654 0.101517,0.11924 0.163883,0.16163 0.06413,0.0436 0.134705,0.0755 0.20631,0.0964 0.07441,0.0217 0.150704,0.0317 0.224402,0.0303 0.01807,6e-4 0.04112,5.4e-4 0.06394,-1.6e-4 0.121509,-0.004 0.231648,-0.0256 0.327822,-0.0553 0.131718,-0.0406 0.250403,-0.10001 0.354487,-0.16703 0.190016,-0.12235 0.383866,-0.30487 0.544225,-0.54535 0.09748,-0.14515 0.196471,-0.31843 0.286735,-0.52317 0.135683,-0.30776 0.260262,-0.70767 0.316484,-1.20043 0.0043,-0.11028 0.01224,-0.26036 0.01319,-0.38548 9.25e-4,-0.12114 -0.0035,-0.25465 -0.02541,-0.39006 -0.002,-0.0121 -0.0045,-0.0243 -0.01064,-0.0349 -0.0061,-0.0106 -0.01538,-0.019 -0.02487,-0.0267 -0.01108,-0.009 -0.0238,-0.0179 -0.03815,-0.025 -0.01424,-0.007 -0.03189,-0.0132 -0.05224,-0.0149 -0.02096,-0.002 -0.04261,0.002 -0.06301,0.0109 -0.01944,0.009 -0.03466,0.022 -0.04547,0.0347 -0.01054,0.0124 -0.01786,0.0254 -0.02305,0.0368 -0.0052,0.0114 -0.009,0.0228 -0.01191,0.0333 -0.0056,0.0206 -0.0089,0.0422 -0.01106,0.0622 -0.0021,0.0201 -0.0033,0.0409 -0.0041,0.0606 -7.42e-4,0.0195 -0.0011,0.039 -0.0014,0.0563 -3.53e-4,0.0177 -6.94e-4,0.0327 -0.0014,0.0451 -3.22e-4,0.006 -6.88e-4,0.0109 -0.0011,0.0146 -3.72e-4,0.004 -8.01e-4,0.006 -6.37e-4,0.005 l -0.0022,0.0205 c -0.0043,0.65585 0.05147,1.30595 0.117176,1.96701 0.06435,0.64744 0.137453,1.29815 0.16666,1.94847 0.01091,0.32177 0.02273,0.64255 0.0086,0.96065 -0.01429,0.32091 -0.05483,0.63143 -0.145836,0.92939 -0.05267,0.16791 -0.129957,0.33281 -0.233791,0.46533 -0.05306,0.0677 -0.112091,0.12577 -0.177164,0.17193 -0.06654,0.0472 -0.139446,0.082 -0.219402,0.1024 -0.08935,0.0213 -0.178928,0.0246 -0.26594,0.0146 -0.09048,-0.0103 -0.178996,-0.0351 -0.263882,-0.0695 -0.182579,-0.074 -0.348636,-0.19248 -0.482476,-0.30874 -0.09627,-0.0841 -0.172005,-0.16406 -0.21867,-0.21524 a 0.10301557,0.10301557 90 0 0 -0.152242,0.13882 c 0.04974,0.0546 0.131557,0.14034 0.236459,0.23119 0.143752,0.12458 0.329273,0.25812 0.540329,0.34334 0.09885,0.0399 0.20546,0.0701 0.317479,0.0828 0.108149,0.0122 0.221667,0.008 0.337796,-0.0197 0.107192,-0.0275 0.202692,-0.0735 0.288218,-0.13435 0.08325,-0.0592 0.156021,-0.13171 0.219219,-0.21258 0.122787,-0.15711 0.20951,-0.34598 0.267185,-0.53062 0.09751,-0.32003 0.139474,-0.64856 0.154047,-0.98017 0.01439,-0.32751 0.002,-0.65663 -0.009,-0.9775 -0.02972,-0.6584 -0.10379,-1.31666 -0.167871,-1.96038 -0.06543,-0.65732 -0.120074,-1.29569 -0.116474,-1.93733 7.87e-4,-0.005 0.0014,-0.01 0.0018,-0.0144 8.53e-4,-0.008 0.0014,-0.0167 0.0019,-0.0249 8.51e-4,-0.0163 0.0012,-0.0345 0.0016,-0.0516 3.57e-4,-0.018 6.75e-4,-0.0354 0.0013,-0.0527 6.65e-4,-0.0174 0.0016,-0.0332 0.0031,-0.047 0.0015,-0.0144 0.0034,-0.0242 0.005,-0.0303 7.49e-4,-0.003 0.0013,-0.004 9.09e-4,-0.003 -2.75e-4,6.1e-4 -0.002,0.004 -0.0063,0.009 -0.0045,0.005 -0.01264,0.0127 -0.02421,0.018 -0.01247,0.006 -0.02536,0.007 -0.03667,0.007 -0.01068,-8.7e-4 -0.01736,-0.004 -0.02026,-0.005 -0.0026,-0.001 -0.0026,-0.002 4.3e-5,4.9e-4 l -0.0355,-0.0617 c 0.01921,0.11979 0.0234,0.24079 0.02225,0.35642 -0.0012,0.12188 -0.0092,0.26296 -0.01367,0.37179 -0.05403,0.46348 -0.173968,0.8432 -0.303098,1.13233 -0.08598,0.19251 -0.18014,0.35413 -0.272581,0.48875 -0.147361,0.21494 -0.323001,0.37243 -0.488982,0.47549 -0.09089,0.0564 -0.192091,0.10497 -0.301665,0.13782 -0.07995,0.024 -0.170189,0.0413 -0.268771,0.0444 -0.01854,5.8e-4 -0.03726,6.4e-4 -0.05615,1.7e-4 -0.05621,0.001 -0.110145,-0.005 -0.16343,-0.0198 -0.05129,-0.014 -0.100945,-0.0354 -0.145275,-0.0638 -0.04304,-0.0276 -0.08045,-0.0615 -0.109363,-0.1011 -0.02817,-0.0386 -0.04886,-0.0833 -0.05865,-0.13449 -0.03185,-0.12921 -0.04234,-0.25333 -0.03622,-0.37844 0.0061,-0.12429 0.02855,-0.24907 0.06376,-0.37316 0.04757,-0.16763 0.117828,-0.33207 0.199984,-0.4896 0.03809,-0.073 0.07985,-0.14678 0.125184,-0.22165 0.124885,-0.19278 0.268974,-0.4128 0.427612,-0.61362 0.155092,-0.19632 0.322967,-0.37345 0.516386,-0.51947 0.132169,-0.10253 0.280588,-0.16403 0.418755,-0.18768 0.08179,-0.014 0.156667,-0.0144 0.222942,-0.006 0.08994,0.0113 0.160457,0.0382 0.211757,0.064 a 0.09763233,0.09763233 90 0 0 0.08769,-0.17446 z"
       id="path-1"
       inkscape:path-effect="#path-effect4654;#path-effect4656"
       inkscape:original-d="m -14.367306,150.40694 c -0.749937,-0.34249 -1.365876,0.48688 -1.742869,1.02388 -0.354832,0.50543 -0.723554,1.19523 -0.547053,1.83697 0.105069,0.38201 0.534858,0.43231 0.858103,0.35452 0.944677,-0.22736 1.396499,-1.46243 1.501928,-2.30324 0.01404,-0.112 0.02312,-0.52762 0.01284,-0.64662 -0.0056,-0.0653 -0.0037,-0.2135 -0.0632,-0.18613 -0.01915,0.009 -0.02746,0.0349 -0.02962,0.0559 -0.01447,0.13993 -0.02287,0.28093 -0.01975,0.42157 0.0078,0.34922 0.02713,0.69822 0.05233,1.04662 0.07833,1.08291 0.413035,3.26456 0.150094,4.39453 -0.313645,1.34787 -1.297418,1.28017 -2.091442,0.40925"
       style="fill:#000000;fill-rule:nonzero;stroke:none" />
  </g>
</svg>
