<?xml version="1.0" encoding="UTF-8" standalone="no"?>
<!-- Created with Inkscape (http://www.inkscape.org/) -->

<svg
   width="4mm"
   height="10mm"
   viewBox="0 0 4.0000001 9.9999994"
   version="1.1"
   id="svg1681"
   inkscape:version="1.2.1 (9c6d41e410, 2022-07-14)"
   sodipodi:docname="lower_w_2.svg"
   inkscape:export-filename="..\..\..\..\Downloads\lower a diff canvas resize 3.0.png"
   inkscape:export-xdpi="96"
   inkscape:export-ydpi="96"
   xmlns:inkscape="http://www.inkscape.org/namespaces/inkscape"
   xmlns:sodipodi="http://sodipodi.sourceforge.net/DTD/sodipodi-0.dtd"
   xmlns="http://www.w3.org/2000/svg"
   xmlns:svg="http://www.w3.org/2000/svg"
   xmlns:rdf="http://www.w3.org/1999/02/22-rdf-syntax-ns#"
   xmlns:cc="http://creativecommons.org/ns#"
   xmlns:dc="http://purl.org/dc/elements/1.1/">
  <defs
     id="defs1675">
    <inkscape:path-effect
       effect="powerstroke"
       id="path-effect360"
       is_visible="true"
       lpeversion="1"
       offset_points="1.7549587,0.10986696 | 6.4945854,0.13947476 | 8.1439231,0.12381443"
       not_jump="true"
       sort_points="true"
       interpolator_type="CentripetalCatmullRom"
       interpolator_beta="0.75"
       start_linecap_type="round"
       linejoin_type="spiro"
       miter_limit="4"
       scale_width="1"
       end_linecap_type="round" />
    <inkscape:path-effect
       effect="simplify"
       id="path-effect358"
       is_visible="true"
       lpeversion="1"
       steps="1"
       threshold="0.0047745358"
       smooth_angles="0"
       helper_size="0"
       simplify_individual_paths="false"
       simplify_just_coalesce="false"
       step="1" />
    <inkscape:path-effect
       effect="powerstroke"
       id="path-effect312"
       is_visible="true"
       lpeversion="1"
       offset_points="1.3996183,0.096408868"
       not_jump="true"
       sort_points="true"
       interpolator_type="CentripetalCatmullRom"
       interpolator_beta="0.75"
       start_linecap_type="round"
       linejoin_type="spiro"
       miter_limit="4"
       scale_width="1"
       end_linecap_type="round" />
    <inkscape:path-effect
       effect="simplify"
       id="path-effect310"
       is_visible="true"
       lpeversion="1"
       steps="1"
       threshold="0.0047745358"
       smooth_angles="0"
       helper_size="0"
       simplify_individual_paths="false"
       simplify_just_coalesce="false"
       step="1" />
    <inkscape:path-effect
       effect="powerstroke"
       id="path-effect305"
       is_visible="true"
       lpeversion="1"
       offset_points="1.530989,0.094206635 | 9.5526397,0.12699544"
       not_jump="true"
       sort_points="true"
       interpolator_type="CentripetalCatmullRom"
       interpolator_beta="0.75"
       start_linecap_type="round"
       linejoin_type="spiro"
       miter_limit="4"
       scale_width="1"
       end_linecap_type="round" />
    <inkscape:path-effect
       effect="simplify"
       id="path-effect303"
       is_visible="true"
       lpeversion="1"
       steps="1"
       threshold="0.0047745358"
       smooth_angles="0"
       helper_size="0"
       simplify_individual_paths="false"
       simplify_just_coalesce="false"
       step="1" />
    <inkscape:path-effect
       effect="powerstroke"
       id="path-effect298"
       is_visible="true"
       lpeversion="1"
       offset_points="1.3734686,0.11280327 | 8.9058734,0.14412392"
       not_jump="true"
       sort_points="true"
       interpolator_type="CentripetalCatmullRom"
       interpolator_beta="0.75"
       start_linecap_type="round"
       linejoin_type="spiro"
       miter_limit="4"
       scale_width="1"
       end_linecap_type="round" />
    <inkscape:path-effect
       effect="simplify"
       id="path-effect296"
       is_visible="true"
       lpeversion="1"
       steps="1"
       threshold="0.0047745358"
       smooth_angles="0"
       helper_size="0"
       simplify_individual_paths="false"
       simplify_just_coalesce="false"
       step="1" />
    <inkscape:path-effect
       effect="powerstroke"
       id="path-effect1424"
       is_visible="true"
       lpeversion="1"
       offset_points="3.2337937,0.1081348 | 7.9295992,0.12199285"
       not_jump="true"
       sort_points="true"
       interpolator_type="CentripetalCatmullRom"
       interpolator_beta="0.75"
       start_linecap_type="round"
       linejoin_type="spiro"
       miter_limit="4"
       scale_width="1"
       end_linecap_type="round" />
    <inkscape:path-effect
       effect="simplify"
       id="path-effect1422"
       is_visible="true"
       lpeversion="1"
       steps="1"
       threshold="0.0035951417"
       smooth_angles="0"
       helper_size="0"
       simplify_individual_paths="false"
       simplify_just_coalesce="false"
       step="1" />
    <inkscape:path-effect
       effect="powerstroke"
       id="path-effect502"
       is_visible="true"
       lpeversion="1"
       offset_points="3.0091841,0.21607495 | 7.3602657,0.17554228 | 9.4159651,0.20236537"
       not_jump="true"
       sort_points="true"
       interpolator_type="CentripetalCatmullRom"
       interpolator_beta="0.75"
       start_linecap_type="round"
       linejoin_type="spiro"
       miter_limit="4"
       scale_width="1"
       end_linecap_type="round" />
    <inkscape:path-effect
       effect="simplify"
       id="path-effect500"
       is_visible="true"
       lpeversion="1"
       steps="1"
       threshold="0.0035951417"
       smooth_angles="0"
       helper_size="0"
       simplify_individual_paths="false"
       simplify_just_coalesce="false"
       step="1" />
    <inkscape:path-effect
       effect="powerstroke"
       id="path-effect241"
       is_visible="true"
       lpeversion="1"
       offset_points="2.6879454,0.34086734"
       not_jump="true"
       sort_points="true"
       interpolator_type="CentripetalCatmullRom"
       interpolator_beta="0.75"
       start_linecap_type="round"
       linejoin_type="spiro"
       miter_limit="4"
       scale_width="1"
       end_linecap_type="round" />
    <inkscape:path-effect
       effect="simplify"
       id="path-effect239"
       is_visible="true"
       lpeversion="1"
       steps="1"
       threshold="0.0028332064"
       smooth_angles="0"
       helper_size="0"
       simplify_individual_paths="false"
       simplify_just_coalesce="false"
       step="1" />
    <inkscape:path-effect
       effect="powerstroke"
       id="path-effect234"
       is_visible="true"
       lpeversion="1"
       offset_points="2.13563,0.075169555"
       not_jump="true"
       sort_points="true"
       interpolator_type="CentripetalCatmullRom"
       interpolator_beta="0.75"
       start_linecap_type="round"
       linejoin_type="spiro"
       miter_limit="4"
       scale_width="1"
       end_linecap_type="round" />
    <inkscape:path-effect
       effect="simplify"
       id="path-effect232"
       is_visible="true"
       lpeversion="1"
       steps="1"
       threshold="0.0028332064"
       smooth_angles="0"
       helper_size="0"
       simplify_individual_paths="false"
       simplify_just_coalesce="false"
       step="1" />
    <inkscape:path-effect
       effect="powerstroke"
       id="path-effect227"
       is_visible="true"
       lpeversion="1"
       offset_points="2.1868266,0.075169555"
       not_jump="true"
       sort_points="true"
       interpolator_type="CentripetalCatmullRom"
       interpolator_beta="0.75"
       start_linecap_type="round"
       linejoin_type="spiro"
       miter_limit="4"
       scale_width="1"
       end_linecap_type="round" />
    <inkscape:path-effect
       effect="simplify"
       id="path-effect225"
       is_visible="true"
       lpeversion="1"
       steps="1"
       threshold="0.0028332064"
       smooth_angles="0"
       helper_size="0"
       simplify_individual_paths="false"
       simplify_just_coalesce="false"
       step="1" />
    <inkscape:path-effect
       effect="powerstroke"
       id="path-effect166"
       is_visible="true"
       lpeversion="1"
       offset_points="1.9637935,0.075169555"
       not_jump="true"
       sort_points="true"
       interpolator_type="CentripetalCatmullRom"
       interpolator_beta="0.75"
       start_linecap_type="round"
       linejoin_type="spiro"
       miter_limit="4"
       scale_width="1"
       end_linecap_type="round" />
    <inkscape:path-effect
       effect="simplify"
       id="path-effect164"
       is_visible="true"
       lpeversion="1"
       steps="1"
       threshold="0.0028332064"
       smooth_angles="0"
       helper_size="0"
       simplify_individual_paths="false"
       simplify_just_coalesce="false"
       step="1" />
    <inkscape:path-effect
       effect="powerstroke"
       id="path-effect159"
       is_visible="true"
       lpeversion="1"
       offset_points="2.2611036,0.075169555"
       not_jump="true"
       sort_points="true"
       interpolator_type="CentripetalCatmullRom"
       interpolator_beta="0.75"
       start_linecap_type="round"
       linejoin_type="spiro"
       miter_limit="4"
       scale_width="1"
       end_linecap_type="round" />
    <inkscape:path-effect
       effect="simplify"
       id="path-effect157"
       is_visible="true"
       lpeversion="1"
       steps="1"
       threshold="0.0028332064"
       smooth_angles="0"
       helper_size="0"
       simplify_individual_paths="false"
       simplify_just_coalesce="false"
       step="1" />
    <inkscape:path-effect
       effect="powerstroke"
       id="path-effect152"
       is_visible="true"
       lpeversion="1"
       offset_points="2.826981,0.075169555"
       not_jump="true"
       sort_points="true"
       interpolator_type="CentripetalCatmullRom"
       interpolator_beta="0.75"
       start_linecap_type="round"
       linejoin_type="spiro"
       miter_limit="4"
       scale_width="1"
       end_linecap_type="round" />
    <inkscape:path-effect
       effect="simplify"
       id="path-effect150"
       is_visible="true"
       lpeversion="1"
       steps="1"
       threshold="0.0028332064"
       smooth_angles="0"
       helper_size="0"
       simplify_individual_paths="false"
       simplify_just_coalesce="false"
       step="1" />
    <inkscape:path-effect
       effect="powerstroke"
       id="path-effect145"
       is_visible="true"
       lpeversion="1"
       offset_points="3.8374447,0.075169555"
       not_jump="true"
       sort_points="true"
       interpolator_type="CentripetalCatmullRom"
       interpolator_beta="0.75"
       start_linecap_type="round"
       linejoin_type="spiro"
       miter_limit="4"
       scale_width="1"
       end_linecap_type="round" />
    <inkscape:path-effect
       effect="simplify"
       id="path-effect143"
       is_visible="true"
       lpeversion="1"
       steps="1"
       threshold="0.0028332064"
       smooth_angles="0"
       helper_size="0"
       simplify_individual_paths="false"
       simplify_just_coalesce="false"
       step="1" />
    <inkscape:path-effect
       effect="powerstroke"
       id="path-effect138"
       is_visible="true"
       lpeversion="1"
       offset_points="2.6880907,0.075169555"
       not_jump="true"
       sort_points="true"
       interpolator_type="CentripetalCatmullRom"
       interpolator_beta="0.75"
       start_linecap_type="round"
       linejoin_type="spiro"
       miter_limit="4"
       scale_width="1"
       end_linecap_type="round" />
    <inkscape:path-effect
       effect="simplify"
       id="path-effect136"
       is_visible="true"
       lpeversion="1"
       steps="1"
       threshold="0.0028332064"
       smooth_angles="0"
       helper_size="0"
       simplify_individual_paths="false"
       simplify_just_coalesce="false"
       step="1" />
    <inkscape:path-effect
       effect="powerstroke"
       id="path-effect131"
       is_visible="true"
       lpeversion="1"
       offset_points="1.9940581,0.075169555"
       not_jump="true"
       sort_points="true"
       interpolator_type="CentripetalCatmullRom"
       interpolator_beta="0.75"
       start_linecap_type="round"
       linejoin_type="spiro"
       miter_limit="4"
       scale_width="1"
       end_linecap_type="round" />
    <inkscape:path-effect
       effect="simplify"
       id="path-effect129"
       is_visible="true"
       lpeversion="1"
       steps="1"
       threshold="0.0028332064"
       smooth_angles="0"
       helper_size="0"
       simplify_individual_paths="false"
       simplify_just_coalesce="false"
       step="1" />
  </defs>
  <sodipodi:namedview
     id="base"
     pagecolor="#ffffff"
     bordercolor="#666666"
     borderopacity="1.0"
     inkscape:pageopacity="0.0"
     inkscape:pageshadow="2"
     inkscape:zoom="15.839192"
     inkscape:cx="1.3258252"
     inkscape:cy="16.351844"
     inkscape:document-units="mm"
     inkscape:current-layer="layer1"
     showgrid="false"
     fit-margin-top="0"
     fit-margin-left="0"
     fit-margin-right="0"
     fit-margin-bottom="0"
     inkscape:window-width="1920"
     inkscape:window-height="1057"
     inkscape:window-x="1072"
     inkscape:window-y="321"
     inkscape:window-maximized="1"
     showguides="true"
     inkscape:guide-bbox="true"
     inkscape:snap-bbox="true"
     inkscape:bbox-nodes="true"
     inkscape:snap-nodes="false"
     inkscape:snap-others="false"
     inkscape:snap-page="true"
     inkscape:snap-grids="false"
     inkscape:snap-to-guides="false"
     inkscape:snap-global="false"
     inkscape:pagecheckerboard="0"
     inkscape:showpageshadow="2"
     inkscape:deskcolor="#d1d1d1">
    <sodipodi:guide
       position="-6.1806075,9.4988692"
       orientation="0,1"
       id="guide816"
       inkscape:locked="false" />
    <sodipodi:guide
       position="-4.4101636,10.646923"
       orientation="0,1"
       id="guide818"
       inkscape:locked="false" />
    <sodipodi:guide
       position="2.7595724,11.09577"
       orientation="1,0"
       id="guide820"
       inkscape:locked="false" />
    <sodipodi:guide
       position="3.6572659,10.942217"
       orientation="1,0"
       id="guide822"
       inkscape:locked="false" />
    <sodipodi:guide
       position="-0.051625511,9.7492299"
       orientation="1,0"
       id="guide1853"
       inkscape:locked="false" />
    <sodipodi:guide
       position="-2.3720169,3.0175835"
       orientation="0,1"
       id="guide1855"
       inkscape:locked="false" />
    <sodipodi:guide
       position="2.6893996,7.3941215"
       orientation="0,-1"
       id="guide176"
       inkscape:locked="false" />
  </sodipodi:namedview>
  <metadata
     id="metadata1678">
    <rdf:RDF>
      <cc:Work
         rdf:about="">
        <dc:format>image/svg+xml</dc:format>
        <dc:type
           rdf:resource="http://purl.org/dc/dcmitype/StillImage" />
      </cc:Work>
    </rdf:RDF>
  </metadata>
  <g
     inkscape:label="Layer 1"
     inkscape:groupmode="layer"
     id="layer1"
     transform="translate(17.028496,-147.22856)">
    <path
       d="m -17.052169,150.04195 c 0.106519,0.51307 0.416958,1.50011 0.666607,2.66433 0.06776,0.29179 0.15154,0.59444 0.259062,0.89772 0.03185,0.0898 0.06764,0.18507 0.10785,0.28401 0.0045,0.0106 0.01012,0.0242 0.01583,0.0375 0.0058,0.0134 0.01277,0.0292 0.02069,0.0458 0.0076,0.0159 0.01655,0.0335 0.02656,0.0509 0.0096,0.0168 0.02108,0.0349 0.03432,0.052 0.01257,0.0163 0.0292,0.0349 0.05023,0.0505 0.01059,0.008 0.02327,0.0157 0.03806,0.0221 0.01477,0.006 0.03196,0.0112 0.05115,0.0128 0.01924,0.002 0.0389,-4.1e-4 0.05818,-0.006 0.01894,-0.006 0.03572,-0.0146 0.05029,-0.0251 0.01429,-0.0103 0.02644,-0.0222 0.03676,-0.0345 0.01025,-0.0122 0.01923,-0.0254 0.0272,-0.039 0.0026,-0.004 0.005,-0.009 0.0069,-0.0135 0.0019,-0.005 0.0033,-0.01 0.0046,-0.0145 0.05155,-0.18798 0.07846,-0.37823 0.101474,-0.57163 0.0223,-0.18737 0.04029,-0.371 0.07381,-0.55058 0.07606,-0.49017 0.186129,-0.96229 0.322187,-1.41642 l -0.257882,-0.007 c 0.0049,0.0236 0.0079,0.0506 0.0098,0.0823 0.002,0.0328 0.0028,0.0669 0.004,0.10469 0.0013,0.0387 0.003,0.0793 0.0073,0.12042 0.0042,0.0406 0.0108,0.0817 0.02177,0.12246 0.05992,0.36515 0.116758,0.67206 0.196489,0.97342 -10e-7,-1e-5 0.0028,0.0107 0.0028,0.0107 0.09967,0.37392 0.222032,0.68499 0.373269,0.95809 0.005,0.008 0.0117,0.0199 0.0193,0.0327 0.0079,0.0134 0.01682,0.0281 0.02665,0.0434 0.01946,0.0302 0.0449,0.0663 0.07524,0.0973 0.01523,0.0156 0.03401,0.0323 0.05619,0.0465 0.02146,0.0137 0.0498,0.0274 0.08396,0.0327 0.01681,0.003 0.03476,0.003 0.05338,7.9e-4 0.01822,-0.002 0.03599,-0.007 0.05296,-0.0149 0.03258,-0.0145 0.05901,-0.0369 0.08038,-0.0624 0.0052,-0.006 0.01035,-0.0125 0.01438,-0.0196 0.004,-0.007 0.0068,-0.0147 0.0092,-0.0224 0.01079,-0.0338 0.02016,-0.0686 0.02839,-0.10457 0.01835,-0.0802 0.02977,-0.16085 0.04026,-0.25197 0.01225,-0.10643 0.02241,-0.22129 0.04382,-0.32614 0.113975,-0.73645 0.24422,-1.43915 0.432534,-2.12273 0.161027,-0.60188 0.306438,-1.02939 0.407369,-1.30771 a 0.12381443,0.12381443 90 0 0 -0.232794,-0.0844 c -0.102802,0.28347 -0.249654,0.71943 -0.411367,1.32802 -0.190975,0.69615 -0.322228,1.40888 -0.436029,2.14367 -0.02316,0.11208 -0.03553,0.24469 -0.04716,0.34053 -0.01061,0.0875 -0.02149,0.15764 -0.03766,0.22398 -0.0072,0.0296 -0.01524,0.0572 -0.0242,0.0833 l 0.02363,-0.042 c -0.0028,0.003 5.8e-5,-0.002 0.0094,-0.006 0.005,-0.002 0.01102,-0.004 0.01768,-0.005 0.0068,-0.001 0.01308,-9.1e-4 0.01848,-2.3e-4 0.01089,0.001 0.01568,0.004 0.01601,0.004 3.44e-4,-4.2e-4 -0.0033,-0.004 -0.0081,-0.01 -0.01093,-0.0136 -0.02325,-0.0327 -0.03706,-0.058 -0.0064,-0.0117 -0.01254,-0.0236 -0.01854,-0.0356 -0.0049,-0.01 -0.01168,-0.0237 -0.01656,-0.0335 -0.136369,-0.25216 -0.24907,-0.54251 -0.343407,-0.89888 0,0 -0.0027,-0.0102 -0.0027,-0.0102 -0.07651,-0.29109 -0.132005,-0.58814 -0.193323,-0.95472 -9.15e-4,-0.005 -0.0021,-0.0109 -0.0037,-0.0162 -0.0073,-0.0242 -0.01283,-0.0519 -0.01692,-0.0846 -0.0039,-0.0314 -0.0062,-0.0642 -0.0084,-0.10198 -0.002,-0.0341 -0.004,-0.0751 -0.0076,-0.1136 -0.0035,-0.0382 -0.009,-0.08 -0.01934,-0.12163 -0.0083,-0.0333 -0.01758,-0.0674 -0.03821,-0.0948 -0.01031,-0.0137 -0.02324,-0.0256 -0.03821,-0.034 -0.01497,-0.008 -0.03194,-0.0133 -0.0491,-0.0138 -0.01716,-5.7e-4 -0.03442,0.003 -0.04988,0.0107 -0.01546,0.007 -0.02908,0.0185 -0.04012,0.0317 -0.02207,0.0263 -0.03283,0.06 -0.04237,0.093 -0.134884,0.46633 -0.242466,0.95138 -0.314305,1.45105 -0.03216,0.18711 -0.04864,0.38383 -0.06747,0.56428 -0.01997,0.19137 -0.04273,0.3673 -0.08699,0.53792 l 0.0115,-0.028 c -0.0023,0.004 -0.0038,0.006 -0.0037,0.007 2.3e-5,2.2e-4 0.0016,-0.002 0.0057,-0.004 0.0042,-0.003 0.01059,-0.006 0.01926,-0.009 0.0089,-0.003 0.01829,-0.003 0.02737,-0.003 0.0089,8e-4 0.01598,0.003 0.02077,0.005 0.0047,0.002 0.0074,0.004 0.0083,0.005 0.002,0.002 -0.0019,-7.3e-4 -0.0069,-0.007 -0.0053,-0.006 -0.01151,-0.0149 -0.01819,-0.0256 -0.0068,-0.0109 -0.01351,-0.023 -0.01993,-0.0354 -0.0066,-0.0127 -0.01278,-0.0255 -0.01832,-0.0373 -0.0058,-0.0123 -0.01086,-0.0235 -0.01548,-0.0334 -0.03831,-0.0922 -0.07352,-0.18396 -0.104789,-0.27076 -0.105583,-0.29303 -0.187671,-0.58754 -0.253498,-0.87121 -0.253414,-1.18241 -0.559344,-2.15773 -0.663943,-2.66155 a 0.10986696,0.10986696 90 0 0 -0.215146,0.0447 z"
       id="path-1"
       inkscape:path-effect="#path-effect358;#path-effect360"
       inkscape:original-d="m -16.944596,150.01962 c 0.157297,0.76533 0.394894,1.51665 0.576677,2.27858 0.06991,0.29303 0.128458,0.58872 0.218229,0.87668 0.03571,0.11454 0.24371,0.82324 0.364373,0.87127 0.07376,0.0294 0.09148,-0.11808 0.0948,-0.13217 0.05658,-0.24056 0.07085,-0.49464 0.102696,-0.7391 0.05446,-0.41807 0.127806,-0.82641 0.226129,-1.23621 0.002,-0.008 0.132068,-0.48887 0.133307,-0.48824 0.04374,0.0222 0.0051,0.098 0.0099,0.14682 0.01092,0.11165 0.04096,0.29987 0.05727,0.3946 0.0921,0.53489 0.208892,1.12757 0.449295,1.61693 0.08953,0.18225 0.198736,0.42919 0.301175,0.36801 0.06033,-0.036 0.08985,-0.42671 0.107634,-0.53949 0.0075,-0.0477 0.08983,-0.57187 0.11257,-0.69671 0.08172,-0.44865 0.1267,-0.71025 0.228104,-1.12754 0.14598,-0.60073 0.316433,-1.2001 0.527304,-1.78148"
       style="fill:#000000;fill-rule:nonzero;stroke:none" />
  </g>
</svg>
