<?xml version="1.0" encoding="UTF-8" standalone="no"?>
<!-- Created with Inkscape (http://www.inkscape.org/) -->

<svg
   width="4mm"
   height="10mm"
   viewBox="0 0 4.0000001 9.9999994"
   version="1.1"
   id="svg1681"
   inkscape:version="1.2.1 (9c6d41e410, 2022-07-14)"
   sodipodi:docname="lower_w_10.svg"
   inkscape:export-filename="..\..\..\..\Downloads\lower a diff canvas resize 3.0.png"
   inkscape:export-xdpi="96"
   inkscape:export-ydpi="96"
   xmlns:inkscape="http://www.inkscape.org/namespaces/inkscape"
   xmlns:sodipodi="http://sodipodi.sourceforge.net/DTD/sodipodi-0.dtd"
   xmlns="http://www.w3.org/2000/svg"
   xmlns:svg="http://www.w3.org/2000/svg"
   xmlns:rdf="http://www.w3.org/1999/02/22-rdf-syntax-ns#"
   xmlns:cc="http://creativecommons.org/ns#"
   xmlns:dc="http://purl.org/dc/elements/1.1/">
  <defs
     id="defs1675">
    <inkscape:path-effect
       effect="powerstroke"
       id="path-effect816"
       is_visible="true"
       lpeversion="1"
       offset_points="1.7760088,0.11794181 | 7.2271249,0.1446133 | 8.6058021,0.11622897 | 9.59922,0.13237867"
       not_jump="true"
       sort_points="true"
       interpolator_type="CentripetalCatmullRom"
       interpolator_beta="0.75"
       start_linecap_type="round"
       linejoin_type="spiro"
       miter_limit="4"
       scale_width="1"
       end_linecap_type="round" />
    <inkscape:path-effect
       effect="simplify"
       id="path-effect814"
       is_visible="true"
       lpeversion="1"
       steps="1"
       threshold="0.0047745358"
       smooth_angles="0"
       helper_size="0"
       simplify_individual_paths="false"
       simplify_just_coalesce="false"
       step="1" />
    <inkscape:path-effect
       effect="powerstroke"
       id="path-effect752"
       is_visible="true"
       lpeversion="1"
       offset_points="1.7691594,0.10717534 | 8.6793273,0.13776191 | 11.46635,0.15758201"
       not_jump="true"
       sort_points="true"
       interpolator_type="CentripetalCatmullRom"
       interpolator_beta="0.75"
       start_linecap_type="round"
       linejoin_type="spiro"
       miter_limit="4"
       scale_width="1"
       end_linecap_type="round" />
    <inkscape:path-effect
       effect="simplify"
       id="path-effect750"
       is_visible="true"
       lpeversion="1"
       steps="1"
       threshold="0.0047745358"
       smooth_angles="0"
       helper_size="0"
       simplify_individual_paths="false"
       simplify_just_coalesce="false"
       step="1" />
    <inkscape:path-effect
       effect="powerstroke"
       id="path-effect690"
       is_visible="true"
       lpeversion="1"
       offset_points="1.7185405,0.12038874 | 8.7272124,0.15244346 | 10.300486,0.1348256"
       not_jump="true"
       sort_points="true"
       interpolator_type="CentripetalCatmullRom"
       interpolator_beta="0.75"
       start_linecap_type="round"
       linejoin_type="spiro"
       miter_limit="4"
       scale_width="1"
       end_linecap_type="round" />
    <inkscape:path-effect
       effect="simplify"
       id="path-effect688"
       is_visible="true"
       lpeversion="1"
       steps="1"
       threshold="0.0047745358"
       smooth_angles="0"
       helper_size="0"
       simplify_individual_paths="false"
       simplify_just_coalesce="false"
       step="1" />
    <inkscape:path-effect
       effect="powerstroke"
       id="path-effect630"
       is_visible="true"
       lpeversion="1"
       offset_points="2.6369921,0.11965466 | 7.546399,0.15268816 | 8.7564688,0.13066583"
       not_jump="true"
       sort_points="true"
       interpolator_type="CentripetalCatmullRom"
       interpolator_beta="0.75"
       start_linecap_type="round"
       linejoin_type="spiro"
       miter_limit="4"
       scale_width="1"
       end_linecap_type="round" />
    <inkscape:path-effect
       effect="simplify"
       id="path-effect628"
       is_visible="true"
       lpeversion="1"
       steps="1"
       threshold="0.0047745358"
       smooth_angles="0"
       helper_size="0"
       simplify_individual_paths="false"
       simplify_just_coalesce="false"
       step="1" />
    <inkscape:path-effect
       effect="powerstroke"
       id="path-effect572"
       is_visible="true"
       lpeversion="1"
       offset_points="1.8843702,0.10032395 | 8.4202101,0.12870829"
       not_jump="true"
       sort_points="true"
       interpolator_type="CentripetalCatmullRom"
       interpolator_beta="0.75"
       start_linecap_type="round"
       linejoin_type="spiro"
       miter_limit="4"
       scale_width="1"
       end_linecap_type="round" />
    <inkscape:path-effect
       effect="simplify"
       id="path-effect570"
       is_visible="true"
       lpeversion="1"
       steps="1"
       threshold="0.0047745358"
       smooth_angles="0"
       helper_size="0"
       simplify_individual_paths="false"
       simplify_just_coalesce="false"
       step="1" />
    <inkscape:path-effect
       effect="powerstroke"
       id="path-effect516"
       is_visible="true"
       lpeversion="1"
       offset_points="2.2083742,0.10644126"
       not_jump="true"
       sort_points="true"
       interpolator_type="CentripetalCatmullRom"
       interpolator_beta="0.75"
       start_linecap_type="round"
       linejoin_type="spiro"
       miter_limit="4"
       scale_width="1"
       end_linecap_type="round" />
    <inkscape:path-effect
       effect="simplify"
       id="path-effect514"
       is_visible="true"
       lpeversion="1"
       steps="1"
       threshold="0.0047745358"
       smooth_angles="0"
       helper_size="0"
       simplify_individual_paths="false"
       simplify_just_coalesce="false"
       step="1" />
    <inkscape:path-effect
       effect="powerstroke"
       id="path-effect462"
       is_visible="true"
       lpeversion="1"
       offset_points="1.7675555,0.11476081 | 7.4858936,0.13727253 | 10.223648,0.15611385"
       not_jump="true"
       sort_points="true"
       interpolator_type="CentripetalCatmullRom"
       interpolator_beta="0.75"
       start_linecap_type="round"
       linejoin_type="spiro"
       miter_limit="4"
       scale_width="1"
       end_linecap_type="round" />
    <inkscape:path-effect
       effect="simplify"
       id="path-effect460"
       is_visible="true"
       lpeversion="1"
       steps="1"
       threshold="0.0047745358"
       smooth_angles="0"
       helper_size="0"
       simplify_individual_paths="false"
       simplify_just_coalesce="false"
       step="1" />
    <inkscape:path-effect
       effect="powerstroke"
       id="path-effect410"
       is_visible="true"
       lpeversion="1"
       offset_points="1.3069255,0.10130272 | 7.4061505,0.11720774"
       not_jump="true"
       sort_points="true"
       interpolator_type="CentripetalCatmullRom"
       interpolator_beta="0.75"
       start_linecap_type="round"
       linejoin_type="spiro"
       miter_limit="4"
       scale_width="1"
       end_linecap_type="round" />
    <inkscape:path-effect
       effect="simplify"
       id="path-effect408"
       is_visible="true"
       lpeversion="1"
       steps="1"
       threshold="0.0047745358"
       smooth_angles="0"
       helper_size="0"
       simplify_individual_paths="false"
       simplify_just_coalesce="false"
       step="1" />
    <inkscape:path-effect
       effect="powerstroke"
       id="path-effect360"
       is_visible="true"
       lpeversion="1"
       offset_points="1.7549587,0.10986696 | 6.4945854,0.13947476 | 8.1439231,0.12381443"
       not_jump="true"
       sort_points="true"
       interpolator_type="CentripetalCatmullRom"
       interpolator_beta="0.75"
       start_linecap_type="round"
       linejoin_type="spiro"
       miter_limit="4"
       scale_width="1"
       end_linecap_type="round" />
    <inkscape:path-effect
       effect="simplify"
       id="path-effect358"
       is_visible="true"
       lpeversion="1"
       steps="1"
       threshold="0.0047745358"
       smooth_angles="0"
       helper_size="0"
       simplify_individual_paths="false"
       simplify_just_coalesce="false"
       step="1" />
    <inkscape:path-effect
       effect="powerstroke"
       id="path-effect312"
       is_visible="true"
       lpeversion="1"
       offset_points="1.3996183,0.096408868"
       not_jump="true"
       sort_points="true"
       interpolator_type="CentripetalCatmullRom"
       interpolator_beta="0.75"
       start_linecap_type="round"
       linejoin_type="spiro"
       miter_limit="4"
       scale_width="1"
       end_linecap_type="round" />
    <inkscape:path-effect
       effect="simplify"
       id="path-effect310"
       is_visible="true"
       lpeversion="1"
       steps="1"
       threshold="0.0047745358"
       smooth_angles="0"
       helper_size="0"
       simplify_individual_paths="false"
       simplify_just_coalesce="false"
       step="1" />
    <inkscape:path-effect
       effect="powerstroke"
       id="path-effect305"
       is_visible="true"
       lpeversion="1"
       offset_points="1.530989,0.094206635 | 9.5526397,0.12699544"
       not_jump="true"
       sort_points="true"
       interpolator_type="CentripetalCatmullRom"
       interpolator_beta="0.75"
       start_linecap_type="round"
       linejoin_type="spiro"
       miter_limit="4"
       scale_width="1"
       end_linecap_type="round" />
    <inkscape:path-effect
       effect="simplify"
       id="path-effect303"
       is_visible="true"
       lpeversion="1"
       steps="1"
       threshold="0.0047745358"
       smooth_angles="0"
       helper_size="0"
       simplify_individual_paths="false"
       simplify_just_coalesce="false"
       step="1" />
    <inkscape:path-effect
       effect="powerstroke"
       id="path-effect298"
       is_visible="true"
       lpeversion="1"
       offset_points="1.3734686,0.11280327 | 8.9058734,0.14412392"
       not_jump="true"
       sort_points="true"
       interpolator_type="CentripetalCatmullRom"
       interpolator_beta="0.75"
       start_linecap_type="round"
       linejoin_type="spiro"
       miter_limit="4"
       scale_width="1"
       end_linecap_type="round" />
    <inkscape:path-effect
       effect="simplify"
       id="path-effect296"
       is_visible="true"
       lpeversion="1"
       steps="1"
       threshold="0.0047745358"
       smooth_angles="0"
       helper_size="0"
       simplify_individual_paths="false"
       simplify_just_coalesce="false"
       step="1" />
    <inkscape:path-effect
       effect="powerstroke"
       id="path-effect1424"
       is_visible="true"
       lpeversion="1"
       offset_points="3.2337937,0.1081348 | 7.9295992,0.12199285"
       not_jump="true"
       sort_points="true"
       interpolator_type="CentripetalCatmullRom"
       interpolator_beta="0.75"
       start_linecap_type="round"
       linejoin_type="spiro"
       miter_limit="4"
       scale_width="1"
       end_linecap_type="round" />
    <inkscape:path-effect
       effect="simplify"
       id="path-effect1422"
       is_visible="true"
       lpeversion="1"
       steps="1"
       threshold="0.0035951417"
       smooth_angles="0"
       helper_size="0"
       simplify_individual_paths="false"
       simplify_just_coalesce="false"
       step="1" />
    <inkscape:path-effect
       effect="powerstroke"
       id="path-effect502"
       is_visible="true"
       lpeversion="1"
       offset_points="3.0091841,0.21607495 | 7.3602657,0.17554228 | 9.4159651,0.20236537"
       not_jump="true"
       sort_points="true"
       interpolator_type="CentripetalCatmullRom"
       interpolator_beta="0.75"
       start_linecap_type="round"
       linejoin_type="spiro"
       miter_limit="4"
       scale_width="1"
       end_linecap_type="round" />
    <inkscape:path-effect
       effect="simplify"
       id="path-effect500"
       is_visible="true"
       lpeversion="1"
       steps="1"
       threshold="0.0035951417"
       smooth_angles="0"
       helper_size="0"
       simplify_individual_paths="false"
       simplify_just_coalesce="false"
       step="1" />
    <inkscape:path-effect
       effect="powerstroke"
       id="path-effect241"
       is_visible="true"
       lpeversion="1"
       offset_points="2.6879454,0.34086734"
       not_jump="true"
       sort_points="true"
       interpolator_type="CentripetalCatmullRom"
       interpolator_beta="0.75"
       start_linecap_type="round"
       linejoin_type="spiro"
       miter_limit="4"
       scale_width="1"
       end_linecap_type="round" />
    <inkscape:path-effect
       effect="simplify"
       id="path-effect239"
       is_visible="true"
       lpeversion="1"
       steps="1"
       threshold="0.0028332064"
       smooth_angles="0"
       helper_size="0"
       simplify_individual_paths="false"
       simplify_just_coalesce="false"
       step="1" />
    <inkscape:path-effect
       effect="powerstroke"
       id="path-effect234"
       is_visible="true"
       lpeversion="1"
       offset_points="2.13563,0.075169555"
       not_jump="true"
       sort_points="true"
       interpolator_type="CentripetalCatmullRom"
       interpolator_beta="0.75"
       start_linecap_type="round"
       linejoin_type="spiro"
       miter_limit="4"
       scale_width="1"
       end_linecap_type="round" />
    <inkscape:path-effect
       effect="simplify"
       id="path-effect232"
       is_visible="true"
       lpeversion="1"
       steps="1"
       threshold="0.0028332064"
       smooth_angles="0"
       helper_size="0"
       simplify_individual_paths="false"
       simplify_just_coalesce="false"
       step="1" />
    <inkscape:path-effect
       effect="powerstroke"
       id="path-effect227"
       is_visible="true"
       lpeversion="1"
       offset_points="2.1868266,0.075169555"
       not_jump="true"
       sort_points="true"
       interpolator_type="CentripetalCatmullRom"
       interpolator_beta="0.75"
       start_linecap_type="round"
       linejoin_type="spiro"
       miter_limit="4"
       scale_width="1"
       end_linecap_type="round" />
    <inkscape:path-effect
       effect="simplify"
       id="path-effect225"
       is_visible="true"
       lpeversion="1"
       steps="1"
       threshold="0.0028332064"
       smooth_angles="0"
       helper_size="0"
       simplify_individual_paths="false"
       simplify_just_coalesce="false"
       step="1" />
    <inkscape:path-effect
       effect="powerstroke"
       id="path-effect166"
       is_visible="true"
       lpeversion="1"
       offset_points="1.9637935,0.075169555"
       not_jump="true"
       sort_points="true"
       interpolator_type="CentripetalCatmullRom"
       interpolator_beta="0.75"
       start_linecap_type="round"
       linejoin_type="spiro"
       miter_limit="4"
       scale_width="1"
       end_linecap_type="round" />
    <inkscape:path-effect
       effect="simplify"
       id="path-effect164"
       is_visible="true"
       lpeversion="1"
       steps="1"
       threshold="0.0028332064"
       smooth_angles="0"
       helper_size="0"
       simplify_individual_paths="false"
       simplify_just_coalesce="false"
       step="1" />
    <inkscape:path-effect
       effect="powerstroke"
       id="path-effect159"
       is_visible="true"
       lpeversion="1"
       offset_points="2.2611036,0.075169555"
       not_jump="true"
       sort_points="true"
       interpolator_type="CentripetalCatmullRom"
       interpolator_beta="0.75"
       start_linecap_type="round"
       linejoin_type="spiro"
       miter_limit="4"
       scale_width="1"
       end_linecap_type="round" />
    <inkscape:path-effect
       effect="simplify"
       id="path-effect157"
       is_visible="true"
       lpeversion="1"
       steps="1"
       threshold="0.0028332064"
       smooth_angles="0"
       helper_size="0"
       simplify_individual_paths="false"
       simplify_just_coalesce="false"
       step="1" />
    <inkscape:path-effect
       effect="powerstroke"
       id="path-effect152"
       is_visible="true"
       lpeversion="1"
       offset_points="2.826981,0.075169555"
       not_jump="true"
       sort_points="true"
       interpolator_type="CentripetalCatmullRom"
       interpolator_beta="0.75"
       start_linecap_type="round"
       linejoin_type="spiro"
       miter_limit="4"
       scale_width="1"
       end_linecap_type="round" />
    <inkscape:path-effect
       effect="simplify"
       id="path-effect150"
       is_visible="true"
       lpeversion="1"
       steps="1"
       threshold="0.0028332064"
       smooth_angles="0"
       helper_size="0"
       simplify_individual_paths="false"
       simplify_just_coalesce="false"
       step="1" />
    <inkscape:path-effect
       effect="powerstroke"
       id="path-effect145"
       is_visible="true"
       lpeversion="1"
       offset_points="3.8374447,0.075169555"
       not_jump="true"
       sort_points="true"
       interpolator_type="CentripetalCatmullRom"
       interpolator_beta="0.75"
       start_linecap_type="round"
       linejoin_type="spiro"
       miter_limit="4"
       scale_width="1"
       end_linecap_type="round" />
    <inkscape:path-effect
       effect="simplify"
       id="path-effect143"
       is_visible="true"
       lpeversion="1"
       steps="1"
       threshold="0.0028332064"
       smooth_angles="0"
       helper_size="0"
       simplify_individual_paths="false"
       simplify_just_coalesce="false"
       step="1" />
    <inkscape:path-effect
       effect="powerstroke"
       id="path-effect138"
       is_visible="true"
       lpeversion="1"
       offset_points="2.6880907,0.075169555"
       not_jump="true"
       sort_points="true"
       interpolator_type="CentripetalCatmullRom"
       interpolator_beta="0.75"
       start_linecap_type="round"
       linejoin_type="spiro"
       miter_limit="4"
       scale_width="1"
       end_linecap_type="round" />
    <inkscape:path-effect
       effect="simplify"
       id="path-effect136"
       is_visible="true"
       lpeversion="1"
       steps="1"
       threshold="0.0028332064"
       smooth_angles="0"
       helper_size="0"
       simplify_individual_paths="false"
       simplify_just_coalesce="false"
       step="1" />
    <inkscape:path-effect
       effect="powerstroke"
       id="path-effect131"
       is_visible="true"
       lpeversion="1"
       offset_points="1.9940581,0.075169555"
       not_jump="true"
       sort_points="true"
       interpolator_type="CentripetalCatmullRom"
       interpolator_beta="0.75"
       start_linecap_type="round"
       linejoin_type="spiro"
       miter_limit="4"
       scale_width="1"
       end_linecap_type="round" />
    <inkscape:path-effect
       effect="simplify"
       id="path-effect129"
       is_visible="true"
       lpeversion="1"
       steps="1"
       threshold="0.0028332064"
       smooth_angles="0"
       helper_size="0"
       simplify_individual_paths="false"
       simplify_just_coalesce="false"
       step="1" />
  </defs>
  <sodipodi:namedview
     id="base"
     pagecolor="#ffffff"
     bordercolor="#666666"
     borderopacity="1.0"
     inkscape:pageopacity="0.0"
     inkscape:pageshadow="2"
     inkscape:zoom="15.839192"
     inkscape:cx="1.3258252"
     inkscape:cy="16.351844"
     inkscape:document-units="mm"
     inkscape:current-layer="layer1"
     showgrid="false"
     fit-margin-top="0"
     fit-margin-left="0"
     fit-margin-right="0"
     fit-margin-bottom="0"
     inkscape:window-width="1920"
     inkscape:window-height="1057"
     inkscape:window-x="1072"
     inkscape:window-y="321"
     inkscape:window-maximized="1"
     showguides="true"
     inkscape:guide-bbox="true"
     inkscape:snap-bbox="true"
     inkscape:bbox-nodes="true"
     inkscape:snap-nodes="false"
     inkscape:snap-others="false"
     inkscape:snap-page="true"
     inkscape:snap-grids="false"
     inkscape:snap-to-guides="false"
     inkscape:snap-global="false"
     inkscape:pagecheckerboard="0"
     inkscape:showpageshadow="2"
     inkscape:deskcolor="#d1d1d1">
    <sodipodi:guide
       position="-6.1806075,9.4988692"
       orientation="0,1"
       id="guide816"
       inkscape:locked="false" />
    <sodipodi:guide
       position="-4.4101636,10.646923"
       orientation="0,1"
       id="guide818"
       inkscape:locked="false" />
    <sodipodi:guide
       position="2.7595724,11.09577"
       orientation="1,0"
       id="guide820"
       inkscape:locked="false" />
    <sodipodi:guide
       position="3.6572659,10.942217"
       orientation="1,0"
       id="guide822"
       inkscape:locked="false" />
    <sodipodi:guide
       position="-0.051625511,9.7492299"
       orientation="1,0"
       id="guide1853"
       inkscape:locked="false" />
    <sodipodi:guide
       position="-2.3720169,3.0175835"
       orientation="0,1"
       id="guide1855"
       inkscape:locked="false" />
    <sodipodi:guide
       position="2.6893996,7.3941215"
       orientation="0,-1"
       id="guide176"
       inkscape:locked="false" />
  </sodipodi:namedview>
  <metadata
     id="metadata1678">
    <rdf:RDF>
      <cc:Work
         rdf:about="">
        <dc:format>image/svg+xml</dc:format>
        <dc:type
           rdf:resource="http://purl.org/dc/dcmitype/StillImage" />
      </cc:Work>
    </rdf:RDF>
  </metadata>
  <g
     inkscape:label="Layer 1"
     inkscape:groupmode="layer"
     id="layer1"
     transform="translate(17.028496,-147.22856)">
    <path
       d="m -17.134366,150.80729 c 0.144943,0.60762 0.430323,1.58852 1.042248,2.82274 0.04833,0.0984 0.0979,0.2092 0.157498,0.32251 0.03141,0.0597 0.0659,0.12035 0.104959,0.17946 0.0295,0.0446 0.064,0.0921 0.104386,0.13928 0.02515,0.0263 0.05164,0.0482 0.08501,0.0615 0.01667,0.007 0.03545,0.0112 0.05586,0.0121 0.02016,8.4e-4 0.04001,-0.002 0.05882,-0.008 0.01824,-0.006 0.03396,-0.0152 0.04719,-0.0251 0.01288,-0.01 0.02354,-0.0203 0.0323,-0.0308 0.01676,-0.0199 0.02901,-0.0417 0.03812,-0.0612 0.009,-0.0194 0.01633,-0.0394 0.02233,-0.0585 0.0059,-0.0188 0.01084,-0.0376 0.01504,-0.0553 0.0041,-0.0173 0.0076,-0.0339 0.01057,-0.0485 0.0029,-0.0144 0.0053,-0.0267 0.0072,-0.0356 0.02536,-0.14181 0.03908,-0.27978 0.05486,-0.42168 0.01498,-0.13477 0.03129,-0.26724 0.06057,-0.39593 0.101408,-0.56213 0.240595,-1.12742 0.340964,-1.69342 4.24e-4,-0.002 6.61e-4,-0.005 8.01e-4,-0.007 1.4e-4,-0.002 4.39e-4,-0.005 9.33e-4,-0.007 4.07e-4,-0.002 0.0014,-0.008 0.0029,-0.015 0.0016,-0.007 0.0037,-0.0152 0.0061,-0.0231 0.0024,-0.008 0.005,-0.0151 0.0073,-0.0205 0.0023,-0.005 0.0044,-0.008 0.0032,-0.006 -4.51e-4,9.6e-4 -0.0022,0.004 -0.0059,0.009 -0.0033,0.004 -0.01106,0.0132 -0.02411,0.0221 -0.0068,0.005 -0.016,0.01 -0.02748,0.0141 -0.01169,0.004 -0.02569,0.008 -0.04146,0.008 -0.016,4.9e-4 -0.03185,-0.002 -0.04675,-0.007 -0.01477,-0.005 -0.02693,-0.0119 -0.03649,-0.019 -0.01834,-0.0136 -0.02811,-0.0282 -0.03217,-0.035 -0.0043,-0.007 -0.0064,-0.0128 -0.0066,-0.0132 -0.001,-0.002 0.0013,0.006 0.0032,0.0208 0.120253,0.71745 0.185762,1.17002 0.310638,1.72236 0.01934,0.0788 0.03583,0.14548 0.05397,0.21365 0.02452,0.0922 0.04955,0.17666 0.07747,0.25762 0.06129,0.17773 0.132679,0.32627 0.219811,0.45689 0.0026,0.004 0.0051,0.008 0.0078,0.0115 0.0028,0.004 0.006,0.007 0.0094,0.0103 0.01205,0.0114 0.02507,0.0222 0.03911,0.0316 0.01414,0.009 0.03122,0.0188 0.05098,0.0251 0.0205,0.007 0.04481,0.0102 0.07112,0.007 0.02707,-0.004 0.05055,-0.0145 0.06944,-0.0289 0.01825,-0.0138 0.03075,-0.0298 0.03923,-0.0436 0.0085,-0.0138 0.01438,-0.0275 0.01857,-0.0394 0.0081,-0.023 0.01267,-0.0472 0.01567,-0.0677 0.0026,-0.0177 0.0045,-0.036 0.006,-0.0533 2.85e-4,-0.003 5.58e-4,-0.006 8.22e-4,-0.009 0.0018,-0.0211 0.0032,-0.0404 0.0047,-0.0573 0.0016,-0.0183 0.0033,-0.0332 0.0053,-0.0444 9.94e-4,-0.006 0.002,-0.01 0.0029,-0.0126 7.4e-4,-0.002 0.0018,-0.004 0.0013,-3e-4 l 0.0053,-0.0277 c 0.02004,-0.22047 0.05796,-0.49137 0.121903,-0.78097 0.0321,-0.14537 0.0763,-0.31864 0.138865,-0.50758 0.192373,-0.61118 0.423436,-1.24589 0.70554,-1.89232 0.08822,-0.20945 0.167554,-0.39987 0.204985,-0.48994 a 0.13237867,0.13237867 90 0 0 -0.244484,-0.1016 c -0.0518,0.12463 -0.102707,0.24217 -0.206834,0.48538 -0.286476,0.65368 -0.522051,1.29914 -0.714785,1.91636 -0.06487,0.19812 -0.110313,0.38122 -0.142165,0.53421 -0.06372,0.30607 -0.09032,0.58402 -0.103691,0.81503 -4.28e-4,0.003 -7.99e-4,0.005 -0.0011,0.008 -0.0012,0.009 -0.0021,0.0189 -0.0028,0.028 -0.0013,0.017 -0.0021,0.0367 -0.003,0.0547 -8.66e-4,0.0175 -0.0019,0.0358 -0.0034,0.0533 -2.27e-4,0.003 -4.67e-4,0.005 -7.19e-4,0.008 -0.0014,0.0142 -0.0031,0.0265 -0.0052,0.0366 -0.0025,0.012 -0.0057,0.0204 -0.0066,0.0206 -4.62e-4,10e-5 -2.94e-4,-0.002 0.0024,-0.007 0.0025,-0.005 0.0081,-0.013 0.01887,-0.0214 0.01137,-0.009 0.02651,-0.0162 0.0443,-0.0189 0.01711,-0.003 0.03131,-1.8e-4 0.0406,0.002 0.0091,0.003 0.01331,0.005 0.01449,0.005 0.0011,8e-5 -5.1e-4,-0.002 -0.004,-0.006 l 0.01719,0.0218 c -0.06579,-0.11339 -0.119859,-0.24471 -0.169325,-0.4076 -0.02274,-0.0749 -0.04368,-0.15343 -0.0658,-0.24246 -0.01693,-0.0681 -0.03114,-0.12863 -0.04998,-0.20774 -0.122793,-0.55352 -0.182424,-0.96842 -0.308652,-1.70011 -0.0029,-0.0202 -0.0079,-0.0456 -0.01592,-0.0688 -0.004,-0.0116 -0.0097,-0.0257 -0.01825,-0.0401 -0.0081,-0.0137 -0.02203,-0.0333 -0.04469,-0.0501 -0.0117,-0.009 -0.02602,-0.0168 -0.04298,-0.0224 -0.01709,-0.006 -0.03513,-0.008 -0.05336,-0.008 -0.01799,5.5e-4 -0.03421,0.004 -0.04815,0.009 -0.01372,0.005 -0.02513,0.0114 -0.03422,0.0176 -0.01753,0.0119 -0.0298,0.0252 -0.03764,0.035 -0.0081,0.0101 -0.01444,0.0201 -0.01924,0.0286 -0.0094,0.0166 -0.01656,0.0338 -0.02199,0.0489 -0.0056,0.0154 -0.01031,0.0313 -0.01424,0.0468 -0.0039,0.0153 -0.0072,0.0311 -0.0098,0.0464 -0.0021,0.0129 -0.0039,0.0266 -0.0049,0.0403 -0.09324,0.54802 -0.231671,1.13454 -0.324477,1.68218 -0.02926,0.13989 -0.04421,0.2857 -0.05678,0.42082 -0.01361,0.14623 -0.02406,0.27406 -0.04507,0.40436 -0.0015,0.01 -0.0032,0.0217 -0.0053,0.0344 -0.0021,0.0131 -0.0044,0.0265 -0.0071,0.0399 -0.0027,0.0137 -0.0057,0.0266 -0.0089,0.0383 -0.0034,0.0122 -0.0066,0.0215 -0.0094,0.0285 -0.003,0.007 -0.0046,0.009 -0.0029,0.008 9.71e-4,-0.001 0.0036,-0.004 0.0079,-0.007 0.0045,-0.003 0.01118,-0.007 0.01991,-0.0101 0.0091,-0.003 0.01887,-0.004 0.02851,-0.004 0.0097,4.6e-4 0.01726,0.003 0.02232,0.005 0.0092,0.004 0.01012,0.007 0.0027,4e-5 -0.02822,-0.0324 -0.05716,-0.0713 -0.08267,-0.10933 -0.03377,-0.0503 -0.06451,-0.1035 -0.0937,-0.15847 -0.05518,-0.10394 -0.104322,-0.2131 -0.155071,-0.31647 -0.602612,-1.21569 -0.88114,-2.17968 -1.02287,-2.77383 a 0.11794181,0.11794181 90 0 0 -0.229446,0.0547 z"
       id="path-1"
       inkscape:path-effect="#path-effect814;#path-effect816"
       inkscape:original-d="m -17.019643,150.77992 c 0.220761,0.92059 0.557237,1.82801 0.975611,2.6778 0.07431,0.15094 0.306716,0.69047 0.45127,0.76955 0.127217,0.0696 0.162898,-0.65442 0.175768,-0.74103 0.08224,-0.55341 0.208993,-1.09807 0.31895,-1.64622 0.01333,-0.0664 0.0837,-0.52769 0.117507,-0.51174 0.03433,0.0162 0.0661,0.314 0.08492,0.41772 0.108875,0.60001 0.190479,1.20443 0.364373,1.79033 0.0216,0.0728 0.188508,0.55219 0.275502,0.51946 0.03333,-0.0126 0.06022,-0.38066 0.07801,-0.55105 0.02073,-0.19861 0.06832,-0.46704 0.110596,-0.63892 0.08912,-0.3623 0.244608,-0.8072 0.36536,-1.15489 0.194935,-0.5613 0.439727,-1.10236 0.667524,-1.65046"
       style="fill:#000000;fill-rule:nonzero;stroke:none" />
  </g>
</svg>
