<?xml version="1.0" encoding="UTF-8" standalone="no"?>
<!-- Created with Inkscape (http://www.inkscape.org/) -->

<svg
   width="3mm"
   height="10mm"
   viewBox="0 0 3.0000001 9.9999994"
   version="1.1"
   id="svg1681"
   inkscape:version="1.2.1 (9c6d41e410, 2022-07-14)"
   sodipodi:docname="number_three_4.svg"
   inkscape:export-filename="..\..\..\..\Downloads\lower a diff canvas resize 3.0.png"
   inkscape:export-xdpi="96"
   inkscape:export-ydpi="96"
   xmlns:inkscape="http://www.inkscape.org/namespaces/inkscape"
   xmlns:sodipodi="http://sodipodi.sourceforge.net/DTD/sodipodi-0.dtd"
   xmlns="http://www.w3.org/2000/svg"
   xmlns:svg="http://www.w3.org/2000/svg"
   xmlns:rdf="http://www.w3.org/1999/02/22-rdf-syntax-ns#"
   xmlns:cc="http://creativecommons.org/ns#"
   xmlns:dc="http://purl.org/dc/elements/1.1/">
  <defs
     id="defs1675">
    <inkscape:path-effect
       effect="powerstroke"
       id="path-effect474"
       is_visible="true"
       lpeversion="1"
       offset_points="2.0198687,0.14499392 | 8.6071461,0.21939414"
       not_jump="true"
       sort_points="true"
       interpolator_type="CentripetalCatmullRom"
       interpolator_beta="0.75"
       start_linecap_type="round"
       linejoin_type="spiro"
       miter_limit="4"
       scale_width="1"
       end_linecap_type="round" />
    <inkscape:path-effect
       effect="simplify"
       id="path-effect472"
       is_visible="true"
       lpeversion="1"
       steps="1"
       threshold="0.0047745358"
       smooth_angles="0"
       helper_size="0"
       simplify_individual_paths="false"
       simplify_just_coalesce="false"
       step="1" />
    <inkscape:path-effect
       effect="powerstroke"
       id="path-effect419"
       is_visible="true"
       lpeversion="1"
       offset_points="2.2202668,0.15122277 | 9.8410198,0.23704256"
       not_jump="true"
       sort_points="true"
       interpolator_type="CentripetalCatmullRom"
       interpolator_beta="0.75"
       start_linecap_type="round"
       linejoin_type="spiro"
       miter_limit="4"
       scale_width="1"
       end_linecap_type="round" />
    <inkscape:path-effect
       effect="simplify"
       id="path-effect417"
       is_visible="true"
       lpeversion="1"
       steps="1"
       threshold="0.0047745358"
       smooth_angles="0"
       helper_size="0"
       simplify_individual_paths="false"
       simplify_just_coalesce="false"
       step="1" />
    <inkscape:path-effect
       effect="powerstroke"
       id="path-effect366"
       is_visible="true"
       lpeversion="1"
       offset_points="1.9845998,0.16921725 | 10.73971,0.21697181"
       not_jump="true"
       sort_points="true"
       interpolator_type="CentripetalCatmullRom"
       interpolator_beta="0.75"
       start_linecap_type="round"
       linejoin_type="spiro"
       miter_limit="4"
       scale_width="1"
       end_linecap_type="round" />
    <inkscape:path-effect
       effect="simplify"
       id="path-effect364"
       is_visible="true"
       lpeversion="1"
       steps="1"
       threshold="0.0047745358"
       smooth_angles="0"
       helper_size="0"
       simplify_individual_paths="false"
       simplify_just_coalesce="false"
       step="1" />
    <inkscape:path-effect
       effect="powerstroke"
       id="path-effect315"
       is_visible="true"
       lpeversion="1"
       offset_points="1.5314103,0.14395578 | 10.630337,0.19517081"
       not_jump="true"
       sort_points="true"
       interpolator_type="CentripetalCatmullRom"
       interpolator_beta="0.75"
       start_linecap_type="round"
       linejoin_type="spiro"
       miter_limit="4"
       scale_width="1"
       end_linecap_type="round" />
    <inkscape:path-effect
       effect="simplify"
       id="path-effect313"
       is_visible="true"
       lpeversion="1"
       steps="1"
       threshold="0.0047745358"
       smooth_angles="0"
       helper_size="0"
       simplify_individual_paths="false"
       simplify_just_coalesce="false"
       step="1" />
    <inkscape:path-effect
       effect="powerstroke"
       id="path-effect266"
       is_visible="true"
       lpeversion="1"
       offset_points="3.3464262,0.20901271 | 6.1472519,0.17129353 | 9.4944218,0.23565837"
       not_jump="true"
       sort_points="true"
       interpolator_type="CentripetalCatmullRom"
       interpolator_beta="0.75"
       start_linecap_type="round"
       linejoin_type="spiro"
       miter_limit="4"
       scale_width="1"
       end_linecap_type="round" />
    <inkscape:path-effect
       effect="simplify"
       id="path-effect264"
       is_visible="true"
       lpeversion="1"
       steps="1"
       threshold="0.0047745358"
       smooth_angles="0"
       helper_size="0"
       simplify_individual_paths="false"
       simplify_just_coalesce="false"
       step="1" />
    <inkscape:path-effect
       effect="powerstroke"
       id="path-effect156"
       is_visible="true"
       lpeversion="1"
       offset_points="2.1293113,0.10771485 | 6.2797208,0.16002761 | 8.6828585,0.12995807"
       not_jump="true"
       sort_points="true"
       interpolator_type="CentripetalCatmullRom"
       interpolator_beta="0.75"
       start_linecap_type="round"
       linejoin_type="spiro"
       miter_limit="4"
       scale_width="1"
       end_linecap_type="round" />
    <inkscape:path-effect
       effect="simplify"
       id="path-effect154"
       is_visible="true"
       lpeversion="1"
       steps="1"
       threshold="0.0035951417"
       smooth_angles="0"
       helper_size="0"
       simplify_individual_paths="false"
       simplify_just_coalesce="false"
       step="1" />
    <inkscape:path-effect
       effect="powerstroke"
       id="path-effect761"
       is_visible="true"
       lpeversion="1"
       offset_points="1.6544832,0.13270827 | 4.2861611,0.17374574 | 6.9701576,0.090445786 | 8.1533155,0.13903742"
       not_jump="true"
       sort_points="true"
       interpolator_type="CentripetalCatmullRom"
       interpolator_beta="0.75"
       start_linecap_type="round"
       linejoin_type="spiro"
       miter_limit="4"
       scale_width="1"
       end_linecap_type="round" />
    <inkscape:path-effect
       effect="simplify"
       id="path-effect759"
       is_visible="true"
       lpeversion="1"
       steps="1"
       threshold="0.0035951417"
       smooth_angles="0"
       helper_size="0"
       simplify_individual_paths="false"
       simplify_just_coalesce="false"
       step="1" />
    <inkscape:path-effect
       effect="powerstroke"
       id="path-effect754"
       is_visible="true"
       lpeversion="1"
       offset_points="2.7653669,0.1256741 | 8.5006017,0.094696019 | 9.7773195,0.10893713"
       not_jump="true"
       sort_points="true"
       interpolator_type="CentripetalCatmullRom"
       interpolator_beta="0.75"
       start_linecap_type="round"
       linejoin_type="spiro"
       miter_limit="4"
       scale_width="1"
       end_linecap_type="round" />
    <inkscape:path-effect
       effect="simplify"
       id="path-effect752"
       is_visible="true"
       lpeversion="1"
       steps="1"
       threshold="0.0035951417"
       smooth_angles="0"
       helper_size="0"
       simplify_individual_paths="false"
       simplify_just_coalesce="false"
       step="1" />
    <inkscape:path-effect
       effect="powerstroke"
       id="path-effect747"
       is_visible="true"
       lpeversion="1"
       offset_points="4.6226475,0.10834986 | 8.8729615,0.084125301 | 10.351846,0.098806854"
       not_jump="true"
       sort_points="true"
       interpolator_type="CentripetalCatmullRom"
       interpolator_beta="0.75"
       start_linecap_type="round"
       linejoin_type="spiro"
       miter_limit="4"
       scale_width="1"
       end_linecap_type="round" />
    <inkscape:path-effect
       effect="simplify"
       id="path-effect745"
       is_visible="true"
       lpeversion="1"
       steps="1"
       threshold="0.0035951417"
       smooth_angles="0"
       helper_size="0"
       simplify_individual_paths="false"
       simplify_just_coalesce="false"
       step="1" />
    <inkscape:path-effect
       effect="powerstroke"
       id="path-effect502"
       is_visible="true"
       lpeversion="1"
       offset_points="3.0091841,0.21607495 | 7.3602657,0.17554228 | 9.4159651,0.20236537"
       not_jump="true"
       sort_points="true"
       interpolator_type="CentripetalCatmullRom"
       interpolator_beta="0.75"
       start_linecap_type="round"
       linejoin_type="spiro"
       miter_limit="4"
       scale_width="1"
       end_linecap_type="round" />
    <inkscape:path-effect
       effect="simplify"
       id="path-effect500"
       is_visible="true"
       lpeversion="1"
       steps="1"
       threshold="0.0035951417"
       smooth_angles="0"
       helper_size="0"
       simplify_individual_paths="false"
       simplify_just_coalesce="false"
       step="1" />
    <inkscape:path-effect
       effect="powerstroke"
       id="path-effect241"
       is_visible="true"
       lpeversion="1"
       offset_points="2.6879454,0.34086734"
       not_jump="true"
       sort_points="true"
       interpolator_type="CentripetalCatmullRom"
       interpolator_beta="0.75"
       start_linecap_type="round"
       linejoin_type="spiro"
       miter_limit="4"
       scale_width="1"
       end_linecap_type="round" />
    <inkscape:path-effect
       effect="simplify"
       id="path-effect239"
       is_visible="true"
       lpeversion="1"
       steps="1"
       threshold="0.0028332064"
       smooth_angles="0"
       helper_size="0"
       simplify_individual_paths="false"
       simplify_just_coalesce="false"
       step="1" />
    <inkscape:path-effect
       effect="powerstroke"
       id="path-effect234"
       is_visible="true"
       lpeversion="1"
       offset_points="2.13563,0.075169555"
       not_jump="true"
       sort_points="true"
       interpolator_type="CentripetalCatmullRom"
       interpolator_beta="0.75"
       start_linecap_type="round"
       linejoin_type="spiro"
       miter_limit="4"
       scale_width="1"
       end_linecap_type="round" />
    <inkscape:path-effect
       effect="simplify"
       id="path-effect232"
       is_visible="true"
       lpeversion="1"
       steps="1"
       threshold="0.0028332064"
       smooth_angles="0"
       helper_size="0"
       simplify_individual_paths="false"
       simplify_just_coalesce="false"
       step="1" />
    <inkscape:path-effect
       effect="powerstroke"
       id="path-effect227"
       is_visible="true"
       lpeversion="1"
       offset_points="2.1868266,0.075169555"
       not_jump="true"
       sort_points="true"
       interpolator_type="CentripetalCatmullRom"
       interpolator_beta="0.75"
       start_linecap_type="round"
       linejoin_type="spiro"
       miter_limit="4"
       scale_width="1"
       end_linecap_type="round" />
    <inkscape:path-effect
       effect="simplify"
       id="path-effect225"
       is_visible="true"
       lpeversion="1"
       steps="1"
       threshold="0.0028332064"
       smooth_angles="0"
       helper_size="0"
       simplify_individual_paths="false"
       simplify_just_coalesce="false"
       step="1" />
    <inkscape:path-effect
       effect="powerstroke"
       id="path-effect166"
       is_visible="true"
       lpeversion="1"
       offset_points="1.9637935,0.075169555"
       not_jump="true"
       sort_points="true"
       interpolator_type="CentripetalCatmullRom"
       interpolator_beta="0.75"
       start_linecap_type="round"
       linejoin_type="spiro"
       miter_limit="4"
       scale_width="1"
       end_linecap_type="round" />
    <inkscape:path-effect
       effect="simplify"
       id="path-effect164"
       is_visible="true"
       lpeversion="1"
       steps="1"
       threshold="0.0028332064"
       smooth_angles="0"
       helper_size="0"
       simplify_individual_paths="false"
       simplify_just_coalesce="false"
       step="1" />
    <inkscape:path-effect
       effect="powerstroke"
       id="path-effect159"
       is_visible="true"
       lpeversion="1"
       offset_points="2.2611036,0.075169555"
       not_jump="true"
       sort_points="true"
       interpolator_type="CentripetalCatmullRom"
       interpolator_beta="0.75"
       start_linecap_type="round"
       linejoin_type="spiro"
       miter_limit="4"
       scale_width="1"
       end_linecap_type="round" />
    <inkscape:path-effect
       effect="simplify"
       id="path-effect157"
       is_visible="true"
       lpeversion="1"
       steps="1"
       threshold="0.0028332064"
       smooth_angles="0"
       helper_size="0"
       simplify_individual_paths="false"
       simplify_just_coalesce="false"
       step="1" />
    <inkscape:path-effect
       effect="powerstroke"
       id="path-effect152"
       is_visible="true"
       lpeversion="1"
       offset_points="2.826981,0.075169555"
       not_jump="true"
       sort_points="true"
       interpolator_type="CentripetalCatmullRom"
       interpolator_beta="0.75"
       start_linecap_type="round"
       linejoin_type="spiro"
       miter_limit="4"
       scale_width="1"
       end_linecap_type="round" />
    <inkscape:path-effect
       effect="simplify"
       id="path-effect150"
       is_visible="true"
       lpeversion="1"
       steps="1"
       threshold="0.0028332064"
       smooth_angles="0"
       helper_size="0"
       simplify_individual_paths="false"
       simplify_just_coalesce="false"
       step="1" />
    <inkscape:path-effect
       effect="powerstroke"
       id="path-effect145"
       is_visible="true"
       lpeversion="1"
       offset_points="3.8374447,0.075169555"
       not_jump="true"
       sort_points="true"
       interpolator_type="CentripetalCatmullRom"
       interpolator_beta="0.75"
       start_linecap_type="round"
       linejoin_type="spiro"
       miter_limit="4"
       scale_width="1"
       end_linecap_type="round" />
    <inkscape:path-effect
       effect="simplify"
       id="path-effect143"
       is_visible="true"
       lpeversion="1"
       steps="1"
       threshold="0.0028332064"
       smooth_angles="0"
       helper_size="0"
       simplify_individual_paths="false"
       simplify_just_coalesce="false"
       step="1" />
    <inkscape:path-effect
       effect="powerstroke"
       id="path-effect138"
       is_visible="true"
       lpeversion="1"
       offset_points="2.6880907,0.075169555"
       not_jump="true"
       sort_points="true"
       interpolator_type="CentripetalCatmullRom"
       interpolator_beta="0.75"
       start_linecap_type="round"
       linejoin_type="spiro"
       miter_limit="4"
       scale_width="1"
       end_linecap_type="round" />
    <inkscape:path-effect
       effect="simplify"
       id="path-effect136"
       is_visible="true"
       lpeversion="1"
       steps="1"
       threshold="0.0028332064"
       smooth_angles="0"
       helper_size="0"
       simplify_individual_paths="false"
       simplify_just_coalesce="false"
       step="1" />
    <inkscape:path-effect
       effect="powerstroke"
       id="path-effect131"
       is_visible="true"
       lpeversion="1"
       offset_points="1.9940581,0.075169555"
       not_jump="true"
       sort_points="true"
       interpolator_type="CentripetalCatmullRom"
       interpolator_beta="0.75"
       start_linecap_type="round"
       linejoin_type="spiro"
       miter_limit="4"
       scale_width="1"
       end_linecap_type="round" />
    <inkscape:path-effect
       effect="simplify"
       id="path-effect129"
       is_visible="true"
       lpeversion="1"
       steps="1"
       threshold="0.0028332064"
       smooth_angles="0"
       helper_size="0"
       simplify_individual_paths="false"
       simplify_just_coalesce="false"
       step="1" />
  </defs>
  <sodipodi:namedview
     id="base"
     pagecolor="#ffffff"
     bordercolor="#666666"
     borderopacity="1.0"
     inkscape:pageopacity="0.0"
     inkscape:pageshadow="2"
     inkscape:zoom="11.2"
     inkscape:cx="-1.5625"
     inkscape:cy="18.482143"
     inkscape:document-units="mm"
     inkscape:current-layer="layer1"
     showgrid="false"
     fit-margin-top="0"
     fit-margin-left="0"
     fit-margin-right="0"
     fit-margin-bottom="0"
     inkscape:window-width="1920"
     inkscape:window-height="1057"
     inkscape:window-x="1072"
     inkscape:window-y="321"
     inkscape:window-maximized="1"
     showguides="true"
     inkscape:guide-bbox="true"
     inkscape:snap-bbox="true"
     inkscape:bbox-nodes="true"
     inkscape:snap-nodes="false"
     inkscape:snap-others="false"
     inkscape:snap-page="true"
     inkscape:snap-grids="false"
     inkscape:snap-to-guides="false"
     inkscape:snap-global="false"
     inkscape:pagecheckerboard="0"
     inkscape:showpageshadow="2"
     inkscape:deskcolor="#d1d1d1">
    <sodipodi:guide
       position="-6.1806076,9.4988693"
       orientation="0,1"
       id="guide816"
       inkscape:locked="false" />
    <sodipodi:guide
       position="-4.4101636,10.646923"
       orientation="0,1"
       id="guide818"
       inkscape:locked="false" />
    <sodipodi:guide
       position="2.7595724,11.09577"
       orientation="1,0"
       id="guide820"
       inkscape:locked="false" />
    <sodipodi:guide
       position="3.6572659,10.942217"
       orientation="1,0"
       id="guide822"
       inkscape:locked="false" />
    <sodipodi:guide
       position="-0.051625511,9.74923"
       orientation="1,0"
       id="guide1853"
       inkscape:locked="false" />
    <sodipodi:guide
       position="-2.3720169,3.0175835"
       orientation="0,1"
       id="guide1855"
       inkscape:locked="false" />
  </sodipodi:namedview>
  <metadata
     id="metadata1678">
    <rdf:RDF>
      <cc:Work
         rdf:about="">
        <dc:format>image/svg+xml</dc:format>
        <dc:type
           rdf:resource="http://purl.org/dc/dcmitype/StillImage" />
      </cc:Work>
    </rdf:RDF>
  </metadata>
  <g
     inkscape:label="Layer 1"
     inkscape:groupmode="layer"
     id="layer1"
     transform="translate(17.028496,-147.22856)">
    <path
       d="m -16.596337,148.43089 c 0.02003,-0.0464 0.03485,-0.0925 0.05382,-0.15493 0.01319,-0.0434 0.02724,-0.0904 0.0437,-0.13096 0.01452,-0.0358 0.03041,-0.0654 0.04946,-0.0883 0.0086,-0.0104 0.01805,-0.0195 0.02861,-0.0274 0.0101,-0.008 0.02211,-0.0146 0.03692,-0.0207 0.0075,-0.003 0.01479,-0.007 0.02169,-0.0111 0.148853,-0.093 0.334348,-0.15895 0.528142,-0.16937 0.09071,-0.005 0.181558,0.003 0.268772,0.0246 0.08517,0.0214 0.166804,0.0566 0.241663,0.10763 0.008,0.005 0.01487,0.0101 0.02163,0.0148 0.07387,0.0523 0.142676,0.11815 0.202987,0.19837 0.05933,0.0789 0.109895,0.17106 0.147617,0.27481 0.0678,0.18648 0.09237,0.40755 0.0506,0.62662 -0.0473,0.26381 -0.158365,0.52897 -0.331823,0.76252 -0.162438,0.21871 -0.376929,0.40546 -0.631159,0.52565 -0.01026,0.004 -0.02404,0.009 -0.03688,0.0132 -0.0064,0.002 -0.01256,0.004 -0.01781,0.005 -0.0051,0.001 -0.0096,0.002 -0.01105,0.002 -6.56e-4,-4e-5 -7.65e-4,-3.6e-4 0.0014,-0.001 9.98e-4,-4e-4 0.003,-0.001 0.0062,-0.002 0.0016,-4.3e-4 0.0039,-0.001 0.0069,-0.002 0.0028,-5.5e-4 0.0075,-0.001 0.01354,-0.002 0.0031,-3.3e-4 0.0073,-6.8e-4 0.01237,-8.2e-4 0.0048,-1.4e-4 0.01206,-1.3e-4 0.02082,7.2e-4 0.0081,7.8e-4 0.02222,0.003 0.03895,0.008 0.01577,0.005 0.04459,0.0178 0.07076,0.046 0.01369,0.0148 0.02593,0.0332 0.03443,0.0551 0.0085,0.0219 0.01189,0.0438 0.01173,0.0641 -3.16e-4,0.0388 -0.01343,0.0676 -0.02158,0.0824 -0.0086,0.0156 -0.01787,0.0267 -0.02339,0.0328 -0.006,0.007 -0.01134,0.0115 -0.01501,0.0147 -0.0071,0.006 -0.01331,0.0106 -0.0163,0.0126 -0.0034,0.002 -0.0064,0.004 -0.0081,0.005 -0.0039,0.002 -0.0058,0.004 -0.007,0.004 -0.0023,0.001 -0.002,0.002 -6.62e-4,0.001 0.0013,-3.2e-4 0.004,-0.001 0.0074,-0.002 0.0044,-0.001 0.01077,-0.004 0.01862,-0.007 0.0662,-0.0174 0.137885,-0.024 0.213487,-0.0219 0.07251,0.002 0.146845,0.012 0.220567,0.027 0.140278,0.043 0.269899,0.11423 0.384003,0.20589 0.11771,0.0946 0.218102,0.21029 0.296476,0.3381 0.08007,0.13056 0.136248,0.2722 0.165832,0.41584 0.03036,0.14744 0.03249,0.29558 0.0055,0.43738 -0.05918,0.33213 -0.211454,0.63211 -0.411317,0.8719 -0.222862,0.26739 -0.497752,0.45341 -0.778472,0.55517 -0.167322,0.061 -0.33098,0.078 -0.473102,0.0738 -0.03595,-0.001 -0.0707,-0.003 -0.104044,-0.007 -0.133054,-0.0137 -0.259456,-0.0452 -0.374594,-0.0881 -0.175196,-0.0583 -0.323101,-0.1073 -0.399442,-0.12917 a 0.21939414,0.21939414 90 0 0 -0.120886,0.4218 c 0.06495,0.0186 0.19316,0.0657 0.374889,0.12429 0.140116,0.0519 0.303935,0.0919 0.477712,0.10797 0.04361,0.004 0.08924,0.007 0.136601,0.007 0.186631,0.003 0.406744,-0.0223 0.632507,-0.10928 0.350539,-0.13077 0.685282,-0.36479 0.951536,-0.69122 0.238512,-0.29241 0.420824,-0.65934 0.48863,-1.06669 0.03478,-0.19521 0.02853,-0.39667 -0.01416,-0.59183 -0.04153,-0.18985 -0.117512,-0.37353 -0.222837,-0.54063 -0.1031,-0.16357 -0.234845,-0.31202 -0.390252,-0.43369 -0.152965,-0.11976 -0.329464,-0.214 -0.523445,-0.26966 -0.0063,-0.002 -0.01262,-0.003 -0.01907,-0.005 -0.09539,-0.0154 -0.198087,-0.0253 -0.302851,-0.0231 -0.104081,0.002 -0.211448,0.0165 -0.316386,0.05 -0.0025,8e-4 -0.005,0.002 -0.0075,0.002 -0.0025,8.1e-4 -0.0049,0.002 -0.0073,0.003 -0.01558,0.007 -0.02786,0.0124 -0.03779,0.0171 -0.005,0.002 -0.0095,0.005 -0.0137,0.007 -0.004,0.002 -0.0087,0.005 -0.0137,0.007 -0.0023,0.001 -0.0064,0.004 -0.01072,0.006 -0.0022,0.001 -0.0055,0.003 -0.0093,0.006 -0.0033,0.002 -0.0098,0.007 -0.0171,0.0132 -0.0038,0.003 -0.0092,0.008 -0.01526,0.0149 -0.0056,0.006 -0.01488,0.0173 -0.02353,0.033 -0.0082,0.0148 -0.02131,0.0437 -0.02163,0.0826 -1.66e-4,0.0203 0.0032,0.0422 0.01174,0.0642 0.0085,0.0219 0.02076,0.0403 0.03447,0.0551 0.0262,0.0283 0.05507,0.0407 0.0709,0.0461 0.0168,0.006 0.03098,0.008 0.03919,0.008 0.0089,8.6e-4 0.01619,8.7e-4 0.02115,7.3e-4 0.0052,-1.4e-4 0.0095,-5e-4 0.01278,-8.4e-4 0.0064,-6.7e-4 0.01146,-0.002 0.01464,-0.002 0.0034,-6.7e-4 0.0062,-0.001 0.0084,-0.002 0.0042,-0.001 0.0076,-0.002 0.01001,-0.003 0.0048,-0.002 0.0092,-0.003 0.01266,-0.005 0.0068,-0.003 0.01533,-0.006 0.02284,-0.01 0.008,-0.004 0.01689,-0.008 0.02588,-0.0117 0.01776,-0.008 0.03868,-0.0185 0.05789,-0.0295 0.302588,-0.14807 0.55413,-0.37505 0.740771,-0.63321 0.199406,-0.2758 0.325674,-0.58748 0.377391,-0.89683 0.04829,-0.27584 0.01351,-0.55136 -0.07432,-0.78374 -0.04916,-0.13007 -0.114895,-0.24721 -0.193033,-0.34884 -0.07954,-0.10345 -0.170816,-0.18945 -0.26963,-0.25825 -0.009,-0.006 -0.01813,-0.0124 -0.02735,-0.0185 -0.104308,-0.0697 -0.217721,-0.11728 -0.333217,-0.14564 -0.117936,-0.0289 -0.23756,-0.0378 -0.353845,-0.0312 -0.24216,0.0137 -0.468895,0.0936 -0.653622,0.20648 -0.0324,0.0142 -0.06146,0.0312 -0.08751,0.0505 -0.03032,0.0224 -0.05584,0.0471 -0.07747,0.0727 -0.04593,0.0542 -0.07568,0.11364 -0.09637,0.1633 -0.023,0.0552 -0.04172,0.11646 -0.05391,0.1553 -0.0194,0.0618 -0.0304,0.0941 -0.04386,0.12533 a 0.14499392,0.14499392 90 0 0 0.266242,0.11492 z"
       id="path-1"
       inkscape:path-effect="#path-effect472;#path-effect474"
       inkscape:original-d="m -16.729458,148.37343 c 0.07122,-0.14914 0.07686,-0.35467 0.213662,-0.44742 0.550424,-0.37316 1.206881,-0.32949 1.573833,0.21635 0.568054,0.84499 -0.09222,2.09308 -0.949606,2.41094 -0.04608,0.0171 0.08941,-0.0457 0.138251,-0.0512 0.167326,-0.0188 0.392153,-0.0218 0.553007,0.043 0.581589,0.23439 0.979395,0.84398 0.921677,1.47686 -0.08723,0.95646 -1.027698,1.91644 -2.043051,1.78423 -0.265533,-0.0346 -0.514836,-0.14751 -0.772254,-0.22126"
       style="fill:#000000;fill-rule:nonzero;stroke:none" />
  </g>
</svg>
