<?xml version="1.0" encoding="UTF-8" standalone="no"?>
<!-- Created with Inkscape (http://www.inkscape.org/) -->

<svg
   width="3mm"
   height="10mm"
   viewBox="0 0 3.0000001 9.9999994"
   version="1.1"
   id="svg1681"
   inkscape:version="1.2.1 (9c6d41e410, 2022-07-14)"
   sodipodi:docname="number_three_3.svg"
   inkscape:export-filename="..\..\..\..\Downloads\lower a diff canvas resize 3.0.png"
   inkscape:export-xdpi="96"
   inkscape:export-ydpi="96"
   xmlns:inkscape="http://www.inkscape.org/namespaces/inkscape"
   xmlns:sodipodi="http://sodipodi.sourceforge.net/DTD/sodipodi-0.dtd"
   xmlns="http://www.w3.org/2000/svg"
   xmlns:svg="http://www.w3.org/2000/svg"
   xmlns:rdf="http://www.w3.org/1999/02/22-rdf-syntax-ns#"
   xmlns:cc="http://creativecommons.org/ns#"
   xmlns:dc="http://purl.org/dc/elements/1.1/">
  <defs
     id="defs1675">
    <inkscape:path-effect
       effect="powerstroke"
       id="path-effect419"
       is_visible="true"
       lpeversion="1"
       offset_points="2.2202668,0.15122277 | 9.8410198,0.23704256"
       not_jump="true"
       sort_points="true"
       interpolator_type="CentripetalCatmullRom"
       interpolator_beta="0.75"
       start_linecap_type="round"
       linejoin_type="spiro"
       miter_limit="4"
       scale_width="1"
       end_linecap_type="round" />
    <inkscape:path-effect
       effect="simplify"
       id="path-effect417"
       is_visible="true"
       lpeversion="1"
       steps="1"
       threshold="0.0047745358"
       smooth_angles="0"
       helper_size="0"
       simplify_individual_paths="false"
       simplify_just_coalesce="false"
       step="1" />
    <inkscape:path-effect
       effect="powerstroke"
       id="path-effect366"
       is_visible="true"
       lpeversion="1"
       offset_points="1.9845998,0.16921725 | 10.73971,0.21697181"
       not_jump="true"
       sort_points="true"
       interpolator_type="CentripetalCatmullRom"
       interpolator_beta="0.75"
       start_linecap_type="round"
       linejoin_type="spiro"
       miter_limit="4"
       scale_width="1"
       end_linecap_type="round" />
    <inkscape:path-effect
       effect="simplify"
       id="path-effect364"
       is_visible="true"
       lpeversion="1"
       steps="1"
       threshold="0.0047745358"
       smooth_angles="0"
       helper_size="0"
       simplify_individual_paths="false"
       simplify_just_coalesce="false"
       step="1" />
    <inkscape:path-effect
       effect="powerstroke"
       id="path-effect315"
       is_visible="true"
       lpeversion="1"
       offset_points="1.5314103,0.14395578 | 10.630337,0.19517081"
       not_jump="true"
       sort_points="true"
       interpolator_type="CentripetalCatmullRom"
       interpolator_beta="0.75"
       start_linecap_type="round"
       linejoin_type="spiro"
       miter_limit="4"
       scale_width="1"
       end_linecap_type="round" />
    <inkscape:path-effect
       effect="simplify"
       id="path-effect313"
       is_visible="true"
       lpeversion="1"
       steps="1"
       threshold="0.0047745358"
       smooth_angles="0"
       helper_size="0"
       simplify_individual_paths="false"
       simplify_just_coalesce="false"
       step="1" />
    <inkscape:path-effect
       effect="powerstroke"
       id="path-effect266"
       is_visible="true"
       lpeversion="1"
       offset_points="3.3464262,0.20901271 | 6.1472519,0.17129353 | 9.4944218,0.23565837"
       not_jump="true"
       sort_points="true"
       interpolator_type="CentripetalCatmullRom"
       interpolator_beta="0.75"
       start_linecap_type="round"
       linejoin_type="spiro"
       miter_limit="4"
       scale_width="1"
       end_linecap_type="round" />
    <inkscape:path-effect
       effect="simplify"
       id="path-effect264"
       is_visible="true"
       lpeversion="1"
       steps="1"
       threshold="0.0047745358"
       smooth_angles="0"
       helper_size="0"
       simplify_individual_paths="false"
       simplify_just_coalesce="false"
       step="1" />
    <inkscape:path-effect
       effect="powerstroke"
       id="path-effect156"
       is_visible="true"
       lpeversion="1"
       offset_points="2.1293113,0.10771485 | 6.2797208,0.16002761 | 8.6828585,0.12995807"
       not_jump="true"
       sort_points="true"
       interpolator_type="CentripetalCatmullRom"
       interpolator_beta="0.75"
       start_linecap_type="round"
       linejoin_type="spiro"
       miter_limit="4"
       scale_width="1"
       end_linecap_type="round" />
    <inkscape:path-effect
       effect="simplify"
       id="path-effect154"
       is_visible="true"
       lpeversion="1"
       steps="1"
       threshold="0.0035951417"
       smooth_angles="0"
       helper_size="0"
       simplify_individual_paths="false"
       simplify_just_coalesce="false"
       step="1" />
    <inkscape:path-effect
       effect="powerstroke"
       id="path-effect761"
       is_visible="true"
       lpeversion="1"
       offset_points="1.6544832,0.13270827 | 4.2861611,0.17374574 | 6.9701576,0.090445786 | 8.1533155,0.13903742"
       not_jump="true"
       sort_points="true"
       interpolator_type="CentripetalCatmullRom"
       interpolator_beta="0.75"
       start_linecap_type="round"
       linejoin_type="spiro"
       miter_limit="4"
       scale_width="1"
       end_linecap_type="round" />
    <inkscape:path-effect
       effect="simplify"
       id="path-effect759"
       is_visible="true"
       lpeversion="1"
       steps="1"
       threshold="0.0035951417"
       smooth_angles="0"
       helper_size="0"
       simplify_individual_paths="false"
       simplify_just_coalesce="false"
       step="1" />
    <inkscape:path-effect
       effect="powerstroke"
       id="path-effect754"
       is_visible="true"
       lpeversion="1"
       offset_points="2.7653669,0.1256741 | 8.5006017,0.094696019 | 9.7773195,0.10893713"
       not_jump="true"
       sort_points="true"
       interpolator_type="CentripetalCatmullRom"
       interpolator_beta="0.75"
       start_linecap_type="round"
       linejoin_type="spiro"
       miter_limit="4"
       scale_width="1"
       end_linecap_type="round" />
    <inkscape:path-effect
       effect="simplify"
       id="path-effect752"
       is_visible="true"
       lpeversion="1"
       steps="1"
       threshold="0.0035951417"
       smooth_angles="0"
       helper_size="0"
       simplify_individual_paths="false"
       simplify_just_coalesce="false"
       step="1" />
    <inkscape:path-effect
       effect="powerstroke"
       id="path-effect747"
       is_visible="true"
       lpeversion="1"
       offset_points="4.6226475,0.10834986 | 8.8729615,0.084125301 | 10.351846,0.098806854"
       not_jump="true"
       sort_points="true"
       interpolator_type="CentripetalCatmullRom"
       interpolator_beta="0.75"
       start_linecap_type="round"
       linejoin_type="spiro"
       miter_limit="4"
       scale_width="1"
       end_linecap_type="round" />
    <inkscape:path-effect
       effect="simplify"
       id="path-effect745"
       is_visible="true"
       lpeversion="1"
       steps="1"
       threshold="0.0035951417"
       smooth_angles="0"
       helper_size="0"
       simplify_individual_paths="false"
       simplify_just_coalesce="false"
       step="1" />
    <inkscape:path-effect
       effect="powerstroke"
       id="path-effect502"
       is_visible="true"
       lpeversion="1"
       offset_points="3.0091841,0.21607495 | 7.3602657,0.17554228 | 9.4159651,0.20236537"
       not_jump="true"
       sort_points="true"
       interpolator_type="CentripetalCatmullRom"
       interpolator_beta="0.75"
       start_linecap_type="round"
       linejoin_type="spiro"
       miter_limit="4"
       scale_width="1"
       end_linecap_type="round" />
    <inkscape:path-effect
       effect="simplify"
       id="path-effect500"
       is_visible="true"
       lpeversion="1"
       steps="1"
       threshold="0.0035951417"
       smooth_angles="0"
       helper_size="0"
       simplify_individual_paths="false"
       simplify_just_coalesce="false"
       step="1" />
    <inkscape:path-effect
       effect="powerstroke"
       id="path-effect241"
       is_visible="true"
       lpeversion="1"
       offset_points="2.6879454,0.34086734"
       not_jump="true"
       sort_points="true"
       interpolator_type="CentripetalCatmullRom"
       interpolator_beta="0.75"
       start_linecap_type="round"
       linejoin_type="spiro"
       miter_limit="4"
       scale_width="1"
       end_linecap_type="round" />
    <inkscape:path-effect
       effect="simplify"
       id="path-effect239"
       is_visible="true"
       lpeversion="1"
       steps="1"
       threshold="0.0028332064"
       smooth_angles="0"
       helper_size="0"
       simplify_individual_paths="false"
       simplify_just_coalesce="false"
       step="1" />
    <inkscape:path-effect
       effect="powerstroke"
       id="path-effect234"
       is_visible="true"
       lpeversion="1"
       offset_points="2.13563,0.075169555"
       not_jump="true"
       sort_points="true"
       interpolator_type="CentripetalCatmullRom"
       interpolator_beta="0.75"
       start_linecap_type="round"
       linejoin_type="spiro"
       miter_limit="4"
       scale_width="1"
       end_linecap_type="round" />
    <inkscape:path-effect
       effect="simplify"
       id="path-effect232"
       is_visible="true"
       lpeversion="1"
       steps="1"
       threshold="0.0028332064"
       smooth_angles="0"
       helper_size="0"
       simplify_individual_paths="false"
       simplify_just_coalesce="false"
       step="1" />
    <inkscape:path-effect
       effect="powerstroke"
       id="path-effect227"
       is_visible="true"
       lpeversion="1"
       offset_points="2.1868266,0.075169555"
       not_jump="true"
       sort_points="true"
       interpolator_type="CentripetalCatmullRom"
       interpolator_beta="0.75"
       start_linecap_type="round"
       linejoin_type="spiro"
       miter_limit="4"
       scale_width="1"
       end_linecap_type="round" />
    <inkscape:path-effect
       effect="simplify"
       id="path-effect225"
       is_visible="true"
       lpeversion="1"
       steps="1"
       threshold="0.0028332064"
       smooth_angles="0"
       helper_size="0"
       simplify_individual_paths="false"
       simplify_just_coalesce="false"
       step="1" />
    <inkscape:path-effect
       effect="powerstroke"
       id="path-effect166"
       is_visible="true"
       lpeversion="1"
       offset_points="1.9637935,0.075169555"
       not_jump="true"
       sort_points="true"
       interpolator_type="CentripetalCatmullRom"
       interpolator_beta="0.75"
       start_linecap_type="round"
       linejoin_type="spiro"
       miter_limit="4"
       scale_width="1"
       end_linecap_type="round" />
    <inkscape:path-effect
       effect="simplify"
       id="path-effect164"
       is_visible="true"
       lpeversion="1"
       steps="1"
       threshold="0.0028332064"
       smooth_angles="0"
       helper_size="0"
       simplify_individual_paths="false"
       simplify_just_coalesce="false"
       step="1" />
    <inkscape:path-effect
       effect="powerstroke"
       id="path-effect159"
       is_visible="true"
       lpeversion="1"
       offset_points="2.2611036,0.075169555"
       not_jump="true"
       sort_points="true"
       interpolator_type="CentripetalCatmullRom"
       interpolator_beta="0.75"
       start_linecap_type="round"
       linejoin_type="spiro"
       miter_limit="4"
       scale_width="1"
       end_linecap_type="round" />
    <inkscape:path-effect
       effect="simplify"
       id="path-effect157"
       is_visible="true"
       lpeversion="1"
       steps="1"
       threshold="0.0028332064"
       smooth_angles="0"
       helper_size="0"
       simplify_individual_paths="false"
       simplify_just_coalesce="false"
       step="1" />
    <inkscape:path-effect
       effect="powerstroke"
       id="path-effect152"
       is_visible="true"
       lpeversion="1"
       offset_points="2.826981,0.075169555"
       not_jump="true"
       sort_points="true"
       interpolator_type="CentripetalCatmullRom"
       interpolator_beta="0.75"
       start_linecap_type="round"
       linejoin_type="spiro"
       miter_limit="4"
       scale_width="1"
       end_linecap_type="round" />
    <inkscape:path-effect
       effect="simplify"
       id="path-effect150"
       is_visible="true"
       lpeversion="1"
       steps="1"
       threshold="0.0028332064"
       smooth_angles="0"
       helper_size="0"
       simplify_individual_paths="false"
       simplify_just_coalesce="false"
       step="1" />
    <inkscape:path-effect
       effect="powerstroke"
       id="path-effect145"
       is_visible="true"
       lpeversion="1"
       offset_points="3.8374447,0.075169555"
       not_jump="true"
       sort_points="true"
       interpolator_type="CentripetalCatmullRom"
       interpolator_beta="0.75"
       start_linecap_type="round"
       linejoin_type="spiro"
       miter_limit="4"
       scale_width="1"
       end_linecap_type="round" />
    <inkscape:path-effect
       effect="simplify"
       id="path-effect143"
       is_visible="true"
       lpeversion="1"
       steps="1"
       threshold="0.0028332064"
       smooth_angles="0"
       helper_size="0"
       simplify_individual_paths="false"
       simplify_just_coalesce="false"
       step="1" />
    <inkscape:path-effect
       effect="powerstroke"
       id="path-effect138"
       is_visible="true"
       lpeversion="1"
       offset_points="2.6880907,0.075169555"
       not_jump="true"
       sort_points="true"
       interpolator_type="CentripetalCatmullRom"
       interpolator_beta="0.75"
       start_linecap_type="round"
       linejoin_type="spiro"
       miter_limit="4"
       scale_width="1"
       end_linecap_type="round" />
    <inkscape:path-effect
       effect="simplify"
       id="path-effect136"
       is_visible="true"
       lpeversion="1"
       steps="1"
       threshold="0.0028332064"
       smooth_angles="0"
       helper_size="0"
       simplify_individual_paths="false"
       simplify_just_coalesce="false"
       step="1" />
    <inkscape:path-effect
       effect="powerstroke"
       id="path-effect131"
       is_visible="true"
       lpeversion="1"
       offset_points="1.9940581,0.075169555"
       not_jump="true"
       sort_points="true"
       interpolator_type="CentripetalCatmullRom"
       interpolator_beta="0.75"
       start_linecap_type="round"
       linejoin_type="spiro"
       miter_limit="4"
       scale_width="1"
       end_linecap_type="round" />
    <inkscape:path-effect
       effect="simplify"
       id="path-effect129"
       is_visible="true"
       lpeversion="1"
       steps="1"
       threshold="0.0028332064"
       smooth_angles="0"
       helper_size="0"
       simplify_individual_paths="false"
       simplify_just_coalesce="false"
       step="1" />
  </defs>
  <sodipodi:namedview
     id="base"
     pagecolor="#ffffff"
     bordercolor="#666666"
     borderopacity="1.0"
     inkscape:pageopacity="0.0"
     inkscape:pageshadow="2"
     inkscape:zoom="11.2"
     inkscape:cx="-1.5625"
     inkscape:cy="18.482143"
     inkscape:document-units="mm"
     inkscape:current-layer="layer1"
     showgrid="false"
     fit-margin-top="0"
     fit-margin-left="0"
     fit-margin-right="0"
     fit-margin-bottom="0"
     inkscape:window-width="1920"
     inkscape:window-height="1057"
     inkscape:window-x="1072"
     inkscape:window-y="321"
     inkscape:window-maximized="1"
     showguides="true"
     inkscape:guide-bbox="true"
     inkscape:snap-bbox="true"
     inkscape:bbox-nodes="true"
     inkscape:snap-nodes="false"
     inkscape:snap-others="false"
     inkscape:snap-page="true"
     inkscape:snap-grids="false"
     inkscape:snap-to-guides="false"
     inkscape:snap-global="false"
     inkscape:pagecheckerboard="0"
     inkscape:showpageshadow="2"
     inkscape:deskcolor="#d1d1d1">
    <sodipodi:guide
       position="-6.1806076,9.4988693"
       orientation="0,1"
       id="guide816"
       inkscape:locked="false" />
    <sodipodi:guide
       position="-4.4101636,10.646923"
       orientation="0,1"
       id="guide818"
       inkscape:locked="false" />
    <sodipodi:guide
       position="2.7595724,11.09577"
       orientation="1,0"
       id="guide820"
       inkscape:locked="false" />
    <sodipodi:guide
       position="3.6572659,10.942217"
       orientation="1,0"
       id="guide822"
       inkscape:locked="false" />
    <sodipodi:guide
       position="-0.051625511,9.74923"
       orientation="1,0"
       id="guide1853"
       inkscape:locked="false" />
    <sodipodi:guide
       position="-2.3720169,3.0175835"
       orientation="0,1"
       id="guide1855"
       inkscape:locked="false" />
  </sodipodi:namedview>
  <metadata
     id="metadata1678">
    <rdf:RDF>
      <cc:Work
         rdf:about="">
        <dc:format>image/svg+xml</dc:format>
        <dc:type
           rdf:resource="http://purl.org/dc/dcmitype/StillImage" />
      </cc:Work>
    </rdf:RDF>
  </metadata>
  <g
     inkscape:label="Layer 1"
     inkscape:groupmode="layer"
     id="layer1"
     transform="translate(17.028496,-147.22856)">
    <path
       d="m -16.312795,148.55789 c -0.0097,-0.028 -0.01532,-0.0613 -0.0098,-0.10125 0.0043,-0.0311 0.01554,-0.0678 0.03845,-0.10986 0.01978,-0.0363 0.04726,-0.0746 0.08283,-0.11358 0.03207,-0.0351 0.06902,-0.0688 0.108453,-0.0992 0.108027,-0.0803 0.239438,-0.15831 0.380032,-0.20716 0.06588,-0.0229 0.133362,-0.0393 0.2013,-0.0469 0.06593,-0.007 0.13221,-0.007 0.198077,0.004 0.01353,0.003 0.03357,0.0119 0.05328,0.0241 0.0027,0.002 0.0053,0.003 0.008,0.005 0.02138,0.0144 0.04397,0.0341 0.06863,0.0614 0.04869,0.0538 0.08342,0.10943 0.142037,0.19471 0.0777,0.1263 0.13728,0.27711 0.170853,0.43955 0.032,0.15486 0.0401,0.31926 0.02252,0.48607 -0.03332,0.31605 -0.15898,0.63612 -0.375079,0.88907 -0.189071,0.21074 -0.443635,0.38276 -0.733606,0.49992 -0.01376,0.003 -0.03109,0.007 -0.04926,0.0112 -0.01071,0.003 -0.02229,0.006 -0.03351,0.009 -0.01075,0.003 -0.02353,0.007 -0.03583,0.0117 -0.0062,0.002 -0.01395,0.005 -0.02227,0.009 -0.0042,0.002 -0.0093,0.005 -0.01494,0.008 -0.0054,0.003 -0.01272,0.008 -0.0208,0.0139 -0.0075,0.006 -0.0196,0.0158 -0.03184,0.0306 -0.01144,0.0139 -0.03097,0.0414 -0.03953,0.082 -0.0045,0.0213 -0.0058,0.0455 -0.0014,0.0711 0.0044,0.0257 0.01371,0.0489 0.02585,0.0685 0.02329,0.0377 0.05361,0.0579 0.0709,0.0675 0.01818,0.0101 0.03447,0.0154 0.04427,0.0181 0.01054,0.003 0.0198,0.005 0.02655,0.006 0.01324,0.002 0.0253,0.003 0.034,0.003 0.01789,7.7e-4 0.03712,3.3e-4 0.05695,-7.2e-4 0.07098,-0.004 0.146505,-0.0117 0.213128,-0.0181 0.06958,-0.007 0.132455,-0.0119 0.192697,-0.0124 0.0602,-5.5e-4 0.113117,0.004 0.160793,0.0141 0.04741,0.0104 0.08962,0.0269 0.128597,0.0514 0.238791,0.14247 0.448334,0.33052 0.602737,0.54479 0.07933,0.11008 0.143288,0.22587 0.189991,0.34515 0.04792,0.12238 0.07752,0.248 0.08752,0.3754 0.01013,0.11765 0.0016,0.23131 -0.02133,0.34082 -0.02381,0.11398 -0.06322,0.22387 -0.113853,0.32742 -0.109787,0.22451 -0.270243,0.4156 -0.439473,0.56067 -0.115544,0.0978 -0.242355,0.16243 -0.361366,0.20384 -0.101046,0.0352 -0.197437,0.054 -0.281777,0.0633 -0.04615,0.005 -0.09144,0.008 -0.135486,0.008 -0.337186,0.0105 -0.634708,-0.0492 -0.746422,-0.0737 a 0.23704256,0.23704256 90 0 0 -0.101662,0.46306 c 0.120519,0.0265 0.464656,0.10217 0.860068,0.0861 0.05458,-9e-4 0.116148,-0.005 0.178919,-0.0127 0.114503,-0.014 0.24627,-0.0417 0.385062,-0.0928 0.163313,-0.0601 0.340885,-0.15446 0.503964,-0.29865 0.207271,-0.18259 0.40591,-0.42424 0.542271,-0.71374 0.06326,-0.13431 0.113525,-0.28 0.143319,-0.43427 0.02868,-0.14851 0.03845,-0.30536 0.02208,-0.46685 -0.01573,-0.17045 -0.05799,-0.33721 -0.122735,-0.49596 -0.063,-0.15446 -0.1469,-0.30038 -0.247266,-0.43561 -0.194488,-0.26203 -0.451152,-0.4842 -0.73521,-0.64819 -0.08406,-0.049 -0.172295,-0.0787 -0.259898,-0.0948 -0.08594,-0.0158 -0.170297,-0.0184 -0.249605,-0.0152 -0.07828,0.003 -0.155208,0.0122 -0.225404,0.0211 -0.07235,0.009 -0.135372,0.0179 -0.1976,0.0231 -0.01592,0.002 -0.0243,0.002 -0.02314,0.003 5.8e-4,2.7e-4 0.0034,3.9e-4 0.01228,0.002 0.004,6.7e-4 0.01094,0.002 0.01949,0.004 0.0078,0.002 0.02258,0.007 0.03956,0.0163 0.01609,0.009 0.04559,0.0284 0.0684,0.0653 0.01191,0.0193 0.0211,0.042 0.02539,0.0673 0.0043,0.0252 0.003,0.049 -0.0014,0.0699 -0.0084,0.0396 -0.0274,0.0663 -0.03804,0.0792 -0.01144,0.0138 -0.02239,0.0228 -0.02856,0.0275 -0.0067,0.005 -0.01234,0.009 -0.01587,0.0105 -0.0037,0.002 -0.0066,0.004 -0.0085,0.004 -0.0039,0.002 -0.0053,0.002 -0.0054,0.002 -2.97e-4,-4.9e-4 0.0043,-0.003 0.0099,-0.005 0.0058,-0.003 0.0131,-0.005 0.02074,-0.008 0.01531,-0.006 0.03186,-0.0113 0.04149,-0.0148 0.0039,-0.001 0.0079,-0.003 0.01187,-0.004 0.004,-0.001 0.0079,-0.002 0.01174,-0.004 0.338318,-0.14369 0.640127,-0.35449 0.867662,-0.62047 0.262612,-0.31419 0.407715,-0.70035 0.443487,-1.07589 0.01898,-0.19931 0.0076,-0.39703 -0.03315,-0.58479 -0.04274,-0.19718 -0.11746,-0.3822 -0.222149,-0.54815 -0.05817,-0.0789 -0.111467,-0.15759 -0.180452,-0.22931 -0.03882,-0.0404 -0.08077,-0.0764 -0.12755,-0.10611 -0.0059,-0.004 -0.01187,-0.007 -0.01788,-0.0109 -0.04554,-0.0265 -0.09597,-0.0472 -0.151779,-0.059 -0.103867,-0.0167 -0.198048,-0.0168 -0.288337,-0.006 -0.09279,0.011 -0.18172,0.0333 -0.265076,0.0624 -0.177042,0.0619 -0.334649,0.1567 -0.461388,0.25043 -0.05408,0.0413 -0.104124,0.0862 -0.148969,0.13472 -0.04968,0.0537 -0.09235,0.11103 -0.125663,0.17094 -0.03897,0.0701 -0.06373,0.14113 -0.07413,0.21191 -0.01376,0.0937 -7.88e-4,0.17572 0.0224,0.24292 a 0.15122277,0.15122277 90 0 0 0.285904,-0.0987 z"
       id="path-1"
       inkscape:path-effect="#path-effect417;#path-effect419"
       inkscape:original-d="m -16.455747,148.60722 c -0.189604,-0.53555 0.987427,-1.11625 1.329449,-0.78911 0.589677,0.56402 0.566574,1.53667 0.114511,2.16897 -0.209887,0.29357 -0.512309,0.49426 -0.830905,0.64797 -0.05776,0.0279 -0.244281,0.0676 -0.180146,0.0676 0.323115,0 0.592478,-0.13084 0.921677,0.0763 0.897968,0.56503 1.270426,1.56905 0.631209,2.45563 -0.179605,0.2491 -0.366299,0.43203 -0.652156,0.57003 -0.399906,0.19306 -0.980534,0.14465 -1.40067,0.0512"
       style="fill:#000000;fill-rule:nonzero;stroke:none" />
  </g>
</svg>
