<?xml version="1.0" encoding="UTF-8" standalone="no"?>
<!-- Created with Inkscape (http://www.inkscape.org/) -->

<svg
   width="3mm"
   height="10mm"
   viewBox="0 0 3.0000001 9.9999994"
   version="1.1"
   id="svg1681"
   inkscape:version="1.2.1 (9c6d41e410, 2022-07-14)"
   sodipodi:docname="number_three_12.svg"
   inkscape:export-filename="..\..\..\..\Downloads\lower a diff canvas resize 3.0.png"
   inkscape:export-xdpi="96"
   inkscape:export-ydpi="96"
   xmlns:inkscape="http://www.inkscape.org/namespaces/inkscape"
   xmlns:sodipodi="http://sodipodi.sourceforge.net/DTD/sodipodi-0.dtd"
   xmlns="http://www.w3.org/2000/svg"
   xmlns:svg="http://www.w3.org/2000/svg"
   xmlns:rdf="http://www.w3.org/1999/02/22-rdf-syntax-ns#"
   xmlns:cc="http://creativecommons.org/ns#"
   xmlns:dc="http://purl.org/dc/elements/1.1/">
  <defs
     id="defs1675">
    <inkscape:path-effect
       effect="powerstroke"
       id="path-effect315"
       is_visible="true"
       lpeversion="1"
       offset_points="1.5314103,0.14395578 | 10.630337,0.19517081"
       not_jump="true"
       sort_points="true"
       interpolator_type="CentripetalCatmullRom"
       interpolator_beta="0.75"
       start_linecap_type="round"
       linejoin_type="spiro"
       miter_limit="4"
       scale_width="1"
       end_linecap_type="round" />
    <inkscape:path-effect
       effect="simplify"
       id="path-effect313"
       is_visible="true"
       lpeversion="1"
       steps="1"
       threshold="0.0047745358"
       smooth_angles="0"
       helper_size="0"
       simplify_individual_paths="false"
       simplify_just_coalesce="false"
       step="1" />
    <inkscape:path-effect
       effect="powerstroke"
       id="path-effect266"
       is_visible="true"
       lpeversion="1"
       offset_points="3.3464262,0.20901271 | 6.1472519,0.17129353 | 9.4944218,0.23565837"
       not_jump="true"
       sort_points="true"
       interpolator_type="CentripetalCatmullRom"
       interpolator_beta="0.75"
       start_linecap_type="round"
       linejoin_type="spiro"
       miter_limit="4"
       scale_width="1"
       end_linecap_type="round" />
    <inkscape:path-effect
       effect="simplify"
       id="path-effect264"
       is_visible="true"
       lpeversion="1"
       steps="1"
       threshold="0.0047745358"
       smooth_angles="0"
       helper_size="0"
       simplify_individual_paths="false"
       simplify_just_coalesce="false"
       step="1" />
    <inkscape:path-effect
       effect="powerstroke"
       id="path-effect156"
       is_visible="true"
       lpeversion="1"
       offset_points="2.1293113,0.10771485 | 6.2797208,0.16002761 | 8.6828585,0.12995807"
       not_jump="true"
       sort_points="true"
       interpolator_type="CentripetalCatmullRom"
       interpolator_beta="0.75"
       start_linecap_type="round"
       linejoin_type="spiro"
       miter_limit="4"
       scale_width="1"
       end_linecap_type="round" />
    <inkscape:path-effect
       effect="simplify"
       id="path-effect154"
       is_visible="true"
       lpeversion="1"
       steps="1"
       threshold="0.0035951417"
       smooth_angles="0"
       helper_size="0"
       simplify_individual_paths="false"
       simplify_just_coalesce="false"
       step="1" />
    <inkscape:path-effect
       effect="powerstroke"
       id="path-effect761"
       is_visible="true"
       lpeversion="1"
       offset_points="1.6544832,0.13270827 | 4.2861611,0.17374574 | 6.9701576,0.090445786 | 8.1533155,0.13903742"
       not_jump="true"
       sort_points="true"
       interpolator_type="CentripetalCatmullRom"
       interpolator_beta="0.75"
       start_linecap_type="round"
       linejoin_type="spiro"
       miter_limit="4"
       scale_width="1"
       end_linecap_type="round" />
    <inkscape:path-effect
       effect="simplify"
       id="path-effect759"
       is_visible="true"
       lpeversion="1"
       steps="1"
       threshold="0.0035951417"
       smooth_angles="0"
       helper_size="0"
       simplify_individual_paths="false"
       simplify_just_coalesce="false"
       step="1" />
    <inkscape:path-effect
       effect="powerstroke"
       id="path-effect754"
       is_visible="true"
       lpeversion="1"
       offset_points="2.7653669,0.1256741 | 8.5006017,0.094696019 | 9.7773195,0.10893713"
       not_jump="true"
       sort_points="true"
       interpolator_type="CentripetalCatmullRom"
       interpolator_beta="0.75"
       start_linecap_type="round"
       linejoin_type="spiro"
       miter_limit="4"
       scale_width="1"
       end_linecap_type="round" />
    <inkscape:path-effect
       effect="simplify"
       id="path-effect752"
       is_visible="true"
       lpeversion="1"
       steps="1"
       threshold="0.0035951417"
       smooth_angles="0"
       helper_size="0"
       simplify_individual_paths="false"
       simplify_just_coalesce="false"
       step="1" />
    <inkscape:path-effect
       effect="powerstroke"
       id="path-effect747"
       is_visible="true"
       lpeversion="1"
       offset_points="4.6226475,0.10834986 | 8.8729615,0.084125301 | 10.351846,0.098806854"
       not_jump="true"
       sort_points="true"
       interpolator_type="CentripetalCatmullRom"
       interpolator_beta="0.75"
       start_linecap_type="round"
       linejoin_type="spiro"
       miter_limit="4"
       scale_width="1"
       end_linecap_type="round" />
    <inkscape:path-effect
       effect="simplify"
       id="path-effect745"
       is_visible="true"
       lpeversion="1"
       steps="1"
       threshold="0.0035951417"
       smooth_angles="0"
       helper_size="0"
       simplify_individual_paths="false"
       simplify_just_coalesce="false"
       step="1" />
    <inkscape:path-effect
       effect="powerstroke"
       id="path-effect502"
       is_visible="true"
       lpeversion="1"
       offset_points="3.0091841,0.21607495 | 7.3602657,0.17554228 | 9.4159651,0.20236537"
       not_jump="true"
       sort_points="true"
       interpolator_type="CentripetalCatmullRom"
       interpolator_beta="0.75"
       start_linecap_type="round"
       linejoin_type="spiro"
       miter_limit="4"
       scale_width="1"
       end_linecap_type="round" />
    <inkscape:path-effect
       effect="simplify"
       id="path-effect500"
       is_visible="true"
       lpeversion="1"
       steps="1"
       threshold="0.0035951417"
       smooth_angles="0"
       helper_size="0"
       simplify_individual_paths="false"
       simplify_just_coalesce="false"
       step="1" />
    <inkscape:path-effect
       effect="powerstroke"
       id="path-effect241"
       is_visible="true"
       lpeversion="1"
       offset_points="2.6879454,0.34086734"
       not_jump="true"
       sort_points="true"
       interpolator_type="CentripetalCatmullRom"
       interpolator_beta="0.75"
       start_linecap_type="round"
       linejoin_type="spiro"
       miter_limit="4"
       scale_width="1"
       end_linecap_type="round" />
    <inkscape:path-effect
       effect="simplify"
       id="path-effect239"
       is_visible="true"
       lpeversion="1"
       steps="1"
       threshold="0.0028332064"
       smooth_angles="0"
       helper_size="0"
       simplify_individual_paths="false"
       simplify_just_coalesce="false"
       step="1" />
    <inkscape:path-effect
       effect="powerstroke"
       id="path-effect234"
       is_visible="true"
       lpeversion="1"
       offset_points="2.13563,0.075169555"
       not_jump="true"
       sort_points="true"
       interpolator_type="CentripetalCatmullRom"
       interpolator_beta="0.75"
       start_linecap_type="round"
       linejoin_type="spiro"
       miter_limit="4"
       scale_width="1"
       end_linecap_type="round" />
    <inkscape:path-effect
       effect="simplify"
       id="path-effect232"
       is_visible="true"
       lpeversion="1"
       steps="1"
       threshold="0.0028332064"
       smooth_angles="0"
       helper_size="0"
       simplify_individual_paths="false"
       simplify_just_coalesce="false"
       step="1" />
    <inkscape:path-effect
       effect="powerstroke"
       id="path-effect227"
       is_visible="true"
       lpeversion="1"
       offset_points="2.1868266,0.075169555"
       not_jump="true"
       sort_points="true"
       interpolator_type="CentripetalCatmullRom"
       interpolator_beta="0.75"
       start_linecap_type="round"
       linejoin_type="spiro"
       miter_limit="4"
       scale_width="1"
       end_linecap_type="round" />
    <inkscape:path-effect
       effect="simplify"
       id="path-effect225"
       is_visible="true"
       lpeversion="1"
       steps="1"
       threshold="0.0028332064"
       smooth_angles="0"
       helper_size="0"
       simplify_individual_paths="false"
       simplify_just_coalesce="false"
       step="1" />
    <inkscape:path-effect
       effect="powerstroke"
       id="path-effect166"
       is_visible="true"
       lpeversion="1"
       offset_points="1.9637935,0.075169555"
       not_jump="true"
       sort_points="true"
       interpolator_type="CentripetalCatmullRom"
       interpolator_beta="0.75"
       start_linecap_type="round"
       linejoin_type="spiro"
       miter_limit="4"
       scale_width="1"
       end_linecap_type="round" />
    <inkscape:path-effect
       effect="simplify"
       id="path-effect164"
       is_visible="true"
       lpeversion="1"
       steps="1"
       threshold="0.0028332064"
       smooth_angles="0"
       helper_size="0"
       simplify_individual_paths="false"
       simplify_just_coalesce="false"
       step="1" />
    <inkscape:path-effect
       effect="powerstroke"
       id="path-effect159"
       is_visible="true"
       lpeversion="1"
       offset_points="2.2611036,0.075169555"
       not_jump="true"
       sort_points="true"
       interpolator_type="CentripetalCatmullRom"
       interpolator_beta="0.75"
       start_linecap_type="round"
       linejoin_type="spiro"
       miter_limit="4"
       scale_width="1"
       end_linecap_type="round" />
    <inkscape:path-effect
       effect="simplify"
       id="path-effect157"
       is_visible="true"
       lpeversion="1"
       steps="1"
       threshold="0.0028332064"
       smooth_angles="0"
       helper_size="0"
       simplify_individual_paths="false"
       simplify_just_coalesce="false"
       step="1" />
    <inkscape:path-effect
       effect="powerstroke"
       id="path-effect152"
       is_visible="true"
       lpeversion="1"
       offset_points="2.826981,0.075169555"
       not_jump="true"
       sort_points="true"
       interpolator_type="CentripetalCatmullRom"
       interpolator_beta="0.75"
       start_linecap_type="round"
       linejoin_type="spiro"
       miter_limit="4"
       scale_width="1"
       end_linecap_type="round" />
    <inkscape:path-effect
       effect="simplify"
       id="path-effect150"
       is_visible="true"
       lpeversion="1"
       steps="1"
       threshold="0.0028332064"
       smooth_angles="0"
       helper_size="0"
       simplify_individual_paths="false"
       simplify_just_coalesce="false"
       step="1" />
    <inkscape:path-effect
       effect="powerstroke"
       id="path-effect145"
       is_visible="true"
       lpeversion="1"
       offset_points="3.8374447,0.075169555"
       not_jump="true"
       sort_points="true"
       interpolator_type="CentripetalCatmullRom"
       interpolator_beta="0.75"
       start_linecap_type="round"
       linejoin_type="spiro"
       miter_limit="4"
       scale_width="1"
       end_linecap_type="round" />
    <inkscape:path-effect
       effect="simplify"
       id="path-effect143"
       is_visible="true"
       lpeversion="1"
       steps="1"
       threshold="0.0028332064"
       smooth_angles="0"
       helper_size="0"
       simplify_individual_paths="false"
       simplify_just_coalesce="false"
       step="1" />
    <inkscape:path-effect
       effect="powerstroke"
       id="path-effect138"
       is_visible="true"
       lpeversion="1"
       offset_points="2.6880907,0.075169555"
       not_jump="true"
       sort_points="true"
       interpolator_type="CentripetalCatmullRom"
       interpolator_beta="0.75"
       start_linecap_type="round"
       linejoin_type="spiro"
       miter_limit="4"
       scale_width="1"
       end_linecap_type="round" />
    <inkscape:path-effect
       effect="simplify"
       id="path-effect136"
       is_visible="true"
       lpeversion="1"
       steps="1"
       threshold="0.0028332064"
       smooth_angles="0"
       helper_size="0"
       simplify_individual_paths="false"
       simplify_just_coalesce="false"
       step="1" />
    <inkscape:path-effect
       effect="powerstroke"
       id="path-effect131"
       is_visible="true"
       lpeversion="1"
       offset_points="1.9940581,0.075169555"
       not_jump="true"
       sort_points="true"
       interpolator_type="CentripetalCatmullRom"
       interpolator_beta="0.75"
       start_linecap_type="round"
       linejoin_type="spiro"
       miter_limit="4"
       scale_width="1"
       end_linecap_type="round" />
    <inkscape:path-effect
       effect="simplify"
       id="path-effect129"
       is_visible="true"
       lpeversion="1"
       steps="1"
       threshold="0.0028332064"
       smooth_angles="0"
       helper_size="0"
       simplify_individual_paths="false"
       simplify_just_coalesce="false"
       step="1" />
  </defs>
  <sodipodi:namedview
     id="base"
     pagecolor="#ffffff"
     bordercolor="#666666"
     borderopacity="1.0"
     inkscape:pageopacity="0.0"
     inkscape:pageshadow="2"
     inkscape:zoom="11.2"
     inkscape:cx="-1.5625"
     inkscape:cy="18.482143"
     inkscape:document-units="mm"
     inkscape:current-layer="layer1"
     showgrid="false"
     fit-margin-top="0"
     fit-margin-left="0"
     fit-margin-right="0"
     fit-margin-bottom="0"
     inkscape:window-width="1920"
     inkscape:window-height="1057"
     inkscape:window-x="1072"
     inkscape:window-y="321"
     inkscape:window-maximized="1"
     showguides="true"
     inkscape:guide-bbox="true"
     inkscape:snap-bbox="true"
     inkscape:bbox-nodes="true"
     inkscape:snap-nodes="false"
     inkscape:snap-others="false"
     inkscape:snap-page="true"
     inkscape:snap-grids="false"
     inkscape:snap-to-guides="false"
     inkscape:snap-global="false"
     inkscape:pagecheckerboard="0"
     inkscape:showpageshadow="2"
     inkscape:deskcolor="#d1d1d1">
    <sodipodi:guide
       position="-6.1806076,9.4988693"
       orientation="0,1"
       id="guide816"
       inkscape:locked="false" />
    <sodipodi:guide
       position="-4.4101636,10.646923"
       orientation="0,1"
       id="guide818"
       inkscape:locked="false" />
    <sodipodi:guide
       position="2.7595724,11.09577"
       orientation="1,0"
       id="guide820"
       inkscape:locked="false" />
    <sodipodi:guide
       position="3.6572659,10.942217"
       orientation="1,0"
       id="guide822"
       inkscape:locked="false" />
    <sodipodi:guide
       position="-0.051625511,9.74923"
       orientation="1,0"
       id="guide1853"
       inkscape:locked="false" />
    <sodipodi:guide
       position="-2.3720169,3.0175835"
       orientation="0,1"
       id="guide1855"
       inkscape:locked="false" />
  </sodipodi:namedview>
  <metadata
     id="metadata1678">
    <rdf:RDF>
      <cc:Work
         rdf:about="">
        <dc:format>image/svg+xml</dc:format>
        <dc:type
           rdf:resource="http://purl.org/dc/dcmitype/StillImage" />
      </cc:Work>
    </rdf:RDF>
  </metadata>
  <g
     inkscape:label="Layer 1"
     inkscape:groupmode="layer"
     id="layer1"
     transform="translate(17.028496,-147.22856)">
    <path
       d="m -16.384007,148.79951 c -0.01705,-0.0111 -0.03184,-0.0249 -0.04237,-0.0433 -0.0077,-0.0135 -0.01471,-0.0321 -0.01732,-0.0584 -0.0022,-0.0225 -0.0012,-0.0503 0.0054,-0.0833 0.0058,-0.0293 0.01568,-0.0611 0.02972,-0.0936 0.0019,-0.004 0.0036,-0.009 0.005,-0.0135 0.01994,-0.0631 0.05194,-0.12378 0.09621,-0.17955 0.0413,-0.052 0.09307,-0.0994 0.153956,-0.1387 0.0074,-0.005 0.01489,-0.009 0.02252,-0.0139 0.09847,-0.0582 0.231024,-0.10207 0.376879,-0.0927 0.135085,0.002 0.270043,0.0405 0.399687,0.11989 0.114926,0.0704 0.22332,0.17175 0.309818,0.29705 0.170601,0.23371 0.290364,0.51951 0.332121,0.82667 0.03916,0.28803 0.0087,0.59067 -0.113454,0.86617 -0.05701,0.12878 -0.148189,0.24299 -0.264059,0.33223 -0.110301,0.085 -0.241628,0.14634 -0.381671,0.17524 -0.02014,0.002 -0.04025,0.005 -0.0583,0.009 -0.02065,0.004 -0.04266,0.008 -0.06264,0.0125 -0.04218,0.009 -0.0788,0.0158 -0.110632,0.0187 -0.01534,0.001 -0.02689,0.002 -0.03488,9e-4 -0.0075,-6e-4 -0.01,-0.002 -0.0058,-9.5e-4 0.0043,0.001 0.0151,0.006 0.02631,0.0166 0.01178,0.0116 0.01739,0.024 0.0197,0.0316 0.0038,0.0126 0.0075,0.0253 0.0094,0.0383 0.0019,0.013 0.0018,0.0264 -7.84e-4,0.0393 -0.0026,0.0129 -0.0077,0.0252 -0.01443,0.0365 -0.0068,0.0113 -0.01516,0.0215 -0.02361,0.0316 0.0037,-0.004 0.0068,-0.007 0.0094,-0.008 0.0026,-0.002 0.0066,-0.003 0.01237,-0.005 0.01288,-0.004 0.0338,-0.006 0.06706,-0.004 0.03321,0.002 0.07021,0.009 0.113651,0.0174 0.0393,0.008 0.09102,0.0193 0.135791,0.0259 0.06184,0.0127 0.125987,0.0323 0.182958,0.0587 0.05798,0.0269 0.107188,0.0602 0.147792,0.10058 0.0036,0.004 0.0075,0.007 0.01148,0.0101 0.196491,0.1606 0.336639,0.37163 0.432071,0.60343 0.100186,0.24336 0.15044,0.50799 0.165131,0.75962 0.01226,0.21384 -0.004,0.42028 -0.04639,0.61097 -0.04646,0.20905 -0.12309,0.39445 -0.22379,0.55385 -0.03043,0.049 -0.05125,0.0839 -0.07706,0.12327 -0.02628,0.04 -0.04986,0.0722 -0.07328,0.099 -0.01298,0.0149 -0.02529,0.0274 -0.03708,0.0379 -0.01118,0.01 -0.02207,0.0185 -0.0327,0.0255 -0.02205,0.0147 -0.04424,0.0242 -0.06844,0.0293 -0.0095,0.002 -0.01882,0.005 -0.02791,0.008 -0.187348,0.0707 -0.383763,0.0918 -0.577082,0.0832 -0.211674,-0.009 -0.420399,-0.0546 -0.607685,-0.11077 -0.100948,-0.0281 -0.198265,-0.0573 -0.241518,-0.0706 a 0.19517081,0.19517081 90 0 0 -0.115076,0.373 c 0.04104,0.0127 0.146118,0.0459 0.24691,0.0746 0.203489,0.0613 0.445704,0.11511 0.700008,0.12631 0.229263,0.0101 0.476651,-0.014 0.720939,-0.10458 0.07054,-0.0175 0.133217,-0.0471 0.188653,-0.0847 0.02773,-0.0188 0.05323,-0.0394 0.07673,-0.061 0.02473,-0.0227 0.04782,-0.047 0.0696,-0.0725 0.03866,-0.0454 0.07245,-0.0938 0.10366,-0.14275 0.02873,-0.0451 0.05456,-0.0895 0.07926,-0.13071 0.123364,-0.19821 0.214463,-0.42594 0.267939,-0.67567 0.0487,-0.2274 0.06525,-0.46907 0.04907,-0.71521 -0.01849,-0.28408 -0.07752,-0.59039 -0.198477,-0.87849 -0.114872,-0.2736 -0.288066,-0.53612 -0.539811,-0.74035 -0.07481,-0.0689 -0.159206,-0.12047 -0.247693,-0.15868 -0.08887,-0.0384 -0.18148,-0.0631 -0.272528,-0.0788 -0.04083,-0.005 -0.07645,-0.0124 -0.127122,-0.0213 -0.04636,-0.008 -0.102413,-0.0172 -0.159747,-0.0197 -0.05709,-0.003 -0.123906,9.2e-4 -0.190506,0.023 -0.03383,0.0112 -0.06765,0.0273 -0.09977,0.0496 -0.03224,0.0224 -0.06111,0.0501 -0.0859,0.0829 -0.01571,0.0208 -0.03068,0.0431 -0.03597,0.0686 -0.0026,0.0128 -0.003,0.0259 -0.0015,0.0389 0.0015,0.0129 0.0047,0.0256 0.0081,0.0382 0.01179,0.0442 0.03387,0.0853 0.0674,0.1191 0.03303,0.0333 0.07108,0.0534 0.106688,0.0652 0.03495,0.0116 0.06922,0.0158 0.09889,0.0168 0.03001,0.001 0.05926,-9.8e-4 0.08573,-0.004 0.05207,-0.006 0.104856,-0.0183 0.144903,-0.0276 0.02175,-0.005 0.03909,-0.009 0.05555,-0.0127 0.01691,-0.004 0.02683,-0.005 0.034,-0.006 0.0057,-8.1e-4 0.01152,-0.001 0.01719,-0.003 0.193506,-0.0405 0.372919,-0.12643 0.522432,-0.24463 0.154609,-0.12222 0.277605,-0.27909 0.354486,-0.45869 0.146377,-0.33597 0.178607,-0.69699 0.130661,-1.0341 -0.05096,-0.35831 -0.192409,-0.69067 -0.391582,-0.96011 -0.109441,-0.15467 -0.249517,-0.28375 -0.401774,-0.37476 -0.174028,-0.10403 -0.359606,-0.15624 -0.542768,-0.15745 -0.207252,-0.0117 -0.39632,0.0538 -0.534379,0.13648 -0.01082,0.006 -0.02148,0.0131 -0.03198,0.02 -0.0864,0.0564 -0.161236,0.12509 -0.221983,0.20211 -0.06375,0.0808 -0.111476,0.17018 -0.142084,0.26449 -0.01981,0.0473 -0.03498,0.0958 -0.04462,0.14397 -0.01139,0.0569 -0.01504,0.11286 -0.01003,0.16649 0.006,0.0643 0.02414,0.12202 0.05225,0.1722 0.03824,0.0683 0.08981,0.11366 0.135297,0.14336 a 0.14395578,0.14395578 90 0 0 0.157446,-0.24104 z"
       id="path-1"
       inkscape:path-effect="#path-effect313;#path-effect315"
       inkscape:original-d="m -16.46273,148.92003 c -0.0405,-0.0521 -0.104975,-0.0925 -0.121494,-0.1564 -0.01905,-0.0737 0.0033,-0.15356 0.02234,-0.22725 0.136482,-0.52807 0.680062,-0.71842 1.156286,-0.52699 0.429975,0.17285 0.734403,0.72625 0.822527,1.16133 0.115771,0.57158 -0.0016,1.29986 -0.578143,1.58913 -0.267818,0.13437 -0.727195,0.19477 -0.706619,0.091 0.04556,-0.22978 0.714016,-0.008 0.724773,-0.003 0.111817,0.0508 0.207,0.13436 0.297451,0.21744 0.608897,0.55931 0.747471,1.7551 0.403583,2.47906 -0.03054,0.0643 -0.249556,0.50744 -0.414755,0.57712 -0.593153,0.25022 -1.074598,0.12931 -1.663208,-0.0523"
       style="fill:#000000;fill-rule:nonzero;stroke:none" />
  </g>
</svg>
