<?xml version="1.0" encoding="UTF-8" standalone="no"?>
<!-- Created with Inkscape (http://www.inkscape.org/) -->

<svg
   width="3mm"
   height="10mm"
   viewBox="0 0 3.0000001 9.9999994"
   version="1.1"
   id="svg1681"
   inkscape:version="1.2.1 (9c6d41e410, 2022-07-14)"
   sodipodi:docname="lower_d_4.svg"
   inkscape:export-filename="..\..\..\..\Downloads\lower a diff canvas resize 3.0.png"
   inkscape:export-xdpi="96"
   inkscape:export-ydpi="96"
   xmlns:inkscape="http://www.inkscape.org/namespaces/inkscape"
   xmlns:sodipodi="http://sodipodi.sourceforge.net/DTD/sodipodi-0.dtd"
   xmlns="http://www.w3.org/2000/svg"
   xmlns:svg="http://www.w3.org/2000/svg"
   xmlns:rdf="http://www.w3.org/1999/02/22-rdf-syntax-ns#"
   xmlns:cc="http://creativecommons.org/ns#"
   xmlns:dc="http://purl.org/dc/elements/1.1/">
  <defs
     id="defs1675">
    <inkscape:path-effect
       effect="powerstroke"
       id="path-effect432"
       is_visible="true"
       lpeversion="1"
       offset_points="2.7996492,0.090145384 | 3.1040662,0.074919292 | 9.9580279,0.10796683"
       not_jump="true"
       sort_points="true"
       interpolator_type="CentripetalCatmullRom"
       interpolator_beta="0.75"
       start_linecap_type="round"
       linejoin_type="spiro"
       miter_limit="4"
       scale_width="1"
       end_linecap_type="round" />
    <inkscape:path-effect
       effect="simplify"
       id="path-effect430"
       is_visible="true"
       lpeversion="1"
       steps="1"
       threshold="0.0047745358"
       smooth_angles="0"
       helper_size="0"
       simplify_individual_paths="false"
       simplify_just_coalesce="false"
       step="1" />
    <inkscape:path-effect
       effect="powerstroke"
       id="path-effect377"
       is_visible="true"
       lpeversion="1"
       offset_points="5.3895838,0.11592593 | 6.3608916,0.10035379 | 9.3393701,0.13340133"
       not_jump="true"
       sort_points="true"
       interpolator_type="CentripetalCatmullRom"
       interpolator_beta="0.75"
       start_linecap_type="round"
       linejoin_type="spiro"
       miter_limit="4"
       scale_width="1"
       end_linecap_type="round" />
    <inkscape:path-effect
       effect="simplify"
       id="path-effect375"
       is_visible="true"
       lpeversion="1"
       steps="1"
       threshold="0.0047745358"
       smooth_angles="0"
       helper_size="0"
       simplify_individual_paths="false"
       simplify_just_coalesce="false"
       step="1" />
    <inkscape:path-effect
       effect="powerstroke"
       id="path-effect324"
       is_visible="true"
       lpeversion="1"
       offset_points="1.0264139,0.097931453 | 4.2577683,0.07163184 | 8.8606933,0.11852128"
       not_jump="true"
       sort_points="true"
       interpolator_type="CentripetalCatmullRom"
       interpolator_beta="0.75"
       start_linecap_type="round"
       linejoin_type="spiro"
       miter_limit="4"
       scale_width="1"
       end_linecap_type="round" />
    <inkscape:path-effect
       effect="simplify"
       id="path-effect322"
       is_visible="true"
       lpeversion="1"
       steps="1"
       threshold="0.0047745358"
       smooth_angles="0"
       helper_size="0"
       simplify_individual_paths="false"
       simplify_just_coalesce="false"
       step="1" />
    <inkscape:path-effect
       effect="powerstroke"
       id="path-effect273"
       is_visible="true"
       lpeversion="1"
       offset_points="1.9820299,0.075092316 | 4.5646992,0.051215036 | 7.5806782,0.095336097"
       not_jump="true"
       sort_points="true"
       interpolator_type="CentripetalCatmullRom"
       interpolator_beta="0.75"
       start_linecap_type="round"
       linejoin_type="spiro"
       miter_limit="4"
       scale_width="1"
       end_linecap_type="round" />
    <inkscape:path-effect
       effect="simplify"
       id="path-effect271"
       is_visible="true"
       lpeversion="1"
       steps="1"
       threshold="0.0047745358"
       smooth_angles="0"
       helper_size="0"
       simplify_individual_paths="false"
       simplify_just_coalesce="false"
       step="1" />
    <inkscape:path-effect
       effect="powerstroke"
       id="path-effect266"
       is_visible="true"
       lpeversion="1"
       offset_points="1.43947,0.11177335 | 5.3468748,0.07664953 | 8.9918311,0.14222554"
       not_jump="true"
       sort_points="true"
       interpolator_type="CentripetalCatmullRom"
       interpolator_beta="0.75"
       start_linecap_type="round"
       linejoin_type="spiro"
       miter_limit="4"
       scale_width="1"
       end_linecap_type="round" />
    <inkscape:path-effect
       effect="simplify"
       id="path-effect264"
       is_visible="true"
       lpeversion="1"
       steps="1"
       threshold="0.0047745358"
       smooth_angles="0"
       helper_size="0"
       simplify_individual_paths="false"
       simplify_just_coalesce="false"
       step="1" />
    <inkscape:path-effect
       effect="powerstroke"
       id="path-effect2924"
       is_visible="true"
       lpeversion="1"
       offset_points="2.0968626,0.14316841 | 4.5733622,0.18306782 | 6.0831468,0.13941318 | 8.4929655,0.17884318"
       not_jump="true"
       sort_points="true"
       interpolator_type="CentripetalCatmullRom"
       interpolator_beta="0.75"
       start_linecap_type="round"
       linejoin_type="spiro"
       miter_limit="4"
       scale_width="1"
       end_linecap_type="round" />
    <inkscape:path-effect
       effect="simplify"
       id="path-effect2922"
       is_visible="true"
       lpeversion="1"
       steps="1"
       threshold="0.0035951417"
       smooth_angles="0"
       helper_size="0"
       simplify_individual_paths="false"
       simplify_just_coalesce="false"
       step="1" />
    <inkscape:path-effect
       effect="powerstroke"
       id="path-effect2917"
       is_visible="true"
       lpeversion="1"
       offset_points="5.1165955,0.077959048 | 7.3846829,0.097779145 | 8.1043412,0.081482621 | 12.581367,0.11011165"
       not_jump="true"
       sort_points="true"
       interpolator_type="CentripetalCatmullRom"
       interpolator_beta="0.75"
       start_linecap_type="round"
       linejoin_type="spiro"
       miter_limit="4"
       scale_width="1"
       end_linecap_type="round" />
    <inkscape:path-effect
       effect="simplify"
       id="path-effect2915"
       is_visible="true"
       lpeversion="1"
       steps="1"
       threshold="0.0035951417"
       smooth_angles="0"
       helper_size="0"
       simplify_individual_paths="false"
       simplify_just_coalesce="false"
       step="1" />
    <inkscape:path-effect
       effect="powerstroke"
       id="path-effect2910"
       is_visible="true"
       lpeversion="1"
       offset_points="2.676822,0.075756815 | 4.6921753,0.091466078 | 6.2204739,0.066947883 | 9.0860519,0.1030645"
       not_jump="true"
       sort_points="true"
       interpolator_type="CentripetalCatmullRom"
       interpolator_beta="0.75"
       start_linecap_type="round"
       linejoin_type="spiro"
       miter_limit="4"
       scale_width="1"
       end_linecap_type="round" />
    <inkscape:path-effect
       effect="simplify"
       id="path-effect2908"
       is_visible="true"
       lpeversion="1"
       steps="1"
       threshold="0.0035951417"
       smooth_angles="0"
       helper_size="0"
       simplify_individual_paths="false"
       simplify_just_coalesce="false"
       step="1" />
    <inkscape:path-effect
       effect="powerstroke"
       id="path-effect2903"
       is_visible="true"
       lpeversion="1"
       offset_points="5.9252334,0.10511992 | 8.1100912,0.084125301 | 8.9201742,0.09498965"
       not_jump="true"
       sort_points="true"
       interpolator_type="CentripetalCatmullRom"
       interpolator_beta="0.75"
       start_linecap_type="round"
       linejoin_type="spiro"
       miter_limit="4"
       scale_width="1"
       end_linecap_type="round" />
    <inkscape:path-effect
       effect="simplify"
       id="path-effect2901"
       is_visible="true"
       lpeversion="1"
       steps="1"
       threshold="0.0035951417"
       smooth_angles="0"
       helper_size="0"
       simplify_individual_paths="false"
       simplify_just_coalesce="false"
       step="1" />
    <inkscape:path-effect
       effect="powerstroke"
       id="path-effect502"
       is_visible="true"
       lpeversion="1"
       offset_points="3.0091841,0.21607495 | 7.3602657,0.17554228 | 9.4159651,0.20236537"
       not_jump="true"
       sort_points="true"
       interpolator_type="CentripetalCatmullRom"
       interpolator_beta="0.75"
       start_linecap_type="round"
       linejoin_type="spiro"
       miter_limit="4"
       scale_width="1"
       end_linecap_type="round" />
    <inkscape:path-effect
       effect="simplify"
       id="path-effect500"
       is_visible="true"
       lpeversion="1"
       steps="1"
       threshold="0.0035951417"
       smooth_angles="0"
       helper_size="0"
       simplify_individual_paths="false"
       simplify_just_coalesce="false"
       step="1" />
    <inkscape:path-effect
       effect="powerstroke"
       id="path-effect241"
       is_visible="true"
       lpeversion="1"
       offset_points="2.6879454,0.34086734"
       not_jump="true"
       sort_points="true"
       interpolator_type="CentripetalCatmullRom"
       interpolator_beta="0.75"
       start_linecap_type="round"
       linejoin_type="spiro"
       miter_limit="4"
       scale_width="1"
       end_linecap_type="round" />
    <inkscape:path-effect
       effect="simplify"
       id="path-effect239"
       is_visible="true"
       lpeversion="1"
       steps="1"
       threshold="0.0028332064"
       smooth_angles="0"
       helper_size="0"
       simplify_individual_paths="false"
       simplify_just_coalesce="false"
       step="1" />
    <inkscape:path-effect
       effect="powerstroke"
       id="path-effect234"
       is_visible="true"
       lpeversion="1"
       offset_points="2.13563,0.075169555"
       not_jump="true"
       sort_points="true"
       interpolator_type="CentripetalCatmullRom"
       interpolator_beta="0.75"
       start_linecap_type="round"
       linejoin_type="spiro"
       miter_limit="4"
       scale_width="1"
       end_linecap_type="round" />
    <inkscape:path-effect
       effect="simplify"
       id="path-effect232"
       is_visible="true"
       lpeversion="1"
       steps="1"
       threshold="0.0028332064"
       smooth_angles="0"
       helper_size="0"
       simplify_individual_paths="false"
       simplify_just_coalesce="false"
       step="1" />
    <inkscape:path-effect
       effect="powerstroke"
       id="path-effect227"
       is_visible="true"
       lpeversion="1"
       offset_points="2.1868266,0.075169555"
       not_jump="true"
       sort_points="true"
       interpolator_type="CentripetalCatmullRom"
       interpolator_beta="0.75"
       start_linecap_type="round"
       linejoin_type="spiro"
       miter_limit="4"
       scale_width="1"
       end_linecap_type="round" />
    <inkscape:path-effect
       effect="simplify"
       id="path-effect225"
       is_visible="true"
       lpeversion="1"
       steps="1"
       threshold="0.0028332064"
       smooth_angles="0"
       helper_size="0"
       simplify_individual_paths="false"
       simplify_just_coalesce="false"
       step="1" />
    <inkscape:path-effect
       effect="powerstroke"
       id="path-effect166"
       is_visible="true"
       lpeversion="1"
       offset_points="1.9637935,0.075169555"
       not_jump="true"
       sort_points="true"
       interpolator_type="CentripetalCatmullRom"
       interpolator_beta="0.75"
       start_linecap_type="round"
       linejoin_type="spiro"
       miter_limit="4"
       scale_width="1"
       end_linecap_type="round" />
    <inkscape:path-effect
       effect="simplify"
       id="path-effect164"
       is_visible="true"
       lpeversion="1"
       steps="1"
       threshold="0.0028332064"
       smooth_angles="0"
       helper_size="0"
       simplify_individual_paths="false"
       simplify_just_coalesce="false"
       step="1" />
    <inkscape:path-effect
       effect="powerstroke"
       id="path-effect159"
       is_visible="true"
       lpeversion="1"
       offset_points="2.2611036,0.075169555"
       not_jump="true"
       sort_points="true"
       interpolator_type="CentripetalCatmullRom"
       interpolator_beta="0.75"
       start_linecap_type="round"
       linejoin_type="spiro"
       miter_limit="4"
       scale_width="1"
       end_linecap_type="round" />
    <inkscape:path-effect
       effect="simplify"
       id="path-effect157"
       is_visible="true"
       lpeversion="1"
       steps="1"
       threshold="0.0028332064"
       smooth_angles="0"
       helper_size="0"
       simplify_individual_paths="false"
       simplify_just_coalesce="false"
       step="1" />
    <inkscape:path-effect
       effect="powerstroke"
       id="path-effect152"
       is_visible="true"
       lpeversion="1"
       offset_points="2.826981,0.075169555"
       not_jump="true"
       sort_points="true"
       interpolator_type="CentripetalCatmullRom"
       interpolator_beta="0.75"
       start_linecap_type="round"
       linejoin_type="spiro"
       miter_limit="4"
       scale_width="1"
       end_linecap_type="round" />
    <inkscape:path-effect
       effect="simplify"
       id="path-effect150"
       is_visible="true"
       lpeversion="1"
       steps="1"
       threshold="0.0028332064"
       smooth_angles="0"
       helper_size="0"
       simplify_individual_paths="false"
       simplify_just_coalesce="false"
       step="1" />
    <inkscape:path-effect
       effect="powerstroke"
       id="path-effect145"
       is_visible="true"
       lpeversion="1"
       offset_points="3.8374447,0.075169555"
       not_jump="true"
       sort_points="true"
       interpolator_type="CentripetalCatmullRom"
       interpolator_beta="0.75"
       start_linecap_type="round"
       linejoin_type="spiro"
       miter_limit="4"
       scale_width="1"
       end_linecap_type="round" />
    <inkscape:path-effect
       effect="simplify"
       id="path-effect143"
       is_visible="true"
       lpeversion="1"
       steps="1"
       threshold="0.0028332064"
       smooth_angles="0"
       helper_size="0"
       simplify_individual_paths="false"
       simplify_just_coalesce="false"
       step="1" />
    <inkscape:path-effect
       effect="powerstroke"
       id="path-effect138"
       is_visible="true"
       lpeversion="1"
       offset_points="2.6880907,0.075169555"
       not_jump="true"
       sort_points="true"
       interpolator_type="CentripetalCatmullRom"
       interpolator_beta="0.75"
       start_linecap_type="round"
       linejoin_type="spiro"
       miter_limit="4"
       scale_width="1"
       end_linecap_type="round" />
    <inkscape:path-effect
       effect="simplify"
       id="path-effect136"
       is_visible="true"
       lpeversion="1"
       steps="1"
       threshold="0.0028332064"
       smooth_angles="0"
       helper_size="0"
       simplify_individual_paths="false"
       simplify_just_coalesce="false"
       step="1" />
    <inkscape:path-effect
       effect="powerstroke"
       id="path-effect131"
       is_visible="true"
       lpeversion="1"
       offset_points="1.9940581,0.075169555"
       not_jump="true"
       sort_points="true"
       interpolator_type="CentripetalCatmullRom"
       interpolator_beta="0.75"
       start_linecap_type="round"
       linejoin_type="spiro"
       miter_limit="4"
       scale_width="1"
       end_linecap_type="round" />
    <inkscape:path-effect
       effect="simplify"
       id="path-effect129"
       is_visible="true"
       lpeversion="1"
       steps="1"
       threshold="0.0028332064"
       smooth_angles="0"
       helper_size="0"
       simplify_individual_paths="false"
       simplify_just_coalesce="false"
       step="1" />
  </defs>
  <sodipodi:namedview
     id="base"
     pagecolor="#ffffff"
     bordercolor="#666666"
     borderopacity="1.0"
     inkscape:pageopacity="0.0"
     inkscape:pageshadow="2"
     inkscape:zoom="22.4"
     inkscape:cx="2.8125"
     inkscape:cy="12.723214"
     inkscape:document-units="mm"
     inkscape:current-layer="layer1"
     showgrid="false"
     fit-margin-top="0"
     fit-margin-left="0"
     fit-margin-right="0"
     fit-margin-bottom="0"
     inkscape:window-width="1920"
     inkscape:window-height="1057"
     inkscape:window-x="1072"
     inkscape:window-y="321"
     inkscape:window-maximized="1"
     showguides="true"
     inkscape:guide-bbox="true"
     inkscape:snap-bbox="true"
     inkscape:bbox-nodes="true"
     inkscape:snap-nodes="false"
     inkscape:snap-others="false"
     inkscape:snap-page="true"
     inkscape:snap-grids="false"
     inkscape:snap-to-guides="false"
     inkscape:snap-global="false"
     inkscape:pagecheckerboard="0"
     inkscape:showpageshadow="2"
     inkscape:deskcolor="#d1d1d1">
    <sodipodi:guide
       position="-6.1806076,9.4988693"
       orientation="0,1"
       id="guide816"
       inkscape:locked="false" />
    <sodipodi:guide
       position="-4.4101636,10.646923"
       orientation="0,1"
       id="guide818"
       inkscape:locked="false" />
    <sodipodi:guide
       position="2.7595724,11.09577"
       orientation="1,0"
       id="guide820"
       inkscape:locked="false" />
    <sodipodi:guide
       position="3.6572659,10.942217"
       orientation="1,0"
       id="guide822"
       inkscape:locked="false" />
    <sodipodi:guide
       position="-0.051625511,9.74923"
       orientation="1,0"
       id="guide1853"
       inkscape:locked="false" />
    <sodipodi:guide
       position="-2.3720169,3.0175835"
       orientation="0,1"
       id="guide1855"
       inkscape:locked="false" />
  </sodipodi:namedview>
  <metadata
     id="metadata1678">
    <rdf:RDF>
      <cc:Work
         rdf:about="">
        <dc:format>image/svg+xml</dc:format>
        <dc:type
           rdf:resource="http://purl.org/dc/dcmitype/StillImage" />
      </cc:Work>
    </rdf:RDF>
  </metadata>
  <g
     inkscape:label="Layer 1"
     inkscape:groupmode="layer"
     id="layer1"
     transform="translate(17.028496,-147.22856)">
    <path
       d="m -14.733824,147.78269 c -0.005,0.15201 -0.08422,2.61954 -0.125402,3.71898 -0.01692,0.80664 -0.01058,1.61669 -7.51e-4,2.38564 1.07e-4,0.008 0.0013,0.0167 0.0036,0.0247 -4.36e-4,-0.002 -2.98e-4,-0.002 9.5e-5,9.8e-4 3.58e-4,0.002 7.62e-4,0.006 0.0011,0.01 7.95e-4,0.009 0.0013,0.0203 0.0015,0.0326 2.11e-4,0.0129 8.7e-5,0.0263 -2.28e-4,0.0386 -3.45e-4,0.0135 -9.05e-4,0.0254 -0.0015,0.0348 -3.16e-4,0.005 -6.1e-4,0.009 -8.67e-4,0.0128 -2.59e-4,0.003 -4.76e-4,0.006 -4.02e-4,0.007 5.94e-4,-9e-4 0.0019,-0.005 0.0031,-0.007 7.65e-4,-0.002 0.002,-0.005 0.0037,-0.008 0.0017,-0.003 0.0046,-0.008 0.0091,-0.0139 0.0044,-0.006 0.01274,-0.0146 0.02586,-0.0222 0.015,-0.009 0.03527,-0.0144 0.05804,-0.0111 0.01099,0.002 0.02053,0.005 0.02839,0.009 0.0079,0.004 0.01409,0.009 0.01866,0.0129 0.0091,0.008 0.01426,0.0163 0.01679,0.0206 0.0029,0.005 0.0046,0.009 0.0055,0.0118 0.0012,0.004 0.0016,0.005 0.0018,0.006 6.44e-4,0.003 3.93e-4,0.004 1.31e-4,0.005 -0.0031,-0.004 -0.0054,-0.01 -0.0072,-0.0148 -0.0019,-0.006 -0.0041,-0.0133 -0.006,-0.0249 -7.53e-4,-0.019 -0.0026,-0.0743 -0.0047,-0.12273 -0.0078,-0.18431 -0.01182,-0.19695 -0.02998,-0.47734 -0.01049,-0.16194 -0.02212,-0.37789 -0.0013,-0.58843 0.0096,-0.18962 0.03261,-0.39543 0.04623,-0.61757 0.01197,-0.19539 0.01609,-0.41186 -0.01828,-0.63031 -0.01015,-0.0696 -0.03372,-0.13588 -0.06851,-0.19647 -0.03376,-0.0588 -0.07777,-0.11166 -0.129461,-0.157 -0.09987,-0.0876 -0.229361,-0.14773 -0.366938,-0.16552 -0.157931,-0.0279 -0.321695,-0.0141 -0.477039,0.0322 -0.153806,0.0458 -0.298408,0.12294 -0.423938,0.22068 -0.101195,0.0677 -0.200022,0.15403 -0.280645,0.25502 -0.08285,0.10377 -0.145752,0.22212 -0.178199,0.35395 -0.149291,0.5947 -0.06972,1.20714 0.142247,1.69607 0.07082,0.16494 0.170751,0.31238 0.289552,0.42444 0.06747,0.0636 0.139857,0.11489 0.215746,0.15319 0.07102,0.0358 0.143313,0.0595 0.215556,0.0723 0.01552,0.003 0.0312,0.005 0.04704,0.007 0.08142,0.0147 0.167291,0.0141 0.249216,0.002 0.08374,-0.0128 0.163035,-0.0378 0.236555,-0.0701 0.155196,-0.0681 0.289385,-0.1703 0.394208,-0.26838 0.05558,-0.0499 0.107219,-0.10148 0.129868,-0.12374 a 0.10796683,0.10796683 90 0 0 -0.151334,-0.15402 c -0.02252,0.0221 -0.07167,0.0692 -0.12548,0.1171 -0.09541,0.0891 -0.209326,0.1745 -0.334853,0.22984 -0.05892,0.026 -0.119861,0.0451 -0.181988,0.0548 -0.06051,0.009 -0.122455,0.01 -0.185429,-9e-4 -0.01811,-0.002 -0.02937,-0.004 -0.04052,-0.006 -0.05167,-0.009 -0.104163,-0.0255 -0.156843,-0.0515 -0.05641,-0.0279 -0.112499,-0.0663 -0.166795,-0.11642 -0.09623,-0.0888 -0.182134,-0.21041 -0.245262,-0.35205 -0.198997,-0.44959 -0.27871,-1.01152 -0.144206,-1.56806 0.02307,-0.10264 0.07028,-0.19798 0.136802,-0.285 0.06519,-0.0853 0.147805,-0.16123 0.240243,-0.2262 0.112833,-0.0906 0.2371,-0.15932 0.368303,-0.2007 0.132233,-0.0417 0.269556,-0.0551 0.403804,-0.0335 0.108957,0.0121 0.209905,0.0565 0.287959,0.12249 0.04009,0.0339 0.07366,0.073 0.09924,0.11583 0.02628,0.044 0.04411,0.0918 0.0523,0.14245 0.03378,0.20282 0.03211,0.40663 0.0217,0.5985 -0.01176,0.21685 -0.03376,0.42403 -0.04273,0.61564 -0.02104,0.21918 -0.0086,0.44649 0.001,0.6076 0.01418,0.238 0.02166,0.33588 0.02227,0.47205 2.38e-4,0.0536 -0.0012,0.093 -0.0029,0.12223 -6.39e-4,0.0182 -0.0016,0.0269 -0.0025,0.0351 -7.83e-4,0.007 -0.0016,0.0156 -0.0017,0.024 -2.5e-5,0.003 6e-5,0.007 4.38e-4,0.0112 2.97e-4,0.003 8.8e-4,0.008 0.0022,0.0134 5.11e-4,0.002 0.0012,0.005 0.0022,0.008 0.0019,0.005 0.004,0.0102 0.0072,0.0159 0.0029,0.005 0.0084,0.0135 0.01785,0.022 0.0047,0.004 0.01109,0.009 0.01919,0.0133 0.008,0.004 0.01776,0.008 0.02893,0.009 0.02312,0.003 0.04374,-0.002 0.0591,-0.0113 0.01346,-0.008 0.02213,-0.0171 0.02692,-0.0231 0.0048,-0.006 0.0081,-0.0117 0.0102,-0.0156 0.0021,-0.004 0.0036,-0.007 0.0048,-0.0102 0.0021,-0.005 0.0036,-0.01 0.0046,-0.0134 0.001,-0.004 0.0018,-0.007 0.0026,-0.01 0.0013,-0.006 0.0024,-0.012 0.0034,-0.0183 9.04e-4,-0.006 0.0017,-0.0124 0.0025,-0.0194 0.0014,-0.0128 0.0025,-0.0277 0.0033,-0.0439 7.37e-4,-0.0148 0.0012,-0.0311 0.0012,-0.0475 -3.2e-5,-0.0152 -4.87e-4,-0.0314 -0.0017,-0.0466 -5.83e-4,-0.007 -0.0014,-0.0151 -0.0025,-0.0226 -4.52e-4,-0.003 -9.93e-4,-0.006 -0.0017,-0.01 -0.0097,-0.76762 -0.01769,-1.56771 -0.0032,-2.36801 0.05757,-1.61398 0.09718,-3.0516 0.119076,-3.71829 a 0.09014538,0.09014538 90 0 0 -0.180194,-0.006 z"
       id="path-1"
       inkscape:path-effect="#path-effect430;#path-effect432"
       inkscape:original-d="m -14.643727,147.78565 c -0.03157,0.89243 -0.07279,2.43322 -0.109799,3.32599 -0.01159,0.27967 -0.0167,0.55962 -0.01955,0.83952 -0.0037,0.36057 -0.0011,0.72118 0,1.08176 7.92e-4,0.26722 0.004,0.53443 0.0056,0.80165 2.33e-4,0.0382 0.01904,0.22334 0,0.25646 -0.01649,0.0287 -0.007,-0.20764 -0.0091,-0.24064 -0.01397,-0.22047 -0.03159,-0.4408 -0.0391,-0.66159 -0.01562,-0.45936 0.130308,-1.28141 0.02095,-1.65697 -0.133613,-0.45885 -0.743285,-0.48562 -1.101125,-0.29265 -0.153344,0.0827 -0.296759,0.18734 -0.421737,0.30872 -0.249115,0.24195 -0.285444,0.65173 -0.291166,0.97441 -0.009,0.50568 0.188325,1.44435 0.780633,1.61528 0.434873,0.1255 0.736979,-0.10529 1.041076,-0.40409"
       style="fill:#000000;fill-rule:nonzero;stroke:none"
       sodipodi:nodetypes="cccccccccccccc" />
  </g>
</svg>
