<?xml version="1.0" encoding="UTF-8" standalone="no"?>
<!-- Created with Inkscape (http://www.inkscape.org/) -->

<svg
   width="3mm"
   height="10mm"
   viewBox="0 0 3.0000001 9.9999994"
   version="1.1"
   id="svg1681"
   inkscape:version="1.2.1 (9c6d41e410, 2022-07-14)"
   sodipodi:docname="number_nine_6.svg"
   inkscape:export-filename="..\..\..\..\Downloads\lower a diff canvas resize 3.0.png"
   inkscape:export-xdpi="96"
   inkscape:export-ydpi="96"
   xmlns:inkscape="http://www.inkscape.org/namespaces/inkscape"
   xmlns:sodipodi="http://sodipodi.sourceforge.net/DTD/sodipodi-0.dtd"
   xmlns="http://www.w3.org/2000/svg"
   xmlns:svg="http://www.w3.org/2000/svg"
   xmlns:rdf="http://www.w3.org/1999/02/22-rdf-syntax-ns#"
   xmlns:cc="http://creativecommons.org/ns#"
   xmlns:dc="http://purl.org/dc/elements/1.1/">
  <defs
     id="defs1675">
    <inkscape:path-effect
       effect="powerstroke"
       id="path-effect153"
       is_visible="true"
       lpeversion="1"
       offset_points="3.0668533,0.1389687"
       not_jump="true"
       sort_points="true"
       interpolator_type="CentripetalCatmullRom"
       interpolator_beta="0.75"
       start_linecap_type="round"
       linejoin_type="spiro"
       miter_limit="4"
       scale_width="1"
       end_linecap_type="round" />
    <inkscape:path-effect
       effect="simplify"
       id="path-effect151"
       is_visible="true"
       lpeversion="1"
       steps="1"
       threshold="0.0035951417"
       smooth_angles="0"
       helper_size="0"
       simplify_individual_paths="false"
       simplify_just_coalesce="false"
       step="1" />
    <inkscape:path-effect
       effect="powerstroke"
       id="path-effect1311"
       is_visible="true"
       lpeversion="1"
       offset_points="1.6852059,0.11860025"
       not_jump="true"
       sort_points="true"
       interpolator_type="CentripetalCatmullRom"
       interpolator_beta="0.75"
       start_linecap_type="round"
       linejoin_type="spiro"
       miter_limit="4"
       scale_width="1"
       end_linecap_type="round" />
    <inkscape:path-effect
       effect="simplify"
       id="path-effect1309"
       is_visible="true"
       lpeversion="1"
       steps="1"
       threshold="0.0035951417"
       smooth_angles="0"
       helper_size="0"
       simplify_individual_paths="false"
       simplify_just_coalesce="false"
       step="1" />
    <inkscape:path-effect
       effect="powerstroke"
       id="path-effect502"
       is_visible="true"
       lpeversion="1"
       offset_points="3.0091841,0.21607495 | 7.3602657,0.17554228 | 9.4159651,0.20236537"
       not_jump="true"
       sort_points="true"
       interpolator_type="CentripetalCatmullRom"
       interpolator_beta="0.75"
       start_linecap_type="round"
       linejoin_type="spiro"
       miter_limit="4"
       scale_width="1"
       end_linecap_type="round" />
    <inkscape:path-effect
       effect="simplify"
       id="path-effect500"
       is_visible="true"
       lpeversion="1"
       steps="1"
       threshold="0.0035951417"
       smooth_angles="0"
       helper_size="0"
       simplify_individual_paths="false"
       simplify_just_coalesce="false"
       step="1" />
    <inkscape:path-effect
       effect="powerstroke"
       id="path-effect241"
       is_visible="true"
       lpeversion="1"
       offset_points="2.6879454,0.34086734"
       not_jump="true"
       sort_points="true"
       interpolator_type="CentripetalCatmullRom"
       interpolator_beta="0.75"
       start_linecap_type="round"
       linejoin_type="spiro"
       miter_limit="4"
       scale_width="1"
       end_linecap_type="round" />
    <inkscape:path-effect
       effect="simplify"
       id="path-effect239"
       is_visible="true"
       lpeversion="1"
       steps="1"
       threshold="0.0028332064"
       smooth_angles="0"
       helper_size="0"
       simplify_individual_paths="false"
       simplify_just_coalesce="false"
       step="1" />
    <inkscape:path-effect
       effect="powerstroke"
       id="path-effect234"
       is_visible="true"
       lpeversion="1"
       offset_points="2.13563,0.075169555"
       not_jump="true"
       sort_points="true"
       interpolator_type="CentripetalCatmullRom"
       interpolator_beta="0.75"
       start_linecap_type="round"
       linejoin_type="spiro"
       miter_limit="4"
       scale_width="1"
       end_linecap_type="round" />
    <inkscape:path-effect
       effect="simplify"
       id="path-effect232"
       is_visible="true"
       lpeversion="1"
       steps="1"
       threshold="0.0028332064"
       smooth_angles="0"
       helper_size="0"
       simplify_individual_paths="false"
       simplify_just_coalesce="false"
       step="1" />
    <inkscape:path-effect
       effect="powerstroke"
       id="path-effect227"
       is_visible="true"
       lpeversion="1"
       offset_points="2.1868266,0.075169555"
       not_jump="true"
       sort_points="true"
       interpolator_type="CentripetalCatmullRom"
       interpolator_beta="0.75"
       start_linecap_type="round"
       linejoin_type="spiro"
       miter_limit="4"
       scale_width="1"
       end_linecap_type="round" />
    <inkscape:path-effect
       effect="simplify"
       id="path-effect225"
       is_visible="true"
       lpeversion="1"
       steps="1"
       threshold="0.0028332064"
       smooth_angles="0"
       helper_size="0"
       simplify_individual_paths="false"
       simplify_just_coalesce="false"
       step="1" />
    <inkscape:path-effect
       effect="powerstroke"
       id="path-effect166"
       is_visible="true"
       lpeversion="1"
       offset_points="1.9637935,0.075169555"
       not_jump="true"
       sort_points="true"
       interpolator_type="CentripetalCatmullRom"
       interpolator_beta="0.75"
       start_linecap_type="round"
       linejoin_type="spiro"
       miter_limit="4"
       scale_width="1"
       end_linecap_type="round" />
    <inkscape:path-effect
       effect="simplify"
       id="path-effect164"
       is_visible="true"
       lpeversion="1"
       steps="1"
       threshold="0.0028332064"
       smooth_angles="0"
       helper_size="0"
       simplify_individual_paths="false"
       simplify_just_coalesce="false"
       step="1" />
    <inkscape:path-effect
       effect="powerstroke"
       id="path-effect159"
       is_visible="true"
       lpeversion="1"
       offset_points="2.2611036,0.075169555"
       not_jump="true"
       sort_points="true"
       interpolator_type="CentripetalCatmullRom"
       interpolator_beta="0.75"
       start_linecap_type="round"
       linejoin_type="spiro"
       miter_limit="4"
       scale_width="1"
       end_linecap_type="round" />
    <inkscape:path-effect
       effect="simplify"
       id="path-effect157"
       is_visible="true"
       lpeversion="1"
       steps="1"
       threshold="0.0028332064"
       smooth_angles="0"
       helper_size="0"
       simplify_individual_paths="false"
       simplify_just_coalesce="false"
       step="1" />
    <inkscape:path-effect
       effect="powerstroke"
       id="path-effect152"
       is_visible="true"
       lpeversion="1"
       offset_points="2.826981,0.075169555"
       not_jump="true"
       sort_points="true"
       interpolator_type="CentripetalCatmullRom"
       interpolator_beta="0.75"
       start_linecap_type="round"
       linejoin_type="spiro"
       miter_limit="4"
       scale_width="1"
       end_linecap_type="round" />
    <inkscape:path-effect
       effect="simplify"
       id="path-effect150"
       is_visible="true"
       lpeversion="1"
       steps="1"
       threshold="0.0028332064"
       smooth_angles="0"
       helper_size="0"
       simplify_individual_paths="false"
       simplify_just_coalesce="false"
       step="1" />
    <inkscape:path-effect
       effect="powerstroke"
       id="path-effect145"
       is_visible="true"
       lpeversion="1"
       offset_points="3.8374447,0.075169555"
       not_jump="true"
       sort_points="true"
       interpolator_type="CentripetalCatmullRom"
       interpolator_beta="0.75"
       start_linecap_type="round"
       linejoin_type="spiro"
       miter_limit="4"
       scale_width="1"
       end_linecap_type="round" />
    <inkscape:path-effect
       effect="simplify"
       id="path-effect143"
       is_visible="true"
       lpeversion="1"
       steps="1"
       threshold="0.0028332064"
       smooth_angles="0"
       helper_size="0"
       simplify_individual_paths="false"
       simplify_just_coalesce="false"
       step="1" />
    <inkscape:path-effect
       effect="powerstroke"
       id="path-effect138"
       is_visible="true"
       lpeversion="1"
       offset_points="2.6880907,0.075169555"
       not_jump="true"
       sort_points="true"
       interpolator_type="CentripetalCatmullRom"
       interpolator_beta="0.75"
       start_linecap_type="round"
       linejoin_type="spiro"
       miter_limit="4"
       scale_width="1"
       end_linecap_type="round" />
    <inkscape:path-effect
       effect="simplify"
       id="path-effect136"
       is_visible="true"
       lpeversion="1"
       steps="1"
       threshold="0.0028332064"
       smooth_angles="0"
       helper_size="0"
       simplify_individual_paths="false"
       simplify_just_coalesce="false"
       step="1" />
    <inkscape:path-effect
       effect="powerstroke"
       id="path-effect131"
       is_visible="true"
       lpeversion="1"
       offset_points="1.9940581,0.075169555"
       not_jump="true"
       sort_points="true"
       interpolator_type="CentripetalCatmullRom"
       interpolator_beta="0.75"
       start_linecap_type="round"
       linejoin_type="spiro"
       miter_limit="4"
       scale_width="1"
       end_linecap_type="round" />
    <inkscape:path-effect
       effect="simplify"
       id="path-effect129"
       is_visible="true"
       lpeversion="1"
       steps="1"
       threshold="0.0028332064"
       smooth_angles="0"
       helper_size="0"
       simplify_individual_paths="false"
       simplify_just_coalesce="false"
       step="1" />
  </defs>
  <sodipodi:namedview
     id="base"
     pagecolor="#ffffff"
     bordercolor="#666666"
     borderopacity="1.0"
     inkscape:pageopacity="0.0"
     inkscape:pageshadow="2"
     inkscape:zoom="7.919596"
     inkscape:cx="-5.3033008"
     inkscape:cy="20.834396"
     inkscape:document-units="mm"
     inkscape:current-layer="layer1"
     showgrid="false"
     fit-margin-top="0"
     fit-margin-left="0"
     fit-margin-right="0"
     fit-margin-bottom="0"
     inkscape:window-width="1920"
     inkscape:window-height="974"
     inkscape:window-x="-11"
     inkscape:window-y="2869"
     inkscape:window-maximized="1"
     showguides="true"
     inkscape:guide-bbox="true"
     inkscape:snap-bbox="true"
     inkscape:bbox-nodes="true"
     inkscape:snap-nodes="false"
     inkscape:snap-others="false"
     inkscape:snap-page="true"
     inkscape:snap-grids="false"
     inkscape:snap-to-guides="false"
     inkscape:snap-global="false"
     inkscape:pagecheckerboard="0"
     inkscape:showpageshadow="2"
     inkscape:deskcolor="#d1d1d1">
    <sodipodi:guide
       position="-6.1806076,9.4988693"
       orientation="0,1"
       id="guide816"
       inkscape:locked="false" />
    <sodipodi:guide
       position="-4.4101636,10.646923"
       orientation="0,1"
       id="guide818"
       inkscape:locked="false" />
    <sodipodi:guide
       position="2.7595724,11.09577"
       orientation="1,0"
       id="guide820"
       inkscape:locked="false" />
    <sodipodi:guide
       position="3.6572659,10.942217"
       orientation="1,0"
       id="guide822"
       inkscape:locked="false" />
    <sodipodi:guide
       position="-0.051625511,9.74923"
       orientation="1,0"
       id="guide1853"
       inkscape:locked="false" />
    <sodipodi:guide
       position="-2.3720169,3.0175835"
       orientation="0,1"
       id="guide1855"
       inkscape:locked="false" />
  </sodipodi:namedview>
  <metadata
     id="metadata1678">
    <rdf:RDF>
      <cc:Work
         rdf:about="">
        <dc:format>image/svg+xml</dc:format>
        <dc:type
           rdf:resource="http://purl.org/dc/dcmitype/StillImage" />
      </cc:Work>
    </rdf:RDF>
  </metadata>
  <g
     inkscape:label="Layer 1"
     inkscape:groupmode="layer"
     id="layer1"
     transform="translate(17.028496,-147.22856)">
    <path
       d="m -14.446316,148.8138 c -0.0237,-0.0539 -0.05953,-0.11254 -0.113317,-0.16814 -0.04215,-0.0436 -0.09388,-0.0838 -0.155494,-0.11697 -0.101212,-0.0546 -0.229,-0.0897 -0.367083,-0.0852 -0.176524,3.9e-4 -0.350896,0.0427 -0.524075,0.11199 -0.159081,0.0636 -0.308729,0.14633 -0.455838,0.23033 -0.231456,0.13868 -0.455535,0.31219 -0.64434,0.52263 -0.185508,0.20676 -0.336712,0.44899 -0.423318,0.72523 -0.0051,0.0139 -0.01087,0.0331 -0.01576,0.0524 -0.02932,0.11598 -0.02736,0.24665 0.01452,0.37438 0.04261,0.12997 0.127077,0.25815 0.260791,0.34603 0.10127,0.0714 0.22603,0.12047 0.35954,0.13912 0.120373,0.0168 0.248516,0.009 0.371796,-0.0291 0.416729,-0.0473 0.820465,-0.22267 1.15376,-0.49534 0.327186,-0.26767 0.587243,-0.6304 0.712933,-1.05093 0.05165,-0.17605 0.07769,-0.36044 0.07432,-0.54587 0.01098,-0.0455 0.01295,-0.092 0.008,-0.1361 -0.0059,-0.0526 -0.02207,-0.10462 -0.0477,-0.1514 -0.02603,-0.0475 -0.06256,-0.0911 -0.110679,-0.12417 -0.04941,-0.0339 -0.108583,-0.0546 -0.173979,-0.0562 -0.005,-1.2e-4 -0.01004,3e-5 -0.01504,4.6e-4 -0.03115,0.003 -0.06184,0.0104 -0.09062,0.0245 -0.02919,0.0143 -0.05375,0.0338 -0.07346,0.0567 -0.01964,0.0228 -0.03325,0.0476 -0.04259,0.0715 -0.0094,0.024 -0.01475,0.048 -0.01766,0.0702 -0.0058,0.0445 -0.0026,0.0882 0.0039,0.12512 0.0053,0.0301 0.01328,0.0592 0.02304,0.0854 0.0091,0.0844 0.008,0.16965 0.0018,0.2561 -0.0069,0.0957 -0.0203,0.19315 -0.03341,0.29093 -0.01381,0.10305 -0.02713,0.20527 -0.03334,0.3096 -0.0064,0.10826 -0.005,0.21556 0.01064,0.32345 0.124504,1.90727 0.190604,2.73653 0.205326,3.93982 a 0.1389687,0.1389687 90 0 0 0.277916,-0.003 c -0.01485,-1.21354 -0.08171,-2.05177 -0.20626,-3.96013 -2.51e-4,-0.004 -6.63e-4,-0.008 -0.0012,-0.0115 -0.01283,-0.0858 -0.0147,-0.17497 -0.0089,-0.27172 0.0055,-0.0928 0.01748,-0.18553 0.03137,-0.2892 0.01277,-0.0953 0.02748,-0.20188 0.03514,-0.3078 0.0075,-0.10346 0.009,-0.21381 -0.0052,-0.32759 -0.0016,-0.0131 -0.0051,-0.026 -0.01041,-0.0382 -0.0046,-0.0106 -0.0096,-0.0263 -0.0127,-0.0439 -0.0031,-0.0174 -0.0033,-0.0317 -0.0021,-0.041 5.27e-4,-0.004 0.0013,-0.006 9.88e-4,-0.005 -2.67e-4,6.9e-4 -0.0017,0.004 -0.0056,0.009 -0.0041,0.005 -0.0094,0.009 -0.01514,0.0117 -0.0052,0.003 -0.0091,0.003 -0.008,0.003 l -0.01504,4.6e-4 c 0.0092,2.2e-4 0.01638,0.003 0.02325,0.007 0.0075,0.005 0.0164,0.0143 0.02423,0.0286 0.0078,0.0142 0.01326,0.0313 0.01527,0.0491 0.002,0.0177 2.62e-4,0.0335 -0.0036,0.0456 -0.0024,0.007 -0.0046,0.0151 -0.0057,0.0229 -0.0011,0.008 -0.001,0.0157 -7.84e-4,0.0236 0.0049,0.16215 -0.01699,0.32473 -0.06249,0.47983 -0.107975,0.36126 -0.333604,0.67845 -0.622425,0.91473 -0.297556,0.24343 -0.656335,0.39683 -1.021388,0.43564 -0.0097,0.001 -0.01936,0.003 -0.02867,0.006 -0.08499,0.0279 -0.175463,0.0345 -0.261054,0.0225 -0.09118,-0.0127 -0.173979,-0.0459 -0.241631,-0.0936 -0.07729,-0.0509 -0.127436,-0.12477 -0.153047,-0.20288 -0.02528,-0.0771 -0.02574,-0.15409 -0.0092,-0.21967 0.0028,-0.0109 0.006,-0.0216 0.0098,-0.0322 0.07443,-0.23707 0.202906,-0.44532 0.366699,-0.62788 0.166984,-0.18612 0.368172,-0.34272 0.577812,-0.46836 0.144052,-0.0822 0.279112,-0.15632 0.418692,-0.21214 0.149793,-0.0599 0.288905,-0.0918 0.425732,-0.0922 0.0905,-0.003 0.169927,0.0194 0.230344,0.052 0.03619,0.0195 0.06516,0.0423 0.08759,0.0655 0.02845,0.0294 0.04672,0.0596 0.05865,0.0868 a 0.1389687,0.1389687 90 0 0 0.254444,-0.11184 z"
       id="path-1"
       inkscape:path-effect="#path-effect151;#path-effect153"
       inkscape:original-d="m -14.573538,148.86972 c -0.205457,-0.42203 -0.769666,-0.30163 -1.107972,-0.12778 -0.586415,0.26993 -1.14877,0.73789 -1.328962,1.37802 -0.110993,0.49886 0.407629,0.80214 0.842655,0.65984 0.971829,-0.099 1.860296,-0.97231 1.830518,-1.9726 0.08436,-0.34472 -0.406894,-0.46084 -0.26145,-0.0512 0.05067,0.38833 -0.106881,0.77469 -0.05396,1.16864 0.0863,1.32675 0.191731,2.6537 0.208002,3.98388"
       style="fill:#000000;fill-rule:nonzero;stroke:none;stroke-width:1.11359" />
  </g>
</svg>
