<?xml version="1.0" encoding="UTF-8" standalone="no"?>
<!-- Created with Inkscape (http://www.inkscape.org/) -->

<svg
   width="3mm"
   height="10mm"
   viewBox="0 0 3.0000001 9.9999994"
   version="1.1"
   id="svg1681"
   inkscape:version="1.2.1 (9c6d41e410, 2022-07-14)"
   sodipodi:docname="number_nine_20.svg"
   inkscape:export-filename="..\..\..\..\Downloads\lower a diff canvas resize 3.0.png"
   inkscape:export-xdpi="96"
   inkscape:export-ydpi="96"
   xmlns:inkscape="http://www.inkscape.org/namespaces/inkscape"
   xmlns:sodipodi="http://sodipodi.sourceforge.net/DTD/sodipodi-0.dtd"
   xmlns="http://www.w3.org/2000/svg"
   xmlns:svg="http://www.w3.org/2000/svg"
   xmlns:rdf="http://www.w3.org/1999/02/22-rdf-syntax-ns#"
   xmlns:cc="http://creativecommons.org/ns#"
   xmlns:dc="http://purl.org/dc/elements/1.1/">
  <defs
     id="defs1675">
    <inkscape:path-effect
       effect="powerstroke"
       id="path-effect577"
       is_visible="true"
       lpeversion="1"
       offset_points="1.8457366,0.14672416 | 6.0965029,0.12907573"
       not_jump="true"
       sort_points="true"
       interpolator_type="CentripetalCatmullRom"
       interpolator_beta="0.75"
       start_linecap_type="round"
       linejoin_type="spiro"
       miter_limit="4"
       scale_width="1"
       end_linecap_type="round" />
    <inkscape:path-effect
       effect="simplify"
       id="path-effect575"
       is_visible="true"
       lpeversion="1"
       steps="1"
       threshold="0.0047745358"
       smooth_angles="0"
       helper_size="0"
       simplify_individual_paths="false"
       simplify_just_coalesce="false"
       step="1" />
    <inkscape:path-effect
       effect="powerstroke"
       id="path-effect520"
       is_visible="true"
       lpeversion="1"
       offset_points="1.1647531,0.1543372"
       not_jump="true"
       sort_points="true"
       interpolator_type="CentripetalCatmullRom"
       interpolator_beta="0.75"
       start_linecap_type="round"
       linejoin_type="spiro"
       miter_limit="4"
       scale_width="1"
       end_linecap_type="round" />
    <inkscape:path-effect
       effect="simplify"
       id="path-effect518"
       is_visible="true"
       lpeversion="1"
       steps="1"
       threshold="0.0047745358"
       smooth_angles="0"
       helper_size="0"
       simplify_individual_paths="false"
       simplify_just_coalesce="false"
       step="1" />
    <inkscape:path-effect
       effect="powerstroke"
       id="path-effect465"
       is_visible="true"
       lpeversion="1"
       offset_points="2.9517383,0.1543372 | 5.8808841,0.13807297"
       not_jump="true"
       sort_points="true"
       interpolator_type="CentripetalCatmullRom"
       interpolator_beta="0.75"
       start_linecap_type="round"
       linejoin_type="spiro"
       miter_limit="4"
       scale_width="1"
       end_linecap_type="round" />
    <inkscape:path-effect
       effect="simplify"
       id="path-effect463"
       is_visible="true"
       lpeversion="1"
       steps="1"
       threshold="0.0047745358"
       smooth_angles="0"
       helper_size="0"
       simplify_individual_paths="false"
       simplify_just_coalesce="false"
       step="1" />
    <inkscape:path-effect
       effect="powerstroke"
       id="path-effect412"
       is_visible="true"
       lpeversion="1"
       offset_points="1.8641876,0.17129353 | 3.9058549,0.12942178 | 5.2682972,0.16056606"
       not_jump="true"
       sort_points="true"
       interpolator_type="CentripetalCatmullRom"
       interpolator_beta="0.75"
       start_linecap_type="round"
       linejoin_type="spiro"
       miter_limit="4"
       scale_width="1"
       end_linecap_type="round" />
    <inkscape:path-effect
       effect="simplify"
       id="path-effect410"
       is_visible="true"
       lpeversion="1"
       steps="1"
       threshold="0.0047745358"
       smooth_angles="0"
       helper_size="0"
       simplify_individual_paths="false"
       simplify_just_coalesce="false"
       step="1" />
    <inkscape:path-effect
       effect="powerstroke"
       id="path-effect361"
       is_visible="true"
       lpeversion="1"
       offset_points="1.6978972,0.1339204 | 6.9852488,0.14880044"
       not_jump="true"
       sort_points="true"
       interpolator_type="CentripetalCatmullRom"
       interpolator_beta="0.75"
       start_linecap_type="round"
       linejoin_type="spiro"
       miter_limit="4"
       scale_width="1"
       end_linecap_type="round" />
    <inkscape:path-effect
       effect="simplify"
       id="path-effect359"
       is_visible="true"
       lpeversion="1"
       steps="1"
       threshold="0.0047745358"
       smooth_angles="0"
       helper_size="0"
       simplify_individual_paths="false"
       simplify_just_coalesce="false"
       step="1" />
    <inkscape:path-effect
       effect="powerstroke"
       id="path-effect354"
       is_visible="true"
       lpeversion="1"
       offset_points="1.9241024,0.15814372"
       not_jump="true"
       sort_points="true"
       interpolator_type="CentripetalCatmullRom"
       interpolator_beta="0.75"
       start_linecap_type="round"
       linejoin_type="spiro"
       miter_limit="4"
       scale_width="1"
       end_linecap_type="round" />
    <inkscape:path-effect
       effect="simplify"
       id="path-effect352"
       is_visible="true"
       lpeversion="1"
       steps="1"
       threshold="0.0047745358"
       smooth_angles="0"
       helper_size="0"
       simplify_individual_paths="false"
       simplify_just_coalesce="false"
       step="1" />
    <inkscape:path-effect
       effect="powerstroke"
       id="path-effect307"
       is_visible="true"
       lpeversion="1"
       offset_points="1.3830769,0.15779768 | 3.8506778,0.13461249"
       not_jump="true"
       sort_points="true"
       interpolator_type="CentripetalCatmullRom"
       interpolator_beta="0.75"
       start_linecap_type="round"
       linejoin_type="spiro"
       miter_limit="4"
       scale_width="1"
       end_linecap_type="round" />
    <inkscape:path-effect
       effect="simplify"
       id="path-effect305"
       is_visible="true"
       lpeversion="1"
       steps="1"
       threshold="0.0047745358"
       smooth_angles="0"
       helper_size="0"
       simplify_individual_paths="false"
       simplify_just_coalesce="false"
       step="1" />
    <inkscape:path-effect
       effect="powerstroke"
       id="path-effect262"
       is_visible="true"
       lpeversion="1"
       offset_points="1.5442116,0.15641349 | 6.0881534,0.13530459 | 7.672947,0.15779768"
       not_jump="true"
       sort_points="true"
       interpolator_type="CentripetalCatmullRom"
       interpolator_beta="0.75"
       start_linecap_type="round"
       linejoin_type="spiro"
       miter_limit="4"
       scale_width="1"
       end_linecap_type="round" />
    <inkscape:path-effect
       effect="simplify"
       id="path-effect260"
       is_visible="true"
       lpeversion="1"
       steps="1"
       threshold="0.0047745358"
       smooth_angles="0"
       helper_size="0"
       simplify_individual_paths="false"
       simplify_just_coalesce="false"
       step="1" />
    <inkscape:path-effect
       effect="powerstroke"
       id="path-effect206"
       is_visible="true"
       lpeversion="1"
       offset_points="2.8299942,0.16208383 | 6.491831,0.12164928 | 8.5225859,0.15396236"
       not_jump="true"
       sort_points="true"
       interpolator_type="CentripetalCatmullRom"
       interpolator_beta="0.75"
       start_linecap_type="round"
       linejoin_type="spiro"
       miter_limit="4"
       scale_width="1"
       end_linecap_type="round" />
    <inkscape:path-effect
       effect="simplify"
       id="path-effect204"
       is_visible="true"
       lpeversion="1"
       steps="1"
       threshold="0.0035951417"
       smooth_angles="0"
       helper_size="0"
       simplify_individual_paths="false"
       simplify_just_coalesce="false"
       step="1" />
    <inkscape:path-effect
       effect="powerstroke"
       id="path-effect756"
       is_visible="true"
       lpeversion="1"
       offset_points="3.2309902,0.12563313 | 8.2691135,0.14514896 | 13.320889,0.12685288"
       not_jump="true"
       sort_points="true"
       interpolator_type="CentripetalCatmullRom"
       interpolator_beta="0.75"
       start_linecap_type="round"
       linejoin_type="spiro"
       miter_limit="4"
       scale_width="1"
       end_linecap_type="round" />
    <inkscape:path-effect
       effect="simplify"
       id="path-effect754"
       is_visible="true"
       lpeversion="1"
       steps="1"
       threshold="0.0035951417"
       smooth_angles="0"
       helper_size="0"
       simplify_individual_paths="false"
       simplify_just_coalesce="false"
       step="1" />
    <inkscape:path-effect
       effect="powerstroke"
       id="path-effect502"
       is_visible="true"
       lpeversion="1"
       offset_points="3.0091841,0.21607495 | 7.3602657,0.17554228 | 9.4159651,0.20236537"
       not_jump="true"
       sort_points="true"
       interpolator_type="CentripetalCatmullRom"
       interpolator_beta="0.75"
       start_linecap_type="round"
       linejoin_type="spiro"
       miter_limit="4"
       scale_width="1"
       end_linecap_type="round" />
    <inkscape:path-effect
       effect="simplify"
       id="path-effect500"
       is_visible="true"
       lpeversion="1"
       steps="1"
       threshold="0.0035951417"
       smooth_angles="0"
       helper_size="0"
       simplify_individual_paths="false"
       simplify_just_coalesce="false"
       step="1" />
    <inkscape:path-effect
       effect="powerstroke"
       id="path-effect241"
       is_visible="true"
       lpeversion="1"
       offset_points="2.6879454,0.34086734"
       not_jump="true"
       sort_points="true"
       interpolator_type="CentripetalCatmullRom"
       interpolator_beta="0.75"
       start_linecap_type="round"
       linejoin_type="spiro"
       miter_limit="4"
       scale_width="1"
       end_linecap_type="round" />
    <inkscape:path-effect
       effect="simplify"
       id="path-effect239"
       is_visible="true"
       lpeversion="1"
       steps="1"
       threshold="0.0028332064"
       smooth_angles="0"
       helper_size="0"
       simplify_individual_paths="false"
       simplify_just_coalesce="false"
       step="1" />
    <inkscape:path-effect
       effect="powerstroke"
       id="path-effect234"
       is_visible="true"
       lpeversion="1"
       offset_points="2.13563,0.075169555"
       not_jump="true"
       sort_points="true"
       interpolator_type="CentripetalCatmullRom"
       interpolator_beta="0.75"
       start_linecap_type="round"
       linejoin_type="spiro"
       miter_limit="4"
       scale_width="1"
       end_linecap_type="round" />
    <inkscape:path-effect
       effect="simplify"
       id="path-effect232"
       is_visible="true"
       lpeversion="1"
       steps="1"
       threshold="0.0028332064"
       smooth_angles="0"
       helper_size="0"
       simplify_individual_paths="false"
       simplify_just_coalesce="false"
       step="1" />
    <inkscape:path-effect
       effect="powerstroke"
       id="path-effect227"
       is_visible="true"
       lpeversion="1"
       offset_points="2.1868266,0.075169555"
       not_jump="true"
       sort_points="true"
       interpolator_type="CentripetalCatmullRom"
       interpolator_beta="0.75"
       start_linecap_type="round"
       linejoin_type="spiro"
       miter_limit="4"
       scale_width="1"
       end_linecap_type="round" />
    <inkscape:path-effect
       effect="simplify"
       id="path-effect225"
       is_visible="true"
       lpeversion="1"
       steps="1"
       threshold="0.0028332064"
       smooth_angles="0"
       helper_size="0"
       simplify_individual_paths="false"
       simplify_just_coalesce="false"
       step="1" />
    <inkscape:path-effect
       effect="powerstroke"
       id="path-effect166"
       is_visible="true"
       lpeversion="1"
       offset_points="1.9637935,0.075169555"
       not_jump="true"
       sort_points="true"
       interpolator_type="CentripetalCatmullRom"
       interpolator_beta="0.75"
       start_linecap_type="round"
       linejoin_type="spiro"
       miter_limit="4"
       scale_width="1"
       end_linecap_type="round" />
    <inkscape:path-effect
       effect="simplify"
       id="path-effect164"
       is_visible="true"
       lpeversion="1"
       steps="1"
       threshold="0.0028332064"
       smooth_angles="0"
       helper_size="0"
       simplify_individual_paths="false"
       simplify_just_coalesce="false"
       step="1" />
    <inkscape:path-effect
       effect="powerstroke"
       id="path-effect159"
       is_visible="true"
       lpeversion="1"
       offset_points="2.2611036,0.075169555"
       not_jump="true"
       sort_points="true"
       interpolator_type="CentripetalCatmullRom"
       interpolator_beta="0.75"
       start_linecap_type="round"
       linejoin_type="spiro"
       miter_limit="4"
       scale_width="1"
       end_linecap_type="round" />
    <inkscape:path-effect
       effect="simplify"
       id="path-effect157"
       is_visible="true"
       lpeversion="1"
       steps="1"
       threshold="0.0028332064"
       smooth_angles="0"
       helper_size="0"
       simplify_individual_paths="false"
       simplify_just_coalesce="false"
       step="1" />
    <inkscape:path-effect
       effect="powerstroke"
       id="path-effect152"
       is_visible="true"
       lpeversion="1"
       offset_points="2.826981,0.075169555"
       not_jump="true"
       sort_points="true"
       interpolator_type="CentripetalCatmullRom"
       interpolator_beta="0.75"
       start_linecap_type="round"
       linejoin_type="spiro"
       miter_limit="4"
       scale_width="1"
       end_linecap_type="round" />
    <inkscape:path-effect
       effect="simplify"
       id="path-effect150"
       is_visible="true"
       lpeversion="1"
       steps="1"
       threshold="0.0028332064"
       smooth_angles="0"
       helper_size="0"
       simplify_individual_paths="false"
       simplify_just_coalesce="false"
       step="1" />
    <inkscape:path-effect
       effect="powerstroke"
       id="path-effect145"
       is_visible="true"
       lpeversion="1"
       offset_points="3.8374447,0.075169555"
       not_jump="true"
       sort_points="true"
       interpolator_type="CentripetalCatmullRom"
       interpolator_beta="0.75"
       start_linecap_type="round"
       linejoin_type="spiro"
       miter_limit="4"
       scale_width="1"
       end_linecap_type="round" />
    <inkscape:path-effect
       effect="simplify"
       id="path-effect143"
       is_visible="true"
       lpeversion="1"
       steps="1"
       threshold="0.0028332064"
       smooth_angles="0"
       helper_size="0"
       simplify_individual_paths="false"
       simplify_just_coalesce="false"
       step="1" />
    <inkscape:path-effect
       effect="powerstroke"
       id="path-effect138"
       is_visible="true"
       lpeversion="1"
       offset_points="2.6880907,0.075169555"
       not_jump="true"
       sort_points="true"
       interpolator_type="CentripetalCatmullRom"
       interpolator_beta="0.75"
       start_linecap_type="round"
       linejoin_type="spiro"
       miter_limit="4"
       scale_width="1"
       end_linecap_type="round" />
    <inkscape:path-effect
       effect="simplify"
       id="path-effect136"
       is_visible="true"
       lpeversion="1"
       steps="1"
       threshold="0.0028332064"
       smooth_angles="0"
       helper_size="0"
       simplify_individual_paths="false"
       simplify_just_coalesce="false"
       step="1" />
    <inkscape:path-effect
       effect="powerstroke"
       id="path-effect131"
       is_visible="true"
       lpeversion="1"
       offset_points="1.9940581,0.075169555"
       not_jump="true"
       sort_points="true"
       interpolator_type="CentripetalCatmullRom"
       interpolator_beta="0.75"
       start_linecap_type="round"
       linejoin_type="spiro"
       miter_limit="4"
       scale_width="1"
       end_linecap_type="round" />
    <inkscape:path-effect
       effect="simplify"
       id="path-effect129"
       is_visible="true"
       lpeversion="1"
       steps="1"
       threshold="0.0028332064"
       smooth_angles="0"
       helper_size="0"
       simplify_individual_paths="false"
       simplify_just_coalesce="false"
       step="1" />
  </defs>
  <sodipodi:namedview
     id="base"
     pagecolor="#ffffff"
     bordercolor="#666666"
     borderopacity="1.0"
     inkscape:pageopacity="0.0"
     inkscape:pageshadow="2"
     inkscape:zoom="11.2"
     inkscape:cx="-1.7857143"
     inkscape:cy="16.517857"
     inkscape:document-units="mm"
     inkscape:current-layer="layer1"
     showgrid="false"
     fit-margin-top="0"
     fit-margin-left="0"
     fit-margin-right="0"
     fit-margin-bottom="0"
     inkscape:window-width="1920"
     inkscape:window-height="1057"
     inkscape:window-x="1072"
     inkscape:window-y="321"
     inkscape:window-maximized="1"
     showguides="true"
     inkscape:guide-bbox="true"
     inkscape:snap-bbox="true"
     inkscape:bbox-nodes="true"
     inkscape:snap-nodes="false"
     inkscape:snap-others="false"
     inkscape:snap-page="true"
     inkscape:snap-grids="false"
     inkscape:snap-to-guides="false"
     inkscape:snap-global="false"
     inkscape:pagecheckerboard="0"
     inkscape:showpageshadow="2"
     inkscape:deskcolor="#d1d1d1">
    <sodipodi:guide
       position="-6.1806076,9.4988693"
       orientation="0,1"
       id="guide816"
       inkscape:locked="false" />
    <sodipodi:guide
       position="-4.4101637,10.646923"
       orientation="0,1"
       id="guide818"
       inkscape:locked="false" />
    <sodipodi:guide
       position="2.7595724,11.09577"
       orientation="1,0"
       id="guide820"
       inkscape:locked="false" />
    <sodipodi:guide
       position="3.657266,10.942217"
       orientation="1,0"
       id="guide822"
       inkscape:locked="false" />
    <sodipodi:guide
       position="-0.051625511,9.74923"
       orientation="1,0"
       id="guide1853"
       inkscape:locked="false" />
    <sodipodi:guide
       position="-2.3720169,3.0175836"
       orientation="0,1"
       id="guide1855"
       inkscape:locked="false" />
  </sodipodi:namedview>
  <metadata
     id="metadata1678">
    <rdf:RDF>
      <cc:Work
         rdf:about="">
        <dc:format>image/svg+xml</dc:format>
        <dc:type
           rdf:resource="http://purl.org/dc/dcmitype/StillImage" />
      </cc:Work>
    </rdf:RDF>
  </metadata>
  <g
     inkscape:label="Layer 1"
     inkscape:groupmode="layer"
     id="layer1"
     transform="translate(17.028496,-147.22856)">
    <path
       d="m -14.681708,148.07386 c 0.0084,-0.0274 0.01524,-0.0618 0.01384,-0.10054 -0.0011,-0.0316 -0.0077,-0.0641 -0.02118,-0.0961 -0.01167,-0.0278 -0.02747,-0.0528 -0.04608,-0.0752 -0.01679,-0.0202 -0.03546,-0.0378 -0.05472,-0.0534 -0.03468,-0.028 -0.07258,-0.0503 -0.106667,-0.069 -0.03415,-0.0188 -0.05776,-0.0305 -0.07897,-0.0434 -0.0041,-0.002 -0.0083,-0.005 -0.01254,-0.007 -0.09234,-0.0446 -0.189753,-0.0709 -0.289652,-0.081 -0.0968,-0.01 -0.193915,-0.004 -0.288678,0.0134 -0.129887,0.024 -0.254596,0.0701 -0.367766,0.1282 -0.04978,0.0256 -0.09865,0.0541 -0.145963,0.0853 -0.346717,0.22936 -0.679925,0.57253 -0.894828,1.01834 -0.163453,0.36991 -0.213374,0.79112 -0.159364,1.20732 0.02997,0.1847 0.10445,0.36473 0.220263,0.51411 0.05758,0.0743 0.125646,0.14128 0.203839,0.19666 0.07815,0.0553 0.166081,0.0988 0.262727,0.12583 0.158554,0.0572 0.334865,0.0616 0.498901,0.0251 0.166233,-0.037 0.321255,-0.11604 0.447592,-0.2245 0.03589,-0.0302 0.07112,-0.0623 0.104849,-0.0955 0.136111,-0.13386 0.253681,-0.29001 0.35588,-0.46521 0.117835,-0.20202 0.211133,-0.42223 0.289005,-0.65047 0.06488,-0.19525 0.09517,-0.3973 0.101056,-0.60252 0.0057,-0.20028 -0.0118,-0.40078 -0.04141,-0.59584 4.4e-4,0.003 1.52e-4,-5e-5 -1.78e-4,-0.005 -3.22e-4,-0.004 -6.44e-4,-0.01 -9.59e-4,-0.0156 -6.31e-4,-0.012 -0.0012,-0.026 -0.0016,-0.041 -9.31e-4,-0.0302 -0.0014,-0.0626 -0.0015,-0.0867 -5e-5,-0.0123 1.3e-5,-0.0217 1.44e-4,-0.0273 -4.6e-4,0.003 -9.34e-4,0.008 -0.0021,0.0131 -5.48e-4,0.003 -0.0018,0.008 -0.004,0.0148 -0.0012,0.003 -0.0031,0.009 -0.006,0.0147 -0.0027,0.006 -0.008,0.0154 -0.01685,0.0261 -0.0046,0.006 -0.0111,0.0123 -0.01974,0.019 -0.0087,0.007 -0.02033,0.014 -0.03498,0.0192 -0.01499,0.005 -0.03178,0.008 -0.04951,0.007 -0.01762,-8.5e-4 -0.03329,-0.005 -0.04639,-0.0112 -0.01282,-0.006 -0.02279,-0.0128 -0.03009,-0.019 -0.0073,-0.006 -0.01281,-0.0123 -0.01677,-0.0172 -0.0077,-0.009 -0.01235,-0.0181 -0.01487,-0.0232 -0.0027,-0.005 -0.0046,-0.0101 -0.0057,-0.0133 -0.0012,-0.003 -0.0021,-0.006 -0.0027,-0.008 -0.0012,-0.004 -0.0019,-0.007 -0.0023,-0.009 -7.85e-4,-0.004 -0.0012,-0.007 -0.0013,-0.008 -3.93e-4,-0.003 -3.81e-4,-0.003 -3.69e-4,-0.003 2.5e-5,4.1e-4 2.54e-4,0.004 4.98e-4,0.009 5.09e-4,0.0103 0.0012,0.0267 0.0019,0.0509 0.01168,0.63634 -0.02828,1.24918 -0.03711,1.79952 -0.04966,1.55614 0.04793,2.90941 0.121635,3.7158 a 0.12907573,0.12907573 90 0 0 0.25708,-0.0235 c -0.07322,-0.80105 -0.170381,-2.14281 -0.121716,-3.68621 0.0084,-0.54496 0.04823,-1.15903 0.03588,-1.81218 -8.79e-4,-0.0266 -0.0016,-0.0448 -0.0023,-0.0575 -3.25e-4,-0.006 -6.8e-4,-0.0119 -0.0011,-0.0168 -1.92e-4,-0.002 -5.15e-4,-0.006 -0.001,-0.01 -2.48e-4,-0.002 -7.54e-4,-0.005 -0.0016,-0.01 -4.45e-4,-0.002 -0.0012,-0.006 -0.0024,-0.01 -6.29e-4,-0.002 -0.0015,-0.005 -0.0027,-0.008 -0.0012,-0.003 -0.003,-0.008 -0.0058,-0.0134 -0.0025,-0.005 -0.0073,-0.0138 -0.01494,-0.0233 -0.004,-0.005 -0.0095,-0.011 -0.01681,-0.0172 -0.0073,-0.006 -0.01729,-0.0132 -0.03012,-0.019 -0.01311,-0.006 -0.02879,-0.0103 -0.04641,-0.0112 -0.01775,-8.6e-4 -0.03456,0.002 -0.04955,0.007 -0.01465,0.005 -0.02629,0.0125 -0.03501,0.0193 -0.0086,0.007 -0.01513,0.0135 -0.01977,0.0191 -0.0089,0.0107 -0.01419,0.0205 -0.01692,0.0262 -0.003,0.006 -0.0049,0.0114 -0.0061,0.0149 -0.0023,0.007 -0.0036,0.0125 -0.0042,0.0153 -0.0012,0.006 -0.0018,0.0106 -0.002,0.0126 -2.73e-4,0.002 -4.42e-4,0.005 -5.47e-4,0.006 -2.09e-4,0.003 -3.28e-4,0.006 -4.03e-4,0.008 -8.1e-5,0.002 -1.39e-4,0.005 -1.82e-4,0.007 -1.69e-4,0.009 -1.91e-4,0.0208 -1.11e-4,0.0339 1.6e-4,0.0263 7.58e-4,0.0609 0.0018,0.0934 5.17e-4,0.0162 0.0012,0.0322 0.0019,0.0466 3.86e-4,0.007 8.16e-4,0.0142 0.0013,0.0207 4.76e-4,0.006 0.001,0.013 0.0017,0.0193 0.0287,0.18953 0.04446,0.37416 0.03918,0.55504 -0.0054,0.18502 -0.03269,0.36173 -0.08821,0.52814 -0.07402,0.2162 -0.161105,0.41964 -0.268321,0.60263 -0.09278,0.15836 -0.197152,0.29537 -0.314926,0.41049 -0.0292,0.0285 -0.05956,0.0561 -0.09115,0.0825 -0.09607,0.0816 -0.21287,0.13997 -0.336432,0.16641 -0.121582,0.026 -0.246656,0.0205 -0.361527,-0.022 -0.07443,-0.0218 -0.134472,-0.052 -0.188735,-0.0912 -0.05446,-0.0394 -0.103242,-0.0879 -0.145367,-0.1434 -0.08544,-0.11247 -0.141233,-0.25018 -0.162218,-0.38823 -0.0445,-0.36904 0.0049,-0.73725 0.145432,-1.04847 0.190927,-0.38845 0.488698,-0.69159 0.797538,-0.89402 0.03854,-0.0251 0.07841,-0.0481 0.118753,-0.0686 0.09228,-0.0469 0.190008,-0.0821 0.287484,-0.0999 0.07083,-0.013 0.139831,-0.0164 0.205674,-0.01 0.06549,0.007 0.127534,0.0234 0.185752,0.0506 0.02796,0.0165 0.06403,0.0351 0.08371,0.0458 0.03,0.0163 0.04954,0.0285 0.06363,0.0398 0.0072,0.006 0.0112,0.01 0.0133,0.0123 0.0022,0.003 0.002,0.003 0.0013,0.001 -9.16e-4,-0.002 -0.0014,-0.005 -0.0015,-0.007 -4.3e-5,-0.002 2.63e-4,-6.5e-4 -0.001,0.004 a 0.14672416,0.14672416 90 0 0 0.280548,0.0861 z"
       id="path-1"
       inkscape:path-effect="#path-effect575;#path-effect577"
       inkscape:original-d="m -14.821982,148.03083 c 0.0035,-0.12309 0.02737,-0.10004 -0.09217,-0.18693 -0.723159,-0.52561 -1.663363,0.42099 -1.932729,1.01201 -0.139706,0.30653 -0.178067,0.63289 -0.167577,0.96732 0.0107,0.34126 0.177758,0.70398 0.504129,0.84851 0.856769,0.37943 1.42531,-0.63432 1.638072,-1.28612 0.111684,-0.34215 0.117543,-0.71532 0.06144,-1.06814 -0.01502,-0.0944 -0.01507,-0.3822 -0.01117,-0.28665 0.01742,0.42732 -0.0081,0.87417 -0.01815,1.30084 -0.0031,0.13152 -0.02582,0.93484 -0.02793,1.12154 -0.0038,0.3361 0.0022,0.83992 0.01117,1.15969 0.01878,0.66918 0.06295,1.3394 0.12289,2.00603"
       style="fill:#000000;fill-rule:nonzero;stroke:none" />
  </g>
</svg>
