<?xml version="1.0" encoding="UTF-8" standalone="no"?>
<!-- Created with Inkscape (http://www.inkscape.org/) -->

<svg
   width="3mm"
   height="10mm"
   viewBox="0 0 3.0000001 9.9999994"
   version="1.1"
   id="svg1681"
   inkscape:version="1.2.1 (9c6d41e410, 2022-07-14)"
   sodipodi:docname="number_nine_1.svg"
   inkscape:export-filename="..\..\..\..\Downloads\lower a diff canvas resize 3.0.png"
   inkscape:export-xdpi="96"
   inkscape:export-ydpi="96"
   xmlns:inkscape="http://www.inkscape.org/namespaces/inkscape"
   xmlns:sodipodi="http://sodipodi.sourceforge.net/DTD/sodipodi-0.dtd"
   xmlns="http://www.w3.org/2000/svg"
   xmlns:svg="http://www.w3.org/2000/svg"
   xmlns:rdf="http://www.w3.org/1999/02/22-rdf-syntax-ns#"
   xmlns:cc="http://creativecommons.org/ns#"
   xmlns:dc="http://purl.org/dc/elements/1.1/">
  <defs
     id="defs1675">
    <inkscape:path-effect
       effect="powerstroke"
       id="path-effect1311"
       is_visible="true"
       lpeversion="1"
       offset_points="1.6852059,0.11860025"
       not_jump="true"
       sort_points="true"
       interpolator_type="CentripetalCatmullRom"
       interpolator_beta="0.75"
       start_linecap_type="round"
       linejoin_type="spiro"
       miter_limit="4"
       scale_width="1"
       end_linecap_type="round" />
    <inkscape:path-effect
       effect="simplify"
       id="path-effect1309"
       is_visible="true"
       lpeversion="1"
       steps="1"
       threshold="0.0035951417"
       smooth_angles="0"
       helper_size="0"
       simplify_individual_paths="false"
       simplify_just_coalesce="false"
       step="1" />
    <inkscape:path-effect
       effect="powerstroke"
       id="path-effect502"
       is_visible="true"
       lpeversion="1"
       offset_points="3.0091841,0.21607495 | 7.3602657,0.17554228 | 9.4159651,0.20236537"
       not_jump="true"
       sort_points="true"
       interpolator_type="CentripetalCatmullRom"
       interpolator_beta="0.75"
       start_linecap_type="round"
       linejoin_type="spiro"
       miter_limit="4"
       scale_width="1"
       end_linecap_type="round" />
    <inkscape:path-effect
       effect="simplify"
       id="path-effect500"
       is_visible="true"
       lpeversion="1"
       steps="1"
       threshold="0.0035951417"
       smooth_angles="0"
       helper_size="0"
       simplify_individual_paths="false"
       simplify_just_coalesce="false"
       step="1" />
    <inkscape:path-effect
       effect="powerstroke"
       id="path-effect241"
       is_visible="true"
       lpeversion="1"
       offset_points="2.6879454,0.34086734"
       not_jump="true"
       sort_points="true"
       interpolator_type="CentripetalCatmullRom"
       interpolator_beta="0.75"
       start_linecap_type="round"
       linejoin_type="spiro"
       miter_limit="4"
       scale_width="1"
       end_linecap_type="round" />
    <inkscape:path-effect
       effect="simplify"
       id="path-effect239"
       is_visible="true"
       lpeversion="1"
       steps="1"
       threshold="0.0028332064"
       smooth_angles="0"
       helper_size="0"
       simplify_individual_paths="false"
       simplify_just_coalesce="false"
       step="1" />
    <inkscape:path-effect
       effect="powerstroke"
       id="path-effect234"
       is_visible="true"
       lpeversion="1"
       offset_points="2.13563,0.075169555"
       not_jump="true"
       sort_points="true"
       interpolator_type="CentripetalCatmullRom"
       interpolator_beta="0.75"
       start_linecap_type="round"
       linejoin_type="spiro"
       miter_limit="4"
       scale_width="1"
       end_linecap_type="round" />
    <inkscape:path-effect
       effect="simplify"
       id="path-effect232"
       is_visible="true"
       lpeversion="1"
       steps="1"
       threshold="0.0028332064"
       smooth_angles="0"
       helper_size="0"
       simplify_individual_paths="false"
       simplify_just_coalesce="false"
       step="1" />
    <inkscape:path-effect
       effect="powerstroke"
       id="path-effect227"
       is_visible="true"
       lpeversion="1"
       offset_points="2.1868266,0.075169555"
       not_jump="true"
       sort_points="true"
       interpolator_type="CentripetalCatmullRom"
       interpolator_beta="0.75"
       start_linecap_type="round"
       linejoin_type="spiro"
       miter_limit="4"
       scale_width="1"
       end_linecap_type="round" />
    <inkscape:path-effect
       effect="simplify"
       id="path-effect225"
       is_visible="true"
       lpeversion="1"
       steps="1"
       threshold="0.0028332064"
       smooth_angles="0"
       helper_size="0"
       simplify_individual_paths="false"
       simplify_just_coalesce="false"
       step="1" />
    <inkscape:path-effect
       effect="powerstroke"
       id="path-effect166"
       is_visible="true"
       lpeversion="1"
       offset_points="1.9637935,0.075169555"
       not_jump="true"
       sort_points="true"
       interpolator_type="CentripetalCatmullRom"
       interpolator_beta="0.75"
       start_linecap_type="round"
       linejoin_type="spiro"
       miter_limit="4"
       scale_width="1"
       end_linecap_type="round" />
    <inkscape:path-effect
       effect="simplify"
       id="path-effect164"
       is_visible="true"
       lpeversion="1"
       steps="1"
       threshold="0.0028332064"
       smooth_angles="0"
       helper_size="0"
       simplify_individual_paths="false"
       simplify_just_coalesce="false"
       step="1" />
    <inkscape:path-effect
       effect="powerstroke"
       id="path-effect159"
       is_visible="true"
       lpeversion="1"
       offset_points="2.2611036,0.075169555"
       not_jump="true"
       sort_points="true"
       interpolator_type="CentripetalCatmullRom"
       interpolator_beta="0.75"
       start_linecap_type="round"
       linejoin_type="spiro"
       miter_limit="4"
       scale_width="1"
       end_linecap_type="round" />
    <inkscape:path-effect
       effect="simplify"
       id="path-effect157"
       is_visible="true"
       lpeversion="1"
       steps="1"
       threshold="0.0028332064"
       smooth_angles="0"
       helper_size="0"
       simplify_individual_paths="false"
       simplify_just_coalesce="false"
       step="1" />
    <inkscape:path-effect
       effect="powerstroke"
       id="path-effect152"
       is_visible="true"
       lpeversion="1"
       offset_points="2.826981,0.075169555"
       not_jump="true"
       sort_points="true"
       interpolator_type="CentripetalCatmullRom"
       interpolator_beta="0.75"
       start_linecap_type="round"
       linejoin_type="spiro"
       miter_limit="4"
       scale_width="1"
       end_linecap_type="round" />
    <inkscape:path-effect
       effect="simplify"
       id="path-effect150"
       is_visible="true"
       lpeversion="1"
       steps="1"
       threshold="0.0028332064"
       smooth_angles="0"
       helper_size="0"
       simplify_individual_paths="false"
       simplify_just_coalesce="false"
       step="1" />
    <inkscape:path-effect
       effect="powerstroke"
       id="path-effect145"
       is_visible="true"
       lpeversion="1"
       offset_points="3.8374447,0.075169555"
       not_jump="true"
       sort_points="true"
       interpolator_type="CentripetalCatmullRom"
       interpolator_beta="0.75"
       start_linecap_type="round"
       linejoin_type="spiro"
       miter_limit="4"
       scale_width="1"
       end_linecap_type="round" />
    <inkscape:path-effect
       effect="simplify"
       id="path-effect143"
       is_visible="true"
       lpeversion="1"
       steps="1"
       threshold="0.0028332064"
       smooth_angles="0"
       helper_size="0"
       simplify_individual_paths="false"
       simplify_just_coalesce="false"
       step="1" />
    <inkscape:path-effect
       effect="powerstroke"
       id="path-effect138"
       is_visible="true"
       lpeversion="1"
       offset_points="2.6880907,0.075169555"
       not_jump="true"
       sort_points="true"
       interpolator_type="CentripetalCatmullRom"
       interpolator_beta="0.75"
       start_linecap_type="round"
       linejoin_type="spiro"
       miter_limit="4"
       scale_width="1"
       end_linecap_type="round" />
    <inkscape:path-effect
       effect="simplify"
       id="path-effect136"
       is_visible="true"
       lpeversion="1"
       steps="1"
       threshold="0.0028332064"
       smooth_angles="0"
       helper_size="0"
       simplify_individual_paths="false"
       simplify_just_coalesce="false"
       step="1" />
    <inkscape:path-effect
       effect="powerstroke"
       id="path-effect131"
       is_visible="true"
       lpeversion="1"
       offset_points="1.9940581,0.075169555"
       not_jump="true"
       sort_points="true"
       interpolator_type="CentripetalCatmullRom"
       interpolator_beta="0.75"
       start_linecap_type="round"
       linejoin_type="spiro"
       miter_limit="4"
       scale_width="1"
       end_linecap_type="round" />
    <inkscape:path-effect
       effect="simplify"
       id="path-effect129"
       is_visible="true"
       lpeversion="1"
       steps="1"
       threshold="0.0028332064"
       smooth_angles="0"
       helper_size="0"
       simplify_individual_paths="false"
       simplify_just_coalesce="false"
       step="1" />
  </defs>
  <sodipodi:namedview
     id="base"
     pagecolor="#ffffff"
     bordercolor="#666666"
     borderopacity="1.0"
     inkscape:pageopacity="0.0"
     inkscape:pageshadow="2"
     inkscape:zoom="7.919596"
     inkscape:cx="-5.3033008"
     inkscape:cy="20.834396"
     inkscape:document-units="mm"
     inkscape:current-layer="layer1"
     showgrid="false"
     fit-margin-top="0"
     fit-margin-left="0"
     fit-margin-right="0"
     fit-margin-bottom="0"
     inkscape:window-width="3440"
     inkscape:window-height="1369"
     inkscape:window-x="1072"
     inkscape:window-y="224"
     inkscape:window-maximized="1"
     showguides="true"
     inkscape:guide-bbox="true"
     inkscape:snap-bbox="true"
     inkscape:bbox-nodes="true"
     inkscape:snap-nodes="false"
     inkscape:snap-others="false"
     inkscape:snap-page="true"
     inkscape:snap-grids="false"
     inkscape:snap-to-guides="false"
     inkscape:snap-global="false"
     inkscape:pagecheckerboard="0"
     inkscape:showpageshadow="2"
     inkscape:deskcolor="#d1d1d1">
    <sodipodi:guide
       position="-6.1806076,9.4988693"
       orientation="0,1"
       id="guide816"
       inkscape:locked="false" />
    <sodipodi:guide
       position="-4.4101636,10.646923"
       orientation="0,1"
       id="guide818"
       inkscape:locked="false" />
    <sodipodi:guide
       position="2.7595724,11.09577"
       orientation="1,0"
       id="guide820"
       inkscape:locked="false" />
    <sodipodi:guide
       position="3.6572659,10.942217"
       orientation="1,0"
       id="guide822"
       inkscape:locked="false" />
    <sodipodi:guide
       position="-0.051625511,9.74923"
       orientation="1,0"
       id="guide1853"
       inkscape:locked="false" />
    <sodipodi:guide
       position="-2.3720169,3.0175835"
       orientation="0,1"
       id="guide1855"
       inkscape:locked="false" />
  </sodipodi:namedview>
  <metadata
     id="metadata1678">
    <rdf:RDF>
      <cc:Work
         rdf:about="">
        <dc:format>image/svg+xml</dc:format>
        <dc:type
           rdf:resource="http://purl.org/dc/dcmitype/StillImage" />
      </cc:Work>
    </rdf:RDF>
  </metadata>
  <g
     inkscape:label="Layer 1"
     inkscape:groupmode="layer"
     id="layer1"
     transform="translate(17.028496,-147.22856)">
    <path
       d="m -15.135598,148.31773 c -0.15858,-0.0129 -0.382389,0.003 -0.640432,0.12466 -0.173612,0.0821 -0.353169,0.20856 -0.514335,0.38182 -0.232335,0.24948 -0.420457,0.56756 -0.532002,0.93804 -0.03792,0.12593 -0.06673,0.25728 -0.08503,0.39251 -0.02726,0.20143 -0.0337,0.43079 -3.72e-4,0.67508 0.0057,0.14295 0.04203,0.30695 0.126817,0.4605 0.0383,0.0694 0.08692,0.13715 0.147298,0.1981 0.05706,0.0576 0.124926,0.10937 0.204253,0.14977 0.105662,0.057 0.229157,0.0895 0.358223,0.0927 0.117056,0.003 0.238638,-0.0184 0.353149,-0.0665 0.07967,-0.0206 0.153606,-0.0532 0.221719,-0.0951 0.06935,-0.0426 0.132052,-0.0946 0.188426,-0.15258 0.109913,-0.11314 0.196181,-0.24995 0.261252,-0.38785 0.165933,-0.35282 0.246348,-0.73546 0.301394,-1.1156 0.02296,-0.3592 0.01714,-0.72077 -0.06829,-1.07076 -0.01047,-0.0359 -0.02082,-0.071 -0.03328,-0.1063 -0.01261,-0.0358 -0.02801,-0.0736 -0.04785,-0.11027 -0.0201,-0.0371 -0.04547,-0.0743 -0.07841,-0.10719 -0.03379,-0.0337 -0.07468,-0.0621 -0.123716,-0.0811 -0.0045,-0.002 -0.009,-0.003 -0.01365,-0.004 -0.01263,-0.003 -0.02689,-0.006 -0.04229,-0.006 -0.01564,-2.4e-4 -0.03279,0.002 -0.05035,0.007 -0.0179,0.006 -0.03432,0.015 -0.04859,0.0269 -0.01414,0.0119 -0.0246,0.0252 -0.03226,0.0381 -0.0076,0.0127 -0.01259,0.0252 -0.01597,0.0361 -0.0034,0.011 -0.0055,0.0214 -0.0069,0.0305 -0.0027,0.018 -0.0031,0.0354 -0.0029,0.0495 4.28e-4,0.03 0.0032,0.0553 0.0042,0.0738 5.5e-4,0.01 6.38e-4,0.0164 4.62e-4,0.0207 -2.06e-4,0.005 -6.27e-4,0.002 0.0014,-0.004 l -0.0053,0.0342 c -0.0019,0.25318 0.01279,0.51127 0.02518,0.73949 0.01435,0.26452 0.02573,0.49182 0.02245,0.72412 0.03585,1.54856 0.220058,2.95378 0.346575,3.80855 a 0.11860025,0.11860025 90 0 0 0.234644,-0.0347 c -0.125966,-0.85104 -0.308569,-2.24512 -0.344063,-3.77488 0.0034,-0.23703 -0.0084,-0.47189 -0.02275,-0.7359 -0.01227,-0.22607 -0.0262,-0.47159 -0.02492,-0.7119 0.0025,-0.0132 0.0034,-0.0253 0.0038,-0.0352 6.36e-4,-0.0154 9.4e-5,-0.0306 -6.25e-4,-0.0436 -0.0015,-0.0262 -0.0037,-0.0497 -0.0039,-0.0641 -1.01e-4,-0.007 3.8e-4,-0.0117 3.11e-4,-0.0112 -3.4e-5,2.3e-4 -2.29e-4,0.002 -0.0013,0.005 -9.59e-4,0.003 -0.0029,0.008 -0.0068,0.015 -0.004,0.007 -0.01001,0.0146 -0.01892,0.0221 -0.0091,0.008 -0.01949,0.0134 -0.03045,0.0169 -0.01066,0.003 -0.01998,0.004 -0.02675,0.004 -0.0066,-1e-4 -0.01097,-0.001 -0.01261,-0.001 -0.0046,-0.001 -0.0092,-0.003 -0.01365,-0.004 0.01561,0.006 0.0292,0.0151 0.0419,0.0278 0.0129,0.0129 0.02538,0.03 0.03745,0.0523 0.01196,0.0221 0.02262,0.0476 0.03274,0.0762 0.01009,0.0286 0.01881,0.0579 0.028,0.0891 0.0759,0.31151 0.08278,0.64618 0.06152,0.98462 -0.0529,0.36263 -0.129262,0.71795 -0.280233,1.03896 -0.05688,0.12054 -0.129488,0.23376 -0.216805,0.32364 -0.04446,0.0458 -0.09202,0.0847 -0.142525,0.11581 -0.05143,0.0316 -0.105948,0.055 -0.1638,0.0692 -0.0065,0.002 -0.01279,0.004 -0.0189,0.006 -0.08449,0.0367 -0.175123,0.053 -0.262065,0.0509 -0.09315,-0.002 -0.179911,-0.0257 -0.253993,-0.0656 -0.05733,-0.0292 -0.104987,-0.0654 -0.145839,-0.10662 -0.04334,-0.0437 -0.07925,-0.0934 -0.108167,-0.14582 -0.06544,-0.11851 -0.09382,-0.24751 -0.09763,-0.36017 -1.39e-4,-0.004 -4.93e-4,-0.008 -0.0011,-0.0123 -0.03095,-0.22269 -0.02535,-0.43185 -3.41e-4,-0.61664 0.0166,-0.12268 0.04274,-0.2418 0.0771,-0.35592 0.101142,-0.33593 0.27104,-0.62205 0.478505,-0.84482 0.140896,-0.15147 0.295974,-0.25992 0.442062,-0.32897 0.215052,-0.10164 0.396289,-0.11276 0.519827,-0.1027 a 0.11860025,0.11860025 90 0 0 0.01925,-0.23642 z"
       id="path-1"
       inkscape:path-effect="#path-effect1309;#path-effect1311"
       inkscape:original-d="m -15.145221,148.43594 c -0.944373,-0.0729 -1.815732,1.13159 -1.644963,2.36809 0.02644,0.66432 0.587412,0.93934 1.020381,0.75099 0.589825,-0.13702 0.804359,-0.96928 0.905521,-1.63905 0.03665,-0.41163 0.0089,-1.36793 -0.319648,-1.37482 -0.02925,0.5331 0.04781,1.07978 0.04025,1.61962 0.0274,1.28795 0.159212,2.57085 0.346315,3.83478"
       style="fill:#000000;fill-rule:nonzero;stroke:none;stroke-width:1.26617" />
  </g>
</svg>
