<?xml version="1.0" encoding="UTF-8" standalone="no"?>
<!-- Created with Inkscape (http://www.inkscape.org/) -->

<svg
   width="3mm"
   height="10mm"
   viewBox="0 0 3.0000001 9.9999994"
   version="1.1"
   id="svg1681"
   inkscape:version="1.2.1 (9c6d41e410, 2022-07-14)"
   sodipodi:docname="number_nine_11.svg"
   inkscape:export-filename="..\..\..\..\Downloads\lower a diff canvas resize 3.0.png"
   inkscape:export-xdpi="96"
   inkscape:export-ydpi="96"
   xmlns:inkscape="http://www.inkscape.org/namespaces/inkscape"
   xmlns:sodipodi="http://sodipodi.sourceforge.net/DTD/sodipodi-0.dtd"
   xmlns="http://www.w3.org/2000/svg"
   xmlns:svg="http://www.w3.org/2000/svg"
   xmlns:rdf="http://www.w3.org/1999/02/22-rdf-syntax-ns#"
   xmlns:cc="http://creativecommons.org/ns#"
   xmlns:dc="http://purl.org/dc/elements/1.1/">
  <defs
     id="defs1675">
    <inkscape:path-effect
       effect="powerstroke"
       id="path-effect153"
       is_visible="true"
       lpeversion="1"
       offset_points="1.2399471,0.15030987 | 3.2678959,0.095086534 | 8.4058557,0.14555554"
       not_jump="true"
       sort_points="true"
       interpolator_type="CentripetalCatmullRom"
       interpolator_beta="0.75"
       start_linecap_type="round"
       linejoin_type="spiro"
       miter_limit="4"
       scale_width="1"
       end_linecap_type="round" />
    <inkscape:path-effect
       effect="simplify"
       id="path-effect151"
       is_visible="true"
       lpeversion="1"
       steps="1"
       threshold="0.0035951417"
       smooth_angles="0"
       helper_size="0"
       simplify_individual_paths="false"
       simplify_just_coalesce="false"
       step="1" />
    <inkscape:path-effect
       effect="powerstroke"
       id="path-effect1311"
       is_visible="true"
       lpeversion="1"
       offset_points="1.6852059,0.11860025"
       not_jump="true"
       sort_points="true"
       interpolator_type="CentripetalCatmullRom"
       interpolator_beta="0.75"
       start_linecap_type="round"
       linejoin_type="spiro"
       miter_limit="4"
       scale_width="1"
       end_linecap_type="round" />
    <inkscape:path-effect
       effect="simplify"
       id="path-effect1309"
       is_visible="true"
       lpeversion="1"
       steps="1"
       threshold="0.0035951417"
       smooth_angles="0"
       helper_size="0"
       simplify_individual_paths="false"
       simplify_just_coalesce="false"
       step="1" />
    <inkscape:path-effect
       effect="powerstroke"
       id="path-effect502"
       is_visible="true"
       lpeversion="1"
       offset_points="3.0091841,0.21607495 | 7.3602657,0.17554228 | 9.4159651,0.20236537"
       not_jump="true"
       sort_points="true"
       interpolator_type="CentripetalCatmullRom"
       interpolator_beta="0.75"
       start_linecap_type="round"
       linejoin_type="spiro"
       miter_limit="4"
       scale_width="1"
       end_linecap_type="round" />
    <inkscape:path-effect
       effect="simplify"
       id="path-effect500"
       is_visible="true"
       lpeversion="1"
       steps="1"
       threshold="0.0035951417"
       smooth_angles="0"
       helper_size="0"
       simplify_individual_paths="false"
       simplify_just_coalesce="false"
       step="1" />
    <inkscape:path-effect
       effect="powerstroke"
       id="path-effect241"
       is_visible="true"
       lpeversion="1"
       offset_points="2.6879454,0.34086734"
       not_jump="true"
       sort_points="true"
       interpolator_type="CentripetalCatmullRom"
       interpolator_beta="0.75"
       start_linecap_type="round"
       linejoin_type="spiro"
       miter_limit="4"
       scale_width="1"
       end_linecap_type="round" />
    <inkscape:path-effect
       effect="simplify"
       id="path-effect239"
       is_visible="true"
       lpeversion="1"
       steps="1"
       threshold="0.0028332064"
       smooth_angles="0"
       helper_size="0"
       simplify_individual_paths="false"
       simplify_just_coalesce="false"
       step="1" />
    <inkscape:path-effect
       effect="powerstroke"
       id="path-effect234"
       is_visible="true"
       lpeversion="1"
       offset_points="2.13563,0.075169555"
       not_jump="true"
       sort_points="true"
       interpolator_type="CentripetalCatmullRom"
       interpolator_beta="0.75"
       start_linecap_type="round"
       linejoin_type="spiro"
       miter_limit="4"
       scale_width="1"
       end_linecap_type="round" />
    <inkscape:path-effect
       effect="simplify"
       id="path-effect232"
       is_visible="true"
       lpeversion="1"
       steps="1"
       threshold="0.0028332064"
       smooth_angles="0"
       helper_size="0"
       simplify_individual_paths="false"
       simplify_just_coalesce="false"
       step="1" />
    <inkscape:path-effect
       effect="powerstroke"
       id="path-effect227"
       is_visible="true"
       lpeversion="1"
       offset_points="2.1868266,0.075169555"
       not_jump="true"
       sort_points="true"
       interpolator_type="CentripetalCatmullRom"
       interpolator_beta="0.75"
       start_linecap_type="round"
       linejoin_type="spiro"
       miter_limit="4"
       scale_width="1"
       end_linecap_type="round" />
    <inkscape:path-effect
       effect="simplify"
       id="path-effect225"
       is_visible="true"
       lpeversion="1"
       steps="1"
       threshold="0.0028332064"
       smooth_angles="0"
       helper_size="0"
       simplify_individual_paths="false"
       simplify_just_coalesce="false"
       step="1" />
    <inkscape:path-effect
       effect="powerstroke"
       id="path-effect166"
       is_visible="true"
       lpeversion="1"
       offset_points="1.9637935,0.075169555"
       not_jump="true"
       sort_points="true"
       interpolator_type="CentripetalCatmullRom"
       interpolator_beta="0.75"
       start_linecap_type="round"
       linejoin_type="spiro"
       miter_limit="4"
       scale_width="1"
       end_linecap_type="round" />
    <inkscape:path-effect
       effect="simplify"
       id="path-effect164"
       is_visible="true"
       lpeversion="1"
       steps="1"
       threshold="0.0028332064"
       smooth_angles="0"
       helper_size="0"
       simplify_individual_paths="false"
       simplify_just_coalesce="false"
       step="1" />
    <inkscape:path-effect
       effect="powerstroke"
       id="path-effect159"
       is_visible="true"
       lpeversion="1"
       offset_points="2.2611036,0.075169555"
       not_jump="true"
       sort_points="true"
       interpolator_type="CentripetalCatmullRom"
       interpolator_beta="0.75"
       start_linecap_type="round"
       linejoin_type="spiro"
       miter_limit="4"
       scale_width="1"
       end_linecap_type="round" />
    <inkscape:path-effect
       effect="simplify"
       id="path-effect157"
       is_visible="true"
       lpeversion="1"
       steps="1"
       threshold="0.0028332064"
       smooth_angles="0"
       helper_size="0"
       simplify_individual_paths="false"
       simplify_just_coalesce="false"
       step="1" />
    <inkscape:path-effect
       effect="powerstroke"
       id="path-effect152"
       is_visible="true"
       lpeversion="1"
       offset_points="2.826981,0.075169555"
       not_jump="true"
       sort_points="true"
       interpolator_type="CentripetalCatmullRom"
       interpolator_beta="0.75"
       start_linecap_type="round"
       linejoin_type="spiro"
       miter_limit="4"
       scale_width="1"
       end_linecap_type="round" />
    <inkscape:path-effect
       effect="simplify"
       id="path-effect150"
       is_visible="true"
       lpeversion="1"
       steps="1"
       threshold="0.0028332064"
       smooth_angles="0"
       helper_size="0"
       simplify_individual_paths="false"
       simplify_just_coalesce="false"
       step="1" />
    <inkscape:path-effect
       effect="powerstroke"
       id="path-effect145"
       is_visible="true"
       lpeversion="1"
       offset_points="3.8374447,0.075169555"
       not_jump="true"
       sort_points="true"
       interpolator_type="CentripetalCatmullRom"
       interpolator_beta="0.75"
       start_linecap_type="round"
       linejoin_type="spiro"
       miter_limit="4"
       scale_width="1"
       end_linecap_type="round" />
    <inkscape:path-effect
       effect="simplify"
       id="path-effect143"
       is_visible="true"
       lpeversion="1"
       steps="1"
       threshold="0.0028332064"
       smooth_angles="0"
       helper_size="0"
       simplify_individual_paths="false"
       simplify_just_coalesce="false"
       step="1" />
    <inkscape:path-effect
       effect="powerstroke"
       id="path-effect138"
       is_visible="true"
       lpeversion="1"
       offset_points="2.6880907,0.075169555"
       not_jump="true"
       sort_points="true"
       interpolator_type="CentripetalCatmullRom"
       interpolator_beta="0.75"
       start_linecap_type="round"
       linejoin_type="spiro"
       miter_limit="4"
       scale_width="1"
       end_linecap_type="round" />
    <inkscape:path-effect
       effect="simplify"
       id="path-effect136"
       is_visible="true"
       lpeversion="1"
       steps="1"
       threshold="0.0028332064"
       smooth_angles="0"
       helper_size="0"
       simplify_individual_paths="false"
       simplify_just_coalesce="false"
       step="1" />
    <inkscape:path-effect
       effect="powerstroke"
       id="path-effect131"
       is_visible="true"
       lpeversion="1"
       offset_points="1.9940581,0.075169555"
       not_jump="true"
       sort_points="true"
       interpolator_type="CentripetalCatmullRom"
       interpolator_beta="0.75"
       start_linecap_type="round"
       linejoin_type="spiro"
       miter_limit="4"
       scale_width="1"
       end_linecap_type="round" />
    <inkscape:path-effect
       effect="simplify"
       id="path-effect129"
       is_visible="true"
       lpeversion="1"
       steps="1"
       threshold="0.0028332064"
       smooth_angles="0"
       helper_size="0"
       simplify_individual_paths="false"
       simplify_just_coalesce="false"
       step="1" />
  </defs>
  <sodipodi:namedview
     id="base"
     pagecolor="#ffffff"
     bordercolor="#666666"
     borderopacity="1.0"
     inkscape:pageopacity="0.0"
     inkscape:pageshadow="2"
     inkscape:zoom="7.919596"
     inkscape:cx="-5.3033008"
     inkscape:cy="20.834396"
     inkscape:document-units="mm"
     inkscape:current-layer="layer1"
     showgrid="false"
     fit-margin-top="0"
     fit-margin-left="0"
     fit-margin-right="0"
     fit-margin-bottom="0"
     inkscape:window-width="1920"
     inkscape:window-height="974"
     inkscape:window-x="-11"
     inkscape:window-y="2889"
     inkscape:window-maximized="1"
     showguides="true"
     inkscape:guide-bbox="true"
     inkscape:snap-bbox="true"
     inkscape:bbox-nodes="true"
     inkscape:snap-nodes="false"
     inkscape:snap-others="false"
     inkscape:snap-page="true"
     inkscape:snap-grids="false"
     inkscape:snap-to-guides="false"
     inkscape:snap-global="false"
     inkscape:pagecheckerboard="0"
     inkscape:showpageshadow="2"
     inkscape:deskcolor="#d1d1d1">
    <sodipodi:guide
       position="-6.1806076,9.4988693"
       orientation="0,1"
       id="guide816"
       inkscape:locked="false" />
    <sodipodi:guide
       position="-4.4101636,10.646923"
       orientation="0,1"
       id="guide818"
       inkscape:locked="false" />
    <sodipodi:guide
       position="2.7595724,11.09577"
       orientation="1,0"
       id="guide820"
       inkscape:locked="false" />
    <sodipodi:guide
       position="3.6572659,10.942217"
       orientation="1,0"
       id="guide822"
       inkscape:locked="false" />
    <sodipodi:guide
       position="-0.051625511,9.74923"
       orientation="1,0"
       id="guide1853"
       inkscape:locked="false" />
    <sodipodi:guide
       position="-2.3720169,3.0175835"
       orientation="0,1"
       id="guide1855"
       inkscape:locked="false" />
  </sodipodi:namedview>
  <metadata
     id="metadata1678">
    <rdf:RDF>
      <cc:Work
         rdf:about="">
        <dc:format>image/svg+xml</dc:format>
        <dc:type
           rdf:resource="http://purl.org/dc/dcmitype/StillImage" />
      </cc:Work>
    </rdf:RDF>
  </metadata>
  <g
     inkscape:label="Layer 1"
     inkscape:groupmode="layer"
     id="layer1"
     transform="translate(17.028496,-147.22856)">
    <path
       d="m -14.903944,148.6161 c -0.269243,-0.0264 -0.735198,-0.0266 -1.267221,0.20071 -0.379387,0.16206 -0.743025,0.42135 -1.021707,0.7764 -0.04394,0.0578 -0.08369,0.1152 -0.119903,0.17328 -0.112588,0.18058 -0.203753,0.39113 -0.245614,0.62185 -0.02263,0.13591 -0.01578,0.27113 0.0166,0.40198 0.03083,0.12458 0.08512,0.24631 0.160831,0.35629 0.07177,0.10426 0.163914,0.19949 0.274263,0.27429 0.10448,0.0708 0.226788,0.12428 0.363064,0.14694 0.04029,0.007 0.08336,0.01 0.127074,0.01 0.03507,-6e-5 0.07106,-0.002 0.108342,-0.007 0.06981,-0.008 0.139542,-0.0229 0.212227,-0.0423 0.273589,-0.0343 0.539043,-0.14241 0.77579,-0.31404 0.223344,-0.16191 0.417518,-0.37817 0.55885,-0.62901 0.223526,-0.38792 0.336166,-0.85455 0.287123,-1.31799 0.0069,-0.0709 0.0084,-0.14817 -0.0029,-0.22525 -0.006,-0.0412 -0.01566,-0.0826 -0.03027,-0.12323 -0.01496,-0.0416 -0.03501,-0.082 -0.06125,-0.12006 -0.0063,-0.009 -0.01312,-0.0179 -0.02177,-0.0247 -0.0086,-0.007 -0.01861,-0.0118 -0.02852,-0.0166 -0.01372,-0.007 -0.02915,-0.0126 -0.04611,-0.0165 -0.01723,-0.004 -0.03664,-0.006 -0.05704,-0.004 -0.02101,0.002 -0.04149,0.008 -0.06052,0.0179 -0.01902,0.01 -0.03446,0.0225 -0.0467,0.0357 -0.0122,0.0131 -0.02124,0.0268 -0.02798,0.0393 -0.0068,0.0126 -0.01184,0.0249 -0.01562,0.036 -0.0075,0.0221 -0.01168,0.0441 -0.01417,0.0625 -0.0051,0.0376 -0.0054,0.0768 -0.0053,0.10391 5.2e-5,0.0152 2.4e-4,0.0285 2.05e-4,0.0388 -3.6e-5,0.0107 -4.32e-4,0.0187 -8.63e-4,0.0193 -5.89e-4,0.0955 -0.0047,0.18738 -0.0083,0.26433 -0.0063,0.13598 -0.01321,0.26297 -0.01314,0.39498 -0.03456,2.12421 0.332301,3.67344 0.603979,4.57135 a 0.14555554,0.14555554 90 0 0 0.278636,-0.0843 c -0.265199,-0.8765 -0.622195,-2.3954 -0.588568,-4.48484 -2.01e-4,-0.12887 0.0055,-0.24302 0.01,-0.38598 0.0024,-0.0785 0.0045,-0.17479 0.002,-0.27263 -2.6e-5,-0.007 -0.001,-0.0218 -0.0019,-0.0336 -0.0011,-0.014 -0.0019,-0.0236 -0.003,-0.0376 -0.002,-0.0262 -0.0029,-0.047 -0.0023,-0.0645 2.46e-4,-0.007 7.72e-4,-0.0116 1.2e-5,-0.0107 -4.6e-4,5.4e-4 -0.0014,0.003 -0.0036,0.006 -0.0021,0.004 -0.0059,0.009 -0.01201,0.0156 -0.0062,0.007 -0.0149,0.0137 -0.02628,0.0194 -0.01146,0.006 -0.02352,0.009 -0.03514,0.0101 -0.01124,9.7e-4 -0.02026,-3.6e-4 -0.02621,-0.002 -0.0059,-0.002 -0.0088,-0.003 -0.0093,-0.004 -0.0037,-0.004 -0.0075,-0.008 -0.01185,-0.0113 -0.0043,-0.003 -0.009,-0.006 -0.01372,-0.009 -0.0047,-0.003 -0.0093,-0.006 -0.01351,-0.009 -0.0042,-0.004 -0.0078,-0.008 -0.01121,-0.0119 0.01391,0.0171 0.02588,0.0367 0.03596,0.0592 0.0099,0.0221 0.01783,0.0466 0.0238,0.0737 0.01184,0.0536 0.01516,0.11322 0.01308,0.17529 -1.25e-4,0.004 -3.16e-4,0.007 -3.03e-4,0.0112 1.3e-5,0.004 3.68e-4,0.007 8.65e-4,0.0112 0.05556,0.4141 -0.03557,0.84172 -0.235501,1.20291 -0.124085,0.22767 -0.296323,0.4244 -0.495128,0.57181 -0.212056,0.15723 -0.448574,0.25458 -0.689982,0.28517 -0.0047,6e-4 -0.0094,0.001 -0.01391,0.003 -0.06845,0.02 -0.130355,0.0336 -0.188969,0.0395 -0.03019,0.003 -0.0584,0.004 -0.0849,0.003 -0.03305,-0.001 -0.06415,-0.006 -0.09352,-0.0133 -0.106759,-0.0205 -0.200415,-0.0648 -0.280423,-0.12334 -0.08471,-0.062 -0.154833,-0.14058 -0.20834,-0.22632 -0.05647,-0.0905 -0.0943,-0.18863 -0.11321,-0.28625 -0.01985,-0.10249 -0.01881,-0.20373 0.002,-0.298 0.05116,-0.18424 0.143639,-0.357 0.246732,-0.51069 0.03334,-0.0497 0.06925,-0.0993 0.107943,-0.14886 0.244401,-0.30852 0.564517,-0.53822 0.901363,-0.68335 0.471232,-0.20301 0.882797,-0.20502 1.117587,-0.182 a 0.15030987,0.15030987 90 0 0 0.02934,-0.29918 z"
       id="path-1"
       inkscape:path-effect="#path-effect151;#path-effect153"
       inkscape:original-d="m -14.918615,148.76569 c -1.046009,-0.10775 -2.18727,0.55305 -2.497809,1.57663 -0.171583,0.63048 0.416513,1.32144 1.078533,1.09658 1.021302,-0.12019 1.668046,-1.19926 1.547546,-2.17055 0.03515,-0.35685 -0.204688,-0.64862 -0.156639,-0.12642 -0.08749,1.72789 0.07385,3.47784 0.575905,5.13756"
       style="fill:#000000;fill-rule:nonzero;stroke:none;stroke-width:1.2455" />
  </g>
</svg>
