<?xml version="1.0" encoding="UTF-8" standalone="no"?>
<!-- Created with Inkscape (http://www.inkscape.org/) -->

<svg
   width="3mm"
   height="10mm"
   viewBox="0 0 3.0000001 9.9999994"
   version="1.1"
   id="svg1681"
   inkscape:version="1.2.1 (9c6d41e410, 2022-07-14)"
   sodipodi:docname="number_nine_12.svg"
   inkscape:export-filename="..\..\..\..\Downloads\lower a diff canvas resize 3.0.png"
   inkscape:export-xdpi="96"
   inkscape:export-ydpi="96"
   xmlns:inkscape="http://www.inkscape.org/namespaces/inkscape"
   xmlns:sodipodi="http://sodipodi.sourceforge.net/DTD/sodipodi-0.dtd"
   xmlns="http://www.w3.org/2000/svg"
   xmlns:svg="http://www.w3.org/2000/svg"
   xmlns:rdf="http://www.w3.org/1999/02/22-rdf-syntax-ns#"
   xmlns:cc="http://creativecommons.org/ns#"
   xmlns:dc="http://purl.org/dc/elements/1.1/">
  <defs
     id="defs1675">
    <inkscape:path-effect
       effect="powerstroke"
       id="path-effect153"
       is_visible="true"
       lpeversion="1"
       offset_points="1.4924474,0.14879755 | 6.9154055,0.1253409 | 8.6701679,0.15434836"
       not_jump="true"
       sort_points="true"
       interpolator_type="CentripetalCatmullRom"
       interpolator_beta="0.75"
       start_linecap_type="round"
       linejoin_type="spiro"
       miter_limit="4"
       scale_width="1"
       end_linecap_type="round" />
    <inkscape:path-effect
       effect="simplify"
       id="path-effect151"
       is_visible="true"
       lpeversion="1"
       steps="1"
       threshold="0.0035951417"
       smooth_angles="0"
       helper_size="0"
       simplify_individual_paths="false"
       simplify_just_coalesce="false"
       step="1" />
    <inkscape:path-effect
       effect="powerstroke"
       id="path-effect1311"
       is_visible="true"
       lpeversion="1"
       offset_points="1.6852059,0.11860025"
       not_jump="true"
       sort_points="true"
       interpolator_type="CentripetalCatmullRom"
       interpolator_beta="0.75"
       start_linecap_type="round"
       linejoin_type="spiro"
       miter_limit="4"
       scale_width="1"
       end_linecap_type="round" />
    <inkscape:path-effect
       effect="simplify"
       id="path-effect1309"
       is_visible="true"
       lpeversion="1"
       steps="1"
       threshold="0.0035951417"
       smooth_angles="0"
       helper_size="0"
       simplify_individual_paths="false"
       simplify_just_coalesce="false"
       step="1" />
    <inkscape:path-effect
       effect="powerstroke"
       id="path-effect502"
       is_visible="true"
       lpeversion="1"
       offset_points="3.0091841,0.21607495 | 7.3602657,0.17554228 | 9.4159651,0.20236537"
       not_jump="true"
       sort_points="true"
       interpolator_type="CentripetalCatmullRom"
       interpolator_beta="0.75"
       start_linecap_type="round"
       linejoin_type="spiro"
       miter_limit="4"
       scale_width="1"
       end_linecap_type="round" />
    <inkscape:path-effect
       effect="simplify"
       id="path-effect500"
       is_visible="true"
       lpeversion="1"
       steps="1"
       threshold="0.0035951417"
       smooth_angles="0"
       helper_size="0"
       simplify_individual_paths="false"
       simplify_just_coalesce="false"
       step="1" />
    <inkscape:path-effect
       effect="powerstroke"
       id="path-effect241"
       is_visible="true"
       lpeversion="1"
       offset_points="2.6879454,0.34086734"
       not_jump="true"
       sort_points="true"
       interpolator_type="CentripetalCatmullRom"
       interpolator_beta="0.75"
       start_linecap_type="round"
       linejoin_type="spiro"
       miter_limit="4"
       scale_width="1"
       end_linecap_type="round" />
    <inkscape:path-effect
       effect="simplify"
       id="path-effect239"
       is_visible="true"
       lpeversion="1"
       steps="1"
       threshold="0.0028332064"
       smooth_angles="0"
       helper_size="0"
       simplify_individual_paths="false"
       simplify_just_coalesce="false"
       step="1" />
    <inkscape:path-effect
       effect="powerstroke"
       id="path-effect234"
       is_visible="true"
       lpeversion="1"
       offset_points="2.13563,0.075169555"
       not_jump="true"
       sort_points="true"
       interpolator_type="CentripetalCatmullRom"
       interpolator_beta="0.75"
       start_linecap_type="round"
       linejoin_type="spiro"
       miter_limit="4"
       scale_width="1"
       end_linecap_type="round" />
    <inkscape:path-effect
       effect="simplify"
       id="path-effect232"
       is_visible="true"
       lpeversion="1"
       steps="1"
       threshold="0.0028332064"
       smooth_angles="0"
       helper_size="0"
       simplify_individual_paths="false"
       simplify_just_coalesce="false"
       step="1" />
    <inkscape:path-effect
       effect="powerstroke"
       id="path-effect227"
       is_visible="true"
       lpeversion="1"
       offset_points="2.1868266,0.075169555"
       not_jump="true"
       sort_points="true"
       interpolator_type="CentripetalCatmullRom"
       interpolator_beta="0.75"
       start_linecap_type="round"
       linejoin_type="spiro"
       miter_limit="4"
       scale_width="1"
       end_linecap_type="round" />
    <inkscape:path-effect
       effect="simplify"
       id="path-effect225"
       is_visible="true"
       lpeversion="1"
       steps="1"
       threshold="0.0028332064"
       smooth_angles="0"
       helper_size="0"
       simplify_individual_paths="false"
       simplify_just_coalesce="false"
       step="1" />
    <inkscape:path-effect
       effect="powerstroke"
       id="path-effect166"
       is_visible="true"
       lpeversion="1"
       offset_points="1.9637935,0.075169555"
       not_jump="true"
       sort_points="true"
       interpolator_type="CentripetalCatmullRom"
       interpolator_beta="0.75"
       start_linecap_type="round"
       linejoin_type="spiro"
       miter_limit="4"
       scale_width="1"
       end_linecap_type="round" />
    <inkscape:path-effect
       effect="simplify"
       id="path-effect164"
       is_visible="true"
       lpeversion="1"
       steps="1"
       threshold="0.0028332064"
       smooth_angles="0"
       helper_size="0"
       simplify_individual_paths="false"
       simplify_just_coalesce="false"
       step="1" />
    <inkscape:path-effect
       effect="powerstroke"
       id="path-effect159"
       is_visible="true"
       lpeversion="1"
       offset_points="2.2611036,0.075169555"
       not_jump="true"
       sort_points="true"
       interpolator_type="CentripetalCatmullRom"
       interpolator_beta="0.75"
       start_linecap_type="round"
       linejoin_type="spiro"
       miter_limit="4"
       scale_width="1"
       end_linecap_type="round" />
    <inkscape:path-effect
       effect="simplify"
       id="path-effect157"
       is_visible="true"
       lpeversion="1"
       steps="1"
       threshold="0.0028332064"
       smooth_angles="0"
       helper_size="0"
       simplify_individual_paths="false"
       simplify_just_coalesce="false"
       step="1" />
    <inkscape:path-effect
       effect="powerstroke"
       id="path-effect152"
       is_visible="true"
       lpeversion="1"
       offset_points="2.826981,0.075169555"
       not_jump="true"
       sort_points="true"
       interpolator_type="CentripetalCatmullRom"
       interpolator_beta="0.75"
       start_linecap_type="round"
       linejoin_type="spiro"
       miter_limit="4"
       scale_width="1"
       end_linecap_type="round" />
    <inkscape:path-effect
       effect="simplify"
       id="path-effect150"
       is_visible="true"
       lpeversion="1"
       steps="1"
       threshold="0.0028332064"
       smooth_angles="0"
       helper_size="0"
       simplify_individual_paths="false"
       simplify_just_coalesce="false"
       step="1" />
    <inkscape:path-effect
       effect="powerstroke"
       id="path-effect145"
       is_visible="true"
       lpeversion="1"
       offset_points="3.8374447,0.075169555"
       not_jump="true"
       sort_points="true"
       interpolator_type="CentripetalCatmullRom"
       interpolator_beta="0.75"
       start_linecap_type="round"
       linejoin_type="spiro"
       miter_limit="4"
       scale_width="1"
       end_linecap_type="round" />
    <inkscape:path-effect
       effect="simplify"
       id="path-effect143"
       is_visible="true"
       lpeversion="1"
       steps="1"
       threshold="0.0028332064"
       smooth_angles="0"
       helper_size="0"
       simplify_individual_paths="false"
       simplify_just_coalesce="false"
       step="1" />
    <inkscape:path-effect
       effect="powerstroke"
       id="path-effect138"
       is_visible="true"
       lpeversion="1"
       offset_points="2.6880907,0.075169555"
       not_jump="true"
       sort_points="true"
       interpolator_type="CentripetalCatmullRom"
       interpolator_beta="0.75"
       start_linecap_type="round"
       linejoin_type="spiro"
       miter_limit="4"
       scale_width="1"
       end_linecap_type="round" />
    <inkscape:path-effect
       effect="simplify"
       id="path-effect136"
       is_visible="true"
       lpeversion="1"
       steps="1"
       threshold="0.0028332064"
       smooth_angles="0"
       helper_size="0"
       simplify_individual_paths="false"
       simplify_just_coalesce="false"
       step="1" />
    <inkscape:path-effect
       effect="powerstroke"
       id="path-effect131"
       is_visible="true"
       lpeversion="1"
       offset_points="1.9940581,0.075169555"
       not_jump="true"
       sort_points="true"
       interpolator_type="CentripetalCatmullRom"
       interpolator_beta="0.75"
       start_linecap_type="round"
       linejoin_type="spiro"
       miter_limit="4"
       scale_width="1"
       end_linecap_type="round" />
    <inkscape:path-effect
       effect="simplify"
       id="path-effect129"
       is_visible="true"
       lpeversion="1"
       steps="1"
       threshold="0.0028332064"
       smooth_angles="0"
       helper_size="0"
       simplify_individual_paths="false"
       simplify_just_coalesce="false"
       step="1" />
  </defs>
  <sodipodi:namedview
     id="base"
     pagecolor="#ffffff"
     bordercolor="#666666"
     borderopacity="1.0"
     inkscape:pageopacity="0.0"
     inkscape:pageshadow="2"
     inkscape:zoom="7.919596"
     inkscape:cx="-5.3033008"
     inkscape:cy="20.834396"
     inkscape:document-units="mm"
     inkscape:current-layer="layer1"
     showgrid="false"
     fit-margin-top="0"
     fit-margin-left="0"
     fit-margin-right="0"
     fit-margin-bottom="0"
     inkscape:window-width="1920"
     inkscape:window-height="974"
     inkscape:window-x="-11"
     inkscape:window-y="2889"
     inkscape:window-maximized="1"
     showguides="true"
     inkscape:guide-bbox="true"
     inkscape:snap-bbox="true"
     inkscape:bbox-nodes="true"
     inkscape:snap-nodes="false"
     inkscape:snap-others="false"
     inkscape:snap-page="true"
     inkscape:snap-grids="false"
     inkscape:snap-to-guides="false"
     inkscape:snap-global="false"
     inkscape:pagecheckerboard="0"
     inkscape:showpageshadow="2"
     inkscape:deskcolor="#d1d1d1">
    <sodipodi:guide
       position="-6.1806076,9.4988693"
       orientation="0,1"
       id="guide816"
       inkscape:locked="false" />
    <sodipodi:guide
       position="-4.4101636,10.646923"
       orientation="0,1"
       id="guide818"
       inkscape:locked="false" />
    <sodipodi:guide
       position="2.7595724,11.09577"
       orientation="1,0"
       id="guide820"
       inkscape:locked="false" />
    <sodipodi:guide
       position="3.6572659,10.942217"
       orientation="1,0"
       id="guide822"
       inkscape:locked="false" />
    <sodipodi:guide
       position="-0.051625511,9.74923"
       orientation="1,0"
       id="guide1853"
       inkscape:locked="false" />
    <sodipodi:guide
       position="-2.3720169,3.0175835"
       orientation="0,1"
       id="guide1855"
       inkscape:locked="false" />
  </sodipodi:namedview>
  <metadata
     id="metadata1678">
    <rdf:RDF>
      <cc:Work
         rdf:about="">
        <dc:format>image/svg+xml</dc:format>
        <dc:type
           rdf:resource="http://purl.org/dc/dcmitype/StillImage" />
      </cc:Work>
    </rdf:RDF>
  </metadata>
  <g
     inkscape:label="Layer 1"
     inkscape:groupmode="layer"
     id="layer1"
     transform="translate(17.028496,-147.22856)">
    <path
       d="m -14.219274,149.18039 c -0.05378,-0.0395 -0.208574,-0.15507 -0.371625,-0.22871 -0.06497,-0.0294 -0.140057,-0.0566 -0.222749,-0.0731 -0.07554,-0.0151 -0.158715,-0.0214 -0.247625,-0.0115 -0.160609,0.0174 -0.326512,0.0591 -0.487596,0.1294 -0.139642,0.0609 -0.293582,0.15132 -0.43818,0.28431 -0.27795,0.24962 -0.497007,0.60095 -0.598608,1.01125 -0.09125,0.3685 -0.08591,0.78464 0.06984,1.17402 0.07698,0.19366 0.19003,0.38075 0.336648,0.54395 0.141995,0.15805 0.314955,0.29298 0.513916,0.38745 0.0058,0.003 0.01155,0.005 0.01761,0.007 0.0061,0.002 0.01234,0.003 0.01863,0.004 0.08281,0.0132 0.163595,0.0111 0.240993,-0.002 0.07718,-0.0133 0.150483,-0.0376 0.218983,-0.0685 0.137577,-0.0621 0.259797,-0.15267 0.360643,-0.24166 0.191806,-0.1602 0.329211,-0.36425 0.422328,-0.57721 0.0988,-0.22594 0.14905,-0.46441 0.166103,-0.68612 0.03178,-0.38009 -0.01414,-0.74425 -0.05795,-1.00913 -0.0043,-0.0259 -0.0086,-0.0513 -0.013,-0.0761 0.01167,-0.20931 -0.04559,-0.4094 -0.118598,-0.55339 -0.01914,-0.0492 -0.05152,-0.0932 -0.09604,-0.12568 -0.04004,-0.0293 -0.09008,-0.0492 -0.145586,-0.0528 -0.03368,-0.002 -0.07019,0.002 -0.106768,0.0141 -0.01597,0.005 -0.03207,0.0126 -0.04792,0.0217 -0.04281,0.0246 -0.08196,0.0624 -0.10935,0.11417 -0.02456,0.0394 -0.04076,0.0808 -0.05135,0.12262 -0.01026,0.0405 -0.01502,0.0802 -0.01769,0.11689 -0.0025,0.0336 -0.0034,0.0691 -0.0046,0.0968 -0.0013,0.0288 -0.003,0.052 -0.0063,0.0721 -8.6e-4,0.005 -0.0014,0.0106 -0.0018,0.0159 -0.04459,0.74407 0.05414,1.48808 0.209558,2.21864 0.09611,0.38801 0.201748,0.7637 0.342723,1.12434 0.151062,0.38643 0.334966,0.73505 0.569779,1.0435 0.160806,0.20885 0.31113,0.3514 0.409728,0.4378 a 0.15434836,0.15434836 90 0 0 0.203446,-0.23218 c -0.08739,-0.0766 -0.221566,-0.20567 -0.36501,-0.39478 -0.212781,-0.28054 -0.383041,-0.60253 -0.525409,-0.96844 -0.133221,-0.3424 -0.234526,-0.70317 -0.327689,-1.08087 -0.149744,-0.70872 -0.242189,-1.4194 -0.201213,-2.12183 0.0053,-0.0363 0.0073,-0.0714 0.0085,-0.10078 0.0013,-0.0338 0.0019,-0.0635 0.0035,-0.0885 0.0017,-0.027 0.0043,-0.0468 0.008,-0.063 0.0038,-0.0166 0.0086,-0.0277 0.01342,-0.036 9.17e-4,-0.002 0.0017,-0.003 0.0022,-0.005 4.54e-4,-0.002 5.88e-4,-0.004 9.29e-4,-0.005 3.4e-4,-0.002 9.75e-4,-0.004 0.0022,-0.005 5.98e-4,-6.7e-4 0.0013,-0.001 0.0021,-0.002 7.86e-4,-4.4e-4 0.0016,-7.6e-4 0.0025,-0.001 -5.45e-4,2.1e-4 -0.0054,0.006 -0.01097,0.009 -0.0019,9.2e-4 -0.0039,0.002 -0.0057,0.002 -0.0042,9.8e-4 -0.0079,7.2e-4 -0.01063,-5e-5 -0.0045,-0.001 -0.0077,-0.004 -0.0094,-0.007 -0.0018,-0.003 -0.0023,-0.007 4.38e-4,-0.006 7.58e-4,3.1e-4 0.0015,6.2e-4 0.0022,0.001 6.93e-4,4.4e-4 0.0013,9.8e-4 0.0018,0.002 9.91e-4,0.001 0.0014,0.003 0.0016,0.005 1.57e-4,0.002 1.52e-4,0.003 5.2e-4,0.005 3.69e-4,0.002 0.0012,0.003 0.002,0.004 0.06536,0.10147 0.127047,0.24968 0.122701,0.42623 -1.16e-4,0.005 -2.35e-4,0.009 4.7e-5,0.0142 2.81e-4,0.005 0.0011,0.009 0.0019,0.0141 0.0055,0.0284 0.01091,0.0577 0.0162,0.0875 0.0455,0.25689 0.08785,0.5961 0.05712,0.94652 -0.01603,0.19975 -0.06196,0.40971 -0.148718,0.60488 -0.08163,0.18366 -0.198644,0.35232 -0.357962,0.48332 -0.09345,0.0802 -0.194745,0.15154 -0.300773,0.19746 -0.05211,0.0226 -0.104204,0.0385 -0.155908,0.0465 -0.04508,0.007 -0.08998,0.008 -0.13479,0.002 -0.15597,-0.0791 -0.293343,-0.18961 -0.407648,-0.31976 -0.122406,-0.13938 -0.216544,-0.29913 -0.280155,-0.46452 -0.129074,-0.32834 -0.133088,-0.68275 -0.05245,-1.0008 0.08977,-0.35406 0.279977,-0.65318 0.515989,-0.86319 0.11902,-0.10711 0.245382,-0.17999 0.359866,-0.22931 0.132516,-0.0571 0.269093,-0.0911 0.401765,-0.1054 0.05465,-0.006 0.106705,-0.002 0.156631,0.008 0.05515,0.011 0.108386,0.0297 0.158507,0.0522 0.129976,0.0584 0.260115,0.15383 0.318082,0.19641 a 0.14879755,0.14879755 90 0 0 0.176166,-0.23986 z"
       id="path-1"
       inkscape:path-effect="#path-effect151;#path-effect153"
       inkscape:original-d="m -14.307357,149.30032 c -0.234692,-0.1714 -0.502467,-0.34235 -0.808363,-0.27275 -0.94943,0.12665 -1.541398,1.19982 -1.352828,2.09668 0.09163,0.48498 0.414948,0.93824 0.861456,1.15226 0.318727,0.0538 0.617747,-0.17269 0.832156,-0.38675 0.525783,-0.57223 0.490631,-1.42 0.357558,-2.13391 0.02495,-0.22083 -0.166891,-0.86912 -0.393565,-0.46146 -0.09859,0.81279 0.0046,1.63995 0.16735,2.43839 0.225144,0.92565 0.540798,1.91745 1.280199,2.56573"
       style="fill:#000000;fill-rule:nonzero;stroke:none;stroke-width:1.21961" />
  </g>
</svg>
