<?xml version="1.0" encoding="UTF-8" standalone="no"?>
<!-- Created with Inkscape (http://www.inkscape.org/) -->

<svg
   width="3mm"
   height="10mm"
   viewBox="0 0 3.0000001 9.9999994"
   version="1.1"
   id="svg1681"
   inkscape:version="1.2.1 (9c6d41e410, 2022-07-14)"
   sodipodi:docname="number_nine_10.svg"
   inkscape:export-filename="..\..\..\..\Downloads\lower a diff canvas resize 3.0.png"
   inkscape:export-xdpi="96"
   inkscape:export-ydpi="96"
   xmlns:inkscape="http://www.inkscape.org/namespaces/inkscape"
   xmlns:sodipodi="http://sodipodi.sourceforge.net/DTD/sodipodi-0.dtd"
   xmlns="http://www.w3.org/2000/svg"
   xmlns:svg="http://www.w3.org/2000/svg"
   xmlns:rdf="http://www.w3.org/1999/02/22-rdf-syntax-ns#"
   xmlns:cc="http://creativecommons.org/ns#"
   xmlns:dc="http://purl.org/dc/elements/1.1/">
  <defs
     id="defs1675">
    <inkscape:path-effect
       effect="powerstroke"
       id="path-effect160"
       is_visible="true"
       lpeversion="1"
       offset_points="2.5523918,0.16675632 | 5.8410281,0.13056242 | 7.8610473,0.15981501"
       not_jump="true"
       sort_points="true"
       interpolator_type="CentripetalCatmullRom"
       interpolator_beta="0.75"
       start_linecap_type="round"
       linejoin_type="spiro"
       miter_limit="4"
       scale_width="1"
       end_linecap_type="round" />
    <inkscape:path-effect
       effect="simplify"
       id="path-effect158"
       is_visible="true"
       lpeversion="1"
       steps="1"
       threshold="0.0035951417"
       smooth_angles="0"
       helper_size="0"
       simplify_individual_paths="false"
       simplify_just_coalesce="false"
       step="1" />
    <inkscape:path-effect
       effect="powerstroke"
       id="path-effect818"
       is_visible="true"
       lpeversion="1"
       offset_points="1.5543802,0.12804223"
       not_jump="true"
       sort_points="true"
       interpolator_type="CentripetalCatmullRom"
       interpolator_beta="0.75"
       start_linecap_type="round"
       linejoin_type="spiro"
       miter_limit="4"
       scale_width="1"
       end_linecap_type="round" />
    <inkscape:path-effect
       effect="simplify"
       id="path-effect816"
       is_visible="true"
       lpeversion="1"
       steps="1"
       threshold="0.0035951417"
       smooth_angles="0"
       helper_size="0"
       simplify_individual_paths="false"
       simplify_just_coalesce="false"
       step="1" />
    <inkscape:path-effect
       effect="powerstroke"
       id="path-effect811"
       is_visible="true"
       lpeversion="1"
       offset_points="3.0706959,0.12275719 | 5.288184,0.13645026 | 8.2098958,0.10353884"
       not_jump="true"
       sort_points="true"
       interpolator_type="CentripetalCatmullRom"
       interpolator_beta="0.75"
       start_linecap_type="round"
       linejoin_type="spiro"
       miter_limit="4"
       scale_width="1"
       end_linecap_type="round" />
    <inkscape:path-effect
       effect="simplify"
       id="path-effect809"
       is_visible="true"
       lpeversion="1"
       steps="1"
       threshold="0.0035951417"
       smooth_angles="0"
       helper_size="0"
       simplify_individual_paths="false"
       simplify_just_coalesce="false"
       step="1" />
    <inkscape:path-effect
       effect="powerstroke"
       id="path-effect804"
       is_visible="true"
       lpeversion="1"
       offset_points="3.0554967,0.095283281 | 10.501547,0.082657145"
       not_jump="true"
       sort_points="true"
       interpolator_type="CentripetalCatmullRom"
       interpolator_beta="0.75"
       start_linecap_type="round"
       linejoin_type="spiro"
       miter_limit="4"
       scale_width="1"
       end_linecap_type="round" />
    <inkscape:path-effect
       effect="simplify"
       id="path-effect802"
       is_visible="true"
       lpeversion="1"
       steps="1"
       threshold="0.0035951417"
       smooth_angles="0"
       helper_size="0"
       simplify_individual_paths="false"
       simplify_just_coalesce="false"
       step="1" />
    <inkscape:path-effect
       effect="powerstroke"
       id="path-effect797"
       is_visible="true"
       lpeversion="1"
       offset_points="2.6091968,0.099247301"
       not_jump="true"
       sort_points="true"
       interpolator_type="CentripetalCatmullRom"
       interpolator_beta="0.75"
       start_linecap_type="round"
       linejoin_type="spiro"
       miter_limit="4"
       scale_width="1"
       end_linecap_type="round" />
    <inkscape:path-effect
       effect="simplify"
       id="path-effect795"
       is_visible="true"
       lpeversion="1"
       steps="1"
       threshold="0.0035951417"
       smooth_angles="0"
       helper_size="0"
       simplify_individual_paths="false"
       simplify_just_coalesce="false"
       step="1" />
    <inkscape:path-effect
       effect="powerstroke"
       id="path-effect502"
       is_visible="true"
       lpeversion="1"
       offset_points="3.0091841,0.21607495 | 7.3602657,0.17554228 | 9.4159651,0.20236537"
       not_jump="true"
       sort_points="true"
       interpolator_type="CentripetalCatmullRom"
       interpolator_beta="0.75"
       start_linecap_type="round"
       linejoin_type="spiro"
       miter_limit="4"
       scale_width="1"
       end_linecap_type="round" />
    <inkscape:path-effect
       effect="simplify"
       id="path-effect500"
       is_visible="true"
       lpeversion="1"
       steps="1"
       threshold="0.0035951417"
       smooth_angles="0"
       helper_size="0"
       simplify_individual_paths="false"
       simplify_just_coalesce="false"
       step="1" />
    <inkscape:path-effect
       effect="powerstroke"
       id="path-effect241"
       is_visible="true"
       lpeversion="1"
       offset_points="2.6879454,0.34086734"
       not_jump="true"
       sort_points="true"
       interpolator_type="CentripetalCatmullRom"
       interpolator_beta="0.75"
       start_linecap_type="round"
       linejoin_type="spiro"
       miter_limit="4"
       scale_width="1"
       end_linecap_type="round" />
    <inkscape:path-effect
       effect="simplify"
       id="path-effect239"
       is_visible="true"
       lpeversion="1"
       steps="1"
       threshold="0.0028332064"
       smooth_angles="0"
       helper_size="0"
       simplify_individual_paths="false"
       simplify_just_coalesce="false"
       step="1" />
    <inkscape:path-effect
       effect="powerstroke"
       id="path-effect234"
       is_visible="true"
       lpeversion="1"
       offset_points="2.13563,0.075169555"
       not_jump="true"
       sort_points="true"
       interpolator_type="CentripetalCatmullRom"
       interpolator_beta="0.75"
       start_linecap_type="round"
       linejoin_type="spiro"
       miter_limit="4"
       scale_width="1"
       end_linecap_type="round" />
    <inkscape:path-effect
       effect="simplify"
       id="path-effect232"
       is_visible="true"
       lpeversion="1"
       steps="1"
       threshold="0.0028332064"
       smooth_angles="0"
       helper_size="0"
       simplify_individual_paths="false"
       simplify_just_coalesce="false"
       step="1" />
    <inkscape:path-effect
       effect="powerstroke"
       id="path-effect227"
       is_visible="true"
       lpeversion="1"
       offset_points="2.1868266,0.075169555"
       not_jump="true"
       sort_points="true"
       interpolator_type="CentripetalCatmullRom"
       interpolator_beta="0.75"
       start_linecap_type="round"
       linejoin_type="spiro"
       miter_limit="4"
       scale_width="1"
       end_linecap_type="round" />
    <inkscape:path-effect
       effect="simplify"
       id="path-effect225"
       is_visible="true"
       lpeversion="1"
       steps="1"
       threshold="0.0028332064"
       smooth_angles="0"
       helper_size="0"
       simplify_individual_paths="false"
       simplify_just_coalesce="false"
       step="1" />
    <inkscape:path-effect
       effect="powerstroke"
       id="path-effect166"
       is_visible="true"
       lpeversion="1"
       offset_points="1.9637935,0.075169555"
       not_jump="true"
       sort_points="true"
       interpolator_type="CentripetalCatmullRom"
       interpolator_beta="0.75"
       start_linecap_type="round"
       linejoin_type="spiro"
       miter_limit="4"
       scale_width="1"
       end_linecap_type="round" />
    <inkscape:path-effect
       effect="simplify"
       id="path-effect164"
       is_visible="true"
       lpeversion="1"
       steps="1"
       threshold="0.0028332064"
       smooth_angles="0"
       helper_size="0"
       simplify_individual_paths="false"
       simplify_just_coalesce="false"
       step="1" />
    <inkscape:path-effect
       effect="powerstroke"
       id="path-effect159"
       is_visible="true"
       lpeversion="1"
       offset_points="2.2611036,0.075169555"
       not_jump="true"
       sort_points="true"
       interpolator_type="CentripetalCatmullRom"
       interpolator_beta="0.75"
       start_linecap_type="round"
       linejoin_type="spiro"
       miter_limit="4"
       scale_width="1"
       end_linecap_type="round" />
    <inkscape:path-effect
       effect="simplify"
       id="path-effect157"
       is_visible="true"
       lpeversion="1"
       steps="1"
       threshold="0.0028332064"
       smooth_angles="0"
       helper_size="0"
       simplify_individual_paths="false"
       simplify_just_coalesce="false"
       step="1" />
    <inkscape:path-effect
       effect="powerstroke"
       id="path-effect152"
       is_visible="true"
       lpeversion="1"
       offset_points="2.826981,0.075169555"
       not_jump="true"
       sort_points="true"
       interpolator_type="CentripetalCatmullRom"
       interpolator_beta="0.75"
       start_linecap_type="round"
       linejoin_type="spiro"
       miter_limit="4"
       scale_width="1"
       end_linecap_type="round" />
    <inkscape:path-effect
       effect="simplify"
       id="path-effect150"
       is_visible="true"
       lpeversion="1"
       steps="1"
       threshold="0.0028332064"
       smooth_angles="0"
       helper_size="0"
       simplify_individual_paths="false"
       simplify_just_coalesce="false"
       step="1" />
    <inkscape:path-effect
       effect="powerstroke"
       id="path-effect145"
       is_visible="true"
       lpeversion="1"
       offset_points="3.8374447,0.075169555"
       not_jump="true"
       sort_points="true"
       interpolator_type="CentripetalCatmullRom"
       interpolator_beta="0.75"
       start_linecap_type="round"
       linejoin_type="spiro"
       miter_limit="4"
       scale_width="1"
       end_linecap_type="round" />
    <inkscape:path-effect
       effect="simplify"
       id="path-effect143"
       is_visible="true"
       lpeversion="1"
       steps="1"
       threshold="0.0028332064"
       smooth_angles="0"
       helper_size="0"
       simplify_individual_paths="false"
       simplify_just_coalesce="false"
       step="1" />
    <inkscape:path-effect
       effect="powerstroke"
       id="path-effect138"
       is_visible="true"
       lpeversion="1"
       offset_points="2.6880907,0.075169555"
       not_jump="true"
       sort_points="true"
       interpolator_type="CentripetalCatmullRom"
       interpolator_beta="0.75"
       start_linecap_type="round"
       linejoin_type="spiro"
       miter_limit="4"
       scale_width="1"
       end_linecap_type="round" />
    <inkscape:path-effect
       effect="simplify"
       id="path-effect136"
       is_visible="true"
       lpeversion="1"
       steps="1"
       threshold="0.0028332064"
       smooth_angles="0"
       helper_size="0"
       simplify_individual_paths="false"
       simplify_just_coalesce="false"
       step="1" />
    <inkscape:path-effect
       effect="powerstroke"
       id="path-effect131"
       is_visible="true"
       lpeversion="1"
       offset_points="1.9940581,0.075169555"
       not_jump="true"
       sort_points="true"
       interpolator_type="CentripetalCatmullRom"
       interpolator_beta="0.75"
       start_linecap_type="round"
       linejoin_type="spiro"
       miter_limit="4"
       scale_width="1"
       end_linecap_type="round" />
    <inkscape:path-effect
       effect="simplify"
       id="path-effect129"
       is_visible="true"
       lpeversion="1"
       steps="1"
       threshold="0.0028332064"
       smooth_angles="0"
       helper_size="0"
       simplify_individual_paths="false"
       simplify_just_coalesce="false"
       step="1" />
  </defs>
  <sodipodi:namedview
     id="base"
     pagecolor="#ffffff"
     bordercolor="#666666"
     borderopacity="1.0"
     inkscape:pageopacity="0.0"
     inkscape:pageshadow="2"
     inkscape:zoom="7.919596"
     inkscape:cx="-5.3033008"
     inkscape:cy="20.834396"
     inkscape:document-units="mm"
     inkscape:current-layer="layer1"
     showgrid="false"
     fit-margin-top="0"
     fit-margin-left="0"
     fit-margin-right="0"
     fit-margin-bottom="0"
     inkscape:window-width="1920"
     inkscape:window-height="974"
     inkscape:window-x="-11"
     inkscape:window-y="2869"
     inkscape:window-maximized="1"
     showguides="true"
     inkscape:guide-bbox="true"
     inkscape:snap-bbox="true"
     inkscape:bbox-nodes="true"
     inkscape:snap-nodes="false"
     inkscape:snap-others="false"
     inkscape:snap-page="true"
     inkscape:snap-grids="false"
     inkscape:snap-to-guides="false"
     inkscape:snap-global="false"
     inkscape:pagecheckerboard="0"
     inkscape:showpageshadow="2"
     inkscape:deskcolor="#d1d1d1">
    <sodipodi:guide
       position="-6.1806076,9.4988693"
       orientation="0,1"
       id="guide816"
       inkscape:locked="false" />
    <sodipodi:guide
       position="-4.4101636,10.646923"
       orientation="0,1"
       id="guide818"
       inkscape:locked="false" />
    <sodipodi:guide
       position="2.7595724,11.09577"
       orientation="1,0"
       id="guide820"
       inkscape:locked="false" />
    <sodipodi:guide
       position="3.6572659,10.942217"
       orientation="1,0"
       id="guide822"
       inkscape:locked="false" />
    <sodipodi:guide
       position="-0.051625511,9.74923"
       orientation="1,0"
       id="guide1853"
       inkscape:locked="false" />
    <sodipodi:guide
       position="-2.3720169,3.0175835"
       orientation="0,1"
       id="guide1855"
       inkscape:locked="false" />
  </sodipodi:namedview>
  <metadata
     id="metadata1678">
    <rdf:RDF>
      <cc:Work
         rdf:about="">
        <dc:format>image/svg+xml</dc:format>
        <dc:type
           rdf:resource="http://purl.org/dc/dcmitype/StillImage" />
      </cc:Work>
    </rdf:RDF>
  </metadata>
  <g
     inkscape:label="Layer 1"
     inkscape:groupmode="layer"
     id="layer1"
     transform="translate(17.028496,-147.22856)">
    <path
       d="m -14.634812,148.64636 c -0.04934,-0.0661 -0.120157,-0.14005 -0.220588,-0.20401 -0.07557,-0.0481 -0.164943,-0.0886 -0.267225,-0.115 -0.168689,-0.0435 -0.370617,-0.0472 -0.568845,0.016 -0.09455,0.0262 -0.188964,0.0708 -0.276947,0.1284 -0.08342,0.0546 -0.158246,0.11893 -0.22456,0.18692 -0.267309,0.24289 -0.4751,0.53677 -0.611822,0.84599 -0.01507,0.0341 -0.02925,0.0683 -0.04256,0.1026 -0.110585,0.28519 -0.170504,0.60436 -0.146634,0.93582 0.0061,0.0863 0.02874,0.16978 0.06445,0.24675 0.03497,0.0753 0.08219,0.14399 0.137948,0.2042 0.109331,0.11804 0.253518,0.20577 0.408245,0.248 0.157137,0.0471 0.328353,0.0497 0.487008,0.0115 0.162641,-0.0392 0.312628,-0.12146 0.428022,-0.24278 0.245262,-0.22618 0.460877,-0.48761 0.626687,-0.76733 0.12091,-0.20398 0.213562,-0.41458 0.276231,-0.62868 0.02943,-0.10056 0.05196,-0.20085 0.06782,-0.3006 0.0062,-0.0165 0.01095,-0.0329 0.01424,-0.0493 0.0045,-0.0226 0.0062,-0.0444 0.0057,-0.0652 -0.0011,-0.0431 -0.01141,-0.0803 -0.02157,-0.10914 -0.0094,-0.0266 -0.02346,-0.0583 -0.03016,-0.0747 -0.0085,-0.0208 -0.0136,-0.0358 -0.01611,-0.0491 -0.01688,-0.0678 -0.02276,-0.14136 -0.03004,-0.24112 -0.0043,-0.0583 -0.0097,-0.13547 -0.02242,-0.21082 -0.0046,-0.0274 -0.01057,-0.0569 -0.0184,-0.0875 -0.0032,-0.0123 -0.0068,-0.0247 -0.01298,-0.0358 -0.0061,-0.0112 -0.01446,-0.0209 -0.02292,-0.0305 -0.01112,-0.0125 -0.02523,-0.0258 -0.04286,-0.0374 -0.0174,-0.0115 -0.03831,-0.0214 -0.06251,-0.0272 -0.02386,-0.006 -0.04822,-0.007 -0.07194,-0.003 -0.02287,0.003 -0.043,0.0105 -0.05997,0.019 -0.01648,0.008 -0.03029,0.018 -0.04157,0.0274 -0.01109,0.009 -0.02054,0.0188 -0.0285,0.0279 -0.01529,0.0175 -0.02749,0.0358 -0.03709,0.0524 -0.01836,0.0317 -0.0325,0.0659 -0.04267,0.0957 -0.005,0.0148 -0.0094,0.0294 -0.01304,0.0433 -0.0034,0.0132 -0.0066,0.0277 -0.0087,0.042 -0.03469,0.36649 0.0025,0.71686 0.06026,1.06549 0.05652,0.34141 0.131189,0.6761 0.174638,1.00091 0.211049,1.20985 0.369948,2.10337 0.551404,3.16782 0.0092,0.0492 0.01698,0.09 0.02106,0.11394 a 0.15981501,0.15981501 90 0 0 0.315078,-0.0537 c -0.0041,-0.0239 -0.01034,-0.0651 -0.01792,-0.11441 -0.178608,-1.05535 -0.340164,-1.9706 -0.547433,-3.1631 -0.0446,-0.33737 -0.119977,-0.67541 -0.174359,-1.00473 -0.05581,-0.33799 -0.08801,-0.65625 -0.05838,-0.97347 -0.0012,0.01 -6.02e-4,0.006 7.36e-4,2.7e-4 0.0014,-0.006 0.0034,-0.0126 0.0058,-0.0201 0.0055,-0.0166 0.01129,-0.0299 0.01579,-0.0383 0.0022,-0.004 0.0026,-0.004 2.01e-4,-0.002 -0.0013,0.001 -0.0041,0.004 -0.0083,0.008 -0.0043,0.004 -0.01116,0.009 -0.02058,0.0132 -0.0098,0.005 -0.02268,0.01 -0.03831,0.0119 -0.01631,0.002 -0.03326,0.002 -0.04973,-0.002 -0.01663,-0.004 -0.03,-0.0106 -0.03991,-0.0172 -0.0099,-0.007 -0.01642,-0.0132 -0.02001,-0.0173 -0.0083,-0.01 -0.01646,-0.0195 -0.02255,-0.0307 -0.0061,-0.0112 -0.0099,-0.0234 -0.01335,-0.0356 0.0057,0.0205 0.01048,0.0413 0.01455,0.062 0.01157,0.0588 0.01885,0.12238 0.02665,0.18469 0.01236,0.0988 0.02654,0.1987 0.06026,0.29903 0.01425,0.0378 0.03048,0.0666 0.04285,0.0877 0.01508,0.0256 0.02094,0.0344 0.02928,0.0499 0.0057,0.0106 0.0086,0.0176 0.0093,0.0196 5.19e-4,0.001 9.73e-4,0.003 9.63e-4,0.005 -9e-6,0.002 -4.66e-4,0.005 -0.0024,0.0103 -0.0019,0.005 -0.004,0.0104 -0.0056,0.0157 -0.0016,0.005 -0.0026,0.0108 -0.0034,0.0163 -0.0136,0.0932 -0.03397,0.18731 -0.06152,0.28207 -0.0557,0.19157 -0.139608,0.3818 -0.250976,0.56742 -0.152873,0.25481 -0.353768,0.49454 -0.589681,0.70733 -0.0842,0.0837 -0.187557,0.13704 -0.302184,0.16049 -0.11233,0.023 -0.230833,0.0162 -0.337862,-0.0204 -0.102823,-0.0325 -0.194877,-0.0938 -0.261989,-0.1719 -0.0338,-0.0393 -0.06034,-0.0818 -0.07885,-0.12567 -0.01881,-0.0446 -0.02926,-0.0903 -0.03111,-0.13638 -0.01697,-0.27875 0.03541,-0.54883 0.131998,-0.79384 0.01161,-0.0294 0.02398,-0.0588 0.03713,-0.0882 0.120179,-0.2681 0.302602,-0.52415 0.536846,-0.7353 0.0027,-0.002 0.0052,-0.005 0.0077,-0.007 0.0538,-0.0548 0.111129,-0.10356 0.171731,-0.14331 0.06244,-0.0409 0.125367,-0.0704 0.188809,-0.0884 0.138477,-0.0446 0.275611,-0.0427 0.388709,-0.014 0.06767,0.0171 0.124776,0.0431 0.17132,0.0725 0.0615,0.0388 0.103625,0.0829 0.132332,0.12137 a 0.16675632,0.16675632 90 0 0 0.267296,-0.19946 z"
       id="path-1"
       inkscape:path-effect="#path-effect158;#path-effect160"
       inkscape:original-d="m -14.76846,148.74609 c -0.310884,-0.40339 -0.942045,-0.34955 -1.270978,0.002 -0.520982,0.44884 -0.860762,1.15716 -0.786163,1.84905 0.122172,0.5409 0.847175,0.70898 1.236327,0.34072 0.510569,-0.45575 0.922664,-1.09389 0.979146,-1.78853 -0.19364,-0.15881 -0.06689,-1.05529 -0.286024,-0.55798 -0.07589,0.70265 0.147494,1.39415 0.235696,2.08682 0.191816,1.08068 0.379605,2.16204 0.564183,3.24394"
       style="fill:#000000;fill-rule:nonzero;stroke:none;stroke-width:1.12569" />
  </g>
</svg>
