<?xml version="1.0" encoding="UTF-8" standalone="no"?>
<!-- Created with Inkscape (http://www.inkscape.org/) -->

<svg
   width="3mm"
   height="10mm"
   viewBox="0 0 3.0000001 9.9999994"
   version="1.1"
   id="svg1681"
   inkscape:version="1.2.1 (9c6d41e410, 2022-07-14)"
   sodipodi:docname="number_five_5.svg"
   inkscape:export-filename="..\..\..\..\Downloads\lower a diff canvas resize 3.0.png"
   inkscape:export-xdpi="96"
   inkscape:export-ydpi="96"
   xmlns:inkscape="http://www.inkscape.org/namespaces/inkscape"
   xmlns:sodipodi="http://sodipodi.sourceforge.net/DTD/sodipodi-0.dtd"
   xmlns="http://www.w3.org/2000/svg"
   xmlns:svg="http://www.w3.org/2000/svg"
   xmlns:rdf="http://www.w3.org/1999/02/22-rdf-syntax-ns#"
   xmlns:cc="http://creativecommons.org/ns#"
   xmlns:dc="http://purl.org/dc/elements/1.1/">
  <defs
     id="defs1675">
    <inkscape:path-effect
       effect="powerstroke"
       id="path-effect574"
       is_visible="true"
       lpeversion="1"
       offset_points="1.3273482,0.11378204 | 3.1591813,0.13507029"
       not_jump="true"
       sort_points="true"
       interpolator_type="CentripetalCatmullRom"
       interpolator_beta="0.75"
       start_linecap_type="round"
       linejoin_type="spiro"
       miter_limit="4"
       scale_width="1"
       end_linecap_type="round" />
    <inkscape:path-effect
       effect="simplify"
       id="path-effect572"
       is_visible="true"
       lpeversion="1"
       steps="1"
       threshold="0.0047745358"
       smooth_angles="0"
       helper_size="0"
       simplify_individual_paths="false"
       simplify_just_coalesce="false"
       step="1" />
    <inkscape:path-effect
       effect="powerstroke"
       id="path-effect499"
       is_visible="true"
       lpeversion="1"
       offset_points="1.9494097,0.11696304 | 11.692215,0.15758201"
       not_jump="true"
       sort_points="true"
       interpolator_type="CentripetalCatmullRom"
       interpolator_beta="0.75"
       start_linecap_type="round"
       linejoin_type="spiro"
       miter_limit="4"
       scale_width="1"
       end_linecap_type="round" />
    <inkscape:path-effect
       effect="simplify"
       id="path-effect497"
       is_visible="true"
       lpeversion="1"
       steps="1"
       threshold="0.0047745358"
       smooth_angles="0"
       helper_size="0"
       simplify_individual_paths="false"
       simplify_just_coalesce="false"
       step="1" />
    <inkscape:path-effect
       effect="powerstroke"
       id="path-effect492"
       is_visible="true"
       lpeversion="1"
       offset_points="3.9441969,0.13213398 | 9.8752622,0.15391162 | 12.016569,0.10301557 | 24.027211,0.13898537"
       not_jump="true"
       sort_points="true"
       interpolator_type="CentripetalCatmullRom"
       interpolator_beta="0.75"
       start_linecap_type="round"
       linejoin_type="spiro"
       miter_limit="4"
       scale_width="1"
       end_linecap_type="round" />
    <inkscape:path-effect
       effect="simplify"
       id="path-effect490"
       is_visible="true"
       lpeversion="1"
       steps="1"
       threshold="0.0047745358"
       smooth_angles="0"
       helper_size="0"
       simplify_individual_paths="false"
       simplify_just_coalesce="false"
       step="1" />
    <inkscape:path-effect
       effect="powerstroke"
       id="path-effect421"
       is_visible="true"
       lpeversion="1"
       offset_points="1.4658898,0.11720774 | 3.9252759,0.13213398 | 9.4434434,0.16418871"
       not_jump="true"
       sort_points="true"
       interpolator_type="CentripetalCatmullRom"
       interpolator_beta="0.75"
       start_linecap_type="round"
       linejoin_type="spiro"
       miter_limit="4"
       scale_width="1"
       end_linecap_type="round" />
    <inkscape:path-effect
       effect="simplify"
       id="path-effect419"
       is_visible="true"
       lpeversion="1"
       steps="1"
       threshold="0.0047745358"
       smooth_angles="0"
       helper_size="0"
       simplify_individual_paths="false"
       simplify_just_coalesce="false"
       step="1" />
    <inkscape:path-effect
       effect="powerstroke"
       id="path-effect352"
       is_visible="true"
       lpeversion="1"
       offset_points="1.4645002,0.13531499 | 3.8367393,0.15635855 | 9.1925248,0.19501997"
       not_jump="true"
       sort_points="true"
       interpolator_type="CentripetalCatmullRom"
       interpolator_beta="0.75"
       start_linecap_type="round"
       linejoin_type="spiro"
       miter_limit="4"
       scale_width="1"
       end_linecap_type="round" />
    <inkscape:path-effect
       effect="simplify"
       id="path-effect350"
       is_visible="true"
       lpeversion="1"
       steps="1"
       threshold="0.0047745358"
       smooth_angles="0"
       helper_size="0"
       simplify_individual_paths="false"
       simplify_just_coalesce="false"
       step="1" />
    <inkscape:path-effect
       effect="powerstroke"
       id="path-effect285"
       is_visible="true"
       lpeversion="1"
       offset_points="1.137444,0.13360214 | 5.5468034,0.14999654 | 9.2977445,0.19232835"
       not_jump="true"
       sort_points="true"
       interpolator_type="CentripetalCatmullRom"
       interpolator_beta="0.75"
       start_linecap_type="round"
       linejoin_type="spiro"
       miter_limit="4"
       scale_width="1"
       end_linecap_type="round" />
    <inkscape:path-effect
       effect="simplify"
       id="path-effect283"
       is_visible="true"
       lpeversion="1"
       steps="1"
       threshold="0.0047745358"
       smooth_angles="0"
       helper_size="0"
       simplify_individual_paths="false"
       simplify_just_coalesce="false"
       step="1" />
    <inkscape:path-effect
       effect="powerstroke"
       id="path-effect219"
       is_visible="true"
       lpeversion="1"
       offset_points="1,0.19787504"
       not_jump="true"
       sort_points="true"
       interpolator_type="CentripetalCatmullRom"
       interpolator_beta="0.75"
       start_linecap_type="round"
       linejoin_type="spiro"
       miter_limit="4"
       scale_width="1"
       end_linecap_type="round" />
    <inkscape:path-effect
       effect="simplify"
       id="path-effect217"
       is_visible="true"
       lpeversion="1"
       steps="1"
       threshold="0.0035951417"
       smooth_angles="0"
       helper_size="0"
       simplify_individual_paths="false"
       simplify_just_coalesce="false"
       step="1" />
    <inkscape:path-effect
       effect="powerstroke"
       id="path-effect212"
       is_visible="true"
       lpeversion="1"
       offset_points="0.76140696,0.074435477 | 2.658805,0.088970215"
       not_jump="true"
       sort_points="true"
       interpolator_type="CentripetalCatmullRom"
       interpolator_beta="0.75"
       start_linecap_type="round"
       linejoin_type="spiro"
       miter_limit="4"
       scale_width="1"
       end_linecap_type="round" />
    <inkscape:path-effect
       effect="simplify"
       id="path-effect210"
       is_visible="true"
       lpeversion="1"
       steps="1"
       threshold="0.0035951417"
       smooth_angles="0"
       helper_size="0"
       simplify_individual_paths="false"
       simplify_just_coalesce="false"
       step="1" />
    <inkscape:path-effect
       effect="powerstroke"
       id="path-effect205"
       is_visible="true"
       lpeversion="1"
       offset_points="0.94498475,0.11555298 | 5.9252086,0.15004266"
       not_jump="true"
       sort_points="true"
       interpolator_type="CentripetalCatmullRom"
       interpolator_beta="0.75"
       start_linecap_type="round"
       linejoin_type="spiro"
       miter_limit="4"
       scale_width="1"
       end_linecap_type="round" />
    <inkscape:path-effect
       effect="simplify"
       id="path-effect203"
       is_visible="true"
       lpeversion="1"
       steps="1"
       threshold="0.0035951417"
       smooth_angles="0"
       helper_size="0"
       simplify_individual_paths="false"
       simplify_just_coalesce="false"
       step="1" />
    <inkscape:path-effect
       effect="powerstroke"
       id="path-effect198"
       is_visible="true"
       lpeversion="1"
       offset_points="0.5,0.062983865"
       not_jump="true"
       sort_points="true"
       interpolator_type="CentripetalCatmullRom"
       interpolator_beta="0.75"
       start_linecap_type="round"
       linejoin_type="spiro"
       miter_limit="4"
       scale_width="1"
       end_linecap_type="round" />
    <inkscape:path-effect
       effect="simplify"
       id="path-effect196"
       is_visible="true"
       lpeversion="1"
       steps="1"
       threshold="0.0035951417"
       smooth_angles="0"
       helper_size="0"
       simplify_individual_paths="false"
       simplify_just_coalesce="false"
       step="1" />
    <inkscape:path-effect
       effect="powerstroke"
       id="path-effect191"
       is_visible="true"
       lpeversion="1"
       offset_points="1.8046544,0.074141846 | 2.6926473,0.084565749 | 7.3328234,0.1020368"
       not_jump="true"
       sort_points="true"
       interpolator_type="CentripetalCatmullRom"
       interpolator_beta="0.75"
       start_linecap_type="round"
       linejoin_type="spiro"
       miter_limit="4"
       scale_width="1"
       end_linecap_type="round" />
    <inkscape:path-effect
       effect="simplify"
       id="path-effect189"
       is_visible="true"
       lpeversion="1"
       steps="1"
       threshold="0.0035951417"
       smooth_angles="0"
       helper_size="0"
       simplify_individual_paths="false"
       simplify_just_coalesce="false"
       step="1" />
    <inkscape:path-effect
       effect="powerstroke"
       id="path-effect184"
       is_visible="true"
       lpeversion="1"
       offset_points="2.5202319,0.077665419 | 5.147311,0.086914797 | 5.689106,0.076197263 | 10.402839,0.085299827"
       not_jump="true"
       sort_points="true"
       interpolator_type="CentripetalCatmullRom"
       interpolator_beta="0.75"
       start_linecap_type="round"
       linejoin_type="spiro"
       miter_limit="4"
       scale_width="1"
       end_linecap_type="round" />
    <inkscape:path-effect
       effect="simplify"
       id="path-effect182"
       is_visible="true"
       lpeversion="1"
       steps="1"
       threshold="0.0035951417"
       smooth_angles="0"
       helper_size="0"
       simplify_individual_paths="false"
       simplify_just_coalesce="false"
       step="1" />
    <inkscape:path-effect
       effect="powerstroke"
       id="path-effect177"
       is_visible="true"
       lpeversion="1"
       offset_points="1.9054916,0.10732216 | 4.8761772,0.13374895 | 6.274466,0.10570719 | 8.1325829,0.094696021"
       not_jump="true"
       sort_points="true"
       interpolator_type="CentripetalCatmullRom"
       interpolator_beta="0.75"
       start_linecap_type="round"
       linejoin_type="spiro"
       miter_limit="4"
       scale_width="1"
       end_linecap_type="round" />
    <inkscape:path-effect
       effect="simplify"
       id="path-effect175"
       is_visible="true"
       lpeversion="1"
       steps="1"
       threshold="0.0035951417"
       smooth_angles="0"
       helper_size="0"
       simplify_individual_paths="false"
       simplify_just_coalesce="false"
       step="1" />
    <inkscape:path-effect
       effect="powerstroke"
       id="path-effect170"
       is_visible="true"
       lpeversion="1"
       offset_points="1,0.081042176"
       not_jump="true"
       sort_points="true"
       interpolator_type="CentripetalCatmullRom"
       interpolator_beta="0.75"
       start_linecap_type="round"
       linejoin_type="spiro"
       miter_limit="4"
       scale_width="1"
       end_linecap_type="round" />
    <inkscape:path-effect
       effect="simplify"
       id="path-effect168"
       is_visible="true"
       lpeversion="1"
       steps="1"
       threshold="0.0035951417"
       smooth_angles="0"
       helper_size="0"
       simplify_individual_paths="false"
       simplify_just_coalesce="false"
       step="1" />
    <inkscape:path-effect
       effect="powerstroke"
       id="path-effect163"
       is_visible="true"
       lpeversion="1"
       offset_points="2.5888325,0.12156326 | 6.8994049,0.10100909 | 8.782865,0.12244416"
       not_jump="true"
       sort_points="true"
       interpolator_type="CentripetalCatmullRom"
       interpolator_beta="0.75"
       start_linecap_type="round"
       linejoin_type="spiro"
       miter_limit="4"
       scale_width="1"
       end_linecap_type="round" />
    <inkscape:path-effect
       effect="simplify"
       id="path-effect161"
       is_visible="true"
       lpeversion="1"
       steps="1"
       threshold="0.0035951417"
       smooth_angles="0"
       helper_size="0"
       simplify_individual_paths="false"
       simplify_just_coalesce="false"
       step="1" />
    <inkscape:path-effect
       effect="powerstroke"
       id="path-effect156"
       is_visible="true"
       lpeversion="1"
       offset_points="1.8272436,0.10174317 | 3.8530037,0.069003302 | 5.6390526,0.096604623"
       not_jump="true"
       sort_points="true"
       interpolator_type="CentripetalCatmullRom"
       interpolator_beta="0.75"
       start_linecap_type="round"
       linejoin_type="spiro"
       miter_limit="4"
       scale_width="1"
       end_linecap_type="round" />
    <inkscape:path-effect
       effect="simplify"
       id="path-effect154"
       is_visible="true"
       lpeversion="1"
       steps="1"
       threshold="0.0035951417"
       smooth_angles="0"
       helper_size="0"
       simplify_individual_paths="false"
       simplify_just_coalesce="false"
       step="1" />
    <inkscape:path-effect
       effect="powerstroke"
       id="path-effect524"
       is_visible="true"
       lpeversion="1"
       offset_points="1.1114631,0.13022672 | 1.990395,0.145277"
       not_jump="true"
       sort_points="true"
       interpolator_type="CentripetalCatmullRom"
       interpolator_beta="0.75"
       start_linecap_type="round"
       linejoin_type="spiro"
       miter_limit="4"
       scale_width="1"
       end_linecap_type="round" />
    <inkscape:path-effect
       effect="simplify"
       id="path-effect522"
       is_visible="true"
       lpeversion="1"
       steps="1"
       threshold="0.0035951417"
       smooth_angles="0"
       helper_size="0"
       simplify_individual_paths="false"
       simplify_just_coalesce="false"
       step="1" />
    <inkscape:path-effect
       effect="powerstroke"
       id="path-effect517"
       is_visible="true"
       lpeversion="1"
       offset_points="0.32417779,0.078546311"
       not_jump="true"
       sort_points="true"
       interpolator_type="CentripetalCatmullRom"
       interpolator_beta="0.75"
       start_linecap_type="round"
       linejoin_type="spiro"
       miter_limit="4"
       scale_width="1"
       end_linecap_type="round" />
    <inkscape:path-effect
       effect="simplify"
       id="path-effect515"
       is_visible="true"
       lpeversion="1"
       steps="1"
       threshold="0.0035951417"
       smooth_angles="0"
       helper_size="0"
       simplify_individual_paths="false"
       simplify_just_coalesce="false"
       step="1" />
    <inkscape:path-effect
       effect="powerstroke"
       id="path-effect510"
       is_visible="true"
       lpeversion="1"
       offset_points="1.1966291,0.097925961"
       not_jump="true"
       sort_points="true"
       interpolator_type="CentripetalCatmullRom"
       interpolator_beta="0.75"
       start_linecap_type="round"
       linejoin_type="spiro"
       miter_limit="4"
       scale_width="1"
       end_linecap_type="round" />
    <inkscape:path-effect
       effect="simplify"
       id="path-effect508"
       is_visible="true"
       lpeversion="1"
       steps="1"
       threshold="0.0035951417"
       smooth_angles="0"
       helper_size="0"
       simplify_individual_paths="false"
       simplify_just_coalesce="false"
       step="1" />
    <inkscape:path-effect
       effect="powerstroke"
       id="path-effect502"
       is_visible="true"
       lpeversion="1"
       offset_points="3.0091841,0.21607495 | 7.3602657,0.17554228 | 9.4159651,0.20236537"
       not_jump="true"
       sort_points="true"
       interpolator_type="CentripetalCatmullRom"
       interpolator_beta="0.75"
       start_linecap_type="round"
       linejoin_type="spiro"
       miter_limit="4"
       scale_width="1"
       end_linecap_type="round" />
    <inkscape:path-effect
       effect="simplify"
       id="path-effect500"
       is_visible="true"
       lpeversion="1"
       steps="1"
       threshold="0.0035951417"
       smooth_angles="0"
       helper_size="0"
       simplify_individual_paths="false"
       simplify_just_coalesce="false"
       step="1" />
    <inkscape:path-effect
       effect="powerstroke"
       id="path-effect241"
       is_visible="true"
       lpeversion="1"
       offset_points="2.6879454,0.34086734"
       not_jump="true"
       sort_points="true"
       interpolator_type="CentripetalCatmullRom"
       interpolator_beta="0.75"
       start_linecap_type="round"
       linejoin_type="spiro"
       miter_limit="4"
       scale_width="1"
       end_linecap_type="round" />
    <inkscape:path-effect
       effect="simplify"
       id="path-effect239"
       is_visible="true"
       lpeversion="1"
       steps="1"
       threshold="0.0028332064"
       smooth_angles="0"
       helper_size="0"
       simplify_individual_paths="false"
       simplify_just_coalesce="false"
       step="1" />
    <inkscape:path-effect
       effect="powerstroke"
       id="path-effect234"
       is_visible="true"
       lpeversion="1"
       offset_points="2.13563,0.075169555"
       not_jump="true"
       sort_points="true"
       interpolator_type="CentripetalCatmullRom"
       interpolator_beta="0.75"
       start_linecap_type="round"
       linejoin_type="spiro"
       miter_limit="4"
       scale_width="1"
       end_linecap_type="round" />
    <inkscape:path-effect
       effect="simplify"
       id="path-effect232"
       is_visible="true"
       lpeversion="1"
       steps="1"
       threshold="0.0028332064"
       smooth_angles="0"
       helper_size="0"
       simplify_individual_paths="false"
       simplify_just_coalesce="false"
       step="1" />
    <inkscape:path-effect
       effect="powerstroke"
       id="path-effect227"
       is_visible="true"
       lpeversion="1"
       offset_points="2.1868266,0.075169555"
       not_jump="true"
       sort_points="true"
       interpolator_type="CentripetalCatmullRom"
       interpolator_beta="0.75"
       start_linecap_type="round"
       linejoin_type="spiro"
       miter_limit="4"
       scale_width="1"
       end_linecap_type="round" />
    <inkscape:path-effect
       effect="simplify"
       id="path-effect225"
       is_visible="true"
       lpeversion="1"
       steps="1"
       threshold="0.0028332064"
       smooth_angles="0"
       helper_size="0"
       simplify_individual_paths="false"
       simplify_just_coalesce="false"
       step="1" />
    <inkscape:path-effect
       effect="powerstroke"
       id="path-effect166"
       is_visible="true"
       lpeversion="1"
       offset_points="1.9637935,0.075169555"
       not_jump="true"
       sort_points="true"
       interpolator_type="CentripetalCatmullRom"
       interpolator_beta="0.75"
       start_linecap_type="round"
       linejoin_type="spiro"
       miter_limit="4"
       scale_width="1"
       end_linecap_type="round" />
    <inkscape:path-effect
       effect="simplify"
       id="path-effect164"
       is_visible="true"
       lpeversion="1"
       steps="1"
       threshold="0.0028332064"
       smooth_angles="0"
       helper_size="0"
       simplify_individual_paths="false"
       simplify_just_coalesce="false"
       step="1" />
    <inkscape:path-effect
       effect="powerstroke"
       id="path-effect159"
       is_visible="true"
       lpeversion="1"
       offset_points="2.2611036,0.075169555"
       not_jump="true"
       sort_points="true"
       interpolator_type="CentripetalCatmullRom"
       interpolator_beta="0.75"
       start_linecap_type="round"
       linejoin_type="spiro"
       miter_limit="4"
       scale_width="1"
       end_linecap_type="round" />
    <inkscape:path-effect
       effect="simplify"
       id="path-effect157"
       is_visible="true"
       lpeversion="1"
       steps="1"
       threshold="0.0028332064"
       smooth_angles="0"
       helper_size="0"
       simplify_individual_paths="false"
       simplify_just_coalesce="false"
       step="1" />
    <inkscape:path-effect
       effect="powerstroke"
       id="path-effect152"
       is_visible="true"
       lpeversion="1"
       offset_points="2.826981,0.075169555"
       not_jump="true"
       sort_points="true"
       interpolator_type="CentripetalCatmullRom"
       interpolator_beta="0.75"
       start_linecap_type="round"
       linejoin_type="spiro"
       miter_limit="4"
       scale_width="1"
       end_linecap_type="round" />
    <inkscape:path-effect
       effect="simplify"
       id="path-effect150"
       is_visible="true"
       lpeversion="1"
       steps="1"
       threshold="0.0028332064"
       smooth_angles="0"
       helper_size="0"
       simplify_individual_paths="false"
       simplify_just_coalesce="false"
       step="1" />
    <inkscape:path-effect
       effect="powerstroke"
       id="path-effect145"
       is_visible="true"
       lpeversion="1"
       offset_points="3.8374447,0.075169555"
       not_jump="true"
       sort_points="true"
       interpolator_type="CentripetalCatmullRom"
       interpolator_beta="0.75"
       start_linecap_type="round"
       linejoin_type="spiro"
       miter_limit="4"
       scale_width="1"
       end_linecap_type="round" />
    <inkscape:path-effect
       effect="simplify"
       id="path-effect143"
       is_visible="true"
       lpeversion="1"
       steps="1"
       threshold="0.0028332064"
       smooth_angles="0"
       helper_size="0"
       simplify_individual_paths="false"
       simplify_just_coalesce="false"
       step="1" />
    <inkscape:path-effect
       effect="powerstroke"
       id="path-effect138"
       is_visible="true"
       lpeversion="1"
       offset_points="2.6880907,0.075169555"
       not_jump="true"
       sort_points="true"
       interpolator_type="CentripetalCatmullRom"
       interpolator_beta="0.75"
       start_linecap_type="round"
       linejoin_type="spiro"
       miter_limit="4"
       scale_width="1"
       end_linecap_type="round" />
    <inkscape:path-effect
       effect="simplify"
       id="path-effect136"
       is_visible="true"
       lpeversion="1"
       steps="1"
       threshold="0.0028332064"
       smooth_angles="0"
       helper_size="0"
       simplify_individual_paths="false"
       simplify_just_coalesce="false"
       step="1" />
    <inkscape:path-effect
       effect="powerstroke"
       id="path-effect131"
       is_visible="true"
       lpeversion="1"
       offset_points="1.9940581,0.075169555"
       not_jump="true"
       sort_points="true"
       interpolator_type="CentripetalCatmullRom"
       interpolator_beta="0.75"
       start_linecap_type="round"
       linejoin_type="spiro"
       miter_limit="4"
       scale_width="1"
       end_linecap_type="round" />
    <inkscape:path-effect
       effect="simplify"
       id="path-effect129"
       is_visible="true"
       lpeversion="1"
       steps="1"
       threshold="0.0028332064"
       smooth_angles="0"
       helper_size="0"
       simplify_individual_paths="false"
       simplify_just_coalesce="false"
       step="1" />
  </defs>
  <sodipodi:namedview
     id="base"
     pagecolor="#ffffff"
     bordercolor="#666666"
     borderopacity="1.0"
     inkscape:pageopacity="0.0"
     inkscape:pageshadow="2"
     inkscape:zoom="15.839192"
     inkscape:cx="-3.3776976"
     inkscape:cy="17.740804"
     inkscape:document-units="mm"
     inkscape:current-layer="layer1"
     showgrid="false"
     fit-margin-top="0"
     fit-margin-left="0"
     fit-margin-right="0"
     fit-margin-bottom="0"
     inkscape:window-width="1920"
     inkscape:window-height="1057"
     inkscape:window-x="1072"
     inkscape:window-y="321"
     inkscape:window-maximized="1"
     showguides="true"
     inkscape:guide-bbox="true"
     inkscape:snap-bbox="true"
     inkscape:bbox-nodes="true"
     inkscape:snap-nodes="false"
     inkscape:snap-others="false"
     inkscape:snap-page="true"
     inkscape:snap-grids="false"
     inkscape:snap-to-guides="false"
     inkscape:snap-global="false"
     inkscape:pagecheckerboard="0"
     inkscape:showpageshadow="2"
     inkscape:deskcolor="#d1d1d1">
    <sodipodi:guide
       position="-6.1806076,9.4988693"
       orientation="0,1"
       id="guide816"
       inkscape:locked="false" />
    <sodipodi:guide
       position="-4.4101637,10.646923"
       orientation="0,1"
       id="guide818"
       inkscape:locked="false" />
    <sodipodi:guide
       position="2.7595724,11.09577"
       orientation="1,0"
       id="guide820"
       inkscape:locked="false" />
    <sodipodi:guide
       position="3.657266,10.942217"
       orientation="1,0"
       id="guide822"
       inkscape:locked="false" />
    <sodipodi:guide
       position="-0.051625511,9.74923"
       orientation="1,0"
       id="guide1853"
       inkscape:locked="false" />
    <sodipodi:guide
       position="-2.3720169,3.0175836"
       orientation="0,1"
       id="guide1855"
       inkscape:locked="false" />
  </sodipodi:namedview>
  <metadata
     id="metadata1678">
    <rdf:RDF>
      <cc:Work
         rdf:about="">
        <dc:format>image/svg+xml</dc:format>
        <dc:type
           rdf:resource="http://purl.org/dc/dcmitype/StillImage" />
      </cc:Work>
    </rdf:RDF>
  </metadata>
  <g
     inkscape:label="Layer 1"
     inkscape:groupmode="layer"
     id="layer1"
     transform="translate(17.028496,-147.22856)">
    <path
       d="m -14.515007,148.19667 c -0.247432,-0.02 -0.838372,-0.0659 -1.418907,-0.0673 3.97e-4,-1e-4 0.0062,1.9e-4 0.01368,0.003 0.0078,0.003 0.01512,0.007 0.02141,0.0126 0.0039,0.003 0.007,0.007 0.0096,0.0102 0.0016,0.002 0.003,0.004 0.0042,0.006 0.0031,0.005 0.0056,0.0104 0.0074,0.0162 9.1e-4,0.003 0.0021,0.007 0.0029,0.0126 3.82e-4,0.003 8.88e-4,0.007 8.95e-4,0.0129 4e-6,0.003 -1.15e-4,0.007 -7.48e-4,0.0126 -5.44e-4,0.005 -0.0019,0.014 -0.0061,0.0255 -0.0022,0.006 -0.0059,0.0146 -0.01234,0.0242 -0.0063,0.009 -0.01734,0.0229 -0.035,0.0339 -0.009,0.006 -0.01954,0.0105 -0.03141,0.0137 -0.01192,0.003 -0.02405,0.004 -0.03592,0.004 -0.01177,-5.6e-4 -0.02235,-0.003 -0.03148,-0.006 -0.009,-0.003 -0.01666,-0.007 -0.0228,-0.0105 -0.01191,-0.007 -0.02023,-0.0149 -0.02526,-0.0203 -0.0052,-0.006 -0.0091,-0.0107 -0.01157,-0.0144 -0.0049,-0.007 -0.008,-0.0134 -0.0096,-0.0168 -0.0018,-0.004 -0.003,-0.007 -0.0039,-0.009 -8.53e-4,-0.002 -0.0015,-0.004 -0.002,-0.006 -8.58e-4,-0.003 -0.0017,-0.005 -0.002,-0.006 -8.46e-4,-0.003 -0.0012,-0.004 -0.0015,-0.004 -9.35e-4,0.008 -0.0013,0.0154 -0.002,0.027 0.01964,0.63052 0.04214,1.53767 0.02186,2.44536 -5.3e-5,0.002 -2.32e-4,0.005 -2.78e-4,0.007 -4.6e-5,0.002 2.56e-4,0.005 7.49e-4,0.007 -2.32e-4,-0.001 -2.7e-4,1.9e-4 -4.15e-4,0.003 -1.51e-4,0.003 -3.45e-4,0.006 -7.15e-4,0.0116 -1.9e-4,0.003 -4.14e-4,0.005 -6.76e-4,0.008 -6.76e-4,0.008 -0.0016,0.0168 -0.0027,0.0268 -0.0029,0.0251 -0.0071,0.0542 -0.01118,0.0766 -9.2e-4,0.005 -0.0018,0.009 -0.0025,0.0129 -7.26e-4,0.003 -0.0014,0.006 -0.0015,0.006 5.69e-4,-0.002 0.0015,-0.006 0.0033,-0.0105 9.3e-4,-0.002 0.0026,-0.006 0.0051,-0.0114 0.0022,-0.004 0.0071,-0.0134 0.01553,-0.0236 0.0044,-0.005 0.01123,-0.0129 0.02092,-0.0205 0.0096,-0.008 0.02463,-0.0173 0.04519,-0.0235 0.02173,-0.007 0.04719,-0.008 0.07345,-0.002 0.01253,0.003 0.02375,0.008 0.03353,0.0135 0.0097,0.005 0.01769,0.0115 0.02421,0.0174 0.01263,0.0114 0.02072,0.0229 0.02557,0.0309 0.005,0.008 0.0082,0.0155 0.01022,0.0207 0.0039,0.01 0.0057,0.0181 0.0066,0.0222 9.25e-4,0.005 0.0014,0.008 0.0017,0.0104 2.67e-4,0.002 4.1e-4,0.004 4.87e-4,0.005 1.65e-4,0.002 1.66e-4,0.003 1.92e-4,0.003 4.19e-4,-0.009 0.0011,-0.0199 0.0026,-0.038 0.0086,-0.0408 0.02482,-0.0791 0.04872,-0.1155 0.02401,-0.0366 0.05607,-0.0717 0.09623,-0.10494 0.03856,-0.0319 0.08347,-0.0611 0.133302,-0.0874 0.04808,-0.0254 0.09937,-0.0472 0.151395,-0.0657 0.10306,-0.0391 0.215521,-0.0597 0.323056,-0.0521 0.05178,0.004 0.101493,0.0138 0.14759,0.0312 0.04524,0.017 0.08744,0.041 0.125331,0.0732 0.05787,0.0488 0.107469,0.10486 0.150744,0.16765 0.043,0.0624 0.07964,0.13125 0.111335,0.20532 0.0634,0.14818 0.104761,0.31186 0.138804,0.47773 0.07569,0.43761 0.100985,0.87654 0.01048,1.29016 -0.035,0.16151 -0.101188,0.31539 -0.19306,0.44198 -0.04712,0.0649 -0.100459,0.12198 -0.159241,0.16967 -0.06023,0.0489 -0.126111,0.0879 -0.19727,0.11581 -0.09915,0.0395 -0.200062,0.0624 -0.301293,0.0729 -0.105188,0.0109 -0.211249,0.008 -0.315743,-0.004 -0.22454,-0.0261 -0.443384,-0.0967 -0.632661,-0.17577 -0.372647,-0.15864 -0.64616,-0.36185 -0.815866,-0.50744 a 0.13507029,0.13507029 90 0 0 -0.175898,0.20502 c 0.18564,0.15927 0.480397,0.37897 0.885941,0.55266 0.20387,0.0856 0.448345,0.16605 0.706744,0.19652 0.120936,0.0143 0.247232,0.0178 0.375349,0.005 0.123551,-0.0126 0.249427,-0.0406 0.373926,-0.09 0.09807,-0.0383 0.188335,-0.0917 0.269492,-0.15727 0.07902,-0.0638 0.148782,-0.13863 0.209002,-0.22125 0.116816,-0.16027 0.197787,-0.35007 0.240379,-0.54483 0.101854,-0.46225 0.07186,-0.941 -0.0072,-1.40064 -0.03584,-0.17617 -0.08145,-0.36154 -0.155758,-0.53568 -0.03754,-0.088 -0.08263,-0.17366 -0.137886,-0.25396 -0.0558,-0.0811 -0.121718,-0.1563 -0.200068,-0.22238 -0.06363,-0.0542 -0.134246,-0.094 -0.207482,-0.12155 -0.07418,-0.0279 -0.150666,-0.0429 -0.225942,-0.0483 -0.154554,-0.0109 -0.307703,0.0188 -0.438956,0.0688 -0.05993,0.0213 -0.123777,0.0485 -0.185335,0.0812 -0.06369,0.0338 -0.125081,0.0734 -0.180645,0.1197 -0.05801,0.0483 -0.109657,0.10385 -0.150871,0.16732 -0.0436,0.0671 -0.07428,0.1413 -0.08922,0.22186 -8.62e-4,0.005 -0.0015,0.009 -0.0019,0.014 -0.002,0.0246 -0.0031,0.0436 -0.0034,0.0579 -8.8e-5,0.004 -1.3e-4,0.008 -9.7e-5,0.0115 3.2e-5,0.004 1.4e-4,0.008 4.52e-4,0.013 1.6e-4,0.002 4.02e-4,0.005 7.88e-4,0.009 3.73e-4,0.003 9.93e-4,0.008 0.0021,0.0131 9.74e-4,0.005 0.003,0.0136 0.0071,0.0241 0.0021,0.005 0.0054,0.0129 0.01051,0.0213 0.0049,0.008 0.01314,0.0198 0.02588,0.0313 0.0066,0.006 0.01463,0.012 0.02437,0.0175 0.0098,0.006 0.02111,0.0103 0.0337,0.0136 0.02637,0.007 0.05196,0.005 0.07381,-0.002 0.02068,-0.006 0.03587,-0.0161 0.04557,-0.0237 0.0098,-0.008 0.01683,-0.0154 0.02133,-0.0209 0.0087,-0.0106 0.01395,-0.0202 0.0164,-0.025 0.0028,-0.006 0.0048,-0.0103 0.0061,-0.0135 0.0025,-0.006 0.0042,-0.012 0.0051,-0.0154 0.0011,-0.004 0.002,-0.007 0.0027,-0.0105 0.0014,-0.006 0.0027,-0.0127 0.0038,-0.0187 0.0011,-0.006 0.0023,-0.013 0.0033,-0.0198 0.0046,-0.0292 0.0088,-0.0642 0.01146,-0.0952 0.0011,-0.0125 0.0019,-0.0247 0.0025,-0.0362 2.22e-4,-0.004 4.02e-4,-0.009 5.34e-4,-0.0133 2.45e-4,-0.008 3.34e-4,-0.0162 1.88e-4,-0.0242 -1.1e-4,-0.006 -3.63e-4,-0.0125 -8.82e-4,-0.0192 0.01465,-0.92094 -0.01914,-1.81505 -0.04675,-2.44661 -4.23e-4,-0.011 -0.0014,-0.0246 -0.0028,-0.0359 -6.88e-4,-0.006 -0.0015,-0.0111 -0.0024,-0.0162 -8.93e-4,-0.005 -0.002,-0.0104 -0.0034,-0.0159 -7.15e-4,-0.003 -0.0017,-0.006 -0.0029,-0.0101 -6.27e-4,-0.002 -0.0014,-0.004 -0.0024,-0.007 -9.54e-4,-0.003 -0.0024,-0.006 -0.0042,-0.0101 -0.0017,-0.004 -0.0049,-0.0101 -0.0099,-0.0174 -0.0026,-0.004 -0.0064,-0.009 -0.01173,-0.0146 -0.0051,-0.005 -0.01345,-0.0133 -0.02541,-0.0204 -0.0062,-0.004 -0.0138,-0.007 -0.02287,-0.0105 -0.0091,-0.003 -0.01976,-0.005 -0.03154,-0.006 -0.01189,-5.7e-4 -0.02404,6.7e-4 -0.03598,0.004 -0.01188,0.003 -0.02242,0.008 -0.03146,0.0137 -0.0177,0.0111 -0.02874,0.0245 -0.0351,0.034 -0.0064,0.01 -0.01023,0.0184 -0.01243,0.0244 -0.0043,0.0116 -0.0057,0.0212 -0.0063,0.026 -6.63e-4,0.006 -8.01e-4,0.0102 -8.03e-4,0.0134 -3e-6,0.006 5.42e-4,0.0117 0.001,0.0153 9.85e-4,0.007 0.0026,0.0142 0.0042,0.0199 0.0033,0.0115 0.0085,0.0245 0.01606,0.0376 0.0029,0.005 0.0063,0.0102 0.0101,0.0154 0.0061,0.008 0.01363,0.0169 0.02281,0.0252 0.01459,0.0131 0.03263,0.0245 0.05418,0.0322 0.02097,0.008 0.04305,0.0108 0.06551,0.0103 0.568254,2.9e-4 1.151043,0.0489 1.39874,0.0688 a 0.11378204,0.11378204 90 0 0 0.01829,-0.22682 z"
       id="path-1"
       inkscape:path-effect="#path-effect572;#path-effect574"
       inkscape:original-d="m -14.524153,148.31008 c -0.363895,-0.0279 -0.728194,-0.0552 -1.093119,-0.0636 -0.101032,-0.002 -0.202144,-6.2e-4 -0.30315,-0.004 -0.01393,-4.4e-4 -0.04834,-5.1e-4 -0.0632,-0.0139 -0.01096,-0.01 -0.0055,-0.0587 -0.0049,-0.0439 0.02958,0.71876 0.04421,1.4303 0.04246,2.1491 -5.55e-4,0.22757 0.0019,0.28776 -0.01481,0.50211 -0.0021,0.0264 -0.01695,0.10394 -0.01777,0.0775 -0.01136,-0.36493 0.436765,-0.57603 0.737633,-0.62157 0.93951,-0.14221 1.06377,1.39011 1.032884,1.99303 -0.09558,1.86587 -1.881751,1.47275 -2.894248,0.60076"
       style="fill:#000000;fill-rule:nonzero;stroke:none" />
  </g>
</svg>
