<?xml version="1.0" encoding="UTF-8" standalone="no"?>
<!-- Created with Inkscape (http://www.inkscape.org/) -->

<svg
   width="2mm"
   height="10mm"
   viewBox="0 0 2.0000001 9.9999994"
   version="1.1"
   id="svg1681"
   inkscape:version="1.2.1 (9c6d41e410, 2022-07-14)"
   sodipodi:docname="hyphen_14.svg"
   inkscape:export-filename="..\..\..\..\Downloads\lower a diff canvas resize 3.0.png"
   inkscape:export-xdpi="96"
   inkscape:export-ydpi="96"
   xmlns:inkscape="http://www.inkscape.org/namespaces/inkscape"
   xmlns:sodipodi="http://sodipodi.sourceforge.net/DTD/sodipodi-0.dtd"
   xmlns="http://www.w3.org/2000/svg"
   xmlns:svg="http://www.w3.org/2000/svg"
   xmlns:rdf="http://www.w3.org/1999/02/22-rdf-syntax-ns#"
   xmlns:cc="http://creativecommons.org/ns#"
   xmlns:dc="http://purl.org/dc/elements/1.1/">
  <defs
     id="defs1675">
    <inkscape:path-effect
       effect="powerstroke"
       id="path-effect165"
       is_visible="true"
       lpeversion="1"
       offset_points="2.2503792,0.11006443"
       not_jump="true"
       sort_points="true"
       interpolator_type="CentripetalCatmullRom"
       interpolator_beta="0.75"
       start_linecap_type="round"
       linejoin_type="spiro"
       miter_limit="4"
       scale_width="1"
       end_linecap_type="round" />
    <inkscape:path-effect
       effect="simplify"
       id="path-effect162"
       is_visible="true"
       lpeversion="1"
       steps="1"
       threshold="0.0035951417"
       smooth_angles="0"
       helper_size="0"
       simplify_individual_paths="false"
       simplify_just_coalesce="false"
       step="1" />
    <inkscape:path-effect
       effect="powerstroke"
       id="path-effect567"
       is_visible="true"
       lpeversion="1"
       offset_points="2.3872426,0.12892864 | 5.2163177,0.16530685"
       not_jump="true"
       sort_points="true"
       interpolator_type="CentripetalCatmullRom"
       interpolator_beta="0.75"
       start_linecap_type="round"
       linejoin_type="spiro"
       miter_limit="4"
       scale_width="1"
       end_linecap_type="round" />
    <inkscape:path-effect
       effect="simplify"
       id="path-effect565"
       is_visible="true"
       lpeversion="1"
       steps="1"
       threshold="0.0035951417"
       smooth_angles="0"
       helper_size="0"
       simplify_individual_paths="false"
       simplify_just_coalesce="false"
       step="1" />
    <inkscape:path-effect
       effect="powerstroke"
       id="path-effect163"
       is_visible="true"
       lpeversion="1"
       offset_points="2.3868036,0.21301815"
       not_jump="true"
       sort_points="true"
       interpolator_type="CentripetalCatmullRom"
       interpolator_beta="0.75"
       start_linecap_type="round"
       linejoin_type="spiro"
       miter_limit="4"
       scale_width="1"
       end_linecap_type="round" />
    <inkscape:path-effect
       effect="simplify"
       id="path-effect161"
       is_visible="true"
       lpeversion="1"
       steps="1"
       threshold="0.0035951417"
       smooth_angles="0"
       helper_size="0"
       simplify_individual_paths="false"
       simplify_just_coalesce="false"
       step="1" />
    <inkscape:path-effect
       effect="powerstroke"
       id="path-effect228"
       is_visible="true"
       lpeversion="1"
       offset_points="0.31995504,0.11823712"
       not_jump="true"
       sort_points="true"
       interpolator_type="CentripetalCatmullRom"
       interpolator_beta="0.75"
       start_linecap_type="round"
       linejoin_type="spiro"
       miter_limit="4"
       scale_width="1"
       end_linecap_type="round" />
    <inkscape:path-effect
       effect="simplify"
       id="path-effect226"
       is_visible="true"
       lpeversion="1"
       steps="1"
       threshold="0.0035951417"
       smooth_angles="0"
       helper_size="0"
       simplify_individual_paths="false"
       simplify_just_coalesce="false"
       step="1" />
    <inkscape:path-effect
       effect="powerstroke"
       id="path-effect220"
       is_visible="true"
       lpeversion="1"
       offset_points="1,0.12338681"
       not_jump="true"
       sort_points="true"
       interpolator_type="CentripetalCatmullRom"
       interpolator_beta="0.75"
       start_linecap_type="round"
       linejoin_type="spiro"
       miter_limit="4"
       scale_width="1"
       end_linecap_type="round" />
    <inkscape:path-effect
       effect="simplify"
       id="path-effect218"
       is_visible="true"
       lpeversion="1"
       steps="1"
       threshold="0.0035951417"
       smooth_angles="0"
       helper_size="0"
       simplify_individual_paths="false"
       simplify_just_coalesce="false"
       step="1" />
    <inkscape:path-effect
       effect="powerstroke"
       id="path-effect213"
       is_visible="true"
       lpeversion="1"
       offset_points="0.66831593,0.092694602"
       not_jump="true"
       sort_points="true"
       interpolator_type="CentripetalCatmullRom"
       interpolator_beta="0.75"
       start_linecap_type="round"
       linejoin_type="spiro"
       miter_limit="4"
       scale_width="1"
       end_linecap_type="round" />
    <inkscape:path-effect
       effect="simplify"
       id="path-effect211"
       is_visible="true"
       lpeversion="1"
       steps="1"
       threshold="0.0035951417"
       smooth_angles="0"
       helper_size="0"
       simplify_individual_paths="false"
       simplify_just_coalesce="false"
       step="1" />
    <inkscape:path-effect
       effect="powerstroke"
       id="path-effect206"
       is_visible="true"
       lpeversion="1"
       offset_points="0.49761397,0.091664664"
       not_jump="true"
       sort_points="true"
       interpolator_type="CentripetalCatmullRom"
       interpolator_beta="0.75"
       start_linecap_type="round"
       linejoin_type="spiro"
       miter_limit="4"
       scale_width="1"
       end_linecap_type="round" />
    <inkscape:path-effect
       effect="simplify"
       id="path-effect204"
       is_visible="true"
       lpeversion="1"
       steps="1"
       threshold="0.0035951417"
       smooth_angles="0"
       helper_size="0"
       simplify_individual_paths="false"
       simplify_just_coalesce="false"
       step="1" />
    <inkscape:path-effect
       effect="powerstroke"
       id="path-effect1482"
       is_visible="true"
       lpeversion="1"
       offset_points="3.7088798,0.16303938 | 6.5700881,0.14748794 | 7.7997513,0.166551 | 18.340411,0.14548129 | 22.036374,0.17909248"
       not_jump="true"
       sort_points="true"
       interpolator_type="CentripetalCatmullRom"
       interpolator_beta="0.75"
       start_linecap_type="round"
       linejoin_type="spiro"
       miter_limit="4"
       scale_width="1"
       end_linecap_type="round" />
    <inkscape:path-effect
       effect="simplify"
       id="path-effect1480"
       is_visible="true"
       lpeversion="1"
       steps="1"
       threshold="0.0035951417"
       smooth_angles="0"
       helper_size="0"
       simplify_individual_paths="false"
       simplify_just_coalesce="false"
       step="1" />
    <inkscape:path-effect
       effect="powerstroke"
       id="path-effect502"
       is_visible="true"
       lpeversion="1"
       offset_points="3.0091841,0.21607495 | 7.3602657,0.17554228 | 9.4159651,0.20236537"
       not_jump="true"
       sort_points="true"
       interpolator_type="CentripetalCatmullRom"
       interpolator_beta="0.75"
       start_linecap_type="round"
       linejoin_type="spiro"
       miter_limit="4"
       scale_width="1"
       end_linecap_type="round" />
    <inkscape:path-effect
       effect="simplify"
       id="path-effect500"
       is_visible="true"
       lpeversion="1"
       steps="1"
       threshold="0.0035951417"
       smooth_angles="0"
       helper_size="0"
       simplify_individual_paths="false"
       simplify_just_coalesce="false"
       step="1" />
    <inkscape:path-effect
       effect="powerstroke"
       id="path-effect241"
       is_visible="true"
       lpeversion="1"
       offset_points="2.6879454,0.34086734"
       not_jump="true"
       sort_points="true"
       interpolator_type="CentripetalCatmullRom"
       interpolator_beta="0.75"
       start_linecap_type="round"
       linejoin_type="spiro"
       miter_limit="4"
       scale_width="1"
       end_linecap_type="round" />
    <inkscape:path-effect
       effect="simplify"
       id="path-effect239"
       is_visible="true"
       lpeversion="1"
       steps="1"
       threshold="0.0028332064"
       smooth_angles="0"
       helper_size="0"
       simplify_individual_paths="false"
       simplify_just_coalesce="false"
       step="1" />
    <inkscape:path-effect
       effect="powerstroke"
       id="path-effect234"
       is_visible="true"
       lpeversion="1"
       offset_points="2.13563,0.075169555"
       not_jump="true"
       sort_points="true"
       interpolator_type="CentripetalCatmullRom"
       interpolator_beta="0.75"
       start_linecap_type="round"
       linejoin_type="spiro"
       miter_limit="4"
       scale_width="1"
       end_linecap_type="round" />
    <inkscape:path-effect
       effect="simplify"
       id="path-effect232"
       is_visible="true"
       lpeversion="1"
       steps="1"
       threshold="0.0028332064"
       smooth_angles="0"
       helper_size="0"
       simplify_individual_paths="false"
       simplify_just_coalesce="false"
       step="1" />
    <inkscape:path-effect
       effect="powerstroke"
       id="path-effect227"
       is_visible="true"
       lpeversion="1"
       offset_points="2.1868266,0.075169555"
       not_jump="true"
       sort_points="true"
       interpolator_type="CentripetalCatmullRom"
       interpolator_beta="0.75"
       start_linecap_type="round"
       linejoin_type="spiro"
       miter_limit="4"
       scale_width="1"
       end_linecap_type="round" />
    <inkscape:path-effect
       effect="simplify"
       id="path-effect225"
       is_visible="true"
       lpeversion="1"
       steps="1"
       threshold="0.0028332064"
       smooth_angles="0"
       helper_size="0"
       simplify_individual_paths="false"
       simplify_just_coalesce="false"
       step="1" />
    <inkscape:path-effect
       effect="powerstroke"
       id="path-effect166"
       is_visible="true"
       lpeversion="1"
       offset_points="1.9637935,0.075169555"
       not_jump="true"
       sort_points="true"
       interpolator_type="CentripetalCatmullRom"
       interpolator_beta="0.75"
       start_linecap_type="round"
       linejoin_type="spiro"
       miter_limit="4"
       scale_width="1"
       end_linecap_type="round" />
    <inkscape:path-effect
       effect="simplify"
       id="path-effect164"
       is_visible="true"
       lpeversion="1"
       steps="1"
       threshold="0.0028332064"
       smooth_angles="0"
       helper_size="0"
       simplify_individual_paths="false"
       simplify_just_coalesce="false"
       step="1" />
    <inkscape:path-effect
       effect="powerstroke"
       id="path-effect159"
       is_visible="true"
       lpeversion="1"
       offset_points="2.2611036,0.075169555"
       not_jump="true"
       sort_points="true"
       interpolator_type="CentripetalCatmullRom"
       interpolator_beta="0.75"
       start_linecap_type="round"
       linejoin_type="spiro"
       miter_limit="4"
       scale_width="1"
       end_linecap_type="round" />
    <inkscape:path-effect
       effect="simplify"
       id="path-effect157"
       is_visible="true"
       lpeversion="1"
       steps="1"
       threshold="0.0028332064"
       smooth_angles="0"
       helper_size="0"
       simplify_individual_paths="false"
       simplify_just_coalesce="false"
       step="1" />
    <inkscape:path-effect
       effect="powerstroke"
       id="path-effect152"
       is_visible="true"
       lpeversion="1"
       offset_points="2.826981,0.075169555"
       not_jump="true"
       sort_points="true"
       interpolator_type="CentripetalCatmullRom"
       interpolator_beta="0.75"
       start_linecap_type="round"
       linejoin_type="spiro"
       miter_limit="4"
       scale_width="1"
       end_linecap_type="round" />
    <inkscape:path-effect
       effect="simplify"
       id="path-effect150"
       is_visible="true"
       lpeversion="1"
       steps="1"
       threshold="0.0028332064"
       smooth_angles="0"
       helper_size="0"
       simplify_individual_paths="false"
       simplify_just_coalesce="false"
       step="1" />
    <inkscape:path-effect
       effect="powerstroke"
       id="path-effect145"
       is_visible="true"
       lpeversion="1"
       offset_points="3.8374447,0.075169555"
       not_jump="true"
       sort_points="true"
       interpolator_type="CentripetalCatmullRom"
       interpolator_beta="0.75"
       start_linecap_type="round"
       linejoin_type="spiro"
       miter_limit="4"
       scale_width="1"
       end_linecap_type="round" />
    <inkscape:path-effect
       effect="simplify"
       id="path-effect143"
       is_visible="true"
       lpeversion="1"
       steps="1"
       threshold="0.0028332064"
       smooth_angles="0"
       helper_size="0"
       simplify_individual_paths="false"
       simplify_just_coalesce="false"
       step="1" />
    <inkscape:path-effect
       effect="powerstroke"
       id="path-effect138"
       is_visible="true"
       lpeversion="1"
       offset_points="2.6880907,0.075169555"
       not_jump="true"
       sort_points="true"
       interpolator_type="CentripetalCatmullRom"
       interpolator_beta="0.75"
       start_linecap_type="round"
       linejoin_type="spiro"
       miter_limit="4"
       scale_width="1"
       end_linecap_type="round" />
    <inkscape:path-effect
       effect="simplify"
       id="path-effect136"
       is_visible="true"
       lpeversion="1"
       steps="1"
       threshold="0.0028332064"
       smooth_angles="0"
       helper_size="0"
       simplify_individual_paths="false"
       simplify_just_coalesce="false"
       step="1" />
    <inkscape:path-effect
       effect="powerstroke"
       id="path-effect131"
       is_visible="true"
       lpeversion="1"
       offset_points="1.9940581,0.075169555"
       not_jump="true"
       sort_points="true"
       interpolator_type="CentripetalCatmullRom"
       interpolator_beta="0.75"
       start_linecap_type="round"
       linejoin_type="spiro"
       miter_limit="4"
       scale_width="1"
       end_linecap_type="round" />
    <inkscape:path-effect
       effect="simplify"
       id="path-effect129"
       is_visible="true"
       lpeversion="1"
       steps="1"
       threshold="0.0028332064"
       smooth_angles="0"
       helper_size="0"
       simplify_individual_paths="false"
       simplify_just_coalesce="false"
       step="1" />
  </defs>
  <sodipodi:namedview
     id="base"
     pagecolor="#ffffff"
     bordercolor="#666666"
     borderopacity="1.0"
     inkscape:pageopacity="0.0"
     inkscape:pageshadow="2"
     inkscape:zoom="7.919596"
     inkscape:cx="-5.1770318"
     inkscape:cy="20.834396"
     inkscape:document-units="mm"
     inkscape:current-layer="layer1"
     showgrid="false"
     fit-margin-top="0"
     fit-margin-left="0"
     fit-margin-right="0"
     fit-margin-bottom="0"
     inkscape:window-width="1920"
     inkscape:window-height="974"
     inkscape:window-x="-11"
     inkscape:window-y="2889"
     inkscape:window-maximized="1"
     showguides="true"
     inkscape:guide-bbox="true"
     inkscape:snap-bbox="true"
     inkscape:bbox-nodes="true"
     inkscape:snap-nodes="false"
     inkscape:snap-others="false"
     inkscape:snap-page="true"
     inkscape:snap-grids="false"
     inkscape:snap-to-guides="false"
     inkscape:snap-global="false"
     inkscape:pagecheckerboard="0"
     inkscape:showpageshadow="2"
     inkscape:deskcolor="#d1d1d1">
    <sodipodi:guide
       position="-6.1806076,9.4988693"
       orientation="0,1"
       id="guide816"
       inkscape:locked="false" />
    <sodipodi:guide
       position="-4.4101637,10.646923"
       orientation="0,1"
       id="guide818"
       inkscape:locked="false" />
    <sodipodi:guide
       position="2.7595724,11.09577"
       orientation="1,0"
       id="guide820"
       inkscape:locked="false" />
    <sodipodi:guide
       position="3.6572659,10.942217"
       orientation="1,0"
       id="guide822"
       inkscape:locked="false" />
    <sodipodi:guide
       position="-0.051625512,9.74923"
       orientation="1,0"
       id="guide1853"
       inkscape:locked="false" />
    <sodipodi:guide
       position="-2.3720169,3.0175835"
       orientation="0,1"
       id="guide1855"
       inkscape:locked="false" />
  </sodipodi:namedview>
  <metadata
     id="metadata1678">
    <rdf:RDF>
      <cc:Work
         rdf:about="">
        <dc:format>image/svg+xml</dc:format>
        <dc:type
           rdf:resource="http://purl.org/dc/dcmitype/StillImage" />
      </cc:Work>
    </rdf:RDF>
  </metadata>
  <g
     inkscape:label="Layer 1"
     inkscape:groupmode="layer"
     id="layer1"
     transform="translate(17.028496,-147.22856)">
    <path
       d="m -16.938207,150.91993 c 0.197795,0.0418 0.350789,0.0575 0.656169,0.0926 0.181863,0.0209 0.410079,0.0488 0.62416,0.10978 0.06114,0.0179 0.132366,0.0388 0.192496,0.0704 0.01684,0.008 0.02969,0.0147 0.04297,0.0217 0.01174,0.006 0.02264,0.0123 0.03222,0.0186 0.0086,0.006 0.01542,0.0111 0.02062,0.0162 0.0047,0.005 0.0078,0.009 0.01006,0.0129 l -0.0049,-0.0102 c -0.0016,-0.004 -0.0049,-0.0122 -0.0067,-0.0239 -9.3e-4,-0.006 -0.0017,-0.0145 -8.86e-4,-0.0246 8e-4,-0.0101 0.0033,-0.0228 0.0095,-0.0364 0.0064,-0.0139 0.01586,-0.0269 0.02837,-0.0376 0.0122,-0.0104 0.02506,-0.0167 0.03638,-0.0205 0.01099,-0.004 0.02073,-0.005 0.028,-0.005 0.0073,-3.8e-4 0.01339,4e-5 0.01787,5.7e-4 0.0085,0.001 0.01496,0.003 0.01811,0.004 0.0034,0.001 0.006,0.002 0.0072,0.003 0.0028,0.001 0.003,0.001 0.0023,0.001 -0.0013,-7e-4 -0.0059,-0.003 -0.01282,-0.007 -0.003,-0.002 -0.0078,-0.004 -0.01332,-0.006 -0.0028,-0.001 -0.0067,-0.003 -0.01138,-0.004 -0.0042,-0.001 -0.01162,-0.004 -0.02089,-0.005 l 0.03118,0.01 c -0.07497,-0.0358 -0.153876,-0.079 -0.240309,-0.12158 -0.08059,-0.0397 -0.171228,-0.0803 -0.270034,-0.10776 -0.266584,-0.0817 -0.567668,-0.12776 -0.875706,-0.0997 -0.0073,6.7e-4 -0.01461,0.002 -0.02168,0.004 -0.02104,0.006 -0.04549,0.007 -0.07274,0.002 -0.02685,-0.006 -0.05475,-0.0173 -0.08062,-0.0339 -0.0079,-0.005 -0.01147,-0.007 -0.0138,-0.008 -0.0026,-0.001 -0.0053,-0.003 -0.0079,-0.004 -0.0026,-0.001 -0.0052,-0.002 -0.0078,-0.004 -0.0025,-0.001 -0.0053,-0.002 -0.0082,-0.004 -0.0014,-5.8e-4 -0.0032,-0.001 -0.0051,-0.002 -0.0017,-6.2e-4 -0.0047,-0.002 -0.0084,-0.003 -0.0018,-5.4e-4 -0.0049,-0.001 -0.0088,-0.002 -0.002,-4.3e-4 -0.0048,-9.7e-4 -0.0081,-0.001 -0.0031,-4.3e-4 -0.0083,-0.001 -0.01466,-0.001 -0.0055,-3e-5 -0.01728,2.6e-4 -0.0315,0.004 -0.0075,0.002 -0.01765,0.006 -0.02848,0.0129 -0.01113,0.007 -0.02333,0.0178 -0.0332,0.033 -0.01006,0.0156 -0.01549,0.0325 -0.01712,0.0489 -0.0016,0.0158 4.63e-4,0.029 0.0031,0.039 0.0026,0.01 0.0061,0.0175 0.0089,0.023 0.0029,0.006 0.0058,0.01 0.0081,0.0132 0.0045,0.006 0.0087,0.0108 0.01127,0.0134 0.0027,0.003 0.0052,0.005 0.0069,0.006 0.0034,0.003 0.0063,0.005 0.0079,0.006 0.0034,0.002 0.0064,0.004 0.0081,0.005 0.0037,0.002 0.0076,0.004 0.01126,0.006 0.136911,0.0787 0.288794,0.12276 0.433382,0.15456 0.160025,0.0344 0.326837,0.0535 0.478305,0.0765 0.155916,0.0236 0.302182,0.052 0.440331,0.10451 0.0043,0.002 0.0068,0.002 0.0085,0.003 -6.99e-4,-3.5e-4 -0.0022,-0.001 -0.0042,-0.002 -0.001,-5.2e-4 -0.0026,-0.001 -0.0046,-0.002 -0.0017,-0.001 -0.0051,-0.003 -0.0091,-0.006 -0.0021,-0.001 -0.005,-0.004 -0.0084,-0.007 -0.0031,-0.003 -0.0082,-0.008 -0.01358,-0.0144 -0.0028,-0.004 -0.0061,-0.008 -0.0094,-0.0141 -0.0033,-0.006 -0.007,-0.0137 -0.0098,-0.0234 -0.0029,-0.01 -0.0049,-0.0223 -0.0042,-0.0364 7.68e-4,-0.0145 0.0044,-0.0291 0.01118,-0.0428 0.0067,-0.0135 0.01532,-0.0241 0.02388,-0.032 0.0084,-0.008 0.01673,-0.0131 0.02348,-0.0166 0.01288,-0.007 0.02425,-0.009 0.03028,-0.0107 0.0067,-0.001 0.01215,-0.002 0.01563,-0.002 0.0037,-1.7e-4 0.0067,-1.3e-4 0.0089,-6e-5 0.0042,1.5e-4 0.0076,5.2e-4 0.0094,7.4e-4 0.002,2.5e-4 0.0036,5e-4 0.0046,6.7e-4 -0.143002,-0.0342 -0.279477,-0.0816 -0.424014,-0.12588 -0.14642,-0.0448 -0.297634,-0.0853 -0.457282,-0.0991 -0.121803,-0.0128 -0.250912,-0.0265 -0.383185,-0.01 -0.02262,0.003 -0.04566,0.006 -0.06595,0.0167 -0.02029,0.0104 -0.03716,0.0281 -0.04459,0.0496 -0.0074,0.0216 -0.005,0.0459 0.0045,0.0666 0.0096,0.0207 0.02561,0.0376 0.04166,0.0538 0.02194,0.0221 0.04623,0.0375 0.07011,0.0482 0.02406,0.0108 0.04767,0.0167 0.06812,0.0204 0.03636,0.007 0.08453,0.008 0.100506,0.009 0.02488,9e-4 0.04575,0.004 0.07021,0.007 0.02647,0.003 0.05498,0.007 0.08535,0.009 0.004,4.5e-4 0.01088,0.001 0.01634,0.002 a 0.11006443,0.11006443 90 0 0 0.02187,-0.21904 c -0.0064,-6.4e-4 -0.01426,-0.001 -0.02401,-0.002 -0.02394,-0.001 -0.04292,-0.004 -0.07107,-0.007 -0.02289,-0.003 -0.05436,-0.007 -0.08666,-0.008 -0.03224,-0.003 -0.05133,-0.002 -0.07377,-0.006 -0.0087,-0.002 -0.01399,-0.003 -0.01707,-0.005 -0.0026,-0.001 -0.0033,-0.002 -0.0035,-0.002 l -0.06434,0.18665 c 0.102937,-0.0131 0.206926,-0.003 0.334429,0.0104 0.137948,0.012 0.27128,0.0468 0.413874,0.0905 0.13415,0.0411 0.285525,0.0932 0.43435,0.12847 -4.75e-4,-7e-5 0.0026,7.5e-4 0.0055,0.001 0.0014,3.6e-4 0.0031,7.4e-4 0.0048,0.001 0.0016,3.5e-4 0.0039,8.5e-4 0.0067,0.001 0.0014,2.4e-4 0.0033,5.4e-4 0.0056,8.3e-4 0.0021,2.6e-4 0.0057,6.5e-4 0.01011,8e-4 0.0023,8e-5 0.0054,1.2e-4 0.0092,-6e-5 0.0036,-1.7e-4 0.0091,-6e-4 0.01583,-0.002 0.0061,-0.001 0.0175,-0.004 0.03041,-0.0107 0.0068,-0.004 0.01511,-0.009 0.02352,-0.0167 0.0086,-0.008 0.01723,-0.0185 0.0239,-0.0321 0.0068,-0.0137 0.01042,-0.0284 0.01119,-0.0429 7.52e-4,-0.0142 -0.0013,-0.0266 -0.0042,-0.0365 -0.0028,-0.01 -0.0066,-0.0176 -0.0099,-0.0235 -0.0033,-0.006 -0.0067,-0.0106 -0.0095,-0.0141 -0.0054,-0.007 -0.01052,-0.0117 -0.0137,-0.0145 -0.0034,-0.003 -0.0064,-0.005 -0.0085,-0.007 -0.0042,-0.003 -0.0077,-0.005 -0.0096,-0.006 -0.0022,-0.001 -0.004,-0.002 -0.0053,-0.003 -0.0026,-0.001 -0.0048,-0.002 -0.0061,-0.003 -0.0061,-0.003 -0.0083,-0.003 -0.01013,-0.004 -0.0037,-0.001 -0.0077,-0.003 -0.01112,-0.004 -0.159381,-0.0606 -0.324386,-0.0917 -0.484294,-0.11592 -0.162563,-0.0246 -0.313748,-0.0415 -0.464535,-0.0739 -0.1358,-0.0299 -0.262211,-0.0681 -0.372158,-0.13127 -0.0039,-0.002 -0.0051,-0.003 -0.0039,-0.002 2.45e-4,1.5e-4 0.0021,0.001 0.0047,0.003 0.0013,9.1e-4 0.0038,0.003 0.007,0.005 0.0016,0.001 0.0039,0.003 0.0066,0.006 0.0025,0.002 0.0066,0.007 0.01107,0.0131 0.0023,0.003 0.0052,0.008 0.0081,0.0131 0.0028,0.005 0.0063,0.0131 0.0089,0.0229 0.0026,0.01 0.0047,0.0232 0.0031,0.039 -0.0016,0.0164 -0.007,0.0333 -0.0171,0.0489 -0.0099,0.0153 -0.02205,0.0259 -0.03316,0.033 -0.01081,0.007 -0.02095,0.0107 -0.02841,0.0129 -0.01417,0.004 -0.02589,0.004 -0.0313,0.004 -0.0063,-4e-5 -0.01132,-6.1e-4 -0.01436,-0.001 -0.0032,-4.5e-4 -0.0059,-9.7e-4 -0.0078,-0.001 -0.0036,-7.7e-4 -0.0064,-0.002 -0.0078,-0.002 -0.0029,-8.6e-4 -0.005,-0.002 -0.0055,-0.002 0.0066,0.003 0.0068,0.003 0.0044,0.002 0.04196,0.0272 0.09485,0.0502 0.150929,0.0618 0.05388,0.0112 0.111979,0.0119 0.168899,-0.003 0.270521,-0.0231 0.539026,0.0175 0.784264,0.0926 0.08199,0.0228 0.158297,0.0564 0.23439,0.0939 0.08051,0.0397 0.160624,0.0836 0.242824,0.12279 0.0099,0.005 0.02037,0.008 0.03118,0.01 -0.0081,-0.001 -0.01414,-0.003 -0.0169,-0.004 -0.0032,-0.001 -0.0054,-0.002 -0.0065,-0.002 -0.0025,-0.001 -0.0023,-0.001 -0.0015,-6.5e-4 0.0018,9.6e-4 0.0068,0.004 0.01389,0.008 0.0033,0.002 0.0084,0.004 0.0142,0.007 0.003,0.001 0.0072,0.003 0.01217,0.004 0.0047,0.001 0.01244,0.004 0.02216,0.005 0.0051,6e-4 0.01173,0.001 0.01949,6.3e-4 0.0078,-4.1e-4 0.01795,-0.002 0.02933,-0.006 0.01172,-0.004 0.02492,-0.0104 0.0374,-0.021 0.0128,-0.0109 0.02252,-0.0242 0.02904,-0.0385 0.0064,-0.014 0.0089,-0.0271 0.0098,-0.0377 8.36e-4,-0.0105 5.5e-5,-0.0195 -9.68e-4,-0.0262 -0.002,-0.0129 -0.0058,-0.023 -0.0081,-0.0285 -0.0015,-0.003 -0.0031,-0.007 -0.0049,-0.0102 -0.01412,-0.0257 -0.03113,-0.0465 -0.0481,-0.0633 -0.01828,-0.0181 -0.03731,-0.0323 -0.05407,-0.0434 -0.01852,-0.0122 -0.03684,-0.0223 -0.05149,-0.03 -0.0152,-0.008 -0.03293,-0.0166 -0.0444,-0.0224 -0.0814,-0.0428 -0.174732,-0.0693 -0.232052,-0.0861 -0.234441,-0.0668 -0.479473,-0.0962 -0.66014,-0.117 -0.308031,-0.0354 -0.450088,-0.0501 -0.635814,-0.0893 a 0.11006443,0.11006443 90 0 0 -0.0455,0.21538 z"
       id="path-1"
       inkscape:path-effect="#path-effect162;#path-effect165"
       inkscape:original-d="m -16.915458,150.81224 c 0.477228,0.10084 0.978984,0.0822 1.440544,0.25426 0.07393,0.0364 0.185991,0.0788 0.214774,0.14906 -0.166592,-0.0742 -0.322295,-0.17634 -0.498443,-0.2302 -0.279232,-0.0896 -0.5764,-0.13314 -0.869075,-0.10642 -0.08464,0.0249 -0.172043,8.8e-4 -0.244618,-0.0452 -0.0883,-0.0438 0.0703,0.0437 0.104042,0.0529 0.395597,0.16206 0.840869,0.12078 1.237804,0.27845 -0.298091,-0.0685 -0.582023,-0.20248 -0.890491,-0.22576 -0.114471,-0.0129 -0.230512,-0.0233 -0.345361,-0.009 0.05235,0.0577 0.172208,0.0365 0.253228,0.0547 0.03003,0.003 0.06008,0.005 0.09015,0.008"
       style="fill:#000000;fill-rule:nonzero;stroke:none;stroke-width:0.732108" />
  </g>
</svg>
