<?xml version="1.0" encoding="UTF-8" standalone="no"?>
<!-- Created with Inkscape (http://www.inkscape.org/) -->

<svg
   width="2mm"
   height="10mm"
   viewBox="0 0 2.0000001 9.9999994"
   version="1.1"
   id="svg1681"
   inkscape:version="1.2.1 (9c6d41e410, 2022-07-14)"
   sodipodi:docname="hyphen_8.svg"
   inkscape:export-filename="..\..\..\..\Downloads\lower a diff canvas resize 3.0.png"
   inkscape:export-xdpi="96"
   inkscape:export-ydpi="96"
   xmlns:inkscape="http://www.inkscape.org/namespaces/inkscape"
   xmlns:sodipodi="http://sodipodi.sourceforge.net/DTD/sodipodi-0.dtd"
   xmlns="http://www.w3.org/2000/svg"
   xmlns:svg="http://www.w3.org/2000/svg"
   xmlns:rdf="http://www.w3.org/1999/02/22-rdf-syntax-ns#"
   xmlns:cc="http://creativecommons.org/ns#"
   xmlns:dc="http://purl.org/dc/elements/1.1/">
  <defs
     id="defs1675">
    <inkscape:path-effect
       effect="powerstroke"
       id="path-effect165"
       is_visible="true"
       lpeversion="1"
       offset_points="3.2596383,0.13116022"
       not_jump="true"
       sort_points="true"
       interpolator_type="CentripetalCatmullRom"
       interpolator_beta="0.75"
       start_linecap_type="round"
       linejoin_type="spiro"
       miter_limit="4"
       scale_width="1"
       end_linecap_type="round" />
    <inkscape:path-effect
       effect="simplify"
       id="path-effect162"
       is_visible="true"
       lpeversion="1"
       steps="1"
       threshold="0.0035951417"
       smooth_angles="0"
       helper_size="0"
       simplify_individual_paths="false"
       simplify_just_coalesce="false"
       step="1" />
    <inkscape:path-effect
       effect="powerstroke"
       id="path-effect414"
       is_visible="true"
       lpeversion="1"
       offset_points="2.8340298,0.14185332 | 8.9034148,0.17269101 | 15.328538,0.12204245 | 16.622934,0.13774163"
       not_jump="true"
       sort_points="true"
       interpolator_type="CentripetalCatmullRom"
       interpolator_beta="0.75"
       start_linecap_type="round"
       linejoin_type="spiro"
       miter_limit="4"
       scale_width="1"
       end_linecap_type="round" />
    <inkscape:path-effect
       effect="simplify"
       id="path-effect412"
       is_visible="true"
       lpeversion="1"
       steps="1"
       threshold="0.0035951417"
       smooth_angles="0"
       helper_size="0"
       simplify_individual_paths="false"
       simplify_just_coalesce="false"
       step="1" />
    <inkscape:path-effect
       effect="powerstroke"
       id="path-effect163"
       is_visible="true"
       lpeversion="1"
       offset_points="2.3868036,0.21301815"
       not_jump="true"
       sort_points="true"
       interpolator_type="CentripetalCatmullRom"
       interpolator_beta="0.75"
       start_linecap_type="round"
       linejoin_type="spiro"
       miter_limit="4"
       scale_width="1"
       end_linecap_type="round" />
    <inkscape:path-effect
       effect="simplify"
       id="path-effect161"
       is_visible="true"
       lpeversion="1"
       steps="1"
       threshold="0.0035951417"
       smooth_angles="0"
       helper_size="0"
       simplify_individual_paths="false"
       simplify_just_coalesce="false"
       step="1" />
    <inkscape:path-effect
       effect="powerstroke"
       id="path-effect228"
       is_visible="true"
       lpeversion="1"
       offset_points="0.31995504,0.11823712"
       not_jump="true"
       sort_points="true"
       interpolator_type="CentripetalCatmullRom"
       interpolator_beta="0.75"
       start_linecap_type="round"
       linejoin_type="spiro"
       miter_limit="4"
       scale_width="1"
       end_linecap_type="round" />
    <inkscape:path-effect
       effect="simplify"
       id="path-effect226"
       is_visible="true"
       lpeversion="1"
       steps="1"
       threshold="0.0035951417"
       smooth_angles="0"
       helper_size="0"
       simplify_individual_paths="false"
       simplify_just_coalesce="false"
       step="1" />
    <inkscape:path-effect
       effect="powerstroke"
       id="path-effect220"
       is_visible="true"
       lpeversion="1"
       offset_points="1,0.12338681"
       not_jump="true"
       sort_points="true"
       interpolator_type="CentripetalCatmullRom"
       interpolator_beta="0.75"
       start_linecap_type="round"
       linejoin_type="spiro"
       miter_limit="4"
       scale_width="1"
       end_linecap_type="round" />
    <inkscape:path-effect
       effect="simplify"
       id="path-effect218"
       is_visible="true"
       lpeversion="1"
       steps="1"
       threshold="0.0035951417"
       smooth_angles="0"
       helper_size="0"
       simplify_individual_paths="false"
       simplify_just_coalesce="false"
       step="1" />
    <inkscape:path-effect
       effect="powerstroke"
       id="path-effect213"
       is_visible="true"
       lpeversion="1"
       offset_points="0.66831593,0.092694602"
       not_jump="true"
       sort_points="true"
       interpolator_type="CentripetalCatmullRom"
       interpolator_beta="0.75"
       start_linecap_type="round"
       linejoin_type="spiro"
       miter_limit="4"
       scale_width="1"
       end_linecap_type="round" />
    <inkscape:path-effect
       effect="simplify"
       id="path-effect211"
       is_visible="true"
       lpeversion="1"
       steps="1"
       threshold="0.0035951417"
       smooth_angles="0"
       helper_size="0"
       simplify_individual_paths="false"
       simplify_just_coalesce="false"
       step="1" />
    <inkscape:path-effect
       effect="powerstroke"
       id="path-effect206"
       is_visible="true"
       lpeversion="1"
       offset_points="0.49761397,0.091664664"
       not_jump="true"
       sort_points="true"
       interpolator_type="CentripetalCatmullRom"
       interpolator_beta="0.75"
       start_linecap_type="round"
       linejoin_type="spiro"
       miter_limit="4"
       scale_width="1"
       end_linecap_type="round" />
    <inkscape:path-effect
       effect="simplify"
       id="path-effect204"
       is_visible="true"
       lpeversion="1"
       steps="1"
       threshold="0.0035951417"
       smooth_angles="0"
       helper_size="0"
       simplify_individual_paths="false"
       simplify_just_coalesce="false"
       step="1" />
    <inkscape:path-effect
       effect="powerstroke"
       id="path-effect1482"
       is_visible="true"
       lpeversion="1"
       offset_points="3.7088798,0.16303938 | 6.5700881,0.14748794 | 7.7997513,0.166551 | 18.340411,0.14548129 | 22.036374,0.17909248"
       not_jump="true"
       sort_points="true"
       interpolator_type="CentripetalCatmullRom"
       interpolator_beta="0.75"
       start_linecap_type="round"
       linejoin_type="spiro"
       miter_limit="4"
       scale_width="1"
       end_linecap_type="round" />
    <inkscape:path-effect
       effect="simplify"
       id="path-effect1480"
       is_visible="true"
       lpeversion="1"
       steps="1"
       threshold="0.0035951417"
       smooth_angles="0"
       helper_size="0"
       simplify_individual_paths="false"
       simplify_just_coalesce="false"
       step="1" />
    <inkscape:path-effect
       effect="powerstroke"
       id="path-effect502"
       is_visible="true"
       lpeversion="1"
       offset_points="3.0091841,0.21607495 | 7.3602657,0.17554228 | 9.4159651,0.20236537"
       not_jump="true"
       sort_points="true"
       interpolator_type="CentripetalCatmullRom"
       interpolator_beta="0.75"
       start_linecap_type="round"
       linejoin_type="spiro"
       miter_limit="4"
       scale_width="1"
       end_linecap_type="round" />
    <inkscape:path-effect
       effect="simplify"
       id="path-effect500"
       is_visible="true"
       lpeversion="1"
       steps="1"
       threshold="0.0035951417"
       smooth_angles="0"
       helper_size="0"
       simplify_individual_paths="false"
       simplify_just_coalesce="false"
       step="1" />
    <inkscape:path-effect
       effect="powerstroke"
       id="path-effect241"
       is_visible="true"
       lpeversion="1"
       offset_points="2.6879454,0.34086734"
       not_jump="true"
       sort_points="true"
       interpolator_type="CentripetalCatmullRom"
       interpolator_beta="0.75"
       start_linecap_type="round"
       linejoin_type="spiro"
       miter_limit="4"
       scale_width="1"
       end_linecap_type="round" />
    <inkscape:path-effect
       effect="simplify"
       id="path-effect239"
       is_visible="true"
       lpeversion="1"
       steps="1"
       threshold="0.0028332064"
       smooth_angles="0"
       helper_size="0"
       simplify_individual_paths="false"
       simplify_just_coalesce="false"
       step="1" />
    <inkscape:path-effect
       effect="powerstroke"
       id="path-effect234"
       is_visible="true"
       lpeversion="1"
       offset_points="2.13563,0.075169555"
       not_jump="true"
       sort_points="true"
       interpolator_type="CentripetalCatmullRom"
       interpolator_beta="0.75"
       start_linecap_type="round"
       linejoin_type="spiro"
       miter_limit="4"
       scale_width="1"
       end_linecap_type="round" />
    <inkscape:path-effect
       effect="simplify"
       id="path-effect232"
       is_visible="true"
       lpeversion="1"
       steps="1"
       threshold="0.0028332064"
       smooth_angles="0"
       helper_size="0"
       simplify_individual_paths="false"
       simplify_just_coalesce="false"
       step="1" />
    <inkscape:path-effect
       effect="powerstroke"
       id="path-effect227"
       is_visible="true"
       lpeversion="1"
       offset_points="2.1868266,0.075169555"
       not_jump="true"
       sort_points="true"
       interpolator_type="CentripetalCatmullRom"
       interpolator_beta="0.75"
       start_linecap_type="round"
       linejoin_type="spiro"
       miter_limit="4"
       scale_width="1"
       end_linecap_type="round" />
    <inkscape:path-effect
       effect="simplify"
       id="path-effect225"
       is_visible="true"
       lpeversion="1"
       steps="1"
       threshold="0.0028332064"
       smooth_angles="0"
       helper_size="0"
       simplify_individual_paths="false"
       simplify_just_coalesce="false"
       step="1" />
    <inkscape:path-effect
       effect="powerstroke"
       id="path-effect166"
       is_visible="true"
       lpeversion="1"
       offset_points="1.9637935,0.075169555"
       not_jump="true"
       sort_points="true"
       interpolator_type="CentripetalCatmullRom"
       interpolator_beta="0.75"
       start_linecap_type="round"
       linejoin_type="spiro"
       miter_limit="4"
       scale_width="1"
       end_linecap_type="round" />
    <inkscape:path-effect
       effect="simplify"
       id="path-effect164"
       is_visible="true"
       lpeversion="1"
       steps="1"
       threshold="0.0028332064"
       smooth_angles="0"
       helper_size="0"
       simplify_individual_paths="false"
       simplify_just_coalesce="false"
       step="1" />
    <inkscape:path-effect
       effect="powerstroke"
       id="path-effect159"
       is_visible="true"
       lpeversion="1"
       offset_points="2.2611036,0.075169555"
       not_jump="true"
       sort_points="true"
       interpolator_type="CentripetalCatmullRom"
       interpolator_beta="0.75"
       start_linecap_type="round"
       linejoin_type="spiro"
       miter_limit="4"
       scale_width="1"
       end_linecap_type="round" />
    <inkscape:path-effect
       effect="simplify"
       id="path-effect157"
       is_visible="true"
       lpeversion="1"
       steps="1"
       threshold="0.0028332064"
       smooth_angles="0"
       helper_size="0"
       simplify_individual_paths="false"
       simplify_just_coalesce="false"
       step="1" />
    <inkscape:path-effect
       effect="powerstroke"
       id="path-effect152"
       is_visible="true"
       lpeversion="1"
       offset_points="2.826981,0.075169555"
       not_jump="true"
       sort_points="true"
       interpolator_type="CentripetalCatmullRom"
       interpolator_beta="0.75"
       start_linecap_type="round"
       linejoin_type="spiro"
       miter_limit="4"
       scale_width="1"
       end_linecap_type="round" />
    <inkscape:path-effect
       effect="simplify"
       id="path-effect150"
       is_visible="true"
       lpeversion="1"
       steps="1"
       threshold="0.0028332064"
       smooth_angles="0"
       helper_size="0"
       simplify_individual_paths="false"
       simplify_just_coalesce="false"
       step="1" />
    <inkscape:path-effect
       effect="powerstroke"
       id="path-effect145"
       is_visible="true"
       lpeversion="1"
       offset_points="3.8374447,0.075169555"
       not_jump="true"
       sort_points="true"
       interpolator_type="CentripetalCatmullRom"
       interpolator_beta="0.75"
       start_linecap_type="round"
       linejoin_type="spiro"
       miter_limit="4"
       scale_width="1"
       end_linecap_type="round" />
    <inkscape:path-effect
       effect="simplify"
       id="path-effect143"
       is_visible="true"
       lpeversion="1"
       steps="1"
       threshold="0.0028332064"
       smooth_angles="0"
       helper_size="0"
       simplify_individual_paths="false"
       simplify_just_coalesce="false"
       step="1" />
    <inkscape:path-effect
       effect="powerstroke"
       id="path-effect138"
       is_visible="true"
       lpeversion="1"
       offset_points="2.6880907,0.075169555"
       not_jump="true"
       sort_points="true"
       interpolator_type="CentripetalCatmullRom"
       interpolator_beta="0.75"
       start_linecap_type="round"
       linejoin_type="spiro"
       miter_limit="4"
       scale_width="1"
       end_linecap_type="round" />
    <inkscape:path-effect
       effect="simplify"
       id="path-effect136"
       is_visible="true"
       lpeversion="1"
       steps="1"
       threshold="0.0028332064"
       smooth_angles="0"
       helper_size="0"
       simplify_individual_paths="false"
       simplify_just_coalesce="false"
       step="1" />
    <inkscape:path-effect
       effect="powerstroke"
       id="path-effect131"
       is_visible="true"
       lpeversion="1"
       offset_points="1.9940581,0.075169555"
       not_jump="true"
       sort_points="true"
       interpolator_type="CentripetalCatmullRom"
       interpolator_beta="0.75"
       start_linecap_type="round"
       linejoin_type="spiro"
       miter_limit="4"
       scale_width="1"
       end_linecap_type="round" />
    <inkscape:path-effect
       effect="simplify"
       id="path-effect129"
       is_visible="true"
       lpeversion="1"
       steps="1"
       threshold="0.0028332064"
       smooth_angles="0"
       helper_size="0"
       simplify_individual_paths="false"
       simplify_just_coalesce="false"
       step="1" />
  </defs>
  <sodipodi:namedview
     id="base"
     pagecolor="#ffffff"
     bordercolor="#666666"
     borderopacity="1.0"
     inkscape:pageopacity="0.0"
     inkscape:pageshadow="2"
     inkscape:zoom="7.919596"
     inkscape:cx="-5.1770318"
     inkscape:cy="20.834396"
     inkscape:document-units="mm"
     inkscape:current-layer="layer1"
     showgrid="false"
     fit-margin-top="0"
     fit-margin-left="0"
     fit-margin-right="0"
     fit-margin-bottom="0"
     inkscape:window-width="1920"
     inkscape:window-height="974"
     inkscape:window-x="-11"
     inkscape:window-y="2869"
     inkscape:window-maximized="1"
     showguides="true"
     inkscape:guide-bbox="true"
     inkscape:snap-bbox="true"
     inkscape:bbox-nodes="true"
     inkscape:snap-nodes="false"
     inkscape:snap-others="false"
     inkscape:snap-page="true"
     inkscape:snap-grids="false"
     inkscape:snap-to-guides="false"
     inkscape:snap-global="false"
     inkscape:pagecheckerboard="0"
     inkscape:showpageshadow="2"
     inkscape:deskcolor="#d1d1d1">
    <sodipodi:guide
       position="-6.1806076,9.4988693"
       orientation="0,1"
       id="guide816"
       inkscape:locked="false" />
    <sodipodi:guide
       position="-4.4101637,10.646923"
       orientation="0,1"
       id="guide818"
       inkscape:locked="false" />
    <sodipodi:guide
       position="2.7595724,11.09577"
       orientation="1,0"
       id="guide820"
       inkscape:locked="false" />
    <sodipodi:guide
       position="3.6572659,10.942217"
       orientation="1,0"
       id="guide822"
       inkscape:locked="false" />
    <sodipodi:guide
       position="-0.051625512,9.74923"
       orientation="1,0"
       id="guide1853"
       inkscape:locked="false" />
    <sodipodi:guide
       position="-2.3720169,3.0175835"
       orientation="0,1"
       id="guide1855"
       inkscape:locked="false" />
  </sodipodi:namedview>
  <metadata
     id="metadata1678">
    <rdf:RDF>
      <cc:Work
         rdf:about="">
        <dc:format>image/svg+xml</dc:format>
        <dc:type
           rdf:resource="http://purl.org/dc/dcmitype/StillImage" />
      </cc:Work>
    </rdf:RDF>
  </metadata>
  <g
     inkscape:label="Layer 1"
     inkscape:groupmode="layer"
     id="layer1"
     transform="translate(17.028496,-147.22856)">
    <path
       d="m -16.905201,151.05986 c 0.327792,-0.008 0.612759,0.031 1.205874,0.13898 0.08359,0.0186 0.180549,0.0401 0.271744,0.0674 0.08489,0.0254 0.1682,0.0568 0.245541,0.10005 l -0.04054,-0.0353 c -0.0068,-0.009 -0.01093,-0.0194 -0.01235,-0.0301 -0.0013,-0.0102 -4.05e-4,-0.0221 0.0046,-0.0346 0.0025,-0.006 0.0063,-0.0129 0.01147,-0.0194 0.0052,-0.006 0.01181,-0.0126 0.01973,-0.0177 0.0079,-0.005 0.01647,-0.009 0.025,-0.0107 0.0085,-0.002 0.01595,-0.002 0.02185,-0.002 l -0.01841,-9e-5 c -0.01502,9.9e-4 -0.0316,4.4e-4 -0.051,-0.002 -0.01772,-0.002 -0.03606,-0.005 -0.05938,-0.008 -0.03571,-0.006 -0.09435,-0.0163 -0.153675,-0.0164 -0.181137,-0.0199 -0.374456,-0.0508 -0.580119,-0.0745 -0.192106,-0.0222 -0.401522,-0.0382 -0.615982,-0.0229 -0.01657,10e-6 -0.05263,0.002 -0.08962,0.0145 -0.01854,0.006 -0.03989,0.0153 -0.06076,0.0299 -0.02097,0.0147 -0.04158,0.0349 -0.05738,0.0619 -0.0094,0.0161 -0.01871,0.0325 -0.0238,0.0505 -0.0051,0.018 -0.0058,0.0373 -6.09e-4,0.0552 0.0052,0.0179 0.01599,0.034 0.02983,0.0465 0.01384,0.0125 0.03043,0.0215 0.04696,0.0302 0.02403,0.0126 0.04778,0.019 0.06881,0.0221 0.0204,0.003 0.039,0.003 0.05353,0.002 0.01388,-5.4e-4 0.02779,-0.002 0.03611,-0.003 0.0099,-8.7e-4 0.01477,-0.001 0.01813,-0.001 0.0043,-2e-5 0.0085,-2.5e-4 0.01273,-6.8e-4 0.09418,-0.01 0.170705,-0.0207 0.25208,-0.0232 0.302694,-0.014 0.605178,0.0182 0.898776,0.0612 0.0021,3.1e-4 0.0043,5.6e-4 0.0064,8.7e-4 0.0021,3e-4 0.0042,7.6e-4 0.0063,0.001 7.61e-4,2e-4 8.55e-4,3.1e-4 -0.0013,-4.7e-4 -9.51e-4,-3.4e-4 -0.0029,-0.001 -0.0055,-0.002 -0.0024,-0.001 -0.007,-0.003 -0.01265,-0.007 -0.0049,-0.003 -0.01571,-0.0103 -0.02672,-0.0229 -0.0058,-0.007 -0.01311,-0.0163 -0.01928,-0.0293 -0.0064,-0.0133 -0.01169,-0.0304 -0.01248,-0.0505 -8.06e-4,-0.0206 0.0033,-0.0402 0.01094,-0.0574 0.0074,-0.0167 0.01709,-0.0291 0.02547,-0.0377 0.0083,-0.009 0.01641,-0.0144 0.02241,-0.0183 0.0061,-0.004 0.01154,-0.007 0.01551,-0.008 0.0077,-0.003 0.01374,-0.005 0.01631,-0.006 0.003,-7.7e-4 0.0048,-0.001 0.005,-0.001 0.0041,-6.8e-4 0.0083,-0.001 0.01249,-0.001 -0.07856,0.005 -0.148698,0.001 -0.209923,-0.01 -0.0039,-6.9e-4 -0.0078,-0.001 -0.01166,-0.002 -0.153497,-0.0132 -0.291035,-0.0367 -0.39192,-0.0458 a 0.13116022,0.13116022 90 0 0 -0.02352,0.26126 c 0.08927,0.008 0.217635,0.0306 0.387232,0.0454 0.08193,0.014 0.171591,0.0187 0.267942,0.012 0.0042,-2.9e-4 0.0084,-7.9e-4 0.01249,-0.001 0.0052,-8.8e-4 0.01133,-0.002 0.01785,-0.004 0.0061,-0.002 0.01499,-0.004 0.02491,-0.009 0.0051,-0.002 0.01144,-0.005 0.01836,-0.01 0.0068,-0.004 0.01552,-0.0107 0.02436,-0.0198 0.0089,-0.009 0.01895,-0.022 0.02657,-0.0393 0.0079,-0.0178 0.01209,-0.0379 0.01126,-0.059 -8.09e-4,-0.0207 -0.0063,-0.0383 -0.0129,-0.0522 -0.0064,-0.0135 -0.01409,-0.0237 -0.0204,-0.0309 -0.01196,-0.0136 -0.02414,-0.0219 -0.03079,-0.0261 -0.0074,-0.005 -0.01406,-0.008 -0.01884,-0.0101 -0.005,-0.002 -0.0096,-0.004 -0.01338,-0.005 -0.0075,-0.003 -0.01462,-0.005 -0.02049,-0.006 -0.006,-0.002 -0.01187,-0.003 -0.01727,-0.004 -0.0053,-0.001 -0.01074,-0.002 -0.01589,-0.003 -0.0026,-4.1e-4 -0.0053,-8.2e-4 -0.0081,-0.001 -0.0027,-3.4e-4 -0.0061,-7.2e-4 -0.0098,-0.001 -0.289927,-0.0427 -0.612053,-0.0779 -0.937957,-0.0628 -0.08969,0.003 -0.183334,0.0155 -0.26325,0.0238 -0.01276,3.5e-4 -0.02447,0.001 -0.03268,0.002 -0.01151,0.001 -0.0175,0.002 -0.02336,0.002 -0.0049,1.9e-4 -0.0066,-1.6e-4 -0.0047,1.2e-4 0.002,3e-4 0.0075,0.001 0.01442,0.005 0.01653,0.009 0.03312,0.0176 0.04696,0.0302 0.01384,0.0125 0.02468,0.0286 0.02983,0.0465 0.0052,0.0179 0.0045,0.0373 -6.09e-4,0.0552 -0.0051,0.018 -0.01439,0.0344 -0.0238,0.0505 -0.0059,0.0101 -0.01316,0.0168 -0.01867,0.0206 -0.0054,0.004 -0.0083,0.005 -0.0085,0.005 -3.6e-4,1.2e-4 0.0095,-0.002 0.01953,-0.002 0.198086,-0.0139 0.388823,6e-5 0.574817,0.0215 0.2004,0.0231 0.397464,0.0547 0.589351,0.0756 0.0054,5.8e-4 0.0109,8.3e-4 0.01637,7.4e-4 0.03392,-5.7e-4 0.07044,0.006 0.116586,0.013 0.02381,0.004 0.04861,0.008 0.07449,0.0103 0.02679,0.003 0.05613,0.004 0.08717,0.003 0.0159,3.2e-4 0.03204,-0.001 0.04808,-0.005 0.01981,-0.005 0.03847,-0.0127 0.05536,-0.0236 0.0169,-0.0108 0.03125,-0.024 0.04298,-0.0386 0.01175,-0.0146 0.02073,-0.0304 0.02724,-0.0464 0.01307,-0.0322 0.01666,-0.0663 0.0124,-0.0986 -0.0044,-0.0332 -0.01728,-0.0658 -0.03866,-0.094 -0.0055,-0.007 -0.01116,-0.0143 -0.01798,-0.0203 -0.0068,-0.006 -0.01466,-0.0106 -0.02255,-0.015 -0.09964,-0.0557 -0.2024,-0.0937 -0.298254,-0.12237 -0.101989,-0.0305 -0.208574,-0.054 -0.295116,-0.0732 -0.600716,-0.10944 -0.907907,-0.15277 -1.264119,-0.14413 a 0.13116022,0.13116022 90 0 0 0.0064,0.26224 z"
       id="path-1"
       inkscape:path-effect="#path-effect162;#path-effect165"
       inkscape:original-d="m -16.90838,150.92874 c 0.411749,-0.0103 0.819861,0.0664 1.22347,0.13905 0.193417,0.0428 0.393494,0.0868 0.566854,0.18398 0.08263,0.1708 -0.219499,0.0615 -0.313703,0.0709 -0.410991,-0.0439 -0.823799,-0.13443 -1.238295,-0.0948 -0.172939,0.0748 0.107519,0.0397 0.163413,0.0315 0.354002,-0.0369 0.71093,-0.002 1.061877,0.0477 0.205051,0.0325 -0.112182,0.0322 -0.184879,0.0126 -0.133334,-0.0111 -0.265395,-0.0344 -0.398677,-0.0464"
       style="fill:#000000;fill-rule:nonzero;stroke:none;stroke-width:0.928656" />
  </g>
</svg>
