<?xml version="1.0" encoding="UTF-8" standalone="no"?>
<!-- Created with Inkscape (http://www.inkscape.org/) -->

<svg
   width="2mm"
   height="10mm"
   viewBox="0 0 2.0000001 9.9999994"
   version="1.1"
   id="svg1681"
   inkscape:version="1.2.1 (9c6d41e410, 2022-07-14)"
   sodipodi:docname="hyphen_13.svg"
   inkscape:export-filename="..\..\..\..\Downloads\lower a diff canvas resize 3.0.png"
   inkscape:export-xdpi="96"
   inkscape:export-ydpi="96"
   xmlns:inkscape="http://www.inkscape.org/namespaces/inkscape"
   xmlns:sodipodi="http://sodipodi.sourceforge.net/DTD/sodipodi-0.dtd"
   xmlns="http://www.w3.org/2000/svg"
   xmlns:svg="http://www.w3.org/2000/svg"
   xmlns:rdf="http://www.w3.org/1999/02/22-rdf-syntax-ns#"
   xmlns:cc="http://creativecommons.org/ns#"
   xmlns:dc="http://purl.org/dc/elements/1.1/">
  <defs
     id="defs1675">
    <inkscape:path-effect
       effect="powerstroke"
       id="path-effect165"
       is_visible="true"
       lpeversion="1"
       offset_points="2.3536871,0.15387104"
       not_jump="true"
       sort_points="true"
       interpolator_type="CentripetalCatmullRom"
       interpolator_beta="0.75"
       start_linecap_type="round"
       linejoin_type="spiro"
       miter_limit="4"
       scale_width="1"
       end_linecap_type="round" />
    <inkscape:path-effect
       effect="simplify"
       id="path-effect162"
       is_visible="true"
       lpeversion="1"
       steps="1"
       threshold="0.0035951417"
       smooth_angles="0"
       helper_size="0"
       simplify_individual_paths="false"
       simplify_just_coalesce="false"
       step="1" />
    <inkscape:path-effect
       effect="powerstroke"
       id="path-effect414"
       is_visible="true"
       lpeversion="1"
       offset_points="2.8340298,0.14185332 | 8.9034148,0.17269101 | 15.328538,0.12204245 | 16.622934,0.13774163"
       not_jump="true"
       sort_points="true"
       interpolator_type="CentripetalCatmullRom"
       interpolator_beta="0.75"
       start_linecap_type="round"
       linejoin_type="spiro"
       miter_limit="4"
       scale_width="1"
       end_linecap_type="round" />
    <inkscape:path-effect
       effect="simplify"
       id="path-effect412"
       is_visible="true"
       lpeversion="1"
       steps="1"
       threshold="0.0035951417"
       smooth_angles="0"
       helper_size="0"
       simplify_individual_paths="false"
       simplify_just_coalesce="false"
       step="1" />
    <inkscape:path-effect
       effect="powerstroke"
       id="path-effect163"
       is_visible="true"
       lpeversion="1"
       offset_points="2.3868036,0.21301815"
       not_jump="true"
       sort_points="true"
       interpolator_type="CentripetalCatmullRom"
       interpolator_beta="0.75"
       start_linecap_type="round"
       linejoin_type="spiro"
       miter_limit="4"
       scale_width="1"
       end_linecap_type="round" />
    <inkscape:path-effect
       effect="simplify"
       id="path-effect161"
       is_visible="true"
       lpeversion="1"
       steps="1"
       threshold="0.0035951417"
       smooth_angles="0"
       helper_size="0"
       simplify_individual_paths="false"
       simplify_just_coalesce="false"
       step="1" />
    <inkscape:path-effect
       effect="powerstroke"
       id="path-effect228"
       is_visible="true"
       lpeversion="1"
       offset_points="0.31995504,0.11823712"
       not_jump="true"
       sort_points="true"
       interpolator_type="CentripetalCatmullRom"
       interpolator_beta="0.75"
       start_linecap_type="round"
       linejoin_type="spiro"
       miter_limit="4"
       scale_width="1"
       end_linecap_type="round" />
    <inkscape:path-effect
       effect="simplify"
       id="path-effect226"
       is_visible="true"
       lpeversion="1"
       steps="1"
       threshold="0.0035951417"
       smooth_angles="0"
       helper_size="0"
       simplify_individual_paths="false"
       simplify_just_coalesce="false"
       step="1" />
    <inkscape:path-effect
       effect="powerstroke"
       id="path-effect220"
       is_visible="true"
       lpeversion="1"
       offset_points="1,0.12338681"
       not_jump="true"
       sort_points="true"
       interpolator_type="CentripetalCatmullRom"
       interpolator_beta="0.75"
       start_linecap_type="round"
       linejoin_type="spiro"
       miter_limit="4"
       scale_width="1"
       end_linecap_type="round" />
    <inkscape:path-effect
       effect="simplify"
       id="path-effect218"
       is_visible="true"
       lpeversion="1"
       steps="1"
       threshold="0.0035951417"
       smooth_angles="0"
       helper_size="0"
       simplify_individual_paths="false"
       simplify_just_coalesce="false"
       step="1" />
    <inkscape:path-effect
       effect="powerstroke"
       id="path-effect213"
       is_visible="true"
       lpeversion="1"
       offset_points="0.66831593,0.092694602"
       not_jump="true"
       sort_points="true"
       interpolator_type="CentripetalCatmullRom"
       interpolator_beta="0.75"
       start_linecap_type="round"
       linejoin_type="spiro"
       miter_limit="4"
       scale_width="1"
       end_linecap_type="round" />
    <inkscape:path-effect
       effect="simplify"
       id="path-effect211"
       is_visible="true"
       lpeversion="1"
       steps="1"
       threshold="0.0035951417"
       smooth_angles="0"
       helper_size="0"
       simplify_individual_paths="false"
       simplify_just_coalesce="false"
       step="1" />
    <inkscape:path-effect
       effect="powerstroke"
       id="path-effect206"
       is_visible="true"
       lpeversion="1"
       offset_points="0.49761397,0.091664664"
       not_jump="true"
       sort_points="true"
       interpolator_type="CentripetalCatmullRom"
       interpolator_beta="0.75"
       start_linecap_type="round"
       linejoin_type="spiro"
       miter_limit="4"
       scale_width="1"
       end_linecap_type="round" />
    <inkscape:path-effect
       effect="simplify"
       id="path-effect204"
       is_visible="true"
       lpeversion="1"
       steps="1"
       threshold="0.0035951417"
       smooth_angles="0"
       helper_size="0"
       simplify_individual_paths="false"
       simplify_just_coalesce="false"
       step="1" />
    <inkscape:path-effect
       effect="powerstroke"
       id="path-effect1482"
       is_visible="true"
       lpeversion="1"
       offset_points="3.7088798,0.16303938 | 6.5700881,0.14748794 | 7.7997513,0.166551 | 18.340411,0.14548129 | 22.036374,0.17909248"
       not_jump="true"
       sort_points="true"
       interpolator_type="CentripetalCatmullRom"
       interpolator_beta="0.75"
       start_linecap_type="round"
       linejoin_type="spiro"
       miter_limit="4"
       scale_width="1"
       end_linecap_type="round" />
    <inkscape:path-effect
       effect="simplify"
       id="path-effect1480"
       is_visible="true"
       lpeversion="1"
       steps="1"
       threshold="0.0035951417"
       smooth_angles="0"
       helper_size="0"
       simplify_individual_paths="false"
       simplify_just_coalesce="false"
       step="1" />
    <inkscape:path-effect
       effect="powerstroke"
       id="path-effect502"
       is_visible="true"
       lpeversion="1"
       offset_points="3.0091841,0.21607495 | 7.3602657,0.17554228 | 9.4159651,0.20236537"
       not_jump="true"
       sort_points="true"
       interpolator_type="CentripetalCatmullRom"
       interpolator_beta="0.75"
       start_linecap_type="round"
       linejoin_type="spiro"
       miter_limit="4"
       scale_width="1"
       end_linecap_type="round" />
    <inkscape:path-effect
       effect="simplify"
       id="path-effect500"
       is_visible="true"
       lpeversion="1"
       steps="1"
       threshold="0.0035951417"
       smooth_angles="0"
       helper_size="0"
       simplify_individual_paths="false"
       simplify_just_coalesce="false"
       step="1" />
    <inkscape:path-effect
       effect="powerstroke"
       id="path-effect241"
       is_visible="true"
       lpeversion="1"
       offset_points="2.6879454,0.34086734"
       not_jump="true"
       sort_points="true"
       interpolator_type="CentripetalCatmullRom"
       interpolator_beta="0.75"
       start_linecap_type="round"
       linejoin_type="spiro"
       miter_limit="4"
       scale_width="1"
       end_linecap_type="round" />
    <inkscape:path-effect
       effect="simplify"
       id="path-effect239"
       is_visible="true"
       lpeversion="1"
       steps="1"
       threshold="0.0028332064"
       smooth_angles="0"
       helper_size="0"
       simplify_individual_paths="false"
       simplify_just_coalesce="false"
       step="1" />
    <inkscape:path-effect
       effect="powerstroke"
       id="path-effect234"
       is_visible="true"
       lpeversion="1"
       offset_points="2.13563,0.075169555"
       not_jump="true"
       sort_points="true"
       interpolator_type="CentripetalCatmullRom"
       interpolator_beta="0.75"
       start_linecap_type="round"
       linejoin_type="spiro"
       miter_limit="4"
       scale_width="1"
       end_linecap_type="round" />
    <inkscape:path-effect
       effect="simplify"
       id="path-effect232"
       is_visible="true"
       lpeversion="1"
       steps="1"
       threshold="0.0028332064"
       smooth_angles="0"
       helper_size="0"
       simplify_individual_paths="false"
       simplify_just_coalesce="false"
       step="1" />
    <inkscape:path-effect
       effect="powerstroke"
       id="path-effect227"
       is_visible="true"
       lpeversion="1"
       offset_points="2.1868266,0.075169555"
       not_jump="true"
       sort_points="true"
       interpolator_type="CentripetalCatmullRom"
       interpolator_beta="0.75"
       start_linecap_type="round"
       linejoin_type="spiro"
       miter_limit="4"
       scale_width="1"
       end_linecap_type="round" />
    <inkscape:path-effect
       effect="simplify"
       id="path-effect225"
       is_visible="true"
       lpeversion="1"
       steps="1"
       threshold="0.0028332064"
       smooth_angles="0"
       helper_size="0"
       simplify_individual_paths="false"
       simplify_just_coalesce="false"
       step="1" />
    <inkscape:path-effect
       effect="powerstroke"
       id="path-effect166"
       is_visible="true"
       lpeversion="1"
       offset_points="1.9637935,0.075169555"
       not_jump="true"
       sort_points="true"
       interpolator_type="CentripetalCatmullRom"
       interpolator_beta="0.75"
       start_linecap_type="round"
       linejoin_type="spiro"
       miter_limit="4"
       scale_width="1"
       end_linecap_type="round" />
    <inkscape:path-effect
       effect="simplify"
       id="path-effect164"
       is_visible="true"
       lpeversion="1"
       steps="1"
       threshold="0.0028332064"
       smooth_angles="0"
       helper_size="0"
       simplify_individual_paths="false"
       simplify_just_coalesce="false"
       step="1" />
    <inkscape:path-effect
       effect="powerstroke"
       id="path-effect159"
       is_visible="true"
       lpeversion="1"
       offset_points="2.2611036,0.075169555"
       not_jump="true"
       sort_points="true"
       interpolator_type="CentripetalCatmullRom"
       interpolator_beta="0.75"
       start_linecap_type="round"
       linejoin_type="spiro"
       miter_limit="4"
       scale_width="1"
       end_linecap_type="round" />
    <inkscape:path-effect
       effect="simplify"
       id="path-effect157"
       is_visible="true"
       lpeversion="1"
       steps="1"
       threshold="0.0028332064"
       smooth_angles="0"
       helper_size="0"
       simplify_individual_paths="false"
       simplify_just_coalesce="false"
       step="1" />
    <inkscape:path-effect
       effect="powerstroke"
       id="path-effect152"
       is_visible="true"
       lpeversion="1"
       offset_points="2.826981,0.075169555"
       not_jump="true"
       sort_points="true"
       interpolator_type="CentripetalCatmullRom"
       interpolator_beta="0.75"
       start_linecap_type="round"
       linejoin_type="spiro"
       miter_limit="4"
       scale_width="1"
       end_linecap_type="round" />
    <inkscape:path-effect
       effect="simplify"
       id="path-effect150"
       is_visible="true"
       lpeversion="1"
       steps="1"
       threshold="0.0028332064"
       smooth_angles="0"
       helper_size="0"
       simplify_individual_paths="false"
       simplify_just_coalesce="false"
       step="1" />
    <inkscape:path-effect
       effect="powerstroke"
       id="path-effect145"
       is_visible="true"
       lpeversion="1"
       offset_points="3.8374447,0.075169555"
       not_jump="true"
       sort_points="true"
       interpolator_type="CentripetalCatmullRom"
       interpolator_beta="0.75"
       start_linecap_type="round"
       linejoin_type="spiro"
       miter_limit="4"
       scale_width="1"
       end_linecap_type="round" />
    <inkscape:path-effect
       effect="simplify"
       id="path-effect143"
       is_visible="true"
       lpeversion="1"
       steps="1"
       threshold="0.0028332064"
       smooth_angles="0"
       helper_size="0"
       simplify_individual_paths="false"
       simplify_just_coalesce="false"
       step="1" />
    <inkscape:path-effect
       effect="powerstroke"
       id="path-effect138"
       is_visible="true"
       lpeversion="1"
       offset_points="2.6880907,0.075169555"
       not_jump="true"
       sort_points="true"
       interpolator_type="CentripetalCatmullRom"
       interpolator_beta="0.75"
       start_linecap_type="round"
       linejoin_type="spiro"
       miter_limit="4"
       scale_width="1"
       end_linecap_type="round" />
    <inkscape:path-effect
       effect="simplify"
       id="path-effect136"
       is_visible="true"
       lpeversion="1"
       steps="1"
       threshold="0.0028332064"
       smooth_angles="0"
       helper_size="0"
       simplify_individual_paths="false"
       simplify_just_coalesce="false"
       step="1" />
    <inkscape:path-effect
       effect="powerstroke"
       id="path-effect131"
       is_visible="true"
       lpeversion="1"
       offset_points="1.9940581,0.075169555"
       not_jump="true"
       sort_points="true"
       interpolator_type="CentripetalCatmullRom"
       interpolator_beta="0.75"
       start_linecap_type="round"
       linejoin_type="spiro"
       miter_limit="4"
       scale_width="1"
       end_linecap_type="round" />
    <inkscape:path-effect
       effect="simplify"
       id="path-effect129"
       is_visible="true"
       lpeversion="1"
       steps="1"
       threshold="0.0028332064"
       smooth_angles="0"
       helper_size="0"
       simplify_individual_paths="false"
       simplify_just_coalesce="false"
       step="1" />
  </defs>
  <sodipodi:namedview
     id="base"
     pagecolor="#ffffff"
     bordercolor="#666666"
     borderopacity="1.0"
     inkscape:pageopacity="0.0"
     inkscape:pageshadow="2"
     inkscape:zoom="7.919596"
     inkscape:cx="-5.1770318"
     inkscape:cy="20.834396"
     inkscape:document-units="mm"
     inkscape:current-layer="layer1"
     showgrid="false"
     fit-margin-top="0"
     fit-margin-left="0"
     fit-margin-right="0"
     fit-margin-bottom="0"
     inkscape:window-width="1920"
     inkscape:window-height="974"
     inkscape:window-x="-11"
     inkscape:window-y="2889"
     inkscape:window-maximized="1"
     showguides="true"
     inkscape:guide-bbox="true"
     inkscape:snap-bbox="true"
     inkscape:bbox-nodes="true"
     inkscape:snap-nodes="false"
     inkscape:snap-others="false"
     inkscape:snap-page="true"
     inkscape:snap-grids="false"
     inkscape:snap-to-guides="false"
     inkscape:snap-global="false"
     inkscape:pagecheckerboard="0"
     inkscape:showpageshadow="2"
     inkscape:deskcolor="#d1d1d1">
    <sodipodi:guide
       position="-6.1806076,9.4988693"
       orientation="0,1"
       id="guide816"
       inkscape:locked="false" />
    <sodipodi:guide
       position="-4.4101637,10.646923"
       orientation="0,1"
       id="guide818"
       inkscape:locked="false" />
    <sodipodi:guide
       position="2.7595724,11.09577"
       orientation="1,0"
       id="guide820"
       inkscape:locked="false" />
    <sodipodi:guide
       position="3.6572659,10.942217"
       orientation="1,0"
       id="guide822"
       inkscape:locked="false" />
    <sodipodi:guide
       position="-0.051625512,9.74923"
       orientation="1,0"
       id="guide1853"
       inkscape:locked="false" />
    <sodipodi:guide
       position="-2.3720169,3.0175835"
       orientation="0,1"
       id="guide1855"
       inkscape:locked="false" />
  </sodipodi:namedview>
  <metadata
     id="metadata1678">
    <rdf:RDF>
      <cc:Work
         rdf:about="">
        <dc:format>image/svg+xml</dc:format>
        <dc:type
           rdf:resource="http://purl.org/dc/dcmitype/StillImage" />
      </cc:Work>
    </rdf:RDF>
  </metadata>
  <g
     inkscape:label="Layer 1"
     inkscape:groupmode="layer"
     id="layer1"
     transform="translate(17.028496,-147.22856)">
    <path
       d="m -17.02242,151.06509 c 0.126918,-0.0191 0.290772,-0.0311 0.516348,-0.0186 0.164496,0.009 0.328851,0.0289 0.534032,0.0568 0.229498,0.0311 0.544923,0.0787 0.84181,0.0834 0.03013,4.8e-4 0.06087,3.7e-4 0.08951,-0.009 0.02864,-0.009 0.05447,-0.0284 0.06953,-0.0546 0.01506,-0.0261 0.01862,-0.058 0.01239,-0.0875 -0.0062,-0.0295 -0.02153,-0.0561 -0.03704,-0.082 -0.01116,-0.0186 -0.02449,-0.0345 -0.03903,-0.0479 -0.01424,-0.0131 -0.02901,-0.0234 -0.043,-0.0313 -0.01147,-0.007 -0.02263,-0.0117 -0.03288,-0.0158 -0.01389,-0.006 -0.02724,-0.01 -0.03916,-0.0129 -0.01748,-0.005 -0.03624,-0.009 -0.04644,-0.0108 -0.01047,-0.002 -0.01695,-0.004 -0.01478,-0.004 l -0.01482,-0.005 c -0.336866,-0.0917 -0.707406,-0.13245 -1.117443,-0.12402 -0.226405,0.004 -0.449353,0.025 -0.688018,0.0504 -0.01188,7.4e-4 -0.02385,0.002 -0.03551,0.005 -0.0069,0.002 -0.01579,0.004 -0.02556,0.008 -0.0049,0.002 -0.01138,0.005 -0.01861,0.009 -0.0066,0.004 -0.01767,0.01 -0.02955,0.0204 -0.0061,0.005 -0.01399,0.0131 -0.02182,0.0234 -0.0078,0.0103 -0.01703,0.0252 -0.0235,0.0447 -0.0067,0.0203 -0.01009,0.0447 -0.0062,0.0712 0.0039,0.0265 0.01423,0.0489 0.02661,0.0665 0.01193,0.0169 0.02518,0.0285 0.03566,0.0361 0.01053,0.008 0.02031,0.0127 0.02772,0.0161 0.0143,0.006 0.02671,0.009 0.03388,0.0109 0.0078,0.002 0.01465,0.002 0.01968,0.003 0.0052,4.4e-4 0.0099,6.2e-4 0.0139,6.8e-4 0.0048,7e-5 0.0094,-3e-5 0.01369,-2.2e-4 0.13092,0.002 0.260083,-0.005 0.385345,-0.0132 0.126539,-0.008 0.24508,-0.018 0.365204,-0.0224 0.107975,0.007 0.216439,0.0248 0.328249,0.0457 0.115856,0.0216 0.235097,0.0468 0.355865,0.0661 0.0036,5.8e-4 0.0073,0.001 0.01097,0.001 0.01572,0.001 0.02923,0.004 0.04018,0.008 0.01139,0.004 0.0185,0.008 0.02265,0.0107 l -0.04012,-0.0436 c -0.0031,-0.005 -0.007,-0.0123 -0.0104,-0.0218 -0.0035,-0.01 -0.0067,-0.0222 -0.0076,-0.0371 -9.36e-4,-0.0153 6.23e-4,-0.0317 0.0055,-0.0482 0.0049,-0.0166 0.01244,-0.0309 0.02096,-0.0426 0.01656,-0.0228 0.03545,-0.0343 0.04469,-0.0392 0.01,-0.005 0.01756,-0.007 0.01972,-0.008 0.0039,-0.001 0.004,-6.8e-4 -0.0043,2.2e-4 -0.0034,3.6e-4 -0.0075,7.5e-4 -0.01272,0.001 -0.0032,3.3e-4 -0.0085,8.9e-4 -0.01453,0.002 -0.16357,0.0169 -0.330295,0.0134 -0.475048,0.008 -0.224486,-0.008 -0.335828,-0.0169 -0.507812,-0.0159 a 0.15387104,0.15387104 90 0 0 0.0018,0.30774 c 0.163014,-9.6e-4 0.261471,0.007 0.494353,0.0157 0.147617,0.006 0.334516,0.01 0.522689,-0.01 0.0036,-3.7e-4 0.0071,-8.7e-4 0.0106,-0.001 -0.0031,5.4e-4 -0.0043,5.8e-4 -3.19e-4,1.7e-4 0.0028,-3e-4 0.0077,-7.5e-4 0.01385,-0.001 0.0098,-0.001 0.03063,-0.003 0.05223,-0.009 0.01078,-0.003 0.02642,-0.008 0.04321,-0.0168 0.01591,-0.008 0.04035,-0.0242 0.06064,-0.0521 0.01036,-0.0143 0.01931,-0.0313 0.0251,-0.0509 0.0058,-0.0195 0.0077,-0.0391 0.0065,-0.0579 -0.0011,-0.0183 -0.0051,-0.0346 -0.01005,-0.0484 -0.0049,-0.0135 -0.01089,-0.0251 -0.01677,-0.0347 -0.0052,-0.008 -0.01066,-0.0169 -0.0174,-0.0242 -0.0067,-0.007 -0.01468,-0.0135 -0.02271,-0.0194 -0.03512,-0.0258 -0.07326,-0.0437 -0.11121,-0.0558 -0.03405,-0.0109 -0.06837,-0.0172 -0.101178,-0.0204 -0.113914,-0.0183 -0.218831,-0.0408 -0.342888,-0.064 -0.117941,-0.022 -0.243475,-0.0427 -0.372911,-0.0508 -0.005,-3.1e-4 -0.01001,-3.8e-4 -0.01501,-2.1e-4 -0.129204,0.005 -0.258793,0.0149 -0.382545,0.0231 -0.125376,0.008 -0.245765,0.0147 -0.365013,0.0125 -0.0046,-8e-5 -0.0092,4e-5 -0.01386,3.8e-4 -1.08e-4,0 0.0011,-1.3e-4 0.0048,-8e-5 0.0017,3e-5 0.0045,1.1e-4 0.008,4.1e-4 0.0033,2.9e-4 0.0087,8.8e-4 0.01532,0.002 0.006,0.001 0.01742,0.004 0.031,0.01 0.007,0.003 0.01653,0.008 0.02681,0.0155 0.01023,0.007 0.0233,0.0189 0.03508,0.0356 0.01224,0.0174 0.02247,0.0396 0.02636,0.0659 0.0039,0.0263 5.28e-4,0.0505 -0.0061,0.0705 -0.0064,0.0194 -0.01554,0.034 -0.02314,0.0441 -0.0077,0.0101 -0.01531,0.0176 -0.02117,0.0227 -0.01135,0.01 -0.02171,0.016 -0.02743,0.019 -0.0064,0.003 -0.01177,0.006 -0.01549,0.007 -0.0074,0.003 -0.01325,0.004 -0.01667,0.005 -0.0071,0.002 -0.0128,0.002 -0.01738,0.002 l 0.01187,-8e-4 c 0.239379,-0.0254 0.452039,-0.0454 0.665653,-0.0491 0.38391,-0.008 0.722543,0.03 1.024769,0.11164 0.0201,0.007 0.03906,0.0112 0.05012,0.0137 0.0185,0.004 0.02428,0.005 0.03259,0.007 0.0037,9.9e-4 0.0052,0.002 0.0046,0.001 -3.6e-4,-1.5e-4 -0.0021,-8.6e-4 -0.0047,-0.002 -0.0032,-0.002 -0.0081,-0.005 -0.01356,-0.0101 -0.0056,-0.005 -0.01124,-0.0118 -0.01599,-0.0197 -0.01551,-0.0258 -0.03081,-0.0525 -0.03704,-0.082 -0.0062,-0.0295 -0.0027,-0.0614 0.01239,-0.0875 0.01505,-0.0261 0.04088,-0.0452 0.06953,-0.0546 0.02864,-0.009 0.05937,-0.009 0.08951,-0.009 -0.274017,-0.004 -0.567205,-0.0484 -0.805291,-0.0806 -0.206856,-0.0282 -0.381146,-0.0493 -0.558376,-0.0591 -0.245879,-0.0137 -0.430828,-8.2e-4 -0.579251,0.0215 a 0.15387104,0.15387104 90 0 0 0.04582,0.30432 z"
       id="path-1"
       inkscape:path-effect="#path-effect162;#path-effect165"
       inkscape:original-d="m -17.045328,150.91293 c 0.642653,-0.0961 1.276846,0.10981 1.917554,0.11995 0.01151,-0.0297 -0.156935,-0.0594 -0.219682,-0.0789 -0.49271,-0.11934 -1.005178,-0.11678 -1.506639,-0.0643 -0.05103,0.005 -0.212202,0.0184 -0.187911,0.0229 0.256705,0.006 0.512361,-0.0251 0.768159,-0.0357 0.240364,0.0143 0.474583,0.0764 0.711771,0.11426 0.06401,5.5e-4 0.241353,0.0687 0.08647,0.0852 -0.338327,0.0383 -0.678687,-0.007 -1.017667,-0.005"
       style="fill:#000000;fill-rule:nonzero;stroke:none;stroke-width:1.05758" />
  </g>
</svg>
