<?xml version="1.0" encoding="UTF-8" standalone="no"?>
<!-- Created with Inkscape (http://www.inkscape.org/) -->

<svg
   width="2mm"
   height="10mm"
   viewBox="0 0 2.0000001 9.9999994"
   version="1.1"
   id="svg1681"
   inkscape:version="1.2.1 (9c6d41e410, 2022-07-14)"
   sodipodi:docname="lower_i_1.svg"
   inkscape:export-filename="..\..\..\..\Downloads\lower a diff canvas resize 3.0.png"
   inkscape:export-xdpi="96"
   inkscape:export-ydpi="96"
   xmlns:inkscape="http://www.inkscape.org/namespaces/inkscape"
   xmlns:sodipodi="http://sodipodi.sourceforge.net/DTD/sodipodi-0.dtd"
   xmlns="http://www.w3.org/2000/svg"
   xmlns:svg="http://www.w3.org/2000/svg"
   xmlns:rdf="http://www.w3.org/1999/02/22-rdf-syntax-ns#"
   xmlns:cc="http://creativecommons.org/ns#"
   xmlns:dc="http://purl.org/dc/elements/1.1/">
  <defs
     id="defs1675">
    <inkscape:path-effect
       effect="powerstroke"
       id="path-effect270"
       is_visible="true"
       lpeversion="1"
       offset_points="2.7861905,0.092126751"
       not_jump="true"
       sort_points="true"
       interpolator_type="CentripetalCatmullRom"
       interpolator_beta="0.75"
       start_linecap_type="round"
       linejoin_type="spiro"
       miter_limit="4"
       scale_width="1"
       end_linecap_type="round" />
    <inkscape:path-effect
       effect="simplify"
       id="path-effect268"
       is_visible="true"
       lpeversion="1"
       steps="1"
       threshold="0.0047745358"
       smooth_angles="0"
       helper_size="0"
       simplify_individual_paths="false"
       simplify_just_coalesce="false"
       step="1" />
    <inkscape:path-effect
       effect="powerstroke"
       id="path-effect263"
       is_visible="true"
       lpeversion="1"
       offset_points="0.64430848,0.11026001"
       not_jump="true"
       sort_points="true"
       interpolator_type="CentripetalCatmullRom"
       interpolator_beta="0.75"
       start_linecap_type="round"
       linejoin_type="spiro"
       miter_limit="4"
       scale_width="1"
       end_linecap_type="round" />
    <inkscape:path-effect
       effect="simplify"
       id="path-effect261"
       is_visible="true"
       lpeversion="1"
       steps="1"
       threshold="0.0047745358"
       smooth_angles="0"
       helper_size="0"
       simplify_individual_paths="false"
       simplify_just_coalesce="false"
       step="1" />
    <inkscape:path-effect
       effect="powerstroke"
       id="path-effect1845"
       is_visible="true"
       lpeversion="1"
       offset_points="1.4617647,0.12041947"
       not_jump="true"
       sort_points="true"
       interpolator_type="CentripetalCatmullRom"
       interpolator_beta="0.75"
       start_linecap_type="round"
       linejoin_type="spiro"
       miter_limit="4"
       scale_width="1"
       end_linecap_type="round" />
    <inkscape:path-effect
       effect="simplify"
       id="path-effect1843"
       is_visible="true"
       lpeversion="1"
       steps="1"
       threshold="0.0035951417"
       smooth_angles="0"
       helper_size="0"
       simplify_individual_paths="false"
       simplify_just_coalesce="false"
       step="1" />
    <inkscape:path-effect
       effect="powerstroke"
       id="path-effect1838"
       is_visible="true"
       lpeversion="1"
       offset_points="1.0147746,0.10228681"
       not_jump="true"
       sort_points="true"
       interpolator_type="CentripetalCatmullRom"
       interpolator_beta="0.75"
       start_linecap_type="round"
       linejoin_type="spiro"
       miter_limit="4"
       scale_width="1"
       end_linecap_type="round" />
    <inkscape:path-effect
       effect="simplify"
       id="path-effect1836"
       is_visible="true"
       lpeversion="1"
       steps="1"
       threshold="0.0035951417"
       smooth_angles="0"
       helper_size="0"
       simplify_individual_paths="false"
       simplify_just_coalesce="false"
       step="1" />
    <inkscape:path-effect
       effect="powerstroke"
       id="path-effect502"
       is_visible="true"
       lpeversion="1"
       offset_points="3.0091841,0.21607495 | 7.3602657,0.17554228 | 9.4159651,0.20236537"
       not_jump="true"
       sort_points="true"
       interpolator_type="CentripetalCatmullRom"
       interpolator_beta="0.75"
       start_linecap_type="round"
       linejoin_type="spiro"
       miter_limit="4"
       scale_width="1"
       end_linecap_type="round" />
    <inkscape:path-effect
       effect="simplify"
       id="path-effect500"
       is_visible="true"
       lpeversion="1"
       steps="1"
       threshold="0.0035951417"
       smooth_angles="0"
       helper_size="0"
       simplify_individual_paths="false"
       simplify_just_coalesce="false"
       step="1" />
    <inkscape:path-effect
       effect="powerstroke"
       id="path-effect241"
       is_visible="true"
       lpeversion="1"
       offset_points="2.6879454,0.34086734"
       not_jump="true"
       sort_points="true"
       interpolator_type="CentripetalCatmullRom"
       interpolator_beta="0.75"
       start_linecap_type="round"
       linejoin_type="spiro"
       miter_limit="4"
       scale_width="1"
       end_linecap_type="round" />
    <inkscape:path-effect
       effect="simplify"
       id="path-effect239"
       is_visible="true"
       lpeversion="1"
       steps="1"
       threshold="0.0028332064"
       smooth_angles="0"
       helper_size="0"
       simplify_individual_paths="false"
       simplify_just_coalesce="false"
       step="1" />
    <inkscape:path-effect
       effect="powerstroke"
       id="path-effect234"
       is_visible="true"
       lpeversion="1"
       offset_points="2.13563,0.075169555"
       not_jump="true"
       sort_points="true"
       interpolator_type="CentripetalCatmullRom"
       interpolator_beta="0.75"
       start_linecap_type="round"
       linejoin_type="spiro"
       miter_limit="4"
       scale_width="1"
       end_linecap_type="round" />
    <inkscape:path-effect
       effect="simplify"
       id="path-effect232"
       is_visible="true"
       lpeversion="1"
       steps="1"
       threshold="0.0028332064"
       smooth_angles="0"
       helper_size="0"
       simplify_individual_paths="false"
       simplify_just_coalesce="false"
       step="1" />
    <inkscape:path-effect
       effect="powerstroke"
       id="path-effect227"
       is_visible="true"
       lpeversion="1"
       offset_points="2.1868266,0.075169555"
       not_jump="true"
       sort_points="true"
       interpolator_type="CentripetalCatmullRom"
       interpolator_beta="0.75"
       start_linecap_type="round"
       linejoin_type="spiro"
       miter_limit="4"
       scale_width="1"
       end_linecap_type="round" />
    <inkscape:path-effect
       effect="simplify"
       id="path-effect225"
       is_visible="true"
       lpeversion="1"
       steps="1"
       threshold="0.0028332064"
       smooth_angles="0"
       helper_size="0"
       simplify_individual_paths="false"
       simplify_just_coalesce="false"
       step="1" />
    <inkscape:path-effect
       effect="powerstroke"
       id="path-effect166"
       is_visible="true"
       lpeversion="1"
       offset_points="1.9637935,0.075169555"
       not_jump="true"
       sort_points="true"
       interpolator_type="CentripetalCatmullRom"
       interpolator_beta="0.75"
       start_linecap_type="round"
       linejoin_type="spiro"
       miter_limit="4"
       scale_width="1"
       end_linecap_type="round" />
    <inkscape:path-effect
       effect="simplify"
       id="path-effect164"
       is_visible="true"
       lpeversion="1"
       steps="1"
       threshold="0.0028332064"
       smooth_angles="0"
       helper_size="0"
       simplify_individual_paths="false"
       simplify_just_coalesce="false"
       step="1" />
    <inkscape:path-effect
       effect="powerstroke"
       id="path-effect159"
       is_visible="true"
       lpeversion="1"
       offset_points="2.2611036,0.075169555"
       not_jump="true"
       sort_points="true"
       interpolator_type="CentripetalCatmullRom"
       interpolator_beta="0.75"
       start_linecap_type="round"
       linejoin_type="spiro"
       miter_limit="4"
       scale_width="1"
       end_linecap_type="round" />
    <inkscape:path-effect
       effect="simplify"
       id="path-effect157"
       is_visible="true"
       lpeversion="1"
       steps="1"
       threshold="0.0028332064"
       smooth_angles="0"
       helper_size="0"
       simplify_individual_paths="false"
       simplify_just_coalesce="false"
       step="1" />
    <inkscape:path-effect
       effect="powerstroke"
       id="path-effect152"
       is_visible="true"
       lpeversion="1"
       offset_points="2.826981,0.075169555"
       not_jump="true"
       sort_points="true"
       interpolator_type="CentripetalCatmullRom"
       interpolator_beta="0.75"
       start_linecap_type="round"
       linejoin_type="spiro"
       miter_limit="4"
       scale_width="1"
       end_linecap_type="round" />
    <inkscape:path-effect
       effect="simplify"
       id="path-effect150"
       is_visible="true"
       lpeversion="1"
       steps="1"
       threshold="0.0028332064"
       smooth_angles="0"
       helper_size="0"
       simplify_individual_paths="false"
       simplify_just_coalesce="false"
       step="1" />
    <inkscape:path-effect
       effect="powerstroke"
       id="path-effect145"
       is_visible="true"
       lpeversion="1"
       offset_points="3.8374447,0.075169555"
       not_jump="true"
       sort_points="true"
       interpolator_type="CentripetalCatmullRom"
       interpolator_beta="0.75"
       start_linecap_type="round"
       linejoin_type="spiro"
       miter_limit="4"
       scale_width="1"
       end_linecap_type="round" />
    <inkscape:path-effect
       effect="simplify"
       id="path-effect143"
       is_visible="true"
       lpeversion="1"
       steps="1"
       threshold="0.0028332064"
       smooth_angles="0"
       helper_size="0"
       simplify_individual_paths="false"
       simplify_just_coalesce="false"
       step="1" />
    <inkscape:path-effect
       effect="powerstroke"
       id="path-effect138"
       is_visible="true"
       lpeversion="1"
       offset_points="2.6880907,0.075169555"
       not_jump="true"
       sort_points="true"
       interpolator_type="CentripetalCatmullRom"
       interpolator_beta="0.75"
       start_linecap_type="round"
       linejoin_type="spiro"
       miter_limit="4"
       scale_width="1"
       end_linecap_type="round" />
    <inkscape:path-effect
       effect="simplify"
       id="path-effect136"
       is_visible="true"
       lpeversion="1"
       steps="1"
       threshold="0.0028332064"
       smooth_angles="0"
       helper_size="0"
       simplify_individual_paths="false"
       simplify_just_coalesce="false"
       step="1" />
    <inkscape:path-effect
       effect="powerstroke"
       id="path-effect131"
       is_visible="true"
       lpeversion="1"
       offset_points="1.9940581,0.075169555"
       not_jump="true"
       sort_points="true"
       interpolator_type="CentripetalCatmullRom"
       interpolator_beta="0.75"
       start_linecap_type="round"
       linejoin_type="spiro"
       miter_limit="4"
       scale_width="1"
       end_linecap_type="round" />
    <inkscape:path-effect
       effect="simplify"
       id="path-effect129"
       is_visible="true"
       lpeversion="1"
       steps="1"
       threshold="0.0028332064"
       smooth_angles="0"
       helper_size="0"
       simplify_individual_paths="false"
       simplify_just_coalesce="false"
       step="1" />
  </defs>
  <sodipodi:namedview
     id="base"
     pagecolor="#ffffff"
     bordercolor="#666666"
     borderopacity="1.0"
     inkscape:pageopacity="0.0"
     inkscape:pageshadow="2"
     inkscape:zoom="31.678384"
     inkscape:cx="1.7046324"
     inkscape:cy="18.24588"
     inkscape:document-units="mm"
     inkscape:current-layer="layer1"
     showgrid="false"
     fit-margin-top="0"
     fit-margin-left="0"
     fit-margin-right="0"
     fit-margin-bottom="0"
     inkscape:window-width="1920"
     inkscape:window-height="1057"
     inkscape:window-x="1072"
     inkscape:window-y="321"
     inkscape:window-maximized="1"
     showguides="true"
     inkscape:guide-bbox="true"
     inkscape:snap-bbox="true"
     inkscape:bbox-nodes="true"
     inkscape:snap-nodes="false"
     inkscape:snap-others="false"
     inkscape:snap-page="true"
     inkscape:snap-grids="false"
     inkscape:snap-to-guides="false"
     inkscape:snap-global="false"
     inkscape:pagecheckerboard="0"
     inkscape:showpageshadow="2"
     inkscape:deskcolor="#d1d1d1">
    <sodipodi:guide
       position="-6.1806077,9.4988694"
       orientation="0,1"
       id="guide816"
       inkscape:locked="false" />
    <sodipodi:guide
       position="-4.4101637,10.646923"
       orientation="0,1"
       id="guide818"
       inkscape:locked="false" />
    <sodipodi:guide
       position="2.7595724,11.09577"
       orientation="1,0"
       id="guide820"
       inkscape:locked="false" />
    <sodipodi:guide
       position="3.657266,10.942217"
       orientation="1,0"
       id="guide822"
       inkscape:locked="false" />
    <sodipodi:guide
       position="-0.051625511,9.7492301"
       orientation="1,0"
       id="guide1853"
       inkscape:locked="false" />
    <sodipodi:guide
       position="-2.3720169,3.0175836"
       orientation="0,1"
       id="guide1855"
       inkscape:locked="false" />
  </sodipodi:namedview>
  <metadata
     id="metadata1678">
    <rdf:RDF>
      <cc:Work
         rdf:about="">
        <dc:format>image/svg+xml</dc:format>
        <dc:type
           rdf:resource="http://purl.org/dc/dcmitype/StillImage" />
      </cc:Work>
    </rdf:RDF>
  </metadata>
  <g
     inkscape:label="Layer 1"
     inkscape:groupmode="layer"
     id="layer1"
     transform="translate(17.028496,-147.22856)">
    <path
       d="m -16.168251,151.16866 c -0.002,0.25856 -0.0326,0.94123 -0.04319,1.56131 -0.004,0.23279 -0.0053,0.54415 0.01291,0.87054 0.0078,0.17653 0.01531,0.38995 0.01647,0.46741 a 0.11026001,0.11026001 90 0 0 0.220496,-0.003 c -0.0012,-0.0798 -0.0089,-0.29771 -0.01673,-0.47513 -0.01787,-0.31984 -0.0166,-0.62507 -0.01266,-0.85576 0.01046,-0.61295 0.04115,-1.30109 0.04322,-1.56333 a 0.11026001,0.11026001 90 0 0 -0.220514,-0.002 z"
       id="path-1"
       inkscape:path-effect="#path-effect261;#path-effect263"
       inkscape:original-d="m -16.057994,151.16953 c -0.0049,0.6794 -0.05553,1.35365 -0.04394,2.03367 0.0049,0.28799 0.02581,0.57525 0.03012,0.86307"
       style="fill:#000000;fill-rule:nonzero;stroke:none;stroke-width:1.24477" />
    <path
       d="m -15.986722,150.64036 c -0.0045,-0.007 -0.009,-0.0129 -0.01283,-0.0182 -0.0032,-0.004 -0.0048,-0.007 -0.0058,-0.008 -6.1e-4,-9.9e-4 2.4e-5,-3.6e-4 0.0012,0.003 0.0011,0.003 0.0023,0.008 0.0022,0.0145 3.4e-5,-0.009 0.0014,-0.0135 4.94e-4,-0.011 -0.0032,0.008 -0.0076,0.0162 -0.0131,0.0233 0.0014,-0.002 0.0028,-0.004 0.0044,-0.006 l -0.05235,0.0322 c 0.0019,-4.2e-4 0.0042,-9.1e-4 0.0067,-0.001 l -0.05112,-0.004 c -0.0074,-0.003 -0.01317,-0.007 -0.01727,-0.0102 -0.0038,-0.003 -0.0055,-0.006 -0.006,-0.006 -8.78e-4,-0.001 0.0018,0.004 0.0076,0.0144 5.67e-4,0.002 0.0023,0.007 0.003,0.01 5.76e-4,0.002 -3.05e-4,4.1e-4 4.21e-4,-0.004 0.0011,-0.008 0.0033,-0.0152 0.0063,-0.0224 -0.0012,0.003 -0.0024,0.006 -0.0037,0.009 l 0.03151,-0.0392 c -0.0023,0.002 -0.0046,0.003 -0.0069,0.005 l 0.03434,-0.015 c 0.0087,-0.002 0.01645,-0.002 0.02254,-6.1e-4 0.0058,9.3e-4 0.0097,0.002 0.01126,0.003 0.0014,6e-4 0.0022,0.001 -0.0067,-0.004 0.0042,0.003 0.0075,0.006 0.01015,0.009 0.0026,0.003 0.005,0.007 0.0067,0.0115 0.0018,0.005 0.0032,0.0101 0.0033,0.0167 1.62e-4,0.007 -9.68e-4,0.014 -0.0038,0.0212 -0.0029,0.003 -0.0048,0.005 -0.0091,0.006 -0.008,0.002 -0.01339,0.002 -0.01884,0.002 -0.0055,-1.5e-4 -0.01206,-9.7e-4 -0.01935,-0.003 -0.0075,-0.002 -0.01633,-0.006 -0.02523,-0.0133 -0.0093,-0.007 -0.01745,-0.0171 -0.02306,-0.029 -0.0039,-0.008 -0.0065,-0.0171 -0.0078,-0.0262 -0.0012,-0.008 -5.13e-4,-0.0157 6.74e-4,-0.0212 0.0011,-0.005 0.0027,-0.009 0.0032,-0.01 0.0012,-0.002 -0.0012,0.002 -0.0069,0.0109 l 0.0058,-0.008 c -0.007,0.009 -0.0039,0.005 -0.0025,0.004 0.0018,-0.002 0.0054,-0.005 0.01086,-0.009 0.0058,-0.004 0.0131,-0.007 0.02178,-0.009 0.0072,-0.002 0.01437,-0.003 0.02169,-0.004 0.0073,-5.9e-4 0.01476,-1.4e-4 0.02189,0.002 0.0071,0.002 0.01391,0.005 0.02011,0.009 0.0062,0.004 0.01181,0.009 0.01737,0.0136 -0.0019,-0.002 -0.0036,-0.003 -0.0053,-0.005 l 0.03012,0.0522 c -4.25e-4,-0.002 -8.18e-4,-0.004 -0.0012,-0.006 l 0.0017,0.0179 c 1.8e-5,-0.004 3.3e-5,-0.007 4.5e-5,-0.009 a 0.09212675,0.09212675 90 0 0 -0.184252,-9.2e-4 c -1.1e-5,0.002 -2.7e-5,0.005 -4.5e-5,0.009 -2.9e-5,0.006 5.25e-4,0.012 0.0017,0.0179 3.52e-4,0.002 7.45e-4,0.004 0.0012,0.006 0.0019,0.0101 0.0044,0.0203 0.0095,0.0293 0.0052,0.009 0.01278,0.0162 0.02058,0.0229 0.0017,0.001 0.0034,0.003 0.0053,0.005 0.0056,0.005 0.01117,0.01 0.01737,0.0136 0.0062,0.004 0.01298,0.007 0.02011,0.009 0.0071,0.002 0.01457,0.002 0.02189,0.002 0.0073,-5.8e-4 0.01453,-0.002 0.02169,-0.004 0.01368,-0.003 0.02552,-0.009 0.03545,-0.0149 0.0095,-0.006 0.01682,-0.0126 0.02214,-0.018 0.01053,-0.0108 0.01525,-0.0181 0.01617,-0.0193 0.0021,-0.003 0.0041,-0.006 0.0058,-0.008 0.0018,-0.003 0.0084,-0.0117 0.01619,-0.028 0.0037,-0.008 0.0079,-0.0183 0.01064,-0.0308 0.0027,-0.0127 0.0039,-0.0275 0.0016,-0.0436 -0.0013,-0.009 -0.0039,-0.0179 -0.0078,-0.0262 -0.0072,-0.0153 -0.01767,-0.0279 -0.02967,-0.0373 -0.01161,-0.009 -0.02362,-0.0147 -0.0345,-0.018 -0.01065,-0.003 -0.02084,-0.005 -0.02988,-0.005 -0.009,-2.5e-4 -0.01793,5.7e-4 -0.02651,0.002 -0.0317,0.008 -0.05683,0.0221 -0.07668,0.0402 -0.0197,0.018 -0.03566,0.0408 -0.04553,0.0666 -0.0063,0.0158 -0.0092,0.0334 -0.0087,0.0504 4.07e-4,0.0168 0.004,0.0325 0.0095,0.0466 0.0056,0.0141 0.01329,0.0269 0.02253,0.0381 0.0093,0.0112 0.02043,0.0212 0.03324,0.0294 0.0033,0.002 0.01716,0.0114 0.03233,0.0179 0.0085,0.004 0.0195,0.008 0.03249,0.01 0.01336,0.002 0.02854,0.002 0.04469,-0.001 0.0062,-0.001 0.01235,-0.003 0.01814,-0.005 0.0058,-0.003 0.01106,-0.006 0.0162,-0.01 0.0023,-0.002 0.0047,-0.003 0.0069,-0.005 0.007,-0.005 0.01382,-0.0102 0.01918,-0.0168 0.0054,-0.007 0.009,-0.0145 0.01234,-0.0223 0.0013,-0.003 0.0025,-0.006 0.0037,-0.009 0.003,-0.007 0.0052,-0.0147 0.0063,-0.0224 0.004,-0.0267 5.18e-4,-0.0498 -0.0041,-0.0679 -0.0046,-0.018 -0.01119,-0.0339 -0.01544,-0.0438 -0.0048,-0.01 -0.01297,-0.0267 -0.02252,-0.0405 -0.0058,-0.008 -0.01353,-0.0179 -0.0239,-0.027 -0.01104,-0.01 -0.02453,-0.0183 -0.04065,-0.0242 -0.0082,-0.003 -0.01656,-0.006 -0.02524,-0.006 -0.0087,-6.1e-4 -0.01737,9.3e-4 -0.02588,0.003 -0.0025,5.5e-4 -0.0048,0.001 -0.0067,0.001 -0.01093,0.002 -0.02193,0.005 -0.03128,0.0115 -0.0093,0.006 -0.01662,0.0149 -0.02345,0.0238 -0.0015,0.002 -0.003,0.004 -0.0044,0.006 -0.0055,0.007 -0.0099,0.0149 -0.0131,0.0233 -0.01163,0.0303 -0.01268,0.0593 -0.01271,0.075 -3.65e-4,0.0173 0.0032,0.0338 0.0077,0.0472 0.0049,0.0144 0.01138,0.026 0.01623,0.0339 0.0054,0.009 0.01124,0.0167 0.01406,0.0206 0.0047,0.006 0.0059,0.008 0.0072,0.0101 a 0.09212675,0.09212675 90 0 0 0.15431,-0.10068 z"
       id="path-1-2"
       inkscape:path-effect="#path-effect268;#path-effect270"
       inkscape:original-d="m -16.063877,150.6907 c -0.0092,-0.0148 -0.0225,-0.0278 -0.02765,-0.0445 -0.0044,-0.0144 -0.0026,-0.0303 0,-0.0451 0.01625,-0.0927 0.117402,0.13296 0.02765,0.0896 -0.0979,-0.0473 0.01988,-0.13971 0.03752,-0.10578 0.0081,0.0156 -0.04775,0.0971 -0.04394,0.0406"
       style="fill:#000000;fill-rule:nonzero;stroke:none" />
  </g>
</svg>
