<?xml version="1.0" encoding="UTF-8" standalone="no"?>
<!-- Created with Inkscape (http://www.inkscape.org/) -->

<svg
   width="2mm"
   height="10mm"
   viewBox="0 0 2.0000001 9.9999994"
   version="1.1"
   id="svg1681"
   inkscape:version="1.2.1 (9c6d41e410, 2022-07-14)"
   sodipodi:docname="lower_i_67.svg"
   inkscape:export-filename="..\..\..\..\Downloads\lower a diff canvas resize 3.0.png"
   inkscape:export-xdpi="96"
   inkscape:export-ydpi="96"
   xmlns:inkscape="http://www.inkscape.org/namespaces/inkscape"
   xmlns:sodipodi="http://sodipodi.sourceforge.net/DTD/sodipodi-0.dtd"
   xmlns="http://www.w3.org/2000/svg"
   xmlns:svg="http://www.w3.org/2000/svg"
   xmlns:rdf="http://www.w3.org/1999/02/22-rdf-syntax-ns#"
   xmlns:cc="http://creativecommons.org/ns#"
   xmlns:dc="http://purl.org/dc/elements/1.1/">
  <defs
     id="defs1675">
    <inkscape:path-effect
       effect="powerstroke"
       id="path-effect9216"
       is_visible="true"
       lpeversion="1"
       offset_points="1.7701459,0.10312217 | 8.4722694,0.11557988"
       not_jump="true"
       sort_points="true"
       interpolator_type="CentripetalCatmullRom"
       interpolator_beta="0.75"
       start_linecap_type="round"
       linejoin_type="spiro"
       miter_limit="4"
       scale_width="1"
       end_linecap_type="round" />
    <inkscape:path-effect
       effect="simplify"
       id="path-effect9214"
       is_visible="true"
       lpeversion="1"
       steps="1"
       threshold="0.0047745358"
       smooth_angles="0"
       helper_size="0"
       simplify_individual_paths="false"
       simplify_just_coalesce="false"
       step="1" />
    <inkscape:path-effect
       effect="powerstroke"
       id="path-effect9209"
       is_visible="true"
       lpeversion="1"
       offset_points="0.52696374,0.09308679"
       not_jump="true"
       sort_points="true"
       interpolator_type="CentripetalCatmullRom"
       interpolator_beta="0.75"
       start_linecap_type="round"
       linejoin_type="spiro"
       miter_limit="4"
       scale_width="1"
       end_linecap_type="round" />
    <inkscape:path-effect
       effect="simplify"
       id="path-effect9207"
       is_visible="true"
       lpeversion="1"
       steps="1"
       threshold="0.0047745358"
       smooth_angles="0"
       helper_size="0"
       simplify_individual_paths="false"
       simplify_just_coalesce="false"
       step="1" />
    <inkscape:path-effect
       effect="powerstroke"
       id="path-effect8372"
       is_visible="true"
       lpeversion="1"
       offset_points="3.8334214,0.091529576 | 8.8912019,0.10571753"
       not_jump="true"
       sort_points="true"
       interpolator_type="CentripetalCatmullRom"
       interpolator_beta="0.75"
       start_linecap_type="round"
       linejoin_type="spiro"
       miter_limit="4"
       scale_width="1"
       end_linecap_type="round" />
    <inkscape:path-effect
       effect="simplify"
       id="path-effect8370"
       is_visible="true"
       lpeversion="1"
       steps="1"
       threshold="0.0047745358"
       smooth_angles="0"
       helper_size="0"
       simplify_individual_paths="false"
       simplify_just_coalesce="false"
       step="1" />
    <inkscape:path-effect
       effect="powerstroke"
       id="path-effect8365"
       is_visible="true"
       lpeversion="1"
       offset_points="0.37255453,0.092221671 | 2.6359598,0.081494197"
       not_jump="true"
       sort_points="true"
       interpolator_type="CentripetalCatmullRom"
       interpolator_beta="0.75"
       start_linecap_type="round"
       linejoin_type="spiro"
       miter_limit="4"
       scale_width="1"
       end_linecap_type="round" />
    <inkscape:path-effect
       effect="simplify"
       id="path-effect8363"
       is_visible="true"
       lpeversion="1"
       steps="1"
       threshold="0.0047745358"
       smooth_angles="0"
       helper_size="0"
       simplify_individual_paths="false"
       simplify_just_coalesce="false"
       step="1" />
    <inkscape:path-effect
       effect="powerstroke"
       id="path-effect7532"
       is_visible="true"
       lpeversion="1"
       offset_points="3.9580287,0.10018076 | 9.136105,0.116445 | 11.506354,0.10243007"
       not_jump="true"
       sort_points="true"
       interpolator_type="CentripetalCatmullRom"
       interpolator_beta="0.75"
       start_linecap_type="round"
       linejoin_type="spiro"
       miter_limit="4"
       scale_width="1"
       end_linecap_type="round" />
    <inkscape:path-effect
       effect="simplify"
       id="path-effect7530"
       is_visible="true"
       lpeversion="1"
       steps="1"
       threshold="0.0047745358"
       smooth_angles="0"
       helper_size="0"
       simplify_individual_paths="false"
       simplify_just_coalesce="false"
       step="1" />
    <inkscape:path-effect
       effect="powerstroke"
       id="path-effect7525"
       is_visible="true"
       lpeversion="1"
       offset_points="0.29111704,0.1121194"
       not_jump="true"
       sort_points="true"
       interpolator_type="CentripetalCatmullRom"
       interpolator_beta="0.75"
       start_linecap_type="round"
       linejoin_type="spiro"
       miter_limit="4"
       scale_width="1"
       end_linecap_type="round" />
    <inkscape:path-effect
       effect="simplify"
       id="path-effect7523"
       is_visible="true"
       lpeversion="1"
       steps="1"
       threshold="0.0047745358"
       smooth_angles="0"
       helper_size="0"
       simplify_individual_paths="false"
       simplify_just_coalesce="false"
       step="1" />
    <inkscape:path-effect
       effect="powerstroke"
       id="path-effect5101"
       is_visible="true"
       lpeversion="1"
       offset_points="0.63595009,0.092913766"
       not_jump="true"
       sort_points="true"
       interpolator_type="CentripetalCatmullRom"
       interpolator_beta="0.75"
       start_linecap_type="round"
       linejoin_type="spiro"
       miter_limit="4"
       scale_width="1"
       end_linecap_type="round" />
    <inkscape:path-effect
       effect="simplify"
       id="path-effect5099"
       is_visible="true"
       lpeversion="1"
       steps="1"
       threshold="0.0047745358"
       smooth_angles="0"
       helper_size="0"
       simplify_individual_paths="false"
       simplify_just_coalesce="false"
       step="1" />
    <inkscape:path-effect
       effect="powerstroke"
       id="path-effect5094"
       is_visible="true"
       lpeversion="1"
       offset_points="1.4917142,0.093951909 | 10.480342,0.11177336"
       not_jump="true"
       sort_points="true"
       interpolator_type="CentripetalCatmullRom"
       interpolator_beta="0.75"
       start_linecap_type="round"
       linejoin_type="spiro"
       miter_limit="4"
       scale_width="1"
       end_linecap_type="round" />
    <inkscape:path-effect
       effect="simplify"
       id="path-effect5092"
       is_visible="true"
       lpeversion="1"
       steps="1"
       threshold="0.0047745358"
       smooth_angles="0"
       helper_size="0"
       simplify_individual_paths="false"
       simplify_just_coalesce="false"
       step="1" />
    <inkscape:path-effect
       effect="powerstroke"
       id="path-effect4269"
       is_visible="true"
       lpeversion="1"
       offset_points="2.6710569,0.084262577"
       not_jump="true"
       sort_points="true"
       interpolator_type="CentripetalCatmullRom"
       interpolator_beta="0.75"
       start_linecap_type="round"
       linejoin_type="spiro"
       miter_limit="4"
       scale_width="1"
       end_linecap_type="round" />
    <inkscape:path-effect
       effect="simplify"
       id="path-effect4267"
       is_visible="true"
       lpeversion="1"
       steps="1"
       threshold="0.0047745358"
       smooth_angles="0"
       helper_size="0"
       simplify_individual_paths="false"
       simplify_just_coalesce="false"
       step="1" />
    <inkscape:path-effect
       effect="powerstroke"
       id="path-effect4262"
       is_visible="true"
       lpeversion="1"
       offset_points="0.54376955,0.074400222 | 1.6883277,0.067133224"
       not_jump="true"
       sort_points="true"
       interpolator_type="CentripetalCatmullRom"
       interpolator_beta="0.75"
       start_linecap_type="round"
       linejoin_type="spiro"
       miter_limit="4"
       scale_width="1"
       end_linecap_type="round" />
    <inkscape:path-effect
       effect="simplify"
       id="path-effect4260"
       is_visible="true"
       lpeversion="1"
       steps="1"
       threshold="0.0047745358"
       smooth_angles="0"
       helper_size="0"
       simplify_individual_paths="false"
       simplify_just_coalesce="false"
       step="1" />
    <inkscape:path-effect
       effect="powerstroke"
       id="path-effect3441"
       is_visible="true"
       lpeversion="1"
       offset_points="2.564688,0.086511886 | 13.948405,0.10502543"
       not_jump="true"
       sort_points="true"
       interpolator_type="CentripetalCatmullRom"
       interpolator_beta="0.75"
       start_linecap_type="round"
       linejoin_type="spiro"
       miter_limit="4"
       scale_width="1"
       end_linecap_type="round" />
    <inkscape:path-effect
       effect="simplify"
       id="path-effect3439"
       is_visible="true"
       lpeversion="1"
       steps="1"
       threshold="0.0047745358"
       smooth_angles="0"
       helper_size="0"
       simplify_individual_paths="false"
       simplify_just_coalesce="false"
       step="1" />
    <inkscape:path-effect
       effect="powerstroke"
       id="path-effect3434"
       is_visible="true"
       lpeversion="1"
       offset_points="0.49462107,0.082878387 | 3.5339825,0.068863462"
       not_jump="true"
       sort_points="true"
       interpolator_type="CentripetalCatmullRom"
       interpolator_beta="0.75"
       start_linecap_type="round"
       linejoin_type="spiro"
       miter_limit="4"
       scale_width="1"
       end_linecap_type="round" />
    <inkscape:path-effect
       effect="simplify"
       id="path-effect3432"
       is_visible="true"
       lpeversion="1"
       steps="1"
       threshold="0.0047745358"
       smooth_angles="0"
       helper_size="0"
       simplify_individual_paths="false"
       simplify_just_coalesce="false"
       step="1" />
    <inkscape:path-effect
       effect="powerstroke"
       id="path-effect1807"
       is_visible="true"
       lpeversion="1"
       offset_points="2.949626,0.11402267 | 6.2744137,0.10294914"
       not_jump="true"
       sort_points="true"
       interpolator_type="CentripetalCatmullRom"
       interpolator_beta="0.75"
       start_linecap_type="round"
       linejoin_type="spiro"
       miter_limit="4"
       scale_width="1"
       end_linecap_type="round" />
    <inkscape:path-effect
       effect="simplify"
       id="path-effect1805"
       is_visible="true"
       lpeversion="1"
       steps="1"
       threshold="0.0047745358"
       smooth_angles="0"
       helper_size="0"
       simplify_individual_paths="false"
       simplify_just_coalesce="false"
       step="1" />
    <inkscape:path-effect
       effect="powerstroke"
       id="path-effect1800"
       is_visible="true"
       lpeversion="1"
       offset_points="0.25518895,0.1026031"
       not_jump="true"
       sort_points="true"
       interpolator_type="CentripetalCatmullRom"
       interpolator_beta="0.75"
       start_linecap_type="round"
       linejoin_type="spiro"
       miter_limit="4"
       scale_width="1"
       end_linecap_type="round" />
    <inkscape:path-effect
       effect="simplify"
       id="path-effect1798"
       is_visible="true"
       lpeversion="1"
       steps="1"
       threshold="0.0047745358"
       smooth_angles="0"
       helper_size="0"
       simplify_individual_paths="false"
       simplify_just_coalesce="false"
       step="1" />
    <inkscape:path-effect
       effect="powerstroke"
       id="path-effect987"
       is_visible="true"
       lpeversion="1"
       offset_points="6.1424527,0.11021614 | 16.028315,0.13063295"
       not_jump="true"
       sort_points="true"
       interpolator_type="CentripetalCatmullRom"
       interpolator_beta="0.75"
       start_linecap_type="round"
       linejoin_type="spiro"
       miter_limit="4"
       scale_width="1"
       end_linecap_type="round" />
    <inkscape:path-effect
       effect="simplify"
       id="path-effect985"
       is_visible="true"
       lpeversion="1"
       steps="1"
       threshold="0.0047745358"
       smooth_angles="0"
       helper_size="0"
       simplify_individual_paths="false"
       simplify_just_coalesce="false"
       step="1" />
    <inkscape:path-effect
       effect="powerstroke"
       id="path-effect980"
       is_visible="true"
       lpeversion="1"
       offset_points="0.30771943,0.12077059"
       not_jump="true"
       sort_points="true"
       interpolator_type="CentripetalCatmullRom"
       interpolator_beta="0.75"
       start_linecap_type="round"
       linejoin_type="spiro"
       miter_limit="4"
       scale_width="1"
       end_linecap_type="round" />
    <inkscape:path-effect
       effect="simplify"
       id="path-effect978"
       is_visible="true"
       lpeversion="1"
       steps="1"
       threshold="0.0047745358"
       smooth_angles="0"
       helper_size="0"
       simplify_individual_paths="false"
       simplify_just_coalesce="false"
       step="1" />
    <inkscape:path-effect
       effect="powerstroke"
       id="path-effect631"
       is_visible="true"
       lpeversion="1"
       offset_points="1.723776,0.075092317 | 9.6483558,0.086165839"
       not_jump="true"
       sort_points="true"
       interpolator_type="CentripetalCatmullRom"
       interpolator_beta="0.75"
       start_linecap_type="round"
       linejoin_type="spiro"
       miter_limit="4"
       scale_width="1"
       end_linecap_type="round" />
    <inkscape:path-effect
       effect="simplify"
       id="path-effect629"
       is_visible="true"
       lpeversion="1"
       steps="1"
       threshold="0.0047745358"
       smooth_angles="0"
       helper_size="0"
       simplify_individual_paths="false"
       simplify_just_coalesce="false"
       step="1" />
    <inkscape:path-effect
       effect="powerstroke"
       id="path-effect624"
       is_visible="true"
       lpeversion="1"
       offset_points="0.727246,0.053291322"
       not_jump="true"
       sort_points="true"
       interpolator_type="CentripetalCatmullRom"
       interpolator_beta="0.75"
       start_linecap_type="round"
       linejoin_type="spiro"
       miter_limit="4"
       scale_width="1"
       end_linecap_type="round" />
    <inkscape:path-effect
       effect="simplify"
       id="path-effect622"
       is_visible="true"
       lpeversion="1"
       steps="1"
       threshold="0.0047745358"
       smooth_angles="0"
       helper_size="0"
       simplify_individual_paths="false"
       simplify_just_coalesce="false"
       step="1" />
    <inkscape:path-effect
       effect="powerstroke"
       id="path-effect546"
       is_visible="true"
       lpeversion="1"
       offset_points="1.5739443,0.081494197 | 8.1275427,0.098969598"
       not_jump="true"
       sort_points="true"
       interpolator_type="CentripetalCatmullRom"
       interpolator_beta="0.75"
       start_linecap_type="round"
       linejoin_type="spiro"
       miter_limit="4"
       scale_width="1"
       end_linecap_type="round" />
    <inkscape:path-effect
       effect="simplify"
       id="path-effect544"
       is_visible="true"
       lpeversion="1"
       steps="1"
       threshold="0.0047745358"
       smooth_angles="0"
       helper_size="0"
       simplify_individual_paths="false"
       simplify_just_coalesce="false"
       step="1" />
    <inkscape:path-effect
       effect="powerstroke"
       id="path-effect539"
       is_visible="true"
       lpeversion="1"
       offset_points="0.11669093,0.063326701 | 0.27478701,0.070420675 | 0.7282066,0.063499725"
       not_jump="true"
       sort_points="true"
       interpolator_type="CentripetalCatmullRom"
       interpolator_beta="0.75"
       start_linecap_type="round"
       linejoin_type="spiro"
       miter_limit="4"
       scale_width="1"
       end_linecap_type="round" />
    <inkscape:path-effect
       effect="simplify"
       id="path-effect537"
       is_visible="true"
       lpeversion="1"
       steps="1"
       threshold="0.0047745358"
       smooth_angles="0"
       helper_size="0"
       simplify_individual_paths="false"
       simplify_just_coalesce="false"
       step="1" />
    <inkscape:path-effect
       effect="powerstroke"
       id="path-effect465"
       is_visible="true"
       lpeversion="1"
       offset_points="3.7032797,0.074400222"
       not_jump="true"
       sort_points="true"
       interpolator_type="CentripetalCatmullRom"
       interpolator_beta="0.75"
       start_linecap_type="round"
       linejoin_type="spiro"
       miter_limit="4"
       scale_width="1"
       end_linecap_type="round" />
    <inkscape:path-effect
       effect="simplify"
       id="path-effect463"
       is_visible="true"
       lpeversion="1"
       steps="1"
       threshold="0.0047745358"
       smooth_angles="0"
       helper_size="0"
       simplify_individual_paths="false"
       simplify_just_coalesce="false"
       step="1" />
    <inkscape:path-effect
       effect="powerstroke"
       id="path-effect458"
       is_visible="true"
       lpeversion="1"
       offset_points="0.39717175,0.067306248"
       not_jump="true"
       sort_points="true"
       interpolator_type="CentripetalCatmullRom"
       interpolator_beta="0.75"
       start_linecap_type="round"
       linejoin_type="spiro"
       miter_limit="4"
       scale_width="1"
       end_linecap_type="round" />
    <inkscape:path-effect
       effect="simplify"
       id="path-effect456"
       is_visible="true"
       lpeversion="1"
       steps="1"
       threshold="0.0047745358"
       smooth_angles="0"
       helper_size="0"
       simplify_individual_paths="false"
       simplify_just_coalesce="false"
       step="1" />
    <inkscape:path-effect
       effect="powerstroke"
       id="path-effect388"
       is_visible="true"
       lpeversion="1"
       offset_points="2.0059227,0.076303484 | 5.0261562,0.085992815"
       not_jump="true"
       sort_points="true"
       interpolator_type="CentripetalCatmullRom"
       interpolator_beta="0.75"
       start_linecap_type="round"
       linejoin_type="spiro"
       miter_limit="4"
       scale_width="1"
       end_linecap_type="round" />
    <inkscape:path-effect
       effect="simplify"
       id="path-effect386"
       is_visible="true"
       lpeversion="1"
       steps="1"
       threshold="0.0047745358"
       smooth_angles="0"
       helper_size="0"
       simplify_individual_paths="false"
       simplify_just_coalesce="false"
       step="1" />
    <inkscape:path-effect
       effect="powerstroke"
       id="path-effect381"
       is_visible="true"
       lpeversion="1"
       offset_points="0.10715709,0.083397458"
       not_jump="true"
       sort_points="true"
       interpolator_type="CentripetalCatmullRom"
       interpolator_beta="0.75"
       start_linecap_type="round"
       linejoin_type="spiro"
       miter_limit="4"
       scale_width="1"
       end_linecap_type="round" />
    <inkscape:path-effect
       effect="simplify"
       id="path-effect379"
       is_visible="true"
       lpeversion="1"
       steps="1"
       threshold="0.0047745358"
       smooth_angles="0"
       helper_size="0"
       simplify_individual_paths="false"
       simplify_just_coalesce="false"
       step="1" />
    <inkscape:path-effect
       effect="powerstroke"
       id="path-effect486"
       is_visible="true"
       lpeversion="1"
       offset_points="3.044783,0.048082089 | 7.589052,0.053587672"
       not_jump="true"
       sort_points="true"
       interpolator_type="CentripetalCatmullRom"
       interpolator_beta="0.75"
       start_linecap_type="round"
       linejoin_type="spiro"
       miter_limit="4"
       scale_width="1"
       end_linecap_type="round" />
    <inkscape:path-effect
       effect="simplify"
       id="path-effect484"
       is_visible="true"
       lpeversion="1"
       steps="1"
       threshold="0.0047745358"
       smooth_angles="0"
       helper_size="0"
       simplify_individual_paths="false"
       simplify_just_coalesce="false"
       step="1" />
    <inkscape:path-effect
       effect="powerstroke"
       id="path-effect477"
       is_visible="true"
       lpeversion="1"
       offset_points="1.2345423,0.060806102"
       not_jump="true"
       sort_points="true"
       interpolator_type="CentripetalCatmullRom"
       interpolator_beta="0.75"
       start_linecap_type="round"
       linejoin_type="spiro"
       miter_limit="4"
       scale_width="1"
       end_linecap_type="round" />
    <inkscape:path-effect
       effect="simplify"
       id="path-effect475"
       is_visible="true"
       lpeversion="1"
       steps="1"
       threshold="0.0047745358"
       smooth_angles="0"
       helper_size="0"
       simplify_individual_paths="false"
       simplify_just_coalesce="false"
       step="1" />
    <inkscape:path-effect
       effect="powerstroke"
       id="path-effect415"
       is_visible="true"
       lpeversion="1"
       offset_points="2.0983221,0.052364209 | 3.0733385,0.05823683"
       not_jump="true"
       sort_points="true"
       interpolator_type="CentripetalCatmullRom"
       interpolator_beta="0.75"
       start_linecap_type="round"
       linejoin_type="spiro"
       miter_limit="4"
       scale_width="1"
       end_linecap_type="round" />
    <inkscape:path-effect
       effect="simplify"
       id="path-effect413"
       is_visible="true"
       lpeversion="1"
       steps="1"
       threshold="0.0047745358"
       smooth_angles="0"
       helper_size="0"
       simplify_individual_paths="false"
       simplify_just_coalesce="false"
       step="1" />
    <inkscape:path-effect
       effect="powerstroke"
       id="path-effect408"
       is_visible="true"
       lpeversion="1"
       offset_points="0.13337373,0.048326782 | 0.44365202,0.056646329"
       not_jump="true"
       sort_points="true"
       interpolator_type="CentripetalCatmullRom"
       interpolator_beta="0.75"
       start_linecap_type="round"
       linejoin_type="spiro"
       miter_limit="4"
       scale_width="1"
       end_linecap_type="round" />
    <inkscape:path-effect
       effect="simplify"
       id="path-effect406"
       is_visible="true"
       lpeversion="1"
       steps="1"
       threshold="0.0047745358"
       smooth_angles="0"
       helper_size="0"
       simplify_individual_paths="false"
       simplify_just_coalesce="false"
       step="1" />
    <inkscape:path-effect
       effect="powerstroke"
       id="path-effect350"
       is_visible="true"
       lpeversion="1"
       offset_points="3.4111875,0.058603869 | 15.914888,0.071694921"
       not_jump="true"
       sort_points="true"
       interpolator_type="CentripetalCatmullRom"
       interpolator_beta="0.75"
       start_linecap_type="round"
       linejoin_type="spiro"
       miter_limit="4"
       scale_width="1"
       end_linecap_type="round" />
    <inkscape:path-effect
       effect="simplify"
       id="path-effect348"
       is_visible="true"
       lpeversion="1"
       steps="1"
       threshold="0.0047745358"
       smooth_angles="0"
       helper_size="0"
       simplify_individual_paths="false"
       simplify_just_coalesce="false"
       step="1" />
    <inkscape:path-effect
       effect="powerstroke"
       id="path-effect341"
       is_visible="true"
       lpeversion="1"
       offset_points="0.41123889,0.057013368"
       not_jump="true"
       sort_points="true"
       interpolator_type="CentripetalCatmullRom"
       interpolator_beta="0.75"
       start_linecap_type="round"
       linejoin_type="spiro"
       miter_limit="4"
       scale_width="1"
       end_linecap_type="round" />
    <inkscape:path-effect
       effect="simplify"
       id="path-effect339"
       is_visible="true"
       lpeversion="1"
       steps="1"
       threshold="0.0047745358"
       smooth_angles="0"
       helper_size="0"
       simplify_individual_paths="false"
       simplify_just_coalesce="false"
       step="1" />
    <inkscape:path-effect
       effect="powerstroke"
       id="path-effect332"
       is_visible="true"
       lpeversion="1"
       offset_points="0.10192889,0.050284322"
       not_jump="true"
       sort_points="true"
       interpolator_type="CentripetalCatmullRom"
       interpolator_beta="0.75"
       start_linecap_type="round"
       linejoin_type="spiro"
       miter_limit="4"
       scale_width="1"
       end_linecap_type="round" />
    <inkscape:path-effect
       effect="simplify"
       id="path-effect330"
       is_visible="true"
       lpeversion="1"
       steps="1"
       threshold="0.0047745358"
       smooth_angles="0"
       helper_size="0"
       simplify_individual_paths="false"
       simplify_just_coalesce="false"
       step="1" />
    <inkscape:path-effect
       effect="powerstroke"
       id="path-effect325"
       is_visible="true"
       lpeversion="1"
       offset_points="0.813164,0.050529015"
       not_jump="true"
       sort_points="true"
       interpolator_type="CentripetalCatmullRom"
       interpolator_beta="0.75"
       start_linecap_type="round"
       linejoin_type="spiro"
       miter_limit="4"
       scale_width="1"
       end_linecap_type="round" />
    <inkscape:path-effect
       effect="simplify"
       id="path-effect323"
       is_visible="true"
       lpeversion="1"
       steps="1"
       threshold="0.0047745358"
       smooth_angles="0"
       helper_size="0"
       simplify_individual_paths="false"
       simplify_just_coalesce="false"
       step="1" />
    <inkscape:path-effect
       effect="powerstroke"
       id="path-effect318"
       is_visible="true"
       lpeversion="1"
       offset_points="1.2155427,0.062151911"
       not_jump="true"
       sort_points="true"
       interpolator_type="CentripetalCatmullRom"
       interpolator_beta="0.75"
       start_linecap_type="round"
       linejoin_type="spiro"
       miter_limit="4"
       scale_width="1"
       end_linecap_type="round" />
    <inkscape:path-effect
       effect="simplify"
       id="path-effect316"
       is_visible="true"
       lpeversion="1"
       steps="1"
       threshold="0.0047745358"
       smooth_angles="0"
       helper_size="0"
       simplify_individual_paths="false"
       simplify_just_coalesce="false"
       step="1" />
    <inkscape:path-effect
       effect="powerstroke"
       id="path-effect270"
       is_visible="true"
       lpeversion="1"
       offset_points="2.7861905,0.092126751"
       not_jump="true"
       sort_points="true"
       interpolator_type="CentripetalCatmullRom"
       interpolator_beta="0.75"
       start_linecap_type="round"
       linejoin_type="spiro"
       miter_limit="4"
       scale_width="1"
       end_linecap_type="round" />
    <inkscape:path-effect
       effect="simplify"
       id="path-effect268"
       is_visible="true"
       lpeversion="1"
       steps="1"
       threshold="0.0047745358"
       smooth_angles="0"
       helper_size="0"
       simplify_individual_paths="false"
       simplify_just_coalesce="false"
       step="1" />
    <inkscape:path-effect
       effect="powerstroke"
       id="path-effect263"
       is_visible="true"
       lpeversion="1"
       offset_points="0.64430848,0.088578708"
       not_jump="true"
       sort_points="true"
       interpolator_type="CentripetalCatmullRom"
       interpolator_beta="0.75"
       start_linecap_type="round"
       linejoin_type="spiro"
       miter_limit="4"
       scale_width="1"
       end_linecap_type="round" />
    <inkscape:path-effect
       effect="simplify"
       id="path-effect261"
       is_visible="true"
       lpeversion="1"
       steps="1"
       threshold="0.0047745358"
       smooth_angles="0"
       helper_size="0"
       simplify_individual_paths="false"
       simplify_just_coalesce="false"
       step="1" />
    <inkscape:path-effect
       effect="powerstroke"
       id="path-effect1845"
       is_visible="true"
       lpeversion="1"
       offset_points="1.4617647,0.12041947"
       not_jump="true"
       sort_points="true"
       interpolator_type="CentripetalCatmullRom"
       interpolator_beta="0.75"
       start_linecap_type="round"
       linejoin_type="spiro"
       miter_limit="4"
       scale_width="1"
       end_linecap_type="round" />
    <inkscape:path-effect
       effect="simplify"
       id="path-effect1843"
       is_visible="true"
       lpeversion="1"
       steps="1"
       threshold="0.0035951417"
       smooth_angles="0"
       helper_size="0"
       simplify_individual_paths="false"
       simplify_just_coalesce="false"
       step="1" />
    <inkscape:path-effect
       effect="powerstroke"
       id="path-effect1838"
       is_visible="true"
       lpeversion="1"
       offset_points="1.0147746,0.10228681"
       not_jump="true"
       sort_points="true"
       interpolator_type="CentripetalCatmullRom"
       interpolator_beta="0.75"
       start_linecap_type="round"
       linejoin_type="spiro"
       miter_limit="4"
       scale_width="1"
       end_linecap_type="round" />
    <inkscape:path-effect
       effect="simplify"
       id="path-effect1836"
       is_visible="true"
       lpeversion="1"
       steps="1"
       threshold="0.0035951417"
       smooth_angles="0"
       helper_size="0"
       simplify_individual_paths="false"
       simplify_just_coalesce="false"
       step="1" />
    <inkscape:path-effect
       effect="powerstroke"
       id="path-effect502"
       is_visible="true"
       lpeversion="1"
       offset_points="3.0091841,0.21607495 | 7.3602657,0.17554228 | 9.4159651,0.20236537"
       not_jump="true"
       sort_points="true"
       interpolator_type="CentripetalCatmullRom"
       interpolator_beta="0.75"
       start_linecap_type="round"
       linejoin_type="spiro"
       miter_limit="4"
       scale_width="1"
       end_linecap_type="round" />
    <inkscape:path-effect
       effect="simplify"
       id="path-effect500"
       is_visible="true"
       lpeversion="1"
       steps="1"
       threshold="0.0035951417"
       smooth_angles="0"
       helper_size="0"
       simplify_individual_paths="false"
       simplify_just_coalesce="false"
       step="1" />
    <inkscape:path-effect
       effect="powerstroke"
       id="path-effect241"
       is_visible="true"
       lpeversion="1"
       offset_points="2.6879454,0.34086734"
       not_jump="true"
       sort_points="true"
       interpolator_type="CentripetalCatmullRom"
       interpolator_beta="0.75"
       start_linecap_type="round"
       linejoin_type="spiro"
       miter_limit="4"
       scale_width="1"
       end_linecap_type="round" />
    <inkscape:path-effect
       effect="simplify"
       id="path-effect239"
       is_visible="true"
       lpeversion="1"
       steps="1"
       threshold="0.0028332064"
       smooth_angles="0"
       helper_size="0"
       simplify_individual_paths="false"
       simplify_just_coalesce="false"
       step="1" />
    <inkscape:path-effect
       effect="powerstroke"
       id="path-effect234"
       is_visible="true"
       lpeversion="1"
       offset_points="2.13563,0.075169555"
       not_jump="true"
       sort_points="true"
       interpolator_type="CentripetalCatmullRom"
       interpolator_beta="0.75"
       start_linecap_type="round"
       linejoin_type="spiro"
       miter_limit="4"
       scale_width="1"
       end_linecap_type="round" />
    <inkscape:path-effect
       effect="simplify"
       id="path-effect232"
       is_visible="true"
       lpeversion="1"
       steps="1"
       threshold="0.0028332064"
       smooth_angles="0"
       helper_size="0"
       simplify_individual_paths="false"
       simplify_just_coalesce="false"
       step="1" />
    <inkscape:path-effect
       effect="powerstroke"
       id="path-effect227"
       is_visible="true"
       lpeversion="1"
       offset_points="2.1868266,0.075169555"
       not_jump="true"
       sort_points="true"
       interpolator_type="CentripetalCatmullRom"
       interpolator_beta="0.75"
       start_linecap_type="round"
       linejoin_type="spiro"
       miter_limit="4"
       scale_width="1"
       end_linecap_type="round" />
    <inkscape:path-effect
       effect="simplify"
       id="path-effect225"
       is_visible="true"
       lpeversion="1"
       steps="1"
       threshold="0.0028332064"
       smooth_angles="0"
       helper_size="0"
       simplify_individual_paths="false"
       simplify_just_coalesce="false"
       step="1" />
    <inkscape:path-effect
       effect="powerstroke"
       id="path-effect166"
       is_visible="true"
       lpeversion="1"
       offset_points="1.9637935,0.075169555"
       not_jump="true"
       sort_points="true"
       interpolator_type="CentripetalCatmullRom"
       interpolator_beta="0.75"
       start_linecap_type="round"
       linejoin_type="spiro"
       miter_limit="4"
       scale_width="1"
       end_linecap_type="round" />
    <inkscape:path-effect
       effect="simplify"
       id="path-effect164"
       is_visible="true"
       lpeversion="1"
       steps="1"
       threshold="0.0028332064"
       smooth_angles="0"
       helper_size="0"
       simplify_individual_paths="false"
       simplify_just_coalesce="false"
       step="1" />
    <inkscape:path-effect
       effect="powerstroke"
       id="path-effect159"
       is_visible="true"
       lpeversion="1"
       offset_points="2.2611036,0.075169555"
       not_jump="true"
       sort_points="true"
       interpolator_type="CentripetalCatmullRom"
       interpolator_beta="0.75"
       start_linecap_type="round"
       linejoin_type="spiro"
       miter_limit="4"
       scale_width="1"
       end_linecap_type="round" />
    <inkscape:path-effect
       effect="simplify"
       id="path-effect157"
       is_visible="true"
       lpeversion="1"
       steps="1"
       threshold="0.0028332064"
       smooth_angles="0"
       helper_size="0"
       simplify_individual_paths="false"
       simplify_just_coalesce="false"
       step="1" />
    <inkscape:path-effect
       effect="powerstroke"
       id="path-effect152"
       is_visible="true"
       lpeversion="1"
       offset_points="2.826981,0.075169555"
       not_jump="true"
       sort_points="true"
       interpolator_type="CentripetalCatmullRom"
       interpolator_beta="0.75"
       start_linecap_type="round"
       linejoin_type="spiro"
       miter_limit="4"
       scale_width="1"
       end_linecap_type="round" />
    <inkscape:path-effect
       effect="simplify"
       id="path-effect150"
       is_visible="true"
       lpeversion="1"
       steps="1"
       threshold="0.0028332064"
       smooth_angles="0"
       helper_size="0"
       simplify_individual_paths="false"
       simplify_just_coalesce="false"
       step="1" />
    <inkscape:path-effect
       effect="powerstroke"
       id="path-effect145"
       is_visible="true"
       lpeversion="1"
       offset_points="3.8374447,0.075169555"
       not_jump="true"
       sort_points="true"
       interpolator_type="CentripetalCatmullRom"
       interpolator_beta="0.75"
       start_linecap_type="round"
       linejoin_type="spiro"
       miter_limit="4"
       scale_width="1"
       end_linecap_type="round" />
    <inkscape:path-effect
       effect="simplify"
       id="path-effect143"
       is_visible="true"
       lpeversion="1"
       steps="1"
       threshold="0.0028332064"
       smooth_angles="0"
       helper_size="0"
       simplify_individual_paths="false"
       simplify_just_coalesce="false"
       step="1" />
    <inkscape:path-effect
       effect="powerstroke"
       id="path-effect138"
       is_visible="true"
       lpeversion="1"
       offset_points="2.6880907,0.075169555"
       not_jump="true"
       sort_points="true"
       interpolator_type="CentripetalCatmullRom"
       interpolator_beta="0.75"
       start_linecap_type="round"
       linejoin_type="spiro"
       miter_limit="4"
       scale_width="1"
       end_linecap_type="round" />
    <inkscape:path-effect
       effect="simplify"
       id="path-effect136"
       is_visible="true"
       lpeversion="1"
       steps="1"
       threshold="0.0028332064"
       smooth_angles="0"
       helper_size="0"
       simplify_individual_paths="false"
       simplify_just_coalesce="false"
       step="1" />
    <inkscape:path-effect
       effect="powerstroke"
       id="path-effect131"
       is_visible="true"
       lpeversion="1"
       offset_points="1.9940581,0.075169555"
       not_jump="true"
       sort_points="true"
       interpolator_type="CentripetalCatmullRom"
       interpolator_beta="0.75"
       start_linecap_type="round"
       linejoin_type="spiro"
       miter_limit="4"
       scale_width="1"
       end_linecap_type="round" />
    <inkscape:path-effect
       effect="simplify"
       id="path-effect129"
       is_visible="true"
       lpeversion="1"
       steps="1"
       threshold="0.0028332064"
       smooth_angles="0"
       helper_size="0"
       simplify_individual_paths="false"
       simplify_just_coalesce="false"
       step="1" />
  </defs>
  <sodipodi:namedview
     id="base"
     pagecolor="#ffffff"
     bordercolor="#666666"
     borderopacity="1.0"
     inkscape:pageopacity="0.0"
     inkscape:pageshadow="2"
     inkscape:zoom="22.4"
     inkscape:cx="3.1473214"
     inkscape:cy="13.839286"
     inkscape:document-units="mm"
     inkscape:current-layer="layer1"
     showgrid="false"
     fit-margin-top="0"
     fit-margin-left="0"
     fit-margin-right="0"
     fit-margin-bottom="0"
     inkscape:window-width="1920"
     inkscape:window-height="1057"
     inkscape:window-x="1072"
     inkscape:window-y="321"
     inkscape:window-maximized="1"
     showguides="true"
     inkscape:guide-bbox="true"
     inkscape:snap-bbox="true"
     inkscape:bbox-nodes="true"
     inkscape:snap-nodes="false"
     inkscape:snap-others="false"
     inkscape:snap-page="true"
     inkscape:snap-grids="false"
     inkscape:snap-to-guides="false"
     inkscape:snap-global="false"
     inkscape:pagecheckerboard="0"
     inkscape:showpageshadow="2"
     inkscape:deskcolor="#d1d1d1">
    <sodipodi:guide
       position="-6.1806077,9.4988694"
       orientation="0,1"
       id="guide816"
       inkscape:locked="false" />
    <sodipodi:guide
       position="-4.4101637,10.646923"
       orientation="0,1"
       id="guide818"
       inkscape:locked="false" />
    <sodipodi:guide
       position="2.7595724,11.09577"
       orientation="1,0"
       id="guide820"
       inkscape:locked="false" />
    <sodipodi:guide
       position="3.657266,10.942217"
       orientation="1,0"
       id="guide822"
       inkscape:locked="false" />
    <sodipodi:guide
       position="-0.051625511,9.7492301"
       orientation="1,0"
       id="guide1853"
       inkscape:locked="false" />
    <sodipodi:guide
       position="-2.3720169,3.0175836"
       orientation="0,1"
       id="guide1855"
       inkscape:locked="false" />
    <sodipodi:guide
       position="1.1575521,7.838448"
       orientation="0,-1"
       id="guide912"
       inkscape:locked="false" />
  </sodipodi:namedview>
  <metadata
     id="metadata1678">
    <rdf:RDF>
      <cc:Work
         rdf:about="">
        <dc:format>image/svg+xml</dc:format>
        <dc:type
           rdf:resource="http://purl.org/dc/dcmitype/StillImage" />
      </cc:Work>
    </rdf:RDF>
  </metadata>
  <g
     inkscape:label="Layer 1"
     inkscape:groupmode="layer"
     id="layer1"
     transform="translate(17.028496,-147.22856)">
    <path
       d="m -15.797016,149.51151 c 0.0021,0.008 0.0045,0.0157 0.0066,0.023 0.0016,0.005 0.0033,0.0109 0.0047,0.0155 6.3e-4,0.002 0.0014,0.004 0.0024,0.007 4.35e-4,0.001 0.0011,0.003 0.0019,0.005 0.0023,0.005 0.0034,0.007 0.0048,0.01 0.0012,0.002 0.0039,0.007 0.0081,0.0123 0.0021,0.003 0.0058,0.007 0.0109,0.0117 0.0026,0.002 0.0061,0.005 0.01048,0.008 0.0043,0.003 0.0101,0.006 0.01734,0.009 0.0073,0.003 0.01656,0.006 0.02752,0.006 0.01117,8.7e-4 0.02317,-2.2e-4 0.0352,-0.004 0.01194,-0.004 0.02206,-0.01 0.03023,-0.0161 0.008,-0.006 0.01378,-0.0132 0.01789,-0.019 0.0078,-0.011 0.01144,-0.0213 0.01313,-0.0269 0.0018,-0.006 0.0027,-0.0112 0.0031,-0.0145 8.54e-4,-0.006 8.61e-4,-0.0115 8.28e-4,-0.0139 -3.9e-5,-0.003 -1.93e-4,-0.005 -3.18e-4,-0.007 -2.41e-4,-0.003 -5.73e-4,-0.005 -7.79e-4,-0.007 -4.14e-4,-0.003 -8.96e-4,-0.005 -0.0012,-0.007 -3.73e-4,-0.002 -7.84e-4,-0.004 -0.0012,-0.006 -7.96e-4,-0.004 -0.0018,-0.008 -0.0029,-0.0123 -0.002,-0.008 -0.0047,-0.0188 -0.0077,-0.0298 -6.2e-4,-0.002 -0.0013,-0.005 -0.0019,-0.007 -0.0021,-0.007 -0.0046,-0.0162 -0.0073,-0.0246 -0.0015,-0.005 -0.0033,-0.01 -0.0052,-0.0151 -9.12e-4,-0.002 -0.002,-0.005 -0.0033,-0.008 -0.0011,-0.003 -0.0029,-0.007 -0.0053,-0.0109 -0.0012,-0.002 -0.0029,-0.005 -0.0051,-0.008 -0.002,-0.003 -0.0056,-0.008 -0.01076,-0.0134 -0.0026,-0.003 -0.0063,-0.006 -0.01102,-0.01 -0.0046,-0.004 -0.0112,-0.008 -0.01974,-0.0115 -0.0086,-0.004 -0.02,-0.007 -0.0336,-0.008 -0.01393,-5.2e-4 -0.02808,0.002 -0.04131,0.008 -0.01283,0.006 -0.02258,0.0134 -0.02961,0.0207 -0.0068,0.007 -0.01146,0.0141 -0.0145,0.0196 -0.0058,0.0104 -0.0083,0.0196 -0.0095,0.0245 -0.0013,0.005 -0.0019,0.01 -0.0022,0.0131 -3.39e-4,0.003 -4.89e-4,0.006 -5.58e-4,0.008 -1.33e-4,0.005 -1.3e-5,0.009 1.58e-4,0.0121 1.74e-4,0.004 4.46e-4,0.007 7.74e-4,0.0106 6.34e-4,0.007 0.0016,0.015 0.0029,0.0243 0.01766,0.28147 0.05471,0.6027 0.0846,0.9413 0.02651,0.30027 0.04614,0.61696 0.02879,0.93473 -0.01637,0.64853 0.0083,1.28438 0.04769,1.88393 0.04896,0.66075 0.08274,1.21333 0.06724,1.49577 a 0.09308679,0.09308679 90 0 0 0.185894,0.0102 c 0.01616,-0.29444 -0.01901,-0.86559 -0.06742,-1.51895 -0.03912,-0.59549 -0.06347,-1.22529 -0.0474,-1.86354 0.01798,-0.32849 -0.0026,-0.65572 -0.02935,-0.95852 -0.03025,-0.34254 -0.06698,-0.66133 -0.08491,-0.94333 -0.0017,-0.0143 -0.0023,-0.0195 -0.0026,-0.0229 -2.36e-4,-0.003 -1.68e-4,-0.003 -2.35e-4,-2.7e-4 -3.2e-5,0.001 -1.12e-4,0.003 -3.52e-4,0.005 -2.27e-4,0.002 -7.11e-4,0.006 -0.0018,0.0107 -0.001,0.004 -0.0034,0.0129 -0.0089,0.0229 -0.0029,0.005 -0.0074,0.0122 -0.01417,0.0191 -0.0069,0.007 -0.01652,0.0148 -0.02923,0.0204 -0.0131,0.006 -0.02711,0.008 -0.04089,0.008 -0.01346,-5e-4 -0.02471,-0.004 -0.03315,-0.007 -0.0084,-0.004 -0.01481,-0.008 -0.01925,-0.0112 -0.0045,-0.003 -0.008,-0.007 -0.01049,-0.009 -0.0048,-0.005 -0.008,-0.009 -0.0096,-0.0119 -0.0018,-0.003 -0.0031,-0.005 -0.0038,-0.006 -0.0015,-0.003 -0.0023,-0.005 -0.0024,-0.005 4.67e-4,0.001 0.0012,0.004 0.0022,0.007 0.0018,0.006 0.0037,0.0121 0.0054,0.0183 5.33e-4,0.002 0.0011,0.004 0.0016,0.006 0.0026,0.009 0.0048,0.0182 0.0064,0.0247 8.82e-4,0.004 0.0015,0.006 0.0019,0.008 -3.4e-5,-8.2e-4 -2.99e-4,-0.003 -5.04e-4,-0.005 -1.06e-4,-0.001 -2.5e-4,-0.003 -2.86e-4,-0.006 -3.1e-5,-0.002 -3e-5,-0.007 8.1e-4,-0.0135 4.34e-4,-0.003 0.0013,-0.008 0.0031,-0.0144 0.0017,-0.006 0.0053,-0.0158 0.01309,-0.0268 0.0041,-0.006 0.0099,-0.0126 0.01787,-0.019 0.0082,-0.007 0.01827,-0.0123 0.03021,-0.0161 0.01203,-0.004 0.02402,-0.005 0.03517,-0.004 0.01095,8.6e-4 0.02024,0.004 0.02749,0.006 0.0072,0.003 0.01301,0.006 0.0173,0.009 0.0043,0.003 0.0078,0.006 0.01044,0.008 0.0051,0.005 0.0087,0.009 0.0108,0.0116 0.0042,0.005 0.0068,0.01 0.0079,0.0119 0.0013,0.002 0.0023,0.004 0.0028,0.006 0.0017,0.004 6.48e-4,8e-5 -8.09e-4,-0.005 -0.0018,-0.006 -0.0039,-0.0136 -0.006,-0.0209 a 0.09308679,0.09308679 90 0 0 -0.179224,0.0504 z"
       id="path-1"
       inkscape:path-effect="#path-effect9207;#path-effect9209"
       inkscape:original-d="m -15.707404,149.48631 c 0.0418,0.13734 -0.01637,-0.068 -0.01599,-0.0613 0.02615,0.47103 0.09698,0.9451 0.117923,1.41856 0.01228,0.27707 -0.0063,0.55367 -0.007,0.83083 -0.0011,0.40988 0.01343,0.82393 0.03281,1.23335 0.02866,0.60456 0.121685,1.23143 0.08788,1.83476"
       style="fill:#000000;fill-rule:nonzero;stroke:none" />
    <path
       d="m -15.704687,148.81533 c -3.47e-4,-0.0134 -0.0015,-0.0377 -6.87e-4,-0.0538 6.55e-4,-0.0129 0.0024,-0.0211 0.0046,-0.0265 -0.0018,0.005 -0.0068,0.0132 -0.01245,0.0198 -0.0053,0.006 -0.01271,0.0127 -0.02256,0.0179 -0.0095,0.005 -0.02336,0.01 -0.04049,0.01 -0.0014,-1e-5 -0.0027,-5e-5 -0.0041,-1.2e-4 -0.0071,-3.9e-4 -0.01447,-0.002 -0.02191,-0.004 -0.0085,-0.003 -0.01638,-0.007 -0.02335,-0.0114 -0.0077,-0.006 -0.01103,-0.01 -0.01317,-0.0128 -0.0019,-0.003 -0.0029,-0.005 -0.0033,-0.007 -8.08e-4,-0.005 -7.41e-4,-0.007 1.25e-4,-0.01 0.0038,-0.01 0.0076,-0.0147 0.01121,-0.0182 0.0033,-0.003 0.0063,-0.005 0.0079,-0.006 0.0016,-7.9e-4 0.003,-0.001 0.0042,-0.001 0.0012,-2.2e-4 0.0033,-4.2e-4 0.0067,3.3e-4 0.01418,0.005 0.02003,0.008 0.02561,0.0117 0.0055,0.004 0.01017,0.008 0.01396,0.013 0.0074,0.009 0.01064,0.0174 0.0122,0.0227 0.0014,0.005 0.0017,0.009 0.0018,0.01 1.05e-4,0.002 1.31e-4,0.003 -1.58e-4,0.005 0.002,-0.006 0.0049,-0.0109 0.0044,-0.009 -2.62e-4,7.3e-4 -0.0016,0.003 -0.0048,0.006 -0.0034,0.003 -0.0084,0.007 -0.015,0.009 -0.0023,9.2e-4 -0.0046,0.002 -0.007,0.002 -0.0024,6.6e-4 -0.0048,0.001 -0.0072,0.002 -0.01133,0.003 -0.0219,0.003 -0.03051,0.001 -0.0083,-0.001 -0.01418,-0.004 -0.01735,-0.005 -0.0034,-0.002 -0.0048,-0.003 -0.0053,-0.003 -0.0099,-0.009 -0.01643,-0.0232 -0.01888,-0.0347 -0.0025,-0.0118 -0.0016,-0.0224 9.11e-4,-0.0312 -0.0047,0.0164 -0.0068,0.0222 -0.0084,0.0254 -8.73e-4,0.002 -6.83e-4,8.7e-4 3.08e-4,-6e-4 0.0011,-0.002 0.0033,-0.004 0.0068,-0.007 0.0082,-0.007 0.01689,-0.0118 0.02712,-0.0158 0.01022,-0.004 0.02088,-0.006 0.03149,-0.007 0.01045,-6e-4 0.01993,4.4e-4 0.02806,0.002 0.008,0.002 0.01471,0.004 0.01998,0.007 0.01013,0.005 0.01695,0.0101 0.02063,0.0133 0.0039,0.003 0.0067,0.007 0.0086,0.009 l -0.0078,-0.009 c 0.0018,0.002 9.16e-4,9.6e-4 8.76e-4,8.1e-4 -3.17e-4,0.003 -8.49e-4,0.005 -0.0022,0.007 -0.0024,0.004 -0.0045,0.007 -0.0071,0.0106 -0.0025,0.003 -0.0078,0.009 -0.0162,0.0152 -0.0045,0.003 -0.01089,0.007 -0.01906,0.0109 -0.0085,0.004 -0.01942,0.007 -0.03247,0.008 -0.01373,0.001 -0.02816,-1.2e-4 -0.04229,-0.005 -0.0144,-0.005 -0.02598,-0.0116 -0.03474,-0.0188 -0.0052,-0.004 -0.01011,-0.009 -0.01451,-0.0141 -0.0075,-0.009 -0.01213,-0.0175 -0.01494,-0.0246 -0.0029,-0.007 -0.004,-0.0132 -0.0045,-0.0159 -0.0012,-0.008 -3.53e-4,-0.003 -7.2e-5,0.004 a 0.11557988,0.11557988 90 0 0 0.23097,-0.009 c -8.7e-5,-0.002 0.001,-0.01 -0.0025,-0.0321 -0.0013,-0.008 -0.0039,-0.0202 -0.0091,-0.0333 -0.0049,-0.0123 -0.01253,-0.0264 -0.02425,-0.0401 -0.0044,-0.005 -0.0093,-0.01 -0.01451,-0.0141 -0.01102,-0.009 -0.0249,-0.0173 -0.04165,-0.0226 -0.0164,-0.005 -0.03314,-0.007 -0.04917,-0.005 -0.0153,0.001 -0.0285,0.005 -0.03917,0.0101 -0.01034,0.004 -0.01882,0.01 -0.02544,0.0146 -0.01249,0.009 -0.02148,0.019 -0.02734,0.0262 -0.0059,0.007 -0.0107,0.0146 -0.01448,0.0212 -0.01332,0.024 -0.02127,0.0483 -0.02506,0.0727 -0.0037,0.0239 -0.0034,0.0479 2.63e-4,0.071 0.0069,0.0433 0.0264,0.0863 0.05857,0.12088 0.0044,0.005 0.0096,0.0105 0.01565,0.0158 0.008,0.007 0.01953,0.0157 0.03463,0.0228 0.0078,0.004 0.017,0.007 0.02759,0.009 0.01071,0.002 0.02281,0.004 0.03589,0.003 0.01325,-7.6e-4 0.02655,-0.004 0.03939,-0.009 0.01287,-0.005 0.02414,-0.0118 0.03377,-0.0194 0.01585,-0.0129 0.02745,-0.026 0.03661,-0.0389 0.0093,-0.013 0.01618,-0.026 0.02141,-0.0375 0.01064,-0.0245 0.016,-0.0445 0.01957,-0.0587 0.0059,-0.0195 0.0082,-0.0468 0.0026,-0.0747 -0.0054,-0.0269 -0.01882,-0.0561 -0.0422,-0.0794 -0.005,-0.005 -0.01231,-0.0118 -0.02089,-0.0186 -0.0084,-0.007 -0.01893,-0.014 -0.03142,-0.0205 -0.01236,-0.006 -0.02791,-0.0127 -0.04618,-0.016 -0.01853,-0.003 -0.03936,-0.004 -0.0611,0.001 -0.0048,0.001 -0.0096,0.002 -0.01417,0.004 -0.02112,0.008 -0.03895,0.0196 -0.05359,0.0326 -0.01445,0.0129 -0.02555,0.027 -0.03406,0.0403 -0.01666,0.0262 -0.02574,0.0534 -0.03088,0.0744 -0.0034,0.0137 -0.0055,0.0286 -0.0058,0.0438 -3.17e-4,0.0152 0.0011,0.0325 0.0058,0.0504 0.0048,0.0181 0.01351,0.0387 0.02888,0.0578 0.0078,0.01 0.01711,0.0187 0.02795,0.0265 0.01095,0.008 0.02287,0.0141 0.03542,0.0187 0.02968,0.008 0.05102,0.0101 0.07109,0.009 0.02057,-0.001 0.04102,-0.006 0.06029,-0.0135 0.01982,-0.008 0.03923,-0.0193 0.05636,-0.0349 0.01788,-0.0162 0.03294,-0.0366 0.04293,-0.0608 0.0082,-0.0217 0.01176,-0.0404 0.01284,-0.0582 0.0011,-0.0187 -4.16e-4,-0.0373 -0.0044,-0.055 -0.0043,-0.0188 -0.01143,-0.0373 -0.02168,-0.0543 -0.01109,-0.0185 -0.02563,-0.035 -0.04342,-0.0483 -0.01293,-0.009 -0.02371,-0.0144 -0.03509,-0.018 -0.01,-0.003 -0.01985,-0.005 -0.02936,-0.005 -0.0019,-1e-4 -0.0037,-1.6e-4 -0.0055,-1.8e-4 -0.02313,-2e-4 -0.04281,0.006 -0.05766,0.0142 -0.01536,0.008 -0.02765,0.0187 -0.03702,0.0295 -0.0099,0.0114 -0.01813,0.0249 -0.02364,0.04 -0.0135,0.0319 -0.01744,0.0666 -0.01882,0.0901 -0.0016,0.0276 -8.4e-5,0.066 3.9e-5,0.0707 a 0.10312217,0.10312217 90 0 0 0.206174,-0.005 z"
       id="path-1-2"
       inkscape:path-effect="#path-effect9214;#path-effect9216"
       inkscape:original-d="m -15.807774,148.81801 c -0.01534,-0.29987 0.163728,-0.0234 0,0 -0.108066,0.0154 -0.04635,-0.15809 0.01117,-0.14196 0.02371,0.007 0.05151,0.0302 0.04958,0.0548 -0.0028,0.0353 -0.03447,0.11095 -0.06075,0.0872 -0.0923,-0.0835 0.0035,-0.21731 0.0035,-0.11499"
       style="fill:#000000;fill-rule:nonzero;stroke:none" />
  </g>
</svg>
