<?xml version="1.0" encoding="UTF-8" standalone="no"?>
<!-- Created with Inkscape (http://www.inkscape.org/) -->

<svg
   width="2mm"
   height="10mm"
   viewBox="0 0 2.0000001 9.9999994"
   version="1.1"
   id="svg1681"
   inkscape:version="1.2.1 (9c6d41e410, 2022-07-14)"
   sodipodi:docname="lower_i_6.svg"
   inkscape:export-filename="..\..\..\..\Downloads\lower a diff canvas resize 3.0.png"
   inkscape:export-xdpi="96"
   inkscape:export-ydpi="96"
   xmlns:inkscape="http://www.inkscape.org/namespaces/inkscape"
   xmlns:sodipodi="http://sodipodi.sourceforge.net/DTD/sodipodi-0.dtd"
   xmlns="http://www.w3.org/2000/svg"
   xmlns:svg="http://www.w3.org/2000/svg"
   xmlns:rdf="http://www.w3.org/1999/02/22-rdf-syntax-ns#"
   xmlns:cc="http://creativecommons.org/ns#"
   xmlns:dc="http://purl.org/dc/elements/1.1/">
  <defs
     id="defs1675">
    <inkscape:path-effect
       effect="powerstroke"
       id="path-effect562"
       is_visible="true"
       lpeversion="1"
       offset_points="4.106783,0.082705363"
       not_jump="true"
       sort_points="true"
       interpolator_type="CentripetalCatmullRom"
       interpolator_beta="0.75"
       start_linecap_type="round"
       linejoin_type="spiro"
       miter_limit="4"
       scale_width="1"
       end_linecap_type="round" />
    <inkscape:path-effect
       effect="simplify"
       id="path-effect560"
       is_visible="true"
       lpeversion="1"
       steps="1"
       threshold="0.0047745358"
       smooth_angles="0"
       helper_size="0"
       simplify_individual_paths="false"
       simplify_just_coalesce="false"
       step="1" />
    <inkscape:path-effect
       effect="powerstroke"
       id="path-effect508"
       is_visible="true"
       lpeversion="1"
       offset_points="2.6168989,0.084435601 | 13.959441,0.09862355"
       not_jump="true"
       sort_points="true"
       interpolator_type="CentripetalCatmullRom"
       interpolator_beta="0.75"
       start_linecap_type="round"
       linejoin_type="spiro"
       miter_limit="4"
       scale_width="1"
       end_linecap_type="round" />
    <inkscape:path-effect
       effect="simplify"
       id="path-effect506"
       is_visible="true"
       lpeversion="1"
       steps="1"
       threshold="0.0047745358"
       smooth_angles="0"
       helper_size="0"
       simplify_individual_paths="false"
       simplify_just_coalesce="false"
       step="1" />
    <inkscape:path-effect
       effect="powerstroke"
       id="path-effect501"
       is_visible="true"
       lpeversion="1"
       offset_points="0.19125717,0.10537148 | 0.87138816,0.095682146"
       not_jump="true"
       sort_points="true"
       interpolator_type="CentripetalCatmullRom"
       interpolator_beta="0.75"
       start_linecap_type="round"
       linejoin_type="spiro"
       miter_limit="4"
       scale_width="1"
       end_linecap_type="round" />
    <inkscape:path-effect
       effect="simplify"
       id="path-effect499"
       is_visible="true"
       lpeversion="1"
       steps="1"
       threshold="0.0047745358"
       smooth_angles="0"
       helper_size="0"
       simplify_individual_paths="false"
       simplify_just_coalesce="false"
       step="1" />
    <inkscape:path-effect
       effect="powerstroke"
       id="path-effect451"
       is_visible="true"
       lpeversion="1"
       offset_points="2.2582607,0.065749033 | 5.2977762,0.074400222"
       not_jump="true"
       sort_points="true"
       interpolator_type="CentripetalCatmullRom"
       interpolator_beta="0.75"
       start_linecap_type="round"
       linejoin_type="spiro"
       miter_limit="4"
       scale_width="1"
       end_linecap_type="round" />
    <inkscape:path-effect
       effect="simplify"
       id="path-effect449"
       is_visible="true"
       lpeversion="1"
       steps="1"
       threshold="0.0047745358"
       smooth_angles="0"
       helper_size="0"
       simplify_individual_paths="false"
       simplify_just_coalesce="false"
       step="1" />
    <inkscape:path-effect
       effect="powerstroke"
       id="path-effect270"
       is_visible="true"
       lpeversion="1"
       offset_points="2.7861905,0.092126751"
       not_jump="true"
       sort_points="true"
       interpolator_type="CentripetalCatmullRom"
       interpolator_beta="0.75"
       start_linecap_type="round"
       linejoin_type="spiro"
       miter_limit="4"
       scale_width="1"
       end_linecap_type="round" />
    <inkscape:path-effect
       effect="simplify"
       id="path-effect268"
       is_visible="true"
       lpeversion="1"
       steps="1"
       threshold="0.0047745358"
       smooth_angles="0"
       helper_size="0"
       simplify_individual_paths="false"
       simplify_just_coalesce="false"
       step="1" />
    <inkscape:path-effect
       effect="powerstroke"
       id="path-effect263"
       is_visible="true"
       lpeversion="1"
       offset_points="0.64430848,0.11026001"
       not_jump="true"
       sort_points="true"
       interpolator_type="CentripetalCatmullRom"
       interpolator_beta="0.75"
       start_linecap_type="round"
       linejoin_type="spiro"
       miter_limit="4"
       scale_width="1"
       end_linecap_type="round" />
    <inkscape:path-effect
       effect="simplify"
       id="path-effect261"
       is_visible="true"
       lpeversion="1"
       steps="1"
       threshold="0.0047745358"
       smooth_angles="0"
       helper_size="0"
       simplify_individual_paths="false"
       simplify_just_coalesce="false"
       step="1" />
    <inkscape:path-effect
       effect="powerstroke"
       id="path-effect1845"
       is_visible="true"
       lpeversion="1"
       offset_points="1.4617647,0.12041947"
       not_jump="true"
       sort_points="true"
       interpolator_type="CentripetalCatmullRom"
       interpolator_beta="0.75"
       start_linecap_type="round"
       linejoin_type="spiro"
       miter_limit="4"
       scale_width="1"
       end_linecap_type="round" />
    <inkscape:path-effect
       effect="simplify"
       id="path-effect1843"
       is_visible="true"
       lpeversion="1"
       steps="1"
       threshold="0.0035951417"
       smooth_angles="0"
       helper_size="0"
       simplify_individual_paths="false"
       simplify_just_coalesce="false"
       step="1" />
    <inkscape:path-effect
       effect="powerstroke"
       id="path-effect1838"
       is_visible="true"
       lpeversion="1"
       offset_points="1.0147746,0.10228681"
       not_jump="true"
       sort_points="true"
       interpolator_type="CentripetalCatmullRom"
       interpolator_beta="0.75"
       start_linecap_type="round"
       linejoin_type="spiro"
       miter_limit="4"
       scale_width="1"
       end_linecap_type="round" />
    <inkscape:path-effect
       effect="simplify"
       id="path-effect1836"
       is_visible="true"
       lpeversion="1"
       steps="1"
       threshold="0.0035951417"
       smooth_angles="0"
       helper_size="0"
       simplify_individual_paths="false"
       simplify_just_coalesce="false"
       step="1" />
    <inkscape:path-effect
       effect="powerstroke"
       id="path-effect502"
       is_visible="true"
       lpeversion="1"
       offset_points="3.0091841,0.21607495 | 7.3602657,0.17554228 | 9.4159651,0.20236537"
       not_jump="true"
       sort_points="true"
       interpolator_type="CentripetalCatmullRom"
       interpolator_beta="0.75"
       start_linecap_type="round"
       linejoin_type="spiro"
       miter_limit="4"
       scale_width="1"
       end_linecap_type="round" />
    <inkscape:path-effect
       effect="simplify"
       id="path-effect500"
       is_visible="true"
       lpeversion="1"
       steps="1"
       threshold="0.0035951417"
       smooth_angles="0"
       helper_size="0"
       simplify_individual_paths="false"
       simplify_just_coalesce="false"
       step="1" />
    <inkscape:path-effect
       effect="powerstroke"
       id="path-effect241"
       is_visible="true"
       lpeversion="1"
       offset_points="2.6879454,0.34086734"
       not_jump="true"
       sort_points="true"
       interpolator_type="CentripetalCatmullRom"
       interpolator_beta="0.75"
       start_linecap_type="round"
       linejoin_type="spiro"
       miter_limit="4"
       scale_width="1"
       end_linecap_type="round" />
    <inkscape:path-effect
       effect="simplify"
       id="path-effect239"
       is_visible="true"
       lpeversion="1"
       steps="1"
       threshold="0.0028332064"
       smooth_angles="0"
       helper_size="0"
       simplify_individual_paths="false"
       simplify_just_coalesce="false"
       step="1" />
    <inkscape:path-effect
       effect="powerstroke"
       id="path-effect234"
       is_visible="true"
       lpeversion="1"
       offset_points="2.13563,0.075169555"
       not_jump="true"
       sort_points="true"
       interpolator_type="CentripetalCatmullRom"
       interpolator_beta="0.75"
       start_linecap_type="round"
       linejoin_type="spiro"
       miter_limit="4"
       scale_width="1"
       end_linecap_type="round" />
    <inkscape:path-effect
       effect="simplify"
       id="path-effect232"
       is_visible="true"
       lpeversion="1"
       steps="1"
       threshold="0.0028332064"
       smooth_angles="0"
       helper_size="0"
       simplify_individual_paths="false"
       simplify_just_coalesce="false"
       step="1" />
    <inkscape:path-effect
       effect="powerstroke"
       id="path-effect227"
       is_visible="true"
       lpeversion="1"
       offset_points="2.1868266,0.075169555"
       not_jump="true"
       sort_points="true"
       interpolator_type="CentripetalCatmullRom"
       interpolator_beta="0.75"
       start_linecap_type="round"
       linejoin_type="spiro"
       miter_limit="4"
       scale_width="1"
       end_linecap_type="round" />
    <inkscape:path-effect
       effect="simplify"
       id="path-effect225"
       is_visible="true"
       lpeversion="1"
       steps="1"
       threshold="0.0028332064"
       smooth_angles="0"
       helper_size="0"
       simplify_individual_paths="false"
       simplify_just_coalesce="false"
       step="1" />
    <inkscape:path-effect
       effect="powerstroke"
       id="path-effect166"
       is_visible="true"
       lpeversion="1"
       offset_points="1.9637935,0.075169555"
       not_jump="true"
       sort_points="true"
       interpolator_type="CentripetalCatmullRom"
       interpolator_beta="0.75"
       start_linecap_type="round"
       linejoin_type="spiro"
       miter_limit="4"
       scale_width="1"
       end_linecap_type="round" />
    <inkscape:path-effect
       effect="simplify"
       id="path-effect164"
       is_visible="true"
       lpeversion="1"
       steps="1"
       threshold="0.0028332064"
       smooth_angles="0"
       helper_size="0"
       simplify_individual_paths="false"
       simplify_just_coalesce="false"
       step="1" />
    <inkscape:path-effect
       effect="powerstroke"
       id="path-effect159"
       is_visible="true"
       lpeversion="1"
       offset_points="2.2611036,0.075169555"
       not_jump="true"
       sort_points="true"
       interpolator_type="CentripetalCatmullRom"
       interpolator_beta="0.75"
       start_linecap_type="round"
       linejoin_type="spiro"
       miter_limit="4"
       scale_width="1"
       end_linecap_type="round" />
    <inkscape:path-effect
       effect="simplify"
       id="path-effect157"
       is_visible="true"
       lpeversion="1"
       steps="1"
       threshold="0.0028332064"
       smooth_angles="0"
       helper_size="0"
       simplify_individual_paths="false"
       simplify_just_coalesce="false"
       step="1" />
    <inkscape:path-effect
       effect="powerstroke"
       id="path-effect152"
       is_visible="true"
       lpeversion="1"
       offset_points="2.826981,0.075169555"
       not_jump="true"
       sort_points="true"
       interpolator_type="CentripetalCatmullRom"
       interpolator_beta="0.75"
       start_linecap_type="round"
       linejoin_type="spiro"
       miter_limit="4"
       scale_width="1"
       end_linecap_type="round" />
    <inkscape:path-effect
       effect="simplify"
       id="path-effect150"
       is_visible="true"
       lpeversion="1"
       steps="1"
       threshold="0.0028332064"
       smooth_angles="0"
       helper_size="0"
       simplify_individual_paths="false"
       simplify_just_coalesce="false"
       step="1" />
    <inkscape:path-effect
       effect="powerstroke"
       id="path-effect145"
       is_visible="true"
       lpeversion="1"
       offset_points="3.8374447,0.075169555"
       not_jump="true"
       sort_points="true"
       interpolator_type="CentripetalCatmullRom"
       interpolator_beta="0.75"
       start_linecap_type="round"
       linejoin_type="spiro"
       miter_limit="4"
       scale_width="1"
       end_linecap_type="round" />
    <inkscape:path-effect
       effect="simplify"
       id="path-effect143"
       is_visible="true"
       lpeversion="1"
       steps="1"
       threshold="0.0028332064"
       smooth_angles="0"
       helper_size="0"
       simplify_individual_paths="false"
       simplify_just_coalesce="false"
       step="1" />
    <inkscape:path-effect
       effect="powerstroke"
       id="path-effect138"
       is_visible="true"
       lpeversion="1"
       offset_points="2.6880907,0.075169555"
       not_jump="true"
       sort_points="true"
       interpolator_type="CentripetalCatmullRom"
       interpolator_beta="0.75"
       start_linecap_type="round"
       linejoin_type="spiro"
       miter_limit="4"
       scale_width="1"
       end_linecap_type="round" />
    <inkscape:path-effect
       effect="simplify"
       id="path-effect136"
       is_visible="true"
       lpeversion="1"
       steps="1"
       threshold="0.0028332064"
       smooth_angles="0"
       helper_size="0"
       simplify_individual_paths="false"
       simplify_just_coalesce="false"
       step="1" />
    <inkscape:path-effect
       effect="powerstroke"
       id="path-effect131"
       is_visible="true"
       lpeversion="1"
       offset_points="1.9940581,0.075169555"
       not_jump="true"
       sort_points="true"
       interpolator_type="CentripetalCatmullRom"
       interpolator_beta="0.75"
       start_linecap_type="round"
       linejoin_type="spiro"
       miter_limit="4"
       scale_width="1"
       end_linecap_type="round" />
    <inkscape:path-effect
       effect="simplify"
       id="path-effect129"
       is_visible="true"
       lpeversion="1"
       steps="1"
       threshold="0.0028332064"
       smooth_angles="0"
       helper_size="0"
       simplify_individual_paths="false"
       simplify_just_coalesce="false"
       step="1" />
  </defs>
  <sodipodi:namedview
     id="base"
     pagecolor="#ffffff"
     bordercolor="#666666"
     borderopacity="1.0"
     inkscape:pageopacity="0.0"
     inkscape:pageshadow="2"
     inkscape:zoom="22.4"
     inkscape:cx="-0.58035714"
     inkscape:cy="17.321428"
     inkscape:document-units="mm"
     inkscape:current-layer="layer1"
     showgrid="false"
     fit-margin-top="0"
     fit-margin-left="0"
     fit-margin-right="0"
     fit-margin-bottom="0"
     inkscape:window-width="1920"
     inkscape:window-height="1057"
     inkscape:window-x="1072"
     inkscape:window-y="321"
     inkscape:window-maximized="1"
     showguides="true"
     inkscape:guide-bbox="true"
     inkscape:snap-bbox="true"
     inkscape:bbox-nodes="true"
     inkscape:snap-nodes="false"
     inkscape:snap-others="false"
     inkscape:snap-page="true"
     inkscape:snap-grids="false"
     inkscape:snap-to-guides="false"
     inkscape:snap-global="false"
     inkscape:pagecheckerboard="0"
     inkscape:showpageshadow="2"
     inkscape:deskcolor="#d1d1d1">
    <sodipodi:guide
       position="-6.1806077,9.4988694"
       orientation="0,1"
       id="guide816"
       inkscape:locked="false" />
    <sodipodi:guide
       position="-4.4101637,10.646923"
       orientation="0,1"
       id="guide818"
       inkscape:locked="false" />
    <sodipodi:guide
       position="2.7595724,11.09577"
       orientation="1,0"
       id="guide820"
       inkscape:locked="false" />
    <sodipodi:guide
       position="3.657266,10.942217"
       orientation="1,0"
       id="guide822"
       inkscape:locked="false" />
    <sodipodi:guide
       position="-0.051625511,9.7492301"
       orientation="1,0"
       id="guide1853"
       inkscape:locked="false" />
    <sodipodi:guide
       position="-2.3720169,3.0175836"
       orientation="0,1"
       id="guide1855"
       inkscape:locked="false" />
  </sodipodi:namedview>
  <metadata
     id="metadata1678">
    <rdf:RDF>
      <cc:Work
         rdf:about="">
        <dc:format>image/svg+xml</dc:format>
        <dc:type
           rdf:resource="http://purl.org/dc/dcmitype/StillImage" />
      </cc:Work>
    </rdf:RDF>
  </metadata>
  <g
     inkscape:label="Layer 1"
     inkscape:groupmode="layer"
     id="layer1"
     transform="translate(17.028496,-147.22856)">
    <path
       d="m -16.134459,150.63538 c -0.004,0.10612 -0.01456,0.35935 -0.02558,0.637 -0.02077,0.52359 -0.06059,1.81094 -0.06578,2.27049 -0.0023,0.2039 -0.003,0.35445 -0.0031,0.43027 a 0.09568215,0.09568215 90 0 0 0.191364,8e-5 c 3.3e-5,-0.0742 -8.6e-5,-0.22613 0.0031,-0.42779 0.0071,-0.45711 0.06197,-1.74049 0.08499,-2.26424 0.01334,-0.30348 0.02064,-0.50578 0.02561,-0.63789 a 0.10537148,0.10537148 90 0 0 -0.210594,-0.008 z"
       id="path-1"
       inkscape:path-effect="#path-effect499;#path-effect501"
       inkscape:original-d="m -16.029162,150.63934 c -0.04165,1.10369 -0.104038,2.24197 -0.104038,3.33384"
       style="fill:#000000;fill-rule:nonzero;stroke:none" />
    <path
       d="m -16.048793,150.0997 c 0.002,0.001 0.0041,0.003 0.0053,0.005 8.49e-4,0.001 4.75e-4,0.001 1.97e-4,-5.4e-4 -2.56e-4,-0.002 -3.08e-4,-0.005 3.74e-4,-0.008 6.32e-4,-0.003 0.0017,-0.006 0.0024,-0.007 0.0022,-0.004 3.93e-4,-0.002 -9.57e-4,-7.6e-4 -0.0012,9.6e-4 -0.0025,0.002 -0.0042,0.002 -0.0015,4.3e-4 -0.0045,9.3e-4 -0.0086,1.7e-4 -0.0043,-7.8e-4 -0.0091,-0.003 -0.01314,-0.006 -0.0078,-0.008 -0.0099,-0.0104 -0.01157,-0.0137 -0.0017,-0.003 -0.0027,-0.006 -0.0033,-0.009 -0.0011,-0.005 -4.98e-4,-0.008 -6.02e-4,-0.007 -1.49e-4,8.3e-4 -7.62e-4,0.003 -0.0026,0.008 -0.0017,0.004 -0.0041,0.009 -0.007,0.014 -0.0058,0.008 -0.01,0.015 -0.01442,0.0199 -0.0016,0.002 -0.002,0.002 -9.31e-4,0.001 0.0012,-8.2e-4 0.0038,-0.002 0.0076,-0.003 0.0064,-0.002 0.01291,-0.003 0.0195,-0.003 0.0066,-1e-5 0.01309,0.001 0.01947,0.003 -0.0018,-4.5e-4 -0.0038,-9.6e-4 -0.0059,-0.002 l 0.05765,0.053 c -0.01231,-0.0354 -0.01924,-0.0708 -0.01468,-0.10153 -2.28e-4,0.002 -0.0014,0.006 -0.003,0.009 -0.0016,0.003 -0.004,0.007 -0.0077,0.0106 -0.0036,0.004 -0.009,0.008 -0.01644,0.0104 -0.0042,0.002 -0.0088,0.003 -0.0134,0.003 -0.0072,-7.7e-4 -0.01367,-0.004 -0.01892,-0.008 -0.0038,-0.003 -0.0076,-0.007 -0.01045,-0.0134 -0.0029,-0.006 -0.0046,-0.013 -0.0044,-0.0203 5.8e-5,0.01 -7.98e-4,0.0153 -0.0019,0.0187 l 0.0279,-0.0169 c 0.0038,-0.001 0.0081,-0.002 0.01259,-0.003 0.0045,-3.6e-4 0.0086,-6e-5 0.01214,6e-4 0.0069,0.001 0.0106,0.004 0.0118,0.004 9.56e-4,6.2e-4 4.87e-4,4.8e-4 -0.0011,-0.001 -0.0015,-0.002 -0.0033,-0.004 -0.0052,-0.006 -3.4e-5,-1.7e-4 0.001,0.002 0.0016,0.004 5.98e-4,0.002 0.0013,0.005 0.0012,0.009 -1.05e-4,0.004 -0.0011,0.0115 -0.0057,0.0197 -0.0023,0.004 -0.0053,0.008 -0.0089,0.0116 -0.0037,0.004 -0.0076,0.006 -0.01128,0.008 0.004,-0.002 0.0025,-0.002 0.0016,-0.001 -8.77e-4,2.2e-4 -0.003,6.7e-4 -0.0066,3.6e-4 -0.0038,-3.4e-4 -0.0105,-0.002 -0.01835,-0.007 -0.004,-0.003 -0.0079,-0.006 -0.01129,-0.01 -0.0034,-0.004 -0.0059,-0.008 -0.0075,-0.0123 -0.0012,-0.003 -0.0014,-0.005 -0.0013,-0.006 0.0044,-0.007 0.0074,-0.009 0.01167,-0.0101 0.0022,-7.3e-4 0.0056,-7.1e-4 0.0078,-3.9e-4 0.0022,3.2e-4 0.0041,0.001 0.0059,0.002 0.0019,0.001 0.0046,0.003 0.007,0.007 0.0026,0.004 0.0044,0.01 0.0045,0.0156 2.8e-5,-0.003 -7.47e-4,0.001 -0.002,0.004 -0.0012,0.003 -0.0027,0.005 -0.0039,0.006 -0.0013,0.001 -0.0029,0.002 -0.0051,0.003 -9.64e-4,3.6e-4 -0.0021,6.8e-4 -0.0034,9e-4 -7.91e-4,-1.1e-4 -0.0016,-2.5e-4 -0.0024,-4.1e-4 -0.0044,-8.8e-4 -0.0085,-0.002 -0.01209,-0.004 -0.0072,-0.004 -0.01141,-0.008 -0.01363,-0.0117 -0.0022,-0.003 -0.0032,-0.006 -0.0036,-0.008 -2.46e-4,-0.001 -4.57e-4,-0.002 -5.21e-4,-0.004 2.81e-4,-0.001 6.35e-4,-0.002 9.96e-4,-0.003 7.58e-4,-0.002 0.0021,-0.005 0.0048,-0.008 0.0027,-0.003 0.0077,-0.008 0.01549,-0.0107 0.004,-0.002 0.0084,-0.003 0.01316,-0.003 0.0048,-5.1e-4 0.0093,-2.9e-4 0.01345,4.6e-4 0.0016,3e-4 -0.0014,-7.7e-4 -0.0053,-0.003 -0.0039,-0.003 -0.0078,-0.006 -0.01096,-0.0105 0.0022,0.003 0.0058,0.008 0.0085,0.015 0.0027,0.007 0.0043,0.0136 0.0048,0.0206 0.001,0.014 -0.0024,0.0261 -0.0071,0.0352 -0.0047,0.009 -0.0111,0.0163 -0.01827,0.0216 -0.0073,0.005 -0.01644,0.01 -0.02714,0.0115 0.01284,-0.003 0.02096,-0.003 0.03139,-0.002 0.01061,0.002 0.02233,0.005 0.03433,0.0109 0.0057,0.003 0.0045,9.9e-4 0.0038,-0.003 -7.32e-4,-0.004 -3.94e-4,-0.009 0.001,-0.0134 -0.0015,0.005 -0.0022,0.006 -0.0027,0.008 -4.03e-4,9.1e-4 -4.14e-4,3.3e-4 0.0018,-0.003 0.0022,-0.003 0.0071,-0.009 0.01669,-0.0136 0.0049,-0.003 0.01059,-0.005 0.01677,-0.006 0.0062,-0.001 0.01201,-0.001 0.01704,-4e-4 0.0055,-2.9e-4 0.0031,-0.002 -2.29e-4,-0.006 -0.0072,-0.008 -0.01466,-0.0192 -0.02349,-0.0348 -0.0015,-0.003 -0.0043,-0.01 -0.0064,-0.0154 -0.0021,-0.006 -0.0032,-0.0106 -0.0035,-0.0136 -3.81e-4,-0.003 4.1e-5,-0.003 -3.59e-4,-0.002 -5.2e-4,0.002 -0.0018,0.005 -0.0037,0.007 -0.003,0.004 -0.0064,0.007 -0.01,0.01 0.003,-0.002 0.0073,-0.005 0.01222,-0.007 0.0051,-0.002 0.0094,-0.002 0.01219,-0.002 -0.01371,-0.002 -0.02023,-0.004 -0.02689,-0.008 -0.0068,-0.004 -0.01269,-0.009 -0.01752,-0.0142 -0.0048,-0.006 -0.0081,-0.0111 -0.01024,-0.016 -0.0022,-0.005 -0.0033,-0.009 -0.0039,-0.0125 -0.0012,-0.006 -7.88e-4,-0.011 -5.13e-4,-0.013 3.09e-4,-0.002 8.77e-4,-0.005 0.0019,-0.007 -0.005,0.013 -0.01156,0.0237 -0.01826,0.0311 -0.0035,0.004 -0.0066,0.006 -0.0092,0.008 -0.0027,0.002 -0.0049,0.003 -0.0066,0.003 0.007,-0.002 0.01121,-0.002 0.016,-0.002 0.0049,3.1e-4 0.0096,0.001 0.01373,0.003 0.0085,0.003 0.01269,0.008 0.01432,0.009 0.0015,0.002 0.0014,0.002 5.85e-4,3.7e-4 -7.64e-4,-0.002 -0.0014,-0.004 -0.0019,-0.005 a 0.08270536,0.08270536 90 0 0 -0.160922,0.0383 c 0.0027,0.0113 0.0069,0.0242 0.01308,0.0375 0.0056,0.0118 0.01376,0.026 0.02567,0.0394 0.01135,0.0127 0.02723,0.0262 0.04967,0.0349 0.01078,0.004 0.02262,0.007 0.03529,0.008 0.0123,7.8e-4 0.02459,-3.6e-4 0.03659,-0.003 0.02275,-0.006 0.04041,-0.0149 0.05637,-0.0256 0.01515,-0.0101 0.02856,-0.0221 0.04027,-0.0351 0.02187,-0.0243 0.03847,-0.053 0.04964,-0.0823 0.0035,-0.009 0.0063,-0.0197 0.0078,-0.0307 0.0014,-0.0105 0.0019,-0.024 -8.42e-4,-0.0386 -0.0014,-0.007 -0.0036,-0.0156 -0.0074,-0.0242 -0.0038,-0.008 -0.0091,-0.0175 -0.01648,-0.026 -0.0074,-0.008 -0.0164,-0.0159 -0.02688,-0.0217 -0.01031,-0.006 -0.02109,-0.009 -0.03172,-0.0113 -0.03421,-0.003 -0.0605,2.8e-4 -0.08493,0.008 -0.02339,0.008 -0.04643,0.0197 -0.06662,0.0365 -0.0036,0.003 -0.0069,0.006 -0.01,0.01 -0.01635,0.0191 -0.02663,0.0406 -0.03181,0.0628 -0.005,0.0213 -0.005,0.0416 -0.0027,0.0597 0.0022,0.0177 0.0067,0.034 0.01174,0.0483 0.005,0.0141 0.01088,0.0271 0.01655,0.0383 0.01194,0.0213 0.02689,0.0462 0.0474,0.0686 0.01037,0.0113 0.02297,0.0228 0.03818,0.0329 0.01519,0.01 0.03291,0.0184 0.05322,0.0234 0.01969,0.003 0.03091,0.003 0.04219,0.001 0.01123,-0.002 0.02158,-0.006 0.03088,-0.0105 0.01825,-0.009 0.03055,-0.0222 0.03907,-0.0334 0.0082,-0.0108 0.01378,-0.0217 0.01757,-0.0303 0.0038,-0.009 0.0066,-0.0168 0.0085,-0.0227 0.0072,-0.0211 0.0086,-0.0441 0.005,-0.0658 -0.0036,-0.0212 -0.01174,-0.0399 -0.02179,-0.0555 -0.01,-0.0154 -0.02218,-0.0286 -0.03521,-0.0393 -0.01295,-0.0106 -0.02752,-0.0195 -0.04298,-0.0261 -0.02071,-0.01 -0.0469,-0.0185 -0.07513,-0.023 -0.02801,-0.004 -0.05933,-0.005 -0.0914,0.003 -0.0103,0.001 -0.02536,0.008 -0.03764,0.0175 -0.01217,0.009 -0.02272,0.021 -0.03014,0.0355 -0.0074,0.0144 -0.01226,0.0325 -0.01083,0.0524 7.14e-4,0.01 0.003,0.0199 0.0068,0.0295 0.0039,0.01 0.0091,0.0183 0.01539,0.0259 0.01144,0.015 0.02778,0.0309 0.04666,0.0439 0.01879,0.0129 0.04108,0.0237 0.06615,0.0293 0.01444,0.003 0.02586,0.003 0.03719,0.002 0.01131,-0.001 0.02199,-0.004 0.03184,-0.008 0.01961,-0.008 0.03494,-0.0204 0.04628,-0.0334 0.0113,-0.0129 0.01957,-0.0274 0.02514,-0.0419 0.005,-0.013 0.0083,-0.0272 0.0092,-0.0419 0.0018,-0.0166 5.28e-4,-0.0329 -0.003,-0.048 -0.0039,-0.0166 -0.01091,-0.0334 -0.02144,-0.0485 -0.01056,-0.0152 -0.02546,-0.03 -0.04527,-0.0405 -0.0099,-0.005 -0.02084,-0.009 -0.03253,-0.0116 -0.0089,-0.002 -0.01803,-0.003 -0.02712,-0.002 -0.02027,-9.5e-4 -0.03982,0.002 -0.05737,0.009 -0.01968,0.007 -0.03731,0.0187 -0.05191,0.0328 -0.01463,0.0141 -0.02682,0.0316 -0.03483,0.0517 -0.0081,0.0203 -0.01185,0.0432 -0.0093,0.067 -5.5e-5,0.0182 0.0076,0.0418 0.01978,0.0615 0.01208,0.0195 0.02826,0.0348 0.04575,0.0457 0.01753,0.011 0.03734,0.0183 0.05791,0.0213 0.02071,0.003 0.04311,0.002 0.06516,-0.005 0.02127,-0.006 0.04084,-0.0186 0.05635,-0.0334 0.01546,-0.0148 0.02707,-0.0322 0.03499,-0.0503 0.008,-0.0182 0.01261,-0.0381 0.01333,-0.0584 7.26e-4,-0.0204 -0.0025,-0.0421 -0.01125,-0.063 -0.0045,-0.0109 -0.01074,-0.0213 -0.01856,-0.0306 -0.0078,-0.009 -0.0168,-0.017 -0.02632,-0.0231 -0.019,-0.0121 -0.03873,-0.0172 -0.05625,-0.0188 -0.01733,-0.002 -0.03387,3.8e-4 -0.04839,0.004 -0.01464,0.004 -0.02918,0.01 -0.04242,0.018 -0.0041,0.002 -0.0137,0.009 -0.02217,0.0167 -0.0085,0.008 -0.01539,0.0173 -0.02077,0.027 -0.01078,0.0194 -0.01477,0.0394 -0.01519,0.0568 -4.27e-4,0.0175 0.0027,0.0341 0.0076,0.0486 0.005,0.0147 0.01257,0.029 0.02257,0.0418 0.0033,0.005 0.01005,0.0132 0.01806,0.0216 0.008,0.008 0.01813,0.0175 0.03043,0.0255 0.01241,0.008 0.02858,0.016 0.04808,0.0196 0.0099,0.002 0.02053,0.003 0.03158,0.002 0.01114,-9.1e-4 0.02209,-0.003 0.03263,-0.007 0.0049,-0.002 0.0098,-0.004 0.01423,-0.007 0.0045,-0.003 0.0084,-0.006 0.01229,-0.01 0.01175,-0.0108 0.02099,-0.0227 0.02818,-0.0348 0.0073,-0.0122 0.01249,-0.0245 0.01626,-0.0363 0.0076,-0.0238 0.0099,-0.0475 0.0097,-0.0677 5.55e-4,-0.0172 -0.004,-0.0365 -0.01228,-0.0534 -0.0083,-0.017 -0.0199,-0.0309 -0.03301,-0.0418 -0.02414,-0.0199 -0.05533,-0.0308 -0.08735,-0.0295 -0.0157,-5.2e-4 -0.03076,0.002 -0.0445,0.007 -0.01672,0.006 -0.03038,0.016 -0.04099,0.0265 -0.01086,0.0108 -0.0191,0.0229 -0.02501,0.0352 -0.0061,0.0126 -0.01014,0.0263 -0.01186,0.0403 -0.01003,0.0674 0.0065,0.1326 0.02233,0.17802 0.0023,0.007 0.0046,0.0131 0.0079,0.0192 0.0033,0.006 0.0074,0.0118 0.01252,0.0165 0.0051,0.005 0.01109,0.008 0.01746,0.0111 0.0064,0.003 0.0131,0.005 0.01981,0.006 0.0022,5.6e-4 0.0042,0.001 0.0059,0.002 0.0066,0.002 0.01333,0.003 0.02016,0.003 0.0068,1.1e-4 0.01359,-0.001 0.02023,-0.003 0.01821,-0.004 0.03368,-0.012 0.04647,-0.0206 0.01286,-0.009 0.02311,-0.0185 0.03107,-0.0273 0.01522,-0.0168 0.02758,-0.0367 0.03317,-0.0452 0.0079,-0.0137 0.01336,-0.0243 0.01827,-0.0361 0.005,-0.012 0.0099,-0.0264 0.01272,-0.0422 0.003,-0.0166 0.004,-0.036 -5.52e-4,-0.0569 -0.0023,-0.0108 -0.0061,-0.0217 -0.01162,-0.0323 -0.0056,-0.0108 -0.01274,-0.0207 -0.02114,-0.0295 -0.02563,-0.0227 -0.04851,-0.0326 -0.07098,-0.0368 -0.02329,-0.004 -0.04571,-0.002 -0.06527,0.003 -0.02076,0.006 -0.03962,0.0157 -0.05547,0.0284 -0.01705,0.0137 -0.03122,0.0311 -0.0409,0.0514 -0.0079,0.0124 -0.01516,0.033 -0.01907,0.0524 -0.0043,0.0216 -0.0049,0.0433 -0.002,0.0638 0.0033,0.0235 0.01118,0.0457 0.02351,0.0654 0.01502,0.0239 0.03512,0.0415 0.0571,0.0532 a 0.08270536,0.08270536 90 0 0 0.07769,-0.14602 z"
       id="path-1-6"
       inkscape:path-effect="#path-effect560;#path-effect562"
       inkscape:original-d="m -16.087639,150.17271 c -0.07593,-0.0407 -0.03018,-0.18717 0.05516,-0.16131 0.08599,0.0261 -0.02428,0.18088 -0.05516,0.16131 -0.0042,-0.003 -0.05297,-0.17102 0.01466,-0.17711 0.0813,-0.007 0.05889,0.0829 0.03701,0.11281 -0.03316,0.0453 -0.14851,-0.0846 -0.04259,-0.10654 0.07874,-0.0163 0.06555,0.12178 -0.01606,0.11771 -0.08746,-0.004 -0.07773,-0.13493 0.01955,-0.12398 0.06553,0.007 0.04587,0.1524 -0.0391,0.0984 -0.165246,-0.10509 0.218166,-0.084 0.124869,0.0662 -0.04448,0.0716 -0.1983,-0.14699 -0.101824,-0.19695 0.01072,-0.006 0.05863,-0.0249 0.07681,-0.0125 0.04514,0.0307 -0.102997,0.22505 -0.143837,0.0755"
       style="fill:#000000;fill-rule:nonzero;stroke:none"
       sodipodi:nodetypes="ccccccccccccc" />
  </g>
</svg>
