<?xml version="1.0" encoding="UTF-8" standalone="no"?>
<!-- Created with Inkscape (http://www.inkscape.org/) -->

<svg
   width="2mm"
   height="10mm"
   viewBox="0 0 2.0000001 9.9999994"
   version="1.1"
   id="svg1681"
   inkscape:version="1.2.1 (9c6d41e410, 2022-07-14)"
   sodipodi:docname="lower_i_4.svg"
   inkscape:export-filename="..\..\..\..\Downloads\lower a diff canvas resize 3.0.png"
   inkscape:export-xdpi="96"
   inkscape:export-ydpi="96"
   xmlns:inkscape="http://www.inkscape.org/namespaces/inkscape"
   xmlns:sodipodi="http://sodipodi.sourceforge.net/DTD/sodipodi-0.dtd"
   xmlns="http://www.w3.org/2000/svg"
   xmlns:svg="http://www.w3.org/2000/svg"
   xmlns:rdf="http://www.w3.org/1999/02/22-rdf-syntax-ns#"
   xmlns:cc="http://creativecommons.org/ns#"
   xmlns:dc="http://purl.org/dc/elements/1.1/">
  <defs
     id="defs1675">
    <inkscape:path-effect
       effect="powerstroke"
       id="path-effect508"
       is_visible="true"
       lpeversion="1"
       offset_points="2.6168989,0.084435601 | 13.959441,0.09862355"
       not_jump="true"
       sort_points="true"
       interpolator_type="CentripetalCatmullRom"
       interpolator_beta="0.75"
       start_linecap_type="round"
       linejoin_type="spiro"
       miter_limit="4"
       scale_width="1"
       end_linecap_type="round" />
    <inkscape:path-effect
       effect="simplify"
       id="path-effect506"
       is_visible="true"
       lpeversion="1"
       steps="1"
       threshold="0.0047745358"
       smooth_angles="0"
       helper_size="0"
       simplify_individual_paths="false"
       simplify_just_coalesce="false"
       step="1" />
    <inkscape:path-effect
       effect="powerstroke"
       id="path-effect501"
       is_visible="true"
       lpeversion="1"
       offset_points="0.19125717,0.10537148 | 0.87138816,0.095682146"
       not_jump="true"
       sort_points="true"
       interpolator_type="CentripetalCatmullRom"
       interpolator_beta="0.75"
       start_linecap_type="round"
       linejoin_type="spiro"
       miter_limit="4"
       scale_width="1"
       end_linecap_type="round" />
    <inkscape:path-effect
       effect="simplify"
       id="path-effect499"
       is_visible="true"
       lpeversion="1"
       steps="1"
       threshold="0.0047745358"
       smooth_angles="0"
       helper_size="0"
       simplify_individual_paths="false"
       simplify_just_coalesce="false"
       step="1" />
    <inkscape:path-effect
       effect="powerstroke"
       id="path-effect451"
       is_visible="true"
       lpeversion="1"
       offset_points="2.2582607,0.065749033 | 5.2977762,0.074400222"
       not_jump="true"
       sort_points="true"
       interpolator_type="CentripetalCatmullRom"
       interpolator_beta="0.75"
       start_linecap_type="round"
       linejoin_type="spiro"
       miter_limit="4"
       scale_width="1"
       end_linecap_type="round" />
    <inkscape:path-effect
       effect="simplify"
       id="path-effect449"
       is_visible="true"
       lpeversion="1"
       steps="1"
       threshold="0.0047745358"
       smooth_angles="0"
       helper_size="0"
       simplify_individual_paths="false"
       simplify_just_coalesce="false"
       step="1" />
    <inkscape:path-effect
       effect="powerstroke"
       id="path-effect270"
       is_visible="true"
       lpeversion="1"
       offset_points="2.7861905,0.092126751"
       not_jump="true"
       sort_points="true"
       interpolator_type="CentripetalCatmullRom"
       interpolator_beta="0.75"
       start_linecap_type="round"
       linejoin_type="spiro"
       miter_limit="4"
       scale_width="1"
       end_linecap_type="round" />
    <inkscape:path-effect
       effect="simplify"
       id="path-effect268"
       is_visible="true"
       lpeversion="1"
       steps="1"
       threshold="0.0047745358"
       smooth_angles="0"
       helper_size="0"
       simplify_individual_paths="false"
       simplify_just_coalesce="false"
       step="1" />
    <inkscape:path-effect
       effect="powerstroke"
       id="path-effect263"
       is_visible="true"
       lpeversion="1"
       offset_points="0.64430848,0.11026001"
       not_jump="true"
       sort_points="true"
       interpolator_type="CentripetalCatmullRom"
       interpolator_beta="0.75"
       start_linecap_type="round"
       linejoin_type="spiro"
       miter_limit="4"
       scale_width="1"
       end_linecap_type="round" />
    <inkscape:path-effect
       effect="simplify"
       id="path-effect261"
       is_visible="true"
       lpeversion="1"
       steps="1"
       threshold="0.0047745358"
       smooth_angles="0"
       helper_size="0"
       simplify_individual_paths="false"
       simplify_just_coalesce="false"
       step="1" />
    <inkscape:path-effect
       effect="powerstroke"
       id="path-effect1845"
       is_visible="true"
       lpeversion="1"
       offset_points="1.4617647,0.12041947"
       not_jump="true"
       sort_points="true"
       interpolator_type="CentripetalCatmullRom"
       interpolator_beta="0.75"
       start_linecap_type="round"
       linejoin_type="spiro"
       miter_limit="4"
       scale_width="1"
       end_linecap_type="round" />
    <inkscape:path-effect
       effect="simplify"
       id="path-effect1843"
       is_visible="true"
       lpeversion="1"
       steps="1"
       threshold="0.0035951417"
       smooth_angles="0"
       helper_size="0"
       simplify_individual_paths="false"
       simplify_just_coalesce="false"
       step="1" />
    <inkscape:path-effect
       effect="powerstroke"
       id="path-effect1838"
       is_visible="true"
       lpeversion="1"
       offset_points="1.0147746,0.10228681"
       not_jump="true"
       sort_points="true"
       interpolator_type="CentripetalCatmullRom"
       interpolator_beta="0.75"
       start_linecap_type="round"
       linejoin_type="spiro"
       miter_limit="4"
       scale_width="1"
       end_linecap_type="round" />
    <inkscape:path-effect
       effect="simplify"
       id="path-effect1836"
       is_visible="true"
       lpeversion="1"
       steps="1"
       threshold="0.0035951417"
       smooth_angles="0"
       helper_size="0"
       simplify_individual_paths="false"
       simplify_just_coalesce="false"
       step="1" />
    <inkscape:path-effect
       effect="powerstroke"
       id="path-effect502"
       is_visible="true"
       lpeversion="1"
       offset_points="3.0091841,0.21607495 | 7.3602657,0.17554228 | 9.4159651,0.20236537"
       not_jump="true"
       sort_points="true"
       interpolator_type="CentripetalCatmullRom"
       interpolator_beta="0.75"
       start_linecap_type="round"
       linejoin_type="spiro"
       miter_limit="4"
       scale_width="1"
       end_linecap_type="round" />
    <inkscape:path-effect
       effect="simplify"
       id="path-effect500"
       is_visible="true"
       lpeversion="1"
       steps="1"
       threshold="0.0035951417"
       smooth_angles="0"
       helper_size="0"
       simplify_individual_paths="false"
       simplify_just_coalesce="false"
       step="1" />
    <inkscape:path-effect
       effect="powerstroke"
       id="path-effect241"
       is_visible="true"
       lpeversion="1"
       offset_points="2.6879454,0.34086734"
       not_jump="true"
       sort_points="true"
       interpolator_type="CentripetalCatmullRom"
       interpolator_beta="0.75"
       start_linecap_type="round"
       linejoin_type="spiro"
       miter_limit="4"
       scale_width="1"
       end_linecap_type="round" />
    <inkscape:path-effect
       effect="simplify"
       id="path-effect239"
       is_visible="true"
       lpeversion="1"
       steps="1"
       threshold="0.0028332064"
       smooth_angles="0"
       helper_size="0"
       simplify_individual_paths="false"
       simplify_just_coalesce="false"
       step="1" />
    <inkscape:path-effect
       effect="powerstroke"
       id="path-effect234"
       is_visible="true"
       lpeversion="1"
       offset_points="2.13563,0.075169555"
       not_jump="true"
       sort_points="true"
       interpolator_type="CentripetalCatmullRom"
       interpolator_beta="0.75"
       start_linecap_type="round"
       linejoin_type="spiro"
       miter_limit="4"
       scale_width="1"
       end_linecap_type="round" />
    <inkscape:path-effect
       effect="simplify"
       id="path-effect232"
       is_visible="true"
       lpeversion="1"
       steps="1"
       threshold="0.0028332064"
       smooth_angles="0"
       helper_size="0"
       simplify_individual_paths="false"
       simplify_just_coalesce="false"
       step="1" />
    <inkscape:path-effect
       effect="powerstroke"
       id="path-effect227"
       is_visible="true"
       lpeversion="1"
       offset_points="2.1868266,0.075169555"
       not_jump="true"
       sort_points="true"
       interpolator_type="CentripetalCatmullRom"
       interpolator_beta="0.75"
       start_linecap_type="round"
       linejoin_type="spiro"
       miter_limit="4"
       scale_width="1"
       end_linecap_type="round" />
    <inkscape:path-effect
       effect="simplify"
       id="path-effect225"
       is_visible="true"
       lpeversion="1"
       steps="1"
       threshold="0.0028332064"
       smooth_angles="0"
       helper_size="0"
       simplify_individual_paths="false"
       simplify_just_coalesce="false"
       step="1" />
    <inkscape:path-effect
       effect="powerstroke"
       id="path-effect166"
       is_visible="true"
       lpeversion="1"
       offset_points="1.9637935,0.075169555"
       not_jump="true"
       sort_points="true"
       interpolator_type="CentripetalCatmullRom"
       interpolator_beta="0.75"
       start_linecap_type="round"
       linejoin_type="spiro"
       miter_limit="4"
       scale_width="1"
       end_linecap_type="round" />
    <inkscape:path-effect
       effect="simplify"
       id="path-effect164"
       is_visible="true"
       lpeversion="1"
       steps="1"
       threshold="0.0028332064"
       smooth_angles="0"
       helper_size="0"
       simplify_individual_paths="false"
       simplify_just_coalesce="false"
       step="1" />
    <inkscape:path-effect
       effect="powerstroke"
       id="path-effect159"
       is_visible="true"
       lpeversion="1"
       offset_points="2.2611036,0.075169555"
       not_jump="true"
       sort_points="true"
       interpolator_type="CentripetalCatmullRom"
       interpolator_beta="0.75"
       start_linecap_type="round"
       linejoin_type="spiro"
       miter_limit="4"
       scale_width="1"
       end_linecap_type="round" />
    <inkscape:path-effect
       effect="simplify"
       id="path-effect157"
       is_visible="true"
       lpeversion="1"
       steps="1"
       threshold="0.0028332064"
       smooth_angles="0"
       helper_size="0"
       simplify_individual_paths="false"
       simplify_just_coalesce="false"
       step="1" />
    <inkscape:path-effect
       effect="powerstroke"
       id="path-effect152"
       is_visible="true"
       lpeversion="1"
       offset_points="2.826981,0.075169555"
       not_jump="true"
       sort_points="true"
       interpolator_type="CentripetalCatmullRom"
       interpolator_beta="0.75"
       start_linecap_type="round"
       linejoin_type="spiro"
       miter_limit="4"
       scale_width="1"
       end_linecap_type="round" />
    <inkscape:path-effect
       effect="simplify"
       id="path-effect150"
       is_visible="true"
       lpeversion="1"
       steps="1"
       threshold="0.0028332064"
       smooth_angles="0"
       helper_size="0"
       simplify_individual_paths="false"
       simplify_just_coalesce="false"
       step="1" />
    <inkscape:path-effect
       effect="powerstroke"
       id="path-effect145"
       is_visible="true"
       lpeversion="1"
       offset_points="3.8374447,0.075169555"
       not_jump="true"
       sort_points="true"
       interpolator_type="CentripetalCatmullRom"
       interpolator_beta="0.75"
       start_linecap_type="round"
       linejoin_type="spiro"
       miter_limit="4"
       scale_width="1"
       end_linecap_type="round" />
    <inkscape:path-effect
       effect="simplify"
       id="path-effect143"
       is_visible="true"
       lpeversion="1"
       steps="1"
       threshold="0.0028332064"
       smooth_angles="0"
       helper_size="0"
       simplify_individual_paths="false"
       simplify_just_coalesce="false"
       step="1" />
    <inkscape:path-effect
       effect="powerstroke"
       id="path-effect138"
       is_visible="true"
       lpeversion="1"
       offset_points="2.6880907,0.075169555"
       not_jump="true"
       sort_points="true"
       interpolator_type="CentripetalCatmullRom"
       interpolator_beta="0.75"
       start_linecap_type="round"
       linejoin_type="spiro"
       miter_limit="4"
       scale_width="1"
       end_linecap_type="round" />
    <inkscape:path-effect
       effect="simplify"
       id="path-effect136"
       is_visible="true"
       lpeversion="1"
       steps="1"
       threshold="0.0028332064"
       smooth_angles="0"
       helper_size="0"
       simplify_individual_paths="false"
       simplify_just_coalesce="false"
       step="1" />
    <inkscape:path-effect
       effect="powerstroke"
       id="path-effect131"
       is_visible="true"
       lpeversion="1"
       offset_points="1.9940581,0.075169555"
       not_jump="true"
       sort_points="true"
       interpolator_type="CentripetalCatmullRom"
       interpolator_beta="0.75"
       start_linecap_type="round"
       linejoin_type="spiro"
       miter_limit="4"
       scale_width="1"
       end_linecap_type="round" />
    <inkscape:path-effect
       effect="simplify"
       id="path-effect129"
       is_visible="true"
       lpeversion="1"
       steps="1"
       threshold="0.0028332064"
       smooth_angles="0"
       helper_size="0"
       simplify_individual_paths="false"
       simplify_just_coalesce="false"
       step="1" />
  </defs>
  <sodipodi:namedview
     id="base"
     pagecolor="#ffffff"
     bordercolor="#666666"
     borderopacity="1.0"
     inkscape:pageopacity="0.0"
     inkscape:pageshadow="2"
     inkscape:zoom="22.4"
     inkscape:cx="-0.58035714"
     inkscape:cy="17.321428"
     inkscape:document-units="mm"
     inkscape:current-layer="layer1"
     showgrid="false"
     fit-margin-top="0"
     fit-margin-left="0"
     fit-margin-right="0"
     fit-margin-bottom="0"
     inkscape:window-width="1920"
     inkscape:window-height="1057"
     inkscape:window-x="1072"
     inkscape:window-y="321"
     inkscape:window-maximized="1"
     showguides="true"
     inkscape:guide-bbox="true"
     inkscape:snap-bbox="true"
     inkscape:bbox-nodes="true"
     inkscape:snap-nodes="false"
     inkscape:snap-others="false"
     inkscape:snap-page="true"
     inkscape:snap-grids="false"
     inkscape:snap-to-guides="false"
     inkscape:snap-global="false"
     inkscape:pagecheckerboard="0"
     inkscape:showpageshadow="2"
     inkscape:deskcolor="#d1d1d1">
    <sodipodi:guide
       position="-6.1806077,9.4988694"
       orientation="0,1"
       id="guide816"
       inkscape:locked="false" />
    <sodipodi:guide
       position="-4.4101637,10.646923"
       orientation="0,1"
       id="guide818"
       inkscape:locked="false" />
    <sodipodi:guide
       position="2.7595724,11.09577"
       orientation="1,0"
       id="guide820"
       inkscape:locked="false" />
    <sodipodi:guide
       position="3.657266,10.942217"
       orientation="1,0"
       id="guide822"
       inkscape:locked="false" />
    <sodipodi:guide
       position="-0.051625511,9.7492301"
       orientation="1,0"
       id="guide1853"
       inkscape:locked="false" />
    <sodipodi:guide
       position="-2.3720169,3.0175836"
       orientation="0,1"
       id="guide1855"
       inkscape:locked="false" />
  </sodipodi:namedview>
  <metadata
     id="metadata1678">
    <rdf:RDF>
      <cc:Work
         rdf:about="">
        <dc:format>image/svg+xml</dc:format>
        <dc:type
           rdf:resource="http://purl.org/dc/dcmitype/StillImage" />
      </cc:Work>
    </rdf:RDF>
  </metadata>
  <g
     inkscape:label="Layer 1"
     inkscape:groupmode="layer"
     id="layer1"
     transform="translate(17.028496,-147.22856)">
    <path
       d="m -16.169894,150.78893 c -0.004,0.10612 -0.01456,0.35935 -0.02558,0.637 -0.02077,0.52359 -0.06059,1.81094 -0.06578,2.27049 -0.0023,0.2039 -0.003,0.35445 -0.0031,0.43027 a 0.09568215,0.09568215 90 0 0 0.191364,8e-5 c 3.3e-5,-0.0742 -8.6e-5,-0.22613 0.0031,-0.42779 0.0071,-0.45711 0.06197,-1.74049 0.08499,-2.26424 0.01334,-0.30348 0.02064,-0.50578 0.02561,-0.63789 a 0.10537148,0.10537148 90 0 0 -0.210594,-0.008 z"
       id="path-1"
       inkscape:path-effect="#path-effect499;#path-effect501"
       inkscape:original-d="m -16.064597,150.79289 c -0.04165,1.10369 -0.104038,2.24197 -0.104038,3.33384"
       style="fill:#000000;fill-rule:nonzero;stroke:none" />
    <path
       d="m -16.093951,150.12398 c 0.007,0.002 0.01514,0.006 0.02206,0.0138 0.0052,0.006 0.0085,0.0114 0.01026,0.0165 0.0015,0.004 0.002,0.008 0.002,0.0113 7e-6,0.003 -3.74e-4,0.006 -0.0016,0.01 0.0026,-0.009 0.0056,-0.0156 0.0092,-0.0204 0.0016,-0.002 0.0029,-0.003 0.0038,-0.004 -0.0092,0.004 -0.02195,0.005 -0.03365,0.002 -0.01073,-0.002 -0.0189,-0.007 -0.02454,-0.0121 -0.0027,-0.002 -0.005,-0.005 -0.007,-0.008 -0.0022,-0.003 -0.0043,-0.006 -0.0059,-0.0104 -0.003,-0.007 -0.0051,-0.0164 -0.0037,-0.0278 -9.36e-4,0.007 -0.003,0.0139 -0.0074,0.0218 -0.0039,0.007 -0.0094,0.0146 -0.01633,0.0213 0.002,-0.002 0.0041,-0.004 0.0066,-0.006 0.0023,-0.002 0.0067,-0.004 0.01357,-0.006 0.0035,-0.001 0.0082,-0.002 0.01389,-0.003 0.0057,-4.5e-4 0.01261,-2.9e-4 0.02031,0.001 0.0077,0.002 0.0156,0.005 0.02304,0.009 0.0073,0.005 0.01323,0.01 0.01778,0.0154 -0.0019,-0.003 -0.0011,-8.7e-4 -7.4e-4,8.4e-4 -1.35e-4,0.005 -6.84e-4,0.006 -0.0018,0.008 0.0043,-0.006 0.0075,-0.009 0.0099,-0.011 0.0023,-0.002 0.0025,-8.1e-4 4.67e-4,-6e-5 -0.006,0.002 -0.01159,0.002 -0.0171,0.002 -0.0054,-10e-6 -0.01251,-6.8e-4 -0.02059,-0.003 -0.0083,-0.003 -0.01887,-0.007 -0.02929,-0.0171 -0.0053,-0.005 -0.01016,-0.0107 -0.01429,-0.0175 -0.0041,-0.007 -0.0071,-0.0141 -0.009,-0.0214 -8.46e-4,-0.003 -0.0018,-0.006 -0.0023,-0.01 -5.51e-4,-0.003 -5.84e-4,-0.007 -4.31e-4,-0.01 -1.61e-4,0.004 -8.06e-4,0.009 -0.0029,0.0178 -0.0023,0.01 -0.0051,0.0185 -0.0093,0.033 -4.4e-4,1e-4 -0.0019,0.004 -0.0036,0.008 -0.0015,0.003 -0.0025,0.005 -0.0026,0.005 -2.1e-5,-2e-4 0.0011,-0.003 0.0046,-0.006 0.0037,-0.004 0.0091,-0.008 0.01609,-0.0105 0.01545,-0.005 0.02247,-0.006 0.02901,-0.005 0.0066,1.6e-4 0.01408,0.001 0.02198,0.004 0.008,0.003 0.0174,0.008 0.02617,0.0167 0.0092,0.009 0.01639,0.0205 0.02032,0.0337 -3.09e-4,-0.002 -8.42e-4,-0.006 4.38e-4,-0.0135 0.0014,-0.008 0.0043,-0.0184 0.0091,-0.0303 -9.2e-4,0.003 1.18e-4,9.2e-4 4.21e-4,5.7e-4 3.09e-4,-3.6e-4 -1.35e-4,9.2e-4 -0.0026,0.004 -0.0025,0.003 -0.0075,0.009 -0.01609,0.0136 -0.0094,0.006 -0.02089,0.009 -0.03309,0.01 -0.0039,1.5e-4 -0.0078,-2e-5 -0.01176,-3.4e-4 -0.01375,-0.001 -0.02653,-0.006 -0.03683,-0.0139 -0.01016,-0.008 -0.01624,-0.016 -0.01999,-0.0232 -0.0038,-0.007 -0.0056,-0.0142 -0.0063,-0.0203 -6.45e-4,-0.005 -5.48e-4,-0.0114 6.51e-4,-0.0178 -2.22e-4,-3.7e-4 0.0015,-0.005 0.0031,-0.008 0.0017,-0.003 0.0044,-0.007 0.009,-0.0117 0.0049,-0.005 0.0129,-0.0104 0.02528,-0.0138 0.0063,-0.002 0.01326,-0.003 0.02063,-0.003 0.0074,2e-4 0.01435,0.002 0.02053,0.004 0.0088,0.003 0.01637,0.008 0.022,0.014 0.0056,0.006 0.0093,0.0119 0.01161,0.0181 0.0023,0.006 0.0036,0.0131 0.0032,0.0206 -2.77e-4,0.006 -0.0016,0.0127 -0.0044,0.0193 -0.0033,0.006 -0.0073,0.0114 -0.01113,0.0154 -0.0053,0.005 -0.01204,0.0102 -0.02054,0.0138 -0.0088,0.004 -0.02105,0.007 -0.03565,0.005 -0.0075,-8.4e-4 -0.01508,-0.003 -0.02242,-0.006 -0.005,-0.002 -0.0096,-0.005 -0.01366,-0.008 -0.0026,-0.002 -0.0049,-0.004 -0.007,-0.007 -0.0031,-0.004 -0.0066,-0.009 -0.0095,-0.0156 -0.0031,-0.007 -0.0058,-0.0175 -0.0055,-0.0299 3.28e-4,-0.0137 0.0044,-0.0271 0.01131,-0.0384 0.0058,-0.009 0.01133,-0.0139 0.01588,-0.0169 0.0049,-0.003 0.0095,-0.005 0.013,-0.006 0.0041,-0.001 0.0081,-0.001 0.01212,-0.001 0.005,3.7e-4 0.01046,0.002 0.01595,0.004 a 0.09862355,0.09862355 90 0 0 -0.08298,0.17894 c 0.01563,0.007 0.03346,0.0121 0.05283,0.0136 0.01591,0.001 0.03318,-2e-5 0.0508,-0.004 0.01546,-0.004 0.03221,-0.0106 0.04831,-0.0214 0.01473,-0.01 0.0297,-0.0236 0.04163,-0.0422 0.01226,-0.0199 0.01843,-0.0407 0.01892,-0.0622 4.58e-4,-0.0197 -0.0039,-0.0373 -0.01005,-0.0518 -0.0058,-0.0138 -0.01359,-0.0256 -0.02184,-0.0353 -0.0067,-0.008 -0.01445,-0.0153 -0.0229,-0.0217 -0.0082,-0.007 -0.01734,-0.0122 -0.02732,-0.0166 -0.01167,-0.005 -0.02376,-0.008 -0.03581,-0.01 -0.02358,-0.003 -0.0451,0.002 -0.06266,0.009 -0.01709,0.007 -0.03198,0.0176 -0.04408,0.0298 -0.01044,0.0106 -0.02003,0.0237 -0.02703,0.0393 -0.009,0.0183 -0.01357,0.0376 -0.01443,0.0563 -9.28e-4,0.0203 0.0024,0.0401 0.0093,0.0584 0.0068,0.0181 0.01745,0.0354 0.03197,0.0503 0.01454,0.0149 0.03311,0.0274 0.05517,0.0349 0.01189,0.004 0.02506,0.007 0.03851,0.007 0.01341,3.8e-4 0.02625,-0.001 0.03817,-0.005 0.02364,-0.007 0.04199,-0.0187 0.05586,-0.0316 0.01364,-0.0126 0.02399,-0.0271 0.03147,-0.0413 0.0075,-0.0143 0.01321,-0.0304 0.01592,-0.0476 -0.0013,0.007 -6.42e-4,0.004 -1.09e-4,0.001 0.0027,-0.0139 0.0031,-0.0279 0.0016,-0.0415 -0.0017,-0.0154 -0.0062,-0.0318 -0.01437,-0.0476 -0.0079,-0.0154 -0.01984,-0.0313 -0.0375,-0.0444 -0.01753,-0.013 -0.03915,-0.0219 -0.06335,-0.024 -0.0039,-3.3e-4 -0.0078,-4.7e-4 -0.01176,-3.4e-4 -0.0217,7.6e-4 -0.0416,0.007 -0.05863,0.017 -0.01597,0.009 -0.02743,0.0206 -0.03576,0.0308 -0.008,0.01 -0.01369,0.0193 -0.01769,0.0267 -0.0039,0.007 -0.0069,0.0141 -0.0088,0.0184 -0.01,0.0261 -0.01766,0.0513 -0.02125,0.079 -0.0035,0.0271 -0.0034,0.0594 0.0067,0.0931 0.0054,0.0184 0.01564,0.0348 0.02871,0.0477 0.01263,0.0124 0.02678,0.0205 0.04002,0.0255 0.01308,0.005 0.02621,0.007 0.03849,0.008 0.01219,3.9e-4 0.02487,-0.001 0.03738,-0.005 0.02747,-0.0102 0.04326,-0.0212 0.05583,-0.0335 0.0122,-0.012 0.02084,-0.0248 0.02701,-0.0358 0.0061,-0.0109 0.0105,-0.0214 0.01363,-0.0297 0.003,-0.008 0.0056,-0.0161 0.0072,-0.0207 0.0048,-0.0174 0.0092,-0.0341 0.01244,-0.0503 0.0034,-0.0171 0.0062,-0.0378 0.0054,-0.0606 -2.52e-4,-0.007 -0.0011,-0.0134 -0.0027,-0.0198 -0.0024,-0.009 -0.0062,-0.0184 -0.01129,-0.0269 -0.0051,-0.008 -0.01119,-0.0158 -0.01778,-0.0219 -0.01311,-0.0122 -0.027,-0.0188 -0.03893,-0.0226 -0.01171,-0.004 -0.02272,-0.005 -0.032,-0.005 -0.0094,-9e-5 -0.01882,0.001 -0.02794,0.003 -0.02936,0.007 -0.05341,0.0214 -0.07214,0.037 -0.01907,0.0159 -0.03401,0.0344 -0.04519,0.0526 -0.0097,0.0146 -0.017,0.0324 -0.02116,0.0503 -0.0042,0.0181 -0.0052,0.0364 -0.0035,0.054 0.0036,0.0363 0.01879,0.071 0.04493,0.0981 0.0024,0.003 0.01085,0.0109 0.02087,0.0171 0.01015,0.006 0.02086,0.0104 0.0315,0.0127 0.01065,0.002 0.02061,0.003 0.02932,0.002 0.0088,-6.8e-4 0.01655,-0.002 0.0231,-0.004 0.01306,-0.004 0.02363,-0.01 0.0313,-0.015 0.0081,-0.005 0.0152,-0.0115 0.02115,-0.0177 0.01866,-0.0191 0.03412,-0.0408 0.04576,-0.0636 0.01289,-0.0253 0.02115,-0.0522 0.0242,-0.0794 0.0027,-0.0213 -0.0014,-0.0413 -0.0083,-0.0577 -0.0039,-0.009 -0.0087,-0.0176 -0.01423,-0.025 -0.005,-0.007 -0.01065,-0.0129 -0.01696,-0.0185 -0.01359,-0.012 -0.03109,-0.0219 -0.05169,-0.0263 -0.02186,-0.005 -0.04526,-0.003 -0.06714,0.007 -0.01513,0.006 -0.02931,0.0153 -0.0414,0.0252 -0.01255,0.0103 -0.02299,0.0216 -0.03157,0.0329 -0.01841,0.0243 -0.02983,0.0507 -0.0364,0.0739 -0.0038,0.0121 -0.0056,0.0264 -0.0055,0.0397 1.25e-4,0.0149 0.0027,0.0296 0.0075,0.0434 0.0057,0.0162 0.01467,0.0311 0.02657,0.0436 0.01546,0.0162 0.03335,0.0258 0.0498,0.0309 a 0.0844356,0.0844356 90 0 0 0.05022,-0.16124 z"
       id="path-1-5"
       inkscape:path-effect="#path-effect506;#path-effect508"
       inkscape:original-d="m -16.11906,150.2046 c -0.07474,-0.0286 0.04115,-0.18917 0.07751,-0.11418 0.01654,0.0341 -0.05055,0.14573 -0.07751,0.11418 -0.07688,-0.09 0.0809,-0.18496 0.07401,-0.12725 -0.003,0.0249 -0.02194,0.14714 -0.07401,0.12725 -0.03382,-0.0129 -0.0027,-0.17326 0.04608,-0.14878 0.0405,0.0203 0.0022,0.10599 -0.04259,0.0768 -0.04733,-0.0308 -0.0054,-0.10345 0.03003,-0.076 0.04797,0.0371 -0.01708,0.0768 -0.05516,0.058"
       style="fill:#000000;fill-rule:nonzero;stroke:none" />
  </g>
</svg>
