<?xml version="1.0" encoding="UTF-8" standalone="no"?>
<!-- Created with Inkscape (http://www.inkscape.org/) -->

<svg
   width="2mm"
   height="10mm"
   viewBox="0 0 2.0000001 9.9999994"
   version="1.1"
   id="svg1681"
   inkscape:version="1.2.1 (9c6d41e410, 2022-07-14)"
   sodipodi:docname="lower_i_2.svg"
   inkscape:export-filename="..\..\..\..\Downloads\lower a diff canvas resize 3.0.png"
   inkscape:export-xdpi="96"
   inkscape:export-ydpi="96"
   xmlns:inkscape="http://www.inkscape.org/namespaces/inkscape"
   xmlns:sodipodi="http://sodipodi.sourceforge.net/DTD/sodipodi-0.dtd"
   xmlns="http://www.w3.org/2000/svg"
   xmlns:svg="http://www.w3.org/2000/svg"
   xmlns:rdf="http://www.w3.org/1999/02/22-rdf-syntax-ns#"
   xmlns:cc="http://creativecommons.org/ns#"
   xmlns:dc="http://purl.org/dc/elements/1.1/">
  <defs
     id="defs1675">
    <inkscape:path-effect
       effect="powerstroke"
       id="path-effect350"
       is_visible="true"
       lpeversion="1"
       offset_points="3.4111875,0.058603869 | 15.914888,0.071694921"
       not_jump="true"
       sort_points="true"
       interpolator_type="CentripetalCatmullRom"
       interpolator_beta="0.75"
       start_linecap_type="round"
       linejoin_type="spiro"
       miter_limit="4"
       scale_width="1"
       end_linecap_type="round" />
    <inkscape:path-effect
       effect="simplify"
       id="path-effect348"
       is_visible="true"
       lpeversion="1"
       steps="1"
       threshold="0.0047745358"
       smooth_angles="0"
       helper_size="0"
       simplify_individual_paths="false"
       simplify_just_coalesce="false"
       step="1" />
    <inkscape:path-effect
       effect="powerstroke"
       id="path-effect341"
       is_visible="true"
       lpeversion="1"
       offset_points="0.41123889,0.068396243"
       not_jump="true"
       sort_points="true"
       interpolator_type="CentripetalCatmullRom"
       interpolator_beta="0.75"
       start_linecap_type="round"
       linejoin_type="spiro"
       miter_limit="4"
       scale_width="1"
       end_linecap_type="round" />
    <inkscape:path-effect
       effect="simplify"
       id="path-effect339"
       is_visible="true"
       lpeversion="1"
       steps="1"
       threshold="0.0047745358"
       smooth_angles="0"
       helper_size="0"
       simplify_individual_paths="false"
       simplify_just_coalesce="false"
       step="1" />
    <inkscape:path-effect
       effect="powerstroke"
       id="path-effect332"
       is_visible="true"
       lpeversion="1"
       offset_points="0.10192889,0.050284322"
       not_jump="true"
       sort_points="true"
       interpolator_type="CentripetalCatmullRom"
       interpolator_beta="0.75"
       start_linecap_type="round"
       linejoin_type="spiro"
       miter_limit="4"
       scale_width="1"
       end_linecap_type="round" />
    <inkscape:path-effect
       effect="simplify"
       id="path-effect330"
       is_visible="true"
       lpeversion="1"
       steps="1"
       threshold="0.0047745358"
       smooth_angles="0"
       helper_size="0"
       simplify_individual_paths="false"
       simplify_just_coalesce="false"
       step="1" />
    <inkscape:path-effect
       effect="powerstroke"
       id="path-effect325"
       is_visible="true"
       lpeversion="1"
       offset_points="0.813164,0.050529015"
       not_jump="true"
       sort_points="true"
       interpolator_type="CentripetalCatmullRom"
       interpolator_beta="0.75"
       start_linecap_type="round"
       linejoin_type="spiro"
       miter_limit="4"
       scale_width="1"
       end_linecap_type="round" />
    <inkscape:path-effect
       effect="simplify"
       id="path-effect323"
       is_visible="true"
       lpeversion="1"
       steps="1"
       threshold="0.0047745358"
       smooth_angles="0"
       helper_size="0"
       simplify_individual_paths="false"
       simplify_just_coalesce="false"
       step="1" />
    <inkscape:path-effect
       effect="powerstroke"
       id="path-effect318"
       is_visible="true"
       lpeversion="1"
       offset_points="1.2155427,0.062151911"
       not_jump="true"
       sort_points="true"
       interpolator_type="CentripetalCatmullRom"
       interpolator_beta="0.75"
       start_linecap_type="round"
       linejoin_type="spiro"
       miter_limit="4"
       scale_width="1"
       end_linecap_type="round" />
    <inkscape:path-effect
       effect="simplify"
       id="path-effect316"
       is_visible="true"
       lpeversion="1"
       steps="1"
       threshold="0.0047745358"
       smooth_angles="0"
       helper_size="0"
       simplify_individual_paths="false"
       simplify_just_coalesce="false"
       step="1" />
    <inkscape:path-effect
       effect="powerstroke"
       id="path-effect270"
       is_visible="true"
       lpeversion="1"
       offset_points="2.7861905,0.092126751"
       not_jump="true"
       sort_points="true"
       interpolator_type="CentripetalCatmullRom"
       interpolator_beta="0.75"
       start_linecap_type="round"
       linejoin_type="spiro"
       miter_limit="4"
       scale_width="1"
       end_linecap_type="round" />
    <inkscape:path-effect
       effect="simplify"
       id="path-effect268"
       is_visible="true"
       lpeversion="1"
       steps="1"
       threshold="0.0047745358"
       smooth_angles="0"
       helper_size="0"
       simplify_individual_paths="false"
       simplify_just_coalesce="false"
       step="1" />
    <inkscape:path-effect
       effect="powerstroke"
       id="path-effect263"
       is_visible="true"
       lpeversion="1"
       offset_points="0.64430848,0.088578708"
       not_jump="true"
       sort_points="true"
       interpolator_type="CentripetalCatmullRom"
       interpolator_beta="0.75"
       start_linecap_type="round"
       linejoin_type="spiro"
       miter_limit="4"
       scale_width="1"
       end_linecap_type="round" />
    <inkscape:path-effect
       effect="simplify"
       id="path-effect261"
       is_visible="true"
       lpeversion="1"
       steps="1"
       threshold="0.0047745358"
       smooth_angles="0"
       helper_size="0"
       simplify_individual_paths="false"
       simplify_just_coalesce="false"
       step="1" />
    <inkscape:path-effect
       effect="powerstroke"
       id="path-effect1845"
       is_visible="true"
       lpeversion="1"
       offset_points="1.4617647,0.12041947"
       not_jump="true"
       sort_points="true"
       interpolator_type="CentripetalCatmullRom"
       interpolator_beta="0.75"
       start_linecap_type="round"
       linejoin_type="spiro"
       miter_limit="4"
       scale_width="1"
       end_linecap_type="round" />
    <inkscape:path-effect
       effect="simplify"
       id="path-effect1843"
       is_visible="true"
       lpeversion="1"
       steps="1"
       threshold="0.0035951417"
       smooth_angles="0"
       helper_size="0"
       simplify_individual_paths="false"
       simplify_just_coalesce="false"
       step="1" />
    <inkscape:path-effect
       effect="powerstroke"
       id="path-effect1838"
       is_visible="true"
       lpeversion="1"
       offset_points="1.0147746,0.10228681"
       not_jump="true"
       sort_points="true"
       interpolator_type="CentripetalCatmullRom"
       interpolator_beta="0.75"
       start_linecap_type="round"
       linejoin_type="spiro"
       miter_limit="4"
       scale_width="1"
       end_linecap_type="round" />
    <inkscape:path-effect
       effect="simplify"
       id="path-effect1836"
       is_visible="true"
       lpeversion="1"
       steps="1"
       threshold="0.0035951417"
       smooth_angles="0"
       helper_size="0"
       simplify_individual_paths="false"
       simplify_just_coalesce="false"
       step="1" />
    <inkscape:path-effect
       effect="powerstroke"
       id="path-effect502"
       is_visible="true"
       lpeversion="1"
       offset_points="3.0091841,0.21607495 | 7.3602657,0.17554228 | 9.4159651,0.20236537"
       not_jump="true"
       sort_points="true"
       interpolator_type="CentripetalCatmullRom"
       interpolator_beta="0.75"
       start_linecap_type="round"
       linejoin_type="spiro"
       miter_limit="4"
       scale_width="1"
       end_linecap_type="round" />
    <inkscape:path-effect
       effect="simplify"
       id="path-effect500"
       is_visible="true"
       lpeversion="1"
       steps="1"
       threshold="0.0035951417"
       smooth_angles="0"
       helper_size="0"
       simplify_individual_paths="false"
       simplify_just_coalesce="false"
       step="1" />
    <inkscape:path-effect
       effect="powerstroke"
       id="path-effect241"
       is_visible="true"
       lpeversion="1"
       offset_points="2.6879454,0.34086734"
       not_jump="true"
       sort_points="true"
       interpolator_type="CentripetalCatmullRom"
       interpolator_beta="0.75"
       start_linecap_type="round"
       linejoin_type="spiro"
       miter_limit="4"
       scale_width="1"
       end_linecap_type="round" />
    <inkscape:path-effect
       effect="simplify"
       id="path-effect239"
       is_visible="true"
       lpeversion="1"
       steps="1"
       threshold="0.0028332064"
       smooth_angles="0"
       helper_size="0"
       simplify_individual_paths="false"
       simplify_just_coalesce="false"
       step="1" />
    <inkscape:path-effect
       effect="powerstroke"
       id="path-effect234"
       is_visible="true"
       lpeversion="1"
       offset_points="2.13563,0.075169555"
       not_jump="true"
       sort_points="true"
       interpolator_type="CentripetalCatmullRom"
       interpolator_beta="0.75"
       start_linecap_type="round"
       linejoin_type="spiro"
       miter_limit="4"
       scale_width="1"
       end_linecap_type="round" />
    <inkscape:path-effect
       effect="simplify"
       id="path-effect232"
       is_visible="true"
       lpeversion="1"
       steps="1"
       threshold="0.0028332064"
       smooth_angles="0"
       helper_size="0"
       simplify_individual_paths="false"
       simplify_just_coalesce="false"
       step="1" />
    <inkscape:path-effect
       effect="powerstroke"
       id="path-effect227"
       is_visible="true"
       lpeversion="1"
       offset_points="2.1868266,0.075169555"
       not_jump="true"
       sort_points="true"
       interpolator_type="CentripetalCatmullRom"
       interpolator_beta="0.75"
       start_linecap_type="round"
       linejoin_type="spiro"
       miter_limit="4"
       scale_width="1"
       end_linecap_type="round" />
    <inkscape:path-effect
       effect="simplify"
       id="path-effect225"
       is_visible="true"
       lpeversion="1"
       steps="1"
       threshold="0.0028332064"
       smooth_angles="0"
       helper_size="0"
       simplify_individual_paths="false"
       simplify_just_coalesce="false"
       step="1" />
    <inkscape:path-effect
       effect="powerstroke"
       id="path-effect166"
       is_visible="true"
       lpeversion="1"
       offset_points="1.9637935,0.075169555"
       not_jump="true"
       sort_points="true"
       interpolator_type="CentripetalCatmullRom"
       interpolator_beta="0.75"
       start_linecap_type="round"
       linejoin_type="spiro"
       miter_limit="4"
       scale_width="1"
       end_linecap_type="round" />
    <inkscape:path-effect
       effect="simplify"
       id="path-effect164"
       is_visible="true"
       lpeversion="1"
       steps="1"
       threshold="0.0028332064"
       smooth_angles="0"
       helper_size="0"
       simplify_individual_paths="false"
       simplify_just_coalesce="false"
       step="1" />
    <inkscape:path-effect
       effect="powerstroke"
       id="path-effect159"
       is_visible="true"
       lpeversion="1"
       offset_points="2.2611036,0.075169555"
       not_jump="true"
       sort_points="true"
       interpolator_type="CentripetalCatmullRom"
       interpolator_beta="0.75"
       start_linecap_type="round"
       linejoin_type="spiro"
       miter_limit="4"
       scale_width="1"
       end_linecap_type="round" />
    <inkscape:path-effect
       effect="simplify"
       id="path-effect157"
       is_visible="true"
       lpeversion="1"
       steps="1"
       threshold="0.0028332064"
       smooth_angles="0"
       helper_size="0"
       simplify_individual_paths="false"
       simplify_just_coalesce="false"
       step="1" />
    <inkscape:path-effect
       effect="powerstroke"
       id="path-effect152"
       is_visible="true"
       lpeversion="1"
       offset_points="2.826981,0.075169555"
       not_jump="true"
       sort_points="true"
       interpolator_type="CentripetalCatmullRom"
       interpolator_beta="0.75"
       start_linecap_type="round"
       linejoin_type="spiro"
       miter_limit="4"
       scale_width="1"
       end_linecap_type="round" />
    <inkscape:path-effect
       effect="simplify"
       id="path-effect150"
       is_visible="true"
       lpeversion="1"
       steps="1"
       threshold="0.0028332064"
       smooth_angles="0"
       helper_size="0"
       simplify_individual_paths="false"
       simplify_just_coalesce="false"
       step="1" />
    <inkscape:path-effect
       effect="powerstroke"
       id="path-effect145"
       is_visible="true"
       lpeversion="1"
       offset_points="3.8374447,0.075169555"
       not_jump="true"
       sort_points="true"
       interpolator_type="CentripetalCatmullRom"
       interpolator_beta="0.75"
       start_linecap_type="round"
       linejoin_type="spiro"
       miter_limit="4"
       scale_width="1"
       end_linecap_type="round" />
    <inkscape:path-effect
       effect="simplify"
       id="path-effect143"
       is_visible="true"
       lpeversion="1"
       steps="1"
       threshold="0.0028332064"
       smooth_angles="0"
       helper_size="0"
       simplify_individual_paths="false"
       simplify_just_coalesce="false"
       step="1" />
    <inkscape:path-effect
       effect="powerstroke"
       id="path-effect138"
       is_visible="true"
       lpeversion="1"
       offset_points="2.6880907,0.075169555"
       not_jump="true"
       sort_points="true"
       interpolator_type="CentripetalCatmullRom"
       interpolator_beta="0.75"
       start_linecap_type="round"
       linejoin_type="spiro"
       miter_limit="4"
       scale_width="1"
       end_linecap_type="round" />
    <inkscape:path-effect
       effect="simplify"
       id="path-effect136"
       is_visible="true"
       lpeversion="1"
       steps="1"
       threshold="0.0028332064"
       smooth_angles="0"
       helper_size="0"
       simplify_individual_paths="false"
       simplify_just_coalesce="false"
       step="1" />
    <inkscape:path-effect
       effect="powerstroke"
       id="path-effect131"
       is_visible="true"
       lpeversion="1"
       offset_points="1.9940581,0.075169555"
       not_jump="true"
       sort_points="true"
       interpolator_type="CentripetalCatmullRom"
       interpolator_beta="0.75"
       start_linecap_type="round"
       linejoin_type="spiro"
       miter_limit="4"
       scale_width="1"
       end_linecap_type="round" />
    <inkscape:path-effect
       effect="simplify"
       id="path-effect129"
       is_visible="true"
       lpeversion="1"
       steps="1"
       threshold="0.0028332064"
       smooth_angles="0"
       helper_size="0"
       simplify_individual_paths="false"
       simplify_just_coalesce="false"
       step="1" />
  </defs>
  <sodipodi:namedview
     id="base"
     pagecolor="#ffffff"
     bordercolor="#666666"
     borderopacity="1.0"
     inkscape:pageopacity="0.0"
     inkscape:pageshadow="2"
     inkscape:zoom="31.678384"
     inkscape:cx="1.7046324"
     inkscape:cy="18.214313"
     inkscape:document-units="mm"
     inkscape:current-layer="layer1"
     showgrid="false"
     fit-margin-top="0"
     fit-margin-left="0"
     fit-margin-right="0"
     fit-margin-bottom="0"
     inkscape:window-width="1080"
     inkscape:window-height="1897"
     inkscape:window-x="-8"
     inkscape:window-y="-8"
     inkscape:window-maximized="1"
     showguides="true"
     inkscape:guide-bbox="true"
     inkscape:snap-bbox="true"
     inkscape:bbox-nodes="true"
     inkscape:snap-nodes="false"
     inkscape:snap-others="false"
     inkscape:snap-page="true"
     inkscape:snap-grids="false"
     inkscape:snap-to-guides="false"
     inkscape:snap-global="false"
     inkscape:pagecheckerboard="0"
     inkscape:showpageshadow="2"
     inkscape:deskcolor="#d1d1d1">
    <sodipodi:guide
       position="-6.1806077,9.4988694"
       orientation="0,1"
       id="guide816"
       inkscape:locked="false" />
    <sodipodi:guide
       position="-4.4101637,10.646923"
       orientation="0,1"
       id="guide818"
       inkscape:locked="false" />
    <sodipodi:guide
       position="2.7595724,11.09577"
       orientation="1,0"
       id="guide820"
       inkscape:locked="false" />
    <sodipodi:guide
       position="3.657266,10.942217"
       orientation="1,0"
       id="guide822"
       inkscape:locked="false" />
    <sodipodi:guide
       position="-0.051625511,9.7492301"
       orientation="1,0"
       id="guide1853"
       inkscape:locked="false" />
    <sodipodi:guide
       position="-2.3720169,3.0175836"
       orientation="0,1"
       id="guide1855"
       inkscape:locked="false" />
  </sodipodi:namedview>
  <metadata
     id="metadata1678">
    <rdf:RDF>
      <cc:Work
         rdf:about="">
        <dc:format>image/svg+xml</dc:format>
        <dc:type
           rdf:resource="http://purl.org/dc/dcmitype/StillImage" />
      </cc:Work>
    </rdf:RDF>
  </metadata>
  <g
     inkscape:label="Layer 1"
     inkscape:groupmode="layer"
     id="layer1"
     transform="translate(17.028496,-147.22856)">
    <path
       d="m -16.105338,151.52062 c -0.01441,0.25446 -0.03123,0.60915 -0.04311,1.07503 -0.015,0.58835 -0.01695,1.16165 -0.01723,1.53895 a 0.06839624,0.06839624 90 0 0 0.136792,1e-4 c 2.89e-4,-0.37705 0.0022,-0.94897 0.01719,-1.53556 0.01184,-0.46431 0.0286,-0.81757 0.04294,-1.07078 a 0.06839624,0.06839624 90 0 0 -0.136574,-0.008 z"
       id="path-1"
       inkscape:path-effect="#path-effect339;#path-effect341"
       inkscape:original-d="m -16.037051,151.52449 c -0.04914,0.84859 -0.06024,1.80442 -0.06024,2.61016"
       style="fill:#000000;fill-rule:nonzero;stroke:none;stroke-width:1.19965" />
    <path
       d="m -16.038444,151.23581 c -0.0073,-0.004 -0.01445,-0.007 -0.02085,-0.009 -0.0041,-0.001 -0.0099,-0.003 -0.0112,-0.003 -0.0023,-6.9e-4 -0.0018,-6.7e-4 -3.3e-4,1.3e-4 0.0016,8.7e-4 0.0052,0.003 0.0088,0.007 0.0032,0.004 0.0063,0.007 0.0085,0.0117 0.0022,0.004 0.0035,0.009 0.0046,0.0137 -0.0027,-0.0115 -0.0041,-0.0227 -0.0034,-0.0317 3.22e-4,-0.004 9.99e-4,-0.007 0.0016,-0.008 -0.0031,0.002 -0.0081,0.005 -0.01272,0.005 -0.0039,5.4e-4 -0.0067,-2.2e-4 -0.0081,-8.3e-4 -0.0014,-5.8e-4 -0.0032,-0.002 -0.005,-0.004 -9.3e-4,-0.001 -0.0019,-0.003 -0.0027,-0.005 -7.98e-4,-0.002 -0.0013,-0.005 -0.0014,-0.007 l -0.0029,0.01 c -0.0018,0.004 -0.0037,0.008 -0.0068,0.0139 -0.0026,0.005 -0.0063,0.0126 -0.0095,0.0206 0.0018,-0.004 0.0031,-0.007 0.0046,-0.009 0.0015,-0.002 0.0039,-0.004 0.0078,-0.007 0.0038,-0.002 0.0099,-0.005 0.01815,-0.006 0.0041,-3.4e-4 0.0083,-1.2e-4 0.01268,7.8e-4 0.0043,9e-4 0.0082,0.002 0.01153,0.004 -0.0022,-0.001 8.2e-5,9e-5 0.0023,0.002 0.0022,0.002 0.004,0.004 0.0054,0.006 0.0026,0.004 0.003,0.007 0.0031,0.007 9.8e-5,5e-5 3.5e-5,-0.002 4.52e-4,-0.005 4.28e-4,-0.003 0.0012,-0.007 0.0022,-0.0106 0.0024,-0.008 0.0049,-0.0148 0.0076,-0.0204 0.0026,-0.005 0.0045,-0.007 0.0052,-0.008 l -0.04377,0.0172 c 0.0023,4.2e-4 0.0046,8.7e-4 0.0069,0.001 l -0.05752,-0.0386 c 0.0061,0.0149 0.01084,0.029 0.01354,0.0423 0.0027,0.0131 0.0031,0.0241 0.0016,0.0335 2.76e-4,-0.004 0.0023,-0.0102 0.0052,-0.0153 0.0029,-0.005 0.0067,-0.009 0.01118,-0.0126 0.0045,-0.003 0.01004,-0.006 0.01647,-0.007 0.0065,-0.001 0.01371,-0.001 0.02081,6.3e-4 -0.0075,-0.002 -0.0096,-0.003 -0.01146,-0.003 -0.0017,-8.2e-4 -0.0025,-0.002 -0.0014,-9.1e-4 0.0011,7.7e-4 0.0044,0.004 0.0071,0.01 0.0014,0.003 0.0024,0.007 0.0028,0.0106 3.81e-4,0.004 7.8e-5,0.007 -4.62e-4,0.01 2.39e-4,3.3e-4 0.0033,-0.005 0.0087,-0.01 0.0057,-0.005 0.01282,-0.01 0.02008,-0.0127 l -0.04679,0.002 c 0.0027,0.001 0.0054,0.003 0.0081,0.004 l -0.04315,-0.0402 c -0.0017,-0.004 -0.0022,-0.007 -0.0023,-0.01 -3.36e-4,-0.002 -0.0022,0.002 -0.0047,0.005 -0.0011,8.4e-4 0.0034,-0.005 0.0083,-0.01 0.0049,-0.005 0.01007,-0.008 0.015,-0.0109 0.0097,-0.005 0.01996,-0.007 0.02983,-0.007 0.0099,2.3e-4 0.0227,0.003 0.03493,0.0117 0.0063,0.004 0.01217,0.0103 0.0169,0.0176 0.0048,0.007 0.0078,0.0152 0.0093,0.0229 l -0.0029,-0.0107 c -6.5e-4,-0.002 -0.0013,-0.005 -0.002,-0.007 l 0.0023,0.0392 c 5.89e-4,-0.002 0.0012,-0.004 0.0017,-0.006 l -0.0789,0.056 c -0.0039,-4.4e-4 -0.0069,-0.002 -0.0087,-0.002 -7e-6,6e-4 0.0026,0.003 0.0084,0.01 -0.0012,-0.001 -0.0043,-0.005 -0.0063,-0.009 -0.0021,-0.004 -0.0036,-0.007 -0.0048,-0.0104 -0.0011,-0.003 -0.0021,-0.007 -0.0026,-0.0114 -5.3e-4,-0.004 -7.73e-4,-0.01 1.01e-4,-0.0161 8.7e-4,-0.006 0.003,-0.0149 0.0081,-0.0238 0.0053,-0.009 0.01337,-0.0181 0.02421,-0.0246 0.01067,-0.006 0.02134,-0.009 0.02998,-0.009 2.05e-4,-1e-5 4.08e-4,-2e-5 6.11e-4,-3e-5 6.33e-4,1.1e-4 0.0012,2.5e-4 0.0018,4e-4 0.0025,6.4e-4 0.0054,0.002 0.0086,0.004 0.0032,0.002 0.0073,0.006 0.01067,0.0121 0.0035,0.006 0.0054,0.0136 0.0053,0.0208 8e-5,-0.004 0.0019,-0.0106 0.0068,-0.0174 0.0037,-0.005 0.0079,-0.009 0.01185,-0.0108 0.006,-7.7e-4 0.01029,-9.3e-4 0.01333,-7e-4 5.6e-4,-2.3e-4 -0.0013,-0.001 -0.0034,-0.003 -0.0041,-0.003 -0.0079,-0.007 -0.01119,-0.0113 -0.0025,-0.003 -0.0049,-0.007 -0.0066,-0.0119 -0.0017,-0.005 -0.0025,-0.009 -0.0027,-0.0135 -3.39e-4,-0.008 0.0015,-0.0125 0.002,-0.0137 5.47e-4,-0.001 3.1e-5,6e-5 -0.0014,0.002 -0.0015,0.002 -0.0036,0.005 -0.0061,0.008 -0.0044,0.004 -0.0066,0.006 -0.0085,0.008 0.0038,-0.002 0.0067,-0.002 0.01026,-0.003 0.0064,-5.4e-4 0.01298,-7.8e-4 0.01932,4.4e-4 0.0063,0.001 0.01235,0.004 0.01825,0.006 -0.0024,-0.001 -0.0047,-0.002 -0.0067,-0.003 l 0.0348,0.0365 c 0.003,0.007 0.0036,0.0134 0.0035,0.018 -1.47e-4,0.005 -9.18e-4,0.007 -9.6e-4,0.007 -9.8e-5,2.4e-4 0.0035,-0.008 0.0078,-0.0188 a 0.07169492,0.07169492 90 0 0 -0.133878,-0.0514 c -6.77e-4,0.002 -0.0053,0.009 -0.01101,0.028 -0.0023,0.007 -0.005,0.0184 -0.0054,0.0313 -3.62e-4,0.0125 0.0014,0.0272 0.0079,0.0424 0.0034,0.008 0.0073,0.0159 0.01337,0.0221 0.006,0.006 0.01374,0.0105 0.02144,0.0144 0.002,0.001 0.0042,0.002 0.0065,0.003 0.0058,0.003 0.01176,0.006 0.01816,0.007 0.0064,0.001 0.01295,6.7e-4 0.01941,1.1e-4 0.01282,-0.001 0.02449,-0.004 0.03487,-0.009 0.0099,-0.004 0.01847,-0.009 0.02559,-0.0143 0.01304,-0.009 0.02375,-0.0199 0.02969,-0.0257 0.0075,-0.008 0.01343,-0.015 0.01924,-0.0231 0.0056,-0.008 0.01215,-0.0182 0.01731,-0.0305 0.005,-0.012 0.0099,-0.0286 0.009,-0.0481 -4.18e-4,-0.01 -0.0023,-0.0201 -0.0061,-0.0304 -0.0038,-0.0103 -0.0092,-0.0197 -0.01588,-0.0281 -0.0033,-0.004 -0.0071,-0.008 -0.01119,-0.0112 -0.01242,-0.01 -0.02579,-0.0169 -0.039,-0.0215 -0.01291,-0.004 -0.02551,-0.007 -0.03693,-0.008 -0.02201,-0.002 -0.04258,9e-4 -0.05753,0.004 -0.004,6.9e-4 -0.008,0.002 -0.01181,0.003 -0.03448,0.0123 -0.06348,0.0353 -0.08404,0.0632 -0.02032,0.0275 -0.03436,0.0625 -0.03512,0.10061 -3.67e-4,0.0192 0.0044,0.0371 0.01313,0.0527 0.0085,0.0153 0.02006,0.027 0.03211,0.0355 0.012,0.008 0.02515,0.0143 0.03829,0.0178 0.0099,0.003 0.02046,0.004 0.0312,0.004 0.0037,3.1e-4 0.0076,3.9e-4 0.01175,1.5e-4 0.01086,-6.3e-4 0.02336,-0.004 0.0355,-0.0108 0.01231,-0.007 0.02147,-0.0173 0.02762,-0.0281 0.0059,-0.0103 0.0086,-0.0205 0.0097,-0.0286 0.0011,-0.008 8.52e-4,-0.0156 8.2e-5,-0.0216 -7.82e-4,-0.006 -0.0022,-0.0119 -0.004,-0.0172 -0.0018,-0.005 -0.0041,-0.0105 -0.0072,-0.0157 -0.003,-0.005 -0.0071,-0.0109 -0.01269,-0.0166 -0.0032,-0.004 -0.01373,-0.0158 -0.02723,-0.0263 -0.0071,-0.006 -0.01569,-0.0112 -0.02585,-0.016 -0.01037,-0.005 -0.02237,-0.009 -0.03581,-0.0103 -0.0093,-0.001 -0.0186,-0.002 -0.02788,-0.001 -0.0093,8.8e-4 -0.01845,0.004 -0.02616,0.009 -0.0077,0.005 -0.01376,0.0128 -0.01766,0.0212 -0.0039,0.008 -0.0056,0.0177 -0.0072,0.0269 -3.48e-4,0.002 -6.62e-4,0.004 -9.31e-4,0.006 -9.4e-4,0.007 -0.0022,0.0137 -0.0021,0.0206 7.6e-5,0.007 0.0021,0.0136 0.0049,0.0199 9.16e-4,0.002 0.0019,0.004 0.0029,0.006 0.002,0.006 0.0048,0.0116 0.0083,0.0171 0.0055,0.009 0.01245,0.0155 0.01994,0.0208 0.01459,0.0104 0.03033,0.014 0.04334,0.0143 0.01291,3.2e-4 0.02635,-0.002 0.03874,-0.009 0.0063,-0.003 0.01272,-0.008 0.01868,-0.0135 0.006,-0.006 0.01144,-0.0131 0.01558,-0.0218 0.0036,-0.005 0.01262,-0.0218 0.01773,-0.0418 0.0026,-0.0101 0.0044,-0.0218 0.0042,-0.0345 -2.32e-4,-0.0127 -0.0025,-0.0265 -0.0082,-0.0404 -0.0039,-0.01 -0.008,-0.0196 -0.01529,-0.0271 -0.0036,-0.004 -0.008,-0.007 -0.0128,-0.009 -0.0048,-0.002 -0.0099,-0.003 -0.01506,-0.004 -0.0029,-5.7e-4 -0.0058,-0.001 -0.0087,-0.002 -0.0078,-0.001 -0.01568,-0.003 -0.02366,-0.003 -0.004,-7e-5 -0.008,3.2e-4 -0.01186,0.001 -0.0039,9.3e-4 -0.0076,0.002 -0.01127,0.004 -0.02329,0.01 -0.04554,0.0245 -0.06405,0.0434 -0.01865,0.019 -0.03444,0.043 -0.04265,0.0719 -0.0033,0.0141 -0.0041,0.0246 -0.0031,0.0352 9.6e-4,0.0106 0.0036,0.0206 0.0075,0.0297 0.0077,0.0181 0.01969,0.0314 0.03097,0.0406 0.01129,0.009 0.0234,0.0158 0.03432,0.0204 0.01104,0.005 0.02228,0.008 0.03283,0.01 0.008,0.002 0.02201,0.003 0.03497,1.1e-4 0.01287,-0.003 0.02449,-0.008 0.03429,-0.0151 0.0098,-0.007 0.01819,-0.0163 0.02444,-0.0269 0.0063,-0.0108 0.01054,-0.0232 0.01175,-0.0365 0.0033,-0.0258 3.9e-4,-0.0524 -0.005,-0.0758 -0.0054,-0.0237 -0.01369,-0.0456 -0.02186,-0.0643 -0.0026,-0.006 -0.0051,-0.0119 -0.0084,-0.0174 -0.0032,-0.006 -0.0072,-0.0108 -0.01231,-0.0148 -0.0051,-0.004 -0.01122,-0.007 -0.01761,-0.007 -0.0064,-8.8e-4 -0.01288,1e-5 -0.01924,0.001 -0.0024,3.9e-4 -0.0047,7.7e-4 -0.0069,0.001 -0.0079,0.001 -0.016,0.002 -0.02368,0.004 -0.0038,0.001 -0.0075,0.003 -0.0109,0.005 -0.0034,0.002 -0.0063,0.005 -0.0092,0.008 -0.01553,0.0152 -0.02504,0.0319 -0.03152,0.0467 -0.0064,0.0147 -0.01053,0.0294 -0.01333,0.04 -0.0023,0.01 -0.004,0.0189 -0.005,0.0287 -9.66e-4,0.01 -0.0013,0.0216 4.78e-4,0.034 0.0018,0.0126 0.0059,0.0274 0.01493,0.0415 0.0046,0.007 0.01036,0.014 0.0173,0.0201 0.007,0.006 0.01484,0.011 0.02319,0.0147 0.0023,0.001 0.0092,0.004 0.01648,0.006 0.0073,0.002 0.0146,0.002 0.02155,0.001 0.01414,-0.001 0.02589,-0.006 0.03471,-0.0114 0.0091,-0.006 0.0162,-0.0124 0.02157,-0.0189 0.0056,-0.007 0.01016,-0.0144 0.01349,-0.0223 0.0018,-0.005 0.0035,-0.008 0.006,-0.0136 0.0024,-0.005 0.0058,-0.0118 0.0088,-0.0188 0.0012,-0.003 0.0023,-0.005 0.0034,-0.008 0.0021,-0.005 0.004,-0.0115 0.0056,-0.0181 0.0025,-0.0105 0.004,-0.0224 0.0031,-0.0353 -1.66e-4,-0.008 -0.0023,-0.0188 -0.0058,-0.0282 -0.0035,-0.01 -0.0084,-0.018 -0.01404,-0.0254 -0.01134,-0.0148 -0.02618,-0.0257 -0.04181,-0.0324 -0.01605,-0.007 -0.0346,-0.0101 -0.05358,-0.008 -0.02008,0.003 -0.03956,0.0119 -0.05498,0.0279 -0.01236,0.0133 -0.02025,0.0271 -0.02546,0.0407 -0.0054,0.014 -0.0079,0.0278 -0.009,0.0402 -0.0022,0.0261 0.0019,0.0508 0.0058,0.0679 0.0011,0.005 0.0023,0.009 0.0046,0.0138 0.0022,0.004 0.0054,0.008 0.0086,0.0117 0.0084,0.01 0.01763,0.0156 0.02501,0.0194 0.0077,0.004 0.01502,0.006 0.01889,0.008 0.0051,0.002 0.0078,0.002 0.0089,0.003 0.0014,4.8e-4 7.8e-5,1.6e-4 -0.002,-0.001 a 0.05860387,0.05860387 90 0 0 0.06017,-0.10058 z"
       id="path-1-5"
       inkscape:path-effect="#path-effect348;#path-effect350"
       inkscape:original-d="m -16.068527,151.2861 c -0.03865,-0.0169 -0.03844,-0.005 -0.04147,-0.043 -0.01,-0.12555 0.120425,-0.0851 0.08048,-0.007 -0.0096,0.0188 -0.01842,0.0546 -0.039,0.0499 -0.0599,-0.0137 3.68e-4,-0.14522 0.01383,-0.12774 0.0073,0.01 0.05392,0.14794 -0.01383,0.12774 -0.103187,-0.0308 -0.0018,-0.11701 0.0237,-0.12177 0.03058,-0.006 -0.0079,0.10521 -0.02123,0.0543 -0.007,-0.0268 0.07932,0.0407 0.04147,0.0407 -0.09143,0 -0.02894,-0.13051 0.03752,-0.13507 0.185051,-0.0127 -0.06481,0.19893 0.0025,0.0538"
       style="fill:#000000;fill-rule:nonzero;stroke:none" />
  </g>
</svg>
