<?xml version="1.0" encoding="UTF-8" standalone="no"?>
<!-- Created with Inkscape (http://www.inkscape.org/) -->

<svg
   width="2mm"
   height="10mm"
   viewBox="0 0 2.0000001 9.9999994"
   version="1.1"
   id="svg1681"
   inkscape:version="1.2.1 (9c6d41e410, 2022-07-14)"
   sodipodi:docname="lower_i_3.svg"
   inkscape:export-filename="..\..\..\..\Downloads\lower a diff canvas resize 3.0.png"
   inkscape:export-xdpi="96"
   inkscape:export-ydpi="96"
   xmlns:inkscape="http://www.inkscape.org/namespaces/inkscape"
   xmlns:sodipodi="http://sodipodi.sourceforge.net/DTD/sodipodi-0.dtd"
   xmlns="http://www.w3.org/2000/svg"
   xmlns:svg="http://www.w3.org/2000/svg"
   xmlns:rdf="http://www.w3.org/1999/02/22-rdf-syntax-ns#"
   xmlns:cc="http://creativecommons.org/ns#"
   xmlns:dc="http://purl.org/dc/elements/1.1/">
  <defs
     id="defs1675">
    <inkscape:path-effect
       effect="powerstroke"
       id="path-effect451"
       is_visible="true"
       lpeversion="1"
       offset_points="2.2582607,0.065749033 | 5.2977762,0.074400222"
       not_jump="true"
       sort_points="true"
       interpolator_type="CentripetalCatmullRom"
       interpolator_beta="0.75"
       start_linecap_type="round"
       linejoin_type="spiro"
       miter_limit="4"
       scale_width="1"
       end_linecap_type="round" />
    <inkscape:path-effect
       effect="simplify"
       id="path-effect449"
       is_visible="true"
       lpeversion="1"
       steps="1"
       threshold="0.0047745358"
       smooth_angles="0"
       helper_size="0"
       simplify_individual_paths="false"
       simplify_just_coalesce="false"
       step="1" />
    <inkscape:path-effect
       effect="powerstroke"
       id="path-effect270"
       is_visible="true"
       lpeversion="1"
       offset_points="2.7861905,0.092126751"
       not_jump="true"
       sort_points="true"
       interpolator_type="CentripetalCatmullRom"
       interpolator_beta="0.75"
       start_linecap_type="round"
       linejoin_type="spiro"
       miter_limit="4"
       scale_width="1"
       end_linecap_type="round" />
    <inkscape:path-effect
       effect="simplify"
       id="path-effect268"
       is_visible="true"
       lpeversion="1"
       steps="1"
       threshold="0.0047745358"
       smooth_angles="0"
       helper_size="0"
       simplify_individual_paths="false"
       simplify_just_coalesce="false"
       step="1" />
    <inkscape:path-effect
       effect="powerstroke"
       id="path-effect263"
       is_visible="true"
       lpeversion="1"
       offset_points="0.64430848,0.11026001"
       not_jump="true"
       sort_points="true"
       interpolator_type="CentripetalCatmullRom"
       interpolator_beta="0.75"
       start_linecap_type="round"
       linejoin_type="spiro"
       miter_limit="4"
       scale_width="1"
       end_linecap_type="round" />
    <inkscape:path-effect
       effect="simplify"
       id="path-effect261"
       is_visible="true"
       lpeversion="1"
       steps="1"
       threshold="0.0047745358"
       smooth_angles="0"
       helper_size="0"
       simplify_individual_paths="false"
       simplify_just_coalesce="false"
       step="1" />
    <inkscape:path-effect
       effect="powerstroke"
       id="path-effect1845"
       is_visible="true"
       lpeversion="1"
       offset_points="1.4617647,0.12041947"
       not_jump="true"
       sort_points="true"
       interpolator_type="CentripetalCatmullRom"
       interpolator_beta="0.75"
       start_linecap_type="round"
       linejoin_type="spiro"
       miter_limit="4"
       scale_width="1"
       end_linecap_type="round" />
    <inkscape:path-effect
       effect="simplify"
       id="path-effect1843"
       is_visible="true"
       lpeversion="1"
       steps="1"
       threshold="0.0035951417"
       smooth_angles="0"
       helper_size="0"
       simplify_individual_paths="false"
       simplify_just_coalesce="false"
       step="1" />
    <inkscape:path-effect
       effect="powerstroke"
       id="path-effect1838"
       is_visible="true"
       lpeversion="1"
       offset_points="1.0147746,0.10228681"
       not_jump="true"
       sort_points="true"
       interpolator_type="CentripetalCatmullRom"
       interpolator_beta="0.75"
       start_linecap_type="round"
       linejoin_type="spiro"
       miter_limit="4"
       scale_width="1"
       end_linecap_type="round" />
    <inkscape:path-effect
       effect="simplify"
       id="path-effect1836"
       is_visible="true"
       lpeversion="1"
       steps="1"
       threshold="0.0035951417"
       smooth_angles="0"
       helper_size="0"
       simplify_individual_paths="false"
       simplify_just_coalesce="false"
       step="1" />
    <inkscape:path-effect
       effect="powerstroke"
       id="path-effect502"
       is_visible="true"
       lpeversion="1"
       offset_points="3.0091841,0.21607495 | 7.3602657,0.17554228 | 9.4159651,0.20236537"
       not_jump="true"
       sort_points="true"
       interpolator_type="CentripetalCatmullRom"
       interpolator_beta="0.75"
       start_linecap_type="round"
       linejoin_type="spiro"
       miter_limit="4"
       scale_width="1"
       end_linecap_type="round" />
    <inkscape:path-effect
       effect="simplify"
       id="path-effect500"
       is_visible="true"
       lpeversion="1"
       steps="1"
       threshold="0.0035951417"
       smooth_angles="0"
       helper_size="0"
       simplify_individual_paths="false"
       simplify_just_coalesce="false"
       step="1" />
    <inkscape:path-effect
       effect="powerstroke"
       id="path-effect241"
       is_visible="true"
       lpeversion="1"
       offset_points="2.6879454,0.34086734"
       not_jump="true"
       sort_points="true"
       interpolator_type="CentripetalCatmullRom"
       interpolator_beta="0.75"
       start_linecap_type="round"
       linejoin_type="spiro"
       miter_limit="4"
       scale_width="1"
       end_linecap_type="round" />
    <inkscape:path-effect
       effect="simplify"
       id="path-effect239"
       is_visible="true"
       lpeversion="1"
       steps="1"
       threshold="0.0028332064"
       smooth_angles="0"
       helper_size="0"
       simplify_individual_paths="false"
       simplify_just_coalesce="false"
       step="1" />
    <inkscape:path-effect
       effect="powerstroke"
       id="path-effect234"
       is_visible="true"
       lpeversion="1"
       offset_points="2.13563,0.075169555"
       not_jump="true"
       sort_points="true"
       interpolator_type="CentripetalCatmullRom"
       interpolator_beta="0.75"
       start_linecap_type="round"
       linejoin_type="spiro"
       miter_limit="4"
       scale_width="1"
       end_linecap_type="round" />
    <inkscape:path-effect
       effect="simplify"
       id="path-effect232"
       is_visible="true"
       lpeversion="1"
       steps="1"
       threshold="0.0028332064"
       smooth_angles="0"
       helper_size="0"
       simplify_individual_paths="false"
       simplify_just_coalesce="false"
       step="1" />
    <inkscape:path-effect
       effect="powerstroke"
       id="path-effect227"
       is_visible="true"
       lpeversion="1"
       offset_points="2.1868266,0.075169555"
       not_jump="true"
       sort_points="true"
       interpolator_type="CentripetalCatmullRom"
       interpolator_beta="0.75"
       start_linecap_type="round"
       linejoin_type="spiro"
       miter_limit="4"
       scale_width="1"
       end_linecap_type="round" />
    <inkscape:path-effect
       effect="simplify"
       id="path-effect225"
       is_visible="true"
       lpeversion="1"
       steps="1"
       threshold="0.0028332064"
       smooth_angles="0"
       helper_size="0"
       simplify_individual_paths="false"
       simplify_just_coalesce="false"
       step="1" />
    <inkscape:path-effect
       effect="powerstroke"
       id="path-effect166"
       is_visible="true"
       lpeversion="1"
       offset_points="1.9637935,0.075169555"
       not_jump="true"
       sort_points="true"
       interpolator_type="CentripetalCatmullRom"
       interpolator_beta="0.75"
       start_linecap_type="round"
       linejoin_type="spiro"
       miter_limit="4"
       scale_width="1"
       end_linecap_type="round" />
    <inkscape:path-effect
       effect="simplify"
       id="path-effect164"
       is_visible="true"
       lpeversion="1"
       steps="1"
       threshold="0.0028332064"
       smooth_angles="0"
       helper_size="0"
       simplify_individual_paths="false"
       simplify_just_coalesce="false"
       step="1" />
    <inkscape:path-effect
       effect="powerstroke"
       id="path-effect159"
       is_visible="true"
       lpeversion="1"
       offset_points="2.2611036,0.075169555"
       not_jump="true"
       sort_points="true"
       interpolator_type="CentripetalCatmullRom"
       interpolator_beta="0.75"
       start_linecap_type="round"
       linejoin_type="spiro"
       miter_limit="4"
       scale_width="1"
       end_linecap_type="round" />
    <inkscape:path-effect
       effect="simplify"
       id="path-effect157"
       is_visible="true"
       lpeversion="1"
       steps="1"
       threshold="0.0028332064"
       smooth_angles="0"
       helper_size="0"
       simplify_individual_paths="false"
       simplify_just_coalesce="false"
       step="1" />
    <inkscape:path-effect
       effect="powerstroke"
       id="path-effect152"
       is_visible="true"
       lpeversion="1"
       offset_points="2.826981,0.075169555"
       not_jump="true"
       sort_points="true"
       interpolator_type="CentripetalCatmullRom"
       interpolator_beta="0.75"
       start_linecap_type="round"
       linejoin_type="spiro"
       miter_limit="4"
       scale_width="1"
       end_linecap_type="round" />
    <inkscape:path-effect
       effect="simplify"
       id="path-effect150"
       is_visible="true"
       lpeversion="1"
       steps="1"
       threshold="0.0028332064"
       smooth_angles="0"
       helper_size="0"
       simplify_individual_paths="false"
       simplify_just_coalesce="false"
       step="1" />
    <inkscape:path-effect
       effect="powerstroke"
       id="path-effect145"
       is_visible="true"
       lpeversion="1"
       offset_points="3.8374447,0.075169555"
       not_jump="true"
       sort_points="true"
       interpolator_type="CentripetalCatmullRom"
       interpolator_beta="0.75"
       start_linecap_type="round"
       linejoin_type="spiro"
       miter_limit="4"
       scale_width="1"
       end_linecap_type="round" />
    <inkscape:path-effect
       effect="simplify"
       id="path-effect143"
       is_visible="true"
       lpeversion="1"
       steps="1"
       threshold="0.0028332064"
       smooth_angles="0"
       helper_size="0"
       simplify_individual_paths="false"
       simplify_just_coalesce="false"
       step="1" />
    <inkscape:path-effect
       effect="powerstroke"
       id="path-effect138"
       is_visible="true"
       lpeversion="1"
       offset_points="2.6880907,0.075169555"
       not_jump="true"
       sort_points="true"
       interpolator_type="CentripetalCatmullRom"
       interpolator_beta="0.75"
       start_linecap_type="round"
       linejoin_type="spiro"
       miter_limit="4"
       scale_width="1"
       end_linecap_type="round" />
    <inkscape:path-effect
       effect="simplify"
       id="path-effect136"
       is_visible="true"
       lpeversion="1"
       steps="1"
       threshold="0.0028332064"
       smooth_angles="0"
       helper_size="0"
       simplify_individual_paths="false"
       simplify_just_coalesce="false"
       step="1" />
    <inkscape:path-effect
       effect="powerstroke"
       id="path-effect131"
       is_visible="true"
       lpeversion="1"
       offset_points="1.9940581,0.075169555"
       not_jump="true"
       sort_points="true"
       interpolator_type="CentripetalCatmullRom"
       interpolator_beta="0.75"
       start_linecap_type="round"
       linejoin_type="spiro"
       miter_limit="4"
       scale_width="1"
       end_linecap_type="round" />
    <inkscape:path-effect
       effect="simplify"
       id="path-effect129"
       is_visible="true"
       lpeversion="1"
       steps="1"
       threshold="0.0028332064"
       smooth_angles="0"
       helper_size="0"
       simplify_individual_paths="false"
       simplify_just_coalesce="false"
       step="1" />
  </defs>
  <sodipodi:namedview
     id="base"
     pagecolor="#ffffff"
     bordercolor="#666666"
     borderopacity="1.0"
     inkscape:pageopacity="0.0"
     inkscape:pageshadow="2"
     inkscape:zoom="22.4"
     inkscape:cx="-0.58035714"
     inkscape:cy="17.321428"
     inkscape:document-units="mm"
     inkscape:current-layer="layer1"
     showgrid="false"
     fit-margin-top="0"
     fit-margin-left="0"
     fit-margin-right="0"
     fit-margin-bottom="0"
     inkscape:window-width="1920"
     inkscape:window-height="1057"
     inkscape:window-x="1072"
     inkscape:window-y="321"
     inkscape:window-maximized="1"
     showguides="true"
     inkscape:guide-bbox="true"
     inkscape:snap-bbox="true"
     inkscape:bbox-nodes="true"
     inkscape:snap-nodes="false"
     inkscape:snap-others="false"
     inkscape:snap-page="true"
     inkscape:snap-grids="false"
     inkscape:snap-to-guides="false"
     inkscape:snap-global="false"
     inkscape:pagecheckerboard="0"
     inkscape:showpageshadow="2"
     inkscape:deskcolor="#d1d1d1">
    <sodipodi:guide
       position="-6.1806077,9.4988694"
       orientation="0,1"
       id="guide816"
       inkscape:locked="false" />
    <sodipodi:guide
       position="-4.4101637,10.646923"
       orientation="0,1"
       id="guide818"
       inkscape:locked="false" />
    <sodipodi:guide
       position="2.7595724,11.09577"
       orientation="1,0"
       id="guide820"
       inkscape:locked="false" />
    <sodipodi:guide
       position="3.657266,10.942217"
       orientation="1,0"
       id="guide822"
       inkscape:locked="false" />
    <sodipodi:guide
       position="-0.051625511,9.7492301"
       orientation="1,0"
       id="guide1853"
       inkscape:locked="false" />
    <sodipodi:guide
       position="-2.3720169,3.0175836"
       orientation="0,1"
       id="guide1855"
       inkscape:locked="false" />
  </sodipodi:namedview>
  <metadata
     id="metadata1678">
    <rdf:RDF>
      <cc:Work
         rdf:about="">
        <dc:format>image/svg+xml</dc:format>
        <dc:type
           rdf:resource="http://purl.org/dc/dcmitype/StillImage" />
      </cc:Work>
    </rdf:RDF>
  </metadata>
  <g
     inkscape:label="Layer 1"
     inkscape:groupmode="layer"
     id="layer1"
     transform="translate(17.028496,-147.22856)">
    <path
       d="m -16.168251,151.16866 c -0.002,0.25856 -0.0326,0.94123 -0.04319,1.56131 -0.004,0.23279 -0.0053,0.54415 0.01291,0.87054 0.0078,0.17653 0.01531,0.38995 0.01647,0.46741 a 0.11026001,0.11026001 90 0 0 0.220496,-0.003 c -0.0012,-0.0798 -0.0089,-0.29771 -0.01673,-0.47513 -0.01787,-0.31984 -0.0166,-0.62507 -0.01266,-0.85576 0.01046,-0.61295 0.04115,-1.30109 0.04322,-1.56333 a 0.11026001,0.11026001 90 0 0 -0.220514,-0.002 z"
       id="path-1"
       inkscape:path-effect="#path-effect261;#path-effect263"
       inkscape:original-d="m -16.057994,151.16953 c -0.0049,0.6794 -0.05553,1.35365 -0.04394,2.03367 0.0049,0.28799 0.02581,0.57525 0.03012,0.86307"
       style="fill:#000000;fill-rule:nonzero;stroke:none;stroke-width:1.24477" />
    <path
       d="m -16.068763,150.45821 c -0.0041,-0.0263 -0.01385,-0.0835 -0.0064,-0.13129 6.73e-4,-0.005 0.0015,-0.009 0.0028,-0.0128 0.0013,-0.004 0.0026,-0.006 0.0033,-0.007 5.62e-4,-7.7e-4 -1.11e-4,5.8e-4 -0.0032,0.002 -0.0016,9.4e-4 -0.0036,0.002 -0.0058,0.002 -0.0023,5.6e-4 -0.0043,6.9e-4 -0.0058,6.3e-4 -8.2e-4,4e-5 0.0014,7.4e-4 0.0039,0.002 0.0029,0.002 0.006,0.004 0.0092,0.007 0.0071,0.007 0.01374,0.0173 0.01819,0.0285 0.0014,0.004 0.0019,0.006 0.0019,0.008 6e-6,0.002 -3.98e-4,0.005 -0.001,0.006 -0.0065,0.003 -0.0081,0.004 -0.0091,0.004 -4.62e-4,8e-5 -0.0014,-1.4e-4 9.37e-4,-9.1e-4 0.0019,-6.2e-4 0.006,-0.001 0.01209,-4.6e-4 0.0063,0.001 0.01276,0.004 0.01813,0.008 3.06e-4,0 -0.0017,-0.003 -0.0035,-0.006 -0.0024,-0.006 -0.0038,-0.01 -0.0048,-0.0146 -0.0024,-0.0115 -0.0028,-0.0265 -1.09e-4,-0.0424 -5.72e-4,0.002 -0.0012,0.003 -0.0032,0.005 -0.002,0.002 -0.0059,0.005 -0.01261,0.008 -0.0033,0.001 -0.007,0.002 -0.01105,0.002 -0.004,2.6e-4 -0.0077,-6e-5 -0.01095,-7.8e-4 -0.01049,-0.003 -0.01359,-0.005 -0.0155,-0.007 -0.0016,-0.001 -0.0015,-0.002 -5.21e-4,-2e-5 9.44e-4,0.002 0.0022,0.005 0.0035,0.0101 0.0013,0.005 0.0023,0.0102 0.0033,0.0162 2.1e-5,0.001 2.7e-4,0.006 2.07e-4,0.01 -6.4e-5,0.004 -4.37e-4,0.006 -6.16e-4,0.007 -1.18e-4,5e-4 1.55e-4,-0.001 0.0027,-0.005 0.0029,-0.004 0.0074,-0.008 0.01291,-0.011 0.01076,-0.004 0.01361,-0.005 0.01675,-0.005 0.0031,-1.2e-4 0.0059,2.2e-4 0.0083,7.9e-4 0.0046,0.001 0.0063,0.003 0.006,0.002 -4.79e-4,-3.4e-4 -0.0021,-0.002 -0.0043,-0.005 -0.0021,-0.003 -0.004,-0.006 -0.0055,-0.009 -0.0013,-0.003 -0.0026,-0.006 -0.0034,-0.008 -7.75e-4,-0.002 -9.34e-4,-0.004 -9.18e-4,-0.004 1.6e-5,5.7e-4 1.67e-4,0.004 -0.0016,0.009 -9.08e-4,0.003 -0.0023,0.005 -0.0042,0.008 -0.0019,0.003 -0.0041,0.005 -0.0063,0.007 -0.0033,0.003 -0.0066,0.005 -0.01025,0.008 -0.0037,0.002 -0.0076,0.004 -0.01164,0.005 -0.0035,0.001 -0.0064,0.002 -0.0079,0.001 -0.0013,-4e-5 -6.01e-4,-1.7e-4 0.0017,4.2e-4 0.0047,0.001 0.01501,0.006 0.02838,0.0113 -0.002,-6.8e-4 7.18e-4,8.3e-4 0.0037,0.003 0.0025,0.002 0.0036,0.003 0.0028,0.002 -8.3e-4,-8.1e-4 -0.004,-0.004 -0.0071,-0.0106 -0.0016,-0.004 -0.003,-0.008 -0.0037,-0.0126 -7.33e-4,-0.005 -6.63e-4,-0.01 -6e-6,-0.0139 5.69e-4,-0.004 0.0012,-0.007 0.0023,-0.0111 0.0011,-0.004 0.0027,-0.007 0.0043,-0.0104 0.0025,-0.005 0.006,-0.009 0.0087,-0.0109 0.0025,-0.002 0.0032,-0.002 0.0017,-0.001 -0.0019,7.8e-4 -0.0051,0.002 -0.01037,0.003 -0.0053,0.001 -0.01203,0.003 -0.01986,0.005 -0.0082,0.002 -0.02016,0.003 -0.02846,0.004 a 0.07440022,0.07440022 90 0 0 0.01843,0.14766 c 0.0097,-0.001 0.02627,-0.003 0.04425,-0.007 0.0081,-0.002 0.01441,-0.003 0.02262,-0.005 0.0074,-0.002 0.01768,-0.005 0.02848,-0.009 0.01036,-0.004 0.02335,-0.0103 0.03602,-0.0203 0.0126,-0.01 0.02471,-0.0234 0.03338,-0.0413 0.0033,-0.007 0.0055,-0.014 0.0066,-0.0215 0.0015,-0.0102 0.0016,-0.0205 3.1e-5,-0.0308 -0.0015,-0.0101 -0.0045,-0.0194 -0.0083,-0.0277 -0.0074,-0.0161 -0.01773,-0.028 -0.0266,-0.0363 -0.0087,-0.008 -0.01757,-0.0144 -0.02453,-0.0188 -0.0067,-0.004 -0.01346,-0.008 -0.01703,-0.0102 -0.01584,-0.007 -0.03611,-0.0171 -0.05661,-0.0226 -0.01096,-0.003 -0.02427,-0.006 -0.03908,-0.006 -0.01493,-2e-4 -0.03138,0.002 -0.04818,0.008 -0.004,0.002 -0.008,0.003 -0.01164,0.005 -0.0037,0.002 -0.007,0.005 -0.01025,0.008 -0.0081,0.007 -0.01507,0.0147 -0.02092,0.0234 -0.0058,0.009 -0.01019,0.0176 -0.01334,0.0267 -0.0062,0.0179 -0.0074,0.035 -0.0065,0.0498 8.6e-4,0.0145 0.0038,0.0278 0.0073,0.039 0.0035,0.0113 0.0078,0.0216 0.01203,0.0304 0.0058,0.0117 0.01289,0.0234 0.02147,0.0346 0.0085,0.0111 0.0193,0.0226 0.03248,0.0326 0.0132,0.01 0.03014,0.0196 0.05061,0.0245 0.01035,0.002 0.02138,0.004 0.0329,0.003 0.01157,-4.5e-4 0.02303,-0.003 0.03416,-0.006 0.0286,-0.013 0.04412,-0.0273 0.05522,-0.0435 0.01082,-0.0157 0.01668,-0.0322 0.01996,-0.0462 0.0033,-0.0142 0.0044,-0.0278 0.0046,-0.0392 1.73e-4,-0.0117 -5.91e-4,-0.0225 -0.0015,-0.0314 -0.002,-0.0134 -0.0041,-0.0246 -0.0073,-0.0362 -0.0032,-0.0118 -0.0077,-0.0249 -0.01419,-0.038 -0.0067,-0.0134 -0.01593,-0.0277 -0.02899,-0.0405 -0.01369,-0.0135 -0.03077,-0.0245 -0.05115,-0.031 -0.01711,-0.004 -0.02773,-0.005 -0.03827,-0.004 -0.01068,7e-4 -0.02076,0.003 -0.03005,0.006 -0.01896,0.007 -0.03359,0.0177 -0.04465,0.0291 -0.01133,0.0117 -0.01961,0.0247 -0.02543,0.0371 -0.0061,0.0131 -0.01019,0.0271 -0.01202,0.041 -0.0049,0.0309 -0.0043,0.0653 0.003,0.0973 0.0034,0.0145 0.0081,0.0286 0.01441,0.042 0.0015,0.003 0.0032,0.007 0.0049,0.01 0.0095,0.0175 0.02182,0.0336 0.03722,0.0475 0.01738,0.0145 0.03439,0.0218 0.05125,0.0249 0.0172,0.003 0.03283,0.002 0.04534,-0.001 0.01311,-0.003 0.02447,-0.008 0.03357,-0.0125 0.0096,-0.005 0.01804,-0.0108 0.02502,-0.0163 0.01346,-0.009 0.02711,-0.0234 0.03697,-0.0393 0.01015,-0.0164 0.01623,-0.0337 0.01926,-0.0505 0.0031,-0.0172 0.0032,-0.0345 7.5e-4,-0.0509 -0.0025,-0.0167 -0.0076,-0.033 -0.01532,-0.0482 -0.01078,-0.0226 -0.02804,-0.048 -0.05107,-0.0686 -0.01109,-0.01 -0.02404,-0.0192 -0.03888,-0.0266 -0.01649,-0.008 -0.0337,-0.0135 -0.05283,-0.0154 -0.01352,-8.5e-4 -0.02424,2e-5 -0.03473,0.002 -0.01035,0.002 -0.01991,0.006 -0.02859,0.0112 -0.01712,0.01 -0.02978,0.0229 -0.03891,0.0357 -0.0092,0.0128 -0.01557,0.0265 -0.02002,0.039 -0.0046,0.0129 -0.0075,0.0259 -0.0091,0.0379 -0.01123,0.0701 0.0026,0.1493 0.0058,0.17001 a 0.06574903,0.06574903 90 0 0 0.12992,-0.0203 z"
       id="path-1-8"
       inkscape:path-effect="#path-effect449;#path-effect451"
       inkscape:original-d="m -16.133723,150.46836 c -0.07159,-0.43384 0.283713,-0.10902 0.09636,-0.0313 -0.08141,0.0338 -0.112403,-0.18875 -0.02723,-0.18474 0.05456,0.003 0.07835,0.14301 0.02723,0.16267 -0.05742,0.0221 -0.120056,-0.0966 -0.07681,-0.12861 0.03227,-0.0239 0.244846,0.0749 0.01257,0.10382"
       style="fill:#000000;fill-rule:nonzero;stroke:none" />
  </g>
</svg>
