<?xml version="1.0" encoding="UTF-8" standalone="no"?>
<!-- Created with Inkscape (http://www.inkscape.org/) -->

<svg
   width="2mm"
   height="10mm"
   viewBox="0 0 2.0000001 9.9999994"
   version="1.1"
   id="svg1681"
   inkscape:version="1.2.1 (9c6d41e410, 2022-07-14)"
   sodipodi:docname="lower_i_7.svg"
   inkscape:export-filename="..\..\..\..\Downloads\lower a diff canvas resize 3.0.png"
   inkscape:export-xdpi="96"
   inkscape:export-ydpi="96"
   xmlns:inkscape="http://www.inkscape.org/namespaces/inkscape"
   xmlns:sodipodi="http://sodipodi.sourceforge.net/DTD/sodipodi-0.dtd"
   xmlns="http://www.w3.org/2000/svg"
   xmlns:svg="http://www.w3.org/2000/svg"
   xmlns:rdf="http://www.w3.org/1999/02/22-rdf-syntax-ns#"
   xmlns:cc="http://creativecommons.org/ns#"
   xmlns:dc="http://purl.org/dc/elements/1.1/">
  <defs
     id="defs1675">
    <inkscape:path-effect
       effect="powerstroke"
       id="path-effect721"
       is_visible="true"
       lpeversion="1"
       offset_points="2.8200724,0.069209509 | 24.014799,0.07889884"
       not_jump="true"
       sort_points="true"
       interpolator_type="CentripetalCatmullRom"
       interpolator_beta="0.75"
       start_linecap_type="round"
       linejoin_type="spiro"
       miter_limit="4"
       scale_width="1"
       end_linecap_type="round" />
    <inkscape:path-effect
       effect="simplify"
       id="path-effect719"
       is_visible="true"
       lpeversion="1"
       steps="1"
       threshold="0.0047745358"
       smooth_angles="0"
       helper_size="0"
       simplify_individual_paths="false"
       simplify_just_coalesce="false"
       step="1" />
    <inkscape:path-effect
       effect="powerstroke"
       id="path-effect714"
       is_visible="true"
       lpeversion="1"
       offset_points="0.48986064,0.076303483 | 2.5321075,0.059693201"
       not_jump="true"
       sort_points="true"
       interpolator_type="CentripetalCatmullRom"
       interpolator_beta="0.75"
       start_linecap_type="round"
       linejoin_type="spiro"
       miter_limit="4"
       scale_width="1"
       end_linecap_type="round" />
    <inkscape:path-effect
       effect="simplify"
       id="path-effect712"
       is_visible="true"
       lpeversion="1"
       steps="1"
       threshold="0.0047745358"
       smooth_angles="0"
       helper_size="0"
       simplify_individual_paths="false"
       simplify_just_coalesce="false"
       step="1" />
    <inkscape:path-effect
       effect="powerstroke"
       id="path-effect562"
       is_visible="true"
       lpeversion="1"
       offset_points="4.106783,0.082705363"
       not_jump="true"
       sort_points="true"
       interpolator_type="CentripetalCatmullRom"
       interpolator_beta="0.75"
       start_linecap_type="round"
       linejoin_type="spiro"
       miter_limit="4"
       scale_width="1"
       end_linecap_type="round" />
    <inkscape:path-effect
       effect="simplify"
       id="path-effect560"
       is_visible="true"
       lpeversion="1"
       steps="1"
       threshold="0.0047745358"
       smooth_angles="0"
       helper_size="0"
       simplify_individual_paths="false"
       simplify_just_coalesce="false"
       step="1" />
    <inkscape:path-effect
       effect="powerstroke"
       id="path-effect508"
       is_visible="true"
       lpeversion="1"
       offset_points="2.6168989,0.084435601 | 13.959441,0.09862355"
       not_jump="true"
       sort_points="true"
       interpolator_type="CentripetalCatmullRom"
       interpolator_beta="0.75"
       start_linecap_type="round"
       linejoin_type="spiro"
       miter_limit="4"
       scale_width="1"
       end_linecap_type="round" />
    <inkscape:path-effect
       effect="simplify"
       id="path-effect506"
       is_visible="true"
       lpeversion="1"
       steps="1"
       threshold="0.0047745358"
       smooth_angles="0"
       helper_size="0"
       simplify_individual_paths="false"
       simplify_just_coalesce="false"
       step="1" />
    <inkscape:path-effect
       effect="powerstroke"
       id="path-effect501"
       is_visible="true"
       lpeversion="1"
       offset_points="0.19125717,0.10537148 | 0.87138816,0.095682146"
       not_jump="true"
       sort_points="true"
       interpolator_type="CentripetalCatmullRom"
       interpolator_beta="0.75"
       start_linecap_type="round"
       linejoin_type="spiro"
       miter_limit="4"
       scale_width="1"
       end_linecap_type="round" />
    <inkscape:path-effect
       effect="simplify"
       id="path-effect499"
       is_visible="true"
       lpeversion="1"
       steps="1"
       threshold="0.0047745358"
       smooth_angles="0"
       helper_size="0"
       simplify_individual_paths="false"
       simplify_just_coalesce="false"
       step="1" />
    <inkscape:path-effect
       effect="powerstroke"
       id="path-effect451"
       is_visible="true"
       lpeversion="1"
       offset_points="2.2582607,0.065749033 | 5.2977762,0.074400222"
       not_jump="true"
       sort_points="true"
       interpolator_type="CentripetalCatmullRom"
       interpolator_beta="0.75"
       start_linecap_type="round"
       linejoin_type="spiro"
       miter_limit="4"
       scale_width="1"
       end_linecap_type="round" />
    <inkscape:path-effect
       effect="simplify"
       id="path-effect449"
       is_visible="true"
       lpeversion="1"
       steps="1"
       threshold="0.0047745358"
       smooth_angles="0"
       helper_size="0"
       simplify_individual_paths="false"
       simplify_just_coalesce="false"
       step="1" />
    <inkscape:path-effect
       effect="powerstroke"
       id="path-effect270"
       is_visible="true"
       lpeversion="1"
       offset_points="2.7861905,0.092126751"
       not_jump="true"
       sort_points="true"
       interpolator_type="CentripetalCatmullRom"
       interpolator_beta="0.75"
       start_linecap_type="round"
       linejoin_type="spiro"
       miter_limit="4"
       scale_width="1"
       end_linecap_type="round" />
    <inkscape:path-effect
       effect="simplify"
       id="path-effect268"
       is_visible="true"
       lpeversion="1"
       steps="1"
       threshold="0.0047745358"
       smooth_angles="0"
       helper_size="0"
       simplify_individual_paths="false"
       simplify_just_coalesce="false"
       step="1" />
    <inkscape:path-effect
       effect="powerstroke"
       id="path-effect263"
       is_visible="true"
       lpeversion="1"
       offset_points="0.64430848,0.11026001"
       not_jump="true"
       sort_points="true"
       interpolator_type="CentripetalCatmullRom"
       interpolator_beta="0.75"
       start_linecap_type="round"
       linejoin_type="spiro"
       miter_limit="4"
       scale_width="1"
       end_linecap_type="round" />
    <inkscape:path-effect
       effect="simplify"
       id="path-effect261"
       is_visible="true"
       lpeversion="1"
       steps="1"
       threshold="0.0047745358"
       smooth_angles="0"
       helper_size="0"
       simplify_individual_paths="false"
       simplify_just_coalesce="false"
       step="1" />
    <inkscape:path-effect
       effect="powerstroke"
       id="path-effect1845"
       is_visible="true"
       lpeversion="1"
       offset_points="1.4617647,0.12041947"
       not_jump="true"
       sort_points="true"
       interpolator_type="CentripetalCatmullRom"
       interpolator_beta="0.75"
       start_linecap_type="round"
       linejoin_type="spiro"
       miter_limit="4"
       scale_width="1"
       end_linecap_type="round" />
    <inkscape:path-effect
       effect="simplify"
       id="path-effect1843"
       is_visible="true"
       lpeversion="1"
       steps="1"
       threshold="0.0035951417"
       smooth_angles="0"
       helper_size="0"
       simplify_individual_paths="false"
       simplify_just_coalesce="false"
       step="1" />
    <inkscape:path-effect
       effect="powerstroke"
       id="path-effect1838"
       is_visible="true"
       lpeversion="1"
       offset_points="1.0147746,0.10228681"
       not_jump="true"
       sort_points="true"
       interpolator_type="CentripetalCatmullRom"
       interpolator_beta="0.75"
       start_linecap_type="round"
       linejoin_type="spiro"
       miter_limit="4"
       scale_width="1"
       end_linecap_type="round" />
    <inkscape:path-effect
       effect="simplify"
       id="path-effect1836"
       is_visible="true"
       lpeversion="1"
       steps="1"
       threshold="0.0035951417"
       smooth_angles="0"
       helper_size="0"
       simplify_individual_paths="false"
       simplify_just_coalesce="false"
       step="1" />
    <inkscape:path-effect
       effect="powerstroke"
       id="path-effect502"
       is_visible="true"
       lpeversion="1"
       offset_points="3.0091841,0.21607495 | 7.3602657,0.17554228 | 9.4159651,0.20236537"
       not_jump="true"
       sort_points="true"
       interpolator_type="CentripetalCatmullRom"
       interpolator_beta="0.75"
       start_linecap_type="round"
       linejoin_type="spiro"
       miter_limit="4"
       scale_width="1"
       end_linecap_type="round" />
    <inkscape:path-effect
       effect="simplify"
       id="path-effect500"
       is_visible="true"
       lpeversion="1"
       steps="1"
       threshold="0.0035951417"
       smooth_angles="0"
       helper_size="0"
       simplify_individual_paths="false"
       simplify_just_coalesce="false"
       step="1" />
    <inkscape:path-effect
       effect="powerstroke"
       id="path-effect241"
       is_visible="true"
       lpeversion="1"
       offset_points="2.6879454,0.34086734"
       not_jump="true"
       sort_points="true"
       interpolator_type="CentripetalCatmullRom"
       interpolator_beta="0.75"
       start_linecap_type="round"
       linejoin_type="spiro"
       miter_limit="4"
       scale_width="1"
       end_linecap_type="round" />
    <inkscape:path-effect
       effect="simplify"
       id="path-effect239"
       is_visible="true"
       lpeversion="1"
       steps="1"
       threshold="0.0028332064"
       smooth_angles="0"
       helper_size="0"
       simplify_individual_paths="false"
       simplify_just_coalesce="false"
       step="1" />
    <inkscape:path-effect
       effect="powerstroke"
       id="path-effect234"
       is_visible="true"
       lpeversion="1"
       offset_points="2.13563,0.075169555"
       not_jump="true"
       sort_points="true"
       interpolator_type="CentripetalCatmullRom"
       interpolator_beta="0.75"
       start_linecap_type="round"
       linejoin_type="spiro"
       miter_limit="4"
       scale_width="1"
       end_linecap_type="round" />
    <inkscape:path-effect
       effect="simplify"
       id="path-effect232"
       is_visible="true"
       lpeversion="1"
       steps="1"
       threshold="0.0028332064"
       smooth_angles="0"
       helper_size="0"
       simplify_individual_paths="false"
       simplify_just_coalesce="false"
       step="1" />
    <inkscape:path-effect
       effect="powerstroke"
       id="path-effect227"
       is_visible="true"
       lpeversion="1"
       offset_points="2.1868266,0.075169555"
       not_jump="true"
       sort_points="true"
       interpolator_type="CentripetalCatmullRom"
       interpolator_beta="0.75"
       start_linecap_type="round"
       linejoin_type="spiro"
       miter_limit="4"
       scale_width="1"
       end_linecap_type="round" />
    <inkscape:path-effect
       effect="simplify"
       id="path-effect225"
       is_visible="true"
       lpeversion="1"
       steps="1"
       threshold="0.0028332064"
       smooth_angles="0"
       helper_size="0"
       simplify_individual_paths="false"
       simplify_just_coalesce="false"
       step="1" />
    <inkscape:path-effect
       effect="powerstroke"
       id="path-effect166"
       is_visible="true"
       lpeversion="1"
       offset_points="1.9637935,0.075169555"
       not_jump="true"
       sort_points="true"
       interpolator_type="CentripetalCatmullRom"
       interpolator_beta="0.75"
       start_linecap_type="round"
       linejoin_type="spiro"
       miter_limit="4"
       scale_width="1"
       end_linecap_type="round" />
    <inkscape:path-effect
       effect="simplify"
       id="path-effect164"
       is_visible="true"
       lpeversion="1"
       steps="1"
       threshold="0.0028332064"
       smooth_angles="0"
       helper_size="0"
       simplify_individual_paths="false"
       simplify_just_coalesce="false"
       step="1" />
    <inkscape:path-effect
       effect="powerstroke"
       id="path-effect159"
       is_visible="true"
       lpeversion="1"
       offset_points="2.2611036,0.075169555"
       not_jump="true"
       sort_points="true"
       interpolator_type="CentripetalCatmullRom"
       interpolator_beta="0.75"
       start_linecap_type="round"
       linejoin_type="spiro"
       miter_limit="4"
       scale_width="1"
       end_linecap_type="round" />
    <inkscape:path-effect
       effect="simplify"
       id="path-effect157"
       is_visible="true"
       lpeversion="1"
       steps="1"
       threshold="0.0028332064"
       smooth_angles="0"
       helper_size="0"
       simplify_individual_paths="false"
       simplify_just_coalesce="false"
       step="1" />
    <inkscape:path-effect
       effect="powerstroke"
       id="path-effect152"
       is_visible="true"
       lpeversion="1"
       offset_points="2.826981,0.075169555"
       not_jump="true"
       sort_points="true"
       interpolator_type="CentripetalCatmullRom"
       interpolator_beta="0.75"
       start_linecap_type="round"
       linejoin_type="spiro"
       miter_limit="4"
       scale_width="1"
       end_linecap_type="round" />
    <inkscape:path-effect
       effect="simplify"
       id="path-effect150"
       is_visible="true"
       lpeversion="1"
       steps="1"
       threshold="0.0028332064"
       smooth_angles="0"
       helper_size="0"
       simplify_individual_paths="false"
       simplify_just_coalesce="false"
       step="1" />
    <inkscape:path-effect
       effect="powerstroke"
       id="path-effect145"
       is_visible="true"
       lpeversion="1"
       offset_points="3.8374447,0.075169555"
       not_jump="true"
       sort_points="true"
       interpolator_type="CentripetalCatmullRom"
       interpolator_beta="0.75"
       start_linecap_type="round"
       linejoin_type="spiro"
       miter_limit="4"
       scale_width="1"
       end_linecap_type="round" />
    <inkscape:path-effect
       effect="simplify"
       id="path-effect143"
       is_visible="true"
       lpeversion="1"
       steps="1"
       threshold="0.0028332064"
       smooth_angles="0"
       helper_size="0"
       simplify_individual_paths="false"
       simplify_just_coalesce="false"
       step="1" />
    <inkscape:path-effect
       effect="powerstroke"
       id="path-effect138"
       is_visible="true"
       lpeversion="1"
       offset_points="2.6880907,0.075169555"
       not_jump="true"
       sort_points="true"
       interpolator_type="CentripetalCatmullRom"
       interpolator_beta="0.75"
       start_linecap_type="round"
       linejoin_type="spiro"
       miter_limit="4"
       scale_width="1"
       end_linecap_type="round" />
    <inkscape:path-effect
       effect="simplify"
       id="path-effect136"
       is_visible="true"
       lpeversion="1"
       steps="1"
       threshold="0.0028332064"
       smooth_angles="0"
       helper_size="0"
       simplify_individual_paths="false"
       simplify_just_coalesce="false"
       step="1" />
    <inkscape:path-effect
       effect="powerstroke"
       id="path-effect131"
       is_visible="true"
       lpeversion="1"
       offset_points="1.9940581,0.075169555"
       not_jump="true"
       sort_points="true"
       interpolator_type="CentripetalCatmullRom"
       interpolator_beta="0.75"
       start_linecap_type="round"
       linejoin_type="spiro"
       miter_limit="4"
       scale_width="1"
       end_linecap_type="round" />
    <inkscape:path-effect
       effect="simplify"
       id="path-effect129"
       is_visible="true"
       lpeversion="1"
       steps="1"
       threshold="0.0028332064"
       smooth_angles="0"
       helper_size="0"
       simplify_individual_paths="false"
       simplify_just_coalesce="false"
       step="1" />
  </defs>
  <sodipodi:namedview
     id="base"
     pagecolor="#ffffff"
     bordercolor="#666666"
     borderopacity="1.0"
     inkscape:pageopacity="0.0"
     inkscape:pageshadow="2"
     inkscape:zoom="22.4"
     inkscape:cx="-0.58035714"
     inkscape:cy="17.321428"
     inkscape:document-units="mm"
     inkscape:current-layer="layer1"
     showgrid="false"
     fit-margin-top="0"
     fit-margin-left="0"
     fit-margin-right="0"
     fit-margin-bottom="0"
     inkscape:window-width="1920"
     inkscape:window-height="1057"
     inkscape:window-x="1072"
     inkscape:window-y="321"
     inkscape:window-maximized="1"
     showguides="true"
     inkscape:guide-bbox="true"
     inkscape:snap-bbox="true"
     inkscape:bbox-nodes="true"
     inkscape:snap-nodes="false"
     inkscape:snap-others="false"
     inkscape:snap-page="true"
     inkscape:snap-grids="false"
     inkscape:snap-to-guides="false"
     inkscape:snap-global="false"
     inkscape:pagecheckerboard="0"
     inkscape:showpageshadow="2"
     inkscape:deskcolor="#d1d1d1">
    <sodipodi:guide
       position="-6.1806077,9.4988694"
       orientation="0,1"
       id="guide816"
       inkscape:locked="false" />
    <sodipodi:guide
       position="-4.4101637,10.646923"
       orientation="0,1"
       id="guide818"
       inkscape:locked="false" />
    <sodipodi:guide
       position="2.7595724,11.09577"
       orientation="1,0"
       id="guide820"
       inkscape:locked="false" />
    <sodipodi:guide
       position="3.657266,10.942217"
       orientation="1,0"
       id="guide822"
       inkscape:locked="false" />
    <sodipodi:guide
       position="-0.051625511,9.7492301"
       orientation="1,0"
       id="guide1853"
       inkscape:locked="false" />
    <sodipodi:guide
       position="-2.3720169,3.0175836"
       orientation="0,1"
       id="guide1855"
       inkscape:locked="false" />
  </sodipodi:namedview>
  <metadata
     id="metadata1678">
    <rdf:RDF>
      <cc:Work
         rdf:about="">
        <dc:format>image/svg+xml</dc:format>
        <dc:type
           rdf:resource="http://purl.org/dc/dcmitype/StillImage" />
      </cc:Work>
    </rdf:RDF>
  </metadata>
  <g
     inkscape:label="Layer 1"
     inkscape:groupmode="layer"
     id="layer1"
     transform="translate(17.028496,-147.22856)">
    <path
       d="m -16.323091,150.23426 c -0.0064,0.17654 -0.0046,0.35988 0.02003,0.73926 1.1e-5,1.7e-4 9.77e-4,0.015 9.89e-4,0.0151 0.01044,0.1595 0.03453,0.47471 0.03158,0.74088 0.002,0.60383 -0.02651,1.22614 0.01639,1.8389 0.0034,0.0779 0.0032,0.20311 0.0036,0.25105 1e-6,1.3e-4 1.69e-4,0.0165 1.7e-4,0.0166 0.0014,0.122 0.0064,0.19129 0.01339,0.24562 a 0.0596932,0.0596932 90 0 0 0.118422,-0.0151 c -0.0061,-0.0475 -0.01297,-0.11473 -0.01242,-0.23088 2.4e-5,-0.005 6.3e-5,-0.0106 1.18e-4,-0.0162 6.3e-4,-0.064 0.0046,-0.15366 0.0037,-0.25688 -0.03684,-0.61004 -0.0018,-1.21981 0.0019,-1.83176 0.0062,-0.27432 -0.01518,-0.59317 -0.02463,-0.75173 1.03e-4,0.002 -0.001,-0.0169 -9.02e-4,-0.0151 -0.02262,-0.37957 -0.02609,-0.55162 -0.01983,-0.72424 a 0.07630348,0.07630348 90 0 0 -0.152506,-0.006 z"
       id="path-1"
       inkscape:path-effect="#path-effect712;#path-effect714"
       inkscape:original-d="m -16.246838,150.23702 c -0.01689,0.43208 0.04089,0.86321 0.04748,1.2943 0.01001,0.65499 -0.03489,1.30585 0.0056,1.96079 0.01183,0.19143 -0.0085,0.39227 0.01606,0.58203"
       style="fill:#000000;fill-rule:nonzero;stroke:none" />
    <path
       d="m -16.292617,149.6062 c 0.0028,2.4e-4 0.0065,9.3e-4 0.01064,0.003 0.0036,0.001 0.0072,0.004 0.01032,0.006 0.0055,0.005 0.0082,0.009 0.0094,0.0124 0.0028,-0.005 0.0047,-0.011 0.0063,-0.0138 -0.0017,0.002 -0.0038,0.003 -0.0067,0.005 -0.0062,0.003 -0.01278,0.005 -0.01951,0.005 -0.0039,4.8e-4 -0.0084,3.9e-4 -0.01325,-6.3e-4 -0.0047,-9.9e-4 -0.0089,-0.003 -0.01252,-0.005 -0.0068,-0.004 -0.01021,-0.008 -0.01181,-0.0111 -0.0014,-0.002 -0.0018,-0.004 -0.002,-0.005 -2.57e-4,-0.002 -3.92e-4,-0.003 -5.4e-5,-0.006 -0.0011,0.009 -0.0028,0.0148 -0.0048,0.019 l 0.0233,-0.008 c 0.0052,-0.001 0.01147,-0.002 0.01845,-5.8e-4 0.0069,9.5e-4 0.01319,0.003 0.01871,0.006 0.0053,0.003 0.0092,0.006 0.01205,0.009 0.0027,0.003 0.0045,0.005 0.0056,0.007 0.0022,0.003 0.0023,0.004 0.0021,0.003 -2.3e-4,-6.6e-4 -8.71e-4,-0.003 -0.002,-0.006 0.0013,0.004 7.69e-4,-1.2e-4 5.48e-4,-0.004 -2.18e-4,-0.004 -6.4e-5,-0.006 1.97e-4,-0.008 2.62e-4,-0.002 4.78e-4,-0.001 -1.24e-4,-4e-5 -6.98e-4,0.002 -0.0022,0.004 -0.0048,0.006 -0.01165,0.009 -0.02112,0.0125 -0.0306,0.0135 -0.0091,9.4e-4 -0.01761,-4.7e-4 -0.02504,-0.003 -0.0073,-0.003 -0.01422,-0.008 -0.01997,-0.014 -0.0058,-0.007 -0.01035,-0.015 -0.01238,-0.0248 0.0024,0.01 0.0029,0.0165 0.0018,0.0246 -0.001,0.008 -0.0035,0.0163 -0.0072,0.0241 0.0032,-0.006 0.0051,-0.009 0.0077,-0.0123 0.0013,-0.002 0.0032,-0.004 0.0057,-0.006 0.0024,-0.002 0.0059,-0.005 0.01059,-0.007 0.0047,-0.002 0.01111,-0.005 0.01917,-0.007 0.0083,-0.001 0.01761,-0.001 0.02724,0.001 0.0096,0.002 0.01754,0.007 0.02374,0.0115 0.006,0.005 0.01,0.009 0.01251,0.013 -0.0097,-0.0127 -0.01506,-0.0233 -0.01771,-0.0336 -0.0013,-0.005 -0.0018,-0.01 -0.0018,-0.0136 -8e-6,-0.004 5.19e-4,-0.007 0.0014,-0.0104 -2.79e-4,0.001 -0.0017,0.004 -0.003,0.006 -0.0013,0.002 -0.0029,0.003 -0.0048,0.005 -0.0019,0.001 -0.0047,0.003 -0.0085,0.003 -0.0039,6.9e-4 -0.0087,6.2e-4 -0.01365,-8.6e-4 -0.0036,-0.001 -0.0072,-0.002 -0.01054,-0.004 -0.0034,-0.002 -0.0065,-0.004 -0.0096,-0.006 -0.0024,-0.002 -0.0047,-0.004 -0.0067,-0.006 -0.002,-0.002 -0.0035,-0.005 -0.0045,-0.007 -0.002,-0.004 -0.002,-0.006 -0.002,-0.005 6e-5,0.001 1.46e-4,0.003 -2.05e-4,0.008 -3.77e-4,0.005 -9.14e-4,0.01 -0.0017,0.0172 -0.0018,0.008 -0.0039,0.0168 -0.0066,0.024 -0.0012,0.003 -0.0022,0.005 -0.0028,0.006 0.01131,-0.008 0.01713,-0.0114 0.02432,-0.0133 0.0073,-0.002 0.01461,-0.002 0.02152,-0.002 0.0067,7.6e-4 0.01222,0.003 0.01623,0.004 0.004,0.002 0.0068,0.004 0.0085,0.005 0.0036,0.003 0.0038,0.003 0.0033,0.003 -5.69e-4,-7.1e-4 -0.002,-0.003 -0.0044,-0.006 -0.0069,-0.0108 -0.01449,-0.025 -0.01888,-0.0378 -0.0021,-0.006 -0.0033,-0.0117 -0.0038,-0.0163 -4.95e-4,-0.005 -3.12e-4,-0.008 2.79e-4,-0.0115 -0.0015,0.008 -0.0035,0.0124 -0.0063,0.0168 -0.0028,0.004 -0.0061,0.008 -0.0093,0.0101 -0.0062,0.005 -0.0119,0.006 -0.01549,0.007 -0.0037,3.9e-4 -0.0082,6e-5 -0.01329,-0.002 -0.0027,-0.001 -0.0059,-0.003 -0.009,-0.006 -0.0032,-0.003 -0.0063,-0.006 -0.0087,-0.0106 0.0061,0.0105 0.0095,0.0218 0.01042,0.035 8.88e-4,0.0134 -0.001,0.0273 -0.0052,0.0396 0.0016,-0.005 0.0026,-0.007 0.004,-0.009 0.0013,-0.002 0.0039,-0.006 0.0084,-0.01 0.0046,-0.004 0.01248,-0.009 0.02389,-0.0119 0.0058,-0.001 0.01197,-0.002 0.01831,-0.001 0.0064,4.5e-4 0.01213,0.002 0.01713,0.004 -0.01091,-0.004 -0.01643,-0.007 -0.01989,-0.011 -0.0042,-0.0118 -0.003,-0.0197 9.23e-4,-0.0276 0.0042,-0.008 0.01051,-0.015 0.01685,-0.0188 0.0016,-9.2e-4 0.0012,-0.001 0.0026,-0.001 0.0044,4.6e-4 0.0034,5e-4 0.0011,-0.002 -0.0028,-0.002 -0.0052,-0.006 -0.0062,-0.0104 6.59e-4,0.005 8.44e-4,0.0109 7.5e-4,0.0113 -4.8e-5,1.9e-4 -4.9e-5,-0.001 9.78e-4,-0.004 0.0011,-0.003 0.0033,-0.008 0.0068,-0.0116 0.0042,-0.005 0.0091,-0.009 0.01439,-0.0126 0.004,-0.003 0.0088,-0.005 0.01409,-0.007 0.0054,-0.002 0.01051,-0.002 0.01505,-0.002 0.0089,1.1e-4 0.01479,0.003 0.01658,0.003 0.0021,9.6e-4 0.0024,0.001 0.0014,5.6e-4 2.12e-4,4.6e-4 -7.85e-4,-8e-4 -4.85e-4,-4.1e-4 3.19e-4,4.1e-4 0.0023,0.003 0.0049,0.009 0.0014,0.003 0.0029,0.007 0.004,0.0128 0.0012,0.006 0.0018,0.0123 0.0012,0.0198 -6.5e-4,0.008 -0.0026,0.0155 -0.0057,0.0225 -0.0032,0.007 -0.0072,0.0131 -0.01102,0.0175 -0.0039,0.005 -0.0079,0.009 -0.01242,0.013 -0.0045,0.004 -0.0096,0.007 -0.01508,0.01 -0.0055,0.002 -0.01141,0.004 -0.01738,0.004 -0.006,5.7e-4 -0.01198,3.2e-4 -0.01797,3e-5 -0.0052,-2.6e-4 -0.01043,-0.001 -0.01546,-0.003 -0.0058,-0.002 -0.01065,-0.004 -0.0146,-0.007 -0.0077,-0.005 -0.01182,-0.0104 -0.01304,-0.012 -0.0013,-0.002 -0.0016,-0.003 -5.14e-4,-4.7e-4 8.95e-4,0.002 0.0025,0.005 0.0053,0.0102 -0.0026,-0.005 -0.0036,-0.009 -0.0042,-0.0113 -5.8e-4,-0.003 -0.0012,-0.008 -1.56e-4,-0.0149 5.7e-4,-0.004 0.0017,-0.009 0.0041,-0.0141 0.0025,-0.006 0.0064,-0.0122 0.01221,-0.0184 0.0061,-0.006 0.01347,-0.0115 0.02139,-0.0149 0.0081,-0.003 0.01547,-0.005 0.02113,-0.005 0.0014,-1.5e-4 0.0042,2.9e-4 0.005,4.2e-4 0.0013,2.3e-4 3.63e-4,1.1e-4 -9.24e-4,-2.6e-4 a 0.07889884,0.07889884 90 0 0 -0.04361,0.15166 c 0.0033,9.6e-4 0.01118,0.003 0.02038,0.005 0.007,0.001 0.01737,0.002 0.02954,0.001 0.0078,-3.2e-4 0.01941,-0.002 0.0312,-0.008 0.01148,-0.005 0.02187,-0.0122 0.03055,-0.0213 0.0083,-0.009 0.01413,-0.0183 0.01814,-0.0275 0.0038,-0.009 0.006,-0.0175 0.0072,-0.0252 0.0022,-0.0145 0.0012,-0.028 -0.001,-0.0394 -0.0021,-0.0107 -0.0059,-0.0223 -0.01188,-0.0334 -2.41e-4,-4.4e-4 -0.0018,-0.004 -0.0044,-0.008 -0.0022,-0.004 -0.0063,-0.0117 -0.01193,-0.0194 -0.0054,-0.007 -0.01436,-0.0179 -0.02787,-0.0268 -0.0068,-0.004 -0.0147,-0.008 -0.0238,-0.0114 -0.0079,-0.003 -0.01622,-0.004 -0.02476,-0.004 -0.0061,-3e-4 -0.01221,-5.6e-4 -0.01829,-3e-5 -0.0061,5.2e-4 -0.01211,0.002 -0.01774,0.004 -0.0056,0.002 -0.01083,0.006 -0.01546,0.01 -0.0046,0.004 -0.0087,0.009 -0.01269,0.0132 -0.0053,0.006 -0.01037,0.0136 -0.01434,0.0226 -0.0038,0.009 -0.0062,0.0181 -0.007,0.0276 -7.57e-4,0.009 -1.1e-5,0.0175 0.0015,0.0248 0.0014,0.007 0.0035,0.0129 0.0056,0.0177 0.0038,0.009 0.0082,0.0153 0.01036,0.0184 0.0023,0.003 0.0035,0.005 0.0024,0.003 l 0.0061,0.008 c 0.0056,0.006 0.0127,0.0136 0.0211,0.0206 0.0079,0.007 0.01834,0.014 0.03103,0.0201 0.01206,0.006 0.02885,0.0116 0.04888,0.0119 0.0099,1.5e-4 0.02052,-0.001 0.0313,-0.004 0.01064,-0.003 0.02071,-0.008 0.02994,-0.0142 0.0053,-0.004 0.01014,-0.008 0.01439,-0.0126 0.01129,-0.0127 0.01897,-0.0267 0.02388,-0.0407 0.0047,-0.0134 0.0067,-0.0263 0.0074,-0.0376 0.0013,-0.0211 -0.0019,-0.0405 -0.0042,-0.0529 -0.0075,-0.0321 -0.02226,-0.0556 -0.04184,-0.0732 -0.01875,-0.0169 -0.04076,-0.0275 -0.0625,-0.0331 -0.02132,-0.005 -0.04387,-0.007 -0.06575,-0.003 -0.02144,0.003 -0.04398,0.0111 -0.0643,0.0252 -0.02881,0.0179 -0.05444,0.047 -0.07073,0.0807 -0.016,0.033 -0.02388,0.0718 -0.01761,0.11236 0.0026,0.0177 0.0084,0.0349 0.01661,0.0503 0.008,0.0152 0.01817,0.0285 0.02949,0.0399 0.02201,0.0222 0.04944,0.0383 0.07801,0.0474 0.0039,0.002 0.01294,0.004 0.02248,0.005 0.0095,6.9e-4 0.01877,-1.2e-4 0.0275,-0.002 0.01727,-0.004 0.0306,-0.0124 0.03999,-0.0204 0.0093,-0.008 0.01608,-0.0165 0.02096,-0.0241 0.0049,-0.008 0.0087,-0.0156 0.01155,-0.0233 0.01107,-0.0335 0.01544,-0.0673 0.01291,-0.10089 -0.0025,-0.0333 -0.01189,-0.0678 -0.03066,-0.0993 -0.0055,-0.01 -0.01386,-0.0198 -0.02322,-0.0279 -0.0093,-0.008 -0.01937,-0.0141 -0.02954,-0.0185 -0.02002,-0.009 -0.04145,-0.0114 -0.06149,-0.009 -0.01992,0.002 -0.04144,0.009 -0.06027,0.0233 -0.0095,0.007 -0.01836,0.0163 -0.02558,0.0274 -0.0073,0.0111 -0.01247,0.0236 -0.01531,0.037 -0.0038,0.0218 -0.0038,0.0401 -0.0017,0.0573 0.0021,0.0171 0.0062,0.0332 0.01141,0.048 0.01024,0.0291 0.02522,0.0548 0.03924,0.0756 0.0046,0.006 0.0088,0.0115 0.01329,0.0167 0.0045,0.005 0.01174,0.0127 0.02129,0.0196 0.0049,0.004 0.01112,0.007 0.01852,0.0107 0.0075,0.003 0.01651,0.006 0.02688,0.007 0.01054,0.001 0.0216,5.6e-4 0.03266,-0.002 0.01099,-0.003 0.02066,-0.008 0.02892,-0.0133 0.01868,-0.0158 0.02767,-0.0271 0.0347,-0.0385 0.007,-0.0113 0.01206,-0.0226 0.01586,-0.0331 0.0074,-0.0202 0.01111,-0.0406 0.01357,-0.0541 0.0013,-0.0112 0.0023,-0.0203 0.0028,-0.0288 5.2e-4,-0.009 7.77e-4,-0.0205 -5.71e-4,-0.0328 -0.0014,-0.0124 -0.0045,-0.0277 -0.01206,-0.0431 -0.0038,-0.008 -0.0088,-0.0157 -0.015,-0.0231 -0.0063,-0.007 -0.01359,-0.0142 -0.02184,-0.0199 -0.0062,-0.004 -0.01296,-0.008 -0.02014,-0.01 -0.01808,-0.006 -0.03621,-0.006 -0.05298,-0.003 -0.0167,0.003 -0.0319,0.009 -0.04494,0.0172 -0.01311,0.008 -0.02463,0.0189 -0.03388,0.0313 -0.0093,0.0125 -0.0167,0.0271 -0.02081,0.0435 -0.0044,0.0154 -0.0064,0.033 -0.0062,0.0499 2.52e-4,0.017 0.0028,0.0334 0.0069,0.0488 0.0083,0.0309 0.02331,0.0589 0.04163,0.0821 0.0016,0.002 0.0072,0.009 0.01488,0.0149 0.0079,0.006 0.01752,0.0112 0.02877,0.0141 0.01132,0.003 0.02233,0.003 0.03222,0.001 0.0097,-0.002 0.01777,-0.005 0.02397,-0.008 0.0062,-0.003 0.01122,-0.007 0.01505,-0.0103 0.0039,-0.003 0.0071,-0.007 0.0097,-0.01 0.0051,-0.006 0.009,-0.012 0.01204,-0.0178 0.01128,-0.0242 0.01789,-0.0471 0.02065,-0.0704 0.0028,-0.0241 0.0017,-0.0494 -0.0051,-0.0742 -0.0022,-0.0115 -0.0096,-0.0252 -0.0191,-0.036 -0.0096,-0.0109 -0.02131,-0.0188 -0.03378,-0.0238 -0.01273,-0.005 -0.02702,-0.007 -0.04167,-0.006 -0.0152,0.002 -0.03023,0.007 -0.04328,0.017 -0.01765,0.0149 -0.02759,0.0291 -0.03433,0.0434 -0.0068,0.0144 -0.01027,0.0288 -0.01195,0.0415 -0.0017,0.0131 -0.0017,0.0256 -8.76e-4,0.0366 8.5e-4,0.0113 0.0026,0.022 0.0047,0.0313 0.0028,0.01 0.0047,0.0152 0.0069,0.0206 0.0023,0.006 0.0061,0.014 0.01189,0.0226 0.0031,0.005 0.007,0.01 0.01206,0.0145 0.0052,0.005 0.01174,0.0103 0.01981,0.0147 0.0084,0.005 0.01777,0.008 0.02795,0.009 0.01036,0.001 0.02028,8.6e-4 0.02935,-0.001 0.0042,-8.8e-4 0.0084,-0.002 0.01237,-0.003 0.004,-0.002 0.0076,-0.004 0.01124,-0.006 0.01264,-0.008 0.02285,-0.018 0.0309,-0.0279 0.0085,-0.0104 0.01476,-0.0212 0.01948,-0.0313 0.01024,-0.0219 0.01466,-0.0437 0.01658,-0.0601 0.0013,-0.009 0.0012,-0.0195 1.33e-4,-0.0287 -4.33e-4,-0.004 -0.001,-0.008 -0.0018,-0.0113 -0.0027,-0.0133 -0.0077,-0.0269 -0.01539,-0.0395 -0.0081,-0.0133 -0.01978,-0.0266 -0.03638,-0.0363 -0.0087,-0.005 -0.0183,-0.009 -0.02875,-0.0112 -0.01071,-0.002 -0.02149,-0.003 -0.03198,-0.001 -0.0067,8.1e-4 -0.01331,0.003 -0.01951,0.005 -0.01506,0.007 -0.02719,0.0157 -0.03674,0.0254 -0.0099,0.0101 -0.01715,0.0209 -0.0224,0.0306 -0.01112,0.0205 -0.01635,0.0415 -0.01906,0.0545 -0.0027,0.0112 -0.0036,0.0243 -0.0029,0.0365 7.55e-4,0.0137 0.0036,0.0276 0.0089,0.0408 0.0063,0.0155 0.01613,0.0302 0.03008,0.0418 0.008,0.007 0.01679,0.0119 0.02592,0.0156 0.01043,0.004 0.02067,0.006 0.03002,0.007 a 0.06920951,0.06920951 90 0 0 0.01178,-0.13792 z"
       id="path-1-1"
       inkscape:path-effect="#path-effect719;#path-effect721"
       inkscape:original-d="m -16.298508,149.67516 c -0.06466,-0.008 -0.01648,-0.14155 0.02304,-0.11826 0.05294,0.0312 -0.0018,0.13309 -0.02304,0.11826 -0.03067,-0.0214 -0.02472,-0.11414 0.01257,-0.11145 0.03729,0.003 0.01087,0.14057 -0.01257,0.11145 -0.04931,-0.0613 -0.04424,-0.15722 0.02304,-0.15722 0.0552,0 0.01708,0.17187 -0.02304,0.15722 -0.03623,-0.0132 -0.113317,-0.18048 -0.01396,-0.17385 0.06758,0.005 0.06313,0.19118 0.01396,0.17385 -0.15068,-0.0531 -0.03756,-0.25802 0.07262,-0.19592 0.01842,0.0104 0.02728,0.0312 0.02863,0.0512 0.0075,0.1116 -0.09451,0.0222 -0.07471,0.0103 0.01572,-0.009 0.06725,0.0854 -0.0049,0.0643"
       style="fill:#000000;fill-rule:nonzero;stroke:none" />
  </g>
</svg>
