<?xml version="1.0" encoding="UTF-8" standalone="no"?>
<!-- Created with Inkscape (http://www.inkscape.org/) -->

<svg
   width="2mm"
   height="10mm"
   viewBox="0 0 2.0000001 9.9999994"
   version="1.1"
   id="svg1681"
   inkscape:version="1.2.1 (9c6d41e410, 2022-07-14)"
   sodipodi:docname="lower_i_5.svg"
   inkscape:export-filename="..\..\..\..\Downloads\lower a diff canvas resize 3.0.png"
   inkscape:export-xdpi="96"
   inkscape:export-ydpi="96"
   xmlns:inkscape="http://www.inkscape.org/namespaces/inkscape"
   xmlns:sodipodi="http://sodipodi.sourceforge.net/DTD/sodipodi-0.dtd"
   xmlns="http://www.w3.org/2000/svg"
   xmlns:svg="http://www.w3.org/2000/svg"
   xmlns:rdf="http://www.w3.org/1999/02/22-rdf-syntax-ns#"
   xmlns:cc="http://creativecommons.org/ns#"
   xmlns:dc="http://purl.org/dc/elements/1.1/">
  <defs
     id="defs1675">
    <inkscape:path-effect
       effect="powerstroke"
       id="path-effect562"
       is_visible="true"
       lpeversion="1"
       offset_points="4.106783,0.082705363"
       not_jump="true"
       sort_points="true"
       interpolator_type="CentripetalCatmullRom"
       interpolator_beta="0.75"
       start_linecap_type="round"
       linejoin_type="spiro"
       miter_limit="4"
       scale_width="1"
       end_linecap_type="round" />
    <inkscape:path-effect
       effect="simplify"
       id="path-effect560"
       is_visible="true"
       lpeversion="1"
       steps="1"
       threshold="0.0047745358"
       smooth_angles="0"
       helper_size="0"
       simplify_individual_paths="false"
       simplify_just_coalesce="false"
       step="1" />
    <inkscape:path-effect
       effect="powerstroke"
       id="path-effect508"
       is_visible="true"
       lpeversion="1"
       offset_points="2.6168989,0.084435601 | 13.959441,0.09862355"
       not_jump="true"
       sort_points="true"
       interpolator_type="CentripetalCatmullRom"
       interpolator_beta="0.75"
       start_linecap_type="round"
       linejoin_type="spiro"
       miter_limit="4"
       scale_width="1"
       end_linecap_type="round" />
    <inkscape:path-effect
       effect="simplify"
       id="path-effect506"
       is_visible="true"
       lpeversion="1"
       steps="1"
       threshold="0.0047745358"
       smooth_angles="0"
       helper_size="0"
       simplify_individual_paths="false"
       simplify_just_coalesce="false"
       step="1" />
    <inkscape:path-effect
       effect="powerstroke"
       id="path-effect501"
       is_visible="true"
       lpeversion="1"
       offset_points="0.19125717,0.10537148 | 0.87138816,0.095682146"
       not_jump="true"
       sort_points="true"
       interpolator_type="CentripetalCatmullRom"
       interpolator_beta="0.75"
       start_linecap_type="round"
       linejoin_type="spiro"
       miter_limit="4"
       scale_width="1"
       end_linecap_type="round" />
    <inkscape:path-effect
       effect="simplify"
       id="path-effect499"
       is_visible="true"
       lpeversion="1"
       steps="1"
       threshold="0.0047745358"
       smooth_angles="0"
       helper_size="0"
       simplify_individual_paths="false"
       simplify_just_coalesce="false"
       step="1" />
    <inkscape:path-effect
       effect="powerstroke"
       id="path-effect451"
       is_visible="true"
       lpeversion="1"
       offset_points="2.2582607,0.065749033 | 5.2977762,0.074400222"
       not_jump="true"
       sort_points="true"
       interpolator_type="CentripetalCatmullRom"
       interpolator_beta="0.75"
       start_linecap_type="round"
       linejoin_type="spiro"
       miter_limit="4"
       scale_width="1"
       end_linecap_type="round" />
    <inkscape:path-effect
       effect="simplify"
       id="path-effect449"
       is_visible="true"
       lpeversion="1"
       steps="1"
       threshold="0.0047745358"
       smooth_angles="0"
       helper_size="0"
       simplify_individual_paths="false"
       simplify_just_coalesce="false"
       step="1" />
    <inkscape:path-effect
       effect="powerstroke"
       id="path-effect270"
       is_visible="true"
       lpeversion="1"
       offset_points="2.7861905,0.092126751"
       not_jump="true"
       sort_points="true"
       interpolator_type="CentripetalCatmullRom"
       interpolator_beta="0.75"
       start_linecap_type="round"
       linejoin_type="spiro"
       miter_limit="4"
       scale_width="1"
       end_linecap_type="round" />
    <inkscape:path-effect
       effect="simplify"
       id="path-effect268"
       is_visible="true"
       lpeversion="1"
       steps="1"
       threshold="0.0047745358"
       smooth_angles="0"
       helper_size="0"
       simplify_individual_paths="false"
       simplify_just_coalesce="false"
       step="1" />
    <inkscape:path-effect
       effect="powerstroke"
       id="path-effect263"
       is_visible="true"
       lpeversion="1"
       offset_points="0.64430848,0.11026001"
       not_jump="true"
       sort_points="true"
       interpolator_type="CentripetalCatmullRom"
       interpolator_beta="0.75"
       start_linecap_type="round"
       linejoin_type="spiro"
       miter_limit="4"
       scale_width="1"
       end_linecap_type="round" />
    <inkscape:path-effect
       effect="simplify"
       id="path-effect261"
       is_visible="true"
       lpeversion="1"
       steps="1"
       threshold="0.0047745358"
       smooth_angles="0"
       helper_size="0"
       simplify_individual_paths="false"
       simplify_just_coalesce="false"
       step="1" />
    <inkscape:path-effect
       effect="powerstroke"
       id="path-effect1845"
       is_visible="true"
       lpeversion="1"
       offset_points="1.4617647,0.12041947"
       not_jump="true"
       sort_points="true"
       interpolator_type="CentripetalCatmullRom"
       interpolator_beta="0.75"
       start_linecap_type="round"
       linejoin_type="spiro"
       miter_limit="4"
       scale_width="1"
       end_linecap_type="round" />
    <inkscape:path-effect
       effect="simplify"
       id="path-effect1843"
       is_visible="true"
       lpeversion="1"
       steps="1"
       threshold="0.0035951417"
       smooth_angles="0"
       helper_size="0"
       simplify_individual_paths="false"
       simplify_just_coalesce="false"
       step="1" />
    <inkscape:path-effect
       effect="powerstroke"
       id="path-effect1838"
       is_visible="true"
       lpeversion="1"
       offset_points="1.0147746,0.10228681"
       not_jump="true"
       sort_points="true"
       interpolator_type="CentripetalCatmullRom"
       interpolator_beta="0.75"
       start_linecap_type="round"
       linejoin_type="spiro"
       miter_limit="4"
       scale_width="1"
       end_linecap_type="round" />
    <inkscape:path-effect
       effect="simplify"
       id="path-effect1836"
       is_visible="true"
       lpeversion="1"
       steps="1"
       threshold="0.0035951417"
       smooth_angles="0"
       helper_size="0"
       simplify_individual_paths="false"
       simplify_just_coalesce="false"
       step="1" />
    <inkscape:path-effect
       effect="powerstroke"
       id="path-effect502"
       is_visible="true"
       lpeversion="1"
       offset_points="3.0091841,0.21607495 | 7.3602657,0.17554228 | 9.4159651,0.20236537"
       not_jump="true"
       sort_points="true"
       interpolator_type="CentripetalCatmullRom"
       interpolator_beta="0.75"
       start_linecap_type="round"
       linejoin_type="spiro"
       miter_limit="4"
       scale_width="1"
       end_linecap_type="round" />
    <inkscape:path-effect
       effect="simplify"
       id="path-effect500"
       is_visible="true"
       lpeversion="1"
       steps="1"
       threshold="0.0035951417"
       smooth_angles="0"
       helper_size="0"
       simplify_individual_paths="false"
       simplify_just_coalesce="false"
       step="1" />
    <inkscape:path-effect
       effect="powerstroke"
       id="path-effect241"
       is_visible="true"
       lpeversion="1"
       offset_points="2.6879454,0.34086734"
       not_jump="true"
       sort_points="true"
       interpolator_type="CentripetalCatmullRom"
       interpolator_beta="0.75"
       start_linecap_type="round"
       linejoin_type="spiro"
       miter_limit="4"
       scale_width="1"
       end_linecap_type="round" />
    <inkscape:path-effect
       effect="simplify"
       id="path-effect239"
       is_visible="true"
       lpeversion="1"
       steps="1"
       threshold="0.0028332064"
       smooth_angles="0"
       helper_size="0"
       simplify_individual_paths="false"
       simplify_just_coalesce="false"
       step="1" />
    <inkscape:path-effect
       effect="powerstroke"
       id="path-effect234"
       is_visible="true"
       lpeversion="1"
       offset_points="2.13563,0.075169555"
       not_jump="true"
       sort_points="true"
       interpolator_type="CentripetalCatmullRom"
       interpolator_beta="0.75"
       start_linecap_type="round"
       linejoin_type="spiro"
       miter_limit="4"
       scale_width="1"
       end_linecap_type="round" />
    <inkscape:path-effect
       effect="simplify"
       id="path-effect232"
       is_visible="true"
       lpeversion="1"
       steps="1"
       threshold="0.0028332064"
       smooth_angles="0"
       helper_size="0"
       simplify_individual_paths="false"
       simplify_just_coalesce="false"
       step="1" />
    <inkscape:path-effect
       effect="powerstroke"
       id="path-effect227"
       is_visible="true"
       lpeversion="1"
       offset_points="2.1868266,0.075169555"
       not_jump="true"
       sort_points="true"
       interpolator_type="CentripetalCatmullRom"
       interpolator_beta="0.75"
       start_linecap_type="round"
       linejoin_type="spiro"
       miter_limit="4"
       scale_width="1"
       end_linecap_type="round" />
    <inkscape:path-effect
       effect="simplify"
       id="path-effect225"
       is_visible="true"
       lpeversion="1"
       steps="1"
       threshold="0.0028332064"
       smooth_angles="0"
       helper_size="0"
       simplify_individual_paths="false"
       simplify_just_coalesce="false"
       step="1" />
    <inkscape:path-effect
       effect="powerstroke"
       id="path-effect166"
       is_visible="true"
       lpeversion="1"
       offset_points="1.9637935,0.075169555"
       not_jump="true"
       sort_points="true"
       interpolator_type="CentripetalCatmullRom"
       interpolator_beta="0.75"
       start_linecap_type="round"
       linejoin_type="spiro"
       miter_limit="4"
       scale_width="1"
       end_linecap_type="round" />
    <inkscape:path-effect
       effect="simplify"
       id="path-effect164"
       is_visible="true"
       lpeversion="1"
       steps="1"
       threshold="0.0028332064"
       smooth_angles="0"
       helper_size="0"
       simplify_individual_paths="false"
       simplify_just_coalesce="false"
       step="1" />
    <inkscape:path-effect
       effect="powerstroke"
       id="path-effect159"
       is_visible="true"
       lpeversion="1"
       offset_points="2.2611036,0.075169555"
       not_jump="true"
       sort_points="true"
       interpolator_type="CentripetalCatmullRom"
       interpolator_beta="0.75"
       start_linecap_type="round"
       linejoin_type="spiro"
       miter_limit="4"
       scale_width="1"
       end_linecap_type="round" />
    <inkscape:path-effect
       effect="simplify"
       id="path-effect157"
       is_visible="true"
       lpeversion="1"
       steps="1"
       threshold="0.0028332064"
       smooth_angles="0"
       helper_size="0"
       simplify_individual_paths="false"
       simplify_just_coalesce="false"
       step="1" />
    <inkscape:path-effect
       effect="powerstroke"
       id="path-effect152"
       is_visible="true"
       lpeversion="1"
       offset_points="2.826981,0.075169555"
       not_jump="true"
       sort_points="true"
       interpolator_type="CentripetalCatmullRom"
       interpolator_beta="0.75"
       start_linecap_type="round"
       linejoin_type="spiro"
       miter_limit="4"
       scale_width="1"
       end_linecap_type="round" />
    <inkscape:path-effect
       effect="simplify"
       id="path-effect150"
       is_visible="true"
       lpeversion="1"
       steps="1"
       threshold="0.0028332064"
       smooth_angles="0"
       helper_size="0"
       simplify_individual_paths="false"
       simplify_just_coalesce="false"
       step="1" />
    <inkscape:path-effect
       effect="powerstroke"
       id="path-effect145"
       is_visible="true"
       lpeversion="1"
       offset_points="3.8374447,0.075169555"
       not_jump="true"
       sort_points="true"
       interpolator_type="CentripetalCatmullRom"
       interpolator_beta="0.75"
       start_linecap_type="round"
       linejoin_type="spiro"
       miter_limit="4"
       scale_width="1"
       end_linecap_type="round" />
    <inkscape:path-effect
       effect="simplify"
       id="path-effect143"
       is_visible="true"
       lpeversion="1"
       steps="1"
       threshold="0.0028332064"
       smooth_angles="0"
       helper_size="0"
       simplify_individual_paths="false"
       simplify_just_coalesce="false"
       step="1" />
    <inkscape:path-effect
       effect="powerstroke"
       id="path-effect138"
       is_visible="true"
       lpeversion="1"
       offset_points="2.6880907,0.075169555"
       not_jump="true"
       sort_points="true"
       interpolator_type="CentripetalCatmullRom"
       interpolator_beta="0.75"
       start_linecap_type="round"
       linejoin_type="spiro"
       miter_limit="4"
       scale_width="1"
       end_linecap_type="round" />
    <inkscape:path-effect
       effect="simplify"
       id="path-effect136"
       is_visible="true"
       lpeversion="1"
       steps="1"
       threshold="0.0028332064"
       smooth_angles="0"
       helper_size="0"
       simplify_individual_paths="false"
       simplify_just_coalesce="false"
       step="1" />
    <inkscape:path-effect
       effect="powerstroke"
       id="path-effect131"
       is_visible="true"
       lpeversion="1"
       offset_points="1.9940581,0.075169555"
       not_jump="true"
       sort_points="true"
       interpolator_type="CentripetalCatmullRom"
       interpolator_beta="0.75"
       start_linecap_type="round"
       linejoin_type="spiro"
       miter_limit="4"
       scale_width="1"
       end_linecap_type="round" />
    <inkscape:path-effect
       effect="simplify"
       id="path-effect129"
       is_visible="true"
       lpeversion="1"
       steps="1"
       threshold="0.0028332064"
       smooth_angles="0"
       helper_size="0"
       simplify_individual_paths="false"
       simplify_just_coalesce="false"
       step="1" />
  </defs>
  <sodipodi:namedview
     id="base"
     pagecolor="#ffffff"
     bordercolor="#666666"
     borderopacity="1.0"
     inkscape:pageopacity="0.0"
     inkscape:pageshadow="2"
     inkscape:zoom="22.4"
     inkscape:cx="-0.58035714"
     inkscape:cy="17.321428"
     inkscape:document-units="mm"
     inkscape:current-layer="layer1"
     showgrid="false"
     fit-margin-top="0"
     fit-margin-left="0"
     fit-margin-right="0"
     fit-margin-bottom="0"
     inkscape:window-width="1920"
     inkscape:window-height="1057"
     inkscape:window-x="1072"
     inkscape:window-y="321"
     inkscape:window-maximized="1"
     showguides="true"
     inkscape:guide-bbox="true"
     inkscape:snap-bbox="true"
     inkscape:bbox-nodes="true"
     inkscape:snap-nodes="false"
     inkscape:snap-others="false"
     inkscape:snap-page="true"
     inkscape:snap-grids="false"
     inkscape:snap-to-guides="false"
     inkscape:snap-global="false"
     inkscape:pagecheckerboard="0"
     inkscape:showpageshadow="2"
     inkscape:deskcolor="#d1d1d1">
    <sodipodi:guide
       position="-6.1806077,9.4988694"
       orientation="0,1"
       id="guide816"
       inkscape:locked="false" />
    <sodipodi:guide
       position="-4.4101637,10.646923"
       orientation="0,1"
       id="guide818"
       inkscape:locked="false" />
    <sodipodi:guide
       position="2.7595724,11.09577"
       orientation="1,0"
       id="guide820"
       inkscape:locked="false" />
    <sodipodi:guide
       position="3.657266,10.942217"
       orientation="1,0"
       id="guide822"
       inkscape:locked="false" />
    <sodipodi:guide
       position="-0.051625511,9.7492301"
       orientation="1,0"
       id="guide1853"
       inkscape:locked="false" />
    <sodipodi:guide
       position="-2.3720169,3.0175836"
       orientation="0,1"
       id="guide1855"
       inkscape:locked="false" />
  </sodipodi:namedview>
  <metadata
     id="metadata1678">
    <rdf:RDF>
      <cc:Work
         rdf:about="">
        <dc:format>image/svg+xml</dc:format>
        <dc:type
           rdf:resource="http://purl.org/dc/dcmitype/StillImage" />
      </cc:Work>
    </rdf:RDF>
  </metadata>
  <g
     inkscape:label="Layer 1"
     inkscape:groupmode="layer"
     id="layer1"
     transform="translate(17.028496,-147.22856)">
    <path
       d="m -16.169894,150.78893 c -0.004,0.10612 -0.01456,0.35935 -0.02558,0.637 -0.02077,0.52359 -0.06059,1.81094 -0.06578,2.27049 -0.0023,0.2039 -0.003,0.35445 -0.0031,0.43027 a 0.09568215,0.09568215 90 0 0 0.191364,8e-5 c 3.3e-5,-0.0742 -8.6e-5,-0.22613 0.0031,-0.42779 0.0071,-0.45711 0.06197,-1.74049 0.08499,-2.26424 0.01334,-0.30348 0.02064,-0.50578 0.02561,-0.63789 a 0.10537148,0.10537148 90 0 0 -0.210594,-0.008 z"
       id="path-1"
       inkscape:path-effect="#path-effect499;#path-effect501"
       inkscape:original-d="m -16.064597,150.79289 c -0.04165,1.10369 -0.104038,2.24197 -0.104038,3.33384"
       style="fill:#000000;fill-rule:nonzero;stroke:none" />
    <path
       d="m -16.048793,150.0997 c 0.002,0.001 0.0041,0.003 0.0053,0.005 8.49e-4,0.001 4.75e-4,0.001 1.97e-4,-5.4e-4 -2.56e-4,-0.002 -3.08e-4,-0.005 3.74e-4,-0.008 6.32e-4,-0.003 0.0017,-0.006 0.0024,-0.007 0.0021,-0.004 7.44e-4,-0.002 -4.5e-4,-0.001 -0.0053,0.003 -0.0079,0.003 -0.01148,0.003 -0.0037,-3.6e-4 -0.0079,-0.002 -0.01178,-0.004 -0.0037,-0.002 -0.0068,-0.005 -0.0097,-0.009 -0.0028,-0.003 -0.0049,-0.007 -0.0064,-0.0106 -0.0028,-0.007 -0.0028,-0.0112 -0.0028,-0.0125 3.6e-5,-0.001 3.1e-5,1.4e-4 -6.58e-4,0.002 -7.15e-4,0.002 -0.0018,0.005 -0.0032,0.008 -0.005,0.01 -0.01025,0.0186 -0.01533,0.025 -0.0048,0.006 -0.0079,0.008 -0.0091,0.009 0.0022,-0.001 0.006,-0.003 0.0093,-0.004 0.0043,-0.001 0.0085,-0.002 0.01262,-0.003 0.0062,-8.2e-4 0.01529,-0.001 0.02606,0.002 0.0054,0.001 0.01207,0.004 0.01915,0.008 0.007,0.004 0.01449,0.0105 0.02093,0.0192 0.0064,0.009 0.01076,0.0182 0.01304,0.0283 0.0022,0.01 0.0022,0.0182 0.0013,0.025 l -0.0025,-0.0327 c -0.0058,-0.0205 -0.0106,-0.0395 -0.01294,-0.0573 -0.0021,-0.0162 -0.0019,-0.0299 6.19e-4,-0.0412 -5.51e-4,0.003 -0.0031,0.009 -0.0068,0.0147 -0.0035,0.005 -0.0078,0.009 -0.01244,0.0122 -0.0045,0.003 -0.0096,0.005 -0.01496,0.006 -0.0026,5.3e-4 -0.0054,8.3e-4 -0.0082,8.5e-4 -0.0029,-5.4e-4 -0.0056,-0.001 -0.0082,-0.002 -0.0047,-0.002 -0.0088,-0.005 -0.01224,-0.008 -0.0034,-0.003 -0.0064,-0.007 -0.0086,-0.0126 -0.0022,-0.005 -0.0036,-0.0111 -0.0034,-0.0176 7.7e-5,0.009 -7.79e-4,0.0145 -0.0019,0.0179 l 0.0279,-0.0169 c 0.0038,-0.001 0.0081,-0.002 0.01259,-0.003 0.0045,-3.6e-4 0.0086,-6e-5 0.01214,6e-4 0.0069,0.001 0.0106,0.004 0.0118,0.004 9.56e-4,6.2e-4 4.87e-4,4.8e-4 -0.0011,-0.001 -0.0015,-0.002 -0.0033,-0.004 -0.0052,-0.006 -3.4e-5,-1.7e-4 0.001,0.002 0.0016,0.004 5.98e-4,0.002 0.0013,0.005 0.0012,0.009 -1.05e-4,0.004 -0.0011,0.0115 -0.0057,0.0197 -0.0023,0.004 -0.0053,0.008 -0.0089,0.0116 -0.0037,0.004 -0.0076,0.006 -0.01128,0.008 0.004,-0.002 0.0025,-0.002 0.0016,-0.001 -8.77e-4,2.2e-4 -0.003,6.7e-4 -0.0066,3.6e-4 -0.0038,-3.4e-4 -0.0105,-0.002 -0.01835,-0.007 -0.004,-0.003 -0.0079,-0.006 -0.01129,-0.01 -0.0034,-0.004 -0.0059,-0.008 -0.0075,-0.0123 -0.0012,-0.003 -0.0014,-0.005 -0.0013,-0.006 0.0044,-0.007 0.0074,-0.009 0.01167,-0.0101 0.0022,-7.3e-4 0.0056,-7.1e-4 0.0078,-3.9e-4 0.0022,3.2e-4 0.0041,0.001 0.0059,0.002 0.0019,0.001 0.0046,0.003 0.007,0.007 0.0026,0.004 0.0044,0.01 0.0045,0.0156 2.8e-5,-0.003 -7.47e-4,0.001 -0.002,0.004 -0.0012,0.003 -0.0027,0.005 -0.0039,0.006 -0.0013,0.001 -0.0029,0.002 -0.0051,0.003 -9.63e-4,3.6e-4 -0.0021,6.8e-4 -0.0034,9e-4 -0.0045,-6.4e-4 -0.0089,-0.002 -0.01303,-0.004 -0.0068,-0.003 -0.01121,-0.008 -0.01375,-0.0107 -0.0025,-0.003 -0.0039,-0.006 -0.0046,-0.009 -3.94e-4,-0.001 -7.3e-4,-0.003 -9.19e-4,-0.004 1.7e-4,-0.001 4.1e-4,-0.002 6.38e-4,-0.003 4.85e-4,-0.002 0.0015,-0.004 0.0038,-0.007 0.0025,-0.003 0.0071,-0.008 0.01522,-0.0117 0.0041,-0.002 0.0088,-0.003 0.01377,-0.004 0.005,-6.6e-4 0.0097,-4.7e-4 0.01387,2.5e-4 0.002,3.7e-4 -9.46e-4,-7.9e-4 -0.0044,-0.003 -0.0034,-0.002 -0.0061,-0.005 -0.0078,-0.008 0.0028,0.005 0.0048,0.009 0.0061,0.0141 0.0013,0.005 0.0018,0.01 0.0016,0.0147 -3.4e-4,0.009 -0.0032,0.0162 -0.0053,0.0201 -0.0021,0.004 -0.0043,0.006 -0.0056,0.007 -0.0014,0.001 -0.0032,0.002 -0.0059,0.004 0.0119,-0.006 0.02048,-0.008 0.02778,-0.009 0.0073,-7.9e-4 0.01165,2.3e-4 0.01392,0.001 -0.006,-0.002 -0.0134,-0.007 -0.01901,-0.0143 -0.0054,-0.007 -0.008,-0.0131 -0.0092,-0.0181 -0.0012,-0.005 -0.0012,-0.009 -8.22e-4,-0.0126 4.2e-4,-0.003 0.0014,-0.007 0.0034,-0.011 0.002,0.004 0.0065,6.3e-4 0.01319,-0.001 0.0072,-0.002 0.01493,-0.003 0.02209,-0.001 -5.95e-4,-1.5e-4 -3.78e-4,3.5e-4 -0.0015,-3.9e-4 -0.0023,-0.002 -0.0013,-9.9e-4 -5.63e-4,0.003 7.96e-4,0.004 4.26e-4,0.0103 -0.0019,0.0157 -4.04e-4,9.3e-4 -7.46e-4,0.002 -8.53e-4,0.003 -1.07e-4,0.001 -1.4e-5,0.002 -5e-5,0.003 -3.7e-5,0.001 -2.54e-4,0.002 -8.43e-4,0.003 -2.95e-4,4.2e-4 -6.71e-4,7.7e-4 -0.0011,0.001 -4.22e-4,2.8e-4 -8.86e-4,4.9e-4 -0.0013,6.9e-4 0.0054,-0.002 0.01402,-0.005 0.02542,-0.006 -0.0058,0.001 -0.01618,-1.1e-4 -0.02539,-0.003 -0.0092,-0.003 -0.01698,-0.009 -0.02303,-0.0153 -0.0062,-0.007 -0.01105,-0.015 -0.01369,-0.0247 -0.0028,-0.0101 -0.0029,-0.0209 -2.14e-4,-0.0312 -0.0028,0.013 -0.0075,0.0227 -0.01425,0.0311 -0.0072,0.009 -0.01525,0.0147 -0.02231,0.0177 0.0064,-0.003 0.01357,-0.004 0.02027,-0.003 0.0067,4.8e-4 0.0119,0.002 0.01571,0.004 0.0039,0.002 0.0067,0.004 0.0088,0.007 0.0022,0.003 0.0042,0.006 0.0057,0.009 -0.0038,-0.009 -0.005,-0.0117 -0.0062,-0.016 a 0.08270536,0.08270536 90 0 0 -0.159536,0.0437 c 0.0025,0.009 0.0069,0.0234 0.01429,0.0386 0.003,0.009 0.01152,0.0224 0.02214,0.0343 0.01009,0.0113 0.02262,0.0216 0.03738,0.0294 0.01426,0.008 0.03106,0.0131 0.04993,0.0144 0.01842,0.001 0.03793,-0.002 0.05686,-0.01 0.03346,-0.0143 0.06301,-0.0376 0.08593,-0.0662 0.02155,-0.0269 0.03841,-0.06 0.04615,-0.0966 0.0039,-0.0144 0.0036,-0.0332 -0.0012,-0.0506 -0.0046,-0.0168 -0.01324,-0.0318 -0.02456,-0.044 -0.01107,-0.0119 -0.02518,-0.0216 -0.04157,-0.0276 -0.01625,-0.006 -0.03455,-0.008 -0.05329,-0.005 -0.01596,0.002 -0.04296,0.006 -0.06959,0.018 -0.0133,0.006 -0.02744,0.0137 -0.04087,0.0246 -0.01338,0.0108 -0.02596,0.0246 -0.03598,0.0417 -0.01597,0.0352 -0.01824,0.0627 -0.01369,0.0882 0.0044,0.0246 0.01485,0.0461 0.02764,0.0636 0.01265,0.0173 0.02854,0.0321 0.04622,0.0435 0.0174,0.0112 0.03816,0.0202 0.06111,0.024 0.01765,0.004 0.03796,0.002 0.05675,-0.003 0.01821,-0.006 0.03324,-0.015 0.04509,-0.0251 0.01169,-0.01 0.02093,-0.0213 0.02807,-0.0325 0.0061,-0.009 0.01104,-0.0195 0.01489,-0.0296 0.0055,-0.0123 0.009,-0.0252 0.01061,-0.0381 0.0018,-0.0148 0.0013,-0.0307 -0.0026,-0.0467 -0.0039,-0.0159 -0.01127,-0.0327 -0.02374,-0.0479 -0.01264,-0.0154 -0.02936,-0.0276 -0.04925,-0.035 -0.02962,-0.0119 -0.062,-0.0144 -0.0913,-0.0112 -0.02887,0.003 -0.05614,0.0119 -0.07993,0.0237 -0.01024,0.004 -0.02277,0.0126 -0.03363,0.0222 -0.0108,0.01 -0.0212,0.0216 -0.02933,0.0362 -0.0081,0.0146 -0.01468,0.0331 -0.01546,0.0544 -3.86e-4,0.0107 7.05e-4,0.0217 0.0036,0.0327 0.0029,0.011 0.0073,0.0214 0.01313,0.0311 0.01389,0.0223 0.03136,0.0407 0.05134,0.0553 0.01989,0.0145 0.04341,0.0259 0.06934,0.0317 0.01575,0.003 0.02787,0.003 0.03991,0.002 0.01202,-0.002 0.02329,-0.005 0.03359,-0.01 0.02049,-0.009 0.03591,-0.0234 0.04689,-0.0376 0.01096,-0.0142 0.01856,-0.0298 0.02332,-0.0452 0.0043,-0.0139 0.0067,-0.029 0.0065,-0.0446 5.3e-4,-0.0159 -0.0018,-0.0314 -0.0061,-0.0456 -0.0048,-0.0158 -0.01265,-0.0313 -0.02361,-0.0452 -0.01099,-0.0139 -0.02584,-0.027 -0.04476,-0.0361 -0.01689,-0.008 -0.03579,-0.0123 -0.05553,-0.0118 -0.02024,-9.4e-4 -0.03976,0.003 -0.05728,0.009 -0.01968,0.007 -0.03731,0.0187 -0.05191,0.0328 -0.01463,0.0141 -0.02682,0.0316 -0.03483,0.0517 -0.0081,0.0203 -0.01185,0.0432 -0.0093,0.067 -5.5e-5,0.0182 0.0076,0.0418 0.01978,0.0615 0.01208,0.0195 0.02826,0.0348 0.04575,0.0457 0.01753,0.011 0.03734,0.0183 0.05791,0.0213 0.02071,0.003 0.04311,0.002 0.06516,-0.005 0.02127,-0.006 0.04084,-0.0186 0.05635,-0.0334 0.01546,-0.0148 0.02707,-0.0322 0.03499,-0.0503 0.008,-0.0182 0.01261,-0.0381 0.01333,-0.0584 7.26e-4,-0.0204 -0.0025,-0.0421 -0.01125,-0.063 -0.0045,-0.0109 -0.01074,-0.0213 -0.01856,-0.0306 -0.0078,-0.009 -0.0168,-0.017 -0.02632,-0.0231 -0.019,-0.0121 -0.03873,-0.0172 -0.05625,-0.0188 -0.01733,-0.002 -0.03387,3.8e-4 -0.04839,0.004 -0.01464,0.004 -0.02918,0.01 -0.04242,0.018 -0.0041,0.002 -0.0137,0.009 -0.02217,0.0167 -0.0085,0.008 -0.01539,0.0173 -0.02077,0.027 -0.01078,0.0194 -0.01477,0.0394 -0.01519,0.0568 -4.27e-4,0.0175 0.0027,0.0341 0.0076,0.0486 0.005,0.0147 0.01257,0.029 0.02257,0.0418 0.0033,0.005 0.01005,0.0132 0.01806,0.0216 0.008,0.008 0.01813,0.0175 0.03043,0.0255 0.01241,0.008 0.02858,0.016 0.04808,0.0196 0.0099,0.002 0.02053,0.003 0.03158,0.002 0.01114,-9.1e-4 0.02209,-0.003 0.03263,-0.007 0.0049,-0.002 0.0098,-0.004 0.01423,-0.007 0.0045,-0.003 0.0084,-0.006 0.01229,-0.01 0.01175,-0.0108 0.02099,-0.0227 0.02818,-0.0348 0.0073,-0.0122 0.01249,-0.0245 0.01626,-0.0363 0.0076,-0.0238 0.0099,-0.0475 0.0097,-0.0677 3.39e-4,-0.0157 -0.0034,-0.033 -0.01002,-0.0483 -0.0067,-0.0155 -0.0162,-0.029 -0.02743,-0.04 -0.01145,-0.0112 -0.025,-0.0203 -0.03994,-0.0265 -0.01281,-0.005 -0.02673,-0.009 -0.04121,-0.009 -0.0133,-0.002 -0.02644,-9.9e-4 -0.03883,0.002 -0.01536,0.003 -0.02975,0.009 -0.04247,0.0173 -0.01308,0.008 -0.02459,0.0195 -0.03367,0.0327 -0.0094,0.0136 -0.01597,0.0292 -0.01906,0.046 -0.0075,0.0331 -0.0064,0.0674 -0.0026,0.0959 0.0035,0.0264 0.0097,0.0516 0.01534,0.072 3.59e-4,0.003 8.44e-4,0.005 0.0015,0.008 0.0028,0.0122 0.008,0.0237 0.01553,0.0337 0.0076,0.0102 0.01653,0.0177 0.02515,0.023 0.0087,0.005 0.0173,0.009 0.02459,0.0106 0.01482,0.004 0.02835,0.004 0.03857,0.002 0.0066,-8.7e-4 0.01312,-0.002 0.01951,-0.005 0.0049,-0.002 0.01023,-0.004 0.01571,-0.007 0.02549,-0.0134 0.04523,-0.0329 0.05986,-0.0514 0.01495,-0.0189 0.02593,-0.0386 0.03378,-0.0541 0.0056,-0.0114 0.01027,-0.0231 0.01391,-0.0356 0.0037,-0.0128 0.0067,-0.0278 0.0072,-0.0439 4.83e-4,-0.0168 -0.0017,-0.0365 -0.01013,-0.0565 -0.0044,-0.0103 -0.01023,-0.0204 -0.01779,-0.0296 -0.0077,-0.009 -0.01671,-0.0176 -0.02662,-0.0243 -0.02098,-0.0139 -0.0429,-0.0208 -0.06399,-0.0229 -0.02193,-0.002 -0.0427,9.5e-4 -0.06085,0.007 -0.01924,0.006 -0.03651,0.0164 -0.05102,0.0288 -0.01557,0.0132 -0.02843,0.0295 -0.0375,0.048 -0.0083,0.0132 -0.01556,0.0338 -0.01947,0.0532 -0.0043,0.0216 -0.0049,0.0433 -0.002,0.0638 0.0033,0.0235 0.01118,0.0457 0.02351,0.0654 0.01502,0.0239 0.03512,0.0415 0.0571,0.0532 a 0.08270536,0.08270536 90 0 0 0.07769,-0.14602 z"
       id="path-1-6"
       inkscape:path-effect="#path-effect560;#path-effect562"
       inkscape:original-d="m -16.087639,150.17271 c -0.07593,-0.0407 -0.03018,-0.18717 0.05516,-0.16131 0.08599,0.0261 -0.02428,0.18088 -0.05516,0.16131 -0.0042,-0.003 -0.05297,-0.17102 0.01466,-0.17711 0.0813,-0.007 0.05889,0.0829 0.03701,0.11281 -0.03316,0.0453 -0.14851,-0.0846 -0.04259,-0.10654 0.07874,-0.0163 0.06555,0.12178 -0.01606,0.11771 -0.08746,-0.004 -0.07773,-0.13493 0.01955,-0.12398 0.06553,0.007 0.04587,0.1524 -0.0391,0.0984 -0.165246,-0.10509 0.194542,-0.17853 0.101245,-0.0283 -0.04448,0.0716 -0.174676,-0.0525 -0.0782,-0.10246 0.01072,-0.006 0.05863,-0.0249 0.07681,-0.0125 0.04514,0.0307 -0.102997,0.22505 -0.143837,0.0755"
       style="fill:#000000;fill-rule:nonzero;stroke:none" />
  </g>
</svg>
