<?xml version="1.0" encoding="UTF-8" standalone="no"?>
<!-- Created with Inkscape (http://www.inkscape.org/) -->

<svg
   width="2mm"
   height="10mm"
   viewBox="0 0 2.0000001 9.9999994"
   version="1.1"
   id="svg1681"
   inkscape:version="1.2.1 (9c6d41e410, 2022-07-14)"
   sodipodi:docname="lower_i_10.svg"
   inkscape:export-filename="..\..\..\..\Downloads\lower a diff canvas resize 3.0.png"
   inkscape:export-xdpi="96"
   inkscape:export-ydpi="96"
   xmlns:inkscape="http://www.inkscape.org/namespaces/inkscape"
   xmlns:sodipodi="http://sodipodi.sourceforge.net/DTD/sodipodi-0.dtd"
   xmlns="http://www.w3.org/2000/svg"
   xmlns:svg="http://www.w3.org/2000/svg"
   xmlns:rdf="http://www.w3.org/1999/02/22-rdf-syntax-ns#"
   xmlns:cc="http://creativecommons.org/ns#"
   xmlns:dc="http://purl.org/dc/elements/1.1/">
  <defs
     id="defs1675">
    <inkscape:path-effect
       effect="powerstroke"
       id="path-effect932"
       is_visible="true"
       lpeversion="1"
       offset_points="0.25420143,0.060212272 | 1.7990914,0.045505252"
       not_jump="true"
       sort_points="true"
       interpolator_type="CentripetalCatmullRom"
       interpolator_beta="0.75"
       start_linecap_type="round"
       linejoin_type="spiro"
       miter_limit="4"
       scale_width="1"
       end_linecap_type="round" />
    <inkscape:path-effect
       effect="simplify"
       id="path-effect930"
       is_visible="true"
       lpeversion="1"
       steps="1"
       threshold="0.0047745358"
       smooth_angles="0"
       helper_size="0"
       simplify_individual_paths="false"
       simplify_just_coalesce="false"
       step="1" />
    <inkscape:path-effect
       effect="powerstroke"
       id="path-effect925"
       is_visible="true"
       lpeversion="1"
       offset_points="0.60824286,0.074400222"
       not_jump="true"
       sort_points="true"
       interpolator_type="CentripetalCatmullRom"
       interpolator_beta="0.75"
       start_linecap_type="round"
       linejoin_type="spiro"
       miter_limit="4"
       scale_width="1"
       end_linecap_type="round" />
    <inkscape:path-effect
       effect="simplify"
       id="path-effect923"
       is_visible="true"
       lpeversion="1"
       steps="1"
       threshold="0.0047745358"
       smooth_angles="0"
       helper_size="0"
       simplify_individual_paths="false"
       simplify_just_coalesce="false"
       step="1" />
    <inkscape:path-effect
       effect="powerstroke"
       id="path-effect918"
       is_visible="true"
       lpeversion="1"
       offset_points="0.44197615,0.075611388"
       not_jump="true"
       sort_points="true"
       interpolator_type="CentripetalCatmullRom"
       interpolator_beta="0.75"
       start_linecap_type="round"
       linejoin_type="spiro"
       miter_limit="4"
       scale_width="1"
       end_linecap_type="round" />
    <inkscape:path-effect
       effect="simplify"
       id="path-effect916"
       is_visible="true"
       lpeversion="1"
       steps="1"
       threshold="0.0047745358"
       smooth_angles="0"
       helper_size="0"
       simplify_individual_paths="false"
       simplify_just_coalesce="false"
       step="1" />
    <inkscape:path-effect
       effect="powerstroke"
       id="path-effect852"
       is_visible="true"
       lpeversion="1"
       offset_points="0.561792,0.087203981"
       not_jump="true"
       sort_points="true"
       interpolator_type="CentripetalCatmullRom"
       interpolator_beta="0.75"
       start_linecap_type="round"
       linejoin_type="spiro"
       miter_limit="4"
       scale_width="1"
       end_linecap_type="round" />
    <inkscape:path-effect
       effect="simplify"
       id="path-effect850"
       is_visible="true"
       lpeversion="1"
       steps="1"
       threshold="0.0047745358"
       smooth_angles="0"
       helper_size="0"
       simplify_individual_paths="false"
       simplify_just_coalesce="false"
       step="1" />
    <inkscape:path-effect
       effect="powerstroke"
       id="path-effect788"
       is_visible="true"
       lpeversion="1"
       offset_points="0.46900085,0.079590935 | 2.6263339,0.064537867"
       not_jump="true"
       sort_points="true"
       interpolator_type="CentripetalCatmullRom"
       interpolator_beta="0.75"
       start_linecap_type="round"
       linejoin_type="spiro"
       miter_limit="4"
       scale_width="1"
       end_linecap_type="round" />
    <inkscape:path-effect
       effect="simplify"
       id="path-effect786"
       is_visible="true"
       lpeversion="1"
       steps="1"
       threshold="0.0047745358"
       smooth_angles="0"
       helper_size="0"
       simplify_individual_paths="false"
       simplify_just_coalesce="false"
       step="1" />
    <inkscape:path-effect
       effect="powerstroke"
       id="path-effect781"
       is_visible="true"
       lpeversion="1"
       offset_points="1.9579088,0.075784412"
       not_jump="true"
       sort_points="true"
       interpolator_type="CentripetalCatmullRom"
       interpolator_beta="0.75"
       start_linecap_type="round"
       linejoin_type="spiro"
       miter_limit="4"
       scale_width="1"
       end_linecap_type="round" />
    <inkscape:path-effect
       effect="simplify"
       id="path-effect779"
       is_visible="true"
       lpeversion="1"
       steps="1"
       threshold="0.0047745358"
       smooth_angles="0"
       helper_size="0"
       simplify_individual_paths="false"
       simplify_just_coalesce="false"
       step="1" />
    <inkscape:path-effect
       effect="powerstroke"
       id="path-effect721"
       is_visible="true"
       lpeversion="1"
       offset_points="2.8200724,0.069209509 | 24.014799,0.07889884"
       not_jump="true"
       sort_points="true"
       interpolator_type="CentripetalCatmullRom"
       interpolator_beta="0.75"
       start_linecap_type="round"
       linejoin_type="spiro"
       miter_limit="4"
       scale_width="1"
       end_linecap_type="round" />
    <inkscape:path-effect
       effect="simplify"
       id="path-effect719"
       is_visible="true"
       lpeversion="1"
       steps="1"
       threshold="0.0047745358"
       smooth_angles="0"
       helper_size="0"
       simplify_individual_paths="false"
       simplify_just_coalesce="false"
       step="1" />
    <inkscape:path-effect
       effect="powerstroke"
       id="path-effect714"
       is_visible="true"
       lpeversion="1"
       offset_points="0.48986064,0.076303483 | 2.5321075,0.059693201"
       not_jump="true"
       sort_points="true"
       interpolator_type="CentripetalCatmullRom"
       interpolator_beta="0.75"
       start_linecap_type="round"
       linejoin_type="spiro"
       miter_limit="4"
       scale_width="1"
       end_linecap_type="round" />
    <inkscape:path-effect
       effect="simplify"
       id="path-effect712"
       is_visible="true"
       lpeversion="1"
       steps="1"
       threshold="0.0047745358"
       smooth_angles="0"
       helper_size="0"
       simplify_individual_paths="false"
       simplify_just_coalesce="false"
       step="1" />
    <inkscape:path-effect
       effect="powerstroke"
       id="path-effect562"
       is_visible="true"
       lpeversion="1"
       offset_points="4.106783,0.082705363"
       not_jump="true"
       sort_points="true"
       interpolator_type="CentripetalCatmullRom"
       interpolator_beta="0.75"
       start_linecap_type="round"
       linejoin_type="spiro"
       miter_limit="4"
       scale_width="1"
       end_linecap_type="round" />
    <inkscape:path-effect
       effect="simplify"
       id="path-effect560"
       is_visible="true"
       lpeversion="1"
       steps="1"
       threshold="0.0047745358"
       smooth_angles="0"
       helper_size="0"
       simplify_individual_paths="false"
       simplify_just_coalesce="false"
       step="1" />
    <inkscape:path-effect
       effect="powerstroke"
       id="path-effect508"
       is_visible="true"
       lpeversion="1"
       offset_points="2.6168989,0.084435601 | 13.959441,0.09862355"
       not_jump="true"
       sort_points="true"
       interpolator_type="CentripetalCatmullRom"
       interpolator_beta="0.75"
       start_linecap_type="round"
       linejoin_type="spiro"
       miter_limit="4"
       scale_width="1"
       end_linecap_type="round" />
    <inkscape:path-effect
       effect="simplify"
       id="path-effect506"
       is_visible="true"
       lpeversion="1"
       steps="1"
       threshold="0.0047745358"
       smooth_angles="0"
       helper_size="0"
       simplify_individual_paths="false"
       simplify_just_coalesce="false"
       step="1" />
    <inkscape:path-effect
       effect="powerstroke"
       id="path-effect501"
       is_visible="true"
       lpeversion="1"
       offset_points="0.19125717,0.10537148 | 0.87138816,0.095682146"
       not_jump="true"
       sort_points="true"
       interpolator_type="CentripetalCatmullRom"
       interpolator_beta="0.75"
       start_linecap_type="round"
       linejoin_type="spiro"
       miter_limit="4"
       scale_width="1"
       end_linecap_type="round" />
    <inkscape:path-effect
       effect="simplify"
       id="path-effect499"
       is_visible="true"
       lpeversion="1"
       steps="1"
       threshold="0.0047745358"
       smooth_angles="0"
       helper_size="0"
       simplify_individual_paths="false"
       simplify_just_coalesce="false"
       step="1" />
    <inkscape:path-effect
       effect="powerstroke"
       id="path-effect451"
       is_visible="true"
       lpeversion="1"
       offset_points="2.2582607,0.065749033 | 5.2977762,0.074400222"
       not_jump="true"
       sort_points="true"
       interpolator_type="CentripetalCatmullRom"
       interpolator_beta="0.75"
       start_linecap_type="round"
       linejoin_type="spiro"
       miter_limit="4"
       scale_width="1"
       end_linecap_type="round" />
    <inkscape:path-effect
       effect="simplify"
       id="path-effect449"
       is_visible="true"
       lpeversion="1"
       steps="1"
       threshold="0.0047745358"
       smooth_angles="0"
       helper_size="0"
       simplify_individual_paths="false"
       simplify_just_coalesce="false"
       step="1" />
    <inkscape:path-effect
       effect="powerstroke"
       id="path-effect270"
       is_visible="true"
       lpeversion="1"
       offset_points="2.7861905,0.092126751"
       not_jump="true"
       sort_points="true"
       interpolator_type="CentripetalCatmullRom"
       interpolator_beta="0.75"
       start_linecap_type="round"
       linejoin_type="spiro"
       miter_limit="4"
       scale_width="1"
       end_linecap_type="round" />
    <inkscape:path-effect
       effect="simplify"
       id="path-effect268"
       is_visible="true"
       lpeversion="1"
       steps="1"
       threshold="0.0047745358"
       smooth_angles="0"
       helper_size="0"
       simplify_individual_paths="false"
       simplify_just_coalesce="false"
       step="1" />
    <inkscape:path-effect
       effect="powerstroke"
       id="path-effect263"
       is_visible="true"
       lpeversion="1"
       offset_points="0.64430848,0.11026001"
       not_jump="true"
       sort_points="true"
       interpolator_type="CentripetalCatmullRom"
       interpolator_beta="0.75"
       start_linecap_type="round"
       linejoin_type="spiro"
       miter_limit="4"
       scale_width="1"
       end_linecap_type="round" />
    <inkscape:path-effect
       effect="simplify"
       id="path-effect261"
       is_visible="true"
       lpeversion="1"
       steps="1"
       threshold="0.0047745358"
       smooth_angles="0"
       helper_size="0"
       simplify_individual_paths="false"
       simplify_just_coalesce="false"
       step="1" />
    <inkscape:path-effect
       effect="powerstroke"
       id="path-effect1845"
       is_visible="true"
       lpeversion="1"
       offset_points="1.4617647,0.12041947"
       not_jump="true"
       sort_points="true"
       interpolator_type="CentripetalCatmullRom"
       interpolator_beta="0.75"
       start_linecap_type="round"
       linejoin_type="spiro"
       miter_limit="4"
       scale_width="1"
       end_linecap_type="round" />
    <inkscape:path-effect
       effect="simplify"
       id="path-effect1843"
       is_visible="true"
       lpeversion="1"
       steps="1"
       threshold="0.0035951417"
       smooth_angles="0"
       helper_size="0"
       simplify_individual_paths="false"
       simplify_just_coalesce="false"
       step="1" />
    <inkscape:path-effect
       effect="powerstroke"
       id="path-effect1838"
       is_visible="true"
       lpeversion="1"
       offset_points="1.0147746,0.10228681"
       not_jump="true"
       sort_points="true"
       interpolator_type="CentripetalCatmullRom"
       interpolator_beta="0.75"
       start_linecap_type="round"
       linejoin_type="spiro"
       miter_limit="4"
       scale_width="1"
       end_linecap_type="round" />
    <inkscape:path-effect
       effect="simplify"
       id="path-effect1836"
       is_visible="true"
       lpeversion="1"
       steps="1"
       threshold="0.0035951417"
       smooth_angles="0"
       helper_size="0"
       simplify_individual_paths="false"
       simplify_just_coalesce="false"
       step="1" />
    <inkscape:path-effect
       effect="powerstroke"
       id="path-effect502"
       is_visible="true"
       lpeversion="1"
       offset_points="3.0091841,0.21607495 | 7.3602657,0.17554228 | 9.4159651,0.20236537"
       not_jump="true"
       sort_points="true"
       interpolator_type="CentripetalCatmullRom"
       interpolator_beta="0.75"
       start_linecap_type="round"
       linejoin_type="spiro"
       miter_limit="4"
       scale_width="1"
       end_linecap_type="round" />
    <inkscape:path-effect
       effect="simplify"
       id="path-effect500"
       is_visible="true"
       lpeversion="1"
       steps="1"
       threshold="0.0035951417"
       smooth_angles="0"
       helper_size="0"
       simplify_individual_paths="false"
       simplify_just_coalesce="false"
       step="1" />
    <inkscape:path-effect
       effect="powerstroke"
       id="path-effect241"
       is_visible="true"
       lpeversion="1"
       offset_points="2.6879454,0.34086734"
       not_jump="true"
       sort_points="true"
       interpolator_type="CentripetalCatmullRom"
       interpolator_beta="0.75"
       start_linecap_type="round"
       linejoin_type="spiro"
       miter_limit="4"
       scale_width="1"
       end_linecap_type="round" />
    <inkscape:path-effect
       effect="simplify"
       id="path-effect239"
       is_visible="true"
       lpeversion="1"
       steps="1"
       threshold="0.0028332064"
       smooth_angles="0"
       helper_size="0"
       simplify_individual_paths="false"
       simplify_just_coalesce="false"
       step="1" />
    <inkscape:path-effect
       effect="powerstroke"
       id="path-effect234"
       is_visible="true"
       lpeversion="1"
       offset_points="2.13563,0.075169555"
       not_jump="true"
       sort_points="true"
       interpolator_type="CentripetalCatmullRom"
       interpolator_beta="0.75"
       start_linecap_type="round"
       linejoin_type="spiro"
       miter_limit="4"
       scale_width="1"
       end_linecap_type="round" />
    <inkscape:path-effect
       effect="simplify"
       id="path-effect232"
       is_visible="true"
       lpeversion="1"
       steps="1"
       threshold="0.0028332064"
       smooth_angles="0"
       helper_size="0"
       simplify_individual_paths="false"
       simplify_just_coalesce="false"
       step="1" />
    <inkscape:path-effect
       effect="powerstroke"
       id="path-effect227"
       is_visible="true"
       lpeversion="1"
       offset_points="2.1868266,0.075169555"
       not_jump="true"
       sort_points="true"
       interpolator_type="CentripetalCatmullRom"
       interpolator_beta="0.75"
       start_linecap_type="round"
       linejoin_type="spiro"
       miter_limit="4"
       scale_width="1"
       end_linecap_type="round" />
    <inkscape:path-effect
       effect="simplify"
       id="path-effect225"
       is_visible="true"
       lpeversion="1"
       steps="1"
       threshold="0.0028332064"
       smooth_angles="0"
       helper_size="0"
       simplify_individual_paths="false"
       simplify_just_coalesce="false"
       step="1" />
    <inkscape:path-effect
       effect="powerstroke"
       id="path-effect166"
       is_visible="true"
       lpeversion="1"
       offset_points="1.9637935,0.075169555"
       not_jump="true"
       sort_points="true"
       interpolator_type="CentripetalCatmullRom"
       interpolator_beta="0.75"
       start_linecap_type="round"
       linejoin_type="spiro"
       miter_limit="4"
       scale_width="1"
       end_linecap_type="round" />
    <inkscape:path-effect
       effect="simplify"
       id="path-effect164"
       is_visible="true"
       lpeversion="1"
       steps="1"
       threshold="0.0028332064"
       smooth_angles="0"
       helper_size="0"
       simplify_individual_paths="false"
       simplify_just_coalesce="false"
       step="1" />
    <inkscape:path-effect
       effect="powerstroke"
       id="path-effect159"
       is_visible="true"
       lpeversion="1"
       offset_points="2.2611036,0.075169555"
       not_jump="true"
       sort_points="true"
       interpolator_type="CentripetalCatmullRom"
       interpolator_beta="0.75"
       start_linecap_type="round"
       linejoin_type="spiro"
       miter_limit="4"
       scale_width="1"
       end_linecap_type="round" />
    <inkscape:path-effect
       effect="simplify"
       id="path-effect157"
       is_visible="true"
       lpeversion="1"
       steps="1"
       threshold="0.0028332064"
       smooth_angles="0"
       helper_size="0"
       simplify_individual_paths="false"
       simplify_just_coalesce="false"
       step="1" />
    <inkscape:path-effect
       effect="powerstroke"
       id="path-effect152"
       is_visible="true"
       lpeversion="1"
       offset_points="2.826981,0.075169555"
       not_jump="true"
       sort_points="true"
       interpolator_type="CentripetalCatmullRom"
       interpolator_beta="0.75"
       start_linecap_type="round"
       linejoin_type="spiro"
       miter_limit="4"
       scale_width="1"
       end_linecap_type="round" />
    <inkscape:path-effect
       effect="simplify"
       id="path-effect150"
       is_visible="true"
       lpeversion="1"
       steps="1"
       threshold="0.0028332064"
       smooth_angles="0"
       helper_size="0"
       simplify_individual_paths="false"
       simplify_just_coalesce="false"
       step="1" />
    <inkscape:path-effect
       effect="powerstroke"
       id="path-effect145"
       is_visible="true"
       lpeversion="1"
       offset_points="3.8374447,0.075169555"
       not_jump="true"
       sort_points="true"
       interpolator_type="CentripetalCatmullRom"
       interpolator_beta="0.75"
       start_linecap_type="round"
       linejoin_type="spiro"
       miter_limit="4"
       scale_width="1"
       end_linecap_type="round" />
    <inkscape:path-effect
       effect="simplify"
       id="path-effect143"
       is_visible="true"
       lpeversion="1"
       steps="1"
       threshold="0.0028332064"
       smooth_angles="0"
       helper_size="0"
       simplify_individual_paths="false"
       simplify_just_coalesce="false"
       step="1" />
    <inkscape:path-effect
       effect="powerstroke"
       id="path-effect138"
       is_visible="true"
       lpeversion="1"
       offset_points="2.6880907,0.075169555"
       not_jump="true"
       sort_points="true"
       interpolator_type="CentripetalCatmullRom"
       interpolator_beta="0.75"
       start_linecap_type="round"
       linejoin_type="spiro"
       miter_limit="4"
       scale_width="1"
       end_linecap_type="round" />
    <inkscape:path-effect
       effect="simplify"
       id="path-effect136"
       is_visible="true"
       lpeversion="1"
       steps="1"
       threshold="0.0028332064"
       smooth_angles="0"
       helper_size="0"
       simplify_individual_paths="false"
       simplify_just_coalesce="false"
       step="1" />
    <inkscape:path-effect
       effect="powerstroke"
       id="path-effect131"
       is_visible="true"
       lpeversion="1"
       offset_points="1.9940581,0.075169555"
       not_jump="true"
       sort_points="true"
       interpolator_type="CentripetalCatmullRom"
       interpolator_beta="0.75"
       start_linecap_type="round"
       linejoin_type="spiro"
       miter_limit="4"
       scale_width="1"
       end_linecap_type="round" />
    <inkscape:path-effect
       effect="simplify"
       id="path-effect129"
       is_visible="true"
       lpeversion="1"
       steps="1"
       threshold="0.0028332064"
       smooth_angles="0"
       helper_size="0"
       simplify_individual_paths="false"
       simplify_just_coalesce="false"
       step="1" />
  </defs>
  <sodipodi:namedview
     id="base"
     pagecolor="#ffffff"
     bordercolor="#666666"
     borderopacity="1.0"
     inkscape:pageopacity="0.0"
     inkscape:pageshadow="2"
     inkscape:zoom="22.4"
     inkscape:cx="-0.58035714"
     inkscape:cy="17.321428"
     inkscape:document-units="mm"
     inkscape:current-layer="layer1"
     showgrid="false"
     fit-margin-top="0"
     fit-margin-left="0"
     fit-margin-right="0"
     fit-margin-bottom="0"
     inkscape:window-width="1920"
     inkscape:window-height="1057"
     inkscape:window-x="1072"
     inkscape:window-y="321"
     inkscape:window-maximized="1"
     showguides="true"
     inkscape:guide-bbox="true"
     inkscape:snap-bbox="true"
     inkscape:bbox-nodes="true"
     inkscape:snap-nodes="false"
     inkscape:snap-others="false"
     inkscape:snap-page="true"
     inkscape:snap-grids="false"
     inkscape:snap-to-guides="false"
     inkscape:snap-global="false"
     inkscape:pagecheckerboard="0"
     inkscape:showpageshadow="2"
     inkscape:deskcolor="#d1d1d1">
    <sodipodi:guide
       position="-6.1806077,9.4988694"
       orientation="0,1"
       id="guide816"
       inkscape:locked="false" />
    <sodipodi:guide
       position="-4.4101637,10.646923"
       orientation="0,1"
       id="guide818"
       inkscape:locked="false" />
    <sodipodi:guide
       position="2.7595724,11.09577"
       orientation="1,0"
       id="guide820"
       inkscape:locked="false" />
    <sodipodi:guide
       position="3.657266,10.942217"
       orientation="1,0"
       id="guide822"
       inkscape:locked="false" />
    <sodipodi:guide
       position="-0.051625511,9.7492301"
       orientation="1,0"
       id="guide1853"
       inkscape:locked="false" />
    <sodipodi:guide
       position="-2.3720169,3.0175836"
       orientation="0,1"
       id="guide1855"
       inkscape:locked="false" />
  </sodipodi:namedview>
  <metadata
     id="metadata1678">
    <rdf:RDF>
      <cc:Work
         rdf:about="">
        <dc:format>image/svg+xml</dc:format>
        <dc:type
           rdf:resource="http://purl.org/dc/dcmitype/StillImage" />
      </cc:Work>
    </rdf:RDF>
  </metadata>
  <g
     inkscape:label="Layer 1"
     inkscape:groupmode="layer"
     id="layer1"
     transform="translate(17.028496,-147.22856)">
    <path
       d="m -15.819972,149.78399 c -0.0038,-0.0187 -0.0082,-0.0298 -0.01275,-0.046 -4.62e-4,-0.002 -8.53e-4,-0.003 -0.0012,-0.004 0.0031,-0.005 0.0068,-0.009 0.01071,-0.0129 0.0032,-0.003 0.0061,-0.005 0.0085,-0.006 0.0018,-9.4e-4 0.0033,-0.001 0.0044,-0.002 -0.0073,5.8e-4 -0.01103,3.7e-4 -0.01509,-6e-4 -0.0038,-9e-4 -0.0073,-0.002 -0.01048,-0.004 -0.0058,-0.003 -0.0089,-0.007 -0.0104,-0.01 -0.0013,-0.002 -0.0017,-0.003 -0.0018,-0.004 -1.21e-4,-5.8e-4 -3.92e-4,-0.002 2.9e-5,-0.005 l -0.01177,0.0112 c -0.01215,0.006 -0.02178,0.0132 -0.02822,0.0183 -0.0065,0.005 -0.01106,0.009 -0.01357,0.0111 -0.0028,0.002 -0.0025,0.002 -1.42e-4,5e-4 0.0029,-0.001 0.0082,-0.003 0.01496,-0.003 0.0052,-3e-5 0.01035,8e-5 0.0154,0.001 0.0051,0.001 0.0099,0.003 0.01463,0.005 0.0036,0.002 0.0073,0.004 0.01083,0.007 0.0035,0.003 0.0062,0.006 0.0082,0.009 0.0039,0.006 0.0046,0.01 0.0048,0.0108 1.54e-4,8.7e-4 -1.25e-4,-8.4e-4 -1.5e-5,-0.004 1.15e-4,-0.003 4.87e-4,-0.007 0.0011,-0.0114 0.0028,-0.013 0.0073,-0.0285 0.01318,-0.0411 0.0028,-0.006 0.0057,-0.0108 0.0086,-0.0146 0.0028,-0.004 0.0056,-0.006 0.0082,-0.008 -0.0046,0.003 -0.0093,0.006 -0.0146,0.008 -0.0053,0.002 -0.01072,0.003 -0.01605,0.003 -0.01057,5.4e-4 -0.01944,-0.002 -0.02591,-0.005 -0.0064,-0.003 -0.01132,-0.007 -0.01507,-0.0114 -0.0037,-0.004 -0.0072,-0.01 -0.0093,-0.0168 9.5e-4,0.004 0.0016,0.0121 -1.48e-4,0.0246 -0.0018,0.0126 -0.0057,0.0268 -0.01132,0.0435 -3.9e-4,8.5e-4 -0.0019,0.004 -0.0034,0.007 -0.0014,0.003 -0.0026,0.004 -0.0022,0.004 4.06e-4,-4.4e-4 0.0028,-0.003 0.0084,-0.006 0.0029,-0.001 0.0063,-0.002 0.01013,-0.003 0.0038,-5.6e-4 0.0075,-5e-4 0.01062,-5e-5 0.0024,3.1e-4 0.0062,0.001 0.0102,0.003 0.004,0.002 0.0074,0.004 0.01021,0.007 0.0055,0.005 0.0076,0.009 0.0082,0.0104 4.81e-4,0.001 1.34e-4,6.7e-4 -2.75e-4,-0.002 -3.84e-4,-0.002 -6.22e-4,-0.005 -6.46e-4,-0.008 -3.26e-4,-0.0267 0.0052,-0.0525 0.01587,-0.0748 9.12e-4,-0.002 0.002,-0.004 0.003,-0.005 0.0011,-0.002 0.0011,-0.001 -3.34e-4,3e-5 -0.0017,0.001 -0.006,0.005 -0.01426,0.007 -0.0042,0.001 -0.0091,0.002 -0.01422,0.002 -0.0052,-9e-5 -0.0099,-0.001 -0.01386,-0.002 -0.01045,-0.004 -0.01243,-0.006 -0.01358,-0.007 -4.5e-4,-5e-5 -7.6e-5,0.001 4.1e-5,0.003 1.18e-4,0.002 -7.4e-5,0.004 -3.26e-4,0.005 -2.96e-4,0.001 8.36e-4,-0.001 0.0018,-0.003 0.0056,-0.005 0.0082,-0.006 0.01221,-0.007 0.0043,-7.2e-4 0.0092,-4.3e-4 0.01388,0.001 0.0037,0.001 0.0041,0.002 0.0039,0.002 -6.7e-4,-9.3e-4 -2e-5,3.7e-4 -2.28e-4,0.004 -2.36e-4,0.004 -0.0017,0.009 -0.0049,0.0131 -0.0083,0.01 -0.01322,0.0121 -0.01705,0.013 -0.0035,8.4e-4 -0.006,4.6e-4 -0.0074,7e-5 -0.0015,-4e-4 -0.0037,-0.001 -0.0062,-0.004 -0.0029,-0.003 -0.0059,-0.007 -0.007,-0.0132 -8.52e-4,-0.002 -6.97e-4,-0.0106 0.0013,-0.0181 0.002,-0.007 0.0054,-0.0127 0.0086,-0.0164 0.0032,-0.004 0.0067,-0.006 0.0099,-0.008 0.0035,-0.002 0.0078,-0.003 0.01284,-0.004 -0.01275,0.002 -0.02202,0.001 -0.0345,-0.001 a 0.07578441,0.07578441 90 0 0 -0.02946,0.14868 c 0.01381,0.003 0.04692,0.009 0.0825,0.003 0.0088,-3.8e-4 0.02372,-0.005 0.03723,-0.0116 0.01273,-0.006 0.02504,-0.0156 0.03547,-0.0275 0.01006,-0.0115 0.01886,-0.026 0.02369,-0.0439 0.0047,-0.0175 0.0052,-0.0369 -2.51e-4,-0.0564 -0.0038,-0.0209 -0.0172,-0.0436 -0.03492,-0.0608 -0.01685,-0.0163 -0.03744,-0.0275 -0.05894,-0.0334 -0.02083,-0.006 -0.04431,-0.007 -0.06781,-0.001 -0.02326,0.006 -0.0467,0.0178 -0.06539,0.0388 -0.01981,0.0261 -0.02766,0.0499 -0.02907,0.0736 -0.0014,0.0226 0.0032,0.0441 0.011,0.0627 0.0076,0.0182 0.0189,0.0351 0.03292,0.0493 0.01373,0.0138 0.03129,0.0262 0.05226,0.0339 0.02158,0.008 0.04284,0.009 0.06287,0.006 0.01948,-0.003 0.03714,-0.011 0.05208,-0.0213 0.01473,-0.0101 0.02747,-0.0231 0.03732,-0.0382 0.0097,-0.0149 0.01708,-0.0325 0.02017,-0.052 0.0025,-0.0107 0.0037,-0.0264 0.0028,-0.0418 -8.87e-4,-0.0153 -0.0039,-0.0312 -0.0094,-0.0467 -0.0055,-0.0154 -0.01381,-0.0311 -0.02577,-0.0454 -0.01199,-0.0143 -0.02743,-0.0269 -0.04641,-0.0357 -0.01793,-0.007 -0.02869,-0.008 -0.03975,-0.009 -0.011,-1.8e-4 -0.02146,0.001 -0.03111,0.004 -0.01903,0.006 -0.03328,0.0154 -0.04392,0.0249 -0.01033,0.009 -0.01825,0.0192 -0.02412,0.0279 -0.0059,0.009 -0.01064,0.0173 -0.01424,0.0248 -0.02134,0.0448 -0.0314,0.0937 -0.03081,0.14195 6.6e-5,0.009 7.58e-4,0.0201 0.0027,0.0316 0.0019,0.0114 0.0052,0.0248 0.01121,0.0384 0.0061,0.0139 0.0156,0.0293 0.03095,0.0426 0.0077,0.007 0.01669,0.0126 0.02683,0.0172 0.01015,0.005 0.02082,0.008 0.03172,0.009 0.01001,0.001 0.02101,0.001 0.03185,-1.4e-4 0.01083,-0.002 0.02088,-0.005 0.03,-0.009 0.0181,-0.008 0.03176,-0.0198 0.04163,-0.0307 0.0099,-0.0109 0.01737,-0.0224 0.02291,-0.0325 0.0056,-0.0102 0.01,-0.0202 0.01323,-0.0288 0.0077,-0.0228 0.01501,-0.0471 0.01873,-0.0733 0.0038,-0.0267 0.0042,-0.0574 -0.0046,-0.0892 -0.0052,-0.0168 -0.0127,-0.0293 -0.02157,-0.0395 -0.0089,-0.0103 -0.02019,-0.0192 -0.03338,-0.0256 -0.01338,-0.006 -0.0297,-0.0107 -0.04772,-0.01 -0.0091,4.6e-4 -0.01826,0.002 -0.02724,0.005 -0.009,0.003 -0.01738,0.008 -0.02488,0.0133 -0.01573,0.0118 -0.02823,0.0249 -0.03851,0.0384 -0.01036,0.0137 -0.01853,0.0279 -0.02505,0.0418 -0.01311,0.0279 -0.02059,0.0565 -0.02538,0.0802 -0.0018,0.0117 -0.0028,0.021 -0.0032,0.0311 -3.8e-4,0.0102 -1.13e-4,0.0227 0.0023,0.0361 0.0024,0.0135 0.0074,0.0301 0.01795,0.0461 0.0054,0.008 0.0122,0.0161 0.02047,0.0231 0.0084,0.007 0.01772,0.0128 0.02774,0.017 0.0047,0.002 0.0096,0.004 0.01463,0.005 0.0051,0.001 0.01025,0.001 0.0154,0.001 0.01926,-1e-4 0.03569,-0.005 0.04885,-0.0112 0.01279,-0.006 0.0228,-0.0134 0.02913,-0.0184 0.007,-0.005 0.01151,-0.009 0.01416,-0.0116 0.0031,-0.002 0.003,-0.002 0.001,-0.001 0.02096,-0.007 0.04513,-0.0252 0.06236,-0.0469 0.01908,-0.024 0.03061,-0.053 0.03288,-0.083 0.002,-0.0116 0.001,-0.0285 -0.0021,-0.0435 -0.0034,-0.0163 -0.0097,-0.0321 -0.01864,-0.0462 -0.0099,-0.0156 -0.02359,-0.0298 -0.04122,-0.0401 -0.0096,-0.006 -0.01989,-0.01 -0.03073,-0.0123 -0.01159,-0.003 -0.02313,-0.004 -0.03423,-0.003 -0.0082,9.2e-4 -0.0115,0.001 -0.01473,0.002 -0.01658,0.003 -0.03156,0.009 -0.04477,0.0156 -0.01674,0.009 -0.03094,0.0193 -0.04268,0.0303 -0.02591,0.0242 -0.04315,0.0527 -0.05369,0.0771 -0.003,0.007 -0.005,0.0144 -0.0058,0.022 -0.0016,0.0152 -6.91e-4,0.0287 8.42e-4,0.0396 0.0017,0.0121 0.0045,0.0228 0.0066,0.0304 0.0062,0.022 0.0093,0.0309 0.01019,0.0354 a 0.07578441,0.07578441 90 0 0 0.148508,-0.0303 z"
       id="path-1"
       inkscape:path-effect="#path-effect779;#path-effect781"
       inkscape:original-d="m -15.894226,149.79914 c -0.0058,-0.0254 -0.0166,-0.0502 -0.01746,-0.0763 -4.4e-4,-0.0134 0.02453,-0.0461 0.03352,-0.0545 0.104394,-0.0969 0.145922,0.062 0.05656,0.0981 -0.02461,0.01 -0.05248,0.05 -0.07262,0.0327 -0.05069,-0.0436 0.04442,-0.24635 0.08379,-0.16349 0.01609,0.0339 -0.01256,0.1981 -0.08379,0.16349 -0.05811,-0.0282 -0.0038,-0.25625 0.06424,-0.1981 0.04072,0.0348 0.03371,0.12497 -0.02863,0.13025 -0.05362,0.005 -0.0967,-0.088 -0.0391,-0.11226 0.08019,-0.0338 0.137813,0.11052 -0.01047,0.0804"
       style="fill:#000000;fill-rule:nonzero;stroke:none" />
    <path
       d="m -15.938373,150.19018 c 0.0019,0.13279 0.0043,0.39181 0.0039,0.75781 -5.16e-4,0.42635 -0.01241,1.32062 -0.0269,2.22516 -0.0056,0.33571 -0.004,0.67897 0.0032,0.82592 0.0049,0.101 0.01075,0.17491 0.01376,0.20855 a 0.04550525,0.04550525 90 0 0 0.09065,-0.008 c -0.003,-0.0331 -0.0095,-0.10503 -0.01349,-0.20448 -0.0057,-0.14449 -2.79e-4,-0.4829 0.01225,-0.81942 0.02091,-0.90448 0.03909,-1.8 0.04097,-2.2273 0.0016,-0.36572 -0.0021,-0.62772 -0.0039,-0.75982 a 0.06021227,0.06021227 90 0 0 -0.120412,0.002 z"
       id="path-1-4"
       inkscape:path-effect="#path-effect930;#path-effect932"
       inkscape:original-d="m -15.878167,150.18934 c 0.01376,0.91626 -0.0085,1.83221 -0.02444,2.74827 -0.0073,0.41801 -0.03386,0.85206 0.0035,1.26596"
       style="fill:#000000;fill-rule:nonzero;stroke:none" />
  </g>
</svg>
