<?xml version="1.0" encoding="UTF-8" standalone="no"?>
<!-- Created with Inkscape (http://www.inkscape.org/) -->

<svg
   width="2mm"
   height="10mm"
   viewBox="0 0 2.0000001 9.9999994"
   version="1.1"
   id="svg1681"
   inkscape:version="1.2.1 (9c6d41e410, 2022-07-14)"
   sodipodi:docname="lower_i_58.svg"
   inkscape:export-filename="..\..\..\..\Downloads\lower a diff canvas resize 3.0.png"
   inkscape:export-xdpi="96"
   inkscape:export-ydpi="96"
   xmlns:inkscape="http://www.inkscape.org/namespaces/inkscape"
   xmlns:sodipodi="http://sodipodi.sourceforge.net/DTD/sodipodi-0.dtd"
   xmlns="http://www.w3.org/2000/svg"
   xmlns:svg="http://www.w3.org/2000/svg"
   xmlns:rdf="http://www.w3.org/1999/02/22-rdf-syntax-ns#"
   xmlns:cc="http://creativecommons.org/ns#"
   xmlns:dc="http://purl.org/dc/elements/1.1/">
  <defs
     id="defs1675">
    <inkscape:path-effect
       effect="powerstroke"
       id="path-effect987"
       is_visible="true"
       lpeversion="1"
       offset_points="6.1424527,0.11021614 | 16.028315,0.13063295"
       not_jump="true"
       sort_points="true"
       interpolator_type="CentripetalCatmullRom"
       interpolator_beta="0.75"
       start_linecap_type="round"
       linejoin_type="spiro"
       miter_limit="4"
       scale_width="1"
       end_linecap_type="round" />
    <inkscape:path-effect
       effect="simplify"
       id="path-effect985"
       is_visible="true"
       lpeversion="1"
       steps="1"
       threshold="0.0047745358"
       smooth_angles="0"
       helper_size="0"
       simplify_individual_paths="false"
       simplify_just_coalesce="false"
       step="1" />
    <inkscape:path-effect
       effect="powerstroke"
       id="path-effect980"
       is_visible="true"
       lpeversion="1"
       offset_points="0.30771943,0.12077059"
       not_jump="true"
       sort_points="true"
       interpolator_type="CentripetalCatmullRom"
       interpolator_beta="0.75"
       start_linecap_type="round"
       linejoin_type="spiro"
       miter_limit="4"
       scale_width="1"
       end_linecap_type="round" />
    <inkscape:path-effect
       effect="simplify"
       id="path-effect978"
       is_visible="true"
       lpeversion="1"
       steps="1"
       threshold="0.0047745358"
       smooth_angles="0"
       helper_size="0"
       simplify_individual_paths="false"
       simplify_just_coalesce="false"
       step="1" />
    <inkscape:path-effect
       effect="powerstroke"
       id="path-effect631"
       is_visible="true"
       lpeversion="1"
       offset_points="1.723776,0.075092317 | 9.6483558,0.086165839"
       not_jump="true"
       sort_points="true"
       interpolator_type="CentripetalCatmullRom"
       interpolator_beta="0.75"
       start_linecap_type="round"
       linejoin_type="spiro"
       miter_limit="4"
       scale_width="1"
       end_linecap_type="round" />
    <inkscape:path-effect
       effect="simplify"
       id="path-effect629"
       is_visible="true"
       lpeversion="1"
       steps="1"
       threshold="0.0047745358"
       smooth_angles="0"
       helper_size="0"
       simplify_individual_paths="false"
       simplify_just_coalesce="false"
       step="1" />
    <inkscape:path-effect
       effect="powerstroke"
       id="path-effect624"
       is_visible="true"
       lpeversion="1"
       offset_points="0.727246,0.053291322"
       not_jump="true"
       sort_points="true"
       interpolator_type="CentripetalCatmullRom"
       interpolator_beta="0.75"
       start_linecap_type="round"
       linejoin_type="spiro"
       miter_limit="4"
       scale_width="1"
       end_linecap_type="round" />
    <inkscape:path-effect
       effect="simplify"
       id="path-effect622"
       is_visible="true"
       lpeversion="1"
       steps="1"
       threshold="0.0047745358"
       smooth_angles="0"
       helper_size="0"
       simplify_individual_paths="false"
       simplify_just_coalesce="false"
       step="1" />
    <inkscape:path-effect
       effect="powerstroke"
       id="path-effect546"
       is_visible="true"
       lpeversion="1"
       offset_points="1.5739443,0.081494197 | 8.1275427,0.098969598"
       not_jump="true"
       sort_points="true"
       interpolator_type="CentripetalCatmullRom"
       interpolator_beta="0.75"
       start_linecap_type="round"
       linejoin_type="spiro"
       miter_limit="4"
       scale_width="1"
       end_linecap_type="round" />
    <inkscape:path-effect
       effect="simplify"
       id="path-effect544"
       is_visible="true"
       lpeversion="1"
       steps="1"
       threshold="0.0047745358"
       smooth_angles="0"
       helper_size="0"
       simplify_individual_paths="false"
       simplify_just_coalesce="false"
       step="1" />
    <inkscape:path-effect
       effect="powerstroke"
       id="path-effect539"
       is_visible="true"
       lpeversion="1"
       offset_points="0.11669093,0.063326701 | 0.27478701,0.070420675 | 0.7282066,0.063499725"
       not_jump="true"
       sort_points="true"
       interpolator_type="CentripetalCatmullRom"
       interpolator_beta="0.75"
       start_linecap_type="round"
       linejoin_type="spiro"
       miter_limit="4"
       scale_width="1"
       end_linecap_type="round" />
    <inkscape:path-effect
       effect="simplify"
       id="path-effect537"
       is_visible="true"
       lpeversion="1"
       steps="1"
       threshold="0.0047745358"
       smooth_angles="0"
       helper_size="0"
       simplify_individual_paths="false"
       simplify_just_coalesce="false"
       step="1" />
    <inkscape:path-effect
       effect="powerstroke"
       id="path-effect465"
       is_visible="true"
       lpeversion="1"
       offset_points="3.7032797,0.074400222"
       not_jump="true"
       sort_points="true"
       interpolator_type="CentripetalCatmullRom"
       interpolator_beta="0.75"
       start_linecap_type="round"
       linejoin_type="spiro"
       miter_limit="4"
       scale_width="1"
       end_linecap_type="round" />
    <inkscape:path-effect
       effect="simplify"
       id="path-effect463"
       is_visible="true"
       lpeversion="1"
       steps="1"
       threshold="0.0047745358"
       smooth_angles="0"
       helper_size="0"
       simplify_individual_paths="false"
       simplify_just_coalesce="false"
       step="1" />
    <inkscape:path-effect
       effect="powerstroke"
       id="path-effect458"
       is_visible="true"
       lpeversion="1"
       offset_points="0.39717175,0.067306248"
       not_jump="true"
       sort_points="true"
       interpolator_type="CentripetalCatmullRom"
       interpolator_beta="0.75"
       start_linecap_type="round"
       linejoin_type="spiro"
       miter_limit="4"
       scale_width="1"
       end_linecap_type="round" />
    <inkscape:path-effect
       effect="simplify"
       id="path-effect456"
       is_visible="true"
       lpeversion="1"
       steps="1"
       threshold="0.0047745358"
       smooth_angles="0"
       helper_size="0"
       simplify_individual_paths="false"
       simplify_just_coalesce="false"
       step="1" />
    <inkscape:path-effect
       effect="powerstroke"
       id="path-effect388"
       is_visible="true"
       lpeversion="1"
       offset_points="2.0059227,0.076303484 | 5.0261562,0.085992815"
       not_jump="true"
       sort_points="true"
       interpolator_type="CentripetalCatmullRom"
       interpolator_beta="0.75"
       start_linecap_type="round"
       linejoin_type="spiro"
       miter_limit="4"
       scale_width="1"
       end_linecap_type="round" />
    <inkscape:path-effect
       effect="simplify"
       id="path-effect386"
       is_visible="true"
       lpeversion="1"
       steps="1"
       threshold="0.0047745358"
       smooth_angles="0"
       helper_size="0"
       simplify_individual_paths="false"
       simplify_just_coalesce="false"
       step="1" />
    <inkscape:path-effect
       effect="powerstroke"
       id="path-effect381"
       is_visible="true"
       lpeversion="1"
       offset_points="0.10715709,0.083397458"
       not_jump="true"
       sort_points="true"
       interpolator_type="CentripetalCatmullRom"
       interpolator_beta="0.75"
       start_linecap_type="round"
       linejoin_type="spiro"
       miter_limit="4"
       scale_width="1"
       end_linecap_type="round" />
    <inkscape:path-effect
       effect="simplify"
       id="path-effect379"
       is_visible="true"
       lpeversion="1"
       steps="1"
       threshold="0.0047745358"
       smooth_angles="0"
       helper_size="0"
       simplify_individual_paths="false"
       simplify_just_coalesce="false"
       step="1" />
    <inkscape:path-effect
       effect="powerstroke"
       id="path-effect486"
       is_visible="true"
       lpeversion="1"
       offset_points="3.044783,0.048082089 | 7.589052,0.053587672"
       not_jump="true"
       sort_points="true"
       interpolator_type="CentripetalCatmullRom"
       interpolator_beta="0.75"
       start_linecap_type="round"
       linejoin_type="spiro"
       miter_limit="4"
       scale_width="1"
       end_linecap_type="round" />
    <inkscape:path-effect
       effect="simplify"
       id="path-effect484"
       is_visible="true"
       lpeversion="1"
       steps="1"
       threshold="0.0047745358"
       smooth_angles="0"
       helper_size="0"
       simplify_individual_paths="false"
       simplify_just_coalesce="false"
       step="1" />
    <inkscape:path-effect
       effect="powerstroke"
       id="path-effect477"
       is_visible="true"
       lpeversion="1"
       offset_points="1.2345423,0.060806102"
       not_jump="true"
       sort_points="true"
       interpolator_type="CentripetalCatmullRom"
       interpolator_beta="0.75"
       start_linecap_type="round"
       linejoin_type="spiro"
       miter_limit="4"
       scale_width="1"
       end_linecap_type="round" />
    <inkscape:path-effect
       effect="simplify"
       id="path-effect475"
       is_visible="true"
       lpeversion="1"
       steps="1"
       threshold="0.0047745358"
       smooth_angles="0"
       helper_size="0"
       simplify_individual_paths="false"
       simplify_just_coalesce="false"
       step="1" />
    <inkscape:path-effect
       effect="powerstroke"
       id="path-effect415"
       is_visible="true"
       lpeversion="1"
       offset_points="2.0983221,0.052364209 | 3.0733385,0.05823683"
       not_jump="true"
       sort_points="true"
       interpolator_type="CentripetalCatmullRom"
       interpolator_beta="0.75"
       start_linecap_type="round"
       linejoin_type="spiro"
       miter_limit="4"
       scale_width="1"
       end_linecap_type="round" />
    <inkscape:path-effect
       effect="simplify"
       id="path-effect413"
       is_visible="true"
       lpeversion="1"
       steps="1"
       threshold="0.0047745358"
       smooth_angles="0"
       helper_size="0"
       simplify_individual_paths="false"
       simplify_just_coalesce="false"
       step="1" />
    <inkscape:path-effect
       effect="powerstroke"
       id="path-effect408"
       is_visible="true"
       lpeversion="1"
       offset_points="0.13337373,0.048326782 | 0.44365202,0.056646329"
       not_jump="true"
       sort_points="true"
       interpolator_type="CentripetalCatmullRom"
       interpolator_beta="0.75"
       start_linecap_type="round"
       linejoin_type="spiro"
       miter_limit="4"
       scale_width="1"
       end_linecap_type="round" />
    <inkscape:path-effect
       effect="simplify"
       id="path-effect406"
       is_visible="true"
       lpeversion="1"
       steps="1"
       threshold="0.0047745358"
       smooth_angles="0"
       helper_size="0"
       simplify_individual_paths="false"
       simplify_just_coalesce="false"
       step="1" />
    <inkscape:path-effect
       effect="powerstroke"
       id="path-effect350"
       is_visible="true"
       lpeversion="1"
       offset_points="3.4111875,0.058603869 | 15.914888,0.071694921"
       not_jump="true"
       sort_points="true"
       interpolator_type="CentripetalCatmullRom"
       interpolator_beta="0.75"
       start_linecap_type="round"
       linejoin_type="spiro"
       miter_limit="4"
       scale_width="1"
       end_linecap_type="round" />
    <inkscape:path-effect
       effect="simplify"
       id="path-effect348"
       is_visible="true"
       lpeversion="1"
       steps="1"
       threshold="0.0047745358"
       smooth_angles="0"
       helper_size="0"
       simplify_individual_paths="false"
       simplify_just_coalesce="false"
       step="1" />
    <inkscape:path-effect
       effect="powerstroke"
       id="path-effect341"
       is_visible="true"
       lpeversion="1"
       offset_points="0.41123889,0.057013368"
       not_jump="true"
       sort_points="true"
       interpolator_type="CentripetalCatmullRom"
       interpolator_beta="0.75"
       start_linecap_type="round"
       linejoin_type="spiro"
       miter_limit="4"
       scale_width="1"
       end_linecap_type="round" />
    <inkscape:path-effect
       effect="simplify"
       id="path-effect339"
       is_visible="true"
       lpeversion="1"
       steps="1"
       threshold="0.0047745358"
       smooth_angles="0"
       helper_size="0"
       simplify_individual_paths="false"
       simplify_just_coalesce="false"
       step="1" />
    <inkscape:path-effect
       effect="powerstroke"
       id="path-effect332"
       is_visible="true"
       lpeversion="1"
       offset_points="0.10192889,0.050284322"
       not_jump="true"
       sort_points="true"
       interpolator_type="CentripetalCatmullRom"
       interpolator_beta="0.75"
       start_linecap_type="round"
       linejoin_type="spiro"
       miter_limit="4"
       scale_width="1"
       end_linecap_type="round" />
    <inkscape:path-effect
       effect="simplify"
       id="path-effect330"
       is_visible="true"
       lpeversion="1"
       steps="1"
       threshold="0.0047745358"
       smooth_angles="0"
       helper_size="0"
       simplify_individual_paths="false"
       simplify_just_coalesce="false"
       step="1" />
    <inkscape:path-effect
       effect="powerstroke"
       id="path-effect325"
       is_visible="true"
       lpeversion="1"
       offset_points="0.813164,0.050529015"
       not_jump="true"
       sort_points="true"
       interpolator_type="CentripetalCatmullRom"
       interpolator_beta="0.75"
       start_linecap_type="round"
       linejoin_type="spiro"
       miter_limit="4"
       scale_width="1"
       end_linecap_type="round" />
    <inkscape:path-effect
       effect="simplify"
       id="path-effect323"
       is_visible="true"
       lpeversion="1"
       steps="1"
       threshold="0.0047745358"
       smooth_angles="0"
       helper_size="0"
       simplify_individual_paths="false"
       simplify_just_coalesce="false"
       step="1" />
    <inkscape:path-effect
       effect="powerstroke"
       id="path-effect318"
       is_visible="true"
       lpeversion="1"
       offset_points="1.2155427,0.062151911"
       not_jump="true"
       sort_points="true"
       interpolator_type="CentripetalCatmullRom"
       interpolator_beta="0.75"
       start_linecap_type="round"
       linejoin_type="spiro"
       miter_limit="4"
       scale_width="1"
       end_linecap_type="round" />
    <inkscape:path-effect
       effect="simplify"
       id="path-effect316"
       is_visible="true"
       lpeversion="1"
       steps="1"
       threshold="0.0047745358"
       smooth_angles="0"
       helper_size="0"
       simplify_individual_paths="false"
       simplify_just_coalesce="false"
       step="1" />
    <inkscape:path-effect
       effect="powerstroke"
       id="path-effect270"
       is_visible="true"
       lpeversion="1"
       offset_points="2.7861905,0.092126751"
       not_jump="true"
       sort_points="true"
       interpolator_type="CentripetalCatmullRom"
       interpolator_beta="0.75"
       start_linecap_type="round"
       linejoin_type="spiro"
       miter_limit="4"
       scale_width="1"
       end_linecap_type="round" />
    <inkscape:path-effect
       effect="simplify"
       id="path-effect268"
       is_visible="true"
       lpeversion="1"
       steps="1"
       threshold="0.0047745358"
       smooth_angles="0"
       helper_size="0"
       simplify_individual_paths="false"
       simplify_just_coalesce="false"
       step="1" />
    <inkscape:path-effect
       effect="powerstroke"
       id="path-effect263"
       is_visible="true"
       lpeversion="1"
       offset_points="0.64430848,0.088578708"
       not_jump="true"
       sort_points="true"
       interpolator_type="CentripetalCatmullRom"
       interpolator_beta="0.75"
       start_linecap_type="round"
       linejoin_type="spiro"
       miter_limit="4"
       scale_width="1"
       end_linecap_type="round" />
    <inkscape:path-effect
       effect="simplify"
       id="path-effect261"
       is_visible="true"
       lpeversion="1"
       steps="1"
       threshold="0.0047745358"
       smooth_angles="0"
       helper_size="0"
       simplify_individual_paths="false"
       simplify_just_coalesce="false"
       step="1" />
    <inkscape:path-effect
       effect="powerstroke"
       id="path-effect1845"
       is_visible="true"
       lpeversion="1"
       offset_points="1.4617647,0.12041947"
       not_jump="true"
       sort_points="true"
       interpolator_type="CentripetalCatmullRom"
       interpolator_beta="0.75"
       start_linecap_type="round"
       linejoin_type="spiro"
       miter_limit="4"
       scale_width="1"
       end_linecap_type="round" />
    <inkscape:path-effect
       effect="simplify"
       id="path-effect1843"
       is_visible="true"
       lpeversion="1"
       steps="1"
       threshold="0.0035951417"
       smooth_angles="0"
       helper_size="0"
       simplify_individual_paths="false"
       simplify_just_coalesce="false"
       step="1" />
    <inkscape:path-effect
       effect="powerstroke"
       id="path-effect1838"
       is_visible="true"
       lpeversion="1"
       offset_points="1.0147746,0.10228681"
       not_jump="true"
       sort_points="true"
       interpolator_type="CentripetalCatmullRom"
       interpolator_beta="0.75"
       start_linecap_type="round"
       linejoin_type="spiro"
       miter_limit="4"
       scale_width="1"
       end_linecap_type="round" />
    <inkscape:path-effect
       effect="simplify"
       id="path-effect1836"
       is_visible="true"
       lpeversion="1"
       steps="1"
       threshold="0.0035951417"
       smooth_angles="0"
       helper_size="0"
       simplify_individual_paths="false"
       simplify_just_coalesce="false"
       step="1" />
    <inkscape:path-effect
       effect="powerstroke"
       id="path-effect502"
       is_visible="true"
       lpeversion="1"
       offset_points="3.0091841,0.21607495 | 7.3602657,0.17554228 | 9.4159651,0.20236537"
       not_jump="true"
       sort_points="true"
       interpolator_type="CentripetalCatmullRom"
       interpolator_beta="0.75"
       start_linecap_type="round"
       linejoin_type="spiro"
       miter_limit="4"
       scale_width="1"
       end_linecap_type="round" />
    <inkscape:path-effect
       effect="simplify"
       id="path-effect500"
       is_visible="true"
       lpeversion="1"
       steps="1"
       threshold="0.0035951417"
       smooth_angles="0"
       helper_size="0"
       simplify_individual_paths="false"
       simplify_just_coalesce="false"
       step="1" />
    <inkscape:path-effect
       effect="powerstroke"
       id="path-effect241"
       is_visible="true"
       lpeversion="1"
       offset_points="2.6879454,0.34086734"
       not_jump="true"
       sort_points="true"
       interpolator_type="CentripetalCatmullRom"
       interpolator_beta="0.75"
       start_linecap_type="round"
       linejoin_type="spiro"
       miter_limit="4"
       scale_width="1"
       end_linecap_type="round" />
    <inkscape:path-effect
       effect="simplify"
       id="path-effect239"
       is_visible="true"
       lpeversion="1"
       steps="1"
       threshold="0.0028332064"
       smooth_angles="0"
       helper_size="0"
       simplify_individual_paths="false"
       simplify_just_coalesce="false"
       step="1" />
    <inkscape:path-effect
       effect="powerstroke"
       id="path-effect234"
       is_visible="true"
       lpeversion="1"
       offset_points="2.13563,0.075169555"
       not_jump="true"
       sort_points="true"
       interpolator_type="CentripetalCatmullRom"
       interpolator_beta="0.75"
       start_linecap_type="round"
       linejoin_type="spiro"
       miter_limit="4"
       scale_width="1"
       end_linecap_type="round" />
    <inkscape:path-effect
       effect="simplify"
       id="path-effect232"
       is_visible="true"
       lpeversion="1"
       steps="1"
       threshold="0.0028332064"
       smooth_angles="0"
       helper_size="0"
       simplify_individual_paths="false"
       simplify_just_coalesce="false"
       step="1" />
    <inkscape:path-effect
       effect="powerstroke"
       id="path-effect227"
       is_visible="true"
       lpeversion="1"
       offset_points="2.1868266,0.075169555"
       not_jump="true"
       sort_points="true"
       interpolator_type="CentripetalCatmullRom"
       interpolator_beta="0.75"
       start_linecap_type="round"
       linejoin_type="spiro"
       miter_limit="4"
       scale_width="1"
       end_linecap_type="round" />
    <inkscape:path-effect
       effect="simplify"
       id="path-effect225"
       is_visible="true"
       lpeversion="1"
       steps="1"
       threshold="0.0028332064"
       smooth_angles="0"
       helper_size="0"
       simplify_individual_paths="false"
       simplify_just_coalesce="false"
       step="1" />
    <inkscape:path-effect
       effect="powerstroke"
       id="path-effect166"
       is_visible="true"
       lpeversion="1"
       offset_points="1.9637935,0.075169555"
       not_jump="true"
       sort_points="true"
       interpolator_type="CentripetalCatmullRom"
       interpolator_beta="0.75"
       start_linecap_type="round"
       linejoin_type="spiro"
       miter_limit="4"
       scale_width="1"
       end_linecap_type="round" />
    <inkscape:path-effect
       effect="simplify"
       id="path-effect164"
       is_visible="true"
       lpeversion="1"
       steps="1"
       threshold="0.0028332064"
       smooth_angles="0"
       helper_size="0"
       simplify_individual_paths="false"
       simplify_just_coalesce="false"
       step="1" />
    <inkscape:path-effect
       effect="powerstroke"
       id="path-effect159"
       is_visible="true"
       lpeversion="1"
       offset_points="2.2611036,0.075169555"
       not_jump="true"
       sort_points="true"
       interpolator_type="CentripetalCatmullRom"
       interpolator_beta="0.75"
       start_linecap_type="round"
       linejoin_type="spiro"
       miter_limit="4"
       scale_width="1"
       end_linecap_type="round" />
    <inkscape:path-effect
       effect="simplify"
       id="path-effect157"
       is_visible="true"
       lpeversion="1"
       steps="1"
       threshold="0.0028332064"
       smooth_angles="0"
       helper_size="0"
       simplify_individual_paths="false"
       simplify_just_coalesce="false"
       step="1" />
    <inkscape:path-effect
       effect="powerstroke"
       id="path-effect152"
       is_visible="true"
       lpeversion="1"
       offset_points="2.826981,0.075169555"
       not_jump="true"
       sort_points="true"
       interpolator_type="CentripetalCatmullRom"
       interpolator_beta="0.75"
       start_linecap_type="round"
       linejoin_type="spiro"
       miter_limit="4"
       scale_width="1"
       end_linecap_type="round" />
    <inkscape:path-effect
       effect="simplify"
       id="path-effect150"
       is_visible="true"
       lpeversion="1"
       steps="1"
       threshold="0.0028332064"
       smooth_angles="0"
       helper_size="0"
       simplify_individual_paths="false"
       simplify_just_coalesce="false"
       step="1" />
    <inkscape:path-effect
       effect="powerstroke"
       id="path-effect145"
       is_visible="true"
       lpeversion="1"
       offset_points="3.8374447,0.075169555"
       not_jump="true"
       sort_points="true"
       interpolator_type="CentripetalCatmullRom"
       interpolator_beta="0.75"
       start_linecap_type="round"
       linejoin_type="spiro"
       miter_limit="4"
       scale_width="1"
       end_linecap_type="round" />
    <inkscape:path-effect
       effect="simplify"
       id="path-effect143"
       is_visible="true"
       lpeversion="1"
       steps="1"
       threshold="0.0028332064"
       smooth_angles="0"
       helper_size="0"
       simplify_individual_paths="false"
       simplify_just_coalesce="false"
       step="1" />
    <inkscape:path-effect
       effect="powerstroke"
       id="path-effect138"
       is_visible="true"
       lpeversion="1"
       offset_points="2.6880907,0.075169555"
       not_jump="true"
       sort_points="true"
       interpolator_type="CentripetalCatmullRom"
       interpolator_beta="0.75"
       start_linecap_type="round"
       linejoin_type="spiro"
       miter_limit="4"
       scale_width="1"
       end_linecap_type="round" />
    <inkscape:path-effect
       effect="simplify"
       id="path-effect136"
       is_visible="true"
       lpeversion="1"
       steps="1"
       threshold="0.0028332064"
       smooth_angles="0"
       helper_size="0"
       simplify_individual_paths="false"
       simplify_just_coalesce="false"
       step="1" />
    <inkscape:path-effect
       effect="powerstroke"
       id="path-effect131"
       is_visible="true"
       lpeversion="1"
       offset_points="1.9940581,0.075169555"
       not_jump="true"
       sort_points="true"
       interpolator_type="CentripetalCatmullRom"
       interpolator_beta="0.75"
       start_linecap_type="round"
       linejoin_type="spiro"
       miter_limit="4"
       scale_width="1"
       end_linecap_type="round" />
    <inkscape:path-effect
       effect="simplify"
       id="path-effect129"
       is_visible="true"
       lpeversion="1"
       steps="1"
       threshold="0.0028332064"
       smooth_angles="0"
       helper_size="0"
       simplify_individual_paths="false"
       simplify_just_coalesce="false"
       step="1" />
  </defs>
  <sodipodi:namedview
     id="base"
     pagecolor="#ffffff"
     bordercolor="#666666"
     borderopacity="1.0"
     inkscape:pageopacity="0.0"
     inkscape:pageshadow="2"
     inkscape:zoom="22.4"
     inkscape:cx="3.28125"
     inkscape:cy="13.839286"
     inkscape:document-units="mm"
     inkscape:current-layer="layer1"
     showgrid="false"
     fit-margin-top="0"
     fit-margin-left="0"
     fit-margin-right="0"
     fit-margin-bottom="0"
     inkscape:window-width="1920"
     inkscape:window-height="1057"
     inkscape:window-x="1072"
     inkscape:window-y="321"
     inkscape:window-maximized="1"
     showguides="true"
     inkscape:guide-bbox="true"
     inkscape:snap-bbox="true"
     inkscape:bbox-nodes="true"
     inkscape:snap-nodes="false"
     inkscape:snap-others="false"
     inkscape:snap-page="true"
     inkscape:snap-grids="false"
     inkscape:snap-to-guides="false"
     inkscape:snap-global="false"
     inkscape:pagecheckerboard="0"
     inkscape:showpageshadow="2"
     inkscape:deskcolor="#d1d1d1">
    <sodipodi:guide
       position="-6.1806077,9.4988694"
       orientation="0,1"
       id="guide816"
       inkscape:locked="false" />
    <sodipodi:guide
       position="-4.4101637,10.646923"
       orientation="0,1"
       id="guide818"
       inkscape:locked="false" />
    <sodipodi:guide
       position="2.7595724,11.09577"
       orientation="1,0"
       id="guide820"
       inkscape:locked="false" />
    <sodipodi:guide
       position="3.657266,10.942217"
       orientation="1,0"
       id="guide822"
       inkscape:locked="false" />
    <sodipodi:guide
       position="-0.051625511,9.7492301"
       orientation="1,0"
       id="guide1853"
       inkscape:locked="false" />
    <sodipodi:guide
       position="-2.3720169,3.0175836"
       orientation="0,1"
       id="guide1855"
       inkscape:locked="false" />
    <sodipodi:guide
       position="1.1575521,7.838448"
       orientation="0,-1"
       id="guide912"
       inkscape:locked="false" />
  </sodipodi:namedview>
  <metadata
     id="metadata1678">
    <rdf:RDF>
      <cc:Work
         rdf:about="">
        <dc:format>image/svg+xml</dc:format>
        <dc:type
           rdf:resource="http://purl.org/dc/dcmitype/StillImage" />
      </cc:Work>
    </rdf:RDF>
  </metadata>
  <g
     inkscape:label="Layer 1"
     inkscape:groupmode="layer"
     id="layer1"
     transform="translate(17.028496,-147.22856)">
    <path
       d="m -16.34134,149.80548 c 0.01022,0.17088 0.03708,0.54592 0.07199,1.02287 0.01113,0.15209 0.02873,0.39552 0.04269,0.63674 0.02655,0.45875 0.04963,1.04752 0.0095,1.64721 -0.02211,0.38741 -0.04266,0.81462 -0.04267,0.97759 a 0.12077059,0.12077059 90 0 0 0.241542,2e-5 c 1.7e-5,-0.15708 0.01998,-0.57316 0.04221,-0.96266 0.0411,-0.61378 0.0173,-1.21455 -0.0094,-1.67612 -0.01408,-0.24322 -0.0318,-0.48827 -0.04294,-0.64041 -0.03499,-0.47806 -0.06164,-0.85025 -0.07177,-1.01966 a 0.12077059,0.12077059 90 0 0 -0.24111,0.0144 z"
       id="path-1"
       inkscape:path-effect="#path-effect978;#path-effect980"
       inkscape:original-d="m -16.220785,149.79827 c 0.05676,0.95905 0.165307,1.91938 0.143139,2.88179 -0.0108,0.46887 -0.06144,0.94096 -0.06144,1.40984"
       style="fill:#000000;fill-rule:nonzero;stroke:none" />
    <path
       d="m -16.139239,149.22202 c 8.01e-4,-0.0289 0.0014,-0.0874 0.0059,-0.13007 -5.03e-4,0.003 -2.62e-4,7.9e-4 2.3e-5,-0.002 l -0.0043,0.0175 c 6.05e-4,-0.002 0.0013,-0.004 0.002,-0.007 l -0.16214,0.0575 c -0.0094,-0.006 -0.01795,-0.0136 -0.02507,-0.0226 -0.007,-0.009 -0.01165,-0.0176 -0.01477,-0.0254 -0.0057,-0.0143 -0.0065,-0.026 -0.0067,-0.0286 -2.53e-4,-0.004 -2.11e-4,-0.003 7.5e-5,0.003 1.31e-4,0.003 4.2e-4,0.007 0.0012,0.0128 8e-6,5e-5 1.5e-5,1e-4 2.3e-5,1.5e-4 0.0023,0.0378 0.0023,0.0639 -0.0029,0.0859 -0.0013,0.005 -0.0021,0.0109 -0.0025,0.0164 0.0013,-0.0186 0.0078,-0.0353 0.0173,-0.0489 0.0094,-0.0135 0.02246,-0.0249 0.03843,-0.0324 0.01638,-0.008 0.03666,-0.0117 0.05836,-0.008 0.01084,0.002 0.02116,0.005 0.03059,0.0102 0.0095,0.005 0.01737,0.0111 0.02375,0.0175 l -0.03727,-0.0248 c -0.0034,-0.001 -0.0063,-0.003 -0.009,-0.004 -0.002,-9.1e-4 -0.0036,-0.002 -0.0051,-0.003 -0.0027,-0.001 -0.0055,-0.003 -0.0046,-0.003 4.03e-4,1.7e-4 0.003,0.002 0.0066,0.007 0.0037,0.005 0.0073,0.0119 0.0091,0.0203 8.39e-4,0.004 0.0013,0.008 0.0017,0.0118 0.0011,0.011 -9.79e-4,0.0211 -0.0044,0.0289 -0.0031,0.007 -0.007,0.0119 -0.0097,0.0145 -0.0026,0.003 -0.0052,0.004 -0.0079,0.006 -0.0026,0.001 -0.0069,0.003 -0.01321,0.003 -0.01186,9.8e-4 -0.02755,-0.002 -0.04142,-0.009 -0.01328,-0.007 -0.02323,-0.0155 -0.03022,-0.0244 -0.0069,-0.009 -0.01157,-0.0185 -0.0143,-0.0283 -0.0027,-0.01 -0.0038,-0.021 -0.0022,-0.0331 -0.0037,0.0245 -0.0057,0.0393 -0.0091,0.0529 -0.0031,0.0127 -0.0062,0.0187 -0.0083,0.0215 l 0.02371,-0.0286 c -0.0027,0.001 -0.0055,0.003 -0.0082,0.004 l 0.07086,-0.0295 c -0.0025,-6.5e-4 -0.005,-0.001 -0.0074,-0.002 l 0.07845,0.0217 c 0.0089,0.006 0.01503,0.0128 0.01886,0.018 0.0037,0.005 0.0049,0.008 0.0051,0.008 3.15e-4,-1.3e-4 -0.0013,-0.008 -0.0057,-0.0218 -0.0026,-0.0119 -0.0048,-0.0208 -0.006,-0.0269 -0.0013,-0.007 -0.0013,-0.01 -9.19e-4,-0.01 0.0015,9.3e-4 0.0029,0.002 0.0042,0.003 0.0012,0.001 0.0022,0.003 0.0028,0.004 5.94e-4,0.002 7.72e-4,0.003 5.83e-4,0.005 -1.9e-4,0.002 -7.37e-4,0.003 -0.0015,0.005 -0.0015,0.003 -0.0035,0.006 -0.0051,0.009 -0.0016,0.003 -0.0024,0.007 -0.0031,0.01 -0.0028,0.0155 -0.0099,0.0251 -0.01449,0.0299 -0.0049,0.005 -0.0116,0.01 -0.02125,0.0121 -0.02015,0.005 -0.04019,0.003 -0.05778,-0.003 -0.01767,-0.006 -0.03098,-0.0153 -0.04028,-0.0245 -0.0098,-0.01 -0.0167,-0.0204 -0.02132,-0.0311 -0.0049,-0.0115 -0.008,-0.0249 -0.0079,-0.0395 -3.04e-4,0.0375 -0.0063,0.0558 -0.0118,0.0649 0.0048,-0.009 0.01263,-0.0175 0.02087,-0.0245 0.0086,-0.007 0.01904,-0.0135 0.0314,-0.0178 0.01309,-0.005 0.02922,-0.007 0.04714,-0.005 0.01957,0.002 0.03777,0.01 0.0527,0.0211 0.003,0.002 0.0036,0.003 0.003,0.003 -8.2e-4,-9.8e-4 -0.0026,-0.004 -0.0051,-0.008 -0.0066,-0.0125 -0.01429,-0.0322 -0.02191,-0.0499 a 0.13063295,0.13063295 90 0 0 -0.240048,0.10314 c 0.0049,0.0114 0.01169,0.0325 0.03,0.0678 0.0068,0.0131 0.0162,0.0294 0.02888,0.0461 0.0117,0.0154 0.02685,0.032 0.04673,0.0472 0.02243,0.0169 0.04794,0.0274 0.07525,0.0306 0.02521,0.003 0.04891,-5.5e-4 0.0694,-0.008 0.01942,-0.007 0.03675,-0.0169 0.05142,-0.0293 0.01411,-0.0119 0.02706,-0.0268 0.03718,-0.0447 0.0368,-0.0619 0.04659,-0.13278 0.04611,-0.19167 -1.3e-5,-0.002 -3.6e-5,-0.003 -6.7e-5,-0.005 1.67e-4,-0.0196 -0.0045,-0.0413 -0.01281,-0.0608 -0.0078,-0.0183 -0.01934,-0.0362 -0.03507,-0.0518 -0.01497,-0.0148 -0.03518,-0.029 -0.06068,-0.0374 -0.0251,-0.008 -0.05354,-0.0105 -0.08244,-0.004 -0.03703,0.009 -0.07116,0.0277 -0.09831,0.0541 -0.02553,0.0248 -0.04915,0.0603 -0.05787,0.10529 -0.0012,0.006 -0.0023,0.0121 -0.0027,0.0182 -4.08e-4,0.006 4.9e-5,0.0123 7.1e-4,0.0184 0.0021,0.0192 0.0062,0.0359 0.0098,0.0483 0.0029,0.0101 0.0073,0.0237 0.0084,0.0275 6.47e-4,0.002 0.001,0.004 0.0014,0.006 1.85e-4,0.001 4.29e-4,0.002 8.19e-4,0.003 3.9e-4,0.001 9.33e-4,0.002 0.0015,0.003 9.84e-4,0.002 0.0045,0.0155 0.01402,0.0385 0.0045,0.011 0.01134,0.0253 0.02169,0.04 0.01055,0.0151 0.02483,0.0307 0.04407,0.0438 0.006,0.004 0.01187,0.008 0.01779,0.0125 0.0059,0.004 0.01198,0.008 0.01863,0.0111 0.0067,0.003 0.01395,0.004 0.02118,0.004 0.0072,-4.8e-4 0.01415,-0.003 0.02085,-0.006 0.0023,-9.6e-4 0.0047,-0.002 0.0071,-0.003 0.0062,-0.003 0.01246,-0.005 0.01902,-0.006 0.0066,-0.001 0.01324,-0.001 0.01983,-0.002 0.0066,-9.4e-4 0.01316,-0.003 0.01871,-0.006 0.0055,-0.004 0.0096,-0.009 0.0133,-0.0147 0.0017,-0.003 0.0034,-0.005 0.0051,-0.008 0.0035,-0.005 0.0077,-0.01 0.01217,-0.0141 0.0023,-0.002 0.0045,-0.004 0.0064,-0.007 0.0019,-0.002 0.0036,-0.005 0.0051,-0.008 0.01862,-0.0324 0.02789,-0.0649 0.03329,-0.0917 0.0052,-0.0259 0.0079,-0.0526 0.0098,-0.0695 0.0027,-0.0186 9.61e-4,-0.0388 -0.004,-0.0571 -0.005,-0.0184 -0.01352,-0.0361 -0.02558,-0.0518 -0.01223,-0.0159 -0.02876,-0.0306 -0.04965,-0.0409 -0.02156,-0.0107 -0.04598,-0.0158 -0.07113,-0.014 -0.02069,6.9e-4 -0.04359,0.007 -0.06353,0.0151 -0.02034,0.009 -0.03945,0.0209 -0.056,0.0361 -0.01685,0.0155 -0.03222,0.0353 -0.04291,0.0592 -0.0111,0.0248 -0.01676,0.0533 -0.01391,0.0835 3.73e-4,0.004 9.01e-4,0.008 0.0017,0.0118 0.0052,0.0256 0.01586,0.0475 0.02884,0.0654 0.013,0.0179 0.02787,0.0313 0.04113,0.0411 0.01361,0.0101 0.02713,0.0176 0.03836,0.0231 0.005,0.002 0.0099,0.005 0.01438,0.007 0.0024,0.001 0.0048,0.002 0.007,0.003 6.22e-4,3.5e-4 0.0012,6.8e-4 0.0019,0.001 0.01145,0.006 0.02386,0.0102 0.03679,0.0123 0.02584,0.004 0.05027,-4.4e-4 0.0704,-0.01 0.01967,-0.009 0.03603,-0.0234 0.0479,-0.0404 0.01,-0.0143 0.01727,-0.0312 0.02036,-0.0499 0.01173,-0.056 0.0086,-0.11053 0.0059,-0.15032 -6.51e-4,-0.01 -0.0026,-0.0192 -0.0057,-0.0283 0.0026,0.007 0.0037,0.0137 0.0043,0.0177 5.74e-4,0.004 7.36e-4,0.007 7.86e-4,0.008 1.23e-4,0.002 1.83e-4,3e-5 -2.96e-4,-0.007 -3.98e-4,-0.006 -0.0016,-0.0209 -0.0085,-0.038 -0.0037,-0.009 -0.0091,-0.0194 -0.01704,-0.0293 -0.0081,-0.0102 -0.01777,-0.0189 -0.02868,-0.0258 -0.01484,-0.009 -0.03008,-0.0187 -0.04701,-0.0235 -0.01693,-0.005 -0.03535,-0.005 -0.05187,0.001 -0.01652,0.006 -0.03062,0.0178 -0.04077,0.0322 -0.01016,0.0144 -0.01647,0.031 -0.02249,0.0475 -8.41e-4,0.002 -0.0017,0.005 -0.0025,0.007 -0.0011,0.003 -0.002,0.006 -0.0026,0.009 -5.91e-4,0.003 -0.0011,0.006 -0.0017,0.009 -5.38e-4,0.003 -0.0011,0.005 -0.0015,0.007 -0.0069,0.0603 -0.0078,0.13173 -0.0084,0.15318 a 0.11021614,0.11021614 90 0 0 0.220348,0.006 z"
       id="path-1-5"
       inkscape:path-effect="#path-effect985;#path-effect987"
       inkscape:original-d="m -16.249413,149.21897 c 0.0073,-0.35023 0.03442,0.012 0,0 -0.194426,-0.0675 0.02569,-0.20085 0.02165,-0.10109 -7.25e-4,0.0179 -0.03377,0.26337 -0.08868,0.008 -0.0072,-0.0334 0.07206,-0.0991 0.09007,-0.045 0.01216,0.0365 -0.03118,0.30416 -0.132665,0.0428"
       style="fill:#000000;fill-rule:nonzero;stroke:none" />
  </g>
</svg>
