<?xml version="1.0" encoding="UTF-8" standalone="no"?>
<!-- Created with Inkscape (http://www.inkscape.org/) -->

<svg
   width="3mm"
   height="10mm"
   viewBox="0 0 3.0000001 9.9999994"
   version="1.1"
   id="svg1681"
   inkscape:version="1.2.1 (9c6d41e410, 2022-07-14)"
   sodipodi:docname="number_nine_5.svg"
   inkscape:export-filename="..\..\..\..\Downloads\lower a diff canvas resize 3.0.png"
   inkscape:export-xdpi="96"
   inkscape:export-ydpi="96"
   xmlns:inkscape="http://www.inkscape.org/namespaces/inkscape"
   xmlns:sodipodi="http://sodipodi.sourceforge.net/DTD/sodipodi-0.dtd"
   xmlns="http://www.w3.org/2000/svg"
   xmlns:svg="http://www.w3.org/2000/svg"
   xmlns:rdf="http://www.w3.org/1999/02/22-rdf-syntax-ns#"
   xmlns:cc="http://creativecommons.org/ns#"
   xmlns:dc="http://purl.org/dc/elements/1.1/">
  <defs
     id="defs1675">
    <inkscape:path-effect
       effect="powerstroke"
       id="path-effect818"
       is_visible="true"
       lpeversion="1"
       offset_points="1.5543802,0.12804223"
       not_jump="true"
       sort_points="true"
       interpolator_type="CentripetalCatmullRom"
       interpolator_beta="0.75"
       start_linecap_type="round"
       linejoin_type="spiro"
       miter_limit="4"
       scale_width="1"
       end_linecap_type="round" />
    <inkscape:path-effect
       effect="simplify"
       id="path-effect816"
       is_visible="true"
       lpeversion="1"
       steps="1"
       threshold="0.0035951417"
       smooth_angles="0"
       helper_size="0"
       simplify_individual_paths="false"
       simplify_just_coalesce="false"
       step="1" />
    <inkscape:path-effect
       effect="powerstroke"
       id="path-effect811"
       is_visible="true"
       lpeversion="1"
       offset_points="3.0706959,0.12275719 | 5.288184,0.13645026 | 8.2098958,0.10353884"
       not_jump="true"
       sort_points="true"
       interpolator_type="CentripetalCatmullRom"
       interpolator_beta="0.75"
       start_linecap_type="round"
       linejoin_type="spiro"
       miter_limit="4"
       scale_width="1"
       end_linecap_type="round" />
    <inkscape:path-effect
       effect="simplify"
       id="path-effect809"
       is_visible="true"
       lpeversion="1"
       steps="1"
       threshold="0.0035951417"
       smooth_angles="0"
       helper_size="0"
       simplify_individual_paths="false"
       simplify_just_coalesce="false"
       step="1" />
    <inkscape:path-effect
       effect="powerstroke"
       id="path-effect804"
       is_visible="true"
       lpeversion="1"
       offset_points="3.0554967,0.095283281 | 10.501547,0.082657145"
       not_jump="true"
       sort_points="true"
       interpolator_type="CentripetalCatmullRom"
       interpolator_beta="0.75"
       start_linecap_type="round"
       linejoin_type="spiro"
       miter_limit="4"
       scale_width="1"
       end_linecap_type="round" />
    <inkscape:path-effect
       effect="simplify"
       id="path-effect802"
       is_visible="true"
       lpeversion="1"
       steps="1"
       threshold="0.0035951417"
       smooth_angles="0"
       helper_size="0"
       simplify_individual_paths="false"
       simplify_just_coalesce="false"
       step="1" />
    <inkscape:path-effect
       effect="powerstroke"
       id="path-effect797"
       is_visible="true"
       lpeversion="1"
       offset_points="2.6091968,0.099247301"
       not_jump="true"
       sort_points="true"
       interpolator_type="CentripetalCatmullRom"
       interpolator_beta="0.75"
       start_linecap_type="round"
       linejoin_type="spiro"
       miter_limit="4"
       scale_width="1"
       end_linecap_type="round" />
    <inkscape:path-effect
       effect="simplify"
       id="path-effect795"
       is_visible="true"
       lpeversion="1"
       steps="1"
       threshold="0.0035951417"
       smooth_angles="0"
       helper_size="0"
       simplify_individual_paths="false"
       simplify_just_coalesce="false"
       step="1" />
    <inkscape:path-effect
       effect="powerstroke"
       id="path-effect502"
       is_visible="true"
       lpeversion="1"
       offset_points="3.0091841,0.21607495 | 7.3602657,0.17554228 | 9.4159651,0.20236537"
       not_jump="true"
       sort_points="true"
       interpolator_type="CentripetalCatmullRom"
       interpolator_beta="0.75"
       start_linecap_type="round"
       linejoin_type="spiro"
       miter_limit="4"
       scale_width="1"
       end_linecap_type="round" />
    <inkscape:path-effect
       effect="simplify"
       id="path-effect500"
       is_visible="true"
       lpeversion="1"
       steps="1"
       threshold="0.0035951417"
       smooth_angles="0"
       helper_size="0"
       simplify_individual_paths="false"
       simplify_just_coalesce="false"
       step="1" />
    <inkscape:path-effect
       effect="powerstroke"
       id="path-effect241"
       is_visible="true"
       lpeversion="1"
       offset_points="2.6879454,0.34086734"
       not_jump="true"
       sort_points="true"
       interpolator_type="CentripetalCatmullRom"
       interpolator_beta="0.75"
       start_linecap_type="round"
       linejoin_type="spiro"
       miter_limit="4"
       scale_width="1"
       end_linecap_type="round" />
    <inkscape:path-effect
       effect="simplify"
       id="path-effect239"
       is_visible="true"
       lpeversion="1"
       steps="1"
       threshold="0.0028332064"
       smooth_angles="0"
       helper_size="0"
       simplify_individual_paths="false"
       simplify_just_coalesce="false"
       step="1" />
    <inkscape:path-effect
       effect="powerstroke"
       id="path-effect234"
       is_visible="true"
       lpeversion="1"
       offset_points="2.13563,0.075169555"
       not_jump="true"
       sort_points="true"
       interpolator_type="CentripetalCatmullRom"
       interpolator_beta="0.75"
       start_linecap_type="round"
       linejoin_type="spiro"
       miter_limit="4"
       scale_width="1"
       end_linecap_type="round" />
    <inkscape:path-effect
       effect="simplify"
       id="path-effect232"
       is_visible="true"
       lpeversion="1"
       steps="1"
       threshold="0.0028332064"
       smooth_angles="0"
       helper_size="0"
       simplify_individual_paths="false"
       simplify_just_coalesce="false"
       step="1" />
    <inkscape:path-effect
       effect="powerstroke"
       id="path-effect227"
       is_visible="true"
       lpeversion="1"
       offset_points="2.1868266,0.075169555"
       not_jump="true"
       sort_points="true"
       interpolator_type="CentripetalCatmullRom"
       interpolator_beta="0.75"
       start_linecap_type="round"
       linejoin_type="spiro"
       miter_limit="4"
       scale_width="1"
       end_linecap_type="round" />
    <inkscape:path-effect
       effect="simplify"
       id="path-effect225"
       is_visible="true"
       lpeversion="1"
       steps="1"
       threshold="0.0028332064"
       smooth_angles="0"
       helper_size="0"
       simplify_individual_paths="false"
       simplify_just_coalesce="false"
       step="1" />
    <inkscape:path-effect
       effect="powerstroke"
       id="path-effect166"
       is_visible="true"
       lpeversion="1"
       offset_points="1.9637935,0.075169555"
       not_jump="true"
       sort_points="true"
       interpolator_type="CentripetalCatmullRom"
       interpolator_beta="0.75"
       start_linecap_type="round"
       linejoin_type="spiro"
       miter_limit="4"
       scale_width="1"
       end_linecap_type="round" />
    <inkscape:path-effect
       effect="simplify"
       id="path-effect164"
       is_visible="true"
       lpeversion="1"
       steps="1"
       threshold="0.0028332064"
       smooth_angles="0"
       helper_size="0"
       simplify_individual_paths="false"
       simplify_just_coalesce="false"
       step="1" />
    <inkscape:path-effect
       effect="powerstroke"
       id="path-effect159"
       is_visible="true"
       lpeversion="1"
       offset_points="2.2611036,0.075169555"
       not_jump="true"
       sort_points="true"
       interpolator_type="CentripetalCatmullRom"
       interpolator_beta="0.75"
       start_linecap_type="round"
       linejoin_type="spiro"
       miter_limit="4"
       scale_width="1"
       end_linecap_type="round" />
    <inkscape:path-effect
       effect="simplify"
       id="path-effect157"
       is_visible="true"
       lpeversion="1"
       steps="1"
       threshold="0.0028332064"
       smooth_angles="0"
       helper_size="0"
       simplify_individual_paths="false"
       simplify_just_coalesce="false"
       step="1" />
    <inkscape:path-effect
       effect="powerstroke"
       id="path-effect152"
       is_visible="true"
       lpeversion="1"
       offset_points="2.826981,0.075169555"
       not_jump="true"
       sort_points="true"
       interpolator_type="CentripetalCatmullRom"
       interpolator_beta="0.75"
       start_linecap_type="round"
       linejoin_type="spiro"
       miter_limit="4"
       scale_width="1"
       end_linecap_type="round" />
    <inkscape:path-effect
       effect="simplify"
       id="path-effect150"
       is_visible="true"
       lpeversion="1"
       steps="1"
       threshold="0.0028332064"
       smooth_angles="0"
       helper_size="0"
       simplify_individual_paths="false"
       simplify_just_coalesce="false"
       step="1" />
    <inkscape:path-effect
       effect="powerstroke"
       id="path-effect145"
       is_visible="true"
       lpeversion="1"
       offset_points="3.8374447,0.075169555"
       not_jump="true"
       sort_points="true"
       interpolator_type="CentripetalCatmullRom"
       interpolator_beta="0.75"
       start_linecap_type="round"
       linejoin_type="spiro"
       miter_limit="4"
       scale_width="1"
       end_linecap_type="round" />
    <inkscape:path-effect
       effect="simplify"
       id="path-effect143"
       is_visible="true"
       lpeversion="1"
       steps="1"
       threshold="0.0028332064"
       smooth_angles="0"
       helper_size="0"
       simplify_individual_paths="false"
       simplify_just_coalesce="false"
       step="1" />
    <inkscape:path-effect
       effect="powerstroke"
       id="path-effect138"
       is_visible="true"
       lpeversion="1"
       offset_points="2.6880907,0.075169555"
       not_jump="true"
       sort_points="true"
       interpolator_type="CentripetalCatmullRom"
       interpolator_beta="0.75"
       start_linecap_type="round"
       linejoin_type="spiro"
       miter_limit="4"
       scale_width="1"
       end_linecap_type="round" />
    <inkscape:path-effect
       effect="simplify"
       id="path-effect136"
       is_visible="true"
       lpeversion="1"
       steps="1"
       threshold="0.0028332064"
       smooth_angles="0"
       helper_size="0"
       simplify_individual_paths="false"
       simplify_just_coalesce="false"
       step="1" />
    <inkscape:path-effect
       effect="powerstroke"
       id="path-effect131"
       is_visible="true"
       lpeversion="1"
       offset_points="1.9940581,0.075169555"
       not_jump="true"
       sort_points="true"
       interpolator_type="CentripetalCatmullRom"
       interpolator_beta="0.75"
       start_linecap_type="round"
       linejoin_type="spiro"
       miter_limit="4"
       scale_width="1"
       end_linecap_type="round" />
    <inkscape:path-effect
       effect="simplify"
       id="path-effect129"
       is_visible="true"
       lpeversion="1"
       steps="1"
       threshold="0.0028332064"
       smooth_angles="0"
       helper_size="0"
       simplify_individual_paths="false"
       simplify_just_coalesce="false"
       step="1" />
  </defs>
  <sodipodi:namedview
     id="base"
     pagecolor="#ffffff"
     bordercolor="#666666"
     borderopacity="1.0"
     inkscape:pageopacity="0.0"
     inkscape:pageshadow="2"
     inkscape:zoom="7.919596"
     inkscape:cx="-5.3033008"
     inkscape:cy="20.834396"
     inkscape:document-units="mm"
     inkscape:current-layer="layer1"
     showgrid="false"
     fit-margin-top="0"
     fit-margin-left="0"
     fit-margin-right="0"
     fit-margin-bottom="0"
     inkscape:window-width="3440"
     inkscape:window-height="1369"
     inkscape:window-x="1072"
     inkscape:window-y="224"
     inkscape:window-maximized="1"
     showguides="true"
     inkscape:guide-bbox="true"
     inkscape:snap-bbox="true"
     inkscape:bbox-nodes="true"
     inkscape:snap-nodes="false"
     inkscape:snap-others="false"
     inkscape:snap-page="true"
     inkscape:snap-grids="false"
     inkscape:snap-to-guides="false"
     inkscape:snap-global="false"
     inkscape:pagecheckerboard="0"
     inkscape:showpageshadow="2"
     inkscape:deskcolor="#d1d1d1">
    <sodipodi:guide
       position="-6.1806076,9.4988693"
       orientation="0,1"
       id="guide816"
       inkscape:locked="false" />
    <sodipodi:guide
       position="-4.4101636,10.646923"
       orientation="0,1"
       id="guide818"
       inkscape:locked="false" />
    <sodipodi:guide
       position="2.7595724,11.09577"
       orientation="1,0"
       id="guide820"
       inkscape:locked="false" />
    <sodipodi:guide
       position="3.6572659,10.942217"
       orientation="1,0"
       id="guide822"
       inkscape:locked="false" />
    <sodipodi:guide
       position="-0.051625511,9.74923"
       orientation="1,0"
       id="guide1853"
       inkscape:locked="false" />
    <sodipodi:guide
       position="-2.3720169,3.0175835"
       orientation="0,1"
       id="guide1855"
       inkscape:locked="false" />
  </sodipodi:namedview>
  <metadata
     id="metadata1678">
    <rdf:RDF>
      <cc:Work
         rdf:about="">
        <dc:format>image/svg+xml</dc:format>
        <dc:type
           rdf:resource="http://purl.org/dc/dcmitype/StillImage" />
      </cc:Work>
    </rdf:RDF>
  </metadata>
  <g
     inkscape:label="Layer 1"
     inkscape:groupmode="layer"
     id="layer1"
     transform="translate(17.028496,-147.22856)">
    <path
       d="m -15.504423,148.06323 c -0.109616,-0.0152 -0.27489,-0.0197 -0.464474,0.0392 -0.134612,0.0418 -0.278804,0.11573 -0.404896,0.23123 -0.154778,0.13979 -0.279061,0.31341 -0.373255,0.51015 -0.09037,0.18875 -0.149857,0.39216 -0.183935,0.59459 -0.0105,0.0833 -0.02436,0.16745 -0.03023,0.25304 -0.0066,0.0963 -0.0027,0.18901 0.022,0.28092 0.0075,0.0322 0.01802,0.0671 0.03018,0.10056 0.03185,0.0876 0.07584,0.16805 0.127997,0.2401 0.0752,0.10387 0.168266,0.19154 0.270457,0.26023 0.105671,0.071 0.222649,0.12286 0.343936,0.15203 0.124275,0.0299 0.253976,0.0363 0.382396,0.0146 0.108054,-0.0148 0.209252,-0.0522 0.301298,-0.0981 0.08985,-0.0448 0.173216,-0.0987 0.252769,-0.15219 0.148976,-0.10725 0.277201,-0.24029 0.381043,-0.3947 0.07313,-0.10874 0.134472,-0.2286 0.180599,-0.35653 0.103304,-0.28651 0.130513,-0.61577 0.03735,-0.93356 -0.0015,-0.003 -0.0066,-0.0196 -0.01191,-0.0338 -0.0028,-0.007 -0.0064,-0.0166 -0.01089,-0.026 -0.0041,-0.009 -0.01107,-0.022 -0.02142,-0.0354 -0.0054,-0.007 -0.01297,-0.0156 -0.02313,-0.0241 -0.01025,-0.009 -0.02443,-0.0179 -0.04272,-0.0242 -0.01895,-0.007 -0.03974,-0.009 -0.06083,-0.006 -0.0206,0.003 -0.03759,0.0103 -0.05056,0.0183 -0.01272,0.008 -0.02227,0.0167 -0.02911,0.0242 -0.0069,0.008 -0.01234,0.0151 -0.01653,0.0217 -0.0064,0.01 -0.01153,0.0204 -0.0158,0.0302 -0.044,0.0645 -0.07812,0.13198 -0.104752,0.20032 -0.02884,0.074 -0.04899,0.14924 -0.06341,0.22317 -0.02978,0.15267 -0.03671,0.30972 -0.04036,0.44261 -0.0013,0.0439 -0.0023,0.0826 -0.0037,0.12446 -0.0019,0.0557 -0.0044,0.11267 -0.0087,0.16918 -0.0074,0.0968 -0.01968,0.18906 -0.04203,0.2778 -0.0013,0.005 -0.0022,0.0108 -0.0027,0.0163 -0.08179,0.96935 -0.109595,1.84556 -0.136046,2.26318 a 0.10353884,0.10353884 90 0 0 0.206664,0.0131 c 0.02653,-0.41893 0.05168,-1.29414 0.131763,-2.25115 0.02459,-0.10079 0.03787,-0.20215 0.04642,-0.30271 0.0051,-0.0602 0.0085,-0.12022 0.01154,-0.17657 0.0021,-0.0401 0.0044,-0.0836 0.0068,-0.12492 0.0064,-0.13238 0.01691,-0.27333 0.04699,-0.40578 0.01438,-0.0633 0.03318,-0.12459 0.05808,-0.18265 0.0244,-0.0569 0.0546,-0.11058 0.09222,-0.16021 0.0024,-0.003 0.0045,-0.007 0.0063,-0.0102 0.0018,-0.004 0.0036,-0.007 0.0057,-0.0105 0.0015,-0.002 0.0045,-0.006 0.0017,-9e-5 -9.99e-4,0.002 -0.0032,0.006 -0.0072,0.01 -0.0039,0.004 -0.01047,0.0109 -0.02042,0.0171 -0.01018,0.006 -0.0245,0.0128 -0.04251,0.0154 -0.0185,0.003 -0.03681,5.6e-4 -0.05336,-0.005 -0.01589,-0.005 -0.02777,-0.0134 -0.0358,-0.02 -0.0079,-0.006 -0.01341,-0.0128 -0.01671,-0.0169 -0.0071,-0.009 -0.0088,-0.0125 -0.0099,-0.0137 -0.001,-0.001 -0.0011,2e-4 -8.5e-4,0.003 3.51e-4,0.004 0.0022,0.017 0.0038,0.0269 0.07351,0.26368 0.04957,0.53453 -0.03862,0.7739 -0.03926,0.10656 -0.09098,0.20631 -0.152143,0.29667 -0.08687,0.12834 -0.192793,0.23779 -0.311272,0.32353 -0.07536,0.0513 -0.145767,0.0985 -0.218848,0.13752 -0.07364,0.0393 -0.146078,0.0679 -0.220646,0.0809 -0.09451,0.0174 -0.189116,0.0145 -0.282483,-0.007 -0.09132,-0.0206 -0.181189,-0.0588 -0.263425,-0.11272 -0.07954,-0.0522 -0.151603,-0.1189 -0.209404,-0.19744 -0.04003,-0.0544 -0.0732,-0.11444 -0.09701,-0.17896 -0.0091,-0.0246 -0.01693,-0.0502 -0.02327,-0.0767 -0.01712,-0.0614 -0.02174,-0.12511 -0.01663,-0.20418 0.0049,-0.0763 0.01642,-0.14348 0.02769,-0.23409 0.03013,-0.1784 0.08367,-0.35949 0.162924,-0.52465 0.08244,-0.1718 0.188845,-0.31847 0.317915,-0.43471 0.0975,-0.0889 0.208361,-0.14556 0.31334,-0.17792 0.14579,-0.0449 0.275023,-0.0414 0.358367,-0.0299 a 0.12275719,0.12275719 90 0 0 0.0337,-0.2432 z"
       id="path-1"
       inkscape:path-effect="#path-effect809;#path-effect811"
       inkscape:original-d="m -15.521271,148.18483 c -0.839696,-0.10223 -1.260079,0.79094 -1.308005,1.42695 -0.129708,0.68883 0.694899,1.29749 1.356497,0.86926 0.622053,-0.33351 0.911906,-1.0911 0.692161,-1.71365 -0.333019,0.41466 -0.177511,0.96905 -0.297631,1.44475 -0.06335,0.75273 -0.08651,1.50761 -0.134241,2.26118"
       style="fill:#000000;fill-rule:nonzero;stroke:none;stroke-width:1.63627" />
    <path
       d="m -14.984139,150.75245 c 0.0012,0.17946 -0.01514,0.414 -0.09039,0.76905 -0.05093,0.2403 -0.124036,0.50808 -0.189462,0.77758 -0.06024,0.24633 -0.108485,0.47345 -0.135563,0.70132 -0.0032,0.0265 -0.006,0.0527 -0.0084,0.0784 -0.01909,0.19816 -0.02314,0.42088 0.01305,0.65288 0.03608,0.23353 0.103722,0.41173 0.148182,0.51428 a 0.12804223,0.12804223 90 0 0 0.234954,-0.10186 c -0.03888,-0.0897 -0.09833,-0.24618 -0.130083,-0.4517 -0.03198,-0.205 -0.02892,-0.40517 -0.0112,-0.58905 0.0023,-0.0238 0.0049,-0.048 0.0078,-0.0727 0.02529,-0.21278 0.07076,-0.42834 0.130073,-0.67092 0.06416,-0.26429 0.138231,-0.53528 0.191177,-0.78511 0.07878,-0.37169 0.09727,-0.62461 0.09595,-0.82382 a 0.12804223,0.12804223 90 0 0 -0.256078,0.002 z"
       id="path-1-8"
       inkscape:path-effect="#path-effect816;#path-effect818"
       inkscape:original-d="m -14.8561,150.75161 c 0.01021,1.15547 -0.768609,2.29806 -0.27319,3.44342"
       style="fill:#000000;fill-rule:nonzero;stroke:none;stroke-width:1.63627" />
  </g>
</svg>
