<?xml version="1.0" encoding="UTF-8" standalone="no"?>
<!-- Created with Inkscape (http://www.inkscape.org/) -->

<svg
   width="3mm"
   height="10mm"
   viewBox="0 0 3.0000001 9.9999994"
   version="1.1"
   id="svg1681"
   inkscape:version="1.2.1 (9c6d41e410, 2022-07-14)"
   sodipodi:docname="number_nine_13.svg"
   inkscape:export-filename="..\..\..\..\Downloads\lower a diff canvas resize 3.0.png"
   inkscape:export-xdpi="96"
   inkscape:export-ydpi="96"
   xmlns:inkscape="http://www.inkscape.org/namespaces/inkscape"
   xmlns:sodipodi="http://sodipodi.sourceforge.net/DTD/sodipodi-0.dtd"
   xmlns="http://www.w3.org/2000/svg"
   xmlns:svg="http://www.w3.org/2000/svg"
   xmlns:rdf="http://www.w3.org/1999/02/22-rdf-syntax-ns#"
   xmlns:cc="http://creativecommons.org/ns#"
   xmlns:dc="http://purl.org/dc/elements/1.1/">
  <defs
     id="defs1675">
    <inkscape:path-effect
       effect="powerstroke"
       id="path-effect153"
       is_visible="true"
       lpeversion="1"
       offset_points="2.0634214,0.19008621 | 4.8359814,0.14904926"
       not_jump="true"
       sort_points="true"
       interpolator_type="CentripetalCatmullRom"
       interpolator_beta="0.75"
       start_linecap_type="round"
       linejoin_type="spiro"
       miter_limit="4"
       scale_width="1"
       end_linecap_type="round" />
    <inkscape:path-effect
       effect="simplify"
       id="path-effect151"
       is_visible="true"
       lpeversion="1"
       steps="1"
       threshold="0.0035951417"
       smooth_angles="0"
       helper_size="0"
       simplify_individual_paths="false"
       simplify_just_coalesce="false"
       step="1" />
    <inkscape:path-effect
       effect="powerstroke"
       id="path-effect1311"
       is_visible="true"
       lpeversion="1"
       offset_points="1.6852059,0.11860025"
       not_jump="true"
       sort_points="true"
       interpolator_type="CentripetalCatmullRom"
       interpolator_beta="0.75"
       start_linecap_type="round"
       linejoin_type="spiro"
       miter_limit="4"
       scale_width="1"
       end_linecap_type="round" />
    <inkscape:path-effect
       effect="simplify"
       id="path-effect1309"
       is_visible="true"
       lpeversion="1"
       steps="1"
       threshold="0.0035951417"
       smooth_angles="0"
       helper_size="0"
       simplify_individual_paths="false"
       simplify_just_coalesce="false"
       step="1" />
    <inkscape:path-effect
       effect="powerstroke"
       id="path-effect502"
       is_visible="true"
       lpeversion="1"
       offset_points="3.0091841,0.21607495 | 7.3602657,0.17554228 | 9.4159651,0.20236537"
       not_jump="true"
       sort_points="true"
       interpolator_type="CentripetalCatmullRom"
       interpolator_beta="0.75"
       start_linecap_type="round"
       linejoin_type="spiro"
       miter_limit="4"
       scale_width="1"
       end_linecap_type="round" />
    <inkscape:path-effect
       effect="simplify"
       id="path-effect500"
       is_visible="true"
       lpeversion="1"
       steps="1"
       threshold="0.0035951417"
       smooth_angles="0"
       helper_size="0"
       simplify_individual_paths="false"
       simplify_just_coalesce="false"
       step="1" />
    <inkscape:path-effect
       effect="powerstroke"
       id="path-effect241"
       is_visible="true"
       lpeversion="1"
       offset_points="2.6879454,0.34086734"
       not_jump="true"
       sort_points="true"
       interpolator_type="CentripetalCatmullRom"
       interpolator_beta="0.75"
       start_linecap_type="round"
       linejoin_type="spiro"
       miter_limit="4"
       scale_width="1"
       end_linecap_type="round" />
    <inkscape:path-effect
       effect="simplify"
       id="path-effect239"
       is_visible="true"
       lpeversion="1"
       steps="1"
       threshold="0.0028332064"
       smooth_angles="0"
       helper_size="0"
       simplify_individual_paths="false"
       simplify_just_coalesce="false"
       step="1" />
    <inkscape:path-effect
       effect="powerstroke"
       id="path-effect234"
       is_visible="true"
       lpeversion="1"
       offset_points="2.13563,0.075169555"
       not_jump="true"
       sort_points="true"
       interpolator_type="CentripetalCatmullRom"
       interpolator_beta="0.75"
       start_linecap_type="round"
       linejoin_type="spiro"
       miter_limit="4"
       scale_width="1"
       end_linecap_type="round" />
    <inkscape:path-effect
       effect="simplify"
       id="path-effect232"
       is_visible="true"
       lpeversion="1"
       steps="1"
       threshold="0.0028332064"
       smooth_angles="0"
       helper_size="0"
       simplify_individual_paths="false"
       simplify_just_coalesce="false"
       step="1" />
    <inkscape:path-effect
       effect="powerstroke"
       id="path-effect227"
       is_visible="true"
       lpeversion="1"
       offset_points="2.1868266,0.075169555"
       not_jump="true"
       sort_points="true"
       interpolator_type="CentripetalCatmullRom"
       interpolator_beta="0.75"
       start_linecap_type="round"
       linejoin_type="spiro"
       miter_limit="4"
       scale_width="1"
       end_linecap_type="round" />
    <inkscape:path-effect
       effect="simplify"
       id="path-effect225"
       is_visible="true"
       lpeversion="1"
       steps="1"
       threshold="0.0028332064"
       smooth_angles="0"
       helper_size="0"
       simplify_individual_paths="false"
       simplify_just_coalesce="false"
       step="1" />
    <inkscape:path-effect
       effect="powerstroke"
       id="path-effect166"
       is_visible="true"
       lpeversion="1"
       offset_points="1.9637935,0.075169555"
       not_jump="true"
       sort_points="true"
       interpolator_type="CentripetalCatmullRom"
       interpolator_beta="0.75"
       start_linecap_type="round"
       linejoin_type="spiro"
       miter_limit="4"
       scale_width="1"
       end_linecap_type="round" />
    <inkscape:path-effect
       effect="simplify"
       id="path-effect164"
       is_visible="true"
       lpeversion="1"
       steps="1"
       threshold="0.0028332064"
       smooth_angles="0"
       helper_size="0"
       simplify_individual_paths="false"
       simplify_just_coalesce="false"
       step="1" />
    <inkscape:path-effect
       effect="powerstroke"
       id="path-effect159"
       is_visible="true"
       lpeversion="1"
       offset_points="2.2611036,0.075169555"
       not_jump="true"
       sort_points="true"
       interpolator_type="CentripetalCatmullRom"
       interpolator_beta="0.75"
       start_linecap_type="round"
       linejoin_type="spiro"
       miter_limit="4"
       scale_width="1"
       end_linecap_type="round" />
    <inkscape:path-effect
       effect="simplify"
       id="path-effect157"
       is_visible="true"
       lpeversion="1"
       steps="1"
       threshold="0.0028332064"
       smooth_angles="0"
       helper_size="0"
       simplify_individual_paths="false"
       simplify_just_coalesce="false"
       step="1" />
    <inkscape:path-effect
       effect="powerstroke"
       id="path-effect152"
       is_visible="true"
       lpeversion="1"
       offset_points="2.826981,0.075169555"
       not_jump="true"
       sort_points="true"
       interpolator_type="CentripetalCatmullRom"
       interpolator_beta="0.75"
       start_linecap_type="round"
       linejoin_type="spiro"
       miter_limit="4"
       scale_width="1"
       end_linecap_type="round" />
    <inkscape:path-effect
       effect="simplify"
       id="path-effect150"
       is_visible="true"
       lpeversion="1"
       steps="1"
       threshold="0.0028332064"
       smooth_angles="0"
       helper_size="0"
       simplify_individual_paths="false"
       simplify_just_coalesce="false"
       step="1" />
    <inkscape:path-effect
       effect="powerstroke"
       id="path-effect145"
       is_visible="true"
       lpeversion="1"
       offset_points="3.8374447,0.075169555"
       not_jump="true"
       sort_points="true"
       interpolator_type="CentripetalCatmullRom"
       interpolator_beta="0.75"
       start_linecap_type="round"
       linejoin_type="spiro"
       miter_limit="4"
       scale_width="1"
       end_linecap_type="round" />
    <inkscape:path-effect
       effect="simplify"
       id="path-effect143"
       is_visible="true"
       lpeversion="1"
       steps="1"
       threshold="0.0028332064"
       smooth_angles="0"
       helper_size="0"
       simplify_individual_paths="false"
       simplify_just_coalesce="false"
       step="1" />
    <inkscape:path-effect
       effect="powerstroke"
       id="path-effect138"
       is_visible="true"
       lpeversion="1"
       offset_points="2.6880907,0.075169555"
       not_jump="true"
       sort_points="true"
       interpolator_type="CentripetalCatmullRom"
       interpolator_beta="0.75"
       start_linecap_type="round"
       linejoin_type="spiro"
       miter_limit="4"
       scale_width="1"
       end_linecap_type="round" />
    <inkscape:path-effect
       effect="simplify"
       id="path-effect136"
       is_visible="true"
       lpeversion="1"
       steps="1"
       threshold="0.0028332064"
       smooth_angles="0"
       helper_size="0"
       simplify_individual_paths="false"
       simplify_just_coalesce="false"
       step="1" />
    <inkscape:path-effect
       effect="powerstroke"
       id="path-effect131"
       is_visible="true"
       lpeversion="1"
       offset_points="1.9940581,0.075169555"
       not_jump="true"
       sort_points="true"
       interpolator_type="CentripetalCatmullRom"
       interpolator_beta="0.75"
       start_linecap_type="round"
       linejoin_type="spiro"
       miter_limit="4"
       scale_width="1"
       end_linecap_type="round" />
    <inkscape:path-effect
       effect="simplify"
       id="path-effect129"
       is_visible="true"
       lpeversion="1"
       steps="1"
       threshold="0.0028332064"
       smooth_angles="0"
       helper_size="0"
       simplify_individual_paths="false"
       simplify_just_coalesce="false"
       step="1" />
  </defs>
  <sodipodi:namedview
     id="base"
     pagecolor="#ffffff"
     bordercolor="#666666"
     borderopacity="1.0"
     inkscape:pageopacity="0.0"
     inkscape:pageshadow="2"
     inkscape:zoom="7.919596"
     inkscape:cx="-5.3033008"
     inkscape:cy="20.834396"
     inkscape:document-units="mm"
     inkscape:current-layer="layer1"
     showgrid="false"
     fit-margin-top="0"
     fit-margin-left="0"
     fit-margin-right="0"
     fit-margin-bottom="0"
     inkscape:window-width="1920"
     inkscape:window-height="974"
     inkscape:window-x="-11"
     inkscape:window-y="2889"
     inkscape:window-maximized="1"
     showguides="true"
     inkscape:guide-bbox="true"
     inkscape:snap-bbox="true"
     inkscape:bbox-nodes="true"
     inkscape:snap-nodes="false"
     inkscape:snap-others="false"
     inkscape:snap-page="true"
     inkscape:snap-grids="false"
     inkscape:snap-to-guides="false"
     inkscape:snap-global="false"
     inkscape:pagecheckerboard="0"
     inkscape:showpageshadow="2"
     inkscape:deskcolor="#d1d1d1">
    <sodipodi:guide
       position="-6.1806076,9.4988693"
       orientation="0,1"
       id="guide816"
       inkscape:locked="false" />
    <sodipodi:guide
       position="-4.4101636,10.646923"
       orientation="0,1"
       id="guide818"
       inkscape:locked="false" />
    <sodipodi:guide
       position="2.7595724,11.09577"
       orientation="1,0"
       id="guide820"
       inkscape:locked="false" />
    <sodipodi:guide
       position="3.6572659,10.942217"
       orientation="1,0"
       id="guide822"
       inkscape:locked="false" />
    <sodipodi:guide
       position="-0.051625511,9.74923"
       orientation="1,0"
       id="guide1853"
       inkscape:locked="false" />
    <sodipodi:guide
       position="-2.3720169,3.0175835"
       orientation="0,1"
       id="guide1855"
       inkscape:locked="false" />
  </sodipodi:namedview>
  <metadata
     id="metadata1678">
    <rdf:RDF>
      <cc:Work
         rdf:about="">
        <dc:format>image/svg+xml</dc:format>
        <dc:type
           rdf:resource="http://purl.org/dc/dcmitype/StillImage" />
      </cc:Work>
    </rdf:RDF>
  </metadata>
  <g
     inkscape:label="Layer 1"
     inkscape:groupmode="layer"
     id="layer1"
     transform="translate(17.028496,-147.22856)">
    <path
       d="m -14.806195,148.61982 c -0.260833,-0.0382 -0.691245,-0.074 -1.195658,0.026 -0.359724,0.0714 -0.751346,0.2122 -1.112796,0.4646 -0.105434,0.0768 -0.211452,0.16144 -0.309876,0.25821 -0.10098,0.0993 -0.189923,0.20728 -0.261191,0.32687 -0.0208,0.0376 -0.03627,0.069 -0.05027,0.10066 -0.09779,0.22114 -0.129672,0.4663 -0.101686,0.69914 0.01617,0.13456 0.05259,0.26743 0.109915,0.39172 0.05681,0.12318 0.134649,0.23895 0.234602,0.33911 0.07715,0.0764 0.168202,0.13557 0.265561,0.18027 0.09102,0.0418 0.18822,0.0712 0.287616,0.0916 0.300557,0.0833 0.640939,0.0595 0.954476,-0.0707 0.194461,-0.0808 0.380952,-0.20393 0.535026,-0.36872 0.07045,-0.0754 0.136024,-0.1615 0.191986,-0.25858 0.105816,-0.16685 0.216131,-0.39008 0.270933,-0.65202 0.03135,-0.13177 0.05028,-0.26805 0.06598,-0.40768 0.01445,-0.12855 0.02585,-0.25739 0.04283,-0.38365 0.01814,-0.063 0.04258,-0.12518 0.07086,-0.1965 0.028,-0.0706 0.05982,-0.15041 0.08317,-0.23407 0.0066,-0.0236 0.01285,-0.0476 0.01223,-0.0721 -6.2e-4,-0.0245 -0.0085,-0.049 -0.02383,-0.068 -0.01535,-0.0191 -0.03762,-0.0319 -0.06138,-0.0378 -0.02375,-0.006 -0.04858,-0.005 -0.07301,-0.004 -0.03425,0.002 -0.06224,0.0133 -0.08206,0.0242 -0.01994,0.011 -0.03636,0.0242 -0.04907,0.0359 -0.02508,0.0231 -0.04645,0.0504 -0.0631,0.0738 -0.01735,0.0244 -0.03327,0.0499 -0.04661,0.0722 -0.01365,0.0228 -0.0254,0.0435 -0.03402,0.0583 -0.0041,0.007 -0.0074,0.0143 -0.01025,0.0219 -0.117742,0.31732 -0.171944,0.64379 -0.189251,0.96279 -0.01794,0.33071 0.0036,0.65929 0.03842,0.96493 0.04899,0.45321 0.126784,0.86564 0.171718,1.23001 0.02771,0.37437 0.03989,0.73267 0.06001,1.05643 0.02761,0.44422 0.06449,0.77268 0.121203,1.07754 a 0.14904926,0.14904926 90 0 0 0.29307,-0.0545 c -0.05384,-0.28944 -0.08992,-0.60471 -0.117652,-1.04165 -0.02024,-0.31887 -0.0329,-0.67719 -0.0626,-1.0672 -0.04809,-0.38259 -0.127036,-0.79573 -0.175572,-1.23317 -0.03445,-0.29722 -0.05491,-0.6082 -0.0387,-0.91688 0.01543,-0.29367 0.064,-0.58645 0.166295,-0.86737 0.0079,-0.014 0.01597,-0.0284 0.02516,-0.0441 0.01136,-0.0194 0.02274,-0.0377 0.0337,-0.0534 0.01166,-0.0167 0.01929,-0.0252 0.02308,-0.0289 0.0011,-0.001 9.8e-5,4.1e-4 -0.0066,0.004 -0.0067,0.004 -0.02012,0.0101 -0.04143,0.0112 -0.0244,0.001 -0.04921,0.002 -0.07293,-0.004 -0.02373,-0.006 -0.04595,-0.0188 -0.06127,-0.0378 -0.01532,-0.019 -0.02317,-0.0435 -0.02382,-0.0679 -6.52e-4,-0.0244 0.0055,-0.0485 0.01204,-0.072 -0.01837,0.0666 -0.04416,0.13238 -0.07303,0.20547 -0.02868,0.0726 -0.05985,0.15113 -0.08303,0.23417 -0.0017,0.006 -0.003,0.0125 -0.0039,0.0189 -0.01909,0.13864 -0.031,0.27273 -0.04565,0.39994 -0.01559,0.13543 -0.03347,0.25815 -0.06224,0.37649 -0.04794,0.2219 -0.143052,0.41118 -0.241961,0.5611 -0.048,0.0816 -0.100175,0.14923 -0.156728,0.20869 -0.123948,0.13032 -0.274977,0.2281 -0.433189,0.29151 -0.255826,0.10252 -0.525245,0.11443 -0.759862,0.045 -0.08674,-0.0231 -0.157307,-0.0506 -0.218396,-0.0842 -0.06504,-0.0358 -0.118046,-0.0779 -0.159875,-0.12601 -0.06782,-0.0717 -0.120034,-0.15346 -0.158146,-0.24183 -0.03852,-0.0893 -0.06278,-0.18576 -0.07254,-0.28425 -0.017,-0.17152 0.01004,-0.34816 0.08047,-0.50284 0.01002,-0.022 0.02098,-0.0437 0.03292,-0.065 0.04974,-0.0798 0.117873,-0.16217 0.200782,-0.24305 0.08123,-0.0792 0.171441,-0.15195 0.264345,-0.22015 0.306139,-0.21427 0.645536,-0.33844 0.963932,-0.4024 0.446702,-0.0897 0.835278,-0.0587 1.065703,-0.0249 a 0.19008621,0.19008621 90 0 0 0.05511,-0.37616 z"
       id="path-1"
       inkscape:path-effect="#path-effect151;#path-effect153"
       inkscape:original-d="m -14.833752,148.8079 c -0.941726,-0.14149 -2.023756,0.1225 -2.630844,0.89537 -0.386355,0.53406 -0.191877,1.46476 0.503158,1.62262 0.609978,0.201 1.305538,-0.0877 1.60415,-0.65236 0.26201,-0.39391 0.285051,-0.87025 0.33231,-1.32401 0.05571,-0.2276 0.32825,-0.75242 0.01324,-0.29156 -0.373369,0.98777 -0.119014,2.06746 0.0209,3.07874 0.05608,0.71931 0.05117,1.44643 0.183677,2.15873"
       style="fill:#000000;fill-rule:nonzero;stroke:none;stroke-width:1.31846" />
  </g>
</svg>
