<?xml version="1.0" encoding="UTF-8" standalone="no"?>
<!-- Created with Inkscape (http://www.inkscape.org/) -->

<svg
   width="3mm"
   height="10mm"
   viewBox="0 0 3.0000001 9.9999994"
   version="1.1"
   id="svg1681"
   inkscape:version="1.2.1 (9c6d41e410, 2022-07-14)"
   sodipodi:docname="number_nine_3.svg"
   inkscape:export-filename="..\..\..\..\Downloads\lower a diff canvas resize 3.0.png"
   inkscape:export-xdpi="96"
   inkscape:export-ydpi="96"
   xmlns:inkscape="http://www.inkscape.org/namespaces/inkscape"
   xmlns:sodipodi="http://sodipodi.sourceforge.net/DTD/sodipodi-0.dtd"
   xmlns="http://www.w3.org/2000/svg"
   xmlns:svg="http://www.w3.org/2000/svg"
   xmlns:rdf="http://www.w3.org/1999/02/22-rdf-syntax-ns#"
   xmlns:cc="http://creativecommons.org/ns#"
   xmlns:dc="http://purl.org/dc/elements/1.1/">
  <defs
     id="defs1675">
    <inkscape:path-effect
       effect="powerstroke"
       id="path-effect715"
       is_visible="true"
       lpeversion="1"
       offset_points="2.0065613,0.15278733 | 6.1879042,0.12884455 | 7.4947195,0.16901971"
       not_jump="true"
       sort_points="true"
       interpolator_type="CentripetalCatmullRom"
       interpolator_beta="0.75"
       start_linecap_type="round"
       linejoin_type="spiro"
       miter_limit="4"
       scale_width="1"
       end_linecap_type="round" />
    <inkscape:path-effect
       effect="simplify"
       id="path-effect713"
       is_visible="true"
       lpeversion="1"
       steps="1"
       threshold="0.0035951417"
       smooth_angles="0"
       helper_size="0"
       simplify_individual_paths="false"
       simplify_just_coalesce="false"
       step="1" />
    <inkscape:path-effect
       effect="powerstroke"
       id="path-effect502"
       is_visible="true"
       lpeversion="1"
       offset_points="3.0091841,0.21607495 | 7.3602657,0.17554228 | 9.4159651,0.20236537"
       not_jump="true"
       sort_points="true"
       interpolator_type="CentripetalCatmullRom"
       interpolator_beta="0.75"
       start_linecap_type="round"
       linejoin_type="spiro"
       miter_limit="4"
       scale_width="1"
       end_linecap_type="round" />
    <inkscape:path-effect
       effect="simplify"
       id="path-effect500"
       is_visible="true"
       lpeversion="1"
       steps="1"
       threshold="0.0035951417"
       smooth_angles="0"
       helper_size="0"
       simplify_individual_paths="false"
       simplify_just_coalesce="false"
       step="1" />
    <inkscape:path-effect
       effect="powerstroke"
       id="path-effect241"
       is_visible="true"
       lpeversion="1"
       offset_points="2.6879454,0.34086734"
       not_jump="true"
       sort_points="true"
       interpolator_type="CentripetalCatmullRom"
       interpolator_beta="0.75"
       start_linecap_type="round"
       linejoin_type="spiro"
       miter_limit="4"
       scale_width="1"
       end_linecap_type="round" />
    <inkscape:path-effect
       effect="simplify"
       id="path-effect239"
       is_visible="true"
       lpeversion="1"
       steps="1"
       threshold="0.0028332064"
       smooth_angles="0"
       helper_size="0"
       simplify_individual_paths="false"
       simplify_just_coalesce="false"
       step="1" />
    <inkscape:path-effect
       effect="powerstroke"
       id="path-effect234"
       is_visible="true"
       lpeversion="1"
       offset_points="2.13563,0.075169555"
       not_jump="true"
       sort_points="true"
       interpolator_type="CentripetalCatmullRom"
       interpolator_beta="0.75"
       start_linecap_type="round"
       linejoin_type="spiro"
       miter_limit="4"
       scale_width="1"
       end_linecap_type="round" />
    <inkscape:path-effect
       effect="simplify"
       id="path-effect232"
       is_visible="true"
       lpeversion="1"
       steps="1"
       threshold="0.0028332064"
       smooth_angles="0"
       helper_size="0"
       simplify_individual_paths="false"
       simplify_just_coalesce="false"
       step="1" />
    <inkscape:path-effect
       effect="powerstroke"
       id="path-effect227"
       is_visible="true"
       lpeversion="1"
       offset_points="2.1868266,0.075169555"
       not_jump="true"
       sort_points="true"
       interpolator_type="CentripetalCatmullRom"
       interpolator_beta="0.75"
       start_linecap_type="round"
       linejoin_type="spiro"
       miter_limit="4"
       scale_width="1"
       end_linecap_type="round" />
    <inkscape:path-effect
       effect="simplify"
       id="path-effect225"
       is_visible="true"
       lpeversion="1"
       steps="1"
       threshold="0.0028332064"
       smooth_angles="0"
       helper_size="0"
       simplify_individual_paths="false"
       simplify_just_coalesce="false"
       step="1" />
    <inkscape:path-effect
       effect="powerstroke"
       id="path-effect166"
       is_visible="true"
       lpeversion="1"
       offset_points="1.9637935,0.075169555"
       not_jump="true"
       sort_points="true"
       interpolator_type="CentripetalCatmullRom"
       interpolator_beta="0.75"
       start_linecap_type="round"
       linejoin_type="spiro"
       miter_limit="4"
       scale_width="1"
       end_linecap_type="round" />
    <inkscape:path-effect
       effect="simplify"
       id="path-effect164"
       is_visible="true"
       lpeversion="1"
       steps="1"
       threshold="0.0028332064"
       smooth_angles="0"
       helper_size="0"
       simplify_individual_paths="false"
       simplify_just_coalesce="false"
       step="1" />
    <inkscape:path-effect
       effect="powerstroke"
       id="path-effect159"
       is_visible="true"
       lpeversion="1"
       offset_points="2.2611036,0.075169555"
       not_jump="true"
       sort_points="true"
       interpolator_type="CentripetalCatmullRom"
       interpolator_beta="0.75"
       start_linecap_type="round"
       linejoin_type="spiro"
       miter_limit="4"
       scale_width="1"
       end_linecap_type="round" />
    <inkscape:path-effect
       effect="simplify"
       id="path-effect157"
       is_visible="true"
       lpeversion="1"
       steps="1"
       threshold="0.0028332064"
       smooth_angles="0"
       helper_size="0"
       simplify_individual_paths="false"
       simplify_just_coalesce="false"
       step="1" />
    <inkscape:path-effect
       effect="powerstroke"
       id="path-effect152"
       is_visible="true"
       lpeversion="1"
       offset_points="2.826981,0.075169555"
       not_jump="true"
       sort_points="true"
       interpolator_type="CentripetalCatmullRom"
       interpolator_beta="0.75"
       start_linecap_type="round"
       linejoin_type="spiro"
       miter_limit="4"
       scale_width="1"
       end_linecap_type="round" />
    <inkscape:path-effect
       effect="simplify"
       id="path-effect150"
       is_visible="true"
       lpeversion="1"
       steps="1"
       threshold="0.0028332064"
       smooth_angles="0"
       helper_size="0"
       simplify_individual_paths="false"
       simplify_just_coalesce="false"
       step="1" />
    <inkscape:path-effect
       effect="powerstroke"
       id="path-effect145"
       is_visible="true"
       lpeversion="1"
       offset_points="3.8374447,0.075169555"
       not_jump="true"
       sort_points="true"
       interpolator_type="CentripetalCatmullRom"
       interpolator_beta="0.75"
       start_linecap_type="round"
       linejoin_type="spiro"
       miter_limit="4"
       scale_width="1"
       end_linecap_type="round" />
    <inkscape:path-effect
       effect="simplify"
       id="path-effect143"
       is_visible="true"
       lpeversion="1"
       steps="1"
       threshold="0.0028332064"
       smooth_angles="0"
       helper_size="0"
       simplify_individual_paths="false"
       simplify_just_coalesce="false"
       step="1" />
    <inkscape:path-effect
       effect="powerstroke"
       id="path-effect138"
       is_visible="true"
       lpeversion="1"
       offset_points="2.6880907,0.075169555"
       not_jump="true"
       sort_points="true"
       interpolator_type="CentripetalCatmullRom"
       interpolator_beta="0.75"
       start_linecap_type="round"
       linejoin_type="spiro"
       miter_limit="4"
       scale_width="1"
       end_linecap_type="round" />
    <inkscape:path-effect
       effect="simplify"
       id="path-effect136"
       is_visible="true"
       lpeversion="1"
       steps="1"
       threshold="0.0028332064"
       smooth_angles="0"
       helper_size="0"
       simplify_individual_paths="false"
       simplify_just_coalesce="false"
       step="1" />
    <inkscape:path-effect
       effect="powerstroke"
       id="path-effect131"
       is_visible="true"
       lpeversion="1"
       offset_points="1.9940581,0.075169555"
       not_jump="true"
       sort_points="true"
       interpolator_type="CentripetalCatmullRom"
       interpolator_beta="0.75"
       start_linecap_type="round"
       linejoin_type="spiro"
       miter_limit="4"
       scale_width="1"
       end_linecap_type="round" />
    <inkscape:path-effect
       effect="simplify"
       id="path-effect129"
       is_visible="true"
       lpeversion="1"
       steps="1"
       threshold="0.0028332064"
       smooth_angles="0"
       helper_size="0"
       simplify_individual_paths="false"
       simplify_just_coalesce="false"
       step="1" />
  </defs>
  <sodipodi:namedview
     id="base"
     pagecolor="#ffffff"
     bordercolor="#666666"
     borderopacity="1.0"
     inkscape:pageopacity="0.0"
     inkscape:pageshadow="2"
     inkscape:zoom="7.919596"
     inkscape:cx="-5.3033008"
     inkscape:cy="20.834396"
     inkscape:document-units="mm"
     inkscape:current-layer="layer1"
     showgrid="false"
     fit-margin-top="0"
     fit-margin-left="0"
     fit-margin-right="0"
     fit-margin-bottom="0"
     inkscape:window-width="3440"
     inkscape:window-height="1369"
     inkscape:window-x="1072"
     inkscape:window-y="224"
     inkscape:window-maximized="1"
     showguides="true"
     inkscape:guide-bbox="true"
     inkscape:snap-bbox="true"
     inkscape:bbox-nodes="true"
     inkscape:snap-nodes="false"
     inkscape:snap-others="false"
     inkscape:snap-page="true"
     inkscape:snap-grids="false"
     inkscape:snap-to-guides="false"
     inkscape:snap-global="false"
     inkscape:pagecheckerboard="0"
     inkscape:showpageshadow="2"
     inkscape:deskcolor="#d1d1d1">
    <sodipodi:guide
       position="-6.1806076,9.4988693"
       orientation="0,1"
       id="guide816"
       inkscape:locked="false" />
    <sodipodi:guide
       position="-4.4101636,10.646923"
       orientation="0,1"
       id="guide818"
       inkscape:locked="false" />
    <sodipodi:guide
       position="2.7595724,11.09577"
       orientation="1,0"
       id="guide820"
       inkscape:locked="false" />
    <sodipodi:guide
       position="3.6572659,10.942217"
       orientation="1,0"
       id="guide822"
       inkscape:locked="false" />
    <sodipodi:guide
       position="-0.051625511,9.74923"
       orientation="1,0"
       id="guide1853"
       inkscape:locked="false" />
    <sodipodi:guide
       position="-2.3720169,3.0175835"
       orientation="0,1"
       id="guide1855"
       inkscape:locked="false" />
  </sodipodi:namedview>
  <metadata
     id="metadata1678">
    <rdf:RDF>
      <cc:Work
         rdf:about="">
        <dc:format>image/svg+xml</dc:format>
        <dc:type
           rdf:resource="http://purl.org/dc/dcmitype/StillImage" />
      </cc:Work>
    </rdf:RDF>
  </metadata>
  <g
     inkscape:label="Layer 1"
     inkscape:groupmode="layer"
     id="layer1"
     transform="translate(17.028496,-147.22856)">
    <path
       d="m -14.956936,148.02774 c -0.177054,-0.002 -0.430018,0.0318 -0.710916,0.18502 -0.19524,0.10653 -0.388778,0.26379 -0.549933,0.47002 -0.214761,0.26432 -0.349183,0.5845 -0.43415,0.9156 -5.72e-4,0.002 -0.0017,0.006 -0.0028,0.0103 -0.144134,0.53459 -0.205257,1.23271 0.02066,1.93081 0.0024,0.007 0.0052,0.0145 0.0087,0.0213 0.05775,0.11149 0.147765,0.20797 0.258804,0.27391 0.05416,0.0322 0.113463,0.0571 0.176263,0.0726 0.06245,0.0154 0.128108,0.0213 0.194914,0.0157 0.179982,-0.0124 0.347682,-0.0772 0.490781,-0.16985 0.147524,-0.0955 0.270258,-0.22088 0.363046,-0.35409 0.204356,-0.2515 0.336483,-0.5419 0.420303,-0.82313 0.0951,-0.31908 0.131492,-0.63828 0.142953,-0.90885 0.0029,-0.0622 0.0047,-0.12161 0.0057,-0.17739 0.0053,-0.28747 -0.0061,-0.57799 -0.01938,-0.76493 -5.09e-4,-0.007 -0.0016,-0.0143 -0.0037,-0.0212 -0.0022,-0.007 -0.0048,-0.0136 -0.0071,-0.0204 -0.0075,-0.0224 -0.01762,-0.0436 -0.02907,-0.063 -0.01093,-0.0185 -0.02395,-0.0367 -0.03886,-0.054 -0.02426,-0.0281 -0.06128,-0.0625 -0.110151,-0.0853 -0.02576,-0.0117 -0.05708,-0.0222 -0.09435,-0.024 -0.01789,-8.6e-4 -0.03784,2.8e-4 -0.05893,0.005 -0.02052,0.005 -0.04141,0.0122 -0.0616,0.0238 -0.01961,0.0113 -0.03712,0.0254 -0.05225,0.0418 -0.01464,0.0158 -0.02635,0.033 -0.03562,0.0505 -0.01767,0.0334 -0.02687,0.0686 -0.03139,0.10188 -0.02654,0.15699 -0.02335,0.3166 -0.01543,0.47417 0.008,0.15863 0.01857,0.29044 0.0117,0.42617 -2.4e-4,0.005 -3.28e-4,0.009 -1.93e-4,0.0142 0.02423,0.85453 0.02825,1.48394 0.07492,2.22923 0.06316,1.00871 0.18197,1.69265 0.312704,2.22901 a 0.16901971,0.16901971 90 0 0 0.328424,-0.0801 c -0.125504,-0.51489 -0.240357,-1.18017 -0.300448,-2.16996 -0.0447,-0.73636 -0.0473,-1.35098 -0.07031,-2.21044 0.0085,-0.1564 -0.0028,-0.31184 -0.0097,-0.45525 -0.0074,-0.15364 -0.0089,-0.28192 0.01102,-0.40639 0.0012,-0.009 0.0012,-0.004 -0.0052,0.007 -0.0033,0.006 -0.0084,0.0138 -0.01593,0.0219 -0.0078,0.008 -0.01744,0.0162 -0.0288,0.0226 -0.01169,0.007 -0.02367,0.011 -0.03507,0.0134 -0.01164,0.002 -0.02188,0.003 -0.02999,0.002 -0.01671,-0.001 -0.02617,-0.006 -0.02885,-0.007 -0.0074,-0.005 0.0028,-0.002 0.01028,0.003 0.0042,0.003 0.0084,0.005 0.01147,0.007 0.0033,0.002 0.0055,0.003 0.0064,9.1e-4 7.29e-4,-0.002 0.0014,-0.003 0.0019,-0.005 4.5e-4,-0.002 6.35e-4,-0.004 4.87e-4,-0.006 -2.95e-4,-0.004 -0.002,-0.007 -0.004,-0.0104 -0.002,-0.003 -0.0044,-0.006 -0.0061,-0.01 -0.0017,-0.003 -0.0025,-0.007 -0.0031,-0.0108 0.03117,0.19333 0.06607,0.4388 0.06862,0.72834 4.69e-4,0.0531 -7.7e-5,0.10953 -0.002,0.1687 -0.009,0.25719 -0.04289,0.55395 -0.130744,0.84653 -0.07733,0.25753 -0.197396,0.51512 -0.382649,0.74045 -0.0827,0.115 -0.183369,0.21382 -0.300429,0.2866 -0.112787,0.0701 -0.238207,0.11413 -0.367308,0.12033 -0.0374,0.002 -0.07287,-0.002 -0.107136,-0.0122 -0.03457,-0.01 -0.06788,-0.0251 -0.09877,-0.0449 -0.06032,-0.0387 -0.10868,-0.093 -0.139829,-0.15314 -0.193808,-0.62823 -0.134811,-1.26036 -6.33e-4,-1.75206 0.001,-0.004 0.0021,-0.008 0.0031,-0.0114 0.08044,-0.30587 0.19941,-0.5809 0.379447,-0.80298 0.136412,-0.17477 0.297192,-0.30523 0.456457,-0.3925 0.227052,-0.12442 0.426671,-0.1497 0.561065,-0.14848 a 0.15278733,0.15278733 90 0 0 0.0028,-0.30556 z"
       id="path-1"
       inkscape:path-effect="#path-effect713;#path-effect715"
       inkscape:original-d="m -14.958327,148.18052 c -0.712407,-0.001 -1.302242,0.59466 -1.505422,1.32124 -0.203038,0.63416 -0.236084,1.35652 -0.0313,1.99345 0.291703,0.53353 0.958098,0.24802 1.235221,-0.15375 0.578155,-0.69397 0.616276,-1.71498 0.514357,-2.59906 -0.336912,-0.48545 -0.171949,0.60984 -0.201406,0.82986 0.04081,1.48198 0.02712,2.99842 0.379764,4.44034"
       style="fill:#000000;fill-rule:nonzero;stroke:none;stroke-width:1.38205" />
  </g>
</svg>
