<?xml version="1.0" encoding="UTF-8" standalone="no"?>
<!-- Created with Inkscape (http://www.inkscape.org/) -->

<svg
   width="3mm"
   height="10mm"
   viewBox="0 0 3.0000001 9.9999994"
   version="1.1"
   id="svg1681"
   inkscape:version="1.2.1 (9c6d41e410, 2022-07-14)"
   sodipodi:docname="number_nine_8.svg"
   inkscape:export-filename="..\..\..\..\Downloads\lower a diff canvas resize 3.0.png"
   inkscape:export-xdpi="96"
   inkscape:export-ydpi="96"
   xmlns:inkscape="http://www.inkscape.org/namespaces/inkscape"
   xmlns:sodipodi="http://sodipodi.sourceforge.net/DTD/sodipodi-0.dtd"
   xmlns="http://www.w3.org/2000/svg"
   xmlns:svg="http://www.w3.org/2000/svg"
   xmlns:rdf="http://www.w3.org/1999/02/22-rdf-syntax-ns#"
   xmlns:cc="http://creativecommons.org/ns#"
   xmlns:dc="http://purl.org/dc/elements/1.1/">
  <defs
     id="defs1675">
    <inkscape:path-effect
       effect="powerstroke"
       id="path-effect153"
       is_visible="true"
       lpeversion="1"
       offset_points="1.3973076,0.12962611 | 3.4900806,0.14715252"
       not_jump="true"
       sort_points="true"
       interpolator_type="CentripetalCatmullRom"
       interpolator_beta="0.75"
       start_linecap_type="round"
       linejoin_type="spiro"
       miter_limit="4"
       scale_width="1"
       end_linecap_type="round" />
    <inkscape:path-effect
       effect="simplify"
       id="path-effect151"
       is_visible="true"
       lpeversion="1"
       steps="1"
       threshold="0.0035951417"
       smooth_angles="0"
       helper_size="0"
       simplify_individual_paths="false"
       simplify_just_coalesce="false"
       step="1" />
    <inkscape:path-effect
       effect="powerstroke"
       id="path-effect715"
       is_visible="true"
       lpeversion="1"
       offset_points="2.0065613,0.15278733 | 6.1879042,0.12884455 | 7.4947195,0.16901971"
       not_jump="true"
       sort_points="true"
       interpolator_type="CentripetalCatmullRom"
       interpolator_beta="0.75"
       start_linecap_type="round"
       linejoin_type="spiro"
       miter_limit="4"
       scale_width="1"
       end_linecap_type="round" />
    <inkscape:path-effect
       effect="simplify"
       id="path-effect713"
       is_visible="true"
       lpeversion="1"
       steps="1"
       threshold="0.0035951417"
       smooth_angles="0"
       helper_size="0"
       simplify_individual_paths="false"
       simplify_just_coalesce="false"
       step="1" />
    <inkscape:path-effect
       effect="powerstroke"
       id="path-effect502"
       is_visible="true"
       lpeversion="1"
       offset_points="3.0091841,0.21607495 | 7.3602657,0.17554228 | 9.4159651,0.20236537"
       not_jump="true"
       sort_points="true"
       interpolator_type="CentripetalCatmullRom"
       interpolator_beta="0.75"
       start_linecap_type="round"
       linejoin_type="spiro"
       miter_limit="4"
       scale_width="1"
       end_linecap_type="round" />
    <inkscape:path-effect
       effect="simplify"
       id="path-effect500"
       is_visible="true"
       lpeversion="1"
       steps="1"
       threshold="0.0035951417"
       smooth_angles="0"
       helper_size="0"
       simplify_individual_paths="false"
       simplify_just_coalesce="false"
       step="1" />
    <inkscape:path-effect
       effect="powerstroke"
       id="path-effect241"
       is_visible="true"
       lpeversion="1"
       offset_points="2.6879454,0.34086734"
       not_jump="true"
       sort_points="true"
       interpolator_type="CentripetalCatmullRom"
       interpolator_beta="0.75"
       start_linecap_type="round"
       linejoin_type="spiro"
       miter_limit="4"
       scale_width="1"
       end_linecap_type="round" />
    <inkscape:path-effect
       effect="simplify"
       id="path-effect239"
       is_visible="true"
       lpeversion="1"
       steps="1"
       threshold="0.0028332064"
       smooth_angles="0"
       helper_size="0"
       simplify_individual_paths="false"
       simplify_just_coalesce="false"
       step="1" />
    <inkscape:path-effect
       effect="powerstroke"
       id="path-effect234"
       is_visible="true"
       lpeversion="1"
       offset_points="2.13563,0.075169555"
       not_jump="true"
       sort_points="true"
       interpolator_type="CentripetalCatmullRom"
       interpolator_beta="0.75"
       start_linecap_type="round"
       linejoin_type="spiro"
       miter_limit="4"
       scale_width="1"
       end_linecap_type="round" />
    <inkscape:path-effect
       effect="simplify"
       id="path-effect232"
       is_visible="true"
       lpeversion="1"
       steps="1"
       threshold="0.0028332064"
       smooth_angles="0"
       helper_size="0"
       simplify_individual_paths="false"
       simplify_just_coalesce="false"
       step="1" />
    <inkscape:path-effect
       effect="powerstroke"
       id="path-effect227"
       is_visible="true"
       lpeversion="1"
       offset_points="2.1868266,0.075169555"
       not_jump="true"
       sort_points="true"
       interpolator_type="CentripetalCatmullRom"
       interpolator_beta="0.75"
       start_linecap_type="round"
       linejoin_type="spiro"
       miter_limit="4"
       scale_width="1"
       end_linecap_type="round" />
    <inkscape:path-effect
       effect="simplify"
       id="path-effect225"
       is_visible="true"
       lpeversion="1"
       steps="1"
       threshold="0.0028332064"
       smooth_angles="0"
       helper_size="0"
       simplify_individual_paths="false"
       simplify_just_coalesce="false"
       step="1" />
    <inkscape:path-effect
       effect="powerstroke"
       id="path-effect166"
       is_visible="true"
       lpeversion="1"
       offset_points="1.9637935,0.075169555"
       not_jump="true"
       sort_points="true"
       interpolator_type="CentripetalCatmullRom"
       interpolator_beta="0.75"
       start_linecap_type="round"
       linejoin_type="spiro"
       miter_limit="4"
       scale_width="1"
       end_linecap_type="round" />
    <inkscape:path-effect
       effect="simplify"
       id="path-effect164"
       is_visible="true"
       lpeversion="1"
       steps="1"
       threshold="0.0028332064"
       smooth_angles="0"
       helper_size="0"
       simplify_individual_paths="false"
       simplify_just_coalesce="false"
       step="1" />
    <inkscape:path-effect
       effect="powerstroke"
       id="path-effect159"
       is_visible="true"
       lpeversion="1"
       offset_points="2.2611036,0.075169555"
       not_jump="true"
       sort_points="true"
       interpolator_type="CentripetalCatmullRom"
       interpolator_beta="0.75"
       start_linecap_type="round"
       linejoin_type="spiro"
       miter_limit="4"
       scale_width="1"
       end_linecap_type="round" />
    <inkscape:path-effect
       effect="simplify"
       id="path-effect157"
       is_visible="true"
       lpeversion="1"
       steps="1"
       threshold="0.0028332064"
       smooth_angles="0"
       helper_size="0"
       simplify_individual_paths="false"
       simplify_just_coalesce="false"
       step="1" />
    <inkscape:path-effect
       effect="powerstroke"
       id="path-effect152"
       is_visible="true"
       lpeversion="1"
       offset_points="2.826981,0.075169555"
       not_jump="true"
       sort_points="true"
       interpolator_type="CentripetalCatmullRom"
       interpolator_beta="0.75"
       start_linecap_type="round"
       linejoin_type="spiro"
       miter_limit="4"
       scale_width="1"
       end_linecap_type="round" />
    <inkscape:path-effect
       effect="simplify"
       id="path-effect150"
       is_visible="true"
       lpeversion="1"
       steps="1"
       threshold="0.0028332064"
       smooth_angles="0"
       helper_size="0"
       simplify_individual_paths="false"
       simplify_just_coalesce="false"
       step="1" />
    <inkscape:path-effect
       effect="powerstroke"
       id="path-effect145"
       is_visible="true"
       lpeversion="1"
       offset_points="3.8374447,0.075169555"
       not_jump="true"
       sort_points="true"
       interpolator_type="CentripetalCatmullRom"
       interpolator_beta="0.75"
       start_linecap_type="round"
       linejoin_type="spiro"
       miter_limit="4"
       scale_width="1"
       end_linecap_type="round" />
    <inkscape:path-effect
       effect="simplify"
       id="path-effect143"
       is_visible="true"
       lpeversion="1"
       steps="1"
       threshold="0.0028332064"
       smooth_angles="0"
       helper_size="0"
       simplify_individual_paths="false"
       simplify_just_coalesce="false"
       step="1" />
    <inkscape:path-effect
       effect="powerstroke"
       id="path-effect138"
       is_visible="true"
       lpeversion="1"
       offset_points="2.6880907,0.075169555"
       not_jump="true"
       sort_points="true"
       interpolator_type="CentripetalCatmullRom"
       interpolator_beta="0.75"
       start_linecap_type="round"
       linejoin_type="spiro"
       miter_limit="4"
       scale_width="1"
       end_linecap_type="round" />
    <inkscape:path-effect
       effect="simplify"
       id="path-effect136"
       is_visible="true"
       lpeversion="1"
       steps="1"
       threshold="0.0028332064"
       smooth_angles="0"
       helper_size="0"
       simplify_individual_paths="false"
       simplify_just_coalesce="false"
       step="1" />
    <inkscape:path-effect
       effect="powerstroke"
       id="path-effect131"
       is_visible="true"
       lpeversion="1"
       offset_points="1.9940581,0.075169555"
       not_jump="true"
       sort_points="true"
       interpolator_type="CentripetalCatmullRom"
       interpolator_beta="0.75"
       start_linecap_type="round"
       linejoin_type="spiro"
       miter_limit="4"
       scale_width="1"
       end_linecap_type="round" />
    <inkscape:path-effect
       effect="simplify"
       id="path-effect129"
       is_visible="true"
       lpeversion="1"
       steps="1"
       threshold="0.0028332064"
       smooth_angles="0"
       helper_size="0"
       simplify_individual_paths="false"
       simplify_just_coalesce="false"
       step="1" />
  </defs>
  <sodipodi:namedview
     id="base"
     pagecolor="#ffffff"
     bordercolor="#666666"
     borderopacity="1.0"
     inkscape:pageopacity="0.0"
     inkscape:pageshadow="2"
     inkscape:zoom="7.919596"
     inkscape:cx="-5.3033008"
     inkscape:cy="20.834396"
     inkscape:document-units="mm"
     inkscape:current-layer="layer1"
     showgrid="false"
     fit-margin-top="0"
     fit-margin-left="0"
     fit-margin-right="0"
     fit-margin-bottom="0"
     inkscape:window-width="1920"
     inkscape:window-height="974"
     inkscape:window-x="-11"
     inkscape:window-y="2869"
     inkscape:window-maximized="1"
     showguides="true"
     inkscape:guide-bbox="true"
     inkscape:snap-bbox="true"
     inkscape:bbox-nodes="true"
     inkscape:snap-nodes="false"
     inkscape:snap-others="false"
     inkscape:snap-page="true"
     inkscape:snap-grids="false"
     inkscape:snap-to-guides="false"
     inkscape:snap-global="false"
     inkscape:pagecheckerboard="0"
     inkscape:showpageshadow="2"
     inkscape:deskcolor="#d1d1d1">
    <sodipodi:guide
       position="-6.1806076,9.4988693"
       orientation="0,1"
       id="guide816"
       inkscape:locked="false" />
    <sodipodi:guide
       position="-4.4101636,10.646923"
       orientation="0,1"
       id="guide818"
       inkscape:locked="false" />
    <sodipodi:guide
       position="2.7595724,11.09577"
       orientation="1,0"
       id="guide820"
       inkscape:locked="false" />
    <sodipodi:guide
       position="3.6572659,10.942217"
       orientation="1,0"
       id="guide822"
       inkscape:locked="false" />
    <sodipodi:guide
       position="-0.051625511,9.74923"
       orientation="1,0"
       id="guide1853"
       inkscape:locked="false" />
    <sodipodi:guide
       position="-2.3720169,3.0175835"
       orientation="0,1"
       id="guide1855"
       inkscape:locked="false" />
  </sodipodi:namedview>
  <metadata
     id="metadata1678">
    <rdf:RDF>
      <cc:Work
         rdf:about="">
        <dc:format>image/svg+xml</dc:format>
        <dc:type
           rdf:resource="http://purl.org/dc/dcmitype/StillImage" />
      </cc:Work>
    </rdf:RDF>
  </metadata>
  <g
     inkscape:label="Layer 1"
     inkscape:groupmode="layer"
     id="layer1"
     transform="translate(17.028496,-147.22856)">
    <path
       d="m -14.57632,149.26027 c 0.0031,-0.0562 -0.0016,-0.13352 -0.03439,-0.22053 -0.02336,-0.0621 -0.05949,-0.12489 -0.110382,-0.18342 -0.04456,-0.0513 -0.09918,-0.0977 -0.162258,-0.13522 -0.05984,-0.0356 -0.126557,-0.0627 -0.197248,-0.0777 -0.07192,-0.0192 -0.148958,-0.0235 -0.220865,-0.0172 -0.01942,0.002 -0.03854,0.004 -0.0573,0.007 -0.08943,0.015 -0.175274,0.046 -0.25287,0.0883 -0.227331,0.10677 -0.430805,0.26349 -0.614032,0.46231 -0.160709,0.17439 -0.304818,0.37986 -0.438692,0.61422 -0.07156,0.1234 -0.148872,0.26686 -0.219559,0.42311 -0.05982,0.13223 -0.123591,0.29257 -0.174134,0.47243 -0.05518,0.18849 -0.10234,0.41521 -0.106383,0.6529 -0.0036,0.21343 0.02731,0.44625 0.127921,0.67177 0.02884,0.0661 0.07055,0.12523 0.121428,0.17531 0.0491,0.0483 0.106175,0.0877 0.167845,0.11778 0.117657,0.0574 0.255693,0.0828 0.390263,0.0686 0.228722,-0.0223 0.442627,-0.10833 0.631704,-0.23518 0.183315,-0.12299 0.342946,-0.28408 0.470925,-0.46132 0.181587,-0.25319 0.302712,-0.53554 0.384223,-0.82867 0.08061,-0.28991 0.122395,-0.59003 0.145712,-0.88169 0.0029,-0.0758 0.01231,-0.15483 0.01566,-0.24139 0.0017,-0.0433 0.0017,-0.089 -0.0023,-0.13597 -0.0041,-0.0474 -0.01226,-0.0964 -0.02721,-0.14595 -0.0099,-0.0328 -0.02076,-0.0661 -0.04193,-0.0931 -0.01058,-0.0134 -0.02354,-0.0251 -0.03839,-0.0336 -0.01485,-0.009 -0.03156,-0.0138 -0.04862,-0.0152 -0.01706,-0.001 -0.0344,0.001 -0.05042,0.007 -0.01602,0.006 -0.03066,0.0155 -0.04324,0.0271 -0.02516,0.0232 -0.04114,0.0545 -0.05602,0.0853 -0.01751,0.0363 -0.02634,0.0731 -0.03126,0.10489 -0.005,0.0323 -0.0066,0.0642 -0.0072,0.092 -5.92e-4,0.0273 -2.23e-4,0.0569 -1.92e-4,0.079 3.5e-5,0.0247 -2.91e-4,0.0438 -0.0016,0.0601 -2.68e-4,0.003 -4.49e-4,0.007 -4.93e-4,0.0103 -0.0058,0.45224 0.0641,0.90516 0.126968,1.29403 0.135518,0.79702 0.308998,1.51681 0.40921,2.16119 0.06656,0.34684 0.117426,0.5952 0.160989,0.7996 a 0.14715252,0.14715252 90 0 0 0.28784,-0.0613 c -0.04288,-0.20121 -0.09338,-0.44961 -0.157892,-0.78864 -0.10118,-0.65409 -0.275031,-1.37828 -0.407223,-2.15924 -0.06221,-0.38804 -0.126876,-0.81525 -0.121475,-1.23658 0.0021,-0.0273 0.0025,-0.0548 0.0025,-0.0791 9.8e-5,-0.0272 -1.29e-4,-0.0495 4.75e-4,-0.0722 5.83e-4,-0.0219 0.0019,-0.0391 0.0041,-0.0528 0.0021,-0.0129 0.005,-0.0201 0.0052,-0.0204 l -0.278621,-0.0223 c 0.0078,0.0263 0.01275,0.0544 0.0153,0.085 0.0025,0.0307 0.0027,0.0632 0.0012,0.0987 -0.0029,0.0703 -0.01257,0.14937 -0.01583,0.23575 -0.0222,0.27401 -0.06188,0.55353 -0.135664,0.81846 -0.07444,0.26731 -0.182419,0.51545 -0.338674,0.73322 -0.109466,0.1515 -0.244098,0.28624 -0.394193,0.38694 -0.15429,0.10352 -0.321233,0.16876 -0.494023,0.18566 -0.07896,0.008 -0.16031,-0.007 -0.227773,-0.0394 -0.03469,-0.0169 -0.06457,-0.0378 -0.08885,-0.0616 -0.02496,-0.0245 -0.04419,-0.052 -0.05749,-0.0822 -0.07915,-0.17673 -0.106111,-0.36374 -0.103459,-0.54541 0.003,-0.20281 0.04293,-0.40213 0.09315,-0.57624 0.04513,-0.16373 0.102125,-0.31032 0.156623,-0.43369 0.06428,-0.14552 0.135199,-0.28148 0.201946,-0.40092 0.123898,-0.22224 0.25355,-0.41109 0.394496,-0.56852 0.160927,-0.17975 0.335042,-0.31662 0.525368,-0.40896 0.0034,-0.002 0.0067,-0.003 0.0099,-0.005 0.05295,-0.0329 0.11109,-0.0567 0.170339,-0.0682 0.01198,-0.002 0.02407,-0.004 0.03623,-0.005 0.04506,-0.005 0.09137,-0.002 0.136869,0.01 0.04758,0.0102 0.08797,0.0264 0.125022,0.0485 0.03904,0.0233 0.07243,0.052 0.09912,0.083 0.03036,0.0352 0.05054,0.0715 0.06302,0.10519 0.01731,0.0467 0.01934,0.087 0.01776,0.11548 a 0.12962611,0.12962611 90 0 0 0.258852,0.0144 z"
       id="path-1"
       inkscape:path-effect="#path-effect151;#path-effect153"
       inkscape:original-d="m -14.705746,149.25307 c 0.01125,-0.40209 -0.474345,-0.62022 -0.802854,-0.43082 -0.611043,0.26947 -0.972386,0.89081 -1.247461,1.46902 -0.223253,0.5286 -0.389173,1.17778 -0.119169,1.7167 0.271919,0.38332 0.799206,0.20603 1.112886,-0.0204 0.723218,-0.53727 0.87577,-1.50504 0.905732,-2.34675 -0.05291,-0.48008 -0.06297,0.3185 -0.04169,0.49916 0.07677,1.02321 0.359822,2.01577 0.515289,3.02765 0.05286,0.27737 0.107588,0.5544 0.166445,0.83057"
       style="fill:#000000;fill-rule:nonzero;stroke:none;stroke-width:1.18195" />
  </g>
</svg>
