<?xml version="1.0" encoding="UTF-8" standalone="no"?>
<!-- Created with Inkscape (http://www.inkscape.org/) -->

<svg
   width="3mm"
   height="10mm"
   viewBox="0 0 3.0000001 9.9999994"
   version="1.1"
   id="svg1681"
   inkscape:version="1.2.1 (9c6d41e410, 2022-07-14)"
   sodipodi:docname="number_nine_4.svg"
   inkscape:export-filename="..\..\..\..\Downloads\lower a diff canvas resize 3.0.png"
   inkscape:export-xdpi="96"
   inkscape:export-ydpi="96"
   xmlns:inkscape="http://www.inkscape.org/namespaces/inkscape"
   xmlns:sodipodi="http://sodipodi.sourceforge.net/DTD/sodipodi-0.dtd"
   xmlns="http://www.w3.org/2000/svg"
   xmlns:svg="http://www.w3.org/2000/svg"
   xmlns:rdf="http://www.w3.org/1999/02/22-rdf-syntax-ns#"
   xmlns:cc="http://creativecommons.org/ns#"
   xmlns:dc="http://purl.org/dc/elements/1.1/">
  <defs
     id="defs1675">
    <inkscape:path-effect
       effect="powerstroke"
       id="path-effect756"
       is_visible="true"
       lpeversion="1"
       offset_points="3.2309902,0.12563313 | 8.2691135,0.14514896 | 13.320889,0.12685288"
       not_jump="true"
       sort_points="true"
       interpolator_type="CentripetalCatmullRom"
       interpolator_beta="0.75"
       start_linecap_type="round"
       linejoin_type="spiro"
       miter_limit="4"
       scale_width="1"
       end_linecap_type="round" />
    <inkscape:path-effect
       effect="simplify"
       id="path-effect754"
       is_visible="true"
       lpeversion="1"
       steps="1"
       threshold="0.0035951417"
       smooth_angles="0"
       helper_size="0"
       simplify_individual_paths="false"
       simplify_just_coalesce="false"
       step="1" />
    <inkscape:path-effect
       effect="powerstroke"
       id="path-effect502"
       is_visible="true"
       lpeversion="1"
       offset_points="3.0091841,0.21607495 | 7.3602657,0.17554228 | 9.4159651,0.20236537"
       not_jump="true"
       sort_points="true"
       interpolator_type="CentripetalCatmullRom"
       interpolator_beta="0.75"
       start_linecap_type="round"
       linejoin_type="spiro"
       miter_limit="4"
       scale_width="1"
       end_linecap_type="round" />
    <inkscape:path-effect
       effect="simplify"
       id="path-effect500"
       is_visible="true"
       lpeversion="1"
       steps="1"
       threshold="0.0035951417"
       smooth_angles="0"
       helper_size="0"
       simplify_individual_paths="false"
       simplify_just_coalesce="false"
       step="1" />
    <inkscape:path-effect
       effect="powerstroke"
       id="path-effect241"
       is_visible="true"
       lpeversion="1"
       offset_points="2.6879454,0.34086734"
       not_jump="true"
       sort_points="true"
       interpolator_type="CentripetalCatmullRom"
       interpolator_beta="0.75"
       start_linecap_type="round"
       linejoin_type="spiro"
       miter_limit="4"
       scale_width="1"
       end_linecap_type="round" />
    <inkscape:path-effect
       effect="simplify"
       id="path-effect239"
       is_visible="true"
       lpeversion="1"
       steps="1"
       threshold="0.0028332064"
       smooth_angles="0"
       helper_size="0"
       simplify_individual_paths="false"
       simplify_just_coalesce="false"
       step="1" />
    <inkscape:path-effect
       effect="powerstroke"
       id="path-effect234"
       is_visible="true"
       lpeversion="1"
       offset_points="2.13563,0.075169555"
       not_jump="true"
       sort_points="true"
       interpolator_type="CentripetalCatmullRom"
       interpolator_beta="0.75"
       start_linecap_type="round"
       linejoin_type="spiro"
       miter_limit="4"
       scale_width="1"
       end_linecap_type="round" />
    <inkscape:path-effect
       effect="simplify"
       id="path-effect232"
       is_visible="true"
       lpeversion="1"
       steps="1"
       threshold="0.0028332064"
       smooth_angles="0"
       helper_size="0"
       simplify_individual_paths="false"
       simplify_just_coalesce="false"
       step="1" />
    <inkscape:path-effect
       effect="powerstroke"
       id="path-effect227"
       is_visible="true"
       lpeversion="1"
       offset_points="2.1868266,0.075169555"
       not_jump="true"
       sort_points="true"
       interpolator_type="CentripetalCatmullRom"
       interpolator_beta="0.75"
       start_linecap_type="round"
       linejoin_type="spiro"
       miter_limit="4"
       scale_width="1"
       end_linecap_type="round" />
    <inkscape:path-effect
       effect="simplify"
       id="path-effect225"
       is_visible="true"
       lpeversion="1"
       steps="1"
       threshold="0.0028332064"
       smooth_angles="0"
       helper_size="0"
       simplify_individual_paths="false"
       simplify_just_coalesce="false"
       step="1" />
    <inkscape:path-effect
       effect="powerstroke"
       id="path-effect166"
       is_visible="true"
       lpeversion="1"
       offset_points="1.9637935,0.075169555"
       not_jump="true"
       sort_points="true"
       interpolator_type="CentripetalCatmullRom"
       interpolator_beta="0.75"
       start_linecap_type="round"
       linejoin_type="spiro"
       miter_limit="4"
       scale_width="1"
       end_linecap_type="round" />
    <inkscape:path-effect
       effect="simplify"
       id="path-effect164"
       is_visible="true"
       lpeversion="1"
       steps="1"
       threshold="0.0028332064"
       smooth_angles="0"
       helper_size="0"
       simplify_individual_paths="false"
       simplify_just_coalesce="false"
       step="1" />
    <inkscape:path-effect
       effect="powerstroke"
       id="path-effect159"
       is_visible="true"
       lpeversion="1"
       offset_points="2.2611036,0.075169555"
       not_jump="true"
       sort_points="true"
       interpolator_type="CentripetalCatmullRom"
       interpolator_beta="0.75"
       start_linecap_type="round"
       linejoin_type="spiro"
       miter_limit="4"
       scale_width="1"
       end_linecap_type="round" />
    <inkscape:path-effect
       effect="simplify"
       id="path-effect157"
       is_visible="true"
       lpeversion="1"
       steps="1"
       threshold="0.0028332064"
       smooth_angles="0"
       helper_size="0"
       simplify_individual_paths="false"
       simplify_just_coalesce="false"
       step="1" />
    <inkscape:path-effect
       effect="powerstroke"
       id="path-effect152"
       is_visible="true"
       lpeversion="1"
       offset_points="2.826981,0.075169555"
       not_jump="true"
       sort_points="true"
       interpolator_type="CentripetalCatmullRom"
       interpolator_beta="0.75"
       start_linecap_type="round"
       linejoin_type="spiro"
       miter_limit="4"
       scale_width="1"
       end_linecap_type="round" />
    <inkscape:path-effect
       effect="simplify"
       id="path-effect150"
       is_visible="true"
       lpeversion="1"
       steps="1"
       threshold="0.0028332064"
       smooth_angles="0"
       helper_size="0"
       simplify_individual_paths="false"
       simplify_just_coalesce="false"
       step="1" />
    <inkscape:path-effect
       effect="powerstroke"
       id="path-effect145"
       is_visible="true"
       lpeversion="1"
       offset_points="3.8374447,0.075169555"
       not_jump="true"
       sort_points="true"
       interpolator_type="CentripetalCatmullRom"
       interpolator_beta="0.75"
       start_linecap_type="round"
       linejoin_type="spiro"
       miter_limit="4"
       scale_width="1"
       end_linecap_type="round" />
    <inkscape:path-effect
       effect="simplify"
       id="path-effect143"
       is_visible="true"
       lpeversion="1"
       steps="1"
       threshold="0.0028332064"
       smooth_angles="0"
       helper_size="0"
       simplify_individual_paths="false"
       simplify_just_coalesce="false"
       step="1" />
    <inkscape:path-effect
       effect="powerstroke"
       id="path-effect138"
       is_visible="true"
       lpeversion="1"
       offset_points="2.6880907,0.075169555"
       not_jump="true"
       sort_points="true"
       interpolator_type="CentripetalCatmullRom"
       interpolator_beta="0.75"
       start_linecap_type="round"
       linejoin_type="spiro"
       miter_limit="4"
       scale_width="1"
       end_linecap_type="round" />
    <inkscape:path-effect
       effect="simplify"
       id="path-effect136"
       is_visible="true"
       lpeversion="1"
       steps="1"
       threshold="0.0028332064"
       smooth_angles="0"
       helper_size="0"
       simplify_individual_paths="false"
       simplify_just_coalesce="false"
       step="1" />
    <inkscape:path-effect
       effect="powerstroke"
       id="path-effect131"
       is_visible="true"
       lpeversion="1"
       offset_points="1.9940581,0.075169555"
       not_jump="true"
       sort_points="true"
       interpolator_type="CentripetalCatmullRom"
       interpolator_beta="0.75"
       start_linecap_type="round"
       linejoin_type="spiro"
       miter_limit="4"
       scale_width="1"
       end_linecap_type="round" />
    <inkscape:path-effect
       effect="simplify"
       id="path-effect129"
       is_visible="true"
       lpeversion="1"
       steps="1"
       threshold="0.0028332064"
       smooth_angles="0"
       helper_size="0"
       simplify_individual_paths="false"
       simplify_just_coalesce="false"
       step="1" />
  </defs>
  <sodipodi:namedview
     id="base"
     pagecolor="#ffffff"
     bordercolor="#666666"
     borderopacity="1.0"
     inkscape:pageopacity="0.0"
     inkscape:pageshadow="2"
     inkscape:zoom="7.919596"
     inkscape:cx="-5.3033008"
     inkscape:cy="20.834396"
     inkscape:document-units="mm"
     inkscape:current-layer="layer1"
     showgrid="false"
     fit-margin-top="0"
     fit-margin-left="0"
     fit-margin-right="0"
     fit-margin-bottom="0"
     inkscape:window-width="3440"
     inkscape:window-height="1369"
     inkscape:window-x="1072"
     inkscape:window-y="224"
     inkscape:window-maximized="1"
     showguides="true"
     inkscape:guide-bbox="true"
     inkscape:snap-bbox="true"
     inkscape:bbox-nodes="true"
     inkscape:snap-nodes="false"
     inkscape:snap-others="false"
     inkscape:snap-page="true"
     inkscape:snap-grids="false"
     inkscape:snap-to-guides="false"
     inkscape:snap-global="false"
     inkscape:pagecheckerboard="0"
     inkscape:showpageshadow="2"
     inkscape:deskcolor="#d1d1d1">
    <sodipodi:guide
       position="-6.1806076,9.4988693"
       orientation="0,1"
       id="guide816"
       inkscape:locked="false" />
    <sodipodi:guide
       position="-4.4101637,10.646923"
       orientation="0,1"
       id="guide818"
       inkscape:locked="false" />
    <sodipodi:guide
       position="2.7595724,11.09577"
       orientation="1,0"
       id="guide820"
       inkscape:locked="false" />
    <sodipodi:guide
       position="3.657266,10.942217"
       orientation="1,0"
       id="guide822"
       inkscape:locked="false" />
    <sodipodi:guide
       position="-0.051625511,9.74923"
       orientation="1,0"
       id="guide1853"
       inkscape:locked="false" />
    <sodipodi:guide
       position="-2.3720169,3.0175836"
       orientation="0,1"
       id="guide1855"
       inkscape:locked="false" />
  </sodipodi:namedview>
  <metadata
     id="metadata1678">
    <rdf:RDF>
      <cc:Work
         rdf:about="">
        <dc:format>image/svg+xml</dc:format>
        <dc:type
           rdf:resource="http://purl.org/dc/dcmitype/StillImage" />
      </cc:Work>
    </rdf:RDF>
  </metadata>
  <g
     inkscape:label="Layer 1"
     inkscape:groupmode="layer"
     id="layer1"
     transform="translate(17.028496,-147.22856)">
    <path
       d="m -14.961492,148.61397 c 0.0048,-0.0684 -0.001,-0.15036 -0.02958,-0.23917 -0.02216,-0.0688 -0.05762,-0.14034 -0.109402,-0.20803 -0.08581,-0.11218 -0.217685,-0.21525 -0.39008,-0.25434 -0.07144,-0.0181 -0.147135,-0.0228 -0.22264,-0.0149 -0.07183,0.008 -0.14191,0.0263 -0.20906,0.0536 -0.128346,0.0522 -0.245254,0.1351 -0.342286,0.22792 -0.193604,0.17656 -0.3458,0.39486 -0.446542,0.6332 -0.05392,0.12524 -0.09704,0.25342 -0.130368,0.38178 -0.108686,0.41859 -0.122317,0.87476 -0.04443,1.32694 0.02021,0.0956 0.0557,0.18105 0.104149,0.25839 0.04764,0.0761 0.107797,0.14435 0.177264,0.20211 0.135673,0.11282 0.309919,0.18779 0.496677,0.19701 0.144489,0.008 0.290397,-0.0147 0.427354,-0.0647 0.135128,-0.0493 0.261905,-0.12556 0.369693,-0.22587 0.167441,-0.15388 0.298447,-0.3408 0.395008,-0.5431 0.09643,-0.20203 0.158648,-0.41963 0.1897,-0.63698 0.0232,-0.13964 0.04201,-0.2964 0.03446,-0.45343 -0.0038,-0.0795 -0.01442,-0.15983 -0.03489,-0.23917 -0.01973,-0.0765 -0.04857,-0.15174 -0.08899,-0.22395 -0.01376,-0.0345 -0.02965,-0.0681 -0.04308,-0.0966 9.84e-4,0.002 -0.0045,-0.01 -0.0035,-0.007 -0.01355,-0.0288 -0.02608,-0.0558 -0.03611,-0.0818 -0.01015,-0.0263 -0.01676,-0.0492 -0.01964,-0.0696 -0.0026,-0.0187 -0.0022,-0.0352 0.0017,-0.0512 l -0.01097,0.0295 c 0.0028,-0.006 0.0043,-0.009 0.0052,-0.0102 -6.39e-4,8.3e-4 -0.0021,0.003 -0.0044,0.006 -0.002,0.003 -0.0067,0.008 -0.01419,0.0153 -0.0039,0.004 -0.0096,0.008 -0.0173,0.0135 -0.0075,0.005 -0.01903,0.0115 -0.03435,0.0164 -0.01564,0.005 -0.03709,0.009 -0.06208,0.006 -0.01243,-0.002 -0.02479,-0.005 -0.03673,-0.01 -0.01189,-0.005 -0.02245,-0.0113 -0.03161,-0.0183 -0.01813,-0.0139 -0.0293,-0.0291 -0.03642,-0.0414 -0.0069,-0.0119 -0.01073,-0.0225 -0.01292,-0.0298 -0.0042,-0.014 -0.0051,-0.0252 -0.0054,-0.0298 -3.25e-4,-0.006 -1.73e-4,-0.01 -7.1e-5,-0.0114 1.56e-4,-0.003 5.92e-4,-0.006 3.28e-4,-0.003 -3.25e-4,0.003 -0.0016,0.0108 -0.0037,0.0215 -0.004,0.0204 -0.0103,0.0489 -0.01591,0.0769 -0.0027,0.0135 -0.0055,0.0279 -0.0076,0.0413 -0.0011,0.007 -0.0021,0.014 -0.0029,0.0214 -4.14e-4,0.004 -8.44e-4,0.009 -0.0011,0.0138 -0.04562,0.29534 -0.0597,0.59125 -0.06987,0.88179 -0.01052,0.30028 -0.01672,0.58248 -0.04607,0.86648 -0.03179,0.46938 -0.08844,0.93116 -0.122799,1.38246 -0.03737,0.49091 -0.04763,0.95042 0.0066,1.40705 0.0857,0.69036 0.327607,1.15218 0.328056,1.15196 2.79e-4,-1.3e-4 -0.09722,-0.22492 -0.11414,-0.27072 a 0.12685288,0.12685288 90 0 0 0.23798,-0.0879 c 0.01564,0.0423 0.104853,0.24953 0.105133,0.2494 4.48e-4,-2.1e-4 -0.217087,-0.42418 -0.290856,-1.07411 -0.04984,-0.43206 -0.03934,-0.87207 -0.0011,-1.35455 0.0351,-0.44304 0.09322,-0.90486 0.126634,-1.3795 0.03147,-0.29076 0.0392,-0.58521 0.05073,-0.88015 0.01145,-0.29275 0.02645,-0.5768 0.07133,-0.8567 0.0011,-0.007 0.0018,-0.0143 0.0017,-0.0215 3.8e-5,0.004 -1.86e-4,0.006 4.9e-5,0.004 4.3e-4,-0.002 8.1e-4,-0.005 0.0012,-0.007 0.0014,-0.008 0.0034,-0.0171 0.006,-0.0293 0.0052,-0.0237 0.01201,-0.052 0.01754,-0.078 0.0027,-0.0125 0.0055,-0.0265 0.0074,-0.0393 9.33e-4,-0.006 0.002,-0.0149 0.0025,-0.0242 2.28e-4,-0.005 3.76e-4,-0.0113 -8.3e-5,-0.019 -4.06e-4,-0.007 -0.0016,-0.0198 -0.0062,-0.0352 -0.0024,-0.008 -0.0065,-0.0193 -0.01366,-0.0316 -0.0074,-0.0128 -0.01889,-0.0284 -0.03738,-0.0426 -0.0093,-0.007 -0.02009,-0.0136 -0.03219,-0.0187 -0.01214,-0.005 -0.02472,-0.008 -0.03736,-0.0101 -0.02543,-0.003 -0.04736,5.8e-4 -0.06353,0.006 -0.01585,0.005 -0.02799,0.012 -0.03606,0.0173 -0.0083,0.005 -0.01472,0.0109 -0.01928,0.0151 -0.0089,0.008 -0.01522,0.0159 -0.01896,0.0207 -0.0041,0.005 -0.0075,0.0102 -0.01008,0.0143 -0.0027,0.004 -0.0052,0.008 -0.0074,0.0121 -0.0044,0.008 -0.0088,0.0158 -0.01305,0.0242 -0.0048,0.009 -0.0084,0.0193 -0.01097,0.0295 -0.01466,0.0575 -0.01515,0.11181 -0.0087,0.16055 0.0067,0.0506 0.02115,0.0964 0.03573,0.13465 0.01426,0.0374 0.03107,0.0734 0.04441,0.10167 2.56e-4,5.4e-4 0.0033,0.007 0.0036,0.008 0.01588,0.0336 0.02886,0.0611 0.03916,0.0875 0.0027,0.007 0.006,0.0139 0.0098,0.0204 0.02922,0.0503 0.05072,0.10425 0.06579,0.16159 0.015,0.0571 0.02363,0.11753 0.02706,0.18101 0.0069,0.12703 -0.0072,0.26066 -0.02849,0.39634 -0.02666,0.19461 -0.07999,0.38469 -0.161798,0.55932 -0.08183,0.17469 -0.191452,0.33245 -0.32954,0.46143 -0.07981,0.0763 -0.174043,0.135 -0.275749,0.17376 -0.103036,0.0393 -0.212512,0.0576 -0.320594,0.0533 -0.124932,-0.005 -0.246265,-0.0539 -0.343276,-0.13276 -0.04925,-0.04 -0.09149,-0.0872 -0.124688,-0.13898 -0.0337,-0.0526 -0.0579,-0.10975 -0.07115,-0.16947 -0.07335,-0.41415 -0.06162,-0.83384 0.03641,-1.21501 0.03003,-0.11676 0.06887,-0.23286 0.117629,-0.34667 0.08645,-0.20677 0.217541,-0.39529 0.386122,-0.54909 0.08174,-0.0781 0.172829,-0.14119 0.265942,-0.1789 0.04815,-0.0195 0.0954,-0.0317 0.141122,-0.0364 0.04773,-0.005 0.09381,-0.002 0.138372,0.01 0.108462,0.0248 0.193656,0.0905 0.249261,0.16349 0.0335,0.044 0.05589,0.0897 0.06961,0.13262 0.01761,0.055 0.02082,0.10453 0.01799,0.14473 a 0.12563313,0.12563313 90 0 0 0.250644,0.0177 z"
       id="path-1"
       inkscape:path-effect="#path-effect754;#path-effect756"
       inkscape:original-d="m -15.086814,148.60513 c 0.0151,-0.39625 -0.348954,-0.63335 -0.645171,-0.57888 -0.265639,0.0405 -0.486438,0.25972 -0.666064,0.48327 -0.3805,0.53456 -0.479308,1.29641 -0.366189,1.96988 0.09106,0.41949 0.487262,0.61511 0.82265,0.55797 0.514182,-0.0469 0.898833,-0.57944 1.03597,-1.14085 0.06538,-0.32841 0.136695,-0.73806 -0.03614,-1.03038 -0.04961,-0.1294 -0.191241,-0.34801 -0.08568,-0.46516 -0.138321,0.6184 -0.08963,1.26598 -0.155158,1.89639 -0.07848,1.21568 -0.355817,2.50028 0.07534,3.66928"
       style="fill:#000000;fill-rule:nonzero;stroke:none;stroke-width:1.38466" />
  </g>
</svg>
