<?xml version="1.0" encoding="UTF-8" standalone="no"?>
<!-- Created with Inkscape (http://www.inkscape.org/) -->

<svg
   width="3mm"
   height="10mm"
   viewBox="0 0 3.0000001 9.9999994"
   version="1.1"
   id="svg1681"
   inkscape:version="1.2.1 (9c6d41e410, 2022-07-14)"
   sodipodi:docname="number_nine_15.svg"
   inkscape:export-filename="..\..\..\..\Downloads\lower a diff canvas resize 3.0.png"
   inkscape:export-xdpi="96"
   inkscape:export-ydpi="96"
   xmlns:inkscape="http://www.inkscape.org/namespaces/inkscape"
   xmlns:sodipodi="http://sodipodi.sourceforge.net/DTD/sodipodi-0.dtd"
   xmlns="http://www.w3.org/2000/svg"
   xmlns:svg="http://www.w3.org/2000/svg"
   xmlns:rdf="http://www.w3.org/1999/02/22-rdf-syntax-ns#"
   xmlns:cc="http://creativecommons.org/ns#"
   xmlns:dc="http://purl.org/dc/elements/1.1/">
  <defs
     id="defs1675">
    <inkscape:path-effect
       effect="powerstroke"
       id="path-effect307"
       is_visible="true"
       lpeversion="1"
       offset_points="1.3830769,0.15779768 | 3.8506778,0.13461249"
       not_jump="true"
       sort_points="true"
       interpolator_type="CentripetalCatmullRom"
       interpolator_beta="0.75"
       start_linecap_type="round"
       linejoin_type="spiro"
       miter_limit="4"
       scale_width="1"
       end_linecap_type="round" />
    <inkscape:path-effect
       effect="simplify"
       id="path-effect305"
       is_visible="true"
       lpeversion="1"
       steps="1"
       threshold="0.0047745358"
       smooth_angles="0"
       helper_size="0"
       simplify_individual_paths="false"
       simplify_just_coalesce="false"
       step="1" />
    <inkscape:path-effect
       effect="powerstroke"
       id="path-effect262"
       is_visible="true"
       lpeversion="1"
       offset_points="1.5442116,0.15641349 | 6.0881534,0.13530459 | 7.672947,0.15779768"
       not_jump="true"
       sort_points="true"
       interpolator_type="CentripetalCatmullRom"
       interpolator_beta="0.75"
       start_linecap_type="round"
       linejoin_type="spiro"
       miter_limit="4"
       scale_width="1"
       end_linecap_type="round" />
    <inkscape:path-effect
       effect="simplify"
       id="path-effect260"
       is_visible="true"
       lpeversion="1"
       steps="1"
       threshold="0.0047745358"
       smooth_angles="0"
       helper_size="0"
       simplify_individual_paths="false"
       simplify_just_coalesce="false"
       step="1" />
    <inkscape:path-effect
       effect="powerstroke"
       id="path-effect206"
       is_visible="true"
       lpeversion="1"
       offset_points="2.8299942,0.16208383 | 6.491831,0.12164928 | 8.5225859,0.15396236"
       not_jump="true"
       sort_points="true"
       interpolator_type="CentripetalCatmullRom"
       interpolator_beta="0.75"
       start_linecap_type="round"
       linejoin_type="spiro"
       miter_limit="4"
       scale_width="1"
       end_linecap_type="round" />
    <inkscape:path-effect
       effect="simplify"
       id="path-effect204"
       is_visible="true"
       lpeversion="1"
       steps="1"
       threshold="0.0035951417"
       smooth_angles="0"
       helper_size="0"
       simplify_individual_paths="false"
       simplify_just_coalesce="false"
       step="1" />
    <inkscape:path-effect
       effect="powerstroke"
       id="path-effect756"
       is_visible="true"
       lpeversion="1"
       offset_points="3.2309902,0.12563313 | 8.2691135,0.14514896 | 13.320889,0.12685288"
       not_jump="true"
       sort_points="true"
       interpolator_type="CentripetalCatmullRom"
       interpolator_beta="0.75"
       start_linecap_type="round"
       linejoin_type="spiro"
       miter_limit="4"
       scale_width="1"
       end_linecap_type="round" />
    <inkscape:path-effect
       effect="simplify"
       id="path-effect754"
       is_visible="true"
       lpeversion="1"
       steps="1"
       threshold="0.0035951417"
       smooth_angles="0"
       helper_size="0"
       simplify_individual_paths="false"
       simplify_just_coalesce="false"
       step="1" />
    <inkscape:path-effect
       effect="powerstroke"
       id="path-effect502"
       is_visible="true"
       lpeversion="1"
       offset_points="3.0091841,0.21607495 | 7.3602657,0.17554228 | 9.4159651,0.20236537"
       not_jump="true"
       sort_points="true"
       interpolator_type="CentripetalCatmullRom"
       interpolator_beta="0.75"
       start_linecap_type="round"
       linejoin_type="spiro"
       miter_limit="4"
       scale_width="1"
       end_linecap_type="round" />
    <inkscape:path-effect
       effect="simplify"
       id="path-effect500"
       is_visible="true"
       lpeversion="1"
       steps="1"
       threshold="0.0035951417"
       smooth_angles="0"
       helper_size="0"
       simplify_individual_paths="false"
       simplify_just_coalesce="false"
       step="1" />
    <inkscape:path-effect
       effect="powerstroke"
       id="path-effect241"
       is_visible="true"
       lpeversion="1"
       offset_points="2.6879454,0.34086734"
       not_jump="true"
       sort_points="true"
       interpolator_type="CentripetalCatmullRom"
       interpolator_beta="0.75"
       start_linecap_type="round"
       linejoin_type="spiro"
       miter_limit="4"
       scale_width="1"
       end_linecap_type="round" />
    <inkscape:path-effect
       effect="simplify"
       id="path-effect239"
       is_visible="true"
       lpeversion="1"
       steps="1"
       threshold="0.0028332064"
       smooth_angles="0"
       helper_size="0"
       simplify_individual_paths="false"
       simplify_just_coalesce="false"
       step="1" />
    <inkscape:path-effect
       effect="powerstroke"
       id="path-effect234"
       is_visible="true"
       lpeversion="1"
       offset_points="2.13563,0.075169555"
       not_jump="true"
       sort_points="true"
       interpolator_type="CentripetalCatmullRom"
       interpolator_beta="0.75"
       start_linecap_type="round"
       linejoin_type="spiro"
       miter_limit="4"
       scale_width="1"
       end_linecap_type="round" />
    <inkscape:path-effect
       effect="simplify"
       id="path-effect232"
       is_visible="true"
       lpeversion="1"
       steps="1"
       threshold="0.0028332064"
       smooth_angles="0"
       helper_size="0"
       simplify_individual_paths="false"
       simplify_just_coalesce="false"
       step="1" />
    <inkscape:path-effect
       effect="powerstroke"
       id="path-effect227"
       is_visible="true"
       lpeversion="1"
       offset_points="2.1868266,0.075169555"
       not_jump="true"
       sort_points="true"
       interpolator_type="CentripetalCatmullRom"
       interpolator_beta="0.75"
       start_linecap_type="round"
       linejoin_type="spiro"
       miter_limit="4"
       scale_width="1"
       end_linecap_type="round" />
    <inkscape:path-effect
       effect="simplify"
       id="path-effect225"
       is_visible="true"
       lpeversion="1"
       steps="1"
       threshold="0.0028332064"
       smooth_angles="0"
       helper_size="0"
       simplify_individual_paths="false"
       simplify_just_coalesce="false"
       step="1" />
    <inkscape:path-effect
       effect="powerstroke"
       id="path-effect166"
       is_visible="true"
       lpeversion="1"
       offset_points="1.9637935,0.075169555"
       not_jump="true"
       sort_points="true"
       interpolator_type="CentripetalCatmullRom"
       interpolator_beta="0.75"
       start_linecap_type="round"
       linejoin_type="spiro"
       miter_limit="4"
       scale_width="1"
       end_linecap_type="round" />
    <inkscape:path-effect
       effect="simplify"
       id="path-effect164"
       is_visible="true"
       lpeversion="1"
       steps="1"
       threshold="0.0028332064"
       smooth_angles="0"
       helper_size="0"
       simplify_individual_paths="false"
       simplify_just_coalesce="false"
       step="1" />
    <inkscape:path-effect
       effect="powerstroke"
       id="path-effect159"
       is_visible="true"
       lpeversion="1"
       offset_points="2.2611036,0.075169555"
       not_jump="true"
       sort_points="true"
       interpolator_type="CentripetalCatmullRom"
       interpolator_beta="0.75"
       start_linecap_type="round"
       linejoin_type="spiro"
       miter_limit="4"
       scale_width="1"
       end_linecap_type="round" />
    <inkscape:path-effect
       effect="simplify"
       id="path-effect157"
       is_visible="true"
       lpeversion="1"
       steps="1"
       threshold="0.0028332064"
       smooth_angles="0"
       helper_size="0"
       simplify_individual_paths="false"
       simplify_just_coalesce="false"
       step="1" />
    <inkscape:path-effect
       effect="powerstroke"
       id="path-effect152"
       is_visible="true"
       lpeversion="1"
       offset_points="2.826981,0.075169555"
       not_jump="true"
       sort_points="true"
       interpolator_type="CentripetalCatmullRom"
       interpolator_beta="0.75"
       start_linecap_type="round"
       linejoin_type="spiro"
       miter_limit="4"
       scale_width="1"
       end_linecap_type="round" />
    <inkscape:path-effect
       effect="simplify"
       id="path-effect150"
       is_visible="true"
       lpeversion="1"
       steps="1"
       threshold="0.0028332064"
       smooth_angles="0"
       helper_size="0"
       simplify_individual_paths="false"
       simplify_just_coalesce="false"
       step="1" />
    <inkscape:path-effect
       effect="powerstroke"
       id="path-effect145"
       is_visible="true"
       lpeversion="1"
       offset_points="3.8374447,0.075169555"
       not_jump="true"
       sort_points="true"
       interpolator_type="CentripetalCatmullRom"
       interpolator_beta="0.75"
       start_linecap_type="round"
       linejoin_type="spiro"
       miter_limit="4"
       scale_width="1"
       end_linecap_type="round" />
    <inkscape:path-effect
       effect="simplify"
       id="path-effect143"
       is_visible="true"
       lpeversion="1"
       steps="1"
       threshold="0.0028332064"
       smooth_angles="0"
       helper_size="0"
       simplify_individual_paths="false"
       simplify_just_coalesce="false"
       step="1" />
    <inkscape:path-effect
       effect="powerstroke"
       id="path-effect138"
       is_visible="true"
       lpeversion="1"
       offset_points="2.6880907,0.075169555"
       not_jump="true"
       sort_points="true"
       interpolator_type="CentripetalCatmullRom"
       interpolator_beta="0.75"
       start_linecap_type="round"
       linejoin_type="spiro"
       miter_limit="4"
       scale_width="1"
       end_linecap_type="round" />
    <inkscape:path-effect
       effect="simplify"
       id="path-effect136"
       is_visible="true"
       lpeversion="1"
       steps="1"
       threshold="0.0028332064"
       smooth_angles="0"
       helper_size="0"
       simplify_individual_paths="false"
       simplify_just_coalesce="false"
       step="1" />
    <inkscape:path-effect
       effect="powerstroke"
       id="path-effect131"
       is_visible="true"
       lpeversion="1"
       offset_points="1.9940581,0.075169555"
       not_jump="true"
       sort_points="true"
       interpolator_type="CentripetalCatmullRom"
       interpolator_beta="0.75"
       start_linecap_type="round"
       linejoin_type="spiro"
       miter_limit="4"
       scale_width="1"
       end_linecap_type="round" />
    <inkscape:path-effect
       effect="simplify"
       id="path-effect129"
       is_visible="true"
       lpeversion="1"
       steps="1"
       threshold="0.0028332064"
       smooth_angles="0"
       helper_size="0"
       simplify_individual_paths="false"
       simplify_just_coalesce="false"
       step="1" />
  </defs>
  <sodipodi:namedview
     id="base"
     pagecolor="#ffffff"
     bordercolor="#666666"
     borderopacity="1.0"
     inkscape:pageopacity="0.0"
     inkscape:pageshadow="2"
     inkscape:zoom="11.2"
     inkscape:cx="-1.7857143"
     inkscape:cy="16.517857"
     inkscape:document-units="mm"
     inkscape:current-layer="layer1"
     showgrid="false"
     fit-margin-top="0"
     fit-margin-left="0"
     fit-margin-right="0"
     fit-margin-bottom="0"
     inkscape:window-width="1920"
     inkscape:window-height="1057"
     inkscape:window-x="1072"
     inkscape:window-y="321"
     inkscape:window-maximized="1"
     showguides="true"
     inkscape:guide-bbox="true"
     inkscape:snap-bbox="true"
     inkscape:bbox-nodes="true"
     inkscape:snap-nodes="false"
     inkscape:snap-others="false"
     inkscape:snap-page="true"
     inkscape:snap-grids="false"
     inkscape:snap-to-guides="false"
     inkscape:snap-global="false"
     inkscape:pagecheckerboard="0"
     inkscape:showpageshadow="2"
     inkscape:deskcolor="#d1d1d1">
    <sodipodi:guide
       position="-6.1806076,9.4988693"
       orientation="0,1"
       id="guide816"
       inkscape:locked="false" />
    <sodipodi:guide
       position="-4.4101637,10.646923"
       orientation="0,1"
       id="guide818"
       inkscape:locked="false" />
    <sodipodi:guide
       position="2.7595724,11.09577"
       orientation="1,0"
       id="guide820"
       inkscape:locked="false" />
    <sodipodi:guide
       position="3.657266,10.942217"
       orientation="1,0"
       id="guide822"
       inkscape:locked="false" />
    <sodipodi:guide
       position="-0.051625511,9.74923"
       orientation="1,0"
       id="guide1853"
       inkscape:locked="false" />
    <sodipodi:guide
       position="-2.3720169,3.0175836"
       orientation="0,1"
       id="guide1855"
       inkscape:locked="false" />
  </sodipodi:namedview>
  <metadata
     id="metadata1678">
    <rdf:RDF>
      <cc:Work
         rdf:about="">
        <dc:format>image/svg+xml</dc:format>
        <dc:type
           rdf:resource="http://purl.org/dc/dcmitype/StillImage" />
      </cc:Work>
    </rdf:RDF>
  </metadata>
  <g
     inkscape:label="Layer 1"
     inkscape:groupmode="layer"
     id="layer1"
     transform="translate(17.028496,-147.22856)">
    <path
       d="m -15.183203,147.99774 c -0.128707,-0.0609 -0.347939,-0.13652 -0.636017,-0.11655 -0.201666,0.014 -0.416053,0.0744 -0.612362,0.19319 -0.19714,0.11696 -0.368455,0.27179 -0.50507,0.44706 -0.0424,0.0544 -0.08189,0.11131 -0.118101,0.17041 -0.150481,0.24556 -0.248308,0.53546 -0.256726,0.84245 -0.0075,0.20181 0.04049,0.4098 0.141165,0.59858 0.09126,0.17113 0.229012,0.3315 0.410672,0.44829 0.06222,0.047 0.134506,0.083 0.21457,0.10387 0.05395,0.0141 0.111482,0.0213 0.17124,0.0201 0.02179,-4.4e-4 0.04435,-0.002 0.06756,-0.005 0.180051,-0.006 0.383956,-0.044 0.57975,-0.13505 0.175097,-0.0814 0.346032,-0.2062 0.474545,-0.38891 0.129654,-0.18104 0.217242,-0.38992 0.269693,-0.61457 0.04958,-0.21235 0.06684,-0.43485 0.0614,-0.65465 -0.0163,-0.26446 -0.05438,-0.54971 -0.165279,-0.81509 -0.0038,-0.009 -0.0078,-0.0179 -0.01346,-0.0259 -0.0057,-0.008 -0.01278,-0.0147 -0.02004,-0.0212 -0.0088,-0.008 -0.01898,-0.0161 -0.0306,-0.0234 -0.01125,-0.007 -0.02701,-0.0156 -0.04663,-0.0209 -0.0101,-0.003 -0.02201,-0.005 -0.03536,-0.005 -0.01348,-3.4e-4 -0.02825,0.001 -0.0435,0.006 -0.01537,0.004 -0.02975,0.0115 -0.04263,0.0206 -0.01276,0.009 -0.02291,0.0195 -0.03082,0.0299 -0.01536,0.0202 -0.02258,0.0406 -0.0262,0.055 -0.0037,0.0148 -0.0049,0.0284 -0.0052,0.039 -5.74e-4,0.021 0.0022,0.0409 0.0054,0.0571 0.0034,0.0169 0.0083,0.0338 0.01394,0.0498 0.0057,0.0161 0.01273,0.0325 0.02099,0.0483 0.0081,0.0156 0.01858,0.0327 0.03178,0.0488 0.0067,0.008 0.01488,0.017 0.02464,0.0255 0.0097,0.008 0.02223,0.0176 0.03775,0.0252 l -0.05857,-0.0569 c 0.008,0.0154 0.01367,0.0328 0.01756,0.0544 0.004,0.0223 0.0058,0.0474 0.0064,0.0769 5.62e-4,0.0296 -2.2e-4,0.0622 -3.2e-4,0.097 -9.6e-5,0.0333 4.76e-4,0.0696 0.0042,0.10664 0.01929,0.91751 -0.0033,1.86665 -0.02161,2.62768 -0.0161,1.01176 0.02961,1.65559 0.138759,2.2445 a 0.13461249,0.13461249 90 0 0 0.264716,-0.0491 c -0.104857,-0.56575 -0.150789,-1.1897 -0.135827,-2.1902 0.01774,-0.76064 0.0397,-1.71801 0.0193,-2.64421 -9e-5,-0.004 -3.48e-4,-0.008 -8.25e-4,-0.0122 -0.0028,-0.0241 -0.0037,-0.0507 -0.0038,-0.0831 -6.4e-5,-0.0281 5.87e-4,-0.0682 -2.44e-4,-0.10287 -8.69e-4,-0.0362 -0.0034,-0.077 -0.01116,-0.11888 -0.0077,-0.0417 -0.02105,-0.086 -0.04403,-0.12948 -0.0065,-0.0123 -0.01364,-0.0246 -0.02364,-0.0343 -0.01,-0.01 -0.02243,-0.0165 -0.03493,-0.0226 0.0091,0.005 0.01532,0.009 0.01874,0.0123 0.0035,0.003 0.0055,0.005 0.0062,0.006 0.0016,0.002 -9.4e-5,7e-5 -0.0021,-0.004 -0.0021,-0.004 -0.0044,-0.009 -0.0064,-0.0146 -0.002,-0.006 -0.0034,-0.0105 -0.0041,-0.0139 -8.64e-4,-0.004 -2.24e-4,-0.003 -3.87e-4,0.002 -8.4e-5,0.003 -4.57e-4,0.009 -0.0027,0.0181 -0.0021,0.008 -0.0071,0.0237 -0.01952,0.04 -0.0064,0.008 -0.01491,0.0172 -0.02581,0.025 -0.01102,0.008 -0.02335,0.0138 -0.03646,0.0176 -0.01299,0.004 -0.0253,0.005 -0.03612,0.005 -0.01067,-2.6e-4 -0.01972,-0.002 -0.02672,-0.004 -0.01343,-0.004 -0.02213,-0.009 -0.0254,-0.0109 -0.004,-0.003 -0.0047,-0.003 -0.0038,-0.003 l -0.0335,-0.0471 c 0.09448,0.22535 0.130271,0.47644 0.145577,0.72514 0.0047,0.19749 -0.01146,0.39719 -0.05518,0.58361 -0.04616,0.19679 -0.121478,0.37253 -0.228812,0.52176 -0.09803,0.13868 -0.230588,0.2363 -0.371282,0.301 -0.160808,0.0739 -0.331065,0.10475 -0.482594,0.10789 -0.0046,9e-5 -0.0092,5.2e-4 -0.01372,0.001 -0.0148,0.002 -0.02903,0.002 -0.04258,0.002 -0.03413,-2.1e-4 -0.0662,-0.005 -0.09552,-0.0144 -0.04542,-0.0139 -0.0849,-0.0368 -0.117683,-0.0656 -0.0019,-0.002 -0.0039,-0.003 -0.006,-0.005 -0.0021,-0.001 -0.0042,-0.003 -0.0064,-0.004 -0.137059,-0.0911 -0.240562,-0.21626 -0.307878,-0.34959 -0.07369,-0.14595 -0.105016,-0.3025 -0.09643,-0.45092 0.01027,-0.24923 0.0923,-0.486 0.219166,-0.68938 0.03045,-0.0488 0.06359,-0.0959 0.09912,-0.14092 0.114698,-0.14539 0.25704,-0.27289 0.419729,-0.36913 0.151421,-0.0912 0.316336,-0.13817 0.471609,-0.14935 0.220148,-0.0159 0.385076,0.0411 0.478717,0.0854 a 0.15779768,0.15779768 90 0 0 0.134996,-0.28526 z"
       id="path-1"
       inkscape:path-effect="#path-effect305;#path-effect307"
       inkscape:original-d="m -15.250701,148.14037 c -1.358971,-0.61065 -2.71885,1.61403 -1.319674,2.39186 0.05352,0.0298 0.118912,0.0363 0.180146,0.036 0.792,-0.004 1.214017,-0.47305 1.319674,-1.25833 0.03932,-0.29224 0.02051,-0.56131 -0.0391,-0.84579 -0.02414,-0.1152 -0.105543,-0.43593 -0.141044,-0.32371 -0.02294,0.0725 0.08424,0.13308 0.09217,0.20872 0.02447,0.23351 0.0223,1.23198 0.02095,1.53245 -0.0055,1.21364 -0.111719,2.44508 0.110322,3.6442"
       style="fill:#000000;fill-rule:nonzero;stroke:none" />
  </g>
</svg>
