<?xml version="1.0" encoding="UTF-8" standalone="no"?>
<!-- Created with Inkscape (http://www.inkscape.org/) -->

<svg
   width="3mm"
   height="10mm"
   viewBox="0 0 3.0000001 9.9999994"
   version="1.1"
   id="svg1681"
   inkscape:version="1.2.1 (9c6d41e410, 2022-07-14)"
   sodipodi:docname="number_nine_14.svg"
   inkscape:export-filename="..\..\..\..\Downloads\lower a diff canvas resize 3.0.png"
   inkscape:export-xdpi="96"
   inkscape:export-ydpi="96"
   xmlns:inkscape="http://www.inkscape.org/namespaces/inkscape"
   xmlns:sodipodi="http://sodipodi.sourceforge.net/DTD/sodipodi-0.dtd"
   xmlns="http://www.w3.org/2000/svg"
   xmlns:svg="http://www.w3.org/2000/svg"
   xmlns:rdf="http://www.w3.org/1999/02/22-rdf-syntax-ns#"
   xmlns:cc="http://creativecommons.org/ns#"
   xmlns:dc="http://purl.org/dc/elements/1.1/">
  <defs
     id="defs1675">
    <inkscape:path-effect
       effect="powerstroke"
       id="path-effect262"
       is_visible="true"
       lpeversion="1"
       offset_points="1.5442116,0.15641349 | 6.0881534,0.13530459 | 7.672947,0.15779768"
       not_jump="true"
       sort_points="true"
       interpolator_type="CentripetalCatmullRom"
       interpolator_beta="0.75"
       start_linecap_type="round"
       linejoin_type="spiro"
       miter_limit="4"
       scale_width="1"
       end_linecap_type="round" />
    <inkscape:path-effect
       effect="simplify"
       id="path-effect260"
       is_visible="true"
       lpeversion="1"
       steps="1"
       threshold="0.0047745358"
       smooth_angles="0"
       helper_size="0"
       simplify_individual_paths="false"
       simplify_just_coalesce="false"
       step="1" />
    <inkscape:path-effect
       effect="powerstroke"
       id="path-effect206"
       is_visible="true"
       lpeversion="1"
       offset_points="2.8299942,0.16208383 | 6.491831,0.12164928 | 8.5225859,0.15396236"
       not_jump="true"
       sort_points="true"
       interpolator_type="CentripetalCatmullRom"
       interpolator_beta="0.75"
       start_linecap_type="round"
       linejoin_type="spiro"
       miter_limit="4"
       scale_width="1"
       end_linecap_type="round" />
    <inkscape:path-effect
       effect="simplify"
       id="path-effect204"
       is_visible="true"
       lpeversion="1"
       steps="1"
       threshold="0.0035951417"
       smooth_angles="0"
       helper_size="0"
       simplify_individual_paths="false"
       simplify_just_coalesce="false"
       step="1" />
    <inkscape:path-effect
       effect="powerstroke"
       id="path-effect756"
       is_visible="true"
       lpeversion="1"
       offset_points="3.2309902,0.12563313 | 8.2691135,0.14514896 | 13.320889,0.12685288"
       not_jump="true"
       sort_points="true"
       interpolator_type="CentripetalCatmullRom"
       interpolator_beta="0.75"
       start_linecap_type="round"
       linejoin_type="spiro"
       miter_limit="4"
       scale_width="1"
       end_linecap_type="round" />
    <inkscape:path-effect
       effect="simplify"
       id="path-effect754"
       is_visible="true"
       lpeversion="1"
       steps="1"
       threshold="0.0035951417"
       smooth_angles="0"
       helper_size="0"
       simplify_individual_paths="false"
       simplify_just_coalesce="false"
       step="1" />
    <inkscape:path-effect
       effect="powerstroke"
       id="path-effect502"
       is_visible="true"
       lpeversion="1"
       offset_points="3.0091841,0.21607495 | 7.3602657,0.17554228 | 9.4159651,0.20236537"
       not_jump="true"
       sort_points="true"
       interpolator_type="CentripetalCatmullRom"
       interpolator_beta="0.75"
       start_linecap_type="round"
       linejoin_type="spiro"
       miter_limit="4"
       scale_width="1"
       end_linecap_type="round" />
    <inkscape:path-effect
       effect="simplify"
       id="path-effect500"
       is_visible="true"
       lpeversion="1"
       steps="1"
       threshold="0.0035951417"
       smooth_angles="0"
       helper_size="0"
       simplify_individual_paths="false"
       simplify_just_coalesce="false"
       step="1" />
    <inkscape:path-effect
       effect="powerstroke"
       id="path-effect241"
       is_visible="true"
       lpeversion="1"
       offset_points="2.6879454,0.34086734"
       not_jump="true"
       sort_points="true"
       interpolator_type="CentripetalCatmullRom"
       interpolator_beta="0.75"
       start_linecap_type="round"
       linejoin_type="spiro"
       miter_limit="4"
       scale_width="1"
       end_linecap_type="round" />
    <inkscape:path-effect
       effect="simplify"
       id="path-effect239"
       is_visible="true"
       lpeversion="1"
       steps="1"
       threshold="0.0028332064"
       smooth_angles="0"
       helper_size="0"
       simplify_individual_paths="false"
       simplify_just_coalesce="false"
       step="1" />
    <inkscape:path-effect
       effect="powerstroke"
       id="path-effect234"
       is_visible="true"
       lpeversion="1"
       offset_points="2.13563,0.075169555"
       not_jump="true"
       sort_points="true"
       interpolator_type="CentripetalCatmullRom"
       interpolator_beta="0.75"
       start_linecap_type="round"
       linejoin_type="spiro"
       miter_limit="4"
       scale_width="1"
       end_linecap_type="round" />
    <inkscape:path-effect
       effect="simplify"
       id="path-effect232"
       is_visible="true"
       lpeversion="1"
       steps="1"
       threshold="0.0028332064"
       smooth_angles="0"
       helper_size="0"
       simplify_individual_paths="false"
       simplify_just_coalesce="false"
       step="1" />
    <inkscape:path-effect
       effect="powerstroke"
       id="path-effect227"
       is_visible="true"
       lpeversion="1"
       offset_points="2.1868266,0.075169555"
       not_jump="true"
       sort_points="true"
       interpolator_type="CentripetalCatmullRom"
       interpolator_beta="0.75"
       start_linecap_type="round"
       linejoin_type="spiro"
       miter_limit="4"
       scale_width="1"
       end_linecap_type="round" />
    <inkscape:path-effect
       effect="simplify"
       id="path-effect225"
       is_visible="true"
       lpeversion="1"
       steps="1"
       threshold="0.0028332064"
       smooth_angles="0"
       helper_size="0"
       simplify_individual_paths="false"
       simplify_just_coalesce="false"
       step="1" />
    <inkscape:path-effect
       effect="powerstroke"
       id="path-effect166"
       is_visible="true"
       lpeversion="1"
       offset_points="1.9637935,0.075169555"
       not_jump="true"
       sort_points="true"
       interpolator_type="CentripetalCatmullRom"
       interpolator_beta="0.75"
       start_linecap_type="round"
       linejoin_type="spiro"
       miter_limit="4"
       scale_width="1"
       end_linecap_type="round" />
    <inkscape:path-effect
       effect="simplify"
       id="path-effect164"
       is_visible="true"
       lpeversion="1"
       steps="1"
       threshold="0.0028332064"
       smooth_angles="0"
       helper_size="0"
       simplify_individual_paths="false"
       simplify_just_coalesce="false"
       step="1" />
    <inkscape:path-effect
       effect="powerstroke"
       id="path-effect159"
       is_visible="true"
       lpeversion="1"
       offset_points="2.2611036,0.075169555"
       not_jump="true"
       sort_points="true"
       interpolator_type="CentripetalCatmullRom"
       interpolator_beta="0.75"
       start_linecap_type="round"
       linejoin_type="spiro"
       miter_limit="4"
       scale_width="1"
       end_linecap_type="round" />
    <inkscape:path-effect
       effect="simplify"
       id="path-effect157"
       is_visible="true"
       lpeversion="1"
       steps="1"
       threshold="0.0028332064"
       smooth_angles="0"
       helper_size="0"
       simplify_individual_paths="false"
       simplify_just_coalesce="false"
       step="1" />
    <inkscape:path-effect
       effect="powerstroke"
       id="path-effect152"
       is_visible="true"
       lpeversion="1"
       offset_points="2.826981,0.075169555"
       not_jump="true"
       sort_points="true"
       interpolator_type="CentripetalCatmullRom"
       interpolator_beta="0.75"
       start_linecap_type="round"
       linejoin_type="spiro"
       miter_limit="4"
       scale_width="1"
       end_linecap_type="round" />
    <inkscape:path-effect
       effect="simplify"
       id="path-effect150"
       is_visible="true"
       lpeversion="1"
       steps="1"
       threshold="0.0028332064"
       smooth_angles="0"
       helper_size="0"
       simplify_individual_paths="false"
       simplify_just_coalesce="false"
       step="1" />
    <inkscape:path-effect
       effect="powerstroke"
       id="path-effect145"
       is_visible="true"
       lpeversion="1"
       offset_points="3.8374447,0.075169555"
       not_jump="true"
       sort_points="true"
       interpolator_type="CentripetalCatmullRom"
       interpolator_beta="0.75"
       start_linecap_type="round"
       linejoin_type="spiro"
       miter_limit="4"
       scale_width="1"
       end_linecap_type="round" />
    <inkscape:path-effect
       effect="simplify"
       id="path-effect143"
       is_visible="true"
       lpeversion="1"
       steps="1"
       threshold="0.0028332064"
       smooth_angles="0"
       helper_size="0"
       simplify_individual_paths="false"
       simplify_just_coalesce="false"
       step="1" />
    <inkscape:path-effect
       effect="powerstroke"
       id="path-effect138"
       is_visible="true"
       lpeversion="1"
       offset_points="2.6880907,0.075169555"
       not_jump="true"
       sort_points="true"
       interpolator_type="CentripetalCatmullRom"
       interpolator_beta="0.75"
       start_linecap_type="round"
       linejoin_type="spiro"
       miter_limit="4"
       scale_width="1"
       end_linecap_type="round" />
    <inkscape:path-effect
       effect="simplify"
       id="path-effect136"
       is_visible="true"
       lpeversion="1"
       steps="1"
       threshold="0.0028332064"
       smooth_angles="0"
       helper_size="0"
       simplify_individual_paths="false"
       simplify_just_coalesce="false"
       step="1" />
    <inkscape:path-effect
       effect="powerstroke"
       id="path-effect131"
       is_visible="true"
       lpeversion="1"
       offset_points="1.9940581,0.075169555"
       not_jump="true"
       sort_points="true"
       interpolator_type="CentripetalCatmullRom"
       interpolator_beta="0.75"
       start_linecap_type="round"
       linejoin_type="spiro"
       miter_limit="4"
       scale_width="1"
       end_linecap_type="round" />
    <inkscape:path-effect
       effect="simplify"
       id="path-effect129"
       is_visible="true"
       lpeversion="1"
       steps="1"
       threshold="0.0028332064"
       smooth_angles="0"
       helper_size="0"
       simplify_individual_paths="false"
       simplify_just_coalesce="false"
       step="1" />
  </defs>
  <sodipodi:namedview
     id="base"
     pagecolor="#ffffff"
     bordercolor="#666666"
     borderopacity="1.0"
     inkscape:pageopacity="0.0"
     inkscape:pageshadow="2"
     inkscape:zoom="11.2"
     inkscape:cx="-1.7857143"
     inkscape:cy="16.517857"
     inkscape:document-units="mm"
     inkscape:current-layer="layer1"
     showgrid="false"
     fit-margin-top="0"
     fit-margin-left="0"
     fit-margin-right="0"
     fit-margin-bottom="0"
     inkscape:window-width="1920"
     inkscape:window-height="1057"
     inkscape:window-x="1072"
     inkscape:window-y="321"
     inkscape:window-maximized="1"
     showguides="true"
     inkscape:guide-bbox="true"
     inkscape:snap-bbox="true"
     inkscape:bbox-nodes="true"
     inkscape:snap-nodes="false"
     inkscape:snap-others="false"
     inkscape:snap-page="true"
     inkscape:snap-grids="false"
     inkscape:snap-to-guides="false"
     inkscape:snap-global="false"
     inkscape:pagecheckerboard="0"
     inkscape:showpageshadow="2"
     inkscape:deskcolor="#d1d1d1">
    <sodipodi:guide
       position="-6.1806076,9.4988693"
       orientation="0,1"
       id="guide816"
       inkscape:locked="false" />
    <sodipodi:guide
       position="-4.4101637,10.646923"
       orientation="0,1"
       id="guide818"
       inkscape:locked="false" />
    <sodipodi:guide
       position="2.7595724,11.09577"
       orientation="1,0"
       id="guide820"
       inkscape:locked="false" />
    <sodipodi:guide
       position="3.657266,10.942217"
       orientation="1,0"
       id="guide822"
       inkscape:locked="false" />
    <sodipodi:guide
       position="-0.051625511,9.74923"
       orientation="1,0"
       id="guide1853"
       inkscape:locked="false" />
    <sodipodi:guide
       position="-2.3720169,3.0175836"
       orientation="0,1"
       id="guide1855"
       inkscape:locked="false" />
  </sodipodi:namedview>
  <metadata
     id="metadata1678">
    <rdf:RDF>
      <cc:Work
         rdf:about="">
        <dc:format>image/svg+xml</dc:format>
        <dc:type
           rdf:resource="http://purl.org/dc/dcmitype/StillImage" />
      </cc:Work>
    </rdf:RDF>
  </metadata>
  <g
     inkscape:label="Layer 1"
     inkscape:groupmode="layer"
     id="layer1"
     transform="translate(17.028496,-147.22856)">
    <path
       d="m -15.024516,148.34935 c -0.0795,-0.0699 -0.232502,-0.18459 -0.447765,-0.24231 -0.07855,-0.0211 -0.166012,-0.0345 -0.258992,-0.0336 -0.08523,8.9e-4 -0.175079,0.0139 -0.265547,0.0444 -0.106016,0.0348 -0.206243,0.0847 -0.299631,0.14712 -0.09057,0.0605 -0.173207,0.13164 -0.248497,0.20993 -0.01319,0.0137 -0.02613,0.0276 -0.03885,0.0417 -0.118923,0.13191 -0.226606,0.29052 -0.322654,0.47275 -0.113008,0.223 -0.211193,0.48202 -0.262666,0.76331 -0.04703,0.25699 -0.05541,0.53527 0.0043,0.81563 0.03581,0.1709 0.111089,0.33991 0.223261,0.48383 0.110381,0.14161 0.256415,0.25857 0.43269,0.32613 0.120582,0.0552 0.268504,0.0924 0.415535,0.0908 0.07566,-8.2e-4 0.15141,-0.0119 0.224274,-0.0358 0.07515,-0.0247 0.145745,-0.0624 0.208899,-0.11464 0.07814,-0.065 0.140962,-0.13788 0.192481,-0.2134 0.05401,-0.0792 0.09623,-0.16218 0.130195,-0.24304 0.07353,-0.17505 0.118008,-0.36578 0.14897,-0.50295 0.01224,-0.0575 0.02261,-0.11247 0.03171,-0.16578 0.04666,-0.27314 0.06741,-0.55147 0.08163,-0.76379 0.02297,-0.34302 0.03533,-0.6101 0.07339,-0.90418 0.0018,-0.0133 0.0024,-0.0235 0.0026,-0.032 2.37e-4,-0.009 1.28e-4,-0.0169 -1.56e-4,-0.0247 -5.51e-4,-0.015 -0.0019,-0.0303 -0.0035,-0.0451 -0.0031,-0.0281 -0.0073,-0.0557 -0.01122,-0.0823 -0.0017,-0.0117 -0.0032,-0.0225 -0.0042,-0.0311 -3.55e-4,-0.003 -6.24e-4,-0.006 -7.99e-4,-0.008 -2.45e-4,-0.003 -3.03e-4,-0.006 -5.1e-5,-0.005 7.9e-5,3.2e-4 5.57e-4,0.004 1.83e-4,0.0105 -1.8e-4,0.003 -6.39e-4,0.009 -0.002,0.0159 -0.0012,0.007 -0.0038,0.0175 -0.0094,0.0306 -0.0054,0.0125 -0.01611,0.0324 -0.03636,0.0512 -0.01031,0.01 -0.02295,0.0187 -0.03803,0.026 -0.01506,0.007 -0.03101,0.0121 -0.04718,0.0143 -0.01591,0.002 -0.03062,0.002 -0.04349,-2.1e-4 -0.01265,-0.002 -0.02349,-0.005 -0.03224,-0.008 -0.01675,-0.006 -0.02878,-0.0142 -0.03565,-0.0192 -0.01185,-0.009 -0.02353,-0.0179 -0.03255,-0.0295 -0.009,-0.0116 -0.01504,-0.0252 -0.02047,-0.0388 0.01515,0.0381 0.02374,0.0795 0.02644,0.12776 0.0026,0.0461 -2.94e-4,0.0959 -0.0067,0.15469 -0.006,0.0555 -0.01507,0.11654 -0.02204,0.18289 -0.0067,0.064 -0.01158,0.13533 -0.0068,0.20924 0.01839,0.97765 -0.0043,1.98643 0.0086,2.90115 0.01827,0.83284 0.09708,1.46208 0.157238,1.85572 a 0.15779768,0.15779768 90 0 0 0.311974,-0.0477 c -0.05854,-0.38305 -0.13417,-0.99915 -0.150479,-1.81354 -0.01164,-0.90597 0.01215,-1.9146 -0.0064,-2.90904 -0.0034,-0.0551 -4.6e-4,-0.10586 0.0054,-0.16233 0.0062,-0.059 0.01552,-0.12323 0.0217,-0.18226 0.007,-0.0667 0.01162,-0.13635 0.0072,-0.20787 -0.0048,-0.0772 -0.01987,-0.15359 -0.05065,-0.22867 -0.0056,-0.0136 -0.01163,-0.0271 -0.0206,-0.0387 -0.009,-0.0116 -0.02058,-0.0209 -0.03242,-0.0296 -0.0087,-0.006 -0.02244,-0.0153 -0.04071,-0.0221 -0.0095,-0.004 -0.02107,-0.007 -0.03441,-0.009 -0.01356,-0.002 -0.02892,-0.002 -0.04543,-2.4e-4 -0.01678,0.002 -0.03331,0.007 -0.04891,0.0148 -0.01562,0.008 -0.02876,0.017 -0.03954,0.027 -0.02119,0.0197 -0.03267,0.0408 -0.03876,0.0548 -0.0063,0.0146 -0.0094,0.0275 -0.01107,0.0361 -0.0017,0.009 -0.0025,0.0172 -0.0029,0.0232 -7.29e-4,0.0121 -2.18e-4,0.0227 3.27e-4,0.0301 7.4e-4,0.01 0.002,0.0193 0.0032,0.0271 8.05e-4,0.005 0.0017,0.0104 0.0026,0.0154 0.0024,0.0133 0.0053,0.0271 0.0081,0.0394 0.0061,0.0279 0.01229,0.0536 0.0166,0.0728 0.0023,0.0104 0.0041,0.0189 0.0053,0.0238 6.07e-4,0.003 0.0011,0.004 0.0015,0.004 4.42e-4,6e-5 7.14e-4,-0.001 0.0016,-0.006 -0.03272,0.3045 -0.03927,0.58418 -0.05663,0.92013 -0.01099,0.2127 -0.02786,0.47634 -0.07072,0.73539 -0.0083,0.0501 -0.01775,0.1014 -0.02864,0.15358 -0.02987,0.13662 -0.06972,0.30509 -0.133415,0.45531 -0.0289,0.0682 -0.06324,0.13412 -0.105096,0.19465 -0.03975,0.0575 -0.08646,0.11035 -0.142436,0.15615 -0.03549,0.0286 -0.07579,0.0497 -0.120034,0.0635 -0.04325,0.0135 -0.09071,0.0202 -0.141341,0.0199 -0.09976,-4.6e-4 -0.206559,-0.0278 -0.303041,-0.0739 -0.12994,-0.0521 -0.233728,-0.13619 -0.314105,-0.24251 -0.08202,-0.10849 -0.137143,-0.23681 -0.162381,-0.36683 -0.04822,-0.23677 -0.03992,-0.47477 0.0033,-0.70004 0.04731,-0.24686 0.136144,-0.4772 0.238616,-0.6761 0.08669,-0.16091 0.181208,-0.29665 0.280453,-0.40586 0.01058,-0.0116 0.0213,-0.0231 0.03214,-0.0343 0.06202,-0.064 0.127748,-0.1199 0.197323,-0.16618 0.07154,-0.0476 0.146275,-0.0845 0.224489,-0.11007 0.05756,-0.0193 0.114475,-0.0278 0.169988,-0.0284 0.06078,-6.9e-4 0.119736,0.008 0.17462,0.0226 0.152368,0.0405 0.263594,0.12258 0.322159,0.17408 a 0.15641349,0.15641349 90 0 0 0.20659,-0.2349 z"
       id="path-1"
       inkscape:path-effect="#path-effect260;#path-effect262"
       inkscape:original-d="m -15.127811,148.4668 c -1.354534,-1.1281 -2.72413,2.11862 -1.375533,2.75863 1.322168,0.62747 1.268902,-1.70815 1.319674,-2.34609 0.04195,-0.52703 0.04977,-0.26163 0.0028,-0.60382 -0.009,-0.0656 0.05138,0.12514 0.05307,0.19128 0.0043,0.16881 -0.03974,0.33634 -0.03771,0.50519 0.0027,0.22379 0.0059,0.44759 0.007,0.6714 0.0013,0.26303 0,0.52607 0,0.78911 0,0.47703 -0.0084,0.95413 0,1.43109 0.01125,0.63743 0.05896,1.26403 0.15501,1.89376"
       style="fill:#000000;fill-rule:nonzero;stroke:none" />
  </g>
</svg>
