<?xml version="1.0" encoding="UTF-8" standalone="no"?>
<!-- Created with Inkscape (http://www.inkscape.org/) -->

<svg
   width="4mm"
   height="10mm"
   viewBox="0 0 4.0000001 9.9999994"
   version="1.1"
   id="svg1681"
   inkscape:version="1.2.1 (9c6d41e410, 2022-07-14)"
   sodipodi:docname="upper_m_7.svg"
   inkscape:export-filename="..\..\..\..\Downloads\lower a diff canvas resize 3.0.png"
   inkscape:export-xdpi="96"
   inkscape:export-ydpi="96"
   xmlns:inkscape="http://www.inkscape.org/namespaces/inkscape"
   xmlns:sodipodi="http://sodipodi.sourceforge.net/DTD/sodipodi-0.dtd"
   xmlns="http://www.w3.org/2000/svg"
   xmlns:svg="http://www.w3.org/2000/svg"
   xmlns:rdf="http://www.w3.org/1999/02/22-rdf-syntax-ns#"
   xmlns:cc="http://creativecommons.org/ns#"
   xmlns:dc="http://purl.org/dc/elements/1.1/">
  <defs
     id="defs1675">
    <inkscape:path-effect
       effect="powerstroke"
       id="path-effect562"
       is_visible="true"
       lpeversion="1"
       offset_points="1.2215952,0.13045992 | 5.4946638,0.14499392"
       not_jump="true"
       sort_points="true"
       interpolator_type="CentripetalCatmullRom"
       interpolator_beta="0.75"
       start_linecap_type="round"
       linejoin_type="spiro"
       miter_limit="4"
       scale_width="1"
       end_linecap_type="round" />
    <inkscape:path-effect
       effect="simplify"
       id="path-effect560"
       is_visible="true"
       lpeversion="1"
       steps="1"
       threshold="0.0047745358"
       smooth_angles="0"
       helper_size="0"
       simplify_individual_paths="false"
       simplify_just_coalesce="false"
       step="1" />
    <inkscape:path-effect
       effect="powerstroke"
       id="path-effect507"
       is_visible="true"
       lpeversion="1"
       offset_points="1.918116,0.13772692"
       not_jump="true"
       sort_points="true"
       interpolator_type="CentripetalCatmullRom"
       interpolator_beta="0.75"
       start_linecap_type="round"
       linejoin_type="spiro"
       miter_limit="4"
       scale_width="1"
       end_linecap_type="round" />
    <inkscape:path-effect
       effect="simplify"
       id="path-effect505"
       is_visible="true"
       lpeversion="1"
       steps="1"
       threshold="0.0047745358"
       smooth_angles="0"
       helper_size="0"
       simplify_individual_paths="false"
       simplify_just_coalesce="false"
       step="1" />
    <inkscape:path-effect
       effect="powerstroke"
       id="path-effect454"
       is_visible="true"
       lpeversion="1"
       offset_points="1.5756302,0.11627197 | 4.755176,0.13772692"
       not_jump="true"
       sort_points="true"
       interpolator_type="CentripetalCatmullRom"
       interpolator_beta="0.75"
       start_linecap_type="round"
       linejoin_type="spiro"
       miter_limit="4"
       scale_width="1"
       end_linecap_type="round" />
    <inkscape:path-effect
       effect="simplify"
       id="path-effect452"
       is_visible="true"
       lpeversion="1"
       steps="1"
       threshold="0.0047745358"
       smooth_angles="0"
       helper_size="0"
       simplify_individual_paths="false"
       simplify_just_coalesce="false"
       step="1" />
    <inkscape:path-effect
       effect="powerstroke"
       id="path-effect403"
       is_visible="true"
       lpeversion="1"
       offset_points="1.457577,0.12111664 | 5.233177,0.15053068 | 7.7732484,0.13288225"
       not_jump="true"
       sort_points="true"
       interpolator_type="CentripetalCatmullRom"
       interpolator_beta="0.75"
       start_linecap_type="round"
       linejoin_type="spiro"
       miter_limit="4"
       scale_width="1"
       end_linecap_type="round" />
    <inkscape:path-effect
       effect="simplify"
       id="path-effect401"
       is_visible="true"
       lpeversion="1"
       steps="1"
       threshold="0.0047745358"
       smooth_angles="0"
       helper_size="0"
       simplify_individual_paths="false"
       simplify_just_coalesce="false"
       step="1" />
    <inkscape:path-effect
       effect="powerstroke"
       id="path-effect354"
       is_visible="true"
       lpeversion="1"
       offset_points="2.2765321,0.10865893 | 4.9415083,0.12838364"
       not_jump="true"
       sort_points="true"
       interpolator_type="CentripetalCatmullRom"
       interpolator_beta="0.75"
       start_linecap_type="round"
       linejoin_type="spiro"
       miter_limit="4"
       scale_width="1"
       end_linecap_type="round" />
    <inkscape:path-effect
       effect="simplify"
       id="path-effect352"
       is_visible="true"
       lpeversion="1"
       steps="1"
       threshold="0.0047745358"
       smooth_angles="0"
       helper_size="0"
       simplify_individual_paths="false"
       simplify_just_coalesce="false"
       step="1" />
    <inkscape:path-effect
       effect="powerstroke"
       id="path-effect307"
       is_visible="true"
       lpeversion="1"
       offset_points="1.7693549,0.11973245 | 5.9608865,0.10000774"
       not_jump="true"
       sort_points="true"
       interpolator_type="CentripetalCatmullRom"
       interpolator_beta="0.75"
       start_linecap_type="round"
       linejoin_type="spiro"
       miter_limit="4"
       scale_width="1"
       end_linecap_type="round" />
    <inkscape:path-effect
       effect="simplify"
       id="path-effect305"
       is_visible="true"
       lpeversion="1"
       steps="1"
       threshold="0.0047745358"
       smooth_angles="0"
       helper_size="0"
       simplify_individual_paths="false"
       simplify_just_coalesce="false"
       step="1" />
    <inkscape:path-effect
       effect="powerstroke"
       id="path-effect262"
       is_visible="true"
       lpeversion="1"
       offset_points="1.5334011,0.16748701 | 5.5892239,0.23392813"
       not_jump="true"
       sort_points="true"
       interpolator_type="CentripetalCatmullRom"
       interpolator_beta="0.75"
       start_linecap_type="round"
       linejoin_type="spiro"
       miter_limit="4"
       scale_width="1"
       end_linecap_type="round" />
    <inkscape:path-effect
       effect="simplify"
       id="path-effect260"
       is_visible="true"
       lpeversion="1"
       steps="1"
       threshold="0.0047745358"
       smooth_angles="0"
       helper_size="0"
       simplify_individual_paths="false"
       simplify_just_coalesce="false"
       step="1" />
    <inkscape:path-effect
       effect="powerstroke"
       id="path-effect106"
       is_visible="true"
       lpeversion="1"
       offset_points="1.6883851,0.13608109 | 3.7857891,0.1878262"
       not_jump="true"
       sort_points="true"
       interpolator_type="CentripetalCatmullRom"
       interpolator_beta="0.75"
       start_linecap_type="round"
       linejoin_type="spiro"
       miter_limit="4"
       scale_width="1"
       end_linecap_type="round" />
    <inkscape:path-effect
       effect="simplify"
       id="path-effect104"
       is_visible="true"
       lpeversion="1"
       steps="1"
       threshold="0.0035951417"
       smooth_angles="0"
       helper_size="0"
       simplify_individual_paths="false"
       simplify_just_coalesce="false"
       step="1" />
    <inkscape:path-effect
       effect="powerstroke"
       id="path-effect99"
       is_visible="true"
       lpeversion="1"
       offset_points="1.7542629,0.074582291 | 8.0398341,0.10350495"
       not_jump="true"
       sort_points="true"
       interpolator_type="CentripetalCatmullRom"
       interpolator_beta="0.75"
       start_linecap_type="round"
       linejoin_type="spiro"
       miter_limit="4"
       scale_width="1"
       end_linecap_type="round" />
    <inkscape:path-effect
       effect="simplify"
       id="path-effect97"
       is_visible="true"
       lpeversion="1"
       steps="1"
       threshold="0.0035951417"
       smooth_angles="0"
       helper_size="0"
       simplify_individual_paths="false"
       simplify_just_coalesce="false"
       step="1" />
    <inkscape:path-effect
       effect="powerstroke"
       id="path-effect502"
       is_visible="true"
       lpeversion="1"
       offset_points="3.0091841,0.21607495 | 7.3602657,0.17554228 | 9.4159651,0.20236537"
       not_jump="true"
       sort_points="true"
       interpolator_type="CentripetalCatmullRom"
       interpolator_beta="0.75"
       start_linecap_type="round"
       linejoin_type="spiro"
       miter_limit="4"
       scale_width="1"
       end_linecap_type="round" />
    <inkscape:path-effect
       effect="simplify"
       id="path-effect500"
       is_visible="true"
       lpeversion="1"
       steps="1"
       threshold="0.0035951417"
       smooth_angles="0"
       helper_size="0"
       simplify_individual_paths="false"
       simplify_just_coalesce="false"
       step="1" />
    <inkscape:path-effect
       effect="powerstroke"
       id="path-effect241"
       is_visible="true"
       lpeversion="1"
       offset_points="2.6879454,0.34086734"
       not_jump="true"
       sort_points="true"
       interpolator_type="CentripetalCatmullRom"
       interpolator_beta="0.75"
       start_linecap_type="round"
       linejoin_type="spiro"
       miter_limit="4"
       scale_width="1"
       end_linecap_type="round" />
    <inkscape:path-effect
       effect="simplify"
       id="path-effect239"
       is_visible="true"
       lpeversion="1"
       steps="1"
       threshold="0.0028332064"
       smooth_angles="0"
       helper_size="0"
       simplify_individual_paths="false"
       simplify_just_coalesce="false"
       step="1" />
    <inkscape:path-effect
       effect="powerstroke"
       id="path-effect234"
       is_visible="true"
       lpeversion="1"
       offset_points="2.13563,0.075169555"
       not_jump="true"
       sort_points="true"
       interpolator_type="CentripetalCatmullRom"
       interpolator_beta="0.75"
       start_linecap_type="round"
       linejoin_type="spiro"
       miter_limit="4"
       scale_width="1"
       end_linecap_type="round" />
    <inkscape:path-effect
       effect="simplify"
       id="path-effect232"
       is_visible="true"
       lpeversion="1"
       steps="1"
       threshold="0.0028332064"
       smooth_angles="0"
       helper_size="0"
       simplify_individual_paths="false"
       simplify_just_coalesce="false"
       step="1" />
    <inkscape:path-effect
       effect="powerstroke"
       id="path-effect227"
       is_visible="true"
       lpeversion="1"
       offset_points="2.1868266,0.075169555"
       not_jump="true"
       sort_points="true"
       interpolator_type="CentripetalCatmullRom"
       interpolator_beta="0.75"
       start_linecap_type="round"
       linejoin_type="spiro"
       miter_limit="4"
       scale_width="1"
       end_linecap_type="round" />
    <inkscape:path-effect
       effect="simplify"
       id="path-effect225"
       is_visible="true"
       lpeversion="1"
       steps="1"
       threshold="0.0028332064"
       smooth_angles="0"
       helper_size="0"
       simplify_individual_paths="false"
       simplify_just_coalesce="false"
       step="1" />
    <inkscape:path-effect
       effect="powerstroke"
       id="path-effect166"
       is_visible="true"
       lpeversion="1"
       offset_points="1.9637935,0.075169555"
       not_jump="true"
       sort_points="true"
       interpolator_type="CentripetalCatmullRom"
       interpolator_beta="0.75"
       start_linecap_type="round"
       linejoin_type="spiro"
       miter_limit="4"
       scale_width="1"
       end_linecap_type="round" />
    <inkscape:path-effect
       effect="simplify"
       id="path-effect164"
       is_visible="true"
       lpeversion="1"
       steps="1"
       threshold="0.0028332064"
       smooth_angles="0"
       helper_size="0"
       simplify_individual_paths="false"
       simplify_just_coalesce="false"
       step="1" />
    <inkscape:path-effect
       effect="powerstroke"
       id="path-effect159"
       is_visible="true"
       lpeversion="1"
       offset_points="2.2611036,0.075169555"
       not_jump="true"
       sort_points="true"
       interpolator_type="CentripetalCatmullRom"
       interpolator_beta="0.75"
       start_linecap_type="round"
       linejoin_type="spiro"
       miter_limit="4"
       scale_width="1"
       end_linecap_type="round" />
    <inkscape:path-effect
       effect="simplify"
       id="path-effect157"
       is_visible="true"
       lpeversion="1"
       steps="1"
       threshold="0.0028332064"
       smooth_angles="0"
       helper_size="0"
       simplify_individual_paths="false"
       simplify_just_coalesce="false"
       step="1" />
    <inkscape:path-effect
       effect="powerstroke"
       id="path-effect152"
       is_visible="true"
       lpeversion="1"
       offset_points="2.826981,0.075169555"
       not_jump="true"
       sort_points="true"
       interpolator_type="CentripetalCatmullRom"
       interpolator_beta="0.75"
       start_linecap_type="round"
       linejoin_type="spiro"
       miter_limit="4"
       scale_width="1"
       end_linecap_type="round" />
    <inkscape:path-effect
       effect="simplify"
       id="path-effect150"
       is_visible="true"
       lpeversion="1"
       steps="1"
       threshold="0.0028332064"
       smooth_angles="0"
       helper_size="0"
       simplify_individual_paths="false"
       simplify_just_coalesce="false"
       step="1" />
    <inkscape:path-effect
       effect="powerstroke"
       id="path-effect145"
       is_visible="true"
       lpeversion="1"
       offset_points="3.8374447,0.075169555"
       not_jump="true"
       sort_points="true"
       interpolator_type="CentripetalCatmullRom"
       interpolator_beta="0.75"
       start_linecap_type="round"
       linejoin_type="spiro"
       miter_limit="4"
       scale_width="1"
       end_linecap_type="round" />
    <inkscape:path-effect
       effect="simplify"
       id="path-effect143"
       is_visible="true"
       lpeversion="1"
       steps="1"
       threshold="0.0028332064"
       smooth_angles="0"
       helper_size="0"
       simplify_individual_paths="false"
       simplify_just_coalesce="false"
       step="1" />
    <inkscape:path-effect
       effect="powerstroke"
       id="path-effect138"
       is_visible="true"
       lpeversion="1"
       offset_points="2.6880907,0.075169555"
       not_jump="true"
       sort_points="true"
       interpolator_type="CentripetalCatmullRom"
       interpolator_beta="0.75"
       start_linecap_type="round"
       linejoin_type="spiro"
       miter_limit="4"
       scale_width="1"
       end_linecap_type="round" />
    <inkscape:path-effect
       effect="simplify"
       id="path-effect136"
       is_visible="true"
       lpeversion="1"
       steps="1"
       threshold="0.0028332064"
       smooth_angles="0"
       helper_size="0"
       simplify_individual_paths="false"
       simplify_just_coalesce="false"
       step="1" />
    <inkscape:path-effect
       effect="powerstroke"
       id="path-effect131"
       is_visible="true"
       lpeversion="1"
       offset_points="1.9940581,0.075169555"
       not_jump="true"
       sort_points="true"
       interpolator_type="CentripetalCatmullRom"
       interpolator_beta="0.75"
       start_linecap_type="round"
       linejoin_type="spiro"
       miter_limit="4"
       scale_width="1"
       end_linecap_type="round" />
    <inkscape:path-effect
       effect="simplify"
       id="path-effect129"
       is_visible="true"
       lpeversion="1"
       steps="1"
       threshold="0.0028332064"
       smooth_angles="0"
       helper_size="0"
       simplify_individual_paths="false"
       simplify_just_coalesce="false"
       step="1" />
  </defs>
  <sodipodi:namedview
     id="base"
     pagecolor="#ffffff"
     bordercolor="#666666"
     borderopacity="1.0"
     inkscape:pageopacity="0.0"
     inkscape:pageshadow="2"
     inkscape:zoom="11.2"
     inkscape:cx="-1.3839286"
     inkscape:cy="14.910714"
     inkscape:document-units="mm"
     inkscape:current-layer="layer1"
     showgrid="false"
     fit-margin-top="0"
     fit-margin-left="0"
     fit-margin-right="0"
     fit-margin-bottom="0"
     inkscape:window-width="1920"
     inkscape:window-height="1057"
     inkscape:window-x="1072"
     inkscape:window-y="321"
     inkscape:window-maximized="1"
     showguides="true"
     inkscape:guide-bbox="true"
     inkscape:snap-bbox="true"
     inkscape:bbox-nodes="true"
     inkscape:snap-nodes="false"
     inkscape:snap-others="false"
     inkscape:snap-page="true"
     inkscape:snap-grids="false"
     inkscape:snap-to-guides="false"
     inkscape:snap-global="false"
     inkscape:pagecheckerboard="0"
     inkscape:showpageshadow="2"
     inkscape:deskcolor="#d1d1d1">
    <sodipodi:guide
       position="-6.1806075,9.4988692"
       orientation="0,1"
       id="guide816"
       inkscape:locked="false" />
    <sodipodi:guide
       position="-4.4101636,10.646923"
       orientation="0,1"
       id="guide818"
       inkscape:locked="false" />
    <sodipodi:guide
       position="2.7595724,11.09577"
       orientation="1,0"
       id="guide820"
       inkscape:locked="false" />
    <sodipodi:guide
       position="3.6572659,10.942217"
       orientation="1,0"
       id="guide822"
       inkscape:locked="false" />
    <sodipodi:guide
       position="-0.051625511,9.7492299"
       orientation="1,0"
       id="guide1853"
       inkscape:locked="false" />
    <sodipodi:guide
       position="-2.3720169,3.0175835"
       orientation="0,1"
       id="guide1855"
       inkscape:locked="false" />
  </sodipodi:namedview>
  <metadata
     id="metadata1678">
    <rdf:RDF>
      <cc:Work
         rdf:about="">
        <dc:format>image/svg+xml</dc:format>
        <dc:type
           rdf:resource="http://purl.org/dc/dcmitype/StillImage" />
      </cc:Work>
    </rdf:RDF>
  </metadata>
  <g
     inkscape:label="Layer 1"
     inkscape:groupmode="layer"
     id="layer1"
     transform="translate(17.028496,-147.22856)">
    <path
       d="m -16.731989,153.77573 c 0.02337,-0.62146 0.103749,-2.01754 0.585393,-3.5248 0.01892,-0.0512 0.03929,-0.10861 0.06002,-0.16593 0.02382,-0.0659 0.05042,-0.13803 0.07921,-0.20856 0.04478,-0.10969 0.09866,-0.22514 0.169254,-0.33204 0.0022,-0.002 0.0035,-0.004 0.004,-0.004 5.91e-4,-4e-4 -0.001,0.001 -0.0061,0.004 -0.005,0.003 -0.01356,0.006 -0.0248,0.007 -0.01162,0.001 -0.02407,6.9e-4 -0.03622,-0.003 -0.01177,-0.003 -0.02087,-0.008 -0.02723,-0.0131 -0.0061,-0.004 -0.0098,-0.008 -0.01142,-0.0105 -0.0029,-0.003 -0.0017,-0.003 0.001,0.005 0.0025,0.007 0.0052,0.0168 0.0075,0.0293 0.0022,0.0121 0.0037,0.0252 0.0043,0.0381 6.24e-4,0.0128 3.38e-4,0.0244 -5.58e-4,0.0334 -8.55e-4,0.009 -0.0027,0.0143 -0.0018,0.0109 l -0.0059,0.0554 c 0.02869,0.30524 0.08553,0.60596 0.150502,0.91855 0.03467,0.14489 0.06992,0.29993 0.117348,0.44945 0.0468,0.14753 0.107312,0.29622 0.195813,0.43497 0.01143,0.0225 0.02527,0.043 0.0402,0.0612 0.0171,0.0209 0.03639,0.0398 0.05687,0.0563 0.03964,0.032 0.0877,0.0585 0.139752,0.0728 0.03017,0.008 0.06013,0.0123 0.0919,0.0111 0.03102,-0.001 0.06459,-0.008 0.09772,-0.0227 0.03263,-0.0149 0.06235,-0.037 0.087,-0.0663 0.02384,-0.0283 0.04107,-0.0611 0.05268,-0.0962 0.03278,-0.11555 0.05204,-0.22636 0.06799,-0.33992 0.01494,-0.10637 0.02663,-0.21296 0.0426,-0.31641 0.05227,-0.43873 0.122237,-0.88058 0.276614,-1.29422 0.0041,-0.0101 0.01021,-0.0265 0.01566,-0.0412 0.0058,-0.0156 0.01167,-0.0312 0.01801,-0.0471 0.0132,-0.0329 0.0258,-0.0595 0.0376,-0.0777 0.0053,-0.008 0.0096,-0.0126 0.009,-0.0121 -2.68e-4,2.5e-4 -0.0018,0.002 -0.0053,0.004 -0.0035,0.002 -0.0091,0.005 -0.01658,0.007 -0.0077,0.002 -0.01653,0.004 -0.0259,0.003 -0.0094,-2.6e-4 -0.01747,-0.002 -0.02382,-0.004 -0.01233,-0.004 -0.0142,-0.008 -0.0092,-0.003 l -0.01253,-0.0144 c 0.01677,0.022 0.02901,0.0474 0.03839,0.0781 0.0098,0.0319 0.016,0.0681 0.02124,0.11093 0.0053,0.043 0.0091,0.0906 0.01582,0.14127 0.0065,0.0494 0.01592,0.10283 0.0333,0.15651 0.230094,0.97701 0.531236,2.03569 0.750642,2.82871 0.09657,0.33713 0.171299,0.57391 0.236084,0.76676 a 0.14499392,0.14499392 90 0 0 0.274892,-0.0923 c -0.0631,-0.18785 -0.13649,-0.42122 -0.231114,-0.7531 -0.220241,-0.79711 -0.519708,-1.85132 -0.748007,-2.82302 -0.001,-0.004 -0.0023,-0.009 -0.0037,-0.013 -0.01022,-0.0306 -0.01706,-0.0656 -0.02263,-0.10842 -0.0054,-0.0412 -0.0091,-0.0877 -0.01526,-0.13856 -0.0059,-0.049 -0.01454,-0.10484 -0.03162,-0.16096 -0.01712,-0.0563 -0.0432,-0.11457 -0.08511,-0.16979 -0.0039,-0.005 -0.008,-0.01 -0.01253,-0.0144 -0.0265,-0.0268 -0.0598,-0.052 -0.100934,-0.0666 -0.0208,-0.007 -0.04296,-0.0118 -0.066,-0.0124 -0.02302,-6.3e-4 -0.04509,0.003 -0.06568,0.009 -0.02037,0.006 -0.03839,0.0147 -0.054,0.0244 -0.01551,0.01 -0.02894,0.0204 -0.04045,0.0312 -0.02259,0.0211 -0.04048,0.0447 -0.05449,0.0663 -0.02759,0.0424 -0.04863,0.0902 -0.06387,0.12811 -0.0079,0.0196 -0.01489,0.0383 -0.02073,0.054 -0.0062,0.0166 -0.01052,0.0283 -0.01416,0.0373 -0.168681,0.45169 -0.241671,0.92246 -0.293592,1.36088 -0.01651,0.10722 -0.0281,0.21482 -0.04204,0.31555 -0.01498,0.10823 -0.03182,0.20424 -0.05723,0.29535 3.28e-4,-0.001 -1.1e-4,-0.002 0.003,-0.006 0.0034,-0.004 0.0086,-0.008 0.01493,-0.0109 0.0059,-0.003 0.01059,-0.003 0.01197,-0.003 0.0014,1e-5 -4.12e-4,2.3e-4 -0.0042,-6.8e-4 -0.0094,-0.002 -0.02233,-0.008 -0.03515,-0.0184 -0.0062,-0.005 -0.01133,-0.01 -0.01528,-0.0145 -0.004,-0.005 -0.006,-0.008 -0.0068,-0.01 -0.0016,-0.003 -0.0031,-0.006 -0.0046,-0.009 -0.0015,-0.003 -0.0032,-0.006 -0.005,-0.009 -0.0733,-0.11184 -0.126649,-0.23717 -0.170757,-0.37284 -0.04454,-0.13701 -0.07807,-0.27927 -0.114252,-0.42493 -0.06443,-0.2981 -0.120026,-0.57924 -0.15041,-0.86106 0.0025,-0.0138 0.004,-0.0273 0.0049,-0.0397 0.0017,-0.0236 0.0015,-0.048 -1.54e-4,-0.0718 -0.0017,-0.0242 -0.005,-0.0491 -0.0099,-0.0733 -0.005,-0.0244 -0.01189,-0.0497 -0.02134,-0.0738 -0.0094,-0.024 -0.0228,-0.0509 -0.0424,-0.0753 -0.01016,-0.0126 -0.02287,-0.0257 -0.03862,-0.0374 -0.01609,-0.0119 -0.03547,-0.0223 -0.05808,-0.0288 -0.02311,-0.007 -0.04707,-0.008 -0.07073,-0.005 -0.02343,0.003 -0.04473,0.0103 -0.06297,0.0196 -0.01829,0.009 -0.03421,0.0208 -0.0479,0.0328 -0.01391,0.0121 -0.02653,0.0256 -0.03802,0.0396 -0.003,0.004 -0.0058,0.007 -0.0084,0.0113 -0.08599,0.13086 -0.148016,0.26806 -0.196016,0.38793 -0.0303,0.0757 -0.05799,0.15222 -0.08168,0.21859 -0.02139,0.0599 -0.04024,0.1136 -0.06074,0.16986 -0.492884,1.54462 -0.575902,2.9624 -0.599857,3.59929 a 0.13045992,0.13045992 90 0 0 0.260736,0.01 z"
       id="path-1"
       inkscape:path-effect="#path-effect560;#path-effect562"
       inkscape:original-d="m -16.862357,153.77083 c 0.04127,-1.15517 0.216155,-2.33305 0.553007,-3.44147 0.03529,-0.11613 0.326769,-0.98531 0.449666,-0.91337 0.09848,0.0576 0.04718,0.22342 0.06424,0.33624 0.03867,0.25575 0.253154,1.84939 0.656345,1.80657 0.107899,-0.0115 0.121723,-0.19202 0.13127,-0.24796 0.08553,-0.50115 0.111184,-1.0159 0.258348,-1.50574 0.117525,-0.39119 0.209218,-0.63126 0.312812,-0.53571 0.124729,0.11505 0.09901,0.32484 0.138252,0.48993 0.04333,0.1823 0.08596,0.36478 0.131269,0.5466 0.03988,0.16007 0.08239,0.31947 0.124287,0.47903 0.1245,0.47417 0.173402,0.65061 0.311415,1.15315 0.135925,0.49494 0.269391,0.99175 0.432909,1.4785"
       style="fill:#000000;fill-rule:nonzero;stroke:none" />
  </g>
</svg>
