<?xml version="1.0" encoding="UTF-8" standalone="no"?>
<!-- Created with Inkscape (http://www.inkscape.org/) -->

<svg
   width="4mm"
   height="10mm"
   viewBox="0 0 4.0000001 9.9999994"
   version="1.1"
   id="svg1681"
   inkscape:version="1.2.1 (9c6d41e410, 2022-07-14)"
   sodipodi:docname="upper_m_2.svg"
   inkscape:export-filename="..\..\..\..\Downloads\lower a diff canvas resize 3.0.png"
   inkscape:export-xdpi="96"
   inkscape:export-ydpi="96"
   xmlns:inkscape="http://www.inkscape.org/namespaces/inkscape"
   xmlns:sodipodi="http://sodipodi.sourceforge.net/DTD/sodipodi-0.dtd"
   xmlns="http://www.w3.org/2000/svg"
   xmlns:svg="http://www.w3.org/2000/svg"
   xmlns:rdf="http://www.w3.org/1999/02/22-rdf-syntax-ns#"
   xmlns:cc="http://creativecommons.org/ns#"
   xmlns:dc="http://purl.org/dc/elements/1.1/">
  <defs
     id="defs1675">
    <inkscape:path-effect
       effect="powerstroke"
       id="path-effect307"
       is_visible="true"
       lpeversion="1"
       offset_points="1.7693549,0.11973245 | 5.9608865,0.10000774"
       not_jump="true"
       sort_points="true"
       interpolator_type="CentripetalCatmullRom"
       interpolator_beta="0.75"
       start_linecap_type="round"
       linejoin_type="spiro"
       miter_limit="4"
       scale_width="1"
       end_linecap_type="round" />
    <inkscape:path-effect
       effect="simplify"
       id="path-effect305"
       is_visible="true"
       lpeversion="1"
       steps="1"
       threshold="0.0047745358"
       smooth_angles="0"
       helper_size="0"
       simplify_individual_paths="false"
       simplify_just_coalesce="false"
       step="1" />
    <inkscape:path-effect
       effect="powerstroke"
       id="path-effect262"
       is_visible="true"
       lpeversion="1"
       offset_points="1.5334011,0.16748701 | 5.5892239,0.23392813"
       not_jump="true"
       sort_points="true"
       interpolator_type="CentripetalCatmullRom"
       interpolator_beta="0.75"
       start_linecap_type="round"
       linejoin_type="spiro"
       miter_limit="4"
       scale_width="1"
       end_linecap_type="round" />
    <inkscape:path-effect
       effect="simplify"
       id="path-effect260"
       is_visible="true"
       lpeversion="1"
       steps="1"
       threshold="0.0047745358"
       smooth_angles="0"
       helper_size="0"
       simplify_individual_paths="false"
       simplify_just_coalesce="false"
       step="1" />
    <inkscape:path-effect
       effect="powerstroke"
       id="path-effect106"
       is_visible="true"
       lpeversion="1"
       offset_points="1.6883851,0.13608109 | 3.7857891,0.1878262"
       not_jump="true"
       sort_points="true"
       interpolator_type="CentripetalCatmullRom"
       interpolator_beta="0.75"
       start_linecap_type="round"
       linejoin_type="spiro"
       miter_limit="4"
       scale_width="1"
       end_linecap_type="round" />
    <inkscape:path-effect
       effect="simplify"
       id="path-effect104"
       is_visible="true"
       lpeversion="1"
       steps="1"
       threshold="0.0035951417"
       smooth_angles="0"
       helper_size="0"
       simplify_individual_paths="false"
       simplify_just_coalesce="false"
       step="1" />
    <inkscape:path-effect
       effect="powerstroke"
       id="path-effect99"
       is_visible="true"
       lpeversion="1"
       offset_points="1.7542629,0.074582291 | 8.0398341,0.10350495"
       not_jump="true"
       sort_points="true"
       interpolator_type="CentripetalCatmullRom"
       interpolator_beta="0.75"
       start_linecap_type="round"
       linejoin_type="spiro"
       miter_limit="4"
       scale_width="1"
       end_linecap_type="round" />
    <inkscape:path-effect
       effect="simplify"
       id="path-effect97"
       is_visible="true"
       lpeversion="1"
       steps="1"
       threshold="0.0035951417"
       smooth_angles="0"
       helper_size="0"
       simplify_individual_paths="false"
       simplify_just_coalesce="false"
       step="1" />
    <inkscape:path-effect
       effect="powerstroke"
       id="path-effect502"
       is_visible="true"
       lpeversion="1"
       offset_points="3.0091841,0.21607495 | 7.3602657,0.17554228 | 9.4159651,0.20236537"
       not_jump="true"
       sort_points="true"
       interpolator_type="CentripetalCatmullRom"
       interpolator_beta="0.75"
       start_linecap_type="round"
       linejoin_type="spiro"
       miter_limit="4"
       scale_width="1"
       end_linecap_type="round" />
    <inkscape:path-effect
       effect="simplify"
       id="path-effect500"
       is_visible="true"
       lpeversion="1"
       steps="1"
       threshold="0.0035951417"
       smooth_angles="0"
       helper_size="0"
       simplify_individual_paths="false"
       simplify_just_coalesce="false"
       step="1" />
    <inkscape:path-effect
       effect="powerstroke"
       id="path-effect241"
       is_visible="true"
       lpeversion="1"
       offset_points="2.6879454,0.34086734"
       not_jump="true"
       sort_points="true"
       interpolator_type="CentripetalCatmullRom"
       interpolator_beta="0.75"
       start_linecap_type="round"
       linejoin_type="spiro"
       miter_limit="4"
       scale_width="1"
       end_linecap_type="round" />
    <inkscape:path-effect
       effect="simplify"
       id="path-effect239"
       is_visible="true"
       lpeversion="1"
       steps="1"
       threshold="0.0028332064"
       smooth_angles="0"
       helper_size="0"
       simplify_individual_paths="false"
       simplify_just_coalesce="false"
       step="1" />
    <inkscape:path-effect
       effect="powerstroke"
       id="path-effect234"
       is_visible="true"
       lpeversion="1"
       offset_points="2.13563,0.075169555"
       not_jump="true"
       sort_points="true"
       interpolator_type="CentripetalCatmullRom"
       interpolator_beta="0.75"
       start_linecap_type="round"
       linejoin_type="spiro"
       miter_limit="4"
       scale_width="1"
       end_linecap_type="round" />
    <inkscape:path-effect
       effect="simplify"
       id="path-effect232"
       is_visible="true"
       lpeversion="1"
       steps="1"
       threshold="0.0028332064"
       smooth_angles="0"
       helper_size="0"
       simplify_individual_paths="false"
       simplify_just_coalesce="false"
       step="1" />
    <inkscape:path-effect
       effect="powerstroke"
       id="path-effect227"
       is_visible="true"
       lpeversion="1"
       offset_points="2.1868266,0.075169555"
       not_jump="true"
       sort_points="true"
       interpolator_type="CentripetalCatmullRom"
       interpolator_beta="0.75"
       start_linecap_type="round"
       linejoin_type="spiro"
       miter_limit="4"
       scale_width="1"
       end_linecap_type="round" />
    <inkscape:path-effect
       effect="simplify"
       id="path-effect225"
       is_visible="true"
       lpeversion="1"
       steps="1"
       threshold="0.0028332064"
       smooth_angles="0"
       helper_size="0"
       simplify_individual_paths="false"
       simplify_just_coalesce="false"
       step="1" />
    <inkscape:path-effect
       effect="powerstroke"
       id="path-effect166"
       is_visible="true"
       lpeversion="1"
       offset_points="1.9637935,0.075169555"
       not_jump="true"
       sort_points="true"
       interpolator_type="CentripetalCatmullRom"
       interpolator_beta="0.75"
       start_linecap_type="round"
       linejoin_type="spiro"
       miter_limit="4"
       scale_width="1"
       end_linecap_type="round" />
    <inkscape:path-effect
       effect="simplify"
       id="path-effect164"
       is_visible="true"
       lpeversion="1"
       steps="1"
       threshold="0.0028332064"
       smooth_angles="0"
       helper_size="0"
       simplify_individual_paths="false"
       simplify_just_coalesce="false"
       step="1" />
    <inkscape:path-effect
       effect="powerstroke"
       id="path-effect159"
       is_visible="true"
       lpeversion="1"
       offset_points="2.2611036,0.075169555"
       not_jump="true"
       sort_points="true"
       interpolator_type="CentripetalCatmullRom"
       interpolator_beta="0.75"
       start_linecap_type="round"
       linejoin_type="spiro"
       miter_limit="4"
       scale_width="1"
       end_linecap_type="round" />
    <inkscape:path-effect
       effect="simplify"
       id="path-effect157"
       is_visible="true"
       lpeversion="1"
       steps="1"
       threshold="0.0028332064"
       smooth_angles="0"
       helper_size="0"
       simplify_individual_paths="false"
       simplify_just_coalesce="false"
       step="1" />
    <inkscape:path-effect
       effect="powerstroke"
       id="path-effect152"
       is_visible="true"
       lpeversion="1"
       offset_points="2.826981,0.075169555"
       not_jump="true"
       sort_points="true"
       interpolator_type="CentripetalCatmullRom"
       interpolator_beta="0.75"
       start_linecap_type="round"
       linejoin_type="spiro"
       miter_limit="4"
       scale_width="1"
       end_linecap_type="round" />
    <inkscape:path-effect
       effect="simplify"
       id="path-effect150"
       is_visible="true"
       lpeversion="1"
       steps="1"
       threshold="0.0028332064"
       smooth_angles="0"
       helper_size="0"
       simplify_individual_paths="false"
       simplify_just_coalesce="false"
       step="1" />
    <inkscape:path-effect
       effect="powerstroke"
       id="path-effect145"
       is_visible="true"
       lpeversion="1"
       offset_points="3.8374447,0.075169555"
       not_jump="true"
       sort_points="true"
       interpolator_type="CentripetalCatmullRom"
       interpolator_beta="0.75"
       start_linecap_type="round"
       linejoin_type="spiro"
       miter_limit="4"
       scale_width="1"
       end_linecap_type="round" />
    <inkscape:path-effect
       effect="simplify"
       id="path-effect143"
       is_visible="true"
       lpeversion="1"
       steps="1"
       threshold="0.0028332064"
       smooth_angles="0"
       helper_size="0"
       simplify_individual_paths="false"
       simplify_just_coalesce="false"
       step="1" />
    <inkscape:path-effect
       effect="powerstroke"
       id="path-effect138"
       is_visible="true"
       lpeversion="1"
       offset_points="2.6880907,0.075169555"
       not_jump="true"
       sort_points="true"
       interpolator_type="CentripetalCatmullRom"
       interpolator_beta="0.75"
       start_linecap_type="round"
       linejoin_type="spiro"
       miter_limit="4"
       scale_width="1"
       end_linecap_type="round" />
    <inkscape:path-effect
       effect="simplify"
       id="path-effect136"
       is_visible="true"
       lpeversion="1"
       steps="1"
       threshold="0.0028332064"
       smooth_angles="0"
       helper_size="0"
       simplify_individual_paths="false"
       simplify_just_coalesce="false"
       step="1" />
    <inkscape:path-effect
       effect="powerstroke"
       id="path-effect131"
       is_visible="true"
       lpeversion="1"
       offset_points="1.9940581,0.075169555"
       not_jump="true"
       sort_points="true"
       interpolator_type="CentripetalCatmullRom"
       interpolator_beta="0.75"
       start_linecap_type="round"
       linejoin_type="spiro"
       miter_limit="4"
       scale_width="1"
       end_linecap_type="round" />
    <inkscape:path-effect
       effect="simplify"
       id="path-effect129"
       is_visible="true"
       lpeversion="1"
       steps="1"
       threshold="0.0028332064"
       smooth_angles="0"
       helper_size="0"
       simplify_individual_paths="false"
       simplify_just_coalesce="false"
       step="1" />
  </defs>
  <sodipodi:namedview
     id="base"
     pagecolor="#ffffff"
     bordercolor="#666666"
     borderopacity="1.0"
     inkscape:pageopacity="0.0"
     inkscape:pageshadow="2"
     inkscape:zoom="11.2"
     inkscape:cx="-1.3839286"
     inkscape:cy="14.910714"
     inkscape:document-units="mm"
     inkscape:current-layer="layer1"
     showgrid="false"
     fit-margin-top="0"
     fit-margin-left="0"
     fit-margin-right="0"
     fit-margin-bottom="0"
     inkscape:window-width="1920"
     inkscape:window-height="1057"
     inkscape:window-x="1072"
     inkscape:window-y="321"
     inkscape:window-maximized="1"
     showguides="true"
     inkscape:guide-bbox="true"
     inkscape:snap-bbox="true"
     inkscape:bbox-nodes="true"
     inkscape:snap-nodes="false"
     inkscape:snap-others="false"
     inkscape:snap-page="true"
     inkscape:snap-grids="false"
     inkscape:snap-to-guides="false"
     inkscape:snap-global="false"
     inkscape:pagecheckerboard="0"
     inkscape:showpageshadow="2"
     inkscape:deskcolor="#d1d1d1">
    <sodipodi:guide
       position="-6.1806075,9.4988692"
       orientation="0,1"
       id="guide816"
       inkscape:locked="false" />
    <sodipodi:guide
       position="-4.4101636,10.646923"
       orientation="0,1"
       id="guide818"
       inkscape:locked="false" />
    <sodipodi:guide
       position="2.7595724,11.09577"
       orientation="1,0"
       id="guide820"
       inkscape:locked="false" />
    <sodipodi:guide
       position="3.6572659,10.942217"
       orientation="1,0"
       id="guide822"
       inkscape:locked="false" />
    <sodipodi:guide
       position="-0.051625511,9.7492299"
       orientation="1,0"
       id="guide1853"
       inkscape:locked="false" />
    <sodipodi:guide
       position="-2.3720169,3.0175835"
       orientation="0,1"
       id="guide1855"
       inkscape:locked="false" />
  </sodipodi:namedview>
  <metadata
     id="metadata1678">
    <rdf:RDF>
      <cc:Work
         rdf:about="">
        <dc:format>image/svg+xml</dc:format>
        <dc:type
           rdf:resource="http://purl.org/dc/dcmitype/StillImage" />
      </cc:Work>
    </rdf:RDF>
  </metadata>
  <g
     inkscape:label="Layer 1"
     inkscape:groupmode="layer"
     id="layer1"
     transform="translate(17.028496,-147.22856)">
    <path
       d="m -16.984221,154.1294 c 0.157338,-0.44009 0.23912,-0.81629 0.394123,-1.59591 0.09282,-0.46684 0.206266,-1.03072 0.415884,-1.54689 0.0941,-0.22624 0.209831,-0.46911 0.310269,-0.71704 0.02894,-0.0714 0.05787,-0.14652 0.08517,-0.22416 0.0017,-0.004 0.0046,-0.0117 0.0085,-0.0215 0.0042,-0.0107 0.0091,-0.023 0.01442,-0.0359 0.0052,-0.0126 0.01062,-0.0255 0.01601,-0.0378 0.0054,-0.0122 0.01027,-0.0228 0.01456,-0.0313 0.0021,-0.004 0.0037,-0.007 0.005,-0.01 0.0012,-0.002 0.0017,-0.003 7.06e-4,-0.002 -0.0011,0.001 -0.0031,0.005 -0.0137,0.0133 -0.0046,0.004 -0.01358,0.0101 -0.02647,0.0153 -0.0067,0.003 -0.01518,0.005 -0.02522,0.007 -0.01015,0.001 -0.02176,0.002 -0.03421,-3e-4 -0.01255,-0.002 -0.02457,-0.006 -0.03556,-0.0122 -0.01086,-0.006 -0.01961,-0.013 -0.02646,-0.02 -0.01316,-0.0135 -0.01969,-0.0272 -0.02278,-0.035 -0.0068,-0.0172 -0.0058,-0.0229 -0.0058,-0.0249 -3e-6,-3.1e-4 3.2e-4,-0.001 1.34e-4,0.005 -1.4e-4,0.005 -5.99e-4,0.0111 -0.0015,0.02 -6.84e-4,0.006 -0.001,0.0129 -6.64e-4,0.0194 0.01741,0.30829 0.07995,0.59399 0.132064,0.90683 0.04918,0.25832 0.108088,0.52542 0.193793,0.78464 0.08373,0.25326 0.194077,0.50243 0.348879,0.73168 0.01482,0.0287 0.03497,0.0547 0.05631,0.0756 0.0121,0.0119 0.02558,0.0231 0.04011,0.0328 0.01427,0.01 0.03129,0.0188 0.05044,0.025 0.0188,0.006 0.04398,0.0108 0.07198,0.006 0.01431,-0.002 0.02893,-0.007 0.04292,-0.0154 0.01403,-0.008 0.02601,-0.0185 0.03581,-0.0303 0.0097,-0.0118 0.01672,-0.0244 0.02177,-0.0367 0.005,-0.0122 0.0082,-0.0245 0.01026,-0.0363 0.0028,-0.0161 0.0035,-0.0324 0.003,-0.0485 -1.67e-4,-0.005 -4.69e-4,-0.0105 -8.97e-4,-0.0158 0.01006,-0.2784 0.01851,-0.60674 0.04249,-0.91218 0.0229,-0.2917 0.06169,-0.59498 0.138526,-0.89455 0.03043,-0.10558 0.06266,-0.21697 0.109077,-0.31684 0.02253,-0.0485 0.04812,-0.0936 0.07812,-0.13409 0.02958,-0.0399 0.06346,-0.0754 0.103149,-0.10534 0.0033,-0.002 0.0065,-0.005 0.0094,-0.008 0.0084,-0.008 0.01623,-0.012 0.02074,-0.0133 0.0021,-6.1e-4 0.003,-5.3e-4 0.0021,-5.2e-4 -9.45e-4,0 -0.0039,-8e-5 -0.0086,-0.002 -0.0049,-0.002 -0.01103,-0.005 -0.01661,-0.0114 -0.0057,-0.006 -0.0089,-0.0128 -0.01039,-0.0183 -0.0014,-0.005 -8.42e-4,-0.007 -0.001,-0.006 -2.3e-4,0.002 -0.0012,0.007 -0.0047,0.0152 -0.0029,0.007 -0.0049,0.0141 -0.0062,0.0215 -0.0075,0.0454 -0.0083,0.0892 -0.0053,0.13079 0.003,0.0419 0.0099,0.0822 0.01785,0.11976 0.01635,0.0777 0.03676,0.14694 0.04724,0.20783 0.09631,0.40467 0.234078,0.80726 0.350025,1.16356 0.133029,0.4088 0.242338,0.77041 0.308342,1.14544 0.118496,0.59413 0.16818,0.87085 0.299788,1.2274 a 0.10000774,0.10000774 90 0 0 0.187642,-0.0693 c -0.125379,-0.33967 -0.172307,-0.59891 -0.291912,-1.19493 -0.06839,-0.38739 -0.181706,-0.76016 -0.315358,-1.17005 -0.117642,-0.3608 -0.25219,-0.75329 -0.345109,-1.14202 -0.01212,-0.0702 -0.03371,-0.14201 -0.04794,-0.20877 -0.007,-0.0326 -0.01212,-0.0635 -0.01435,-0.0934 -0.0019,-0.026 -0.0016,-0.0508 0.0016,-0.075 0.0064,-0.0177 0.01105,-0.0357 0.0133,-0.0539 0.0028,-0.0225 0.002,-0.0461 -0.0043,-0.0694 -0.0064,-0.0236 -0.01804,-0.0455 -0.03496,-0.0638 -0.01679,-0.0182 -0.0369,-0.0309 -0.05774,-0.0388 -0.02063,-0.008 -0.0417,-0.011 -0.0616,-0.0109 -0.01994,3e-5 -0.0395,0.003 -0.05797,0.009 -0.03494,0.0105 -0.06819,0.0298 -0.0967,0.0563 -0.0545,0.0419 -0.09984,0.09 -0.138066,0.14159 -0.03965,0.0534 -0.07171,0.11057 -0.09852,0.16808 -0.05404,0.11594 -0.09036,0.24225 -0.121028,0.34787 -0.08174,0.31738 -0.122121,0.63292 -0.145947,0.93076 -0.02503,0.31283 -0.03428,0.65075 -0.04498,0.92672 -1.71e-4,0.004 -5e-6,0.009 3.75e-4,0.0132 3.19e-4,0.004 4.7e-4,0.007 5.1e-4,0.009 9e-5,0.006 -4.34e-4,0.008 -4.45e-4,0.008 -8e-6,-2.7e-4 2.76e-4,-0.002 0.0017,-0.006 0.0015,-0.004 0.0041,-0.009 0.0089,-0.0148 0.0049,-0.006 0.01127,-0.0117 0.01921,-0.0163 0.0079,-0.005 0.01593,-0.007 0.02324,-0.009 0.0143,-0.003 0.02273,-7e-5 0.02596,8.6e-4 0.0029,8.2e-4 0.0025,9.4e-4 -2.08e-4,-0.001 -0.0026,-0.002 -0.0061,-0.005 -0.01004,-0.009 -0.0083,-0.009 -0.01465,-0.0188 -0.01724,-0.0256 -0.001,-0.003 -0.0022,-0.005 -0.0037,-0.008 -0.0015,-0.003 -0.0032,-0.005 -0.0049,-0.007 -0.142007,-0.21159 -0.244399,-0.44469 -0.322851,-0.68733 -0.07978,-0.24677 -0.134861,-0.50369 -0.181059,-0.75595 -0.04926,-0.32075 -0.103507,-0.58287 -0.117199,-0.8711 0.001,-0.009 0.0018,-0.0171 0.0024,-0.0249 6.97e-4,-0.0103 0.0011,-0.0214 4.48e-4,-0.0324 -5.12e-4,-0.009 -0.0021,-0.0272 -0.0097,-0.0465 -0.0041,-0.0102 -0.0117,-0.0256 -0.02612,-0.0404 -0.0075,-0.008 -0.01689,-0.0153 -0.02845,-0.0216 -0.0117,-0.006 -0.02445,-0.0108 -0.03776,-0.013 -0.01323,-0.002 -0.02562,-0.002 -0.0366,-3e-4 -0.01087,0.002 -0.02021,0.004 -0.02779,0.007 -0.01468,0.006 -0.02549,0.0135 -0.03214,0.0188 -0.01298,0.0103 -0.02206,0.0215 -0.02692,0.0279 -0.0057,0.007 -0.01056,0.0148 -0.01457,0.0213 -0.0042,0.007 -0.0081,0.0137 -0.01179,0.0204 -0.0074,0.0136 -0.01471,0.0284 -0.0214,0.0426 -0.0069,0.0146 -0.01357,0.0294 -0.01958,0.0431 -0.0062,0.014 -0.01183,0.0272 -0.01652,0.0382 -0.0048,0.0113 -0.0088,0.0207 -0.01125,0.0262 -0.02855,0.079 -0.05653,0.15049 -0.08477,0.21929 -0.09794,0.23858 -0.213852,0.48117 -0.311398,0.71587 -0.219949,0.54173 -0.336845,1.12792 -0.428765,1.59168 -0.154393,0.77895 -0.233171,1.14059 -0.383861,1.56208 a 0.11973245,0.11973245 90 0 0 0.225488,0.0806 z"
       id="path-1"
       inkscape:path-effect="#path-effect305;#path-effect307"
       inkscape:original-d="m -17.096965,154.08909 c 0.330553,-0.9289 0.394154,-1.93202 0.705222,-2.86544 0.101592,-0.30485 0.245802,-0.59631 0.372861,-0.89102 0.07168,-0.16627 0.127823,-0.35753 0.216454,-0.51663 0.01778,-0.0319 0.001,0.0731 0.0042,0.10953 0.01554,0.17954 0.03194,0.28413 0.06005,0.46486 0.08669,0.55737 0.19046,1.13166 0.449667,1.63927 0.123706,0.24225 0.238379,0.37152 0.262538,0.33188 0.0337,-0.0553 0.02341,-0.25709 0.02514,-0.29047 0.01455,-0.28114 0.02401,-0.56277 0.05027,-0.84306 0.03065,-0.32705 0.149987,-1.36501 0.566971,-1.4409 0.07392,-0.0135 0.01247,0.14993 0.02514,0.22398 0.01949,0.11398 0.04419,0.22709 0.07122,0.33952 0.141198,0.58742 0.368398,1.15297 0.527869,1.73572 0.158633,0.57969 0.213163,1.19755 0.421737,1.76188"
       style="fill:#000000;fill-rule:nonzero;stroke:none" />
  </g>
</svg>
