<?xml version="1.0" encoding="UTF-8" standalone="no"?>
<!-- Created with Inkscape (http://www.inkscape.org/) -->

<svg
   width="4mm"
   height="10mm"
   viewBox="0 0 4.0000001 9.9999994"
   version="1.1"
   id="svg1681"
   inkscape:version="1.2.1 (9c6d41e410, 2022-07-14)"
   sodipodi:docname="upper_m_5.svg"
   inkscape:export-filename="..\..\..\..\Downloads\lower a diff canvas resize 3.0.png"
   inkscape:export-xdpi="96"
   inkscape:export-ydpi="96"
   xmlns:inkscape="http://www.inkscape.org/namespaces/inkscape"
   xmlns:sodipodi="http://sodipodi.sourceforge.net/DTD/sodipodi-0.dtd"
   xmlns="http://www.w3.org/2000/svg"
   xmlns:svg="http://www.w3.org/2000/svg"
   xmlns:rdf="http://www.w3.org/1999/02/22-rdf-syntax-ns#"
   xmlns:cc="http://creativecommons.org/ns#"
   xmlns:dc="http://purl.org/dc/elements/1.1/">
  <defs
     id="defs1675">
    <inkscape:path-effect
       effect="powerstroke"
       id="path-effect454"
       is_visible="true"
       lpeversion="1"
       offset_points="1.5756302,0.11627197 | 4.755176,0.13772692"
       not_jump="true"
       sort_points="true"
       interpolator_type="CentripetalCatmullRom"
       interpolator_beta="0.75"
       start_linecap_type="round"
       linejoin_type="spiro"
       miter_limit="4"
       scale_width="1"
       end_linecap_type="round" />
    <inkscape:path-effect
       effect="simplify"
       id="path-effect452"
       is_visible="true"
       lpeversion="1"
       steps="1"
       threshold="0.0047745358"
       smooth_angles="0"
       helper_size="0"
       simplify_individual_paths="false"
       simplify_just_coalesce="false"
       step="1" />
    <inkscape:path-effect
       effect="powerstroke"
       id="path-effect403"
       is_visible="true"
       lpeversion="1"
       offset_points="1.457577,0.12111664 | 5.233177,0.15053068 | 7.7732484,0.13288225"
       not_jump="true"
       sort_points="true"
       interpolator_type="CentripetalCatmullRom"
       interpolator_beta="0.75"
       start_linecap_type="round"
       linejoin_type="spiro"
       miter_limit="4"
       scale_width="1"
       end_linecap_type="round" />
    <inkscape:path-effect
       effect="simplify"
       id="path-effect401"
       is_visible="true"
       lpeversion="1"
       steps="1"
       threshold="0.0047745358"
       smooth_angles="0"
       helper_size="0"
       simplify_individual_paths="false"
       simplify_just_coalesce="false"
       step="1" />
    <inkscape:path-effect
       effect="powerstroke"
       id="path-effect354"
       is_visible="true"
       lpeversion="1"
       offset_points="2.2765321,0.10865893 | 4.9415083,0.12838364"
       not_jump="true"
       sort_points="true"
       interpolator_type="CentripetalCatmullRom"
       interpolator_beta="0.75"
       start_linecap_type="round"
       linejoin_type="spiro"
       miter_limit="4"
       scale_width="1"
       end_linecap_type="round" />
    <inkscape:path-effect
       effect="simplify"
       id="path-effect352"
       is_visible="true"
       lpeversion="1"
       steps="1"
       threshold="0.0047745358"
       smooth_angles="0"
       helper_size="0"
       simplify_individual_paths="false"
       simplify_just_coalesce="false"
       step="1" />
    <inkscape:path-effect
       effect="powerstroke"
       id="path-effect307"
       is_visible="true"
       lpeversion="1"
       offset_points="1.7693549,0.11973245 | 5.9608865,0.10000774"
       not_jump="true"
       sort_points="true"
       interpolator_type="CentripetalCatmullRom"
       interpolator_beta="0.75"
       start_linecap_type="round"
       linejoin_type="spiro"
       miter_limit="4"
       scale_width="1"
       end_linecap_type="round" />
    <inkscape:path-effect
       effect="simplify"
       id="path-effect305"
       is_visible="true"
       lpeversion="1"
       steps="1"
       threshold="0.0047745358"
       smooth_angles="0"
       helper_size="0"
       simplify_individual_paths="false"
       simplify_just_coalesce="false"
       step="1" />
    <inkscape:path-effect
       effect="powerstroke"
       id="path-effect262"
       is_visible="true"
       lpeversion="1"
       offset_points="1.5334011,0.16748701 | 5.5892239,0.23392813"
       not_jump="true"
       sort_points="true"
       interpolator_type="CentripetalCatmullRom"
       interpolator_beta="0.75"
       start_linecap_type="round"
       linejoin_type="spiro"
       miter_limit="4"
       scale_width="1"
       end_linecap_type="round" />
    <inkscape:path-effect
       effect="simplify"
       id="path-effect260"
       is_visible="true"
       lpeversion="1"
       steps="1"
       threshold="0.0047745358"
       smooth_angles="0"
       helper_size="0"
       simplify_individual_paths="false"
       simplify_just_coalesce="false"
       step="1" />
    <inkscape:path-effect
       effect="powerstroke"
       id="path-effect106"
       is_visible="true"
       lpeversion="1"
       offset_points="1.6883851,0.13608109 | 3.7857891,0.1878262"
       not_jump="true"
       sort_points="true"
       interpolator_type="CentripetalCatmullRom"
       interpolator_beta="0.75"
       start_linecap_type="round"
       linejoin_type="spiro"
       miter_limit="4"
       scale_width="1"
       end_linecap_type="round" />
    <inkscape:path-effect
       effect="simplify"
       id="path-effect104"
       is_visible="true"
       lpeversion="1"
       steps="1"
       threshold="0.0035951417"
       smooth_angles="0"
       helper_size="0"
       simplify_individual_paths="false"
       simplify_just_coalesce="false"
       step="1" />
    <inkscape:path-effect
       effect="powerstroke"
       id="path-effect99"
       is_visible="true"
       lpeversion="1"
       offset_points="1.7542629,0.074582291 | 8.0398341,0.10350495"
       not_jump="true"
       sort_points="true"
       interpolator_type="CentripetalCatmullRom"
       interpolator_beta="0.75"
       start_linecap_type="round"
       linejoin_type="spiro"
       miter_limit="4"
       scale_width="1"
       end_linecap_type="round" />
    <inkscape:path-effect
       effect="simplify"
       id="path-effect97"
       is_visible="true"
       lpeversion="1"
       steps="1"
       threshold="0.0035951417"
       smooth_angles="0"
       helper_size="0"
       simplify_individual_paths="false"
       simplify_just_coalesce="false"
       step="1" />
    <inkscape:path-effect
       effect="powerstroke"
       id="path-effect502"
       is_visible="true"
       lpeversion="1"
       offset_points="3.0091841,0.21607495 | 7.3602657,0.17554228 | 9.4159651,0.20236537"
       not_jump="true"
       sort_points="true"
       interpolator_type="CentripetalCatmullRom"
       interpolator_beta="0.75"
       start_linecap_type="round"
       linejoin_type="spiro"
       miter_limit="4"
       scale_width="1"
       end_linecap_type="round" />
    <inkscape:path-effect
       effect="simplify"
       id="path-effect500"
       is_visible="true"
       lpeversion="1"
       steps="1"
       threshold="0.0035951417"
       smooth_angles="0"
       helper_size="0"
       simplify_individual_paths="false"
       simplify_just_coalesce="false"
       step="1" />
    <inkscape:path-effect
       effect="powerstroke"
       id="path-effect241"
       is_visible="true"
       lpeversion="1"
       offset_points="2.6879454,0.34086734"
       not_jump="true"
       sort_points="true"
       interpolator_type="CentripetalCatmullRom"
       interpolator_beta="0.75"
       start_linecap_type="round"
       linejoin_type="spiro"
       miter_limit="4"
       scale_width="1"
       end_linecap_type="round" />
    <inkscape:path-effect
       effect="simplify"
       id="path-effect239"
       is_visible="true"
       lpeversion="1"
       steps="1"
       threshold="0.0028332064"
       smooth_angles="0"
       helper_size="0"
       simplify_individual_paths="false"
       simplify_just_coalesce="false"
       step="1" />
    <inkscape:path-effect
       effect="powerstroke"
       id="path-effect234"
       is_visible="true"
       lpeversion="1"
       offset_points="2.13563,0.075169555"
       not_jump="true"
       sort_points="true"
       interpolator_type="CentripetalCatmullRom"
       interpolator_beta="0.75"
       start_linecap_type="round"
       linejoin_type="spiro"
       miter_limit="4"
       scale_width="1"
       end_linecap_type="round" />
    <inkscape:path-effect
       effect="simplify"
       id="path-effect232"
       is_visible="true"
       lpeversion="1"
       steps="1"
       threshold="0.0028332064"
       smooth_angles="0"
       helper_size="0"
       simplify_individual_paths="false"
       simplify_just_coalesce="false"
       step="1" />
    <inkscape:path-effect
       effect="powerstroke"
       id="path-effect227"
       is_visible="true"
       lpeversion="1"
       offset_points="2.1868266,0.075169555"
       not_jump="true"
       sort_points="true"
       interpolator_type="CentripetalCatmullRom"
       interpolator_beta="0.75"
       start_linecap_type="round"
       linejoin_type="spiro"
       miter_limit="4"
       scale_width="1"
       end_linecap_type="round" />
    <inkscape:path-effect
       effect="simplify"
       id="path-effect225"
       is_visible="true"
       lpeversion="1"
       steps="1"
       threshold="0.0028332064"
       smooth_angles="0"
       helper_size="0"
       simplify_individual_paths="false"
       simplify_just_coalesce="false"
       step="1" />
    <inkscape:path-effect
       effect="powerstroke"
       id="path-effect166"
       is_visible="true"
       lpeversion="1"
       offset_points="1.9637935,0.075169555"
       not_jump="true"
       sort_points="true"
       interpolator_type="CentripetalCatmullRom"
       interpolator_beta="0.75"
       start_linecap_type="round"
       linejoin_type="spiro"
       miter_limit="4"
       scale_width="1"
       end_linecap_type="round" />
    <inkscape:path-effect
       effect="simplify"
       id="path-effect164"
       is_visible="true"
       lpeversion="1"
       steps="1"
       threshold="0.0028332064"
       smooth_angles="0"
       helper_size="0"
       simplify_individual_paths="false"
       simplify_just_coalesce="false"
       step="1" />
    <inkscape:path-effect
       effect="powerstroke"
       id="path-effect159"
       is_visible="true"
       lpeversion="1"
       offset_points="2.2611036,0.075169555"
       not_jump="true"
       sort_points="true"
       interpolator_type="CentripetalCatmullRom"
       interpolator_beta="0.75"
       start_linecap_type="round"
       linejoin_type="spiro"
       miter_limit="4"
       scale_width="1"
       end_linecap_type="round" />
    <inkscape:path-effect
       effect="simplify"
       id="path-effect157"
       is_visible="true"
       lpeversion="1"
       steps="1"
       threshold="0.0028332064"
       smooth_angles="0"
       helper_size="0"
       simplify_individual_paths="false"
       simplify_just_coalesce="false"
       step="1" />
    <inkscape:path-effect
       effect="powerstroke"
       id="path-effect152"
       is_visible="true"
       lpeversion="1"
       offset_points="2.826981,0.075169555"
       not_jump="true"
       sort_points="true"
       interpolator_type="CentripetalCatmullRom"
       interpolator_beta="0.75"
       start_linecap_type="round"
       linejoin_type="spiro"
       miter_limit="4"
       scale_width="1"
       end_linecap_type="round" />
    <inkscape:path-effect
       effect="simplify"
       id="path-effect150"
       is_visible="true"
       lpeversion="1"
       steps="1"
       threshold="0.0028332064"
       smooth_angles="0"
       helper_size="0"
       simplify_individual_paths="false"
       simplify_just_coalesce="false"
       step="1" />
    <inkscape:path-effect
       effect="powerstroke"
       id="path-effect145"
       is_visible="true"
       lpeversion="1"
       offset_points="3.8374447,0.075169555"
       not_jump="true"
       sort_points="true"
       interpolator_type="CentripetalCatmullRom"
       interpolator_beta="0.75"
       start_linecap_type="round"
       linejoin_type="spiro"
       miter_limit="4"
       scale_width="1"
       end_linecap_type="round" />
    <inkscape:path-effect
       effect="simplify"
       id="path-effect143"
       is_visible="true"
       lpeversion="1"
       steps="1"
       threshold="0.0028332064"
       smooth_angles="0"
       helper_size="0"
       simplify_individual_paths="false"
       simplify_just_coalesce="false"
       step="1" />
    <inkscape:path-effect
       effect="powerstroke"
       id="path-effect138"
       is_visible="true"
       lpeversion="1"
       offset_points="2.6880907,0.075169555"
       not_jump="true"
       sort_points="true"
       interpolator_type="CentripetalCatmullRom"
       interpolator_beta="0.75"
       start_linecap_type="round"
       linejoin_type="spiro"
       miter_limit="4"
       scale_width="1"
       end_linecap_type="round" />
    <inkscape:path-effect
       effect="simplify"
       id="path-effect136"
       is_visible="true"
       lpeversion="1"
       steps="1"
       threshold="0.0028332064"
       smooth_angles="0"
       helper_size="0"
       simplify_individual_paths="false"
       simplify_just_coalesce="false"
       step="1" />
    <inkscape:path-effect
       effect="powerstroke"
       id="path-effect131"
       is_visible="true"
       lpeversion="1"
       offset_points="1.9940581,0.075169555"
       not_jump="true"
       sort_points="true"
       interpolator_type="CentripetalCatmullRom"
       interpolator_beta="0.75"
       start_linecap_type="round"
       linejoin_type="spiro"
       miter_limit="4"
       scale_width="1"
       end_linecap_type="round" />
    <inkscape:path-effect
       effect="simplify"
       id="path-effect129"
       is_visible="true"
       lpeversion="1"
       steps="1"
       threshold="0.0028332064"
       smooth_angles="0"
       helper_size="0"
       simplify_individual_paths="false"
       simplify_just_coalesce="false"
       step="1" />
  </defs>
  <sodipodi:namedview
     id="base"
     pagecolor="#ffffff"
     bordercolor="#666666"
     borderopacity="1.0"
     inkscape:pageopacity="0.0"
     inkscape:pageshadow="2"
     inkscape:zoom="11.2"
     inkscape:cx="-1.3839286"
     inkscape:cy="14.910714"
     inkscape:document-units="mm"
     inkscape:current-layer="layer1"
     showgrid="false"
     fit-margin-top="0"
     fit-margin-left="0"
     fit-margin-right="0"
     fit-margin-bottom="0"
     inkscape:window-width="1920"
     inkscape:window-height="1057"
     inkscape:window-x="1072"
     inkscape:window-y="321"
     inkscape:window-maximized="1"
     showguides="true"
     inkscape:guide-bbox="true"
     inkscape:snap-bbox="true"
     inkscape:bbox-nodes="true"
     inkscape:snap-nodes="false"
     inkscape:snap-others="false"
     inkscape:snap-page="true"
     inkscape:snap-grids="false"
     inkscape:snap-to-guides="false"
     inkscape:snap-global="false"
     inkscape:pagecheckerboard="0"
     inkscape:showpageshadow="2"
     inkscape:deskcolor="#d1d1d1">
    <sodipodi:guide
       position="-6.1806075,9.4988692"
       orientation="0,1"
       id="guide816"
       inkscape:locked="false" />
    <sodipodi:guide
       position="-4.4101636,10.646923"
       orientation="0,1"
       id="guide818"
       inkscape:locked="false" />
    <sodipodi:guide
       position="2.7595724,11.09577"
       orientation="1,0"
       id="guide820"
       inkscape:locked="false" />
    <sodipodi:guide
       position="3.6572659,10.942217"
       orientation="1,0"
       id="guide822"
       inkscape:locked="false" />
    <sodipodi:guide
       position="-0.051625511,9.7492299"
       orientation="1,0"
       id="guide1853"
       inkscape:locked="false" />
    <sodipodi:guide
       position="-2.3720169,3.0175835"
       orientation="0,1"
       id="guide1855"
       inkscape:locked="false" />
  </sodipodi:namedview>
  <metadata
     id="metadata1678">
    <rdf:RDF>
      <cc:Work
         rdf:about="">
        <dc:format>image/svg+xml</dc:format>
        <dc:type
           rdf:resource="http://purl.org/dc/dcmitype/StillImage" />
      </cc:Work>
    </rdf:RDF>
  </metadata>
  <g
     inkscape:label="Layer 1"
     inkscape:groupmode="layer"
     id="layer1"
     transform="translate(17.028496,-147.22856)">
    <path
       d="m -16.760222,153.89869 c 0.04462,-0.8177 0.366755,-2.54715 0.791198,-4.43982 0.03196,-0.11527 0.05999,-0.23906 0.09355,-0.35285 0.0051,-0.0174 0.01038,-0.0345 0.01578,-0.0514 0.02939,-0.0919 0.06518,-0.18203 0.114328,-0.26508 l -0.03005,0.0343 c -0.0012,0.001 -0.0059,0.005 -0.01446,0.008 -0.0087,0.004 -0.02253,0.008 -0.03994,0.007 -0.01793,-9.1e-4 -0.03442,-0.007 -0.04794,-0.0151 -0.01266,-0.008 -0.02025,-0.0165 -0.02472,-0.0224 -0.0041,-0.005 -0.0064,-0.01 -0.007,-0.0109 -7.75e-4,-0.001 -7.4e-4,-0.001 -4.01e-4,6.6e-4 8.92e-4,0.005 0.002,0.0107 0.0034,0.0228 0.0025,0.0213 0.0043,0.0513 0.0071,0.0827 0.0013,0.0148 0.003,0.0317 0.0056,0.0479 0.0013,0.008 0.0031,0.0171 0.0054,0.0263 6.4e-4,0.003 0.0014,0.005 0.0022,0.008 0.04495,0.31784 0.08236,0.65013 0.137679,0.99087 0.05294,0.32611 0.123954,0.6667 0.241126,1.00095 0.03123,0.0781 0.06935,0.18023 0.122052,0.26893 0.02665,0.0449 0.0593,0.0906 0.100399,0.13185 0.04125,0.0409 0.08951,0.0773 0.149039,0.10433 0.0045,0.002 0.0092,0.004 0.0139,0.005 0.02956,0.01 0.06104,0.0151 0.09367,0.0141 0.03182,-9.9e-4 0.06224,-0.008 0.09045,-0.0202 0.02714,-0.0118 0.05047,-0.0276 0.07026,-0.045 0.01918,-0.0169 0.03526,-0.0356 0.04876,-0.0541 0.02582,-0.0356 0.0447,-0.0745 0.05881,-0.10943 0.01379,-0.0342 0.02414,-0.0674 0.03197,-0.0941 0.05579,-0.17423 0.09319,-0.35554 0.122308,-0.53876 0.0285,-0.17929 0.04875,-0.35818 0.07191,-0.53636 0.02272,-0.17478 0.04803,-0.34702 0.08624,-0.51447 0.03771,-0.16524 0.08786,-0.32528 0.160248,-0.47839 0.0035,-0.007 0.0063,-0.015 0.0085,-0.0229 8.86e-4,-0.003 0.0026,-0.008 0.0054,-0.0148 0.0028,-0.006 0.0061,-0.0128 0.0097,-0.0189 0.0036,-0.006 0.0069,-0.0107 0.0094,-0.0137 0.0027,-0.003 0.0028,-0.003 -5.76e-4,-2e-4 -0.0018,0.001 -0.0055,0.004 -0.01102,0.007 -0.0055,0.003 -0.01386,0.006 -0.02472,0.008 -0.01114,0.002 -0.02454,0.002 -0.03912,-4.2e-4 -0.01474,-0.003 -0.02795,-0.008 -0.03901,-0.0157 -0.01078,-0.007 -0.01812,-0.0146 -0.02271,-0.0204 -0.0045,-0.006 -0.0068,-0.0101 -0.0075,-0.0117 -0.0017,-0.004 9.2e-4,0.002 0.0032,0.0139 7.43e-4,0.004 0.0016,0.008 0.0027,0.0118 0.05599,0.20199 0.08024,0.41215 0.100555,0.62768 0.02109,0.22376 0.03747,0.44625 0.08008,0.6697 0.130814,0.84415 0.250617,1.67917 0.35062,2.38963 0.09683,0.62163 0.207703,1.01936 0.351128,1.36048 a 0.13772692,0.13772692 90 0 0 0.253922,-0.10676 c -0.132239,-0.31452 -0.237894,-0.68974 -0.331242,-1.29417 -0.09925,-0.70906 -0.218597,-1.54558 -0.349936,-2.39648 -0.04001,-0.21171 -0.05483,-0.41666 -0.07643,-0.64846 -0.02002,-0.21492 -0.04545,-0.44464 -0.107322,-0.67078 -0.0052,-0.0263 -0.0129,-0.053 -0.0248,-0.0778 -0.0065,-0.0137 -0.01499,-0.0281 -0.02603,-0.0419 -0.01111,-0.0139 -0.0253,-0.0279 -0.04321,-0.0395 -0.01817,-0.0119 -0.03876,-0.0205 -0.06107,-0.0248 -0.02215,-0.004 -0.0433,-0.004 -0.06231,-4.5e-4 -0.01874,0.003 -0.03506,0.009 -0.04862,0.0158 -0.01355,0.007 -0.02528,0.0141 -0.03517,0.0215 -0.01945,0.0145 -0.03539,0.0312 -0.04794,0.0464 -0.01284,0.0156 -0.02413,0.0321 -0.03379,0.0482 -0.0097,0.0163 -0.01845,0.0333 -0.02587,0.0502 -0.0056,0.0128 -0.01077,0.0263 -0.01511,0.04 -0.08076,0.17305 -0.135379,0.35009 -0.17553,0.52612 -0.04128,0.18096 -0.0679,0.36399 -0.09084,0.54078 -0.02391,0.1843 -0.04299,0.35443 -0.07057,0.52855 -0.02777,0.17529 -0.06235,0.34153 -0.113231,0.50098 -0.0078,0.0269 -0.01505,0.0501 -0.02364,0.0718 -0.0091,0.0229 -0.0178,0.0394 -0.02548,0.0502 -0.0038,0.005 -0.0063,0.008 -0.0074,0.009 -9.74e-4,9.6e-4 1.97e-4,-1.5e-4 0.0032,-0.001 0.0035,-0.001 0.0077,-0.002 0.01141,-0.002 0.0037,-2e-5 0.0044,7.8e-4 0.0015,-6e-5 l 0.0139,0.005 c -0.02549,-0.0112 -0.04735,-0.0268 -0.06706,-0.0458 -0.02278,-0.0222 -0.04272,-0.0482 -0.06185,-0.0792 -0.04055,-0.0656 -0.07104,-0.14215 -0.106164,-0.22376 -0.109248,-0.30592 -0.179607,-0.62895 -0.233857,-0.94755 -0.05712,-0.33545 -0.09744,-0.66971 -0.146465,-0.99504 -8.79e-4,-0.006 -0.0019,-0.0116 -0.0037,-0.0173 -0.0017,-0.006 -0.004,-0.0111 -0.0062,-0.0165 0.002,0.005 0.0021,0.006 0.0019,0.006 -2.33e-4,-1.8e-4 -9.2e-4,-0.002 -0.0017,-0.005 -0.0016,-0.007 -0.0033,-0.0167 -0.0051,-0.0296 -0.0035,-0.0256 -0.0067,-0.0582 -0.01237,-0.0915 -0.0028,-0.0165 -0.0065,-0.035 -0.01197,-0.053 -0.0028,-0.009 -0.0063,-0.0194 -0.01098,-0.0298 -0.0046,-0.0103 -0.01101,-0.0225 -0.02001,-0.0347 -0.0091,-0.0123 -0.02224,-0.0265 -0.04068,-0.0381 -0.01939,-0.0123 -0.04228,-0.0202 -0.06721,-0.0215 -0.02446,-0.001 -0.04591,0.004 -0.06295,0.011 -0.01685,0.007 -0.03073,0.0161 -0.04162,0.0247 -0.006,0.005 -0.01202,0.01 -0.01711,0.0154 -0.0051,0.006 -0.0091,0.0123 -0.01294,0.019 -0.0594,0.10445 -0.09991,0.21291 -0.131207,0.31395 -0.0058,0.0187 -0.01139,0.0376 -0.0168,0.0564 -0.03539,0.1234 -0.06322,0.24831 -0.09446,0.36173 -0.4242,1.89169 -0.754103,3.64856 -0.799637,4.48306 a 0.11627197,0.11627197 90 0 0 0.232198,0.0127 z"
       id="path-1"
       inkscape:path-effect="#path-effect452;#path-effect454"
       inkscape:original-d="m -16.876321,153.89236 c 0.07073,-1.30906 0.371603,-2.6131 0.666121,-3.88944 0.0381,-0.1651 0.248207,-1.21327 0.389618,-1.29975 0.01464,-0.009 0.03358,0.0925 0.07122,0.32971 0.04688,0.29542 0.222365,2.16323 0.670311,2.31666 0.119646,0.041 0.17252,-0.0875 0.199697,-0.16567 0.24882,-0.71553 0.141268,-1.58286 0.52368,-2.25072 0.145712,-0.25448 0.230703,1.04014 0.231816,1.04743 0.09376,0.61394 0.186767,1.22799 0.276503,1.84253 0.107139,0.73373 0.173272,1.50636 0.463631,2.19677"
       style="fill:#000000;fill-rule:nonzero;stroke:none" />
  </g>
</svg>
