<?xml version="1.0" encoding="UTF-8" standalone="no"?>
<!-- Created with Inkscape (http://www.inkscape.org/) -->

<svg
   width="4mm"
   height="10mm"
   viewBox="0 0 4.0000001 9.9999994"
   version="1.1"
   id="svg1681"
   inkscape:version="1.2.1 (9c6d41e410, 2022-07-14)"
   sodipodi:docname="upper_m_1.svg"
   inkscape:export-filename="..\..\..\..\Downloads\lower a diff canvas resize 3.0.png"
   inkscape:export-xdpi="96"
   inkscape:export-ydpi="96"
   xmlns:inkscape="http://www.inkscape.org/namespaces/inkscape"
   xmlns:sodipodi="http://sodipodi.sourceforge.net/DTD/sodipodi-0.dtd"
   xmlns="http://www.w3.org/2000/svg"
   xmlns:svg="http://www.w3.org/2000/svg"
   xmlns:rdf="http://www.w3.org/1999/02/22-rdf-syntax-ns#"
   xmlns:cc="http://creativecommons.org/ns#"
   xmlns:dc="http://purl.org/dc/elements/1.1/">
  <defs
     id="defs1675">
    <inkscape:path-effect
       effect="powerstroke"
       id="path-effect262"
       is_visible="true"
       lpeversion="1"
       offset_points="1.5334011,0.16748701 | 5.5892239,0.23392813"
       not_jump="true"
       sort_points="true"
       interpolator_type="CentripetalCatmullRom"
       interpolator_beta="0.75"
       start_linecap_type="round"
       linejoin_type="spiro"
       miter_limit="4"
       scale_width="1"
       end_linecap_type="round" />
    <inkscape:path-effect
       effect="simplify"
       id="path-effect260"
       is_visible="true"
       lpeversion="1"
       steps="1"
       threshold="0.0047745358"
       smooth_angles="0"
       helper_size="0"
       simplify_individual_paths="false"
       simplify_just_coalesce="false"
       step="1" />
    <inkscape:path-effect
       effect="powerstroke"
       id="path-effect106"
       is_visible="true"
       lpeversion="1"
       offset_points="1.6883851,0.13608109 | 3.7857891,0.1878262"
       not_jump="true"
       sort_points="true"
       interpolator_type="CentripetalCatmullRom"
       interpolator_beta="0.75"
       start_linecap_type="round"
       linejoin_type="spiro"
       miter_limit="4"
       scale_width="1"
       end_linecap_type="round" />
    <inkscape:path-effect
       effect="simplify"
       id="path-effect104"
       is_visible="true"
       lpeversion="1"
       steps="1"
       threshold="0.0035951417"
       smooth_angles="0"
       helper_size="0"
       simplify_individual_paths="false"
       simplify_just_coalesce="false"
       step="1" />
    <inkscape:path-effect
       effect="powerstroke"
       id="path-effect99"
       is_visible="true"
       lpeversion="1"
       offset_points="1.7542629,0.074582291 | 8.0398341,0.10350495"
       not_jump="true"
       sort_points="true"
       interpolator_type="CentripetalCatmullRom"
       interpolator_beta="0.75"
       start_linecap_type="round"
       linejoin_type="spiro"
       miter_limit="4"
       scale_width="1"
       end_linecap_type="round" />
    <inkscape:path-effect
       effect="simplify"
       id="path-effect97"
       is_visible="true"
       lpeversion="1"
       steps="1"
       threshold="0.0035951417"
       smooth_angles="0"
       helper_size="0"
       simplify_individual_paths="false"
       simplify_just_coalesce="false"
       step="1" />
    <inkscape:path-effect
       effect="powerstroke"
       id="path-effect502"
       is_visible="true"
       lpeversion="1"
       offset_points="3.0091841,0.21607495 | 7.3602657,0.17554228 | 9.4159651,0.20236537"
       not_jump="true"
       sort_points="true"
       interpolator_type="CentripetalCatmullRom"
       interpolator_beta="0.75"
       start_linecap_type="round"
       linejoin_type="spiro"
       miter_limit="4"
       scale_width="1"
       end_linecap_type="round" />
    <inkscape:path-effect
       effect="simplify"
       id="path-effect500"
       is_visible="true"
       lpeversion="1"
       steps="1"
       threshold="0.0035951417"
       smooth_angles="0"
       helper_size="0"
       simplify_individual_paths="false"
       simplify_just_coalesce="false"
       step="1" />
    <inkscape:path-effect
       effect="powerstroke"
       id="path-effect241"
       is_visible="true"
       lpeversion="1"
       offset_points="2.6879454,0.34086734"
       not_jump="true"
       sort_points="true"
       interpolator_type="CentripetalCatmullRom"
       interpolator_beta="0.75"
       start_linecap_type="round"
       linejoin_type="spiro"
       miter_limit="4"
       scale_width="1"
       end_linecap_type="round" />
    <inkscape:path-effect
       effect="simplify"
       id="path-effect239"
       is_visible="true"
       lpeversion="1"
       steps="1"
       threshold="0.0028332064"
       smooth_angles="0"
       helper_size="0"
       simplify_individual_paths="false"
       simplify_just_coalesce="false"
       step="1" />
    <inkscape:path-effect
       effect="powerstroke"
       id="path-effect234"
       is_visible="true"
       lpeversion="1"
       offset_points="2.13563,0.075169555"
       not_jump="true"
       sort_points="true"
       interpolator_type="CentripetalCatmullRom"
       interpolator_beta="0.75"
       start_linecap_type="round"
       linejoin_type="spiro"
       miter_limit="4"
       scale_width="1"
       end_linecap_type="round" />
    <inkscape:path-effect
       effect="simplify"
       id="path-effect232"
       is_visible="true"
       lpeversion="1"
       steps="1"
       threshold="0.0028332064"
       smooth_angles="0"
       helper_size="0"
       simplify_individual_paths="false"
       simplify_just_coalesce="false"
       step="1" />
    <inkscape:path-effect
       effect="powerstroke"
       id="path-effect227"
       is_visible="true"
       lpeversion="1"
       offset_points="2.1868266,0.075169555"
       not_jump="true"
       sort_points="true"
       interpolator_type="CentripetalCatmullRom"
       interpolator_beta="0.75"
       start_linecap_type="round"
       linejoin_type="spiro"
       miter_limit="4"
       scale_width="1"
       end_linecap_type="round" />
    <inkscape:path-effect
       effect="simplify"
       id="path-effect225"
       is_visible="true"
       lpeversion="1"
       steps="1"
       threshold="0.0028332064"
       smooth_angles="0"
       helper_size="0"
       simplify_individual_paths="false"
       simplify_just_coalesce="false"
       step="1" />
    <inkscape:path-effect
       effect="powerstroke"
       id="path-effect166"
       is_visible="true"
       lpeversion="1"
       offset_points="1.9637935,0.075169555"
       not_jump="true"
       sort_points="true"
       interpolator_type="CentripetalCatmullRom"
       interpolator_beta="0.75"
       start_linecap_type="round"
       linejoin_type="spiro"
       miter_limit="4"
       scale_width="1"
       end_linecap_type="round" />
    <inkscape:path-effect
       effect="simplify"
       id="path-effect164"
       is_visible="true"
       lpeversion="1"
       steps="1"
       threshold="0.0028332064"
       smooth_angles="0"
       helper_size="0"
       simplify_individual_paths="false"
       simplify_just_coalesce="false"
       step="1" />
    <inkscape:path-effect
       effect="powerstroke"
       id="path-effect159"
       is_visible="true"
       lpeversion="1"
       offset_points="2.2611036,0.075169555"
       not_jump="true"
       sort_points="true"
       interpolator_type="CentripetalCatmullRom"
       interpolator_beta="0.75"
       start_linecap_type="round"
       linejoin_type="spiro"
       miter_limit="4"
       scale_width="1"
       end_linecap_type="round" />
    <inkscape:path-effect
       effect="simplify"
       id="path-effect157"
       is_visible="true"
       lpeversion="1"
       steps="1"
       threshold="0.0028332064"
       smooth_angles="0"
       helper_size="0"
       simplify_individual_paths="false"
       simplify_just_coalesce="false"
       step="1" />
    <inkscape:path-effect
       effect="powerstroke"
       id="path-effect152"
       is_visible="true"
       lpeversion="1"
       offset_points="2.826981,0.075169555"
       not_jump="true"
       sort_points="true"
       interpolator_type="CentripetalCatmullRom"
       interpolator_beta="0.75"
       start_linecap_type="round"
       linejoin_type="spiro"
       miter_limit="4"
       scale_width="1"
       end_linecap_type="round" />
    <inkscape:path-effect
       effect="simplify"
       id="path-effect150"
       is_visible="true"
       lpeversion="1"
       steps="1"
       threshold="0.0028332064"
       smooth_angles="0"
       helper_size="0"
       simplify_individual_paths="false"
       simplify_just_coalesce="false"
       step="1" />
    <inkscape:path-effect
       effect="powerstroke"
       id="path-effect145"
       is_visible="true"
       lpeversion="1"
       offset_points="3.8374447,0.075169555"
       not_jump="true"
       sort_points="true"
       interpolator_type="CentripetalCatmullRom"
       interpolator_beta="0.75"
       start_linecap_type="round"
       linejoin_type="spiro"
       miter_limit="4"
       scale_width="1"
       end_linecap_type="round" />
    <inkscape:path-effect
       effect="simplify"
       id="path-effect143"
       is_visible="true"
       lpeversion="1"
       steps="1"
       threshold="0.0028332064"
       smooth_angles="0"
       helper_size="0"
       simplify_individual_paths="false"
       simplify_just_coalesce="false"
       step="1" />
    <inkscape:path-effect
       effect="powerstroke"
       id="path-effect138"
       is_visible="true"
       lpeversion="1"
       offset_points="2.6880907,0.075169555"
       not_jump="true"
       sort_points="true"
       interpolator_type="CentripetalCatmullRom"
       interpolator_beta="0.75"
       start_linecap_type="round"
       linejoin_type="spiro"
       miter_limit="4"
       scale_width="1"
       end_linecap_type="round" />
    <inkscape:path-effect
       effect="simplify"
       id="path-effect136"
       is_visible="true"
       lpeversion="1"
       steps="1"
       threshold="0.0028332064"
       smooth_angles="0"
       helper_size="0"
       simplify_individual_paths="false"
       simplify_just_coalesce="false"
       step="1" />
    <inkscape:path-effect
       effect="powerstroke"
       id="path-effect131"
       is_visible="true"
       lpeversion="1"
       offset_points="1.9940581,0.075169555"
       not_jump="true"
       sort_points="true"
       interpolator_type="CentripetalCatmullRom"
       interpolator_beta="0.75"
       start_linecap_type="round"
       linejoin_type="spiro"
       miter_limit="4"
       scale_width="1"
       end_linecap_type="round" />
    <inkscape:path-effect
       effect="simplify"
       id="path-effect129"
       is_visible="true"
       lpeversion="1"
       steps="1"
       threshold="0.0028332064"
       smooth_angles="0"
       helper_size="0"
       simplify_individual_paths="false"
       simplify_just_coalesce="false"
       step="1" />
  </defs>
  <sodipodi:namedview
     id="base"
     pagecolor="#ffffff"
     bordercolor="#666666"
     borderopacity="1.0"
     inkscape:pageopacity="0.0"
     inkscape:pageshadow="2"
     inkscape:zoom="11.2"
     inkscape:cx="-1.3839286"
     inkscape:cy="14.910714"
     inkscape:document-units="mm"
     inkscape:current-layer="layer1"
     showgrid="false"
     fit-margin-top="0"
     fit-margin-left="0"
     fit-margin-right="0"
     fit-margin-bottom="0"
     inkscape:window-width="1920"
     inkscape:window-height="1057"
     inkscape:window-x="1072"
     inkscape:window-y="321"
     inkscape:window-maximized="1"
     showguides="true"
     inkscape:guide-bbox="true"
     inkscape:snap-bbox="true"
     inkscape:bbox-nodes="true"
     inkscape:snap-nodes="false"
     inkscape:snap-others="false"
     inkscape:snap-page="true"
     inkscape:snap-grids="false"
     inkscape:snap-to-guides="false"
     inkscape:snap-global="false"
     inkscape:pagecheckerboard="0"
     inkscape:showpageshadow="2"
     inkscape:deskcolor="#d1d1d1">
    <sodipodi:guide
       position="-6.1806075,9.4988692"
       orientation="0,1"
       id="guide816"
       inkscape:locked="false" />
    <sodipodi:guide
       position="-4.4101636,10.646923"
       orientation="0,1"
       id="guide818"
       inkscape:locked="false" />
    <sodipodi:guide
       position="2.7595724,11.09577"
       orientation="1,0"
       id="guide820"
       inkscape:locked="false" />
    <sodipodi:guide
       position="3.6572659,10.942217"
       orientation="1,0"
       id="guide822"
       inkscape:locked="false" />
    <sodipodi:guide
       position="-0.051625511,9.7492299"
       orientation="1,0"
       id="guide1853"
       inkscape:locked="false" />
    <sodipodi:guide
       position="-2.3720169,3.0175835"
       orientation="0,1"
       id="guide1855"
       inkscape:locked="false" />
  </sodipodi:namedview>
  <metadata
     id="metadata1678">
    <rdf:RDF>
      <cc:Work
         rdf:about="">
        <dc:format>image/svg+xml</dc:format>
        <dc:type
           rdf:resource="http://purl.org/dc/dcmitype/StillImage" />
      </cc:Work>
    </rdf:RDF>
  </metadata>
  <g
     inkscape:label="Layer 1"
     inkscape:groupmode="layer"
     id="layer1"
     transform="translate(17.028496,-147.22856)">
    <path
       d="m -16.749126,154.1548 c 0.03379,-0.28193 0.0908,-0.60484 0.220922,-1.12965 0.08463,-0.34134 0.191418,-0.72723 0.284171,-1.14239 0.08936,-0.36203 0.17786,-0.73653 0.263223,-1.11978 0.06925,-0.31092 0.139838,-0.64229 0.208188,-0.98866 0.0232,-0.0827 0.04293,-0.17538 0.06653,-0.26229 0.02214,-0.0815 0.04704,-0.15544 0.08221,-0.22063 l -0.290018,0.0691 c -0.0051,-0.003 -0.0086,-0.006 -0.01019,-0.007 -0.0015,-6.7e-4 -0.0013,8.8e-4 -2.22e-4,0.006 0.0027,0.0119 0.006,0.0263 0.0093,0.0569 0.0032,0.0294 0.0049,0.058 0.0075,0.0976 0.0018,0.0276 0.0042,0.062 0.0088,0.0965 0.0081,0.17822 0.03785,0.35074 0.07519,0.51972 0.03643,0.16486 0.0799,0.32552 0.11684,0.4826 0.06774,0.26493 0.145413,0.52444 0.229861,0.78581 0.05565,0.17224 0.114238,0.34548 0.178906,0.53366 0.0026,0.008 0.0058,0.015 0.0091,0.0223 0.0091,0.0206 0.02161,0.051 0.03772,0.0868 0.01489,0.0331 0.03477,0.0749 0.05977,0.11623 0.02376,0.0393 0.0572,0.0868 0.103358,0.12875 0.02308,0.021 0.05055,0.0417 0.08287,0.0593 0.03212,0.0175 0.0684,0.0316 0.108584,0.0397 0.0324,0.007 0.06525,0.0127 0.09827,0.0112 0.03302,-0.002 0.0659,-0.0112 0.09341,-0.0295 0.0275,-0.0183 0.04898,-0.045 0.06323,-0.0748 0.01426,-0.0298 0.02143,-0.0625 0.02811,-0.0948 0.02963,-0.1436 0.04267,-0.28667 0.05045,-0.42734 0.0075,-0.13518 0.01012,-0.26747 0.0178,-0.39388 0.01893,-0.50138 0.101674,-1.00218 0.222804,-1.50973 0.06006,-0.23665 0.126911,-0.46634 0.21643,-0.68232 l -0.202665,0.14757 c -0.02847,0.002 -0.05804,-0.001 -0.08643,-0.0109 -0.02787,-0.01 -0.04965,-0.0236 -0.06553,-0.0369 -0.01554,-0.013 -0.02589,-0.0257 -0.0322,-0.0346 -0.0064,-0.009 -0.0102,-0.0162 -0.01214,-0.0203 -0.0042,-0.009 -0.0034,-0.009 -0.0021,-0.004 0.0015,0.005 0.0035,0.013 0.0058,0.0247 0.0051,0.0255 0.0088,0.0518 0.01463,0.0877 0.0027,0.0164 0.0058,0.035 0.0095,0.0532 0.0022,0.011 0.0051,0.0241 0.009,0.0381 0.03838,0.2824 0.07429,0.55785 0.159343,0.83383 0.202842,0.76388 0.366623,1.44631 0.500058,2.09452 0.07428,0.33669 0.145984,0.62757 0.237034,0.91 0.116049,0.35997 0.244561,0.64395 0.383688,0.88336 a 0.23392813,0.23392813 90 0 0 0.404514,-0.23506 c -0.120487,-0.20734 -0.235631,-0.46028 -0.341869,-0.79178 -0.08393,-0.26187 -0.151376,-0.53642 -0.222959,-0.86422 -0.133715,-0.6559 -0.298276,-1.34751 -0.503773,-2.127 -0.07446,-0.24666 -0.104399,-0.48691 -0.143781,-0.7861 -0.002,-0.0151 -0.0053,-0.0301 -0.01036,-0.0445 0.0016,0.005 0.001,0.004 -6.71e-4,-0.005 -0.0016,-0.008 -0.0033,-0.0188 -0.0055,-0.0335 -0.0038,-0.025 -0.0097,-0.0675 -0.01673,-0.10459 -0.0037,-0.0195 -0.0085,-0.0417 -0.01474,-0.0641 -0.006,-0.0216 -0.01497,-0.0489 -0.02863,-0.0769 -0.007,-0.0143 -0.01619,-0.0308 -0.02835,-0.0479 -0.01208,-0.0169 -0.02858,-0.0365 -0.05071,-0.0551 -0.02246,-0.0188 -0.05125,-0.0369 -0.0866,-0.0491 -0.03587,-0.0124 -0.07339,-0.0169 -0.110329,-0.0138 -0.02241,0.002 -0.04493,0.004 -0.0667,0.01 -0.02177,0.006 -0.04269,0.0149 -0.06086,0.0282 -0.01817,0.0133 -0.03339,0.0303 -0.04545,0.0493 -0.01206,0.019 -0.02097,0.0398 -0.02966,0.0605 -0.103592,0.2474 -0.177875,0.50305 -0.241383,0.75184 -0.12729,0.5316 -0.216549,1.06538 -0.236326,1.60224 -0.008,0.13455 -0.0103,0.26743 -0.01671,0.39155 -0.0067,0.13042 -0.0175,0.2468 -0.03955,0.35718 l 0.283018,-0.18802 c 0.01056,0.002 0.0193,0.006 0.0257,0.009 0.0063,0.004 0.0094,0.006 0.01,0.007 0.0012,0.001 -0.0072,-0.007 -0.01721,-0.0225 -0.01092,-0.0171 -0.02233,-0.0389 -0.0351,-0.0657 -0.01164,-0.0244 -0.0234,-0.0508 -0.03646,-0.0782 -0.06429,-0.1821 -0.121786,-0.3468 -0.177177,-0.51143 -0.08573,-0.25482 -0.164508,-0.5038 -0.23323,-0.75286 -0.0429,-0.16308 -0.09042,-0.32022 -0.128911,-0.4709 -0.04004,-0.15673 -0.06984,-0.30316 -0.08165,-0.44858 -4.05e-4,-0.005 -5.69e-4,-0.01 -9.85e-4,-0.015 -4.17e-4,-0.005 -0.0015,-0.01 -0.0029,-0.0147 -0.0055,-0.0185 -0.01031,-0.0456 -0.01597,-0.0817 -0.0054,-0.0345 -0.01177,-0.078 -0.02074,-0.12062 -0.0092,-0.0436 -0.02261,-0.0942 -0.04523,-0.14299 -0.01175,-0.0254 -0.0266,-0.0516 -0.04567,-0.0769 -0.01948,-0.0258 -0.04327,-0.0504 -0.07216,-0.0715 -0.02458,-0.018 -0.04964,-0.036 -0.07794,-0.0472 -0.0283,-0.0113 -0.05983,-0.0154 -0.08959,-0.009 -0.02976,0.007 -0.05678,0.0236 -0.0769,0.0464 -0.02013,0.0229 -0.03325,0.0509 -0.04559,0.0788 -0.04676,0.10554 -0.07238,0.21265 -0.09056,0.30413 -0.02004,0.10089 -0.03341,0.19173 -0.0504,0.27081 -0.0648,0.35313 -0.130827,0.68189 -0.197192,0.99089 -0.0816,0.37996 -0.168555,0.75337 -0.257677,1.1159 -0.08207,0.36847 -0.207296,0.83011 -0.284405,1.13759 -0.133753,0.53335 -0.195837,0.8717 -0.231593,1.17006 a 0.16748701,0.16748701 90 0 0 0.332594,0.0399 z"
       id="path-1"
       inkscape:path-effect="#path-effect260;#path-effect262"
       inkscape:original-d="m -16.915423,154.13487 c 0.07586,-0.66064 0.274457,-1.30243 0.42872,-1.94881 0.09091,-0.38094 0.184262,-0.76173 0.272313,-1.14334 0.05556,-0.24079 0.111495,-0.49828 0.160596,-0.74225 0.05993,-0.29777 0.112794,-0.59686 0.187128,-0.89157 0.03941,-0.15626 0.06987,-0.21809 0.08239,-0.2049 0.09332,0.0983 0.102916,0.56105 0.134063,0.69538 0.125024,0.5392 0.272437,1.08494 0.458045,1.60656 0.04866,0.13674 0.154521,0.57557 0.333759,0.65069 0.05006,0.021 0.07619,-0.95547 0.0782,-0.97876 0.04528,-0.52275 0.132417,-1.0525 0.272314,-1.55861 0.02937,-0.10626 0.06484,-0.21076 0.09915,-0.31553 0.0558,-0.17041 0.09154,-0.2567 0.103339,-0.22399 0.09805,0.27194 0.09389,0.60591 0.166181,0.88885 0.152771,0.59794 0.313104,1.19167 0.444081,1.79512 0.166897,0.76895 0.309569,1.58117 0.709412,2.2687"
       style="fill:#000000;fill-rule:nonzero;stroke:none" />
  </g>
</svg>
