<?xml version="1.0" encoding="UTF-8" standalone="no"?>
<!-- Created with Inkscape (http://www.inkscape.org/) -->

<svg
   width="4mm"
   height="10mm"
   viewBox="0 0 4.0000001 9.9999994"
   version="1.1"
   id="svg1681"
   inkscape:version="1.2.1 (9c6d41e410, 2022-07-14)"
   sodipodi:docname="upper_m_8.svg"
   inkscape:export-filename="..\..\..\..\Downloads\lower a diff canvas resize 3.0.png"
   inkscape:export-xdpi="96"
   inkscape:export-ydpi="96"
   xmlns:inkscape="http://www.inkscape.org/namespaces/inkscape"
   xmlns:sodipodi="http://sodipodi.sourceforge.net/DTD/sodipodi-0.dtd"
   xmlns="http://www.w3.org/2000/svg"
   xmlns:svg="http://www.w3.org/2000/svg"
   xmlns:rdf="http://www.w3.org/1999/02/22-rdf-syntax-ns#"
   xmlns:cc="http://creativecommons.org/ns#"
   xmlns:dc="http://purl.org/dc/elements/1.1/">
  <defs
     id="defs1675">
    <inkscape:path-effect
       effect="powerstroke"
       id="path-effect619"
       is_visible="true"
       lpeversion="1"
       offset_points="1.7132344,0.14222554 | 6.2079086,0.16541072"
       not_jump="true"
       sort_points="true"
       interpolator_type="CentripetalCatmullRom"
       interpolator_beta="0.75"
       start_linecap_type="round"
       linejoin_type="spiro"
       miter_limit="4"
       scale_width="1"
       end_linecap_type="round" />
    <inkscape:path-effect
       effect="simplify"
       id="path-effect617"
       is_visible="true"
       lpeversion="1"
       steps="1"
       threshold="0.0047745358"
       smooth_angles="0"
       helper_size="0"
       simplify_individual_paths="false"
       simplify_just_coalesce="false"
       step="1" />
    <inkscape:path-effect
       effect="powerstroke"
       id="path-effect562"
       is_visible="true"
       lpeversion="1"
       offset_points="1.2215952,0.13045992 | 5.4946638,0.14499392"
       not_jump="true"
       sort_points="true"
       interpolator_type="CentripetalCatmullRom"
       interpolator_beta="0.75"
       start_linecap_type="round"
       linejoin_type="spiro"
       miter_limit="4"
       scale_width="1"
       end_linecap_type="round" />
    <inkscape:path-effect
       effect="simplify"
       id="path-effect560"
       is_visible="true"
       lpeversion="1"
       steps="1"
       threshold="0.0047745358"
       smooth_angles="0"
       helper_size="0"
       simplify_individual_paths="false"
       simplify_just_coalesce="false"
       step="1" />
    <inkscape:path-effect
       effect="powerstroke"
       id="path-effect507"
       is_visible="true"
       lpeversion="1"
       offset_points="1.918116,0.13772692"
       not_jump="true"
       sort_points="true"
       interpolator_type="CentripetalCatmullRom"
       interpolator_beta="0.75"
       start_linecap_type="round"
       linejoin_type="spiro"
       miter_limit="4"
       scale_width="1"
       end_linecap_type="round" />
    <inkscape:path-effect
       effect="simplify"
       id="path-effect505"
       is_visible="true"
       lpeversion="1"
       steps="1"
       threshold="0.0047745358"
       smooth_angles="0"
       helper_size="0"
       simplify_individual_paths="false"
       simplify_just_coalesce="false"
       step="1" />
    <inkscape:path-effect
       effect="powerstroke"
       id="path-effect454"
       is_visible="true"
       lpeversion="1"
       offset_points="1.5756302,0.11627197 | 4.755176,0.13772692"
       not_jump="true"
       sort_points="true"
       interpolator_type="CentripetalCatmullRom"
       interpolator_beta="0.75"
       start_linecap_type="round"
       linejoin_type="spiro"
       miter_limit="4"
       scale_width="1"
       end_linecap_type="round" />
    <inkscape:path-effect
       effect="simplify"
       id="path-effect452"
       is_visible="true"
       lpeversion="1"
       steps="1"
       threshold="0.0047745358"
       smooth_angles="0"
       helper_size="0"
       simplify_individual_paths="false"
       simplify_just_coalesce="false"
       step="1" />
    <inkscape:path-effect
       effect="powerstroke"
       id="path-effect403"
       is_visible="true"
       lpeversion="1"
       offset_points="1.457577,0.12111664 | 5.233177,0.15053068 | 7.7732484,0.13288225"
       not_jump="true"
       sort_points="true"
       interpolator_type="CentripetalCatmullRom"
       interpolator_beta="0.75"
       start_linecap_type="round"
       linejoin_type="spiro"
       miter_limit="4"
       scale_width="1"
       end_linecap_type="round" />
    <inkscape:path-effect
       effect="simplify"
       id="path-effect401"
       is_visible="true"
       lpeversion="1"
       steps="1"
       threshold="0.0047745358"
       smooth_angles="0"
       helper_size="0"
       simplify_individual_paths="false"
       simplify_just_coalesce="false"
       step="1" />
    <inkscape:path-effect
       effect="powerstroke"
       id="path-effect354"
       is_visible="true"
       lpeversion="1"
       offset_points="2.2765321,0.10865893 | 4.9415083,0.12838364"
       not_jump="true"
       sort_points="true"
       interpolator_type="CentripetalCatmullRom"
       interpolator_beta="0.75"
       start_linecap_type="round"
       linejoin_type="spiro"
       miter_limit="4"
       scale_width="1"
       end_linecap_type="round" />
    <inkscape:path-effect
       effect="simplify"
       id="path-effect352"
       is_visible="true"
       lpeversion="1"
       steps="1"
       threshold="0.0047745358"
       smooth_angles="0"
       helper_size="0"
       simplify_individual_paths="false"
       simplify_just_coalesce="false"
       step="1" />
    <inkscape:path-effect
       effect="powerstroke"
       id="path-effect307"
       is_visible="true"
       lpeversion="1"
       offset_points="1.7693549,0.11973245 | 5.9608865,0.10000774"
       not_jump="true"
       sort_points="true"
       interpolator_type="CentripetalCatmullRom"
       interpolator_beta="0.75"
       start_linecap_type="round"
       linejoin_type="spiro"
       miter_limit="4"
       scale_width="1"
       end_linecap_type="round" />
    <inkscape:path-effect
       effect="simplify"
       id="path-effect305"
       is_visible="true"
       lpeversion="1"
       steps="1"
       threshold="0.0047745358"
       smooth_angles="0"
       helper_size="0"
       simplify_individual_paths="false"
       simplify_just_coalesce="false"
       step="1" />
    <inkscape:path-effect
       effect="powerstroke"
       id="path-effect262"
       is_visible="true"
       lpeversion="1"
       offset_points="1.5334011,0.16748701 | 5.5892239,0.23392813"
       not_jump="true"
       sort_points="true"
       interpolator_type="CentripetalCatmullRom"
       interpolator_beta="0.75"
       start_linecap_type="round"
       linejoin_type="spiro"
       miter_limit="4"
       scale_width="1"
       end_linecap_type="round" />
    <inkscape:path-effect
       effect="simplify"
       id="path-effect260"
       is_visible="true"
       lpeversion="1"
       steps="1"
       threshold="0.0047745358"
       smooth_angles="0"
       helper_size="0"
       simplify_individual_paths="false"
       simplify_just_coalesce="false"
       step="1" />
    <inkscape:path-effect
       effect="powerstroke"
       id="path-effect106"
       is_visible="true"
       lpeversion="1"
       offset_points="1.6883851,0.13608109 | 3.7857891,0.1878262"
       not_jump="true"
       sort_points="true"
       interpolator_type="CentripetalCatmullRom"
       interpolator_beta="0.75"
       start_linecap_type="round"
       linejoin_type="spiro"
       miter_limit="4"
       scale_width="1"
       end_linecap_type="round" />
    <inkscape:path-effect
       effect="simplify"
       id="path-effect104"
       is_visible="true"
       lpeversion="1"
       steps="1"
       threshold="0.0035951417"
       smooth_angles="0"
       helper_size="0"
       simplify_individual_paths="false"
       simplify_just_coalesce="false"
       step="1" />
    <inkscape:path-effect
       effect="powerstroke"
       id="path-effect99"
       is_visible="true"
       lpeversion="1"
       offset_points="1.7542629,0.074582291 | 8.0398341,0.10350495"
       not_jump="true"
       sort_points="true"
       interpolator_type="CentripetalCatmullRom"
       interpolator_beta="0.75"
       start_linecap_type="round"
       linejoin_type="spiro"
       miter_limit="4"
       scale_width="1"
       end_linecap_type="round" />
    <inkscape:path-effect
       effect="simplify"
       id="path-effect97"
       is_visible="true"
       lpeversion="1"
       steps="1"
       threshold="0.0035951417"
       smooth_angles="0"
       helper_size="0"
       simplify_individual_paths="false"
       simplify_just_coalesce="false"
       step="1" />
    <inkscape:path-effect
       effect="powerstroke"
       id="path-effect502"
       is_visible="true"
       lpeversion="1"
       offset_points="3.0091841,0.21607495 | 7.3602657,0.17554228 | 9.4159651,0.20236537"
       not_jump="true"
       sort_points="true"
       interpolator_type="CentripetalCatmullRom"
       interpolator_beta="0.75"
       start_linecap_type="round"
       linejoin_type="spiro"
       miter_limit="4"
       scale_width="1"
       end_linecap_type="round" />
    <inkscape:path-effect
       effect="simplify"
       id="path-effect500"
       is_visible="true"
       lpeversion="1"
       steps="1"
       threshold="0.0035951417"
       smooth_angles="0"
       helper_size="0"
       simplify_individual_paths="false"
       simplify_just_coalesce="false"
       step="1" />
    <inkscape:path-effect
       effect="powerstroke"
       id="path-effect241"
       is_visible="true"
       lpeversion="1"
       offset_points="2.6879454,0.34086734"
       not_jump="true"
       sort_points="true"
       interpolator_type="CentripetalCatmullRom"
       interpolator_beta="0.75"
       start_linecap_type="round"
       linejoin_type="spiro"
       miter_limit="4"
       scale_width="1"
       end_linecap_type="round" />
    <inkscape:path-effect
       effect="simplify"
       id="path-effect239"
       is_visible="true"
       lpeversion="1"
       steps="1"
       threshold="0.0028332064"
       smooth_angles="0"
       helper_size="0"
       simplify_individual_paths="false"
       simplify_just_coalesce="false"
       step="1" />
    <inkscape:path-effect
       effect="powerstroke"
       id="path-effect234"
       is_visible="true"
       lpeversion="1"
       offset_points="2.13563,0.075169555"
       not_jump="true"
       sort_points="true"
       interpolator_type="CentripetalCatmullRom"
       interpolator_beta="0.75"
       start_linecap_type="round"
       linejoin_type="spiro"
       miter_limit="4"
       scale_width="1"
       end_linecap_type="round" />
    <inkscape:path-effect
       effect="simplify"
       id="path-effect232"
       is_visible="true"
       lpeversion="1"
       steps="1"
       threshold="0.0028332064"
       smooth_angles="0"
       helper_size="0"
       simplify_individual_paths="false"
       simplify_just_coalesce="false"
       step="1" />
    <inkscape:path-effect
       effect="powerstroke"
       id="path-effect227"
       is_visible="true"
       lpeversion="1"
       offset_points="2.1868266,0.075169555"
       not_jump="true"
       sort_points="true"
       interpolator_type="CentripetalCatmullRom"
       interpolator_beta="0.75"
       start_linecap_type="round"
       linejoin_type="spiro"
       miter_limit="4"
       scale_width="1"
       end_linecap_type="round" />
    <inkscape:path-effect
       effect="simplify"
       id="path-effect225"
       is_visible="true"
       lpeversion="1"
       steps="1"
       threshold="0.0028332064"
       smooth_angles="0"
       helper_size="0"
       simplify_individual_paths="false"
       simplify_just_coalesce="false"
       step="1" />
    <inkscape:path-effect
       effect="powerstroke"
       id="path-effect166"
       is_visible="true"
       lpeversion="1"
       offset_points="1.9637935,0.075169555"
       not_jump="true"
       sort_points="true"
       interpolator_type="CentripetalCatmullRom"
       interpolator_beta="0.75"
       start_linecap_type="round"
       linejoin_type="spiro"
       miter_limit="4"
       scale_width="1"
       end_linecap_type="round" />
    <inkscape:path-effect
       effect="simplify"
       id="path-effect164"
       is_visible="true"
       lpeversion="1"
       steps="1"
       threshold="0.0028332064"
       smooth_angles="0"
       helper_size="0"
       simplify_individual_paths="false"
       simplify_just_coalesce="false"
       step="1" />
    <inkscape:path-effect
       effect="powerstroke"
       id="path-effect159"
       is_visible="true"
       lpeversion="1"
       offset_points="2.2611036,0.075169555"
       not_jump="true"
       sort_points="true"
       interpolator_type="CentripetalCatmullRom"
       interpolator_beta="0.75"
       start_linecap_type="round"
       linejoin_type="spiro"
       miter_limit="4"
       scale_width="1"
       end_linecap_type="round" />
    <inkscape:path-effect
       effect="simplify"
       id="path-effect157"
       is_visible="true"
       lpeversion="1"
       steps="1"
       threshold="0.0028332064"
       smooth_angles="0"
       helper_size="0"
       simplify_individual_paths="false"
       simplify_just_coalesce="false"
       step="1" />
    <inkscape:path-effect
       effect="powerstroke"
       id="path-effect152"
       is_visible="true"
       lpeversion="1"
       offset_points="2.826981,0.075169555"
       not_jump="true"
       sort_points="true"
       interpolator_type="CentripetalCatmullRom"
       interpolator_beta="0.75"
       start_linecap_type="round"
       linejoin_type="spiro"
       miter_limit="4"
       scale_width="1"
       end_linecap_type="round" />
    <inkscape:path-effect
       effect="simplify"
       id="path-effect150"
       is_visible="true"
       lpeversion="1"
       steps="1"
       threshold="0.0028332064"
       smooth_angles="0"
       helper_size="0"
       simplify_individual_paths="false"
       simplify_just_coalesce="false"
       step="1" />
    <inkscape:path-effect
       effect="powerstroke"
       id="path-effect145"
       is_visible="true"
       lpeversion="1"
       offset_points="3.8374447,0.075169555"
       not_jump="true"
       sort_points="true"
       interpolator_type="CentripetalCatmullRom"
       interpolator_beta="0.75"
       start_linecap_type="round"
       linejoin_type="spiro"
       miter_limit="4"
       scale_width="1"
       end_linecap_type="round" />
    <inkscape:path-effect
       effect="simplify"
       id="path-effect143"
       is_visible="true"
       lpeversion="1"
       steps="1"
       threshold="0.0028332064"
       smooth_angles="0"
       helper_size="0"
       simplify_individual_paths="false"
       simplify_just_coalesce="false"
       step="1" />
    <inkscape:path-effect
       effect="powerstroke"
       id="path-effect138"
       is_visible="true"
       lpeversion="1"
       offset_points="2.6880907,0.075169555"
       not_jump="true"
       sort_points="true"
       interpolator_type="CentripetalCatmullRom"
       interpolator_beta="0.75"
       start_linecap_type="round"
       linejoin_type="spiro"
       miter_limit="4"
       scale_width="1"
       end_linecap_type="round" />
    <inkscape:path-effect
       effect="simplify"
       id="path-effect136"
       is_visible="true"
       lpeversion="1"
       steps="1"
       threshold="0.0028332064"
       smooth_angles="0"
       helper_size="0"
       simplify_individual_paths="false"
       simplify_just_coalesce="false"
       step="1" />
    <inkscape:path-effect
       effect="powerstroke"
       id="path-effect131"
       is_visible="true"
       lpeversion="1"
       offset_points="1.9940581,0.075169555"
       not_jump="true"
       sort_points="true"
       interpolator_type="CentripetalCatmullRom"
       interpolator_beta="0.75"
       start_linecap_type="round"
       linejoin_type="spiro"
       miter_limit="4"
       scale_width="1"
       end_linecap_type="round" />
    <inkscape:path-effect
       effect="simplify"
       id="path-effect129"
       is_visible="true"
       lpeversion="1"
       steps="1"
       threshold="0.0028332064"
       smooth_angles="0"
       helper_size="0"
       simplify_individual_paths="false"
       simplify_just_coalesce="false"
       step="1" />
  </defs>
  <sodipodi:namedview
     id="base"
     pagecolor="#ffffff"
     bordercolor="#666666"
     borderopacity="1.0"
     inkscape:pageopacity="0.0"
     inkscape:pageshadow="2"
     inkscape:zoom="11.2"
     inkscape:cx="-1.3839286"
     inkscape:cy="14.910714"
     inkscape:document-units="mm"
     inkscape:current-layer="layer1"
     showgrid="false"
     fit-margin-top="0"
     fit-margin-left="0"
     fit-margin-right="0"
     fit-margin-bottom="0"
     inkscape:window-width="1920"
     inkscape:window-height="1057"
     inkscape:window-x="1072"
     inkscape:window-y="321"
     inkscape:window-maximized="1"
     showguides="true"
     inkscape:guide-bbox="true"
     inkscape:snap-bbox="true"
     inkscape:bbox-nodes="true"
     inkscape:snap-nodes="false"
     inkscape:snap-others="false"
     inkscape:snap-page="true"
     inkscape:snap-grids="false"
     inkscape:snap-to-guides="false"
     inkscape:snap-global="false"
     inkscape:pagecheckerboard="0"
     inkscape:showpageshadow="2"
     inkscape:deskcolor="#d1d1d1">
    <sodipodi:guide
       position="-6.1806075,9.4988692"
       orientation="0,1"
       id="guide816"
       inkscape:locked="false" />
    <sodipodi:guide
       position="-4.4101636,10.646923"
       orientation="0,1"
       id="guide818"
       inkscape:locked="false" />
    <sodipodi:guide
       position="2.7595724,11.09577"
       orientation="1,0"
       id="guide820"
       inkscape:locked="false" />
    <sodipodi:guide
       position="3.6572659,10.942217"
       orientation="1,0"
       id="guide822"
       inkscape:locked="false" />
    <sodipodi:guide
       position="-0.051625511,9.7492299"
       orientation="1,0"
       id="guide1853"
       inkscape:locked="false" />
    <sodipodi:guide
       position="-2.3720169,3.0175835"
       orientation="0,1"
       id="guide1855"
       inkscape:locked="false" />
  </sodipodi:namedview>
  <metadata
     id="metadata1678">
    <rdf:RDF>
      <cc:Work
         rdf:about="">
        <dc:format>image/svg+xml</dc:format>
        <dc:type
           rdf:resource="http://purl.org/dc/dcmitype/StillImage" />
      </cc:Work>
    </rdf:RDF>
  </metadata>
  <g
     inkscape:label="Layer 1"
     inkscape:groupmode="layer"
     id="layer1"
     transform="translate(17.028496,-147.22856)">
    <path
       d="m -16.814877,153.94254 c 0.07456,-0.19294 0.124197,-0.39465 0.180776,-0.73992 0.03452,-0.21066 0.07157,-0.47285 0.138078,-0.70403 0.08639,-0.34516 0.198167,-0.69053 0.339659,-1.03569 0.0532,-0.12979 0.112066,-0.26307 0.177187,-0.39906 0.08685,-0.18793 0.189267,-0.41422 0.303084,-0.61601 l -0.02307,0.0313 c 4.3e-4,-2.7e-4 -9.77e-4,0.002 -0.0059,0.005 -0.0046,0.003 -0.01367,0.009 -0.02724,0.0134 -0.01408,0.005 -0.03215,0.007 -0.0525,0.005 -0.02028,-0.003 -0.03756,-0.01 -0.05101,-0.0186 -0.01278,-0.008 -0.02115,-0.017 -0.02594,-0.0228 -0.0047,-0.006 -0.0075,-0.0103 -0.0084,-0.0119 -0.0019,-0.003 -9.77e-4,-0.001 8.51e-4,0.006 0.0018,0.007 0.0037,0.0164 0.0058,0.0286 0.0021,0.012 0.0039,0.0245 0.006,0.0386 0.0019,0.013 0.0042,0.0286 0.0066,0.0426 0.0012,0.007 0.0027,0.015 0.0044,0.0229 8.07e-4,0.004 0.0017,0.008 0.0029,0.0121 0.08315,0.44475 0.161001,0.95239 0.328664,1.42149 0.0074,0.0237 0.02097,0.0603 0.03886,0.0985 0.01723,0.0368 0.0417,0.082 0.074,0.12135 0.01634,0.0199 0.03763,0.042 0.06448,0.0608 0.01367,0.01 0.02959,0.0189 0.04777,0.0264 0.01829,0.008 0.03897,0.0136 0.06169,0.0163 0.02289,0.003 0.0465,0.002 0.07012,-0.003 0.02354,-0.005 0.0453,-0.0131 0.065,-0.0239 0.03873,-0.0212 0.06826,-0.051 0.09075,-0.0808 0.0059,-0.008 0.01098,-0.0161 0.0154,-0.0248 0.02185,-0.0429 0.03773,-0.0861 0.04966,-0.12796 0.0024,-0.008 0.0047,-0.0169 0.0068,-0.0253 0.01222,-0.0485 0.02005,-0.0965 0.02628,-0.14285 0.01212,-0.0901 0.01745,-0.1633 0.03477,-0.23303 9.19e-4,-0.004 0.0017,-0.007 0.0023,-0.0112 0.04021,-0.23085 0.0789,-0.47998 0.129349,-0.7146 0.04852,-0.22568 0.109927,-0.44895 0.200962,-0.66139 0.03763,-0.0705 0.06912,-0.13895 0.101626,-0.19844 0.03355,-0.0614 0.06623,-0.11038 0.10461,-0.14871 l -0.203713,0.0257 c -0.0097,-0.006 -0.01743,-0.013 -0.02296,-0.0201 -0.0052,-0.007 -0.0074,-0.0118 -0.0081,-0.0136 -6.58e-4,-0.002 4.2e-5,-2.4e-4 8.14e-4,0.004 8.17e-4,0.004 0.0016,0.0107 0.0022,0.0195 0.0013,0.0188 0.0012,0.0396 9.77e-4,0.068 -1.37e-4,0.022 -3.7e-4,0.0516 0.0019,0.0807 -0.0028,0.13548 0.01432,0.26552 0.03447,0.38365 0.02172,0.12737 0.04732,0.24556 0.06434,0.35535 0.119167,0.65856 0.281583,1.37426 0.39758,1.90347 0.07795,0.33416 0.144418,0.56155 0.211492,0.75523 a 0.16541072,0.16541072 90 0 0 0.312606,-0.10826 c -0.06244,-0.18028 -0.125628,-0.39694 -0.200329,-0.71999 -0.11602,-0.53136 -0.275961,-1.23886 -0.392519,-1.88545 -0.01807,-0.11856 -0.04398,-0.23898 -0.06377,-0.35625 -0.01911,-0.11324 -0.0322,-0.22179 -0.02906,-0.32853 2.17e-4,-0.007 -1.07e-4,-0.0148 -8.36e-4,-0.0222 -0.0011,-0.011 -0.0012,-0.0266 -9.84e-4,-0.0552 2.21e-4,-0.0244 7.44e-4,-0.0592 -0.0015,-0.0932 -0.0012,-0.0176 -0.0032,-0.0369 -0.0068,-0.057 -0.0036,-0.0199 -0.0091,-0.0422 -0.01796,-0.0649 -0.0089,-0.023 -0.0215,-0.0475 -0.03989,-0.0712 -0.01868,-0.024 -0.0423,-0.0457 -0.07119,-0.0628 -0.01642,-0.01 -0.03307,-0.0193 -0.05112,-0.0254 -0.01805,-0.006 -0.03744,-0.009 -0.05635,-0.006 -0.01892,0.002 -0.03706,0.01 -0.05302,0.0201 -0.01597,0.0104 -0.02972,0.0238 -0.04322,0.0373 -0.07118,0.071 -0.121921,0.15171 -0.162123,0.22534 -0.0413,0.0756 -0.07387,0.1471 -0.106019,0.20705 -0.0023,0.004 -0.0044,0.009 -0.0063,0.0129 -0.104397,0.2421 -0.171934,0.49094 -0.223182,0.73046 -0.05169,0.24161 -0.09194,0.50139 -0.13004,0.72278 -0.02168,0.0924 -0.03052,0.20026 -0.03848,0.26318 -0.0051,0.0406 -0.01068,0.0749 -0.01825,0.10627 -0.0013,0.005 -0.0026,0.0106 -0.004,0.0157 -0.0069,0.0253 -0.01522,0.0481 -0.02547,0.0689 l 0.0154,-0.0248 c -0.0028,0.004 7.8e-5,-0.002 0.01394,-0.009 0.0071,-0.004 0.01633,-0.008 0.0275,-0.01 0.01125,-0.002 0.02263,-0.003 0.03347,-0.001 0.01067,0.001 0.01946,0.004 0.02607,0.007 0.0065,0.003 0.01092,0.006 0.01335,0.007 0.0041,0.003 0.0042,0.004 -4.2e-5,-3.9e-4 -0.0086,-0.01 -0.02041,-0.0281 -0.03275,-0.0529 -0.01192,-0.0239 -0.02138,-0.0476 -0.02742,-0.0642 -0.161821,-0.44284 -0.23826,-0.9176 -0.328852,-1.37925 -0.0013,-0.007 -0.0033,-0.0131 -0.0051,-0.0196 9.99e-4,0.004 -7.3e-5,7.6e-4 -2.73e-4,1e-4 -6.07e-4,-0.002 -0.0014,-0.005 -0.0024,-0.01 -0.002,-0.009 -0.0042,-0.0208 -0.0069,-0.0353 -0.0026,-0.014 -0.0056,-0.0304 -0.0091,-0.0469 -0.0035,-0.0166 -0.0079,-0.0352 -0.01344,-0.0536 -0.0054,-0.018 -0.01321,-0.0401 -0.02481,-0.0618 -0.006,-0.0112 -0.01393,-0.0241 -0.02442,-0.037 -0.01055,-0.0129 -0.02505,-0.0275 -0.04443,-0.0401 -0.02008,-0.013 -0.04443,-0.0231 -0.07229,-0.0268 -0.02797,-0.004 -0.05414,-3.4e-4 -0.07687,0.007 -0.02225,0.007 -0.04061,0.0175 -0.055,0.0277 -0.01453,0.0103 -0.02692,0.0217 -0.03734,0.0327 -0.0045,0.005 -0.0089,0.009 -0.01282,0.0147 -0.0039,0.005 -0.0072,0.0109 -0.01024,0.0166 -0.116627,0.21557 -0.221717,0.45804 -0.302714,0.63871 -0.0658,0.13919 -0.12624,0.27767 -0.18096,0.41243 -0.14556,0.35849 -0.261042,0.71654 -0.349374,1.06973 -0.07108,0.2467 -0.11168,0.53189 -0.14467,0.7314 -0.05554,0.33585 -0.10164,0.51579 -0.16642,0.68342 a 0.14222554,0.14222554 90 0 0 0.26533,0.10254 z"
       id="path-1"
       inkscape:path-effect="#path-effect617;#path-effect619"
       inkscape:original-d="m -16.947542,153.89127 c 0.160841,-0.40958 0.174625,-0.85927 0.279296,-1.28613 0.08047,-0.32818 0.138026,-0.53273 0.245781,-0.84143 0.12147,-0.34799 0.170812,-0.44281 0.336552,-0.81146 0.03685,-0.082 0.07366,-0.16395 0.113115,-0.24469 0.216627,-0.44332 0.212313,-0.50526 0.294657,-0.0654 0.04413,0.23575 0.262047,1.51604 0.467821,1.54498 0.12605,0.0177 0.147072,-0.36063 0.149423,-0.37385 0.09225,-0.51864 0.153667,-1.03059 0.343535,-1.52645 0.01604,-0.0419 0.251358,-0.52852 0.291864,-0.45287 0.05328,0.0995 0.02295,0.34546 0.0391,0.45668 0.03161,0.21761 0.08146,0.49012 0.122891,0.70737 0.06761,0.35455 0.101841,0.53345 0.177353,0.87086 0.117162,0.52352 0.215892,1.08237 0.391014,1.58749"
       style="fill:#000000;fill-rule:nonzero;stroke:none" />
  </g>
</svg>
